<!-- by TradingView --><svg width="56" height="56" viewBox="0 0 56 56" xmlns="http://www.w3.org/2000/svg"><path fill="#F0F3FA" d="M0 0h56v56H0z"/><path d="M27.5 27.93V16.98h-.11c-.68 0-1.07.44-1.26 1.09l-.92 3.12a15.76 15.76 0 0 1-15.14 11.29c-1.8 0-4.07 1.45-4.07 3.25V36l15.72-.87c3.84-.16 5.78-3.37 5.78-7.2Z" fill="#DA251C"/><path d="M28.5 27.95V17h.11c.68 0 1.07.42 1.26 1.07l.92 3.12a15.76 15.76 0 0 0 15.13 11.29c1.8 0 4.08 1.45 4.08 3.25V36l-15.72-.87c-3.84-.16-5.78-3.35-5.78-7.18Z" fill="#29166F"/><circle cx="28" cy="15" r="1" fill="#DA251C"/></svg>