<!-- by TradingView --><svg width="56" height="56" viewBox="0 0 56 56" xmlns="http://www.w3.org/2000/svg"><path fill="#F0F3FA" d="M0 0h56v56H0z"/><path d="M15 14.08c0-1.15.9-2.08 2.03-2.08h21.94c1.12 0 2.03.93 2.03 2.08v27.84c0 1.15-.9 2.08-2.03 2.08H17.03A2.05 2.05 0 0 1 15 41.92V14.08Z" fill="#A22C29"/><path d="M32.77 22.73h-.87a7.72 7.72 0 0 1-2.94-.69c-1.18-.54-2.28-1.53-2.57-2.83a3.2 3.2 0 0 1 .12-1.82 5.37 5.37 0 0 1 1.89-2.36A11 11 0 0 1 30.07 14l.29.22-.6 1.76c-.15.43-.23.7-.24.8-.05.28 0 .56.12.85.24.57.83 1 1.42 1.24a5.57 5.57 0 0 0 2.73.3c.43-.07.63-.56.77-.9l1.36-3.19c.3.48.7 1.35 1.02 2.49.06.2.07.64.05 1.32-.04 1-.36 1.9-.97 2.73-.23.3-.45.52-.8.67-.34.14-.85.22-1.22.3v6.91l-1-.82-.16-1.94s-1.51-1.82-2.44-2.9c-1.94.32-3.92.76-5.85 1.16-.25.05-.42.1-.5.16-.2.15-.38.36-.37.62.02.49.4.68.84.78.12.03.22 0 .34-.02 1.23-.22 2.47-.33 3.63-.54l.51 1.64c-.4.3-.58.7-.65 1.2-.05.3-.02.66.1 1.05.27.94.9 1.92 1.55 2.65l-.58.46a3.55 3.55 0 0 1-1.34-1.3c-.3-.54-.47-1.1-.52-1.7-.9 1.03-1.72 2-2.53 2.95a.18.18 0 0 0-.03.12c.02 1.77 2.75 1.87 4 1.93v1h-7v-.7l5.87-6.54-1.4.35c.04 1.05-.8 1.74-1.86 1.85l-.01.32c-.06.67-.57 1.04-1.24 1.1-.35.03-.68.02-1-.05l-1.69-1.57L19.36 32H19V22h8.59l.47.33-.5.4.84.88 2.25-.28.94 1.13 1.65-1.63c.06-.06-.45-.1-.47-.1Zm-2.96-8.2c-1.31.72-2.76 1.88-3.07 3.39-.39 1.89 1.12 3.37 2.8 4 1.63.6 3.4.6 5.1.18.4-.1.7-.2.96-.53a4.72 4.72 0 0 0 1-3.62 6.62 6.62 0 0 0-.6-2.03c-.17.4-.59 1.26-1.13 2.55-.08.2-.18.37-.28.54-.2.32-.5.5-.89.52a5.6 5.6 0 0 1-3.33-.63c-.94-.56-1.48-1.56-1.1-2.63.15-.44.3-1.03.54-1.73Zm-4.12 9.67c.32 0 .63-.01.95-.04.24-.01 1.1-.09.88-.53a1.18 1.18 0 0 0-.2-.3 8.14 8.14 0 0 0-.96-.83c-.1-.08-.15-.14-.27-.17-.4-.11-.87-.05-1.1.31-.12.2-.19.45-.18.73 0 .22.73.7.88.83Zm-2.24.75c.28-.25.62-.44 1-.49a575 575 0 0 0-.84-.73.42.42 0 0 0-.19-.1c-.65-.14-1.27.2-1.3.9 0 .07.03.23.1.27l.9.73c.07-.22.19-.45.33-.58Zm.27 2.1-1.17-1.1c-.29-.26-.98-.3-1.29-.1-.4.24-.4 1.11-.07 1.43l2.93 2.83c.19.18.72.16.97.2.25.05.53-.2.63-.38.25-.49-.12-1.13-.49-1.47l-1.5-1.42Zm1.04.03c.4.41.86.84 1.21 1.29l1.38-.03c.47 0 .84-.6.7-1-.04-.14-.28-.66-.47-.63-.94.1-1.88.23-2.82.37Zm-1.86 2.73a299.03 299.03 0 0 1-1.57-1.38 1.6 1.6 0 0 0-.64-.1c-.34.02-.5.2-.52.52 0 .2.05.53.19.67l2.3 2.13c.19.04.49.13.69.16.36.05.68-.22.64-.6-.05-.38-.27-.67-.56-.92l-.53-.48ZM33 38h2.65c.67 0 1.35.51 1.35 1.14v.06c0 .45-.44.85-.89 1L37 42h-1.51l-.85-2.25.43-.02a.47.47 0 0 0 .46-.46.47.47 0 0 0-.48-.46h-.55V42H33v-4ZM19 42l1.87-4h1.56L24 42h-1.26l-.35-1h-1.71l-.42 1H19Zm2.1-2h.94l-.43-1.24-.52 1.24ZM28 41.63l.22.37h.9l.44-1h1.77l.36 1H33l-1.62-4h-1.62L28 41.63ZM30.97 40h-.98l.53-1.24.45 1.24ZM25.5 38H24v4h1.5v-1.85l1 1.85h1.06l.2-.44-1.06-1.63h.01L28 38h-1.48l-1.02 1.76V38Z" fill="#FCFEFF"/></svg>