<!-- by TradingView --><svg width="56" height="56" viewBox="0 0 56 56" xmlns="http://www.w3.org/2000/svg"><path fill="#F0F3FA" d="M0 0h56v56H0z"/><path fill-rule="evenodd" d="M12 17h9v9.37L17.63 23l-.55.56 3.79 3.8a2 2 0 0 1 2.31.03l3.79-3.79-.6-.6L23 26.37V17h25v5H36v3h12v5H36v11h-9v-.86l-5.43.83a8.9 8.9 0 0 1-1.09.03c-4.71-.15-8.48-4.57-8.48-9.29V17Zm11.97 11.64a1.99 1.99 0 0 0-.32-.77l3.8-3.8.55.56L24.63 28H29v.64h-5.03Zm-.32 1.5a2 2 0 0 0 .32-.78H29V30h-4.37L28 33.37l-.56.55-3.8-3.79Zm-1.28.83a2 2 0 0 0 .81-.36l3.79 3.79-.6.6L23 31.63V37h-.63v-6.03Zm-1.5-.32c.25.17.54.29.85.33V37H21v-5.37L17.63 35l-.55-.56 3.8-3.79Zm-.84-1.29c.06.3.18.59.36.82l-3.79 3.79-.6-.6L19.37 30H15v-.64h5.03Zm.36-1.54a2 2 0 0 0-.36.82H15V28h4.37L16 24.63l.6-.6 3.79 3.79Z" fill="#1F1A17"/></svg>