<!-- by TradingView --><svg width="56" height="56" viewBox="0 0 56 56" xmlns="http://www.w3.org/2000/svg"><path fill="#F0F3FA" d="M0 0h56v56H0z"/><path d="M28 45a17 17 0 0 0 16.97-18h-2a15 15 0 0 1-29.11 6h-2.11A17 17 0 0 0 28 45ZM11.03 29a17 17 0 0 1 33.22-6h-2.1a15 15 0 0 0-29.12 6h-2Z" fill="#014F9E"/><path d="M13 27h3.64c.11.52.41 1.33 1.36 2h-5v-2ZM43 27h-3.64A3.24 3.24 0 0 1 38 29h5v-2ZM28 27H18c.3 1.17 1.41 2 2.7 2H35.32c1.28 0 2.38-.83 2.68-2H28Z" fill="#014F9E"/><circle cx="25" cy="32" r="1" fill="#014F9E"/><circle cx="28" cy="32" r="1" fill="#014F9E"/><circle cx="31" cy="32" r="1" fill="#014F9E"/><path d="m37 36-9-22-9 22a3.1 3.1 0 0 0 2.87-1.94L28 19.08l6.13 14.98A3.1 3.1 0 0 0 37 36Z" fill="#014F9E"/></svg>