<!-- by TradingView --><svg width="56" height="56" viewBox="0 0 56 56" xmlns="http://www.w3.org/2000/svg"><path fill="#F0F3FA" d="M0 0h56v56H0z"/><path d="M20 22H5l.82 1.54H9.7v-.33H13v-.43h3.45v-.47l3.44-.02L20 22ZM18.95 24H6.08l.82 1.54h3.8v-.33H14v-.43h3.45v-.47l1.36-.02.14-.29ZM17.88 26H7.16l.86 1.54h3.8v-.33H15v-.43h2.5l.38-.78ZM16.85 28H8.27l.84 1.54H13v-.33h3.23l.62-1.21ZM15.8 30H9.41l.8 1.54h3.9v-.33h1.04L15.8 30ZM14.73 32h-4.24l.83 1.53h2.62l.79-1.53ZM11.59 34h2.1l-1.05 2-1.05-2ZM24.88 24h5.43l.69 8h-3.4l-.17-2h-2.8l-1.23 2H20l4.88-8Zm.96 4h1.41l-.17-2.03L25.84 28ZM37.07 24H34.7L32 32h5.99c1.24 0 2.95-1.59 2.95-2.76 0-.74-.67-1.34-1-1.55.69-.4 2.06-1.45 2.06-2.41 0-.97-1.02-1.26-1.52-1.28h-3.41Zm-.05 3 .45-1.34h1.05c.1 0 .29.13.29.51 0 .74-.84.83-1.8.83Zm-1.09 3.23.41-1.23h1.46c.09.01.28.13.28.52 0 .69-.89.76-1.88.76a.68.68 0 0 1-.27-.05ZM51 24.39l-.67 1.68c-.25-.03-.93-.07-1.6-.07-2.28 0-3.16 1.97-3.16 2.42 0 .46.25 1.2 1.65 1.2 1.12 0 2.05-.17 2.38-.25L48.5 31.8c-.31.07-1.26.2-2.52.2-2.55 0-3.99-1.07-3.99-2.8 0-3.6 4.3-5.2 6.65-5.2a5.9 5.9 0 0 1 2.35.39Z" fill="#354B7B"/></svg>