<!-- by TradingView --><svg width="56" height="56" viewBox="0 0 56 56" xmlns="http://www.w3.org/2000/svg"><path fill="#F0F3FA" d="M0 0h56v56H0z"/><path d="M43.38 16C35.56 16 24.54 23.18 20 26.76c4.56-2.63 9.6-3.8 13-3.8 8.94 0 8.74 6.7 7.53 10.04C47.5 24.62 48 21.26 48 19.24c0-2.02-2-3.24-4.62-3.24Z" fill="#DF127B"/><path d="M36.13 28h1.57c-.36.65-.32 1.56-.32 2.41 0 2.04-.07 4.16.13 6.2.08.76.14 1.71.49 2.39h-2.32c.28-.85.32-2.27.32-3.23v-5.63c0-.17 0-.37-.11-.37s-.16.11-.2.25L32.1 39l-2.78-8.33c-.18-.5-.29-.9-.43-.9s-.14.3-.14.56l-.02 5.51c0 1.33 0 2.6.35 3.16H27.2c.79-1.5.79-4 .79-5.8v-4.25c0-.46-.02-.7-.4-.95h1.9c.19 0 .43.03.49.25l2.19 7.2c.08.26.12.55.25.55.14 0 .19-.17.28-.4l2.77-6.89c.14-.35.25-.71.65-.71ZM21 28.74v3.93h.41c1.34 0 2.59-.5 2.59-2.3 0-1.51-.8-1.7-2.05-1.7-.3 0-.61.04-.95.07Zm-1.34 5.96v-4.32c0-.76-.16-1.8-.5-2.38h4.19c1.19 0 2.15.57 2.15 2.04 0 1.47-.93 2.18-2.01 2.68v.04c1.41.35 2.51.98 2.51 2.8 0 2.66-1.7 3.44-3.78 3.44H19c.5-1.2.66-3 .66-4.3ZM21 33.28v2.67c0 1.95 0 2.38 1.02 2.38 1.56 0 2.52-.68 2.52-2.48 0-2.32-1.53-2.57-3.28-2.57H21ZM14.41 33.31l-1.07-3.52c-.03-.12-.13-.41-.26-.41-.14 0-.23.33-.26.41l-1.34 3.52h2.93ZM18 39h-1.66l-1.67-5h-3.45c-.66 1.5-1.35 3.36-1.35 4.34 0 .23.02.44.05.66H8l.34-.48c.87-1.24 4.03-8.64 4.03-10.05l.02-.47h1.8c.99 3.43 1.97 7.17 3.5 10.36L18 39Z"/></svg>