<!-- by TradingView --><svg width="56" height="56" viewBox="0 0 56 56" xmlns="http://www.w3.org/2000/svg"><path fill="#F0F3FA" d="M0 0h56v56H0z"/><path d="M12.5 16.3c0-1.05.85-1.9 1.9-1.9h27.2c1.05 0 1.9.85 1.9 1.9v23.4a1.9 1.9 0 0 1-1.9 1.9H14.4a1.9 1.9 0 0 1-1.9-1.9V16.3Z" fill="#C3DA9B"/><path fill-rule="evenodd" d="M42.1 15H13.9c-.5 0-.9.4-.9.9v24.2c0 .5.4.9.9.9h28.2c.5 0 .9-.4.9-.9V15.9c0-.5-.4-.9-.9-.9Zm-28.2-1a1.9 1.9 0 0 0-1.9 1.9v24.2c0 1.05.85 1.9 1.9 1.9h28.2a1.9 1.9 0 0 0 1.9-1.9V15.9a1.9 1.9 0 0 0-1.9-1.9H13.9Z" fill="#829F60"/><circle cx="28" cy="28" r="11" fill="#D7E1B8"/><circle cx="28" cy="28" r="8" fill="#E8F2CD"/><circle cx="28" cy="28" r="5" fill="#FBFDE6"/><path d="M36.66 15a32.62 32.62 0 0 1-1.25 3.29c-.3.66-.8 1.07-1.5 1.22a.24.24 0 0 0-.16.1.34.34 0 0 0-.07.25.17.17 0 0 0 .12.14c.68.22 1.3.51 1.86.89 1.11.74 2.19.66 3.28 1.46.5.48 1.31.8 1.46 1.05.13.22-.14.86-.28 1.06a.15.15 0 0 1-.15.06l-1.03-.1a6.1 6.1 0 0 1-.3-.7c-.3-.75-1.5-1.1-2.18-1.37a6.89 6.89 0 0 1-2.53-1.54 2.54 2.54 0 0 1-.65-1.2c-.16-.6-.25-1.06-.3-1.35-.11-.96.4-2.32.55-3.26h3.13Z" fill="#A9836D"/><path d="M37.05 15c-.22.72-.51 1.73-.67 2.46-.17.77.06 1.38.7 1.84.98.7 2.72 1.48 3.1 2.7.21.73.49 1.46.82 2.2l-.1.6c0 .02-.05.02-.07.03-.04 0-.06-.02-.08-.06a3.43 3.43 0 0 0-1.56-2c-.74-.54-1.64-.9-2.48-1.23-1.05-.42-1.82-1.2-2.9-1.54a.18.18 0 0 1-.09-.06c-.12-.14.01-.4.18-.43a2.03 2.03 0 0 0 1.51-1.22A32.6 32.6 0 0 0 36.66 15h.4Z" fill="#725549"/><path d="M40.56 26.7c-.16.41-.17.76-.21 1.16-.02.12-.16.18-.25.11-.24-.16-.45-.4-.64-.72-.1-.24-.15-.5-.14-.78.02-.34 0-.6-.04-.76-.1-.43-.22-.86-.34-1.29l1.03.1c.06 0 .1-.01.15-.06.27-.37-.52-3.42.63.3.02.07.08.08.13.06 0 0 .01 0 0 0 0 0-.14 1.4-.32 1.88Z" fill="#9C6F5A"/><path d="M13 29.47c1.22-.13 2.43-.2 3.65-.2.75 0 1.34.28 1.78.86.04.05.09.08.15.1.1 0 .18 0 .26-.05a.18.18 0 0 0 .07-.07.16.16 0 0 0 .02-.09c-.06-.7-.03-1.37.1-2.02.25-1.3-.25-2.22.06-3.53.26-.62.24-1.5.42-1.72.15-.2.87-.22 1.12-.17.06.01.1.05.12.1l.32.96c-.08.1-.26.29-.54.56-.6.56-.45 1.78-.43 2.5a6.47 6.47 0 0 1-.45 2.88c-.17.4-.46.76-.87 1.06-.52.39-.92.65-1.18.8-.87.5-3.65 1.31-4.6 1.56v-3.53Z" fill="#A9836D"/><path d="M13 29.08c.77-.08 1.7-.2 2.46-.35.8-.16 1.3-.61 1.47-1.36.28-1.17.31-3.04 1.33-3.86.6-.49 1.2-1.03 1.76-1.62l.62-.15h.02l.03.05c.02.03.01.07-.02.1a3.4 3.4 0 0 0-1.28 2.2c-.21.88-.31 1.76-.29 2.64.03 1.11-.27 2.18-.17 3.29 0 .03 0 .06-.02.1-.09.16-.38.14-.48 0a2.1 2.1 0 0 0-1.78-.86c-1.22.01-2.43.08-3.65.2v-.38Z" fill="#725549"/><path d="M22.6 21.28c.45-.02.79-.15 1.19-.27.11-.04.23.06.2.18-.05.27-.2.56-.43.85-.18.2-.4.34-.68.44-.33.13-.57.24-.71.34l-1.1.82-.32-.95a.15.15 0 0 0-.12-.11c-.47-.1-3.05 1.83.04-.7.05-.04.03-.1 0-.13-.02 0 0 0 0 0s1.4-.44 1.93-.47Z" fill="#9C6F5A"/><path d="M38.24 41c-.64-1.02-3.32-.84-3.86-1.91a2.18 2.18 0 0 1-.03-2 .26.26 0 0 0 .02-.18.36.36 0 0 0-.15-.21.16.16 0 0 0-.18 0c-.58.39-1.18.69-1.8.89-1.25.4-1.84 1.29-3.11 1.63-.66.08-1.41.51-1.69.47-.24-.04-.57-.67-.64-.92a.16.16 0 0 1 .04-.16l.7-.74c.12.02.36.1.72.22.75.26 1.75-.47 2.36-.83 1.03-.6 3.53-1.68 4.75-1.09.56.28 1.84.92 2.09 1.09.8.52 3.9 3.01 4.54 3.74h-3.76Z" fill="#A9836D"/><path d="M38.03 41c-.41-.65-2.17-1-3.23-1.36-1.05-.36-1.47-.1-2.2.1-.9.25-2.11.87-3.16.86-.28 0-.54-.07-.79-.18-.69-.3-1.42-.56-2.18-.78l-.4-.47v-.02l.01-.05c.03-.03.06-.04.1-.03a3.2 3.2 0 0 0 2.48.08c.86-.24 1.67-.58 2.44-1.02.95-.56 2.02-.8 2.94-1.43a.16.16 0 0 1 .09-.03c.18 0 .3.26.22.42-.3.67-.07.86.27 1.52.53 1.08 3.17 1.37 3.81 2.39h-.4Z" fill="#725549"/><path d="M24.8 37.65c-.21-.39-.47-.62-.76-.92a.16.16 0 0 1-.04-.1c0-.08.04-.15.1-.17a2.5 2.5 0 0 1 .94-.03c.26.07.48.2.7.4.24.23.45.39.6.46.4.2.8.4 1.2.58l-.7.74a.16.16 0 0 0-.04.16c.12.46 2.94 1.83-.62.3-.06-.02-.1.02-.12.08 0-.01 0 0 0 0s-1-1.04-1.25-1.5Z" fill="#9C6F5A"/><path d="M29.42 26.52c-.6.16-1.22.12-1.83.2-.9.11-1.77.09-2.65-.08l-.78-.03a.17.17 0 0 1-.09-.03.17.17 0 0 1-.04-.24 3.97 3.97 0 0 1 2.39-1.64c.1-.02.13-.15.06-.23l-.5-.5a.28.28 0 0 1-.04-.34c.24-.43.6-.64 1.1-.63.82.01 1.6.32 2.36.91.68.55.32.9-.1 1.4a.2.2 0 0 0-.04.17l.16 1.04Z" fill="#87A456"/><path d="M29.07 31.29c.05-.03.06-.09.05-.18l-.33-2.5c-.08-.5.15-.96.05-1.47-.01-.06 0-.1.07-.14l.71-.4a.82.82 0 0 0 .48-.2c.2-.18.03-.49.33-.7.65-.44 1.01-.6 1.76-.4.8.2 1.46.42 1.7 1.28.08.34.12.74.1 1.2 0 .28-.09.3-.24.08a1.84 1.84 0 0 0-1-.75c-.64-.22-1.35-.7-2.05-.62-.47.06-.9.6-1.04 1.03-.2.56-.45 1.39-.14 1.95.16.3.25.38.2.73-.06.33-.1.66-.1.99-.01.07-.02.3.04.3.85.05-.85-.04-.6-.2Z" fill="#7D9250"/><path d="m28.82 31.33 1.16-.01 2.15.85c.55.22.73.49.77 1.03 0 .13-.05.22-.18.27-1.66.56-3.48.68-5.45.34-.5-.08-.93-.2-1.26-.35-.34-.16-.44-.41-.3-.76.3-.73 2.45-1.27 3.1-1.37Z" fill="#3D3A35"/></svg>