<!-- by TradingView --><svg width="56" height="56" viewBox="0 0 56 56" xmlns="http://www.w3.org/2000/svg"><path fill="#F0F3FA" d="M0 0h56v56H0z"/><path d="M24 36.43c6.54-4.23 10.72-3.67 12-2.87-3.27-1.34-9.12 1.74-11.64 3.44l-.36-.57Z" fill="#033480"/><path d="M38 8v24.94c-.32-.7-1.64-1.94-4.32-1.94-3.36 0-10.74 1.94-19.68 8l7.85-10.14C28.73 25.08 33.9 23.4 36 23.01c-2.98-.15-7.9 1.57-12.35 3.53L38 8ZM23.65 26.54c-3.01 1.32-5.8 2.75-7.66 3.77L15 33a98.29 98.29 0 0 1 6.85-4.14l1.8-2.32ZM38 43.5 14 44v-1l24 .5Z" fill="#033480"/><path d="M34.02 41.92c.24-.02.4-.05.49-.09.08-.04.14-.15.19-.32l.52-2.02c.04-.16.04-.26-.02-.31-.06-.05-.2-.08-.44-.1l.02-.08h1.83l-.02.08c-.24.01-.4.04-.5.09-.1.04-.16.14-.2.3l-.57 2.17v.12c.02.03.07.04.15.05l.15.01h.3c.58 0 .98-.03 1.2-.1.22-.06.46-.23.72-.5H38l-.52.78H34l.02-.08ZM30.02 41.92c.23-.02.38-.05.46-.09.08-.04.14-.15.18-.32l.5-2.02c.04-.16.03-.26-.02-.31-.06-.05-.2-.08-.42-.1l.02-.08H34l-.14.65h-.16c0-.2-.04-.33-.13-.39-.1-.06-.32-.09-.68-.09h-.83c-.09 0-.15.01-.17.04-.03.02-.05.06-.06.12l-.25 1h.94c.26 0 .43-.02.52-.08a.9.9 0 0 0 .26-.35h.14l-.25 1.05h-.15c0-.18-.03-.3-.09-.35-.06-.05-.22-.08-.47-.08h-.95l-.28 1.12c-.02.09 0 .14.08.16.07.01.3.02.68.02.42 0 .73-.03.95-.1.21-.06.43-.23.65-.49h.17l-.46.77H30l.02-.08ZM27.53 39c.22 0 .44.02.66.07l.38.07.17-.03c.06-.03.1-.06.13-.11H29l-.2.98h-.13a.95.95 0 0 0-.2-.47c-.2-.23-.5-.34-.92-.34-.43 0-.8.12-1.14.36a1.7 1.7 0 0 0-.66 1c-.1.38-.04.7.19.93.22.23.55.34.99.34.32 0 .62-.05.91-.16.17-.06.36-.15.58-.27l.09.08a3.06 3.06 0 0 1-1.75.55c-.66 0-1.14-.15-1.45-.45a1 1 0 0 1-.27-1.03c.11-.43.39-.78.84-1.07a3 3 0 0 1 1.65-.45ZM22.53 39c.22 0 .44.02.66.07l.38.07.17-.03c.06-.03.1-.06.13-.11H24l-.2.98h-.13a.95.95 0 0 0-.2-.47c-.2-.23-.5-.34-.92-.34-.43 0-.8.12-1.14.36a1.7 1.7 0 0 0-.66 1c-.1.38-.04.7.19.93.22.23.55.34.99.34.32 0 .62-.05.91-.16.17-.06.36-.15.58-.27l.09.08a3.06 3.06 0 0 1-1.75.55c-.66 0-1.14-.15-1.45-.45a1 1 0 0 1-.27-1.03c.11-.43.39-.78.84-1.07a3 3 0 0 1 1.65-.45ZM17.45 40.86l-.47-1.23-1.19 1.23h1.66ZM14 42l.02-.08a.94.94 0 0 0 .46-.13c.11-.07.33-.28.65-.6L17.28 39h.14l1.05 2.53c.07.16.13.27.2.3.05.05.17.08.33.09l-.02.08h-1.84l.03-.08.42-.04c.06-.02.1-.06.13-.13v-.11a.73.73 0 0 0-.05-.18l-.17-.42H15.6l-.5.53a.48.48 0 0 0-.1.15c-.02.08.02.13.1.16.06.02.18.03.34.04l-.02.08H14Z" fill="#212121"/></svg>