<!-- by TradingView --><svg width="56" height="56" viewBox="0 0 56 56" xmlns="http://www.w3.org/2000/svg"><path fill="#181B1E" d="M0 0h56v56H0z"/><path d="M25.32 19H14l3.68 10L14 39h11.32L29 29l-3.68-10Z" fill="#4FADEA"/><path d="M39.32 12H28l3.68 10L28 32h11.32L43 22l-3.68-10Z" fill="#57A144"/><path d="M33.32 24H22l3.68 10L22 44h11.32L37 34l-3.68-10Z" fill="#C8C84A"/><path d="m36.26 32-2.94-8h-2.37L28 32h8.26Z" fill="#77C849"/><path d="M27.16 24H22l3.68 10-1.84 5h1.48L29 29l-1.84-5Z" fill="#C8EA5D"/></svg>