<!-- by TradingView --><svg width="56" height="56" viewBox="0 0 56 56" xmlns="http://www.w3.org/2000/svg"><path fill="#F0F3FA" d="M0 0h56v56H0z"/><path d="M15 18h7v11l-7 3V18Z" fill="#34C1E0"/><path d="M31 15h7v10.5L31 30V15Z" fill="#37C3E1"/><path d="M23 20h7v11.5l-7-.59V20Z" fill="#0FA4C2"/><path d="m44.32 24.06.68-4.82-4.85.45 1.37 1.44L27 31.3 21.45 27h-.01L11 34h4.05l6.3-4.28L27 34l16.08-11.24 1.24 1.3Z" fill="#0086B3"/><path fill-rule="evenodd" d="M16 37v4h.5v-1.5h3.08c.79 0 1.42-.51 1.42-1.25 0-.75-.63-1.25-1.42-1.25H16Zm.5.5V39h3.25c.41 0 .75-.42.75-.75 0-.4-.34-.75-.75-.75H16.5Z" fill="#0FA4C2"/><path d="M24.44 37H23.2c-.66 0-1.19.51-1.19 1.14 0 .63.53 1.15 1.2 1.15h2.68a.6.6 0 0 1 .62.6.6.6 0 0 1-.62.59H22.5V41h3.34c.64 0 1.16-.5 1.16-1.11 0-.62-.52-1.14-1.16-1.14h-2.7a.62.62 0 0 1-.64-.6c0-.34.28-.62.63-.62h1.31V37ZM36.44 37h-1.25c-.66 0-1.19.51-1.19 1.14 0 .63.53 1.15 1.2 1.15h2.68a.6.6 0 0 1 .62.6.6.6 0 0 1-.62.59H34.5V41h3.34c.64 0 1.16-.5 1.16-1.11 0-.62-.52-1.14-1.16-1.14h-2.7a.62.62 0 0 1-.64-.6c0-.34.28-.62.63-.62h1.31V37ZM30.71 37h-1.17C28 37 28 38.14 28 38.14V41h.5v-1.5H33V39h-4.5v-.97c.1-.3.47-.53.85-.53h1.36V37Z" fill="#0FA4C2"/></svg>