<!-- by TradingView --><svg width="56" height="56" viewBox="0 0 56 56" xmlns="http://www.w3.org/2000/svg"><path fill="#F0F3FA" d="M0 0h56v56H0z"/><path d="M30.46 15.04c-.07-.04-.14-.02-.23.04-.26.17-.47.46-.64.79L16.83 40.11c-.52.99-1.6 1.87-2.74 1.87-1.03 0-2.08-.52-2.09-1.67 0-.34.06-.68.14-1 .42-1.8 1.57-3.53 2.38-5.16a559.83 559.83 0 0 1 11.91-22.3c.5-.87 1.46-1.91 2.52-1.85 1.4.09 2.3 1.78 2.9 2.86l6.82 12.2c.2.39.32.86.31 1.3-.03 1.09-1.05 1.63-2.09 1.64l-4.59.01c-.6 0-1.29.25-1.3.98 0 .5.3 1 .8 1.01l5.63-.02c4.33-.01 5.6 2.15 5.57 6.16a12.75 12.75 0 0 1-.43 3.64C42.1 41.36 40.54 42 39.01 42H21.17c-1.2 0-2.18-.59-2.17-1.9.02-1.85 1.6-2.1 3.25-2.1 5.04-.02 9.5-.04 14.54 0 .86 0 1.23-1.26 1.21-2-.03-.85-.45-2-1.4-2h-8.05c-2.7-.06-3.53-2.69-3.55-5.01-.02-3.22 2.03-4.9 5.1-4.96l4.23-.03c.35 0 .97-.23.9-.7 0-.1-.07-.24-.17-.41-2.47-4.2-3.92-6.89-4.33-7.6a.7.7 0 0 0-.27-.25Z" fill="#333D46"/></svg>