<!-- by TradingView --><svg width="56" height="56" viewBox="0 0 56 56" xmlns="http://www.w3.org/2000/svg"><path fill="#F0F3FA" d="M0 0h56v56H0z"/><path d="M17.7 40.7a14.29 14.29 0 0 0 7.08 3.3c-2.3-.48-4.37-2.01-5.98-4.24-.44.34-.82.66-1.1.95ZM17.18 40.25c.32-.32.73-.69 1.23-1.06-.52-.8-.98-1.67-1.38-2.61-.65.62-1.18 1.23-1.58 1.76.53.68 1.1 1.32 1.73 1.9ZM15.02 37.76c.45-.57 1.03-1.22 1.73-1.87a22.94 22.94 0 0 1-1.4-7.89H12a17.4 17.4 0 0 0 3.02 9.76ZM12.02 27h3.34c.1-2.64.61-4.91 1.46-7.06a18.1 18.1 0 0 1-1.7-1.83 16.26 16.26 0 0 0-3.1 8.88ZM15.54 17.54c.4.52.93 1.1 1.56 1.71.41-.94.89-1.8 1.42-2.6-.48-.36-.89-.7-1.21-1.01-.64.58-1.23 1.21-1.77 1.9ZM17.83 15.18A14.27 14.27 0 0 1 24.78 12c-2.24.47-4.27 1.94-5.86 4.09-.43-.32-.8-.63-1.09-.91Z" fill="#2E3192"/><path d="M19.37 39.34C21.1 41.8 23.42 43.49 26 44c-2.1-.57-3.97-2.58-5.3-5.48-.48.26-.93.54-1.33.82ZM18.98 38.77c.44-.3.92-.6 1.45-.88-.41-1.01-.76-2.11-1.04-3.29-.67.47-1.27.96-1.82 1.45.4.98.88 1.89 1.41 2.72ZM17.3 35.37c.58-.5 1.23-1.02 1.93-1.5a30.35 30.35 0 0 1-.59-5.87h-2.61c.01 2.6.47 5.2 1.27 7.37ZM16.04 27h2.61c.05-1.87.27-3.45.62-5.09-.69-.47-1.32-.96-1.9-1.46a19.88 19.88 0 0 0-1.33 6.54ZM17.65 19.77c.53.48 1.13.96 1.79 1.42.29-1.17.65-2.27 1.08-3.27-.52-.28-1-.57-1.43-.85-.54.82-1.03 1.73-1.44 2.7ZM19.49 16.5c1.72-2.37 3.99-4 6.51-4.5-2.06.56-3.89 2.49-5.2 5.29-.48-.26-.92-.52-1.31-.79Z" fill="#2E3192"/><path d="M28 12h-.04c-2.76 0-4.86 2.22-6.5 5.72 1.86.88 3.84 1.56 6.54 1.52V12ZM20.08 21.68c.3-1.2.66-2.32 1.1-3.34 1.94.91 4.02 1.7 6.82 1.66v4c-3.08.2-5.5-.83-7.76-2.23l-.16-.1Z" fill="#2E3192"/><path d="M28 24.67c-3.23.19-5.75-.87-8.08-2.29a24.9 24.9 0 0 0-.55 4.62H28v-2.33ZM19.36 28H28v3.09c-3.25-.2-5.79.88-8.12 2.32a28.8 28.8 0 0 1-.52-5.41Z" fill="#2E3192"/><path d="M28 31.77c-3.08-.2-5.5.82-7.76 2.22l-.2.13c.27 1.2.63 2.31 1.05 3.34A14.7 14.7 0 0 1 28 36v-4.23ZM21.36 38.09c1.88-.9 3.9-1.61 6.64-1.57V44h-.04c-2.82 0-4.95-2.3-6.6-5.91ZM39.83 40.7A13.56 13.56 0 0 1 33 44c2.22-.48 4.21-2.01 5.77-4.24.43.34.79.66 1.06.95ZM40.33 40.25c-.3-.32-.7-.69-1.19-1.06.5-.8.95-1.67 1.34-2.61.62.62 1.13 1.23 1.52 1.76-.5.68-1.07 1.32-1.67 1.9ZM41.91 17.54c-.4.52-.9 1.1-1.5 1.71-.4-.94-.86-1.8-1.37-2.6a12 12 0 0 0 1.17-1.01 15.5 15.5 0 0 1 1.7 1.9ZM39.7 15.18A13.54 13.54 0 0 0 33 12c2.16.47 4.12 1.94 5.66 4.09.41-.32.76-.63 1.04-.91Z" fill="#2E3192"/><path d="M38.08 39.34C36.22 41.8 33.76 43.49 31 44c2.25-.57 4.24-2.58 5.65-5.48.53.26 1 .54 1.43.82ZM38.5 38.77c-.47-.3-.99-.6-1.56-.88.45-1.01.82-2.11 1.12-3.29.71.47 1.36.96 1.94 1.45a16.8 16.8 0 0 1-1.5 2.72ZM39.92 19.77c-.57.48-1.21.96-1.91 1.42a20.8 20.8 0 0 0-1.15-3.27c.55-.28 1.06-.57 1.52-.85.58.82 1.1 1.73 1.54 2.7ZM37.96 16.5c-1.85-2.37-4.27-4-6.96-4.5 2.2.56 4.15 2.49 5.56 5.29.5-.26.97-.52 1.4-.79Z" fill="#2E3192"/><path d="M29.04 12H29v7.24c2.7.04 5.13-.64 7-1.52-1.65-3.5-4.2-5.72-6.96-5.72ZM36.27 18.34c.44 1.02.8 2.14 1.1 3.34l-.16.1A14.13 14.13 0 0 1 29 24v-4c2.8.04 5.33-.75 7.27-1.66ZM29 31.77a14.13 14.13 0 0 1 8.41 2.35c-.27 1.2-.63 2.31-1.05 3.34A16.7 16.7 0 0 0 29 36v-4.23ZM29 36.52c2.74-.04 5.21.67 7.09 1.57-1.65 3.6-4.23 5.91-7.05 5.91H29v-7.48ZM47.12 30v-2.46H46V27h3v.54h-1.1V30h-.78ZM45 30v-3h.65v3H45ZM41 30v-3h.78l1.48 2.06V27H44v3h-.77l-1.5-2.06V30H41ZM37 30v-3h.7v1.23L39 27h.87l-1.35 1.21L40 30h-.85l-1.1-1.37-.36.32V30H37ZM36 28.94a1 1 0 0 1-.43.77c-.26.2-.6.29-1.03.29-.49 0-.87-.13-1.14-.4-.27-.26-.4-.63-.4-1.1 0-.48.14-.86.41-1.11.28-.26.67-.39 1.19-.39.42 0 .75.09 1 .27.24.17.37.42.4.75h-.67a.53.53 0 0 0-.23-.37.87.87 0 0 0-.5-.13c-.3 0-.52.09-.68.25-.15.17-.23.41-.23.73 0 .3.08.55.23.72.15.17.37.25.66.25.2 0 .37-.04.5-.13.13-.1.22-.23.26-.4H36ZM30.5 27.6l-.44 1.28h.87l-.44-1.28Zm-.38-.6h.75L32 30h-.68l-.21-.62h-1.22l-.2.62H29l1.12-3Z" fill="#2E3192"/></svg>