<!-- by TradingView --><svg width="56" height="56" viewBox="0 0 56 56" xmlns="http://www.w3.org/2000/svg"><path fill="#1232E5" d="M0 0h56v56H0z"/><path d="M43.06 24.63c.05-.2.07-.47.1-.84.03-.78.06-1.65.07-2.59 0-.04.02-.07.04-.1a.15.15 0 0 1 .1-.06l2.93-.46c.07-.01.11.02.12.09l.57 4.07c.03.2.08.21.14 0 .06-.22.12-.5.16-.86a1816.72 1816.72 0 0 1 .42-3.5.1.1 0 0 1 .08-.07c1.21-.12 2.1-.22 3.03-.3.13-.02.19.04.18.18l-1.31 14.5c0 .04-.02.06-.06.07l-3.38.1a.12.12 0 0 1-.1-.09 134 134 0 0 1-.99-5.18c-.09-.15-.14-.14-.16.04l-.5 5.26c0 .06-.06.1-.12.11h-3.16c-.05 0-.09-.03-.1-.09-.67-4.33-.62-4.41-2.12-13.15-.01-.05.02-.11.07-.12l3.2-.57c.05 0 .1.03.1.09l.56 3.46c.04.25.08.25.13 0ZM38.55 22.96 39 33.42c.03.73-.56 1.37-1.28 1.4l-5.96.18a1.32 1.32 0 0 1-1.37-1.28L30 24.07a1.35 1.35 0 0 1 1.1-1.38l5.9-1c.19-.02.38-.01.56.03.56.15.96.66.99 1.24Zm-3.35 2.18c-.01-.23-.2-.39-.43-.39h-.9a.4.4 0 0 0-.37.4l.08 7.06c0 .23.2.42.43.4l1.04-.12a.4.4 0 0 0 .35-.4l-.2-6.95ZM28.8 29.44c.2.24.63.36.64.76l.11 3.57c.02.43.13.61.39.95.1.14.07.2-.1.18a4.52 4.52 0 0 0-.55-.03c-.87.02-1.79.03-2.74 0-.38 0-.55-.42-.56-.74-.04-.86-.1-1.79-.2-2.8-.03-.26-.18-.4-.45-.4l-.2.01c-.28.02-.41.16-.4.43l.1 3.5a.09.09 0 0 1-.08.1l-3.27.03a.1.1 0 0 1-.1-.09l-.38-10.25c0-.26-.1-.61.33-.67a140 140 0 0 1 3.28-.47c.4-.05 1-.14 1.79-.27.7-.12 1.3-.2 1.8-.25.61-.05.96.43.96.98 0 .45.04 2.02.12 4.73 0 .09-.03.17-.1.23l-.38.38c-.04.04-.05.08-.01.12Zm-3.09-3.4a.25.25 0 0 0-.25-.25l-.6.01a.25.25 0 0 0-.25.25l.03 2.36c0 .14.12.25.26.25l.6-.01c.13 0 .25-.12.24-.25l-.02-2.36ZM17.11 26.7c-.2.03-.35.19-.34.37 0 1.65.03 3.27.08 4.86.01.34.15.78.6.78.88 0 1.7-.03 2.42-.08.07 0 .13.05.13.11v2.21c0 .03-.02.05-.05.05h-5.84c-.54.01-.9-.44-.9-.9-.03-1.74-.1-4.6-.2-8.32-.02-.64.23-.92.85-1 .9-.13 2.38-.19 4.42-.42.38-.04.8-.11 1.28-.2.08-.02.16.04.16.12-.03.65 0 1.28.06 1.88 0 .1-.07.2-.18.2l-2.49.34ZM8.3 32c-.15 0-.3.05-.3.2v2.72c0 .04-.04.08-.08.08h-2.8c-.08 0-.12-.04-.12-.12v-8.75c0-.06.02-.11.05-.15a.25.25 0 0 1 .14-.1l.64-.12c.58-.1 2.29-.35 5.13-.74.2-.03.37-.02.53.01.04.01.07.03.08.07.07.14.11.33.12.57.11 3.02.2 5.63.24 7.83.01.4.03.95.07 1.42 0 .04-.03.08-.08.08H9.1a.1.1 0 0 1-.1-.09v-2.62c0-.2-.16-.3-.37-.29h-.32Zm.7-4.55c0-.1-.09-.17-.19-.17h-.64c-.1 0-.17.09-.17.18v2.02c0 .1.09.17.18.17h.65c.1 0 .17-.09.17-.18v-2.02Z" fill="#FFF058"/></svg>