<!-- by TradingView --><svg width="56" height="56" viewBox="0 0 56 56" xmlns="http://www.w3.org/2000/svg"><path fill="#F0F3FA" d="M0 0h56v56H0z"/><path d="M49 21v14h-3V21h3ZM24.04 35H19V21h5.08c4.15 0 6.92 2.86 6.92 6.99 0 4.15-2.79 7.01-6.96 7.01Zm-2.03-2.5h1.9c2.78 0 4.09-1.86 4.09-4.51 0-2.65-1.32-4.49-4.08-4.49h-1.91v9ZM37.04 35H32V21h5.08c4.15 0 6.92 2.86 6.92 6.99 0 4.15-2.78 7.01-6.96 7.01Zm-2.03-2.5h1.9c2.78 0 4.09-1.86 4.09-4.51 0-2.65-1.32-4.49-4.08-4.49h-1.91v9ZM8.06 35H5l4.66-14h3.68L18 35h-3.06l-3.38-10.8h-.11L8.06 35Zm-.2-5.5h7.24V32H7.87v-2.5Z" fill="#67AD5B"/></svg>