<!-- by TradingView --><svg width="56" height="56" viewBox="0 0 56 56" xmlns="http://www.w3.org/2000/svg"><path fill="#F0F3FA" d="M0 0h56v56H0z"/><path d="M38.7 29.29c0 .13.17.2.27.12.92-.65 1.75-1.4 2.64-1.41.81 0 1.27.44 1.38 1.36.09.73-.37 1.66-.86 2.35-1.12 1.59-2.2 3.13-3.21 4.62-.2.29-.3.5-.29.63l.04.68c.02.31-.13.42-.43.33l-.14-.04c-.3-.1-.46-.29-.45-.58a2 2 0 0 1 .39-1.19 55.38 55.38 0 0 0 3.03-4.38c.53-.84.98-2.1-.35-2.4a.26.26 0 0 0-.18.02l-1.53.84c-.95.52-.3 3.25-.3 4.06 0 .33-.17.53-.5.6l-.53.1c-.34.08-.5-.05-.48-.38.05-1.17.08-2.45.08-3.84 0-.8-.08-1.34-.22-1.6-.11-.21-.06-.35.15-.43l1.17-.42c.22-.08.33 0 .33.21v.75Z" fill="#2B6530"/><path d="M45.26 30.46c.6.34 1.65 1.1 1.72 1.94.04.55.02.96-.08 1.22-.52 1.39-1.57 1.59-2.85 1.21a9.65 9.65 0 0 0-1.56-.33c-.35-.04-.65.07-.93.11-.64.11-.73-.07-.28-.55.82-.88 1.6-1.86 2.35-2.96a.3.3 0 0 0 .02-.3c-.15-.3-.33-.48-.4-.9-.14-.8.08-1.38.66-1.72.62-.36 1.3-.12 1.87.2a.45.45 0 0 1 .16.58l-.73 1.32a.14.14 0 0 0 .05.18ZM44 29.26c.05.38.3.64.55.6.25-.04.4-.37.35-.74-.05-.36-.3-.63-.55-.6-.25.05-.4.38-.35.75Zm.3 2.07a.37.37 0 0 0-.25.15l-1.17 1.57a.4.4 0 0 0 .07.55c.33.26.64.57 1.04.71.2.07.39.1.58.1a1.24 1.24 0 0 0 1.18-1c.11-.62-.22-1.23-.67-1.6-.2-.16-.5-.52-.79-.48Z" fill="#2B6530"/><path fill-rule="evenodd" d="M29.3 28.75c-.8-.25-1.27-.06-1.4.57a.17.17 0 0 1-.14.12.18.18 0 0 1-.18-.08c-.7-1.18-1.6-1.36-2.7-.52-.12.09-.2.07-.27-.05-.1-.18-.22-.32-.37-.41a.31.31 0 0 0-.34 0l-.77.44a.37.37 0 0 1-.32.02 1.42 1.42 0 0 0-1.48.22c-.1.08-.13.18-.08.3.15.35.23.82.23 1.16 0 1.36.02 2.6.07 3.7 0 .13-.06.18-.19.16-.2-.04-.38-.1-.39-.35-.02-1.99-.05-3.27-.08-3.86a1.92 1.92 0 0 0-1.02-1.65c-.52-.3-1.06-.09-1.57.12-.12.05-.27 0-.27-.15v-2.06c0-.1.04-.2.11-.28.6-.59 1.07-1.19 1.43-1.8.14-.23.07-.35-.2-.35h-.17c-.24 0-.4.1-.5.32-.24.5-.6.98-1.08 1.41-.35.32-.8.36-1.15.4-.14.02-.3.05-.28.23.01.08.04.15.09.23.04.07.1.14.15.2.13.18.27.35.26.62-.03.78-.02 1.75.01 2.9 0 .28-.08.32-.27.1a6.96 6.96 0 0 0-2.25-1.6.29.29 0 0 1-.13-.4c.4-.68.75-1.53 1.06-2.54.13-.4.56-.6 1.3-.56.05 0 .1 0 .15-.03a.34.34 0 0 0 .2-.39c-.05-.21-.13-.44-.39-.45-.46-.03-.96.16-1.5.54-.1.08-.2.08-.3.01-.77-.5-1.62-.6-2.55-.32-.87.26-1.44.78-1.7 1.54-.49 1.38.38 2.34 1.56 3l.07.05c.28.16.57.32.82.52.08.06.1.14.07.23l-1.08 2.6c-.36.87-.6.84-.7-.1a7 7 0 0 0-.87-2.43c-.13-.24-.25-.37-.36-.38-.26-.04-.68.22-.66.51 0 .08.05.16.11.21.86.71 1.15 1.66.88 2.83-.09.35-.46.8-.65 1.02-.54.6-.44.74.31.45.03 0 .2-.1.51-.25.54-.28.7-.13.52.43a8.1 8.1 0 0 1-.85 1.77c-.37.58-.9.84-1.6.79a.31.31 0 0 1-.25-.16l-.4-.7a.36.36 0 0 0-.62.01c-.63 1.19 1.25 1.47 1.98 1.37 1.3-.16 2-1.95 2.29-3.05.06-.22.2-.3.42-.22 2.05.7 3.53.37 4.46-1 .36-.52.52-.47.49.15l-.07.86c-.02.23.08.34.3.34h1c.21 0 .3-.1.28-.32-.19-1.37-.23-3-.14-4.89.02-.36.2-.5.56-.44l.3.06c.33.06.5.25.5.59v4.83c0 .06.05.11.11.11h3.18c.08 0 .12-.04.11-.12l-.15-4.56c-.02-.37.17-.6.56-.72l.37-.11c.38-.12.53.02.46.4-.04.2-.14.42-.24.65-.14.34-.3.7-.31 1.07-.05 1.4.4 2.98 1.89 3.3 1.28.27 2.37-.58 2.7-1.76.05-.18.02-.53-.24-.53a.22.22 0 0 0-.19.11l-.47.8a.74.74 0 0 1-.75.36c-.63-.1-1.1-.81-1.36-1.34a.49.49 0 0 1 .17-.62c.9-.57 1.74-1.26 2.52-2.06.07-.06.11-.07.14-.03a.2.2 0 0 1 .03.07l.99 4.42c.03.12 0 .25-.06.35-.13.2-.45.77-.98 1.71-.31.56-.26 1.01.17 1.35.2.16.4.12.6-.1.08-.1.1-.2.08-.3-.17-.7-.15-1.2.05-1.5 1-1.55 1.64-2.53 1.93-2.93.37-.5.68-1.03.99-1.57.32-.57.65-1.13 1.04-1.66.04-.04.07-.1.11-.17.1-.15.2-.33.31-.39h.08l.15.06c.05.02.06.06.02.1-.59.7-1.16 1.46-1.7 2.28-.26.39-.38.76-.37 1.11.03 1.5.72 2.66 2.5 2.16.17-.05.48-.24.94-.57.1-.08.17-.05.2.07l.1.44c.03.15.12.22.27.22h.9c.18 0 .27-.09.27-.27v-5.43c0-.12-.06-.17-.17-.17-.75.02-1.4-.12-1.97-.43a.65.65 0 0 0-.82.15c-.08.1-.16.1-.22-.03-.11-.22-.33-.32-.67-.31-.05 0-.1.01-.13.03a.26.26 0 0 0-.11.13c-.38.89-1.05 2.1-2.03 3.64-.22.35-.36.32-.42-.1-.08-.67-.23-1.54-.46-2.59-.08-.43.29-.67-.33-.86Zm4.63 5.29c-.7-.04-1.2-1.02-1.12-2.18.07-1.16.7-2.07 1.4-2.03.7.05 1.2 1.03 1.12 2.19-.08 1.16-.7 2.06-1.4 2.02Zm-20.3-3.7.24.1c.82.35 1.63 1.07 1.73 2 .03.26 0 .51-.1.74l-.09.19c-.35.81-1.34 1.06-2.16.97-.36-.04-.7-.15-1.04-.28-.14-.05-.3-.12-.3-.28 0-.03 0-.06.02-.09l1.4-3.23c.05-.11.2-.17.3-.12Zm-.17-2.05a.11.11 0 0 0 .06-.06c.38-.78 1.09-2.37 0-2.83-.94-.4-1.64-.2-2.1.62-.54.97 1.19 1.94 1.96 2.26a.1.1 0 0 0 .08 0Zm11.65 1.2a.27.27 0 0 1 .27-.21c.43 0 1.26.2 1.14.82a.26.26 0 0 1-.08.16l-1.18.98a.27.27 0 0 1-.43-.17v-.08l.28-1.5Z" fill="#2B6530"/><path d="M33.1 28.2c.2-.16.23-.32.33-.58-.2-.52-.38-.85-.58-1-.24-.16-.65-.24-1.23-.25l-3.61.05c-.67 0-1.23-.13-1.57-.68-.6-.97-.52-2.04.24-2.8.2-.21.57-.33.87-.42l.33-.12c.2-.1.24-.68.27-1.11.01-.21.02-.38.05-.45.5-1.3 1.46-1.8 2.86-1.52.11.02.23-.04.28-.13.8-1.49 2.03-1.98 3.7-1.48.53.16 1.05.56 1.56 1.22.06.08.15.1.25.07l.16-.05c.26-.1.56-.2.83-.16 1.2.18 2.33 1.06 2.35 2.36 0 .22.03.5.06.8.01.1.07.18.17.21 1.65.58 2.17 2.18.95 3.47-.27.3-.74.7-1.4.72-.65.02-1.93-.02-3.84.03-.69.02-1.15.3-1.4.85-.04.12-.01.2.1.24.2.07.46-.08.7-.23.2-.12.38-.23.53-.24h3.85a3.06 3.06 0 0 0 2.75-1.77c.48-.96.45-1.9-.1-2.8-.06-.1-.4-.4-1.04-.87-.25-.18-.26-.57-.27-.94V20.45c0-.15-.02-.28-.06-.4-.64-1.93-2-2.76-4.04-2.48a.28.28 0 0 1-.28-.11 3.59 3.59 0 0 0-3.42-1.43c-1.12.15-1.94 1.08-2.6 2a.27.27 0 0 1-.26.12c-1.67-.2-2.78.49-3.35 2.06a2.67 2.67 0 0 0-.12.59c-.02.22-.06.49-.27.58-1.35.58-1.96 1.57-1.83 2.99.09.97.83 2.04 1.68 2.44.36.16 1.02.18 1.97.19h3.3c.4 0 .9.37.8.85v.04l.34.32Z" fill="#010200"/><path d="M32.59 25.64c-.45-.23-.74-.5-1.02-.91l-.05-.08c-.18-.26-.39-.58-.72-.64l-.68-.12c-.1-.02-.14-.07-.1-.17.06-.2.19-.3.37-.34 1.3-.25 2.33.22 3.06 1.42.03.05.06.06.1.03.02-.02.03-.06.01-.1a4.08 4.08 0 0 1 .03-2.45c.1-.3.12-.55.13-.8.04-.58.2-.63.5-.16.68 1.03.87 2.17.59 3.4-.1.47 0 .52.3.15.51-.6 1.29-1.34 2.2-1.38.64-.02 1.1 0 1.36.06.42.1.44.24.06.43-.13.07-.26.12-.4.17-.29.12-.58.24-.8.48a5.6 5.6 0 0 1-2.32 1.3c-.65.22-.68.8-.72 1.41v.01a13.36 13.36 0 0 1-.02.31.38.38 0 0 1-.35.34.4.4 0 0 1-.18-.03c-.79-.3.1-1.61-1.35-2.33Z" fill="#2B6530"/></svg>