<!-- by TradingView --><svg width="56" height="56" viewBox="0 0 56 56" xmlns="http://www.w3.org/2000/svg"><path fill="#F0F3FA" d="M0 0h56v56H0z"/><path fill-rule="evenodd" d="M36.43 40.98H19.57v4.47h16.86v-4.47ZM19 40v6h18v-6H19ZM32.57 9.33h-9.14v2h9.14v-2ZM23 9v3h10V9H23Z" fill="#00A85B"/><path d="M18.9 11 12 42h32l-6.9-31H18.9Z" fill="#E57F83"/><path d="M18 21.5h2.67L18 17.64l3.59 2.57c.12-.17.26-.34.4-.5l-1.71-2.64 2.55 1.85c.18-.15.37-.28.57-.41l-1.68-4.28 2.69 3.74c.17-.08.35-.15.53-.2l-.33-2.86 1.35 2.6c.18-.04.36-.06.54-.07L27 14l.83 3.45.43.05 1.18-2.7-.2 2.95.54.2 2.28-2.76-1.29 3.28c.21.14.41.28.6.44l2.4-2.18-1.64 2.87c.19.2.36.4.52.63l3.13-1.63-2.57 2.52c.14.25.26.51.36.78L36 21l-1.33 1.99c-.65 0-1.11.05-1.8.05a5.97 5.97 0 0 0-5.76-4.6A6 6 0 0 0 21.2 24c-.08-.05-.4-.35-3.19-2.5Z" fill="#FFF424"/><path d="m21.31 38.3-.24-.38-.29-.41c0-.02-.02-.03-.03-.05l-.3-.41a4.86 4.86 0 0 1-.49-.9c-1.76.19-3.21-.46-3.93-1.67-.78-1.3-.55-2.97.64-4.29.19-.2.4-.33.61-.42-.52-.98-.36-2.09-.2-2.87.15-.88.5-1.64 1.05-2.22a3.9 3.9 0 0 1 2.84-1.15 7 7 0 0 1 1.2-3.12 5.82 5.82 0 0 1 2.38-1.8 6.35 6.35 0 0 1 6.74.79c.8.65 1.52 1.53 1.77 2.58l.05.2a1.4 1.4 0 0 1 1.1.09c.32.16.6.46.76.63l.05.06c.42.43.72.93.92 1.48.08-.02.16-.04.26-.04.36-.02.68.12.92.24.24.13.48.3.69.47.41.33.79.72.99.93a6.4 6.4 0 0 1 .96 6.4 7.06 7.06 0 0 1-3.35 3.5c-1.48.8-3.25 1.33-5.04 1.67-3.58.68-7.43.68-9.61.68h-.45Zm17.7-6.16a5.57 5.57 0 0 0-.8-5.53c-.39-.41-1.37-1.41-1.98-1.39-.13 0-.23.1-.33.17-.1.08-.2.16-.32.17-.11 0-.2-.08-.23-.19a3.46 3.46 0 0 0-.91-1.84l-.05-.05c-.34-.37-.64-.69-1.09-.5a.94.94 0 0 0-.17.1c-.07.05-.1.17-.15.29-.05.14-.1.28-.2.29-.12 0-.24-.37-.34-.74a9.8 9.8 0 0 1-.16-.74c-.4-1.62-2.3-2.98-3.88-3.26a5.89 5.89 0 0 0-3.53.45c-1.86.84-2.59 1.97-3.04 3.9-.03.1-.04.2-.05.3v.18a5.62 5.62 0 0 0 .05.65s-.38-.04-.77-.05h-.05c-.22 0-.44 0-.59.03-1.42.27-2.27 1.16-2.55 2.67-.16.88-.26 1.8.25 2.53l.03.04.18.24c.18.23.4.51.4.57a2.43 2.43 0 0 0-.96.04c-.2.05-.37.14-.5.28-1.99 2.19-.46 5.1 2.93 4.53.2.01.38.15.44.34.16.52.46.93.76 1.36l.35.49c4.38 0 15.12 0 17.26-5.33Z" fill="#E73A2A"/><path d="M21.75 37.47c-.4-.61-.9-1.14-1.11-1.85a.49.49 0 0 0-.44-.34c-3.39.58-4.92-2.34-2.93-4.53.34-.38 1.02-.38 1.46-.32 0-.08-.43-.6-.58-.81-.54-.74-.45-1.68-.28-2.57.28-1.5 1.13-2.4 2.55-2.67.42-.08 1.41.02 1.41.02-.02-.02.04.4 0 0-.04-.47-.1-.75 0-1.14.45-1.92 1.18-3.05 3.04-3.9a5.89 5.89 0 0 1 3.53-.44c1.58.28 3.48 1.64 3.88 3.26.04.19.27 1.49.5 1.48.18-.01.2-.47.35-.58.57-.38.9.02 1.3.45.5.5.8 1.12.92 1.84.02.11.12.2.23.19.24-.01.4-.33.65-.34.61-.02 1.6.98 1.98 1.39a5.57 5.57 0 0 1 .8 5.53c-2.14 5.33-12.88 5.33-17.26 5.33Z" fill="#F0F3FA"/><path d="M35.03 35.45c.1.14.22.22.36.23.57.21 1.17.37 1.8.48.36.06.63.24.8.55.03.36-.07.54-.3.53l-4.2-.06c-.13 0-.32.03-.56.12-.48.3-.95.73-1.4 1.27l-.6.9-.9 1c-.08.06-.13.1-.14.15-.22.6-.28 1.1-.18 1.54l-.12 3.8c-.71.13-1.46-.08-2-.08.04-.15.06-.34.05-.58 0-1-.05-2-.13-2.99.01-.76-.3-1.3-.92-1.64-.3-.3-.65-.53-1.02-.69a3.04 3.04 0 0 0-1.18-.21c-.45 0-.88-.02-1.28-.05-.28-.02-.7-.01-1.28.02-.68.05-1.54.08-2.56.09-.2 0-.28-.09-.27-.27.03-.3.3-.63.81-.99l1.36-.61.67-.27c.76 0 1.33-.12 1.7-.35.26-.15.35-.39.28-.7-.04-.17-.18-.33-.43-.47a10.8 10.8 0 0 1-1.23-.82 3.22 3.22 0 0 1-1.14-3.46.15.15 0 0 1 .21-.1c.03.01.05.03.07.06.4.64.64 1.06.74 1.24a2.6 2.6 0 0 0 1.71 1.3c.5.13 1.18.08 1.72.33.68.3 1.39.54 2.1.73a.36.36 0 0 0 .36-.1 8.86 8.86 0 0 1 3.04-2.25c.74-.28 1.75-.6 2.07-1.1.2-.31.57-.9.94-1a.27.27 0 0 1 .3.14l.04.11c.06.87-.35 1.92-1.13 2.39l-.84.48a.29.29 0 0 0-.15.2.3.3 0 0 0 .06.24c.06.07.16.14.3.22.8.4 1.62.63 2.47.67Z" fill="#009E54"/></svg>