<!-- by TradingView --><svg width="56" height="56" viewBox="0 0 56 56" xmlns="http://www.w3.org/2000/svg"><path fill="#F0F3FA" d="M0 0h56v56H0z"/><path d="M27 44.54h.36l5.29.46L47 42.5l-.2-1.2-12.46 2.64-.18-.88 12.5-2.64-.19-1.08-12.28 2.6-.18-.88 12.31-2.6-.25-1.53-12.03 2.54-.18-.87 12.06-2.55-.32-1.9-11.65 2.46-.24-1.16 11.7-2.48-.38-2.28-13.33 2.5A6.97 6.97 0 0 1 27 35v9.54ZM27 21a7 7 0 0 1 2.21.36l3.58-8.3A15.84 15.84 0 0 0 27.06 12H27v9ZM33.63 13.42l-3.57 8.28c.6.3 1.14.66 1.62 1.1l6.51-6.26a16.08 16.08 0 0 0-4.56-3.12ZM38.83 17.2l-6.5 6.26a7 7 0 0 1 1.17 1.94l8.4-3.38a16.31 16.31 0 0 0-3.07-4.82ZM42.22 22.88l-8.43 3.4c.06.24.1.48.14.72H43a16.3 16.3 0 0 0-.78-4.12ZM43 28h-9a7 7 0 0 1-.29 2h9.2a16.66 16.66 0 0 0 .09-2ZM33.33 31c-.18.37-.39.73-.63 1.06L38.26 31h-4.93ZM26 44.5v-9.57a6.97 6.97 0 0 1-3.58-1.63l-6.65 6.54A15.92 15.92 0 0 0 26 44.51ZM15.14 39.17l6.63-6.52A6.99 6.99 0 0 1 20.29 30H11a16.41 16.41 0 0 0 4.14 9.17ZM11.02 29h9.05a7.06 7.06 0 0 1 .4-3.5c-2.74-1.58-6.25-3.61-7.8-4.48A16.38 16.38 0 0 0 11.03 29ZM13.1 20.2c1.56.88 5.03 2.89 7.75 4.46.32-.6.73-1.13 1.2-1.6l-5.69-6.93a16.3 16.3 0 0 0-3.25 4.08ZM17.06 15.54l5.68 6.9a7 7 0 0 1 1.35-.8l-3.4-8.3c-1.31.57-2.53 1.31-3.63 2.2ZM21.53 12.99l3.41 8.32c.35-.1.7-.18 1.06-.24v-9.03c-1.56.1-3.06.43-4.47.95ZM31.55 28.5v-.47h1.04v.46h-1.04Zm.72-2.5-.71 3H31l.72-3h.55Zm.01 0 .72 3h-.55l-.72-3h.55ZM29.73 27.94l.74-1.94H31l-.73 1.94h-.54Zm0 1.06v-1.06h.54V29h-.54Zm0-1.06L29 26h.63l.64 1.94h-.54ZM26.7 26.46V26h2v.46h-2Zm.7 2.54v-3h.6v3h-.6ZM25.41 29v-3H26v3h-.59ZM24.33 28.16v-1.3H25v1.3h-.67Zm-.76.84v-.46h.37V29h-.37Zm0-2.54V26h.37v.46h-.37Zm0 0V26h.37v.46h-.37Zm1.43.39h-.67c0-.12-.04-.22-.1-.28a.38.38 0 0 0-.29-.1V26c.2 0 .39.04.55.11.15.07.28.18.37.3.1.13.14.28.14.44Zm0 1.3c0 .17-.05.31-.14.44a.97.97 0 0 1-.37.3c-.16.08-.34.11-.55.11v-.46c.12 0 .22-.03.28-.1a.4.4 0 0 0 .1-.29H25ZM23 29v-3h.67v3H23ZM21.55 28.5v-.47h1.04v.46h-1.04Zm.72-2.5-.71 3H21l.72-3h.55Zm.01 0 .72 3h-.55l-.72-3h.55Z"/></svg>