<!-- by TradingView --><svg width="56" height="56" viewBox="0 0 56 56" xmlns="http://www.w3.org/2000/svg"><path fill="#F0F3FA" d="M0 0h56v56H0z"/><path d="M45 27.28 42.68 25 28 39.44 13.32 25 11 27.28 28 44l17-16.72Z" fill="#0294E2"/><path d="M41 23.68 39.23 22 28 32.64 16.77 22 15 23.68 28 36l13-12.32Z" fill="#0294E2"/><path d="M19 19.41 20.48 18 28 25.18 35.52 18 37 19.41 28 28l-9-8.59Z" fill="#0294E2"/><path d="m28 21-5-4.86L24.17 15 28 18.72 31.83 15 33 16.14 28 21ZM29.07 12 28 13.1 26.93 12l-.93.95L28 15l2-2.05-.93-.95Z" fill="#0294E2"/></svg>