<!-- by TradingView --><svg width="56" height="56" viewBox="0 0 56 56" xmlns="http://www.w3.org/2000/svg"><path fill="#F0F3FA" d="M0 0h56v56H0z"/><rect x="10" y="21" width="2" height="14" rx="1" fill="#E3262A"/><rect x="18" y="27" width="2" height="14" rx="1" transform="rotate(90 18 27)" fill="#E3262A"/><path d="M6.36 25.1a1.23 1.23 0 0 1 1.74-1.74l7.54 7.54a1.23 1.23 0 1 1-1.74 1.74L6.36 25.1Z" fill="#E3262A"/><path d="m10.26 29-2-2h3.48l2 2h-3.48Z" fill="#F9CDCE"/><path d="M10 28.74v-3.48l2 2v3.48l-2-2Z" fill="#F9CDCE"/><path d="M13.9 23.36a1.23 1.23 0 1 1 1.74 1.74L8.1 32.64a1.23 1.23 0 1 1-1.74-1.74l7.54-7.54Z" fill="#E3262A"/><path d="m8.26 29 2-2h3.48l-2 2H8.26Z" fill="#F9CDCE"/><path d="M10 30.74v-3.48l2-2v3.48l-2 2Z" fill="#F9CDCE"/><path d="M10 29v-2h2v2h-2Z" fill="#FFFBFA"/><path d="M9.59 28 11 26.59 12.41 28 11 29.41 9.59 28Z" fill="#FFFBFA"/><path fill-rule="evenodd" d="M39.47 24A2.52 2.52 0 0 0 37 26.57v3.86c0 1.42 1.1 2.57 2.47 2.57h2.06A2.52 2.52 0 0 0 44 30.43v-3.86c0-1.42-1.1-2.57-2.47-2.57h-2.06Zm1.03 1.5c-.53 0-.98.47-.98 1.02v3.98c0 .55.45.96.98.96s1-.44 1-.99V26.5c0-.55-.47-.99-1-.99Z" fill="#E3262A"/><path d="M20 26.57c0-1.42 1.1-2.57 2.47-2.57h2.06A2.52 2.52 0 0 1 27 26.57v3.86c0 1.42-1.1 2.57-2.47 2.57h-2.06A2.52 2.52 0 0 1 20 30.43v-.88c.18-1.15.73-1.32 2.44-1.59 1.76-.28 2.06-.96 2.06-1.53 0-.57-.4-.93-.89-.93-.71 0-1.18.93-1.24 1.5H20v-.43Zm3.5 2.55c-.57.27-1 .54-1 1.08v.3c0 .56.47 1 1 1s1-.44 1-1v-1.66c0-.14-.16-.23-.28-.14l-.08.06c-.1.08-.18.15-.64.36ZM47.47 24A2.52 2.52 0 0 0 45 26.57V33h2.5v-6.47c0-.55.47-1 1-1s1 .45 1 1V28H52v-1.43c0-1.42-1.1-2.57-2.47-2.57h-2.06ZM32.93 20c-.24 0-.43.2-.43.47V24h-2.03C29.1 24 28 25.2 28 26.69v3.62C28 31.8 29.1 33 30.47 33h2.06C33.9 33 35 31.8 35 30.31v-9.84c0-.26-.2-.47-.43-.47h-1.64Zm-2.43 6.54c0-.58.47-1.04 1-1.04s1 .46 1 1.04v3.92c0 .58-.47 1.04-1 1.04s-1-.46-1-1.04v-3.92Z" fill="#E3262A"/></svg>