<!-- by TradingView --><svg width="56" height="56" viewBox="0 0 56 56" xmlns="http://www.w3.org/2000/svg"><path fill="#F0F3FA" d="M0 0h56v56H0z"/><path fill-rule="evenodd" d="M25 14a3 3 0 1 1 6 0v6.88l5.03-5.03a2.91 2.91 0 1 1 4.12 4.12L35.12 25H42a3 3 0 1 1 0 6h-6.88l5.03 5.03a2.91 2.91 0 1 1-4.12 4.12L31 35.12V42a3 3 0 1 1-6 0v-6.88l-5.03 5.03a2.91 2.91 0 1 1-4.12-4.12L20.88 31H14a3 3 0 1 1 0-6h6.88l-5.03-5.03a2.91 2.91 0 1 1 4.12-4.12L25 20.88V14Zm-1 14 4-4 4 4-4 4-4-4Z" fill="#E31021"/><path fill-rule="evenodd" d="M25 25h-4l3 3-3 3h4v4l3-2.5 3 2.5v-4h4l-2.5-3 2.5-3h-4v-4l-3 3-3-3v4Zm3-1-4 4 4 4 4-4-4-4Z" fill="#FFCBB9"/></svg>