<!-- by TradingView --><svg width="56" height="56" viewBox="0 0 56 56" xmlns="http://www.w3.org/2000/svg"><path fill="#F0F3FA" d="M0 0h56v56H0z"/><path d="M35 29h2.36v.26c0 .68.45 1.19 1.14 1.19.58 0 1.05-.38 1.05-.98 0-.51-.32-.86-.8-1l-1.07-.33c-1.23-.42-2.68-.94-2.68-2.47 0-1.89 1.75-2.67 3.43-2.67 1.82 0 3.57.74 3.57 2.69h-2.44v-.1c0-.6-.46-1.06-1.07-1.06-.56 0-1.02.37-1.02.94 0 .69.56.92 1.1 1.1l.75.2c1.35.43 2.68.9 2.68 2.58 0 1.97-1.67 2.65-3.42 2.65-2.39 0-3.58-.94-3.58-2.8V29ZM27 32v-9h3.06c1.93 0 2.94.88 2.94 3 0 1.89-.95 3-2.7 3H29v3h-2Zm2-7v2h.63c.77-.02 1.37-.12 1.37-1 0-.85-.45-1-1.35-1H29ZM14 32v-9h3.86l1.63 5.97L21.24 23H25v9h-2l.04-6.52L20.6 32h-2.44l-2.2-6.5L16 32h-2ZM14 33h28v.5H14V33Z" fill="#92A49C"/><path d="M46 20.54c-4.28-2.15-11.14-3.09-18.69-2.2C15.08 19.75 5.65 25.4 6.25 30.95c.04.36.12.7.23 1.04a5.92 5.92 0 0 1-.46-1.9c-.45-6.2 9.12-12 21.38-12.97 7.56-.59 14.38.8 18.6 3.41ZM50 27c-1.3 4.87-9.8 9.46-20.5 10.72-8.87 1.04-16.76-.5-20.5-3.6 3.78 3.45 11.42 5.43 20.05 4.75 11.4-.9 20.42-6.1 20.95-11.87Z" fill="#DA3832"/></svg>