<!-- by TradingView --><svg width="56" height="56" viewBox="0 0 56 56" xmlns="http://www.w3.org/2000/svg"><path fill="#F0F3FA" d="M0 0h56v56H0z"/><path d="M52 25v1.25h-2.07c-1.3 0-2.02.43-2.13 1.75H52v1h-4.2c.11 1.2.67 1.75 2.2 1.75h2V32h-2.07C47.58 32 46 30.99 46 28.45c0-2.04 1.3-3.45 3.31-3.45H52ZM46 30.75V32h-2.57C41.22 32 40 30.78 40 28.52c0-2.27 1.33-3.52 3.5-3.52H46v1.25h-2.55c-1.4 0-1.95.81-1.95 2.13 0 1.44.51 2.37 2 2.37H46ZM34.5 27v5H33v-7h1.87l2.63 5v-5H39v7h-1.8l-2.7-5ZM25 32l3.09-7h1.82L33 32h-1.86l-.71-1.75h-2.85L26.87 32H25Zm4-5.32L27.95 29h2.13L29 26.68ZM4 32l3.09-7H8.9L12 32h-1.86l-.71-1.75H6.58L5.87 32H4Zm4-5.32L6.95 29h2.13L8 26.68ZM12 25h3.21c2.35 0 3.79 1.07 3.79 3.52 0 2.52-1.44 3.48-3.79 3.48H12v-7Zm1.5 1.25v4.5h1.98c1.41 0 2.02-.87 2.02-2.24 0-1.39-.63-2.26-2.02-2.26H13.5ZM20.62 25H19l2.7 7h1.6l2.7-7h-1.56c-.02 1.1-.87 2-1.91 2s-1.89-.9-1.91-2Z" fill="#0096DB"/><circle cx="22.5" cy="24.5" r="1.5" fill="#EC691F"/></svg>