<!-- by TradingView --><svg width="56" height="56" viewBox="0 0 56 56" xmlns="http://www.w3.org/2000/svg"><path fill="#F0F3FA" d="M0 0h56v56H0z"/><path d="M27.42 13.01a15 15 0 0 0-12.63 22.1l.6-1.03a14 14 0 0 1 11.45-20.03l.58-1.04Zm13.2 21.07a14 14 0 0 0-11.45-20.03l-.6-1.04a15 15 0 0 1 12.64 22.1l-.6-1.03ZM20.78 40a13.94 13.94 0 0 0 14.44 0H37c-2.5 1.88-5.62 3-9 3s-6.5-1.12-9-3h1.78Z" fill="#3970C2"/><path d="m43.43 39 .57 1H28v-1h15.43Zm-.57-1-.57-1H28v1h14.86ZM24 38v-1H13.71l-.57 1H24Zm-11.43 1L12 40h12v-1H12.57Zm1.71-3H24v-3h-8l-1.72 3Zm2.29-4H24v-3h-5.72l-1.71 3Zm2.28-4h18.3L28 12l-9.15 16Zm18.87 1h-5.04c.81.73 1.32 1.8 1.32 3h5.43l-1.71-3ZM40 33h-6.12a3.92 3.92 0 0 1-3.77 3h11.6l-1.7-3Z" fill="#3C6EC3"/></svg>