<!-- by TradingView --><svg width="56" height="56" viewBox="0 0 56 56" xmlns="http://www.w3.org/2000/svg"><path fill="#181B1E" d="M0 0h56v56H0z"/><path d="M45 28c0 9.26-7.74 17-17 17v-2c8.1 0 15-6.9 15-15h2Z" fill="#F4C014"/><path d="M11 28c0-9.26 7.74-17 17-17v2c-8.1 0-15 6.9-15 15h-2Z" fill="#06739F"/><path d="M28 11c9.26 0 17 7.74 17 17h-2c0-8.1-6.9-15-15-15v-2Z" fill="#FB002A"/><path d="M28 45c-9.26 0-17-7.74-17-17h2c0 8.1 6.9 15 15 15v2Z" fill="#08983E"/><path d="M28 20h11v3h-8v3h7v3h-6l-4-9ZM16 36l6.31-16h3.38L32 36h-3.24L24 24l-3.57 9h3.64l.93 3h-9Z" fill="#FBFBF9"/></svg>