<!-- by TradingView --><svg width="56" height="56" viewBox="0 0 56 56" xmlns="http://www.w3.org/2000/svg"><path fill="#F0F3FA" d="M0 0h56v56H0z"/><path d="M8 28c0 6.63 5.18 12 11.57 12C25.94 40 31 34.58 31 28c0-3.04 2.5-5.5 5.43-5.5 1.62 0 3.07.75 4.04 1.94.84 1.02 2.03 1.98 3.34 1.98H48C47.26 20.54 42.3 16 36.43 16 30.13 16 25 21.44 25 28c0 3.04-2.5 5.5-5.43 5.5A5.63 5.63 0 0 1 14 28H8Z" fill="url(#a)"/><path d="M8 28c0-6.63 5.18-12 11.57-12C25.94 16 31 21.42 31 28c0 3.04 2.5 5.5 5.43 5.5 1.96 0 3.6-1.1 4.51-2.74a.5.5 0 0 0 .06-.32.52.52 0 0 0-.52-.43h-.64c-.7 0-1.52.28-1.84.43 1.15-1.67 3.63-2.28 5.09-2.41l.3-.03H48c0 6.63-5.18 12-11.57 12C30.13 40 25 34.56 25 28c0-3.04-2.5-5.5-5.43-5.5A5.63 5.63 0 0 0 14 28c-2.53.96-3.65.9-6 0Z" fill="url(#b)"/><defs><linearGradient id="a" x1="47.9" y1="28" x2="8" y2="28" gradientUnits="userSpaceOnUse"><stop stop-color="#007AC2"/><stop offset=".47" stop-color="#0A4678"/><stop offset="1" stop-color="#0572B5"/></linearGradient><linearGradient id="b" x1="28" y1="16" x2="28" y2="40" gradientUnits="userSpaceOnUse"><stop stop-color="#0373B9"/><stop offset=".74" stop-color="#10375E"/></linearGradient></defs></svg>