<!-- by TradingView --><svg width="56" height="56" viewBox="0 0 56 56" xmlns="http://www.w3.org/2000/svg"><path fill="#F0F3FA" d="M0 0h56v56H0z"/><ellipse cx="28" cy="28" rx="21" ry="12" fill="#005696"/><path fill-rule="evenodd" d="M28 39c11.05 0 20-4.92 20-11s-8.95-11-20-11S8 21.92 8 28s8.95 11 20 11Zm0-.5c10.77 0 19.5-4.7 19.5-10.5S38.77 17.5 28 17.5 8.5 22.2 8.5 28 17.23 38.5 28 38.5ZM23.36 24l-2.21 7.8c-.13.48-.28 1.42.11 1.42.4 0 1.05-.94 1.32-1.42l.42.34c-.55.95-2 2.86-3.4 2.86-1.77 0-1.29-1.99-.9-3.2-.5 1.07-1.87 3.2-3.4 3.2-1.93 0-2.3-3.05-1.38-5.46.9-2.4 2.88-5.54 5.05-5.54 1.21 0 1.5 1.2 1.5 1.8l.3-1.46 2.6-.34Zm-4.2.9c-.3-.07-1.14.45-2.1 3.1-1.19 3.3-.85 4.77-.24 4.77.6 0 2.06-2.08 2.75-4.34s.24-3.53-.42-3.53ZM24.5 35c.83 0 1.5-.9 1.5-2s-.67-2-1.5-2-1.5.9-1.5 2 .67 2 1.5 2ZM42 33c0 1.1-.67 2-1.5 2s-1.5-.9-1.5-2 .67-2 1.5-2 1.5.9 1.5 2Zm-9.34-12.2L29 35h2.64l1-4.04 1.18-1.2.6 3.43c.13.6.6 1.81 1.47 1.81 1.09 0 2.4-1.76 3.07-3.14l-.46-.56-.49 1.09c-.25.44-.84.95-1.15-.53-.3-1.42-.73-3.37-.94-4.27l.23-.24a99.3 99.3 0 0 1 2.1-2.18c.55-.5 1.02-.66 1.18-.68h.52V24h-4v.49h.36c.81 0 .68.67.51 1l-3.87 4.28L35.76 19l-3.9.76v.44c.69 0 .82.4.8.6Z" fill="#F0F3FA"/></svg>