<!-- by TradingView --><svg width="56" height="56" viewBox="0 0 56 56" xmlns="http://www.w3.org/2000/svg"><path fill="#F0F3FA" d="M0 0h56v56H0z"/><path d="M21.22 17.04A2.04 2.04 0 0 1 23 16h9.52v.03c.6.1 1.14.47 1.44 1.01l7.76 12.62A2.27 2.27 0 0 1 39.68 33h-8.63a1.3 1.3 0 0 1-1.12-.61c-2.63-4.26-6.66-10.76-7.63-12.35a.5.5 0 0 0-.62-.2c-.25.1-.36.4-.22.64l5.43 9.8A1.84 1.84 0 0 1 25.23 33h-8.9a2.27 2.27 0 0 1-2.05-3.34l6.94-12.62Z" fill="#363555"/><circle cx="22.5" cy="13.5" r="1.5" fill="#363555"/><circle cx="27.5" cy="13.5" r="1.5" fill="#363555"/><circle cx="32.5" cy="13.5" r="1.5" fill="#363555"/><circle cx="16.5" cy="42.5" r="1.5" fill="#363555"/><circle cx="22.5" cy="42.5" r="1.5" fill="#363555"/><path d="M29.5 42.5a1.5 1.5 0 1 1-3 0 1.5 1.5 0 0 1 3 0Z" fill="#363555"/><circle cx="33.5" cy="42.5" r="1.5" fill="#363555"/><circle cx="39.5" cy="42.5" r="1.5" fill="#363555"/><path d="M35.04 40H34l1.35-5h1.3L38 40h-1.04L36 36.26h-.03L35.04 40Zm-.14-1.97h2.18v.92H34.9v-.92ZM29 40v-5h3v.98h-1.94v1.03h1.75v.98h-1.75V40H29ZM23 40v-5h1.1v4.02H26V40h-3ZM18.04 40H17l1.35-5h1.3L21 40h-1.04L19 36.26h-.03L18.04 40Zm-.14-1.97h2.18v.92H17.9v-.92Z" fill="#363555"/></svg>