<!-- by TradingView --><svg width="56" height="56" viewBox="0 0 56 56" xmlns="http://www.w3.org/2000/svg"><path fill="#F0F3FA" d="M0 0h56v56H0z"/><path d="M42.45 37A17.08 17.08 0 0 0 45 28c0-9.41-7.59-17-17-17s-17 7.59-17 17c0 3.3.93 6.38 2.55 9h28.9Z" fill="#CAE1E9" fill-opacity=".5"/><path d="M42 37 28 13 14 37h4.82L28 21.26 37.18 37H42Z" fill="#014F9A"/><path d="m26.48 27.12-1.06 3.07c.04.18.04.27 0 .27a.26.26 0 0 1-.29-.24l-.1-1.2c-.02-.21-.08-.4-.18-.54-.28-.44-.66-.6-.94-.82-.14-.12-.29-.3-.44-.56-.21-.35-.44-.6-.68-.75-.59-.35-.96-.57-1.13-.64a7.48 7.48 0 0 1-2.04-1.09c-.21-.04-.33-.14-.36-.3-.09-.46-.33-.65-.73-.55-.18.04-.3 0-.37-.1l-.06-.1c-.13-.2-.1-.32.1-.35l.89-.13c.76-.08 1.53-.1 2.3-.08.96.04 1.74.02 2.73.2.23.03.41.18.56.42.36.62.65 1.43.86 2.43.06.25.37.6.94 1.06Z" fill="#015EA0"/><path d="m19.09 23.09-.9.13c-.19.03-.22.15-.09.36l.06.08c.07.12.2.15.37.1.4-.09.64.1.73.57.03.15.15.25.36.3a2.13 2.13 0 0 1 3.85 2.48c.15.25.3.43.44.55.28.21.66.38.94.82.1.14.16.33.18.55a56.78 56.78 0 0 1 .13 1.29.26.26 0 0 0 .26.14c.04 0 .04-.1 0-.27l.12.58c.02.07.04.08.08.02l3.3-4.9c.12-.07.35-.08.67 0 .09.02.1.04.02.08l-.38.2a1.64 1.64 0 0 0-1.5 2.1 4 4 0 0 1-.56 1.07c-.25.35-.4.8-.6 1.08l-1.1 1.62a.25.25 0 0 1-.14.1c-.34.1-.58.3-.72.6-.18.47-.18.35 0-.34.03-.13.14-.29.3-.47a.3.3 0 0 0 .08-.16c.12-.86.09-1.54-.07-2.05a.72.72 0 0 0-.57-.53 1.63 1.63 0 0 1-.34-.58c-.05-.13-.31-.37-.8-.71a.4.4 0 0 1-.12-.14.64.64 0 0 0-.25-.27 16.5 16.5 0 0 1-1.02-.56c-.43-.27-.77-.45-1-.56a18.46 18.46 0 0 0-5.26-1.53c-.37-.36-.88-.51-1.5-.44-.05 0-.09-.02-.11-.07-.04-.06-.02-.1.05-.1a2 2 0 0 0 1.02-.5c1.32-.38 2.67-.59 4.07-.64Z" fill="#63A5D7"/><path d="M15.02 23.72a2 2 0 0 1-1.02.5c-.07.02-.09.05-.05.1.02.06.06.08.1.08.63-.07 1.14.08 1.51.44l-2.31-.37c-.33-.05-.33-.13-.02-.24a14 14 0 0 1 1.8-.5Z" fill="#015EA0"/><path d="m29.21 25.33-.5.1a.14.14 0 0 0-.12.12c-.03.15.08.27.33.35l-3.3 4.89c-.04.06-.06.05-.08-.02l-.12-.58 1.06-3.07a2.9 2.9 0 0 1 2.16-1.92c.23-.06.42-.02.57.13Z" fill="#C8EAF8"/><path d="M29.21 25.33c.29-.05.53.02.73.2.06.05.11.09.17.12l.25.12c.05.03.05.06.01.1-.7.68-1.24 1.51-1.59 2.48L27.51 31c-.36.33-.67.68-.94 1.08-.18.26-.31.6-.4 1.03l-.26 1.09c-.14-.38-.33-.49-.55-.33-.3.2-.62.29-.96.24-.06 0-.09-.03-.1-.06 0-.03 0-.08.04-.13l.4-.47a.16.16 0 0 0 .02-.2.15.15 0 0 0-.05-.04c-.14-.1-.18-.25-.1-.47.14-.3.38-.5.72-.6.06-.01.1-.05.14-.1l1.1-1.62c.2-.29.35-.73.6-1.08a4 4 0 0 0 .56-1.07c.11-.37.25-.62.41-.77a19.49 19.49 0 0 0 1.09-1.33l.38-.2c.08-.04.07-.06-.02-.08-.32-.07-.55-.07-.67 0-.25-.07-.36-.19-.33-.34a.14.14 0 0 1 .12-.12l.5-.1Z" fill="#08336F"/><path d="M35.9 31.8a4.03 4.03 0 0 1-.85-1.43c-.49-.24-.91-.54-1.28-.9-.39-.39-.67-.63-.85-.72-.74-.38-1.69-.53-2.42-.02a8.3 8.3 0 0 1-1.56.84.1.1 0 0 1-.08-.06.1.1 0 0 1 0-.05l.18-1.08c.1-.24.26-.35.5-.34.71.03 1.34-.14 1.9-.51a.43.43 0 0 1 .26-.07c1 .04 1.87.38 2.6 1.01.24.22.46.57.65 1.03l.95 2.3Z" fill="#02478D"/><path d="M35.05 30.37a33.3 33.3 0 0 0-1.6-.08c-.47-.01-.83-.1-1.09-.25-.96-.58-1.7-1-2.77-.34-.35.22-.66.48-.92.78l-1.16.52 1.27-2.65c.07.08.16.09.26.03l-.18 1.08a.1.1 0 0 0 .08.1 8.3 8.3 0 0 0 1.56-.84c.73-.5 1.68-.35 2.42.03.18.09.46.33.85.72.37.36.8.66 1.28.9Z" fill="#015EA0"/><path d="M24.61 32.74c-.08.22-.04.38.1.47a.16.16 0 0 1 .03.24l-.4.47c-.08.02-.13.05-.16.1-.03.06-.01.1.05.13l.47.24c.04.02.08.05.1.09l.44.52.01.1c0 .37.16.65.48.84a44.7 44.7 0 0 0-.1 1.05c-.02.02-.03.01-.03-.01a6.34 6.34 0 0 0-.67-2.1c-.12-.23-.28-.4-.48-.5-.15-.08-.36-.08-.65-.02-.5.11-1.02.2-1.55.25a1.1 1.1 0 0 0-.33.07 2 2 0 0 1-.32.11c-.27.06-.29.03-.03-.1.9-.43 1.7-1.06 2.43-1.89.23-.26.39-.56.48-.9a4.78 4.78 0 0 0-.13-2.7c.28.05.47.23.57.52.16.51.19 1.2.07 2.05a.3.3 0 0 1-.08.16 1.2 1.2 0 0 0-.3.47c-.18.7-.18.8 0 .34Z" fill="#C8EAF8"/><path d="M35.05 30.37c.2.58.49 1.06.85 1.44L37 34.2a.07.07 0 0 1-.02.08.07.07 0 0 1-.09.02l-.16-.09a.17.17 0 0 1-.07-.08c-.07-.15-.19-.19-.36-.13a.23.23 0 0 1-.18 0l-1.75-.9a.4.4 0 0 1-.14-.12c-.07-.1-.14-.17-.2-.23a.65.65 0 0 0-.25-.1c-.31-.1-.52-.21-.62-.37a.97.97 0 0 0-.32-.31 2.4 2.4 0 0 1-.42-.3.26.26 0 0 1-.07-.12c-.04-.12-.12-.18-.27-.2a.23.23 0 0 1-.14-.07l-.63-.63a.31.31 0 0 0-.22-.1l-2.42-.07c.26-.3.57-.56.92-.78 1.06-.67 1.81-.24 2.77.34.26.15.62.24 1.1.25.48 0 1.02.04 1.59.08ZM25.9 34.2l-.17 1.74a.93.93 0 0 1-.48-.83V35l-.44-.52a.34.34 0 0 0-.11-.1l-.47-.23c-.06-.03-.08-.07-.05-.13.03-.05.08-.08.16-.1-.03.05-.05.1-.04.13.01.03.04.05.1.06.34.05.67-.03.96-.24.22-.16.4-.05.55.33Z" fill="#63A5D7"/><path d="m27.7 43-.24 1H26l1.55-5h1.9L31 44h-1.48l-.26-1h-1.55Zm.79-2.76h-.03L28 42.01h.98l-.48-1.77ZM23.57 41h1.93v1h-1.93v2H22v-5h4v1h-2.43v1ZM17 39h1.55v4H21v1h-4v-5ZM13.7 43l-.24 1H12l1.55-5h1.9L17 44h-1.48l-.26-1h-1.55Zm.79-2.76h-.03L14 42h.98l-.48-1.76ZM42.7 42.54h-2.4L39.7 44H39l2.1-5h.8l2.1 5h-.72l-.59-1.46Zm-.23-.54-.97-2.4h-.03l-.96 2.4h1.96ZM38.42 42.29l.58.1c-.17.77-.8 1.61-1.92 1.61-1.22 0-2.08-.95-2.08-2.51 0-1.54.86-2.49 2.08-2.49 1.09 0 1.66.8 1.84 1.3l-.57.12c-.17-.46-.6-.9-1.27-.9-.9 0-1.5.73-1.5 1.97 0 1.26.6 2 1.5 2 .76 0 1.2-.57 1.34-1.2ZM33 44v-5h.66v5H33Z" fill="#EF1D20"/></svg>