<!-- by TradingView --><svg width="56" height="56" viewBox="0 0 56 56" xmlns="http://www.w3.org/2000/svg"><path fill="#F0F3FA" d="M0 0h56v56H0z"/><path d="m28.05 13.56.68 1.34c.03.06-.02.12-.07.1a3.58 3.58 0 0 1-1.54-1.48.85.85 0 0 1-.1-.62c.05-.2.18-.39.35-.49a3.2 3.2 0 0 1 2.59-.25c.04.01.05.04.03.09-.03.09-.05.15-.15.15-.7 0-1.27.22-1.72.69-.14.14-.16.3-.07.47ZM32.86 15.16c.25-.1.34-.43.25-.7l-.44-1.27c-.07-.2-.03-.24.14-.12.78.6 1.18 1.19 1.19 1.78a1.1 1.1 0 0 1-.95 1.12c-.9.08-1.79 0-2.65-.26-.54-.16-.53-.24.03-.23 1.05.01 1.86-.1 2.43-.32Z" fill="#7B7B7C"/><path d="m34.86 21.79.18 4.44c.01.37-.15.55-.5.55h-.5c-.31 0-.44-.16-.37-.49a23 23 0 0 0 .4-4.44c0-.22-.1-.36-.3-.4A18.27 18.27 0 0 1 24 16.12c0-.04.04-.27.11-.2 2.8 2.43 6 3.93 9.6 4.5.12.02.22-.1.21-.22-.1-.97-.27-1.96-.5-2.95-.03-.06.08-.14.12-.05.4.98.7 1.92.9 2.83.03.17.13.32.26.42.13.11.3.16.46.15l3.15-.25c.34-.02.45-.21.3-.56a18.26 18.26 0 0 0-3.5-5.66c-.04-.04-.04-.07 0-.1.03-.03.07-.04.09-.02 4.12 3.45 6.04 7.98 5.78 13.62-.02.25-.14.37-.36.37h-.84c-.24 0-.34-.13-.3-.38.27-1.86.2-3.8-.23-5.82-.03-.13-.1-.2-.23-.2h-4c-.11 0-.16.07-.16.19Z" fill="#7B7B7C"/><path d="M31.03 27.6c0-.58-.16-.63-.5-.15a511.2 511.2 0 0 1-4.25 6.14 1.3 1.3 0 0 1-.31.34c-.2.13-.29.07-.23-.18l1.28-6.05a.4.4 0 0 0-.32-.48c-.2-.04-.43.02-.7.17-.53.32-1 .74-1.6 1.26-.15.13-.4.02-.4-.19v-2.34c0-.15-.08-.3-.21-.38l-2.25-1.23a.34.34 0 0 0-.33-.01l-2.25 1.29c-.54.3-.7.17-.47-.4l1.08-2.77c.06-.14.01-.2-.13-.2a1.6 1.6 0 0 1-1.43-.65 128 128 0 0 0-2.9-3.57c-.15-.18-.15-.36 0-.55l.38-.46c.22-.26.4-.25.57.03a24.15 24.15 0 0 0 3.23 4.13c.15.16.4.16.56.01l1.84-1.83c1.03-1.02 1.19-.9.46.35-.33.58-1.01 1.84-2.04 3.78-.16.3-.1.37.21.2l1.1-.63c.1-.05.19-.05.27 0l3.33 1.9c.14.08.21.25.18.4l-.26 1.25c-.05.2.02.25.2.16.23-.12.58-.38 1.06-.78.1-.09.2-.1.31-.03l1.37.78c.13.08.2.24.18.39l-.42 2.08c-.2 1.02-.04 1.08.48.18l3.23-5.53c.1-.14.46-.22.46.02.03 1.49.07 2.68.13 3.56.02.34.2.54.52.61l3.7.77c.26.06.55-.07.68-.3l.95-1.62c.05-.1.14-.15.26-.13l.12-.01c.15-.03.23.03.24.18l.16 1.59a.5.5 0 0 0 .5.45h1.52c.24 0 .41.21.41.44v.31c0 .25-.12.37-.37.37h-2.1c-.2 0-.66-.22-.69-.45-.06-.59-.24-.62-.53-.08l-.2.4c-.05.14-.15.19-.3.17-2.09-.33-3.93-.72-5.53-1.16-.16-.05-.25-.16-.25-.33V27.6Z" fill="#165B28"/><path d="M14.16 29.2c-.52-.66-.67-.6-.46.22 1.59 5.95 5.28 9.72 11.1 11.28.15.04.04.32-.06.3-2.15-.3-4.06-.97-5.74-2.03-4.8-3.01-7.12-7.28-7-12.8.06-2.25.74-4.54 2.05-6.87.21-.38.45-.4.7-.06.23.3.55.62.58 1.02a.86.86 0 0 1-.14.53c-.53.83-1 2.1-1.39 3.81-.15.66-.03 1.3.36 1.92L15.7 29c.34.55.48.5.42-.16-.2-1.97.07-4.04.79-6.19.05-.17.15-.21.3-.13l.93.52c.25.13.32.33.2.59a12.07 12.07 0 0 0-.84 7.23c.02.14.1.26.2.35 3.9 3.68 8.67 5.5 14.28 5.43.02 0 .03.05 0 .06-4.95.61-9.41-.46-13.37-3.21-.45-.31-.56-.23-.33.26.68 1.44 1.47 2.7 2.37 3.79.03.03-.09.12-.15.06a12.02 12.02 0 0 1-3.51-5.07c-.42-1.2-2.02-2.31-2.83-3.32Z" fill="#7B7B7C"/><path d="M35 36.79c0-2.1 1.73-3.79 3.86-3.79H44v9h-1.5v-2.5h-6V42H35v-5.21ZM36.5 38h6v-3.5h-3.27a2.7 2.7 0 0 0-2.73 2.68V38Z" fill="#165B28"/></svg>