<!-- by TradingView --><svg width="56" height="56" viewBox="0 0 56 56" xmlns="http://www.w3.org/2000/svg"><path fill="#4C8A3F" d="M0 0h56v56H0z"/><path fill-rule="evenodd" d="M14 14h13v13H14V14Zm2 11h2.1l.7-2h3.37l.73 2H25l-3.6-9h-1.83L16 25Zm5.63-3.5-1.16-3.2-1.13 3.2h2.29ZM14 29h13v13H14V29Zm3 11v-9h2v7.5h5V40h-7Zm25-26H29v13h13V14Zm-10 2v9h2v-3h2.6c1.88 0 3.4-1.49 3.4-3.1 0-1.6-1.52-2.9-3.4-2.9H32Zm2 1.5h2.2c1 0 1.8.67 1.8 1.5s-.8 1.5-1.8 1.5H34v-3Zm-.95 15.57A14 14 0 0 0 35.42 29c.22.62 1.02 2.3 2.39 4.07C39.58 35 40 36.94 40 37.67c0 2.4-2 4.33-4.45 4.33h-.1A4.39 4.39 0 0 1 31 37.67c0-.92.16-2.19 2.05-4.6Zm3.91 1.1a14.1 14.1 0 0 1-1.27-3.37 34.17 34.17 0 0 0 2.54 3.84c.66.82 1.5 3.05.26 5.01-1 1.57-2.91 1.66-3.75 1.5 2.14-.46 3.3-2.22 3.3-3.46 0-1.23-.15-1.8-1.08-3.52Z" fill="#fff"/></svg>