<!-- by TradingView --><svg width="56" height="56" viewBox="0 0 56 56" xmlns="http://www.w3.org/2000/svg"><path fill="#F0F3FA" d="M0 0h56v56H0z"/><path fill-rule="evenodd" d="M23.75 31.5C15.97 34.87 8 34.12 5 33.32c1.67.32 4.32.23 7.31-.25L20.88 19H26v9.31c2.9-1.78 5.1-4 5.78-6.65 0-7.56-18.9-4.24-19.12-4.17C30.46 11.9 37 16.95 37 20.55s-3.53 6.73-13.25 10.95ZM22 23.85v6.49a40.9 40.9 0 0 1-4.55 1.58L22 23.85ZM11.27 34.78 9.31 38h4.71l2.03-3.6c-1.86.27-3.5.37-4.78.38ZM22 33.1V38h4v-6.36a35.91 35.91 0 0 1-4 1.46Zm11-4.99V38h12v-4h-8V23.5c-.02.72-.7 2.26-4 4.61Z" fill="#116634"/></svg>