<!-- by TradingView --><svg width="56" height="56" viewBox="0 0 56 56" xmlns="http://www.w3.org/2000/svg"><path fill="#F0F3FA" d="M0 0h56v56H0z"/><path d="M28.72 22.04c-.07-.05-.14-.05-.22 0a.17.17 0 0 0-.06.07c-.38.77-.58 1.48-1.27 1.62-1.59.32-2.67.9-3.71 1.76a8.04 8.04 0 0 0-2.33 10.15.56.56 0 0 1-.01.5l-1.95 3.61a.4.4 0 0 1-.15.16c-.06.03-.14.1-.21.09h-7.54c-.27 0-.34-.1-.2-.33L28 10l16.98 29.86c.04.07.02.14-.06.14h-7.4c-.08 0-.17-.06-.24-.1a.44.44 0 0 1-.17-.2l-1.08-2.35a.6.6 0 0 1 .05-.62c.43-.65.89-1.31 1.12-2.03a7.82 7.82 0 0 0-.88-7.18 8.7 8.7 0 0 0-2.68-2.59 10.77 10.77 0 0 0-3.94-1.27.53.53 0 0 1-.25-.1.5.5 0 0 1-.16-.2l-.53-1.26a.14.14 0 0 0-.04-.06Z" fill="#33386E"/><path d="m33.83 26.9.13.04c.2.1.2.12-.02.04a25.08 25.08 0 0 1-3.82-1.8v-.07c0-.04.02-.05.06-.03l2.12 1.06c.36.17 1.02.32 1.35.7.02.03.05.05.08.06h.1ZM27.1 25.3l-3.05 1.44a.11.11 0 0 0-.05.15c.03.06.1.09.16.06l3.05-1.43c.06-.03.08-.1.05-.15v-.01a.12.12 0 0 0-.16-.05ZM27.28 27.56c-.04.02-.1.03-.14.02a.18.18 0 0 1-.11-.07l-.03-.04c-.14-.2-.23-.41-.25-.6-.03-.19.02-.33.12-.4l.02-.01c.1-.07.26-.06.44.04.17.09.34.25.48.45l.03.04c.02.03.03.08.02.13 0 .04-.03.08-.07.1l-.51.34Z" fill="#33386E"/><path fill-rule="evenodd" d="M27.95 26.05c-.07.02-.15.05-.22.09-.18.08-.17.13.03.14.39.02.7.33.96.95.02.05.05.08.09.11a.25.25 0 0 0 .27 0 .23.23 0 0 0 .08-.1c.06-.16.02-.36-.13-.6a.18.18 0 0 1 0-.19.2.2 0 0 1 .07-.07.2.2 0 0 1 .1-.03c.24-.02.4.05.45.21.07.2.11.31.13.33.26.42.44.68.53.8.02.03.06.05.1.07a.28.28 0 0 0 .26-.02.26.26 0 0 0 .1-.1l.43-.8a.25.25 0 0 0 0-.23.27.27 0 0 0-.08-.1.28.28 0 0 0-.11-.05c-.7-.13-1.14-.23-1.33-.28-.26-.06-.51-.07-.75-.02-.23.05-.48.02-.77-.1a.31.31 0 0 0-.2 0Zm2.75.72-.52-.08c-.05 0-.07.01-.08.05-.01.14.07.25.26.34.18.09.32.05.43-.13.06-.1.03-.16-.1-.18Z" fill="#33386E"/><path d="M36.04 32.5c-.35-.55-.3-1.16-.5-1.69-.19-.51-.3-.93-.34-1.26a12.59 12.59 0 0 0-.62-2.22c.35.62.59 1.2.7 1.74.15.72.25 1.17.3 1.33.17.5.27.94.32 1.34.05.42.33.77.36 1.21.01.13-.02.14-.08.04-.01-.02-.03-.1-.05-.26a.64.64 0 0 0-.1-.24Z" fill="#33386E"/><path fill-rule="evenodd" d="M37.22 31.95c0 2.1-.87 4.1-2.42 5.6a8.44 8.44 0 0 1-5.84 2.31 8.44 8.44 0 0 1-5.84-2.32 7.75 7.75 0 0 1-2.42-5.6c0-2.1.87-4.1 2.42-5.59a8.44 8.44 0 0 1 5.84-2.32c2.19 0 4.29.84 5.84 2.32a7.75 7.75 0 0 1 2.42 5.6Zm-15.83.1c.06-.59.23-1.48.5-2.69.16-.7.4-1.3.72-1.78.32-.48.8-.9 1.42-1.29a15.12 15.12 0 0 1 3.25-1.5 7.08 7.08 0 0 1 1.91-.25c.56-.02 1.17.12 1.82.42 1.32.6 2.34 1.1 3.07 1.5a3.75 3.75 0 0 1 1.87 2.43c.5 1.91.82 3.15.94 3.73.03.16.04.4.03.71 0 .23-.08.45-.22.66a28.83 28.83 0 0 1-3.08 3.83c-.53.55-1.03 1.06-1.83 1.16-1.76.22-3.38.11-5.4-.14a3.25 3.25 0 0 1-1.98-.94c-.6-.63-1.4-1.59-2.37-2.88-.67-.9-.9-1.89-.65-2.97Z" fill="#33386E"/><path d="M29.44 33.6h-1.39c-.05 0-.08-.03-.07-.08.23-1.34.26-2.8.1-4.35-.01-.05 0-.08.05-.1l1.28-.53a.06.06 0 0 1 .05 0 .05.05 0 0 1 .03.05 35.36 35.36 0 0 0 0 4.99h-.02a.1.1 0 0 1-.03.01ZM23.75 30.75c.05-.14 0-.18-.14-.12-.39.17-.58.5-.6.95 0 .03-.01.05-.03.07-.05.07-.1.08-.15.04a.16.16 0 0 1-.04-.06c-.16-.42-.06-.9.3-1.43.3-.45.68-.53 1.16-.25.26.15.31.4.16.75a29.4 29.4 0 0 1-.9 1.87c-.12.23-.1.52.09.88.04.07.07.07.1-.01.26-.8.65-1.52 1.16-2.18.48-.63.73-1.35 1.31-2 .5-.56.63-.5.37.2-.31.85-.76 1.85-1.35 3.02A6.87 6.87 0 0 1 24.16 34c-.24.27-.18.37.17.32.02 0 .08-.06.19-.17a21.1 21.1 0 0 0 2.24-2.86c.33-.25.46-.18.4.21-.1.58-.3 1.14-.89 1.55a9.45 9.45 0 0 0-1.16 1 .09.09 0 0 0 .03.11c.2.14.37.32.43.56.18.67.4 1.3.64 1.88.12.27.05.33-.22.2-.69-.37-.86-1.1-1.03-1.81a.27.27 0 0 0-.15-.2l-.66-.32a.22.22 0 0 0-.23.02.62.62 0 0 1-.35.1.13.13 0 0 1-.13-.16l.1-.56a.25.25 0 0 0-.06-.22 1.5 1.5 0 0 1-.39-1.15c.02-.23.13-.53.32-.89.13-.26.25-.55.34-.87ZM33.52 34.4c-.06-.37-.22-.61-.48-.72a.4.4 0 0 1-.19-.17 19.84 19.84 0 0 1-1.28-2.47c-.37-.9-.63-1.52-.78-1.84a.14.14 0 0 1 .03-.17.16.16 0 0 1 .18-.02l.21.1c.3.46.59.9.85 1.35.1.18.41.63.92 1.34.57.8.92 1.7 1.06 2.7.03.2-.05.24-.22.16l-.17-.1a.23.23 0 0 1-.13-.17ZM33.73 30.63v.3c0 .03 0 .07.03.1.38.65.87 1.58.55 2.34a.1.1 0 0 1-.05.05l-.15.07a.04.04 0 0 1-.04-.01.04.04 0 0 1-.01-.05c.1-.29.11-.51.03-.66l-.85-1.58a1.68 1.68 0 0 1-.2-1.07.25.25 0 0 1 .14-.2c.5-.25.96-.19 1.23.37.23.5.37.92.4 1.3.02.1-.01.11-.08.04-.3-.32-.56-.67-.78-1.05a.12.12 0 0 0-.06-.05.12.12 0 0 0-.07 0 .12.12 0 0 0-.07.03.11.11 0 0 0-.02.07ZM32.33 34.22a.12.12 0 0 0 .07-.1l-.01-.05a20.34 20.34 0 0 0-1.26-1.05 1.9 1.9 0 0 1-.82-1.55c-.02-.38.11-.43.37-.14.33.34.74.91 1.25 1.7.2.3.55.45.62.8.02.08.06.15.13.2l.33.25c.43.11.42.22 0 .32a.84.84 0 0 0-.66.66l-.2.77c-.16.35-.42.62-.76.83-.23.14-.3.1-.18-.15.32-.68.54-1.4.67-2.14.02-.1.07-.16.15-.2l.3-.15ZM36.4 33.31l-.03-.02a.07.07 0 0 0-.1 0L32 38.34a.07.07 0 0 0 .01.1l.03.02c.03.02.08.02.1-.01l4.27-5.03a.07.07 0 0 0-.01-.1ZM25.45 37.88c.03 0 .03.04.01.1l-3.44-3.9v-.01l.06-.03h.03c.42.36.7.64.87.85a60.8 60.8 0 0 0 2.47 3ZM28.46 34.96l-.02-.83c.67-.13.8.15.4.82-.08.13-.2.13-.38 0ZM30.02 34.3c-.03.21-.04.36-.01.46.1.4 0 .48-.32.2-.13-.1-.22-.32-.29-.62a.24.24 0 0 1 .05-.2.26.26 0 0 1 .2-.1h.12c.19 0 .27.09.25.27Z" fill="#33386E"/><path d="M30.63 34.32c-.01-.05-.05-.07-.1-.08-.16-.04-.15-.07.03-.1.28-.05.45-.07.53-.05l.06.03.04.05.02.05c0 .02 0 .04-.02.06a.71.71 0 0 0-.02.57c.04.11 0 .19-.12.22-.24.06-.4.04-.48-.05a.19.19 0 0 1-.01-.22c.1-.17.13-.33.07-.48ZM28.46 34.96l-.02-.83a.3.3 0 0 1-.26.17.34.34 0 0 1-.24-.07.96.96 0 0 0-.83-.17.95.95 0 0 1-.54-.03.25.25 0 0 0-.21.03.24.24 0 0 0-.1.18c-.03.3.02.57.14.79a.22.22 0 0 0 .21.11l1.85-.18Zm-1.18-.41c0 .12-.1.22-.25.23-.15.01-.27-.07-.28-.2-.01-.1.1-.21.25-.22.14-.02.27.07.28.19ZM30.08 35.62l.01-.03.03-.02h.03c.04 0 .08.02.12.05.04.02.08.06.11.11l.07.17a.8.8 0 0 1 .02.2v.09a.7.7 0 0 1-.1.37c-.07.1-.15.15-.24.15h-.02c-.01 0-.03 0-.03-.02-.01 0-.02-.01-.02-.03l.02-1.04ZM26.95 36.36l-.1-.58c-.01-.06.01-.09.07-.09h.22c.1 0 .16.05.15.15 0 .23-.04.41-.12.55a.12.12 0 0 1-.05.05.12.12 0 0 1-.07.01.12.12 0 0 1-.06-.03.1.1 0 0 1-.04-.06ZM28.13 36.43a.51.51 0 0 1-.13.14c-.1.05-.17.03-.18-.07l-.08-.7a.15.15 0 0 1 .14-.16 5.3 5.3 0 0 0 .56.27c.07.03.1.12.1.25.01.1-.04.16-.15.15h-.07a.3.3 0 0 0-.19.12ZM29.38 35.68l-.25-.02a.13.13 0 0 0-.14.12l-.05.62c0 .07.04.13.12.14l.25.02c.07 0 .14-.05.14-.12l.05-.62a.13.13 0 0 0-.12-.14ZM25.46 37.99c.02-.07.02-.1 0-.1.07-.02.14-.01.21.01a.6.6 0 0 0 .25.05 25.56 25.56 0 0 1 5.49.41l.01.04-.01.03-.04.02c-.48.04-.93.03-1.34-.03-.51-.06-.96-.1-1.33-.09-.64 0-1.47-.05-2.5-.16a2.8 2.8 0 0 1-.74-.18Z" fill="#33386E"/></svg>