<!-- by TradingView --><svg width="56" height="56" viewBox="0 0 56 56" xmlns="http://www.w3.org/2000/svg"><path fill="#F0F3FA" d="M0 0h56v56H0z"/><path d="M41.08 34.08c.45-1 .34-1.79-.33-2.35a27.2 27.2 0 0 0-6-3.62 72.24 72.24 0 0 1-6.73-6.85A57.6 57.6 0 0 1 21.29 28l-1.32.78-1.22.66c-1.35.72-2.78 1.47-3.75 2.58a.55.55 0 0 0-.13.36v1.4l-.06.21c-1.85-1.27-3.01-2.13-3.47-2.57A5.51 5.51 0 0 1 10 28.78v-1.51a6.07 6.07 0 0 1 3.3-4.15 42.38 42.38 0 0 0 7.72-7.1 89.09 89.09 0 0 0 2.49-3.3 6.8 6.8 0 0 1 2.1-2.1 4.98 4.98 0 0 1 5.05.15c.56.32 1.2 1.02 1.94 2.08a40.8 40.8 0 0 0 8.34 8.93c.32.26.73.54 1.17.84 1.2.82 2.63 1.8 3.22 2.89.89 1.64.9 3.29.02 4.94a6.57 6.57 0 0 1-1.98 1.98l-2.3 1.65Z" fill="url(#a)"/><path d="m21.29 28 .75.65c-2.03 1.98-4.5 4.11-7.17 5.12v-1.39c0-.13.05-.26.13-.36 1.27-1.45 3.3-2.3 4.97-3.24l1.32-.78Z" fill="#2F5539"/><path d="M34.74 28.11a27.2 27.2 0 0 1 6.01 3.62c.67.56.78 1.35.33 2.35l-1.76 1.46-5.01-7.15c.01-.06.16-.15.43-.28ZM22.92 29.42c-.78.89-1.4 1.52-1.87 1.9a90.6 90.6 0 0 0-4.62 4l-1.62-1.33.06-.22c2.68-1.01 5.14-3.14 7.17-5.12l.88.77Z" fill="#407045"/><path d="m39.32 35.54-5.01-7.15-4.06 3.81-2.12 2.42a.17.17 0 0 1-.17.06.17.17 0 0 1-.08-.05l-4.96-5.21a16.9 16.9 0 0 1-1.87 1.9 90.6 90.6 0 0 0-4.62 4 38.75 38.75 0 0 1 5.73 6.19c.42.58.95 1.28 1.56 2.09a5.03 5.03 0 0 0 6.89 1.69c.52-.3 1.24-1.09 2.14-2.38a43.21 43.21 0 0 1 4.34-5.27l2.23-2.1Z" fill="url(#b)"/><defs><linearGradient id="a" x1="31.87" y1="14.54" x2="13.79" y2="29.65" gradientUnits="userSpaceOnUse"><stop stop-color="#84A84A"/><stop offset="1" stop-color="#24A564"/></linearGradient><linearGradient id="b" x1="34.92" y1="32.63" x2="23.46" y2="42.12" gradientUnits="userSpaceOnUse"><stop stop-color="#54A757"/><stop offset="1" stop-color="#23A564"/></linearGradient></defs></svg>