<!-- by TradingView --><svg width="56" height="56" viewBox="0 0 56 56" xmlns="http://www.w3.org/2000/svg"><path fill="#F0F3FA" d="M0 0h56v56H0z"/><path d="M30 20.33v5.7c0 .07.03.12.1.1a.1.1 0 0 0 .05-.02l3.38-3.33c.19-.19.42-.28.7-.28h.95c.27 0 .31.1.12.28L32.03 26c-.1.1-.1.2-.02.3l2.82 3.46a.07.07 0 0 0 .07.03.08.08 0 0 0 .06-.04l4.08-6.91c.16-.27.34-.4.54-.4.28.02.62.02 1.04.03.1 0 .17.05.22.13l1.75 2.84c.03.05.03.1.02.15a.2.2 0 0 1-.08.13c-.38.26-.75.33-1.11.2l-1.26-2a.12.12 0 0 0-.16-.03.11.11 0 0 0-.04.04l-1.61 2.78a.1.1 0 0 0 0 .11.1.1 0 0 0 .1.04l.84-.26c.08.18.13.35.14.5l-1.32.16a.27.27 0 0 0-.2.13l-2.05 3.46a.28.28 0 0 1-.25.15h-1.2a.32.32 0 0 1-.14-.04.3.3 0 0 1-.1-.08l-3.21-3.94a.09.09 0 0 0-.13-.01l-.76.74c-.07.08-.07.17-.07.27v2.83c0 .12-.15.23-.26.23h-.93c-.15 0-.23-.07-.23-.23l.01-9.99c.5-.45.99-.6 1.41-.45ZM43.15 26.36l3.38 5.58a.03.03 0 0 1 0 .03.03.03 0 0 1-.03.02c-.5.03-1 .03-1.51 0a.14.14 0 0 1-.11-.07l-3.12-5.2c.35-.32.8-.45 1.39-.36ZM27.47 21.17v9.63c0 .1-.06.2-.17.2h-.8c-.19.01-.38-.1-.57-.28-1.75-1.77-3.13-3.28-4.36-4.54-.15-.16-.23-.13-.23.1v4.52c0 .12-.07.2-.19.2h-.92c-.15 0-.23-.1-.23-.24v-6.22c0-.05.02-.1.06-.13a.18.18 0 0 1 .13-.05h1.7c.06 0 .12.02.16.06l3.82 3.97.04.02h.04a.07.07 0 0 0 .05-.07v-6.73c.5-.52.97-.6 1.47-.44Z" fill="#4C4C4C"/><path fill-rule="evenodd" d="M39.28 26.61c.08.19.11.33.12.49 2.98-.48 6.62-1.15 8.74-3.56a3.08 3.08 0 0 0 .77-2.87c-.4-1.76-2.58-2.8-4.14-3.15a24.32 24.32 0 0 0-7.08-.44c-2.4.2-4.46.48-6.2.87a74.84 74.84 0 0 0-16.44 5.77.27.27 0 0 1-.2.01.29.29 0 0 1-.17-.13l-2.5-4.45c-.1-.2-.22-.2-.33 0l-6.8 12.1c-.1.17-.05.27.14.29.5.06 1 .08 1.51.05.34-.02.79-.22 1.33-.6a97.57 97.57 0 0 1 6.44-4.07.1.1 0 0 1 .07-.01.1.1 0 0 1 .06.04l5.33 8.6c.25.4.38.36.38-.11v-2.37a1 1 0 0 0-.15-.52l-4-6.44a.1.1 0 0 1 .01-.1c0-.02.02-.02.03-.03a82.79 82.79 0 0 1 9.89-4.4c.41-.43.88-.57 1.38-.41.37-.23.74-.35 1.12-.36.5-.47.95-.63 1.38-.48a31.4 31.4 0 0 1 11-1.63c1.73.05 3.32.41 4.77 1.07 1.27.58 2.06 2.03.91 3.19-1.73 1.74-3.58 2.36-5.54 3.01-.6.2-1.2.4-1.83.64Zm-28.97-.51 2.78-1.47a.1.1 0 0 0 .05-.1.1.1 0 0 0-.01-.03l-1.04-1.89a.1.1 0 0 0-.13-.03.1.1 0 0 0-.04.04l-1.73 3.35a.1.1 0 0 0 .02.1.1.1 0 0 0 .1.03Z" fill="#2091C8"/><path d="M21.84 33h-.68a.16.16 0 0 0-.16.16v2.68c0 .09.07.16.16.16h.68c.09 0 .16-.07.16-.16v-2.68a.16.16 0 0 0-.16-.16ZM31.8 33h-.57c-.13 0-.23.1-.23.21v.1c0 .11.1.21.22.21h.58c.12 0 .22-.09.22-.2v-.1c0-.12-.1-.21-.22-.21ZM39.13 35.37h1.52c.03 0 .06 0 .08.02l.05.08.08.34a.13.13 0 0 1-.07.15c-.01 0-.03.04-.05.04h-2.6a.13.13 0 0 1-.1-.04.13.13 0 0 1-.04-.09v-2.7c0-.05.1-.17.15-.17h.72a.13.13 0 0 1 .12.08l.01.05v2.1a.13.13 0 0 0 .08.13h.05ZM42.56 34.47v.75c0 .14.07.21.21.21h.29c.13 0 .2.07.2.21 0 .18-.06.28-.2.31-.37.09-.77.04-1.2-.13a.26.26 0 0 1-.16-.25v-1.06c0-.12-.05-.2-.16-.25l-.26-.12c-.11-.05-.13-.12-.04-.21.35-.37.63-.63.84-.78.36-.27.52-.17.48.28-.02.21.13.33.45.35.1 0 .16.05.2.14a.3.3 0 0 1 0 .2.2.2 0 0 1-.2.15h-.25a.2.2 0 0 0-.14.06.2.2 0 0 0-.06.14ZM24 34.77v1.05c0 .12-.06.18-.19.18h-.61c-.13 0-.2-.06-.2-.2v-1.77c0-.11.06-.17.18-.15l.74.1c.09.02.18.01.28-.01.48-.13.96-.12 1.42.03a.46.46 0 0 1 .3.36c.08.5.1.98.06 1.47-.01.1-.07.17-.17.17h-.62c-.12 0-.19-.07-.19-.19v-1.04c0-.25-.05-.38-.31-.38h-.31c-.26 0-.38.13-.38.38ZM31.85 34h-.7c-.08 0-.15.06-.15.14v1.7c0 .07.07.16.15.16h.7c.08 0 .15-.09.15-.16v-1.72c0-.08-.07-.12-.15-.12ZM29.08 33.23v.63a.09.09 0 0 1-.04.07.1.1 0 0 1-.08.02 2.5 2.5 0 0 0-1.6-.02c-.93.34-.89 1.53 0 1.92.45.2.93.18 1.45-.04.1-.04.2-.05.3-.02l.63.18c.17.04.25-.02.25-.19V33.2c0-.1-.05-.15-.15-.15h-.58c-.04 0-.09.02-.12.05a.17.17 0 0 0-.06.13Zm.02 1.68c-.02.34-.36.6-.78.58-.41-.02-.74-.3-.72-.65.01-.34.36-.6.78-.58.41.02.74.3.72.65ZM45.78 33.29v.55a.1.1 0 0 1-.05.09.1.1 0 0 1-.1.01 2.38 2.38 0 0 0-1.31-.09c-.85.2-1.23 1.2-.49 1.8.5.4 1.08.46 1.73.16a.31.31 0 0 1 .27 0c.23.11.44.16.65.16.05 0 .1-.02.12-.05a.17.17 0 0 0 .06-.12v-2.53c0-.13-.07-.2-.21-.2H46a.22.22 0 0 0-.16.06.22.22 0 0 0-.06.16Zm0 1.6c0 .34-.33.6-.73.59-.4-.01-.72-.3-.71-.63.01-.34.34-.6.74-.59.4.01.72.3.7.63ZM32.92 34.54c.93-.25 1.48-.3 1.63-.15l.03.06a.11.11 0 0 1-.05.12 25.38 25.38 0 0 1-.35.06c-.58.07-1.14.14-1.46.4-.05.05-.1.1-.12.17a.42.42 0 0 0 .03.4c.04.06.1.1.15.14.5.29 1 .34 1.5.14a.6.6 0 0 1 .3-.04l.88.12c.06 0 .1-.02.1-.09V34.5a.55.55 0 0 0-.12-.33.59.59 0 0 0-.3-.2 4.3 4.3 0 0 0-1.96-.04.43.43 0 0 0-.15.07l-.2.15c-.08.09-.1.2-.06.31.03.07.08.1.15.08Zm1.76.59c.03.12-.22.29-.57.36-.34.08-.65.04-.68-.08-.03-.13.23-.3.57-.37.35-.08.65-.04.68.09Z" fill="#4C4C4C"/></svg>