<!-- by TradingView --><svg width="56" height="56" viewBox="0 0 56 56" xmlns="http://www.w3.org/2000/svg"><path fill="#F0F3FA" d="M0 0h56v56H0z"/><path fill-rule="evenodd" d="M50 19H6v12h44V19Zm-29.06 4c.03 0 .05.01.06.04V30h1.91a.1.1 0 0 0 .06-.03.08.08 0 0 0 .03-.06v-6.94c0-.42-.02-.7-.04-.84a2.2 2.2 0 0 0-.23-.63c-.25-.45-.65-.46-1.1-.48a10.9 10.9 0 0 1-.64-.02 668.05 668.05 0 0 1-4.98.02.04.04 0 0 0-.01.04v8.86l.06.04.04.02a.1.1 0 0 0 .07.02h1.64c.02 0 .04 0 .05-.02l.06-.02.08-.02v-6.85l.01-.02.01-.01.02-.03.03-.02h.02l.02-.01h2.83ZM48 28v1.92a.07.07 0 0 1-.02.05l-.02.02h-.01l-.02.01H44.7c-.36 0-.62-.04-.76-.1a1.58 1.58 0 0 1-.9-.83 2.54 2.54 0 0 1-.03-.54V21.1c0-.02.02-.05.04-.06l.01-.01a.1.1 0 0 1 .07-.03h1.84l.02.02a.08.08 0 0 1 .02.06V28s2.69.02 3 0Zm-20-3.55v-1.26c0-.07 0-.19.1-.19H32v-1.92c0-.02-.02-.04-.03-.05h-.01a3565.07 3565.07 0 0 1-5.1-.01l-.03-.01c-.15 0-.42 0-.52.07-.13.11-.2.31-.24.49-.03.18-.07.47-.07.85v2.78c0 .37.08.71.19 1.01.04.12.13.18.27.19h3.11l.23.02.1.01c.05.01.1.05.1.11v1.32c0 .1-.07.14-.16.14h-3.78c-.04 0-.06.03-.06.08V30h4.54c.22 0 .52-.03.9-.06.15-.01.23-.07.32-.18a.96.96 0 0 0 .24-.6v-3.93c0-.2-.09-.36-.25-.5-.2-.17-.62-.2-.89-.2h-2.78a.08.08 0 0 1-.08-.08Zm-16.03 0a.3.3 0 0 1-.02.09l-.03.03a5.76 5.76 0 0 0-.48 0h-1.9c-.24.01-.53.04-.77.07-.24.03-.55.1-.7.33a.5.5 0 0 0-.05.22l-.01.12-.01.12v3.78c-.01.31.09.53.3.65.1.05.23.08.4.1l.2.02.22.02h4.8l.04-.02v-.01l.03-.04.01-.11v-7.7c0-.2-.12-.83-.34-.98l-.03-.02c-.07-.06-.15-.11-.24-.12H8.11c-.02 0-.03 0-.05.02a.07.07 0 0 0-.02.04l-.02.07a.52.52 0 0 0-.02.12V23h3.84c.09 0 .13.09.13.18.03.46.03.83 0 1.27ZM10.17 28h1.66l.06-.01a.17.17 0 0 0 .06-.05.21.21 0 0 0 .03-.07l.02-.07v-1.6c0-.05-.02-.1-.05-.14a.15.15 0 0 0-.11-.06h-1.67l-.06.01a.17.17 0 0 0-.06.05.21.21 0 0 0-.03.07l-.02.07v1.6c0 .05.02.1.05.14.03.04.07.06.12.06Zm27.78-3.46a9.51 9.51 0 0 0 .03-1.36c-.01-.1-.05-.18-.14-.18H34v-1.75l.02-.12.02-.07.02-.04a.07.07 0 0 1 .05-.02h5.28c.09 0 .17.06.24.12l.03.02c.22.15.34.78.34.99v7.69l-.01.11-.02.04-.01.01-.03.02h-4.8c-.06 0-.14 0-.23-.02l-.2-.02a1.06 1.06 0 0 1-.4-.1c-.21-.12-.31-.34-.3-.65v-3.9l.02-.12c0-.09.02-.16.06-.22.14-.23.45-.3.69-.33.24-.03.53-.06.77-.06h1.9a5.76 5.76 0 0 1 .48 0l.03-.04ZM37.83 28h-1.66a.15.15 0 0 1-.12-.06.23.23 0 0 1-.05-.14v-1.6c0-.02 0-.05.02-.07 0-.03.02-.05.03-.07a.17.17 0 0 1 .06-.05.14.14 0 0 1 .06-.01h1.67c.04 0 .08.02.11.06.03.04.05.1.05.15v1.59c0 .02 0 .05-.02.07 0 .03-.02.05-.03.07a.17.17 0 0 1-.06.05.14.14 0 0 1-.06.01Z" fill="#9E2A26"/><path fill-rule="evenodd" d="M50 31H6v6h44v-6Zm-35.96 4.25-.04-.03V32.1c0-.07-.05-.1-.13-.1h-.74l-.08.01a.08.08 0 0 0-.04.03.07.07 0 0 0 0 .05L13 35.35c0 .17.02.32.05.44.02.1.08.17.2.19l.27.02h2.26c.07-.01.1-.03.12-.06a.67.67 0 0 0 .07-.28l.03-.57v-2.96c0-.03-.02-.05-.04-.07l-.01-.02c-.02-.02-.03-.04-.05-.04h-.8a.1.1 0 0 0-.07.03.08.08 0 0 0-.03.06v2.98c-.02.2-.3.2-.45.2h-.02l-.28.01h-.14l-.05-.02-.02-.01ZM22 35.2v.02c0 .03 0 .04.04.04l1.6-.02.05.01a.1.1 0 0 1 .04.04c.03.06.05.13.06.22 0 .1 0 .21-.03.35-.02.13-.12.13-.23.13h-2.4l-.04-.02h-.01a.08.08 0 0 1-.04-.05v-.02a.29.29 0 0 1-.04-.11v-3.6c0-.04 0-.08.02-.13.01-.04.05-.07.1-.07h.67c.05 0 .09.03.12.04h.01l.03.04v.03a.6.6 0 0 1 .05.2v2.9Zm21 .02v-2.92a.59.59 0 0 0-.04-.2l-.01-.03a.06.06 0 0 0-.03-.03h-.01c-.03-.02-.07-.05-.12-.05h-.67c-.05 0-.09.03-.1.07a.48.48 0 0 0-.02.13v3.6c0 .04.02.08.03.1l.01.03c0 .02.02.03.04.04v.01l.05.02h2.4c.11 0 .21 0 .23-.13l.03-.35c0-.1-.03-.16-.06-.22a.1.1 0 0 0-.04-.04.12.12 0 0 0-.05-.01l-1.6.02c-.04 0-.04-.01-.04-.04Zm4-.02v.02c0 .03 0 .04.04.04l1.6-.02.05.01a.1.1 0 0 1 .04.04c.03.06.05.13.06.22 0 .1 0 .21-.03.35-.02.13-.12.13-.23.13h-2.4l-.04-.02h-.01a.08.08 0 0 1-.04-.05v-.02a.29.29 0 0 1-.04-.11v-3.6l.02-.13c.01-.04.05-.07.1-.07h.67c.05 0 .09.03.12.04h.01l.03.04v.03a.6.6 0 0 1 .05.2v2.9ZM18.1 32h.8c.05 0 .1.04.1.08v3.84c0 .04-.05.08-.1.08h-.8c-.05 0-.1-.04-.1-.08v-3.84c0-.04.05-.08.1-.08Zm13.84 3.24.04-.02.02-.03V32h.92l.05.03.03.06v3.1l.02.04.04.01h.82c.09 0 .12-.05.12-.12V32h.88c.1.02.12.12.12.2v2.76c0 .25-.03.47-.06.68a.81.81 0 0 1-.08.24c0 .02-.02.03-.04.03a.5.5 0 0 1-.16.04c-.46.03-.93.05-1.42.05a175.08 175.08 0 0 1-2.8-.03c-.33-.03-.44-.45-.44-.67v-3.23s0-.02.02-.03l.01-.02.03-.02h.86l.02.02.02.01c.04.01.04.05.04.09v2.84c0 .12 0 .25.18.27.28.03.58.04.76 0Zm6.06-.06.01.03.03.01h1.53c.1 0 .17.02.22.04l.04.01c.05.01.09.06.12.12.07.19.07.37 0 .55 0 .02-.02.03-.04.04l-.05.02H37.5a6.54 6.54 0 0 1-.38-.04.14.14 0 0 1-.05-.08 2.53 2.53 0 0 1-.07-.67v-3.14c0-.02.02-.04.03-.05a.09.09 0 0 1 .06-.02h2.33c.26 0 .58.1.58.41v1.46c0 .29-.15.58-.54.56H38.3c-.09 0-.17.01-.23.03a.1.1 0 0 0-.05.03.09.09 0 0 0-.02.06v.63Zm.89-2.3h-.78a.12.12 0 0 0-.1.12v.44c0 .07.05.12.1.12h.78c.06 0 .11-.06.11-.12v-.45a.12.12 0 0 0-.11-.11Zm-13.77 3.11h.96c.36.01.78.02 1.13 0l.6-.05c.1-.02.17-.09.16-.2 0-.05.02-.08.03-.09v-2.9c0-.2 0-.4-.12-.58-.07-.12-.36-.16-.48-.16a56.61 56.61 0 0 0-2.38.01l-.02.03v3.61c0 .11 0 .2.03.27 0 .02.02.04.03.05a.1.1 0 0 0 .06.01Zm.88-3.02v2.18c0 .02 0 .04.02.06l.06.02.84.02.03-.01a.08.08 0 0 0 .04-.05v-.03l.01-2.17c0-.03 0-.05-.02-.06a.08.08 0 0 0-.06-.03l-.84-.01h-.03a.08.08 0 0 0-.02.02.09.09 0 0 0-.03.06ZM10.97 34.5c0-.07-.01-.19-.05-.36a.73.73 0 0 1 0-.28l.04-.27.01-.16c.03-.33.06-.77-.02-1.14-.03-.15-.13-.23-.3-.25-.24-.02-.5-.03-.8-.03a262.06 262.06 0 0 1-1.82.01l-.02.02c0 .1-.01.2 0 .28L8 35.94l.03.03.02.01.04.02a190.14 190.14 0 0 1 2.5-.02c.2 0 .31-.1.35-.26.03-.16.05-.31.04-.47v-.76Zm-1.95-1.66L9 32.9v.69a.05.05 0 0 0 .02.03.06.06 0 0 0 .04.02l.58.01.14-.01a.39.39 0 0 0 .11-.05.25.25 0 0 0 .08-.08.22.22 0 0 0 .03-.1v-.34c0-.03 0-.07-.02-.1a.25.25 0 0 0-.07-.07.38.38 0 0 0-.11-.06.49.49 0 0 0-.14-.02l-.59-.01a.06.06 0 0 0-.04.02l-.01.01Zm.91 1.64a.07.07 0 0 1 .05.02l.02.02V35c0 .04-.03.11-.06.14a.13.13 0 0 1-.1.05l-.7-.02-.06-.01a.14.14 0 0 1-.04-.04.18.18 0 0 1-.03-.06A.2.2 0 0 1 9 35v-.51c0-.01 0-.02.02-.02l.02-.02h.02l.87.02Z" fill="#28166B"/></svg>