<!-- by TradingView --><svg width="56" height="56" viewBox="0 0 56 56" xmlns="http://www.w3.org/2000/svg"><path fill="#FE0101" d="M0 0h56v56H0z"/><path d="M14 19.75v-4.2c0-.1.05-.17.14-.21 3.63-1.48 7.8-3.17 12.51-5.06A3.05 3.05 0 0 1 29 10.2a668.71 668.71 0 0 1 11.94 4.84c.23.1.5.22.78.37.21.1.3.34.29.73v3.52c0 .04-.1.07-.1.1a.21.21 0 0 1-.26.09c-4.19-1.67-8.43-3.4-12.72-5.16-.66-.28-1.42-.24-2.28.12-5.61 2.32-9.76 4-12.46 5.06-.12.05-.18 0-.18-.12ZM18.83 21h-4.66c-.1 0-.17.07-.17.16l.03 14.68c0 .09.07.16.17.16h4.66c.09 0 .17-.08.17-.16L19 21.14c0-.08-.08-.15-.17-.15ZM41.75 21h-4.5c-.14 0-.25.1-.25.23v14.54c0 .13.11.23.25.23h4.5c.14 0 .25-.1.25-.23V21.23c0-.13-.11-.23-.25-.23Z" fill="#fff"/><path d="M31.65 25.12a.25.25 0 0 1-.1-.03 8.8 8.8 0 0 0-8.06-.6 5.9 5.9 0 0 0-1.87 1.32 5.22 5.22 0 0 0-1.62 3.9c0 .98.07 1.75.2 2.3a4.26 4.26 0 0 0 2.26 2.8c2.5 1.38 5.75 2.16 8.22.36.39-.27.7-.5.96-.66.77-.5 1.2-.38 1.94.14.45.32.83.66 1.13 1.01.17.2.25.17.25-.08.04-3.5.05-7.4.03-11.72 0-.92-.08-1.58-.23-1.96-.8-2.09-3.84-3.35-6-3.75a6.79 6.79 0 0 0-5.97 1.63.1.1 0 0 0 .03.13c.57.5 1.24.93 2 1.31.07.05.17.06.26.06l.64-.06c.83-.08 1.92-.19 2.72-.08a4.11 4.11 0 0 1 3.38 2.44c.2.43.23.89.08 1.38a.22.22 0 0 1-.05.09.25.25 0 0 1-.2.07Zm-.42 4.96c.02 1.83-1.75 3.34-3.94 3.35-2.18.01-3.97-1.46-3.98-3.3-.02-1.84 1.75-3.34 3.93-3.35 2.2-.02 3.98 1.46 4 3.3ZM41.79 37H14.1c-.06 0-.1.05-.1.1v4.8c0 .05.04.1.1.1h27.68c.05 0 .1-.05.1-.1v-4.8c0-.05-.05-.1-.1-.1Z" fill="#fff"/></svg>