<!-- by TradingView --><svg width="56" height="56" viewBox="0 0 56 56" xmlns="http://www.w3.org/2000/svg"><path fill="#F0F3FA" d="M0 0h56v56H0z"/><path d="M51.47 23.37a3.12 3.12 0 0 0-2.25-.49.42.42 0 0 0-.23-.35c-.07-.04-.13-.02-.17.04l-1.52 2.37c-.3.46-.67.57-1.13.32l-.03-.02c-.49-.31-.58-.7-.29-1.16.97-1.5 1.75-2.71 2.37-3.61.29-.42.6-.56.96-.41.19.07.4.28.62.6a35.2 35.2 0 0 1 1.67 2.7Z" fill="#0B9EBD"/><path d="M51.47 23.37c.5.47.64 1.03.44 1.68a.33.33 0 0 1-.15.18c-.47.29-.87.2-1.19-.29-.67-.99-1.12-1.67-1.35-2.06.81-.12 1.56.04 2.25.49Z" fill="url(#a)"/><path d="M9.21 26c.33 0 .59.22.77.65.8 1.8 1.58 3.65 2.37 5.5.14.33.05.58-.24.75h-.02c-.31.18-.54.11-.68-.2l-.58-1.29a.24.24 0 0 0-.06-.09.14.14 0 0 0-.1-.03 139.6 139.6 0 0 0-2.93 0 .14.14 0 0 0-.1.03.24.24 0 0 0-.06.09L7 32.69c-.15.32-.38.39-.69.21h-.01c-.3-.18-.38-.42-.24-.75.78-1.86 1.57-3.7 2.37-5.5.18-.43.44-.65.77-.65Zm-1.08 4.08a.09.09 0 0 0 .01.08l.03.02.04.01h2.02l.03-.03a.09.09 0 0 0 0-.08l-.98-2.43a.08.08 0 0 0-.03-.04.08.08 0 0 0-.1 0 .08.08 0 0 0-.02.04l-1 2.43ZM34.92 26c.31 0 .56.22.75.65a325.4 325.4 0 0 1 2.38 5.52c.14.33.06.57-.23.74h-.02c-.3.17-.52.1-.68-.2a7.55 7.55 0 0 1-.52-1.2.32.32 0 0 0-.1-.15.3.3 0 0 0-.18-.06 49.59 49.59 0 0 0-2.83 0 .3.3 0 0 0-.17.05.32.32 0 0 0-.1.16 7.4 7.4 0 0 1-.52 1.2c-.17.3-.4.36-.69.2L32 32.9c-.3-.17-.37-.41-.24-.74.8-1.9 1.6-3.73 2.4-5.52.19-.43.44-.64.76-.64Zm-1.1 4.08a.09.09 0 0 0 0 .08l.03.03h2.09l.03-.03a.09.09 0 0 0 0-.08l-1-2.4a.08.08 0 0 0-.03-.04.08.08 0 0 0-.09 0 .08.08 0 0 0-.03.04l-1 2.4ZM17.5 30.84v-4.26c0-.39.08-.57.45-.55h.02c.35.02.52.22.52.6v5.67c0 .37-.18.6-.51.69a.3.3 0 0 1-.23-.03 3.42 3.42 0 0 1-.66-.75c-1.02-1.34-1.94-2.78-2.78-4.05-.15-.23-.31-.2-.31.08v4.15c0 .29-.1.61-.42.59h-.02c-.36-.01-.56-.2-.56-.56v-5.83c.07-.85.95-.66 1.28-.19l2.98 4.4c.1.14.24.1.24.04ZM22.74 32c1.11.03 1.71-.79 1.76-1.77v-3.6c0-.4.04-.6.41-.62h.02c.38 0 .56.18.57.57v3.17c-.01.79-.1 1.37-.28 1.72A2.54 2.54 0 0 1 22.74 33c-1.1 0-1.98-.47-2.48-1.54a4.29 4.29 0 0 1-.26-1.7l.01-3.2c0-.38.2-.57.57-.56h.02c.37.02.4.19.4.58v3.65c.04.98.63 1.74 1.74 1.77ZM42 29.59l.02-.01c.56-1.03 1.15-2.09 1.79-3.17.19-.33.43-.46.73-.39.26.06.43.25.46.55v5.78c0 .15-.06.3-.14.41a.6.6 0 0 1-.35.24c-.36-.03-.5-.21-.51-.55v-3.54c.04-.64-.11-.68-.4-.14-.31.58-.7 1.26-1.18 2.04-.1.19-.25.28-.42.28-.17 0-.31-.1-.43-.28-.47-.78-.86-1.46-1.17-2.04-.29-.55-.44-.5-.4.13v3.55c-.01.33-.15.52-.51.54h-.02a.6.6 0 0 1-.33-.23.72.72 0 0 1-.14-.42v-5.78c.03-.3.2-.48.46-.54.3-.07.55.06.73.38A101.59 101.59 0 0 1 42 29.6ZM28 30.8v1.58c0 .31-.08.5-.36.59a.58.58 0 0 1-.15.03c-.38-.05-.49-.26-.49-.64v-5.6c0-.5.2-.74.62-.73 1.53.02 3.24-.36 4.1 1.14.25.43.33.94.25 1.53-.18 1.2-.92 1.86-2.23 1.96h-1.62c-.08 0-.12.05-.12.14Zm0-3.62v2.34c0 .05.01.1.05.13.03.04.07.06.12.06h1.48c.89 0 1.34-.72 1.35-1.3v-.07c0-.32-.14-.76-.4-.99-.25-.22-.6-.35-.95-.35h-1.54a.18.18 0 0 0-.06.05.2.2 0 0 0-.05.13Z" fill="#0B9EBD"/><defs><linearGradient id="a" x1="49.86" y1="22.84" x2="49.79" y2="24.12" gradientUnits="userSpaceOnUse"><stop stop-color="#E9E43B"/><stop offset="1" stop-color="#32A3BF"/></linearGradient></defs></svg>