<!-- by TradingView --><svg width="56" height="56" viewBox="0 0 56 56" xmlns="http://www.w3.org/2000/svg"><path fill="#FFED00" d="M0 0h56v56H0z"/><path fill-rule="evenodd" d="M48 39V17H8v22h40Zm-1.02-1.02a.06.06 0 0 0 .02-.04V18.06c0-.02 0-.03-.02-.04a.06.06 0 0 0-.04-.02H9.06c-.02 0-.03 0-.04.02a.06.06 0 0 0-.02.04v19.88c0 .02 0 .03.02.04l.04.02h37.88c.02 0 .03 0 .04-.02Z" fill="#E31E24"/><path d="M43.9 20H12.1c-.06 0-.1.05-.1.1v.8c0 .05.04.1.1.1h31.8c.06 0 .1-.05.1-.1v-.8c0-.05-.04-.1-.1-.1Z" fill="#E31E24"/><path fill-rule="evenodd" d="M18.66 31h-1.22c-.03 0-.04-.04-.03-.07l.41-.93h3.43c.17 0 .28 0 .32.17l.22.62c.04.15-.01.21-.16.21h-.4c-.16 0-.23.05-.23.2v1.5c0 .16.08.3.24.3h5.87c.23 0 .35-.15.32-.38v-1.34c.02-.25-.09-.32-.33-.28H26c-.07 0-.13-.06-.15-.13l-2.32-5.75v-.05a.09.09 0 0 1 .04-.06.1.1 0 0 1 .04-.01h2.67a.1.1 0 0 1 .05.01.1.1 0 0 1 .04.04l3.34 7.34c.02.04.02.08 0 .12l-.13.39c-.02.06 0 .1.07.1h3.26c.08 0 .1-.04.07-.12l-.14-.32a.21.21 0 0 1 0-.17l3.47-7.27a.2.2 0 0 1 .18-.12h1.97c.08 0 .12.05.12.13v5.63c0 .07-.21.24-.28.24h-1.07c-.16 0-.24.08-.24.23v1.53c0 .16.09.24.25.24h6.45c.2 0 .3-.1.3-.3v-1.43c0-.22-.12-.3-.34-.27h-1.08c-.06 0-.1-.04-.1-.1v-5.77c0-.06.04-.13.1-.13h1.35c.05 0 .07-.01.07-.05v-1.9c0-.03-.02-.05-.05-.05H32.21c-.14 0-.21.07-.21.2v1.61c0 .13.06.19.19.19h.64c.08 0 .1.04.07.11l-1.55 3.08a.05.05 0 0 1-.07.02l-.02-.02-1.51-3.1-.01-.04c0-.05.03-.05.07-.05h.97c.14 0 .22-.07.22-.21v-1.55c0-.16-.08-.24-.24-.24H14.28c-.17 0-.28.08-.28.25v1.5c0 .16.1.25.26.25h1.92a.06.06 0 0 1 .04.04v.03l-2.63 5.83c-.02.06-.06.1-.13.1h-1.4c-.04 0-.06 0-.06.04v1.91c0 .03.02.05.05.05h6.64c.2 0 .31-.1.31-.3v-1.44c0-.22-.1-.26-.34-.26Zm.85-5.28-1.03 2.62a.07.07 0 0 0 .07.1l2.07-.01a.07.07 0 0 0 .06-.03.07.07 0 0 0 0-.07l-1.04-2.6a.07.07 0 0 0-.13 0Z" fill="#E31E24"/><path d="M43.92 35H12.08c-.04 0-.08.04-.08.09v.82c0 .05.04.09.08.09h31.84c.04 0 .08-.04.08-.09v-.82c0-.05-.04-.09-.08-.09Z" fill="#E31E24"/></svg>