<!-- by TradingView --><svg width="56" height="56" viewBox="0 0 56 56" xmlns="http://www.w3.org/2000/svg"><path fill="#F0F3FA" d="M0 0h56v56H0z"/><path d="M29.9 18h-2.8c-.05 0-.1.05-.1.12v18.76c0 .07.05.12.1.12h2.8c.05 0 .1-.05.1-.12V18.12c0-.07-.05-.12-.1-.12Z" fill="#0077BE"/><path fill-rule="evenodd" d="M12.94 34.06c.03.03.06.07.06.12v2.67c0 .04 0 .08.03.1.02.03.05.05.09.05h2.75c.09 0 .13-.05.13-.14V19.69c0-.47 0-1.09-.34-1.37-.23-.2-.45-.31-.68-.32H9.54c-1.12.01-1.54.42-1.54 1.72v17.15c0 .09.07.13.14.13h2.75c.07 0 .1-.04.1-.12v-2.7c0-.05.02-.1.05-.12.03-.03.07-.06.1-.06h1.7c.04 0 .07.03.1.06Zm.06-11.5c0-1-.37-1.5-1.02-1.5-.66 0-.99.5-.98 1.5v6.07c0 .02 0 .05.03.07a9.42 9.42 0 0 0 1.95 0 .1.1 0 0 0 .02-.08v-6.06Z" fill="#0077BE"/><path d="M21.09 22.38a.1.1 0 0 1-.03-.04l-.13-.25a.16.16 0 0 0-.16-.09h-2.59c-.05 0-.1.02-.13.06a.2.2 0 0 0-.05.14v17.67c0 .03.01.07.04.1.02.02.05.03.08.03h2.83c.06 0 .05-.03.05-.06v-3.26l.04-.1.03-.02a.07.07 0 0 1 .08.02c.22.24.47.4.8.42h1.9c.77-.02 1.15-.41 1.15-1.16V23.2c-.03-.75-.39-1.17-1.08-1.2h-2.19c-.2.02-.38.16-.5.35a.1.1 0 0 1-.05.03.1.1 0 0 1-.09 0Zm.36 2.62h.1c.25 0 .45.23.45.5v8c0 .27-.2.5-.45.5h-.1c-.25 0-.45-.23-.45-.5v-8c0-.27.2-.5.45-.5ZM44.13 22.4c-.07.08-.13.07-.13-.04v-4.24l-.01-.07a.13.13 0 0 0-.1-.05h-2.8a.09.09 0 0 0-.06.03.1.1 0 0 0-.03.07v18.74c0 .04.02.08.04.1.02.03.06.06.09.06h2.66c.08 0 .14-.05.18-.13l.07-.1c.04-.09.1-.1.2-.03.07.07.16.12.24.17a.6.6 0 0 0 .26.09h2.1c.76 0 1.16-.43 1.16-1.27V23.22c0-.8-.32-1.16-.96-1.22h-2.08c-.28 0-.56.08-.83.4Zm.3 2.6h.12c.25 0 .45.22.45.5v8c0 .28-.2.5-.45.5h-.11c-.25 0-.45-.22-.45-.5v-8c0-.28.2-.5.45-.5Z" fill="#0077BE"/><path fill-rule="evenodd" d="M35.77 36.43c.15-.29.24-.26.27.06l.04.35c.01.1.06.16.14.16h2.66c.08 0 .12-.06.12-.15V23.77c0-1.06-.22-1.76-1.28-1.77H33.7c-.47 0-.82.06-1.04.16-.4.2-.64.57-.66 1.11v3.57c0 .05.02.09.05.12.03.03.07.04.1.04h2.72c.04 0 .07-.01.1-.04.02-.03.03-.07.03-.1v-1.37c0-.32.15-.49.43-.49h.14c.31 0 .43.18.43.53v1.9c0 .42-.48.75-.8.94l-2.1 1.28c-.71.37-1.1.95-1.1 1.71v4.2c0 .75.36 1.3.98 1.44h2.1c.38-.01.51-.24.69-.57ZM36 33.2v-1.48c0-.3-.1-.37-.33-.22l-.26.18c-.1.07-.2.17-.26.28-.07.12-.1.26-.12.4-.05.4-.04.81.03 1.22.02.1.06.2.13.26.06.07.14.1.22.12.46.05.59-.27.59-.76Z" fill="#0077BE"/></svg>