<!-- by TradingView --><svg width="56" height="56" viewBox="0 0 56 56" xmlns="http://www.w3.org/2000/svg"><path fill="#F0F3FA" d="M0 0h56v56H0z"/><path d="M30.33 18.2v-6.34c0-.19 0-.35-.14-.5a.78.78 0 0 0-.49-.24c-4.38-.5-8.3.54-11.75 3.13a16.6 16.6 0 0 0-6.27 9.07 17.3 17.3 0 0 0-.43 7.7 16.57 16.57 0 0 0 2.96 6.96c2.89 3.98 6.87 6.28 11.96 6.92 3.05.38 6.56-.35 9.38-1.7a.48.48 0 0 0 .17-.16.44.44 0 0 0-.09-.61L17.37 27.85c-.22-.17-.37-.4-.45-.66-.12-.4-.41-.56-.88-.49a.36.36 0 0 0-.18.08.32.32 0 0 0-.1.35c.02.06.05.12.1.16l3.77 3.03c.32.25.37.52.37.9v10.1c0 .31.14.4.43.23l2.51-1.6c.46-.25.69-.62.69-1.13v-4.93c0-.03 0-.07.02-.1a.17.17 0 0 1 .08-.06.18.18 0 0 1 .19.03l10.9 8.71c.05.04.09.08.11.14a.33.33 0 0 1-.04.32.35.35 0 0 1-.14.1 16.36 16.36 0 0 1-9.36 1.23 15.86 15.86 0 0 1-9.7-5.34 15.7 15.7 0 0 1-4.04-8.53c-.8-6.44 1.43-11.68 6.7-15.72a19.35 19.35 0 0 1 10.51-3.16c.12 0 .25.01.36.06.47.18.49.5.48.94l.03 5.49H16.35c-.47 0-.52.22-.17.5l3.68 2.86a.3.3 0 0 1 .09.1l.01.04c.02.03.04.06.04.1v4.8c0 .22-.14.33-.37.33h-2.12c-.06 0-.1.02-.1.08v.24l.04.02a265 265 0 0 0 8.81 0 4.4 4.4 0 0 0 3.57-1.92c.42-.58.58-1.55.5-2.76v-4.18ZM34.4 13l.2-.28a.49.49 0 0 1 .6-.13c4.73 2.37 8.09 6.34 9.27 11.34 1.4 5.93-.06 11.3-4.4 16.07a.85.85 0 0 1-1.15.1L26.9 30.46a.49.49 0 0 1-.17-.25.47.47 0 0 1 .01-.3.5.5 0 0 1 .2-.23c.08-.06.19-.09.3-.08h.28c.1 0 .2.04.26.11.07.07.11.16.11.25v.23c0 .2.08.38.25.5l10.96 8.76a.6.6 0 0 0 .43.13.6.6 0 0 0 .4-.2c3.19-3.63 4.9-8.16 4.42-12.9-.57-5.64-3.52-10.04-8.84-13.17-.16-.09-.3-.08-.44.04l-.16.14c.1 3.32.1 6.66 0 10-.05 2.3-.39 3.79-1 4.48-1.25 1.4-3.1 2.04-5.56 1.91-.11 0-.17-.06-.17-.17v-.18a.1.1 0 0 1 .03-.07 2.93 2.93 0 0 0 5.88-3.8c.16-4.23.27-8.45.33-12.68Zm-4.45 10.09c-.9 2.97-3.43 3.9-6.26 3.52a.21.21 0 0 1-.13-.07.2.2 0 0 1-.05-.14v-4.2c0-.05.02-.1.06-.14a.2.2 0 0 1 .14-.06h5.46a.8.8 0 0 1 .66.34.85.85 0 0 1 .12.75Z" fill="#DA251E"/></svg>