<!-- by TradingView --><svg width="56" height="56" viewBox="0 0 56 56" xmlns="http://www.w3.org/2000/svg"><path fill="#F0F3FA" d="M0 0h56v56H0z"/><path fill-rule="evenodd" d="M16 12.9c0-1.6 1.26-2.9 2.8-2.9h18.4c1.54 0 2.8 1.3 2.8 2.9v30.2c0 1.6-1.26 2.9-2.8 2.9H18.8c-1.54 0-2.8-1.3-2.8-2.9V12.9Zm.47.01c0-1.6 1.26-2.43 2.8-2.43h17.45c1.55 0 2.81.83 2.81 2.43V42.9c0 1.6-1.26 2.4-2.8 2.4H19.27c-1.55 0-2.81-.8-2.81-2.4V12.91ZM27 17v-.46h-.83l1.83-2.5 1.77 2.5H29V17h5.58c.23 0 .42.2.42.43v1.64c0 .24-.19.43-.42.43H21.42a.42.42 0 0 1-.42-.43v-1.64c0-.24.19-.43.42-.43H27Zm-5.58 3c-.23 0-.42.2-.42.43v1.64c0 .24.19.43.42.43h3.03L21 25.75v6.18l7.03-5.73L35 31.93v-6.32l-3.5-3.11h3.08c.23 0 .42-.2.42-.43v-1.64a.42.42 0 0 0-.42-.43H21.42ZM21 34.54V32.8l6.92-5.8L35 32.8v1.74l-7.08-5.63L21 34.54ZM26.04 31l1.83 2.64v5.97L24.2 34.4l-3.4 2.11c-.2-.24-.66-.73-.93-.73-.13 0-.25.14-.4.32-.23.3-.55.68-1.15.68-.76 0-.98-.67-1-1 .08-.4.46-1.18 1.39-1.18.92 0 1.63.48 1.87.72l5.47-4.32Zm2.14 2.64L30 31l5.47 4.32c.24-.24.94-.72 1.87-.72.93 0 1.3.79 1.38 1.18-.01.33-.23 1-1 1-.6 0-.91-.39-1.15-.68-.14-.18-.26-.32-.39-.32-.28 0-.74.49-.94.73l-3.4-2.11-3.67 5.21v-5.97Zm-3.36 4.97.22-.46c-2.06-1.87-5.27-1.19-5.27.16 0 1.09.92 1.37 1.38 1.38.66 0 .79-.5.9-1 .12-.44.23-.88.75-.88.87 0 1.7.53 2.02.8Zm2.1 2.16.22-.46c-2.06-1.87-5.27-1.19-5.27.17 0 1.08.92 1.36 1.38 1.37.66 0 .79-.5.9-1 .12-.44.23-.87.75-.87.87 0 1.7.52 2.02.79Zm4.75-2.62.23.46c.3-.27 1.14-.8 2.01-.8.52 0 .63.44.75.89.12.48.25.99.9.99.46 0 1.38-.3 1.38-1.38 0-1.35-3.21-2.03-5.27-.16Zm-2.1 2.16.23.46c.3-.27 1.14-.8 2.01-.8.52 0 .63.44.75.89.12.49.25 1 .9 1 .46-.02 1.38-.3 1.38-1.38 0-1.36-3.21-2.04-5.27-.17Z" fill="#34302F"/></svg>