<!-- by TradingView --><svg width="56" height="56" viewBox="0 0 56 56" xmlns="http://www.w3.org/2000/svg"><path fill="#F0F3FA" d="M0 0h56v56H0z"/><circle cx="28" cy="12" r="2" fill="url(#ahsrvfbbd)"/><circle cx="21" cy="27" r="2" fill="url(#bhsrvfbbd)"/><circle cx="34" cy="25" r="2" fill="url(#chsrvfbbd)"/><circle cx="42" cy="37" r="2" fill="url(#dhsrvfbbd)"/><circle cx="28" cy="35" r="2" fill="url(#ehsrvfbbd)"/><circle cx="14" cy="37" r="2" fill="url(#fhsrvfbbd)"/><path fill-rule="evenodd" d="M27.5 11 42 20v17.11L27.5 46 13 37.1V20l14.5-9Zm-1.17 1.93L14.3 20.37l6.07 5.5 5.97-12.94ZM21.48 27.1l5.95 6.87 5.1-8.58-11.05 1.71Zm12.74-2.2L41 21.04v14.12L34.22 24.9Zm6.24 11.28-6.94-10.51-5.2 8.76 12.14 1.75Zm-13.94-1.73-5.97-6.89-5.97 8.61 11.94-1.72ZM14 35.16l5.86-8.37L14 21.47v13.69Zm.96 1.97L27 44.51V35.4l-12.04 1.74ZM28 35.39v9.12l12.05-7.38L28 35.39Zm12.51-15.23L33.73 24l-5.09-11.13 11.87 7.28Zm-13-7.37 5.26 11.53-11.42 1.77 6.15-13.3Z" fill="url(#ghsrvfbbd)"/><defs><linearGradient id="ahsrvfbbd" x1="27.5" y1="11" x2="29" y2="13.5" gradientUnits="userSpaceOnUse"><stop stop-color="#A9D0EF"/><stop offset="1" stop-color="#09689E"/></linearGradient><linearGradient id="bhsrvfbbd" x1="20.5" y1="26" x2="22" y2="28.5" gradientUnits="userSpaceOnUse"><stop stop-color="#A9D0EF"/><stop offset="1" stop-color="#09689E"/></linearGradient><linearGradient id="chsrvfbbd" x1="33.5" y1="24" x2="35" y2="26.5" gradientUnits="userSpaceOnUse"><stop stop-color="#A9D0EF"/><stop offset="1" stop-color="#09689E"/></linearGradient><linearGradient id="dhsrvfbbd" x1="41.5" y1="36" x2="43" y2="38.5" gradientUnits="userSpaceOnUse"><stop stop-color="#A9D0EF"/><stop offset="1" stop-color="#09689E"/></linearGradient><linearGradient id="ehsrvfbbd" x1="27.5" y1="34" x2="29" y2="36.5" gradientUnits="userSpaceOnUse"><stop stop-color="#A9D0EF"/><stop offset="1" stop-color="#09689E"/></linearGradient><linearGradient id="fhsrvfbbd" x1="13.5" y1="36" x2="15" y2="38.5" gradientUnits="userSpaceOnUse"><stop stop-color="#A9D0EF"/><stop offset="1" stop-color="#09689E"/></linearGradient><linearGradient id="ghsrvfbbd" x1="14.51" y1="20.68" x2="41.06" y2="30.6" gradientUnits="userSpaceOnUse"><stop stop-color="#C8DCF1"/><stop offset=".5" stop-color="#35A1CF"/><stop offset="1" stop-color="#065994"/></linearGradient></defs></svg>