<!-- by TradingView --><svg width="56" height="56" viewBox="0 0 56 56" xmlns="http://www.w3.org/2000/svg"><path fill="#F0F3FA" d="M0 0h56v56H0z"/><path d="M31 23h1.8l3.2 7.77L39.2 23H41v10h-1.5v-7l-2.91 6.99H35.4l-2.91-7V33H31V23ZM30 28c0 2.41-1.28 5-4 5-2.72 0-4-2.59-4-5s1.28-5 4-5c2.72 0 4 2.6 4 5Zm-1.5 0c0-1.65-.55-3.5-2.5-3.5s-2.5 1.85-2.5 3.5.55 3.5 2.5 3.5 2.5-1.85 2.5-3.5ZM15 33V23h3.04C19.9 23 21 24.33 21 26.13c0 1.81-1.12 3.37-2.96 3.37h-2.3V28h2.18c1.12 0 1.61-.75 1.61-1.87s-.48-1.63-1.62-1.63H16.5V33H15Zm4.22-4.51A13.4 13.4 0 0 1 21 33h-1.76a14.78 14.78 0 0 0-1.74-4.51h1.72ZM7.67 33H6l3.22-10h1.56L14 33h-1.5L10 25.5 7.67 33Zm0-4h4.65v1.5H7.67V29ZM43.67 33H42l3.22-10h1.56L50 33h-1.5L46 25.5 43.67 33Zm0-4h4.65v1.5h-4.65V29Z" fill="#225C91"/></svg>