<!-- by TradingView --><svg width="56" height="56" viewBox="0 0 56 56" xmlns="http://www.w3.org/2000/svg"><path fill="#F0F3FA" d="M0 0h56v56H0z"/><path d="m40.59 18.73-6.34 5.76-1.6-.91c-1-.78-2.13-.96-3.38-.53a5.28 5.28 0 0 0-3.66 4.12 5.12 5.12 0 0 0 .55 3.64c.08.14.06.27-.06.38l-1.3 1.15c-.17.15-.28.11-.34-.11-.14-.55-.26-1.07-.36-1.56-.37-1.8-.28-3.6.27-5.37.28-.9.75-1.95 1.4-3.15.2-.37.47-.74.82-1.1l.97-1c.33-.33.64-.58.93-.73.36-.19.7-.39 1.05-.6a8.25 8.25 0 0 1 2.34-.97c2.37-.6 4.63-.47 6.77.38.4.16.71.27.96.34l.98.26ZM38.81 25.8l-1.25 2.38c0 .02-.02.03-.03.03a.08.08 0 0 1-.09 0 8.6 8.6 0 0 0-1.7-2.57c-.24-.19-.13-.45.31-.78.28-.2.49-.37.61-.5 1.65-1.63 3.3-3.22 4.95-4.75.4-.38.59-.29.55.27 0 .06-.08.23-.23.5a451.9 451.9 0 0 1-3.12 5.42Z" fill="#E6E6E9"/><path d="m45.25 32.87-2.5-.37-.04-.73a.15.15 0 0 0-.08-.11.14.14 0 0 0-.13 0l-.6.35a.13.13 0 0 1-.14 0 .13.13 0 0 1-.05-.15c.5-2.05 1-3.98 1.52-5.79.1-.36.2-.74.28-1.15.12-.57.22-.96.3-1.15l.09-.58c.02-.17.1-.32.25-.44.06-.06.12-.06.17.02.4.6.72 1.2.92 1.8.92 2.76 1.1 5.57.01 8.3Z" fill="#B9BCC1"/><path d="m34.25 24.5 6.34-5.77 4.05-3.62a.44.44 0 0 1 .56-.02c.4.3.3.65.18 1.12l-.04.15c-1.01 3.87-2 7.73-2.98 11.58l-1.3 4.88a.1.1 0 0 0 .03.11.1.1 0 0 0 .12 0l.58-.52a.37.37 0 0 1 .57.1.4.4 0 0 1 .05.23l-.07.83a.39.39 0 0 1-.2.32l-1.51.9a.25.25 0 0 0-.12.15l-.54 2.22a.24.24 0 0 1-.1.14.24.24 0 0 1-.15.05l-6.46-.58c-.2-.02-.27-.13-.19-.32.07-.17.19-.34.35-.49.11-.1.1-.17-.06-.19a7.59 7.59 0 0 1-5.65-3.4c-.03-.05-.07-.05-.1-.02a25.38 25.38 0 0 1-5.4 3.9 17.8 17.8 0 0 1-5.72 2 9.69 9.69 0 0 1-5.62-.8 6.51 6.51 0 0 1-2.1-1.43c-1.56-1.6-2.23-3.25-1.43-5.44a4.56 4.56 0 0 1 2.24-2.47 8.66 8.66 0 0 1 6.05-.89c1.49.31 2.2 1.24 2.15 2.8-.02.49-.24.98-.67 1.46-.74.82-2.13.86-2.98.28-.94-.64-1.27-1.61-.98-2.91.02-.1-.01-.12-.1-.09-1.98.88-2.77 2.36-2.38 4.44.24 1.25 1.14 2.15 2.34 2.66 2.98 1.26 5.98.48 8.72-1.17a40.94 40.94 0 0 0 5.05-3.58c.07-.06.08-.12.04-.19-.72-1.28-1.09-3.07-.51-4.48 1.13-2.77 3.24-3.72 6.34-2.86l1.6.91Zm4.56 1.3c1.05-1.8 2.09-3.6 3.12-5.42.15-.27.22-.44.23-.5.04-.56-.14-.65-.55-.27-1.65 1.53-3.3 3.12-4.95 4.75-.12.13-.33.3-.6.5-.45.33-.56.59-.32.78a8.6 8.6 0 0 1 1.7 2.57.08.08 0 0 0 .12-.03l1.25-2.38Z" fill="url(#a)"/><path d="M28.84 29.28c-.2-.39-.26-.79-.18-1.2.3-1.53 1.16-2.4 2.57-2.61a3.5 3.5 0 0 1 1.46.1l.08.05c.03.03.04.06.05.09a.19.19 0 0 1-.06.18l-3.86 3.4-.01.01h-.02a.04.04 0 0 1-.03-.02Z" fill="#E6E6E9"/><path d="m29.47 30.7 4.63-4.1a.24.24 0 0 1 .29-.02 4.53 4.53 0 0 1 2.06 3.24c.03.15 0 .31-.07.45l-1.8 3.46a.5.5 0 0 1-.53.27 6.42 6.42 0 0 1-4.62-3.03.21.21 0 0 1 .04-.27Z" fill="#fff"/><path d="M36.11 29.62c.06.22.07.37.02.45a39.47 39.47 0 0 1-1.98 3.44.25.25 0 0 1-.1.1.24.24 0 0 1-.15 0 6.5 6.5 0 0 1-3.96-2.46.33.33 0 0 1 .04-.45l4.1-3.62a.22.22 0 0 1 .27-.02c.9.62 1.48 1.47 1.76 2.56Z" fill="#A8AAAE"/><path d="M45.25 32.87c-.3.9-.74 1.72-1.3 2.47C41.79 38.31 39 39.86 35.6 40c-1.62.06-3.17-.21-4.64-.82a11.22 11.22 0 0 1-5.1-4.29c-.14-.2-.11-.39.07-.55l1.43-1.26c.04-.04.1-.07.16-.06.07 0 .12.03.16.07.43.46.8.81 1.1 1.07a7.62 7.62 0 0 0 4 1.9l.01.02a.07.07 0 0 1 0 .07l-.41.79a.12.12 0 0 0 .04.16l.05.02 7.37.66c.1 0 .21-.02.3-.08a.45.45 0 0 0 .17-.26l.52-2.14a.48.48 0 0 1 .22-.3l1.46-.87a.5.5 0 0 0 .25-.44V32.5l2.5.37Z" fill="#85868B"/><defs><linearGradient id="a" x1="42.89" y1="15" x2="34.52" y2="31.13" gradientUnits="userSpaceOnUse"><stop stop-color="#CCDDF8"/><stop offset="1" stop-color="#214FA5"/></linearGradient></defs></svg>