<!-- by TradingView --><svg width="56" height="56" viewBox="0 0 56 56" xmlns="http://www.w3.org/2000/svg"><path fill="#F0F3FA" d="M0 0h56v56H0z"/><path d="M21.99 24.76c.22 0 .4-.17.4-.38 0-.2-.18-.38-.4-.38-.23 0-.41.17-.41.38s.18.38.4.38Z" fill="#3F3C8D"/><path fill-rule="evenodd" d="M6.9 23a.07.07 0 0 0-.03 0l-.02.02L4 28.97a.02.02 0 0 0 .01.03h.95c.02 0 .03 0 .04-.02l.69-1.45.02-.02.03-.01H8.05l.02.03.7 1.45c0 .01.01.02.03.02h.94a.02.02 0 0 0 .02 0v-.02l-2.85-5.96c0-.01 0-.02-.02-.02Zm.76 3.52c-.18-.45-.69-1.73-.77-1.73-.08 0-.58 1.28-.76 1.74l-.06.15a.03.03 0 0 0 .01.04h.02a105.25 105.25 0 0 1 1.62-.01.03.03 0 0 0 0-.03l-.06-.16ZM30.41 27.5H32.68a.07.07 0 0 1 .06.04l.69 1.45.02.01h.96a.02.02 0 0 0 .01 0 .01.01 0 0 0 0-.02l-2.84-5.96-.02-.02h-.03l-.02.02-2.85 5.96a.01.01 0 0 0 0 .01h1l.7-1.45c0-.01 0-.02.02-.03l.03-.01Zm1.93-.93c-.16-.4-.71-1.8-.78-1.8-.07 0-.63 1.4-.79 1.8l-.04.1a.04.04 0 0 0 0 .04l.02.02h.02a43.6 43.6 0 0 1 1.6 0 .04.04 0 0 0 .02-.04v-.02l-.05-.1Z" fill="#3F3C8D"/><path d="m10.01 28.97-.01-1.5c0-.5.04-.88.14-1.12.17-.42.42-.73.75-.93.44-.28.96-.42 1.55-.42.01 0 .02 0 .02.02v.76c0 .01 0 .02-.03.02-.65-.04-1.28.22-1.54.85-.05.13-.08.36-.07.7v1.62c0 .02-.01.03-.03.03h-.77v-.03ZM14.8 28.22c.93 0 1.2-.92 1.2-1.66v-1.52c0-.03.02-.04.05-.04h.74c.03 0 .05.02.05.05v1.2c.02 1.16-.25 2.24-1.47 2.68a1.8 1.8 0 0 1-.57.07 1.8 1.8 0 0 1-.58-.07c-1.22-.43-1.5-1.52-1.48-2.68v-1.2c0-.03.02-.04.05-.04h.72c.02 0 .04 0 .04.04v1.51c.01.74.3 1.66 1.24 1.66ZM19 25c.98 0 1.63.53 1.92 1.46.06.18.08.5.07.99a208.46 208.46 0 0 0 0 1.54l-.03.01h-.72c-.03 0-.04-.01-.04-.04v-1.98c0-.6-.29-.98-.85-1.15a1.38 1.38 0 0 0-.35-.03c-.17 0-.3 0-.35.02-.56.18-.84.56-.85 1.15l-.01 1.99c0 .02-.01.03-.04.03h-.73a.03.03 0 0 1-.02-.03v-1.52c0-.49.02-.81.08-.99.3-.93.94-1.45 1.92-1.45ZM22.36 25h-.75a.03.03 0 0 0-.03.03v3.94c0 .02.02.03.03.03h.75c.01 0 .03-.01.03-.03v-3.94a.03.03 0 0 0-.03-.03ZM25.64 27.84v-.03c-.02-.26-.15-.4-.41-.4-.39-.02-.76-.02-1.1-.01-.3 0-.54-.03-.72-.12a1.1 1.1 0 0 1-.65-.98c-.02-.5.24-1.02.73-1.19.21-.07.47-.11.75-.11h2.18c.04 0 .05.02.05.05v.71c0 .03-.01.04-.04.04h-2.44c-.26 0-.4.13-.42.4v.01c0 .26.12.4.38.4l1.21.02c.89 0 1.4.63 1.26 1.45-.07.4-.38.72-.76.85-.12.05-.28.07-.5.07a368.4 368.4 0 0 1-2.38-.02v-.74c0-.01 0-.02.02-.02h2.4c.27 0 .41-.13.44-.38ZM35.3 28.91v-.24c0-.05.03-.06.07-.03.73.44 1.45.48 2.14.12 1.31-.68 1.44-2.4.38-3.27a2.06 2.06 0 0 0-2.54-.11.04.04 0 0 1-.04-.04v-2.32l-.02-.02h-.78v5.89c0 .07.03.1.1.1h.61c.06 0 .09-.02.09-.08Zm2.5-1.9c0 .66-.56 1.2-1.25 1.2-.68 0-1.24-.54-1.24-1.2 0-.67.56-1.21 1.24-1.21.69 0 1.24.54 1.24 1.2Z" fill="#3F3C8D"/><path d="M42.9 27.77a1.96 1.96 0 0 0-.44-2.18 2.07 2.07 0 0 0-2.9 0 1.98 1.98 0 0 0 0 2.82 2.07 2.07 0 0 0 3.35-.64Zm-.64-.77c0 .67-.56 1.21-1.24 1.21-.69 0-1.24-.54-1.24-1.2 0-.68.55-1.22 1.24-1.22.68 0 1.24.54 1.24 1.21ZM46.73 23.49a44.79 44.79 0 0 0-.03 1.92h-.03a2.08 2.08 0 0 0-2.64.21c-1.26 1.22-.4 3.34 1.4 3.38a2.19 2.19 0 0 0 1.25-.36.04.04 0 0 1 .03.02V28.95c0 .03.02.04.05.04h.72c.03 0 .05-.01.05-.05v-5.2c0-.02 0-.04.02-.05a.06.06 0 0 1 .04-.01h.76l.02-.01v-.64c0-.02 0-.03-.03-.03h-.93c-.2 0-.35.02-.44.07a.48.48 0 0 0-.24.42Zm-.01 3.53c0 .66-.56 1.2-1.24 1.2-.68 0-1.24-.54-1.24-1.2 0-.66.56-1.2 1.24-1.2.68 0 1.24.54 1.24 1.2Z" fill="#3F3C8D"/><path fill-rule="evenodd" d="M52 27.09v-.2a2.02 2.02 0 0 0-1.01-1.6c-1.37-.82-3.15.2-3.1 1.77.02.37.12.7.3.99.52.77 1.26 1.08 2.24.9.3-.05.6-.22.94-.5v-.04l-.54-.52c-.01-.02-.02-.02-.04 0-.38.32-.79.4-1.23.26a1.2 1.2 0 0 1-.77-.72.04.04 0 0 1 .02-.03h3.08c.04 0 .05-.02.06-.05l.05-.26Zm-1.64-1.23c-.1-.04-.25-.06-.42-.06-.17 0-.3.02-.41.06a1.3 1.3 0 0 0-.75.72l.01.01.01.01h.02a260.06 260.06 0 0 0 2.27 0v-.03a1.3 1.3 0 0 0-.73-.71Z" fill="#3F3C8D"/><path d="M20.13 32.1h.01v-.02l.99-2.03c.03-.07.05-.07.07 0l.68 2.82c0 .04 0 .06-.05.06h-.33c-.04 0-.06-.02-.07-.05l-.36-1.65c0-.03-.02-.03-.03 0a384 384 0 0 1-.9 1.77c-.02 0-.04 0-.05-.03-.47-.94-.76-1.51-.86-1.74-.02-.02-.03-.02-.04 0l-.36 1.65c0 .03-.03.05-.06.05h-.33c-.05 0-.06-.02-.05-.06l.67-2.82c.02-.06.04-.07.07 0l.99 2.03v.01h.01ZM6.58 32.6l-.01.37-.01.02-.02.01H5L5 32.96v-2.94a.03.03 0 0 1 .03-.03h.41a.03.03 0 0 1 .03.04v2.5a.03.03 0 0 0 .04.03h1.05a.03.03 0 0 1 .02.03ZM12.44 30h-.41a.03.03 0 0 0-.03.03v2.94c0 .02.01.03.03.03h.41c.02 0 .03-.01.03-.03v-2.94a.03.03 0 0 0-.03-.03ZM27.96 30h-.4a.03.03 0 0 0-.04.03v2.94c0 .02.01.03.03.03h.41c.02 0 .04-.01.04-.03v-2.94a.03.03 0 0 0-.04-.03ZM34.76 30h1c.02 0 .04.01.04.04v.33c0 .02-.02.03-.04.03h-.7c-.04 0-.06.02-.06.06v2.48a.06.06 0 0 1-.02.04.06.06 0 0 1-.04.02 64.45 64.45 0 0 0-.4-.02.06.06 0 0 1-.03-.04v-2.48c0-.04-.01-.06-.05-.06h-.7c-.03 0-.04 0-.04-.03v-.33c0-.03.01-.04.04-.04h1ZM41.51 32.57H42.66V33H41v-.03L41 30.03a.03.03 0 0 1 .03-.03h1.6a.03.03 0 0 1 .04.03v.34a.03.03 0 0 1-.02.03h-1.14a.03.03 0 0 0-.03.03v.72l.02.01h1.15a.03.03 0 0 1 .02.03v.37l-.02.02H41.51a.03.03 0 0 0-.03.04v.92a.03.03 0 0 0 .03.03Z" fill="#01B3F2"/><path fill-rule="evenodd" d="M48.72 30V32.98a.03.03 0 0 0 .03.03h1.1c.38 0 .73-.15 1-.4.25-.26.4-.6.4-.97v-.28a1.33 1.33 0 0 0-.41-.96 1.4 1.4 0 0 0-1-.4h-1.1l-.02.02Zm.48.44a.05.05 0 0 0-.01.04v2.07l.05.01h.55a.98.98 0 0 0 .68-.27.93.93 0 0 0 .28-.65v-.28c0-.25-.1-.49-.27-.66a.97.97 0 0 0-.68-.28h-.56l-.04.02Z" fill="#01B3F2"/></svg>