<!-- by TradingView --><svg width="56" height="56" viewBox="0 0 56 56" xmlns="http://www.w3.org/2000/svg"><path fill="#F0F3FA" d="M0 0h56v56H0z"/><path d="M38.08 39c-.62 0-1.15-.15-1.6-.44-.45-.29-.8-.7-1.05-1.22a4.27 4.27 0 0 1-.37-1.84c0-.7.12-1.3.37-1.84.25-.52.6-.93 1.05-1.22.45-.3.98-.44 1.6-.44.61 0 1.15.15 1.6.44.45.29.8.7 1.04 1.22.25.53.38 1.14.38 1.84 0 .7-.13 1.32-.38 1.84-.24.52-.59.93-1.04 1.22-.45.3-.99.44-1.6.44Zm0-1.28c.34 0 .62-.1.84-.3.23-.2.4-.46.5-.8.12-.33.17-.7.17-1.12 0-.41-.05-.79-.17-1.13a1.8 1.8 0 0 0-.5-.8c-.22-.2-.5-.3-.83-.3-.35 0-.63.1-.86.3-.22.2-.39.47-.5.8-.11.34-.17.72-.17 1.13 0 .41.06.79.17 1.12.11.34.28.6.5.8.23.2.51.3.86.3ZM31 39v-7h1.44v1.25h.07c.11-.4.3-.7.59-.92.28-.22.6-.33.96-.33a3.17 3.17 0 0 1 .53.04v1.5a2.53 2.53 0 0 0-.69-.1c-.27 0-.5.07-.73.2-.2.13-.38.3-.5.53a1.6 1.6 0 0 0-.18.77V39H31ZM26.51 41c-.53 0-1-.07-1.37-.22-.39-.14-.7-.34-.93-.58-.23-.25-.4-.52-.48-.81l1.34-.33c.06.12.14.25.26.37.11.12.27.23.46.3.2.09.45.13.74.13.43 0 .77-.1 1.05-.31.28-.2.42-.54.42-1.02v-1.2h-.08c-.08.15-.19.3-.34.47-.14.17-.33.3-.57.41a2.56 2.56 0 0 1-2.22-.18c-.4-.23-.7-.57-.94-1.04a3.9 3.9 0 0 1-.34-1.73c0-.7.12-1.3.34-1.78.24-.48.55-.85.94-1.1a2.4 2.4 0 0 1 2.23-.19c.24.13.43.28.58.45.14.18.25.34.32.5H28V32h1.47v6.58c0 .54-.13 1-.39 1.35-.25.36-.6.63-1.05.8-.45.18-.95.27-1.52.27Zm.01-3.8c.32 0 .58-.08.8-.23.23-.16.4-.38.51-.67.12-.3.17-.64.17-1.05 0-.4-.05-.76-.17-1.06a1.5 1.5 0 0 0-.5-.7 1.28 1.28 0 0 0-.8-.25c-.34 0-.62.08-.84.26-.22.17-.39.41-.5.72-.11.3-.17.64-.17 1.03s.06.73.17 1.03c.12.29.29.51.5.68.23.16.5.24.83.24ZM46.67 28c-.4 0-.76-.08-1.08-.23a1.8 1.8 0 0 1-.75-.69c-.19-.3-.28-.67-.28-1.12 0-.38.07-.7.2-.95s.31-.45.54-.6c.22-.15.48-.26.76-.34.3-.08.59-.13.9-.17l.9-.1c.22-.04.4-.1.5-.17.1-.07.15-.18.15-.34v-.02c0-.34-.09-.6-.27-.77-.18-.19-.45-.28-.8-.28-.36 0-.64.09-.86.26-.2.17-.35.37-.42.6l-1.4-.21a2.34 2.34 0 0 1 1.46-1.66 3.67 3.67 0 0 1 2.11-.1c.32.08.6.2.84.38.25.18.45.41.6.71.15.3.23.68.23 1.13V28h-1.43v-1.07h-.05a1.81 1.81 0 0 1-1 .92c-.23.1-.52.15-.85.15Zm.39-1.17c.3 0 .55-.07.77-.2a1.38 1.38 0 0 0 .69-1.2v-.8a.68.68 0 0 1-.24.12l-.37.1a10.6 10.6 0 0 1-.75.12c-.23.03-.42.08-.6.15a1 1 0 0 0-.41.31.8.8 0 0 0-.15.5c0 .3.1.52.3.67.2.15.45.23.76.23ZM39.49 23.95V28H38v-7h1.42v1.26h.07c.15-.38.38-.69.7-.92a2 2 0 0 1 1.18-.34c.44 0 .82.1 1.14.3.33.21.58.5.75.9.19.38.27.85.27 1.4V28H42v-4.15c0-.46-.06-.82-.28-1.08a1.1 1.1 0 0 0-.9-.4 1.26 1.26 0 0 0-1.17.72c-.1.24-.16.53-.16.86ZM33.1 28c-.4 0-.76-.08-1.08-.23a1.8 1.8 0 0 1-.75-.69c-.19-.3-.28-.67-.28-1.12 0-.38.07-.7.2-.95s.31-.45.54-.6c.22-.15.48-.26.76-.34.3-.08.59-.13.9-.17l.9-.1c.22-.04.39-.1.5-.17.1-.07.15-.18.15-.34v-.02c0-.34-.09-.6-.27-.77-.18-.19-.45-.28-.8-.28-.36 0-.65.09-.86.26-.21.17-.35.37-.43.6l-1.38-.21a2.34 2.34 0 0 1 1.46-1.66 3.67 3.67 0 0 1 2.11-.1c.3.08.58.2.83.38s.45.41.6.71c.15.3.23.68.23 1.13V28H35v-1.07h-.05a1.81 1.81 0 0 1-1 .92c-.23.1-.52.15-.85.15Zm.39-1.17c.3 0 .55-.07.77-.2a1.38 1.38 0 0 0 .69-1.2v-.8a.68.68 0 0 1-.24.12l-.37.1a10.6 10.6 0 0 1-.75.12c-.23.03-.42.08-.6.15a1 1 0 0 0-.41.31.8.8 0 0 0-.16.5c0 .3.1.52.3.67.2.15.46.23.77.23ZM28 28v-6.44h1.5V28H28Zm.76-7.35a.86.86 0 0 1-.6-.24.78.78 0 0 1-.26-.58c0-.23.09-.43.26-.59a.85.85 0 0 1 .6-.24c.24 0 .44.08.61.24.17.16.26.36.26.59 0 .22-.09.42-.26.58a.85.85 0 0 1-.6.24ZM22.45 24.04V28H21v-9h1.42v3.4h.07c.15-.38.37-.68.67-.9.3-.23.7-.34 1.17-.34a1.92 1.92 0 0 1 1.86 1.16c.17.38.26.84.26 1.38V28H25v-4.05c0-.46-.11-.8-.32-1.06a1.1 1.1 0 0 0-.9-.38 1.24 1.24 0 0 0-1.16.7c-.11.23-.17.51-.17.83ZM19.7 22.88l-1.36.16a1.2 1.2 0 0 0-.2-.42c-.1-.13-.22-.23-.38-.3a1.3 1.3 0 0 0-.58-.13c-.3 0-.57.07-.78.22a.65.65 0 0 0-.3.56c0 .2.06.36.2.48.13.12.36.22.68.3l1.08.25c.6.14 1.04.36 1.33.66.3.3.44.7.44 1.18 0 .42-.12.8-.35 1.13-.22.32-.54.57-.95.76-.4.18-.87.27-1.39.27-.77 0-1.4-.17-1.86-.52a2.12 2.12 0 0 1-.84-1.46l1.44-.15c.07.3.2.54.42.7.22.15.5.23.84.23.35 0 .63-.08.84-.24.22-.15.33-.35.33-.58 0-.2-.07-.35-.21-.48a1.4 1.4 0 0 0-.64-.29l-1.08-.24a2.49 2.49 0 0 1-1.34-.69 1.75 1.75 0 0 1-.43-1.22c0-.42.1-.78.32-1.09.21-.3.51-.55.9-.71.38-.17.83-.26 1.33-.26.74 0 1.32.17 1.74.5.43.35.7.8.8 1.38ZM7.62 28H6l2.96-9h1.88l2.96 9h-1.62l-2.25-7.15h-.06L7.62 28Zm.12-3.32h4.44V26H7.74v-1.32ZM16.24 39H14.6l2.96-9h1.88l2.96 9H20.8l-2.25-7.15h-.06L16.24 39Zm.12-3.32h4.43V37h-4.43v-1.32Z" fill="#3399BA"/></svg>