<!-- by TradingView --><svg width="56" height="56" viewBox="0 0 56 56" xmlns="http://www.w3.org/2000/svg"><path fill="#F0F3FA" d="M0 0h56v56H0z"/><path d="M17.64 26c-.13.31.42.6.72.72.78.3 1.37.56 1.78.75.69.31 1.23.86.95 1.64-.28.76-.83 1.3-1.65 1.6-1.38.53-2.76.27-4.12-.24a.67.67 0 0 0-.38-.03c-.24.05-.4.35-.54.45-.16.1-.26.07-.31-.08a.13.13 0 0 1 0-.08l.6-1.77a.77.77 0 0 1 .18-.32.21.21 0 0 1 .18-.05c.04 0 .07.02.1.04a.2.2 0 0 1 .05.07l.18.47c.32.9 1.05 1.37 2.1 1.4.39 0 .72-.1.98-.32.4-.31.32-.75-.16-.95-.98-.4-1.57-.64-1.76-.73-.58-.25-1.31-.79-1.2-1.45.16-1.05 1.06-1.73 2.1-1.97a4.4 4.4 0 0 1 2.14-.03c.44.11.87.24 1.3.38a.35.35 0 0 0 .34-.06c.22-.2.42-.43.63-.34.04.01.06.03.08.06v.1l-.5 1.5a.68.68 0 0 1-.21.36.22.22 0 0 1-.27.01.2.2 0 0 1-.06-.07c-.12-.24-.17-.52-.31-.72-.48-.67-1.18-.97-2.08-.91-.43.03-.72.22-.86.56ZM41.84 25.45l.4-.3a.3.3 0 0 1 .27-.06l.05.02a.13.13 0 0 1 .05.09v.05l-.6 1.7c-.05.13-.09.2-.13.21a.27.27 0 0 1-.3-.06.23.23 0 0 1-.04-.09c-.38-1.17-1.2-1.7-2.5-1.58a1 1 0 0 0-.56.27c-.52.46.1.84.53 1.01.93.38 1.5.61 1.68.7.78.34 1.36.85 1.05 1.71-.17.47-.42.83-.75 1.08-1.16.88-2.7.98-4.08.56l-1.13-.34c-.41-.13-.56.57-.92.52a.15.15 0 0 1-.06-.02.14.14 0 0 1-.05-.05.13.13 0 0 1-.01-.11l.64-1.89c.04-.15.11-.24.21-.27a.24.24 0 0 1 .18.01c.06.03.11.08.15.14.1.19.16.61.34.86.52.75 1.28 1.06 2.28.9.4-.06.67-.26.82-.6.15-.33-.22-.54-.53-.66l-1.54-.65c-.57-.24-1.27-.68-1.28-1.3-.02-1.13 1.03-1.9 2.12-2.16a4.64 4.64 0 0 1 2.09-.04c.33.08.77.2 1.32.4a.32.32 0 0 0 .3-.05ZM25.57 27.4h1.6c.02 0 .05-.01.07-.03a30.94 30.94 0 0 0 .58-1.86.2.2 0 0 0-.12-.14.22.22 0 0 0-.1-.02h-.2c-.1 0-.14-.05-.14-.14v-.07c0-.04.01-.07.04-.1a.14.14 0 0 1 .1-.04h3.78a.11.11 0 0 1 .09.05.1.1 0 0 1 .02.1l-.03.07a.16.16 0 0 1-.05.08.17.17 0 0 1-.09.03l-.51.06a.16.16 0 0 0-.1.04c-.12.13-.21.27-.27.45L28.88 30a3.2 3.2 0 0 0-.12.51.12.12 0 0 0 .07.08l.06.01h.38a.13.13 0 0 1 .08.04.12.12 0 0 1 .04.08v.12c0 .1-.05.15-.15.15h-3.8a.08.08 0 0 1-.08-.06.29.29 0 0 1 .02-.18c0-.02.02-.04.03-.05a.13.13 0 0 1 .06-.03c.37-.07.68-.05.82-.44.09-.23.33-.94.73-2.12 0-.03-.04-.12-.08-.12h-1.61c-.02 0-.07.06-.08.08l-.77 2.35a.13.13 0 0 0 .02.12.14.14 0 0 0 .11.06h.32c.03 0 .06 0 .08.03.03.02.04.05.04.08v.16c0 .08-.04.12-.12.12h-3.8c-.11 0-.15-.05-.13-.15l.01-.04c0-.04.03-.07.06-.1a.2.2 0 0 1 .1-.04l.6-.1c.03 0 .06-.01.07-.03.1-.09.18-.22.24-.4l1.48-4.46c.05-.17-.01-.27-.19-.3a2.9 2.9 0 0 0-.3-.02.15.15 0 0 1-.1-.05.14.14 0 0 1-.05-.1v-.06c0-.1.06-.15.16-.15h3.77l.04.02a.1.1 0 0 1 .05.05V25.18c0 .1-.06.15-.17.16l-.48.06c-.04 0-.09.02-.12.05a.24.24 0 0 0-.08.11l-.58 1.76c-.02.05 0 .08.06.08ZM46.28 27.4h1.6c.02 0 .05-.01.07-.03a31.02 31.02 0 0 0 .58-1.86.2.2 0 0 0-.12-.14.22.22 0 0 0-.1-.02h-.2c-.1 0-.15-.05-.15-.14v-.07c0-.04.02-.07.05-.1a.14.14 0 0 1 .1-.04h3.78a.11.11 0 0 1 .09.05.1.1 0 0 1 .01.1l-.02.07a.16.16 0 0 1-.05.08.17.17 0 0 1-.09.03l-.51.06a.16.16 0 0 0-.1.04c-.12.13-.21.27-.27.45L49.59 30a3.19 3.19 0 0 0-.12.51.12.12 0 0 0 .07.08l.06.01h.38a.13.13 0 0 1 .08.04.12.12 0 0 1 .04.08v.12c0 .1-.05.15-.16.15h-3.8a.08.08 0 0 1-.07-.06.29.29 0 0 1 .02-.18c0-.02.01-.04.03-.05a.13.13 0 0 1 .05-.03c.38-.07.7-.05.83-.44.09-.23.33-.94.73-2.12 0-.03-.04-.12-.08-.12h-1.61c-.02 0-.07.06-.08.08l-.77 2.35a.13.13 0 0 0 .02.12.14.14 0 0 0 .11.06h.32c.03 0 .06 0 .08.03.02.02.04.05.04.08v.16c0 .08-.04.12-.12.12h-3.8c-.11 0-.15-.05-.13-.15l.01-.04c0-.04.03-.07.05-.1a.2.2 0 0 1 .1-.04l.61-.1c.03 0 .06-.01.07-.03.1-.09.18-.22.24-.4l1.47-4.46c.06-.17 0-.27-.18-.3a2.9 2.9 0 0 0-.3-.02.15.15 0 0 1-.1-.05.14.14 0 0 1-.05-.1v-.06c0-.1.05-.15.16-.15h3.77l.04.02a.1.1 0 0 1 .05.05V25.18c0 .1-.06.15-.17.16l-.48.06c-.04 0-.09.02-.13.05a.24.24 0 0 0-.07.11l-.58 1.76c-.02.05 0 .08.06.08ZM33.26 30.5c0 .02 0 .05.02.07.02.02.05.04.08.04l.44.05c.12.02.16.08.13.19l-.02.05a.15.15 0 0 1-.05.07.16.16 0 0 1-.1.03h-3.88a.1.1 0 0 1-.07-.03.1.1 0 0 1-.03-.07v-.1c0-.07.04-.11.1-.12.41-.07.77 0 .93-.48.47-1.4.95-2.82 1.41-4.24.08-.22.1-.4.07-.52-.01-.05-.04-.07-.1-.07h-.33c-.12 0-.18-.06-.18-.18v-.08c0-.02.02-.04.04-.06a.2.2 0 0 1 .06-.04l.08-.01h3.48c.2 0 .33.02.38.05.04.02.05.06.04.1-.02.08-.06.13-.14.15-.2.05-.53.03-.68.21a.98.98 0 0 0-.2.33l-1.4 4.22c-.04.15-.07.3-.08.43Z" fill="#C93A2C"/><path fill-rule="evenodd" d="M10.3 30.51a.23.23 0 0 1-.1.08c-.16.04-.38.07-.67.08a.18.18 0 0 0-.1.03.17.17 0 0 0-.07.08l-.01.05c-.04.12 0 .17.13.17h4.09c.03 0 .07-.01.09-.04a.27.27 0 0 0 .04-.23.1.1 0 0 0-.08-.07 2.57 2.57 0 0 0-.23-.04c-.25-.04-.4-.05-.45-.44a586.57 586.57 0 0 1-.77-5.07.12.12 0 0 0-.04-.08.14.14 0 0 0-.09-.03h-1.08c-.09 0-.16.04-.22.1l-2.27 2.83c-.29.35-.9 1.04-1.83 2.07a1.5 1.5 0 0 1-.48.33c-.1.05-.19.04-.25-.01a.12.12 0 0 1-.04-.1.12.12 0 0 1 .04-.09c.45-.39.86-.86.5-1.48-.35-.6-1.24-.72-1.83-.32-.48.32-.67 1.13-.54 1.6.19.69.82 1.06 1.54 1.07.79.01 1.2-.4 1.72-.93a9.45 9.45 0 0 0 .57-.61.23.23 0 0 1 .1-.03h2.22a.1.1 0 0 1 .06.02l.03.05c.05.24.08.62.07.89a.2.2 0 0 1-.04.12Zm-.12-1.56-.24-2.02v-.02a.04.04 0 0 0-.05-.01h-.02l-1.6 2.03a.04.04 0 0 0 0 .04V29h.02l.01.01h1.85v-.01h.02a.04.04 0 0 0 .01-.04Z" fill="#C93A2C"/></svg>