<!-- by TradingView --><svg width="56" height="56" viewBox="0 0 56 56" xmlns="http://www.w3.org/2000/svg"><path fill="#082572" d="M0 0h56v56H0z"/><path d="M48.91 30.68a.78.78 0 0 0-.33-.58c-.2-.14-.45-.2-.76-.2-.22 0-.4.03-.56.1a.83.83 0 0 0-.36.26.66.66 0 0 0-.04.71c.05.09.13.17.22.23a3.44 3.44 0 0 0 .67.26l.55.13c.22.06.43.12.63.21s.38.2.54.33c.17.14.3.3.39.48.1.2.14.41.14.66 0 .35-.09.65-.26.9-.17.27-.42.47-.75.61-.33.15-.72.22-1.19.22-.45 0-.84-.07-1.17-.21a1.75 1.75 0 0 1-.77-.62c-.19-.27-.29-.6-.3-.98h1.03a.89.89 0 0 0 .61.8c.18.07.38.1.6.1.22 0 .42-.03.6-.1.17-.07.3-.16.4-.29a.7.7 0 0 0 .15-.43.56.56 0 0 0-.13-.38.97.97 0 0 0-.37-.25 3.5 3.5 0 0 0-.54-.18l-.66-.17a2.64 2.64 0 0 1-1.13-.56 1.3 1.3 0 0 1-.4-1.01c0-.34.08-.64.27-.9.18-.26.44-.46.76-.6.32-.15.68-.22 1.09-.22.4 0 .77.07 1.08.22.3.14.55.34.73.6.17.24.27.53.27.86h-1ZM41 35v-6h4v1h-3v1.54h2.77v.91H42V34h3v1h-4ZM29 35v-6h4v1h-3v1.54h2.77v.91H30V34h3v1h-4ZM11 35v-6h4v1h-3v1.54h2.77v.91H12V34h3v1h-4ZM40 29v6h-1v-6h1ZM34 35v-6h2.1c.43 0 .8.08 1.08.24.3.16.52.39.67.67.15.3.23.63.23 1 0 .4-.08.73-.23 1.01-.3.56-.9 1.08-1.76 1.08h-1.5v-1h1.36c.63 0 1.1-.41 1.1-1.08 0-.67-.46-.92-1.1-.92H35v5h-1Zm2.9-2.72L38.27 35h-1.13l-1.36-2.72h1.1ZM6 35v-6h2.1c.43 0 .8.08 1.08.24.3.16.52.39.67.67.15.3.23.63.23 1 0 .4-.08.73-.23 1.01-.3.56-.9 1.08-1.76 1.08h-1.5v-1h1.36c.63 0 1.1-.41 1.1-1.08 0-.67-.46-.92-1.1-.92H7v5H6Zm2.9-2.72L10.27 35H9.15l-1.36-2.72h1.1ZM28 29v6h-.98l-2.87-4.09H24V35h-1v-6h.99l2.86 4.09H27V29h1ZM22 29v6h-1v-6h1ZM16 35v-6h4v1h-3v1.54h2.73v.91H17V35h-1ZM40.48 26h-1.12l2.04-6h1.3l2.03 6h-1.12l-1.54-4.77h-.05L40.48 26Zm.04-2.35h3.05v.87h-3.05v-.87ZM34 26v-6h1v2.76h.12L37.38 20h1.28l-2.24 2.7 2.26 3.3h-1.26l-1.73-2.57-.69.78V26h-1ZM33.32 23c0 .63-.12 1.17-.35 1.62A2.5 2.5 0 0 1 30.66 26a2.54 2.54 0 0 1-2.31-1.39A3.48 3.48 0 0 1 28 23c0-.63.12-1.17.35-1.61a2.52 2.52 0 0 1 2.3-1.39 2.49 2.49 0 0 1 2.3 1.39c.25.44.37.98.37 1.61Zm-1.06 0c0-.44-.07-.82-.2-1.12-.14-.3-.33-.54-.57-.7a1.49 1.49 0 0 0-.83-.23c-.32 0-.6.08-.84.24-.24.15-.43.38-.56.69-.14.3-.2.68-.2 1.12 0 .44.06.82.2 1.12.13.3.32.54.56.7.25.15.52.23.84.23.31 0 .6-.08.83-.23.24-.16.43-.4.57-.7.13-.3.2-.68.2-1.12ZM22 26v-6h1v2.54h3V20h1v6h-1v-2.55h-3V26h-1ZM20.25 21.68a.78.78 0 0 0-.33-.58c-.2-.14-.45-.2-.76-.2-.22 0-.4.03-.56.1a.83.83 0 0 0-.36.26.66.66 0 0 0-.05.71c.06.09.14.17.23.23a3.44 3.44 0 0 0 .67.26l.55.13c.22.06.43.12.63.21s.38.2.54.33c.16.14.3.3.39.48.09.2.14.41.14.66 0 .35-.09.65-.26.9-.18.27-.43.47-.75.61-.33.15-.72.22-1.19.22-.45 0-.84-.07-1.17-.21a1.75 1.75 0 0 1-.77-.62c-.19-.27-.29-.6-.3-.98h1.03a.89.89 0 0 0 .61.8c.18.07.38.1.6.1.22 0 .42-.03.6-.1.17-.07.3-.16.4-.29a.7.7 0 0 0 .15-.43.56.56 0 0 0-.13-.38.97.97 0 0 0-.37-.25 3.5 3.5 0 0 0-.54-.18l-.66-.17a2.64 2.64 0 0 1-1.13-.56 1.3 1.3 0 0 1-.41-1.01c0-.34.1-.64.28-.9.18-.26.44-.46.76-.6.32-.15.68-.22 1.08-.22.41 0 .77.07 1.08.22.31.14.56.34.73.6.18.24.27.53.28.86h-1.01ZM12.19 26h-1.12l2.03-6h1.3l2.04 6h-1.12l-1.55-4.77h-.04L12.19 26Zm.03-2.35h3.05v.87h-3.05v-.87Z" fill="#fff"/></svg>