<!-- by TradingView --><svg width="56" height="56" viewBox="0 0 56 56" xmlns="http://www.w3.org/2000/svg"><path fill="#F0F3FA" d="M0 0h56v56H0z"/><path fill-rule="evenodd" d="M17.5 27.56a.69.69 0 0 1-.02-.12c1.1.49 2.08 1.14 2.96 1.96a11.59 11.59 0 0 1 2 2.45c-.26-.7-.59-1.35-.97-1.98a10.54 10.54 0 0 0-4.44-4.12 11.56 11.56 0 0 1 .35-5.74l.03-.01a12.05 12.05 0 0 1 4.6 2.14v.01c-.08.52-.13 1.02-.15 1.5l-.05.97c-.02.25-.02.5-.02.74.02.61.06 1.22.15 1.82.24 1.63.8 3.13 1.71 4.51a76.45 76.45 0 0 0 .87 1.32v-.02a4.46 4.46 0 0 1-.02-.08c0-.03 0-.04.03 0l.6.73a137.12 137.12 0 0 0 1.03 1.15h.06a18.52 18.52 0 0 0 .57 1.4l.77 1.68.64 1.22.06.12c.38.7.72 1.49.72 2.31 0 .9-.37 1.73-1 2.37-.17.17-.35.3-.53.37-.37.15-.8.26-1.18.2-.41-.06-.8-.3-1.13-.55-.02-.02-.04-.01-.03.02l.01.25c0 .04.03.08.06.1a2.81 2.81 0 0 0 2.5.65c.66-.13 1.25-.48 1.63-1.06.33-.5.55-1.09.65-1.66a6.2 6.2 0 0 0-.58-4l-.04-.09-.13-.28c-.5-1.1-.85-1.88-1.17-2.9a.75.75 0 0 1-.03-.14l.02-.01h1.76a.06.06 0 0 0 .05-.02 85 85 0 0 0 1.23-1.55l.29-.36.3-.41c.3-.46.55-.83.73-1.13.36-.58.66-1.16.9-1.72a9.55 9.55 0 0 0 .68-5.28l-.08-.73a15.57 15.57 0 0 0-.18-1.39 12.03 12.03 0 0 1 4.72-2.2 11.58 11.58 0 0 1 .31 5.89c-1.06.54-2 1.26-2.83 2.14a11.63 11.63 0 0 0-2.36 3.83 11.2 11.2 0 0 1 4.75-4.3 12.75 12.75 0 0 1-4.37 6.1 10.41 10.41 0 0 0 4.46-3.56 12.1 12.1 0 0 0 1.65-3.18l.02-.02a10.41 10.41 0 0 1 5-.03l-.03.22a9.93 9.93 0 0 1-1.2 3.49 11.28 11.28 0 0 1-7.02 5.27 6.36 6.36 0 0 1-.38.1 9.07 9.07 0 0 0 5.14-1.27 12.3 12.3 0 0 0 3.97-4 19.04 19.04 0 0 0 2.45-5.8l.01-.13c0-.01 0-.02-.02-.02-.5-.07-1.05-.13-1.62-.18a15.47 15.47 0 0 0-5.84.6c.17-.8.29-1.58.36-2.38.13-1.65.09-3.31-.15-4.98-.07-.49-.16-.96-.28-1.41 0-.02-.02-.03-.04-.02a21.53 21.53 0 0 0-3.6 1.46 17.27 17.27 0 0 0-3.6 2.39 25.51 25.51 0 0 0-4.58-8.44 10.67 10.67 0 0 0-.73-.76l-1 1.15c-1.06 1.25-1.99 2.6-2.78 4.01a19.36 19.36 0 0 0-1.68 3.93 18.54 18.54 0 0 0-5.82-3.32 35.72 35.72 0 0 0-1.24-.43h-.01v.01c-.09.3-.15.6-.2.88a22.08 22.08 0 0 0 .08 7.84c-1.43-.41-2.92-.6-4.47-.58a21.56 21.56 0 0 0-2.78.25 18.79 18.79 0 0 0 2.86 6.5 12.7 12.7 0 0 0 2.28 2.5 9.24 9.24 0 0 0 6.43 2.18c-1.13-.21-2.2-.61-3.2-1.19a10.72 10.72 0 0 1-5.42-7.86c0-.02 0-.03.02-.04a10.43 10.43 0 0 1 4.79.02l.02.04c.4 1.19.96 2.28 1.68 3.27a10.48 10.48 0 0 0 4.45 3.5 5.61 5.61 0 0 0-.37-.27c-.96-.77-1.79-1.68-2.49-2.73a13.32 13.32 0 0 1-1.54-3.1Zm10.89-8.72c0 .19-.16.33-.36.33-.2 0-.35-.15-.35-.34 0-.18.16-.33.36-.32.2 0 .35.15.35.33Zm-.35.73c.26 0 .45-.2.5-.44a2.66 2.66 0 0 1 .05-.13h.61v.01c0 .39-.13.71-.4.98-.21.22-.47.32-.76.32-.3 0-.56-.1-.77-.32a1.37 1.37 0 0 1-.4-.99h.61a.02.02 0 0 1 .01 0v.02l.03.1c.06.25.26.45.52.45Zm-.23 3.19c-.05-.1-.13-.22-.24-.36v-.03l.02-.03.03-.05.1-.16c.11-.25.14-.5.1-.77a1.06 1.06 0 0 0-.94-.87c-.37-.02-.7.15-.91.45a.05.05 0 0 0 0 .06l.3.54a.02.02 0 0 0 .02.01h.02c.15-.27.47-.5.75-.26.22.17.16.54-.03.7a.2.2 0 0 1-.14.06 24.08 24.08 0 0 1-.37.02v.71l.01.02h.35c.23 0 .37.22.43.42.05.19.04.34-.02.46-.14.31-.47.35-.74.18a.9.9 0 0 1-.4-.62 27.82 27.82 0 0 1-.05-.19l-.56.08h-.01v.02c0 .5.18.91.54 1.24.44.4 1.14.44 1.56-.01.16-.17.26-.35.3-.54.1-.38.05-.74-.12-1.08Zm1.64-.69c-.22-.17-.47-.09-.64.1l-.27.3c-.1.12-.25.24-.41.25a6.11 6.11 0 0 1-.22 0l-.01-.02a7.7 7.7 0 0 1 0-.7.94.94 0 0 0 .46-.3c.18-.2.3-.31.36-.36.16-.13.24-.19.43-.19.3 0 .56.14.78.36.28.28.44.65.47 1.1.04.55-.13 1-.5 1.37-.33.32-.79.37-1.21.25a.7.7 0 0 1-.21-.09.04.04 0 0 1-.02-.04l.19-.61a.02.02 0 0 1 .01-.02h.02c.31.1.66.14.89-.17a.94.94 0 0 0 .15-.81.72.72 0 0 0-.27-.42Zm1.27 3.5c.13-.16.24-.35.33-.58l.04-.05a5.9 5.9 0 0 1 .23-.3c-.37.02-.71.16-1 .41-.14.12-.28.3-.27.49 0 .09.04.15.1.2.2.13.43 0 .57-.18Zm-.35.83c.01 0 .02 0 0 .02h-.05l-.02-.02c-.03 0-.07-.02-.1-.04a4.5 4.5 0 0 1-.58-.4l-.05-.35c0-.02 0-.03.02-.03.1.01.15.05.18.1l.15.3a1 1 0 0 0 .45.42Zm.15.5a.92.92 0 0 1-.77-.4 2.87 2.87 0 0 1-.2-.31.27.27 0 0 0-.1-.12.7.7 0 0 0-.39-.09c-.01 0-.02 0-.02.02-.01.09 0 .15.02.19l.1.16.01.03.01.02.02.02a11.04 11.04 0 0 0 .5.32c.25.15.52.2.8.19.01 0 .02 0 .02-.02v-.01Zm-.6.4c.12.03.28.04.47.04l.01.01v.02a2.5 2.5 0 0 1-1.13-.15c-.27-.1-.62-.34-.66-.64-.01-.09.01-.14.07-.16.12-.04.27.04.38.12.03.02.07.06.1.12.16.32.42.54.77.64Zm-1.2 1.54c-.36.1-.7-.11-.88-.42-.14-.24.02-.63.15-.84l.25-.44c.1-.18.1-.36.02-.54-.02-.04-.03-.04-.03.01a1 1 0 0 1-.2.68l-.24.34c-.2.3-.4.7-.38 1.03.01.27.14.49.4.65.39.24.76.22 1.1-.08.17-.13.3-.27.43-.43l.38-.48a1.68 1.68 0 0 1 .52-.48.01.01 0 0 0-.01 0c-.28 0-.54.21-.72.41-.15.17-.28.3-.4.4-.1.08-.22.14-.39.19Zm-.06-.46a.27.27 0 0 1-.37-.1c-.08-.13-.09-.36.07-.45.1-.06.19-.09.25-.09.2.01.25.19.23.36-.01.13-.07.23-.18.28ZM26.2 44.61a1.7 1.7 0 0 1-.62-.23v.02a2.7 2.7 0 0 0 3.23-.19c.16-.14.31-.33.46-.57a5.13 5.13 0 0 0 .6-1.76 5.99 5.99 0 0 0-.44-3.17 21.3 21.3 0 0 0-.42-.96 25.13 25.13 0 0 1-1.13-2.85 6.39 6.39 0 0 1-.31-2.24c.01-.58.13-1.15.35-1.7.17-.42.4-.74.75-1.03.04-.04.03-.06-.03-.05-.22.02-.44.01-.67-.04a1.2 1.2 0 0 1-.89-.87l-.02-.08-.07-.25c0-.03-.02-.03-.03 0-.27.56-.5 1.14-.69 1.74a6.63 6.63 0 0 0 .14 4.5c.17.47.33.87.48 1.2.19.44.47 1.03.83 1.8.19.4.4.77.6 1.13.2.37.37.74.51 1.1a3.55 3.55 0 0 1 .1 2.48l-.1.3c-.19.42-.44.79-.76 1.12-.2.2-.4.33-.64.42-.39.15-.82.25-1.23.18Zm4.67-12.92a.6.6 0 0 1-.17.15l-.5.32c-.13.1-.22.18-.26.25l-.18.22a.25.25 0 0 1-.13.08.02.02 0 0 1-.02 0v-.02c0-.38.28-.57.6-.7.13-.06.26-.1.37-.14.06-.02.15-.08.28-.17.02 0 .02 0 0 .01Zm-.5 1.05c.12-.14.26-.25.45-.35.02-.01.02-.02 0-.03-.14-.01-.32.07-.42.14a65.6 65.6 0 0 0-.45.5c-.03.04-.02.05.02.04l.15-.03a.2.2 0 0 0 .12-.09l.13-.18Z" fill="#F58320"/></svg>