<!-- by TradingView --><svg width="56" height="56" viewBox="0 0 56 56" xmlns="http://www.w3.org/2000/svg"><path fill="#F0F3FA" d="M0 0h56v56H0z"/><path fill-rule="evenodd" d="M49 28.02C49 35.22 39.6 41 28 41S7 35.2 7 28s9.4-13 21-13 21 5.83 21 13.02ZM48 28c0 6.63-8.95 12-20 12S8 34.63 8 28c0-.47.05-.94.14-1.4 2.87-5.48 11.86-10 20.88-10 5.75 0 10.5 1.63 13.33 3.04C45.85 21.8 48 24.75 48 28Z" fill="#656565"/><path d="M19 21a1 1 0 1 0 0 2h3v9a1 1 0 1 0 2 0v-9h3a1 1 0 1 0 0-2h-8Z" fill="gray"/><rect x="32" y="21" width="12" height="2" rx="1" transform="rotate(90 32 21)" fill="gray"/><path d="M36 22a1 1 0 1 0-2 0v10a1 1 0 0 0 1 1h6a1 1 0 1 0 0-2h-5v-9Z" fill="gray"/></svg>