<!-- by TradingView --><svg width="56" height="56" viewBox="0 0 56 56" xmlns="http://www.w3.org/2000/svg"><path fill="#F0F3FA" d="M0 0h56v56H0z"/><path d="M36.8 27.63c-.97.94-2.05 1.76-3.24 2.47l-6.04-14.9c-.12-.3-.24-.3-.35 0L22.1 29.17a.5.5 0 0 0-.18.02l-2.55-1.95a.37.37 0 0 1-.13-.2.36.36 0 0 1 .02-.22l5.92-14.37a.7.7 0 0 1 .66-.44h3.64a.43.43 0 0 1 .4.25l6.92 15.38Z" fill="#6B6664"/><path d="m37.11 28.53-3.3 2.26-4.2 2.35c-.33.02-.55-.01-.64-.08-.13-.08-.13-.19 0-.33l4.59-2.63c1.19-.7 2.27-1.53 3.23-2.47a21.06 21.06 0 0 0 5.53-6.3c.31-.56.53-1.28.67-2.15.33-2.18-.97-3.34-2.92-3.83a7.01 7.01 0 0 0-1.61-.2 18.1 18.1 0 0 0-5.48.84.44.44 0 0 1-.37-.03c-.11-.06-.1-.12.01-.17 2-.8 4.19-1.24 6.55-1.33 2.23-.08 5.16.3 5.74 2.7.46 1.9-.92 4.31-2.15 5.86a29.64 29.64 0 0 1-4.17 4.3c-.51.43-1 .83-1.48 1.2Z" fill="#E77A18"/><path d="M19.12 27.62c-.2-.03-.27-.03-.2.03l-2.66-2.06-.26-.07c.06-.04.08-.11.05-.22a.38.38 0 0 0-.11-.17 15.23 15.23 0 0 1-3.6-4.77c-1.07-2.22-.83-4.36 1.65-5.3 1.2-.45 2.4-.4 3.82-.31 1.73.1 3.41.45 5.06 1.05.02 0 .03.02.03.04v.12c0 .04-.02.06-.06.05-1.39-.4-2.85-.63-4.37-.69-2.68-.1-5.32.96-4.84 4.02.12.81.53 1.73 1.2 2.78a22.81 22.81 0 0 0 4.08 4.73c.14.12.21.38.2.77Z" fill="#AAA9A8"/><path d="m16 25.52.26.07c-.18.33-.3.53-.37.6-1.58 1.6-3.29 3.84-3.38 5.98-.08 1.72.92 2.9 2.99 3.55l-.56 1.36a4.34 4.34 0 0 1-2.73-.86c-3.55-2.82 1.65-8.75 3.8-10.7Z" fill="#E77A18"/><path d="M42.3 33.07c.41-.89.44-1.84.08-2.86a9.84 9.84 0 0 0-2.28-3.63v-.04l.04-.14a.17.17 0 0 1 .13-.12.17.17 0 0 1 .16.05c.93 1 1.76 2.1 2.5 3.32 1.33 2.2 1.94 5.1-1.07 6.29-.22.09-.42.14-.61.15-.16.01-.32-.1-.47-.35-.24-.42-.29-.78-.13-1.07a.7.7 0 0 1 .24-.24c.74-.46 1.21-.91 1.42-1.36Z" fill="#AAA9A8"/><path d="m19.12 27.62.07.13c.01.05.05.1.09.13l2.3 1.73a.48.48 0 0 1 .17.55L19.7 35.8l-.35 1.05-1.53 4a.22.22 0 0 1-.22.15h-4.04c-.13 0-.17-.06-.12-.18l1.5-3.74.56-1.36 3.41-8.07c-.06-.05.01-.06.2-.03ZM37.11 28.53l5.53 12.23c.07.16.02.24-.16.24h-4.34a.3.3 0 0 1-.3-.2L33.82 30.8l3.3-2.26Z" fill="#343434"/><path d="M22.09 29.16c-.01.09.05.18.19.26a53.03 53.03 0 0 0 6.06 3.29c.21.1.4.07.63.02-.13.14-.13.25 0 .33.1.07.3.1.65.08l-.01.12c0 .05 0 .07.05.09l4.92 1.42c.18.05.34.13.5.25.24.19.37.36.4.53a.21.21 0 0 1-.07.19.22.22 0 0 1-.2.05c-1.8-.4-3.53-.95-5.16-1.63-.07-.03-.3-.16-.65-.38-.28-.18-.54-.22-.8-.13a1.08 1.08 0 0 0-.64-.42 32.2 32.2 0 0 1-5.61-3.17c-.33-.23-.4-.52-.44-.88a.5.5 0 0 1 .18-.02Z" fill="#AAA9A8"/><path d="M27.96 33.23c.28.07.5.2.65.42a32.59 32.59 0 0 1-9.26 3.2l.35-1.05c2.87-.55 5.62-1.4 8.26-2.57Z" fill="#E77A18"/></svg>