<!-- by TradingView --><svg width="56" height="56" viewBox="0 0 56 56" xmlns="http://www.w3.org/2000/svg"><path fill="#F0F3FA" d="M0 0h56v56H0z"/><path d="M50 32.73V33h-4.34l-.16-.27c1.07 0 1.5-.44 1.5-1.5v-6.46c0-1.06-.4-1.5-1.5-1.5V23H50v.27c-1.07 0-1.5.44-1.5 1.5v6.46c0 1.07.4 1.5 1.5 1.5ZM44.3 23v3.3h-.29a3.8 3.8 0 0 0-.5-1.5 2.88 2.88 0 0 0-2.41-1.24c-.83 0-1.86.52-1.86 1.47 0 1.17 1.8 1.8 2.62 2.2 1.3.64 3.14 1.4 3.14 3.11 0 1.74-1.78 2.66-3.32 2.66-.98 0-1.86-.54-2.82-.54a.44.44 0 0 0-.3.1c-.08.07-.14.22-.17.44h-.29v-3.28h.29c.13.69.31 1.2.54 1.55.55.82 1.64 1.18 2.59 1.18.92 0 2.1-.48 2.1-1.57 0-1.27-1.62-1.8-2.54-2.27-1.26-.65-3.08-1.42-3.08-3.1 0-1.6 1.64-2.51 3.08-2.51.85 0 1.6.55 2.4.55.13 0 .24-.04.32-.1.1-.08.16-.23.21-.45h.3ZM33.4 30h-3.65l-.64 1.27c-.4.95-.18 1.38.89 1.46V33h-3v-.27c.93-.17 1.2-.85 1.55-1.68L31.86 23h.24l3.28 8.13c.33.8.67 1.54 1.62 1.6V33h-3.72v-.27c1.12-.05 1.04-.72.69-1.6L33.4 30Zm-.2-.53-1.6-4.23-1.63 4.23h3.23Z" fill="#53707B"/><path fill="#B4B2AD" d="M6 21h44v1H6zM6 34h44v1H6z"/><path d="M18.38 24.46c-.11 0-.17-.06-.17-.17 0-.08.06-.16.15-.18.24-.07.49-.12.74-.17a2.2 2.2 0 0 1 1.78.58c.71.6 1.46 1.77 2.63 1.1.42-.23.6-.7.47-1.13-.21-.76-1.22-.86-1.93-.72-.4.07-.89.32-1.28.24-.37-.08-.79-.36-.58-.76a.15.15 0 0 1 .1-.08c.05-.01.1 0 .13.03l.36.25a.28.28 0 0 0 .31 0c.88-.54 2.16-.65 3.03-.03.63.45.97 1.1.86 1.86-.14.96-.7 1.55-1.62 1.91-.66.26-1.36.4-1.72 1.02a.22.22 0 0 1-.1.09c-.32.15-.98-.28-1.22-.45-.14-.11-.17-.25-.1-.42.26-.5.28-1.02.07-1.53-.32-.8-1-1.38-1.91-1.44Z" fill="#53707B"/><path d="M18.72 25.08c.43.02.75.24.98.64.31.58.43 1.22.1 1.83-.2.36-.73.51-1.15.43a3.07 3.07 0 0 1-1.87-1.12.99.99 0 0 1-.22-.6 1 1 0 0 1 .23-.62c.28-.36.98-.73 1.5-.62.14.03.28.05.43.06Z" fill="#53707B"/><path d="m8.98 29.03.03.01c.05.02.1.01.14-.02.2-.2.4-.43.6-.73.13-.19.27-.36.43-.51a8.93 8.93 0 0 1 3.15-1.99c.7-.26 1.52-.36 2.34-.3.11.01.21.06.29.14l.04.07v.08c0 1.22 1.52 2.2 2.71 2.4.37.05.73-.05 1.07-.17a.34.34 0 0 1 .2-.01c.07.01.13.05.17.1a4.78 4.78 0 0 1 .84 4.63.36.36 0 0 1-.33.24l-1.6-.01c-.1 0-.16-.05-.16-.14 0-.19-.01-.37-.04-.53-.13-.9-1.27-1.54-2.15-1.78a7.97 7.97 0 0 0-4.5.02c-1.45.52-2.6 1.3-3.75 2.25a.91.91 0 0 1-.63.22H6.2c-.13 0-.2-.02-.2-.08 0-.03.03-.08.1-.14.93-.86 1.78-1.88 2.54-3.05.1-.16.04-.28-.01-.44-.24-.64.28-1.28.95-1.37.31-.04.36.05.13.25-.29.25-.53.52-.75.8-.02.03 0 .05.02.06Z" fill="#53707B"/><path d="M17.88 32.45c-.25.26-.66.55-1.07.55h-1.7c-.1 0-.14-.1-.09-.17.42-.52.8-1.08 1.15-1.62.41-.65 1.48.4 1.74.75.13.17.12.33-.03.49ZM11.42 31.06c.22-.12.4-.06.54.16l1.02 1.63c.05.06 0 .15-.07.15h-1.44c-.4 0-1.41-.4-1.47-.84-.02-.14.2-.29.28-.35.4-.3.78-.55 1.14-.75Z" fill="#53707B"/></svg>