<!-- by TradingView --><svg width="56" height="56" viewBox="0 0 56 56" xmlns="http://www.w3.org/2000/svg"><path fill="#F0F3FA" d="M0 0h56v56H0z"/><path fill-rule="evenodd" d="M23.5 14c-.13.28-.27.62-.4 1h5.42c.13-.32.28-.65.45-1H42v28h-.2a22.1 22.1 0 0 0-.34-2h-5.48c.13.63.24 1.3.32 2H23.02l1.38-2h-7.04c-.63.78-1.2 1.46-1.65 2H14V14h9.5Zm-.94 3c.07-.35.15-.69.23-1h5.34c-.12.35-.23.68-.3 1h-5.27Zm-.16 1h5.21c-.05.35-.07.68-.08 1H22.3l.1-1Zm-.14 2h5.34c.06.35.14.68.26 1h-5.57a10.38 10.38 0 0 1-.03-1Zm.16 2h5.91c.21.35.45.68.72 1h-6.39c-.1-.32-.18-.65-.24-1Zm.61 2h6.98c.35.33.74.66 1.14 1h-7.6a8.8 8.8 0 0 1-.52-1Zm1.23 2h8.13l.2.16 1.06.84h-8.48c-.3-.3-.62-.63-.91-1Zm1.71 2h8.89a40.22 40.22 0 0 1 1.1 1H25.35l.62-1Zm-1.27 2h12.18c.27.32.53.66.77 1h-6.9l-.08-.07-.05.07h-6.59l.67-1Zm7.13 2h6.49c.2.33.4.66.58 1h-6.17c-.3-.36-.6-.7-.9-1Zm1.65 2h5.94c.16.33.3.67.45 1h-5.76c-.2-.35-.41-.68-.63-1Zm1.16 2h5.63l.36 1h-5.55c-.14-.35-.29-.68-.44-1Zm.8 2h5.5l.28 1h-5.48l-.3-1Zm-9.66 0-.69 1h-6.94l.78-1h6.85Zm.7-1H19.7l.76-1h6.7l-.69 1Zm1.38-2H21.2l.73-1h6.62l-.7 1Zm1.38-2h-6.6l.7-1h6.6l-.7 1Z" fill="#144A8B"/></svg>