<!-- by TradingView --><svg width="56" height="56" viewBox="0 0 56 56" xmlns="http://www.w3.org/2000/svg"><path fill="#C8392B" d="M0 0h56v56H0z"/><path d="M24.91 24.07h-4.78a10.97 10.97 0 0 1 6.17-6.6c2.06-.91 4.28-1.4 6.63-1.47.53 0 1.3 0 2.3.06a11.61 11.61 0 0 1 4.9 1.25c2.38 1.2 4.24 2.94 5.55 5.23.1.17.18.37.26.59.05.18.07.38.05.62l-.98 12.14c0 .03-.02.06-.04.08a.12.12 0 0 1-.08.03h-4.76c-.07 0-.1-.03-.1-.1l1.15-11.41c.02-.23-.02-.45-.12-.68a6.22 6.22 0 0 0-2.72-2.95 8.33 8.33 0 0 0-3.38-1.04c-1.51-.13-3-.07-4.46.2-1.08.2-2.1.57-3.03 1.13a5.99 5.99 0 0 0-2.22 2.34c-.1.17-.2.37-.34.58Z" fill="#fff"/><path d="M25.12 24h12.77a.12.12 0 0 1 .08.04.11.11 0 0 1 .03.08V28c-.02.02.03 0 0 0H14.23c-1.32 0-2.29.3-2.67 1.43-.62 1.86 1.18 2.57 2.67 2.57H37c-.02-.02.03 0 0 0 0-.03.02.02 0 0v4H13.24a5.3 5.3 0 0 1-4.3-2.1 4.29 4.29 0 0 1-.8-1.76A9.81 9.81 0 0 1 8 30.26c0-1.32.4-2.57 1.17-3.74a5.34 5.34 0 0 1 3.07-2.3c.49-.14 1.3-.2 2.44-.2l5.6-.01 4.84-.01Z"/></svg>