<!-- by TradingView --><svg width="56" height="56" viewBox="0 0 56 56" xmlns="http://www.w3.org/2000/svg"><path fill="#F0F3FA" d="M0 0h56v56H0z"/><path d="M41.5 28.36c.36 0 .66-.3.66-.68 0-.38-.3-.68-.66-.68-.36 0-.65.3-.65.68 0 .37.3.68.65.68ZM34.96 18h-.92c-.02 0-.04.02-.04.05v6.9c0 .03.02.05.04.05h.92c.02 0 .04-.02.04-.05v-6.9c0-.03-.02-.05-.04-.05ZM6.04 33.2H8.3l.02.01.01.03v.75L8.3 34H5.04L5 33.99 5 33.96v-6.92l.01-.03.03-.01H6c.05 0 0 .03 0 .04v6.13l.01.02.03.01ZM26.93 20.85h-.44c-.08 0-.11-.04-.11-.12v-.6c0-.09.03-.13.1-.13h.46c.01 0 .03 0 .04-.02a.07.07 0 0 0 .02-.04v-.91c0-.02 0-.03.02-.03h.95c.02 0 .03.01.03.03v.9c0 .05.03.07.08.07h.77l.03.02v.8c0 .02 0 .03-.02.03h-.79c-.04 0-.07.03-.07.08v2.53c0 .37.03.67.42.67a.8.8 0 0 0 .55-.22.02.02 0 0 1 .03.01v.01l.18.62v.04c-.32.27-.72.4-1.2.41-.8.01-.98-.8-.98-1.5v-2.58c0-.05-.03-.07-.07-.07ZM30.94 29.84h-.45c-.07 0-.1-.04-.1-.12v-.6c0-.08.03-.12.1-.12h.45l.04-.02a.07.07 0 0 0 .02-.05v-.91c0-.02.01-.03.03-.03h.95c.02 0 .03.01.03.04v.89c0 .05.02.07.07.07h.77l.03.02.01.04v.76c0 .03 0 .04-.03.04h-.78c-.05 0-.07.02-.07.07v2.53c0 .37.03.67.41.68a.8.8 0 0 0 .56-.22H33v.02l.19.62-.01.04c-.32.26-.71.4-1.2.4-.8.01-.98-.8-.98-1.5V29.9c0-.04-.02-.07-.06-.07ZM24.88 23.2c-.36-.3-.92-.42-1.23-.57-.8-.38-.74-1.65-.2-2.19.7-.7 1.67-.5 2.4.07.01 0 .02.02 0 .04l-.33.64h-.03c-.38-.31-1.08-.6-1.42-.1-.1.14-.1.3-.03.46.04.08.14.15.3.2.36.13.7.27 1 .42a1.34 1.34 0 0 1 .69 1.54c-.18.79-.66 1.21-1.46 1.28-.66.06-1.2-.18-1.6-.7-.03-.03-.03-.07 0-.1l.42-.6.01-.02a.04.04 0 0 1 .05.01c.42.53.83.72 1.25.57.4-.15.53-.65.18-.94ZM49.25 29.85c-.3.11-.52.47-.28.75.04.06.13.1.26.15.68.24 1.42.46 1.68 1.14.1.27.12.56.03.89-.19.74-.68 1.14-1.47 1.21a1.81 1.81 0 0 1-1.66-.72c-.02-.02-.02-.04 0-.06l.47-.65v-.01h.03c.31.45.68.66 1.1.64a.58.58 0 0 0 .59-.58c.02-.68-1.29-.75-1.73-1.16a1.11 1.11 0 0 1-.36-.88c.03-.98.51-1.5 1.44-1.57.46-.03.93.13 1.4.48.04.03.04.06.02.1l-.32.59h-.01a.03.03 0 0 1-.03.02l-.01-.01c-.36-.29-.84-.45-1.15-.33ZM24 29.75c0 .1.04.1.07.02.11-.27.46-.8.78-.77l.37.03c.13 0 .18.08.17.2l-.09.92c-.01.13-.07.16-.18.1-.25-.13-.53-.06-.84.21-.2.18-.28.42-.28.73v2.77c0 .03-.01.04-.03.04h-.93c-.03 0-.04-.02-.04-.04v-4.8c0-.1.05-.16.15-.16h.73c.1 0 .12.05.12.17v.58ZM39 29.75c0 .1.04.1.07.02.11-.27.46-.8.78-.77l.37.03c.13 0 .18.08.17.2l-.09.92c-.01.13-.07.16-.18.1-.25-.13-.53-.06-.84.21-.2.18-.28.42-.28.73v2.77c0 .03-.01.04-.03.04h-.93c-.03 0-.04-.02-.04-.04v-4.8c0-.1.05-.16.15-.16h.73c.1 0 .12.05.12.17v.58ZM41.97 29h-.93c-.02 0-.04.02-.04.04v4.92c0 .02.02.04.04.04h.93c.02 0 .03-.02.03-.04v-4.92c0-.02-.01-.04-.03-.04Z" fill="#040405"/><path fill-rule="evenodd" d="m18.54 24.96.41-1.6s0-.02.02-.03H19l1.88-.01.03.01.02.03.42 1.6.02.03h.03l1-.17h.03v-.02a.06.06 0 0 0 .01-.05l-1.95-6.71-.02-.03h-.03l-.89-.01-.03.01-.02.03-1.93 6.76a.06.06 0 0 0 0 .05l.02.02h.02l.88.13h.03l.02-.04Zm1.38-5.21-.68 2.54v.03l.02.02h.01l1.34.01h.02l.01-.02v-.03L20 19.75v-.02l-.03-.01h-.02l-.02.03Z" fill="#040405"/><path d="M19.38 33.78a1.81 1.81 0 0 0 1.6.06c.27-.12.5-.3.7-.52.2-.23.37-.5.48-.8a2.91 2.91 0 0 0-.37-2.74 2.13 2.13 0 0 0-.67-.56 1.81 1.81 0 0 0-1.6-.06c-.26.12-.5.3-.7.52-.2.23-.36.5-.48.8a2.91 2.91 0 0 0 .38 2.74c.19.24.41.43.66.56Zm.85-.53c-.58-.01-1.03-.8-1.02-1.77.02-.97.5-1.74 1.08-1.73.58.01 1.04.8 1.02 1.77-.02.97-.5 1.74-1.08 1.73ZM34.42 33.78a1.81 1.81 0 0 0 1.6.06c.26-.12.5-.3.7-.52.2-.23.36-.5.48-.8a2.92 2.92 0 0 0-.38-2.74 2.13 2.13 0 0 0-.66-.56 1.81 1.81 0 0 0-1.6-.06c-.26.12-.5.3-.7.52-.2.23-.37.5-.48.8a2.92 2.92 0 0 0 .37 2.74c.2.24.42.43.67.56Zm.84-.53c-.57-.01-1.03-.8-1.01-1.77.02-.97.5-1.74 1.08-1.73.58.01 1.03.8 1.01 1.77-.01.97-.5 1.74-1.08 1.73Z" fill="#040405"/><path fill-rule="evenodd" d="M45.12 33.22c-.79-.03-1-.82-1-1.55 0-.05.02-.07.06-.07h2.5c.03 0 .05-.02.05-.06a3.9 3.9 0 0 0-.13-1.47c-.1-.3-.28-.55-.56-.78-.22-.18-.5-.27-.82-.29-1.23-.05-2.02.85-2.14 2.12-.1 1.1.3 2.45 1.37 2.77a1.95 1.95 0 0 0 2.23-.69v-.02l-.36-.53c0-.02-.02-.03-.04 0-.37.4-.76.59-1.16.57Zm-.88-2.44h1.54l.02-.01v-.04c0-.26-.08-.51-.23-.7a.7.7 0 0 0-.55-.28h-.03c-.1 0-.2.03-.3.08a.8.8 0 0 0-.24.21c-.07.1-.13.2-.17.32-.04.12-.05.25-.05.38v.04ZM15.57 29.24c-.2.13-.38.28-.54.47-.03.04-.03 0-.03-.04v-2.62c0-.03-.03-.05-.06-.05h-.9c-.03 0-.04.01-.04.04v6.87c0 .05.03.09.08.09h.68c.06 0 .1-.04.1-.1l.02-.35c.01-.05.04-.07.08-.04.31.21.7.47 1.07.48 1.74.04 1.9-2.31 1.67-3.53-.18-1.02-1.1-1.87-2.13-1.22Zm-.57 1.8a289.44 289.44 0 0 0 .02 1.67c.46.48 1.4.72 1.61-.2.15-.63.17-1.27.04-1.92-.1-.57-.57-.95-1.1-.6-.12.06-.26.22-.43.48-.1.14-.14.34-.14.58ZM31.95 24.48a21.05 21.05 0 0 1 .14-.1h.01l.01.02c.1.2.22.36.4.47.3.2.76-.03 1.08-.21.02-.01.02-.03.02-.06l-.08-.51a.03.03 0 0 0 0-.02h-.03c-.13.05-.23.03-.34 0h-.02c-.1-.03-.14-.11-.14-.2v-1.78c0-.57-.09-.97-.19-1.21-.33-.81-1.22-1.05-1.97-.77-.45.16-.8.42-1.05.77-.03.04-.03.08 0 .12l.3.47.03.02h.02a.05.05 0 0 0 .04-.01c.34-.4.75-.6 1.25-.6.42 0 .57.33.57.7 0 .3-.04.42-.3.43-.2 0-.56.08-1.1.22-.38.1-.63.31-.77.65-.2.5-.16 1.27.23 1.7.17.17.36.3.58.36.6.19.91-.1 1.31-.46Zm.05-1.72-.02-.01c-.32 0-1.2.06-1.33.46-.12.34-.08.63.14.86.33.37.95.03 1.2-.28a.1.1 0 0 0 .01-.07v-.96ZM11.43 33.48l.1-.1h.02a.03.03 0 0 1 .03 0v.02c.1.2.23.36.4.47.3.2.77-.03 1.08-.21.02-.01.03-.03.03-.06L13 33.1a.03.03 0 0 0-.01-.02h-.02c-.14.05-.23.03-.35 0h-.02c-.1-.03-.13-.11-.13-.2v-1.78c0-.57-.09-.97-.19-1.21-.33-.81-1.22-1.05-1.98-.77-.44.16-.79.42-1.04.77-.03.04-.03.08 0 .12l.3.47.02.02h.03a.05.05 0 0 0 .04-.01c.33-.4.75-.6 1.25-.6.41 0 .56.33.56.7 0 .3-.03.42-.3.43-.2 0-.56.08-1.1.22-.37.1-.63.31-.76.65-.2.5-.16 1.27.23 1.7.16.17.35.3.58.36.6.19.9-.1 1.31-.46Zm.04-1.72-.02-.01c-.31 0-1.18.06-1.33.46-.12.34-.07.63.15.86.32.37.94.03 1.19-.28a.1.1 0 0 0 .02-.07v-.96ZM28.42 33.48a21.05 21.05 0 0 1 .14-.1.03.03 0 0 1 .02.02c.09.2.22.36.4.47.3.2.76-.03 1.07-.21.02-.01.03-.03.03-.06L30 33.1a.03.03 0 0 0-.01-.02h-.03c-.13.05-.22.03-.34 0h-.02c-.1-.03-.13-.11-.13-.2v-1.78c0-.57-.1-.97-.19-1.21-.33-.81-1.23-1.05-1.98-.77-.44.16-.79.42-1.04.77-.03.04-.03.08 0 .12l.3.47.02.02h.02a.05.05 0 0 0 .05-.01c.33-.4.75-.6 1.25-.6.41 0 .56.33.56.7 0 .3-.03.42-.3.43-.2 0-.56.08-1.1.22-.37.1-.63.31-.76.65-.2.5-.16 1.27.23 1.7.16.17.35.3.58.36.59.19.9-.1 1.31-.46Zm.04-1.72-.02-.01c-.31 0-1.19.06-1.33.46-.12.34-.07.63.14.86.33.37.95.03 1.2-.28a.1.1 0 0 0 .02-.07v-.96Z" fill="#040405"/></svg>