<!-- by TradingView --><svg width="56" height="56" viewBox="0 0 56 56" xmlns="http://www.w3.org/2000/svg"><path fill="#F0F3FA" d="M0 0h56v56H0z"/><path fill-rule="evenodd" d="M36.68 35.49a11.73 11.73 0 0 1-6.22 3.76c-.03 0-.05 0-.05-.04v-8.74H32V26h-1.6V12.23h-.02c-.98-.19-1.97-.26-2.98-.22a16 16 0 0 0-11.16 26.82A14.3 14.3 0 0 0 21 42.37v-5.16c-2.34-1.73-3.54-3.84-4.23-6.63a.05.05 0 0 1 0-.05l.03-.01H25.35l.01.03v13.18a15.12 15.12 0 0 0 4.69.14A16.07 16.07 0 0 0 44 28.02a15.93 15.93 0 0 0-9-14.4v5.3a11.26 11.26 0 0 1 4.43 9.94 11.37 11.37 0 0 1-2.75 6.63ZM19.96 19.72a11.4 11.4 0 0 0-3.3 6.28h8.66a.04.04 0 0 0 .03 0v-.02l.01-.01v-9.13a.03.03 0 0 0-.02-.03h-.02c-2 .5-3.9 1.48-5.36 2.91Z" fill="#231F20"/></svg>