<!-- by TradingView --><svg width="56" height="56" viewBox="0 0 56 56" xmlns="http://www.w3.org/2000/svg"><path fill="#F0F3FA" d="M0 0h56v56H0z"/><path fill-rule="evenodd" d="M16.89 30.94c.09 0 .11-.03.11-.12v-5.59c0-.14-.05-.2-.18-.17-.49.07-.77-.16-.85-.7-.07-.46.05-.84.35-1.13.19-.19.51-.23.99-.15.4.08 1.39.06 2.93-.06 1.83-.15 2.79.7 2.87 2.55.03.96-.34 1.62-1.12 1.98-.37.18-.36.32.03.43.48.13.78.48.91 1.05.07.33.07 1.56.07 1.56l-.02.15v.1c-.01.12.04.18.17.17.7-.03 1.01.33.93 1.08-.05.44-.25.72-.58.84-.2.07-.56.09-1.08.05h-.54c-.63-.01-.83-.4-.88-1.14v-1.81c0-.43-.38-.76-.73-.99-.15-.1-.33-.17-.53-.2-.37-.08-.74.07-.74.46v1.45c0 .12.24.17.36.17.7-.05 1.04.32.99 1.1-.03.4-.16.68-.4.82-.2.11-.51.15-.94.1a6.69 6.69 0 0 0-1.56 0c-.49.06-.82.04-1-.07-.35-.23-.52-.6-.5-1.1.03-.62.34-.9.94-.83Zm2.12-5.53c0-.25.15-.37.45-.37h.08c.4 0 .75.11 1.04.32.28.2.42.46.42.75v.07c0 .29-.15.54-.43.74-.3.2-.64.3-1.05.3h-.08c-.3 0-.44-.12-.44-.36l.01-1.45ZM5.7 23.19c1.1-.36 2.03-.21 2.56.43.06.07.13.07.2 0l.32-.36c.06-.07.14-.11.23-.12.41-.06.71.05.9.33.1.15.13.4.1.76-.04.48-.03 1.1 0 1.84.02.37-.18.58-.61.63h-.3c-.42 0-.68-.2-.78-.61l-.03-.12c-.15-.6-.5-.93-.83-1.02-.5-.14-.86-.01-1.12.37-.26.4-.18.76.25 1.1.16.13.6.27 1.32.43 1.62.36 2.42 1.37 2.4 3.03a3.3 3.3 0 0 1-.54 1.84c-.38.55-.9.93-1.57 1.14-.83.25-1.64.1-2.42-.45-.09-.07-.17-.05-.23.04l-.25.32a.18.18 0 0 1-.05.05c-.39.25-.76.16-1.1-.26a.83.83 0 0 0-.04-.04c-.05-.05-.1-.11-.1-.17v-2.86c0-.09.1-.15.17-.2l.02-.02c.34-.24.76-.3 1.26-.18.26.06.4.23.41.49.04.6.2 1.04.5 1.3.24.2.54.27.88.2.32-.08.57-.25.75-.5.2-.27.22-.54.08-.8-.21-.41-.5-.67-.88-.76a7.57 7.57 0 0 1-1.98-.72 5.78 5.78 0 0 1-.76-.75c-.26-.29-.4-.6-.43-.93a5.88 5.88 0 0 1 .09-1.69c.06-.27.23-.56.52-.86l.18-.2c.34-.37.64-.6.88-.68Zm30.56.41.35-.4a.3.3 0 0 1 .17-.12c.5-.1.84 0 1.06.34.11.17.15.48.1.94-.04.42-.05.79-.02 1.1l.06.95c.01.41-.13.72-.42.92-.28.2-.65.25-1.08.16-.32-.07-.48-.26-.5-.57v-.15c-.05-.83-.23-1.36-.57-1.6-.37-.25-.77-.23-1.18.05-.36.25-.6.6-.71 1.02a6.97 6.97 0 0 0 .06 3.61c.07.27.2.51.4.73.23.25.47.38.74.4.37.03.66-.1.86-.37.14-.19.21-.48.21-.88 0-.37.05-.65.16-.83.28-.49.7-.63 1.28-.42.56.2.82.65.78 1.36-.12 1.85-1.05 2.9-2.77 3.12-.84.11-1.6-.03-2.28-.42a3.52 3.52 0 0 1-1.48-1.69c-.46-1.06-.58-2.47-.37-4.24a4.31 4.31 0 0 1 1.73-3.14c.66-.48 1.54-.6 2.64-.34.13.03.27.12.41.26l.23.22c.05.04.1.04.14 0Zm7.89-.35-.16.28c-.07.11-.14.12-.24.03-.3-.3-.65-.48-1.02-.53a2.65 2.65 0 0 0-2.66 1.1c-.43.59-.72 1.27-.87 2.04a8.5 8.5 0 0 0 .26 4.6c.63 1.67 1.81 2.4 3.55 2.2a2.52 2.52 0 0 0 1.68-.89c.72-.84.97-1.8.74-2.87a1 1 0 0 0-.6-.72.86.86 0 0 0-.95.08c-.26.2-.39.56-.4 1.1 0 .47-.09.79-.24.98-.3.35-.63.44-1 .28a1.3 1.3 0 0 1-.73-.83 6.97 6.97 0 0 1-.13-3.86c.11-.46.35-.82.72-1.07.4-.27.78-.23 1.12.12a1 1 0 0 1 .31.73c0 .23.03.5.09.82.1.53.4.76.92.68l.15-.02a.87.87 0 0 0 .58-.33c.15-.19.22-.4.2-.63-.06-.96-.06-1.7 0-2.21.04-.4 0-.7-.12-.88-.23-.36-.57-.47-1.02-.34a.31.31 0 0 0-.18.14ZM13 23.3l.48-.04c.5-.07.82-.06 1 .03.35.18.53.55.52 1.1 0 .57-.3.83-.86.8-.1 0-.14.04-.14.15V30.69c0 .1.04.15.14.15.56-.04.85.23.86.8 0 .55-.17.92-.53 1.1-.17.08-.5.1-1 .03a4.27 4.27 0 0 0-.47-.05c-.1 0-.26.02-.48.05-.5.06-.82.05-1-.04-.35-.18-.53-.54-.52-1.1 0-.56.3-.83.86-.8.1.01.14-.04.14-.14V25.33c0-.11-.04-.16-.14-.16-.56.04-.85-.23-.86-.79 0-.56.17-.92.53-1.1.17-.09.5-.1 1-.03l.47.04ZM27.48 31c-.83 0-1.53-.4-2.12-1.18a4.59 4.59 0 0 1-.86-2.83c0-1.11.3-2.05.9-2.83.58-.78 1.3-1.16 2.12-1.16.83 0 1.53.4 2.12 1.18.58.79.87 1.73.86 2.83 0 1.11-.3 2.05-.9 2.83-.58.78-1.3 1.16-2.12 1.16Zm-1-4.02c-.02 1.38.41 2.5.97 2.5.55.02 1-1.1 1.02-2.48.02-1.38-.42-2.5-.97-2.51-.55 0-1.01 1.1-1.03 2.49Zm24.89 2.71c.41-.7.62-1.58.63-2.67 0-1.1-.2-2-.6-2.69A2.57 2.57 0 0 0 49.02 23c-1.07 0-1.87.43-2.39 1.3-.41.7-.62 1.6-.63 2.68 0 1.1.2 2 .6 2.69.51.88 1.3 1.32 2.38 1.33 1.07 0 1.87-.43 2.39-1.3Zm-2.41-.2c-.56 0-1-1.13-.98-2.5.01-1.39.47-2.5 1.02-2.5s.99 1.13.98 2.51c-.01 1.38-.47 2.5-1.02 2.5ZM29.55 32h-4.1c-.25.01-.45.2-.45.42v.18c0 .23.2.41.46.4h4.09c.25 0 .45-.18.45-.4v-.19c0-.23-.2-.4-.45-.4Zm17.43.01 4.04-.02c.27 0 .48.2.48.43v.14c0 .24-.2.43-.47.43l-4.05.02c-.26 0-.48-.19-.48-.43v-.14c0-.23.21-.43.48-.43Z" fill="#C6150B"/></svg>