<!-- by TradingView --><svg width="56" height="56" viewBox="0 0 56 56" xmlns="http://www.w3.org/2000/svg"><path fill="#F0F3FA" d="M0 0h56v56H0z"/><path d="m20 20-2.6-3.55a1.17 1.17 0 0 0-.92-.45c-.37 0-.72.17-.93.45L13 20h1.6l1.37-2.9a.45.45 0 0 1 .4-.25c.17 0 .32.09.4.22L18.5 20H20Zm-9 2-3.55 2.6c-.28.2-.45.55-.45.92s.17.72.45.93L11 29v-1.6l-2.9-1.37a.45.45 0 0 1-.25-.4c0-.17.09-.32.22-.4L11 23.5V22Zm14.55 4.4L22 29v-1.5l2.93-1.73a.45.45 0 0 0 .22-.4c0-.17-.1-.33-.25-.4L22 23.6V22l3.55 2.55c.28.21.45.56.45.93s-.17.71-.45.93ZM13 30l2.6 3.55c.2.28.55.45.92.45s.72-.17.93-.45L20 30h-1.6l-1.37 2.9a.45.45 0 0 1-.4.25.45.45 0 0 1-.4-.22L14.5 30H13Z" fill="#C5142A"/><path d="M8.6 30.45 6 34h1.5l1.73-2.93a.45.45 0 0 1 .4-.22c.17 0 .33.1.4.25L11.4 34H13l-2.55-3.55a1.17 1.17 0 0 0-.93-.45c-.37 0-.71.17-.93.45ZM22.6 30.45 20 34h1.5l1.73-2.93a.45.45 0 0 1 .4-.22c.17 0 .33.1.4.25L25.4 34H27l-2.55-3.55a1.17 1.17 0 0 0-.93-.45c-.37 0-.71.17-.93.45ZM29 31.7V34h1v-2.6c0-.38.46-.68.8-.68h2.46c.33 0 .74.3.74.67V34h1v-2.3c0-.94-.67-1.7-1.5-1.7h-3c-.83 0-1.5.76-1.5 1.7ZM43 30.83V30h-4.73c-.7 0-1.27.57-1.27 1.27v1.46c0 .7.57 1.27 1.27 1.27H43v-.76h-4.47c-.26 0-.53-.21-.53-.48v-1.45c0-.27.27-.48.53-.48H43ZM50 30v.83h-4.5a.5.5 0 0 0-.5.48v.33h4.5v.72H45v.4c0 .27.23.48.5.48H50V34h-4.73c-.7 0-1.27-.57-1.27-1.27v-1.46c0-.7.57-1.27 1.27-1.27H50Z" fill="#271E4A"/></svg>