<!-- by TradingView --><svg width="56" height="56" viewBox="0 0 56 56" xmlns="http://www.w3.org/2000/svg"><path fill="url(#a)" d="M0 0h56v56H0z"/><path fill-rule="evenodd" d="M4 31h2.45v-.26c-.42-.04-1.16-.33-.78-1.14l.15-.36H8l.38.92c.1.2.12.58-.48.58h-.49V31h3.34v-.26c-.31.07-1-.02-1.27-.95L7.42 25H7.2l-2.14 5c-.11.25-.47.74-1.06.74V31Zm3.9-2-1-2.41L5.91 29h2Zm9.47 2h2.45v-.26c-.42-.04-1.16-.33-.78-1.14l.15-.36h2.19l.38.92c.1.2.13.58-.48.58h-.49V31h3.34v-.26c-.31.07-1-.02-1.27-.95L20.79 25h-.22l-2.14 5c-.11.25-.47.74-1.06.74V31Zm3.9-2-1-2.41-.99 2.41h2Zm11.7 2H30.5v-.26c.6 0 .95-.5 1.06-.74l2.14-5h.23L36 29.8c.27.92.96 1 1.27.94V31h-3.33v-.26h.48c.61 0 .58-.38.49-.58l-.39-.92h-2.19l-.15.36c-.38.81.37 1.1.79 1.14V31Zm.44-4.41L34.42 29h-2l1-2.41ZM45.24 31h2.45v-.26c-.41-.04-1.16-.32-.78-1.13l.15-.37h2.18l.4.93c.09.2.12.57-.49.57h-.49V31H52v-.26c-.31.07-1-.02-1.27-.94l-2.07-4.76h-.22l-2.14 4.97c-.1.24-.47.73-1.06.73V31Zm3.9-2-1-2.38-.98 2.38h1.98ZM17.4 25h-2.45v.26c.42.04 1.16.33.78 1.14L14.5 29.4 13 25.84c-.08-.2-.11-.58.5-.58h.48V25h-3.34v.26c.32-.07 1 .02 1.27.95L13.97 31h.22l2.14-5c.11-.25.47-.74 1.06-.74V25Zm23.73 6h-3.43v-.27h.29c.47 0 1.02-.43 1.02-.96v-3.52c0-.54-.55-.97-1.02-.97h-.29V25h4.66c.74 0 2.07.28 2.07 1.53 0 1.24-1.33 1.47-2.07 1.47h-.83c.3.48 1.1.71 1.48.77l.82 1.27c.3.46.76.73 1.27.73h.14V31H43l-1.92-3H40v1.77c0 .53.38.96.84.96h.28V31ZM40 27.7v-2.4h1.96c.62 0 1.12.54 1.12 1.2 0 .66-.5 1.2-1.12 1.2H40Zm-15 .52V31h.26c.03-.2.2-.61.62-.61.2 0 .37.08.59.19.36.18.86.42 1.8.42 1.5 0 2.07-.85 2.07-1.94 0-1.1-1.43-1.55-2.17-1.7-.74-.13-2.29-.46-2.29-1.22s1.15-.84 1.33-.84h.02c.24 0 2.01-.01 2.49 1.93H30v-2.05h-.28c-.04.16-.17.48-.43.48-.1 0-.23-.07-.4-.17-.33-.2-.83-.49-1.68-.49-1.27 0-2.21.6-2.21 1.79s2.57 1.74 2.74 1.77l.05.01c.3.06 1.72.32 1.72 1.26.01.3-.26.93-1.43.93-1.46 0-2.57-1.26-2.82-2.54H25Z" fill="#fff"/><defs><linearGradient id="a" x1="28" y1="0" x2="28" y2="56" gradientUnits="userSpaceOnUse"><stop stop-color="#C59400"/><stop offset="1" stop-color="#5F4700"/></linearGradient></defs></svg>