<!-- by TradingView --><svg width="56" height="56" viewBox="0 0 56 56" xmlns="http://www.w3.org/2000/svg"><path fill="#C51E28" d="M0 0h56v56H0z"/><path d="M6.21 26.77c-.25-.06-.47-.01-.63.16-.23.22-.88.23-1.18.2-.2 0-.3-.11-.3-.3-.01-.6.44-.79 1.04-.8.83-.03 1.76-.08 2.54.11.05.02.09.04.11.09.1.19.2.64.21 1.03 0 .24-.03.44-.13.56l-.33.39c-.09.1-.05.25.07.3.19.1.37.16.39.37v.92c0 .39-.06 1.04-.2 1.2H4.65c-.73-.1-.7-1.2-.59-1.63.02-.07.09-.13.17-.14.4-.05.78-.04 1.13.02.05.01.1.06.1.1 0 .25-.04.9.34.97.74.14.56-1.16.48-1.43-.09-.32-.69-.28-.98-.27-.16 0-.24-.07-.25-.2v-.27c-.01-.11.05-.18.18-.19.24-.02.49-.05.74-.1.48-.08.4-.73.32-1.01 0-.04-.04-.07-.08-.08Z" fill="#fff"/><path fill-rule="evenodd" d="M8.9 28.42a2.56 2.56 0 0 0-.76 0c-.11.01-.14-.05-.14-.13 0-.06.02-.13.03-.17.02-.1.09-.1.2-.12h.62c.15 0 .15-.3.15-.44 0-.29.01-.67-.23-.83-.16-.12-.48-.41-.49-.59 0-.07.07-.14.15-.14h5.91c-.2-.33-.15-1.4.16-1.67.2-.16.42-.26.69-.28.67-.06 1.32-.07 1.96-.01 1.2.1 1.84 1.9 2.52 1.96 3.44 0 6.89-.02 10.33 0v1h-1v2.36c.01.16.1.33.23.45.2.17.32.85.34 1.19H27.4v-1H24.5v-2h-.7a7.06 7.06 0 0 0-.03 1.71c.01.16.09.3.16.42.12.22.07.37.07.87h-2v-3c0-.68.84-.73 1.5-.72h1.36c.14 0 .14-.13.14-.28h-.63l-3.23.01c-.1 0-.14.05-.14.14v1.31c0 .06-.03.08-.08.08l-1.05-.02c-.1 0-.17-.08-.25-.14-.18-.17-.2-.27-.52-.15-.07.02-.1.07-.1.14v1.31c0 .22.12.32.34.32h.1c.2 0 .3-.1.32-.27V29H21v2h-1.2v-.14l-.02-.24a.12.12 0 0 0-.14-.12c-.52.09-1.47.22-1.88-.17-.55-.51-.4-1.22-.38-1.92.01-.68.02-.77.86-.82.38-.03.75-.04 1.1-.03.16 0 .25-.07.28-.22v-.07c.04-.18-.03-.27-.22-.27h-2.93V30.03c.02.15.33.08.38.23L17 31H15v-4h-1.62v2.55c0 .16.13.6.26.68.03.02.06.05.07.08.07.18.13.38.17.57a.1.1 0 0 1-.09.12H12v-4h-1.51l.01 3.07c0 .06.24.12.3.12.05 0 .1.01.14.03a.1.1 0 0 1 .06.07V31H9v-2.47c0-.05-.05-.1-.1-.1Zm7.1-2.71v-.8c0-.12.13-.23.26-.24h.54c.06 0 .11 0 .16.04l.72.45c.2.54.32.84-.16.84h-1.26c-.14 0-.26-.16-.26-.3Zm10.45 1.4c.2.24.15.66.06.97-.02.08-.08.1-.15.13-.21.08-.42-.24-.46.02-.04.3-.04.72.35.77h.87c.12-.02.18-.13.2-.24.06-.76.08-.68.03-1.4 0-.1-.02-.2-.05-.29 0-.05-.04-.07-.09-.07h-.71c-.05 0-.08.06-.05.1ZM42.83 28.22c.09.06.12.1.13.2.05.4.06.45.01.79-.09.62-1.16.76-1.63.8-.66.03-1.2-.08-1.6-.33-.37-.22-.37-.84-.31-1.2.04-.25 1.38-.27 1.37.13 0 .32 0 .76.45.71.4-.04.33-.46.3-.73-.05-.32-.29-.4-.52-.47-.22-.07-.44-.13-.43-.43 0-.23.1-.35.32-.35H44V27h-5.42v2.04c0 .44.29.72.37 1.2.04.3.05.76.05.76h-2v-.66c-.35.07-1.06.06-1.52 0-.61-.08-.95-.43-1-1.03a4.8 4.8 0 0 1 .05-1.47c.07-.39.56-.52 1-.52.23 0 .45.07.6.1.23.05.47.28.67.42.2.14.2-.48.2-.84h-3.63v2.86c.01.08.14.14.2.18.2.15.4.72.43.96h-2v-4.08c0-.26-.69-.22-.85-.24a.13.13 0 0 1-.1-.08.55.55 0 0 1 .05-.54c.12-.2.13-.38.15-.59l.01-.21c.07-.56.43-1.18 1.08-1.22a13.8 13.8 0 0 1 1.73-.02c.97.05 2.23.83 2.6 1.81.13.16 1.63.16 1.87.16 4.3-.01 8.89 0 13.46.01v1h-1v1.43c0 .47.03.94.1 1.4.05.24.8 1.1.4 1.17h-2v-2c0-.34-1.41-.24-1.66-.26-.23-.03-.15.33.05.34l.3-.32c.42.01.33.8.23 1.02-.24.51-1.46.32-1.8.2-.48-.19-.35-.88-.31-1.27.04-.44.29-.68.76-.71h2.43v-1h-4v3c.1.01.7.16.72.29l.08.71H44v-3h-1.11c-.39 0-.22.11-.06.22ZM34.63 26h-1.4a.24.24 0 0 1-.23-.24v-.5c0-.12.11-.23.24-.23h.73c.06 0 .1.02.15.05l.66.48c.18.14.07.45-.16.44Zm1.94 2.34h.14c.15-.01.28.1.29.26v.73c0 .16-.12.29-.27.3h-.08c-.15 0-.34-.12-.35-.27v-.73c0-.16.12-.29.27-.3Z" fill="#fff"/></svg>