<!-- by TradingView --><svg width="56" height="56" viewBox="0 0 56 56" xmlns="http://www.w3.org/2000/svg"><path fill="#F0F3FA" d="M0 0h56v56H0z"/><path d="M32.15 36.83a25.03 25.03 0 0 1-8.27 2.1 26.4 26.4 0 0 1-7.35-.47 23.23 23.23 0 0 1-3.3-.95c-.98-.35-1.91-.78-2.8-1.28-.72-.42-1.4-.9-2.02-1.43a8.52 8.52 0 0 1-1.4-1.53 5.67 5.67 0 0 1-.82-1.62 4.42 4.42 0 0 1 .36-3.47c.33-.62.78-1.22 1.35-1.78.57-.58 1.25-1.12 2.04-1.63.85-.55 1.8-1.07 2.85-1.55a33.14 33.14 0 0 1 2.11-.88 30.73 30.73 0 0 0-2.88 1.79c-.83.58-1.55 1.17-2.18 1.78a9.37 9.37 0 0 0-1.33 1.61 5.42 5.42 0 0 0-.72 1.64c-.12.5-.15.99-.1 1.49.08.53.25 1.05.53 1.58.25.47.58.94.99 1.4a10.73 10.73 0 0 0 1.09 1.03c.33.24.65.45.96.63.75.43 1.57.81 2.48 1.14 1.15.43 2.37.77 3.68 1.04a33.49 33.49 0 0 0 10.28.47c.97-.12 1.88-.3 2.74-.53a13.76 13.76 0 0 0 1.71-.58Z" fill="#777"/><path fill-rule="evenodd" d="M47 21h-3v11h3V21Zm-30.83 0L12 32h3.45l.46-1.5h4.04l.46 1.5h6.83l1.77-2.59L30.43 32H34l-2.9-4.2 2.7-3.8h-3.37l-1.42 2.22L27.73 24h-3.61l2.77 3.8L24 32l-4.15-11h-3.68Zm3.02 7h-2.52l1.27-4.14L19.19 28Zm17.86 1h5.9c.25-1.58-.25-5-4.33-5-4.07 0-4.62 2.9-4.62 4.3 0 1.3.8 3.7 4.46 3.7 2.96 0 3.92-1.47 4.33-2.14l-2.9-.3c-.15.24-.63.73-1.43.73-1 0-1.36-.77-1.41-1.29Zm0-1.69h2.93c-.03-.53-.37-1.59-1.44-1.59-1.08 0-1.44 1.06-1.48 1.6Z" fill="#822127"/></svg>