<!-- by TradingView --><svg width="56" height="56" viewBox="0 0 56 56" xmlns="http://www.w3.org/2000/svg"><path fill="#F0F3FA" d="M0 0h56v56H0z"/><path fill-rule="evenodd" d="M11 23h8v9h-8v8h27.33a6.7 6.7 0 0 0 4.09-12 6.7 6.7 0 0 0-4.1-12H11v7Zm2-5v3h8v13h-8v4h25.57A4.56 4.56 0 0 0 43 33.54 4.8 4.8 0 0 0 39.39 29H30v-2h9.39A4.8 4.8 0 0 0 43 22.46 4.56 4.56 0 0 0 38.57 18H13Z" fill="#E40981"/><path d="M38.9 21c.61 0 1.1.46 1.1 1.03 0 .57-.49.97-1.1.97H27v9h11.9c.61 0 1.1.4 1.1.97S39.51 34 38.9 34H25V21h13.9Z" fill="#E40981"/></svg>