<!-- by TradingView --><svg width="56" height="56" viewBox="0 0 56 56" xmlns="http://www.w3.org/2000/svg"><path fill="#F0F3FA" d="M0 0h56v56H0z"/><path d="M28.55 19c-9.4 0-15.47 3.35-17.69 5.02 2.07-1.36 8.95-4.08 17.69-4.08 8.74 0 14.82 2.72 17.05 4.08C43.22 22.35 37.95 19 28.55 19Z" fill="#F9A11B"/><path fill-rule="evenodd" d="m47.27 25.85-.08.2a.1.1 0 0 1-.11.06.1.1 0 0 1-.08-.13l.2-.95c.01-.08.11-.13.19-.1l.38.07h3.65c.12 0 .32-.04.46-.07a.1.1 0 0 1 .12.1V26a.1.1 0 0 1-.06.09c-.06.02-.11-.02-.12-.08l-.01-.17a.4.4 0 0 0-.4-.38h-1.4a.4.4 0 0 0-.01.11v4.76c0 .2.15.37.34.37h.26a.1.1 0 0 1 .1.09.1.1 0 0 1-.1.1h-2.09a.1.1 0 0 1-.09-.1c0-.05.04-.1.1-.1h.15c.2 0 .33-.16.33-.36v-4.76l-.01-.1h-1.2a.57.57 0 0 0-.52.37ZM38.42 25H36.4c-.05 0-.1.05-.1.1 0 .06.05.1.1.1h.25c.19 0 .35.17.35.38v4.85c0 .2-.16.38-.35.38h-.26c-.04 0-.08.04-.08.1 0 .05.04.09.08.09h2.04c.05 0 .09-.04.09-.1 0-.05-.04-.1-.1-.1h-.15c-.19 0-.34-.16-.34-.36V28H40v2.44c0 .2-.15.37-.34.37h-.15c-.05 0-.1.04-.1.1 0 .05.05.09.1.09h2.03c.05 0 .09-.04.09-.1 0-.05-.04-.1-.09-.1h-.25c-.2 0-.29-.16-.29-.37v-4.85c0-.21.1-.38.29-.38h.25c.05 0 .09-.04.09-.1 0-.05-.04-.1-.1-.1h-2.02c-.05 0-.1.05-.1.1 0 .06.05.1.1.1h.15c.19 0 .34.17.34.37v1.93h-2.07v-1.93c0-.2.16-.37.34-.37h.15c.05 0 .1-.04.1-.1 0-.05-.05-.1-.1-.1ZM6.2 25H4.06c-.03 0-.06.03-.06.07 0 .04.03.07.06.07h.24c.17 0 .31.16.31.35v4.96c0 .2-.14.35-.3.35h-.22c-.05 0-.09.04-.09.1 0 .05.04.1.1.1h2.03c.9 0 1.87-.58 1.87-1.8 0-.96-.84-1.5-1.25-1.65.22-.17.67-.68.67-1.34 0-.96-.81-1.2-1.22-1.21Zm-.7 2.38v-1.94c0-.06.05-.12.11-.13.42-.03 1.09.18 1.09 1.23 0 .84-.42.98-.71.98h-.36c-.07 0-.12-.06-.12-.14Zm0 .49v2.23c0 .21.16.53.77.53.29 0 .86-.19.86-1.06 0-1.09-.66-1.7-1.33-1.7h-.3Zm11-2.87h-2.12c-.04 0-.07.04-.07.08s.03.08.07.08h.24c.2 0 .38.18.38.41v4.84c0 .23-.17.41-.38.41h-.23c-.05 0-.08.04-.08.1 0 .04.03.08.08.08h3.32c.15 0 .27-.12.28-.28l.08-.87c.01-.06-.03-.11-.08-.11-.04 0-.08.03-.09.08l-.04.22c-.06.3-.3.52-.58.52h-.96c-.24 0-.32-.21-.32-.48v-4.51c0-.23.05-.41.26-.41h.25c.04 0 .07-.04.07-.08s-.03-.08-.07-.08Zm3.91 0h-2.08c-.05 0-.09.04-.09.1 0 .04.04.09.09.09h.24c.2 0 .43.18.43.4v3.12c0 1.27.89 2.29 2.05 2.29h.2c1.17 0 2.11-1.02 2.11-2.29V25.6c0-.22.17-.4.37-.4h.13c.05 0 .09-.05.09-.1s-.04-.09-.09-.09h-1.74c-.05 0-.08.04-.08.1 0 .04.03.09.08.09h.2c.2 0 .37.18.37.4v3.5c0 .83-.62 1.5-1.4 1.5-.76 0-1.29-.67-1.29-1.5v-3.5c0-.22.07-.4.27-.4h.14c.05 0 .09-.05.09-.1s-.04-.09-.09-.09ZM9.93 31H8.26c-.03 0-.06-.03-.06-.07 0-.04.03-.08.06-.08h.07c.28 0 .53-.18.63-.47l1.95-5.28c.02-.06.07-.1.13-.1.05 0 .1.04.13.1l1.95 5.29c.1.28.35.46.63.46h.11c.04 0 .07.04.07.08s-.03.07-.07.07h-1.73c-.04 0-.07-.03-.07-.07 0-.04.03-.08.07-.08h.12c.02 0 .03-.02.03-.04l-1.43-4.27-1.33 4.04c-.05.13.04.27.17.27h.24c.03 0 .06.04.06.08s-.03.07-.06.07Zm32.14 0h1.74c.04 0 .07-.03.07-.07a.07.07 0 0 0-.07-.08h-.25c-.13 0-.22-.14-.18-.27l1.4-4.04 1.49 4.27c0 .02 0 .04-.03.04h-.13a.07.07 0 0 0-.07.08c0 .04.03.07.07.07h1.82c.04 0 .07-.03.07-.07a.07.07 0 0 0-.07-.08h-.12a.72.72 0 0 1-.66-.46l-2.04-5.3a.15.15 0 0 0-.14-.09.15.15 0 0 0-.13.1l-2.04 5.28a.71.71 0 0 1-.66.47h-.07a.07.07 0 0 0-.07.08c0 .04.03.07.07.07Zm-17.32-5.81h-.29c-.04 0-.08-.04-.08-.1 0-.05.04-.09.08-.09h2.28c.53-.01 1.76.24 1.76 1.39 0 .85-.57 1.43-1.1 1.78a23.9 23.9 0 0 0 1.74 2.31c.18.21.44.32.71.32h.1c.05 0 .09.04.09.1 0 .06-.04.1-.1.1h-.78c-.75 0-1.19-.52-1.32-.76l-1.16-1.73H26v1.87c0 .22.07.4.27.4h.32c.05 0 .1.05.1.11s-.05.11-.1.11h-2.11c-.06 0-.1-.05-.1-.11s.04-.11.1-.11h.27c.18 0 .25-.16.25-.36v-4.87c0-.2-.07-.36-.25-.36ZM26 28.02v-2.58c.75-.23 1.54.3 1.54 1.22 0 .91-.3 1.49-.84 1.49-.43 0-.65-.09-.7-.13Zm8.94-1.38v-1.3a.13.13 0 0 0-.1-.13c-.44-.07-1.3-.19-1.98-.19-.93 0-2.98.45-2.98 3.18 0 2.74 2.76 2.78 3.46 2.78.7 0 1.3-.17 1.6-.4V28.5c0-.17.13-.31.3-.31h.25c.05 0 .1-.04.1-.1 0-.05-.05-.1-.1-.1h-2.06c-.05 0-.09.05-.09.1 0 .06.04.1.1.1h.3c.2 0 .34.16.34.36v1.75c0 .1-.11.27-.44.27h-.5c-.76-.03-2.28-.64-2.28-2.79-.05-.8.28-2.4 2-2.4 1.43 0 1.85.78 1.9 1.25 0 .05.04.09.09.09.05 0 .09-.04.09-.1Z" fill="#263573"/></svg>