<!-- by TradingView --><svg width="56" height="56" viewBox="0 0 56 56" xmlns="http://www.w3.org/2000/svg"><path fill="#F0F3FA" d="M0 0h56v56H0z"/><path d="M37.1 25.23a21.47 21.47 0 0 1 6.44-2.21c.6-.1 1.14-.04 1.6.19.5.25.79.68.84 1.27.05.57.01 1.23-.12 1.97-.2 1.2-.46 2.85-.78 4.97-.27 1.79-.46 2.96-.56 3.51a2.7 2.7 0 0 1-.78 1.32c-.27.27-.72.45-1.34.53-1.49.2-2.84.5-4.03.92-.48.16-1.13.46-1.93.89-1.31.69-2.47 1.25-3.5 1.68a22.01 22.01 0 0 1-7.18 1.69c-2.55.16-4.99-.14-7.3-.88a22.7 22.7 0 0 1-9.39-5.9c-.08-.1-.1-.19-.03-.29l5.84-8.8c.04-.05.09-.06.15-.02l1.93 1.26c.09.05.16.04.21-.05l9.95-16.18c.08-.13.17-.13.25 0l9.58 14.1c.04.05.08.06.14.03Zm6.4 9.95c.1-.11.16-.24.18-.39L45.1 25c.1-.63-.14-1.03-.7-1.19-.34-.1-.86-.11-1.57-.05a3.9 3.9 0 0 0-2.3.99.62.62 0 0 0-.21.48c-.02 3.55-.08 6.92-.18 10.1-.02.38.16.62.54.7 1.16.24 2.1-.04 2.81-.84Zm-5.82-5.22c.07.7-.05.73-.36.1a64.8 64.8 0 0 0-1.47-2.84c-.08-.13-.18-.16-.3-.07l-.89.58c-.06.05-.09.1-.08.18l1.44 9.39c.03.24.16.3.36.16l.53-.36a.44.44 0 0 0 .2-.46l-.5-3.33c-.02-.13.04-.2.17-.19.1 0 .19.08.25.21l1.5 2.96c.06.1.13.14.24.13.19-.01.36-.06.53-.15a.2.2 0 0 0 .1-.2l-.58-10.6c-.01-.23-.12-.3-.32-.19l-.92.48a.4.4 0 0 0-.23.42l.33 3.78ZM15.86 33l.15-.06c.44-.18.75-.36.94-.55.97-.95 1.22-1.95.76-3a5.31 5.31 0 0 0-2.3-2.3c-.11-.07-.2-.05-.28.06l-5.03 7.58c-.04.07-.04.14.01.2.63.8 1.4 1.44 2.3 1.93a2 2 0 0 0 .82.21c.34.03.6 0 .78-.12 1.31-.76 1.88-2 1.71-3.72 0-.11.04-.19.14-.23Zm17.62-4.07c-.03-.16-.11-.2-.25-.12l-.83.5a.15.15 0 0 0-.08.17l.2 1.15c.02.16.1.2.24.11l.83-.5c.06-.04.09-.1.08-.16l-.2-1.15Zm-14.43 4.2a4.3 4.3 0 0 1-.36-.07 1.9 1.9 0 0 0-.94-.06c-.4.13-.7.39-.88.79-.21.48-.6 1.34-1.13 2.6-.6 1.44-.39 2.41.66 2.93.7.35 1.49.62 2.37.8.15.03.24-.03.27-.17.52-2.06 1.22-4.64 2.1-7.76.26-.94-.04-1.64-.92-2.1-.38-.2-.64-.3-.78-.34-.2-.05-.34.02-.42.2l-.35.7c-.09.2-.03.31.16.37.52.16.82.44.88.83.06.35-.08.75-.4 1.2-.06.07-.14.1-.26.09Zm12.89 1.19a.48.48 0 0 1-.09-.49c.31-.9.3-1.74-.01-2.56-.37-.95-1.08-1.27-2.12-.97-.55.16-1.02.37-1.4.65a.33.33 0 0 0-.15.31l.7 8.89c0 .11.06.17.17.17 1.03.01 1.9-.22 2.62-.69a2.7 2.7 0 0 0 1.27-2.26 4.4 4.4 0 0 0-1-3.05Zm-6.08-.2v6.61c0 .24.12.34.35.3l1.28-.2c.23-.03.34-.16.33-.4-.16-2.65-.3-5.3-.44-7.91-.03-.55-.25-.94-.68-1.18a.45.45 0 0 0-.57.07c-.42.39-.76.37-1.04-.05a.32.32 0 0 0-.25-.15c-.25-.02-.53.03-.84.16a.28.28 0 0 1-.28-.03l-.68-.45a.37.37 0 0 0-.25-.05c-.27.03-.45.28-.54.73-.62 3.07-1.2 6.04-1.74 8.9-.04.22.05.34.27.38l.82.14c.24.03.37-.06.41-.3l1.13-6.7c.04-.21.16-.3.38-.28l.11.01c.2.02.28.13.26.32l-.74 6.77c-.02.18.06.27.24.27h1.16c.22 0 .33-.1.33-.32.01-2.14.1-4.34.28-6.62.02-.2.13-.3.34-.27l.15.02c.14.01.2.09.2.22Zm8.1-2.5c-.04-.18-.13-.22-.28-.14l-.75.4c-.08.04-.12.1-.1.19l1.01 6.42c.03.18.12.22.28.14l.97-.49c.09-.04.12-.11.1-.2l-1.23-6.33Zm8.7-5.58h-.03a.45.45 0 0 0-.48.4l-.66 7.28c-.02.24.16.46.4.48h.04c.25.02.47-.16.49-.4l.65-7.27a.45.45 0 0 0-.4-.49Zm-26.84 3.5c-.14-.1-.25-.08-.35.06l-1.06 1.57c-.1.13-.07.25.07.34l.14.1a.7.7 0 0 0 .59.09.88.88 0 0 0 .52-.37l.4-.58c.13-.2.18-.4.14-.62a.7.7 0 0 0-.3-.5l-.15-.1Zm13.88 4.13a3.6 3.6 0 0 1-.18-1.6c.01-.1.07-.18.16-.23a.6.6 0 0 1 .54 0c.18.08.28.22.32.42.11.57.04 1.06-.22 1.47a.33.33 0 0 1-.33.16.32.32 0 0 1-.29-.22Zm-16.15-.62c-.19-.12-.34-.08-.46.11l-.86 1.42c-.12.19-.08.34.11.46l.04.01c.26.16.55.2.86.13.3-.07.53-.24.7-.5l.03-.07c.16-.27.2-.55.13-.85a1.1 1.1 0 0 0-.52-.7l-.03-.01Zm4.3 5.02a.12.12 0 0 1-.13.07c-.7-.06-.92-.54-.65-1.44.2-.7.5-1.29.91-1.78.12-.15.27-.19.46-.12.28.1.38.36.3.75-.22.91-.51 1.75-.9 2.52Zm12.41-2.64c-.18.01-.27.1-.25.29l.12 2.24c.01.18.1.27.29.26h.07c.27-.02.5-.14.67-.37.18-.24.26-.5.24-.82l-.03-.53a1.18 1.18 0 0 0-.33-.78.88.88 0 0 0-.7-.29h-.08Z" fill="#EE1D25"/></svg>