<!-- by TradingView --><svg width="56" height="56" viewBox="0 0 56 56" xmlns="http://www.w3.org/2000/svg"><path fill="#F0F3FA" d="M0 0h56v56H0z"/><path fill-rule="evenodd" d="M34.72 39.5c-5.38 5.17-12.12 7.04-16.82 4.12a9.44 9.44 0 0 1-3.56-4.12H8V39h38v.5H34.72Zm-.8 0c-5.07 4.58-11.25 6.17-15.6 3.46a8.93 8.93 0 0 1-3.18-3.46h18.78Zm-20.15-5h24.4a27.75 27.75 0 0 0 .4-.64L39.62 27h1.56l.52 3.27h.2l.58-3.27h1.46l-1.03 7h-1.54l-.76-3.43L40 34h-.9a28.17 28.17 0 0 1-.32.5H46v.5H8v-.5h5.15a17.8 17.8 0 0 1-.03-.5h-.9l2.51-7h2.07l.4 7h-1.72l.04-1.14h-1.15L14.05 34h-.31c0 .17.02.33.03.5Zm24.29-23.12c4.2 2.61 5.66 8.37 4.3 14.62h-.58c1.29-5.97-.12-11.46-4.13-13.96-5.8-3.6-14.82.4-20.15 8.93A26.28 26.28 0 0 0 15.04 26h-.57c.63-1.78 1.5-3.57 2.58-5.3 5.57-8.9 14.97-13.08 21.01-9.32Zm-18.54 8.24c1.34.27 4.5 1.22 6.37 2.83 1.47 1.26 1.82 2.44 2.05 3.2.14.46.24.77.5.84l-.12.51h-.5l-1.1 7h1.87l1.1-7h-.4l.12-.5a8.45 8.45 0 0 0 1.24-1.21c.68-.71 1.08-1.14 1.94-2.62.95-1.62 2.31-3.78 6.7-5.86-1.36-.32-4.52-.45-6.26 1.56-1.37 1.58-1.4 3.16-1.42 4.16-.02.58-.02.96-.29 1.02-.73.18-1.54-.5-1.2-2.5.03-.25.08-.5.12-.73.3-1.68.56-3.12-.35-4.81-.05.74-.25 2.35-.64 2.86-.48.63-.7 2.68.25 4.3.94 1.63.57 3.14-.25 3.14-.8 0-.85-1.07-.61-1.75.24-.69.46-1.63-1.3-3.19-1.75-1.56-5.97-1.98-7.82-1.25ZM8.94 27 8 34h2.49c.7-.08 2.13-.62 2.13-2.12 0-.82-.64-1.3-.96-1.43a1.9 1.9 0 0 0 1.17-1.84c0-1.15-1.14-1.55-1.71-1.61H8.94Zm1.28 2.59.1-1.1c.45 0 .61 0 .61.47 0 .37-.47.57-.71.63Zm-.36 3.06.16-1.56c.66 0 .91 0 .91.66 0 .54-.71.82-1.07.9Zm5.7-1.06.06-2.16h-.26l-.62 2.16h.82ZM17.58 34h1.47l.59-3.43.77 3.43h1.53l1.03-7h-1.45l-.6 3.27h-.18L20.22 27h-1.57l-1.07 7Zm5.02-.62c.12.16.62.47 1.6.47 1.24 0 2.36-.56 2.36-2.26 0-.96-.46-1.35-.87-1.7-.31-.26-.6-.5-.6-.95.02-.16.18-.46.7-.46.53 0 .88.3 1 .46l.18-1.51c-.16-.14-.7-.4-1.59-.4-1.1 0-2 .97-2 2.05 0 .87.72 1.63 1.09 1.9.17.14.53.48.53.78 0 .37-.15.62-.8.62-.51 0-1.02-.41-1.22-.62l-.38 1.62Zm8.25.62c-.98 0-1.48-.32-1.6-.48l.38-1.67c.2.22.7.64 1.22.64.65 0 .8-.26.8-.64 0-.3-.36-.65-.53-.79-.37-.28-1.09-1.07-1.09-1.96 0-1.1.9-2.1 2-2.1.88 0 1.43.27 1.6.4l-.2 1.56a1.25 1.25 0 0 0-.98-.47c-.53 0-.69.31-.7.47 0 .47.28.7.6.98.4.35.86.75.86 1.74 0 1.75-1.12 2.32-2.36 2.32Zm12.78-.48c.12.16.61.48 1.6.48 1.23 0 2.36-.57 2.36-2.32 0-.99-.46-1.39-.87-1.74-.32-.27-.6-.51-.6-.98.02-.16.17-.47.7-.47.53 0 .88.31.99.47L48 27.4c-.16-.14-.71-.41-1.59-.41-1.1 0-2 1-2 2.1 0 .9.72 1.68 1.08 1.96.18.14.54.49.54.8 0 .37-.16.63-.8.63-.52 0-1.03-.42-1.22-.64l-.38 1.67Zm-5.15-2.56C38.16 32.9 36.93 34 35.46 34c-1.48 0-2.18-2.03-1.86-3.96.32-1.94 1.61-3.04 3.02-3.04 1.4 0 2.18 2.03 1.86 3.96Zm-1.83-.14c-.2.98-.58 1.5-.97 1.46-.39-.05-.46-1.12-.26-2.1s.6-1.5.97-1.46c.37.05.46 1.12.26 2.1ZM11.37 35.5h-1.8l-.6 1.06h.33c.08-.37.33-.62.45-.7h.39l-.81 2.41-.3.23h1.13l-.2-.23.74-2.41h.28c.22 0 .22.46.19.7h.2V35.5Zm19.03 0h-1.8l-.49 1.06h.22c.08-.37.35-.7.53-.7h.3l-.8 2.41-.3.23h1.12l-.2-.23.74-2.41H30c.22 0 .22.46.2.7h.2V35.5Zm11.82 0h1.8v1.06h-.2c.02-.24.02-.7-.2-.7h-.28l-.73 2.41.2.23h-1.13l.3-.23.8-2.41h-.3c-.17 0-.45.33-.53.7h-.21l.48-1.06Zm-30.42 0h1.86l-.2 1.04h-.27l.05-.28c.05-.22-.12-.44-.34-.44h-.53l-.23.99h.42l.38-.5-.33 1.22-.09-.45h-.44l-.28 1.16.04.03h.31c.15-.02.45-.06.77-.7h.22l-.33.91c.22-.08.5-.33.62-.45l1.48-2.53h.26v2.71l.35.29h-1.15l.32-.29v-.45h-.87a.97.97 0 0 0-.11.27c-.02.2.1.4.15.47H10.8l.41-.31.64-2.37-.05-.32Zm24.74 0h-1.86l.06.32-.65 2.37-.4.31h2l.34-.92h-.23c-.31.63-.62.67-.77.69H34.72l-.04-.03.28-1.16h.45l.08.45.34-1.22-.39.5h-.42l.24-.99h.53c.22 0 .38.22.34.44l-.06.28h.27l.2-1.04Zm-21.85.85v1.19h-.75c.22-.39.55-.9.75-1.19Zm2.85 2.15h-1.08l.4-.3.68-2.38-.12-.32h.95l-.3.32-.7 2.38.17.3Zm14.96 0h1.08l-.17-.3.7-2.38.3-.32h-.95l.12.32-.68 2.38-.4.3Zm-13.88 0h-.75l.3-.25.65-2.75h.52l.6 2.1.47-1.83-.22-.27h.75l-.3.27-.7 2.73h-.3l-.7-2.33-.54 2.08.22.25Zm2.8-2.63-.15-.37h1.32c.2 0 .58.2.58.93 0 1.54-1.05 2.02-1.57 2.07h-1.12l.26-.27.68-2.36Zm-.15 2.27.68-2.4c.2-.1.77-.22.5 1.06-.27 1.29-.72 1.5-.9 1.5a.3.3 0 0 1-.28-.16Zm22.84-2.64.15.37-.67 2.36-.27.27h1.12c.53-.05 1.58-.53 1.58-2.07 0-.73-.39-.92-.58-.93H44.1Zm.69.24-.68 2.4a.3.3 0 0 0 .27.15c.19 0 .64-.2.9-1.49.28-1.28-.29-1.16-.5-1.06Zm-20.97-.24h1.07l-.42.3-.48 1.8c-.03.22.01.67.37.67.45 0 .58-.39.7-.76l.48-1.7-.11-.31h.83l-.36.3-.64 2.15a.94.94 0 0 1-.9.55c-.7 0-1.04-.26-.79-1.27L24 35.8l-.17-.3Zm1.76 3 .32-.95h.21c0 .89 1.16.97 1.16.31 0-.34-.25-.53-.49-.72-.22-.18-.44-.35-.44-.63 0-.58.32-1.01.83-1.01.42 0 .57.16.6.24l.44-.24-.4 1.08-.1-.1c0-.77-.88-.9-.88-.3 0 .3.24.52.48.73.23.2.46.4.46.7 0 .56-.4.89-1.04.89-.5 0-.7-.23-.74-.34l-.25.34h-.16Zm10.93-.95-.32.95h.15l.26-.34c.04.11.24.34.74.34.63 0 1.04-.33 1.04-.9 0-.28-.23-.49-.46-.7-.24-.2-.48-.41-.48-.72 0-.6.78-.77.87.3l.1.1.4-1.08-.43.24c-.03-.08-.19-.24-.6-.24-.52 0-.83.43-.83 1.01 0 .28.21.45.44.63.24.19.48.38.48.72 0 .66-1.16.58-1.15-.3h-.21Zm-6.49.95h1.22l-.3-.26.3-1.22h.26c.13 0 .36.09.24.53l-.14.52c-.02.14.01.43.27.43h.56c-.17-.04-.45-.2-.27-.54.22-.41.28-1.07-.35-1.07.31-.02.92-.2.92-.75s-.38-.66-.57-.64h-1.42l.2.31-.67 2.43-.25.26Zm1.56-2.76-.26 1.06c.28 0 .85-.13.85-.66 0-.41-.4-.44-.59-.4Zm9.32 2.55h-.65l-.05-.09.7-2.38.3-.32h-.95l.12.32-.69 2.38-.4.3h2.19l.37-.95h-.2c-.1.24-.38.74-.74.74Zm5.98-.09a.3.3 0 0 1-.3.3.3.3 0 0 1-.3-.3c0-.16.13-.3.3-.3.17 0 .3.14.3.3Z" fill="#1F7D4F"/></svg>