<!-- by TradingView --><svg width="56" height="56" viewBox="0 0 56 56" xmlns="http://www.w3.org/2000/svg"><path fill="#F0F3FA" d="M0 0h56v56H0z"/><path fill-rule="evenodd" d="M14 12h28v32H14V12Zm1 1h26v30H15V13Zm25 28.69c0 .17-.15.31-.33.31H16.55a.53.53 0 0 1-.55-.52V14.52c0-.29.24-.52.55-.52h21.27c1.2 0 2.18.93 2.18 2.07v6.63c-.06.32-.3 1.04-.85 1.28.28.17.85.69.85 1.38v6.53c0 1.14-.98 2.11-2.18 2.11H25.55a.57.57 0 0 1-.55-.56v-2.96c0-.29.25-.48.55-.48h9.95c.3 0 .5-.27.5-.56v-2.9c0-.29-.2-.54-.5-.54h-9.95c-.3 0-.55-.2-.55-.5v-2.92c0-.29.25-.52.55-.52h9.9c.3 0 .55-.23.55-.51V18.7c0-.28-.24-.7-.55-.7h-14.9c-.3 0-.55.42-.55.7v18.74c0 .29.24.56.55.56h19.12c.18 0 .33.1.33.27v3.42Z" fill="#F54808"/></svg>