<!-- by TradingView --><svg width="56" height="56" viewBox="0 0 56 56" xmlns="http://www.w3.org/2000/svg"><path fill="#F0F3FA" d="M0 0h56v56H0z"/><path fill-rule="evenodd" d="M5 34.56v-12.7L28.05 14 51 21.86v12.7L28.05 42 5 34.56Zm1-.47V22.63L28.05 15 50 22.63v11.46L28.05 41 6 34.09Z" fill="#030067"/><path d="M46.5 22h-37L28 16l18.5 6ZM46.5 34h-37L28 40l18.5-6Z" fill="#030067"/><path fill-rule="evenodd" d="M10.78 24H7v8h3.72c1.26 0 2.28-1.1 2.28-2.45 0-.7-.28-1.35-.73-1.8.36-.4.58-.94.58-1.53 0-1.23-.93-2.22-2.07-2.22Zm-.3 1.66H8.61v1.55h1.85c.4 0 .72-.34.72-.77s-.32-.78-.72-.78Zm.11 2.9H8.62v1.92h1.97c.5 0 .9-.43.9-.96s-.4-.96-.9-.96ZM32 32h-1.7v-8H32v8Zm-6.69 0H30v-1.6h-3V24h-1.7v8Zm22 0H49v-8h-1.7v8Zm-14.33-8h3.98a2.23 2.23 0 0 1 1.57 3.75A2.46 2.46 0 0 1 36.9 32h-3.92v-8Zm1.7 1.66h1.96c.42 0 .76.35.76.78 0 .43-.34.77-.76.77h-1.96v-1.55Zm0 2.9h2.08c.53 0 .95.43.95.96s-.42.96-.95.96h-2.08v-1.92Zm-20 3.44H12.7l2.84-8h1.78l2.81 8h-2.05l-.45-1.5h-2.48l-.48 1.5Zm1.75-5.56.74 2.5h-1.53l.79-2.5ZM24.46 24H19v1.71h2V32h1.7v-6.29h1.76V24Zm22.42 4c0 2.2-1.66 4-3.7 4-2.05 0-3.71-1.8-3.71-4s1.66-4 3.7-4c2.05 0 3.71 1.8 3.71 4Zm-1.83 0c0 1.39-.84 2.51-1.88 2.51-1.03 0-1.87-1.12-1.87-2.51 0-1.39.84-2.51 1.87-2.51 1.04 0 1.88 1.12 1.88 2.51Z" fill="#F80004"/></svg>