<!-- by TradingView --><svg width="56" height="56" viewBox="0 0 56 56" xmlns="http://www.w3.org/2000/svg"><path fill="#F0F3FA" d="M0 0h56v56H0z"/><path fill-rule="evenodd" d="M42.37 42.38c.42-.41.63-.9.63-1.49V15.11c0-.58-.2-1.08-.63-1.5a2.08 2.08 0 0 0-1.5-.61H15.13c-.6 0-1.1.2-1.51.62-.42.41-.63.9-.63 1.49v25.78c0 .58.2 1.08.63 1.5.41.4.92.61 1.5.61h25.73c.6 0 1.1-.2 1.51-.62ZM40.8 34.8c.14-.14.21-.3.21-.49V15.69c0-.2-.07-.35-.21-.49a.7.7 0 0 0-.5-.2H15.7a.7.7 0 0 0-.5.2.65.65 0 0 0-.21.49v18.62c0 .2.07.35.21.49.14.13.3.2.5.2H40.3a.7.7 0 0 0 .5-.2Z" fill="#1B1819"/><path d="M29.94 19.76a1 1 0 0 0-.82-.94c-.46-.11-.9-.04-1.32.2-.39.24-.68.58-.87 1a4.55 4.55 0 0 0-.4 2.3c.04.46.31.74.81.83.55.11 1.03.02 1.44-.26.37-.25.65-.62.84-1.13.02-.04.05-.06.1-.04l1.83.56c.1.03.14.1.1.2-.32.64-.75 1.18-1.29 1.61a4 4 0 0 1-1.92.83c-.58.09-1.16.1-1.73.04-.6-.06-1.1-.2-1.47-.42-.4-.23-.73-.59-.97-1.07a2.82 2.82 0 0 1-.27-1.23c-.01-1.15.28-2.2.88-3.16a4.23 4.23 0 0 1 2.17-1.73 6.19 6.19 0 0 1 2.88-.3c1.3.15 2.07.86 2.33 2.16.02.13-.03.21-.17.24l-2.03.4c-.07 0-.11-.02-.12-.09Z" fill="#40B5B3"/><path d="M34.9 23.09c.57.2 1.08.16 1.54-.11.42-.24.75-.64.98-1.18.03-.07.09-.1.16-.07l1.88.57c.05.02.06.05.04.1A4.25 4.25 0 0 1 36 24.95a5.9 5.9 0 0 1-2.47-.2 2.23 2.23 0 0 1-1.27-.97c-.3-.46-.45-.98-.45-1.55 0-1.24.32-2.32.96-3.24a4.48 4.48 0 0 1 3.3-1.93 4.84 4.84 0 0 1 2.62.26c.8.37 1.27 1.06 1.38 2.05 0 .03 0 .04-.03.05l-2.16.42c-.08.02-.13-.02-.13-.1a.93.93 0 0 0-.6-.83c-.33-.16-.7-.18-1.08-.07-.63.19-1.08.6-1.35 1.23-.23.55-.36 1.1-.4 1.64-.06.76.13 1.22.58 1.38ZM23.48 21.1a3.52 3.52 0 0 0-.62-.31c-.11-.05-.11-.1 0-.15.82-.3 1.31-.86 1.5-1.68.08-.37.05-.7-.08-1.01a1.4 1.4 0 0 0-.7-.73c-.3-.15-.75-.22-1.37-.22l-4.49.01c-.05 0-.07.02-.08.07L16 24.89c-.01.07.02.1.09.1 2 .02 3.4.01 4.22 0 .36-.02.8-.06 1.35-.15a2.67 2.67 0 0 0 2.31-2.32c.05-.35.02-.65-.08-.9a1.13 1.13 0 0 0-.41-.52Zm-4.01-1.04.28-1.37c.01-.05.04-.07.1-.08.57-.01 1.05 0 1.45.03.28.02.43.16.47.4a.9.9 0 0 1-.2.73c-.17.2-.4.32-.69.34-.44.03-.89.05-1.34.04-.06 0-.08-.03-.07-.1Zm-.35 1.66c0-.05.04-.07.09-.07.55-.01 1.08 0 1.57.03.4.02.63.19.65.51.03.34-.08.6-.32.8-.22.17-.5.27-.87.28h-1.36c-.05 0-.08-.03-.07-.09l.31-1.46Z" fill="#40B5B3"/><path fill-rule="evenodd" d="M27.51 32.54c.37-.2.74-.5 1.1-.94.05-.05.08-.04.08.03v.2c-.02.28.05.52.22.71.2.22.5.35.92.39a3.3 3.3 0 0 0 3.08-1.75c.1-.2.14-.2.12.03-.06.5.05.92.33 1.24.3.34.7.5 1.25.5a3.17 3.17 0 0 0 1.7-.49h.04c.06 0 .06.02.01.08-.03.03-.07.17-.1.26l-.01.06a.1.1 0 0 0 .01.1.1.1 0 0 0 .1.04h2.91c.27 0 .45-.12.55-.34l.1-.32c.09-.22 0-.34-.25-.34h-.88c-.11 0-.16-.04-.14-.14.02-.1.1-.33.14-.45.18-.54.66-1.77 1.2-3.14a.17.17 0 0 0-.03-.18.21.21 0 0 0-.17-.09h-1.42a.17.17 0 0 0-.14.08c-.06.08-.21.43-.22.48-.04.18-.1.18-.18.02-.18-.36-.5-.54-.95-.58-1.5 0-2.59.79-3.27 1.82-.05.07-.07.06-.07-.02l.01-.34c.01-.12 0-.26-.03-.41-.14-.7-.59-1.06-1.35-1.07-.62 0-1.23.2-1.82.59-.13.08-.16.05-.1-.08l.93-2.16c.07-.18.01-.28-.2-.3-.28-.02-.7 0-1.23.04-.27.02-.46.18-.58.46l-1.86 4.29c-.24.56-.5.84-.78.83-.19 0-.29-.1-.3-.28a1.4 1.4 0 0 1 .12-.7l.38-.92.58-1.38a.24.24 0 0 0-.02-.24.28.28 0 0 0-.24-.13c-.94-.07-1.46.03-1.56.29l-.16.4c-.38.96-.72 1.8-.9 2.17-.2.42-.51.65-.96.7-.31.03-.55-.02-.71-.16-.18-.15-.21-.37-.1-.66l.07-.17c.16-.39.49-1.18.88-2.06.05-.13.08-.23.07-.3-.03-.13-.12-.21-.27-.21h-2.67c-.22 0-.28-.08-.2-.26l.12-.2c.1-.24.28-.36.55-.36h3.03c.2 0 .38-.05.53-.16.16-.1.27-.24.33-.41l.01-.04c.14-.38-.01-.57-.44-.57h-5.1c-.2 0-.35.09-.43.26l-.84 1.6c-.03.07-.1.14-.18.14h-1.37c-.35 0-.58.12-.68.43l-.03.08c-.1.3.01.49.35.49h1.37c.01 0 .02 0 0 .02l-1.61 3.8c-.03.05-.02.1.01.14.03.04.07.04.12.04H18c.21 0 .36-.06.44-.25l1.48-3.47c.08-.19.23-.28.46-.28h.76c.23 0 .3.1.23.3-.16.46-.45 1.23-.69 1.78-.2.49-.29.85-.24 1.1.07.38.33.63.78.75.38.1.8.1 1.23-.04a4.95 4.95 0 0 0 1.91-1.06.05.05 0 0 1 .05 0c.02 0 .03.01.04.03.1.5.4.82.93.96.68.2 1.4.1 2.13-.28Zm8.01-2.5c-.45.6-.5 1.28-.1 1.53.39.25 1.07-.03 1.52-.63.44-.6.49-1.29.1-1.54-.4-.25-1.07.04-1.52.63Zm-5.85 0c-.44.6-.48 1.28-.1 1.53.4.25 1.07-.04 1.51-.64.44-.6.48-1.28.1-1.53-.4-.25-1.07.04-1.51.64Z" fill="#40B5B3"/><path d="M28.5 38.52c.02.35.1.62.24.8.16.22.39.25.67.1.08-.04.15-.16.23-.35.04-.08.09-.11.16-.1l.27.07c.08.02.1.07.07.16-.15.5-.45.76-.9.8-.44.03-.78-.16-1.02-.58a1.83 1.83 0 0 1-.22-.89c0-.35.06-.65.18-.9.23-.43.56-.64 1-.63.45.01.76.26.94.75.03.09 0 .14-.07.16l-.27.08c-.07.02-.12 0-.15-.08-.1-.19-.18-.3-.26-.34-.28-.14-.5-.1-.67.13-.13.2-.2.47-.2.82ZM19.4 37h-.3a.1.1 0 0 0-.1.1v.3c0 .06.04.1.1.1h.3a.1.1 0 0 0 .1-.1v-.3a.1.1 0 0 0-.1-.1ZM30.89 37h-.28a.11.11 0 0 0-.11.12v.26c0 .07.04.12.1.12h.28c.06 0 .11-.05.12-.11v-.27a.11.11 0 0 0-.11-.12ZM37.42 37h-.34a.08.08 0 0 0-.08.08v.34c0 .04.04.08.08.08h.34c.05 0 .08-.04.08-.09v-.33a.08.08 0 0 0-.08-.08ZM22.6 37.72l.16.03c.06.02.1.06.12.12.03.11.03.2 0 .27-.03.05-.07.07-.11.07h-.14c-.07 0-.11.04-.11.12v1c0 .05.02.1.06.12.04.03.09.05.14.05.05 0 .1.03.14.07.06.07.07.15.05.25-.01.06-.05.1-.1.12-.53.17-.8-.03-.8-.6l-.01-.86c0-.08-.01-.16-.07-.21-.17-.16-.24-.28-.2-.38.02-.06.07-.1.12-.13.13-.04.18-.16.15-.35 0-.06.01-.11.06-.14l.38-.25c.06-.04.09-.02.1.05.01.15 0 .32-.03.52-.02.09.01.13.1.13ZM38.57 38h.08c.12 0 .18.07.18.2-.01.19-.08.26-.21.21-.08-.03-.12 0-.12.1v.91c0 .07.03.1.09.1.1 0 .18.05.22.14.09.17.04.27-.13.31-.45.1-.68-.08-.68-.55v-.86c0-.06 0-.1-.05-.12a.17.17 0 0 0-.05-.02c-.06-.01-.1-.05-.11-.12-.03-.17.02-.28.15-.32.05-.02.06-.06.06-.12v-.16c0-.06.04-.1.08-.13l.35-.22c.04-.02.06-.01.06.04v.53c0 .06.03.08.08.08Z" fill="#40B5B3"/><path fill-rule="evenodd" d="M16 39.87v-.9c0-.07 0-.1.05-.1a4.28 4.28 0 0 0 .8-.07.66.66 0 0 0 .44-.43c.05-.13.06-.36.05-.68a.72.72 0 0 0-.2-.46c-.12-.13-.25-.22-.4-.23h-1.18c-.06 0-.09.04-.09.12v2.74c0 .1.04.14.12.14h.27c.07 0 .14-.04.14-.13Zm.05-2.4c-.06 0-.08.04-.08.1l-.01.68c0 .07.02.1.08.1l.4.01a.4.4 0 0 0 .3-.1.36.36 0 0 0 .12-.28v-.1c0-.1-.04-.2-.12-.28a.41.41 0 0 0-.3-.12h-.4Z" fill="#40B5B3"/><path d="M18.01 38.2c0 .03.01.05.04.06.02 0 .04 0 .05-.02.17-.22.36-.3.56-.2.06.02.08.07.07.14l-.05.28c-.02.07-.05.1-.12.06l-.07-.03a.24.24 0 0 0-.26.02.3.3 0 0 0-.13.26v1.11c0 .08-.04.12-.11.12h-.26c-.08 0-.11-.04-.11-.12v-1.79c0-.06.02-.09.08-.09h.22c.06 0 .1.04.1.1v.1ZM19.37 38h-.27c-.06 0-.1.05-.1.1v1.8c0 .05.05.1.1.1h.27c.06 0 .1-.05.1-.1v-1.8c0-.05-.05-.1-.1-.1ZM20.6 38.18l.09-.08a.24.24 0 0 1 .1-.06c.35-.08.58-.03.71.16.1.15.15.42.15.82v.87c0 .07-.04.11-.1.11h-.28c-.07 0-.1-.04-.1-.12l-.03-1.17c0-.23-.1-.32-.3-.3l-.03.01a.32.32 0 0 0-.23.13.45.45 0 0 0-.1.28v1.02c0 .1-.05.14-.14.14h-.23c-.07 0-.11-.04-.11-.12v-1.7c0-.06.03-.1.08-.12.16-.06.3-.02.4.12.04.05.07.05.12.01ZM32.06 38.12c.17-.11.33-.15.5-.1.07.02.1.07.08.15l-.05.24c-.01.08-.06.11-.13.09a1.05 1.05 0 0 0-.1-.03.29.29 0 0 0-.26.08c-.08.07-.1.16-.1.27v1.07c0 .07-.05.11-.12.11h-.25c-.08 0-.11-.04-.11-.13v-1.73c0-.05.02-.08.06-.1a.37.37 0 0 1 .35.08c.04.03.09.04.13 0ZM33.26 39c0 .14.02.24.04.33.03.1.09.16.17.21.08.05.17.06.26.03.11-.03.19-.1.23-.2.04-.1.1-.13.2-.11l.16.03c.1.02.13.08.1.18-.07.2-.17.33-.29.4-.35.17-.66.18-.94.01-.27-.17-.42-.45-.43-.86 0-.4.12-.7.4-.88.26-.18.57-.19.93-.03.13.06.23.18.3.38.04.1.01.16-.08.18l-.16.04c-.1.03-.16 0-.2-.1a.34.34 0 0 0-.24-.18.32.32 0 0 0-.26.04.36.36 0 0 0-.16.22c-.02.08-.03.19-.03.32ZM37.37 38h-.3c-.04 0-.07.04-.07.09v1.82c0 .05.03.09.08.09h.3c.03 0 .07-.04.07-.09V38.1c0-.05-.04-.09-.08-.09ZM39.7 38.36c-.34.13-.33.24.02.33.13.04.3.1.54.16.18.06.3.16.36.32.07.15.05.31-.03.48-.1.19-.28.3-.54.34-.22.03-.44 0-.66-.08a.77.77 0 0 1-.4-.4c-.02-.05 0-.08.05-.1.26-.09.44-.05.54.13.03.05.08.09.13.1a.4.4 0 0 0 .4-.06c.06-.04.08-.1.06-.18-.01-.07-.06-.11-.12-.13-.26-.05-.46-.1-.6-.16a.72.72 0 0 1-.35-.3.46.46 0 0 1-.01-.43.5.5 0 0 1 .26-.27c.33-.15.65-.15.96 0 .07.03.16.14.26.32.03.05.01.09-.04.1-.18.05-.3.05-.36.01-.22-.15-.37-.21-.47-.18ZM30.9 38h-.3a.1.1 0 0 0-.1.1v1.8c0 .05.05.1.1.1h.3a.1.1 0 0 0 .1-.1v-1.8a.1.1 0 0 0-.1-.1ZM36.06 39.82c-.25.17-.47.22-.67.15-.21-.08-.33-.27-.36-.59-.03-.24-.04-.66-.03-1.28 0-.06.04-.1.1-.1h.3c.06 0 .1.04.1.11l.01 1.22c0 .23.11.32.32.27h.01c.21-.05.31-.18.32-.4l.02-1.09c0-.07.03-.11.1-.11h.26c.06 0 .09.04.09.11v1.76c0 .06-.03.1-.08.1a.46.46 0 0 1-.36-.14c-.04-.04-.09-.04-.13 0Z" fill="#40B5B3"/><path fill-rule="evenodd" d="M23.5 39.21a.13.13 0 0 1 .12-.08h.85c.23 0 .24-.02.21-.34-.04-.4-.24-.7-.65-.77-.4-.07-.7.06-.9.4-.16.32-.18.68-.03 1.07.1.26.29.43.58.49.34.07.63-.04.89-.34.1-.12.07-.2-.07-.24a2.2 2.2 0 0 0-.05-.02c-.12-.04-.23 0-.32.1-.22.25-.8.08-.63-.27Zm.01-.43c0 .03.02.05.05.05l.6-.02c.03 0 .05-.02.05-.06v-.04c0-.1-.04-.18-.1-.24a.3.3 0 0 0-.24-.1h-.04a.3.3 0 0 0-.23.11.36.36 0 0 0-.09.26v.04Z" fill="#40B5B3"/><path d="M25.31 39.8c.3.26.65.27 1.05.03.06-.04.1-.03.16.01.11.1.24.15.37.13.07-.01.11-.05.11-.11v-2.72c0-.07-.04-.14-.12-.14h-.3c-.07 0-.11.07-.11.15v.97c0 .03-.02.05-.05.07a.08.08 0 0 1-.09-.01c-.3-.23-.61-.24-.95-.05-.25.15-.38.42-.38.82 0 .38.1.67.31.85Zm.68-.1c-.26 0-.47-.32-.47-.7 0-.39.22-.7.48-.7.27 0 .48.32.47.7 0 .39-.21.7-.48.7Z" fill="#40B5B3"/></svg>