<!-- by TradingView --><svg width="56" height="56" viewBox="0 0 56 56" xmlns="http://www.w3.org/2000/svg"><path fill="#F0F3FA" d="M0 0h56v56H0z"/><path fill-rule="evenodd" d="M27.05 22.59 27.11 10 12.9 18.15l11 6.25 3.16-1.81Zm-1.47-.73-.26-7.7-3.16 1.82 3.42 5.88Zm-8.16-3.16 3.16-1.82L24 22.77l-6.58-4.07ZM23 26l-11-6.1v16.2L23 30v-4Zm-1.67 1L15 23.6v3.5l6.33-.1ZM15 32.6v-3.5l6.33-.1L15 32.6ZM27.11 46l-.06-12.59-3.16-1.81-11 6.25L27.1 46Zm-1.8-4.17.27-7.7-3.42 5.9 3.16 1.8Zm-4.73-2.71-3.16-1.82L24 33.23l-3.42 5.89Zm8.37-16.53L28.89 10l14.22 8.15-11 6.25-3.16-1.81Zm1.47-.73.26-7.7 3.16 1.82-3.42 5.88Zm8.16-3.16-3.16-1.82L32 22.77l6.58-4.07ZM28.88 46l.07-12.59 3.16-1.81 11 6.25L28.9 46Zm1.8-4.17-.26-7.7 3.42 5.9-3.16 1.8Zm4.74-2.71 3.16-1.82L32 33.23l3.42 5.89ZM33 26l11-6.1v16.2L33 30v-4Zm1.67 1L41 23.5V27h-6.33ZM41 32.5V29h-6.33L41 32.5Z" fill="#AA8443"/></svg>