<!-- by TradingView --><svg width="56" height="56" viewBox="0 0 56 56" xmlns="http://www.w3.org/2000/svg"><path fill="#053A79" d="M0 0h56v56H0z"/><path d="m41.14 30.01.15-.43c.12-.36 0-.53-.39-.51-2.05.1-3.48.12-4.3.06-1.25-.1-2.07-.67-2.44-1.72a6.97 6.97 0 0 1-.14-2.24l.01-.36c.01-.53.3-.8.85-.8h.03c.56.02.84.3.84.83v2c0 .24.08.44.25.6.17.17.37.26.6.26h3.76c.24 0 .45-.09.63-.26a.85.85 0 0 0 .26-.63v-1.97c.01-.55.3-.83.87-.84h.03c.56 0 .84.29.84.83v3.96c.03.94-.1 1.6-.36 2.01-.3.45-.7.78-1.21.98-.33.14-.82.2-1.47.2-1.95.02-3.62.02-5.01 0-.43-.02-.65-.25-.66-.7l.02-.18c.06-.35.27-.53.65-.53l5.46-.02c.37 0 .61-.18.73-.54Zm4.68-.16c.01.2.1.36.24.5.14.13.32.2.52.2l4.64.02c.4 0 .66.25.78.74v.02c-.12.4-.35.6-.7.6-2.73.09-4.42.1-5.08.01a2.57 2.57 0 0 1-1.83-1.13c-.3-.4-.42-1.03-.38-1.88l.01-4.14c0-.54.3-.8.88-.79h.04c.57.04.86.34.85.9-.02 2.43 0 4.08.03 4.95Zm-33.09-1.79c-.02 0-.02-.03-.02-.05 0-.03 0-.05.02-.06.58-.6.78-1.29.6-2.07a2.27 2.27 0 0 0-1.4-1.63A4.67 4.67 0 0 0 10.2 24H5.76c-.2 0-.37.08-.52.23a.74.74 0 0 0-.22.52A243.35 243.35 0 0 0 5 31.23a.76.76 0 0 0 .74.75c1.3.02 2.79.02 4.45.02.77 0 1.34-.08 1.71-.24a2.26 2.26 0 0 0 1.41-1.63 2.1 2.1 0 0 0-.59-2.06Zm-5.97 2.2c-.02-.28-.03-1.04-.03-2.26 0-1.23.01-1.99.04-2.27 0-.1.06-.15.16-.15l3.93.02c.36 0 .6.17.75.5.06.15.09.23.08.25-.1.54-.37.83-.82.85-.28.02-.92.02-1.95 0-.28 0-.52.06-.72.19a.7.7 0 0 0-.35.6c0 .26.12.46.34.61.2.14.45.2.73.2 1.02-.02 1.67-.01 1.94 0 .46.03.73.32.83.86l-.1.25a.75.75 0 0 1-.74.5H6.92c-.1 0-.15-.05-.16-.16ZM22.73 28c0 .52-.34.78-1.03.79-1.71.02-3.21.01-4.5-.02-.4-.01-.56.18-.5.58l.1.47c.07.38.31.58.71.58l4.44.02a.8.8 0 0 1 .58.24c.16.16.25.36.26.59l-.02.1c-.11.4-.38.6-.8.61-2.53.04-4.04.05-4.53.02-1.01-.05-1.74-.52-2.19-1.4-.19-.38-.27-1.01-.25-1.9a26.93 26.93 0 0 0 0-1.36c-.02-.89.06-1.52.25-1.9a2.44 2.44 0 0 1 2.18-1.4c.5-.03 2-.02 4.54.02.42 0 .68.2.8.61l.02.1a.87.87 0 0 1-.84.82l-4.44.03c-.4 0-.64.2-.72.58l-.08.47c-.07.4.1.6.5.58 1.28-.03 2.78-.04 4.49-.02.69 0 1.03.27 1.03.79Zm8.2 1.37c-.1-.09-.09-.16.03-.2.89-.38 1.43-1 1.63-1.89a2.4 2.4 0 0 0-.71-2.36c-.6-.6-1.24-.9-1.9-.91a383.4 383.4 0 0 0-5.28 0c-.2 0-.36.07-.5.21a.7.7 0 0 0-.2.5v6.47c0 .36.17.6.5.72.2.07.33.1.4.09.54-.06.8-.35.81-.89l.02-1.51c0-.1.05-.14.14-.14h2.58c.1 0 .19.03.26.1l2.44 2.2c.31.28.72.32 1.22.1l.03-.02c.31-.4.33-.76.06-1.07-.14-.16-.65-.62-1.53-1.4Zm-5.2-1.58v-2.16c0-.08.04-.12.12-.12h3.7c.37 0 .7.12.96.33.27.2.4.46.4.76v.26c0 .3-.14.55-.4.76-.27.2-.6.31-.97.3h-3.7c-.08 0-.12-.05-.12-.13Z" fill="#fff"/></svg>