<!-- by TradingView --><svg width="56" height="56" viewBox="0 0 56 56" xmlns="http://www.w3.org/2000/svg"><path fill="#F0F3FA" d="M0 0h56v56H0z"/><path fill-rule="evenodd" d="M40.8 27.52c.89.14 1.67.48 2.33 1.04A5.1 5.1 0 0 1 45 32.95l-.02.3a5.6 5.6 0 0 1-2.07 4.47A4.9 4.9 0 0 1 39.67 39H17.71a9.93 9.93 0 0 1-2.2-.17 5.28 5.28 0 0 1-2.5-1.47A6.6 6.6 0 0 1 11 32.71V22.08c0-1.49-.42-2.63-1.98-2.6h-.96c-.04 0-.06-.03-.06-.07v-1.37c0-.02.01-.03.04-.03h9.98c2.95 0 4.98 1.33 4.98 4.47v10.85a4.18 4.18 0 0 0 3 4.03c.4.1 1.09.16 2.09.15 1.12-.02 2-.02 2.63-.02a3.81 3.81 0 0 0 2.57-1.14 4.67 4.67 0 0 0 1.36-3.5 5.78 5.78 0 0 0-.34-1.73 4.5 4.5 0 0 0-.9-1.53c-.44-.48-.93-.79-1.47-.93a5 5 0 0 0-1.15-.1h-5.7c-.05 0-.09-.02-.09-.06v-1.91c0-.05.04-.07.09-.07h5.62c.65.01 1.16-.05 1.53-.17a3.38 3.38 0 0 0 2.14-2.03 3.42 3.42 0 0 0-.23-3 3.39 3.39 0 0 0-1.96-1.57c-.3-.1-.76-.15-1.38-.15H24.1c-.05 0-.1-.02-.1-.07v-1.49c0-.02.04-.03.07-.03h15.86a4.34 4.34 0 0 1 4.77 3.96 13.09 13.09 0 0 1-.03 1.83 4.25 4.25 0 0 1-1.54 2.69 4.6 4.6 0 0 1-2.33 1c-.07.01-.07.02 0 .03Zm-18.15.98c0 3.69-2.33 6.68-5.21 6.68s-5.22-2.99-5.22-6.68c0-3.69 2.34-6.68 5.22-6.68s5.21 2.99 5.21 6.68Zm-3 1.2-.01-.01a3.3 3.3 0 0 0-.5-2.52c-.39-.6-.9-1.06-1.53-1.38l-.03-.01a.66.66 0 0 1-.14-.1.38.38 0 0 1-.11-.25.3.3 0 0 1 .05-.18l.13-.16.03-.03.47-.57c.08-.11.14-.24.18-.37.04-.16.01-.3-.09-.4-.08-.1-.23-.16-.45-.18l-.39-.03a.1.1 0 0 1-.1-.05l-.1-.17a.56.56 0 0 0-.6-.29c-.22.04-.44.14-.66.3a.13.13 0 0 1-.08.03h-.45a.81.81 0 0 0-.36.07c-.13.07-.2.15-.24.26a.6.6 0 0 0 .02.38l.2.55c.1.28.18.55.24.84a.3.3 0 0 1-.04.24.64.64 0 0 1-.16.16c-.02.02-.03.02-.05 0l-.52-.71c-.02-.03-.05-.03-.07-.01l-.25.18v.04l.55.74v.06l-.2.25a.05.05 0 0 1-.04.02c-.01 0-.03 0-.04-.02l-.4-.32c-.02-.02-.05-.02-.07.01l-.18.23a.04.04 0 0 0 0 .06l.4.32c.02 0 .02.02.02.03v.03c-.2.21-.36.45-.48.7a5.87 5.87 0 0 0-.57 2.9 1.75 1.75 0 0 0 .96 1.34l.02.02a.1.1 0 0 1 .05.1v.76c0 .12.01.21.04.25.04.1.12.14.25.14a17.1 17.1 0 0 0 .52-.02.2.2 0 0 0 .12-.1.5.5 0 0 0 .03-.22v-.56c0-.06.03-.1.1-.1h.04c.07 0 .12.01.14.03.02.01.03.04.03.07v1.29c0 .14.07.22.2.25.23.04.45.03.67-.05h.08c.64.12 1.29.27 1.95.45.14.04.26.01.35-.08a352.55 352.55 0 0 0 1.23-1.18.18.18 0 0 1 .09-.04c.12-.03.24-.07.35-.12a.39.39 0 0 0 .11-.08 20.01 20.01 0 0 1 1.18-1.11 15.28 15.28 0 0 1 .26-.65 8.31 8.31 0 0 1-.47-.55l-.06-.03a.14.14 0 0 0-.05.03c-.04.02-.07.03-.1.02l-1.47-.5Zm-3.72-5.77h.05l.22.18c.03.02.05.02.07 0 .17-.12.33-.2.48-.25a.39.39 0 0 1 .17-.01c.05 0 .1.03.15.07l.18.15c.05.04.1.05.13.03a1.3 1.3 0 0 0 .23-.14 2.9 2.9 0 0 0-.37-.05.62.62 0 0 1-.18-.03c-.12-.05-.23-.17-.3-.36-.03-.05-.05-.08-.08-.1a.42.42 0 0 0-.33 0 .88.88 0 0 0-.18.1c-.17.13-.33.2-.48.23v.02l.09.2.01.02h.02l.06-.04a.13.13 0 0 1 .06-.02Zm-.88-.01a2.94 2.94 0 0 0 .25.62h.02c.1-.2.1-.44-.01-.7a.21.21 0 0 0-.07-.1c-.03-.01-.06-.02-.1-.01-.06 0-.09.03-.1.07l.01.12Zm2.32.58a3.57 3.57 0 0 1 .12.01l-.4.5a.69.69 0 0 0-.14.27 2.1 2.1 0 0 0-.05.32c0 .01 0 .02-.02.01a1 1 0 0 0-.35.01l-.02-.01c-.05-.2-.07-.4-.03-.61v-.04a.62.62 0 0 0 0-.22l-.05-.21c0-.02 0-.04.03-.07a.98.98 0 0 1 .32-.2.1.1 0 0 1 .06-.01c.02 0 .03 0 .06.03l.22.16c.08.05.16.07.25.06Zm-1.76 1.1.73.03v-.01l-.39-1.08h-.01l-.01.02a.94.94 0 0 1-.22.34c-.05.06-.1.09-.15.1a2.86 2.86 0 0 0-.12.02v.08l.1.45c0 .04.03.06.07.06Zm-1.66 3.6v-.04c-.1-.09-.2-.16-.28-.21a.05.05 0 0 0-.04-.01 6.68 6.68 0 0 1-.16.18 5.57 5.57 0 0 1 .46-1.45h.03a102.79 102.79 0 0 0 .63.49c.04.02.07.01.1-.02l.15-.2c.03-.03.03-.07 0-.1l-.66-.5a.2.2 0 0 1-.03-.04v-.02c0-.02 0-.04.03-.06l.17-.23c.03-.03.06-.04.1 0l.15.1c0 .02.02.02.04.02s.03 0 .04-.02l.18-.22v-.03l-.01-.03-.17-.14v-.03a100.22 100.22 0 0 1 .82-.82.07.07 0 0 1 .07-.02l.38.12c.1.03.17.07.23.13.07.07.1.15.12.25l-.01.3a23 23 0 0 1-.09.7v.31c.02.13.08.25.18.37l.36.42c.07.09.13.18.18.28.08.15.08.34 0 .55a.46.46 0 0 1-.1.17l-.1.1a.47.47 0 0 0-.1.17.3.3 0 0 0 0 .2c0 .03.05.1.12.18.11.14.21.28.3.43.03.04.07.1.14.16.07.08.16.15.26.22l.03.01.03-.02.15-.47c.01-.02.02-.04.04-.04h.12c.05.02.1.05.16.1.03.03.08.08.12.15l.03.02.03-.01a.18.18 0 0 0 .05-.14 4.71 4.71 0 0 1-.03-.46c0-.08.02-.18.05-.3.1-.35.15-.7.15-1.06 0-.06-.02-.1-.04-.15a14.56 14.56 0 0 1-.67-.62.8.8 0 0 1-.24-.68c0-.08.04-.13.09-.17l.17-.14c.06-.05.1-.12.1-.2a.28.28 0 0 0-.08-.2.74.74 0 0 0-.17-.12l-.04-.02a1.1 1.1 0 0 1-.38-.37 9.23 9.23 0 0 0 .56.33c.63.36 1.1.87 1.4 1.51a2.73 2.73 0 0 1 .2 1.76c-.05.19-.12.36-.2.51-.1.17-.21.3-.35.41l-.32.24c-.3.22-.61.34-.95.37-.04 0-.08 0-.1-.02a.51.51 0 0 0-.25-.08c-.04 0-.09 0-.16.02a9.6 9.6 0 0 1-.63.13 5.22 5.22 0 0 1-.03-.95.2.2 0 0 0-.11-.12 19.8 19.8 0 0 0-.56-.03c-.13 0-.21.05-.26.14a.72.72 0 0 0-.02.25 394.33 394.33 0 0 0 0 1.1c-.01.03-.02.05-.05.05h-.22c-.02 0-.04-.02-.04-.05v-.85c0-.14-.09-.22-.26-.24-.2-.02-.37-.01-.5.02s-.19.11-.2.24a10.95 10.95 0 0 0 0 .53c0 .02-.02.03-.03.03h-.04a1.45 1.45 0 0 1-.6-1.27 133.99 133.99 0 0 0 .08-.72 7.04 7.04 0 0 0 .23.17c.02.02.05.02.07 0a13.58 13.58 0 0 0 .18-.25Zm3.01-2.12a4.72 4.72 0 0 1-.02.28c.02.04.08.07.18.06.06 0 .08-.05.07-.14a.42.42 0 0 0-.18-.3l-.02-.01-.02.02v.1Zm.63 2.34v.08c-.1.1-.15.18-.18.22a.07.07 0 0 0 0 .09.1.1 0 0 0 .07.04l.21.03c.08 0 .13-.03.15-.1.07-.2.07-.4 0-.59l-.08-.13a1.75 1.75 0 0 1-.18-.46.15.15 0 0 0-.06-.1h-.02c-.03 0-.07.04-.13.1l-.01.02a.17.17 0 0 0-.05.08.2.2 0 0 0 0 .11l.28.6Zm2.73 1.8-1.11-.54-.02-.02v-.02l.36-.53.03-.01 1.28.42.01.02v.03l-.52.64c0 .01-.02.02-.03 0Zm-3.7.59.88-.24.1.01 1.47.5c.03 0 .06.02.08.03.02.01.02.02.02.04l-.03.06-.38.5c-.03.05-.07.07-.12.07a815.24 815.24 0 0 1-2.02-.97Zm2.6-8.5-.22-.13a.07.07 0 0 0-.1.03l-.6 1.07c-.03.03-.01.07.02.1l.22.12c.03.02.07 0 .09-.02l.61-1.08a.07.07 0 0 0-.02-.09Zm.8.67-.2-.2a.05.05 0 0 0-.07 0l-.88.92a.05.05 0 0 0 0 .06l.22.2c.01.02.05.02.06 0l.88-.91a.05.05 0 0 0 0-.07ZM19 25.74l1.61-1.13a.04.04 0 0 1 .06 0l.17.25c.02.02.01.05 0 .06l-1.62 1.14a.05.05 0 0 1-.06-.01L19 25.8a.05.05 0 0 1 .01-.07Zm1.7-.09-1.31.66a.05.05 0 0 0-.02.07l.13.25c0 .03.04.04.06.03l1.31-.66a.05.05 0 0 0 .02-.07l-.12-.26a.05.05 0 0 0-.07-.02Zm-.72 1.22.83-.42c.03-.01.06 0 .07.02l.13.26c.01.03 0 .06-.02.07l-.83.42a.05.05 0 0 1-.07-.03l-.13-.26a.05.05 0 0 1 .02-.06Zm.64 1.06-.42.01a.04.04 0 0 0-.04.04v.3c0 .03.03.05.05.05l.41-.01c.03 0 .05-.02.05-.05l-.01-.3a.04.04 0 0 0-.04-.04Zm-6.72.99.04-.02.16-.2a.06.06 0 0 0 .01-.05c0-.02 0-.03-.02-.04l-.2-.17a.09.09 0 0 0-.07-.02.1.1 0 0 0-.07.04l-.11.14a.1.1 0 0 0-.03.07c0 .03.02.05.04.07l.2.17h.05Z" fill="#0A090E"/></svg>