<!-- by TradingView --><svg width="56" height="56" viewBox="0 0 56 56" xmlns="http://www.w3.org/2000/svg"><path fill="#F0F3FA" d="M0 0h56v56H0z"/><path d="M21.2 22.5c.4.44.67.96.8 1.55.16.72.03 1.25-.4 1.62-.21.18-.4.15-.55-.1-.64-1.08-1.68-1.47-3.12-1.18-.33.07-.5.29-.5.66v1.52c0 .14.06.26.16.35.2.18.47.26.78.24.1 0 .18-.07.23-.17l.46-1.13c.08-.21.23-.32.44-.3.21 0 .35.11.43.33a5.11 5.11 0 0 1-.14 3.9c-.07.16-.19.24-.35.24-.16 0-.28-.08-.35-.25l-.13-.36c-.12-.36-.23-.6-.32-.73a.64.64 0 0 0-.68-.24c-.11.02-.2.09-.25.2a4.29 4.29 0 0 0 .06 2.53c.08.17.24.26.5.28.95.05 1.63-.02 2.02-.19.49-.22.89-.72 1.2-1.5a.46.46 0 0 1 .34-.3c.16-.04.3 0 .42.13.25.25.35.53.33.84-.07.71-.3 1.48-.72 2.3-.09.18-.22.27-.4.26H14.1c-.25 0-.4-.25-.47-.6-.03-.13 0-.24.1-.32.56-.44.87-1 .94-1.65.15-1.53.13-3.22-.04-5.06a1.69 1.69 0 0 0-.87-1.33c-.16-.1-.24-.25-.23-.45 0-.2.09-.35.25-.44.26-.15.57-.15.93-.15h4.99c.32 0 .69-.23 1.09-.5h.4Zm18.7 0c.4.44.66.96.8 1.55.16.72.02 1.25-.4 1.62-.22.18-.4.15-.55-.1-.64-1.08-1.69-1.47-3.13-1.18-.32.07-.62.29-.62.66v1.52c0 .12.13.22.23.3l.06.05c.2.18.46.26.77.24.11 0 .19-.07.23-.17l.46-1.13c.09-.21.24-.32.45-.3.2 0 .35.11.43.33a5.11 5.11 0 0 1-.14 3.9c-.08.16-.2.24-.36.24-.16 0-.27-.08-.34-.25-.03-.07-.08-.19-.13-.36-.12-.36-.23-.6-.33-.73a.64.64 0 0 0-.68-.24l-.08.01c-.18.04-.53.1-.57.2v1.8c.03.46.43.97.97 1 .95.05 1.62-.02 2.01-.19.5-.22.9-.72 1.21-1.5a.46.46 0 0 1 .34-.3c.16-.04.3 0 .42.13.24.25.35.53.32.84-.06.71-.3 1.48-.71 2.3-.1.18-.23.27-.41.26H32.8c-.25 0-.4-.25-.47-.6-.03-.13.01-.24.11-.32.56-.44.87-1 .93-1.65.15-1.53.14-3.22-.03-5.06a1.69 1.69 0 0 0-.88-1.33c-.15-.1-.23-.25-.23-.45s.09-.35.25-.44c.26-.15.57-.15.93-.15h5c.32 0 .68-.23 1.08-.5h.4Zm-7.75 2.63a3.79 3.79 0 0 0-1.48-2.63h-.3a.9.9 0 0 1-.79.5h-4.16a2.04 2.04 0 0 1-1.03-.32c-.87.4-1.39 1.34-1.54 2.85-.05.53.18.87.68 1 .23.07.43 0 .6-.2l.88-1.11c.5-.63.95-.52.99.3v4.85c-.03.25-.26.45-.43.6l-.15.14c-.1.12-.3.23-.6.34-.17.06-.27.2-.31.4-.04.2.01.36.15.5.26.26.58.42.96.48 2.74.38 4.26.13 4.57-.75.04-.1.02-.18-.05-.25l-.96-.96c-.14-.13-.18-.3-.18-.5.01-1.6.02-3.19 0-4.77 0-.4.08-.64.34-.74.2-.07.35 0 .46.2.15.3.34.61.57.95.21.32.5.48.84.48.33 0 .6-.15.82-.45.14-.2.18-.5.12-.9Zm15.45-.64a.73.73 0 0 1-.23-.2.7.7 0 0 1-.08-.22c-.1-.41.1-.7.6-.85a5.2 5.2 0 0 1 1.82-.21c.83.04 1.34.27 1.52.7.06.17.08.33.03.49a.3.3 0 0 1-.22.23l-.8.24c-.46.15-1.09.76-1.9 1.85l-.24.33c-.09.11-.09.23 0 .34.39.48 1.18 1.56 2.38 3.24.23.34.66.7 1.28 1.1.15.1.22.24.24.42a.51.51 0 0 1-.18.45c-.6.55-2.12.72-4.53.5a1 1 0 0 1-.07 0 .98.98 0 0 1-.75-.38.48.48 0 0 1-.1-.38c.03-.14.1-.25.22-.32a.75.75 0 0 0 .3-.44.24.24 0 0 0-.01-.2l-.67-1.27c-.08-.14-.17-.16-.27-.03l-.86 1.06c-.15.18-.14.35.03.5l.3.3a.6.6 0 0 1 .17.6c-.05.24-.19.38-.4.43-.89.23-1.75.29-2.59.18-.59-.08-.96-.21-1.13-.4a.53.53 0 0 1-.13-.35c0-.22.1-.42.26-.6.09-.08.26-.14.5-.17.4-.04.69-.18.9-.42.56-.67 1.2-1.53 1.91-2.57.07-.1.07-.2 0-.29-.6-.85-1.22-1.7-1.83-2.53a2.47 2.47 0 0 0-1.25-.89.34.34 0 0 1-.23-.23c-.15-.48-.04-.8.35-.96a6.94 6.94 0 0 1 4.3-.35.82.82 0 0 1 .6.93c0 .03-.09.13-.25.3a.49.49 0 0 0-.12.32c-.02.32.12.58.42.78.1.07.2.06.3-.03.3-.27.46-.5.52-.7.04-.13 0-.23-.11-.3ZM11.7 27.76l-.26-.13c-.1-.07-.14-.17-.12-.3.02-.12.16-.32.4-.61.34-.41.52-.88.54-1.43.02-.53-.12-1-.43-1.41a2.2 2.2 0 0 0-1.11-.68c-.44-.15-.84-.21-1.2-.2H4.77c-.34 0-.57.2-.7.42a.53.53 0 0 0-.04.45c.05.15.15.27.3.34.43.2.65.58.66 1.12.03 1.84-.03 3.72-.2 5.65a.6.6 0 0 1-.12.33l-.52.67a.62.62 0 0 0-.09.63c.09.23.24.38.46.39h5.68a2.71 2.71 0 0 0 1.52-.54 2.97 2.97 0 0 0 1.24-2.82c-.1-.6-.38-1.13-.85-1.6a1.66 1.66 0 0 0-.42-.28ZM7.95 27l-.03-2.33c0-.18.08-.27.24-.28h.04c.29 0 .53.12.74.35.2.24.3.53.3.87l.01.4c0 .35-.09.64-.29.88a.92.92 0 0 1-.72.38h-.05c-.16 0-.24-.1-.24-.27Zm.01 4.16-.03-2.08c0-.28.12-.42.36-.43h.2c.3 0 .54.1.75.33.2.24.32.52.32.85v.5c.02.34-.08.62-.29.87a.95.95 0 0 1-.73.36l-.2.01c-.25 0-.37-.13-.38-.41Z" fill="#C41015"/></svg>