<!-- by TradingView --><svg width="56" height="56" viewBox="0 0 56 56" xmlns="http://www.w3.org/2000/svg"><path fill="#F0F3FA" d="M0 0h56v56H0z"/><path fill-rule="evenodd" d="M11.45 20H8v6h3.62a1.65 1.65 0 0 0 .67-3.16c.44-.27.73-.75.73-1.3 0-.85-.7-1.54-1.57-1.54Zm-.46.9H9.24v1.55h1.75c.44 0 .8-.35.8-.78a.79.79 0 0 0-.8-.78Zm.17 2.43H9.24v1.64h1.92c.48 0 .88-.37.88-.82 0-.46-.4-.82-.88-.82ZM14 20h1v2.06c.2-.26.62-.56 1.33-.56 1.17 0 1.17.78 1.17 1.53V26h-1V23.01c0-.22.01-.58-.54-.58-.41 0-.74.3-.96.59V26h-1v-6Zm4.5 2.8h1.06a.69.69 0 0 1 .72-.66c.56 0 .72.43.72.65v.42c-1.57 0-2.5.38-2.5 1.64.02.38.15 1.15 1.22 1.15.75 0 1.17-.23 1.28-.34V26h1.36c-.12-.1-.36-.32-.36-.5v-2.94c0-.42-.38-1.06-1.72-1.06-1.33 0-1.72.86-1.78 1.3Zm2.5.96v.97c-.05.18-.29.53-.9.53-.2 0-.6-.14-.6-.57 0-.54.72-.93 1.5-.93Zm8.06-.97H28c.06-.43.45-1.29 1.78-1.29 1.34 0 1.72.64 1.72 1.06v2.93c0 .19.24.42.36.51H30.5v-.34c-.11.11-.53.34-1.28.34-1.07 0-1.2-.77-1.22-1.15 0-1.26.93-1.64 2.5-1.64v-.42a.67.67 0 0 0-.72-.65.69.69 0 0 0-.72.65Zm1.44 1.94v-.97c-.78 0-1.5.4-1.5.93 0 .43.4.56.6.57.61 0 .85-.35.9-.53Zm8.5-1.94h1.06a.69.69 0 0 1 .72-.65c.56 0 .72.43.72.65v.42c-1.57 0-2.5.38-2.5 1.64.02.38.15 1.15 1.22 1.15.75 0 1.17-.23 1.28-.34V26h1.36c-.12-.1-.36-.32-.36-.5v-2.94c0-.42-.38-1.06-1.72-1.06-1.33 0-1.72.86-1.78 1.3Zm2.5.97v.97c-.05.18-.29.53-.9.53-.2 0-.6-.14-.6-.57 0-.54.72-.93 1.5-.93ZM24.75 26c.49 0 .93-.26 1.25-.68v.72c-.02.27-.21.81-1.15.81-.48 0-.8-.26-.9-.4H23c.09.42.62 1.26 2.04 1.26A1.79 1.79 0 0 0 27 26.04V21.5h-1v.67a1.58 1.58 0 0 0-1.25-.68c-.97 0-1.75 1-1.75 2.25 0 1.24.78 2.25 1.75 2.25Zm.25-1.08c.55 0 1-.54 1-1.21 0-.67-.45-1.21-1-1.21s-1 .54-1 1.2c0 .68.45 1.22 1 1.22ZM33.36 26 32 21.5h1.14l.73 2.79.76-2.79h1.1l.7 2.79.88-2.79h1.19L37.1 26h-1.13l-.73-2.6-.77 2.6h-1.1ZM44 25.1v-2.6h-.5v-1h.5v-.63l1-.87v1.5h1.03v1H45v2.02c0 .38.36.48.46.48h.6l-.34 1h-.55c-.86 0-1.14-.6-1.17-.9Zm4-4.41V20h-1v.69h1Zm0 .81h-1V26h1v-4.5ZM18.57 34c0 1.66-1.25 3-2.78 3-1.54 0-2.79-1.34-2.79-3s1.25-3 2.79-3 2.78 1.34 2.78 3Zm-1.07 0c0 1.1-.78 2-1.75 2S14 35.1 14 34s.78-2 1.75-2 1.75.9 1.75 2Zm14 2.38c-.31.39-.74.62-1.2.62-.97 0-1.75-1-1.75-2.25 0-1.24.78-2.25 1.75-2.25.46 0 .89.23 1.2.62v-.6h1v4.73c0 .2-.1 1.75-1.99 1.75-1.5 0-2.06-.88-2.16-1.31h1c.11.13.45.4.96.4 1 0 1.17-.56 1.19-.84v-.87Zm0-1.63c0 .69-.45 1.25-1 1.25s-1-.56-1-1.25c0-.7.45-1.25 1-1.25s1 .56 1 1.25Zm8-1.77c.2-.24.58-.48 1.17-.48 1.1 0 1.33.8 1.33 1.56V37h-.98v-2.94c0-.21-.14-.63-.7-.63-.34 0-.62.24-.82.5V37h-1v-4.5h1v.48Zm-16.13-.48H21.9l-.65 1-.65-1h-1.47l1.4 2.13L19 37h1.42l.83-1.27.83 1.27h1.42l-1.53-2.37 1.4-2.13Zm3.56 0-1 3.08-1.2-3.08h-1.1l1.78 4.68-.1.28c-.08.16-.32.5-.6.5h-.69V39h1.1c.19-.02.77-.38 1-1.04l1.96-5.46h-1.15Zm7.58 2.5h2.95c0-1.05-.3-2.5-2.01-2.5-1.71 0-2.04 1.65-2 2.48.06.67.52 2.02 2 2.02.94 0 1.58-.58 1.78-.87l-.79-.53c-.08.15-.39.44-.9.44-.65 0-.96-.66-1.03-1.04Zm.07-.63h1.87c-.05-.31-.3-.93-.94-.93-.63 0-.88.62-.93.93Z" fill="#289DCC"/></svg>