<!-- by TradingView --><svg width="56" height="56" viewBox="0 0 56 56" xmlns="http://www.w3.org/2000/svg"><path fill="#F0F3FA" d="M0 0h56v56H0z"/><path fill-rule="evenodd" d="M28 44.5a16.5 16.5 0 1 0 0-33 16.5 16.5 0 0 0 0 33Zm0 .5a17 17 0 1 0 0-34 17 17 0 0 0 0 34Z" fill="#0097F0"/><path fill-rule="evenodd" d="M28 43.5a15.5 15.5 0 1 0 0-31 15.5 15.5 0 0 0 0 31Zm0 .5a16 16 0 1 0 0-32 16 16 0 0 0 0 32Z" fill="#0097F0"/><path d="M17 28a11 11 0 0 0 22 0H17Z" fill="#0097F0" fill-opacity=".4"/><path fill-rule="evenodd" d="M28 38.5a10.5 10.5 0 1 0 0-21 10.5 10.5 0 0 0 0 21Zm0 .5a11 11 0 1 0 0-22 11 11 0 0 0 0 22Z" fill="#0097F0"/><path d="M22.5 25c-.8 0-.33 1.33 0 2-.33.17-.7.7.5 1.5 1 0 .5 1 .5 2s0 1.5.5 3 1 3 2 3 1-1.5 1-2 .5-2 1-2.5 2.5-2 3.5-3.5 1.5.5 2 .5 1-.5 1-1 .5-1 1.5-1.5.5-1 .5-1.5-.5-.5-1-.5-1 .5-2 .5-1 0-1.5.5-2.5-1-3.5-1.69c-1-.68-.5-.81-1-1.31s.5-1 1-1.5-.5-.5-1.5-.5-1-1-2-1 0 1 0 1.5-.5 1 0 1.5 0 1-.5 1.5-1 1-2 1Z" fill="#0097F0"/><path d="M35.27 37.55a11.96 11.96 0 0 1-15.34-.67l-1.7 1.14a13.95 13.95 0 0 0 18.73.74l-1.7-1.21ZM16.17 30a12 12 0 1 1 23.67 0h2.02a14 14 0 1 0-27.72 0h2.03Zm-1.22 3.09c.23.59.5 1.16.8 1.7l-.8-1.7Z" fill="#0097F0" fill-opacity=".6"/></svg>