<!-- by TradingView --><svg width="56" height="56" viewBox="0 0 56 56" xmlns="http://www.w3.org/2000/svg"><path fill="#F0F3FA" d="M0 0h56v56H0z"/><path d="M21 17H9v.7h12V17Zm0 1.3H9v.7h12v-.7ZM47 17H35v.7h12V17Zm0 1.3H35v.7h12v-.7Z" fill="#5848AB"/><path fill-rule="evenodd" d="M28 24a6 6 0 1 0 0-12 6 6 0 0 0 0 12Zm0-.55a5.45 5.45 0 1 0 0-10.9 5.45 5.45 0 0 0 0 10.9Z" fill="#5848AB"/><path d="M27.19 18.53c0-1.3.61-2.22.92-2.52.3.35.87 1.35.87 2.52 0 1.18-.58 2.07-.87 2.37a3.1 3.1 0 0 1-.92-2.37Zm-1.77 2.8a3.25 3.25 0 0 1-.98-2.3 3.8 3.8 0 0 1 2.25 1.02c.77.77.94 1.76.93 2.16a2.76 2.76 0 0 1-2.2-.89Zm6.22-2.3c.02.4-.13 1.44-.99 2.3-.85.85-1.82.94-2.2.88 0-.4.17-1.4.93-2.16a3.8 3.8 0 0 1 2.26-1.03Z" fill="#42AC61"/><path fill-rule="evenodd" d="M9.48 25.7v4.32c-.14.1-.43.36-.43.56 0 .26.1.42.43.42h2.33c.56-.01 1.7-.41 1.7-1.9 0-.86-.55-1.35-.83-1.49.2-.16.58-.7.58-1.52 0-1.03-.7-1.09-1.25-1.09H9.48c-.22 0-.43.06-.43.25 0 .18.27.35.42.44h.01Zm1.2 1.76v-1.65c.1-.13.27-.34.56-.34.29 0 .81.24.81.94 0 .57-.54.94-.81 1.05h-.56Zm.01 2.8v-1.99c.72-.38 1.61-.13 1.61.87 0 .8-.54 1.08-.81 1.12h-.8Zm4.03.01v-4.74l-.17-.22c-.09-.13-.01-.31.13-.31h1.35c.14 0 .22.17.14.3l-.17.23V27h1.78v-1.47l-.16-.22c-.1-.13-.02-.31.13-.31h1.35c.06 0 .12.04.15.1.05.13-.07.25-.16.34l-.09.1v4.73l.3.45c.06.13-.03.28-.15.28h-1.46c-.13 0-.21-.16-.15-.29l.24-.44V28H16v2.27l.23.45c.06.13-.02.28-.15.28h-1.46c-.13 0-.21-.16-.14-.29l.24-.44Zm6.66.73h-1.12a.26.26 0 0 1-.26-.27c0-.08.04-.15.1-.2l.31-.27 1.66-5.07c.04-.11.14-.19.26-.19h.6c.12 0 .23.08.26.19l1.77 5.07.32.26a.27.27 0 0 1-.16.48h-1.6a.27.27 0 0 1-.16-.47l.33-.27-.42-1.26h-1.55l-.37 1.26.24.26c.04.06.07.13.07.2 0 .15-.12.28-.28.28Zm1.07-4.48.49 1.48H22l.44-1.48ZM36.25 31h1.04c.14 0 .25-.13.25-.28a.3.3 0 0 0-.07-.2l-.22-.26.35-1.26h1.44l.39 1.26-.3.27a.27.27 0 0 0-.1.2c0 .15.1.27.24.27h1.49c.13 0 .24-.12.24-.27a.28.28 0 0 0-.1-.2l-.3-.27-1.63-5.07a.26.26 0 0 0-.24-.19h-.56c-.11 0-.21.08-.25.2l-1.54 5.06-.29.26a.28.28 0 0 0-.09.21c0 .15.1.27.24.27Zm2.48-3-.46-1.48-.4 1.48h.86Zm-12.75 1.16c-.11.03-.34.2-.34.56 0 .46.72 1.28 1.91 1.28 1.2 0 2.24-.85 2.24-2.13 0-1.28-1.43-1.58-1.83-1.63-.4-.05-.98-.3-.98-.84s.59-.76.85-.76.61 0 .91.76c.1.1.35.23.59-.09.3-.4-.14-1.31-1.58-1.31-1.43 0-2 .81-1.94 2.02.05.9 1.3 1.63 1.94 1.77.3.07.9.32.9.75 0 .55-.53.81-1.1.81-.45 0-.89-.58-1.05-.88-.03-.1-.17-.31-.52-.31ZM31 25.53v4.74l-.25.44c-.07.13.01.29.15.29h1.45c.13 0 .21-.15.15-.28l-.21-.45v-1.53h.7l.92 1.55-.29.23a.28.28 0 0 0-.1.21c0 .15.11.27.25.27h1.73c.13 0 .24-.12.24-.27a.28.28 0 0 0-.1-.21l-.35-.27-1.14-2.08c-.08-.17-.3-.52-.53-.6l1.15-1.84.2-.1c.1-.05.17-.17.17-.3 0-.18-.14-.33-.3-.33H33.8c-.16 0-.29.14-.29.32 0 .1.05.2.13.26l.2.15-1.23 1.96h-.33v-2.16l.15-.23c.08-.13 0-.3-.14-.3h-1.35c-.14 0-.22.18-.13.3l.18.23Zm10.8 4.88v-4.68l-.13-.05a.35.35 0 0 1-.2-.33c0-.2.14-.35.32-.35h2.76c.61 0 1.26.33 1.26 1.5 0 .92-.6 1.34-.89 1.44l.98 2.32.22.24c.04.05.07.13.07.2 0 .17-.12.3-.27.3h-1.47c-.14 0-.25-.13-.25-.28a.3.3 0 0 1 .09-.22l.26-.24-.66-1.81H43v1.8l.3.25c.06.05.1.14.1.22 0 .16-.11.28-.25.28H41.7c-.13 0-.23-.11-.23-.26 0-.1.05-.18.13-.23l.2-.1Zm1.2-3.17v-1.27c.09-.2.4-.39.7-.39.3 0 .96.14.96.98 0 .67-.53.99-.8 1.06h-.57c-.21 0-.28-.25-.29-.38Z" fill="#5848AB"/><path fill-rule="evenodd" d="M10.9 38H9.31a.3.3 0 0 1-.32-.3.3.3 0 0 1 .11-.23l.67-.53a16.33 16.33 0 0 1 2.62-4.58c.2-.24.52-.36.85-.36h.05c.26 0 .52.08.7.25 1.18 1.1 2.34 3.58 2.85 4.77l.54.45c.07.06.11.14.11.23 0 .16-.14.3-.32.3h-2.63a.3.3 0 0 1-.31-.3c0-.09.04-.17.12-.23l.52-.38-.65-1.09h-2.9l-.6 1.09.4.38c.06.06.1.14.1.22 0 .17-.15.31-.34.31Zm1.84-4.52.9 1.52H11.9l.85-1.52ZM28 37.4v-4.68l-.31-.05c-.23-.05-.38-.18-.38-.33 0-.2.27-.35.6-.35h5.02c1.11 0 2.07.33 2.07 1.5 0 .92-.85 1.34-1.4 1.44l1.8 2.32.38.24c.09.05.14.13.14.2 0 .17-.22.3-.49.3h-2.68c-.26 0-.47-.13-.47-.28 0-.09.07-.17.17-.22l.48-.24-1.2-1.81H30v1.8l.65.25c.11.05.18.14.18.22 0 .16-.2.28-.46.28h-2.63c-.24 0-.43-.11-.43-.26 0-.1.1-.18.24-.23l.45-.1Zm2-3.17v-1.27c.16-.2.72-.39 1.27-.39s1.73.14 1.73.98c0 .67-.96.99-1.43 1.06h-1.04c-.39 0-.51-.25-.53-.38Zm-7.48.86v-.24H26v2.32c-.7.27-2.37.82-3.39.82-1.27 0-4.61-.47-4.61-2.8 0-2.32 2.18-3.2 4.61-3.2 1.95 0 2.91.53 3.15.8v.99h-.83c-.24-.54-.85-1.15-2.08-1.15s-2.8.55-2.8 2.22a2.5 2.5 0 0 0 2.47 2.53c.88 0 1.36-.39 1.49-.58v-1.3h-1.08a.4.4 0 0 1-.4-.4ZM46 35c0 1.66-2.01 3-4.5 3S37 36.66 37 35s2.01-3 4.5-3 4.5 1.34 4.5 3Zm-2 0c0 1.3-1.12 2.36-2.5 2.36A2.43 2.43 0 0 1 39 35c0-1.3 1.12-2.36 2.5-2.36S44 33.7 44 35Z" fill="#46A261"/><path fill="#5848AB" d="M9 39.5h38v.5H9z"/></svg>