<!-- by TradingView --><svg width="56" height="56" viewBox="0 0 56 56" xmlns="http://www.w3.org/2000/svg"><path fill="#F0F3FA" d="M0 0h56v56H0z"/><path d="M28.1 11h.27a16.94 16.94 0 0 1 15.88 12 16.84 16.84 0 0 1-.06 10.19 16.95 16.95 0 0 1-16.56 11.8 16.95 16.95 0 0 1-15.88-12 16.84 16.84 0 0 1 .06-10.18A16.95 16.95 0 0 1 28.11 11ZM11.36 27.86v.5A16.61 16.61 0 0 0 23.8 44.1a16.51 16.51 0 0 0 14.25-2.85A16.6 16.6 0 0 0 32.2 11.9a16.51 16.51 0 0 0-14.25 2.85 16.61 16.61 0 0 0-6.59 13.11Z"/><path d="M28.16 12.03a15.9 15.9 0 0 1 10.32 3.92 16.04 16.04 0 0 1 4.98 16.25 16.04 16.04 0 0 1-25.94 7.92 16.04 16.04 0 0 1-4.98-16.24 16.04 16.04 0 0 1 15.62-11.84Zm-10 4.53a15.16 15.16 0 0 0-4.85 15.13 14.82 14.82 0 0 0 3.2 6.2A15.26 15.26 0 0 0 22.16 42a15.07 15.07 0 0 0 15.7-2.48 15.15 15.15 0 0 0 4.84-15.13 14.82 14.82 0 0 0-3.2-6.2 15.26 15.26 0 0 0-5.64-4.11 15.07 15.07 0 0 0-15.7 2.48Z"/><path d="M29.86 15.54c0-.02 0-.02-.01 0l-1.39 2.48h-.01l-.27-.02-.02-.02-.56-3.59a.43.43 0 0 0-.07-.2c-.05-.07-.14-.1-.25-.1v-.25l1.54.25c.02 0 .02 0 .02.02l-.06.2h-.02c-.15-.03-.26-.03-.33.01a.05.05 0 0 0-.03.04c0 .03 0 .07-.02.11v.12a5622.27 5622.27 0 0 1 .37 2.28l1-1.8.01-.03-.03-.34c0-.05-.02-.1-.05-.12a.41.41 0 0 0-.16-.09 15.09 15.09 0 0 1-.27-.06l.04-.23.01-.01 1.77.31.01.02-.1.21a.82.82 0 0 0-.42-.02.05.05 0 0 0-.04.04l-.04.15v.02l.37 2.32c0 .02 0 .03.02 0l.97-1.84a1.31 1.31 0 0 0 .04-.26.32.32 0 0 0-.05-.17.2.2 0 0 0-.09-.08 2.29 2.29 0 0 1-.16-.05c-.02 0-.03-.02-.03-.04l.03-.17c0-.02.01-.03.03-.02l1.22.21v.02l-.03.2v.01c-.22-.03-.4 0-.52.11a.91.91 0 0 0-.2.27 3282.09 3282.09 0 0 0-1.6 2.98l-.2-.1v-.01l-.42-2.76ZM24.52 18.39h.01l.13-.03a4 4 0 0 0 .55-.2c.14-.05.24-.1.29-.15a.8.8 0 0 0 .25-.37c.1-.33.13-.67.05-1.01l.01-.02.24-.09h.02l.4 1.4v.01l-3.12 1.18h-.01l-.1-.19.22-.08a.35.35 0 0 0 .13-.06.67.67 0 0 0 .1-.1l.02-.08a1303.83 1303.83 0 0 1-1.06-2.79c-.04-.09-.11-.13-.22-.12h-.05a.3.3 0 0 0-.13.02 7.61 7.61 0 0 1-.19.08l-.1-.19.01-.01 1.75-.7h.02l.08.22v.01a18.5 18.5 0 0 1-.4.2.21.21 0 0 0-.03.1c0 .03 0 .07.02.11a5537.03 5537.03 0 0 0 1.11 2.86ZM22.4 19.48l.07-.03a10.84 10.84 0 0 1 .4-.22l.13.16v.01l-1.63 1.15h-.01l-.13-.19.13-.1a2.1 2.1 0 0 0 .3-.25.22.22 0 0 0-.04-.12 3029.98 3029.98 0 0 0-1.73-2.47.22.22 0 0 0-.2-.03.6.6 0 0 0-.19.11 6.14 6.14 0 0 1-.2.14l-.1-.22v-.01l1.6-1.14h.04l.1.21v.02a34.33 34.33 0 0 1-.34.23.5.5 0 0 1-.04.05.08.08 0 0 0-.02.06c0 .08.01.13.03.16l1.71 2.42c.01.02.04.04.09.06h.02ZM33.46 18.16l-.29.2c-.11.1-.2.19-.26.27-.03.03-.04.1-.04.18 0 .04.01.08.04.11.04.06.13.13.25.21l.09.07-.12.2h-.01l-1.24-.76v-.02l.1-.17c.02-.01.03-.02.04 0 .14.08.29.1.44.06.07-.02.17-.08.3-.17a5694.75 5694.75 0 0 0 2.83-2.04l.27.2.01.03a17027.7 17027.7 0 0 0-.63 3.78c0 .04.02.08.05.13l.09.07c.04.02.07.05.1.09v.01l-.14.19h-.02l-1.46-.95v-.01l.1-.15H34c.07.04.12.07.17.08l.2.06c.02.01.05.01.07 0a.08.08 0 0 0 .04-.06l.18-.84-.01-.02-1.15-.75h-.03Zm.22-.18V18l1.02.61h.02l.21-1.52h-.01l-1.24.9ZM17.84 22.08a115.21 115.21 0 0 0 1.24.85h.03a.5.5 0 0 0 .13-.11 42.56 42.56 0 0 0 .18-.26l.2.15c.02 0 .02.01.01.02l-1.07 1.45h-.02l-.14-.1v-.03l.15-.26.03-.1a.1.1 0 0 0 0-.08 3385.53 3385.53 0 0 1-2.43-1.76c-.08-.05-.16-.05-.25 0a.47.47 0 0 0-.13.11 4.3 4.3 0 0 0-.14.18l-.2-.11V22l1.07-1.49.17.13-.15.24c-.04.07-.05.14-.03.2.02.04.06.09.14.14a364.04 364.04 0 0 1 .9.62l.88-1.19v-.01l-.96-.64a.57.57 0 0 0-.16-.05h-.02l-.13.08a.51.51 0 0 0-.13.16 1.6 1.6 0 0 1-.05.06h-.01l-.21-.1v-.03l1.07-1.49h.01l.2.16c-.1.1-.15.16-.16.19a.72.72 0 0 0-.06.15c-.01.03 0 .07.01.1.04.06.07.1.1.12a1940.16 1940.16 0 0 1 2.46 1.67c.08.01.14-.02.19-.1a10.84 10.84 0 0 1 .2-.25l.19.16-1.08 1.5h-.02l-.14-.14v-.03l.13-.23.07-.17v-.02a346.68 346.68 0 0 1-1.27-.89l-.8 1.21v.02ZM38.31 21.94c.06.16.1.3.09.43 0 .07-.03.16-.09.27a2.83 2.83 0 0 1-.52.74.45.45 0 0 0-.15.18l-.04.1c-.01.03 0 .05.02.07.04.03.08.04.14.04.12 0 .24-.03.37-.1h.01l.1.23h-.01c-.13.07-.27.11-.43.14a.59.59 0 0 1-.35-.05 1.08 1.08 0 0 1-.33-.26.87.87 0 0 1-.15-.34 2.56 2.56 0 0 0-.01-.1c.06-.2.17-.38.33-.54.24-.23.45-.45.62-.65.08-.09.1-.18.1-.26V21.67a.53.53 0 0 0-.07-.13 23.97 23.97 0 0 0-.14-.24 529.43 529.43 0 0 1-1.3.81v.02c0 .05.03.08.05.11a2.37 2.37 0 0 1 .2.36v.04l-.16.1c-.01.02-.02.01-.03 0l-1.05-1.68.2-.14c.08.15.13.25.17.3.04.06.08.1.13.13.06.02.12.01.18-.02l2.47-1.56c.04-.03.07-.06.08-.09a.25.25 0 0 0-.02-.2 5.55 5.55 0 0 0-.16-.32l.17-.11h.03a453.75 453.75 0 0 0 1.18 1.93l.16.37c.04.1.06.17.06.24 0 .1 0 .19-.02.28 0 .06-.03.13-.08.22a5.44 5.44 0 0 0-.15.25c-.05.06-.1.1-.16.14a.9.9 0 0 1-.64.1.72.72 0 0 1-.27-.13 2.18 2.18 0 0 1-.53-.51Zm-.28-.8v.03l.27.38c.1.14.23.24.4.3.14.05.28.03.44-.06l.26-.15a.6.6 0 0 0 .16-.17.43.43 0 0 0 .08-.23c0-.14-.04-.3-.12-.5a.57.57 0 0 0-.2-.25.19.19 0 0 0-.1-.03c-.06 0-.1 0-.12.02l-1.07.67Z"/><path fill-rule="evenodd" d="M36.47 31.55a9.08 9.08 0 0 0 0-7.02 9.08 9.08 0 0 0-4.96-4.96 9.08 9.08 0 0 0-7.02 0 9.08 9.08 0 0 0-4.96 4.96 9.08 9.08 0 0 0 0 7.02 9.08 9.08 0 0 0 4.96 4.96 9.08 9.08 0 0 0 7.02 0 9.08 9.08 0 0 0 4.96-4.96Zm-.39-.16a8.66 8.66 0 0 0 0-6.7 8.67 8.67 0 0 0-4.73-4.73 8.67 8.67 0 0 0-6.7 0 8.67 8.67 0 0 0-4.73 4.73 8.66 8.66 0 0 0 0 6.7 8.66 8.66 0 0 0 4.73 4.73 8.67 8.67 0 0 0 6.7 0 8.67 8.67 0 0 0 4.73-4.73Z"/><path d="M25.48 23.7v5.04c0 .23.02.46.08.7.03.1.1.19.2.24.15.08.3.12.47.12a7.09 7.09 0 0 0 .34.02V30h-2.65v-.18l.01-.01c.23 0 .4 0 .51-.03.2-.04.34-.13.42-.27.04-.07.07-.17.1-.32.03-.18.04-.37.04-.56v-5.61l-.42-.39a.92.92 0 0 0-.22-.15l-.3-.12a1.2 1.2 0 0 1-.13-.06.84.84 0 0 0-.4-.06V22h2l4.96 5.9h.01v-4.67c0-.17-.02-.36-.06-.55a.53.53 0 0 0-.17-.31.78.78 0 0 0-.38-.18c-.1-.02-.25-.03-.43-.02l-.02-.01v-.14c0-.01 0-.02.02-.02h2.58c.01 0 .02 0 .02.02v.14l-.02.01h-.37a.76.76 0 0 0-.45.18.41.41 0 0 0-.15.22c-.02.09-.04.17-.04.23l-.03.5a10732.67 10732.67 0 0 0-.02 6.7h-.2l-5.3-6.3Z" fill="#D2AC67"/><path d="M16.28 25.57c0 .03 0 .04.02 0 .08-.19.18-.37.3-.55a.98.98 0 0 1 .49-.42.9.9 0 0 1 .38-.04c.2.03.39.13.56.32.04.04.07.1.1.15.05.2.09.42.1.64a5 5 0 0 1-.06.77 2580.25 2580.25 0 0 1-.36 2l-.22-.03v-.01a31.23 31.23 0 0 0 .06-.39c-.01-.1-.05-.17-.12-.21a.32.32 0 0 0-.1-.04l-2.86-.5c-.03 0-.06 0-.08.03l-.04.05a.44.44 0 0 0-.11.17 13.46 13.46 0 0 0-.07.3l-.22-.04c.16-.94.3-1.72.43-2.36.02-.11.06-.23.11-.37a1.06 1.06 0 0 1 .58-.55.77.77 0 0 1 .96.37 1.7 1.7 0 0 1 .15.72Zm-.19.66c.02-.1.01-.24 0-.4a.51.51 0 0 0-.34-.44 1.33 1.33 0 0 0-.38-.09.95.95 0 0 0-.38.04c-.07.02-.14.08-.2.18a1.38 1.38 0 0 0-.2.84c0 .04.02.07.06.09.05.03.1.04.13.05a1941.75 1941.75 0 0 0 1.25.2l.06-.47Zm.17.32a12.59 12.59 0 0 0-.02.2 207.5 207.5 0 0 1 1.5.22.16.16 0 0 0 .07-.05 7.66 7.66 0 0 0 .1-.65c.02-.13 0-.27-.04-.42a.34.34 0 0 0-.09-.15 1.03 1.03 0 0 0-.57-.27c-.27-.02-.49.07-.64.26-.06.08-.12.2-.18.33-.05.12-.09.24-.1.37l-.03.16ZM39.01 25.3c-.19-.04-.37-.06-.55-.07a.4.4 0 0 0-.22.06.33.33 0 0 0-.15.17.41.41 0 0 0 0 .28 1.98 1.98 0 0 0 .04.14l-.24.04v-.01l-.27-1.43.25-.04h.01c0 .17.08.3.23.38.1.06.2.1.3.12a9260.34 9260.34 0 0 0 3.4.76l.06.3v.02a18978.15 18978.15 0 0 0-3.25 2.09 4.96 4.96 0 0 1-.04.1.37.37 0 0 0 0 .24v.02l-.23.03-.03-.01-.31-1.71.25-.04a28.8 28.8 0 0 1 .14.42.3.3 0 0 0 .07.03 63.03 63.03 0 0 1 .81-.47l-.25-1.4-.02-.01Zm.3.08h-.02l.22 1.18h.01l1.27-.86v-.01l-1.49-.31Z"/><path d="M21.03 25.07h3.02v.2l-.01.01c-.26 0-.47.03-.63.08-.2.07-.33.23-.37.47-.02.12-.05.26-.05.4l.01 5.04c0 .04.02.07.03.1.02.14.13.22.32.24a72.06 72.06 0 0 0 1.44.02c.3 0 .57-.02.82-.05.37-.04.68-.15.91-.32.19-.13.34-.3.47-.5a3.58 3.58 0 0 0 .32-.55h.26l-.53 1.85h-6.02v-.18l.01-.02c.14 0 .28-.03.44-.06.25-.06.4-.2.47-.43.03-.1.04-.2.04-.31v-4.97c0-.12-.02-.25-.06-.38a.5.5 0 0 0-.33-.34 2.5 2.5 0 0 0-.57-.1v-.2ZM31.79 25h3.33l.01.01v.16l-.01.01h-.03c-.25 0-.43 0-.55.03a.77.77 0 0 0-.47.27c-.02.02-.04.09-.05.19-.03.2-.02.4-.02.61v3.8c0 .87-.13 1.7-.72 2.36-.1.12-.21.2-.33.27-.36.21-.66.3-1.08.29a1.5 1.5 0 0 1-.53-.14.87.87 0 0 1-.37-.29.73.73 0 0 1-.14-.43c0-.15.04-.27.1-.37.03-.04.08-.1.16-.16a.5.5 0 0 1 .43-.11c.17.03.3.14.4.3a5.4 5.4 0 0 1 .31.64c.04.04.08.08.13.1.06.04.12.05.17.03a.57.57 0 0 0 .22-.12.32.32 0 0 0 .1-.14c.04-.1.06-.21.08-.31.02-.08.07-.18.07-.32v-5.3c0-.6-.19-1.12-.87-1.2h-.34l-.01-.01V25l.01-.01Z" fill="#D2AC67"/><path d="M15.94 31.73a.77.77 0 1 0 0-1.53.77.77 0 0 0 0 1.53ZM39.53 31.73a.77.77 0 1 0 0-1.53.77.77 0 0 0 0 1.53ZM37.8 35.52a203.95 203.95 0 0 1 .91.65c.11.08.2.11.25.1.03 0 .06-.01.08-.03a.39.39 0 0 0 .05-.08 29.64 29.64 0 0 1 .27-.36l.18.13-1.17 1.7h-.02l-.18-.13v-.01l.2-.32c.04-.07.06-.11.05-.14a.27.27 0 0 0-.03-.11 3597.43 3597.43 0 0 1-2.53-1.75c-.03 0-.06 0-.08.02a.54.54 0 0 1-.1.06c-.02 0-.04.03-.07.07a32.68 32.68 0 0 0-.17.26l-.2-.12c-.01 0-.02-.01-.01-.02l1.26-1.78c.14-.2.25-.33.31-.39.14-.11.29-.2.45-.25a.6.6 0 0 1 .16-.04c.27-.02.5.04.68.16.16.1.27.23.35.38a1.12 1.12 0 0 1 .03.87 19.81 19.81 0 0 1-.29.51 20.11 20.11 0 0 0-.37.62Zm-.26-1.72a.82.82 0 0 0-.49-.15.39.39 0 0 0-.21.08c-.12.08-.23.2-.34.32-.06.07-.12.18-.17.31a.1.1 0 0 0 0 .07c0 .02.02.04.04.06l1.18.85h.02l.31-.42a.7.7 0 0 0 .13-.4c0-.14 0-.24-.03-.31-.02-.1-.1-.2-.25-.3l-.19-.11ZM17.93 37.06v-.01c-.17 0-.32-.01-.47-.05a.96.96 0 0 1-.28-.14 1.52 1.52 0 0 1-.48-.5 2 2 0 0 1-.26-1.48c.03-.15.11-.3.23-.47.13-.17.25-.3.36-.4.08-.08.22-.18.42-.31l.02-.01c.3-.2.64-.3 1.01-.33a1.9 1.9 0 0 1 1.47.64 2.37 2.37 0 0 1 .38.72c.03.15.04.3.02.46l.01.01.42-.03.03.01.07.15v.01l-1.2.94h-.02l-.11-.16v-.03l.03-.06c.18-.27.3-.48.37-.62.12-.25.14-.52.08-.81a.57.57 0 0 0-.12-.23c-.07-.1-.15-.17-.24-.24a.66.66 0 0 0-.3-.14h-.41a4.42 4.42 0 0 0-1.74 1.03c-.18.18-.3.35-.36.5a.77.77 0 0 0-.03.5l.11.3c.06.11.16.22.3.33.14.1.3.14.46.13a.78.78 0 0 0 .42-.14l.32-.24a.2.2 0 0 0 .05-.17.33.33 0 0 0-.07-.14 10.9 10.9 0 0 1-.18-.3l.2-.14h.03l1.07 1.55-.01.03-.2.1c-.01.02-.02.01-.03 0-.08-.15-.16-.24-.23-.28-.03-.01-.05-.02-.07-.01a.85.85 0 0 0-.2.1 167.78 167.78 0 0 1-1.1.74l-.1-.2v-.02l.33-.6ZM32.33 37.55l.05.11a116.3 116.3 0 0 0 1.1 2.17c.06.1.14.17.23.24.1.06.21.1.32.1.06 0 .14 0 .23-.02.14-.03.28-.08.4-.17l.21-.16a.64.64 0 0 0 .18-.2.8.8 0 0 0 .08-.38 1.67 1.67 0 0 0-.22-.71 261.48 261.48 0 0 1-.78-1.45 1.08 1.08 0 0 0-.24-.21.24.24 0 0 0-.12-.04c-.1 0-.2.01-.3.06l-.04-.01-.08-.16.01-.04 1.25-.65h.03l.08.2-.01.04c-.18.1-.28.2-.3.32-.03.13-.01.25.05.37l.13.24.74 1.45c.04.07.07.18.1.3.06.26.04.5-.06.71-.14.3-.35.54-.62.7-.25.16-.53.28-.84.34-.11.02-.22.03-.32.02a1.78 1.78 0 0 1-.36-.06.4.4 0 0 1-.16-.08c-.16-.15-.29-.32-.38-.51a29.42 29.42 0 0 0-1-1.96.53.53 0 0 0-.16-.15l-.03-.01c-.1 0-.17.01-.2.03a4.14 4.14 0 0 0-.2.11l-.11-.2v-.02l1.68-.83h.01l.1.2-.36.18c-.03.02-.06.05-.09.1v.03ZM23.07 39.06c.2.13.3.32.3.58a5.95 5.95 0 0 1-.04.84l-.04.15v.15c0 .02.01.05.04.08s.06.04.11.03c.04 0 .08-.03.12-.06a.62.62 0 0 0 .16-.23h.02l.24.09a.96.96 0 0 1-.3.4c-.15.1-.35.14-.59.1a.84.84 0 0 1-.47-.23.2.2 0 0 1-.04-.07 1.05 1.05 0 0 1-.04-.62l.1-.38.12-.51a.5.5 0 0 0 0-.16.5.5 0 0 0-.05-.15.59.59 0 0 0-.4-.32 2.24 2.24 0 0 1-.1-.03h-.02l-.6 1.32a.15.15 0 0 0 0 .09l.01.02.04.03.1.06a22.64 22.64 0 0 0 .33.17l-.1.22-1.82-.86v-.02l.1-.2v-.01l.24.1c.09.04.17.06.26.06.04 0 .07-.02.1-.04a.4.4 0 0 0 .05-.1c.4-.83.82-1.67 1.25-2.52.04-.1.04-.17 0-.24a.48.48 0 0 0-.16-.13 26.8 26.8 0 0 0-.28-.17l.16-.19h.01a10047.62 10047.62 0 0 1 2.06 1.05l.34.25c.04.03.08.08.11.13.07.1.11.19.13.24.07.22.07.45 0 .68a.64.64 0 0 1-.2.3c-.08.07-.19.12-.32.17a.69.69 0 0 1-.26.03 3.43 3.43 0 0 1-.67-.1Zm-.69-.56s.02 0 .03.02c.12.07.2.12.26.14.13.05.27.08.4.09.2.01.37-.05.48-.18.13-.14.21-.3.27-.47a.49.49 0 0 0-.02-.35.81.81 0 0 0-.24-.28.95.95 0 0 0-.45-.24c-.06 0-.11 0-.15.03a.82.82 0 0 0-.15.22 285.33 285.33 0 0 1-.43 1.02ZM30.06 40.32c-.04.5-.22.9-.54 1.24-.28.28-.62.47-1.01.56-.16.04-.33.05-.5.03-.31-.03-.6-.1-.89-.24a1.42 1.42 0 0 1-.7-.68 2.26 2.26 0 0 1-.3-1.24c.02-.38.13-.71.33-1l.31-.38c.12-.13.29-.24.5-.33.18-.08.38-.13.6-.17.2-.03.4-.02.59.03.26.07.51.17.74.32a1.54 1.54 0 0 1 .5.51l.13.21.09.18c.12.3.17.63.15.96Zm-2.61-1.73a.7.7 0 0 0-.25.35 4.09 4.09 0 0 0 .07 2.44 1 1 0 0 0 .28.36c.04.03.1.06.17.08l.3.07a.9.9 0 0 0 .86-.35c.08-.13.15-.27.2-.44.05-.2.08-.4.08-.61a4.91 4.91 0 0 0-.16-1.32 2.58 2.58 0 0 1-.08-.18 1.36 1.36 0 0 0-.08-.18c-.14-.21-.28-.34-.43-.39a1.24 1.24 0 0 0-.48-.06.63.63 0 0 0-.43.19.49.49 0 0 1-.05.04Z"/></svg>