<!-- by TradingView --><svg width="56" height="56" viewBox="0 0 56 56" xmlns="http://www.w3.org/2000/svg"><path fill="#F0F3FA" d="M0 0h56v56H0z"/><ellipse cx="29.21" cy="27.36" rx="12.31" ry="12.44" fill="#F9BD99"/><path d="M29.15 19.34c-.1.1-.23.15-.39.14a.64.64 0 0 1-.41-.2.65.65 0 0 1-.2-.43.48.48 0 0 1 .15-.39c.1-.1.23-.14.39-.13.15.01.29.08.4.2.13.12.19.26.2.42a.48.48 0 0 1-.14.4Zm-.21-.13c.07-.05.1-.12.1-.22s-.02-.19-.09-.28a.43.43 0 0 0-.23-.16.27.27 0 0 0-.25.03.27.27 0 0 0-.1.23c0 .1.03.19.1.27.06.09.13.15.23.17.1.03.17.01.24-.04Z" fill="#391733"/><path d="M28.68 20.27c.37.03.7-.07.97-.3.27-.24.41-.55.43-.93.01-.38-.1-.71-.36-1a1.4 1.4 0 0 0-.94-.5c-.37-.05-.7.05-.97.3-.27.23-.42.54-.43.92-.01.38.1.71.36 1 .25.3.57.47.94.5Zm1.14-1.18c-.04.32-.18.56-.43.74-.24.18-.52.25-.82.19-.31-.06-.56-.22-.75-.48a1.17 1.17 0 0 1-.22-.86c.03-.31.18-.56.42-.74.25-.18.52-.24.83-.18.3.05.55.21.74.47.2.27.27.55.23.86Z" fill="#391733"/><path d="M30.28 20.46c-.4.41-.9.62-1.5.6-.59 0-1.1-.22-1.53-.65a2.18 2.18 0 0 1-.67-1.54 2 2 0 0 1 .58-1.51c.41-.42.9-.62 1.5-.61.6 0 1.1.22 1.53.65.43.43.66.94.67 1.54a2 2 0 0 1-.58 1.52Zm-.32-.05c.4-.34.61-.77.65-1.3.04-.54-.11-1.01-.46-1.43a1.92 1.92 0 0 0-2.69-.3c-.4.33-.62.76-.66 1.3-.04.53.12 1 .46 1.42.35.42.78.66 1.3.72.53.06 1-.08 1.4-.41ZM24.53 23.42c.28-.01.5.03.66.12.26.17.34.39.24.66-.04.14-.14.2-.28.17a.83.83 0 0 1-.4-.17c-.26-.2-.5-.44-.7-.69-.13-.15-.1-.2.09-.15l.08.02c.14.03.24.05.3.04Zm.63.36a.1.1 0 0 0-.05-.04l-.54-.17c-.05-.02-.1 0-.12.04-.02.05-.02.1.02.13l.47.39a.1.1 0 0 0 .08.02l.2-.03a.1.1 0 0 0 .08-.06.1.1 0 0 0-.01-.1l-.13-.18Z" fill="#391733"/><path d="M23.72 22.5c0 .08.04.12.12.13l1.38.12c.38.03.67.18.85.46.17.26.23.6.19 1a.92.92 0 0 1-.25.51c-.13.15-.28.27-.46.35-.26.12-.52.14-.8.04-.25-.09-.49-.25-.68-.5-.3-.35-.67-.8-1.1-1.35-.33-.4-.57-.9-.75-1.5l-.03-.1c-.06-.22-.1-.38-.1-.47a.7.7 0 0 1 .1-.43.8.8 0 0 1 .64-.4c.3-.02.53.07.7.29.15.2.23.45.23.76l-.04 1.09Zm-.26.22c.03-.47.04-.93.05-1.36 0-.3-.06-.52-.18-.66-.15-.16-.36-.2-.64-.08-.34.13-.47.39-.36.76.05.16.16.47.34.92.12.3.28.58.49.85.39.52.69.9.9 1.16.12.15.27.3.47.44.25.2.44.27.56.23.21-.07.4-.17.56-.29.22-.16.34-.33.37-.5.06-.5-.07-.86-.4-1.06a2.1 2.1 0 0 0-.92-.19c-.4-.02-.78-.06-1.15-.12-.06 0-.1-.04-.09-.1ZM21.65 24.8a19.33 19.33 0 0 1 .91-1.4.09.09 0 0 0 0-.1.08.08 0 0 0-.08-.04c-.35.02-.83.03-1.45.04-.42 0-.7.19-.86.54-.13.33-.1.61.12.87.12.14.28.25.48.32.22.08.42.08.58 0a.7.7 0 0 0 .3-.22Zm-.9 0a.62.62 0 0 1-.37-.3.63.63 0 0 1-.04-.47c.09-.33.3-.5.62-.52a15.55 15.55 0 0 1 1.18.03v.03c-.3.5-.5.84-.61.98-.2.27-.45.35-.78.24Z" fill="#391733"/><path d="M24.54 21.91c-.06 0-.08-.02-.07-.08a2 2 0 0 0-.2-1.41 1.5 1.5 0 0 0-1.17-.77c-.76-.1-1.31.23-1.64.99-.1.24-.14.45-.11.63.06.4.16.78.29 1.15.01.03 0 .04-.04.05h-.24c-.47 0-.8.04-.98.12-.42.18-.73.43-.92.77-.19.34-.24.75-.15 1.2.14.75.56 1.18 1.26 1.3.5.1.97-.02 1.38-.34a3.53 3.53 0 0 0 .82-1.1.07.07 0 0 1 .06-.04c.03 0 .05.01.06.03a6.32 6.32 0 0 0 1.27 1.3l.96.32h.1c.32-.1.66-.26 1.02-.48.4-.25.66-.6.78-1.04.1-.42.07-.86-.1-1.32-.15-.47-.45-.8-.9-1.02-.45-.22-.95-.3-1.48-.26ZM23 24.19l-.09-.13c-.03-.04-.06-.04-.09 0-.23.28-.42.56-.57.82-.16.26-.3.43-.43.5a1.8 1.8 0 0 1-1.24.25 1.18 1.18 0 0 1-.92-.77c-.2-.48-.22-.9-.07-1.28.16-.37.48-.65.96-.82.16-.06.47-.1.93-.09h.37c.04 0 .05-.02.04-.06-.16-.56-.25-.92-.3-1.05-.1-.37.02-.79.35-1.25.14-.2.33-.33.57-.4.21-.07.44-.08.68-.02.89.2 1.22.92 1 2.15 0 .03 0 .06.03.08.02.02.05.03.08.03.53-.07 1.03 0 1.5.2.53.23.86.62.97 1.17.07.36.06.74-.05 1.13-.05.2-.23.41-.53.62a6.8 6.8 0 0 1-.87.47c-.15.08-.28.1-.38.06a5.37 5.37 0 0 0-.28-.11 3 3 0 0 1-.51-.23 2.72 2.72 0 0 1-.64-.56 8.9 8.9 0 0 1-.51-.71ZM33.36 23.36c-.03-.13-.04-.4-.03-.79 0-.33.17-.53.5-.59a.2.2 0 0 0 .03 0c.34-.03.5.11.51.44 0 .74-.21 1.46-.66 2.18-.26.42-.51.62-.76.6a.73.73 0 0 1-.65-.45c-.1-.2-.1-.36-.01-.5.06-.11.2-.23.4-.35l.6-.38a.14.14 0 0 0 .07-.16Zm.23.18c0 .08-.02.13-.1.17-.36.18-.65.35-.88.5-.21.15-.22.34-.03.57l.09.09c.19.18.36.16.53-.04.6-.73.9-1.53.92-2.4 0-.2-.1-.28-.3-.23l-.06.01c-.19.05-.27.17-.25.37l.08.96ZM35.45 24.28l.01.03c.15.24.33.44.55.57.18.12.35.14.51.06.17-.08.2-.23.12-.45-.1-.3-.34-.41-.7-.36a6.6 6.6 0 0 1-.39.05c-.08 0-.11.04-.1.1Zm.96.26c.04.06.05.11.03.15-.03.04-.07.06-.15.06a.52.52 0 0 1-.23-.08.53.53 0 0 1-.18-.16c-.04-.06-.05-.11-.03-.15.03-.05.07-.06.15-.06.07 0 .15.03.23.08.08.04.14.1.18.16Z" fill="#391733"/><path d="M34.56 24.49c.04-.1.1-.1.16-.03l.56.71c.17.22.32.36.46.43.17.08.39.14.65.18a.5.5 0 0 0 .31-.05c.06-.04.15-.1.26-.22l.06-.06c.37-.35.52-.73.44-1.12a1.22 1.22 0 0 0-1.16-1c-.17 0-.45.06-.81.16-.17.05-.29.09-.37.1-.03.01-.05 0-.07-.01a.07.07 0 0 1-.02-.07l.1-.58c.1-.88-.2-1.43-.9-1.67-.52-.18-.94-.08-1.28.29a1.4 1.4 0 0 0-.32.58c-.06.23-.08.47-.04.71.02.09-.01.15-.1.18-.33.14-.59.3-.77.49-.22.22-.35.5-.4.83-.07.45.07.85.4 1.2.41.43.86.6 1.35.51.48-.08.86-.39 1.16-.9l.33-.66Zm-1.89-1.35a.2.2 0 0 0 .13-.2l-.03-.38c-.02-.23.07-.49.29-.77.21-.27.49-.4.83-.36.56.05.88.32.98.8.03.14.02.36 0 .68l-.06.69a.8.8 0 0 1-.13.41l-.1.14c-.13.16-.21.28-.25.35-.18.32-.32.56-.43.71-.19.25-.37.42-.56.5-.2.1-.4.12-.62.1-.2-.03-.4-.1-.59-.21-.42-.27-.62-.63-.61-1.08 0-.34.13-.63.35-.87.17-.17.44-.34.8-.51Zm2.55 1.64a20.77 20.77 0 0 0-.4-.54.23.23 0 0 1-.03-.23c.03-.08.09-.13.18-.15.33-.06.66-.13.96-.23.24-.08.44-.1.6-.03.22.08.4.2.52.39.14.18.2.39.19.61-.02.22-.24.53-.66.93a.24.24 0 0 1-.21.07 1.36 1.36 0 0 1-.67-.28c-.12-.1-.28-.27-.48-.54Z" fill="#391733"/><path d="M18.57 38.37c-.32-.14-.62-.4-.89-.8a.68.68 0 0 0-.28-.23 1 1 0 0 0-.34-.07 6.68 6.68 0 0 1-1.06-.12l-1.72-.47c-.32-.08-.64-.14-.95-.2-.06-.02-.07-.05-.06-.1a16.07 16.07 0 0 0 .64-2.35 5.77 5.77 0 0 1 .76-1.68c.02-.04.02-.07-.01-.1a1.2 1.2 0 0 1-.3-.5 4.48 4.48 0 0 1-.1-.64l-.02-.1c-.02-.15-.13-.3-.34-.42a5 5 0 0 1-1.02-.76c-.58-.66-1.2-1.28-1.84-1.86-.05-.05-.05-.09 0-.13.49-.4.89-.8 1.2-1.16.46-.53.8-.88 1.02-1.06.09-.08.4-.28.93-.6a.1.1 0 0 0 .05-.09c0-.43.1-.82.3-1.17a.27.27 0 0 0 .01-.27c-.19-.37-.34-.7-.45-.97a8.19 8.19 0 0 1-.3-1.02c-.17-.73-.38-1.43-.63-2.1-.01-.05 0-.08.05-.09.81-.14 1.6-.33 2.36-.57.4-.12.7-.19.88-.2.24-.03.54-.04.91-.03a.2.2 0 0 0 .2-.12 1.85 1.85 0 0 1 .62-.65c.13-.1.22-.19.27-.24.06-.09.1-.2.1-.33l.08-.92c.04-.28.11-.56.2-.83.27-.73.46-1.47.6-2.21 0-.05.03-.06.07-.05.53.2 1.1.38 1.73.52a7.16 7.16 0 0 1 2.24.81.22.22 0 0 0 .24 0c.22-.14.4-.22.56-.24.4-.06.65-.1.76-.13.11-.03.22-.13.33-.3.3-.47.66-.91 1.1-1.31.52-.5 1-.98 1.43-1.47.04-.05.09-.05.13 0 .26.34.66.79 1.21 1.34l.54.54c.3.3.6.69.87 1.15.06.1.14.13.25.11a.98.98 0 0 1 .6.03c.23.1.5.2.84.29.07.02.13.01.2-.02a6.99 6.99 0 0 1 1.75-.7 8.94 8.94 0 0 0 2.02-.59c.05-.01.08 0 .09.06.14.75.34 1.51.59 2.28.1.34.17.65.2.93l.03.94c0 .04.02.07.06.08.3.12.59.36.83.7.16.24.4.36.7.39.77.06 1.49.2 2.16.43.4.13.91.25 1.56.35.05.01.07.04.05.08-.28.93-.52 1.86-.74 2.82-.04.18-.23.6-.58 1.28a.08.08 0 0 0 0 .09c.12.17.2.35.26.53a5.32 5.32 0 0 1 .12.66v.04c.02.13.13.25.32.36.53.3.99.67 1.39 1.11l.48.54c.36.37.74.7 1.14 1 .04.04.04.07 0 .1a17.8 17.8 0 0 0-1.6 1.5c-.3.31-.56.56-.8.74-.36.28-.65.49-.87.64a.13.13 0 0 0-.06.12c.02.23-.07.56-.24.97l-.07.16c-.03.08-.02.19.04.31.35.7.61 1.4.8 2.11.15.62.26 1.05.33 1.27.07.27.15.5.23.69.02.05 0 .08-.05.09-.55.06-1.12.18-1.7.38l-.73.24c-.15.05-.4.1-.77.14l-1.1.1c-.06.01-.1.04-.13.1-.18.3-.43.55-.77.74-.07.03-.1.11-.1.24a7.7 7.7 0 0 1-.46 2.49c-.2.54-.32 1.09-.36 1.64 0 .06-.03.1-.07.12a.15.15 0 0 1-.14.02c-.64-.24-1.3-.44-1.98-.6a8.16 8.16 0 0 1-1.98-.78.21.21 0 0 0-.22 0c-.35.2-.74.3-1.16.3-.1 0-.2.06-.28.18a5.84 5.84 0 0 1-1.23 1.54c-.55.5-1.04 1.02-1.46 1.55a.1.1 0 0 1-.09.04.1.1 0 0 1-.09-.04c-.55-.64-1.09-1.2-1.62-1.68-.43-.4-.83-.9-1.18-1.47a.17.17 0 0 0-.14-.1c-.35 0-.7-.1-1.06-.28a.56.56 0 0 0-.53.02c-.54.27-.88.42-1.01.45-.97.21-1.9.47-2.79.76-.07.03-.1 0-.12-.07-.16-.86-.37-1.68-.61-2.44a6.7 6.7 0 0 1-.17-1.7.09.09 0 0 0-.06-.08Zm6.27-22.8a.1.1 0 0 1-.07.08.1.1 0 0 1-.1-.01c-.76-.54-1.35-.92-1.77-1.15a3.66 3.66 0 0 0-.93-.35c-.96-.22-1.69-.4-2.18-.5-.05-.01-.08 0-.1.06-.15.6-.32 1.15-.5 1.65-.17.5-.28.9-.32 1.22-.07.62 0 1.27.2 1.97.05.2-.01.35-.2.43-.07.03-.18.03-.32-.01-.18-.05-.47-.12-.88-.2a2.6 2.6 0 0 0-1.3.04c-.67.22-1.3.42-1.91.6-.23.07-.51.11-.83.13-.06 0-.08.03-.06.09.21.6.4 1.31.58 2.15.2 1.01.7 1.85 1.46 2.52.08.06.13.13.14.2.06.18-.04.31-.3.4-.9.3-1.6.65-2.12 1.04-.4.3-.75.69-1.04 1.15-.16.24-.45.5-.89.8-.03.01-.03.03 0 .06.47.41.98.93 1.54 1.54a6.92 6.92 0 0 0 .62.58c.09.09.25.18.47.3l.35.17c.32.17.54.27.69.33.21.08.45.14.71.17.09 0 .12-.03.1-.11l-.1-.4a.22.22 0 0 0-.18-.17 5.3 5.3 0 0 1-3.36-2.37c-.03-.04-.03-.09 0-.13.59-.68 1.25-1.31 2-1.9.38-.3.83-.47 1.36-.53.06 0 .1-.04.12-.1l.38-1.36a.12.12 0 0 0-.04-.13 5.44 5.44 0 0 1-1.74-3.7c-.01-.09.02-.14.1-.17.87-.33 1.8-.54 2.76-.63.44-.05.88.03 1.3.22.07.03.12.02.16-.03.28-.34.61-.67 1-1 .05-.04.06-.1.04-.16a5.18 5.18 0 0 1 .37-4.11c.02-.04.05-.05.1-.05.92.17 1.8.44 2.64.8.43.19.8.5 1.13.93.02.03.05.04.09.03l.24-.08c.25-.08.54-.1.9-.07.05 0 .13-.02.23-.08.06-.03.1-.1.13-.19l.02-.07.03-.1a5.39 5.39 0 0 1 2.28-3.2c.08-.05.15-.04.22.02a12.65 12.65 0 0 1 1.86 2.02c.28.42.46.86.54 1.33.02.12.1.2.21.23l.13.04c.11.03.16 0 .13-.12a2.98 2.98 0 0 1-.05-.33 1.93 1.93 0 0 0-.13-.57c-.23-.49-.45-.88-.65-1.18a5.96 5.96 0 0 0-.79-.84 12.9 12.9 0 0 1-1.3-1.42c-.03-.03-.06-.04-.1 0-.7.63-1.35 1.29-1.92 1.97a5.84 5.84 0 0 0-1.15 2.25Zm3.06-2.32c.12 0 .25.07.4.23l.06.07c.46.48.8.9 1.02 1.27.07.11.14.31.22.6.03.1.1.17.2.2l.17.05c.12.04.17-.01.16-.14a2.75 2.75 0 0 0-.48-1.3A16.3 16.3 0 0 0 28 12.42c-.06-.06-.11-.06-.17-.01-.56.42-1.03.95-1.43 1.58a3.8 3.8 0 0 0-.64 1.58c-.01.11.03.15.14.12l.3-.1c.1-.03.16-.1.19-.21.23-.92.67-1.6 1.32-2.05a.38.38 0 0 1 .2-.07Zm-1.24 2.27.41-.04c.07 0 .12-.05.14-.12l.21-.54c.13-.27.24-.43.34-.5a.26.26 0 0 1 .2-.02c.08.02.14.06.18.12.25.38.54.76.86 1.14.12.13.2.12.25-.06a2 2 0 0 1 .02-.06.53.53 0 0 0-.08-.47 16.4 16.4 0 0 0-1.11-1.41c-.07-.09-.16-.1-.26-.06-.1.04-.19.1-.24.17a5.3 5.3 0 0 0-.99 1.76c-.02.06 0 .1.07.09Zm9.2-1.2c.34 1.03.55 2.03.66 3 .01.17 0 .34-.04.51l-.17.5-.04.11c-.06.16-.02.27.12.36l.18.1c.1.06.17.03.19-.08.13-.72.2-1.37.2-1.98.01-.41-.02-.74-.1-.98-.26-.86-.46-1.64-.6-2.32-.01-.07-.05-.09-.11-.06-.26.11-.5.2-.7.25l-1.73.46a4.8 4.8 0 0 0-2.38 1.63c-.05.06-.04.1.04.12l.4.1c.06.03.13.01.18-.04a5.5 5.5 0 0 1 3.76-1.79c.08 0 .12.03.15.1Zm-3.77.43a.05.05 0 0 0 .02-.05.05.05 0 0 0-.04-.04l-1.1-.37h-.04a.05.05 0 0 0-.02.05l.2 1.26c0 .02 0 .03.02.04l.06-.01.9-.88Zm-7.96-.25h-.02l-.24.14c-.04.02-.04.04 0 .07l.78.64c.03.02.05.02.06-.02l.32-.9c.02-.04 0-.06-.04-.06l-.86.13Zm10.98.66c.17.05.28.18.32.38l.28 1.44c.05.24.02.53-.09.87-.05.17 0 .3.15.4l.04.02c.06.03.11.03.17.01.06-.02.1-.07.11-.13.13-.5.16-1 .09-1.5-.1-.7-.27-1.41-.49-2.12-.02-.08-.07-.11-.15-.1a5.6 5.6 0 0 0-3.4 1.7c-.04.05-.03.08.03.1l.46.12c.06.02.11 0 .16-.04a3.95 3.95 0 0 1 2.03-1.14.58.58 0 0 1 .3-.01Zm-14.58.12c.06-.07.12-.11.2-.12a.85.85 0 0 1 .25.04c.6.16 1.18.39 1.75.67a1.52 1.52 0 0 1 .41.36c.03.03.06.04.1.04.12 0 .24-.04.36-.1.05-.03.06-.07.03-.12-.12-.2-.28-.39-.47-.54a10.66 10.66 0 0 0-2.9-1.03c-.06-.02-.1.01-.14.08a6.05 6.05 0 0 0-.3 3.62c.02.1.07.12.15.06l.32-.24c.08-.05.1-.12.08-.2-.11-.42-.16-.84-.16-1.28.01-.55.12-.96.32-1.24Zm7.89.22c.03 0 .05-.01.06-.04a.07.07 0 0 0 0-.07l-.55-.88a.06.06 0 0 0-.07-.03.07.07 0 0 0-.06.04l-.34.84a.07.07 0 0 0 0 .07l.06.03.9.04Zm6.4.75.1 1.27c.02.15.1.23.26.26h.01c.15.01.23-.06.23-.23-.01-.83-.1-1.52-.28-2.1-.03-.1-.1-.13-.2-.1-.71.2-1.35.55-1.93 1.04-.07.06-.06.1.01.15l.34.2c.08.05.16.03.22-.04.19-.22.39-.4.6-.54.23-.15.42-.15.58 0 .03.02.05.05.05.09Zm-13.72-.13c.12-.07.23-.08.32-.03l.88.51c.16.1.3.08.45-.02l.04-.03c.16-.11.15-.22-.01-.32a7 7 0 0 0-2-.82c-.06-.02-.1 0-.13.07a4.08 4.08 0 0 0-.1 2.22c0 .03.02.06.05.07.03.01.06 0 .09-.01l.28-.2a.2.2 0 0 0 .08-.23c-.07-.28-.09-.6-.06-.97.02-.12.05-.2.11-.24Zm12.9 13c.04 0 .06-.03.05-.07-.02-.34-.02-.7 0-1.06.06-.57.02-1.05-.1-1.42 0-.03-.02-.03-.05-.02-.42.27-.88.37-1.37.3a2.18 2.18 0 0 1-2-1.87c-.04-.26-.03-.58.06-.98.04-.2.15-.41.33-.64.1-.13.28-.32.53-.57l.03-.03.03-.02.01-.02.02-.02c.1-.1.21-.29.31-.56l.12-.3c.1-.22.19-.4.28-.51a1.98 1.98 0 0 1 2.87-.4c.49.38.76.9.8 1.58 0 .04.02.06.06.07a3 3 0 0 0 .32.01c.43 0 .8.13 1.14.38.33.24.57.57.7.98.22.61.14 1.2-.23 1.74-.36.54-.86.86-1.5.97-.44.08-.86-.03-1.26-.31-.12-.08-.16-.05-.13.08.12.54.14 1.08.06 1.61-.03.2 0 .44.06.73.02.06.06.09.12.07.33-.07 1.01-.17 2.06-.29a6.7 6.7 0 0 1 2.64.22c.06.01.1 0 .15-.04a.16.16 0 0 0 .07-.14c-.06-.64-.08-1.27-.08-1.9 0-.26-.05-.57-.16-.94a2.48 2.48 0 0 1-.08-.57c0-.14-.08-.4-.22-.8-.23-.64-.45-1.21-.65-1.71-.06-.16-.2-.4-.43-.7a17.9 17.9 0 0 1-.89-1.43 3.83 3.83 0 0 0-.54-.72c-.31-.37-.59-.64-.82-.8-.15-.12-.39-.31-.7-.59-.46-.39-.8-.65-1.04-.8a14.2 14.2 0 0 0-3.05-1.4c-.24-.05-.45-.1-.62-.16a4.7 4.7 0 0 0-.95-.2 49.3 49.3 0 0 0-2.18-.16 9.7 9.7 0 0 0-1.74.15l-.8.1c-.11.01-.28 0-.52-.03h-.1l-.3.18-.35.2-.18.07c-.5.2-.88.4-1.16.6-.24.17-.59.37-1.06.6l-.46.24c-.37.19-.74.45-1.11.77a21.99 21.99 0 0 0-1.62 1.61c-.3.5-.62.98-.94 1.46a18.68 18.68 0 0 0-1.13 2.48l-.1.41a26.1 26.1 0 0 1-.37 1.8c-.03.14-.04.35-.02.66.02.27 0 .68-.02 1.23l-.01.28c-.01.16.07.79.23 1.9.05.3.12.6.21.89l.3.87c.03.1.1.12.2.09a13.55 13.55 0 0 1 1.33-.42.5.5 0 0 0 .14-.1A6.06 6.06 0 0 1 20 30.18c.75-.43 1.51-.77 2.31-1.02.03 0 .05-.03.04-.06-.05-.3-.06-.6-.03-.9l.07-.69c0-.44-.05-.85-.14-1.25-.01-.04-.04-.05-.07-.03l-.02.01-.02.01-.02.02h-.01l-.07.04c-.37.23-.66.35-.86.35-1.13.04-1.92-.44-2.37-1.42-.23-.5-.28-1-.14-1.5a2.44 2.44 0 0 1 2-1.84v-.02c-.16-.63-.1-1.23.18-1.8.1-.19.3-.4.58-.61l.11-.1a2.19 2.19 0 0 1 1.94-.37c.45.1.84.33 1.15.66.32.35.5.76.54 1.22 0 .13.02.24.03.32 0 .04.03.06.06.06.33.01.57.04.72.08.22.06.43.19.61.37a3.5 3.5 0 0 1 1.08 1.86c.07.46.03.91-.12 1.36-.15.46-.4.84-.74 1.14a3.04 3.04 0 0 1-2.53.7c-.17-.04-.4-.16-.7-.36-.07-.05-.13-.1-.18-.12a.06.06 0 0 0-.06 0 .06.06 0 0 0-.03.06c.08.5.1.9.08 1.2v.1l-.01.07v.08c-.04.4-.04.7-.02.93.01.08.06.12.14.1a22.33 22.33 0 0 1 7.65.42c.26.08.6.22 1.06.43.03.01.06.02.1 0l1.7-.56Zm.5-11.77c.03.02.06.02.09 0a.08.08 0 0 0 .04-.08l-.03-.92a.08.08 0 0 0-.05-.08.08.08 0 0 0-.09 0l-.72.5a.08.08 0 0 0-.04.08c0 .03.02.05.05.07l.75.43Zm-12.38-.46a.07.07 0 0 0 .04-.07.07.07 0 0 0-.04-.06l-.84-.45a.06.06 0 0 0-.07 0 .06.06 0 0 0-.03.07l.08.88c0 .03.01.05.03.06.03.01.05.01.07 0l.76-.43Zm15.14.8c-.02 0-.04 0-.05.03l-.25 1.08c-.01.04 0 .05.04.04l1.1-.27c.03-.01.03-.03.01-.06l-.53-.66h-.01l-.31-.15Zm-18.58 1.04c.04.01.06 0 .09-.02a.08.08 0 0 0 .02-.08l-.18-.78a.08.08 0 0 0-.06-.06.08.08 0 0 0-.08.02l-.66.56a.08.08 0 0 0-.03.09c.01.03.03.05.07.06l.83.21ZM40.16 31.5c.04-.16.11-.29.22-.37.07-.05.2-.1.38-.15l.16-.05c.7-.24 1.31-.63 1.84-1.2a25.8 25.8 0 0 1 1.74-1.7c.04-.03.04-.06 0-.1-.38-.37-.7-.7-.94-.98a9.82 9.82 0 0 0-1.26-1.25 3.03 3.03 0 0 0-.58-.32c-.31-.11-.73-.28-1.25-.5-.17-.06-.27-.15-.3-.28a.13.13 0 0 1 .01-.1c.12-.22.2-.36.26-.43.5-.6.8-.99.9-1.19a9.03 9.03 0 0 0 .67-2.34c.05-.3.12-.59.22-.87.01-.04 0-.06-.03-.07a224 224 0 0 0-3.4-.83 1.14 1.14 0 0 0-.51-.01l-1.42.3c-.1.03-.1.07-.04.14l.36.37c.07.07.15.09.25.07l.38-.1c.56-.13.99-.2 1.28-.18a6.63 6.63 0 0 1 2.4.63.1.1 0 0 1 .05.08c0 .07 0 .16-.02.25-.14.66-.35 1.37-.63 2.13-.25.68-.6 1.17-1.07 1.47-.04.02-.05.06-.03.1.15.41.27.88.36 1.4 0 .03.02.06.06.07l.4.11c.35.09.6.18.77.27.9.46 1.66 1.13 2.26 1.99a.1.1 0 0 1 0 .1 22.65 22.65 0 0 1-1.7 1.7c-.48.41-1.02.68-1.63.8-.08.02-.13.07-.13.15-.03.36-.14.7-.3 1.03a.6.6 0 0 0-.07.26c0 .1.02.18.08.23.36.33.6.6.74.8a6.56 6.56 0 0 1 .93 2.8.2.2 0 0 1-.16.2c-.86.28-1.75.48-2.68.61a2 2 0 0 1-.91-.08 3.14 3.14 0 0 0-.47-.13.1.1 0 0 0-.09.03c-.3.37-.64.7-1 .97a.13.13 0 0 0-.05.15c.4 1.41.29 2.77-.35 4.08-.03.06-.09.1-.16.08a10.86 10.86 0 0 1-2.84-.9c-.38-.2-.69-.47-.93-.83-.05-.06-.1-.08-.18-.05h-.02l-.09.04a2.8 2.8 0 0 1-.82.24.9.9 0 0 0-.4.13.13.13 0 0 0-.07.08 5.46 5.46 0 0 1-2.34 3.37c-.06.05-.13.04-.19-.01-.6-.56-1.16-1.15-1.67-1.76-.39-.47-.62-1-.69-1.6 0-.06-.04-.1-.1-.11l-.45-.13-.06.01a.06.06 0 0 0-.02.05c.08.76.28 1.37.6 1.83.19.26.42.52.7.78.42.38.67.61.75.7.33.34.65.7.96 1.08.04.05.09.06.13.01.5-.5.97-.94 1.39-1.34.36-.35.63-.66.8-.92.33-.49.54-.84.64-1.06.1-.19.2-.47.32-.84.03-.12.1-.17.21-.17.04 0 .08.01.11.04l1.29 1.04c.13.11.34.22.62.33.57.22 1.2.4 1.85.54a6.03 6.03 0 0 1 1.13.39l.05-.01a.06.06 0 0 0 .02-.06 3.5 3.5 0 0 1-.01-.54 3.07 3.07 0 0 1 .36-1.12c.1-.24.17-.44.2-.6.22-.94.2-1.87-.03-2.8-.03-.12-.04-.21-.02-.27l.09-.26c.02-.07.07-.1.14-.06.34.17.7.27 1.08.3a7.26 7.26 0 0 0 2.15-.22c.67-.24 1.34-.43 2.02-.56.03 0 .05-.03.04-.06a150 150 0 0 1-.66-2.47 5.47 5.47 0 0 0-.81-1.69c-.1-.14-.3-.3-.62-.49l-.13-.07a.08.08 0 0 1-.04-.1Zm-19.22-9.36-.33.06c-.2.03-.35.06-.44.1-.42.14-.74.39-.96.74-.56.88-.54 1.75.06 2.61.3.43.74.7 1.3.78.56.08 1.05-.04 1.46-.36l.66-.5c.09-.08.17-.07.25.02.46.56 1 .88 1.64.96a2.44 2.44 0 0 0 2.74-1.83c.12-.42.14-.82.06-1.2a2.8 2.8 0 0 0-1.23-1.76 1.4 1.4 0 0 0-.83-.22.25.25 0 0 1-.18-.06.26.26 0 0 1-.09-.17c-.05-.32-.1-.56-.14-.71a1.82 1.82 0 0 0-1.2-1.3 2.21 2.21 0 0 0-1.8.1 2 2 0 0 0-.95 1.09c-.18.48-.18 1 .02 1.57.01.04 0 .07-.04.08Zm-5.71-1.29a.3.3 0 0 1 .04-.21c.04-.07.1-.12.17-.15a6.07 6.07 0 0 1 2.05-.35 1.94 1.94 0 0 1 .51.1c.04 0 .07 0 .1-.04l.23-.29c.02-.03.02-.06-.02-.08a1.6 1.6 0 0 0-.91-.25 11 11 0 0 0-2.83.59c-.04.01-.06.04-.05.08.12.81.37 1.59.77 2.32.22.4.5.73.83.98.07.05.12.04.15-.04l.12-.34a.19.19 0 0 0-.05-.2 3.84 3.84 0 0 1-1.11-2.12Zm25.37-.2v.14c-.08.42-.24.93-.49 1.52a2 2 0 0 1-.6.82.07.07 0 0 0-.02.1l.1.3c.02.07.06.08.12.05.28-.14.5-.33.64-.56l.31-.74c.26-.63.48-1.31.67-2.04.02-.08 0-.14-.1-.18a6.21 6.21 0 0 0-3.68-.24c-.1.04-.12.1-.04.19l.25.24c.06.07.14.09.23.06a3.42 3.42 0 0 1 2.33.08c.18.07.27.16.28.26Zm-24.45.57c.01-.12.08-.19.2-.2l1.14-.1a.3.3 0 0 0 .28-.22l.04-.1c.05-.13 0-.2-.13-.2a7.32 7.32 0 0 0-2.11.27.18.18 0 0 0-.12.1.19.19 0 0 0-.02.13c.18.64.5 1.24.94 1.8.08.1.15.1.22-.02l.15-.27c.06-.1.04-.19-.05-.26-.11-.08-.25-.24-.4-.5a.68.68 0 0 1-.14-.43Zm23.6-.03-.56 1.15c-.07.15-.05.29.08.42l.02.02c.12.1.22.08.3-.07.37-.67.63-1.32.8-1.96 0-.06-.01-.1-.06-.13a1.86 1.86 0 0 0-.57-.16 4.53 4.53 0 0 0-1.6.02c-.16.03-.2.12-.1.25l.1.14c.1.13.21.17.36.13.65-.16 1.05-.14 1.22.1.03.02.03.06.01.09Zm-4.09 1.66.02-.32c.03-.47-.22-.95-.76-1.43a1.5 1.5 0 0 0-1.08-.38c-.79.02-1.35.41-1.68 1.17l-.2.55c-.05.15-.15.31-.31.5-.1.1-.25.3-.47.55-.38.44-.5.95-.38 1.53.11.5.37.9.78 1.18.8.57 1.58.59 2.35.06l.3-.26.36-.3c.07-.05.14-.04.2.03.26.36.6.6 1.03.71.17.05.4.03.71-.04.25-.07.47-.15.64-.25.4-.24.67-.58.8-1.05.13-.47.09-.9-.13-1.32a1.67 1.67 0 0 0-2.01-.89l-.1.03c-.04 0-.06-.02-.06-.07Zm3.26-.75c.01.02.03.03.06.03.02 0 .04-.01.05-.03l.42-.9a.06.06 0 0 0 0-.06.06.06 0 0 0-.06-.03l-.89.13a.06.06 0 0 0-.04.03.06.06 0 0 0 0 .06l.46.77Zm-21.55-.84c.02-.04 0-.06-.03-.06l-1 .05c-.05 0-.06.02-.03.05l.53.76c.02.03.04.03.06 0l.47-.8Zm23.95 2.92a.1.1 0 0 0 0-.02l-.16-.32a.07.07 0 0 0-.05-.04c-.02 0-.04 0-.06.02l-.57.66a.07.07 0 0 0-.02.06c0 .03.02.04.04.05l.77.27.06-.01a.07.07 0 0 0 .03-.06l-.04-.6v-.01Zm-25.93.46c.03-.01.05-.03.06-.07.01-.03 0-.06-.02-.08l-.57-.6a.08.08 0 0 0-.08-.04.08.08 0 0 0-.07.06l-.28.85c-.02.03 0 .07.02.1.02.02.05.03.08.02l.86-.24Zm-1.95 3.57c-.13-.16-.13-.3 0-.45.48-.56.98-.99 1.5-1.3.1-.05.25-.1.44-.17h.02l.06-.02h.02a.13.13 0 0 0 .07-.07c.06-.1.08-.22.06-.36 0-.04-.02-.06-.06-.07-.36-.03-.76.12-1.2.45-.66.5-1.27 1.04-1.8 1.64-.08.08-.08.17-.01.25.42.5.88.93 1.38 1.27.58.4 1.15.65 1.71.75.08.01.1-.02.09-.09l-.1-.4a.2.2 0 0 0-.16-.16 3.73 3.73 0 0 1-2.02-1.27Zm29.1-.39c.05.07.04.14-.01.2-.6.7-1.32 1.26-2.13 1.68-.12.06-.15.16-.07.28.07.1.16.14.27.12a1 1 0 0 0 .39-.13 10.7 10.7 0 0 0 2.41-2.04c.03-.03.03-.06 0-.08a6.29 6.29 0 0 0-2-1.7c-.28-.16-.66-.29-1.11-.39-.1-.02-.12.01-.1.1l.13.4a.2.2 0 0 0 .17.14c.87.2 1.56.67 2.05 1.42Zm-19.52-1.78c-.03-.18-.13-.24-.3-.18h-.04c-.18.07-.25.2-.2.38.14.68.16 1.38.05 2.1-.01.12 0 .3.05.55v.03l.02.07c0 .07.05.1.11.08l.4-.13c.03-.02.05-.04.04-.08a4.5 4.5 0 0 1 0-1.15c.06-.39.02-.95-.13-1.67Zm11.18.63c.14.44.19.74.16.9-.09.43-.1.9-.07 1.38 0 .08.05.11.13.09l.4-.13c.06-.02.08-.07.06-.13a2.03 2.03 0 0 1-.02-.87c.05-.32.07-.54.06-.67a9.48 9.48 0 0 0-.17-1.13c-.03-.15-.1-.17-.2-.06l-.26.28c-.1.1-.12.21-.09.34Zm-19.84 1.36c-.05-.07-.04-.13.03-.18l1.06-.78c.1-.07.13-.16.1-.27l-.01-.05v-.02c-.08-.16-.19-.2-.33-.11-.6.35-1.13.78-1.6 1.28-.05.05-.05.1-.01.16.35.48.96.89 1.83 1.21.1.04.16 0 .15-.12l-.03-.27a.26.26 0 0 0-.2-.25c-.49-.15-.82-.35-1-.6Zm27.13-.24c.07.1.06.19-.04.26-.43.3-.78.62-1.07.95a.14.14 0 0 0-.03.12c0 .04.03.07.07.1.09.05.17.05.26 0a6.64 6.64 0 0 0 1.6-1.28c.03-.03.04-.06.02-.09a1.14 1.14 0 0 0-.27-.34c-.37-.3-.88-.58-1.52-.86-.1-.04-.15 0-.14.1l.03.3c0 .1.07.17.17.2.47.17.78.34.92.54Zm-26-.28a.07.07 0 0 0-.03-.07.07.07 0 0 0-.08 0l-.73.49a.07.07 0 0 0-.03.06c0 .03.01.05.04.07l.76.38h.08a.07.07 0 0 0 .03-.08l-.03-.85Zm24.94.86c0 .02 0 .04.02.05h.06l.79-.52a.05.05 0 0 0 .02-.04.05.05 0 0 0-.03-.05l-.77-.32c-.04-.02-.06 0-.07.05l-.02.83Zm-10.35 3.9c.6-.47 1.23-.9 1.88-1.27a9.76 9.76 0 0 1 2.82-1.14c1.46-.3 2.72-.45 3.79-.43.32 0 .76.09 1.32.24.12.04.18 0 .19-.13v-.2c0-.13-.06-.22-.18-.26-.27-.08-.53-.16-.78-.22a4.11 4.11 0 0 0-1.4-.05c-1.25.06-2.48.25-3.69.56-.69.17-1.22.36-1.6.56-.15.07-.84.49-2.07 1.25a17.42 17.42 0 0 0-1.44 1.04c-.08.06-.08.12.01.17l.42.23c.1.05.2.05.28-.01l.45-.34Zm-9.2-2.3c-.98.44-1.77 1-2.35 1.68-.04.04-.03.06.02.05.58-.07.97-.16 1.16-.29l.88-.55c1.44-.8 2.94-1.25 4.5-1.33 1.4-.07 3 .02 4.78.28.3.04.66.15 1.1.33.17.07.33.1.47.06.12-.02.26-.09.42-.2.06-.04.06-.08 0-.12-.23-.16-.5-.29-.8-.37-.89-.25-1.97-.42-3.24-.52-1-.07-1.93-.1-2.76-.06-.81.03-1.52.13-2.12.3-.68.18-1.36.43-2.05.74Zm8.98 2.71c-.07.05-.06.1.01.15l.47.27a.2.2 0 0 0 .23-.02c1.09-.87 2.12-1.5 3.1-1.9 1.2-.48 2.5-.75 3.87-.81.58-.02.94-.03 1.1-.02.35.02.71.1 1.08.22.12.05.2 0 .24-.11l.08-.23c.05-.13 0-.21-.12-.25a6.12 6.12 0 0 0-2.42-.27c-1.02.08-1.95.22-2.8.4-.74.16-1.46.44-2.16.83-.99.54-1.88 1.12-2.68 1.74Zm-9.6-1.4c-.06.03-.05.05.02.06.24.03.45.03.62 0 .13-.01.43-.06.9-.15.25-.04.54-.12.87-.25a7.92 7.92 0 0 1 3.1-.62 26.97 26.97 0 0 1 1.88.09h.06c.58.04 1.01.08 1.3.12.47.06.89.16 1.26.28h.1c.2-.05.4-.15.58-.3.02-.02.02-.03 0-.05-.22-.16-.5-.27-.84-.33-1.65-.3-3.3-.42-4.95-.4-1 .02-2.15.3-3.44.81-.63.26-1.11.5-1.46.73Zm9.8-.18c.03-.02.03-.04 0-.05-.2-.11-.44-.18-.71-.2L27 30.58a10.12 10.12 0 0 0-2.32 0c-.67.18-1.33.34-1.99.47-.05.02-.07.05-.05.1l.01.05a12.12 12.12 0 0 1 2.16.07c.18.02.49 0 .92-.07.42-.07.82-.09 1.2-.06 1.08.1 1.83.18 2.26.27.19.04.34.02.45-.05.13-.08.27-.17.41-.28Zm9.43-.3a3.87 3.87 0 0 0-1.4-.22c-1.1.05-2.19.2-3.27.44-.46.1-.86.24-1.2.4-1.02.51-1.97 1.09-2.85 1.74-.08.06-.08.12 0 .17l.44.26c.1.05.19.05.27-.02.27-.2.72-.5 1.36-.9.8-.5 1.62-.85 2.49-1.05.71-.16 1.58-.28 2.6-.35a4.25 4.25 0 0 1 1.56.18c.04.01.07 0 .1-.03.15-.16.25-.35.32-.55.02-.05 0-.07-.04-.06h-.09a.74.74 0 0 1-.29 0Zm-24.92.93a.03.03 0 0 0 0 .01l.2.33c.02.02.04.03.06 0l.75-.77c.03-.02.03-.04-.01-.05l-1-.3c-.02 0-.04.01-.03.04l.03.74Zm26.89-.55a.1.1 0 0 0-.02-.1.1.1 0 0 0-.1-.04l-.82.2a.1.1 0 0 0-.07.08.1.1 0 0 0 .03.1l.55.48a.1.1 0 0 0 .09.02.1.1 0 0 0 .07-.06l.27-.68Zm-22.56 5.6c.06.04.13.08.2.1h.03v-.04c-.12-.23-.3-.43-.52-.6a.1.1 0 0 0-.1-.02 5.23 5.23 0 0 1-4.12-.33c-.06-.05-.07-.13-.05-.25a12 12 0 0 1 .8-2.6c.18-.43.47-.78.86-1.05.07-.05.1-.11.09-.2l-.07-.43c-.03-.06-.07-.07-.1-.04-.52.45-.94.98-1.26 1.57-.14.26-.31.74-.5 1.42-.18.67-.4 1.3-.62 1.9-.02.04 0 .06.04.06.36 0 .87.13 1.52.36 1.23.45 2.45.48 3.66.11.05-.02.1 0 .14.03Zm9.92-4.7.32-.28c.12-.1.1-.16-.05-.17-.82-.07-1.63-.17-2.44-.29-.2-.03-.41-.01-.64.04-.13.04-.13.07 0 .11l2.4.67c.15.05.29.02.4-.08ZM35 38.12c.05-.02.05-.05 0-.08a1.67 1.67 0 0 1-.6-.84c-.17-.5-.46-.96-.86-1.39-.55-.6-1.08-1.07-1.58-1.44a18.4 18.4 0 0 0-3.2-1.83c-.29-.13-.49-.2-.6-.22a3.82 3.82 0 0 1-.63-.19c-.22-.08-.6-.19-1.11-.32l-.64-.18a2.77 2.77 0 0 0-.6-.07c-.22 0-.38-.02-.49-.04a5.5 5.5 0 0 0-.91-.1l-1.58.02c-.18 0-.44.03-.8.07a7.2 7.2 0 0 1-.73.07c-.33 0-.8.07-1.4.2l-.67.13c-.14.03-.38.11-.7.25-.12.04-.3.1-.54.14-.23.05-.44.12-.63.22-.05.03-.06.07-.02.13l.3.41c.03.05.07.06.13.05a16.95 16.95 0 0 1 7.54-.9c.43.03.93.13 1.5.27l1.47.41c1.04.33 2.06.81 3.07 1.44a9.68 9.68 0 0 1 2.48 2.04 6.9 6.9 0 0 1 1.03 1.85c.03.09.1.12.19.1.2-.04.4-.1.58-.2Zm-3.4-4.4a.08.08 0 0 0-.04.07c0 .03.02.06.04.07l.5.3c.06.03.11.02.17-.02l.94-.62c.82-.54 1.71-.9 2.67-1.1 1.02-.2 1.95-.28 2.82-.24.11 0 .28.04.5.12.13.04.23 0 .29-.1l.1-.2c.08-.11.05-.2-.08-.25a3.63 3.63 0 0 0-1.63-.24c-.79.06-1.51.14-2.18.25-.52.08-.95.2-1.3.35-.93.4-1.87.95-2.8 1.6Zm-13.56 1.8a.06.06 0 0 0-.06-.02c-.87.28-1.7.26-2.52-.08-.15-.06-.21-.15-.19-.27.07-.4.23-.94.49-1.61a1.67 1.67 0 0 1 .34-.54c.2-.2.3-.38.3-.53 0-.1-.05-.16-.15-.18-.15-.03-.28.02-.4.16-.3.34-.52.73-.68 1.15a19 19 0 0 0-.63 2.06c0 .06.01.1.06.12.8.3 1.64.46 2.5.48.44 0 .9-.09 1.35-.28.02 0 .03-.02.01-.04l-.42-.42Zm22.54-.23a.76.76 0 0 1-.34.17c-.57.12-1.11.22-1.62.28-.19.03-.39 0-.6-.08-.09-.03-.16-.01-.21.05l-.17.22c-.06.07-.05.12.03.16.28.13.5.2.66.19 1.04-.06 2.03-.26 2.96-.59.07-.02.1-.06.08-.13-.3-1.5-.82-2.58-1.54-3.23-.1-.08-.15-.06-.2.05l-.1.28c-.03.11-.01.21.07.3.29.28.53.62.73 1.01.23.46.32.87.3 1.23-.01.04-.03.07-.05.09Zm-6.34 3.23a2.04 2.04 0 0 1-.52-.7 4.6 4.6 0 0 0-.97-1.55 8.93 8.93 0 0 0-.85-.83 15.8 15.8 0 0 0-2.6-1.64c-.42-.22-.92-.42-1.5-.61a13.19 13.19 0 0 0-6.38-.76c-1.17.12-1.87.2-2.1.26-.28.07-.64.18-1.08.32-.3.1-.66.2-1.09.3-.12.04-.15.1-.08.22l.17.3c.07.11.15.15.27.1 1.53-.52 3.16-.82 4.9-.88 1.18-.04 2.2.03 3.07.22.8.17 1.48.36 2.04.54.83.28 1.63.65 2.41 1.1.8.48 1.42.91 1.88 1.32A5.28 5.28 0 0 1 33.17 38a38.49 38.49 0 0 0 .42.86c.03.03.07.03.1.01l.54-.3c.03-.01.03-.03 0-.06Zm4.7-5.21h.03l.36-.64c.01-.02 0-.03-.02-.04a4.18 4.18 0 0 0-1.86-.17c-.8.08-1.42.17-1.9.26-.35.07-.69.18-1.01.34a21.67 21.67 0 0 0-2.19 1.29l.57.46c.02.02.05.02.07 0a7.85 7.85 0 0 1 2.18-1.23c.88-.28 1.93-.44 3.15-.5.23-.01.44.06.62.23Zm-22.76 1.47c-.08-.07-.09-.14-.04-.23l.54-.95a.36.36 0 0 0-.03-.44.6.6 0 0 1-.03-.03c-.13-.14-.24-.14-.34.03-.37.65-.63 1.3-.78 1.96-.02.07 0 .12.07.15.6.2 1.33.24 2.2.1.13-.02.16-.09.08-.2l-.15-.2a.3.3 0 0 0-.3-.12c-.03 0-.08 0-.14.02-.26.05-.45.07-.58.07a.74.74 0 0 1-.5-.16Zm23.49 0c-.25.07-.6.12-1.05.15a.8.8 0 0 0-.41.2.27.27 0 0 0-.07.12c-.05.13 0 .2.14.2.68 0 1.36-.09 2.03-.28.1-.03.14-.1.11-.2a4.53 4.53 0 0 0-.86-1.76c-.09-.1-.16-.1-.23.02l-.12.21c-.06.12-.05.22.05.31.24.24.4.54.49.89.02.07-.01.12-.08.14ZM32.7 39.2c.03.05.07.06.13.04l.55-.18c.03 0 .04-.02.05-.05 0-.02 0-.04-.03-.06-.2-.15-.33-.31-.39-.5a4.74 4.74 0 0 0-1.7-2.33 12.58 12.58 0 0 0-4.85-2.4 11.02 11.02 0 0 0-3.25-.46c-1.05 0-2.17.1-3.37.28-.27.04-.68.14-1.24.3-.4.13-.72.2-.93.25-.07.02-.1.06-.07.13l.15.46c.03.1.1.14.2.1 1.6-.53 3.27-.8 5.02-.82 1.3-.01 2.62.2 3.94.63 1.28.42 2.48 1.01 3.59 1.78a4.78 4.78 0 0 1 1.9 2.18c.07.2.17.41.3.65Zm.43-4.16.5.4c.03.03.07.03.1 0a5.9 5.9 0 0 1 1.54-.93c.57-.2 1.44-.37 2.6-.5l.42.01c.21.01.39-.07.52-.26a.12.12 0 0 0 .02-.09c-.04-.22-.2-.33-.48-.32-.8.02-1.68.12-2.62.3-.38.06-.7.17-.99.33-.53.29-1.06.6-1.6.96-.05.03-.05.07 0 .1Zm-16.16-1.2a.08.08 0 0 0-.07-.05.08.08 0 0 0-.08.05l-.37.74a.09.09 0 0 0 0 .09c.02.03.05.04.08.04l.83-.04c.03 0 .05-.02.07-.05a.08.08 0 0 0 0-.09l-.46-.7Zm21.64.73a.05.05 0 0 0 0 .05c.01.02.02.03.04.03l.85-.04c.02 0 .04-.01.04-.03v-.05l-.45-.64c-.03-.04-.06-.04-.08 0l-.4.68Zm-6.15 4.62c-.17-.18-.3-.38-.37-.58-.14-.4-.31-.7-.5-.93a7.78 7.78 0 0 0-1.92-1.59 14.4 14.4 0 0 0-4.16-1.66c-.9-.2-1.93-.27-3.1-.22-1.5.07-2.9.3-4.24.71-.13.04-.15.12-.08.22l.16.23c.12.15.26.2.45.15.44-.12.95-.24 1.53-.36 3.34-.68 6.48-.1 9.42 1.73.53.33.94.66 1.25 1 .39.4.66.86.81 1.37.06.2.2.29.4.25l.2-.03h.06c.2-.04.23-.13.09-.29Zm1.42-3.63c-.07.05-.08.1-.03.18l.28.4c.05.07.11.07.18.02a4.35 4.35 0 0 1 1.71-.91c.18-.05.82-.17 1.93-.37.13-.02.27-.12.4-.3l.01-.02c.03-.2-.04-.3-.21-.28-.89.06-1.67.15-2.35.29a2.7 2.7 0 0 0-.84.32c-.37.2-.73.43-1.08.67Zm-2.32 4.03c-.1-.2-.2-.43-.28-.67-.07-.21-.17-.4-.3-.54-.41-.5-.86-.9-1.33-1.21a12.63 12.63 0 0 0-3.04-1.48 10.77 10.77 0 0 0-3.34-.57c-1.5 0-2.98.19-4.43.58-.16.04-.17.13-.03.26l.34.32c.06.06.14.07.24.04.95-.28 2.02-.45 3.2-.5 2.2-.08 4.38.52 6.52 1.81a3.66 3.66 0 0 1 1.7 1.83l.17.32c.03.06.08.08.14.06l.4-.13c.06-.03.08-.07.04-.12Zm6.19-4.2c.11-.08.11-.16 0-.2a203.07 203.07 0 0 1-1.54.27c-.4.06-.69.16-.88.28-.44.27-.76.49-.98.66-.02.02-.03.04-.01.06l.35.48c0 .01.02.02.03 0 .35-.27.64-.45.88-.54.35-.13.92-.3 1.7-.5.04 0 .06-.02.09-.05.18-.26.3-.4.36-.45Zm-7.2 4.23a.24.24 0 0 1-.07-.14c-.03-.26-.15-.5-.33-.71a9.94 9.94 0 0 0-2.88-1.83c-1.23-.51-2.3-.8-3.2-.85a15.22 15.22 0 0 0-4.55.42c-.15.04-.17.12-.06.23l.24.24c.1.1.23.15.38.11 1.94-.42 3.65-.46 5.13-.12 1.17.28 2.39.8 3.65 1.6.55.34.93.78 1.15 1.32.01.03.03.06.06.08.22.13.45.11.7-.04.04-.02.04-.05.02-.07l-.24-.24Zm4.8-1.72 1.6-1.62.02-.03v-.01c-.02-.01-.03-.02-.05-.01-.24.1-.48.18-.7.22-.54.1-1 .34-1.4.73-.08.07-.08.14-.03.22l.36.49c.06.08.12.09.2.01Zm-7.25 1.24c.39.2.68.47.87.78.08.13.18.21.32.24.12.03.25 0 .38-.07.03-.02.04-.05.03-.08-.1-.34-.18-.55-.25-.63-.19-.21-.5-.47-.96-.76a11.52 11.52 0 0 0-4.02-1.57 5.86 5.86 0 0 0-1.72-.08c-.38.03-1.21.13-2.5.3-.15.01-.16.07-.05.16l.45.36c.12.1.26.14.41.1.86-.16 1.74-.22 2.64-.2.44.02.8.06 1.08.13 1.11.29 2.22.73 3.32 1.32Zm-8.06 2.4a9.3 9.3 0 0 1-.66-3.36c0-.16.08-.4.25-.73.06-.1.04-.2-.05-.27l-.22-.18c-.1-.08-.17-.06-.22.06a5.05 5.05 0 0 0 .04 3.56c.18.55.31 1.14.4 1.75.01.06.04.07.09.05.27-.15.51-.25.73-.3l.08-.01a22.94 22.94 0 0 1 .27-.06c.73-.15 1.3-.3 1.7-.44.4-.14.7-.28.92-.43.44-.3.82-.64 1.15-1.03.06-.07.05-.13-.04-.16l-.42-.15a.22.22 0 0 0-.25.06 5.26 5.26 0 0 1-3.63 1.73c-.07 0-.11-.03-.14-.09Zm-1.46-3.4c.03.01.04 0 .05-.03l.28-1.05c0-.04 0-.05-.04-.05l-1.06.24c-.04 0-.04.02-.02.05l.5.65v.01l.3.17Zm18.66-.96c-.03 0-.06 0-.08.02a.08.08 0 0 0-.03.09l.15.69c0 .03.03.05.06.06.03.01.06 0 .08-.01l.58-.49a.08.08 0 0 0 .03-.09.08.08 0 0 0-.06-.06l-.73-.2Zm-16.22 3.5c-.28.05-.45-.03-.51-.23a9.35 9.35 0 0 1-.34-1.95c-.01-.17.03-.36.12-.55.03-.07.02-.13-.04-.18l-.23-.19c-.06-.04-.1-.03-.14.03-.14.24-.22.48-.22.71 0 .44.01.81.06 1.1.1.61.25 1.24.44 1.88.03.09.09.13.18.12a5.68 5.68 0 0 0 3.32-1.6c.07-.07.06-.12-.03-.16l-.4-.14a.2.2 0 0 0-.21.05c-.65.61-1.32.98-2 1.1Zm14.4-.24c-.06.17-.2.24-.44.22a2.5 2.5 0 0 1-.58-.16l-.1-.04a8.82 8.82 0 0 1-.84-.34c-.3-.15-.55-.32-.75-.51a.1.1 0 0 0-.1-.03.62.62 0 0 0-.3.16.1.1 0 0 0-.02.1c.04.16.11.27.2.33.96.6 2 1 3.14 1.2.06.02.1 0 .12-.06.36-.94.51-1.88.44-2.84a2.87 2.87 0 0 0-.14-.7c-.04-.1-.1-.12-.19-.06l-.23.17a.23.23 0 0 0-.1.27c.22.74.19 1.5-.1 2.29ZM24.8 38.79c.65.16 1.4.43 2.24.8.18.08.37.19.57.31.25.16.43.26.54.29.2.05.41.06.62 0 .03 0 .04-.02.03-.05a1.47 1.47 0 0 0-.53-.59 10.22 10.22 0 0 0-4.28-1.61h-.36c-.5.03-1 .05-1.46.03-.3 0-.6.04-.9.13a.07.07 0 0 0-.05.07c0 .03.01.05.04.07.27.18.55.31.81.4.18.07.33.1.44.08.84-.13 1.6-.1 2.3.07Zm-3.71.8-.1-1.19a.3.3 0 0 0-.25-.29h-.04c-.17-.06-.25 0-.25.18 0 .68.09 1.35.25 2.02.03.12.1.17.22.17.16 0 .34-.05.54-.14.6-.26 1.06-.55 1.41-.87.05-.05.05-.09-.01-.12l-.35-.2c-.07-.05-.14-.04-.2.02-.3.3-.62.5-.93.61a.2.2 0 0 1-.2-.02.21.21 0 0 1-.1-.17Zm13.8-.07c-.01.1-.06.18-.13.21-.08.04-.16.03-.26-.01l-.92-.43a.38.38 0 0 0-.42.04l-.04.03c-.15.1-.14.2.02.29.63.34 1.25.6 1.85.79a.2.2 0 0 0 .17-.02.2.2 0 0 0 .1-.13c.18-.66.22-1.33.1-2 0-.1-.06-.13-.14-.08l-.28.16c-.1.06-.13.14-.1.24.08.26.1.57.05.9Zm-12.74-.46a.06.06 0 0 0 .03-.07.07.07 0 0 0-.04-.05l-.77-.4a.06.06 0 0 0-.07.01.06.06 0 0 0-.03.06l.03.92c0 .03.01.05.04.06.02.01.05 0 .07 0l.74-.53Zm12.43.44h.06a.06.06 0 0 0 .03-.06l-.04-.78a.06.06 0 0 0-.03-.06.06.06 0 0 0-.06 0l-.68.43a.06.06 0 0 0-.03.06c0 .02 0 .04.03.05l.72.36Zm-11.95-.53c.74.38 1.62.72 2.62 1 .24.07.53.1.87.1.45.02.87.05 1.24.11.13.02.14-.01.06-.1-.09-.09-.2-.16-.36-.22-.8-.33-1.48-.59-2.03-.78a3.4 3.4 0 0 0-1.06-.19h-1.33c-.1 0-.1.03-.01.08Zm5.26 3.64c-.11-.07-.19-.13-.23-.18-.42-.43-.79-.86-1.1-1.29-.13-.2-.23-.42-.27-.67-.02-.12-.1-.17-.2-.16l-.19.02c-.12 0-.17.07-.14.19.1.44.3.86.6 1.24.48.6 1 1.16 1.55 1.69.05.04.1.04.14 0a6.59 6.59 0 0 0 1.84-2.33c.05-.1.1-.27.16-.5l.05-.22c.03-.1 0-.13-.1-.12l-.34.07a.23.23 0 0 0-.2.18c-.18.76-.6 1.42-1.23 1.99-.14.11-.25.14-.34.09Zm.36-1.17c-.04.08-.1.13-.2.14-.11 0-.2-.03-.25-.1a16 16 0 0 1-.63-.9.38.38 0 0 0-.38-.18h-.05c-.19.03-.23.11-.14.27.38.63.8 1.2 1.3 1.68.07.07.13.07.2 0 .52-.5.9-1.09 1.13-1.77.04-.1 0-.16-.1-.17h-.2c-.12-.02-.21.03-.26.14-.2.4-.33.7-.42.89Zm-.76-1c-.03 0-.04 0-.05.03a.05.05 0 0 0 0 .05l.54.84c0 .02.02.03.05.02.02 0 .03 0 .04-.03l.33-.81c.02-.05 0-.07-.04-.07l-.88-.03Zm-3.67.72c-.03.02-.03.05.01.06l1.01.32c.05.01.06 0 .05-.04l-.24-1.02c0-.04-.03-.05-.06-.02l-.77.7Zm7.87.2h.01l.39-.2c.04-.02.04-.05 0-.08l-.75-.6c-.03-.03-.06-.02-.07.02l-.3.88c0 .05 0 .07.05.06l.67-.07Z" fill="#391733"/></svg>