<!-- by TradingView --><svg width="56" height="56" viewBox="0 0 56 56" xmlns="http://www.w3.org/2000/svg"><path fill="#F0F3FA" d="M0 0h56v56H0z"/><path d="M27.19 28.51a4.4 4.4 0 0 0-1.36-.74c.44-.2.89-.11 1.36-.19l3.53-2.14-1.89-7.12h18.52L33.39 37.8h-1.56l-.44-5.17c-1.24-1.24-3.86-3.8-4.2-4.11Z" fill="#FFF102"/><path d="M22.64 37.57V18.34L8.74 37.57h13.9Z" fill="#00A54F"/><path fill-rule="evenodd" d="M46.9 18.56 33.21 37.44h-1.36A5.37 5.37 0 0 0 35 32.5c0-2.25-1.84-4-2.76-4.51H26.4c.84.4 2.53 1.98 2.53 4.51 0 3.16-2.48 4.7-4.14 4.7v-.46a4.29 4.29 0 0 0 3.7-4.38c0-3.1-2.47-4.16-3.7-4.3v-.36a4.31 4.31 0 0 0 3.7-4.57c0-2.64-2.47-3.84-3.7-4.1v-.48h.19c1.43.37 3.95 1.7 3.95 4.58 0 3.01-1.97 4.3-2.96 4.57h6.1c.98-.3 2.93-1.66 2.93-4.78a4.9 4.9 0 0 0-2.81-4.37H46.9Zm-24.86-.2.26-.36H48L33.5 38H8l14-19.59v-.05h.04ZM22 19.37 9.09 37.44H22V19.37Zm1 17.26V19.2h1.06a4.15 4.15 0 0 1 4.13 4.17v.17c0 2.09-1.6 3.83-3.65 3.98v.84a3.98 3.98 0 0 1 3.65 3.98v.15c0 2.3-1.84 4.15-4.1 4.15H23Z" fill="#231F20"/></svg>