<!-- by TradingView --><svg width="56" height="56" viewBox="0 0 56 56" xmlns="http://www.w3.org/2000/svg"><path fill="#F0F3FA" d="M0 0h56v56H0z"/><path fill-rule="evenodd" d="M8 20h2.04a2.3 2.3 0 0 1 2.25 2.36c0 .8-.38 1.5-.95 1.93.7.45 1.16 1.25 1.16 2.17 0 1.4-1.08 2.54-2.42 2.54H8v-9Zm1.4 1.38h.54c.58 0 1.05.49 1.05 1.1v.07c0 .6-.47 1.1-1.05 1.1H9.4v-2.27Zm0 3.57h.54c.58 0 1.05.49 1.05 1.1v.6c0 .6-.47 1.1-1.05 1.1H9.4v-2.8ZM13 29l.25-1.22h.35c.6 0 1.09-.5 1.09-1.11V20H16v6.96c0 1.13-.9 2.04-2 2.04h-1Zm6-.08V20.1h1.92c1.15 0 2.08.97 2.08 2.17v4.47c0 1.2-.93 2.18-2.08 2.18H19Zm1.23-1.3V21.4h.85c.38 0 .7.32.7.72v4.77c0 .4-.32.73-.7.73h-.85Zm3.77-.8V20h1.27v6.87c0 .43.32.77.71.77.4 0 .72-.34.72-.77V20H28v6.82c0 1.2-.9 2.18-2 2.18s-2-.98-2-2.18ZM29 20v9h1.24v-3.38h.85c1.06 0 1.91-.9 1.91-2.01V22c0-1.1-.85-2.01-1.9-2.01H29Zm1.23 1.36h.7a.9.9 0 0 1 .87.92v1.06a.9.9 0 0 1-.86.92h-.71v-2.9ZM34 29v-9h1.4v7.62H38V29h-4Zm5-8.68V20h3.5v1.39h-2.28v2.49h1.7v1.33h-1.7v2.4h2.28V29H39v-8.68Zm6.63 6.1-.97 2.6h-1.4l1.67-4.49-1.68-4.5h1.4l.98 2.63.98-2.64H48l-1.67 4.51 1.67 4.5h-1.4l-.97-2.61ZM24.02 30l-1.52 9h1.43l.34-2.12h1.46l.34 2.12h1.43l-1.52-9H24.02Zm1.48 5.52-.5-3.05-.5 3.05h1ZM13 30h2.04a2.3 2.3 0 0 1 2.25 2.36c0 .8-.38 1.5-.95 1.93.7.45 1.16 1.25 1.16 2.17 0 1.4-1.08 2.54-2.42 2.54H13v-9Zm1.4 1.38h.54c.58 0 1.05.49 1.05 1.1v.07c0 .6-.47 1.1-1.05 1.1h-.55v-2.27Zm0 3.57h.54c.58 0 1.05.49 1.05 1.1v.6c0 .6-.47 1.1-1.05 1.1h-.55v-2.8ZM33 30v9h1.92c1.15 0 2.08-1 2.08-2.22v-4.56c0-1.23-.93-2.22-2.08-2.22H33Zm1.23 1.33v6.34h.85c.38 0 .7-.33.7-.74v-4.86c0-.41-.32-.74-.7-.74h-.85ZM28 39v-9h2.1c1.05 0 1.9.9 1.9 2.02v1.6c0 .56-.22 1.07-.58 1.44L32.5 39h-1.45l-.8-3.38h-1.01V39H28Zm1.94-7.63h-.71v2.9h.7a.9.9 0 0 0 .87-.92v-1.07a.9.9 0 0 0-.86-.91ZM18 32.16c0-1.2.9-2.16 2-2.16s2 .97 2 2.16v4.68c0 1.2-.9 2.16-2 2.16s-2-.97-2-2.16v-4.68Zm1.28-.05c0-.43.32-.78.72-.78.4 0 .72.35.72.78v4.78c0 .43-.32.78-.72.78-.4 0-.72-.35-.72-.78V32.1Zm19.92 4.34-1.2.09c.12 1.79 1.09 2.46 2.08 2.46S42 38.35 42 36.74c0-1.28-.97-2.25-1.73-3.01l-.5-.52c-.72-.82-.4-2.1.28-2.1.55 0 .75.64.79.96l1.16-.22c-.2-1.13-.87-1.85-1.77-1.85s-2 .49-2 2.07c0 1.36 1 2.38 1.75 3.17l.35.37c.76.83.54 2.13-.25 2.13-.64 0-.85-.86-.88-1.29Z" fill="#056F7E"/></svg>