<!-- by TradingView --><svg width="56" height="56" viewBox="0 0 56 56" xmlns="http://www.w3.org/2000/svg"><path fill="#85BF6F" d="M0 0h56v56H0z"/><path d="M48 21v.37a1.9 1.9 0 0 0-.99.47c-.32.33-.6.83-.85 1.51L41.88 35h-.33l-4.6-11.8c-.24-.6-.4-.98-.5-1.11-.15-.2-.34-.37-.56-.48-.22-.13-.52-.2-.89-.24V21h5.02v.37c-.57.06-.94.17-1.1.33a.77.77 0 0 0-.26.6c0 .33.14.85.41 1.57l3.13 8.02 2.9-7.92c.28-.78.42-1.32.42-1.63 0-.2-.09-.38-.26-.55-.18-.18-.47-.31-.89-.39l-.15-.03V21H48ZM26.53 27.24l4.8 5.13a9.02 9.02 0 0 0 2 1.73c.56.3 1.11.48 1.67.52V35h-6.18v-.38c.37 0 .64-.07.8-.2.16-.14.25-.29.25-.45a1 1 0 0 0-.1-.45 3.64 3.64 0 0 0-.6-.73L25 28.01v4.51c0 1.06 0 2.1 1.1 2.1h.43V35H21v-.38h.46c1.3 0 1.54-1.04 1.54-2.1v-9.04c0-1.06-.22-2.1-1.54-2.1H21V21h5.53v.38h-.44c-1.3 0-1.09 1.04-1.09 2.1v4.28c1.48-1.51 3.3-3.26 4.45-5.06.17-.27.25-.51.25-.72 0-.16-.06-.3-.2-.41-.13-.13-.36-.19-.68-.19h-.3V21h4.78v.38a2.65 2.65 0 0 0-1.61.57c-.34.21-.74.56-1.23 1.04l-1.94 2.12-1.99 2.13ZM16.22 27.86c1.63.4 2.78 1.56 2.78 3.31 0 2.99-2.73 3.83-5.23 3.83H8v-.38h.46c1.23 0 1.54-1.13 1.54-2.1v-9.04c0-.99-.3-2.1-1.54-2.1H8V21h5.28c2.41 0 5.22.62 5.22 3.5 0 1.44-.93 2.86-2.28 3.36Zm-4.24-.56c.22.05.24.08.52.11.29.02.36.03.7.03 1.82 0 3.2-.69 3.2-2.7 0-1.93-1.5-3.05-3.28-3.05-.6 0-.66.08-1.14.23v5.38Zm0 6.69c.7.18.9.28 1.58.28 1.76 0 3.44-.87 3.44-2.77 0-1.17-.69-2.39-1.74-2.91a4.85 4.85 0 0 0-2.17-.44c-.37 0-.44.01-.7.03-.27 0-.25.03-.41.07v5.74Z" fill="#fff"/></svg>