<!-- by TradingView --><svg width="56" height="56" viewBox="0 0 56 56" xmlns="http://www.w3.org/2000/svg"><path fill="#F0F3FA" d="M0 0h56v56H0z"/><path fill-rule="evenodd" d="M6 25h3.02c.65 0 1.17.56 1.17 1.25 0 .48-.26.9-.63 1.1.54.16.94.68.94 1.3 0 .75-.56 1.35-1.25 1.35H6v-5Zm1.5 1h.78c.26 0 .48.22.48.5s-.22.5-.48.5H7.5v-1Zm0 2h.86c.3 0 .53.22.53.5s-.24.5-.53.5H7.5v-1Zm3.5 2v-5h1.5v4h2v1H11Zm5.28 0h-1.45l1.74-5h1.55l1.73 5h-1.48l-.3-1h-1.52l-.27 1Zm1-3.67.5 1.67h-.96l.46-1.67Zm7.3 2.1c-.27.92-.98 1.57-2.23 1.57C20.7 30 20 28.88 20 27.5s.67-2.5 2.35-2.5c1.24 0 1.93.61 2.2 1.5l-1.13.32c-.13-.49-.42-.82-.92-.82-.72 0-1 .67-1 1.5s.3 1.5 1 1.5c.55 0 .86-.42.96-1l1.11.44ZM26.5 25H25v5h1.5v-1.32l.71-.79.96 2.11h1.74l-1.8-3.1 1.7-1.9h-1.84l-1.47 1.92V25Z"/><path fill-rule="evenodd" d="M32 25h2.89c.61 0 1.11.67 1.11 1.5 0 .68-.34 1.25-.8 1.44.63.49 1.1 1.51 1.28 2.06h-1.63a5.8 5.8 0 0 0-1.05-2h-.3v2H32v-5Zm2.12 1h-.62v1h.62c.21 0 .38-.22.38-.5s-.17-.5-.38-.5Zm7.38 1.5c0 1.38-.74 2.5-2.5 2.5s-2.5-1.12-2.5-2.5.71-2.5 2.5-2.5 2.5 1.12 2.5 2.5Zm-1.5 0c0 .83-.3 1.5-1 1.5s-1-.67-1-1.5.28-1.5 1-1.5 1 .67 1 1.5Zm6.16-1.17-1.29.27c0-.63-.45-.7-.66-.7-.21 0-.56.15-.56.48 0 .23.61.37 1.03.46.05 0 .1.02.14.03 1.15.19 1.45.96 1.46 1.33.01.6-.39 1.8-2.07 1.8-1.68 0-2.09-1.14-2.08-1.7h1.33c.1.39.34.7.8.7s.7-.11.7-.36c0-.26-.14-.55-1.16-.8s-1.52-.88-1.52-1.3c0-.44.26-1.54 1.93-1.54 1.34 0 1.86.89 1.95 1.33ZM47 25v5h4v-1h-2.53v-1h2.03v-1h-2.03v-1H51v-1h-4Z" fill="#D02717"/><path d="M4.14 29.97c-.46-1.28.32-2.51.77-2.97-.3.6-.65 1.95 0 2.97 3.13 4.93 30.64 3.42 38.09 3-34.03 3.01-38.29-1.4-38.86-3Z"/></svg>