<!-- by TradingView --><svg width="56" height="56" viewBox="0 0 56 56" xmlns="http://www.w3.org/2000/svg"><path fill="#30271B" d="M0 0h56v56H0z"/><path fill-rule="evenodd" d="m41.26 21.03 2.62 1.63c.07.04.12.12.12.21 0 .1-.04.18-.12.23l-.69.46 1.75.81c.04.02.06.05.06.08 0 .04-.02.07-.06.09L42 26v-.23l2.64-1.31-1.65-.77-.35.23 1.03.57L41 26.2v-1.19L38 27v-.62l3.01-2H41V23l1.14.64.3-.2-.44-.21V23l.65.3.63-.41L38 19.6V19l3 1.87V19.6h1.56v-.21H41V18l2.67 1.5-2.4 1.53Zm.68 3.36-.32.21h.94v-.21h-.62ZM35 25v1.2l6-3.84L35 19v3.12h3.5v.48H35v1.33l-1.42-.66.32-.2a.2.2 0 0 0 .1-.16.2.2 0 0 0-.1-.17L29 20v.45l4.4 2.46-.26.16L33 23v.15l-.35.21L32 23v.75l-3 1.79V26l3-1.8v.19h1.56v.21H32v1.6l2.67-1.7-1.63-.91.32-.2 1.64.77v.61l-2 1V26l2-1Zm-3-2.2-4.13 2.64 6.89 4.13a.5.5 0 0 1 .01.85l-4.2 2.68 2.35 1.64c.05.04.08.1.08.17a.2.2 0 0 1-.08.16L29 38v-.46l3.52-2.63-2.28-1.59-.41.26L32 34.8 27 38v-2.6l-4 2.55v-1.18l4-2.56V32l1.84 1.03.51-.33-.35-.25V32l.7.48 3.85-2.47L23 23.68v-1.16l4 2.4V23h2.92v-.4H27V20l5 2.8ZM27.62 35l.62-.4h1.68v.4h-2.3ZM17 33.1v-2.6h7v-1h-7V23l12 7-12 8v-3.24L14 37v-.46l3-2.24v-.75l-3-2.1V31l3 2.1ZM11 37v-3h2.92v-.4H11V31l5 2.8-5 3.2Zm31-16 2.94-1.46c.04-.02.06-.05.06-.09 0-.03-.02-.06-.06-.08L42 18v.23l2.64 1.23-2.64 1.3V21Z" fill="#F0F3FA"/></svg>