<!-- by TradingView --><svg width="56" height="56" viewBox="0 0 56 56" xmlns="http://www.w3.org/2000/svg"><path fill="#F0F3FA" d="M0 0h56v56H0z"/><path d="M18 34V18h-2l5.5-7v14.95a11 11 0 0 1 3.5-2.2v3.9a7.5 7.5 0 1 0 1-.53v-3.7A11 11 0 1 1 18 34Z" fill="url(#a)"/><path d="M25 27.66V18h2l-5.5-7v23a7.5 7.5 0 1 0 4.5-6.87v4.22A3.99 3.99 0 0 1 33 34a4 4 0 0 1-8 0v-6.34Z" fill="url(#b)"/><defs><linearGradient id="a" x1="28" y1="11" x2="28" y2="45" gradientUnits="userSpaceOnUse"><stop stop-color="#40AD6C"/><stop offset=".19" stop-color="#25AEDA"/><stop offset=".38" stop-color="#2C60AB"/><stop offset=".77" stop-color="#2F57AC"/><stop offset="1" stop-color="#0782BF"/></linearGradient><linearGradient id="b" x1="29" y1="11" x2="29" y2="41.5" gradientUnits="userSpaceOnUse"><stop stop-color="#83C69A"/><stop offset=".15" stop-color="#8CC9E6"/><stop offset=".4" stop-color="#247DBF"/><stop offset="1" stop-color="#334C9E"/></linearGradient></defs></svg>