<!-- by TradingView --><svg width="56" height="56" viewBox="0 0 56 56" xmlns="http://www.w3.org/2000/svg"><path fill="#F0F3FA" d="M0 0h56v56H0z"/><path d="M35.68 17.34c.03.3.12.32.25.04.56-1.16 1.8-2 2.51-2.91.07-.08.13-.12.2-.1.01 0 .04 0 .06.03.04.02.05.06.04.1-.2.66-.6 1.5-1.16 2.55-.43.8-.58 1.6-.66 2.61-.05.8-.1 1.3-.16 1.52-.01.08-.05.09-.1.02a42.7 42.7 0 0 1-1.72-2.3c-.67-.98-.82-1.88-.43-2.7.36-.76.73-1.48 1.1-2.16.03-.05.08-.05.16-.01l.08.04v.03c-.2 1.33-.26 2.4-.17 3.24Z" fill="#F29D2F"/><path d="M34.56 18.45c.35.69.69 1.45 1 2.3.02.02.01.05 0 .08a.17.17 0 0 1-.07.08.13.13 0 0 1-.08.01.11.11 0 0 1-.1-.06 2.49 2.49 0 0 0-.4-.54c-.42-.38-.98-.95-1.67-1.72-.67-.75-.75-1.5-.43-2.47a114.11 114.11 0 0 0 .62-1.97.14.14 0 0 1 .1-.05h.05c.1.04.14.12.13.26a7.96 7.96 0 0 0 .85 4.08Z" fill="#F29D2F"/><path d="M34.02 20.73c-.35-.32-1.11-.9-2.3-1.75-.5-.35-.74-.99-.7-1.9.03-.6.11-1.36.26-2.28.05-.3.13-.3.25-.03.2.49.33 1.01.4 1.58.07.48.4 1.15 1 2.02.54.78 1.06 1.55 1.55 2.3.19.3.11.38-.23.26-.02 0-.1-.08-.23-.2ZM39.2 17.64a8.43 8.43 0 0 0-1.46 3.83c-.01.08-.06.11-.15.09a.1.1 0 0 1-.04-.04 55.29 55.29 0 0 0-.35-2.6c-.12-.68.2-1.34.95-1.95.7-.6 1.54-1.21 2.5-1.87.2-.13.25-.1.15.12-.3.62-.84 1.43-1.6 2.42Z" fill="#F29D2F"/><path d="M32.47 19.84c.42.35.75.71 1 1.07.24.34.18.41-.2.21-.69-.37-1.56-.8-2.62-1.28a2.3 2.3 0 0 1-.87-.79 1.91 1.91 0 0 1-.37-1.04 283.3 283.3 0 0 1-.1-2.45c-.01-.12.04-.13.16-.04.1.08.27.38.49.92.2.52.34.83.4.94.53.88 1.24 1.7 2.11 2.46ZM39.96 19.22a11.8 11.8 0 0 0-1.33 2.71.13.13 0 0 1-.1.08c-.04 0-.07 0-.1-.02-.03-.01-.04-.03-.04-.06l.15-2.8c0-.29.24-.68.69-1.17.2-.23.58-.46 1.15-.71.85-.38 1.54-.71 2.06-.98.27-.14.33-.09.17.16-.12.17-.34.42-.66.75-.67.67-1.33 1.35-1.99 2.04Z" fill="#F29D2F"/><path d="M29.22 20.57c-.66-.26-1.08-.78-1.25-1.57l-.47-2.08c-.06-.29.01-.32.21-.1.25.25.48.57.67.94.11.22.5.67 1.17 1.34.84.85 2.04 1.47 3.05 2.26.34.27.3.34-.13.22-1.62-.46-2.7-.8-3.25-1.01ZM39.15 22.5c.24-1.14.4-1.86.49-2.17.12-.47.31-.86.57-1.18.58-.75 2-.99 3.13-1.27.3-.07.52-.15.66-.22.47-.23.54-.14.23.27-.04.06-.19.17-.43.32-.51.34-1.24.86-2.17 1.56-1.01.76-1.6 1.75-2.2 2.67-.07.1-.14.13-.23.11a.08.08 0 0 1-.04-.03.07.07 0 0 1-.01-.05Z" fill="#F29D2F"/><path d="m31.76 22.15-3.04-.37c-.96-.11-1.6-.56-1.92-1.33-.3-.72-.6-1.44-.93-2.15-.03-.07-.04-.13-.03-.16 0-.02.02-.03.04-.03.02-.01.04 0 .07 0a.3.3 0 0 1 .08.04l.08.06c.6.65 1.18 1.2 1.72 1.64.92.77 2.2 1.24 3.52 1.83a1 1 0 0 1 .46.4v.05l-.02.02h-.03ZM39.82 23.16l.81-1.95a2.45 2.45 0 0 1 2.03-1.6l2.86-.27c.4-.04.43.04.08.24l-1.04.55c-.92.48-2.06.8-2.82 1.42a39.02 39.02 0 0 0-1.83 1.8c-.1.02-.12-.03-.1-.17l.01-.02Z" fill="#F29D2F"/><path d="M28.77 21.99c.86.17 1.57.36 2.13.59.43.18.41.26-.06.26-.7 0-1.5.06-2.37.17-2.44.3-2.8-1.5-3.94-2.96-.05-.06-.04-.11.03-.16l.08-.05h.06A9.74 9.74 0 0 0 28.77 22ZM41.59 23.34c-.37.34-.7.59-1 .75-.3.16-.36.1-.2-.17.27-.45.65-1.06 1.17-1.82a2.35 2.35 0 0 1 2.26-1.1c.96.07 1.92.12 2.9.17.06 0 .1.02.13.05a.1.1 0 0 1 .02.08c0 .06-.03.1-.09.12-.76.28-1.6.5-2.52.69-.9.18-2.19.79-2.67 1.23Z" fill="#F29D2F"/><path d="M43.24 22.6c.61-.24 1.76-.04 2.44.18a15 15 0 0 0 1.83.44c.06.01.1.04.1.1a.13.13 0 0 1-.03.13 23.17 23.17 0 0 1-3.14.29c-1.18.02-2.5.81-3.54 1.31a.2.2 0 0 1-.16 0 .14.14 0 0 1-.08-.05c-.02-.04-.01-.07.02-.1.46-.46.93-.99 1.42-1.6.2-.25.59-.48 1.14-.7Z" fill="#F29D2F"/><path d="M44.52 25.37c-1.23-.08-2.1.26-3.53.7-.06.02-.11 0-.15-.05a.13.13 0 0 1-.01-.1c0-.02.02-.04.05-.07.72-.55 1.43-1.07 2.12-1.55.59-.41 1.32-.44 2.2-.08.23.1.96.4 2.2.95.84.37.8.5-.12.43l-2.76-.23Z" fill="#F29D2F"/><path d="M25.83 31.13c.04.07.17.05.17-.04v-6.98c0-.07.04-.1.13-.1h.77c.07 0 .1.02.1.08v10.77c0 .1-.05.14-.16.14h-2.38a.46.46 0 0 1-.4-.2c-2.28-3.18-4.05-5.3-4.9-6.38-.1-.13-.16-.12-.16.05v6.46c0 .05-.03.07-.08.07h-.84c-.05 0-.08-.02-.08-.06V24.16c0-.1.06-.16.19-.16h1.92c.1 0 .19.04.24.11l5.48 7.02Z" fill="#732D36"/><path fill-rule="evenodd" d="M35.04 29.63c-.27-.1-.27-.2 0-.29 1.28-.43 1.86-1.35 1.73-2.77-.14-1.63-1.6-2.48-2.96-2.53-.94-.04-2.49-.05-4.66-.03-.1 0-.15.05-.15.16v10.67c0 .1.05.15.14.15h2.73c.09 0 .13-.04.13-.14v-4.5c0-.58.08-.75.6-.53l.17.07c.25.1.47.28.62.52.15.23.24.51.24.8.03 1.34.1 2.46.18 3.34.04.3.2.45.48.45h2.6a.1.1 0 0 0 .05-.01.1.1 0 0 0 .04-.04.12.12 0 0 0 .01-.1c-.3-.85-.47-1.87-.53-3.06-.06-1.12-.53-1.84-1.42-2.16Zm-2.98-4.57a.22.22 0 0 0-.05.13L32 28.81c0 .05.02.1.05.13.03.04.07.06.11.06h.44c.88 0 1.4-.91 1.4-1.7v-.6c0-.78-.51-1.7-1.39-1.7h-.44a.15.15 0 0 0-.11.06Z" fill="#732D36"/><path d="M45.23 27.13a6.8 6.8 0 0 0-2.43-.32c-.64.1-1.15.16-1.52.19-.58.04-.61-.06-.1-.32.63-.32 1.03-.52 1.2-.62a3.7 3.7 0 0 1 1.27-.5c.8-.06 1.49.11 2.05.5a51.81 51.81 0 0 0 2.28 1.56.08.08 0 0 1-.01.07.16.16 0 0 1-.07.05.28.28 0 0 1-.1.02c-.57-.07-1.43-.28-2.57-.63Z" fill="#F29D2F"/><path d="M44.1 27a3.4 3.4 0 0 1 1.46.85c.07.08.66.63 1.77 1.67.45.43.38.52-.21.3-.61-.25-1.38-.6-2.3-1.05a5.65 5.65 0 0 0-1.72-.59c-.82-.1-1.45-.15-1.9-.15-.73 0-.75-.12-.06-.36.77-.27 2.3-.86 2.97-.67Z" fill="#F29D2F"/><path d="M40.57 28.66c.7-.04 1.42-.12 2.16-.22a2.2 2.2 0 0 1 2.2.87l1.85 2.42c.23.3.17.35-.16.17-.72-.38-1.33-.77-1.85-1.18a6.83 6.83 0 0 0-1.84-1.1c-.79-.27-1.58-.5-2.4-.66-.12-.03-.15-.1-.07-.23a.13.13 0 0 1 .05-.05.14.14 0 0 1 .06-.02Z" fill="#F29D2F"/><path d="M41.84 30.64c-.9-.4-1.5-.68-1.83-.8-.07-.03-.1-.08-.07-.15a.2.2 0 0 1 .03-.07.11.11 0 0 1 .1-.05c.82.02 1.61.07 2.37.15.96.1 1.63.58 2.02 1.42.56 1.26.99 2.12 1.27 2.56.07.1.04.15-.08.14a.26.26 0 0 1-.16-.06c-.85-.71-1.56-1.39-2.12-2.04-.4-.43-.9-.8-1.53-1.1Z" fill="#F29D2F"/><path d="M17 32.15c.05-1.5-.7-2.46-2.26-2.88-.29-.08-.29-.16 0-.24 1.36-.39 1.95-1.3 1.77-2.76-.19-1.64-1.74-2.24-3.22-2.26L8.1 24a.11.11 0 0 0-.08.03.1.1 0 0 0-.03.07v10.8c0 .06.04.1.12.1H14c1.81 0 2.94-1.16 3-2.85Zm-6-7.04c0-.06.11-.11.18-.11h.8c.8 0 1.6.6 1.6 1.44l-.02.92c0 .85-.82 1.42-1.61 1.41h-.8c-.06 0-.15-.05-.15-.12v-3.54Zm0 4.76c0-.1.12-.2.25-.2h.74c.98 0 2.01.7 2.01 1.75v.84c0 1.06-1.04 1.74-2.01 1.74h-.75c-.13 0-.24-.1-.24-.2v-3.93Z" fill="#732D36"/><path d="M42.48 33.28a7.58 7.58 0 0 0-2.52-2.32c-1-.56-.96-.72.13-.48l1.48.35c1.16.27 1.85 1.02 2.05 2.24.14.8.39 1.55.76 2.25.04.1.01.15-.1.18l-.12.03c-.03 0-.06 0-.08-.03a64.36 64.36 0 0 1-1.6-2.22Z" fill="#F29D2F"/><path d="M40.73 33.46c-.17-.35-.91-1.12-2.22-2.32a.12.12 0 0 1-.02-.15.13.13 0 0 1 .04-.04c.05-.03.1-.03.17 0 .4.2 1.07.49 2.03.89a2.4 2.4 0 0 1 1.57 2.12l.22 2.28c.12.92-.02.95-.43.1-.61-1.32-1.07-2.28-1.36-2.88Z" fill="#F29D2F"/><path d="M40.16 33.03c.17.14.49.48.56.8.16.76.22 1.24.19 1.43-.13.78-.19 1.41-.18 1.9.01 1.1-.15 1.12-.49.07-.38-1.18-.56-2.6-1.2-3.66-.26-.42-.65-.99-1.17-1.69-.38-.5-.3-.58.25-.24 1.03.66 1.71 1.12 2.04 1.39Z" fill="#F29D2F"/></svg>