<!-- by TradingView --><svg width="56" height="56" viewBox="0 0 56 56" xmlns="http://www.w3.org/2000/svg"><path fill="#69C" d="M0 0h56v56H0z"/><path d="M43.56 24v-1l3.39-.02c.01 0 .02 0 .03-.02l.02-.03V22h-2.8c-.66 0-1.2-.47-1.2-1.12V17h1v3.95s0 .02.02.03l.03.02h2.9c.01 0 .02 0 .03-.02l.02-.03V17h1v5.75c0 .66-.52 1.25-1.2 1.25h-3.24Z"/><path fill-rule="evenodd" d="M47 22v.93c0 .01 0 .02-.02.03 0 .02-.02.02-.03.02l-3.39.02v1h3.24c.68 0 1.2-.59 1.2-1.25V17h-1v3.95s0 .02-.02.03l-.03.02h-2.9c-.01 0-.02 0-.03-.02l-.02-.03V17h-1v3.88c0 .65.54 1.12 1.2 1.12H47Zm-3.8-4.8v3.68c0 .53.43.92 1 .92h3v1.13c0 .08-.04.14-.07.17a.25.25 0 0 1-.18.08M43.2 17.2h.6v3.75c0 .08.04.14.07.17.03.03.1.08.18.08h2.9c.09 0 .15-.05.18-.08s.07-.1.07-.17V17.2h.6v5.55c0 .56-.44 1.05-1 1.05h-3.04v-.6l3.19-.02" fill="url(#a)"/><path d="M38.2 22c-.66 0-1.2-.56-1.2-1.22V19h4v-.95c0-.01 0-.02-.02-.03l-.03-.02H37v-1h3.8c.65 0 1.2.57 1.2 1.22V22h-3.8Zm-.15-1H41v-1h-3v.95c0 .01 0 .02.02.03l.03.02Z"/><path fill-rule="evenodd" d="M41 19h-4v1.78c0 .66.54 1.22 1.2 1.22H42v-3.78c0-.65-.55-1.22-1.2-1.22H37v1h3.95c.01 0 .02 0 .03.02l.02.03V19Zm-3.8-1.2h3.75c.08 0 .14.04.18.08.03.03.07.09.07.17v1.15h-4v1.58c0 .55.46 1.02 1 1.02h3.6v-3.58c0-.55-.46-1.02-1-1.02h-3.6v.6Zm4 3.4h-3.15a.25.25 0 0 1-.18-.08.25.25 0 0 1-.07-.17V19.8h3.4v1.4ZM41 21h-2.95c-.01 0-.02 0-.03-.02l-.02-.03V20h3v1Z" fill="url(#b)"/><path d="M31 22v-7h1v2h2.8c.68 0 1.2.35 1.2 1v2.72c0 .66-.52 1.28-1.2 1.28H31Zm1.05-1h2.9c.02 0 .03 0 .03-.02l.02-.03v-2.88s0-.02-.02-.03c0-.02-.01-.02-.03-.02h-2.9c-.02 0-.05.03-.05.05v2.88c0 .02.03.05.05.05Z"/><path fill-rule="evenodd" d="M32 17v-2h-1v7h3.8c.68 0 1.2-.62 1.2-1.28V18c0-.66-.52-1.01-1.2-1.01H32Zm-.8 4.8h3.6c.55 0 1-.51 1-1.08V18c0-.27-.1-.46-.27-.6a1.17 1.17 0 0 0-.73-.21h-3v-2h-.6v6.6Zm3.75-.6h-2.9a.25.25 0 0 1-.18-.08.26.26 0 0 1-.07-.17v-2.88c0-.08.04-.14.07-.17a.25.25 0 0 1 .18-.08h2.9c.03 0 .07 0 .11.03.04.01.07.04.09.07.02.03.05.09.05.15v2.88c0 .06-.03.11-.05.15a.23.23 0 0 1-.09.07.24.24 0 0 1-.11.03Zm.03-.22c0 .01-.01.02-.03.02h-2.9c-.02 0-.05-.03-.05-.05v-2.88c0-.02.03-.05.05-.05h2.9c.02 0 .03 0 .03.02l.02.03v2.88s0 .02-.02.03Z" fill="url(#c)"/><path d="M22 22v-5h6.66c.67 0 1.34.5 1.34 1.22V22h-1v-3.95c0-.01 0-.02-.02-.03l-.04-.02h-2.38c-.02 0-.04 0-.05.02l-.01.03V22h-1v-3.95c0-.01 0-.02-.02-.03a.06.06 0 0 0-.04-.02h-2.4s-.02 0-.03.02l-.01.03V22h-1Z"/><path fill-rule="evenodd" d="M26.5 18.02a.07.07 0 0 1 .06-.02h2.38c.02 0 .03 0 .04.02l.02.03V22h1v-3.78c0-.71-.67-1.22-1.34-1.22H22v5h1v-3.98a.06.06 0 0 1 .05-.02h2.4s.02 0 .03.02l.02.03V22h1v-3.98Zm-.2 3.78v-3.75c0-.05.01-.1.03-.13l.02-.03.02-.02a.27.27 0 0 1 .19-.07h2.38c.05 0 .14.02.2.09.03.03.06.09.06.16v3.75h.6v-3.58c0-.57-.55-1.02-1.14-1.02H22.2v4.6h.6v-3.75c0-.05.01-.1.03-.13l.02-.03.02-.02c.04-.03.1-.07.18-.07h2.4c.07 0 .13.04.17.07.03.03.08.1.08.18v3.75h.6Z" fill="url(#d)"/><path d="M17.2 22c-.65 0-1.2-.57-1.2-1.22v-2.56c0-.65.55-1.22 1.2-1.22h2.6c.65 0 1.2.57 1.2 1.22v2.56c0 .66-.55 1.22-1.2 1.22h-2.6Zm-.15-1h2.9c.01 0 .02 0 .03-.02l.02-.03v-2.9c0-.01 0-.02-.02-.03l-.03-.02h-2.9c-.01 0-.02 0-.03.02l-.02.03v2.9c0 .01 0 .02.02.03l.03.02Z"/><path fill-rule="evenodd" d="m19.99 18.02.14-.14c.03.03.07.09.07.17v2.9c0 .08-.04.14-.07.17l-.14-.13.14.13a.25.25 0 0 1-.18.08h-2.9a.25.25 0 0 1-.18-.08.25.25 0 0 1-.07-.17v-2.9c0-.08.04-.14.07-.17.04-.04.1-.08.18-.08h2.9c.08 0 .14.04.18.08l-.14.14Zm-3.79.2v2.56c0 .55.47 1.02 1 1.02h2.6c.54 0 1-.47 1-1.02v-2.56c0-.55-.46-1.02-1-1.02h-2.6c-.54 0-1 .48-1 1.02Zm-.2 2.56c0 .65.55 1.22 1.2 1.22h2.6c.65 0 1.2-.56 1.2-1.22v-2.56c0-.65-.55-1.22-1.2-1.22h-2.6c-.65 0-1.2.57-1.2 1.22v2.56Zm3.95.22h-2.9c-.01 0-.02 0-.03-.02l-.02-.03v-2.9c0-.01 0-.02.02-.03l.03-.02h2.9c.01 0 .02 0 .03.02l.02.03v2.9c0 .01 0 .02-.02.03l-.03.02Z" fill="url(#e)"/><path d="M9 22v-6h4.57c.64 0 1.2.56 1.2 1.2v1.15c0 .14-.02.26-.07.4.17.22.3.5.3.78v1.27c0 .66-.56 1.2-1.2 1.2H9Zm1.05-1H13.98a.06.06 0 0 0 .02-.05v-1.4c0-.01 0-.02-.02-.03 0-.01-.01-.02-.03-.02h-3.9c-.02 0-.03 0-.04.02l-.01.03v1.4a.1.1 0 0 0 0 .04.1.1 0 0 0 .05.01Zm0-2.5h3.48l.02-.04v-1.41c0-.02 0-.03-.02-.03L13.5 17h-3.45c-.02 0-.03 0-.04.02l-.01.03v1.44a.1.1 0 0 0 .05.01Z"/><path fill-rule="evenodd" d="M14.7 18.74c.05-.13.07-.25.07-.39V17.2c0-.64-.56-1.2-1.2-1.2H9v6h4.8c.64 0 1.2-.54 1.2-1.2v-1.27c0-.28-.13-.56-.3-.79ZM9.2 21.8h4.6c.54 0 1-.46 1-1v-1.27c0-.22-.1-.46-.26-.67l-.07-.08.04-.1c.04-.11.06-.21.06-.33V17.2c0-.53-.47-1-1-1H9.2v5.6Zm4.75-.6h-3.9a.25.25 0 0 1-.18-.07.25.25 0 0 1-.07-.18v-1.4c0-.12.1-.25.25-.25h3.9a.25.25 0 0 1 .25.25v1.44c0 .03-.01.07-.04.1-.06.1-.16.11-.21.11Zm-.45-2.5h-3.45a.25.25 0 0 1-.17-.07.24.24 0 0 1-.08-.17v-1.41c0-.05.01-.15.1-.21a.24.24 0 0 1 .1-.04h3.5c.05 0 .1.01.16.05.05.05.09.12.09.2v1.4c0 .1-.05.16-.09.19a.25.25 0 0 1-.16.06Zm.45 2.3h-3.9c-.03 0-.05-.02-.05-.05v-1.4c0-.03.02-.05.05-.05h3.9c.04 0 .05.03.05.05v1.4c0 .03 0 .05-.05.05Zm-.45-2.5h-3.45c-.03 0-.05-.02-.05-.04v-1.41c0-.05.03-.05.05-.05h3.45c.02 0 .05.01.05.05v1.4c0 .03-.02.05-.05.05Z" fill="url(#f)"/><path d="M35.2 31c-.65 0-1.2-.57-1.2-1.22v-2.56c0-.65.55-1.22 1.2-1.22h2.6c.65 0 1.2.57 1.2 1.22V29h-4v.95c0 .01 0 .02.02.03l.03.02H39v1h-3.8Zm-.2-2.97h3v-.98c0-.01 0-.02-.02-.03l-.03-.02h-2.9c-.01 0-.02 0-.03.02l-.02.03v.98Z"/><path fill-rule="evenodd" d="M35 29h4v-1.78c0-.65-.55-1.22-1.2-1.22h-2.6c-.65 0-1.2.57-1.2 1.22v2.56c0 .65.55 1.22 1.2 1.22H39v-1h-3.95c-.01 0-.02 0-.03-.02l-.02-.03V29Zm3.8 1.2h-3.75a.25.25 0 0 1-.18-.08.25.25 0 0 1-.07-.17V28.8h4v-1.58c0-.55-.46-1.02-1-1.02h-2.6c-.54 0-1 .48-1 1.02v2.56c0 .54.46 1.02 1 1.02h3.6v-.6Zm-4-1.97v-1.18c0-.08.04-.14.07-.17.04-.04.1-.08.18-.08h2.9c.08 0 .14.04.18.08l-.15.14-.03-.02h-2.9c-.01 0-.02 0-.03.02l-.02.03v.98h3v-.98c0-.01 0-.02-.02-.03l.15-.14c.03.03.07.09.07.17v1.18h-3.4Z" fill="url(#g)"/><path d="M29 31v-3.78c0-.66.57-1.22 1.23-1.22H33v1h-2.95c-.01 0-.02 0-.03.02l-.02.03V31h-1Z"/><path fill-rule="evenodd" d="M29.2 27.22v3.58h.6v-3.75c0-.08.04-.14.08-.17.03-.04.09-.08.17-.08h2.75v-.6h-2.57c-.55 0-1.03.47-1.03 1.02ZM29 31h1v-3.95c0-.01 0-.02.02-.03l.03-.02H33v-1h-2.77c-.66 0-1.23.56-1.23 1.22V31Z" fill="url(#h)"/><path d="M27 31v-5h1v5h-1Zm0-6v-1h1v1h-1Z"/><path fill-rule="evenodd" d="M27.2 26.2v4.6h.6v-4.6h-.6Zm0-2v.6h.6v-.6h-.6ZM27 31h1v-5h-1v5Zm0-6h1v-1h-1v1Z" fill="url(#i)"/><path d="M19.9 31 18 25h1.11l1.2 3.76L21.5 25h.98l1.2 3.76L24.9 25H26l-1.9 6h-.81l-1.3-4.05L20.72 31h-.81Z"/><path fill-rule="evenodd" d="M19.11 25H18l1.9 6h.81L22 26.95 23.29 31h.81l1.9-6h-1.11l-1.2 3.76L22.5 25h-.99l-1.2 3.76L19.12 25Zm2.54.2-1.34 4.22-1.35-4.22h-.69l1.78 5.6h.52L22 26.29l1.43 4.51h.52l1.78-5.6h-.7l-1.34 4.22-1.35-4.22h-.7Z" fill="url(#j)"/><path d="M39.2 39c-.65 0-1.2-.57-1.2-1.22v-.22h1v.39c0 .01 0 .02.02.03l.03.02h2.9c.01 0 .02 0 .03-.02l.02-.03v-.9c0-.02 0-.03-.02-.03l-.03-.02H39.2c-.66 0-1.2-.45-1.2-1.1v-.68c0-.65.55-1.22 1.2-1.22h2.6c.64 0 1.2.57 1.2 1.22v.22h-1v-.39c0-.01 0-.02-.02-.03l-.03-.02h-2.9c-.01 0-.02 0-.03.02l-.02.03v.9c0 .02 0 .03.02.04l.03.01h2.74c.66 0 1.21.46 1.21 1.1v.68c0 .65-.56 1.22-1.2 1.22h-2.6Z"/><path fill-rule="evenodd" d="m39.02 36-.02-.04v-.9c0-.02 0-.03.02-.04l.03-.02h2.9c.01 0 .02 0 .03.02l.02.03v.39h1v-.22c0-.65-.56-1.22-1.2-1.22h-2.6c-.65 0-1.2.57-1.2 1.22v.68c0 .65.54 1.1 1.2 1.1h2.75c.01 0 .02 0 .03.02l.02.02v.9c0 .02 0 .03-.02.04l-.03.02h-2.9c-.01 0-.02 0-.03-.02l-.02-.03v-.39h-1v.22c0 .65.55 1.22 1.2 1.22h2.6c.64 0 1.2-.57 1.2-1.22v-.68c0-.64-.55-1.1-1.2-1.1h-2.78Zm-.82 1.76v.02c0 .54.46 1.02 1 1.02h2.6c.53 0 1-.47 1-1.02v-.68c0-.51-.44-.9-1-.9h-2.75a.27.27 0 0 1-.12-.03l-.03-.02-.03-.02a.25.25 0 0 1-.07-.17v-.9c0-.09.04-.15.07-.18.04-.04.1-.08.18-.08h2.9c.08 0 .14.04.18.08.03.03.07.09.07.17v.19h.6v-.02c0-.54-.47-1.02-1-1.02h-2.6c-.54 0-1 .48-1 1.02v.68c0 .52.43.9 1 .9h2.75c.07 0 .12.03.15.06a.23.23 0 0 1 .1.18v.9c0 .09-.04.15-.07.18a.25.25 0 0 1-.18.08h-2.9a.25.25 0 0 1-.18-.08.25.25 0 0 1-.07-.17v-.19h-.6Z" fill="url(#k)"/><path d="M33.2 39c-.65 0-1.2-.57-1.2-1.22v-2.56c0-.65.55-1.22 1.2-1.22h2.6c.65 0 1.2.57 1.2 1.22V37h-4v.95c0 .01 0 .02.02.03l.03.02H37v1h-3.8Zm-.2-2.97h3v-.98c0-.01 0-.02-.02-.03l-.03-.02h-2.9c-.01 0-.02 0-.03.02l-.02.03v.98Z"/><path fill-rule="evenodd" d="M33 37h4v-1.78c0-.65-.55-1.22-1.2-1.22h-2.6c-.65 0-1.2.57-1.2 1.22v2.56c0 .65.55 1.22 1.2 1.22H37v-1h-3.95c-.01 0-.02 0-.03-.02l-.02-.03V37Zm3.8 1.2h-3.75a.25.25 0 0 1-.18-.08.25.25 0 0 1-.07-.17V36.8h4v-1.58c0-.55-.46-1.02-1-1.02h-2.6c-.54 0-1 .48-1 1.02v2.56c0 .55.46 1.02 1 1.02h3.6v-.6Zm-4-1.97v-1.18c0-.08.04-.14.07-.17.04-.04.1-.08.18-.08h2.9c.08 0 .14.04.18.08l-.15.14-.03-.02h-2.9c-.01 0-.02 0-.03.02l-.02.03v.98h3v-.98c0-.01 0-.02-.02-.03l.15-.14c.03.03.07.09.07.17v1.18h-3.4Z" fill="url(#l)"/><path d="M26 41v-7h3.8c.66 0 1.2.57 1.2 1.22v2.57c0 .66-.54 1.21-1.2 1.21H27v2h-1Zm1.05-3h2.9c.04 0 .05-.03.05-.05v-2.9c0-.02-.01-.05-.05-.05h-2.9c-.02 0-.05.03-.05.05v2.9c0 .02.03.05.05.05Z"/><path fill-rule="evenodd" d="M27 39h2.8c.66 0 1.2-.55 1.2-1.2v-2.58c0-.65-.54-1.22-1.2-1.22H26v7h1v-2Zm-.2 1.8v-2h3c.55 0 1-.46 1-1v-2.58c0-.54-.46-1.02-1-1.02h-3.6v6.6h.6Zm3.15-2.6h-2.9a.25.25 0 0 1-.18-.08.25.25 0 0 1-.07-.17v-2.9c0-.08.05-.14.07-.17a.25.25 0 0 1 .18-.08h2.9a.25.25 0 0 1 .25.25v2.9a.25.25 0 0 1-.25.25Zm0-.2h-2.9c-.02 0-.05-.03-.05-.05v-2.9c0-.02.03-.05.05-.05h2.9c.04 0 .05.03.05.05v2.9c0 .02-.01.05-.05.05Z" fill="url(#m)"/><path d="M21.2 39c-.65 0-1.2-.57-1.2-1.22v-2.56c0-.65.55-1.22 1.2-1.22h2.6c.65 0 1.2.57 1.2 1.22v2.56c0 .66-.54 1.22-1.2 1.22h-2.6Zm-.15-1h2.9c.01 0 .02 0 .03-.02l.02-.03v-2.9c0-.01 0-.02-.02-.03l-.03-.02h-2.9c-.01 0-.02 0-.03.02l-.02.03v2.9c0 .01 0 .02.02.03l.03.02Z"/><path fill-rule="evenodd" d="m23.99 35.02.14-.14c.03.03.07.09.07.17v2.9c0 .08-.04.14-.07.17l-.14-.13.14.13a.25.25 0 0 1-.18.08h-2.9a.25.25 0 0 1-.18-.08.25.25 0 0 1-.07-.17v-2.9c0-.08.04-.14.07-.17.04-.04.1-.08.18-.08h2.9c.08 0 .14.04.18.08l-.14.14Zm-3.79.2v2.56c0 .55.46 1.02 1 1.02h2.6c.54 0 1-.47 1-1.02v-2.56c0-.55-.46-1.02-1-1.02h-2.6c-.54 0-1 .48-1 1.02Zm-.2 2.56c0 .65.55 1.22 1.2 1.22h2.6c.66 0 1.2-.56 1.2-1.22v-2.56c0-.65-.55-1.22-1.2-1.22h-2.6c-.65 0-1.2.57-1.2 1.22v2.56Zm3.95.22h-2.9c-.01 0-.02 0-.03-.02l-.02-.03v-2.9c0-.01 0-.02.02-.03l.03-.02h2.9c.01 0 .02 0 .03.02l.02.03v2.9c0 .01 0 .02-.02.03l-.03.02Z" fill="url(#n)"/><path d="m17.98 39-1.97-2.02h1.36L19 38.62V39h-1.02ZM12 39v-6h5.59c.67 0 1.41.48 1.41 1.2v1.59c0 .73-.74 1.2-1.41 1.2H13V39h-1Zm1.06-3h4.92l.02-.04v-1.91c0-.02 0-.03-.02-.03l-.04-.02h-4.88c-.02 0-.04 0-.05.02l-.01.03v1.9l.01.04.05.01Z"/><path fill-rule="evenodd" d="M17.98 39H19v-.38l-1.63-1.64h.28c.65-.03 1.35-.48 1.35-1.2V34.2c0-.72-.74-1.2-1.41-1.2H12v6h1v-2.01h3.01L17.98 39Zm-1.5-1.82 1.58 1.62h.74v-.1l-1.51-1.52h-.8Zm-.95-.4H12.8v2.02h-.6v-5.6h5.39c.29 0 .6.1.83.29a.9.9 0 0 1 .38.71v1.59a.9.9 0 0 1-.38.7 1.4 1.4 0 0 1-.83.3h-2.06ZM13.01 36a.07.07 0 0 1-.01-.03v-1.91l.01-.03a.07.07 0 0 1 .05-.02h4.88c.02 0 .03 0 .04.02.01 0 .02.01.02.03v1.9c0 .02 0 .03-.02.04l-.04.01h-4.93Zm5.1-2.12a.23.23 0 0 1 .09.18v1.9a.24.24 0 0 1-.2.24l-.06.01h-4.88c-.04 0-.08 0-.13-.02l-.06-.03-.03-.06a.27.27 0 0 1-.04-.13v-1.91c0-.02 0-.12.08-.19m5.23 0a.25.25 0 0 0-.17-.06h-4.88a.27.27 0 0 0-.18.06" fill="url(#o)"/><defs><linearGradient id="a" x1="45.5" y1="17" x2="45.5" y2="24" gradientUnits="userSpaceOnUse"><stop stop-color="#95979A"/><stop offset="1" stop-color="#F6F6F7"/></linearGradient><linearGradient id="b" x1="39.5" y1="17" x2="39.5" y2="22" gradientUnits="userSpaceOnUse"><stop stop-color="#929498"/><stop offset="1" stop-color="#F7F7F7"/></linearGradient><linearGradient id="c" x1="33.5" y1="15" x2="33.5" y2="22" gradientUnits="userSpaceOnUse"><stop stop-color="#65686E"/><stop offset="1" stop-color="#F9F9F9"/></linearGradient><linearGradient id="d" x1="26" y1="17" x2="26" y2="22" gradientUnits="userSpaceOnUse"><stop stop-color="#61646A"/><stop offset="1" stop-color="#FAFAFA"/></linearGradient><linearGradient id="e" x1="18.5" y1="17" x2="18.5" y2="22" gradientUnits="userSpaceOnUse"><stop stop-color="#5E6268"/><stop offset="1" stop-color="#FDFDFD"/></linearGradient><linearGradient id="f" x1="12" y1="16" x2="12" y2="22" gradientUnits="userSpaceOnUse"><stop stop-color="#5A5E64"/><stop offset="1" stop-color="#fff"/></linearGradient><linearGradient id="g" x1="36.5" y1="26" x2="36.5" y2="31" gradientUnits="userSpaceOnUse"><stop stop-color="#686C72"/><stop offset="1" stop-color="#F3F2F3"/></linearGradient><linearGradient id="h" x1="31" y1="26" x2="31" y2="31" gradientUnits="userSpaceOnUse"><stop stop-color="#676B71"/><stop offset="1" stop-color="#F7F6F7"/></linearGradient><linearGradient id="i" x1="27.5" y1="24" x2="27.5" y2="31" gradientUnits="userSpaceOnUse"><stop stop-color="#63676D"/><stop offset="1" stop-color="#F8F7F8"/></linearGradient><linearGradient id="j" x1="22" y1="25" x2="22" y2="31" gradientUnits="userSpaceOnUse"><stop stop-color="#61656B"/><stop offset="1" stop-color="#FAFAFA"/></linearGradient><linearGradient id="k" x1="40.5" y1="34" x2="40.5" y2="39" gradientUnits="userSpaceOnUse"><stop stop-color="#888B90"/><stop offset="1" stop-color="#D2D3D5"/></linearGradient><linearGradient id="l" x1="34.5" y1="34" x2="34.5" y2="39" gradientUnits="userSpaceOnUse"><stop stop-color="#86898E"/><stop offset="1" stop-color="#D3D4D6"/></linearGradient><linearGradient id="m" x1="28.5" y1="34" x2="28.5" y2="41" gradientUnits="userSpaceOnUse"><stop stop-color="#84878C"/><stop offset="1" stop-color="#F4F4F5"/></linearGradient><linearGradient id="n" x1="22.5" y1="34" x2="22.5" y2="39" gradientUnits="userSpaceOnUse"><stop stop-color="#82858A"/><stop offset="1" stop-color="#F6F6F7"/></linearGradient><linearGradient id="o" x1="15.5" y1="33" x2="15.5" y2="39" gradientUnits="userSpaceOnUse"><stop stop-color="#818489"/><stop offset="1" stop-color="#F9F9F9"/></linearGradient></defs></svg>