<!-- by TradingView --><svg width="56" height="56" viewBox="0 0 56 56" xmlns="http://www.w3.org/2000/svg"><path fill="#F0F3FA" d="M0 0h56v56H0z"/><circle cx="28" cy="28" r="17" fill="#FEF0D5"/><path fill-rule="evenodd" d="M28 44a16 16 0 1 0 0-32 16 16 0 0 0 0 32Zm0 1a17 17 0 1 0 0-34 17 17 0 0 0 0 34Z" fill="#FD8F3E"/><circle cx="28" cy="28" r="12" fill="url(#a)"/><path fill-rule="evenodd" d="M21 36h11c1.67 0 5-1.2 5-6 0-1-.5-3.2-2.5-4 .17-.17 1-.9 1-2.5 0-2-1.5-3.5-4.5-3.5H21v16Zm2-14v3h4v2h-4v7h8c1.33 0 4-.7 4-3.5S32.33 27 31 27h-2v-2h2.5c.67 0 2-.3 2-1.5s-1.33-1.5-2-1.5H23Z"/><path d="M25 24v-1h6v1h-2.5v9h-1v-9H25Z"/><path fill-rule="evenodd" d="M28 41a13 13 0 1 0 0-26 13 13 0 0 0 0 26Zm0 2a15 15 0 1 0 0-30 15 15 0 0 0 0 30Z" fill-opacity=".6"/><defs><linearGradient id="a" x1="32" y1="18" x2="23.5" y2="39.5" gradientUnits="userSpaceOnUse"><stop stop-color="#FE8943"/><stop offset="1" stop-color="#FF8F3F"/></linearGradient></defs></svg>