<!-- by TradingView --><svg width="56" height="56" viewBox="0 0 56 56" xmlns="http://www.w3.org/2000/svg"><path fill="#F0F3FA" d="M0 0h56v56H0z"/><path d="M13.93 17h10.32l3.56 3.43L31.75 17h10.3L48 22.99l-5.47 5.04 5.47 5.5L42.02 39h-10.3l-3.94-3.8-4 3.8h-10.3l-5.45-5.47 5.01-5.5L8 22.96 13.93 17Zm.78 12-4.16 4.47L14.23 37h8.83l3.4-3.06L21.23 29h-6.52Zm-.03-2h7.29l10.48 10h8.86l4.05-3.53L40.83 29H34L23.51 19h-8.83l-4.1 3.96 4.1 4.04Zm26.17 0 4.51-4.07L41.3 19h-8.86l-3.3 2.7 5.6 5.3h6.12Z" fill="#FF3D00"/></svg>