<!-- by TradingView --><svg width="56" height="56" viewBox="0 0 56 56" xmlns="http://www.w3.org/2000/svg"><path fill="#E20A17" d="M0 0h56v56H0z"/><path fill-rule="evenodd" d="m11 22 1-2h7.5c1.17 0 3.5.6 3.5 3s-2.33 3.33-3.5 3.5c.67.33 1.9 1.5 1.5 3.5-.5 2.5-2.5 4-6 4H5l1-2h1.5l5-10H11Zm3 10c1 0 3.1-.4 3.5-2 .5-2 0-3-1.5-3h-2.5L11 32h3Zm0-6h2.5c2 0 3.5-.8 3.5-2 0-1.5-1-2-3-2h-1l-2 4Zm8 5c-.4 0-.5-.33-.5-.5 1.2-.8 2.17-2 2.5-2.5a5.1 5.1 0 0 1-.5-2c0-1 0-3 1.5-3s2 1 2 2c0 .8-.33 1.67-.5 2H29c-1.33 1.5-3.5 4.5-1.5 4.5s3.5-3 4-4.5H35l-1.5 3c-.5 1-.7 1.5 0 1.5.9 0 1.4-.68 1.85-1.3l.15-.2 2.5-4h-1l.5-1h1l2-3H44l-2 3h1.5l-1 1h-1c-1.17 1.67-3.2 5.1-2 5.5.74.25 1.2-.42 1.6-.99.14-.2.27-.38.4-.51 1-2 3-5 5.5-3 2 1.6-.5 3.67-2 4.5 0 .17.2.5 1 .5.59 0 1.51-.69 2.28-1.25.55-.4 1.01-.75 1.22-.75.4 0 .5.33.5.5-1.17 1.17-4 3.5-6 3.5s-2.83-1.33-3-2c-.83.67-2.8 2-4 2-1.2 0-2.17-1.33-2.5-2-.67.67-2.4 2-4 2s-2-1.33-2-2c-.83.67-2.7 2-3.5 2-1 0-1.5-1-1.5-2 0-.8 1-2 1.5-2.5.4-.8-.5-.67-1-.5-.5.67-1.6 2-2 2Zm3-5c-.33-.5-.8-1.5 0-1.5s.33 1 0 1.5Zm19 4c.37-.9 1.27-2.55 1.87-1.82.6.73-1 1.52-1.87 1.82Zm-11.5-7H34l1.5-2 .5 2h1.5L36 24v1.5l-1.5-1-1.5 1 .5-1.5-1-1Z" fill="#FFF1F9"/></svg>