<!-- by TradingView --><svg width="56" height="56" viewBox="0 0 56 56" xmlns="http://www.w3.org/2000/svg"><path fill="#F0F3FA" d="M0 0h56v56H0z"/><path d="M46 31v-6h2.4c1.32 0 2.5.72 2.5 2.13 0 .88-.41 1.53-1.16 1.87-.37.17-.81.25-1.33.25h-1.8l.39-.5V31h-1Zm3.83 0-1.48-2.18h1.16L51 31h-1.17ZM47 28.87l-.4-.54h1.76c.96 0 1.44-.45 1.44-1.2 0-.76-.48-1.13-1.44-1.13H46.6l.4-.6v3.47ZM42.5 31c-1.59 0-2.5-1.12-2.5-2.66V25h1v3.3c0 .95.46 1.7 1.5 1.7.92 0 1.5-.49 1.5-1.7V25h1v3.34c0 1.53-.91 2.66-2.5 2.66ZM26 31v-6h2.67c1.77 0 3.33 1.13 3.33 3s-1.56 3-3.33 3H26Zm1-1h1.62c1.22 0 2.38-.72 2.38-2s-1.16-2-2.38-2H27v4ZM19 31v-6l4 3.5V25h1v6l-4-3.5V31h-1ZM11 31l3.5-7 3.5 7h-1.25l-2.5-5.4h.48l-2.5 5.4H11ZM8.44 31c-.49 0-.95-.07-1.37-.22a3.49 3.49 0 0 1-1.1-.62A2.8 2.8 0 0 1 5 28a2.8 2.8 0 0 1 1-2.15c.3-.27.67-.48 1.09-.63.42-.14.87-.22 1.37-.22.53 0 1.01.08 1.45.25.43.16.8.4 1.1.73l-.77.65a2.48 2.48 0 0 0-1.72-.68c-.34 0-.65.05-.93.15a2.02 2.02 0 0 0-1.2 1.07c-.12.26-.17.53-.17.83 0 .3.05.57.16.82a2.02 2.02 0 0 0 1.2 1.08 2.77 2.77 0 0 0 1.87-.02c.3-.11.55-.29.79-.52l.77.66c-.3.32-.67.56-1.1.73-.44.17-.92.25-1.46.25Z" fill="#8B351F"/><path d="M36 31c-.43 0-.83-.07-1.2-.23A2.9 2.9 0 0 1 33 28c0-.43.07-.83.22-1.2a2.79 2.79 0 0 1 1.59-1.57c.36-.16.76-.23 1.19-.23a3.08 3.08 0 0 1 2.15.86c.27.27.48.58.63.95.15.36.22.76.22 1.19 0 .43-.07.83-.22 1.2a2.79 2.79 0 0 1-1.59 1.57c-.36.16-.75.23-1.18.23Zm0-.95a2 2 0 0 0 .78-.15 1.82 1.82 0 0 0 1.03-1.07c.1-.25.15-.53.15-.83a2.12 2.12 0 0 0-.56-1.47 1.77 1.77 0 0 0-.62-.43 2 2 0 0 0-.78-.15 1.87 1.87 0 0 0-1.4.58 2.03 2.03 0 0 0-.56 1.47 2.13 2.13 0 0 0 .56 1.48c.17.18.38.32.62.42.24.1.5.15.78.15Z" fill="#129346"/><circle cx="36" cy="28" r="1" fill="#129346"/></svg>