<!-- by TradingView --><svg width="56" height="56" viewBox="0 0 56 56" xmlns="http://www.w3.org/2000/svg"><path fill="url(#a)" d="M0 0h56v56H0z"/><path fill="#AAC0BB" d="M8 17h40v22H8z"/><ellipse cx="28" cy="28" rx="20" ry="11" fill="url(#b)"/><path d="M30 22v2.5h-.94c0-2.4-1.26-2.67-1.88-2.5-2.83 0-3.18 3.5-3.18 5.5s.82 5.5 2.7 5.5c1.51 0 2.2-1.67 2.36-2.5H30V33c-.31.33-1.41 1-3.3 1-2.35 0-4.7-2-4.7-6.5s2.82-6.5 5.18-6.5c1.88 0 2.66.67 2.82 1ZM20 23.85v2.11h-.94c0-2.03-1.28-2.11-1.88-2.11-2.83 0-3.18 2.96-3.18 4.65 0 1.7.82 4.65 2.7 4.65 1.51 0 2.2-1.4 2.36-2.11H20v2.11c-.31.29-1.41.85-3.3.85-2.35 0-4.7-1.7-4.7-5.5s2.82-5.5 5.18-5.5c1.88 0 2.66.56 2.82.85ZM37 20h-4v1c1.2 0 1 .67 1 1v10c0 .8-.67 1-1 1v1h9v-4h-1c0 2.4-1.33 3-2 3h-3V22c0-.8.67-1 1-1v-1Z" fill="#FFF9F2"/><defs><linearGradient id="a" x1="28" y1="0" x2="28" y2="56" gradientUnits="userSpaceOnUse"><stop stop-color="#43AEAE"/><stop offset="1" stop-color="#007676"/></linearGradient><linearGradient id="b" x1="28" y1="17" x2="28" y2="39" gradientUnits="userSpaceOnUse"><stop stop-color="#005D5D"/><stop offset=".47" stop-color="#007F80"/><stop offset="1" stop-color="#065555"/></linearGradient></defs></svg>