<!-- by TradingView --><svg width="56" height="56" viewBox="0 0 56 56" xmlns="http://www.w3.org/2000/svg"><path fill="#F0F3FA" d="M0 0h56v56H0z"/><path fill="#007AC8" d="M15 26h2v6h-2zM19 23h2v9h-2z"/><path d="M15 23.5v1h.5v.5h1v-.5h.5v-1h-.5V23h-1v.5H15Z" fill="#FF8D00"/><path fill-rule="evenodd" d="M5.5 23H4v9h7c2.5 0 3-1 3-2.5 0-2.1-1.4-2.32-2.39-2.48L11.5 27c.67 0 1.5-.4 1.5-2s-2-2-3-2H5.5Zm.5 2v2h4c.33 0 1-.2 1-1s-.67-1-1-1H6Zm0 3v2h5c.5 0 1-.33 1-1 0-.67-.5-1-1-1H6Z" fill="#007AC8"/><path d="M26 26c-1.6 0-2 1.27-2 2.5 0 1 .4 2.5 2 2.5s2.67-.67 3-1v1c-.33.33-1.4 1-3 1-2 0-4-1-4-3.5s2-3.5 4-3.5c1.6 0 2.67.67 3 1v1c-.33-.33-1.4-1-3-1ZM33.5 26a6.2 6.2 0 0 0-2.5.5v-1c.5-.17 1.7-.5 2.5-.5 1 0 3.5 0 3.5 2v5h-2v-.93c-.52.49-1.19.93-2 .93-1 0-3 0-3-2 0-1.46 3.07-1.92 5-2v-1c0-.33-.3-1-1.5-1Zm1.5 2.58c-2.38.41-3 1.1-3 1.42 0 .33.2 1 1 1 .49 0 1.32-.38 2-.9v-1.52ZM40 32h-2v-5c0-2 2.5-2 3.5-2 .8 0 1.33.33 1.5.5v1c-.17-.17-.7-.5-1.5-.5s-1.33.5-1.5 1v5ZM46 29c0 1 .89 2 2.48 2 1.6 0 3.16-.67 3.5-1v1c-.34.33-1.9 1-3.5 1C46.5 32 44 31 44 29c0-1.5.5-4 4.48-4 3.2 0 3.66 2.67 3.5 4h-5.99Zm0-1h3.98c0-.67-.4-2-2-2C46.4 26 46 27.33 46 28Z" fill="#007AC8"/></svg>