<!-- by TradingView --><svg width="56" height="56" viewBox="0 0 56 56" xmlns="http://www.w3.org/2000/svg"><path fill="#F0F3FA" d="M0 0h56v56H0z"/><path d="M14.14 30.79c0 3.05 5.24 6.08 7.86 7.21-1.96 0-11-2.97-11-7.64 0-3.73 5.76-5.8 8.64-6.36-1.83.99-5.5 3.73-5.5 6.79Z" fill="#2E0099"/><path d="M26.72 32c-1.7 2.27-2.42 4.86-2.42 6-1.2-1.71-2-4.71-.4-7.29 3.04-4.85 13.54-7 18.1-7.71-6.84 1.71-13.67 6.86-15.28 9Z" fill="#913A9A"/><path d="M25.73 22.23C22.25 24.17 20.4 27.45 20 29c5.56-5.42 20.32-9.59 27-11-5.6.7-15.95 1.27-21.27 4.23Z" fill="url(#a)"/><defs><linearGradient id="a" x1="43.73" y1="18.42" x2="21.87" y2="26.4" gradientUnits="userSpaceOnUse"><stop stop-color="#C94224"/><stop offset="1" stop-color="#A0207C"/></linearGradient></defs></svg>