<!-- by TradingView --><svg width="56" height="56" viewBox="0 0 56 56" xmlns="http://www.w3.org/2000/svg"><path fill="#F0F3FA" d="M0 0h56v56H0z"/><path fill-rule="evenodd" d="M44 28a16 16 0 1 1-32 0 16 16 0 0 1 32 0ZM29.79 15.42c.12-.17.08-.29-.11-.36l-1.25-.43c-.31-.11-.38-.02-.21.26.15.25.5.5 1.03.76a.38.38 0 0 0 .46-.12l.08-.1Zm-4.17.42c.14-.03.28-.05.4-.04.07 0 .13.04.2.1l.28.38c.1.14.36.35.8.62a.3.3 0 0 0 .2.04.28.28 0 0 0 .18-.1l.04-.04a.16.16 0 0 0 0-.2 6.27 6.27 0 0 1-1.52-1.21c-.22-.25-.46-.42-.77-.42-.41 0-.76-.01-1.03-.05-.37-.04-.4.07-.07.34.1.08.28.24.55.5.19.16.47.12.74.08Zm-4.15-.69.01.02c.04.08.03.19-.05.3-.07.1-.19.2-.33.27l-.05.02a.98.98 0 0 1-.22.08.72.72 0 0 1-.2.02.41.41 0 0 1-.17-.05.23.23 0 0 1-.1-.1v-.01l1.1-.55Zm-2.49 1.2h-.01l-.88.68a.03.03 0 0 0-.02.02.03.03 0 0 0 0 .02l.02.02c.03.03.07.06.12.08.05.02.1.03.17.03.06 0 .12-.02.19-.05a.78.78 0 0 0 .18-.1l.06-.04.15-.15a.61.61 0 0 0 .1-.18.4.4 0 0 0 .02-.16c0-.06-.03-.1-.06-.14v-.01l-.01-.01h-.03Zm.24 1.94c.49-.22.82-.53.75-.7-.08-.16-.53-.11-1.02.11s-.83.54-.75.7c.07.16.53.11 1.02-.1Zm.58 1.33c.17-.48.26-.74.7-.96.1-.05.1-.1.02-.16l-.13-.1c-.08-.07-.16-.07-.24-.01-.37.27-.57.46-.62.57-.13.28-.26.52-.4.7-.12.15-.08.22.1.22h.2a.4.4 0 0 0 .37-.26Zm1.1.36-.13-.1c-.08-.06-.07-.1.03-.11l.77-.14a.12.12 0 0 1 .11.04.12.12 0 0 1 .03.1l-.16.6a.22.22 0 0 1-.19.16.22.22 0 0 1-.22-.12l-.19-.36a.2.2 0 0 0-.05-.07Zm-.9.32-1.24.12a.38.38 0 0 0-.3.23l-.24.53a.37.37 0 0 0 .2.5c.07.02.13.03.2.02l1.53-.24a.38.38 0 0 0 .32-.42l-.06-.43a.38.38 0 0 0-.42-.31Zm8.98.4c.1.08.33.18.7.3a.41.41 0 0 1 .27.23c.14.33.25.73.33 1.2a.34.34 0 0 1-.23.37.34.34 0 0 1-.16.02 1.99 1.99 0 0 1-.77-.34c-.42-.28-.57-1.2-.67-1.77l-.01-.09a.11.11 0 0 1 .03-.1.12.12 0 0 1 .1-.03c.13.02.27.1.4.21Zm-2.66.47.86.67a.16.16 0 0 0 .15.03l.16-.05a.1.1 0 0 0 .08-.08.1.1 0 0 0-.04-.1 3.9 3.9 0 0 0-.95-.56c-.1-.04-.18-.04-.25-.02-.07.03-.08.06-.01.11Zm-5.26 1.18a.4.4 0 0 1-.27.3l-1.08.3c-.3.08-.58.12-.86.11-.36-.01-.64-.1-.85-.25-.47-.36-.4-.54.2-.53.06 0 .22-.03.47-.1a15.5 15.5 0 0 1 1.82-.36c.06 0 .12-.03.18-.07l.28-.24a.15.15 0 0 1 .23.04l.14.25c.03.06.08.1.14.12.1.05.2.12.27.2.06.07.05.11-.03.14-.1.03-.24.02-.43-.04-.11-.04-.18 0-.2.13Zm3.39.32-.01-.01-1.05-.92-.03-.01-.03.01-.02.03a.46.46 0 0 0-.1.17.51.51 0 0 0-.01.21c0 .07.03.14.07.2.03.07.08.13.14.19l.23.2c.12.1.27.16.41.16.15 0 .28-.06.37-.16l.02-.02.01-.02a.04.04 0 0 0 0-.03Zm16.46 0c.16 0 .29-.08.29-.17 0-.09-.14-.16-.3-.15-.17 0-.3.09-.3.17 0 .1.14.16.3.15Zm-2.45 2.54c-.03.46-.27.94-.7 1.43l1.82.14a.16.16 0 0 0 .15-.08c.2-.33.18-.63-.04-.9a1.64 1.64 0 0 0-1.23-.59Zm-1 2.16a.25.25 0 0 1 .15-.23.26.26 0 0 1 .1-.02h.05c.57 0 1.1.04 1.5.12.4.08.63.19.63.3v.31c0 .06-.06.11-.17.16-.1.05-.26.1-.46.13a6.38 6.38 0 0 1-1.5.12h-.05a.26.26 0 0 1-.26-.26v-.63Zm-3.19 1.4c.37-.07.59-.27.67-.63l-1.08-.37a.3.3 0 0 0-.18 0c-.55.15-1.06.5-1.51 1.06.98.03 1.68 0 2.1-.06Zm1.54-.61.07-.04c.4-.14.75-.15 1.02-.05.22.08.22.17 0 .26-.18.07-.42.13-.7.18-.14.03-.23.01-.29-.04-.07-.07-.1-.17-.1-.31Zm5.9-.01-.92.07a.29.29 0 0 0-.26.26l-.05.44a.29.29 0 0 0 .36.3l.91-.21a.29.29 0 0 0 .22-.23l.05-.3a.29.29 0 0 0-.3-.33Zm-1.88 1.44-1.98.37a.27.27 0 0 1-.32-.25l-.03-.72a.27.27 0 0 1 .23-.28l2.04-.32a.27.27 0 0 1 .29.17c.02.03.02.07.02.11l-.03.67a.27.27 0 0 1-.22.25Zm-3.46 1.27c-.14.4-.32.77-.53 1.13.09.09.22.1.38.02l.56-.27a.3.3 0 0 0 .19-.32l-.04-.33c-.05-.45-.08-.76.05-1.19.06-.19.1-.46.1-.82 0-.07-.04-.12-.11-.14-.16-.06-.4-.06-.74-.01-.17.02-.29.09-.35.2.26.24.44.51.54.82.1.26.07.57-.05.91Zm-2.66-1.5c-.37.42-.65.88-.83 1.37-.07.2-.1.38-.06.55.02.14.03.33 0 .57 0 .1.04.18.14.21l.06.02c.14.05.23 0 .27-.13l.26-.86c.32-.07.64-.06.95.02.04 0 .08.03.1.06.02.04.04.07.04.11-.02.57-.3.96-.85 1.16-.1.04-.29 0-.55-.12a.22.22 0 0 0-.18 0 .25.25 0 0 0-.14.15.16.16 0 0 1-.13.1c-.26.03-.44-.05-.53-.23-.18-.38-.13-.77.15-1.15a.24.24 0 0 0 .05-.18l-.26-1.45c-.02-.1.02-.15.12-.16l1.39-.04Zm8.74.87c-.12-.03-.2-.23-.16-.45.04-.23.17-.4.3-.37.12.02.2.22.16.44-.04.23-.17.4-.3.38Zm-6.42.27a.36.36 0 0 1-.08.02l-.6-.28a.2.2 0 0 1-.12-.15c-.03-.16-.13-.23-.3-.2a.14.14 0 0 0-.12.13c-.01.11-.04.2-.06.25-.02.06-.09.12-.18.17-.28.13-.58.2-.9.2.26-.71.74-1.1 1.45-1.16.28-.02.52.04.7.18.26.2.36.45.32.76l-.02.02a.22.22 0 0 1-.09.06Zm4.69.42.85-.33a.19.19 0 0 0 .12-.15l.1-.65a.19.19 0 0 0-.23-.21l-.95.14a.2.2 0 0 0-.17.19l.02.84a.19.19 0 0 0 .17.19.2.2 0 0 0 .09-.02Zm-1.28.42-1.76.3a.27.27 0 0 1-.32-.3l.09-.67a.27.27 0 0 1 .22-.24l2-.4a.27.27 0 0 1 .32.24c0 .05 0 .1-.02.14l-.32.76a.27.27 0 0 1-.2.17Zm2.87-.38c.17.03.23.12.2.29-.1.49-.22.72-.36.7-.14-.03-.18-.28-.12-.78.02-.17.12-.24.28-.21Zm-1.49 1.4c.44-.11.65-.45.62-1.03 0-.06-.04-.08-.1-.07l-.26.04c-.3.05-.6.09-.75.27-.18.22-.3.46-.33.72a.17.17 0 0 0 .04.14.16.16 0 0 0 .14.05l.64-.12Zm-1.5.37-2.1.6a.07.07 0 0 1-.06-.02.07.07 0 0 1-.03-.05v-1.05a.06.06 0 0 1 .05-.02l2.4-.42a.06.06 0 0 1 .07.08l-.28.83a.06.06 0 0 1-.04.05Zm-2.88-.36c-.22.05-.47 0-.73-.15l-.99.68-.05.44a.28.28 0 0 0 .2.3c.05.02.1.02.14.01l1.17-.2a.49.49 0 0 0 .39-.36l.12-.47c.05-.21-.03-.3-.25-.25Zm-5.65.4.8.3c.32.12.6.19.84.21.57.06 1.14.02 1.71-.13.26.1.23.3-.1.63a.32.32 0 0 1-.16.09l-1.58.27a.27.27 0 0 1-.31-.2l-.06-.25c-.07-.3-.14-.3-.22-.03-.06.22-.17.43-.43.5-.52.15-1.05.14-1.59 0a.2.2 0 0 1-.13-.13.89.89 0 0 1 .04-.76c.03-.06.08-.1.14-.13l1.05-.38Zm9.9.11-.8.12a.3.3 0 0 0-.23.21l-.18.62a.3.3 0 0 0 .25.37.3.3 0 0 0 .16-.02l.7-.34a.3.3 0 0 0 .12-.1l.27-.4a.3.3 0 0 0-.13-.43c-.05-.03-.1-.04-.16-.03Zm-12.6.35.72-.06a.23.23 0 0 1 .16.05.23.23 0 0 1 .08.16l.03.5a.22.22 0 0 1-.15.23l-.5.17a.23.23 0 0 1-.28-.13l-.25-.6a.22.22 0 0 1 .19-.32Zm8.73 1.8 1.7-.4a.23.23 0 0 0 .16-.14l.4-.9a.23.23 0 0 0-.13-.31.23.23 0 0 0-.12-.01l-1.9.39a.23.23 0 0 0-.17.17l-.22.92a.23.23 0 0 0 .16.28h.12Zm-.98.16-1.48.26a.16.16 0 0 1-.18-.1.16.16 0 0 1 0-.08l.12-.94a.16.16 0 0 1 .12-.14l1.74-.33a.16.16 0 0 1 .18.21l-.37 1.02a.16.16 0 0 1-.13.1Zm-4.2-.32.07.8c.01.21.12.3.32.26l1.12-.2a.64.64 0 0 0 .54-.48l.11-.39c.07-.36-.06-.54-.39-.53-.38.02-.88.08-1.5.2-.2.03-.28.15-.27.34Zm-.67 1.1-1.25.19a.23.23 0 0 1-.23-.13.22.22 0 0 1-.02-.1l.02-1.1a.22.22 0 0 1 .23-.21l1.42.02a.22.22 0 0 1 .21.27l-.2.89a.22.22 0 0 1-.18.17Zm-1.99 0a.1.1 0 0 0 .02-.07l-.16-.97a.1.1 0 0 0-.12-.08h-.03a.43.43 0 0 0-.17.08.47.47 0 0 0-.13.13.58.58 0 0 0-.08.39l.02.13a.57.57 0 0 0 .2.34.43.43 0 0 0 .36.1h.03a.1.1 0 0 0 .06-.05Zm7.75.67-.67.11a.23.23 0 0 1-.26-.2c0-.03 0-.07.02-.1l.33-.77a.22.22 0 0 1 .16-.13l1.47-.3a.23.23 0 0 1 .25.13.22.22 0 0 1-.06.27l-1.13.94a.23.23 0 0 1-.11.05Zm-1.23-.77-1.47.02a.12.12 0 0 0-.11.06L33.4 37a.12.12 0 0 0 .01.12.12.12 0 0 0 .12.05l1.45-.17a.12.12 0 0 0 .1-.06l.52-.87a.12.12 0 0 0-.04-.17.12.12 0 0 0-.06-.02ZM21.18 37.5l-1.93-.4a.18.18 0 0 1-.1-.06l-.45-.58a.18.18 0 0 1 .05-.26.18.18 0 0 1 .1-.02l1.7.16c.05 0 .1.03.12.06l.69.8a.18.18 0 0 1-.07.28.18.18 0 0 1-.1.02Zm10.09-.35c-.05.32.08.45.4.4a4 4 0 0 0 1.05-.27c.06-.03.1-.07.12-.13l.31-.7a.15.15 0 0 0-.06-.18.14.14 0 0 0-.07-.02h-1.1c-.33 0-.52.16-.58.48l-.07.42Zm-1.55-.7h.8a.37.37 0 0 1 .36.42l-.1.57a.37.37 0 0 1-.38.3l-.82-.04a.37.37 0 0 1-.34-.46l.13-.5a.37.37 0 0 1 .35-.28Zm-1.65.24.54.05c.2.02.34.19.33.38l-.03.32c-.02.2-.2.35-.4.33l-.54-.05a.36.36 0 0 1-.32-.38l.03-.32c.01-.2.19-.35.39-.33Zm7.9 1.42c.5-.28.8-.69.67-.9-.13-.23-.63-.18-1.13.1-.5.29-.8.7-.67.91.13.22.63.17 1.13-.1Zm-1.64-.65-1.29.3a.17.17 0 0 0-.1.08l-.31.65a.16.16 0 0 0 .16.23l1.26-.16a.17.17 0 0 0 .13-.1l.34-.78a.16.16 0 0 0-.2-.22Zm-12.2 1.33-1.85-.38a.14.14 0 0 1-.07-.03l-.48-.49a.14.14 0 0 1 .03-.22.14.14 0 0 1 .08-.02l1.82.2a.14.14 0 0 1 .1.06l.5.66a.14.14 0 0 1-.05.21.14.14 0 0 1-.09.01Zm10.16-.77c-.1-.03-.23-.04-.43-.02l-.43-.01c-.3 0-.5.17-.62.52a.36.36 0 0 0 .24.45c.71.22 1.15-.05 1.32-.81.01-.07-.01-.11-.08-.13Zm-2.23 1.13-.62.06a.24.24 0 0 1-.25-.15.24.24 0 0 1-.02-.1l.05-.6a.24.24 0 0 1 .23-.23h.9a.24.24 0 0 1 .24.24l-.03.12-.32.54a.24.24 0 0 1-.18.12Zm-2.26.06.72-.06a.24.24 0 0 0 .21-.26l-.03-.31a.23.23 0 0 0-.21-.21l-.64-.07a.24.24 0 0 0-.24.12.24.24 0 0 0-.02.1l-.04.43a.23.23 0 0 0 .25.26Zm8.76-.23c.16-.11.23-.3.16-.4-.08-.1-.28-.1-.44.02-.17.11-.24.3-.16.4.08.11.27.1.44-.02Zm-17.48-.2c-.1.02-.1.06-.04.12a2.54 2.54 0 0 0 1.58.73.08.08 0 0 0 .04-.12c-.37-.66-.9-.9-1.58-.74Zm15.58.74c.38-.18.63-.45.55-.6-.07-.14-.43-.12-.8.06-.38.18-.63.45-.56.6.07.14.44.12.81-.06Zm-11.84-.18-1.55-.23a.11.11 0 0 0-.12.07.11.11 0 0 0 .03.13l.64.56.06.03 1.45.16a.11.11 0 0 0 .12-.07.11.11 0 0 0-.03-.13l-.54-.49a.11.11 0 0 0-.06-.03Zm9.1.32c.03-.22.15-.35.37-.38a3.37 3.37 0 0 1 .98 0 .1.1 0 0 1 .03.04.1.1 0 0 1-.02.1c-.3.32-.67.56-1.1.7-.2.08-.3.01-.27-.2l.02-.26Zm-.96.7.62-.65a.13.13 0 0 0-.09-.22l-.8-.07a.13.13 0 0 0-.13.08l-.2.52a.13.13 0 0 0 .06.17l.4.2a.13.13 0 0 0 .14-.04Zm-1.32.02-.28.03a.28.28 0 0 1-.24-.09.28.28 0 0 1-.06-.25l.07-.28a.28.28 0 0 1 .32-.21l.38.07a.28.28 0 0 1 .22.19.28.28 0 0 1-.07.27l-.17.19a.28.28 0 0 1-.17.08Zm-1.23-.64-.47-.08a.25.25 0 0 0-.3.26c0 .05.03.1.06.14l.26.31c.03.05.08.08.14.1l.16.03a.25.25 0 0 0 .3-.2l.05-.27a.25.25 0 0 0-.2-.3Zm6.68.6c.37-.26.61-.56.54-.65-.07-.1-.42.04-.8.3-.36.27-.6.56-.53.66.06.1.42-.04.79-.3Zm-7.66-.2c-.03.2-.27.33-.54.29-.26-.04-.46-.23-.43-.42.03-.2.27-.32.54-.29.26.04.46.23.43.43Zm-5 .71-1.2-.66a.15.15 0 0 0-.2.05v.01a.15.15 0 0 0 .05.2l1.2.67c.07.04.17.02.2-.05l.01-.01a.15.15 0 0 0-.06-.21Zm11.17-.59c.05.09-.13.3-.4.47-.27.17-.54.24-.6.16-.05-.1.12-.3.4-.48.27-.17.54-.24.6-.15Zm-2.44 1h-.03a.04.04 0 0 1-.02 0v-.01l-.01-.02a.35.35 0 0 1-.02-.3c.04-.11.12-.2.22-.27l.1-.06c.1-.06.22-.1.34-.08.11.02.2.07.26.16v.01a.04.04 0 0 1 .01.03v.01l-.02.01-.83.52Zm-5.9-.37h-.01l-2.17-.38a.03.03 0 0 0-.03.01v.03c-.02.12.07.26.26.38.18.13.45.22.74.27l.06.01a2.4 2.4 0 0 0 .78 0c.11-.03.2-.07.26-.11.07-.05.1-.1.12-.17v-.04h-.01Zm4.09.18c0 .08-.06.17-.2.25a.12.12 0 0 1-.14-.01.12.12 0 0 1-.03-.04.58.58 0 0 1-.04-.14v-.15a.12.12 0 0 1 .1-.1h.05c.16.05.25.11.26.2Zm1.08-.12c.04.09-.05.2-.2.27-.14.06-.28.03-.32-.06-.04-.09.05-.21.19-.27.14-.06.29-.03.33.06ZM17.27 18.79l.4-.5a.17.17 0 0 0-.21-.27l-.6.26a.17.17 0 0 0-.09.09l-.14.3a.17.17 0 0 0 .2.25l.33-.06c.04-.01.08-.03.1-.07Zm.06.62a14.25 14.25 0 0 1-.56 1.08l.01.01h.03l1.18-.2a.45.45 0 0 0 .35-.31c.1-.3.26-.6.5-.9.02-.02.02-.06.01-.1a.1.1 0 0 0-.03-.05.1.1 0 0 0-.13-.02.9.9 0 0 1-.62.16c-.3-.04-.64.1-.74.33Zm-.68.2-.62 1.15a.13.13 0 0 1-.05.05l-.6.28a.13.13 0 0 1-.18-.1v-.07l.43-.9a.13.13 0 0 1 .05-.06l.79-.5a.13.13 0 0 1 .15 0 .12.12 0 0 1 .03.16Zm.5 2.45.48-1a.06.06 0 0 0-.07-.1l-1.16.19a.06.06 0 0 0-.04.03l-.47.98a.06.06 0 0 0 0 .06.06.06 0 0 0 .06.03l1.16-.16a.06.06 0 0 0 .05-.03Zm-1.98.45c-.1.15-.32.26-.65.34a.17.17 0 0 1-.17-.04c-.2-.21-.17-.4.04-.57.18-.16.33-.33.43-.54a.41.41 0 0 1 .33-.22c.22-.02.33.05.32.2 0 .3-.1.57-.3.83Zm.2 1.24 1.09-.1a.06.06 0 0 0 .04-.02l.45-.81a.06.06 0 0 0 0-.06.06.06 0 0 0-.06-.03l-1.3.08a.06.06 0 0 0-.06.04l-.22.82a.06.06 0 0 0 .01.05.06.06 0 0 0 .05.03Zm-1.22-.36.45-.1a.18.18 0 0 1 .22.12v.09l-.08.4a.18.18 0 0 1-.1.12l-.53.26a.18.18 0 0 1-.25-.21l.16-.55a.18.18 0 0 1 .13-.13Zm1.84.97-.8.01a.14.14 0 0 0-.12.12L15 25a.13.13 0 0 0 .14.16l.07-.02.84-.52a.13.13 0 0 0-.07-.25Zm-1.5.51-.37 1.04a.2.2 0 0 1-.16.12l-.48.07a.2.2 0 0 1-.22-.18c0-.03 0-.07.02-.1l.47-1a.2.2 0 0 1 .13-.1l.39-.1a.2.2 0 0 1 .19.06.2.2 0 0 1 .04.2Zm-.83 3.2c.3-.16.44-.44.4-.82a.9.9 0 0 1 0-.2l.02-.2c.02-.07-.02-.11-.1-.12-.24-.03-.48.02-.7.15a.27.27 0 0 0-.13.15c-.1.28-.08.58.07.9a.31.31 0 0 0 .32.18c.04 0 .08-.02.12-.04Zm-.09 1.51c.17.1.35.1.41 0s-.03-.25-.2-.35c-.16-.1-.34-.1-.4 0s.02.25.2.35Zm1.65-.07a1.38 1.38 0 0 0-.55-.25c-.07-.01-.1.01-.1.08.02.2.08.38.17.51a.28.28 0 0 0 .4.06l.09-.07c.13-.11.13-.22 0-.33Zm-1.24.83.27.8a.12.12 0 0 1-.1.16l-.4.03a.12.12 0 0 1-.12-.08l-.33-.9a.12.12 0 0 1 .14-.16l.44.07a.12.12 0 0 1 .1.08Zm2.46.8.16.1c.06.03.1.08.12.15.06.25.15.44.24.58.04.06.1.1.16.1.72.14 1.33.21 1.83.23.31.01.42-.13.34-.42l-.05-.16a1 1 0 0 0-.85-.76 7.69 7.69 0 0 0-1.14-.12.93.93 0 0 1-.36-.08 2.18 2.18 0 0 0-1.01-.1l-.33.01a.37.37 0 0 1-.18-.04c-.23-.12-.46-.2-.69-.2-.08-.01-.1.03-.1.1.08.4.18.68.3.87.2.34.57.4.92.4.32 0 .46-.17.4-.5a.16.16 0 0 1 .07-.15.16.16 0 0 1 .17 0Zm-2.79 1.05a.1.1 0 0 1 0-.07.1.1 0 0 1 .04-.06l.03-.02a.5.5 0 0 1 .4-.04.54.54 0 0 1 .31.26l.1.17c.06.12.08.27.04.4a.5.5 0 0 1-.24.32l-.03.01a.1.1 0 0 1-.1 0 .1.1 0 0 1-.03-.03l-.52-.94Zm2.58.18-.9-.26a.29.29 0 0 0-.34.4l.23.47c.04.07.1.12.17.14l.8.28a.29.29 0 0 0 .38-.2.28.28 0 0 0 0-.15l-.15-.48a.28.28 0 0 0-.2-.2Zm1.04.01 2 .39a.28.28 0 0 1 .2.16l.27.59a.28.28 0 0 1-.14.37.28.28 0 0 1-.14.03l-1.96-.17a.28.28 0 0 1-.24-.19l-.3-.8a.28.28 0 0 1 .16-.37c.05-.01.1-.02.15 0Zm-2.41 1.24-.24-.02a1.12 1.12 0 0 1-.24-.05c-.27-.17-.34-.1-.24.22.19.57.54.98 1.05 1.22.04.03.1.02.17 0a.17.17 0 0 0 .09-.25 4.42 4.42 0 0 0-.41-.55.42.42 0 0 1-.1-.23.87.87 0 0 1 0-.25c.01-.08-.01-.1-.08-.1Zm2.32.53.28 1.16a.16.16 0 0 1-.2.19l-1.08-.28a.16.16 0 0 1-.1-.08l-.68-1.26a.16.16 0 0 1 .02-.17.16.16 0 0 1 .16-.06l1.49.39a.16.16 0 0 1 .1.11Zm.3 0 .3 1.07c.02.07.06.12.12.17.4.27.68.42.85.45l1.28.16c.4.03.53-.13.39-.5l-.2-.55a.96.96 0 0 0-.77-.65l-1.8-.34a.15.15 0 0 0-.17.1v.08Zm-1.87 2c.23.23.48.36.55.3.07-.08-.06-.33-.29-.56-.23-.24-.48-.37-.55-.3-.08.08.05.32.29.56Zm2.35-.04-1.41-.37a.12.12 0 0 0-.14.06.12.12 0 0 0 .02.14l.79.85a.12.12 0 0 0 .1.04h.98a.12.12 0 0 0 .1-.08.12.12 0 0 0 0-.13l-.37-.47a.12.12 0 0 0-.07-.04Zm-1.38 1.43c.24.23.5.36.57.28.07-.07-.08-.32-.33-.54-.25-.23-.5-.36-.57-.28-.07.07.08.32.33.54ZM19 37.5l-1.4-.3a.1.1 0 0 0-.1.06.1.1 0 0 0 0 .1l.7.72a.1.1 0 0 0 .05.02l1.06.23a.1.1 0 0 0 .1-.03.1.1 0 0 0 0-.1l-.34-.65a.1.1 0 0 0-.07-.05Zm-1.1 1.43c.23.18.48.26.53.18.06-.07-.09-.28-.33-.46-.24-.18-.48-.26-.54-.18-.05.07.1.28.33.46Z" fill="#DCDB8E"/><path d="M38 25.66c-.03.42-.24.85-.62 1.3-.6.42-1.1.45-1.48.08-.22-.23-.33-.5-.31-.82.01-.43.35-1.09.86-1.07a.1.1 0 0 1 .09.06.11.11 0 0 1 0 .11c-.15.22-.28.46-.39.72-.23.57 0 1.06.65.87.39-.12.68-.4.87-.81.14-.3.03-.71-.1-1.02-.22-.5-.58-.75-1.09-.75-1.2.02-1.96.6-2.26 1.76-.13.49-.13 1.11.48 1.24.4.09.78.16 1.04.45.08.08.11.16.1.25 0 .09-.04.18-.1.27l-.07.03c-.27.1-.53.09-.77-.01l-.95-.34a.26.26 0 0 0-.16 0 2.7 2.7 0 0 0-1.33.96c-.77.68-1.07 1.64-.9 2.9.05.33.51.65.85.73.89.2 1.72.04 2.5-.5.58-.3.93-.87 1.05-1.69a.7.7 0 0 0-.28-.68.84.84 0 0 0-.62-.17c-.62.06-1.05.4-1.28 1.05l-.1.4-.23.79c-.03.12-.11.17-.23.12l-.06-.02c-.09-.03-.13-.1-.12-.2.02-.2.02-.38 0-.5a.97.97 0 0 1 .05-.5 4 4 0 0 1 .73-1.25c.57-.4 1.2-.46 1.9-.2.24.21.4.46.49.74.08.24.06.51-.05.82-.13.36-.28.7-.46 1.03l-.12.2-.87.62-.51.23c-.5.13-1 .17-1.51.12a2.8 2.8 0 0 1-.73-.2l-.71-.27c-1.1-.77-1.48-1.7-1.12-2.78.17-.52.45-.94.84-1.26.44-.34.88-.6 1.35-.76a47.5 47.5 0 0 0 .87-.32.12.12 0 0 0 .03-.08v-.05c-.32-.73-.56-1.42-.05-2.15.4-.58.89-.91 1.46-1a6.7 6.7 0 0 1 1.73-.08c.44.06.77.17 1 .3.27.19.45.45.51.79l.13.54Z" fill="#050806"/><path fill-rule="evenodd" d="M22.01 28.72a.1.1 0 0 1 0 .04c-.45.9-.7 2.4 0 3.24.44.52.97.83 1.62.93 1.26.2 2.38-.04 3.35-.73.64-.46.87-1.09.95-1.8.09-.73-.34-1.31-1.13-1.41a2.09 2.09 0 0 0-1.84.64c-.5.52-.6 1.17-.32 1.96l.05.05.1.04c.05.01.11-.04.18-.15a.4.4 0 0 0 .05-.16c.06-.71.36-1.28.9-1.7.46-.35 1.28-.32 1.54.27.18.38.1.78-.2 1.18a4.01 4.01 0 0 1-2.35 1.49c-.54.13-1.17.08-1.55-.3-.08-.1-.13-.25-.13-.46 0-.7.17-1.47.54-2.3.11-.25.25-.46.4-.61.11-.1.34-.2.7-.28 1.28-.28 2.55-.85 3.83-1.7.63-.42 1.2-.99 1.29-1.74.12-.96-.74-1.32-1.62-1.2-.42.06-.84.2-1.28.44-1.7.92-3.21 2.14-4.55 3.65a.46.46 0 0 1-.2.13.5.5 0 0 1-.23.03c-.43-.07-1.3-.26-1.32-.81-.08-1.48.58-2.53 2-3.15.13-.06.13-.11-.01-.17-.24-.08-.47-.09-.7-.02-.8.26-1.4.74-1.78 1.45-.5.94-.38 1.76.37 2.48a2.71 2.71 0 0 0 1.3.6.1.1 0 0 1 .04.07Zm6.03-4.28a11.85 11.85 0 0 0-3.29 3.7c-.02.07 0 .1.08.08 1.59-.22 2.83-1 3.94-2 .59-.54 1.31-1.55.15-1.93a.93.93 0 0 0-.88.15Z" fill="#050806"/></svg>