<!-- by TradingView --><svg width="56" height="56" viewBox="0 0 56 56" xmlns="http://www.w3.org/2000/svg"><path fill="#F0F3FA" d="M0 0h56v56H0z"/><path d="M35.2 13H22l5.28 8.67c2.11 3.46 4.99 4.33 6.16 4.33H44l-8.8-13Z" fill="#312682"/><path d="M35.2 43H22l5.28-8.67c2.11-3.46 4.99-4.33 6.16-4.33H44l-8.8 13Z" fill="#F8B133"/><path d="M22.22 43H35c-.85-1.39-4.77-7.5-6.81-10.83-2.05-3.34-4.83-4.17-5.97-4.17H12l10.22 15Z" fill="#E30613"/><path d="M32.88 39.64 35 43H22.22l-.12-.17 5.18-8.5c.39-.63.8-1.18 1.22-1.65 1.24 2 2.99 4.76 4.38 6.96Z" fill="#AE0F0B"/><path d="M22 13h13.35c-.86 1.39-4.84 7.5-6.92 10.83-2.07 3.34-4.9 4.17-6.05 4.17H12l10-15Z" fill="#0E70B6"/><path d="M35.2 13H22l5.28 8.67c.43.7.9 1.3 1.37 1.81 1.26-2.01 3.1-4.86 4.55-7.12l2.08-3.24-.08-.12Z" fill="#201452"/></svg>