<!-- by TradingView --><svg width="56" height="56" viewBox="0 0 56 56" xmlns="http://www.w3.org/2000/svg"><path fill="#F0F3FA" d="M0 0h56v56H0z"/><path d="M41.94 32.7c-2.64-.36-5.84.47-7.1.93a.24.24 0 0 1-.32-.14.23.23 0 0 1 .14-.3c1.3-.47 4.6-1.34 7.35-.95 1.36.19 2.37.38 3.08.55.71.17 1.14.32 1.33.41.12.06.17.2.1.32a.24.24 0 0 1-.31.1c-.14-.06-.53-.2-1.23-.37-.7-.16-1.7-.36-3.04-.55Zm-29.36 0c-1.5 0-3.45.62-4.25.93a.24.24 0 0 1-.31-.13.23.23 0 0 1 .13-.3c.81-.32 2.84-.96 4.43-.96.51 0 .99.09 1.46.22l.72.2a10.42 10.42 0 0 0 5.01.51c.14 0 .26.08.28.21a.24.24 0 0 1-.21.27 10.92 10.92 0 0 1-5.21-.53h-.01a23.3 23.3 0 0 0-.7-.2 5.1 5.1 0 0 0-1.34-.21ZM9.8 36.35c-.6.2-1.15.42-1.46.58a.24.24 0 0 1-.32-.1.23.23 0 0 1 .1-.32c.33-.17.9-.4 1.53-.6.63-.2 1.34-.37 1.95-.37.63 0 1.03.17 1.45.35l.33.14c.57.22 1.38.45 3.04.45a10.69 10.69 0 0 0 3.68-.56c.64-.2 1.24-.38 2.1-.38 1.61 0 2.7.65 3.07 1 .1.1.1.25 0 .34-.1.1-.25.1-.34 0a4.16 4.16 0 0 0-2.72-.87c-.8 0-1.32.16-1.96.36l-.32.1c-.8.24-1.8.48-3.5.48a8.3 8.3 0 0 1-3.23-.49l-.37-.15c-.41-.17-.7-.3-1.23-.3-.54 0-1.2.15-1.8.34Zm31.61.84c-.5.14-.98.23-1.37.23-.7 0-1.51-.2-2.33-.42l-.2-.06c-.9-.23-1.84-.46-2.77-.46-1.5 0-3.12.61-3.75.92a.24.24 0 0 1-.32-.1.23.23 0 0 1 .1-.32c.66-.33 2.37-.97 3.97-.97a11.62 11.62 0 0 1 3.07.53c.85.22 1.6.41 2.23.41.33 0 .75-.08 1.25-.21.48-.13 1.02-.3 1.56-.48.55-.18 1.1-.36 1.6-.5a4.8 4.8 0 0 1 2.78-.04c.34.11.57.24.69.36.1.1.1.24 0 .33-.1.1-.25.1-.34 0-.04-.04-.2-.14-.5-.23a4.31 4.31 0 0 0-2.5.04c-.5.13-1.03.3-1.57.48-.55.18-1.1.36-1.6.5Z" fill="#9F220E"/><path fill-rule="evenodd" d="M28 30.5a6.5 6.5 0 1 0 0-13 6.5 6.5 0 0 0 0 13Zm0 1.5a8 8 0 1 0 0-16 8 8 0 0 0 0 16Z" fill="#825DA2"/><path fill-rule="evenodd" d="M24.21 20v2.67l.42-2.48.21.03-.48 2.81 1.12-2.66.2.08-1.3 3.1 2.78-2.73 2.2 2.17.53-.52.22.2.2-.2L32 24.12l-1.68 1.64-.21-.2-.22.2-.73-.72-2 1.96L24 23.91V20h.21Zm4.65 4.75-.65-.63.86-.84-1.91-1.87-2.56 2.5 2.56 2.5 1.7-1.66Zm1.03.7-1.36-1.33 1.36-1.34 1.37 1.34-1.37 1.33Z" fill="#9F220E"/><path d="m30 35.78-2 1.78-2-1.78L28 34l2 1.78Zm-2-1.44-1.62 1.44L28 37.22l1.62-1.44L28 34.34Z" fill="#0D0C0A"/><path d="m26.25 36-.25.22L28 38l2-1.78-.25-.22L28 37.56 26.25 36Z" fill="#0D0C0A"/></svg>