<!-- by TradingView --><svg width="56" height="56" viewBox="0 0 56 56" xmlns="http://www.w3.org/2000/svg"><path fill="#AE5626" d="M0 0h56v56H0z"/><path fill-rule="evenodd" d="M33.5 43a15.99 15.99 0 0 0 10.48-14.28c-.23.06-.48.11-.73.15a21.75 21.75 0 0 1-2.42.25l-.8.06a7.03 7.03 0 0 1-1.1 2.72c-.46.63-1.1 1.1-1.93 1.1-.85 0-1.48-.25-1.9-.65-.43-.4-.6-.91-.6-1.35 0-.8.74-2.06 2.9-2.49.58-.12 1.2-.2 1.8-.26a19.69 19.69 0 0 0 .28-4.24c-.02-.44-.03-.94-.03-1.46-.64.28-1.3.45-1.95.45-.58 0-1.07-.15-1.43-.43a1.96 1.96 0 0 1-.68-1.07 4 4 0 0 1 .14-2.16.5.5 0 1 1 .94.32c-.15.45-.24 1.1-.11 1.59.06.23.17.4.32.53.16.12.4.22.82.22.62 0 1.3-.22 1.96-.56l.04-.67c.07-.8.2-1.61.45-2.33.09-.25.19-.48.3-.7A15.99 15.99 0 0 0 13 33.6h.33c-.02-1.81.22-3.57.7-4.79.27-.66.6-1.24.98-1.7.37-.44.8-.79 1.26-.95.47-.18 1-.15 1.43.2.4.32.65.86.79 1.54.29 1.44-.3 2.96-1.15 4.14a6.48 6.48 0 0 1-2.99 2.38c.05.81.14 1.62.3 2.38 1.1 1.66 2.5 3.1 4.12 4.25l.07-.02a.9.9 0 0 0 .34-.27c.15-.16.3-.38.44-.64.29-.54.52-1.22.64-1.9.12-.67.1-1.28-.04-1.68a.86.86 0 0 0-.27-.4.7.7 0 0 0-.45-.14c-.34 0-.72.17-1.02.48-.3.3-.48.68-.48 1.02a.5.5 0 0 1-1 0c0-.66.33-1.28.77-1.73A2.5 2.5 0 0 1 19.5 35c.4 0 .77.11 1.06.34.3.23.48.53.6.86.23.64.21 1.44.08 2.2-.13.77-.4 1.55-.74 2.19a4.24 4.24 0 0 1-.8 1.07c.75.45 1.54.85 2.37 1.18l2.43-1.29v1.13l-1.14.6c.37.12.75.22 1.14.3v-.9l9-4.76V43Zm-11.4.95A17 17 0 0 0 45 28.31a4.36 4.36 0 0 0 1.67-1.28c.33-.5.33-1.02.33-1.48v-.05a2 2 0 0 0-.17-.86c-.14-.3-.37-.52-.7-.66-.3-.13-.68-.18-1.12-.18-.16 0-.33.02-.52.04a16.89 16.89 0 0 0-1.5-3.87l.08-.08c.4-.44.72-.85.88-1.17.16-.33.24-.73.23-1.1-.01-.37-.1-.78-.34-1.1a1.31 1.31 0 0 0-1.13-.56c-.46.01-.97.23-1.51.64a3 3 0 0 0-.33.29 17 17 0 0 0-29.03 16.4c-.45-.2-.8-.45-.99-.64a.5.5 0 0 0-.7.7c.36.37 1.14.92 2.14 1.15.39.95.87 1.86 1.42 2.71.2.92.48 1.78.84 2.51a4.43 4.43 0 0 0 2.06 2.17 3.3 3.3 0 0 0 1.93.24c.75.5 1.54.94 2.37 1.32l-1.14.6a.5.5 0 1 0 .46.9l1.88-1Zm11.4-6.03v-1.13l3.27-1.73a.5.5 0 1 1 .46.88l-3.73 1.98Zm0-12.42v11.29l-9 4.76v-6.4c.35 1.06.88 1.85 2 1.85 1.13 0 2-.87 2-2v-9c0-.48.2-1.1.51-1.73.23-.47.5-.9.71-1.22 1.85.25 2.78 1.44 2.78 2.45 0 .55-.26.9-.64 1.14-.4.25-.93.36-1.36.36a.5.5 0 0 0 0 1c.57 0 1.3-.14 1.89-.51a2.26 2.26 0 0 0 1.11-1.99Zm-9 0V25c0-2.4 2.67-4 4-4.5-.33-.17-1-.8-1-2s.67-1.83 1-2L29 14l.5 2.5c.33.17 1 .8 1 2s-.67 1.83-1 2c3.2 1.2 4 3.5 4 4.5v.5c0-1.7-1.51-3.2-3.81-3.46a4.83 4.83 0 0 0-4.86 2.33c-.2.37-.33.77-.33 1.13Zm0 0c0 .57.14 1.18.46 1.65.33.5.85.85 1.54.85a.5.5 0 0 0 0-1 .81.81 0 0 1-.7-.4c-.2-.28-.3-.67-.3-1.1 0-.14.06-.37.21-.65s.38-.58.69-.86a3.81 3.81 0 0 1 2.15-.97c-.15.25-.3.52-.44.81A5.27 5.27 0 0 0 27.5 26v9c0 .58-.42 1-1 1-.67 0-.83-.48-1.03-1.1l-.02-.06a.5.5 0 0 0-.95 0V25.5Zm20.53-.7-.33.02c.15.77.24 1.55.28 2.35.5-.3.73-.51.85-.7.16-.23.17-.45.17-.97 0-.22-.03-.35-.07-.43-.03-.07-.08-.13-.19-.17-.13-.06-.35-.1-.7-.1ZM44 27.67c-.02-.92-.12-1.82-.29-2.7a16 16 0 0 0-.11.02.5.5 0 0 1-.2-.98l.1-.02c-.3-1.15-.73-2.25-1.26-3.29a13.06 13.06 0 0 1-1.8 1.34c0 .65.02 1.3.04 1.86l.02 1.1c0 .73-.06 1.93-.27 3.16l.54-.04.6-.04c.63-.05 1.21-.1 1.72-.2.35-.05.66-.12.9-.21Zm-.95-9.4a4.3 4.3 0 0 1-.58.8c-.3-.49-.62-.95-.97-1.4.1-.1.2-.2.3-.27.46-.34.77-.43.94-.44.14 0 .22.05.3.14a1 1 0 0 1 .14.55c0 .23-.04.46-.13.63Zm-1.31 1.54c-.25-.41-.51-.8-.8-1.2l-.05.16a8.3 8.3 0 0 0-.39 2.04 11.05 11.05 0 0 0 1.24-1ZM17.02 40.98c-.46-.2-.9-.6-1.31-1.23.42.43.86.85 1.32 1.24h-.01Zm21.96-11.7c-.47.06-.94.12-1.38.21-1.84.37-2.1 1.32-2.1 1.51 0 .19.08.43.28.62.2.2.57.38 1.22.38.41 0 .78-.22 1.12-.69a6.06 6.06 0 0 0 .86-2.03Zm-24.65 4.08a5.83 5.83 0 0 0 2.2-1.9c.77-1.07 1.2-2.3.98-3.36-.11-.57-.3-.85-.44-.96-.11-.1-.25-.12-.46-.05-.23.09-.52.3-.83.67-.3.36-.58.84-.82 1.43-.4 1-.63 2.53-.63 4.17Z" fill="#fff"/></svg>