<!-- by TradingView --><svg width="56" height="56" viewBox="0 0 56 56" xmlns="http://www.w3.org/2000/svg"><path fill="#F0F3FA" d="M0 0h56v56H0z"/><path fill-rule="evenodd" d="M44 36.16V19.84L36.07 12H19.93L12 19.84v16.32L19.93 44h16.14L44 36.16Zm-2-1.02V20.86L35.06 14H20.94L14 20.86v14.28L20.94 42h14.12L42 35.14Z" fill="#0664A3"/><path d="M40 34.12V21.88L34.05 16h-12.1L16 21.88v12.24L21.95 40h12.1L40 34.12ZM21 24.4c-.03 1.04.36 2.07 1.35 2.5.1.04.2 0 .25-.09.54-.94 1.23-1.99 2.05-3.14C26.41 21.22 29.2 18 32.52 18c1.23 0 2.42.64 2.48 2.03.13 3.71-3.41 6.87-6.6 7.99-.85.3-1.6.52-2.23.69-.15.04-.39.19-.7.45-.25.2-.44.4-.58.61-.62.95-.9 1.96-.89 3.03.02 1.79.83 3.38 2.8 3.52 2 .15 4.28-1.6 4.2-3.67-.04-.88-.71-1.95-1.71-1.96-.91 0-1.7.7-1.7 1.62-.01.26.08.7.28 1.32.19.58-.39 1.38-1 1.37-.95-.02-1.12-1.5-1.13-2.2a3.64 3.64 0 1 1 7.26-.15c-.04 3.01-3.34 5.31-6.2 5.35a5.33 5.33 0 0 1-5.55-5.54c0-.9.22-1.82.43-2.7l.14-.6a.15.15 0 0 0-.1-.18c-1.87-.58-2.78-2.5-2.72-4.38.03-1.03.3-2 .81-2.94.18-.32.43-.68.78-.78.46-.14 1.3.06 1.12.72l-.47 1.3c-.2.53-.23 1.03-.24 1.5Zm4.55 2.15a17.53 17.53 0 0 1 2.61-4.12c.75-.88 2.28-2.4 3.63-2.43.34 0 .8.13.82.55.03.44-.38 1.06-.6 1.4l-.02.01a11.68 11.68 0 0 1-6.3 4.75c-.17.05-.21 0-.14-.16Z" fill="#0664A3"/></svg>