<!-- by TradingView --><svg width="56" height="56" viewBox="0 0 56 56" xmlns="http://www.w3.org/2000/svg"><path fill="#F0F3FA" d="M0 0h56v56H0z"/><path d="M47.26 28.5c-.52 4.9-8.68 8.81-18.76 8.94V39c11.05-.14 20-4.74 20.5-10.5h-1.74Z" fill="#0E4D9C"/><path d="M45.97 28.5c-.58 4.11-8.14 7.38-17.47 7.5v-1c8.75-.1 15.85-2.94 16.46-6.5h1ZM45.97 27.5c-.58-4.11-8.14-7.38-17.47-7.5v1c8.75.1 15.85 2.93 16.46 6.5h1Z" fill="#0E4D9C"/><path d="M47.26 27.5c-.52-4.9-8.68-8.81-18.76-8.94V17c11.05.14 20 4.74 20.5 10.5h-1.74ZM7 27.5c.5-5.76 9.45-10.36 20.5-10.5v1.56C17.42 18.7 9.26 22.6 8.74 27.5H7ZM7 28.5c.5 5.76 9.45 10.36 20.5 10.5v-1.56C17.42 37.3 9.26 33.4 8.74 28.5H7Z" fill="#0E4D9C"/><path d="M10.03 28.5c.58 4.11 8.14 7.38 17.47 7.5v-1c-8.75-.1-15.85-2.94-16.46-6.5h-1ZM11.04 27.5c.61-3.57 7.7-6.4 16.46-6.5v-1c-9.33.12-16.9 3.39-17.47 7.5h1.01ZM41 25h1.5v6H41v-6ZM39.25 26.24c-.2-.48-.57-.72-1.13-.72-.43 0-.68.25-.68.76 0 .67.62.96 1.13 1.16.74.3 1.43.82 1.43 1.67C40 30.4 38.65 31 37.51 31c-.68 0-1.24-.16-1.51-.36.12-.4.2-.69.27-1.06h.18c.12.62.71.9 1.3.9.52 0 .75-.25.75-.85 0-.68-.53-.97-1.06-1.18-.73-.3-1.44-.8-1.44-1.65 0-1.15 1.1-1.8 2.16-1.8.67 0 1.18.15 1.54.41-.12.27-.2.56-.3.83h-.15ZM32.49 28.27V31H31v-6h1.5l-.01 2.77c.65-.89 1.83-2.77 1.83-2.77h.86l-1.9 2.5 2 3.5h-1.35l-1.43-2.73h-.01ZM28.5 27.82c0-1.05-.27-2.34-1.5-2.34-1.3 0-1.5 1.56-1.5 2.6 0 1.06.15 2.4 1.44 2.4 1.37 0 1.56-1.57 1.56-2.66ZM24 28c0-1.7 1.33-3 3.02-3A2.85 2.85 0 0 1 30 28c0 1.67-1.33 3-3 3-1.8 0-3-1.2-3-3ZM21.5 28h-2v3H18v-6h1.5v2.3h2V25H23v6h-1.5v-3Z" fill="#0E4D9C"/><path d="M16.95 29.92c-.09.23-.16.48-.18.71-.44.24-1 .37-1.7.37-1.65 0-3.07-1.06-3.07-2.8 0-1.94 1.44-3.2 3.3-3.2.55 0 1.23.11 1.7.41-.11.28-.17.56-.2.86h-.1c-.43-.53-.84-.75-1.44-.75-1.33 0-1.76 1.44-1.76 2.56 0 1.19.51 2.4 1.84 2.4.53 0 1.14-.23 1.5-.63l.1.07Z" fill="#0E4D9C"/></svg>