<!-- by TradingView --><svg width="56" height="56" viewBox="0 0 56 56" xmlns="http://www.w3.org/2000/svg"><path fill="#F0F3FA" d="M0 0h56v56H0z"/><path d="M28.94 15.57C18 23.14 11.27 32.37 13.87 36.17c2.6 3.8 13.56.73 24.48-6.85A59.5 59.5 0 0 0 49 20.02c-2.66 3.83-7 8.07-12.43 11.84-10.93 7.57-22.08 10.36-24.91 6.22-2.83-4.13 3.72-13.63 14.65-21.21A59.54 59.54 0 0 1 34.66 12a67.37 67.37 0 0 0-5.72 3.57Z" fill="#73AA2F"/><circle cx="25.5" cy="21.5" r="4.5" fill="#3597AA"/><circle cx="26.5" cy="21.5" r="2.5" fill="#9BBFCA"/><circle cx="19.5" cy="30.5" r="3.5" fill="#3597AA"/><circle cx="21" cy="31" r="2" fill="#9BBFCA"/><circle cx="30.5" cy="29.5" r="4.5" fill="#3597AA"/><circle cx="31.5" cy="29.5" r="2.5" fill="#9BBFCA"/><circle cx="36.5" cy="31.5" r="2.5" fill="#3597AA"/><circle cx="37" cy="32" fill="#9BBFCA" r="1"/></svg>