<!-- by TradingView --><svg width="56" height="56" viewBox="0 0 56 56" xmlns="http://www.w3.org/2000/svg"><path fill="#CDEBF5" d="M0 0h56v56H0z"/><path d="M30 40c.07-.22 2.34-8.76 3.46-13h3.92c-.05.15-.1.29-.17.43.4-.23.95-.43 1.64-.43 1.6 0 3.15 1.1 3.15 3.5s-1.9 6.19-6.56 6.19l-.34-2.68h.9c.52 0 2.33-.32 2.33-3.09 0-1.1-.43-2.03-1.3-2.03-.2 0-.4.05-.56.16-.28.64-.57 1.42-.84 2.52-.59 2.42-1.7 6.63-2.17 8.43H30ZM34 23.2l-1.33 2.6c-.25-.18-.85-.55-1.23-.55s-.54.1-.57.15l-.61 1.6h1.94l-.52 2.2c-.1-.1-.45-.3-1.1-.3-.64 0-.9.3-.94.45L27.84 37H24l1.85-7.7h-.95l1.61-2.2c.9-3.4 3.5-4.1 4.93-4.1 1.14 0 2.18.13 2.56.2Z" fill="#E60000"/><path d="M48 14c-2.84.6-8.51 2.66-8.51 6 0 .83.33 1.5.51 1.75L39 23h1.02l.65-.79c.37.17.88.3 1.54.3 1.56 0 4.33-2.46 5.79-8.51Z" fill="#009800"/><path d="m44 24.47-.91.65C39.62 19.56 33.55 18 29.56 18 19.16 18 11 24.27 11 30.68c0 5.13 4.52 8.65 6.52 9.77l-.72.55C9.43 35.74 9 30.43 9 27.42 9 24.42 11.26 15 23.64 15c9.9 0 17.7 6.31 20.36 9.47Z" fill="#009800"/><path d="m24 27-.41 2.69c-.09-.23-.62-.69-2.06-.69-1.8 0-3.53 1.68-3.53 3.3 0 1.61.82 2.7 2.32 2.7 1.2 0 2.56-.73 3.01-1.01l-.57 1.54A7.15 7.15 0 0 1 18.43 37C15.8 37 14 34.9 14 33.18c0-4.2 4.28-6.32 6.5-6.17H24Z" fill="#E60000"/></svg>