<!-- by TradingView --><svg width="56" height="56" viewBox="0 0 56 56" xmlns="http://www.w3.org/2000/svg"><path fill="#F0F3FA" d="M0 0h56v56H0z"/><path fill-rule="evenodd" d="M28 45a17 17 0 1 0 0-34 17 17 0 0 0 0 34Zm0-2a15 15 0 1 0 0-30 15 15 0 0 0 0 30Z" fill="#ED8018"/><path fill-rule="evenodd" d="M20 20.99c.21.04.3.05.51.01v17H21v-8.35c1.89 0 3.74.3 5.15.95L27 31c.97.5 1.94.99 3 .99 1 0 1.68-.23 2.31-.45a5.11 5.11 0 0 1 1.74-.37c.76 0 1.29.23 1.78.45.44.2.84.37 1.36.37.85 0 1.26-.3 1.57-.52.1-.07.17-.13.25-.17-.81-.2-1.9-1.18-2.72-2.11a5.94 5.94 0 0 0-2.08-2.16c.56-.47 1.84-1.76 2.52-3.12.68-1.37 2.47-1.93 3.28-2.04l-.41-.16c-.94-.4-2.5-1.05-3.56-1.05-.7 0-1.1.06-1.56.14-.57.09-1.2.19-2.5.19-1.4 0-3.09-.22-4.44-.78a7.56 7.56 0 0 0-2.08-.7c-.44 0-.86.13-1.27.25-.4.11-.81.23-1.25.23a1.9 1.9 0 0 1-1-.27c-.17-.42-.75-.73-1.43-.73-.83 0-1.5.45-1.5 1.02 0 .32.17.6.51.8V38H20V20.99Zm1 8.58v-7.35l.07.09c.34.47.97 1.32.97 2.66a9.8 9.8 0 0 1-1.01 4.54l-.03.06Zm11.08-1.18c-1.95.2-6.08-.03-6.08-2.57 0-.76.9-1.82 2.8-1.82 1.27 0 2.56.82 3.28 1.48.2.18.52.2.74.04.21-.15.24-.43.06-.61-.8-.79-2.38-1.91-4.09-1.91-2.46 0-3.79 1.2-3.79 2.82 0 1.63 1.78 3.18 4.32 3.18 1.45 0 2.48-.41 2.76-.61Z" fill="#ED8018"/></svg>