<!-- by TradingView --><svg width="56" height="56" viewBox="0 0 56 56" xmlns="http://www.w3.org/2000/svg"><path fill="#F0F3FA" d="M0 0h56v56H0z"/><path d="m28 11 12.3 6.8c1.66.91 2.7 2.69 2.7 4.61V29l-15-8.29V11Z" fill="#1F98D6"/><path d="m28 11-12.3 6.8A5.27 5.27 0 0 0 13 22.4V29l15-8.29V11Z" fill="#1C3664"/><path d="m28 45-12.3-6.82a5.29 5.29 0 0 1-2.7-4.63V25s.97 2.34 2.55 3.26c4.49 2.6 12.45 7 12.45 7V45Z" fill="#5FA62F"/><path d="M34.93 31 28 35.1V45l11.75-6.93A5.25 5.25 0 0 0 42 35.28L34.93 31Z" fill="#F5B232"/></svg>