<!-- by TradingView --><svg width="56" height="56" viewBox="0 0 56 56" xmlns="http://www.w3.org/2000/svg"><path fill="#F0F3FA" d="M0 0h56v56H0z"/><path d="M17 23.08 14 22v14.72L27 45v-3.56L17 35V23.08Z" fill="#2BA9E1"/><path d="M14 19.79 28.06 11 42 19.55v16.9L28 45v-6.3a9.84 9.84 0 0 1-8-9.97c0-8.4 5.88-9.93 8-9.93v-4.06l-10.8 6.3L14 19.8ZM34 27c-.08-1.67-1.53-5.01-5.98-5.01-3.47 0-5.23 1.92-5.84 3.2-.14.28-.18.6-.18.92v1.12l7.18 5.15c.52.38.67 1.12.34 1.68l-.24.4-5.68-3.12c-.2.28-.61.99-.61 1.52 0 .67 1.26 3.13 5.37 3.13 4.12 0 5.64-3.32 5.64-5.79l-7.25-5.3a.87.87 0 0 1-.2-1.18l.29-.44L34 27.01Z" fill="#2BA9E1"/></svg>