<!-- by TradingView --><svg width="56" height="56" viewBox="0 0 56 56" xmlns="http://www.w3.org/2000/svg"><path fill="#F0F3FA" d="M0 0h56v56H0z"/><path d="M13.65 21.91c.18.05.18.08 0 .09-.45.02-.79-.23-.6-.57.2-.36.79-.66 1.29-.84 1.16-.42 2.38-.61 3.64-.59a4.83 4.83 0 0 1 1.02.14v.02l-.04.02a9.06 9.06 0 0 0-4.64.7c-.34.15-.85.46-.93.79 0 .03 0 .07.02.1.03.07.14.12.24.14ZM17.09 22.43c0-.02-.03-.05-.05-.03-.26.18-.48.41-.66.7a.39.39 0 0 0-.08.18c0 .02-.02.04-.05.04-.09 0-.17-.09-.16-.16.04-.22.12-.44.22-.65.22-.43.45-.83.69-1.19.09-.13.25-.36.47-.31.1.02.13.05.09.1-.41.47-.72.95-.93 1.43-.05.12-.03.13.06.03.18-.18.37-.35.56-.48.08-.06.15-.09.23-.07.08.01.14.1.1.17a51.76 51.76 0 0 0-.4.76c0 .05.03.05.07.02.16-.14.29-.28.4-.42.13-.2.25-.34.35-.42.18-.14.67-.46.82-.17.03.06.02.1-.02.15l-.05.06c-.15.2-.41.37-.79.54a.19.19 0 0 0-.1.12l-.03.1c-.02.06 0 .08.08.05.26-.12.5-.28.73-.47l.31-.28H19v.03c-.3.35-.63.63-1 .83a.45.45 0 0 1-.3.03l-.04-.02-.15-.17c-.01-.02-.02-.02-.04 0l-.28.24c-.13.09-.33.05-.34-.11-.02-.19.13-.43.25-.63Zm.94.13c.09.07.49-.37.55-.45a.4.4 0 0 0 .05-.07V22c-.1-.08-.55.4-.6.52v.04ZM15.37 23.82c.04 0 .05.03.03.05a.34.34 0 0 1-.25.13c-.1 0-.14-.03-.15-.11 0-.11.02-.24.07-.39a7.2 7.2 0 0 1 1.16-2.13c.12-.15.28-.2.46-.1.04.01.05.07 0 .1-.12.1-.22.16-.3.28-.46.67-.86 1.37-1.18 2.12-.03.08.12.04.16.05ZM38.53 29.85l-1.15 1.01c-.2.17-.74.63-1 .6a.99.99 0 0 1-.24-.16c-.28-.2-.34-.47-.17-.8.12-.21.22-.42.32-.62.06-.12.03-.14-.07-.05a7.61 7.61 0 0 1-2.66 1.57c-.38.11-.68.02-.92-.26-.2-.23-.1-.71.03-.92l.23-.4c.06-.1.04-.12-.06-.06-.3.2-.58.35-.91.37a.35.35 0 0 1-.23-.08c-.24-.19-.29-.43-.14-.73l.28-.5c.05-.08.03-.1-.05-.04-.4.26-.73.5-1 .73a7.2 7.2 0 0 0-1.5 1.7.59.59 0 0 0-.08.27c-.01.12-.07.14-.18.08-.39-.23-.47-.54-.25-.93.14-.26.23-.42.29-.49.02-.03-.09-.05-.11-.02-.41.44-.88.84-1.41 1.2-.27.18-.52.15-.75-.1-.14-.14-.2-.28-.14-.42.1-.33.27-.68.48-1.05.1-.16.07-.18-.08-.06-.51.44-1.01.84-1.5 1.2-.21.17-.68.57-.98.56-.39-.01-.52-.6-.48-.86 0-.06-.01-.07-.06-.03a4.5 4.5 0 0 1-1.24.85c-.1.05-.2.02-.33-.08-.28-.22-.34-.49-.2-.8.3-.64.78-1.3 1.27-1.87.12-.14.1-.16-.06-.06-.84.53-1.6 1.11-2.3 1.75l-.65.7a.66.66 0 0 0-.17.46c0 .05-.06.08-.1.06-.45-.23-.55-.57-.3-1.01.1-.18.22-.38.39-.63 0-.01-.02-.05-.04-.04-.85.74-1.14 1.03-1.84 1.45-.3.17-.54.12-.74-.15-.19-.25-.04-.43.1-.76.03-.08.01-.1-.07-.04-.34.25-.84.58-1.52 1-1.4.87-3.75 2.2-5.45 1.32-1.24-.64-.78-2.38-.22-3.36a12.12 12.12 0 0 1 6.39-5.07c.67-.25 1.93-.45 2.54-.07.65.4.54 1.1.13 1.66-.4.57-1.36 1.37-2.15 1.32-.36-.02-.41-.62-.25-.83.1-.13.2-.23.31-.3.13-.1.15-.08.07.05l-.09.16c-.03.05.02.12.08.1.6-.11 1.12-.38 1.57-.78a.99.99 0 0 0 .29-.43c.19-.6-.4-.78-.9-.77-.62.01-1.3.19-2.02.53a11.9 11.9 0 0 0-3.2 2.27c-1 .98-2.12 2.3-2.23 3.73-.07.82.32 1.24 1.15 1.27 2.04.07 4.1-1.13 5.68-2.22.2-.13.35-.28.45-.44.19-.3.99-1.72 1.48-1.52.23.1.39.24.48.43.02.05-.01.12-.07.14-.11.03-.19.05-.27.12-.17.16-.33.33-.47.53-.4.53-.73 1.05-1.01 1.57-.07.11-.04.14.08.07.34-.18.65-.39.94-.63.8-.67 1.25-1.05 1.32-1.14.4-.48.7-.94 1.17-1.27.04-.03.1-.04.16-.01.22.09.38.24.5.47.02.04-.01.1-.07.11-.13.04-.21.06-.3.16-.45.5-.83.98-1.16 1.44-.16.22-.13.24.07.06a17 17 0 0 1 2.72-2.08.85.85 0 0 1 .36-.12c.17 0 .31.27.37.39.03.07.02.16-.03.23-.47.53-.92 1.14-1.37 1.81-.12.19-.2.36-.26.53-.04.1 0 .12.08.07a6.26 6.26 0 0 0 1.47-1.1l.8-.82c.57-.49 2.02-1.42 2.83-1.08.05.02.1 0 .13-.04.45-.62.87-1.2 1.28-1.73.28-.35.57-.7.88-1.02.42-.43.84-.43 1.28 0l.01.03a.05.05 0 0 1-.01.05h-.03c-.14.04-.22.04-.31.1-.2.17-.4.37-.61.6a32.7 32.7 0 0 0-3.41 4.98c-.02.03-.01.05.03.04a.98.98 0 0 0 .39-.18c.52-.37 1-.76 1.47-1.16.55-.5.92-1.15 1.46-1.66.13-.11.26-.11.4.01l.27.24c.1.1.1.18-.03.27-.4.28-.77.67-1.1 1.17-.09.14-.07.15.05.04.64-.63 1.46-1.23 2.46-1.8a.27.27 0 0 1 .33.06l.24.3c.04.05.04.1-.02.15-.47.4-.86.84-1.17 1.33-.09.14-.05.18.1.12.35-.12.68-.3.99-.53l.79-.61c.42-.34.9-.6 1.46-.78.4-.13.74-.05 1 .26a.24.24 0 0 1 .04.25c-.08.17-.2.34-.36.5-.43.43-.97.79-1.63 1.07-.28.12-.55.2-.82.23a.16.16 0 0 0-.1.04 1.2 1.2 0 0 0-.32.66c-.01.08.02.13.11.14.54.05 1.28-.43 1.77-.75.51-.33.92-.61 1.2-.84.17-.13.31-.29.43-.48a27.58 27.58 0 0 1 2.72-3.7c.08-.08.2-.2.37-.32.35-.28.8-.13 1.06.17.09.1-.27.14-.28.15-.14.05-.35.25-.64.59a32.5 32.5 0 0 0-2.83 3.95c-.23.37-.42.72-.56 1.05-.04.09-.02.11.07.06.27-.14.54-.32.8-.54.52-.41.9-.73 1.14-.95.2-.18.37-.38.52-.63.78-1.24 1.63-2.4 2.55-3.46.16-.19.55-.58.87-.53.27.03.48.14.64.32.06.07-.54.29-.62.38a30.28 30.28 0 0 0-2.9 3.9c-.41.65-.68 1.13-.82 1.45-.04.1-.01.12.08.07.51-.3.97-.64 1.4-1.02a22.6 22.6 0 0 1 1.43-1.23c.25-.18.6-.37 1.02-.56.46-.21.91-.3 1.36-.29.2 0 .39.09.55.23.2.19.23.41.08.68-.03.04-.12.03-.09-.03.1-.2.06-.37-.1-.5-1.1-.82-3.24 1.92-3.6 2.54-.08.16-.05.2.12.1.78-.46 1.58-1 2.28-1.61l.67-.54c.11-.09.21-.07.3.03l.17.23c.08.1.07.2-.02.3a5.3 5.3 0 0 0-1.15 1.56c-.01.1.03.12.12.07.36-.2.7-.44 1-.68.46-.38.9-.77 1.32-1.15.03-.03.06-.03.08 0l.03.03v.02c-.6.65-1.24 1.25-1.91 1.8-.22.19-.62.45-.93.55-.08.02-.18 0-.29-.08-.25-.18-.33-.42-.22-.71.1-.26.2-.45.28-.58.13-.18.1-.2-.07-.06-.63.5-1.24 1-1.95 1.38-.13.06-.24.06-.33-.01-.38-.29-.46-.63-.25-1.03v-.03a.04.04 0 0 0-.03-.01h-.04c-.35.33-.69.62-1.03.87-.33.23-.53.42-.86.09-.17-.17-.29-.26-.23-.48.07-.24.14-.42.23-.55.11-.17.18-.3.2-.37.01-.04 0-.05-.04-.02Zm-13.6.9c-.01.03-.05.18.05.12.79-.48 1.54-1 2.25-1.55.25-.2.42-.38.5-.51l.38-.61c.04-.05 0-.12-.07-.11-.22.02-.55.13-.74.26-.63.42-1.24.97-1.84 1.65-.19.22-.36.47-.52.75Zm11.22-2.55c-.15-.18-1.13.62-1.24.7-.11.09-1.12.85-.97 1.02.16.18 1.14-.61 1.24-.7.11-.08 1.12-.84.97-1.02Z" fill="#2B2B2C"/><path d="M21.16 26.69c-.27.08-.54.33-.74.57a.21.21 0 0 1-.08.07c-.04.01-.07.02-.11.01a.22.22 0 0 1-.17-.12c-.12-.27.16-.7.33-.92.28-.37.74-.04.9.26 0 .04 0 .06-.03.09a.36.36 0 0 1-.1.04ZM25.57 38.62c-.05.1-.03.12.07.06.24-.13.47-.29.7-.47.42-.35.8-.69 1.15-1.03.04-.04.16.02.12.05-.55.57-1.1 1.09-1.64 1.56-.2.17-.55.47-.82.29-.28-.2-.33-.46-.14-.78.11-.2.18-.33.2-.42 0-.04 0-.05-.04-.02-.62.46-2 1.58-2.67 1.21-.28-.15-.37-.39-.26-.7.05-.15.02-.17-.1-.06-.25.23-.56.48-.92.74a.38.38 0 0 1-.43.04c-.27-.15-.36-.36-.24-.63.13-.33.34-.71.63-1.15.02-.04 0-.1-.06-.1h-.3a.15.15 0 0 0-.16.1 3.23 3.23 0 0 1-1.59 1.58c-.47.24-1.25.51-1.5-.07-.1-.24-.04-.64.08-.9.24-.46.6-.86 1.12-1.18.13-.08.12-.13-.04-.14l-.63-.03a.09.09 0 0 0-.09.04c-.62.92-1.16 1.74-1.44 2.66 0 .04 0 .06.04.08.06.03.12.03.18 0 .12-.03.14-.01.06.07-.1.1-.2.16-.3.18-.17.03-.32-.1-.3-.26 0-.18.03-.34.07-.48a8.6 8.6 0 0 1 1.05-2.26c.02-.03 0-.08-.04-.08-.5-.02-1.03 0-1.58.05a.25.25 0 0 0-.17.09c-.72.86-1.33 1.76-1.82 2.68a.94.94 0 0 0-.1.56c.01.1-.03.12-.11.08a.34.34 0 0 1-.24-.33c0-.25.08-.52.2-.8.33-.74.73-1.42 1.22-2.07.06-.07.04-.1-.06-.08-.42.08-.86.2-1.33.35-.26.09-.47.21-.72.36-.1.06-.16.04-.18-.07l-.04-.18c-.02-.1 0-.18.09-.24.32-.26.81-.38 1.24-.45.36-.06.76-.11 1.22-.16.1-.02.18-.06.24-.14.57-.76 1-1.37 1.31-1.85.18-.27.29-.51.34-.71.06-.27-.14-.41-.4-.41-.54 0-1.04.13-1.49.35-1.35.67-2.5 1.6-3.44 2.79-.06.07 0 .17.09.17h.24c.04 0 .03.06 0 .07-.29.16-.69.28-.82-.1-.12-.36.32-.91.58-1.17.94-.9 2.08-1.6 3.4-2.06.58-.2 1.7-.44 2.17-.02.2.17.26.4.18.69-.07.25-.19.5-.34.78-.3.51-.66 1.01-1.08 1.5-.01.02 0 .05.03.05.48-.04 1-.05 1.59-.04a.1.1 0 0 0 .1-.05c.58-.92 1.24-1.79 2-2.6.13-.15.57-.54.84-.52.2 0 .36.09.49.25a.05.05 0 0 1 0 .05l-.01.02-.03.02a.8.8 0 0 0-.47.22c-.76.76-1.47 1.63-2.13 2.62-.02.04 0 .08.04.09l.7.1c.13.02.28 0 .43-.05a1.9 1.9 0 0 1 1.28-.11c.06.02.04.12-.02.11a1.5 1.5 0 0 0-.98.24 4.53 4.53 0 0 0-1.64 1.88 1 1 0 0 0-.1.34c-.01.06.03.13.1.14h.06c.23-.06.43-.16.6-.32.45-.38.86-.83 1.23-1.35.03-.04.04-.1.02-.16-.08-.22-.02-.4.2-.54.12-.08.29-.04.37.08.15.25.4.37.68.3.03 0 .06-.02.07-.05l.94-1.34c.08-.12.05-.16-.1-.12-.17.06-.35.14-.55.24-.1.05-.15.16-.2.25-.03.03-.06.04-.1.02-.2-.12-.27-.27-.24-.44.07-.43 1.2-.5 1.52-.55a.34.34 0 0 0 .21-.13c.28-.36.54-.67.8-.92.26-.28.57-.29.93-.04.08.07.08.11-.02.15-.11.04-.19.05-.26.12-.21.2-.42.43-.62.68-.02.03 0 .07.03.06 1-.04 1.99 0 2.97.1l.29.08c.03.01.06 0 .09-.02.17-.18.38-.44.64-.78.34-.43.76-.74 1.29-.27-.3.11-.57.38-.84.72l-.4.53a20.86 20.86 0 0 0-2.2 3.36Zm-.94-2.38c.35-.11.5-.07.75.16.06.05.09.12.08.2a.48.48 0 0 1-.07.2 3.78 3.78 0 0 1-1.99 1.28c-.2.05-.33.12-.38.2-.08.13-.13.28-.15.43 0 .04.03.08.07.08.16.03.33 0 .5-.08.59-.28 1.2-.67 1.86-1.17.16-.12.3-.3.43-.5a23.54 23.54 0 0 1 1.22-1.82c.02-.04 0-.07-.05-.07-1.15-.08-2.3-.05-3.44.08a.24.24 0 0 0-.16.1 25.1 25.1 0 0 0-2.13 3.27c-.05.1-.03.12.08.08.54-.21 1.04-.75 1.44-1.13.49-.46.77-.73.86-.79.3-.21.66-.38 1.08-.52Zm.48.26c-.12-.14-.9.5-.99.57-.08.07-.9.68-.77.83.12.14.9-.5 1-.57.08-.07.88-.68.76-.83ZM30.53 38.3c-.03.1.03.2.11.2a4.6 4.6 0 0 0 1.86-.57c.09-.05.57-.35.29-.5-.31-.15-.77-.33-1.38-.54a2.75 2.75 0 0 1-1.1-.65c-.56-.57-.27-1.34.18-1.86a3.7 3.7 0 0 1 2.46-1.37c.25-.03.48.03.7.17.5.33.4 1.27.12 1.71a18 18 0 0 0-.78 1.35c-.09.18-.13.16-.14-.04-.01-.28.1-.65.24-.88.16-.26.32-.56.5-.9.1-.18.14-.36.15-.54.03-.37-.36-.43-.58-.4-.9.1-1.7.48-2.39 1.12-.19.17-.51.6-.38.94.39.96 1.86.95 2.55 1.57.4.36.24.92-.13 1.21-.65.5-1.34.72-2.1.67-.38-.02-.75-.51-.38-.89.1-.1.19-.15.29-.16.14-.01-.08.33-.09.37ZM37.67 36.94c-.33.4-.6.66-.77.78-.05.04-.13.04-.25.02-.22-.04-.2-.41-.13-.57.05-.14.21-.55-.02-.22-.27.39-.61.72-1.03 1a.22.22 0 0 1-.1.04c-.45.06-.2-.79-.13-.98.05-.1.03-.11-.05-.03-.35.37-.56.59-.63.64-.12.1-.24.15-.35.13a.27.27 0 0 1-.2-.23 5.16 5.16 0 0 1 .89-1.93c.08-.13.19-.14.31-.06h.01c.12.1.13.2.04.33a5.4 5.4 0 0 0-.68 1.16c-.1.24-.06.27.11.08.3-.32.5-.54.64-.66.13-.11.24-.26.33-.44.27-.58.6-1.11.97-1.61.14-.19.3-.31.48-.38a.15.15 0 0 1 .13.01l.05.05c.02.02.03.05.03.07.1.69-.65 1.48-1.08 1.9-.37.37-.59.93-.73 1.42-.03.11 0 .13.09.06.36-.28 1.12-.86 1.35-1.3.1-.22.24-.43.4-.63.1-.13.21-.14.33-.06v.01c.12.1.14.2.05.32-.3.4-.55.83-.73 1.3-.02.06 0 .07.04.04.07-.04.15-.08.2-.14a4 4 0 0 1 .56-.62c.23-.19.35-.49.51-.74.2-.28.68-.7.92-.18.03.05.1.05.12 0 .09-.14.19-.2.3-.2.1.02.16.13.12.22-.2.44-.33.77-.4.98-.19.65.51-.03.66-.27.16-.25.34-.5.54-.72.17-.2.4.12.28.3-.2.34-.41.65-.64.94l-.02.11c0 .04.03.06.06.04.44-.36.83-.75 1.17-1.17.1-.13.22-.12.34.03.1.11.07.29-.01.4l-.6.78c-.1.13-.08.16.07.08.37-.2.66-.56 1.01-.8.09-.05.2-.24.34-.56a.12.12 0 0 0 0-.1.92.92 0 0 1-.07-.46c.01-.13.07-.18.19-.18.1 0 .17.07.17.18v.27c0 .03.02.05.05.05.12 0 .25.04.4.11.04.02.08.05.1.1.03.04.04.09.04.13a1 1 0 0 1-.17.53l-.51.86c-.13.2-.1.23.09.09.24-.2.51-.47.81-.82.03-.03.1-.05.19-.07a.1.1 0 0 0 .08-.06c.13-.26.28-.5.45-.73.09-.12.2-.14.33-.05.12.11.13.22.04.33-.34.46-.59.9-.73 1.32-.02.06 0 .07.04.03.24-.2.5-.47.77-.82.05-.08.2.01.15.1-.2.36-.5.73-.88 1.09a.6.6 0 0 1-.36.18c-.12 0-.23-.1-.23-.22-.02-.2.04-.42.17-.65v-.02a.07.07 0 0 0-.03-.01h-.02c-.31.33-.57.64-.87.82-.3.18-.56-.13-.47-.46.1-.39.34-.83.71-1.33.1-.13-.14-.25-.23-.1-.24.4-.31.55-.6.76-.32.22-.56.53-.86.76-.1.07-.2.12-.3.14a.23.23 0 0 1-.26-.22l-.02-.24c0-.06-.03-.07-.07-.02-.16.2-.41.4-.76.6-.12.08-.22.07-.28 0-.12-.16-.15-.3-.07-.43.1-.2.08-.22-.08-.08-.19.17-.36.36-.42.67a6.83 6.83 0 0 1-.56 1.71c-.14.28-.32.46-.55.53-.32.1-.66-.08-.63-.48.05-.61.64-1.23 1.15-1.72.13-.13.23-.27.28-.41.05-.14.1-.37.17-.69.02-.12 0-.13-.05-.02-.23.42-.48.78-.75 1.1-.1.11-.32.14-.42 0-.18-.23-.02-.53.01-.79.01-.06 0-.06-.04-.02Zm.48.28.91-1.4v-.03c-.17-.12-.55.5-.61.59l-.02.03c-.07.1-.46.7-.3.82h.02Zm-.47 2.28.18.1h.01l.2-.36c.04-.09.61-1.11.5-1.18l-.01-.01c-.1-.06-.65.99-.7 1.08l-.18.35v.02ZM35.62 34.01c.16-.07.47.17.36.28l-.72.67c-.1.09-.3.02-.25-.1l.22-.63c.04-.1.28-.17.39-.22Z" fill="#2B2B2C"/><path d="M38.77 34.02c.1.06.31.16.2.27l-.69.66c-.1.1-.32.02-.27-.1l.2-.56c.04-.12.4-.37.56-.27ZM45.7 34c.1 0 .3.15.3.23.01.19-.56.72-.83.77-.1.01-.2-.05-.17-.13l.2-.59c.04-.1.34-.29.5-.28Z" fill="#2B2B2C"/><path d="m36.64 21.74-.01-4.98a.09.09 0 0 0-.09-.08h-2.07a.09.09 0 0 0-.09.09l.01 4.97c0 .05.04.09.09.09h2.07c.05 0 .09-.05.09-.1Zm-1.98-4.55h1.67c.02 0 .04.02.04.04v2.4c0 .02-.02.04-.04.04h-1.67a.04.04 0 0 1-.03-.04v-2.4c0-.02.01-.04.03-.04Z" fill="#2B2A2B"/><path fill-rule="evenodd" d="M34.6 14.25s.02-.01 0-.03c-.16-.2-.3-.37-.38-.5-.06-.07.06-.14.12-.1.06.06.13.1.2.06.09-.05.17-.11.24-.18a.05.05 0 0 0 .01-.05l-.04-.17c-.03-.13.2-.07.22.04.01.04.03.05.07.05h.24c.05 0 .09-.04.08-.09l-.05-.18c0-.03.01-.07.04-.08.1-.04.18-.03.23.03.02.02.02.04.02.06l-.03.21c0 .01 0 .02.02.02l.34.05.04-.12c.02-.06.07-.09.13-.08.06 0 .12.04.11.1v.03l-.04.12c-.01.02 0 .04.01.05l.33.2.04-.01a.29.29 0 0 0 .08-.1l.05-.02c.05.01.09.03.11.06.03.02.02.06 0 .08-.17.18-.32.36-.44.54-.02.02 0 .05.02.05.3-.04.6.06.6.42 0 .02.01.04.03.03.16-.08.3-.09.47.02.18.12.4.35.44.58v.23c0 .03.02.06.05.07.63.32 1.17.8 1.52 1.44.49.9.37 2.04-.07 2.94l-.24.45c-.03.05-.02.07.04.05.8-.23 1.58-.18 1.95.7.1.22.17.4.22.56.1.24.18.41.28.5a.7.7 0 0 0 .6.19c.27-.03.51-.23.52-.52 0-.34-.26-.7-.63-.5-.23.13-.24.5.05.56.13.03.23-.08.2-.22 0-.05-.01-.1 0-.14 0-.07.07-.11.13-.07.04.03.07.07.08.13.06.3-.05.47-.31.52-.19.04-.33-.03-.44-.2-.2-.32 0-.8.38-.85a.6.6 0 0 1 .58.2c.26.31.25.88-.1 1.13a.93.93 0 0 1-.97.1.98.98 0 0 1-.5-.55 12.4 12.4 0 0 1-.2-.55c-.06-.17-.11-.3-.17-.37-.16-.23-.34-.42-.6-.48a1.32 1.32 0 0 0-.69 0l-.16.08a.39.39 0 0 1-.17.04c-.02 0-.02.03-.01.03.24-.03.41-.03.53 0A1.6 1.6 0 0 1 41 22.64c-.07.41-.27.76-.61 1.04-.22.17-.47.27-.76.3-.62.06-1.1-.16-1.48-.65a.1.1 0 0 0-.08-.05H33.1a.16.16 0 0 0-.11.06 1.56 1.56 0 0 1-2.84-.85c-.03-.74.27-1.26.9-1.57.18-.09.4-.13.64-.1.02 0 .03-.01.03-.03l-.01-.02c-.43-.23-1.01-.22-1.37.13-.23.21-.34.53-.44.82-.13.38-.26.71-.63.9a.86.86 0 0 1-.53.07.86.86 0 0 1-.64-.44c-.26-.44.08-1.08.58-1.08.25 0 .54.2.57.48.04.34-.16.63-.51.58-.18-.03-.3-.13-.33-.3-.04-.17.01-.3.16-.38.03-.01.06 0 .06.04v.3c0 .06.04.1.1.12.23.04.38-.18.3-.38-.07-.17-.2-.24-.4-.22-.2.02-.34.14-.38.36-.1.51.4.81.83.68.45-.13.6-.7.72-1.09.1-.32.37-.69.7-.84.11-.06.26-.1.42-.1.35-.04.68.02 1.01.17.05.02.1-.02.06-.07-.34-.43-.6-.92-.77-1.45-.08-.27-.12-.6-.1-.96 0-.41.12-.8.34-1.15.36-.57.89-1.02 1.58-1.35.02-.01.03-.03.02-.04-.03-.27.04-.54.26-.7l.1-.07c.13-.12.28-.25.46-.14.01 0 .1.11.11.06l.06-.23c.07-.25.35-.27.55-.24Zm.6-.19a5.76 5.76 0 0 1-.14-.45c-.01-.04 0-.06.05-.07l.21-.02c.04 0 .06.02.06.06l.02.7c0 .08-.02.14-.06.2-.02.01-.04 0-.05-.02-.03-.15-.06-.29-.1-.4Zm.44.43.28-.87a.05.05 0 0 0-.04-.07l-.3-.04a.05.05 0 0 0-.05.05l.02.91c0 .05.07.07.09.02Zm-.75-.8.31.9c0 .02-.02.04-.03.02l-.62-.72v-.03l.32-.19.02.01Zm.9 1 .66-.84-.01-.02-.34-.19-.03.01-.3 1.03s0 .02.02.02Zm-1.2-.05a.22.22 0 0 0-.14 0 .08.08 0 0 0-.04.13c.07.1.19.15.33.12.02 0 .03-.01.04-.03l.1-.16a.08.08 0 0 1 .12-.01l.25.28c.01.01.1.16.03.15l-.56-.04a.67.67 0 0 1-.53-.3c-.04-.05-.04-.13-.01-.24.02-.07.07-.12.16-.14.18-.04.32.02.41.18.02.04 0 .08-.03.1-.05.03-.08-.01-.13-.04Zm1.97 0c.05.12 0 .24-.13.26-.15.01-.32.03-.32-.19 0-.05-.02-.06-.06-.03a1.2 1.2 0 0 0-.3.4c-.02.02 0 .05.02.05l.64-.05a.46.46 0 0 0 .31-.19c.14-.16.1-.4-.12-.45-.17-.04-.29 0-.35.15-.02.07.03.15.1.16l.06-.04.09-.08c.02-.01.05 0 .06.02Zm-2.87.6a.09.09 0 0 0 .06-.1l-.03-.13a.07.07 0 0 0-.1-.05c-.04.02-.08.03-.1.02-.07-.02-.07-.04 0-.06.04-.01.08-.05.13-.11a.06.06 0 0 1 .04-.03c.06 0 .12.01.16.06.04.04.05.09.05.15 0 .17-.08.28-.23.32l-.39.09c-.02 0-.03 0-.03-.02a.46.46 0 0 1 .06-.26c.04-.08.1-.01.14.03.07.07.13.12.24.08Zm3.86-.05c-.14.06-.25.06-.33 0-.1-.07-.1-.12.04-.15h.12c.11 0 .13-.03.06-.12-.06-.06-.18-.07-.36-.02a.08.08 0 0 0-.06.09l.03.2c.01.05.1.08.13.09.18.06.33.13.46.2.04.03.1 0 .1-.05.02-.12-.02-.2-.14-.24h-.05Zm.7 1.77c.16.06.56.19.52.41-.03.16-.22 1.96-.4 1.96H37.2a.03.03 0 0 1-.04-.03v-1.96c0-.37.85-.45 1.08-.38Zm-6 .4a54.92 54.92 0 0 0 .34 1.9c0 .05.03.07.08.07h1.17l.03-.02v-1.93c0-.1-.03-.14-.1-.2a1.16 1.16 0 0 0-.74-.23 1 1 0 0 0-.71.28c-.05.03-.09.07-.08.13Zm-.61 3.91v.6c0 .09-.12.12-.16.05l-.33-.5c-.04-.04-.01-.11.04-.13l.34-.1c.05-.02.1.03.1.08Zm.3.69.4-.45a.1.1 0 0 0-.05-.17l-.38-.15c-.06-.03-.13.02-.14.1v.6c0 .09.1.14.17.07Zm7.44-.69.01.6c0 .08-.11.12-.16.05l-.33-.48a.1.1 0 0 1 .04-.15l.33-.1a.1.1 0 0 1 .11.08Zm.31.67.4-.44a.1.1 0 0 0-.04-.15l-.4-.15c-.06-.03-.12.02-.12.08v.6c0 .09.1.13.16.06Zm-8.68-.43.34.5c.04.06-.02.15-.1.12l-.55-.2a.08.08 0 0 1-.04-.12l.22-.3c.04-.05.1-.05.13 0Zm7.44.44.56.18c.07.02.13-.06.1-.12l-.34-.48a.08.08 0 0 0-.11-.01l-.2.2c-.05.05-.1.2 0 .23Zm2.04.09-.61.13c-.06.02-.1-.06-.06-.1l.4-.5a.06.06 0 0 1 .1.01l.22.36c.02.04 0 .09-.05.1Zm-8.33.12.58-.11c.05-.01.07-.07.05-.11l-.2-.35a.07.07 0 0 0-.12-.01l-.38.46c-.04.05 0 .13.07.12Zm5.83.9v.01a16.8 16.8 0 0 0-1.63-.01c-.06 0-.06 0 0-.03a5.68 5.68 0 0 0 1.48-.96c.04-.04.06-.03.05.03-.05.32-.01.64.1.96Zm-4.74-.94c.02.27-.2.65-.12.9.01.02.06.03.07.03h1.4c.04 0 .05-.01.01-.04a4.46 4.46 0 0 1-1.28-.92c-.06-.07-.09-.06-.08.03Zm5.12-.05.6.23c.07.02.06.12 0 .13l-.62.17h-.02a.07.07 0 0 1-.07-.08l.02-.39c0-.04.05-.08.1-.06Zm-7.14.22-.6-.22a.07.07 0 0 0-.09.06l-.01.4c0 .05.04.09.09.07l.6-.17c.02 0 .03-.01.04-.03a.07.07 0 0 0-.03-.1Zm.96.04.6-.14c.03-.01.06.02.06.05v.4c0 .04-.05.07-.08.05l-.52-.19c-.03-.01-.06-.05-.09-.07-.03-.03-.01-.1.03-.1Zm8.38-.15-.67.16c-.01 0-.02.02-.01.04l.07.11c.07.11.47.17.59.21.02.01.04 0 .04-.02v-.47a.03.03 0 0 0-.02-.03Zm-9.24.53-.38.47c-.12.14-.3-.26-.33-.3a.08.08 0 0 1 .03-.11l.02-.01.58-.17c.07-.02.13.06.08.12Zm7.68-.12-.62.17a.07.07 0 0 0-.04.1l.21.34c.03.04.09.04.12 0l.4-.5c.04-.05 0-.13-.07-.11Zm-6.61.67-.35-.54c-.04-.04.01-.11.07-.1l.6.22c.04.01.05.07.02.1l-.24.33a.06.06 0 0 1-.1 0Zm7.39-.55.36.57c.02.03.07.03.1 0l.25-.35a.06.06 0 0 0-.03-.08l-.62-.22c-.05-.02-.1.04-.06.08Zm-8.71.54.37-.43c.07-.07.2-.02.2.08v.57c0 .08-.09.13-.16.1l-.37-.14a.12.12 0 0 1-.04-.18Zm.7-.39-.01.65c0 .04.04.08.09.07l.37-.12a.07.07 0 0 0 .04-.1l-.36-.54a.07.07 0 0 0-.13.04Zm7.75.66v-.65c0-.06.08-.09.12-.04l.37.53c.02.03 0 .08-.03.1l-.38.12c-.04.01-.08-.02-.08-.06Zm-.35-.69-.35.43a.12.12 0 0 0 .05.18l.34.13c.07.03.15-.03.15-.1l.01-.56c0-.1-.13-.16-.2-.08Zm-2.41-.8v-5.61a.03.03 0 0 0-.04-.04h-2.45a.04.04 0 0 0-.03.04v5.62c0 .02.01.03.03.03h2.45c.02 0 .04-.01.04-.03Z" fill="#2B2A2B"/></svg>