<!-- by TradingView --><svg width="56" height="56" viewBox="0 0 56 56" xmlns="http://www.w3.org/2000/svg"><path fill="#0063F7" d="M0 0h56v56H0z"/><path d="M44 29h1v3.41L48.54 29h1.38l-3.05 2.82L50 36h-1.3l-2.56-3.51L45 33.56V36h-1v-7ZM38 29h1l3 5v-5h1v7h-.96l-3.03-5v5H38v-7ZM36 29h1v7h-1v-7ZM18 29h1v6h4v1h-5v-7ZM30 29h1v6h4v1h-5v-7ZM12 29h5v1h-4v1.98h3.5V33H13v2h4v1h-5v-7ZM24 29h5v1h-4v1.98h3.5V33H25v2h4v1h-5v-7ZM41.97 20c1.98 0 3.03 1.52 3.03 3.38 0 1.84-1.02 3.62-3.04 3.62-1.97 0-2.96-1.67-2.96-3.47 0-1.8 1-3.53 2.97-3.53Zm.09 6c1.51 0 1.94-1.3 1.94-2.6s-.54-2.4-1.97-2.4C40.48 21 40 22.24 40 23.59c0 1.38.55 2.41 2.06 2.41ZM35.7 23c.8 0 1.3-.23 1.3-1.02 0-.73-.48-.98-1.2-.98H34v2h1.7ZM33 20h2.79c1.16 0 1.98.66 1.98 1.89 0 .83-.31 1.34-.85 1.67.24.11.52.26.64.44.53.48.42 1.26.44 1.82 0 .3 0 .86.32 1.02V27h-1.21c-.11-.24-.1-.53-.11-.79-.03-.6.14-1.72-.49-2.08-.15-.09-.5-.13-.84-.13H34v3h-1v-7ZM32 20v1h-2v6h-1v-6h-2v-1h5ZM11 29v1H9v6H8v-6H6v-1h5ZM22 24.66c.05 1.01.52 1.34 1.54 1.34.72 0 1.48-.04 1.48-.9 0-1.08-1.23-1.18-2.03-1.38-.92-.22-1.99-.6-1.99-1.68 0-1.29 1.23-2.04 2.45-2.04 1.3 0 2.6.63 2.6 2h-1c-.11-.89-.72-1-1.62-1-.7 0-1.43.1-1.43.89 0 .8.93.92 1.54 1.07 1.12.27 2.46.56 2.46 1.99 0 1.42-1.23 2.05-2.52 2.05-1.4 0-2.5-.88-2.48-2.34h1ZM18 20h1v7h-1v-7ZM14.15 20c1.32 0 2.65.76 2.79 2.18h-.9c-.22-.93-.95-1.18-1.88-1.18-1.59 0-2.16 1.18-2.16 2.59 0 1.38.64 2.41 2.14 2.41 1.12 0 1.75-.6 1.97-1.62H17A2.89 2.89 0 0 1 14.03 27C12.01 27 11 25.3 11 23.43c0-1.87 1.2-3.43 3.15-3.43Z" fill="#fff"/></svg>