<!-- by TradingView --><svg width="56" height="56" viewBox="0 0 56 56" xmlns="http://www.w3.org/2000/svg"><path fill="#F0F3FA" d="M0 0h56v56H0z"/><circle cx="30.5" cy="27.5" r="12.5" fill="url(#a)"/><path d="M44.8 17.6c0 .9-1.15 2.16-1.72 2.67 2.22-1.4 2.92-3.14 2.92-3.94 0-.8-.83-1.33-2.28-1.33C31.52 15 7.42 31.2 5 34c20.56-14.67 36.75-17.33 37.5-17.33.77 0 2.3-.2 2.3.93Z" fill="#617C91"/><path d="M46.8 22.46c0 .86-2.1 2.87-2.67 3.35 2.85-1.64 3.87-3.79 3.87-4.55 0-.75-.83-1.26-2.28-1.26C33.52 20 9.42 35.35 7 38c20.56-13.9 36.75-16.42 37.5-16.42.77 0 2.3-.19 2.3.88Z" fill="#617C91"/><path d="M48.8 27.46c0 .86-5.46 5.46-6.04 5.94 6.41-4.36 7.24-6.38 7.24-7.14 0-.75-.83-1.26-2.28-1.26C35.52 25 11.42 40.35 9 43c20.56-13.9 36.75-16.42 37.5-16.42.77 0 2.3-.19 2.3.88Z" fill="#617C91"/><defs><linearGradient id="a" x1="27.41" y1="15" x2="33.59" y2="40" gradientUnits="userSpaceOnUse"><stop stop-color="#1D9CC8"/><stop offset=".48" stop-color="#8ED9F9"/><stop offset="1" stop-color="#2096C2"/></linearGradient></defs></svg>