<!-- by TradingView --><svg width="56" height="56" viewBox="0 0 56 56" xmlns="http://www.w3.org/2000/svg"><path fill="#F0F3FA" d="M0 0h56v56H0z"/><path d="M37 27.46c0-5-6.67-6.4-10-6.46 2.68.83 8 3.4 8 7.08S31.69 34.9 30.02 36c2.32-1.18 6.98-4.54 6.98-8.54Z" fill="#FFBF2F"/><path d="M49 25.16c0-7.15-12.67-7.6-19-6.94 3.68 0 14 .97 14 7.55 0 5.27-7 9.68-10.57 11.23C38.62 35.23 49 30.39 49 25.16Z" fill="#F7192A"/><path d="M43 26.34c0-6.38-10.67-6.74-16-6.13 4.2.5 12 1.8 12 6.87 0 4.07-4.43 7.64-6.75 8.92C35.83 34.46 43 30.36 43 26.34Z" fill="#55B443"/><path d="M7 31.7c0-4.8 7.9-9.04 11.6-10.7-2.28 1.91-7.6 4.7-7.6 9.47 0 5.94 12.58 7.19 15 7.19-10.13 1.29-19-1.14-19-5.95Z" fill="#004897"/></svg>