<!-- by TradingView --><svg width="56" height="56" viewBox="0 0 56 56" xmlns="http://www.w3.org/2000/svg"><path fill="#F0F3FA" d="M0 0h56v56H0z"/><path d="M44.78 25H52l-.33 1.8-4.7 4.2h4.18l-.4 2H43l.37-1.99L47.82 27H44.4l.39-2ZM35.44 25h2.7l-.24 1.45a4.08 4.08 0 0 1 3-1.45c1.8 0 2.3 1.46 2 3.03L42 33h-2.91l.79-4.3c.12-.64.04-1.35-.75-1.35-1.02 0-1.38 1.07-1.53 1.9l-.7 3.75H34l1.44-8ZM31.04 22H34l-.38 2h-2.97l.39-2Zm-.56 3h2.96l-1.48 8H29l1.48-8ZM26.03 22H29l-2.03 11H24l2.03-11ZM15.08 29.02A5.1 5.1 0 0 1 20.24 25c2.39 0 4.15 1.5 3.67 3.98-.48 2.51-2.71 4.02-5.2 4.02-2.31 0-4.1-1.54-3.63-3.98Zm2.96 0C17.87 29.87 18 31 19.1 31c1.12 0 1.66-1.06 1.84-2.01.16-.84.03-1.99-1.05-1.99-1.1 0-1.68 1.06-1.86 2.01ZM11.55 28.47l2.77.87A5.86 5.86 0 0 1 8.69 33c-3.38 0-5.22-2.13-4.56-5.53.65-3.31 3.14-5.47 6.55-5.47 2.26 0 3.98.95 4.32 3.3l-3.08.65c-.12-.9-.7-1.5-1.64-1.5-1.7 0-2.5 1.54-2.78 3-.27 1.35-.32 3.08 1.48 3.08 1.32 0 2.1-.92 2.57-2.06Z" fill="#E30700"/></svg>