<!-- by TradingView --><svg width="56" height="56" viewBox="0 0 56 56" xmlns="http://www.w3.org/2000/svg"><path fill="#F0F3FA" d="M0 0h56v56H0z"/><path fill-rule="evenodd" d="M14.27 14H14v28h28V14H14.27Zm27.27 22v-2.47h-2V36h2ZM39 36v-2.47h-2V36h2Zm-2.46 0v-2.47h-2.08V36h2.08ZM34 36v-2.47h-2V36h2Zm-2.46 0v-2.47h-2.08V36h2.08ZM29 36v-2.47h-2V36h2Zm-2.46 0v-2.47h-2.08V36h2.08ZM24 36v-2.47h-2V36h2Zm-2.46 0v-2.47h-2.08V36h2.08ZM19 36v-2.47h-1.99V36H19Zm-2.54 0v-2.47h-2V36h2Zm0-3h-2v-3h2v3ZM19 33h-1.99v-3H19v3Zm2.54 0h-2.08v-3h2.08v3ZM24 33h-2v-3h2v3Zm2.54 0h-2.08v-3h2.08v3ZM29 33h-2v-3h2v3Zm2.54 0h-2.08v-3h2.08v3ZM34 33h-2v-3h2v3Zm2.54 0h-2.08v-3h2.08v3ZM39 33h-2v-3h2v3Zm2.54 0h-2v-3h2v3Zm0-3.53V27h-2v2.47h2Zm-2.54 0V27h-2v2.47h2Zm-2.46 0V27h-2.08v2.47h2.08Zm-2.54 0V27h-2v2.47h2Zm-2.46 0V27h-2.08v2.47h2.08Zm-2.54 0V27h-2v2.47h2Zm-2.46 0V27h-2.08v2.47h2.08Zm-2.54 0V27h-2v2.47h2Zm-2.46 0V27h-2.08v2.47h2.08Zm-2.54 0V27h-1.99v2.47H19Zm-2.54 0V27h-2v2.47h2Zm0-3h-2v-2.94h2v2.94Zm2.54 0h-1.99v-2.94H19v2.94Zm2.54 0h-2.08v-2.94h2.08v2.94Zm2.46 0h-2v-2.94h2v2.94Zm2.54 0h-2.08v-2.94h2.08v2.94Zm2.46 0h-2v-2.94h2v2.94Zm2.54 0h-2.08v-2.94h2.08v2.94Zm2.46 0h-2v-2.94h2v2.94Zm2.54 0h-2.08v-2.94h2.08v2.94Zm2.46 0h-2v-2.94h2v2.94Zm2.54 0h-2v-2.94h2v2.94Zm0-3.47v-2.47h-2V23h2ZM39 23v-2.47h-2V23h2Zm-2.46 0v-2.47h-2.08V23h2.08ZM34 23v-2.47h-2V23h2Zm-2.46 0v-2.47h-2.08V23h2.08ZM29 23v-2.47h-2V23h2Zm-2.46 0v-2.47h-2.08V23h2.08ZM24 23v-2.47h-2V23h2Zm-2.46 0v-2.47h-2.08V23h2.08ZM19 23v-2.47h-1.99V23H19Zm-2.54 0v-2.47h-2V23h2Zm0-3h-2v-2.47h2V20ZM19 20h-1.99v-2.47H19V20Zm2.54 0h-2.08v-2.47h2.08V20ZM24 20h-2v-2.47h2V20Zm2.54 0h-2.08v-2.47h2.08V20ZM29 20h-2v-2.47h2V20Zm2.54 0h-2.08v-2.47h2.08V20ZM34 20h-2v-2.47h2V20Zm2.54 0h-2.08v-2.47h2.08V20ZM39 20h-2v-2.47h2V20Zm2.54 0h-2v-2.47h2V20Zm0-3v-2.47h-2V17h2ZM39 17v-2.47h-2V17h2Zm-2.46 0v-2.47h-2.08V17h2.08ZM34 17v-2.47h-2V17h2Zm-2.46 0v-2.47h-2.08V17h2.08ZM29 17v-2.47h-2V17h2Zm-2.46 0v-2.47h-2.08V17h2.08ZM24 17v-2.47h-2V17h2Zm-2.46 0v-2.47h-2.08V17h2.08ZM19 17v-2.47h-1.99V17H19Zm-2.54 0v-2.47h-2V17h2ZM37 37.79V37h3v.79h-1V41h-1v-3.21h-1ZM34 39v2h1v-1.37h.35l.68 1.37H37l-.77-1.52c.41-.2.77-.6.77-1.15 0-.8-.68-1.33-1.47-1.33H34v2Zm1-.13h.33c.35 0 .67-.16.67-.54 0-.37-.32-.55-.67-.55H35v1.09ZM27 41v-4h3v.79h-2v.82h1.8v.78H28V41h-1Zm-3.77-4H22v2c0-1.16-.84-2-2-2-1.17 0-2 .84-2 2 0 1.16.83 2 2 2 1.16 0 2-.84 2-2v2h1v-2.01l.73 1.98h.54L25 39v2h1v-4h-1.23L24 39.48 23.23 37ZM21 39c0-.6-.33-1.17-1-1.17-.67 0-1 .56-1 1.17 0 .6.33 1.17 1 1.17.67 0 1-.56 1-1.17Zm11 2c1.16 0 2-.84 2-2 0-1.16-.84-2-2-2-1.17 0-2 .84-2 2 0 1.16.83 2 2 2Zm0-3.17c.67 0 1 .56 1 1.17 0 .6-.33 1.17-1 1.17-.67 0-1-.56-1-1.17 0-.6.33-1.17 1-1.17Zm-14.03.12-.74.36a.63.63 0 0 0-.62-.48c-.61 0-.61.65-.61 1.15v.06c0 .5 0 1.13.6 1.13.38 0 .6-.27.66-.59l.74.36c-.2.63-.74 1.06-1.41 1.06-1.1 0-1.59-1.03-1.59-2 0-.96.5-2 1.59-2 .62 0 1.16.35 1.38.95Z" fill="#2D2E1E"/><path d="M22.29 33.1c-.4.1-.73.17-.95.17h-.49c-.48.4-1.02.79-1.58 1.13a24.82 24.82 0 0 1-6.15 2.6l-.12-.42a24.37 24.37 0 0 0 6.03-2.54c.4-.25.77-.5 1.12-.76-1.27-.02-3.5-.13-3.5-1.84 0-1.53 1.54-3.52 3.23-3.52.99 0 3.15.2 3.15 1.56 0 1.32-.76 2.46-1.69 3.35.16 0 .44-.04.84-.15 4.76-1.21 10.37-3.9 13.48-7.68l.34.27c-3.16 3.86-8.86 6.6-13.71 7.83Zm-1.6-.26c.99-.86 1.9-2 1.9-3.36 0-1.05-2-1.13-2.71-1.13-1.45 0-2.8 1.8-2.8 3.1 0 1.58 2.55 1.4 3.6 1.39Z" fill="#2D2E1E"/><path d="M46.33 17.13 24 25.7h4.04l2.2 4.3 5.3-4.3h1.35l9.44-8.57Z" fill="#2D2E1E"/><path d="m47 16-22.33 8.56h4.05l2.2 4.3 5.3-4.3h1.35L47 16Z" fill="#F8281C"/></svg>