<!-- by TradingView --><svg width="56" height="56" viewBox="0 0 56 56" xmlns="http://www.w3.org/2000/svg"><path fill="#F0F3FA" d="M0 0h56v56H0z"/><path d="M25.16 29.43c.03.1.16.15.24.09.92-.69 1.86-1.13 2.91-.27.77.63 1.01 1.47.73 2.52-.46 1.71-2.67 2.19-4.1 1.38-1.38-.78-1.73-2.5-1.32-3.96a7.46 7.46 0 0 1 2.01-3.37c.98-.95 2.59-2.42 4.84-4.4.95-.85 1.87-2.04 1.85-3.42a4.65 4.65 0 0 0-1.17-3.01 6.2 6.2 0 0 0-6.91-1.67 8.83 8.83 0 0 0-4.2 3.28c-1.96 2.66-3.16 5.6-3.15 8.84 0 .74.06 1.49.17 2.26.95 6.84 5.68 13.35 12.83 13.3 4.59-.03 7.84-2.89 10.42-6.63a.42.42 0 0 1 .3-.18c.25-.02.38.12.39.4.01.38-.1.89-.31 1.52-2.03 5.74-7.3 10.07-13.43 9.88a11.58 11.58 0 0 1-7.31-2.88c-5.01-4.25-6.76-11.24-5.61-17.67A20.26 20.26 0 0 1 20.6 13.7c3.82-3.5 9.3-5.16 13.85-2.08 1.27.85 2.22 1.98 3.4 3.3.05.07.12.1.2.11a.3.3 0 0 0 .2-.05c.46-.33.92-.64 1.4-.94.2-.12.37-.13.52-.05.1.05.17.16.18.27a.4.4 0 0 1-.11.33c-.23.23-.48.45-.75.67a371.77 371.77 0 0 0-10 8.3 43.94 43.94 0 0 0-2.99 2.9c-.75.81-1.6 1.94-1.35 2.97Z" fill="#F42C36"/><path d="M25.71 18.68a3.4 3.4 0 0 1-3.95-.8.18.18 0 0 1 0-.24 8.1 8.1 0 0 1 2.5-1.79 8.34 8.34 0 0 1 2.97-.85c.1 0 .18.06.2.15.3 1.4-.36 2.87-1.72 3.53Z" fill="#302E2F"/></svg>