<!-- by TradingView --><svg width="56" height="56" viewBox="0 0 56 56" xmlns="http://www.w3.org/2000/svg"><path fill="#F0F3FA" d="M0 0h56v56H0z"/><path d="m46 33 3.04-9H52l-3.04 9H46ZM36.7 30.8c-.31.65-.6 1.3-.88 1.96-.94.2-1.95.36-2.9.13-.47-.1-.88-.44-.92-.97-.02-.33.06-.65.15-.96l.25-.78.78-2.18H32.1l.57-2h1.15l.46-1.45L37 24l-.58 2H38l-.55 2h-1.59c-.23.73-.48 1.27-.67 2.02-.13.47-.11.98.48.98.35 0 .69-.11 1.03-.2ZM22 33l2.07-7h2.55l-.29 1.08A3.85 3.85 0 0 1 29 26c.9 0 2.06.38 2 1.48-.03.62-.25 1.2-.42 1.78L29.52 33h-2.58s.76-2.32 1.05-3.5c.15-.63.1-1.35-.64-1.35-1.23 0-1.77 1.56-2.09 2.59-.23.74-.65 2.26-.65 2.26H22ZM18.61 26c1.41 0 3.14.54 3.35 2.05C22.42 31.04 19 33 16.44 33c-2.19 0-3.94-1.21-3.31-3.41C13.77 27.3 16.2 26 18.6 26Zm-.6 2c-1.1 0-2.03 1.02-2.01 2.14 0 .5.23.86.94.86 1.14 0 2.04-1 2.06-2.13.01-.6-.41-.87-.98-.87Z" fill="#2E318D"/><path d="M43.61 26c1.41 0 3.14.54 3.35 2.05C47.42 31.04 44 33 41.44 33c-2.19 0-3.94-1.21-3.31-3.41C38.77 27.3 41.2 26 43.6 26Zm-.6 2c-1.1 0-2.03 1.02-2.01 2.14 0 .5.23.86.94.86 1.14 0 2.04-1 2.06-2.13.01-.6-.41-.87-.98-.87ZM12.08 30.64a26.7 26.7 0 0 0-.96 2.16c-1.04.13-1.95.2-2.74.2-2.41 0-4.41-1.1-4.38-3.21.05-3.72 4.24-5.79 7.5-5.79.7 0 1.53.08 2.5.24-.17.67-.33 1.39-.47 2.06a9.76 9.76 0 0 0-2.2-.3C9.53 26 7 27.5 7 29.36 7 30.5 8.19 31 9.42 31c.9 0 1.79-.16 2.66-.36Z" fill="#2E318D"/></svg>