<!-- by TradingView --><svg width="56" height="56" viewBox="0 0 56 56" xmlns="http://www.w3.org/2000/svg"><path fill="#F0F3FA" d="M0 0h56v56H0z"/><path d="M15 15.17c0-1.2.92-2.17 2.06-2.17H41v3H18v24h23v3H17.06A2.12 2.12 0 0 1 15 40.83V15.17Z" fill="url(#a)"/><path d="M41 18v3H23v14h18v3H21.82c-1 0-1.82-.84-1.82-1.87V19.87c0-1.03.81-1.87 1.82-1.87H41Z" fill="url(#b)"/><path d="M25 24.81c0-1 .84-1.81 1.87-1.81H41v3H28v4h13v3H26.87A1.84 1.84 0 0 1 25 31.19V24.8Z" fill="url(#c)"/><path d="M13.82 40.55c6.16 0 24.02-3.35 32.18-5.03-17.53 5.29-31.5 6.44-32.64 6.44h-2.38v-2.64c0 .76 1.42 1.23 2.84 1.23Z" fill="url(#d)"/><path d="m33.33 25.94-7.9 4.85.5-1.71c-5.25 2.46-14.91 7.62-14.91 10.2v2.68c-1-.1-3.02-.66-3.02-2.02 0-1.67 2.94-6.4 17.07-11.36l-1.74-.54 10-2.1Z" fill="url(#e)"/><defs><linearGradient id="a" x1="28" y1="13" x2="28" y2="43" gradientUnits="userSpaceOnUse"><stop stop-color="#272767"/><stop offset=".5" stop-color="#169FFD"/><stop offset="1" stop-color="#242464"/></linearGradient><linearGradient id="b" x1="30.5" y1="18" x2="30.5" y2="38" gradientUnits="userSpaceOnUse"><stop stop-color="#272767"/><stop offset=".5" stop-color="#169FFD"/><stop offset="1" stop-color="#242464"/></linearGradient><linearGradient id="c" x1="33" y1="23" x2="33" y2="33" gradientUnits="userSpaceOnUse"><stop stop-color="#272767"/><stop offset=".5" stop-color="#169FFD"/><stop offset="1" stop-color="#242464"/></linearGradient><linearGradient id="d" x1="10.52" y1="40.81" x2="46" y2="38.82" gradientUnits="userSpaceOnUse"><stop stop-color="#086938"/><stop offset=".61" stop-color="#5EAB29"/><stop offset="1" stop-color="#286931"/></linearGradient><linearGradient id="e" x1="32.23" y1="26.41" x2="7.8" y2="39.08" gradientUnits="userSpaceOnUse"><stop stop-color="#5B9D3D"/><stop offset=".34" stop-color="#89CB36"/><stop offset="1" stop-color="#036637"/></linearGradient></defs></svg>