<!-- by TradingView --><svg width="56" height="56" viewBox="0 0 56 56" xmlns="http://www.w3.org/2000/svg"><path fill="#F0F3FA" d="M0 0h56v56H0z"/><path fill-rule="evenodd" d="M28 45a17 17 0 1 0 0-34 17 17 0 0 0 0 34Zm0-2a15 15 0 1 0 0-30 15 15 0 0 0 0 30Z" fill="#D82B15"/><circle cx="28" cy="28" r="3" fill="#3D2B9B"/><path d="M27.24 22.31a4 4 0 1 0-2.07.69l.72 2.06a3.6 3.6 0 0 1 2.08-.68l-.73-2.07ZM37 34a4 4 0 1 0-3.44-6.05l-1.98-.46a3.64 3.64 0 0 1-.36 2.16l1.78.42A4 4 0 0 0 37 34Zm-11 1a4 4 0 1 1-2.47-3.7l1.31-1.53c.37.65.93 1.17 1.6 1.5l-1.2 1.4c.48.65.76 1.46.76 2.33Z" fill="#3D2B9B"/><path d="M25.01 24a5 5 0 0 0-1.35 6.48l.7-.83a3.99 3.99 0 0 1 1-4.66l-.35-1Zm1.6 7.75-.68.8a4.98 4.98 0 0 0 6.5-2.22l-1.02-.24a4 4 0 0 1-4.8 1.66ZM28 23a5 5 0 0 1 4.97 4.42l-1.06-.25a4 4 0 0 0-3.56-3.16L27.99 23H28Z" fill="#D82B15"/></svg>