<!-- by TradingView --><svg width="56" height="56" viewBox="0 0 56 56" xmlns="http://www.w3.org/2000/svg"><path fill="#F0F3FA" d="M0 0h56v56H0z"/><path fill-rule="evenodd" d="M18 33a5 5 0 1 0 0-10 5 5 0 0 0 0 10Zm2.12-2.88c.49-.48.8-1.14.87-1.86H15a3 3 0 0 0 .97 1.95 2.42 2.42 0 0 1 4.14-.09Zm-3.76.4a2.99 2.99 0 0 0 3.4-.09 1.94 1.94 0 0 0-3.4.08Zm-.42-4.7a3 3 0 0 0-.93 1.92H21a3 3 0 0 0-.9-1.9 2.42 2.42 0 0 1-4.15-.02Zm3.77-.29a2.99 2.99 0 0 0-3.4-.01 1.94 1.94 0 0 0 3.4.01ZM47 33a5 5 0 1 0 0-10 5 5 0 0 0 0 10Zm2.12-2.88c.49-.48.8-1.14.87-1.86H44a3 3 0 0 0 .97 1.95 2.42 2.42 0 0 1 4.14-.09Zm-3.76.4a2.99 2.99 0 0 0 3.4-.09 1.94 1.94 0 0 0-3.4.08Zm-.42-4.7a3 3 0 0 0-.93 1.92H50a3 3 0 0 0-.9-1.9 2.42 2.42 0 0 1-4.15-.02Zm3.77-.29a2.99 2.99 0 0 0-3.4-.01 1.94 1.94 0 0 0 3.4.01Z" fill="#E30000"/><path d="M9 23a5 5 0 0 0 0 10h3v-2H9a3 3 0 1 1 0-6h3v-2H9ZM38 23a5 5 0 0 0 0 10h3v-2h-3a3 3 0 1 1 0-6h3v-2h-3ZM24 26c0-1.7 1.41-3 3.15-3H32v2h-5.2c-.44 0-.8.57-.8 1 0 .43.36 1 .8 1h2.05A3.18 3.18 0 0 1 32 30.15c0 1.7-1.41 2.85-3.15 2.85H24v-2h5.2c.44 0 .8-.57.8-1 0-.43-.36-1-.8-1h-2.05A3.05 3.05 0 0 1 24 26Z" fill="#E30000"/></svg>