<!-- by TradingView --><svg width="56" height="56" viewBox="0 0 56 56" xmlns="http://www.w3.org/2000/svg"><path fill="#F0F3FA" d="M0 0h56v56H0z"/><path d="m51.85 25-2.05 2.9L52 31h-1.61L49 29.04 47.61 31H46l2.2-3.1-2.05-2.9h1.6L49 26.75 50.24 25h1.6ZM45 26.5h-2.5v.8H45v1.5h-2.5v.7H45V31h-4v-6h4v1.5ZM39.5 25v1.5h-2V31H36v-4.5h-2V25h5.5ZM28 25l-2.42 6h-1.15L22 25h1.5l1.5 3.5 1.5-3.5H28ZM18 29.72 17.5 31H16l2.37-6h1.25L22 31h-1.5l-.5-1.28h-2Zm1-2.97-.54 1.75h1.13L19 26.75ZM30 29.72 29.5 31H28l2.37-6h1.25L34 31h-1.5l-.5-1.28h-2Zm1-2.97-.54 1.75h1.13L31 26.75ZM15 31h-1.71l-1.17-1.68h-.62V31H10v-6h2.34c1.29 0 2.66.7 2.66 2.13a2.3 2.3 0 0 1-1.37 2.03L15 31Zm-3.5-3h.8c.57 0 1.2-.2 1.2-.87 0-.54-.4-.81-1.2-.81h-.8V28ZM6.93 31A2.99 2.99 0 0 1 4 28c0-1.6 1.3-3 2.93-3 .77 0 1.52.3 2.07.87l-.87 1.14a1.62 1.62 0 0 0-1.2-.51c-.94 0-1.43.57-1.43 1.5s.49 1.5 1.43 1.5c.47 0 .89-.18 1.2-.51L9 30.12c-.55.57-1.3.88-2.07.88Z"/></svg>