<!-- by TradingView --><svg width="56" height="56" viewBox="0 0 56 56" xmlns="http://www.w3.org/2000/svg"><path fill="#F0F3FA" d="M0 0h56v56H0z"/><path fill="#191F29" d="M4 25h48v9H4z"/><path d="M28 25c-2.2 0-4-1.6-4-3.57 1.13 0 2.15.42 2.88 1.1 0-.92.37-1.83 1.12-2.53a3.4 3.4 0 0 1 1.12 2.52 4.23 4.23 0 0 1 2.88-1.1C32 23.4 30.2 25 28 25Z" fill="url(#a)"/><path d="M10.29 27.7c.25.12.49.3.71.55v-.74c-.25-.17-.5-.3-.75-.38a2.5 2.5 0 0 0-1.73.05A2.42 2.42 0 0 0 7 29.52a2.45 2.45 0 0 0 3.25 2.35c.27-.09.52-.22.75-.39v-.75c-.21.25-.44.44-.7.56-.25.13-.53.19-.83.19a1.86 1.86 0 0 1-1.81-1.36 2.22 2.22 0 0 1 .05-1.38 1.9 1.9 0 0 1 1.74-1.21c.3 0 .58.06.84.18Zm7.94 3.62a1.85 1.85 0 0 1-1.46 0 2 2 0 0 1-1.05-1.07 2.02 2.02 0 0 1 .42-2.15 1.83 1.83 0 0 1 1.36-.57 1.86 1.86 0 0 1 1.36.57 2 2 0 0 1-.63 3.22Zm1.58-.86a2.53 2.53 0 0 0-.54-2.74A2.47 2.47 0 0 0 17.5 27a2.5 2.5 0 1 0 .96 4.81 2.52 2.52 0 0 0 1.35-1.35ZM21 32v-5h.57v5H21Zm4.76-2.24c-.16-.22-.39-.4-.7-.53l-.69-.3c-.22-.1-.38-.2-.48-.33a.66.66 0 0 1-.16-.43c0-.2.07-.37.2-.5.14-.13.32-.2.53-.2.17 0 .32.05.45.14.13.09.25.22.36.4l.47-.3a1.23 1.23 0 0 0-.5-.53c-.2-.12-.45-.18-.74-.18-.4 0-.71.11-.97.33-.25.22-.38.5-.38.84 0 .3.08.54.24.75.15.2.4.38.7.51l.6.25c.24.1.43.24.55.4.12.16.18.34.18.55 0 .27-.08.48-.26.64a.98.98 0 0 1-.7.25.86.86 0 0 1-.6-.22 1.3 1.3 0 0 1-.34-.66l-.52.25c.09.36.26.63.52.82.25.2.57.29.95.29.46 0 .83-.13 1.1-.4.29-.27.43-.62.43-1.06 0-.3-.08-.56-.24-.78Zm3.3-.53c.31.14.54.31.7.53.16.22.24.48.24.78 0 .44-.14.8-.42 1.06-.28.27-.65.4-1.11.4-.38 0-.7-.1-.95-.29-.26-.19-.43-.46-.52-.82l.52-.25c.07.29.18.5.34.66.16.14.36.22.6.22.3 0 .52-.08.7-.25a.84.84 0 0 0 .26-.64c0-.21-.06-.4-.18-.55-.12-.16-.31-.3-.56-.4l-.58-.25c-.32-.13-.56-.3-.71-.5-.16-.22-.24-.47-.24-.76 0-.34.13-.62.38-.84.26-.22.58-.33.97-.33.29 0 .54.06.75.18.2.12.37.3.5.54l-.48.3a1.2 1.2 0 0 0-.36-.41.78.78 0 0 0-.45-.14.73.73 0 0 0-.53.2c-.13.13-.2.3-.2.5 0 .16.05.31.16.43.1.13.26.24.48.33l.69.3Zm2.56.8.88-1.77.87 1.78h-1.75ZM35 32l-2.5-5-2.5 5h.71l.71-1.48h2.16l.7 1.48H35Zm11-5v5h3v-.55h-2.32v-1.92H49v-.55h-2.32v-1.44H49V27h-3Zm-1.71.7c.25.12.49.3.71.55v-.74c-.25-.17-.5-.3-.75-.38a2.5 2.5 0 0 0-1.73.05A2.42 2.42 0 0 0 41 29.52a2.45 2.45 0 0 0 3.25 2.35c.27-.09.52-.22.75-.39v-.75c-.21.25-.44.44-.7.56-.25.13-.53.19-.83.19a1.86 1.86 0 0 1-1.81-1.36 2.22 2.22 0 0 1-.08-.61 1.9 1.9 0 0 1 1.87-1.98c.3 0 .58.06.84.18ZM36 32v-5l3.46 3.7V27H40v5l-3.46-3.66V32H36Zm-24 0v-5h1.09c.3 0 .53.02.68.06.14.03.27.1.38.19.13.12.24.27.32.47.07.2.11.4.11.64 0 .41-.1.72-.32.94-.21.21-.52.32-.93.32h-.1L15 32h-.7l-1.68-2.38h-.08V32H12Zm.54-4.5v1.68h.42c.43 0 .71-.06.86-.18.14-.12.22-.33.22-.63 0-.32-.08-.55-.23-.67-.15-.13-.43-.2-.85-.2h-.42Z" fill="url(#b)"/><defs><linearGradient id="a" x1="23.76" y1="21.79" x2="30.89" y2="25.63" gradientUnits="userSpaceOnUse"><stop stop-color="#9D6A25"/><stop offset=".05" stop-color="#AC8247"/><stop offset=".19" stop-color="#F4EEE2"/><stop offset=".39" stop-color="#AF8C26"/><stop offset=".71" stop-color="#F7EBC7"/><stop offset=".78" stop-color="#BD9E1E"/></linearGradient><linearGradient id="b" x1="7.67" y1="26.93" x2="47.4" y2="36.73" gradientUnits="userSpaceOnUse"><stop stop-color="#D09620"/><stop offset=".14" stop-color="#A0691B"/><stop offset=".34" stop-color="#F1EBD6"/><stop offset=".54" stop-color="#AB871C"/><stop offset=".77" stop-color="#F5E8C2"/><stop offset=".87" stop-color="#AD9221"/><stop offset="1" stop-color="#95641B"/></linearGradient></defs></svg>