<!-- by TradingView --><svg width="56" height="56" viewBox="0 0 56 56" xmlns="http://www.w3.org/2000/svg"><path fill="#F0F3FA" d="M0 0h56v56H0z"/><path fill-rule="evenodd" d="M37.84 23.63c-.04 0-.06.02-.06.05v1.11c0 .27.1.45.32.52.14.05.35.05.62 0 .05 0 .07.02.07.07v1.55c0 .04-.01.05-.04.06h-.92a2.17 2.17 0 0 1-1.06-.31c-.32-.2-.55-.5-.66-.9-.07-.22-.1-.67-.1-1.35v-.48L36 23.7c0-.03 0-.05-.04-.05h-.6c-.04 0-.07-.03-.07-.08v-1.49c0-.04.02-.06.06-.06.16 0 .25-.01.4-.03.11-.02.19-.06.22-.14a.85.85 0 0 0 .03-.28v-1.52c0-.03.03-.04.05-.04h1.7c.03 0 .04.02.04.05v1.89c0 .03.02.05.05.05l.89.01c.04 0 .06.01.06.05v1.5c0 .05-.03.08-.08.08h-.87Zm-29-.13c0 .31.06.6.16.85.21.55.59.85 1.12.92a1.26 1.26 0 0 0 1.32-.77c.02-.05.05-.07.1-.07h1.9c.02 0 .03 0 .05.03v.06a3.19 3.19 0 0 1-1.87 2.25 3.3 3.3 0 0 1-1.37.23 3.11 3.11 0 0 1-2.62-1.36A3.58 3.58 0 0 1 7 23.5c0-.84.2-1.55.62-2.14.64-.9 1.51-1.35 2.62-1.37.54 0 1 .07 1.37.23.97.42 1.6 1.17 1.88 2.24v.06a.06.06 0 0 1-.06.03h-1.9c-.04 0-.07-.01-.1-.06a1.26 1.26 0 0 0-1.31-.77c-.54.07-.91.38-1.12.93-.1.25-.15.53-.15.84Zm23.26.38c-.29-.09-.4-.22-.36-.39.05-.17.16-.27.32-.3.16-.02.3.02.45.13.05.03.1.11.17.23l.04.07c.02.05.07.07.12.07h1.52c.03 0 .05-.01.04-.05a1.66 1.66 0 0 0-1.18-1.48 3.87 3.87 0 0 0-1.86-.07c-.33.07-.61.2-.83.4-.25.22-.4.5-.44.82-.13.84.32 1.38 1.35 1.6l.8.19c.16.04.29.1.37.18.11.11.14.23.1.35-.04.13-.15.2-.3.21-.38.02-.61-.11-.71-.41-.02-.06-.06-.08-.12-.08h-1.56c-.01 0-.02 0-.02.02a1.6 1.6 0 0 0 .7 1.19c.22.15.46.26.71.33.55.13 1.11.15 1.68.04.24-.04.45-.1.62-.2.45-.23.7-.58.74-1.05.07-.67-.23-1.15-.91-1.43-.18-.07-.3-.12-.37-.13l-1.07-.24Zm-16.34-.83c0 .05.01.05.04.01.18-.32.38-.57.6-.73.24-.19.53-.3.88-.33.06 0 .08.02.08.08v1.73c0 .05-.02.08-.07.07-.34-.03-.67 0-1 .07-.24.06-.4.22-.48.49-.05.17-.07.45-.06.85v1.64c0 .04-.03.06-.07.06l-1.63.01c-.02 0-.03-.01-.03-.03L14 22.12c0-.04.02-.05.06-.05l1.63-.01c.04 0 .07.02.07.07v.92Zm31.12-.08c-.04.06-.05.05-.05-.01v-.87c0-.04-.02-.09-.06-.09h-1.72c-.03 0-.05.05-.05.08v4.88c0 .03.01.04.04.04h1.72c.04 0 .06-.02.06-.06.01-.62.02-1.25.01-1.9a2 2 0 0 1 .07-.66c.1-.26.3-.41.58-.46.32-.05.62-.07.92-.05.07 0 .1-.02.1-.08v-1.73c0-.04-.02-.06-.07-.06-.35 0-.65.1-.91.28-.22.15-.43.38-.64.7Zm-5.67 1.91c-.01-.06.01-.1.08-.1h3.16c.03 0 .04-.01.05-.05a2.74 2.74 0 0 0-.47-1.75 2.22 2.22 0 0 0-1.51-.93 2.66 2.66 0 0 0-1.93.32c-.56.36-.9.9-1.04 1.63-.1.58-.04 1.13.21 1.65.4.84 1.09 1.28 2.07 1.34a3 3 0 0 0 .76-.04 2.2 2.2 0 0 0 1.4-.87c.15-.2.28-.45.4-.75v-.04a.04.04 0 0 0-.04-.02H42.7a.1.1 0 0 0-.08.04.67.67 0 0 1-.63.35c-.23-.01-.4-.08-.52-.22-.13-.14-.2-.33-.25-.56Zm.07-.86.01.01h1.42v-.01c0-.2-.06-.37-.2-.5a.69.69 0 0 0-.5-.22.7.7 0 0 0-.51.2.69.69 0 0 0-.22.51v.01Zm-23.27.33c.02-.5.16-.93.4-1.3.5-.76 1.25-1.1 2.23-1.04.98.06 1.68.5 2.1 1.3.2.4.28.85.25 1.34-.02.5-.16.93-.4 1.3-.5.75-1.25 1.1-2.23 1.04a2.33 2.33 0 0 1-2.1-1.3c-.2-.4-.28-.85-.25-1.34Zm1.65.14c-.01.58.36 1.05.82 1.06.46 0 .84-.45.85-1.03 0-.57-.36-1.05-.82-1.06-.46 0-.84.46-.85 1.03Zm6.1 4.4-.02-2.48c0-.13.03-.14.1-.04.15.2.33.36.55.48.22.12.47.18.73.2.46.03.87-.06 1.21-.26.34-.2.6-.51.8-.92.24-.5.34-1.04.29-1.62a2.6 2.6 0 0 0-.6-1.52c-.44-.52-1-.76-1.69-.73-.27.02-.53.1-.76.25-.18.11-.37.29-.58.53-.03.03-.04.02-.04-.02v-.62c0-.05-.03-.14-.09-.14h-1.62c-.03 0-.04.07-.04.1v6.83c0 .03.01.07.04.07h1.65c.05 0 .08-.06.08-.11Zm.9-3.32c-.52 0-.94-.47-.94-1.05 0-.57.44-1.03.96-1.03.53 0 .95.47.95 1.05 0 .57-.44 1.03-.96 1.03ZM21.24 29a252.92 252.92 0 0 0-1.8 0c-.07 0-.11.03-.13.1L17 35.95c0 .03 0 .05.04.05h1.78c.06 0 .1-.03.12-.1l.25-.9c.01-.04.04-.07.1-.07a44 44 0 0 1 2.08 0c.05 0 .08.03.1.08l.25.9c.02.06.06.09.12.09h1.78c.03 0 .04-.02.03-.05l-2.3-6.85c-.01-.07-.06-.1-.12-.1Zm-.93 2.25-.6 2.05c0 .04 0 .05.04.05h1.18c.04 0 .05-.01.04-.05l-.6-2.05c0-.02-.01-.03-.03-.03-.02 0-.03.01-.03.03Zm11.47.8c0 .05.01.05.04.01.19-.33.39-.57.6-.73.25-.2.55-.3.9-.33.05 0 .08.02.08.08v1.74c0 .05-.03.07-.08.07a3.09 3.09 0 0 0-1.01.06c-.24.06-.4.22-.49.49-.05.17-.07.45-.06.85v1.65c-.01.04-.03.06-.07.06h-1.65c-.02 0-.03-.01-.03-.03V31.1c0-.04.02-.11.06-.11h1.64c.05 0 .07.08.07.12v.93Zm4.87-1.04c.98.06 1.68.5 2.1 1.3.2.4.28.85.25 1.34-.02.5-.16.92-.4 1.3-.5.75-1.25 1.1-2.23 1.04a2.33 2.33 0 0 1-2.1-1.3c-.2-.4-.28-.85-.25-1.34.02-.5.16-.92.4-1.3.5-.75 1.25-1.1 2.23-1.04Zm-.99 2.48c0 .58.36 1.05.82 1.06.46.01.85-.45.86-1.03 0-.57-.36-1.05-.82-1.06-.46 0-.84.45-.86 1.03Zm-7.95-1.7c0 .03 0 .03-.03 0l-.34-.34c-.3-.3-.7-.45-1.19-.45-.7 0-1.25.32-1.67.93a2.83 2.83 0 0 0-.02 3.1 2.07 2.07 0 0 0 2.86.64c.13-.1.24-.22.34-.38.06-.11.1-.1.1.03l-.01.93c-.02.28-.07.68-.16.82-.2.35-.55.45-1.08.32l-.09-.02c-.2-.04-.34-.08-.43-.3-.02-.03-.04-.07-.09-.07h-1.66c-.03 0-.04.03-.04.06.05.73.39 1.13 1 1.5.49.3 1.06.45 1.7.44.58 0 1.15-.15 1.62-.5.4-.28.68-.66.83-1.14.1-.31.15-.78.15-1.04v-5.18c0-.05-.02-.14-.08-.14h-1.65c-.04 0-.06.08-.06.11v.68Zm-1.05 2.87c-.53-.07-.9-.59-.83-1.17.07-.58.56-1 1.1-.93.53.07.9.6.83 1.17-.07.58-.57 1-1.1.93Z" fill="#FE363D"/></svg>