<!-- by TradingView --><svg width="56" height="56" viewBox="0 0 56 56" xmlns="http://www.w3.org/2000/svg"><path fill="#F0F3FA" d="M0 0h56v56H0z"/><path d="m42.57 29.63-.62.37a.25.25 0 0 1-.13-.2v-.06l.01-.1.02-.11.19-.75a6.3 6.3 0 0 0 .05-.34l-.02-.09a.05.05 0 0 0-.05-.03c-.37 0-.65.99-.7 1.26l-.06.42h-.42l.46-2.58a1.38 1.38 0 0 0 .01-.1l-.01-.1a.05.05 0 0 0-.03-.03.14.14 0 0 0-.06 0H41.04l.02-.12.73-.07-.33 1.76c.24-.32.47-.76.9-.76.07 0 .11.02.14.06.03.04.04.1.04.17l-.03.25-.04.15-.18.8-.01.07-.01.06c0 .02 0 .05.02.06l.02.01c.02 0 .04 0 .07-.02l.08-.05.09-.05.02.12ZM39.34 27.93l-.01.1-.1.1h-.36l-.2 1.13a2.86 2.86 0 0 0-.02.24c0 .07 0 .12.04.16l.05.04a.18.18 0 0 0 .12.01l.04-.01.18-.08.03.13-.51.21a.4.4 0 0 1-.14.03.23.23 0 0 1-.14-.05.23.23 0 0 1-.08-.12.62.62 0 0 1-.02-.17 1.16 1.16 0 0 1 .02-.27l.2-1.25h-.26l.02-.2h.28l.07-.37a.84.84 0 0 0 .33-.23H39l-.1.6h.44ZM47 29.64l-.61.35a1.43 1.43 0 0 0-.07-.04.2.2 0 0 1-.07-.15v-.04l.05-.28.2-.88v-.06c.02-.05.03-.13 0-.18-.01-.02-.03-.03-.06-.03-.08 0-.2.1-.33.32-.15.23-.25.47-.3.72l-.14.62h-.4l.27-1.3c.02-.1.07-.25.03-.34-.01-.02-.03-.03-.06-.03-.1 0-.24.13-.4.4-.16.26-.27.54-.31.81l-.08.46h-.4l.26-1.52c.02-.07.01-.1-.01-.13a.08.08 0 0 0-.06-.03c-.03 0-.07.01-.1.03l-.1.04-.02-.1.72-.27c.02 0 .04.02.05.05v.13l-.12.6.2-.3c.06-.1.15-.18.26-.28.16-.14.29-.2.39-.2.13 0 .21.08.21.25 0 .05 0 .1-.02.17l-.1.39.16-.24c.07-.12.16-.23.28-.33.17-.16.32-.24.47-.24.06 0 .1.02.13.06.03.05.04.1.04.18 0 .08-.02.19-.05.32l-.04.19-.13.6c-.01.05-.09.25-.02.28a.2.2 0 0 0 .03 0c.03 0 .05 0 .08-.03l.13-.07.04.1ZM44.13 28.32c0 .21-.08.38-.24.5a.85.85 0 0 1-.52.15l-.16-.01-.02.1v.2c0 .13.01.25.05.33.04.1.11.14.2.14.06 0 .12-.02.18-.05l.1-.07.2-.13.06.1-.39.27c-.08.06-.14.1-.18.11a.5.5 0 0 1-.2.04.38.38 0 0 1-.36-.2 1.44 1.44 0 0 1 .24-1.41c.21-.26.44-.38.7-.38.1 0 .2.02.25.08.06.05.1.13.1.23Zm-.3 0-.02-.1c-.02-.04-.05-.06-.09-.06-.1 0-.2.07-.3.23-.1.14-.15.27-.18.39v.07l.1.02h.05c.12 0 .22-.05.3-.15.09-.1.13-.24.13-.4ZM40.73 28.1l-.05.28-.12.05-.06-.1a.33.33 0 0 0-.07-.11c-.03-.03-.07-.04-.13-.04-.14 0-.27.11-.38.34-.1.23-.16.47-.16.72 0 .15.03.27.07.36.04.08.1.12.19.12.04 0 .08 0 .12-.02l.17-.1.18-.13.05.12-.45.32a.44.44 0 0 1-.15.07.46.46 0 0 1-.13.02.4.4 0 0 1-.36-.21.9.9 0 0 1-.11-.46c0-.35.11-.67.33-.93.22-.26.47-.4.74-.4a.57.57 0 0 1 .32.1ZM37.92 28.1l-.06.37h-.09l-.02-.11a.33.33 0 0 0-.08-.17.19.19 0 0 0-.14-.06.21.21 0 0 0-.16.06.3.3 0 0 0-.08.23c0 .09.04.18.13.29l.25.29c.1.13.14.27.14.42 0 .2-.08.34-.23.45a.77.77 0 0 1-.45.13c-.08 0-.15 0-.2-.02a.57.57 0 0 1-.19-.07l-.08-.04.06-.44h.1v.11c.02.1.05.17.1.22.05.08.12.12.22.12.07 0 .13-.04.2-.1a.35.35 0 0 0 .08-.24c0-.1-.04-.22-.13-.34l-.24-.3a.65.65 0 0 1-.12-.38c0-.15.06-.28.18-.38a.6.6 0 0 1 .4-.14.9.9 0 0 1 .4.1ZM36.68 28.32c0 .21-.08.38-.24.5a.85.85 0 0 1-.52.15l-.16-.01-.02.1v.2c0 .13.01.25.05.33.04.1.11.14.2.14.07 0 .12-.02.18-.05l.1-.07.2-.13.06.1-.39.27c-.08.06-.14.1-.18.11a.5.5 0 0 1-.2.04.38.38 0 0 1-.36-.2 1.44 1.44 0 0 1 .24-1.41c.21-.26.44-.39.7-.39.1 0 .2.03.26.09.05.05.08.13.08.23Zm-.3 0-.02-.1c-.01-.04-.04-.06-.09-.06-.1 0-.2.07-.3.23-.1.14-.15.27-.17.39l-.02.07.1.02h.06c.12 0 .22-.05.3-.15.09-.1.13-.24.13-.4ZM35.33 28l-.07.43-.11.09a.53.53 0 0 0-.04-.03.17.17 0 0 0-.08-.03c-.09 0-.17.08-.25.23-.07.13-.13.3-.19.53-.04.16-.08.39-.11.6l-.03.18h-.42l.26-1.45a1.2 1.2 0 0 0 .02-.15l-.01-.04a.07.07 0 0 0-.06-.03.3.3 0 0 0-.06 0l-.16.05-.02-.1.72-.28.02.02a.1.1 0 0 1 .04.07l-.01.09-.03.14-.1.44.06-.1c.1-.2.18-.34.24-.42.1-.13.19-.2.27-.22l.05-.01.07-.01Z" fill="#E84B4E"/><path d="M41.1 20.04c2.53.1 5.02.43 7.42 1.24.49.16 1.28.52 1.44 1.06.56 1.8-5.61 2.21-6.96 2.15-2.66-.13-4.75-1.25-6.87-2.75-.4-.29-.82-.44-1.24-.45a11.1 11.1 0 0 0-2.7.3c-3.65.8-10 3.4-10.19 7.85-.08 2 1.69 3.26 3.56 3.68 1.84.4 3.73.42 5.61.43 3.54.01 7.45-.69 10.63-2.21 1.12-.54 2.34-.9 3.56-.5.19.06.26.3.14.45-.17.2-.5.34-.67.44C38.63 35.32 31.1 36.06 24 36c-4.4-.04-15.6.16-16-5.86-.33-5.26 9.72-7.55 13.12-8.3a69.08 69.08 0 0 1 13.26-1.77c2.5-.05 4.6-.11 6.73-.03Z" fill="#2F5CD2"/><path d="M31.88 26.01a6 6 0 0 1 1.77.3c.11.05.3.14.34.27.13.45-1.34.56-1.66.55a2.93 2.93 0 0 1-1.63-.7.52.52 0 0 0-.3-.1c-.17-.02-.38.01-.64.07-.87.2-2.35.85-2.39 1.96-.02.5.37.82.81.92a5.98 5.98 0 0 0 1.94.07 6.2 6.2 0 0 0 1.93-.52c.26-.13.56-.22.85-.12.04.01.06.07.03.11-.04.05-.12.09-.16.11a7.3 7.3 0 0 1-2.59.9c-.9.14-1.82.19-2.73.16-.8-.01-3.37-.15-3.45-1.46-.08-1.31 2.31-1.88 3.12-2.07 1.03-.24 2.1-.42 3.16-.44.6-.01 1.1-.03 1.6-.01Z" fill="#E84B4E"/></svg>