<!-- by TradingView --><svg width="56" height="56" viewBox="0 0 56 56" xmlns="http://www.w3.org/2000/svg"><path fill="#5CE0E5" d="M0 0h56v56H0z"/><path d="M14 42v2h30V14h-2v28H14Z" fill="url(#a)"/><path d="M12 12h29v29H12V12Z" fill="url(#b)"/><path d="M22 22a5 5 0 0 1 10 0v2h-3v-2a2 2 0 1 0-4 0v9a2 2 0 1 0 4 0v-2h3v2a5 5 0 0 1-10 0v-9Z" fill="#FDFEFA"/><defs><linearGradient id="a" x1="28.71" y1="13.54" x2="28.71" y2="44" gradientUnits="userSpaceOnUse"><stop stop-color="#6A25E4"/><stop offset="1" stop-color="#DC6166"/></linearGradient><linearGradient id="b" x1="26.33" y1="12" x2="26.33" y2="40.54" gradientUnits="userSpaceOnUse"><stop stop-color="#622872"/><stop offset="1" stop-color="#BF3266"/></linearGradient></defs></svg>