<!-- by TradingView --><svg width="56" height="56" viewBox="0 0 56 56" xmlns="http://www.w3.org/2000/svg"><path fill="#F0F3FA" d="M0 0h56v56H0z"/><path d="M29 12h-4v27h4V12Zm-11 5h4v22h-4V17Zm-7 5h4v17h-4V22Z" fill="#4BA6DF"/><path fill-rule="evenodd" d="m12.24 38.82-1.58.02-1.6-.01c-.04 0-.06.02-.06.06v.07c0 .03.01.04.04.04h38.89c.05 0 .07-.02.07-.07v-.08c0-.02-.01-.04-.04-.04h-3a.3.3 0 0 1-.28-.15l-4.56-7.44c-.04-.06-.03-.12.02-.18l.68-.85c.04-.05.06-.1.05-.17l-.2-1.72c-.01-.08.02-.12.1-.13l.72-.11a3.61 3.61 0 0 0 2.03-1.1c.58-.64.7-1.38.34-2.2-.34-.82-1.1-1.6-2.31-2.37a.44.44 0 0 0-.21-.07c-.04 0-.06.01-.08.05a.08.08 0 0 0 .01.08c.28.37.51.7.7 1.02.32.5.47.98.45 1.41-.03.55-.37.85-1.01.88-.51.03-.92.03-1.22 0a.2.2 0 0 1-.16-.1L36.3 20a.5.5 0 0 0-.23-.2l-5.67-2.3c-.43-.16-.78-.14-1.06.1l-3.8 2.54-3.62 2.46-3.8 2.57c-.74.47-1.54.74-2.43.8a.85.85 0 0 1-.57-.15c-.31-.22-.24-.61.21-1.19.3-.39.65-.72 1.03-1a.17.17 0 0 1 .18-.03c.55.22 1.06.06 1.51-.47.32-.31.58-.64.8-.97.18-.3.12-.37-.19-.2a11.48 11.48 0 0 0-4.15 2.54c-.17.29-.34.58-.5.89-.4.8-.25 1.43.46 1.88.5.21 1.03.29 1.6.24a9.3 9.3 0 0 0 1.76-.34c.07-.02.08 0 .04.06l-3.37 5.28-.32.5c-.11.18-.2.36-.28.54l-1.73 4.1a.32.32 0 0 0-.01.18l.18.85c.02.1-.02.15-.11.15Zm29.79-1.45-1.68-1.41c-.05-.05-.07-.1-.03-.18.31-.62.35-1.2.1-1.76-.04-.1-.07-.1-.08.02-.06.86-.37 1.3-.95 1.33l-1.57.05c-.22 0-.37-.01-.46-.05a1.59 1.59 0 0 1-.72-.63.9.9 0 0 1-.07-.88.26.26 0 0 0 0-.2 8.5 8.5 0 0 1-.17-.51c-.05-.16-.2-.3-.45-.45l-2.23-1.27a.31.31 0 0 1-.14-.16 3.23 3.23 0 0 1-.15-1.84c.04-.2 0-.2-.1-.05-.26.36-.4.83-.41 1.4-.02.5.05 1 .2 1.5.03.06 0 .1-.05.14l-2.92 1.72a.19.19 0 0 0-.1.14l-.42 2.76c0 .05 0 .09.03.13l1 1.52c.05.08.12.12.22.12h11.4c.08 0 .11-.04.1-.12l-.25-1.15a.3.3 0 0 0-.1-.17Zm-16.51-4.24 1.7.36c.11.03.18.1.2.22.24 1.7.56 3.37.93 5.03.02.06 0 .09-.06.09h-1.38a.15.15 0 0 1-.13-.06 4.72 4.72 0 0 1-.16-.24c-.26-.4-.49-.63-.68-.7-.16-.07-.3-.13-.43-.17-.33-.09-.55-.24-.65-.45l-1.12-2.47a.2.2 0 0 1 0-.17l.7-1.48a.13.13 0 0 1 .14-.08l.94.12Zm-3.6 5.7-3.82-.01-.03-4.38.68-.63c.25-.21.51-.36.8-.44.47-.14.96-.23 1.47-.27.06-.01.09.02.09.08v1.63c0 .05.01.09.04.12l.8 1.01 2.24 2.8c.01.02.02.04 0 .06a.05.05 0 0 1-.05.04h-2.22Zm-3.85-4.39.03 4.38-3.24-.02a.27.27 0 0 1-.19-.08.95.95 0 0 1-.27-.46 1.9 1.9 0 0 1-.69-.45c-.05-.05-.06-.11-.02-.18l.71-1.12.32-.67a.22.22 0 0 1 .16-.13l2.2-.56c.22-.06.49-.24.8-.54l.2-.17Zm13.8-9.64c.1.4.31.7.67.88.25.13.72.18 1.4.17h.26a.3.3 0 0 1 .19.05c.6.47.86 1.14.81 2 0 .06-.04.1-.1.1a8.06 8.06 0 0 1-2.47-.2c-.93-.24-1.58-.65-1.96-1.25-.45-.72-.4-1.55.17-2.49a4.7 4.7 0 0 1 1.95-1.82c.13-.06.15-.04.06.07-.4.49-.66.87-.8 1.17-.2.44-.26.88-.17 1.32Zm.18.98c.29.21.6.35.96.4.22.03.59.04 1.1.01.14 0 .24.05.32.17l.17.26c.07.11.04.17-.1.17-.96.04-1.76-.2-2.37-.72-.1-.1-.16-.17-.17-.23 0-.09.02-.1.1-.06Zm10.35.95c-.5.23-1.08.33-1.75.33-.1 0-.14.04-.13.14l.03.24c.01.09.06.13.15.12.57-.04 1.18-.19 1.8-.46.33-.14.62-.36.85-.65.27-.33.37-.66.31-.98-.02-.1-.04-.1-.07 0-.18.57-.58.99-1.2 1.26Zm-6.02 4.16-.01.02c-.16.08-.33.08-.52 0a.97.97 0 0 1-.44-.46l-.04-.07a1.03 1.03 0 0 1-.13-.63c.04-.21.13-.36.28-.44l.01-.01.85 1.6Z" fill="#002E45"/></svg>