<!-- by TradingView --><svg width="56" height="56" viewBox="0 0 56 56" xmlns="http://www.w3.org/2000/svg"><path fill="#F0F3FA" d="M0 0h56v56H0z"/><path d="M22.9 20.75A8.63 8.63 0 0 0 16.96 18H9v.53c.12.47.26.94.42 1.4.18.56.3 1.03.36 1.43.5 3.49.24 6.93-.78 10.33v.09c2.67.16 4.75.23 6.22.22 2.14-.02 3.92-.28 5.35-.77a6.85 6.85 0 0 0 3.5-2.6 5.2 5.2 0 0 0 .82-4.09 7.45 7.45 0 0 0-1.98-3.8Zm-8.34 4.32a15.01 15.01 0 0 1 .52-4.4c.02-.1.08-.13.18-.12a4.1 4.1 0 0 1 2.78 1.75 5.42 5.42 0 0 1 1.07 3.12c.06 2.29-1.13 3.82-3.58 4.6-.12.04-.18 0-.2-.13l-.25-1.34a25.8 25.8 0 0 1-.52-3.48Zm22.8-5.55c-1.14-.79-2.78-1.3-4.93-1.52h-7.35c-.35.26-.44.65-.28 1.18.83 2.7 1.12 5.46.86 8.27a22 22 0 0 1-.44 2.5c-.18.77-.3 1.36-.36 1.77-.02.19.06.28.24.28h6.42c.1 0 .12-.04.08-.13a4.88 4.88 0 0 1-.43-2.53c.01-.1.06-.14.16-.14 1.64.04 2.9-.04 3.82-.24a5.6 5.6 0 0 0 3.1-1.73 4.6 4.6 0 0 0 1.34-3.19c-.06-2.01-.8-3.52-2.24-4.52Zm-6.96 5.03a7.2 7.2 0 0 1 .13-2c.17-.82.37-1.7.59-2.62.02-.1.09-.14.2-.12.93.2 1.63.68 2.1 1.44.41.69.6 1.53.53 2.53-.07 1-.36 1.81-.86 2.44a3.08 3.08 0 0 1-2.27 1.14c-.11.01-.17-.04-.18-.14-.1-.95-.17-1.84-.24-2.67ZM41.44 18h5.2c.09 0 .12.33.1.42-.08.52-.2 1.02-.33 1.5-.7 2.47-.87 4.8-.5 6.99.2 1.24.56 2.89 1.08 4.93.03.1-.01.16-.12.16h-6.96c-.1 0-.13-.05-.1-.14.8-2.2 1.2-4.5 1.18-6.9 0-.82-.18-1.95-.53-3.41A92.1 92.1 0 0 1 39.7 18h1.75ZM28.57 38h-.92l-.98-1.4c-.15-.22-.39-.31-.7-.27-.1.01-.15.07-.15.16L25.8 38H25v-3.82c0-.1.05-.15.15-.15.96-.05 1.73-.03 2.33.05.42.07.67.34.76.81.13.65-.13 1.08-.78 1.3-.1.03-.11.08-.04.15.47.49.86 1.04 1.15 1.66Zm-2.77-3.23v.85c0 .05.04.08.09.08h.99c.15 0 .28-.05.4-.14a.4.4 0 0 0 .16-.33v-.1a.4.4 0 0 0-.17-.32.61.61 0 0 0-.4-.13h-.99c-.05 0-.08.04-.08.09ZM9 38h2.44c.81-.27 1.1-.82.87-1.66-.04-.1-.2-.25-.49-.42-.08-.05-.08-.1-.02-.17.56-.52.54-1.06-.04-1.6l-.03-.03c-.05-.05-.11-.12-.19-.12H9v4Zm.83-2.54v-.73c0-.07.03-.1.1-.1h.88c.16 0 .3.03.42.11.11.09.17.18.17.3v.1c0 .12-.06.22-.17.3a.7.7 0 0 1-.41.13h-.88c-.07 0-.1-.04-.1-.1Zm0 1.77v-.91c0-.06.03-.08.08-.08h1.01c.18 0 .33.05.45.15.13.1.19.21.19.34v.1c0 .14-.07.26-.2.35a.74.74 0 0 1-.45.14h-1c-.06 0-.08-.03-.08-.09ZM38 36.16c-.02-.8.24-1.4.8-1.78.54-.4 1.25-.48 2.12-.27.5.13.83.44.99.94.02.07-.01.11-.1.13l-.58.1c-.1.02-.16-.02-.2-.1a.75.75 0 0 0-.65-.47c-.83-.1-1.31.21-1.46.93-.12.6 0 1.08.33 1.43.37.38.89.44 1.54.2.28-.12.4-.2.35-.47-.01-.09-.07-.13-.16-.13h-.77c-.05 0-.07-.02-.07-.06v-.51c0-.07.04-.1.1-.1h1.58c.12 0 .18.06.18.16v1.2c0 .1-.05.17-.14.21-1.46.72-3.81.7-3.86-1.41Zm5.5.6c0-.1.04-.13.13-.13h.6c.07 0 .1.02.12.07.2.58.68.76 1.4.53.2-.06.32-.18.35-.37.03-.17-.05-.3-.24-.38l-1.46-.43a.98.98 0 0 1-.69-.64.9.9 0 0 1 .13-.9c.26-.34.7-.5 1.34-.5.96-.02 1.52.33 1.68 1.02.03.1-.02.15-.14.15h-.55c-.1 0-.17-.03-.21-.11-.27-.48-.71-.57-1.32-.28-.13.06-.19.15-.17.27 0 .13.08.2.22.25l1.55.44c.14.03.27.12.42.25.32.32.42.68.28 1.07-.5 1.38-3.25 1.18-3.44-.32ZM16.97 38H14v-3.86c0-.1.05-.14.14-.14h2.66c.08 0 .11.04.11.11v.46c0 .07-.03.1-.1.1h-1.94c-.05 0-.08.04-.08.1v.7c0 .06.03.1.1.1h1.77c.07 0 .11.03.11.1v.48c0 .06-.03.1-.1.1H14.9c-.07 0-.1.02-.1.09v.88c0 .07.03.1.1.1h1.93c.09 0 .14.05.16.14.03.18.03.35-.01.54Zm5.17 0h.87l-1.56-3.88c-.03-.08-.1-.12-.18-.12h-.58c-.09 0-.15.04-.18.13L18.98 38h.88l.28-.77c.04-.1.1-.14.21-.14h1.27c.1 0 .17.05.21.14l.31.77Zm-.79-1.62a2.48 2.48 0 0 1-.75 0c-.1 0-.13-.06-.1-.15.28-.8.43-1.21.47-1.21.03 0 .19.4.48 1.2.03.1 0 .15-.1.16ZM30.01 38h.8v-3.91c0-.06-.03-.09-.09-.09h-.65c-.05 0-.07.02-.07.07V38Zm5.98 0h-.75l-1.44-2.4c-.06-.08-.08-.07-.08.03L33.7 38H33v-3.84c0-.1.05-.16.15-.16h.45c.1 0 .17.04.22.13.6 1.06 1.06 1.83 1.38 2.33.06.1.1.08.1-.03V34.1c0-.06.02-.1.08-.1h.52c.07 0 .1.04.1.11V38Z" fill="#0577B3"/></svg>