<!-- by TradingView --><svg width="56" height="56" viewBox="0 0 56 56" xmlns="http://www.w3.org/2000/svg"><path fill="#F0F3FA" d="M0 0h56v56H0z"/><path d="m25.6 16.23-1.9 17.29c-.04.3-.2.45-.51.45-3.44.01-5.43.03-5.98.05a4.95 4.95 0 0 1-2.85-.55 7.07 7.07 0 0 1-2.3-2.15c-1.27-2.07-1.24-4.05.08-5.94a6.18 6.18 0 0 1 4.65-2.75c.5-.05 1.53-.03 3.05.05.13 0 .2-.05.2-.18v-.18c0-.13-.07-.2-.2-.2-1.67-.11-2.72-.13-3.17-.05-2.4.41-4.1 1.41-5.1 3a5.86 5.86 0 0 0-.53 5.67 6.89 6.89 0 0 0 3.18 3.35 5.4 5.4 0 0 0 2.76.5c.93-.03 3.2-.05 6.81-.07.25 0 .39-.12.41-.37.73-5.98 1.4-11.91 2.02-17.8.01-.05 0-.1-.03-.13l-.15-.14a.24.24 0 0 0-.27-.06c-.1.03-.16.1-.17.21Zm.54 19.46c-.03.27-.17.4-.44.41l-8.68.4a8.41 8.41 0 0 1-3.48-.36c-2.42-1.02-4-3.03-4.74-6.02a7.93 7.93 0 0 1 .06-4.02c.84-3.19 3-5.07 6.46-5.63.9-.14 2.5-.21 4.82-.2.09 0 .14-.05.15-.14l.01-.15c.02-.18-.06-.27-.24-.27h-1c-2.67 0-4.52.2-5.55.56-3.85 1.37-5.68 4.24-5.5 8.62a8.64 8.64 0 0 0 2.79 6.21c1.46 1.37 2.95 2.04 4.46 2.03 3.83-.03 7.53-.19 11.08-.47.22-.01.34-.13.37-.35l2.2-20.06c.02-.13-.03-.2-.16-.2h-.25c-.13 0-.2.07-.21.2l-2.15 19.44Zm-4.06-2.93c.27 0 .42-.13.45-.4l1.76-15.99c.02-.13.09-.2.22-.2h.17c.16 0 .24.09.22.25l-1.82 16.53c-.03.26-.18.4-.45.4l-5.78.05a4.1 4.1 0 0 1-2.31-.54c-2.34-1.56-3.08-3.66-2.23-6.3.53-1.66 1.76-2.72 3.67-3.18.67-.15 1.89-.18 3.67-.06.16.01.23.1.23.25v.14c0 .11-.06.17-.17.17-1.12-.02-2.25 0-3.4.05a3.6 3.6 0 0 0-2.63 1.45 4.5 4.5 0 0 0-1.02 3.68c.2 1.42.9 2.5 2.1 3.26.52.33 1.36.49 2.51.46.5-.01 2.1-.02 4.81-.02Zm2.87 1.99c-.03.25-.17.37-.42.38-2.31 0-4.65.04-7.02.11-1.7.06-2.87-.05-3.5-.3-1.82-.74-3.05-2.2-3.7-4.4a7.14 7.14 0 0 1 .5-5.75 6.14 6.14 0 0 1 4.72-3.13c.82-.12 2.23-.18 4.23-.19.16 0 .26-.08.28-.24l.02-.16c0-.14-.05-.2-.2-.2-2.18-.09-3.91.04-5.2.37a6.72 6.72 0 0 0-4.13 2.82 7.27 7.27 0 0 0-1.18 4.32c.05 1.55.47 3 1.28 4.37a7.12 7.12 0 0 0 2.74 2.58c.77.42 1.91.61 3.44.56 2.03-.06 4.78-.12 8.25-.19.32 0 .49-.16.52-.47.62-6.17 1.25-12.13 1.88-17.9.02-.15.02-.49.02-1.01 0-.09-.04-.13-.12-.14l-.16-.02c-.13-.01-.2.04-.22.17l-2.03 18.42Zm-3.6-3.58 1.6-14.6c.02-.17.12-.25.29-.25h.2c.12 0 .17.06.15.18l-1.66 15.14c-.04.33-.22.5-.55.5l-4.27.01a4.13 4.13 0 0 1-2.39-.57 3.55 3.55 0 0 1-1.51-2.52 3.85 3.85 0 0 1 .68-2.84 3.91 3.91 0 0 1 2.43-1.64 9.84 9.84 0 0 1 3.11 0c.11 0 .17.07.17.19v.14c0 .12-.06.18-.18.18l-.84-.04c-1.3-.07-2.21.02-2.73.29a3.54 3.54 0 0 0-2.02 2.56 3.1 3.1 0 0 0 1.04 3.03c.47.42 1 .63 1.58.63.3 0 .74 0 1.32.02 1.53.02 2.62-.01 3.26-.09.19-.02.3-.13.31-.32Zm-1.22-1c-.02.11-.08.17-.18.17h-3.38a.76.76 0 0 1-.45-.14c-.93-.65-1.2-1.48-.8-2.5.39-1.02 1.16-1.5 2.31-1.42a110 110 0 0 0 1.62.1c.16.02.24-.05.24-.2v-.15c0-.2-.1-.3-.3-.3l-.36-.02c-1.46-.1-2.4-.02-2.8.24a3.04 3.04 0 0 0-1.48 2.12c-.13.88.15 1.67.86 2.37.37.38.97.54 1.77.49.63-.04 1.59 0 2.88.1.4.04.64-.14.68-.55l1.54-13.93c.01-.12-.04-.18-.15-.2l-.25-.02c-.15-.01-.23.05-.25.2l-1.5 13.64Zm9.97-10.14a.46.46 0 0 0-.3.4L27.65 39.9c0 .07-.04.1-.11.1h-.4c-.1 0-.13-.04-.12-.12l2.21-20.08c.03-.28.2-.42.48-.44 5.74-.2 9.36-.34 10.85-.41 1.44-.07 2.94.59 4.5 1.99a8.74 8.74 0 0 1 2.82 5.4 9.04 9.04 0 0 1-1.09 6.07 7.88 7.88 0 0 1-4.58 3.49c-.71.23-1.74.36-3.1.38-.92.01-1.97.08-3.17.2-.15.01-.22-.06-.2-.2l.03-.26c.01-.15.1-.23.25-.23l3.1-.08c2.45-.07 4.4-.75 5.83-2.04 1.5-1.35 2.3-3.24 2.38-5.67a8.66 8.66 0 0 0-1.21-4.73 7.37 7.37 0 0 0-3.67-3.29c-.83-.33-2.12-.46-3.85-.38-3.16.16-5.82.25-7.99.28-.1 0-.28.05-.51.15Zm.9 1.28c.02-.16.11-.25.28-.26 1.89-.15 3.83-.22 5.82-.23 2.27-.01 3.45-.02 3.53 0 1.36.17 2.54.86 3.54 2.04a7.47 7.47 0 0 1 1.7 3.78c.34 2.27-.15 4.16-1.45 5.67-1.31 1.53-3.14 2.27-5.47 2.23-.71 0-1.7.02-2.94.1-.11 0-.17.07-.17.2v.15c0 .12.06.18.17.18 2.14.05 3.86-.04 5.16-.29a6.31 6.31 0 0 0 4.47-3.23 7.63 7.63 0 0 0 .63-6.07 7.42 7.42 0 0 0-3.81-4.87 7.2 7.2 0 0 0-3.37-.51c-2.27.06-4.95.1-8.06.13-.37 0-.57.18-.6.54l-2.08 18.8c-.02.2.06.3.26.3h.2c.1 0 .14-.05.15-.14L31 21.3Zm1.39 1.1c-.1.18-.17.43-.2.72l-1.87 16.72c-.01.1-.07.15-.18.14l-.28-.03c-.1-.01-.15-.07-.14-.16l1.95-17.7c.04-.38.25-.57.63-.57 3.77-.02 5.9-.04 6.38-.06 1.36-.05 2.4.14 3.11.57 1.35.81 2.27 1.7 2.78 2.67 1.11 2.14 1.1 4.14-.02 6a6.53 6.53 0 0 1-4.34 3.12c-1.16.25-2.57.29-4.25.1-.1 0-.15-.06-.15-.16v-.17c0-.1.06-.16.17-.16 1.55.04 2.67.03 3.35-.03a5.93 5.93 0 0 0 3.24-1.37c2.15-1.73 2.72-3.89 1.74-6.48-.4-1.06-1.3-2.03-2.69-2.9a5.03 5.03 0 0 0-2.84-.58l-5.91.04c-.22 0-.38.1-.48.29Zm1.04 1.25c0-.14.08-.21.22-.22 1.04-.08 2.78-.12 5.22-.13 1.21 0 2.12.25 2.71.76a4.64 4.64 0 0 1 .54 6.81A4 4 0 0 1 39 32.23c-1.36.03-2.24.03-2.65 0-.17 0-.25.08-.25.25v.13c0 .13.06.2.2.2l2.45-.03a5.74 5.74 0 0 0 2.33-.4 4.96 4.96 0 0 0 2.5-2.67c.52-1.27.56-2.51.1-3.72a5.53 5.53 0 0 0-2.46-2.85 4.57 4.57 0 0 0-2.37-.43c-1.21.03-3.04.03-5.5 0-.3 0-.46.14-.5.44l-1.8 16.48c-.02.16.05.24.2.26l.18.02c.13.01.2-.05.22-.18l1.78-16.07Zm1.83.87c-.42.01-.65.22-.7.64l-1.59 14.46c-.02.19-.13.28-.32.26l-.14-.02c-.12-.01-.17-.08-.16-.2l1.67-15.19c.04-.36.25-.54.6-.53h4.22c1.14-.03 1.98.19 2.5.64a3.6 3.6 0 0 1 1.4 2.48c.14 2.07-.77 3.53-2.76 4.4-.6.26-1.77.29-3.5.08-.14-.02-.2-.1-.18-.23l.02-.18c.01-.13.09-.2.22-.19l.29.03c1.6.12 2.66.05 3.2-.21 1.57-.77 2.26-2 2.08-3.71-.1-.87-.51-1.56-1.25-2.09-.43-.3-1.15-.46-2.17-.46-1.62 0-2.77 0-3.43.02Zm-.96 15.2 1.52-13.75c.01-.17.1-.25.27-.25l2.93.03c.63.01 1.08.24 1.34.67a2.21 2.21 0 0 1-.77 3.16c-.34.2-1.03.26-2.05.2-.44-.03-.75-.05-.94-.04-.1 0-.16.06-.17.16l-.02.13c0 .09.03.14.12.15 1.2.16 1.98.22 2.35.18 1.18-.11 1.97-.69 2.36-1.72.4-1.03.2-2-.59-2.88-.39-.44-1.1-.67-2.12-.67l-2.92-.05c-.22 0-.35.1-.37.33l-1.55 14.05c-.02.19.06.32.24.39l.14.05c.14.05.21 0 .23-.14Z" fill="#007F3D"/></svg>