<!-- by TradingView --><svg width="56" height="56" viewBox="0 0 56 56" xmlns="http://www.w3.org/2000/svg"><path fill="#F0F3FA" d="M0 0h56v56H0z"/><path d="M34.12 31.34a5.63 5.63 0 0 0 5.44-6.02 5.51 5.51 0 0 0-4.02-4.7 6.2 6.2 0 0 0-3.42.03c-.34.1-.84.34-1.5.72l-.45.25c-.19.1-.56.24-1.12.4a6.31 6.31 0 0 1-5.84-1.14 5.6 5.6 0 0 1-2.08-3.67 6.04 6.04 0 0 1 .49-3.33 6.56 6.56 0 0 1 2.14-2.62 5.96 5.96 0 0 1 4.75-1.16c1.65.3 2.91 1.2 3.8 2.72.04.06.02.1-.04.13l-.68.3c-.03 0-.05 0-.07-.03a4.22 4.22 0 0 0-2.28-2 4.97 4.97 0 0 0-4.4.37 5.7 5.7 0 0 0-2.54 2.91 4.84 4.84 0 0 0-.03 3.67 4.86 4.86 0 0 0 2.49 2.69c.77.38 1.6.56 2.47.56.84-.01 1.67-.2 2.5-.57.3-.14.74-.37 1.3-.71a6.85 6.85 0 0 1 5.66-.02 6.3 6.3 0 0 1 3.75 5.72 6.58 6.58 0 0 1-6.33 6.38c-.06 0-.09-.02-.09-.08v-.7c0-.07.03-.1.1-.1Zm.13-15.96-.05.11a.08.08 0 0 1-.08.06h-.73c-.06 0-.09-.04-.08-.1.07-.53.33-.88.78-1.04.45-.16.88-.06 1.27.3.23.2.36.48.39.83.03.32-.03.63-.17.93-.26.54-.66.88-1.2 1.04-.55.15-1.08.07-1.6-.24-.54-.32-.87-.8-.99-1.4a2.61 2.61 0 0 1 .28-1.76c.26-.48.63-.85 1.13-1.09.5-.24 1.01-.32 1.57-.24.6.09 1.13.34 1.6.78.7.65 1.01 1.46.95 2.44a3.4 3.4 0 0 1-1.17 2.37c-.63.54-1.38.8-2.25.8-.71 0-1.36-.2-1.95-.62-.58-.41-1-.96-1.27-1.64-.13-.3-.2-.8-.24-1.45-.02-.46-.05-.8-.1-1.02a2.14 2.14 0 0 0-.42-.92 3.19 3.19 0 0 0-1.7-1.1 3.36 3.36 0 0 0-2.04.1 4.2 4.2 0 0 0-2.73 3.73 3.55 3.55 0 0 0 2.2 3.4c.83.35 1.7.42 2.62.2a4.94 4.94 0 0 0 2.3-1.3c.03-.02.06-.02.08 0l.57.57c.02.02.02.03 0 .04a5.94 5.94 0 0 1-2.84 1.57 4.82 4.82 0 0 1-4.5-1.25 4.46 4.46 0 0 1-1.14-4.4 5 5 0 0 1 1.47-2.35c.64-.6 1.35-.98 2.13-1.16a4.03 4.03 0 0 1 4.01 1.13c.53.54.83 1.16.9 1.88l.09 1.16c.03.47.12.85.26 1.12.28.52.67.91 1.18 1.17a2.53 2.53 0 0 0 3.6-1.6c.12-.46.11-.9-.03-1.33a2.18 2.18 0 0 0-.87-1.14 1.8 1.8 0 0 0-1.5-.3c-.53.13-.93.45-1.18.96-.14.27-.2.55-.18.83 0 .3.1.57.28.78.29.35.64.51 1.06.47.43-.03.72-.27.87-.71.12-.34.05-.58-.2-.73a.25.25 0 0 0-.21-.03.25.25 0 0 0-.17.14Zm-7-.17c.17.01.25.1.23.25a.3.3 0 0 1-.06.12l-.09.12a.1.1 0 0 0 0 .1l.35.6c.04.06.09.07.15.02.31-.24.49-.51.53-.83a1.1 1.1 0 0 0-.15-.74 1.07 1.07 0 0 0-.6-.47 1.28 1.28 0 0 0-1.11.16 2 2 0 0 0-.77.88c-.2.45-.23.92-.04 1.38.18.46.5.8.96 1 .49.23 1 .24 1.53.03a2.7 2.7 0 0 0 1.67-2.08A2.47 2.47 0 0 0 28.14 13c-.7-.22-1.4-.17-2.08.15a3.46 3.46 0 0 0-1.98 3 3.09 3.09 0 0 0 2.18 3.07c.77.26 1.57.24 2.4-.06a4.6 4.6 0 0 0 1.9-1.45c.02-.01.02-.03 0-.04l-.65-.48h-.05a4.1 4.1 0 0 1-1.25 1.03c-.59.31-1.2.4-1.85.24a2.25 2.25 0 0 1-1.5-1.08 2.17 2.17 0 0 1-.22-1.8c.19-.6.56-1.1 1.13-1.5a1.95 1.95 0 0 1 1.92-.16 1.54 1.54 0 0 1 .89 1.64c-.04.31-.16.6-.36.86-.2.25-.43.44-.73.57-.25.12-.5.14-.77.06a.9.9 0 0 1-.58-.5c-.18-.39-.1-.77.25-1.14.13-.15.3-.22.47-.2ZM24.1 33.27c.23.06.42-.02.58-.23.34-.44.38-.87.14-1.3a.98.98 0 0 0-.6-.46c-.64-.17-1.17.1-1.6.8-.2.3-.28.63-.27.98 0 .66.27 1.16.78 1.5.5.33 1.08.4 1.71.19.56-.19 1.02-.6 1.37-1.24.37-.68.44-1.36.22-2.07a2.45 2.45 0 0 0-1.39-1.54 2.61 2.61 0 0 0-1.59-.18c-.55.1-1.03.34-1.46.72A3.7 3.7 0 0 0 20.94 32a3.33 3.33 0 0 0-.1 1.86c.22 1.03.84 1.79 1.84 2.27.67.31 1.39.39 2.16.23a3.8 3.8 0 0 0 1.93-1.06c.59-.58.99-1.26 1.2-2.02a4.04 4.04 0 0 0-4.48-5.12c-.66.08-1.27.29-1.84.63-.68.42-1.25.99-1.69 1.69a5.02 5.02 0 0 0-.8 2.61 4.75 4.75 0 0 0 2.37 4.24 5.23 5.23 0 0 0 5.72-.42 5.81 5.81 0 0 0 1.98-2.62 5.84 5.84 0 0 0-.2-4.85c-.32-.63-.5-1.02-.54-1.17a5.38 5.38 0 0 1 .05-3.31 5.8 5.8 0 0 1 5.88-3.92c.88.1 1.7.4 2.44.92a4.63 4.63 0 0 1 1.75 2.27 4.84 4.84 0 0 1-1.6 5.45 4.7 4.7 0 0 1-2.94 1.05c-.04 0-.06-.02-.06-.06v-.74c0-.04.02-.06.06-.06a4.03 4.03 0 0 0 3.13-1.63c.57-.74.84-1.57.82-2.5a4.02 4.02 0 0 0-3.35-3.77 4.8 4.8 0 0 0-5.39 5.87c.05.2.21.58.48 1.11a6.76 6.76 0 0 1 .23 5.78 6.6 6.6 0 0 1-4.86 4.03 5.83 5.83 0 0 1-5.49-1.88 5.56 5.56 0 0 1-1.32-4.33 6.3 6.3 0 0 1 2.18-4 5.36 5.36 0 0 1 6.27-.5c.66.42 1.18.98 1.57 1.66a4.8 4.8 0 0 1 .58 3.35 5.26 5.26 0 0 1-1.67 3c-.65.59-1.4.98-2.24 1.15a4.3 4.3 0 0 1-4.86-2.59 4.4 4.4 0 0 1 .16-3.37c.32-.69.78-1.25 1.37-1.68.61-.44 1.3-.7 2.05-.75a3.4 3.4 0 0 1 3.67 3.74c-.05.5-.2.97-.46 1.43-.25.45-.58.83-.97 1.13-.42.32-.86.52-1.34.6a2.75 2.75 0 0 1-2.76-1.2 2.8 2.8 0 0 1 1.09-3.94c.34-.18.71-.25 1.1-.2.4.04.76.18 1.06.42.5.4.73.92.71 1.55a1.96 1.96 0 0 1-.77 1.54c-.37.3-.77.37-1.2.24a1.12 1.12 0 0 1-.76-.74c-.14-.42-.05-.83.29-1.24.09-.12.18-.12.26 0l.34.43c.07.09.07.17 0 .26-.09.09-.09.21 0 .36.03.04.06.07.1.08Zm11.53 1.3c-.08-.05-.14-.02-.17.09a12.74 12.74 0 0 1-4.51 6.9A11.6 11.6 0 0 1 20.2 43.6a10.48 10.48 0 0 1-7.02-7.45 10.6 10.6 0 0 1 .34-6.32c.9-2.5 2.5-4.48 4.78-5.94a10.8 10.8 0 0 1 4.32-1.57c.03 0 .05-.03.05-.07l-.11-.75c0-.04-.03-.06-.07-.05A12.41 12.41 0 0 0 12 33.34a11.53 11.53 0 0 0 2.03 6.74 11.6 11.6 0 0 0 10.12 4.91 12.57 12.57 0 0 0 7.43-2.82 13.62 13.62 0 0 0 4.72-7.3c.02-.08 0-.13-.1-.15l-.58-.15Zm-1.72-6.21c.66.04 1.25-.18 1.76-.66.49-.46.76-1.02.8-1.67a2.34 2.34 0 0 0-.68-1.86 2.52 2.52 0 0 0-1.94-.8 3 3 0 0 0-1.98.8 3.19 3.19 0 0 0-1.1 3.1c.05.27.14.52.27.75.64 1.1.99 2.3 1.05 3.6a8.44 8.44 0 0 1-.64 3.67 8.19 8.19 0 0 1-6.03 4.99 7.63 7.63 0 0 1-5.07-.81 7.16 7.16 0 0 1-2.92-9.4 7.82 7.82 0 0 1 4.13-3.92 6.73 6.73 0 0 1 5.35.16l.9.43c.07.03.09.08.06.15l-.27.6c-.03.08-.09.1-.16.06a7.91 7.91 0 0 0-2.08-.86 6.17 6.17 0 0 0-5.07 1.18 6.65 6.65 0 0 0-2.34 7.48 6.04 6.04 0 0 0 3.08 3.5 6.58 6.58 0 0 0 4.7.47 7 7 0 0 0 2.94-1.57 7.58 7.58 0 0 0 2.55-5.79 7.11 7.11 0 0 0-.9-3.42c-.17-.34-.3-.6-.34-.8a4.07 4.07 0 0 1 .97-3.9c.3-.33.68-.63 1.16-.9a3.62 3.62 0 0 1 3.75.15 3.32 3.32 0 0 1 1.49 2.95 3.5 3.5 0 0 1-1.79 2.8c-.6.35-1.27.46-2 .35-.05 0-.07-.03-.07-.09l.1-.71c0-.05.03-.07.07-.06l.25.03ZM14.58 34.7a9.58 9.58 0 0 1 2.2-7.6 9.2 9.2 0 0 1 5.9-3.4 8.6 8.6 0 0 1 5.46.98l.04-.01.38-.72c.01-.02 0-.04-.01-.05a9.58 9.58 0 0 0-7.46-.73 10 10 0 0 0-4.2 2.52 11.01 11.01 0 0 0-2.64 4.1 10.32 10.32 0 0 0 0 7.13 9.91 9.91 0 0 0 5.45 5.68 10.83 10.83 0 0 0 10.26-1.03 11.9 11.9 0 0 0 4.8-6.45c0-.02 0-.04-.03-.05l-.77-.24c-.02 0-.04 0-.04.02a10.9 10.9 0 0 1-4.1 5.76 9.95 9.95 0 0 1-10.45.88 9.05 9.05 0 0 1-4.79-6.79Zm27.03-10.99a6.97 6.97 0 0 1-.03 4.7 8.39 8.39 0 0 1-2.79 3.81 7.89 7.89 0 0 1-2.74 1.42c-.56.16-1.2.29-1.92.38-.05.01-.08-.01-.08-.06l-.1-.7c0-.06.01-.1.07-.1.31-.03.76-.12 1.34-.24a7.73 7.73 0 0 0 5.36-4.7 6.2 6.2 0 0 0 .08-4.2c-.02-.05 0-.1.05-.11l.6-.27c.08-.03.13 0 .16.07Zm-7.75 3.04a.26.26 0 0 1-.05-.21.3.3 0 0 1 .1-.19c.06-.05.08-.1.05-.17l-.26-.6c-.04-.08-.1-.1-.17-.04-.54.38-.73.84-.56 1.4.12.38.39.64.8.76.4.12.8.03 1.2-.26.45-.33.72-.76.81-1.28a1.74 1.74 0 0 0-.38-1.45 1.9 1.9 0 0 0-1.53-.74c-.6 0-1.12.22-1.59.65-.7.65-.96 1.44-.79 2.35.05.25.2.62.47 1.12a8.81 8.81 0 0 1-.2 8.2 9.32 9.32 0 0 1-3.3 3.5 8.57 8.57 0 0 1-7.74.66A7.72 7.72 0 0 1 16 33.08a8.27 8.27 0 0 1 1.44-4.41 8.11 8.11 0 0 1 3.56-3 7.45 7.45 0 0 1 6.48.08c.1.06.19.03.24-.09l.21-.47c.05-.12.02-.2-.1-.25a8.4 8.4 0 0 0-7.07-.12A9.19 9.19 0 0 0 16.22 29a8.84 8.84 0 0 0 .13 8.77 8.46 8.46 0 0 0 4.49 3.66 9.33 9.33 0 0 0 8.57-1.23 10.3 10.3 0 0 0 4.21-6.65 9.42 9.42 0 0 0-.92-5.92 3.09 3.09 0 0 1-.37-.97c-.05-.74.27-1.3.97-1.67.27-.15.54-.18.8-.12s.46.2.62.4c.16.2.23.43.2.68-.02.28-.15.52-.4.74a.61.61 0 0 1-.46.18.26.26 0 0 1-.2-.1Z" fill="#0097FF"/></svg>