<!-- by TradingView --><svg width="56" height="56" viewBox="0 0 56 56" xmlns="http://www.w3.org/2000/svg"><path fill="#F0F3FA" d="M0 0h56v56H0z"/><path fill-rule="evenodd" d="M6 24v5h1.29c1.5 0 2.71-1.09 2.71-2.43v-.14C10 25.1 8.79 24 7.29 24H6Zm1 1v3h.64C8.4 28 9 27.35 9 26.54v-.08c0-.8-.6-1.46-1.36-1.46H7Zm5.5 4a2 2 0 0 0 1.83-1.18h-1.04a1.14 1.14 0 0 1-1.87-.45H14.47A2 2 0 0 0 12.5 25a2 2 0 1 0 0 4Zm1.06-2.4a1.14 1.14 0 0 0-2.12 0h2.12Zm1.12 1.13c0 .42.28 1.27 1.28 1.27 1.26 0 1.43-.95 1.43-1.33 0-.38-.13-.69-.74-.92l-.41-.15c-.35-.1-.53-.17-.53-.4 0-.25.23-.33.34-.34.11.01.35.08.37.28h.85c-.02-.38-.28-1.14-1.22-1.14-1.17 0-1.22 1.13-1.22 1.2 0 .09 0 .66.8.99h.02c.8.34.85.36.85.6 0 .25-.18.39-.45.39s-.45-.29-.45-.45h-.92ZM18 24v5h1v-2.72l.11-.13a.8.8 0 0 1 .63-.29h.04c.45 0 .72.33.72.74V29h.04c-.33.85-2.44 3.12-7.35 3.12-6.14 0-8.78-1.9-9.15-5.85-.1.74-.07 2.47.77 3.54 1.06 1.34 3.14 2.87 8.25 2.87 4.97 0 6.33-1.47 8.24-3.52l.14-.16h.06v-2.64c0-.75-.67-1.36-1.5-1.36-.38 0-.73.13-1 .35V24h-1Zm20 5v-5h1v1.26c.24-.16.53-.26.85-.26.8 0 1.65.61 1.65 1.36V29h-1v-2.4c0-.4-.43-.74-.87-.74h-.04c-.24 0-.45.1-.59.28V29h-1Zm-15-5v5h1v-.8a11.3 11.3 0 0 0 6.11 3.76C34.66 33 35.71 33 39.8 33h.68C45.15 33 52 31.58 52 27.88c0-.98-.89-2.07-1.33-2.49.34.46 1 1.59 1 2.49 0 1.12-1.76 4.5-11.9 4.5-10 0-13.43-2.62-15.64-5.38h.4c.93 0 1.47-.58 1.47-1.43v-.04c0-.84-.54-1.53-1.46-1.53H23Zm1 1h.47c.3 0 .53.22.53.5s-.24.5-.53.5H24v-1Zm5 3.57c-.32.27-.71.43-1.15.43-1.02 0-1.85-.9-1.85-2s.83-2 1.85-2c.44 0 .83.16 1.15.43V25h1v4h-1v-.43ZM29 27a1 1 0 1 1-2 0 1 1 0 0 1 2 0Zm14.85 2c.44 0 .83-.16 1.15-.43V29h1v-4h-1v.43a1.76 1.76 0 0 0-1.15-.43c-1.02 0-1.85.9-1.85 2s.83 2 1.85 2Zm.15-1a1 1 0 1 0 0-2 1 1 0 0 0 0 2Zm-12-4h-1v5h1v-1.76L33.22 29h1.17l-1.57-2.04L34.15 25h-1.03L32 26.8V24Zm15 0h1v2.8l1.12-1.8h1.03l-1.33 1.96L50.4 29h-1.17L48 27.24V29h-1v-5Zm-9.9 2.1h-.84c-.02-.08-.12-.26-.38-.26a.3.3 0 0 0-.33.3c0 .27.18.33.53.44l.41.14c.61.24.73.55.73.95 0 .4-.16 1.33-1.41 1.33-1 0-1.27-.86-1.28-1.3h.89c.05.37.33.45.46.45.15 0 .46-.04.46-.31 0-.34-.14-.4-.9-.67-.75-.28-.77-.9-.77-.97 0-.08 0-1.2 1.2-1.2.97 0 1.22.74 1.22 1.1Z" fill="#1E1A17"/></svg>