<!-- by TradingView --><svg width="56" height="56" viewBox="0 0 56 56" xmlns="http://www.w3.org/2000/svg"><path fill="#F0F3FA" d="M0 0h56v56H0z"/><path d="M22.56 18.47h-4.41c-.67 0-1.2.55-1.2 1.23h-.4A8.64 8.64 0 0 0 8 28.43a8.64 8.64 0 0 0 8.56 8.72h.38c0 1.02.82 1.85 1.82 1.85h18.48c1 0 1.82-.83 1.82-1.85h.38c4.73 0 8.56-3.9 8.56-8.72a8.64 8.64 0 0 0-8.56-8.73h-.38c0-.68-.54-1.23-1.2-1.23H33.4v-3.94c0-.84-.68-1.53-1.5-1.53h-7.84c-.83 0-1.5.69-1.5 1.53v3.94Z" fill="#FFEA74"/><path d="M23 19h-4.85c-.4 0-.73.3-.73.7v.49h-.86a8.16 8.16 0 0 0-8.08 8.24 8.16 8.16 0 0 0 8.08 8.23h.86v.49c0 .75.6 1.37 1.34 1.37h18.48c.74 0 1.34-.62 1.34-1.37v-.49h.86a8.16 8.16 0 0 0 8.08-8.23 8.16 8.16 0 0 0-8.08-8.24h-.86v-.49c0-.4-.32-.7-.73-.7H33v-4.47c0-.58-.54-1.05-1.1-1.05h-7.84c-.56 0-1.06.47-1.06 1.05V19Zm-.5-4.47c0-.84.73-1.53 1.56-1.53h7.83c.83 0 1.61.69 1.61 1.53v3.94h4.35c.67 0 1.2.55 1.2 1.23h.4c4.72 0 8.55 3.9 8.55 8.73a8.64 8.64 0 0 1-8.56 8.72h-.38c0 1.02-.81 1.85-1.82 1.85H18.76c-1 0-1.82-.83-1.82-1.85h-.38A8.64 8.64 0 0 1 8 28.43a8.64 8.64 0 0 1 8.56-8.73h.38c0-.68.54-1.23 1.21-1.23h4.35v-3.94Z" fill="#CF9C1A"/><path fill-rule="evenodd" d="M25.6 14c.8.37 2.09 1.3 2.09 2.71 0 .87-.31 1.56-.47 1.8.32-.2.96-.9.96-2.22 0-1.05-.78-1.85-1.42-2.29h4.75a1 1 0 0 1 .99 1v7a1 1 0 0 1-.51.87v-3.06h-.8V23h-1.81v-3.19h-1.82v1.64c-1.03-.1-1.72-1-1.94-1.45l.83-.65-.66-.6a3.1 3.1 0 0 1-1.36 1.43h.68c.4 1.34 1.69 1.83 2.45 1.94V23H24.5a1 1 0 0 1-.99-1v-7a1 1 0 0 1 1-1h1.1Zm-.27 3.36c0 .2-.17.37-.37.37a.37.37 0 0 1-.36-.37c0-.2.16-.37.36-.37.2 0 .37.17.37.37Z" fill="#627F31"/><path opacity=".5" fill="#FFEA74" d="M31.36 14.77h.66v4.7h-.66z"/><path fill-rule="evenodd" d="M13 24v6h1.63c1.3 0 2.37-1.18 2.37-2.64v-.72c0-1.46-1.06-2.64-2.37-2.64H13Zm.7.7v3.92c.01.23.16.7.66.7h.4c.85 0 1.54-.7 1.54-1.57v-1.02a2 2 0 0 0-2-2.02h-.6Zm3.8-.7h.88v2.55h2.24V24h.88v6h-.88v-2.74h-2.25V30h-.87v-6Zm4.7 6h-.6l1.65-5.66-.12-.34h.82l1.89 6h-.9l-.62-2.13h-1.5L22.2 30Zm1.38-4.68.49 1.68h-.99l.5-1.68Zm3.1 4.68h-.55l.66-6h.79v.55l1.1 3.84 1.2-3.42V24h.88l.61 6h-.86l-.36-4.09L28.8 30h-.44v-.38l-1.21-3.86-.47 4.24ZM32 30v-6h1.59c.82 0 1.48.7 1.48 1.58v.2c0 .88-.66 1.59-1.48 1.59h-.36c-.15 0-.27-.13-.27-.3 0-.16.12-.3.27-.3h.18c.42 0 .76-.36.76-.81v-.5c0-.5-.38-.92-.85-.92h-.53V30H32Zm3.17-1.9V24H36v4.06c0 .72.53 1.3 1.21 1.3.69 0 1.24-.58 1.24-1.3V24H39v4.1c0 1.04-.81 1.88-1.8 1.88h-.24c-.99 0-1.79-.84-1.79-1.87Zm4.04 1.9v-6h1.72c.81 0 1.47.7 1.47 1.57 0 .73-.47 1.35-1.1 1.52l1.26 1.94c.31.44.52.68.59.74V30h-.74c-.31 0-.63-.4-.75-.6l-1.18-2.02H40V30h-.79Zm.79-3.3v-2.17h.52c.54 0 .97.46.97 1.04v.3c0 .45-.35.83-.77.83H40Z" fill="#662B01"/><path fill-rule="evenodd" d="m22.1 31.88.5-.6a3.7 3.7 0 0 0-1.35-.28c-1.28 0-2.25.94-2.25 2.04 0 1.11 1.02 1.94 2 1.94.8 0 1.46-.2 1.7-.3v-1.68H22v1.3c-.11.07-.46.2-.79.2-.42 0-1.4-.28-1.4-1.46 0-1.17.81-1.59 1.4-1.59.47 0 .78.28.88.43Zm1.2-.88h1.5c.63 0 1.13.47 1.13 1.06 0 .5-.37.92-.87 1.02l1.18 1.41c.13.16.26.27.32.3V35h-.86l-1.4-1.73H24V35h-.7v-4Zm.7 1.78v-1.4h.43c.38 0 .69.3.69.65v.1c0 .36-.31.65-.7.65H24Zm5.57-1.27V31H27v4h2.62l.04-.48h-1.48a.48.48 0 0 1-.5-.46v-.89h1.58v-.5H27.7V31.5h1.88Zm3-.51v.5h-1.88v1.16h1.57v.51h-1.57v.89c0 .25.22.46.48.46h1.5l-.06.48H30v-4h2.57Zm.46 0v.18l.51.55V35H34v-2.79L36.64 35h.47l-.11-.76V31h-.52v2.76L33.95 31h-.92Z" fill="#627F32"/></svg>