<!-- by TradingView --><svg width="56" height="56" viewBox="0 0 56 56" xmlns="http://www.w3.org/2000/svg"><path fill="#F0F3FA" d="M0 0h56v56H0z"/><path d="M26.05 39H9l5.06-9h15.46v-3c0-.62-.02-1.35-.57-1.35-.43 0-.73.9-.82 1.35H15.68l3.76-6h16.1c.07-.1.2-.33.2-.37.01-.04.19.24.27.37h.55s.44-2.05.78-3.8A6.66 6.66 0 0 1 39 14.14c.26-.37.88-1.12 1.31-1.12.54 0 .43.52.64.94.21.41.18.55.08.95v.02c-.1.42.14.52.52.98.38.46.3 1.55.3 2.1 0 .53.55.8.55 1.67 0 .88-.93 1.19-1.08 1.54-.12.28-.11.65-.1.8.01-.05.1-.2.43-.41.42-.26.55.05 1.19.36.64.3.82.9 1.09 1.5.28.6.74 1.37.87 1.5l.62.6-1.49.6c-.43.19-1.39.54-1.73.47-.43-.08-1.28-.83-1.92-1.34-.5-.41-1.08-.69-1.3-.77.54.97.6 2.76.56 3.53 0 7.84-9 10.57-13.5 10.95Z"/><path d="M40.16 13c.05.09.09.14.11.15a.1.1 0 0 1 .06.06.1.1 0 0 1-.01.09.43.43 0 0 1-.3.22.07.07 0 0 0-.05.05c-.02.08.01.13.1.18.16.07.25.18.27.32.03.25.1.47.2.66.05.11.04.2-.04.29-.01.02-.06.02-.16 0-.07 0-.1-.02-.12-.05a.17.17 0 0 0-.1-.09.26.26 0 0 1-.1-.1c-.22-.4-.5-.7-.82-.88.25-.4.57-.7.96-.9Z" fill="#7E3313"/><path d="M41.25 20.35c-.07.03-.14.07-.21.13a7.54 7.54 0 0 1-1.17.45 1.05 1.05 0 0 0-.33.16l-.49.49c-.12.12-.16.3-.11.52a1.16 1.16 0 0 1 0-.39.36.36 0 0 1 .1-.2c.07-.05.12-.11.16-.16.04-.04.04-.09 0-.13a.13.13 0 0 1-.02-.07c-.01-.12.04-.2.17-.24.02 0 .03-.02.04-.04v-.04l-.02-.01-.5.04-.07-.01c-.07-.05-.13-.19-.17-.41a2.08 2.08 0 0 1-.04-.44c0-.1.06-.22.15-.37a.09.09 0 0 1 .07-.05l.16-.01a.1.1 0 0 0 .1-.08.1.1 0 0 0-.03-.12c-.08-.07-.2-.14-.36-.21a.12.12 0 0 1-.07-.13c0-.1.02-.22.05-.36.02-.12.12-.27.3-.43a1.25 1.25 0 0 0 .24-.26l.09-.21c.01-.25.1-.51.24-.8.05-.09.05-.19 0-.3a1.36 1.36 0 0 0-.15-.24c-.17-.23-.3-.5-.36-.84a.94.94 0 0 1 .09-.63.08.08 0 0 1 .08-.04c.03 0 .06.02.07.05l.2.55c0 .02.01.02.03.03.03 0 .05.04.06.09 0 .03.01.06.05.08.08.04.14.17.17.4.02.1.09.21.21.37.04.04.12.09.25.14.16.06.22.22.2.46l-.03.28c0 .08.02.17.06.28.08.24.15.47.2.7.05.22.06.38.04.5-.02.07-.02.1-.01.12l.02.06.05.1c.1.44.27.85.5 1.22Z" fill="#E72723"/><path d="M40.3 15.44a.13.13 0 0 1 .07-.06c.15-.06.26-.06.34.02.06.05.08.13.07.21 0 .11-.02.19-.03.24-.03.12-.1.2-.2.23-.13.03-.2 0-.26-.1a.56.56 0 0 1 .02-.54Z" fill="#726260"/><path d="M38.37 16.97a8.03 8.03 0 0 1-.3-.22.12.12 0 0 1-.03-.07c-.03-.13-.03-.22 0-.29l.28-.51a.05.05 0 0 1 .04-.03c.02 0 .04.01.05.03l.03.06.07.13.37.43c.05.06.1.2.14.41.01.08 0 .16-.02.26a2 2 0 0 0-.05.26c-.01.1-.05.1-.1.02a1.34 1.34 0 0 0-.48-.48Z" fill="#F6E53C"/><path d="M40.6 16.56c0 .19.1.34.24.34.14 0 .25-.15.25-.34 0-.19-.1-.34-.24-.34-.14 0-.25.15-.25.34Z" fill="#815222"/><path d="M36.17 21c-.07.03-.13.02-.18-.02a.63.63 0 0 1-.12-.15 1.22 1.22 0 0 0-.06-.08c-.02-.03-.04-.03-.07-.02-.03.02-.06.05-.07.11 0 .03-.02.05-.05.07-.18.14-.36.14-.55.02.1.03.2.03.3.01a.3.3 0 0 0 .22-.17c.07-.12.1-.27.1-.45a7.28 7.28 0 0 0-.16-1.52l-.2-.9c-.06-.3-.16-.59-.28-.88-.01-.03 0-.08.01-.15a.14.14 0 0 1 .07-.09c.04-.02.08-.01.1.04l.2.71c.04.15.09.3.16.44.1.24.17.39.17.43.1.8.13 1.47.1 2a.73.73 0 0 0 .02.22c.03.13.05.2.08.25.04.07.12.11.21.14Z" fill="#B59B87"/><path d="M38.43 17.98c-.6-.14-1.02 0-1.25.4a.26.26 0 0 1 .03-.18.63.63 0 0 0 .07-.16v-.09c0-.07 0-.12.03-.15a.2.2 0 0 1 .2-.11l.56.05c.12.01.24.1.36.24Z" fill="#7E3313"/><path d="M38.43 17.98c.02.22.03.44.01.66 0 .08 0 .15.02.2.01.07.04.13.06.2.03.06.02.11-.04.16-.09.08-.26.12-.5.14l-.12.01a.06.06 0 0 0-.05.05c-.03.1-.07.15-.15.16-.07.01-.14-.01-.2-.07-.14-.11-.24-.22-.32-.33a.12.12 0 0 1-.03-.09l.07-.7c.23-.4.65-.53 1.25-.39Z" fill="#E72723"/><path d="M41.25 17.98h-.03c-.1 0-.18.1-.17.2l.02.3c.01.1.1.18.2.17h.04c.1-.01.18-.1.17-.21l-.03-.3a.19.19 0 0 0-.2-.16Z" fill="#726260"/><path d="M34.87 20.86a2.82 2.82 0 0 1-.33-.05h-.06l-.03.03c0 .03-.02.04-.05.04l-.7-.05c-.08-.01-.15 0-.23.01l-.47.1c.27-.2.3-.4.06-.59-.11-.1-.26-.17-.43-.21l-.88-.2c-.09-.01-.11-.06-.07-.14l.05-.07a.22.22 0 0 1 .22-.12c.37.03.6.09.72.17l.42.29c.1.07.24.14.44.23.15.06.27.11.34.16.07.04.24.1.5.19.17.05.34.12.5.2Z" fill="#E4B677"/><path d="m41.25 20.35.1.21a.38.38 0 0 1-.08.18 18.17 18.17 0 0 0-.6.68c-.13.05-.25.12-.35.2a.13.13 0 0 1-.07.04 1.8 1.8 0 0 0-.48.11l-.8.5a.41.41 0 0 1-.03-.17c-.05-.22 0-.4.11-.52a31.35 31.35 0 0 1 .51-.5c.12-.08.22-.13.31-.16.32-.08.63-.19.95-.32.07-.02.14-.06.22-.12.07-.06.14-.1.21-.13Z" fill="#F6E53C"/><path d="M41.68 20.77c-.16.15-.26.32-.32.5-.05.02-.1.08-.14.18v-.13c0-.07 0-.11-.03-.13-.03-.02-.07-.02-.12-.02a.07.07 0 0 0-.07.05.76.76 0 0 1-.15.23.28.28 0 0 0-.07.1v.19c.01.17-.07.45-.25.84a.1.1 0 0 1-.05.05 2.1 2.1 0 0 1-1.2.15c-.03 0-.03.02-.01.04.12.11.21.17.28.18.3.03.61-.03.97-.18a.88.88 0 0 1-.56.3.13.13 0 0 0-.07.04.7.7 0 0 1-.49.2c-.05 0-.09.02-.13.04-.05.04-.08.08-.08.12 0 .14.06.23.2.26.14.04.29.04.42.02.17-.03.31-.04.42-.03.2 0 .37-.02.51-.08a.47.47 0 0 1 .25-.03l.25.03c.13 0 .2-.05.2-.17 0 .06.03.1.09.16a.2.2 0 0 1 .05.15c0 .05-.01.11-.05.16-.01.02-.08.04-.19.07-.04 0-.06.03-.07.05 0 .04 0 .06.04.06.12.02.21 0 .28-.03a.12.12 0 0 1 .11 0c.04.01.06.04.08.07.12.33.13.68.04 1.05a1.64 1.64 0 0 0-.44-.49.9.9 0 0 0-.36-.11 7.07 7.07 0 0 0-.68-.04.11.11 0 0 0-.08.03.3.3 0 0 0-.09.14c-.04-.02-.05-.05-.03-.08a.4.4 0 0 1 .3-.18c.1 0 .16-.06.18-.16l.02-.09c.02-.1-.01-.14-.1-.11-.17.04-.33.1-.5.2a.14.14 0 0 0-.05.07c-.06.13-.17.16-.32.1a.78.78 0 0 1-.2-.17.57.57 0 0 1-.12-.24 2.8 2.8 0 0 0-.37-.73.82.82 0 0 1-.08-.76l.05-.05.03-.01c.03-.01.04-.03.02-.06a.29.29 0 0 1-.03-.24l.8-.5c.05-.04.2-.08.48-.12.02 0 .05-.01.07-.03.1-.1.22-.16.35-.21a18.17 18.17 0 0 1 .6-.67c.04-.05.07-.11.08-.19v.17c0 .03.02.05.05.05h.28Z" fill="#C13223"/><path d="m41.36 21.27-.13.47a.1.1 0 0 0 .03.1c.05.04.1.03.15-.04.05-.08.13-.17.22-.27a.1.1 0 0 1 .07-.04c.27-.02.44-.02.51 0 .24.1.5.18.75.22.1.02.17.07.23.15l.54.68c.1.12.19.23.25.34.1.18.16.3.17.39.02.2.06.35.1.45.05.11.16.31.34.6.05.09.1.2.12.35a4.29 4.29 0 0 0 .05.2 1 1 0 0 0 .41.3 13.14 13.14 0 0 1 1.2.46c.3.07.5.16.6.28.02.02.03.05.03.07 0 .1-.04.18-.12.22a.08.08 0 0 1-.08 0c-.09-.03-.2-.1-.35-.21a1.68 1.68 0 0 0-.35-.2c-.27-.1-.56-.16-.86-.18l.08-.03c.03-.01.04-.03.05-.06 0-.03 0-.06-.04-.08a6.53 6.53 0 0 0-.4-.2.75.75 0 0 1-.34-.36l-.12-.24a2.24 2.24 0 0 0-.4-.47.63.63 0 0 1-.2-.27l-.08-.38a2.56 2.56 0 0 0-.26-.67c-.08-.12-.18-.19-.28-.2-.16-.03-.28-.15-.37-.37a.97.97 0 0 0-.3-.18c-.19-.07-.27-.2-.26-.38 0-.03-.01-.06-.05-.08-.15-.06-.31-.09-.47-.08-.07 0-.12.01-.14.03-.04.04-.06.1-.04.18.01.09 0 .16-.07.22l-.21.22a.12.12 0 0 1-.08.03c-.08.02-.14 0-.17-.06-.02-.03-.02-.07 0-.15l.13-.58c.04-.1.09-.16.14-.18Z" fill="#E4B43A"/><path d="M30.7 21.38c.1-.02.18-.04.25-.04.16-.01.25.06.3.22.02.13.07.27.14.41.08.17.13.28.15.36.02.12.03.25.02.38 0 .03-.02.06-.05.08a.09.09 0 0 1-.09 0 1.1 1.1 0 0 1-.32-.33c-.09-.13-.2-.26-.35-.4a.84.84 0 0 1-.23-.39c-.04-.16.02-.25.17-.29Z" fill="#F6E53C"/><path d="M27.77 21.33c.37.07.37.3-.01.66l-.31.22a.14.14 0 0 1-.08.02l-.96.01a236.84 236.84 0 0 1-6.64-.01c-.17-.01-.38.02-.65.08h-.03c-.04.01-.06 0-.07-.03-.01-.05 0-.13.04-.21l.22-.33a.6.6 0 0 1 .3-.24c.15-.04.3-.06.48-.05l.43.03a91.85 91.85 0 0 1 4.25.01h.55c.12 0 .3 0 .54-.02.5-.04.99-.05 1.48-.05.09 0 .24-.03.46-.09Z" fill="#E2CACD"/><path d="M34.03 25.44c-.09.12-.11.23-.08.33-.25-.19-.48-.4-.7-.63-.09-.1-.19-.18-.29-.25a5.03 5.03 0 0 1-.28-.2c-.02-.03-.03-.06-.01-.09l.37-.65a.07.07 0 0 0 0-.07.06.06 0 0 0-.05-.03l-.43-.03c-.03 0-.05 0-.07.03a.08.08 0 0 0-.02.07c.02.1.06.16.1.18.08.04.1.1.05.17-.17.25-.36.3-.57.15a8.02 8.02 0 0 1-.45-.39.13.13 0 0 1-.04-.1.62.62 0 0 0-.1-.33c-.03-.02-.05-.03-.08-.01a.53.53 0 0 0-.08.06c-.07.07-.13.1-.18.1-.14.02-.24-.05-.3-.18a3.83 3.83 0 0 0-.2-.46.14.14 0 0 0-.08-.06 1.1 1.1 0 0 1-.41-.31.89.89 0 0 1-.13-.22l-.11-.22c-.04-.05-.1-.08-.2-.1-.05 0-.08-.04-.1-.1V22c0-.04.02-.07.07-.06l.2.01a10.78 10.78 0 0 0 .38.28c.06.05.15.15.27.32.19.27.45.48.77.64.1.05.21.06.36.04.5-.08.91-.15 1.25-.22.03-.01.06-.03.06-.07.02-.06-.01-.1-.09-.12-.23-.06-.4-.12-.5-.16a.15.15 0 0 1-.07-.05c-.08-.1-.12-.3-.14-.57-.01-.24.07-.4.23-.47a1.51 1.51 0 0 1 .63-.05c.05 0 .1-.01.12-.03a.28.28 0 0 0 .07-.07.07.07 0 0 1 .06-.04c.09 0 .15 0 .19.02a.4.4 0 0 1 .15.08c.23.18.33.48.3.89a.6.6 0 0 1-.22.43l-.2.16a.66.66 0 0 0-.15.38c0 .06.01.1.05.15.04.04.1.07.15.07h.56c.12 0 .22.03.32.08l.3.15c.06.03.1.07.1.14 0 .13-.04.24-.12.34l-.13.17a.5.5 0 0 0-.12.19.86.86 0 0 1-.22.29.06.06 0 0 0-.01.07c0 .02 0 .04-.03.05a.17.17 0 0 0-.06.06c-.05.09-.14.19-.26.3v.02c0 .01 0 .02.02.02h.15Z" fill="#E72723"/><path d="M27.76 22c-.04.21-.02.44.04.67a.2.2 0 0 0 .14.15l.36.14c.15.07.21.18.2.35l.02.02c.31.04.53.1.66.2l-.74-.17c-.02-.1-.04-.17-.07-.2a1.85 1.85 0 0 0-1.02-.32 394.5 394.5 0 0 0-2.5-.03 55.93 55.93 0 0 0-4.89.08c-.23.02-.45 0-.65-.04-.1-.02-.18-.11-.22-.26-.01-.03 0-.05.02-.07a.9.9 0 0 1 .63-.21 84.48 84.48 0 0 0 5.04-.05c.55.02 1.09.01 1.63-.02h.96c.03 0 .05-.02.08-.03l.31-.22Z" fill="#726260"/><path d="M19.06 22.07c-.04.08-.05.16-.04.2.01.04.03.05.07.05l.03-.01c.27-.06.48-.1.65-.08h1.34a237.44 237.44 0 0 0 3.67.03l-.2.02-.13.01c-1.7.05-3.28.06-4.7.02a.9.9 0 0 0-.64.2.07.07 0 0 0-.02.08c.04.15.11.24.22.26.2.04.42.06.65.04 1.63-.1 3.25-.12 4.88-.08a47.46 47.46 0 0 0 2.5.03c.38 0 .72.1 1.03.32-.28-.05-.49-.07-.63-.06-.66.08-1.1.12-1.32.12l-5.82.07c-.64 0-1.13 0-1.47-.02-.35-.02-.65.07-.88.27h-.04c.15-.3.3-.58.48-.86l.16-.32a1 1 0 0 1 .2-.3Z" fill="#9B908F"/><path d="M38.3 24.63c.04.15.04.32 0 .51-.02.04-.03.06-.06.07a.08.08 0 0 1-.09-.02 1.75 1.75 0 0 1-.18-.22l-.47-.88a3.1 3.1 0 0 0-.2-.31 1.55 1.55 0 0 0-.25-.25 6 6 0 0 1-.1-.1.84.84 0 0 1-.18-.24c-.06-.12-.12-.2-.17-.27a.1.1 0 0 1-.03-.08c0-.05-.01-.13-.04-.23a.9.9 0 0 1 0-.43c.02-.11.06-.12.11-.01.06.1.1.23.15.4 0 .02.02.05.05.07.24.2.37.35.4.44v.03c.08.23.15.4.23.5l.46.63c.05.06.12.13.21.2.1.07.15.13.16.19Z" fill="#3D6262"/><path d="M41.52 22.6c.06-.12.12-.2.2-.27.05-.05.12-.05.18 0 .26.2.36.46.3.77 0 .05-.03.08-.08.1-.12.01-.2.07-.25.15a.07.07 0 0 1-.06.03.07.07 0 0 1-.06-.03 2.6 2.6 0 0 1-.25-.48.33.33 0 0 1 .02-.27Z" fill="#5B8BB2"/><path d="M43.53 22.85c-.16-.11-.3-.15-.45-.12-.03 0-.04.02-.04.05 0 .04 0 .08.04.1.02 0 .03.02.04.04.06.12.16.25.31.38a.1.1 0 0 1 .03.07c0 .2.02.33.06.41.06.16.1.3.13.42a.1.1 0 0 0 .04.08c.19.13.3.23.37.31.09.13.12.29.08.48 0 .02-.02.04-.05.05l-.06.02c-.25.08-.43.09-.54.01.23.02.41-.06.55-.22.07-.09.08-.18 0-.27-.08-.12-.18-.16-.3-.13-.1.02-.15.1-.2.2a.95.95 0 0 0-.04.4l-.04-.38a.17.17 0 0 0-.02-.07.82.82 0 0 1-.14-.3l-.01-.1c-.03-.23-.06-.4-.09-.5a.97.97 0 0 0-.24-.4c-.05-.06-.08-.14-.07-.24v-.63l-.01-.23c.09.22.2.34.37.37.1.01.2.08.28.2Z" fill="#815222"/><path d="M41.44 23.52c0 .12-.07.18-.2.17l-.25-.03a.46.46 0 0 0-.25.03c-.14.06-.31.09-.51.08-.1 0-.25 0-.42.03a1.1 1.1 0 0 1-.43-.02c-.13-.03-.2-.12-.2-.26 0-.04.04-.08.1-.12a.24.24 0 0 1 .12-.04.7.7 0 0 0 .49-.2.13.13 0 0 1 .07-.03c.22-.03.4-.14.56-.31.14-.06.23-.19.26-.37 0-.03.02-.04.04-.04s.03 0 .04.02l.1.15c.27.37.43.69.48.94Z" fill="#F6E53C"/><path d="M28.94 22.82c.01.1.09.18.16.17.08-.01.13-.1.11-.21-.01-.1-.09-.18-.16-.17-.08.01-.13.1-.11.21Z" fill="#896C4B"/><path d="M29.6 23.38c.08.12.23.16.33.08.1-.07.1-.23.02-.35-.1-.12-.25-.16-.35-.08-.1.07-.1.23 0 .35Z" fill="#5B8BB2"/><path d="M28.37 23.16c.03.03.05.1.07.2.02.07.05.12.1.14.15.1.14.15-.04.17a11.78 11.78 0 0 1-.8.07h-6.23c1.12-.03 2.23-.05 3.35-.04a93.61 93.61 0 0 0 3.63-.09c.03 0 .03-.01.02-.04l-.16-.28a.18.18 0 0 0-.17-.1.18.18 0 0 0-.17.1l-.1.18a.06.06 0 0 1-.06.03 67.4 67.4 0 0 0-1.71-.01 73 73 0 0 1-1.6-.02l-1.95-.03-3.69.05c-.2 0-.4.02-.61.05.23-.2.53-.29.88-.27.34.02.83.02 1.47.02l5.82-.07c.21 0 .66-.04 1.32-.12.14-.01.35 0 .63.06Z" fill="#E2CACD"/><path d="M21.47 23.74h-2.73l-.31.04c-.15.02-.26-.01-.31-.09l.1-.15h.03c.2-.03.4-.04.61-.05l3.69-.05c.43 0 1.08 0 1.96.03l1.59.02 1.7.01c.03 0 .05 0 .06-.03l.1-.18c.05-.07.1-.1.18-.1.07 0 .13.03.17.1l.16.28c.01.03 0 .04-.02.04a25.08 25.08 0 0 0-.82.07 139.98 139.98 0 0 0-2.81.02c-1.12 0-2.23 0-3.35.04Z" fill="#F3E7DA"/><path d="M29.18 23.53c.13.09.24.2.32.34l.02.08c-.02.25.02.4.13.47.1.05.19.07.29.06l.19.01c.06.03.1.09.1.16 0 .03.02.05.04.07.27.2.5.34.66.43.1.05.18.12.25.19.08.08.16.14.25.2.1.06.22.15.34.25.12.1.24.18.35.25.06.04.12.1.18.19.09.12.2.23.37.32-.28-.05-.55-.1-.81-.13a3.84 3.84 0 0 0-.82 0c-.28.03-.62.04-1.02.03-.07 0-.11.04-.12.11v.13c-.01.08.02.11.1.1.22-.03.49-.04.8-.05h.8c.2-.01.52.02.97.09.54.08 1.19.05 1.94-.11-.23.1-.4.17-.52.19-.41.07-1.01.07-1.8 0a6.59 6.59 0 0 0-.98.02c-.62.05-1.09.03-1.4-.05.02-.32 0-.63-.05-.95a.8.8 0 0 0-.2-.42 1.48 1.48 0 0 0-.35-.24.15.15 0 0 0-.09-.02 12 12 0 0 0 1.42.05c.19.05.21 0 .08-.13l-.38-.33a.78.78 0 0 0-.27-.15 1.52 1.52 0 0 0-.3-.06 10.57 10.57 0 0 0-1.55.05c-1.35.05-2.69.08-4.03.08l-1.69.01-3.93.1a5 5 0 0 1-.53 0 38.7 38.7 0 0 1-.55-.05c-.03 0-.05.01-.07.04l-.04.06-.05.02c.07-.27.21-.5.42-.68a.59.59 0 0 1 .14-.08.3.3 0 0 0 .2-.24c.01-.12.06-.2.13-.25.05.08.16.1.31.09l.31-.04h8.96a10.09 10.09 0 0 0 .8-.07c.18-.02.2-.08.04-.17-.05-.02-.08-.07-.1-.14l.74.17Z" fill="#83736A"/><path d="M42.1 23.78c-.06-.1-.07-.23-.02-.37a.08.08 0 0 1 .06-.06c.11-.03.2 0 .28.12.06.09.1.2.11.33l.05.29c.06.19.1.37.13.54.01.07-.01.12-.08.15l-.04.01c-.08.03-.13 0-.15-.09a.93.93 0 0 0-.13-.4.9.9 0 0 1-.17-.44.16.16 0 0 0-.03-.08Z" fill="#5B8BB2"/><path d="M30.95 24.46c.05.08.14.12.2.08.05-.04.06-.14.01-.22-.05-.08-.14-.11-.2-.07-.06.04-.07.13-.01.21Z" fill="#896C4B"/><path d="M34.86 25.44c-.23.23-.44.41-.65.54-.06.04-.12.02-.18-.08l-.08-.13c-.03-.1 0-.21.08-.33l.22-.23c.18-.2.32-.33.43-.4a.82.82 0 0 0 .21-.21c.06-.1.14-.16.22-.2.2-.08.39-.1.58-.06.03.01.05.03.05.07.01.15 0 .26-.01.33-.02.08-.09.16-.2.24l-.67.46Z" fill="#F6E53C"/><path d="M43.5 25.15v-.01a.95.95 0 0 1 .05-.4c.04-.12.1-.19.19-.2.12-.04.22 0 .3.12.08.09.07.18 0 .27a.62.62 0 0 1-.55.22Z" fill="#E4B43A"/><path d="M28.82 25.21a.37.37 0 0 1-.22.11c-.23.09-.42.12-.55.11-.64-.05-1.28-.07-1.93-.05l-1.68.04c-.63 0-1.26.02-1.88.05a108.86 108.86 0 0 1-2.74.11l-1.15.08c-.56.03-1.13.03-1.7 0a.06.06 0 0 0-.06.03.06.06 0 0 0 0 .07 4 4 0 0 1 .06.08c.05.08.12.12.2.11a33.84 33.84 0 0 1 3.87-.04c.42 0 .98.02 1.69.05 1.34.05 2.69.05 4.03.01.16 0 .46-.02.9-.06a.6.6 0 0 1 .47.2l-.09.5a1.43 1.43 0 0 1-.65.1c-.56-.04-.99-.06-1.28-.06-1.44.02-2.7.02-3.8-.01-1.45-.04-2.6-.04-3.43 0-.76.02-1.3.03-1.64.02-.15 0-.3.01-.48.04-.15.02-.3.02-.49 0a.05.05 0 0 1-.04-.03.05.05 0 0 1 0-.05l.73-1.3c-.04.09-.04.15.02.19.02.01.05.02.07 0 .5-.19.93-.28 1.28-.28h9.53c.14 0 .34-.04.6-.1.03-.01.05-.03.05-.06a.1.1 0 0 0 0-.03c0-.03-.02-.05-.05-.05h-7.32a67.18 67.18 0 0 1-2.95-.06 7.44 7.44 0 0 0-.91 0l.04-.07a.07.07 0 0 1 .07-.04l.55.04c.16.02.34.02.53.01a593.4 593.4 0 0 1 5.62-.11 111.79 111.79 0 0 0 5.57-.13c.06 0 .17.02.3.06.1.03.19.08.28.15l.38.33c.13.13.1.18-.07.13h-.22c-.5 0-1-.03-1.51-.09Z" fill="#B59B87"/><path d="M35.87 25.93c-.13.02-.21.13-.25.33a1.07 1.07 0 0 0-.4-.54.15.15 0 0 0-.07-.03l-.48-.04c-.02 0-.03 0-.04.02l-.36.36a.1.1 0 0 1-.07.04c-.1 0-.16-.05-.17-.17.06.1.12.12.18.08.2-.13.42-.3.65-.54l-.01.05a.1.1 0 0 0 .08.04c.03 0 .06 0 .09-.03.2-.2.43-.33.68-.42.03-.01.04-.03.05-.06.06-.2.2-.35.4-.4.13-.05.24 0 .33.16.04.06.03.13-.01.2a.9.9 0 0 1-.43.32.07.07 0 0 0-.05.05.53.53 0 0 0-.01.17c0 .03 0 .06-.02.08a.66.66 0 0 1-.22.22c-.02.02-.03.04-.02.06 0 .03.01.05.04.05h.11Z" fill="#E72723"/><path d="M41.82 25.26c.1.23.12.5.06.78 0 .03-.02.04-.05.03a1.95 1.95 0 0 1-.73-.47c-.14-.16-.29-.3-.43-.4l-.5-.41a.3.3 0 0 1 .09-.14.11.11 0 0 1 .08-.03c.22 0 .45.02.68.04a.9.9 0 0 1 .36.11c.12.07.27.23.44.49Z" fill="#F6E53C"/><path d="m16.96 25.33.27-.39.05-.02a7.44 7.44 0 0 1 1.23.02l1 .03 1.63.02h7.32c.03 0 .05.02.05.05a.1.1 0 0 1 0 .03c0 .03-.02.05-.05.06-.26.06-.46.1-.6.1h-9.53c-.35 0-.78.1-1.28.29a.08.08 0 0 1-.07-.01c-.06-.04-.06-.1-.02-.18Z" fill="#F3E7DA"/><path d="M37.13 25.28c.06.39-.05.78-.34 1.18-.07.08-.11.17-.15.26l-.1.28a.12.12 0 0 1-.1.07c-.05.01-.09 0-.11-.04l-.2-.25a8.02 8.02 0 0 0-.08-.05 1.09 1.09 0 0 1-.34-.3 2.26 2.26 0 0 1-.09-.18c.04-.2.12-.3.25-.32.18-.03.32-.1.44-.21a.71.71 0 0 0 .16-.3c.04-.11.07-.19.1-.23.06-.1.14-.13.24-.1.1.02.2.09.32.19Z" fill="#F6E53C"/><path d="M38.8 26c.17.16.25.33.24.52-.02.35-.02.76 0 1.22l.05.35c.03.21-.06.35-.28.4-.06-.2-.1-.42-.14-.66a1.32 1.32 0 0 0-.12-.4c-.1-.21-.23-.43-.35-.63a1.4 1.4 0 0 1-.18-.35 5.34 5.34 0 0 0-.14-.4.48.48 0 0 1-.13-.6c.01-.03.04-.04.07-.04.04 0 .06.02.07.05l.15.4c0 .03.03.05.05.05.13.03.24.04.32 0 .03 0 .05-.02.05-.05.01-.12 0-.25-.05-.4-.04-.16 0-.27.14-.32.02 0 .05 0 .06.03.15.24.22.51.2.83Z" fill="#B59B87"/><path d="m42.39 25.22.36.03c.06 0 .1.02.15.07.04.04.06.1.06.16v.1c0 .1-.05.17-.13.2l-.33.17a.21.21 0 0 1-.2-.01.21.21 0 0 1-.12-.17l-.03-.3c0-.07.01-.13.06-.18.05-.05.1-.07.18-.07ZM37.49 25.9a.22.22 0 0 1-.07-.07.08.08 0 0 0-.08-.03h-.03c-.03.01-.05.03-.05.07l.01.18c-.03-.02-.06-.03-.08-.02-.03 0-.04.01-.04.04l-.04.45c0 .03.01.06.04.09l.2.2c.02.02.04.02.05 0 .04-.06.05-.14.02-.24l.35 1.5c.07.1.12.15.17.18.02 0 .02.02 0 .03h-.03a.98.98 0 0 0-.2-.1l-.1-.19a.16.16 0 0 0-.11-.08.16.16 0 0 0-.14.03c-.09.07-.18.08-.29.02a.56.56 0 0 1-.2-.24l-.13-.23a.79.79 0 0 0-.17-.2c-.1-.08-.21-.15-.32-.2a.1.1 0 0 1-.06-.07l-.07-.24.2.25c.03.04.07.05.12.04.04 0 .07-.03.1-.07l.1-.28c.04-.09.08-.18.15-.26.29-.4.4-.8.34-1.18.05.06.1.16.12.3l.02.04.22.27Z" fill="#C13223"/><path d="M28.6 25.32c-.3.13-.45.4-.47.79a.6.6 0 0 0-.48-.2c-.43.04-.73.06-.89.06-1.34.04-2.69.04-4.03-.02l-1.69-.04c-.52 0-1.1 0-1.72-.02-.4-.01-1.1 0-2.14.06a.23.23 0 0 1-.21-.1l-.06-.1a.06.06 0 0 1 0-.06.06.06 0 0 1 .06-.04c.57.04 1.14.04 1.7 0l1.15-.07a215.5 215.5 0 0 1 2.74-.11 44.8 44.8 0 0 1 1.88-.05l1.68-.04c.65-.02 1.29 0 1.93.05.13.01.32-.02.55-.11Z" fill="#83736A"/><path d="M43.38 26.26c-.07 0-.15 0-.25.03a.42.42 0 0 1-.03-.31c.03-.12.1-.17.18-.16h.02c.16.04.28.02.37-.04.1-.07.24-.16.42-.25a.73.73 0 0 0 .13-.1c.05-.05.1-.08.16-.08.07-.01.13.02.17.07.04.06.04.12 0 .18-.02.05-.08.09-.18.13a1.03 1.03 0 0 0-.34.2.59.59 0 0 1-.15.07c-.2.05-.36.14-.5.26Z" fill="#815222"/><path d="M37.49 25.9c.07.27.14.45.18.53.2.32.36.64.52.96l.06.23h.02l.18.67c-.11.12-.34.05-.68-.21l-.35-1.51-.15-.52v-.18c-.01-.04 0-.06.04-.06h.03c.03 0 .06 0 .08.02.02.03.04.05.07.06Z" fill="#F6E53C"/><path d="m35.21 26.1.1.21a.2.2 0 0 1 0 .16.2.2 0 0 1-.1.12l-.17.07a.2.2 0 0 1-.17-.01.2.2 0 0 1-.1-.14l-.04-.19a.2.2 0 0 1 .05-.18l.1-.1c.04-.05.1-.07.18-.06a.2.2 0 0 1 .15.11Z" fill="#5B8BB2"/><path d="M38.65 31.34v-.25c0-.03-.02-.05-.05-.05a4.6 4.6 0 0 0-.82.04c-.14.02-.29 0-.45-.03-.03 0-.05 0-.07.03a.65.65 0 0 0-.1.24c0-.12-.02-.28-.06-.48a.8.8 0 0 1 .01-.3c.03-.14.08-.23.15-.27.04-.03.1-.05.17-.07.02 0 .05-.01.07-.03l.2-.2c.16-.15.17-.32.05-.5a.56.56 0 0 0-.12-.1c-.1-.07-.16-.14-.17-.19a.46.46 0 0 1 .04-.37c.06-.1.15-.21.26-.34a.11.11 0 0 0 .03-.08.32.32 0 0 0-.08-.2c.05 0 .12.04.2.09h.03c.02-.01.02-.02 0-.03a.68.68 0 0 1-.17-.17c.34.26.57.33.67.2.1.22.06.39-.1.52a.15.15 0 0 0-.04.06 1 1 0 0 1-.2.34.17.17 0 0 0-.04.13c0 .09.05.16.15.2.03.02.08.01.16-.02.23-.09.42-.17.54-.25a.08.08 0 0 0 .04-.07.82.82 0 0 0-.04-.33 3.5 3.5 0 0 1-.1-.37c.22-.05.31-.19.28-.4l-.05-.35c-.02-.46-.02-.87 0-1.22a.65.65 0 0 0-.24-.52c.19.1.3.24.33.4.02.07 0 .2-.03.37-.04.18-.05.3-.04.38.03.19.05.36.05.5a1 1 0 0 0 .07.33c.05.13.04.26-.03.4a.12.12 0 0 0-.01.08c.06.25.07.5.03.74-.01.05-.02.15-.02.31a.9.9 0 0 1-.09.4c-.04.08-.07.22-.1.4 0 .12-.05.25-.12.4-.08.2-.15.4-.2.63Z" fill="#6C4E36"/><path d="m34.54 26.65-.03.07c-.75.16-1.4.2-1.94.1a6.18 6.18 0 0 0-1.77-.08c-.31 0-.58.02-.8.05-.08 0-.11-.02-.1-.1v-.13c0-.07.05-.11.12-.1.4 0 .74-.01 1.02-.04.27-.03.55-.03.82 0 .26.03.53.08.8.13.38.07.65.08.82.04.33-.08.63-.21.89-.38a.11.11 0 0 1 .12 0c.05.02.07.05.06.1v.34Z" fill="#F3E7DA"/><path d="M34.54 26.65v.24c.01.08.04.15.08.23l.2.33c.02.17.07.33.15.48.1.17.16.3.19.37l.25.88c0 .03.02.05.05.06.05 0 .1 0 .17-.05a.09.09 0 0 0 .03-.06l.02-.09.04-.04h.06c.03 0 .05.03.05.06 0 .21.09.37.3.46.02.01.03.03.03.05l.03.35c0 .03.02.05.03.07l.1.12.14.16c.05.06.08.15.08.26l-.02.36.18.18c-1.03 0-1.67.01-1.94.03-.41.04-.9.06-1.5.06a90.97 90.97 0 0 1-2.65-.03c-.3.02-.58.02-.84 0-.31 0-.73 0-1.26.05a58.62 58.62 0 0 1-2.6.18c-.27.03-.47.04-.61.04-1.48 0-2.84.02-4.1.05a932.34 932.34 0 0 1-7.26-.03.38.38 0 0 0-.25.04c.09-.14.15-.28.2-.44 0-.02.04-.07.1-.13.07-.07.24-.1.5-.08a7.91 7.91 0 0 0 1.54 0 87.22 87.22 0 0 1 4.74-.03 10841.7 10841.7 0 0 1 8.17-.03c.27 0 .48-.04.62-.1.17-.07.27-.21.3-.43 1.64.1 3.42.1 5.36 0 .33-.02.58-.08.77-.18a.1.1 0 0 0 .05-.07c.06-.2.02-.36-.12-.45a.65.65 0 0 0-.41-.07c-.7.07-1.38.1-2.04.07-.8-.02-1.37-.02-1.69-.02-.46.02-1.05.01-1.79-.02-.03 0-.05.02-.05.05l-.07.2-.02-1.36.02.03a.68.68 0 0 0 .03.34c.01.03.03.04.06.05.7.02 1.44.02 2.2-.01l.99-.02c.54 0 .87 0 .99-.02.22-.03.41-.06.56-.1.1-.02.17.02.2.12.03.1.07.17.12.22.07.08.15.1.22.04a.07.07 0 0 0 .03-.07c-.07-.39-.13-.63-.18-.73-.15-.27-.3-.55-.44-.84-.02-.05-.05-.05-.08-.01a.82.82 0 0 0-.21.33c-.03.1-.1.16-.22.17h-1.72c-.25-.01-.68 0-1.29.04-.43.03-.86.04-1.29.03l-.03-1.06c.31.08.78.1 1.4.05.43-.03.76-.04.98-.02.79.07 1.39.07 1.8 0 .11-.02.29-.09.52-.2l.03-.06Z" fill="#896C4B"/><path d="M35.89 27.59a.43.43 0 0 1-.4-.17.99.99 0 0 1-.19-.41c0-.03 0-.06.02-.08.04-.08.1-.15.19-.2a.08.08 0 0 1 .07-.02c.24.1.36.26.37.5 0 .07.05.14.16.19l.18.18c.03.04.06.12.1.23a.5.5 0 0 0 .35.35l.2.07c.16.1.2.23.12.41-.04.1-.12.14-.24.12-.06-.01-.12-.06-.17-.14-.04-.06-.05-.16-.03-.3 0-.03-.01-.05-.05-.04-.34.03-.52-.1-.53-.38-.01-.16-.03-.25-.07-.28-.03-.03-.06-.04-.08-.03Z" fill="#5B8BB2"/><path d="M29.88 28.4c.15.02.25.03.3.02.35-.05.72-.08 1.08-.08.9 0 1.81 0 2.75-.02a3 3 0 0 0 .65-.1c.03 0 .04-.02.03-.04-.06-.12-.14-.17-.25-.18l-4.09-.04c-.18 0-.35.03-.52.08l.01-.1c.43.01.86 0 1.3-.03l1.28-.05h1.72c.12 0 .19-.05.22-.16.02-.1.1-.21.2-.33.04-.04.07-.04.1 0 .14.3.28.58.43.85.05.1.11.34.18.73 0 .03 0 .05-.03.07-.07.06-.15.04-.22-.04a.61.61 0 0 1-.12-.22c-.03-.1-.1-.14-.2-.12-.15.04-.34.07-.56.1-.12.02-.45.02-1 .02-.45 0-.78 0-.98.02-.76.03-1.5.03-2.2 0a.06.06 0 0 1-.06-.04.68.68 0 0 1-.02-.34Z" fill="#B29766"/><path d="M37.17 29.69c-.13-.13-.26-.17-.38-.12-.12.05-.17.17-.14.36.01.05.04.09.09.11.04.03.09.03.14 0 .1-.04.2-.11.27-.2a.7.7 0 0 1-.08.24.84.84 0 0 1-.15.22.63.63 0 0 1-.27.05c-.03 0-.05.01-.06.05l-.07.49c0-.13 0-.25.02-.36 0-.11-.03-.2-.08-.26a4.96 4.96 0 0 1-.27-.35l-.03-.35a.06.06 0 0 0-.04-.05c-.2-.1-.3-.25-.3-.46a.06.06 0 0 0-.04-.06h-.06a.08.08 0 0 0-.04.04l-.02.1c0 .02-.01.04-.03.05-.06.04-.12.06-.17.05a.06.06 0 0 1-.05-.05l-.25-.89a2.4 2.4 0 0 0-.19-.37c-.08-.15-.13-.3-.15-.48l.35.56c.02.03.04.03.07.02.13-.06.23-.04.3.06.26.35.47.59.63.7.12.08.26.2.4.38l.26.22c.16.11.28.21.34.3Z" fill="#494038"/><path d="m29.88 28.4-.03-.04-.02-.32c.17-.05.34-.08.52-.08 1.4 0 2.76.02 4.1.04.1 0 .18.06.24.18.01.02 0 .04-.03.05a3 3 0 0 1-.65.1h-2.75c-.36 0-.73.04-1.09.09-.04 0-.14 0-.3-.03Z" fill="#E2CACD"/><path d="m29.87 30.22-.01-.42a.18.18 0 0 0 .01-.07l.07-.2c0-.03.02-.05.05-.05.74.03 1.33.04 1.79.02.32 0 .88 0 1.69.02.66.02 1.34 0 2.04-.07.17-.02.31 0 .4.07.15.09.2.24.13.45a.1.1 0 0 1-.05.07c-.19.1-.44.16-.77.17-1.94.1-3.72.1-5.35 0Z" fill="#EBCF92"/><path d="m39.06 29.7-.08.33a.2.2 0 0 1-.1.14.2.2 0 0 1-.16.02l-.15-.05c-.1-.03-.15-.1-.15-.2v-.19c0-.09.03-.16.12-.2l.23-.1a.2.2 0 0 1 .22.03c.07.05.1.12.07.21Z" fill="#F3E7DA"/><path d="m37.17 29.69-.02.14a.73.73 0 0 1-.27.22.15.15 0 0 1-.14 0 .16.16 0 0 1-.09-.12c-.03-.2.02-.3.14-.36.12-.05.25 0 .38.12Z" fill="#E4B677"/><path d="M29.86 29.8v.42c-.03.22-.13.36-.3.43-.14.06-.35.1-.62.1l-1.42.01-5.99.04c.43-.04.86-.07 1.3-.07l4.65-.06c.49 0 .98-.05 1.49-.11.25-.03.49-.1.7-.18.1-.05.15-.12.16-.24l.03-.34Z" fill="#6C4E36"/><path d="m38.65 31.34-.24.42-1.2-.01a.07.07 0 0 1-.06-.04.26.26 0 0 1-.03-.1l.05-.3c.02-.09.05-.16.1-.23a.06.06 0 0 1 .06-.03c.16.04.31.05.45.03.26-.04.54-.05.82-.04.03 0 .04.02.04.05v.25Z" fill="#EBCF92"/><path d="m36.7 31.07.09.58a.37.37 0 0 1-.06.1.09.09 0 0 1-.07.04 52.84 52.84 0 0 1-3.62.01l-.27.01a550 550 0 0 1-4.35.04c-.3 0-.74 0-1.33-.02-.68-.02-1.18-.02-1.5-.02-1.4.03-2.62.03-3.63.01h-1.69c-.56.02-1.28.02-2.14.02-.2 0-.92.04-2.14.13a9.3 9.3 0 0 1-1.49.02h-.47c-.29.02-.5.02-.64 0 .06-.2.16-.38.3-.53a.38.38 0 0 1 .25-.04c.07.02.16.03.27.03a932.34 932.34 0 0 0 6.99 0c1.26-.03 2.62-.04 4.1-.05.14 0 .34-.01.6-.04l.48-.04a58.4 58.4 0 0 0 2.13-.14c.53-.04.95-.06 1.26-.04h.84c.11-.02.4-.01.84 0l1.81.02c.6 0 1.09-.02 1.5-.06.27-.02.91-.03 1.94-.03Z" fill="#E4B677"/><path d="M37.12 31.6c0 .05.02.08.03.1.02.04.04.05.07.05l1.2.01c-.08.1-.15.22-.2.35-.08.16-.15.28-.2.34-.12.14-.23.3-.32.45-.1.15-.2.3-.33.45-.29.34-.59.64-.9.9-.18.01-.34.04-.5.08l-.5.1c-.39.03-.74.04-1.05.04a461.26 461.26 0 0 0-6.61.02 474 474 0 0 1-6-.02c-.16 0-.41 0-.77.02l-.89.02-1.04.01c-.55.02-.96.02-1.24.01a22.2 22.2 0 0 0-2.1.02c-.48.03-1.15.05-1.99.06l-1.2.02c-.1 0-.3-.02-.62-.08l.52-.97c0 .1.04.16.09.16 2.2 0 4.7-.1 7.52-.3.66-.04 1.22-.07 1.69-.07a350.08 350.08 0 0 1 7.4-.02l3.62-.03c.34-.01.7 0 1.1.01l1.1.04h.79c.26 0 .52 0 .78.04.15.01.23-.04.25-.17a1 1 0 0 0 .01-.21l.07.2c.05.16.1.16.15 0l.02-.06c.09-.24.12-.42.1-.52a.73.73 0 0 0-.06-.15.7.7 0 0 1-.06-.33c0-.23.03-.42.07-.57Z" fill="#815B31"/><path d="M36.8 32.86a1.2 1.2 0 0 0-.7-.19l-.2.02c-.6.04-1.06.07-1.36.07-4.08.08-7.68.1-10.8.07a209.9 209.9 0 0 0-5.67.05c-.58.03-1.14.05-1.69.05l-2.79.05c-.2 0-.46-.02-.77-.06l.57-.92h.64c.22-.01.37-.02.47-.01a22.17 22.17 0 0 0 1.5-.02c1.21-.09 1.92-.13 2.13-.13l2.14-.01c.65-.01 1.2-.02 1.69 0 1.01.01 2.22.01 3.63-.02.32 0 .82 0 1.5.02.6.02 1.03.03 1.33.02a550.08 550.08 0 0 0 5.2-.05c.74.03 1.76.02 3.04 0l.07-.04a.37.37 0 0 0 .06-.11c.15.31.15.64.01.98a.5.5 0 0 0 0 .23Z" fill="#815B31"/><path d="m36.8 32.86.03.17a1 1 0 0 1 0 .21c-.03.13-.11.18-.26.17a6.46 6.46 0 0 0-.78-.04 34.42 34.42 0 0 1-1.9-.04 682.38 682.38 0 0 1-12.12.04c-.46 0-1.02.03-1.68.08a103 103 0 0 1-7.52.29c-.05 0-.09-.06-.1-.16.07-.24.19-.46.35-.66.3.04.56.06.77.06l2.8-.05c.54 0 1.1-.02 1.68-.05.33-.03.96-.04 1.88-.05h3.79c3.12.03 6.72 0 10.8-.07a27.42 27.42 0 0 0 1.56-.09c.22-.01.45.05.7.19Z" fill="#E4B677"/><path d="M36.46 34.25c-.17.23-.35.4-.56.53-.32.06-.58.1-.79.1-2.52 0-4.1.02-4.75.03-.81.02-1.68.06-2.61.12-.6.04-1.37.07-2.3.09l-1.68.05a151.65 151.65 0 0 1-4.06.05 22 22 0 0 1-.95.03 359.88 359.88 0 0 0-7.12.11c-.05 0-.07-.05-.05-.15.08-.25.2-.47.37-.66.32.06.52.08.62.08l1.2-.02c.84-.01 1.5-.03 1.99-.06a22.2 22.2 0 0 1 2.1-.02h1.24c.46-.02.8-.03 1.04-.02.19 0 .48 0 .89-.02.36-.02.61-.02.77-.02a474 474 0 0 0 6.17.02c.5-.01 2.65-.02 6.44-.02.31 0 .66-.01 1.05-.05.12 0 .28-.04.5-.09.16-.04.32-.07.5-.08Z" fill="#E89D4B"/><path d="m35.9 34.78-.25.28c-.1.1-.19.18-.3.22-.14.07-.3.16-.43.28a.21.21 0 0 1-.25.03.6.6 0 0 0-.26-.05c-.04 0-.05.02-.03.05a.1.1 0 0 0 .06.06l.11.06c.07.05.07.1 0 .16l-.35.3c-.2-.12-.4-.17-.62-.16-2.1.04-4.16.06-6.18.05-.54 0-1.37.02-2.5.05l-1.29-.01a12 12 0 0 0-1.3.01c-.3.03-.65.03-1.03 0h-1.04c-.66.03-1.14.04-1.45.04-1.14 0-2.08.02-2.81.1-.62.05-1.18.07-1.69.07-.7 0-1.67.02-2.9.07-.1 0-.25.03-.43.07l.63-1.25c-.02.1 0 .15.05.15l.78-.03H13c.56 0 1.13-.01 1.69-.03a94.58 94.58 0 0 1 4.06-.05l.95-.03c.47-.03.8-.03.96-.02a151.71 151.71 0 0 0 7.08-.17c.93-.06 1.8-.1 2.6-.12l4.76-.03c.2 0 .47-.04.8-.1Z" fill="#815222"/><path d="M28.81 35.18h-1.6l-.02.02c0 .02 0 .02.02.02h1.6c.02 0 .02 0 .02-.02 0 0 0-.02-.02-.02Z" fill="#815B31"/><path d="M34.2 36.17a1.9 1.9 0 0 1-1.2.63 38.8 38.8 0 0 0-2.63.01c-.98 0-2.01 0-3.1.02-1.17.02-2.03.01-2.6 0-.57-.03-1.13-.03-1.68 0a26 26 0 0 1-1.68.03l-.86.01h-.7a17.13 17.13 0 0 0-.74 0H15.94a87.5 87.5 0 0 0-3.3.06h-.86c-.33 0-.66.03-.98.07-.03 0-.05 0-.05-.03l-.03-.1.24-.4c.18-.05.32-.08.43-.08 1.23-.05 2.2-.08 2.9-.07.51 0 1.07-.02 1.69-.08.73-.07 1.67-.1 2.8-.1.31 0 .8 0 1.46-.02.44-.02.79-.02 1.04 0 .38.02.72.02 1.03 0a12 12 0 0 1 1.3-.02c.47.02.9.02 1.3 0l2.5-.04c2.01.01 4.07 0 6.17-.05.22 0 .42.04.62.16Z" fill="#E89D4B"/><path d="M33 36.8a.96.96 0 0 1-.47.05c-.05 0-.1 0-.13.03a.2.2 0 0 0-.09.12.37.37 0 0 1-.27.3l-.4.1c-.1.02-.22.08-.37.18-.17.11-.3.2-.37.23-.1.06-.22.1-.36.14-.1.02-.22.06-.37.13a3.3 3.3 0 0 1-1.04.28 42.25 42.25 0 0 0-1.5.2c-.57.17-.99.25-1.25.25-1.5-.02-3.01-.04-4.52-.04a49.76 49.76 0 0 1-2.08-.06c.27-.03.54-.04.8-.03l.17-.01a.74.74 0 0 1 .16-.03 62.3 62.3 0 0 0 2.66-.09l.4-.03a110.36 110.36 0 0 0 1.87-.03c1.06 0 1.71 0 1.96-.04.74-.1 1.43-.22 2.05-.37.23-.05.44-.13.64-.23.14-.08.14-.13-.02-.16a4.03 4.03 0 0 0-1.14-.04l-.73.11a10 10 0 0 1-1.65.2h-1.51a42.74 42.74 0 0 1-2.94-.02 22.1 22.1 0 0 0-1.42 0c-.75.03-1.5.04-2.25.03-.2 0-.5.01-.92.04a10.39 10.39 0 0 1-1.95 0c-.28-.02-.5-.02-.67-.02a221.32 221.32 0 0 1-3.38.02c-.13.02-.25.02-.36.02-.17 0-.35 0-.53.02l-.67.06c-.06.01-.14 0-.25-.03-.1-.03-.21 0-.32.08.13-.28.3-.53.5-.75a.62.62 0 0 1 .13-.1.89.89 0 0 0 .1-.06c.05-.04.1-.13.15-.25l.06-.12.03.09c0 .02.02.04.05.03.32-.04.65-.06.98-.07h.86a87.41 87.41 0 0 1 5.3-.06 35.5 35.5 0 0 0 1.19 0H20.45l.86-.01c.76 0 1.32 0 1.68-.02.55-.04 1.11-.04 1.69-.02.56.02 1.42.03 2.6 0a146.33 146.33 0 0 1 4.07-.01c.74-.02 1.3-.02 1.65 0Z" fill="#815222"/><path d="m19.78 38.7-1.08.02c-.21 0-.21 0 0 .01h.18v.01a653.48 653.48 0 0 1-5.16.05 92.16 92.16 0 0 1-3.9.02l-.18.01-.18.03c-.03 0-.05 0-.07-.04a.07.07 0 0 1 0-.08l.4-.57c.1-.08.2-.1.31-.08.11.03.2.04.25.03l.67-.06c.18-.02.36-.03.53-.02.11 0 .23 0 .36-.02l.35-.02a221.32 221.32 0 0 0 3.7.01l.67.03c.28.02.7.01 1.28-.02.41-.03.72-.04.92-.04.75 0 1.5 0 2.25-.02a22.1 22.1 0 0 1 1.42 0l1.42.04c.17 0 .67 0 1.52-.03h1.51a10 10 0 0 0 1.65-.2l.73-.11c.42-.04.8-.03 1.14.04.16.03.16.08.02.16-.2.1-.41.18-.64.23-.62.15-1.3.27-2.05.37-.25.03-.9.04-1.96.04a26.9 26.9 0 0 0-1.86.03l-.41.03c-.17.02-.3.04-.41.04-.56.03-1.3.04-2.25.05-.04 0-.1 0-.16.03a.58.58 0 0 1-.16.01c-.27 0-.54 0-.81.03Z" fill="#E89D4B"/></svg>