<!-- by TradingView --><svg width="56" height="56" viewBox="0 0 56 56" xmlns="http://www.w3.org/2000/svg"><path fill="#F0F3FA" d="M0 0h56v56H0z"/><path d="m47.24 34 .76-.66c-6.97-2.66-16.17-8.5-14.78-11.3 1.12-2.23 5.79-1.96 7.99-1.55-7.76-3.82-20.68-6.88-21.17-4.84-.5 2.05 3.45 6.58 11.8 11.2A119.6 119.6 0 0 0 47.23 34Z" fill="#DEB420"/><path d="M23.86 23.93v-.86c-4.31-.9-13.1-2.06-13.78.4-.84 3.09 4.75 5.18 13.02 9.4 6.62 3.37 17 4.82 21.36 5.13l.54-1.4c-15.28-1.86-24.86-9.72-24.86-11.26 0-1.24 2.48-1.45 3.72-1.4Z" fill="#6F0710"/><path d="M12 35.9c0-1.14 4.73-2.41 7.1-2.9-4.18 3.97 9.53 5.9 16.9 6.37-.32.2-1 .6-1.17.6C20.2 40.34 12 37.33 12 35.9Z" fill="#24034C"/></svg>