<!-- by TradingView --><svg width="56" height="56" viewBox="0 0 56 56" xmlns="http://www.w3.org/2000/svg"><path fill="#F0F3FA" d="M0 0h56v56H0z"/><path fill-rule="evenodd" d="M31.49 43c1.5 0 2.92-.58 4.25-1.16 1.55-.67 2.9-1.75 4.07-3.22a20.12 20.12 0 0 0 3.26-5.93 15.37 15.37 0 0 0-.88-12.51 11 11 0 0 0-4.86-4.8 20.29 20.29 0 0 0-7.54-2.27 42.52 42.52 0 0 0-4.99-.08c-3.24.1-6 .17-8.29.19-.33 0-.5.17-.49.5 0 0 .03 13.5 0 19.14 0 0-.05 5.42 0 9.92 0 .07.35.11.43.12 1.23.09 2.42.12 3.56.09l9.35.01h2.13Zm.69-25.27c-.32-.06-.53-.41-.45-.79.07-.37.4-.62.71-.55.32.06.53.41.45.79-.07.37-.39.62-.71.55Zm-3.34 1.49c-.24-.05-.38-.31-.32-.59.05-.27.29-.45.52-.4.24.05.38.32.32.59-.05.27-.29.45-.52.4Zm4.36 13.24c.1-.25.15-.56.16-.94 0-.14.06-.26.18-.34a.4.4 0 0 1 .36-.07l.97.24c.17.05.28-.02.31-.2.08-.4.12-.86.1-1.37-.06-3.12-.07-6.41-.04-9.88a.4.4 0 0 0-.25-.4c-.72-.35-1.67-.29-2.83.17-.36.14-.43.06-.23-.24.08-.12.29-.34.62-.65.7-.68 1.54-.76 2.5-.25.73.4 1.1 1 1.13 1.79.11 5.06.15 11.13.1 18.23 0 1.17-.53 2-1.58 2.48-.6.28-1.2.44-1.83.48-.9.05-2.54.08-4.91.09-4.36 0-7.6.07-9.72.2-.28.02-.42-.11-.42-.4l-.23-10.48c0-.2.1-.32.3-.34.1-.02.23.04.4.17l1.89 1.4c.35.24.7.37 1.04.4.1 0 .16-.04.18-.13.13-.58.18-1.14.14-1.7-.01-.11.03-.2.13-.26.1-.05.19-.05.28.01.73.5 1.52 1.05 2.36 1.67.12.1.4.23.8.4.33.14.53.03.6-.32.05-.21.1-.7.16-1.48 0-.06.03-.11.1-.14a.15.15 0 0 1 .17.03c.2.18.4.3.6.37.1.03.18.01.25-.05.26-.26.39-.55.39-.9.01-1.44 0-3.74-.02-6.9 0-.25-.12-.4-.36-.48-.82-.23-1.78.08-2.88.93-.25.2-.42.15-.49-.14-.01-.05.06-.16.21-.33.86-.93 1.8-1.37 2.83-1.32.99.06 1.46.66 1.43 1.82-.07 2.32-.06 4.62.05 6.93.06 1.19.52 1.73 1.4 1.62.11-.02.19-.08.22-.2l.21-.87c.04-.16.14-.2.29-.12l2.67 1.56c.12.07.2.04.26-.1ZM22.86 21.74c-.23-.1-.34-.4-.23-.67.11-.27.4-.42.63-.32.24.1.34.4.23.67-.11.27-.4.42-.63.32Zm-2.87.64c-.1.3.05.61.31.7.26.07.55-.1.64-.4.1-.3-.05-.62-.31-.7-.27-.08-.55.1-.64.4Z" fill="#5B5C61"/></svg>