<!-- by TradingView --><svg width="56" height="56" viewBox="0 0 56 56" xmlns="http://www.w3.org/2000/svg"><path fill="#F0F3FA" d="M0 0h56v56H0z"/><path fill-rule="evenodd" d="M43.7 34.5a16.84 16.84 0 0 0 0-13 16.85 16.85 0 0 0-9.2-9.2 16.84 16.84 0 0 0-13 0 16.85 16.85 0 0 0-9.2 9.2 16.84 16.84 0 0 0 0 13 16.85 16.85 0 0 0 9.2 9.2 16.84 16.84 0 0 0 13 0 16.85 16.85 0 0 0 9.2-9.2Zm-3.15-1.3a13.45 13.45 0 0 0 0-10.4 13.45 13.45 0 0 0-7.35-7.35 13.45 13.45 0 0 0-10.4 0 13.45 13.45 0 0 0-7.35 7.35 13.45 13.45 0 0 0 0 10.4 13.44 13.44 0 0 0 7.35 7.35 13.45 13.45 0 0 0 10.4 0 13.45 13.45 0 0 0 7.35-7.35ZM27.88 11.54h-.44a.03.03 0 0 0-.03.04l.05 2.39c0 .01 0 .03.02.03l.44-.01c.02 0 .03-.01.03-.03l-.05-2.4a.03.03 0 0 0-.02-.02Zm2.96 1.83c.03.12.05.11.06 0a19.65 19.65 0 0 1 .25-1.54l.39.07c.02 0 .03.01.03.03l-.38 2.35c0 .03-.02.04-.04.03l-.43-.06a.08.08 0 0 1-.06-.06 21.3 21.3 0 0 1-.53-1.77c-.01-.05-.02-.05-.03 0l-.26 1.66c0 .02-.02.02-.04.02l-.38-.06c-.02 0-.03-.02-.03-.04l.37-2.35c0-.02.02-.03.05-.03l.5.08c.02 0 .03.02.04.04.25.7.41 1.25.5 1.63Zm-7.63.58.24.74c0 .04 0 .06-.04.07l-.36.12c-.04.01-.06 0-.08-.04l-.72-2.2c0-.03 0-.05.03-.06.4-.2.72-.3.96-.3.37-.02.61.16.74.53.09.28.06.52-.1.72-.14.17-.35.3-.64.37-.03.01-.04.03-.03.05Zm-.36-1.09c-.02-.04 0-.07.04-.08l.16-.06c.1-.03.19-.02.27.02.1.05.15.11.18.2l.02.05c.03.1.02.18-.03.27a.36.36 0 0 1-.2.18l-.17.05c-.04.02-.07 0-.08-.04l-.2-.59Zm10.67-.36a.12.12 0 0 0-.06.07l-.84 2.07a.12.12 0 0 0 0 .1c.01.02.03.05.07.06l.63.26c.3.11.58.11.87 0 .29-.13.5-.33.6-.62l.1-.21c.11-.29.1-.58-.01-.86a1.1 1.1 0 0 0-.63-.61l-.63-.26a.12.12 0 0 0-.1 0Zm.34.55c-.03-.01-.05 0-.07.03l-.58 1.41c-.01.04 0 .06.03.07l.17.07a.68.68 0 0 0 .9-.39l.09-.21a.68.68 0 0 0 0-.54.65.65 0 0 0-.37-.37l-.17-.07Zm-13.83 2.2a18.62 18.62 0 0 1 .63-.39c.03-.01.05 0 .06.02l.48.8c.02.02.04.03.06.01l.35-.2c.03-.02.03-.05.02-.07l-1.21-2.02c-.02-.03-.04-.03-.07-.02l-.34.2c-.03.02-.04.05-.02.08l.44.73c.01.02 0 .04-.02.05a78.26 78.26 0 0 1-.63.38c-.02.02-.04.01-.05-.01l-.44-.73c-.02-.03-.05-.04-.08-.02l-.33.2c-.03.02-.04.05-.02.08l1.21 2.01c.02.03.04.04.07.02l.34-.21c.03-.02.04-.04.02-.07l-.48-.8c-.01-.01 0-.03.01-.05Zm17.22-.86-.37-.24a.03.03 0 0 0-.04.01l-1.3 2c-.02.01-.01.04 0 .05l.37.23h.04l1.3-2a.03.03 0 0 0 0-.05Zm-21.26 2.48a.12.12 0 0 1-.04-.09c0-.03.01-.06.04-.09l.49-.47c.23-.22.5-.33.81-.32.31 0 .58.11.8.34l.15.16c.22.22.32.5.32.8-.01.32-.13.59-.36.8l-.49.48a.12.12 0 0 1-.08.03.12.12 0 0 1-.1-.03L16 16.87Zm.6-.1c-.02-.02-.02-.05 0-.08l.14-.13c.14-.13.3-.19.49-.18.18.01.35.08.48.22l.16.17c.14.14.2.3.2.5 0 .18-.06.34-.2.47l-.14.13c-.02.03-.05.03-.08 0l-1.05-1.1Zm23.02-.43a30.31 30.31 0 0 1-.41-.4c-.02-.02-.04-.02-.06-.01l-2.12 1.25c-.03 0-.03.03 0 .05l.3.3c.01.03.04.03.07.01l.48-.28c.03-.02.06-.02.08 0a19.8 19.8 0 0 1 .37.37c.03.02.03.05.01.08l-.26.5c-.02.02-.01.04 0 .07l.33.28c.02.02.03.02.05 0l1.17-2.16c.01-.02 0-.04-.01-.06Zm-.54.13v-.01l-.02-.01h-.01c-.27.2-.52.36-.75.49-.04.02-.04.04-.01.07a41.12 41.12 0 0 1 .27.26c.03.02.05.02.07-.01a9.17 9.17 0 0 1 .45-.79Zm-24.59 5.8a.7.7 0 1 1-1.4 0 .7.7 0 0 1 1.4 0Zm27.67.84a.7.7 0 1 0 0-1.39.7.7 0 0 0 0 1.4Zm1.6 4.89c.1 0 .16.06.18.17.04.18 0 .37-.1.58v.02l.36.08.03-.01c.12-.28.15-.55.08-.8-.08-.31-.28-.46-.6-.47a.56.56 0 0 0-.45.19c-.07.08-.15.22-.25.44-.05.12-.12.18-.2.18-.15 0-.22-.1-.22-.26a.8.8 0 0 1 .1-.38c.01-.02 0-.03-.01-.03l-.34-.08h-.03a1 1 0 0 0-.05.77c.1.29.3.42.6.4.22 0 .38-.1.48-.3l.2-.37c.06-.1.13-.14.23-.13Zm-31.26.38.11-.12c.03-.03.05-.03.07 0 .1.17.25.27.44.29.18.02.32-.03.44-.14a.7.7 0 0 0 .2-.48c.02-.25.02-.47-.01-.66 0-.03-.02-.05-.05-.05l-1.96-.04c-.03 0-.05.01-.05.04v.33c0 .03.01.05.04.05l.73.02c.02 0 .04.01.04.03.02.13 0 .22-.07.29a.6.6 0 0 1-.27.1 10 10 0 0 0-.44.1c-.03 0-.04.02-.04.04v.36c0 .02 0 .03.02.03l.72-.15c.03 0 .06-.02.08-.04Zm.93-.72c0-.03-.01-.04-.04-.04h-.51c-.03 0-.04.01-.04.04v.15c0 .1.03.17.08.23.06.06.12.1.2.1h.02c.08 0 .15-.04.2-.1a.32.32 0 0 0 .09-.22v-.16Zm-1.2 2.32.41-.06c.03 0 .04 0 .04.03l.08.61c0 .03.02.04.04.03l.31-.04c.03 0 .04-.01.04-.04l-.1-.61c0-.03.01-.04.04-.05l.36-.04c.02 0 .04.01.04.04l.08.64c0 .02.02.04.04.03l.31-.04c.03 0 .04-.01.04-.04l-.15-1.07c0-.03-.02-.04-.04-.03l-1.98.28c-.02 0-.03.02-.03.04l.15 1.1c0 .03.02.04.04.03l.31-.03c.03 0 .04-.02.04-.04l-.1-.7c0-.02 0-.03.03-.04Zm31.1.23c0 .06 0 .13-.02.19 0 .02-.02.03-.05.03l-.24-.04c-.05-.01-.08-.05-.07-.1l.08-.52c.01-.06.05-.08.1-.07l.97.15c.02 0 .03.01.03.03.07.32.05.61-.05.88a.83.83 0 0 1-.64.56c-.3.06-.57.03-.82-.09a.95.95 0 0 1-.53-.61c-.08-.29-.04-.6.12-.95.01-.03.03-.04.06-.03l.28.1c.04 0 .05.03.03.07a.87.87 0 0 0-.13.58c.03.22.15.37.36.45.26.09.48.1.66 0 .2-.1.3-.28.32-.56 0-.04-.02-.07-.07-.08l-.32-.05c-.05 0-.07.01-.07.06Zm-30.16 2.3c.01.06.03.11.06.15.03.04.02.07-.03.08l-.3.1c-.06.02-.1 0-.11-.05-.12-.28-.1-.5.09-.69.16-.16.39-.24.68-.21a.5.5 0 0 1 .42.28c.09.16.12.33.1.53 0 .02 0 .04.03.04h.3c.04 0 .06-.02.06-.06a1.3 1.3 0 0 0-.22-.82.93.93 0 0 0-.72-.42c-.3-.02-.56.05-.8.2a.83.83 0 0 0-.41.7c-.01.33.1.65.33.97.02.02.04.03.07.02l.93-.3c.04-.02.06-.05.05-.1l-.17-.5c-.02-.06-.05-.07-.1-.06l-.22.07c-.03.01-.04.03-.04.07Zm29.7.2-1.23-.43c-.03-.01-.04-.03-.03-.06l.1-.27c0-.04.03-.05.06-.03l1.87.64c.03 0 .04.03.03.06l-.12.35c-.01.02-.03.04-.05.04l-1.52.17c-.05 0-.05.02 0 .03l1.29.45c.02 0 .03.03.02.05l-.1.29c0 .02-.02.03-.05.02l-1.88-.65c-.03 0-.04-.02-.03-.05l.13-.38c.01-.03.03-.04.05-.05a12.19 12.19 0 0 1 1.47-.19Zm-28.7 2.34c-.29.13-.47.1-.57-.1-.09-.19 0-.36.28-.5.14-.08.5-.26 1.1-.54v-.04l-.12-.32c0-.03-.03-.04-.06-.02-.56.26-.96.46-1.2.6-.2.1-.32.24-.39.42a.71.71 0 0 0 .05.57c.1.2.24.33.42.39a.8.8 0 0 0 .57-.04c.26-.11.66-.3 1.21-.58.03-.01.04-.04.02-.07l-.17-.3h-.05l-1.1.53Zm28.54-.04-1.81-.89c-.02 0-.04 0-.04.02l-.16.32.01.04 1.81.89c.02 0 .04 0 .04-.02l.16-.32-.01-.04Zm-1.09 1.98.1-.15.1-.16v-.04l-1.36-.88c-.02 0-.02-.02-.01-.04l.24-.37c.01-.02 0-.03-.01-.05l-.26-.17c-.02-.01-.04 0-.07.02a13.28 13.28 0 0 0-.72 1.19l.27.16c.02.02.03.01.04 0l.24-.37c.02-.02.03-.02.05-.01l1.35.88h.04Zm-26.42.55-.27.19-.05-.01-.63-.9v-.05l1.65-1.15h.05l.2.3c.02.02.02.03 0 .05l-1.33.92c-.02.01-.02.03 0 .05l.39.55c.01.02 0 .04-.01.05Zm24.99 1.32.11-.12.12-.13c.02-.02.01-.04 0-.06l-1.2-1.07v-.05l.3-.32-.01-.06-.24-.21c-.01-.02-.03-.01-.06.02a67.2 67.2 0 0 0-.89.98c-.02.03-.03.05-.01.07l.24.2c.02.03.04.03.05 0l.3-.31c0-.02.03-.02.05 0l1.18 1.07c.02.02.04.01.06 0Zm-22.5-1.03a23.2 23.2 0 0 0-.34-.35c-.01-.02-.03-.02-.05-.01l-1.84.96c-.01 0-.02.01 0 .02l.22.29c.02.02.04.03.07.01l.44-.22h.04a13.02 13.02 0 0 1 .32.4l-.25.4c-.02.04-.02.06.01.09l.27.24h.03l1.08-1.77v-.06Zm-.47.1v-.02a.03.03 0 0 0-.04 0 6.6 6.6 0 0 1-.65.38c-.02 0-.03.02 0 .04l.11.13.12.12c.02.02.03.02.04 0a6.63 6.63 0 0 1 .42-.65Zm20.3.68.25-.23a.04.04 0 0 1 .05 0l1.37 1.46v.05l-.26.24a.04.04 0 0 1-.05 0l-1.37-1.46a.04.04 0 0 1 0-.06Zm-18.63.35.52.43c.02.02.02.04 0 .06l-.2.25c-.02.01-.03.02-.05 0l-.33-.28c-.02-.02-.04-.01-.06 0l-1.03 1.23c-.02.02-.03.02-.05 0a19.99 19.99 0 0 1-.27-.22c-.02-.01-.02-.03 0-.05l1.03-1.22v-.06l-.34-.28c-.02-.02-.02-.03 0-.05l.2-.24c.02-.03.04-.03.06 0l.52.43Zm17.92 1.27-.24-.32c-.01-.02-.01-.04.01-.05l.52-.38c.02-.01.03-.03.01-.05l-.18-.26c-.02-.02-.04-.02-.06 0l-.86.62c-.02.02-.02.04 0 .06l1.17 1.61c.01.02.03.02.05 0l.29-.2c.02 0 .02-.03 0-.05l-.45-.6c-.01-.03 0-.05.01-.06l.49-.35c.02-.01.02-.03 0-.05l-.18-.26c-.01-.02-.03-.02-.05 0l-.48.35h-.05Zm-17.66 1.19c.04.27.17.47.39.6.21.13.45.16.7.07.27-.1.48-.26.63-.52.16-.25.22-.52.18-.8a.81.81 0 0 0-1.1-.66c-.26.09-.47.26-.63.52-.15.25-.21.52-.17.79Zm.58.28c-.21-.13-.22-.5-.02-.83.2-.34.53-.5.75-.38.21.13.22.5.02.84-.2.33-.53.5-.75.37Zm2.91.71c.06.14.08.24.07.3a13.63 13.63 0 0 0-.12.71l-.36-.14c-.02-.01-.02-.02-.02-.04l.08-.58c.03-.18-.06-.29-.25-.34-.03 0-.04 0-.05.03l-.28.68c0 .02-.02.03-.05.02l-.31-.13c-.03-.01-.04-.03-.03-.06l.74-1.8c0-.03.03-.05.06-.04.75.17 1.1.45 1.03.84-.04.29-.2.46-.48.5-.03.01-.03.03-.03.05Zm-.32-.9c.02-.04.04-.06.08-.04l.14.05a.3.3 0 0 1 .16.16c.04.07.04.14.01.2l-.01.04a.25.25 0 0 1-.16.15.3.3 0 0 1-.22 0l-.14-.06c-.03-.01-.05-.04-.03-.07l.17-.44Zm10.07.05c-.06.03-.08.07-.06.14l.69 1.76c.02.06.07.08.13.06l.54-.21c.25-.1.43-.27.54-.51.1-.24.11-.49.02-.73l-.07-.18a.91.91 0 0 0-.51-.53.94.94 0 0 0-.74 0l-.54.2Zm.48.2c-.03.01-.04.04-.03.07l.46 1.19c.01.03.04.04.07.03l.13-.06a.55.55 0 0 0 .32-.3.57.57 0 0 0 .01-.45l-.07-.2a.57.57 0 0 0-.31-.32.55.55 0 0 0-.44-.01l-.14.05Zm-8.52.77a.16.16 0 0 1-.06-.18c.03-.14.15-.18.34-.13.1.02.2.07.28.14.03.03.06.02.07 0l.14-.26c.02-.03.01-.06-.02-.08a1.09 1.09 0 0 0-.53-.2c-.22-.03-.4.03-.53.15a.6.6 0 0 0 0 .88l.28.23c.15.12.18.24.08.36-.07.09-.18.1-.35.04a.93.93 0 0 1-.34-.2c-.01-.02-.02-.02-.03 0l-.17.31v.03c.23.18.47.27.73.28.3 0 .5-.12.6-.39.12-.28.04-.53-.23-.76l-.26-.22Zm7.04.74-.28-1.3c-.01-.04 0-.05.03-.06l.31-.06c.02 0 .04 0 .04.02l.39 1.98c0 .02 0 .03-.03.03l-.37.08c-.03 0-.05 0-.07-.03l-.91-1.23c-.03-.03-.03-.03-.03.01l.27 1.35c0 .03 0 .04-.03.05l-.29.05c-.03 0-.06 0-.06-.05l-.38-1.93c0-.02 0-.04.03-.04.15-.05.3-.07.43-.08.02 0 .05 0 .06.03l.88 1.19Zm-3.17.52a18.15 18.15 0 0 1 .46-.01c.02 0 .03 0 .04.03l.14.45c.01.04.04.05.08.05l.35-.02c.02 0 .02-.02.02-.04l-.62-1.96a.05.05 0 0 0-.05-.04 2.54 2.54 0 0 0-.48.02.05.05 0 0 0-.05.04l-.49 2c0 .02 0 .03.03.03h.35c.04 0 .06-.02.07-.05l.11-.47c0-.02.02-.03.04-.03ZM23.39 26.5V22H26v4.5h3V22h6.5c.83.22 2.5 1.26 2.5 3.7 0 2.73-1.75 3.67-2.62 3.8h-3.77V34H29v-4.5h-3V34h-6.34c-2 0-2.61-2.19-2.66-3.29 0-2.99 1.77-4.13 2.66-4.21h3.73Zm10.98 0c.63 0 1.13-.45 1.13-1s-.5-1-1.13-1H31.5v2h2.87Zm-13.66 3c-.57 0-1.04.45-1.04 1s.47 1 1.04 1h2.66v-2H20.7Z" fill="#0080C7"/></svg>