<!-- by TradingView --><svg width="56" height="56" viewBox="0 0 56 56" xmlns="http://www.w3.org/2000/svg"><path fill="#F0F3FA" d="M0 0h56v56H0z"/><path d="M17.55 33.73c-5.65 0-7.58-1.1-7.84-1.65.62.3 2.9.87 7.02.87 6.19 0 8.41-3.4 8.75-4.95h3.24c-.59 3.07-4.1 5.73-11.17 5.73Z" fill="#0E1A66"/><path d="M17.55 22.34c-5.65 0-7.58 1.1-7.84 1.65.62-.3 2.9-.87 7.02-.87 6.19 0 8.41 2.82 8.75 4.38h3.24c-.59-3.07-4.1-5.16-11.17-5.16ZM21.1 35.03c-8.08 0-10.5-.94-10.7-1.41.72.27 3.22.82 7.47.82 8.68 0 11.45-4.38 11.75-6.44h3.94c-.43 1.02-2.34 7.03-12.45 7.03Z" fill="#788278"/><path d="M21.1 20.84c-8.08 0-11.2 1.38-11.4 1.85.72-.28 3.92-.98 8.17-.98 8.68 0 11.45 3.73 11.75 5.79h3.94c0-1.45-2.34-6.66-12.45-6.66Z" fill="#0E1A66"/><path d="M39.86 27.5h-5.04c-.34-1.01-2.81-7.1-12.28-7.1-7.56 0-11.3.72-12.22 1.08 1.43-.7 6.02-2.12 12.94-2.12 12.26 0 16.17 5.43 16.6 8.14Z" fill="#788278"/><path d="m9 34.24.03.03c.52.45 3.7 1.3 12.77 1.3 9.3 0 12.71-5.12 13.26-7.57h4.9c-.65 4.48-5.56 8.72-17.04 8.72-9.07 0-13-1.61-13.89-2.45a.4.4 0 0 1-.03-.03Z" fill="#0E1A66"/><path d="M25.42 39c-6.92 0-11.31-1.16-12.92-1.84 1.32.27 4.87.65 11.8.65 10.9 0 16.3-6.13 16.71-9.81h5.95c-1.7 8.58-12.35 11-21.54 11Z" fill="#788278"/><path d="M25.94 17c-10.58 0-15.47 2.1-16.6 3.15 1.2-.52 5.05-1.57 10.9-1.57 17.95 0 20.07 6.7 20.7 8.92H47c.13-5.96-7.83-10.5-21.06-10.5Z" fill="#0E1A66"/></svg>