<!-- by TradingView --><svg width="56" height="56" viewBox="0 0 56 56" xmlns="http://www.w3.org/2000/svg"><path fill="#4F778C" d="M0 0h56v56H0z"/><path d="m39.76 29.68-1.25 2.85c.58.06 1.79.18 1.91.18.1 0 .42-.07.65-.12l.26-.06c.05 0-.54-2.35-.58-2.4a15.9 15.9 0 0 0-1-.45Zm-.13 2.2.38-1.05a.1.1 0 0 1 .19 0l.36 1.05a.1.1 0 0 1-.1.13h-.73a.1.1 0 0 1-.1-.13Z" fill="#CFD3A0"/><ellipse cx="28.97" cy="19.04" rx="10.38" ry="6.55" fill="#B3C4CD" fill-opacity=".5"/><ellipse cx="28.97" cy="19.04" rx="8.47" ry="5.34" fill="#B3C4CD"/><path d="M30.12 14.08c.01.24 0 .4-.07.47-.17.23-.3.5-.38.8-.01.07 0 .12.05.16.06.05.14.07.26.07.1 0 .17-.05.23-.16.07-.1.09-.26.06-.47 0-.06.03-.1.09-.1.29-.05.48.04.57.25.02.05.06.08.12.07.17-.01.25-.11.23-.3.07.14.08.24.03.31a.14.14 0 0 1-.15.06.37.37 0 0 0-.18.01c-.08.02-.08.04 0 .05l.48.04c-.27.13-.55.2-.85.24a.59.59 0 0 0-.25.09c-.21.13-.23.23-.07.28-.28.02-.43.11-.43.27-.02.52.06 1.02.22 1.49.02.06 0 .1-.05.13-.27.15-.46.36-.59.64a.32.32 0 0 0 0 .28c.04.09.1.14.2.15.1.01.24-.05.41-.2.2-.15.33-.26.4-.34.05-.06.11-.07.2-.02.08.04.12.12.14.21.03.25 0 .53-.12.84a.24.24 0 0 0 0 .12l.08.44a.14.14 0 0 1-.07.16.16.16 0 0 1-.18 0l-.76-.42a.17.17 0 0 0-.19.01.15.15 0 0 0-.07.16c.06.4.3.66.73.77.43.11.83.13 1.2.04a1 1 0 0 0 .51-.28c.1-.1.2-.26.32-.5.05-.1.03-.18-.05-.25-.19-.16-.4-.11-.63.14-.07.07-.15.09-.23.04-.23-.11-.32-.3-.27-.56.05-.24.2-.36.46-.36h.7c.06 0 .09-.03.1-.08.03-.42.14-.74.32-.96.09-.1.2-.15.33-.14.14.02.24.08.3.2.1.18.15.43.14.76 0 .17 0 .3.02.38 0 .06.04.09.1.08.28-.01.47.02.57.12.05.04.08.1.08.17v.48c0 .11-.05.2-.16.24-.1.05-.2.05-.3-.01-.1-.07-.17-.14-.23-.2-.3-.35-.49-.3-.55.14 0 .03.03.17.11.43.05.52.36.78.95.8.3 0 .62-.04.95-.1.07-.01.09.01.06.07a4.3 4.3 0 0 1-.91 1.2.2.2 0 0 1-.16.05l-.86-.07c-.6-.04-1.06-.1-1.4-.17a7 7 0 0 0-1.75-.2c-.63.05-1.28.06-1.95.02-.21 0-.52.01-.92.06l-4.29.55a7.24 7.24 0 0 0-.97-2.77 2.12 2.12 0 0 1-.2-1.15.2.2 0 0 0-.06-.17l-.26-.24a.16.16 0 0 1-.04-.17c.06-.21.07-.35.03-.4-.03-.05 0-.06.05-.04l.06.02c.05.01.06.04.02.07l-.07.07c-.04.04-.03.07.02.08l.1-.01c.04-.02.06-.03.07-.05a.5.5 0 0 0 .02-.15c0-.06-.03-.1-.1-.12l-.24-.08a.26.26 0 0 1-.14-.1c-.08-.11-.08-.22-.01-.32.12 0 .22-.03.3-.08a.15.15 0 0 0 .08-.14c0-.17-.1-.3-.3-.36-.06-.09-.08-.17-.06-.24.04-.07.1-.11.18-.11h.42c.07 0 .12-.03.15-.1.03-.06.01-.12-.04-.16l-.2-.19a.19.19 0 0 1-.05-.18c.02-.1.08-.19.17-.24.1-.05.2-.05.31 0l.27.1c.07.02.13.01.18-.03.04-.05.06-.1.04-.17a.9.9 0 0 1-.04-.36.2.2 0 0 1 .12-.17.22.22 0 0 1 .21 0l.37.2c.06.03.12.04.18.02a.2.2 0 0 0 .12-.12l.13-.39a.1.1 0 0 1 .06-.06c.1-.05.2-.06.3-.03.1.02.18.09.21.18l.04.12c.02.05.06.09.12.1.09.02.18.01.28-.02.06-.01.1-.05.11-.11.03-.19.11-.3.24-.34.14-.04.27 0 .42.13.05.04.06.1.04.15-.02.07-.01.12.01.16a.3.3 0 0 0 .26.13c.1 0 .18-.04.22-.13a.94.94 0 0 1 .15-.2c.04-.05.1-.08.16-.07.2.01.3.13.33.37-.02.14.02.26.13.37.05.04.1.05.16.03l.17-.05c.06 0 .1-.07.13-.2.02-.05.05-.09.11-.1.1-.04.18-.02.25.03.06.05.1.12.12.22l.03.24c.01.08.05.13.11.14l.19.01c.05 0 .08-.02.09-.07.08-.42.01-.77-.2-1.03a.22.22 0 0 1-.06-.2c.11-.41.37-.7.76-.88.1-.04.15-.1.16-.2a.23.23 0 0 0-.1-.23 1.73 1.73 0 0 0-.39-.21c-.26-.1-.25-.18.01-.25l.26-.06c.06-.02.1-.06.12-.11.1-.24.25-.34.47-.3.07.02.12.06.14.12.05.21.22.32.49.33.04 0 .08.02.11.05l.08.07c.04.05.04.08-.03.1-.1.04-.26.06-.46.05a.27.27 0 0 0-.22.1.24.24 0 0 0-.06.22c.03.17.13.28.28.35l.39.18c.15.13.26.3.34.5Z" fill="#DDBD26"/><path d="M28.45 14.48c-.09 0-.14-.03-.14-.12v-.02a.43.43 0 0 1 .13-.35c.1-.1.22-.16.37-.17l.23-.02c.15-.01.28.03.4.11.11.08.18.2.19.32v.03c0 .08-.03.13-.12.13l-1.06.09Z" fill="#87A1AF"/><path d="M33.32 14.78c-.3.04-.6.12-.9.23-.11.04-.2.05-.26.03a.41.41 0 0 1-.23-.16c-.02-.03-.05-.04-.08-.03l-.05.01c-.13.04-.11.07.05.1.04 0 .08.02.1.05.04.02.04.04 0 .06-.2.07-.37.16-.5.27l-.47-.04c-.08-.01-.08-.03 0-.05a.37.37 0 0 1 .18-.01c.06.01.11 0 .15-.06.05-.07.04-.17-.03-.3-.03-.13 0-.24.07-.32a.5.5 0 0 1 .34-.1c.07 0 .12.04.14.1l.07.16c.02.06.07.1.13.13.17.06.3.04.4-.07a.17.17 0 0 0 .06-.12v-.1c0-.06.03-.11.08-.15.33-.25.58-.12.75.37ZM34.39 14.8l-.73-.06c.05-.33.22-.45.53-.37.2.06.26.2.2.43Z" fill="#CFD3A0"/><path d="M35.4 15.17c0-.03-.02-.02-.06.03-.02.03-.04.03-.06 0l-.04-.05c-.02-.04-.06-.05-.1-.04-.19.05-.39.05-.6 0-.11-.02-.12 0-.03.06.11.08.26.1.43.06v.01l-.34.04c-.02 0-.04 0-.05.02 0 .02 0 .04.02.05.23.11.44.28.63.5.07.06.05.12-.03.17h-.1a2.64 2.64 0 0 0-2.52-.6l-2.26.53c-.16-.05-.14-.15.07-.28a.59.59 0 0 1 .25-.09c.3-.03.58-.11.85-.24.12-.11.28-.2.49-.27.04-.02.04-.04 0-.06a.22.22 0 0 0-.1-.05c-.16-.03-.18-.06-.05-.1h.05c.03-.02.06 0 .08.02.05.08.13.13.23.16.06.02.15.01.25-.03.3-.11.61-.19.91-.23.15.05.27.03.34-.04l.73.06c.19.29.4.25.6-.11.04-.05.08-.07.14-.04.22.1.32.28.28.52Z" fill="#DDBD26"/><path d="M29.12 17.46c0 .03-.02.04-.04.04h-.2c-.12 0-.18-.05-.18-.15l.01-2.21c0-.1.06-.14.18-.14h.2c.03 0 .05.02.05.04l-.02 2.42Z" fill="#CFD3A0"/><path d="M35.4 15.17a.42.42 0 0 0 .01.2c.02.06.05.07.1.03.06-.05.14-.05.24 0l-.14.04c-.1.14-.08.17.1.1l.41-.16c.17.09.24.23.2.4 0 .07-.03.1-.09.13l-.1.05c-.07.03-.1.06-.11.1a.1.1 0 0 0 0 .04c0 .05.03.08.08.09l.57.11c.07.02.11.06.14.12.02.06 0 .12-.04.17-.06.05-.05.1.01.16.05.03.07.08.07.14 0 .06-.03.1-.09.1v-.26a.08.08 0 0 0-.05-.07.08.08 0 0 0-.09 0c-.14.08-.22.18-.25.3 0 .06.02.1.08.14.1.05.2.06.33.05.16.06.23.16.22.3-.22.13-.44.2-.66.24-.07 0-.1.04-.1.11.02.11.1.19.24.23.07.02.1.06.11.13.02.13-.03.2-.13.24-.32.1-.38.18-.16.25.02.41-.05.79-.2 1.14l-1.12.3c-.07.2-.13.3-.19.32-.25.08-.31 0-.2-.24l.13-.24c.02-.06.03-.11.03-.17-.03-.23-.03-.4.02-.5.15-.4.28-.4.39 0 0 .03.09.1.24.21.05.04.1.04.16 0 .12-.06.16-.18.12-.33-.03-.1-.14-.26-.33-.5.15-.79.2-1.41.18-1.88-.02-.29-.17-.53-.46-.73h.1c.08-.06.1-.12.03-.19-.2-.21-.4-.38-.63-.49-.02-.01-.02-.03-.02-.05.01-.02.03-.02.05-.02a1.65 1.65 0 0 0 .35-.04c-.18.03-.33.01-.44-.07-.1-.06-.08-.08.03-.06.21.05.41.05.6 0 .04-.01.08 0 .1.04l.04.05c.02.03.04.03.06 0 .04-.05.06-.06.07-.03Z" fill="#DDBD26"/><path d="M25.82 19.54a.7.7 0 0 1 .38.15c.13.09.22.13.27.13.12 0 .2-.1.25-.27.04-.23-.01-.41-.17-.54-.1-.08-.28-.12-.55-.13-.2 0-.33-.03-.42-.06a.13.13 0 0 1-.1-.11c-.04-.42-.18-.73-.42-.92-.09-.07-.19-.07-.3-.01a.13.13 0 0 0-.07.13c0 .05-.02.1-.07.14a.36.36 0 0 0-.1.14c-.09.22-.11.44-.07.65.02.08 0 .15-.05.2a.25.25 0 0 1-.19.1c-.19.02-.37.06-.55.14a.15.15 0 0 0-.1.15c0 .24.07.47.24.7.05.07.12.1.22.1s.16-.04.2-.12c.14-.24.33-.35.56-.31.12.01.16.08.14.19-.04.17-.11.4-.2.65-.1.21-.31.35-.67.4-.66.09-1.14-.13-1.44-.64-.03-.05-.02-.1.03-.12l.1-.06c.05-.04.1-.03.15.02.08.1.18.17.3.19.07.01.11 0 .15-.06.03-.05.03-.1 0-.14a.9.9 0 0 1-.19-.63.99.99 0 0 0-.04-.42c-.04-.1-.13-.2-.27-.34-.06-.06-.1-.05-.13.03l-.12.34a.18.18 0 0 1-.12.12.18.18 0 0 1-.15-.02.14.14 0 0 1-.08-.14c.01-.27.08-.5.21-.7.03-.06.04-.11.03-.17a4.08 4.08 0 0 1-.2-1.4c.04-.4.26-.74.64-1 .46-.33.96-.51 1.49-.56.32-.02.82.05 1.51.23.62.16 1.25.3 1.9.45.1.02.16.08.15.19l-.02 1.01c0 .16-.04.28-.14.35-.1.08-.09.16.01.23.47.31.66.63.57.96-.02.05-.06.08-.12.08-.39 0-.68-.13-.86-.4a.16.16 0 0 0-.16-.06.16.16 0 0 0-.14.1.99.99 0 0 0-.01.47c.07.46.08.76.05.9-.1.31 0 .39.3.22l.62-.36a.18.18 0 0 1 .17-.01c.06.02.1.06.1.12.03.23-.06.42-.26.59-.7.58-1.43.58-2.2.01a.25.25 0 0 1-.09-.15c-.03-.15-.1-.28-.2-.4a.13.13 0 0 1 0-.17.4.4 0 0 1 .23-.16Z" fill="#B3C4CD"/><path d="M35.07 16.03c.29.2.44.44.46.73.03.47-.03 1.1-.18 1.87a.82.82 0 0 1-.54-.33c-.1-.14-.31-.51-.64-1.1a6.7 6.7 0 0 0-1.62-1.77 2.64 2.64 0 0 1 2.52.6Z" fill="#87A1AF"/><path d="m36.12 15.38-.41.16c-.18.07-.2.04-.1-.1l.14-.04a.45.45 0 0 1 .37-.02Z" fill="#CFD3A0"/><path d="m21.05 17.2.09-.58c.18.07.28.19.3.36 0 .06-.03.1-.08.14a.58.58 0 0 1-.31.08ZM36.76 17c-.02.05-.02.1.02.15a.56.56 0 0 1-.33-.05c-.06-.03-.09-.08-.08-.15.03-.11.1-.21.25-.29a.08.08 0 0 1 .09 0c.02.02.04.04.04.07l.01.27ZM37 17.45c.01.12-.11.22-.37.3-.08.03-.1.08-.07.16.18.34.1.59-.26.74-.22-.07-.16-.15.16-.25.1-.03.15-.11.13-.24 0-.07-.04-.1-.1-.13-.15-.04-.23-.12-.25-.23 0-.07.03-.1.1-.11.22-.03.44-.11.66-.24Z" fill="#889C88"/><path d="M26.72 19.55c-.05.17-.13.27-.25.27-.05 0-.14-.04-.27-.13a.7.7 0 0 0-.38-.15c-.07.02-.11.01-.14-.01-.04-.03-.05-.06-.04-.1.02-.05.05-.07.1-.08.46-.06.8 0 .98.2ZM36.1 19.79a10 10 0 0 1-.76 1.6c-.12.2-.19.6-.2 1.18 0 .05-.01.1-.05.15a.7.7 0 0 1-.73.26 31.02 31.02 0 0 0-5.44-.58c-.82-.02-1.69.03-2.6.14-.77.1-1.63.23-2.56.4-.4.07-.74 0-.99-.2 1.44-.2 2.87-.38 4.3-.56.39-.05.7-.07.91-.06.67.04 1.32.03 1.95-.01a7 7 0 0 1 1.74.19c.35.07.82.13 1.4.17.38.02.67.05.87.07a.2.2 0 0 0 .16-.05c.4-.38.7-.78.9-1.2.04-.06.02-.08-.05-.07-.33.06-.65.1-.95.1-.59-.02-.9-.28-.95-.8.15.4.6.56 1.31.5.43-.05.74-.24.93-.59a.24.24 0 0 0 0-.23c-.04-.1-.15-.14-.31-.1l1.12-.31Z" fill="#5E4E09"/><path d="M32.61 21.56c-.37-.1-.75-.11-1.13-.06-.18-.1-.16-.17.06-.24.5-.15.91-.12 1.25.08.04.02.06.04.07.07a.1.1 0 0 1 .01.05c0 .04-.02.06-.06.06l-.2.04Z" fill="#5E4E09"/><path d="M28.9 21.88a.3.3 0 0 0 .32-.3.3.3 0 0 0-.32-.3.3.3 0 0 0-.31.3c0 .17.14.3.31.3ZM26.14 21.42l-.8.07a.2.2 0 0 0-.2.23l.01.12c.01.11.12.2.24.19l.8-.08a.2.2 0 0 0 .2-.22l-.01-.12a.21.21 0 0 0-.24-.19ZM32.61 21.56l.1.08a.2.2 0 0 1 .05.21.2.2 0 0 1-.17.15c-.3.06-.55.07-.75.03-.3-.07-.41-.24-.36-.53.38-.05.76-.03 1.13.06Z" fill="#B3C4CD"/><path fill-rule="evenodd" d="M22.16 25.73c-.41-.5-.86-.82-1.54-1.14-2.77-1.34-6.55-.18-9.04 1.33a7.09 7.09 0 0 0-2.68 3.3c-.87 2.9-.21 3.54.52 4.26l.25.26c.05.05.08.1.09.16.03.2-.05.31-.23.32-1.6.04-2.4.2-2.53 1.35 0 .67.72 1.32 1.47 1.38 1.26.1 2.37.06 3.56-.22.6-.14 1.37-.15 2.3-.03.63.08 1.65.04 3.04-.12a7.03 7.03 0 0 0 3.42-1.83 10.97 10.97 0 0 0 2.09-2.8c.6-1.32.8-2.62.63-3.9a3.21 3.21 0 0 0-.46-1.05.14.14 0 0 1 0-.14c.11-.25.23-.4.33-.44l.2-.07c.82-.31 2.08-.8 2.82-.22.36.3.4.69.12 1.2-.24.43-.59.71-1.06.85-.4.12-.63.2-.68.24a.63.63 0 0 0-.26.45c0 .1.02.27.07.5.05.2.08.35.08.45-.04 1.72-.02 3.25.04 4.93v.06c.57.19 1 .19 1.7.19.9 0 1.19-.03 1.5-.6l.38-.77c.03-.05.07-.08.14-.08h1.5c.05 0 .09.03.11.08l.58 1.1a.3.3 0 0 0 .27.19c.42.04.8.02 1.14-.05a.27.27 0 0 1 .17 0c.34.13.7.13 1.11 0 .15-.05.22-.15.22-.3v-2.51c0-.18.07-.2.2-.08.14.13.26.3.35.5.07.14.18.31.33.5l.75 1a3.46 3.46 0 0 0 .45.7c.04.16.2.24.46.25l.58-.01c.42-.02.74-.01.96.03.3.05.58.03.83-.07a.12.12 0 0 0 .09-.11c0-.06.04-.16.1-.3l.07-.17.39-1.04h2.1l.53 1.44a.1.1 0 0 0 0 .06c.02.05.05.08.09.1.37.11.73.13 1.07.04a.12.12 0 0 0 .1-.1c.03-.2.02-.38-.03-.56l-.07-.23a34.5 34.5 0 0 1-1.29-3.06l-.54-1.12-.06-.16c-.1-.28-.22-.67-.63-.67h-.82c-.06 0-.1.04-.14.08l-.27.6-.94 2-.8 2.32c-.02.03-.04.05-.08.06-.1.02-.15-.04-.13-.17.06-.54.07-1.08.03-1.63.04-1.35.05-2.15.03-2.71 0-.16-.09-.3-.26-.44-.2-.07-.43-.1-.7-.1-.33.02-.53.12-.6.3-.09.2-.11.43-.07.7V30.84c.02.41.04.85-.18.85a.14.14 0 0 1-.12-.06c-.32-.51-.82-1.08-1.5-2.01-.23-.33-.45-.51-.66-.56a1.48 1.48 0 0 0-.96.07c-.17.08-.2.2-.19.37.02.4.01 1.37.01 1.37v1.54c-.01.44 0 1 .04 1.67 0 .06-.02.07-.07.04a.6.6 0 0 1-.21-.27l-.57-1.34c-.43-1.01-.85-1.82-1.2-2.89a.91.91 0 0 0-.1-.21 1.54 1.54 0 0 1-.06-.08.45.45 0 0 0-.19-.2c-.4-.18-.79-.18-1.16-.02a.3.3 0 0 0-.17.18c-.21.56-.45.97-.7 1.55-.18.4-.36.86-.55 1.38-.23.61-.43 1.08-.62 1.4-.02.04-.05.06-.1.06l-.05-.01c-.04-.02-.06-.05-.06-.1v-4.05c0-.05.01-.1.05-.13.19-.16.39-.3.6-.41.2-.1.37-.24.54-.4.24-.24.4-.4.46-.5.5-.69.59-1.44.27-2.25a1.62 1.62 0 0 0-.88-.88 5.43 5.43 0 0 0-4.92.8c-.07.06-.14.05-.2-.02Zm20.03 7.72c-.57-1.3-1.13-2.59-1.65-3.83-.08-.17-.15-.27-.23-.3-.14-.04-.3-.05-.45-.02-.1.01-.2.14-.3.37l-2.08 4.8c-.05.12 0 .18.13.18h.35c.14 0 .22-.06.27-.17l.13-.32c-.1-.04-.16-.09-.16-.12 0-.06.15-.89.22-1.3l3.05-.03.72.74Zm-31.36.72c.52.14 1.9.29 3.25-.28 1.34-.57 2.85-2.08 3.45-2.76-.3.46-1.16 1.65-2.34 2.76-1.18 1.12-1.98 1.17-2.23 1.06-.44-.17-1.48-.56-2.13-.78Zm3.55-4.75c1.75-1.82 2.61-1.3 2.66-1.26.2.23 0 1.16-.48 1.8a10 10 0 0 1-3.2 2.68c-1.38.64-3 .63-3-.87 0-1.49.86-3.18 2.02-4.15 1.16-.96 2.86-2.27 5.11-2.27 1.8 0 3.09.74 3.5 1.12-1.09.9-2.12 2.52-2.5 3.21.6-2.69-1.2-3.12-2.77-2.82-1.25.24-2.01.8-2.47 1.14a6.33 6.33 0 0 0-2.03 3.38c-.1.44-.16 1.32.4 1.32.6 0 .7-.26.74-.38a.3.3 0 0 1 .02-.06l.03-.06c.1-.25.43-1.17 1.97-2.78Zm1.27 6.11c.6-.35 2.07-1.38 3.04-2.67.97-1.3 1.95-3.02 2.37-3.77l.21-.35c.13-.21.5-.72.67-.95.14.57.25 2.08-.47 3.56-.9 1.85-2.65 4.06-5.82 4.18ZM29.29 31l.27.96c.02.04 0 .07-.05.07l-.8.01c-.05 0-.07-.02-.05-.07l.37-1.06c.02-.05.05-.06.09-.03l.14.09c.02 0 .02.02.03.03Z" fill="#CFD3A0"/><path fill-rule="evenodd" d="M11.63 32.49c.22.01.37-.14.44-.47.14-.37.31-.72.53-1.06a9.16 9.16 0 0 1 2.58-2.65c.44-.3.81-.48 1.12-.57.44-.13.78-.05 1 .23.15.2.2.47.14.8-.1.53-.3 1-.58 1.4a8.02 8.02 0 0 1-4.14 3.06c-.54.17-1 .2-1.4.08-.6-.19-1-.57-1.2-1.15a2.49 2.49 0 0 1 .01-1.64c.37-1.1 1-2.1 1.93-3a9.94 9.94 0 0 1 2.88-2.03 6.78 6.78 0 0 1 2.37-.62c1.66-.09 3.02.42 4.09 1.54.1.1.1.21-.02.31a12.3 12.3 0 0 0-2.34 2.64l-1.77 2.66c-.6.87-1.43 1.73-2.49 2.6a4 4 0 0 1-.57.38l-.6.34c-.2.12-.36.15-.5.1-.95-.33-1.92-.59-2.92-.77-.08-.01-.43-.02-1.05-.02a2.7 2.7 0 0 0-1.39.41c-.21.25-.24.52-.08.82.2.35.7.58 1.53.67 1.13.13 2.32.04 3.57-.27.23-.06.6-.05 1.1.03.4.06.76.1 1.06.09l1.58-.05c1.35-.16 2.5-.6 3.45-1.33a8.09 8.09 0 0 0 3.08-4.67c.3-1.3.16-2.5-.45-3.57-.03-.06-.02-.11.03-.16a5.8 5.8 0 0 1 2.53-1.1c.43-.07.85-.01 1.26.18.45.21.7.52.73.92.05.5-.16.96-.62 1.34-.38.31-.87.55-1.48.72a.21.21 0 0 0-.1.05l-.06.09c-.02.1.02.15.12.17.73.13 1.37-.01 1.93-.42.7-.52 1.02-1.18.94-1.98a1.41 1.41 0 0 0-.37-.88 1.74 1.74 0 0 0-.94-.51 5.45 5.45 0 0 0-4.31.92c-.07.05-.13.04-.2-.02a5 5 0 0 0-2.6-1.48 8.59 8.59 0 0 0-4.1.08c-1.05.27-2.03.67-2.92 1.19a7.54 7.54 0 0 0-2.6 2.43 4.95 4.95 0 0 0-.76 3.02c.03.59.2 1.09.5 1.5.33.42.77.72 1.34.89.21.06.5.1.85.11.45.02.74.02.87 0a7.3 7.3 0 0 0 3-1.34 7.7 7.7 0 0 0 2.21-2.42c.22-.38.34-.83.38-1.33.04-.63-.16-1.07-.6-1.34-.3-.2-.75-.26-1.33-.22-.71.06-1.38.27-2 .63a6.28 6.28 0 0 0-2.06 1.9 3.91 3.91 0 0 0-.75 2.6c0 .05.03.1.08.13l.07.04Zm7.15-.26a10.43 10.43 0 0 1-4.37 3.55c-.1.04-.1.07 0 .09 1.16.17 2.27.06 3.34-.34.82-.31 1.6-.83 2.32-1.55a8.62 8.62 0 0 0 1.63-2.26c.4-.8.63-1.65.68-2.54a3.6 3.6 0 0 0-.39-1.86.07.07 0 0 0-.06-.03c-.02 0-.04 0-.06.02-.69.9-1.25 1.75-1.7 2.53a40.2 40.2 0 0 1-1.39 2.4Z" fill="#C7110B"/><path d="M33.1 30.76v3.75c0 .1-.05.15-.15.15h-.41c-.1 0-.15-.05-.15-.15v-5.14c0-.02 0-.04.04-.05.43-.13.76-.03 1 .31.53.8 1.37 1.98 2.5 3.56.12.18.18.16.18-.06V29.5c0-.12.07-.18.2-.18h.38c.1 0 .16.05.16.16v5.04c0 .06-.03.1-.09.1-.25.05-.46.05-.64.02a.17.17 0 0 1-.12-.07l-2.7-3.86c-.13-.2-.2-.17-.2.06ZM25.63 29.4h-.37c-.1 0-.2.1-.2.2v4.87c0 .1.1.19.2.19h.37c.1 0 .2-.09.2-.19v-4.88c0-.1-.1-.18-.2-.18Z" fill="#C7110B"/><path fill-rule="evenodd" d="M29.49 29.45c-.06-.12-.2-.18-.4-.18s-.33.06-.38.18c-.3.6-1.02 2.27-2.18 5.01-.06.13-.01.2.13.2h.3c.15 0 .26-.08.31-.21l.55-1.38c.03-.07.1-.11.18-.11a121.01 121.01 0 0 1 2.2 0c.08 0 .14.03.17.11l.56 1.37c.05.14.16.21.31.21h.3c.14 0 .18-.06.13-.19-1.17-2.74-1.9-4.4-2.18-5Zm-.41.64-.9 2.17c-.01.04 0 .06.06.07h1.75c.05 0 .06-.02.04-.06l-.85-2.18c-.01-.02-.03-.03-.05-.03-.03 0-.04.01-.05.03ZM41.75 34.1l.23.55h.71c.04 0 .05-.03.03-.06a271 271 0 0 1-2.17-4.98c-.07-.18-.15-.27-.22-.3-.15-.04-.3-.05-.46-.02-.1.01-.2.14-.3.37L38.54 32l-1.08 2.47c-.05.12-.02.2.12.2h.39c.13 0 .23-.09.28-.2l.25-.64.1-.27c.06-.21.13-.44.27-.56a.2.2 0 0 1 .14-.05h2.14c.1 0 .16.05.2.13l.4 1.03Zm-1.73-3.95-.86 2.08c-.02.07 0 .1.08.1l1.7.02c.07 0 .1-.04.07-.1l-.83-2.1c-.02-.03-.04-.05-.08-.05s-.06.02-.08.05Z" fill="#C7110B"/><path d="M10.96 35.7c.1.03.24.05.43.07.1 0 .18.02.22.03.07.01.08.04.04.08a.84.84 0 0 1-.17.14c-.84.27-1.74.23-2.72-.11a.4.4 0 0 1-.21-.16.25.25 0 0 1-.02-.26.27.27 0 0 1 .22-.16c.23-.03.43-.04.6 0 .56.1 1.1.22 1.61.37Z" fill="#CFD3A0"/><path opacity=".3" d="M25 37h23v2H25z"/></svg>