<!-- by TradingView --><svg width="56" height="56" viewBox="0 0 56 56" xmlns="http://www.w3.org/2000/svg"><path fill="#F0F3FA" d="M0 0h56v56H0z"/><path d="M30.68 17a11.2 11.2 0 0 1-2.94-5h-1.35l-2.27.37c-.1.02-.14.07-.13.17.16 1.75.61 3.4 1.36 4.96a17.78 17.78 0 0 0 4.32 5.6.2.2 0 0 0 .17.06.2.2 0 0 0 .16-.1l2.46-4.29c.05-.08.04-.16-.04-.22-.62-.49-1.2-1-1.74-1.55Zm4.66-3.05c.07-.12.04-.21-.08-.27a15.87 15.87 0 0 0-4.65-1.45.12.12 0 0 0-.12.05.12.12 0 0 0-.01.12 9.96 9.96 0 0 0 3.18 4.13c.09.07.16.06.22-.04l1.46-2.54ZM12.14 27c-.1 0-.15-.06-.14-.17a16.15 16.15 0 0 1 9.46-13.3c.08-.04.13-.01.14.08.88 5.95 3.9 10.34 9.08 13.15.3.17.28.25-.06.25l-18.47-.01Zm28.71-8.58a15.34 15.34 0 0 0-3.34-3.34c-.11-.08-.2-.06-.28.05l-1.5 2.4c-.06.1-.04.18.07.22a9.62 9.62 0 0 0 4.97.86c.05 0 .08-.03.1-.07a.11.11 0 0 0-.02-.12Zm-6.5 1.46c.05-.08.12-.1.21-.07 1.37.51 2.6.84 3.7 1 1.3.19 2.56.16 3.8-.1.13-.02.22.03.28.15.54 1.1.94 2.2 1.2 3.3.02.11-.02.2-.12.23-3.51 1.44-7.36 1.48-11.54.1-.1-.03-.12-.1-.07-.2l2.55-4.41Zm9.5 9.13h-18.6c-.35 0-.37.08-.06.25 5.21 2.81 8.26 7.2 9.15 13.15.01.1.06.12.15.08a16.1 16.1 0 0 0 6.56-5.36A16.1 16.1 0 0 0 44 29.16c0-.1-.04-.16-.15-.16Zm-22.3 7.09c-.04.08-.1.1-.2.07-1.37-.51-2.6-.85-3.7-1-1.29-.19-2.55-.16-3.78.1-.13.02-.23-.02-.29-.15-.54-1.1-.94-2.2-1.19-3.3-.03-.1.01-.19.12-.23 3.5-1.44 7.34-1.47 11.51-.1.1.03.13.1.08.2l-2.54 4.4ZM28.29 44c1.2 0 2.36-.12 3.46-.37.14-.04.21-.13.2-.28a14.48 14.48 0 0 0-2.11-6.25 20.14 20.14 0 0 0-3.66-4.33c-.08-.08-.15-.06-.2.03l-2.48 4.3c-.08.14-.06.27.06.37 1.18.99 2.12 1.94 2.8 2.84.82 1.1 1.41 2.28 1.75 3.55.03.1.09.14.18.14Zm-9.9-3.15c-1.34-1-2.43-2.09-3.27-3.27a.11.11 0 0 1-.01-.11.11.11 0 0 1 .1-.08c1.68-.15 3.3.13 4.86.85.1.04.12.12.06.21l-1.47 2.35c-.07.11-.16.13-.27.05Zm2.14 1.18c-.08.12-.05.21.08.28 1.59.78 3.14 1.28 4.65 1.5.05.01.1 0 .12-.04a.11.11 0 0 0 .02-.12 10 10 0 0 0-3.15-4.2c-.09-.07-.17-.05-.23.05l-1.5 2.53Z" fill="#ACC32C"/></svg>