<!-- by TradingView --><svg width="56" height="56" viewBox="0 0 56 56" xmlns="http://www.w3.org/2000/svg"><path fill="#F0F3FA" d="M0 0h56v56H0z"/><path fill-rule="evenodd" d="M5 34h6.8c2.4-.01 7.2-1.59 7.2-7.8.02-1.4-.77-4.2-4.16-4.2H8.38L5 34Zm6.21-10L9.2 32h1.65c1.57-.03 4.7-1.17 4.7-5.49 0-2.03-1.61-2.52-2.41-2.51H11.2Z" fill="#1D2942"/><path d="M23.34 34H19.7l1.86-6.3 4.3-3.33-2.5 9.63Z" fill="#1D2942"/><path d="m26.45 22-4.54 3.47.9-3.47h3.64Z" fill="#8C8E8D"/><path d="M31.95 34h-5.8l.8-2h4.43c.31-.02 1-.47 1.29-1 .36-.64.15-.96-.3-1.34-.46-.37-3.7-1.8-3.7-4.18s2.19-3.48 5-3.48h4.63l-.84 2h-3.58a2.2 2.2 0 0 0-1.46.95c-.38.68.16 1.22.58 1.45.4.22 3.67 1.88 3.67 3.95 0 2.92-3.14 3.65-4.72 3.65Z" fill="#1D2942"/><path fill-rule="evenodd" d="M36.8 34h3.94l1.75-3h4.8l.3 3H51l-1.4-12h-5.16L36.8 34Zm10.28-5-.52-4.97-2.9 4.97h3.42Z" fill="#1D2942"/></svg>