<!-- by TradingView --><svg width="56" height="56" viewBox="0 0 56 56" xmlns="http://www.w3.org/2000/svg"><path fill="#F0F3FA" d="M0 0h56v56H0z"/><path d="M30.05 13c3.28.42 9.1 2.73 8.95 14h4l-.05-.78c-.12-1.9-.29-4.8-2.44-8.28-2.47-4-8-4.96-10.46-4.94ZM16 13v.67h2.14c.55 0 .86.45.86 1v8.27c0 .07.38.31 1.3.75.52.25 1.12.58 1.65.87.41.23.79.43 1.05.56V15.9c.02-.85.8-2.61 2.75-2.9H16Zm-.37 5.27a8.41 8.41 0 0 0-2.13 5.32c0 3.08 1.59 4.81 4.14 6.02 2.05.96 7 3.42 9.23 4.53.97.36 2.94 1.49 3.02 3.08.83-1.85 1.3-6.2-3.56-8.79-1.23-.65-2.5-1.24-3.74-1.82-4.88-2.27-9.1-4.24-6.96-8.34ZM19 39.88v-7.64l4 2.08v5.56a3.1 3.1 0 0 0 1.27 2.49h4.38a11.94 11.94 0 0 0 8.94-4.88c1.17-2.9 1.42-7.23 1.4-9.03h-7.4V28H45v.46h-2C43.1 40.33 34.22 43 30.75 43H16.08v-.63h2.1c.78-.78.83-1.98.82-2.49Zm-6-3.26c0 .98.64 2 .97 2.38-.15-.28-.36-.97 0-1.52.78.25 2.03-.18 2.03-1.06 0-.88-.66-1.42-1.37-1.42-.71 0-1.63.4-1.63 1.62ZM27 16c.5.08 1.68.43 2.4 1.21.93.98.62 1.93.15 2.42-.47.5-1.3.54-1.96-.16-.66-.7-.16-1.91.54-2.26A1.95 1.95 0 0 0 27 16Z" fill="url(#a)"/><defs><linearGradient id="a" x1="29.15" y1="13" x2="29.15" y2="43" gradientUnits="userSpaceOnUse"><stop stop-color="#353C8A"/><stop offset=".27" stop-color="#405A9D"/><stop offset=".39" stop-color="#5389BF"/><stop offset=".58" stop-color="#344B83"/><stop offset=".69" stop-color="#30437B"/><stop offset="1" stop-color="#1B1851"/></linearGradient></defs></svg>