<!-- by TradingView --><svg width="56" height="56" viewBox="0 0 56 56" xmlns="http://www.w3.org/2000/svg"><path fill="#F0F3FA" d="M0 0h56v56H0z"/><path fill-rule="evenodd" d="M15.74 21H7.6l-.38.7h.4a.4.4 0 0 1 .4.54l-2.63 8.3a.6.6 0 0 1-.58.42h-.4L4 32h9.44c.72 0 1.35-.47 1.56-1.16l2.3-7.76A1.62 1.62 0 0 0 15.73 21Zm-7 10 2.95-9h1.68c.83 0 .82.73.72 1.09a965.1 965.1 0 0 0-2.07 6.83c-.22.78-1.04 1.05-1.42 1.08H8.73Zm15.47-2H19.8l-.5 1.4c-.26.61.02.6.22.6H20.21c.59 0 .93-.61 1.03-1h2.6l-.14.66A1.59 1.59 0 0 1 22.18 32h-3.77c-1.76 0-1.76-1.36-1.55-2.04l.88-2.67a1.8 1.8 0 0 1 1.5-1.29h4.37c1.26 0 1.27 1.14 1.11 1.71l-.5 1.29Zm-2.44-1h-1.6l.33-.7c.1-.18.32-.3.58-.3h.51c.27 0 .46.2.4.39l-.22.61Zm2.88 4 3.52-11h2.85l-3.59 11h-2.78Zm6.37-5H30l4.97-4-.91 3h1.54l-.44 1h-1.33l-1.1 2.9c-.1.32-.1.97.53.97h.85l-.49 1.1h-2.27c-.53-.03-1.65-.5-1.35-2.07l1.02-2.9Zm4.4 3.25 1.06-3.18c.21-.64.84-1.07 1.54-1.07h3.93c.95 0 1.63.86 1.36 1.72l-.97 3.17c-.2.66-.84 1.11-1.56 1.11h-4c-.97 0-1.65-.88-1.36-1.75ZM39.74 27h.36c.41 0 .7.34.58.68l-1.02 2.83c-.1.3-.42.49-.78.49h-.32c-.4 0-.7-.34-.58-.67l.99-2.83c.1-.3.42-.5.77-.5Zm6.12 5h-2.72l2.06-6H48l-.26.75c.69-.35 1.78-.75 2.94-.75 1.55 0 1.42 1.6 1.16 2.39L50.68 32h-2.62l1.27-3.61c.14-.37.2-1.1-.68-1.1-.5 0-.98.34-1.38.75L45.86 32Z" fill="#07108F"/></svg>