<!-- by TradingView --><svg width="56" height="56" viewBox="0 0 56 56" xmlns="http://www.w3.org/2000/svg"><path fill="#F0F3FA" d="M0 0h56v56H0z"/><path d="M22.53 12c.23.05.46.05.7 0h.3c.17.1.45.1.82 0h10.02a651.2 651.2 0 0 0-.02 10.09c0 .27.01.48.05.63.06.27.11.27.17 0 .03-.18.21-.28.54-.3.06 0 .22.02.48.07.14.02.3.02.47 0a3.2 3.2 0 0 1 1.04 0c.24.05.47.05.7 0 .3-.08.65-.07 1 .05.06.02.12.02.18 0a2.9 2.9 0 0 1 1-.08h.75c.49-.02.85-.02 1.09.02l.14 3.22c0 .02 0 .03.03.03l.05-.01a.08.08 0 0 0 .05-.08l.1-3.18 1.81.01v11.58L35.39 34c-.25.04-.48.1-.71.06-.1-.02-.16-.07-.16-.18 0-.46 0-.75.02-.87.06-.28.07-.57.04-.86a8.48 8.48 0 0 1 .07-1.85c.01-.1-.03-.13-.12-.1h-.06c-.1.03-.14.09-.12.18.07.6.08 1.15 0 1.63-.02.2-.02.48 0 .86.01.31.02.55 0 .72 0 .1-.05.31-.14.61-.06.2-.21.41-.21.64.01 1.57.02 4.63 0 9.16h-2.88c-.19-.12-.35-.12-.5 0h-1.07c-.28-.1-.57-.1-.84 0h-3.02a.37.37 0 0 0-.39 0H23.8c.01-.54-.06-.99-.21-1.34 0-.13.07-.21.2-.23.06 0 .12 0 .16.04l.2.13c.06.04.13.05.2.05.21-.03.42-.02.62 0 .24.03.44.04.59.03l.76-.08c.06 0 .1-.03.15-.07.06-.08.13-.11.2-.11.05 0 .1.03.14.08.07.1.16.17.26.22.05.03.11.04.17.02l.84-.17c.08-.02.15 0 .21.06.06.05.09.12.07.2l-.09.58c-.01.1.02.15.12.16l.24.04c.3.04.5.05.62.01.21-.07.44-.12.7-.16.06-.01.11-.04.16-.08.11-.13.2-.3.28-.52.01-.06.06-.1.12-.1.08 0 .17.03.28.07h.01c.46-.17.98-.22 1.57-.16.09.01.15.05.2.12.04.07.05.15.03.23l-.12.34c-.02.07 0 .1.07.12h.07c.05.02.08 0 .09-.06.02-.24.08-.44.17-.6a.66.66 0 0 1 .16-.16c.1-.07.15-.12.18-.16.07-.08.1-.18.09-.3-.03-.44-.04-1.38-.04-2.8 0-.38-.18-.56-.54-.54-.06 0-.17.03-.3.06-.24.06-.41.09-.54.07-.08 0-.2-.03-.36-.05a3.2 3.2 0 0 0-.96-.05 4.1 4.1 0 0 1-1.3.02c-.12-.02-.17-.1-.13-.22a.84.84 0 0 0-.09-.74.13.13 0 0 1 0-.15c.39-.57.58-1.14.6-1.72 0-.24-.09-.62-.27-1.14a5.3 5.3 0 0 1-.22-.73c0-.06-.04-.08-.1-.06-.16.04-.28 0-.37-.16l-.57-1c-.03-.06-.08-.08-.15-.07l-.15.03-.02-.01a.1.1 0 0 1 .04-.06l.05-.02a.8.8 0 0 0 .05 0c.07 0 .1-.03.09-.1-.18-.89-.36-1.67-.54-2.36-.06-.22-.05-.74.02-1.56.02-.25.02-.48 0-.67-.04-.27-.04-.5-.01-.7.03-.22-.05-.48-.26-.77a24.07 24.07 0 0 1-1.53-2.47.32.32 0 0 1-.04-.18c.02-.25.02-.42.01-.51 0-.1-.05-.12-.1-.03l-.12.17a.16.16 0 0 1-.14.08h-1.18c-.1 0-.15-.05-.17-.14l-.05-.2a.11.11 0 0 0-.1-.1.11.11 0 0 0-.12.05l-.22.34c-.05.07-.1.1-.19.08l-.8-.13c-.07 0-.1-.05-.11-.1l-.07-.59c.04-.23.05-.47.06-.7l.08-6.71c0-.46 0-1.05-.02-1.78-.02-.6-.02-1.19-.02-1.78h.13Z" fill="#D3210E"/><path d="M24.35 12c-.37.1-.65.1-.82 0h.82Z" fill="#fff"/><path d="M23.88 13.03c0 .07-.02.13-.03.17-.03.1-.06.1-.07 0-.06-.31-.08-.64-.07-.97 0-.05.02-.06.07-.05l.05.02.02.04c.05.23.06.5.03.79Z" fill="#F1A58C"/><path d="M27.4 12.34h-.03a.05.05 0 0 0-.05.05l-.01 1.87c0 .02.02.05.05.05h.04c.02 0 .05-.03.05-.05v-1.87a.05.05 0 0 0-.04-.05ZM30.87 13.57c-.01.35.03.65.1.65.06 0 .12-.29.13-.65 0-.36-.04-.65-.1-.65-.07 0-.12.29-.13.65Z" fill="#EE7A54"/><path d="M23.82 13.93a.08.08 0 0 0-.09.09v4.9c0 .05.03.08.08.08s.09-.03.09-.08v-4.9a.08.08 0 0 0-.08-.09ZM25.62 14.77h-.01a.06.06 0 0 0-.06.05l-.03 3.44c0 .03.03.05.06.05.04 0 .06-.02.06-.05l.03-3.43a.06.06 0 0 0-.05-.06ZM27.31 15.1c0 .12.04.23.1.23.04 0 .08-.1.09-.23 0-.13-.04-.23-.1-.23-.04 0-.09.1-.09.23Z" fill="#F1A58C"/><path d="M27.42 15.7h-.05a.07.07 0 0 0-.06.07l.05 2.6c0 .04.03.07.07.07h.05c.03 0 .06-.03.06-.07l-.05-2.6a.07.07 0 0 0-.07-.07ZM30.96 15.78a.07.07 0 0 0-.07.07l.04 2.08c0 .04.04.07.07.07h.01c.04 0 .07-.03.07-.07l-.05-2.09a.07.07 0 0 0-.07-.06ZM32.7 17.12c.03-.08.05-.08.07 0 .03.2.04.35.03.47 0 .08-.03.09-.08.02-.08-.12-.08-.28-.01-.49ZM30.9 18.68c-.01.17.02.32.08.33.06 0 .13-.13.15-.3.02-.18-.01-.33-.07-.34-.06 0-.13.13-.15.3Z" fill="#EE7A54"/><path d="M29.13 18.78c0 .19.04.34.1.34.07 0 .12-.15.12-.34 0-.19-.04-.35-.1-.35-.06 0-.12.16-.12.35ZM27.49 19.6c-.02.06-.05.07-.1.02-.16-.15-.15-.35.02-.59.04-.07.07-.06.08.02.03.23.03.41 0 .54ZM32.8 18.99h-.02a.05.05 0 0 0-.05.04l-.1 1.68c0 .03.01.05.04.05h.02c.02 0 .05-.01.05-.04l.1-1.68a.05.05 0 0 0-.04-.05ZM23.76 19.8c.02.3.06.55.1.54.04 0 .05-.25.04-.55-.02-.3-.07-.55-.1-.55-.04 0-.06.25-.04.56Z" fill="#F1A58C"/><path d="M31.2 19.5c.02.1 0 .21-.06.34-.03.07-.06.07-.08 0-.06-.19-.07-.3-.05-.36.07-.18.13-.18.18.01ZM30.93 20.43c.02.16.09.28.15.27.06 0 .09-.14.07-.3-.03-.15-.1-.27-.15-.27-.06.01-.1.15-.07.3Z" fill="#EE7A54"/><path d="M28.94 20.89c-.09-.03-.14-.04-.16-.03-.1.03-.15.1-.15.17 0 1.01-.01 1.7-.03 2.04-.01.15-.04.3-.1.43a.06.06 0 0 1-.06.04c-.03 0-.05 0-.06-.03-.28-.44-.4-.79-.37-1.04.07-.52.08-1 .04-1.44a.24.24 0 0 0-.08-.15.44.44 0 0 0-.32-.12.15.15 0 0 1-.14-.07l-.17-.3c-.07-.23 0-.27.17-.13.03.02.09.03.19.02.6-.02 1.04-.02 1.33-.02.13 0 .2.07.22.2l.08 1.08c0 .02 0 .03-.02.04l-.11.14a.07.07 0 0 1-.09.03c-.03-.01-.04-.04-.04-.07v-.62c0-.09-.04-.15-.13-.17Z" fill="#F0E7E1"/><path d="M23.7 21c-.02.18.02.33.08.33s.11-.14.12-.33c.01-.18-.03-.34-.08-.34-.06 0-.12.15-.13.33ZM25.55 20.8a.1.1 0 0 0-.1.1l.05 2.13c0 .06.04.1.1.1a.1.1 0 0 0 .1-.1l-.05-2.13a.1.1 0 0 0-.1-.1ZM27.41 20.94a.1.1 0 0 0-.12.11v1.29c0 .06.04.1.1.1h.01a.1.1 0 0 0 .11-.1l.01-1.29a.1.1 0 0 0-.1-.1Z" fill="#F1A58C"/><path d="M32.71 23.34h.1c.05.2.17.36.35.46.05.02.1.03.16.02l.8-.16c.16-.04.25-.09.28-.15.12-.25.2-.24.23.03 0 .02.02.07.07.13.04.05.07.09.11.1.35.15.65.1.9-.14.05-.04.06-.1.04-.15a.9.9 0 0 1-.07-.44c0-.06.04-.1.1-.14l.06-.03c.04-.03.07-.02.08.03.03.15.02.35-.04.6-.02.1.01.15.09.19.4.18.8.2 1.22.04.07-.02.1-.07.1-.14v-.86c0-.04.03-.06.07-.06h.1c.03 0 .05.01.04.05l-.01.1c-.07.37-.04.65.07.82.03.06.08.09.14.1.19.07.45.07.8.02.32-.05.47-.23.44-.53-.01-.07.01-.12.07-.15a.2.2 0 0 1 .17-.02c.06.01.07.05.03.1a.9.9 0 0 0-.2.3.17.17 0 0 0 .02.15c.11.14.23.23.36.29.13.05.16.14.1.27l-.05.12c-.06.14-.16.17-.3.1-.3-.15-.58-.2-.82-.12-.13.03-.19.12-.16.25 0 .06.05.1.1.1.55.05.83.25.84.6 0 .06-.03.1-.09.1-.42.05-.87.17-1.34.36-.08.03-.2.02-.33-.03a1.95 1.95 0 0 0-1.25-.06c-.05.01-.08.05-.08.1v.53c0 .07.03.11.1.12.12.03.29.11.5.24.18.1.24.24.2.38-.02.08-.09.17-.22.29-.25.23-.46.44-.6.63a.15.15 0 0 1-.14.06h-1c-.03 0-.05.01-.08.03l-.23.18c-.05.04-.1.03-.13-.02-.08-.14-.19-.2-.33-.2-.31.03-.62.04-.9.02-.19 0-.3.08-.32.25v.01c-.04.17.03.27.2.29.75.08 1.22.01 1.42-.2.04-.04.08-.04.12 0 .09.08.15.16.2.23.03.05.03.14 0 .28-.06.25-.13.5-.22.76a.2.2 0 0 1-.11.12c-.4.17-.77.32-1.13.44-.45.15-.84.23-1.18.22-.69-.01-1.26-.04-1.72-.1-.16 0-.23-.1-.2-.26l.16-1.05a.5.5 0 0 1 .2-.32c.1-.08.22-.11.35-.1.44.04.93.04 1.47 0 .13-.01.2-.08.2-.21v-.1c0-.17-.09-.25-.25-.25h-.82a.14.14 0 0 1-.13-.07.14.14 0 0 1 0-.15c.26-.46.59-.86 1-1.2.03-.04.08-.05.14-.05h1.54a.2.2 0 0 0 .17-.09.2.2 0 0 0 .03-.19c-.06-.17-.02-.33.13-.46.04-.04.04-.09 0-.13-.08-.08-.16-.12-.24-.11-.52.02-.95.02-1.3-.01-.15-.02-.32.07-.52.25-.58.55-1.07 1.12-1.45 1.7-.1.14-.2.22-.28.24-.1.03-.2 0-.3-.06a.43.43 0 0 1-.15-.27 8.58 8.58 0 0 0-.3-1.24.2.2 0 0 1 .02-.18l.82-1.24a.9.9 0 0 0 .16-.48l.06-2.12.08-.46c.03-.16.02-.32-.03-.48l.01-.02c.46-.08.47-.08.02 0v.03c.08.13.1.25.08.35-.12.52-.12 1 0 1.4.02.06.02.11 0 .17-.05.2-.06.43-.01.71 0 .09.06.12.15.1.3-.07.62-.1.97-.1.3 0 .46-.15.5-.46Z" fill="#F0E7E1"/><path d="M32.8 23.33h-.09l-.06-2.2h.05c.03 0 .05.01.05.04l.06 2.16Z" fill="#F1A58C"/><path d="M23.68 21.9c0 .17.07.3.14.3s.12-.15.1-.31c0-.17-.07-.3-.14-.3s-.11.15-.1.31Z" fill="#F7C5D5"/><path d="M29.36 23.71c-.07.07-.1.26-.11.57 0 .07-.03.08-.09.04-.07-.05-.1-.11-.09-.19l.07-.43c.02-.12 0-.27-.04-.43-.08-.36-.1-.7-.04-1.02 0-.07.05-.1.11-.1.28-.03.54-.12.8-.27.04-.03.09-.03.14 0 .05.01.08.05.1.1.1.45.01.89-.25 1.32-.07.12-.22.22-.46.31a.42.42 0 0 0-.14.1Z" fill="#F0E7E1"/><path d="m42.18 22.46-.09 3.18c0 .04-.01.06-.05.08a.12.12 0 0 1-.05 0c-.02 0-.03 0-.03-.02l-.14-3.22.36-.02Z" fill="#EE7A54"/><path d="m22.2 22.99.03.54c.01.12-.04.19-.17.2-.5.05-.93.02-1.29-.09a1.2 1.2 0 0 0-.09-.74c-.03-.06-.05-.05-.06 0-.07.24-.07.49-.02.75-.2.08-.37.12-.51.12-.92-.03-1.8-.1-2.66-.18a.24.24 0 0 0-.23.1.24.24 0 0 0-.03.25l.4.9c.02.05.06.1.12.13.44.3.82.47 1.12.54a2 2 0 0 0 .74-.02c.3-.05.53-.06.68-.03.19.05.5.05.94.03.35-.02.6-.02.76 0 .2.02.5.01.88-.03.2-.02.37-.04.5-.04.24-.01.36.1.36.35v.18c0 .26-.13.4-.38.41-.37.03-.66.02-.88-.03a.09.09 0 0 1-.07-.07.5.5 0 0 1 0-.06c-.01-.17-.06-.18-.16-.05-.08.13-.2.2-.37.23-.43.08-.72.05-.89-.08a.2.2 0 0 0-.16-.05 5.2 5.2 0 0 0-.72.14c-.4.12-.4.27.01.47.17.08.35.28.55.61.02.03.05.06.09.07.6.23.96.36 1.07.39.2.05.43.05.69 0a2.5 2.5 0 0 1 1.17.07h.16c.35-.1.73-.14 1.13-.12.05 0 .1-.03.13-.07.03-.05.04-.1.02-.15-.2-.56-.57-1-1.08-1.33a.21.21 0 0 1-.1-.14l-.12-.55c-.01-.07.02-.1.09-.1h.4a.2.2 0 0 1 .17.09l2.19 3.02c.36.5.6.9.69 1.17.02.06 0 .17-.04.32a.23.23 0 0 0 0 .16c.07.16.1.34.06.54a9.08 9.08 0 0 0-.1 2.56c.05.42.07.8.05 1.15 0 .07.02.12.08.16.14.1.23.18.26.23.38.74.8 1.42 1.23 2.02a.5.5 0 0 1 .1.39l-.03.14c-.03.19-.11.22-.25.08-.11-.1-.2-.23-.28-.38a.15.15 0 0 0-.14-.1.15.15 0 0 0-.15.09.52.52 0 0 0-.07.33c.08.56.11.95.1 1.19-.02.18-.12.27-.3.27h-.14c-.17 0-.25-.08-.25-.25 0-.42-.02-.72-.06-.9a2.7 2.7 0 0 1 0-.89 6.56 6.56 0 0 0-.02-1.86l-.07-.03h-.01a140.65 140.65 0 0 0-.08 4.12c-.03.07-.02.11.04.13a.3.3 0 0 0 .1.02c.28-.01.46.11.55.37.17.48.33 1 .48 1.56.04.16.09.16.14.01l.58-1.77a.19.19 0 0 1 .08-.1c.18-.12.39-.11.61.01.05.03.08.07.08.13.03.85 0 1.7-.05 2.57-.01.08-.04.14-.1.2-.05.04-.11.06-.17.04-.13-.04-.2-.17-.23-.4-.02-.22 0-.58.06-1.06 0-.03 0-.06-.04-.08l-.05-.03c-.07-.05-.11-.03-.13.05-.1.48-.28.98-.54 1.49a.15.15 0 0 1-.13.08.15.15 0 0 1-.13-.05c-.21-.26-.41-.78-.6-1.55l-.07-.27-.01-.01-.06-.04c-.02-.01-.03 0-.03.01v1.55c0 .14-.06.22-.2.23h-.08c-.18-.05-.27-.16-.27-.33l.01-2.44c0-.04.01-.07.04-.1a.63.63 0 0 1 .04-.04c.04-.04.03-.09 0-.12l-.3-.27a.19.19 0 0 0-.14-.05h-.82c-.18 0-.26-.08-.25-.26a24.34 24.34 0 0 0-.03-3.02l.05-.54c.01-1.36.02-2.88.01-4.57 0-.13.06-.2.19-.2l1.33-.06c.05 0 .05-.02.02-.06-.24-.24-.53-.55-.89-.96a1 1 0 0 0-.5-.27c-.1-.03-.22-.1-.37-.2a.85.85 0 0 0-.56-.2c-.42.04-.79-.02-1.09-.16a.16.16 0 0 0-.17.01c-.3.21-.69.27-1.13.17-.14-.03-.23.03-.25.17l-.09.54c-.01.08.02.1.09.06a.43.43 0 0 1 .22-.08c.1 0 .18.05.26.13l.96.89c.05.04.06.1.04.15-.07.26-.09.49-.05.68.05.2.07.46.06.78a29.65 29.65 0 0 1-.09 1.81c-.03.25-.02.5.04.76.04.18.06.43.07.76 0 .04.02.05.06.04l.05-.02c.02-.01.02-.03.02-.05a2.35 2.35 0 0 1-.1-.7c.08-.91.1-1.82.08-2.73l-.05-.35a.35.35 0 0 1 0-.18c.1-.28.1-.55.05-.8-.02-.14.03-.21.18-.21h1.25c.13 0 .2.07.22.2l.02.46c-.03 2.66-.04 5.16-.04 7.5 0 .12.01.21.03.26.04.09.03.17-.04.24a.26.26 0 0 1-.25.09 2.64 2.64 0 0 0-.8-.04c-.46.05-.66-.15-.62-.6.02-.24.03-.48.02-.72 0-.7-.06-.7-.16 0l-.04.19c-.05.27-.07.48-.06.62.01.13-.06.29-.21.47l-.12.17c-.04.06-.06.18-.06.36 0 1.1.04 2.18.1 3.23.2.15.32.35.34.63.02.4-.04.64-.18.71h-.7l-.23-.05c-.06-.01-.1-.05-.1-.1l.05-7.31c0-.22.03-.53.1-.96l.06-.47c.03-.26-.09-.6-.34-.99-.04-.05-.08-.13-.15-.12h-8.12s-.3.02-.85 0c-.3-.01-.6-.04-.91 0h-.16a.37.37 0 0 1-.06-.18V22.57l9.93-.03c.06 0 .11.02.14.07.07.11.11.23.12.38Z" fill="#D3210E"/><path d="M23.61 22.78c.01.12.08.22.16.21.08 0 .13-.1.13-.23 0-.12-.08-.22-.15-.21-.08 0-.14.1-.14.23Z" fill="#F7C5D5"/><path d="M14.5 23.07c0 .18.06.33.12.33.05 0 .1-.16.08-.35-.01-.18-.07-.33-.13-.33-.05 0-.1.16-.08.35Z" fill="#EE7A54"/><path d="M19 23.03c-.01.16.04.3.13.3.08.02.17-.1.19-.26.02-.16-.04-.3-.12-.3-.09-.02-.17.1-.2.26ZM20.77 23.64a.45.45 0 0 1-.17.01c-.05-.26-.05-.5.02-.74.01-.06.03-.07.06 0 .1.2.14.46.09.73ZM17.5 23.14c-.02.13.01.25.07.26.06 0 .12-.1.13-.24.02-.13-.02-.25-.08-.25-.05 0-.11.1-.13.23Z" fill="#F1A58C"/><path d="m22.3 22.97.07.58c0 .06.04.1.1.11l.81.13c.08.01.14-.01.19-.08l.22-.34a.11.11 0 0 1 .13-.05c.05.01.08.04.1.1l.04.2c.02.09.07.14.17.14h1.18c.06 0 .11-.03.14-.08l.11-.17c.06-.09.1-.08.11.03.01.1 0 .26-.01.5 0 .07 0 .13.04.19.49.9 1 1.73 1.53 2.47.2.3.3.55.26.78-.03.19-.03.42 0 .69.03.2.03.42 0 .67a6.04 6.04 0 0 0 0 1.56c.17.69.35 1.47.53 2.36.01.07-.02.1-.1.1a.8.8 0 0 1-.04 0c-.02 0-.03 0-.05.02a.1.1 0 0 0-.04.06c0 .01 0 .02.02.01l.15-.03c.07-.01.12.01.15.07.08.12.27.46.57 1 .09.15.2.2.37.16.06-.02.1 0 .1.06.03.15.1.4.22.73.18.52.27.9.27 1.14a3.22 3.22 0 0 1-.6 1.72.13.13 0 0 0 0 .15c.15.23.18.48.1.74-.05.13 0 .2.12.22.43.06.86.06 1.3-.02.22-.03.54-.02.96.05l.36.05c.13.02.3 0 .53-.07l.31-.06c.36-.02.54.16.54.55 0 1.41.01 2.35.04 2.8 0 .11-.02.21-.1.3l-.17.15a.66.66 0 0 0-.16.15c-.1.17-.15.37-.17.61 0 .05-.04.08-.09.07l-.07-.01c-.07-.01-.09-.05-.07-.12l.12-.34a.25.25 0 0 0-.03-.23.25.25 0 0 0-.2-.12 3.41 3.41 0 0 0-1.58.16.64.64 0 0 0-.28-.07c-.06 0-.1.04-.12.1a1.4 1.4 0 0 1-.28.52.26.26 0 0 1-.16.08c-.26.04-.5.1-.7.16-.12.04-.33.03-.62-.01l-.24-.04c-.1-.01-.13-.07-.12-.16l.1-.57a.22.22 0 0 0-.08-.21.23.23 0 0 0-.21-.06l-.84.17a.26.26 0 0 1-.17-.02.68.68 0 0 1-.26-.22.17.17 0 0 0-.15-.08c-.06 0-.13.03-.2.1a.22.22 0 0 1-.14.08l-.76.08c-.15.01-.35 0-.6-.03-.19-.02-.4-.03-.62 0-.06 0-.12-.01-.18-.05l-.2-.13a.22.22 0 0 0-.16-.04c-.14.02-.21.1-.21.23h-.34a75.26 75.26 0 0 1-.1-3.23c0-.18.03-.3.07-.36l.12-.17c.15-.18.22-.34.21-.47-.01-.14 0-.35.06-.62l.04-.2c.1-.7.15-.69.16.01 0 .24 0 .48-.02.72-.04.45.16.65.62.6.22-.03.49-.02.8.04.1.02.18-.01.25-.09a.21.21 0 0 0 .04-.24.76.76 0 0 1-.03-.26c0-2.34.01-4.84.04-7.5 0-.1 0-.24-.02-.46-.01-.13-.09-.2-.22-.2H24c-.15 0-.2.07-.18.21.06.25.04.52-.05.8a.35.35 0 0 0 0 .18l.05.35c.02.91 0 1.82-.08 2.73-.02.15.02.38.1.7 0 .02 0 .04-.02.05l-.05.02c-.04.01-.06 0-.06-.04 0-.33-.03-.58-.07-.76-.06-.25-.07-.5-.04-.76.03-.14.05-.74.09-1.8 0-.33 0-.59-.06-.8-.04-.18-.02-.4.05-.67a.14.14 0 0 0-.04-.15c-.38-.34-.7-.64-.96-.9a.37.37 0 0 0-.26-.12.43.43 0 0 0-.22.08c-.07.04-.1.02-.09-.06l.09-.54c.02-.14.1-.2.25-.17.44.1.82.04 1.13-.17.06-.03.11-.04.17 0 .3.13.67.19 1.1.15.17-.01.35.05.55.2.15.1.27.17.38.2a1 1 0 0 1 .5.27c.35.4.64.72.88.96.03.04.03.06-.02.06l-1.33.06c-.13 0-.19.07-.19.2v4.57l-.06.54c-.02.1 0 .27.02.5l.03.24c.02 1 .02 1.76-.02 2.28-.01.18.07.26.25.26h.82c.05 0 .1.02.13.05l.3.27c.04.03.05.08 0 .12a.6.6 0 0 0-.03.04.14.14 0 0 0-.04.1l-.01 2.44c0 .17.09.28.27.34h.08c.14-.02.2-.1.2-.24v-1.55c0-.02.01-.02.03-.01l.06.04v.01l.08.27c.19.77.39 1.29.6 1.55.03.04.08.06.13.05.06 0 .1-.03.13-.08.26-.51.44-1 .54-1.5.02-.07.06-.09.13-.04l.05.03c.03.02.04.05.04.08a4.9 4.9 0 0 0-.06 1.06c.03.23.1.36.23.4.06.02.12 0 .17-.05a.28.28 0 0 0 .1-.2c.06-.86.08-1.71.05-2.56 0-.06-.03-.1-.08-.13-.22-.12-.43-.13-.61 0a.19.19 0 0 0-.08.1l-.58 1.76c-.05.15-.1.15-.14 0-.15-.57-.31-1.09-.48-1.57-.09-.26-.27-.38-.54-.37a.3.3 0 0 1-.11-.02c-.06-.02-.07-.06-.04-.13a141.04 141.04 0 0 1 .1-4.12l.06.03.03.05c.08.67.08 1.27 0 1.81a2.7 2.7 0 0 0 0 .9c.03.17.04.47.05.9 0 .16.08.24.25.24h.14c.18 0 .28-.1.3-.27.01-.24-.02-.63-.1-1.19a.52.52 0 0 1 .07-.33.15.15 0 0 1 .15-.08c.06 0 .11.03.14.09.08.15.17.27.28.38.14.14.22.1.25-.08l.02-.14a.5.5 0 0 0-.1-.4c-.43-.6-.84-1.27-1.22-2a.9.9 0 0 0-.26-.24.17.17 0 0 1-.08-.16c.02-.34 0-.73-.06-1.15-.09-.67-.05-1.52.1-2.56a.94.94 0 0 0-.05-.54.23.23 0 0 1 0-.16c.05-.15.06-.26.04-.32-.1-.27-.33-.66-.7-1.17l-2.18-3.02a.2.2 0 0 0-.17-.1h-.4c-.07 0-.1.04-.09.11l.12.55c.01.06.05.11.1.14.51.33.87.77 1.08 1.33.02.06.01.1-.02.15a.15.15 0 0 1-.13.07c-.4-.02-.78.03-1.13.12a.33.33 0 0 1-.16 0 2.5 2.5 0 0 0-1.17-.07c-.26.05-.5.05-.7 0l-1.06-.39a.16.16 0 0 1-.09-.07c-.2-.33-.38-.53-.55-.61-.4-.2-.4-.35 0-.47.14-.05.38-.1.71-.14a.2.2 0 0 1 .16.05c.17.13.46.16.89.08.17-.03.3-.1.37-.23.1-.13.15-.12.15.05l.01.06c0 .04.03.06.07.07.22.05.51.06.88.03.25-.02.38-.15.38-.4v-.2c0-.24-.12-.35-.37-.34l-.49.04c-.38.04-.68.05-.88.02h-.76c-.44.03-.75.03-.94-.02a1.93 1.93 0 0 0-.68.03 2 2 0 0 1-.74.02c-.3-.07-.68-.25-1.12-.54a.32.32 0 0 1-.12-.14l-.4-.9a.24.24 0 0 1 .03-.24.24.24 0 0 1 .23-.1c.85.09 1.74.15 2.66.18.14 0 .31-.04.51-.12h.17c.36.1.79.13 1.3.08.12-.01.17-.08.16-.2l-.04-.54a.31.31 0 0 1 .11-.02Z" fill="#F0E7E1"/><path d="m29.15 33.78-.06-.01a6.31 6.31 0 0 1-.49-1.05c-.3-1.17-.49-2.4-.59-3.68-.03-.33.05-.36.22-.08.05.07.2.19.47.35.06.04.12.04.18 0s.08-.1.07-.17a3.95 3.95 0 0 0-.31-.88c-.1-.21-.33-.64-.7-1.3a.94.94 0 0 0-.26-.26c-.16-.11-.25-.22-.28-.32-.17-.6-.4-1.1-.67-1.5a.36.36 0 0 1 0-.44l.49-.74c.1-.15.18-.14.26.02.34.67.85 1.28 1.53 1.8.07.06.16.2.29.46.04.07.25.66.65 1.76.12.33.16.67.12 1-.1.74-.3 1.4-.59 1.96-.12.22-.18.46-.2.73a64.56 64.56 0 0 0-.06 1.99c0 .16-.03.28-.07.36Z" fill="#F0E7E1"/><path d="M40.58 24.04a.7.7 0 0 1 0 .25c-.02.06-.06.07-.11.04-.11-.08-.17-.16-.18-.25-.01-.1.03-.19.12-.29.04-.05.08-.04.1.02.04.06.06.13.07.23ZM13.18 24.3h-.11a.05.05 0 0 0-.05.05l-.1 4.64c0 .02.03.05.05.05h.11c.03 0 .05-.02.05-.05l.1-4.64a.05.05 0 0 0-.05-.04Z" fill="#EE7A54"/><path d="M14.6 24.44a.1.1 0 0 0-.1.1v4.35c0 .05.03.09.08.09h.01a.1.1 0 0 0 .1-.1v-4.35a.1.1 0 0 0-.1-.09Z" fill="#F1A58C"/><path d="M27.29 24.87a.2.2 0 1 0 0-.4.2.2 0 0 0 0 .4Z" fill="#D3210E"/><path d="M16.17 24.78a.1.1 0 0 0-.11.1l-.05 5.07c0 .06.04.1.1.1a.1.1 0 0 0 .1-.1l.06-5.07a.1.1 0 0 0-.1-.1Z" fill="#EE7A54"/><path d="M34.53 25.7c0-.02 0-.03.02-.04l.87-.18a.2.2 0 0 1 .19.05c.15.14.2.37.13.7a.19.19 0 0 1-.1.12c-.17.1-.48.14-.91.1a.2.2 0 0 1-.16-.08.2.2 0 0 1-.02-.17c.03-.1.02-.27-.02-.5Z" fill="#D3210E"/><path d="M38.85 26.17c.01.17.07.3.13.3s.09-.15.07-.32c-.01-.18-.07-.31-.13-.3-.05 0-.09.14-.07.32Z" fill="#F1A58C"/><path d="M19.08 26.2c0 .17.07.3.13.3s.1-.15.09-.32c-.01-.16-.07-.3-.14-.3-.06.01-.1.15-.08.32Z" fill="#EE7A54"/><path d="M32.55 26.1c0 .1.06.18.14.18.07 0 .13-.08.13-.19 0-.1-.06-.19-.13-.19-.08 0-.14.09-.14.2Z" fill="#F1A58C"/><path d="M37.1 26.6c-.04-.02-.05-.05-.02-.1l.01-.01c.18-.3.3-.4.4-.35l.04.02c.1.06.05.23-.13.52v.02c-.03.04-.06.05-.1.02l-.2-.12Z" fill="#F7C5D5"/><path d="m40.49 27.13.08 2.03c.01.3 0 .74-.06 1.34 0 .1 0 .26.03.46.02.23.03.4 0 .51a2.2 2.2 0 0 0 0 .68c.02.25.03.42 0 .54-.03.23-.04.58-.04 1.06 0 .05-.02.06-.06.04l-.04-.02-.01-.01c-.05-1.21-.05-2.41.01-3.6.02-.26.01-.57-.02-.94-.03-.39-.03-.7-.03-.95l.04-1a17.25 17.25 0 0 1 .04-.99c.06.15.08.36.06.62v.23Z" fill="#F1A58C"/><path d="M17.72 28c0-.27-.03-.45-.1-.55 0-.2-.03-.42-.1-.65-.04-.14-.01-.22.07-.26a.12.12 0 0 1 .12 0c.04.03.06.07.06.11L17.72 28Z" fill="#EE7A54"/><path d="M38.97 26.84a.07.07 0 0 0-.08.07v4.78c0 .03.02.07.06.07h.01c.04 0 .07-.04.07-.07l.01-4.78a.07.07 0 0 0-.07-.07ZM19 26.94c-.06.1-.06.2 0 .25.06.04.17 0 .23-.09.07-.1.07-.2 0-.25-.05-.04-.16 0-.22.1ZM37.47 27.1h-.03a.09.09 0 0 0-.09.1l-.05 4.55c0 .05.04.09.08.09h.03c.05 0 .09-.04.09-.09l.05-4.55a.09.09 0 0 0-.08-.1ZM17.72 28l.08.57c.01.1-.03.15-.13.15h-.06c-.05 0-.08-.02-.1-.08-.06-.44-.03-.84.1-1.2.08.1.12.3.1.56ZM19.21 30.86c-.02.26-.05.26-.08 0-.07-.47-.1-1.03-.08-1.67 0-.12-.02-.38-.07-.77-.03-.26-.02-.53.04-.8 0-.07.03-.1.06-.11h.09c.05.02.09.06.1.12.05.4.05.77-.01 1.13-.07.36-.07.69-.03.98.04.2.03.58-.02 1.12Z" fill="#F1A58C"/><path d="M20.56 28.08c.04.12.13.2.2.17.08-.03.1-.14.07-.26-.04-.12-.14-.2-.21-.17-.08.03-.1.14-.06.26Z" fill="#F7C5D5"/><path d="m31.06 28.14-.1.1c-.05.04-.07.03-.09-.02l-.01-.07c-.01-.05.01-.08.07-.1.05 0 .1 0 .13.03.02.02.02.04 0 .06ZM25.58 28.44c.06.13.14.2.19.19.04-.02.02-.14-.04-.26s-.14-.2-.18-.18c-.04.02-.03.13.03.25ZM35.81 32.68a2.93 2.93 0 0 1 .05.84h-.04c-.02.01-.03 0-.03-.02.03-.4.02-.78-.02-1.1a6.57 6.57 0 0 1 0-1.48c.01-.22.02-.42 0-.6-.06-.7-.05-1.4.03-2.12 0-.05.02-.06.06-.05l.06.02c.07.02.1.07.1.14 0 .74-.02 1.46-.06 2.16l.02.3c.02.36 0 .62-.05.78a.32.32 0 0 0-.01.17c.06.32.03.58-.08.8a.23.23 0 0 0-.03.16Z" fill="#F1A58C"/><path d="M20.7 28.61a.12.12 0 0 0-.12.12l-.05 1.7c0 .06.05.11.11.11h.01c.07 0 .12-.04.12-.1l.05-1.7a.12.12 0 0 0-.11-.13Z" fill="#F7C5D5"/><path d="M42.03 28.7H42a.05.05 0 0 0-.04.05l-.05 4.94c0 .02.02.04.04.04h.04c.03 0 .05-.02.05-.04l.05-4.94a.05.05 0 0 0-.05-.05ZM13.06 29.12h-.01a.07.07 0 0 0-.07.07l.04 4.38c0 .04.03.07.07.07.04 0 .07-.03.07-.07l-.03-4.38a.07.07 0 0 0-.07-.07ZM14.48 29.85c.04.26.13.46.2.45.08-.01.1-.23.07-.49s-.12-.46-.2-.45c-.07.01-.1.23-.07.49ZM17.64 29.41h-.04a.05.05 0 0 0-.05.06v1.28c0 .03.03.05.06.05h.04c.03 0 .05-.02.05-.05v-1.28a.05.05 0 0 0-.06-.06Z" fill="#F1A58C"/><path d="M22.25 29.87h-.06a.05.05 0 0 0-.05.05l-.01 3.91c0 .03.02.05.05.05h.05c.03 0 .05-.02.05-.05l.01-3.91a.05.05 0 0 0-.04-.05Z" fill="#F7C5D5"/><path d="M43.45 30.11c.03.03.03.06.02.1-.01.04-.03.04-.07.03-.05-.04-.07-.12-.03-.25.02-.09.04-.09.07 0 .01.04.02.08.01.12Z" fill="#EE7A54"/><path d="M16.18 30.52h-.03a.08.08 0 0 0-.08.08l-.08 3.1c0 .05.03.09.07.09h.03c.04 0 .08-.03.08-.08l.08-3.11a.08.08 0 0 0-.07-.08ZM32.75 30.55h-.05a.05.05 0 0 0-.05.05l-.04 4.64c0 .03.02.05.05.05h.05c.03 0 .05-.02.05-.05l.04-4.64a.05.05 0 0 0-.05-.05Z" fill="#F1A58C"/><path d="M31.05 31.8c.05.06.09.12.1.18.03.07.01.12-.06.14-.11.04-.21.04-.3 0-.06-.03-.08-.08-.05-.14.13-.31.17-.74.12-1.27 0-.08.03-.1.1-.06.07.04.1.12.09.25l-.06.76c0 .05.02.1.06.15Z" fill="#EE7A54"/><path d="M14.5 32.08a.72.72 0 0 1 .01-.42.7.7 0 0 0-.09-.6.18.18 0 0 1-.02-.16c.03-.1.1-.18.18-.23a.1.1 0 0 1 .11 0 .1.1 0 0 1 .05.1c-.02.37-.02.75 0 1.14 0 .1-.04.17-.1.21-.07.04-.11.02-.14-.04ZM43.36 31.4c0 .26.01.48.05.48s.09-.21.1-.48c.01-.27-.01-.48-.05-.48s-.08.2-.1.47ZM17.64 31.11a.08.08 0 0 0-.09.08l-.05 1.96c0 .04.03.08.08.08.04 0 .08-.04.08-.08l.05-1.96a.08.08 0 0 0-.07-.08Z" fill="#F1A58C"/><path d="M20.57 31.43c.01.23.06.41.11.4.05 0 .08-.18.07-.41-.01-.23-.06-.42-.11-.42s-.08.2-.07.43Z" fill="#EE7A54"/><path d="m19.24 31.83-.05.97h-.05c-.03 0-.04 0-.04-.03l-.01-.5c-.08-.35-.07-.67.02-.97.02-.06.05-.06.07 0 .07.18.1.36.06.53Z" fill="#F1A58C"/><path d="m19.24 31.83-.03 1.92c0 .04-.01.05-.05.05l-.06-.01c-.05-.01-.08-.04-.08-.09l.07-1.43.01.5c0 .02.01.03.04.03h.05l.05-.97Z" fill="#EE7A54"/><path d="M38.98 32.29h-.01a.07.07 0 0 0-.08.07l-.06 1.35c0 .04.03.08.07.08.05 0 .09-.03.09-.07l.06-1.35a.07.07 0 0 0-.07-.08Z" fill="#F0E7E1"/><path d="M20.55 32.62c.01.1.07.17.13.16.06 0 .1-.09.1-.19-.02-.1-.08-.17-.14-.16-.06 0-.1.1-.09.19Z" fill="#F1A58C"/><path d="M14.56 32.53c.01-.02.03-.02.05 0 .05.07.06.12.05.15-.06.12-.12.12-.16-.02 0-.02.01-.06.06-.13Z" fill="#EE7A54"/><path d="M31 33.03h-.1a.05.05 0 0 0-.05.05v2.29c0 .02.02.04.05.04h.1c.03 0 .05-.02.05-.04v-2.29a.05.05 0 0 0-.05-.05ZM20.51 33.62c-.01.17.03.3.1.31.07 0 .14-.12.15-.29.02-.16-.03-.3-.1-.3-.07-.01-.14.12-.15.28ZM17.52 33.76c-.02.08 0 .15.04.16.04 0 .08-.06.1-.14 0-.08-.01-.15-.05-.16-.04 0-.08.06-.1.14Z" fill="#F1A58C"/><path d="M29.15 33.78c.02.01.03.03.03.05-.01.04-.03.05-.07.03-.02-.02-.03-.05-.02-.1l.06.02ZM32.62 36.2a.16.16 0 1 0 0-.32.16.16 0 0 0 0 .32Z" fill="#EE7A54"/><path d="M30.8 38.2c0 .28.05.52.11.52.07 0 .13-.23.14-.52 0-.3-.05-.53-.12-.53-.07 0-.13.23-.13.52Z" fill="#F7C5D5"/><path d="M32.51 38.2c.02.14.1.25.18.24.08 0 .13-.13.11-.27-.01-.15-.1-.26-.17-.25-.08.01-.13.14-.12.28Z" fill="#F1A58C"/><path d="M24.23 39.72c0-.12.05-.22.13-.31a.42.42 0 0 1 .3-.13h.63c.39 0 .72.12 1 .36.27.24.4.52.4.86v.57c0 .34-.13.63-.4.87-.28.24-.6.36-1 .36h-.62a.41.41 0 0 1-.3-.13.41.41 0 0 1-.13-.3v-2.15ZM30.46 40.64c-.18-.4-.16-.74.04-1s.52-.36.94-.3c.36.05.61.14.74.25.22.2.29.44.2.71-.03.06-.06.08-.12.06a.54.54 0 0 1-.26-.2c-.1-.13-.16-.22-.2-.25a.96.96 0 0 0-.7-.15.27.27 0 0 0-.2.12.27.27 0 0 0-.04.22c.03.12.12.22.27.29.17.08.47.2.89.36.3.11.45.32.45.63 0 .66-.4.98-1.22.95-.42 0-.71-.17-.86-.48-.15-.3-.13-.65.06-1.04a.2.2 0 0 0 0-.17Z" fill="#D3210E"/><path d="M24.8 40.12a.3.3 0 0 1 .1-.22.3.3 0 0 1 .2-.1l.26-.02c.2 0 .4.06.55.21a.8.8 0 0 1 .25.56l.02.35a.8.8 0 0 1-.2.58.71.71 0 0 1-.52.27h-.25a.3.3 0 0 1-.23-.07.3.3 0 0 1-.1-.22l-.07-1.34ZM31.94 41.23c.08.03.1.09.08.17v.02a.65.65 0 0 1-.36.39.67.67 0 0 1-.53.02l-.05-.02a.67.67 0 0 1-.4-.35.65.65 0 0 1-.02-.52v-.02c.03-.08.09-.1.17-.08l1.11.4Z" fill="#F0E7E1"/><path d="M30.74 43.38c0 .26.06.47.12.47.07 0 .12-.21.11-.47 0-.27-.05-.48-.12-.48-.06 0-.11.22-.11.48ZM25.37 43.45c0 .19.04.35.1.35.06 0 .12-.15.13-.34 0-.2-.04-.35-.1-.35-.06 0-.12.15-.13.34Z" fill="#F7C5D5"/><path d="M29.55 44h-.84c.27-.1.56-.1.84 0Z" fill="#fff"/></svg>