<!-- by TradingView --><svg width="56" height="56" viewBox="0 0 56 56" xmlns="http://www.w3.org/2000/svg"><path fill="#0D51A4" d="M0 0h56v56H0z"/><path fill-rule="evenodd" d="M28 36h4.5l.16-.17c.69-.7 1.8-1.83 3.84-1.83 1.81 0 2.78.89 3.52 1.58l.48.42H45l-6.5-16h-4L28 36Zm6-4.5a6.2 6.2 0 0 1 2.5-.5c1.06 0 1.8.26 2.31.44l.19.06-2.5-7.5-2.5 7.5Z" fill="#FDFDFF"/><path d="M26 33H12v3h13l1-3Z" fill="#5DCEDE"/><path d="M24 32v-9h3v1.5c.4-1.2 1.83-1.5 2.5-1.5v3c-1.6 0-2.33 1-2.5 1.5V32h-3Z" fill="#FDFDFF"/><path fill-rule="evenodd" d="M12 20v12h5c2 0 6-1.2 6-6s-4-6-6-6h-5Zm3 3v6h2a3 3 0 1 0 0-6h-2Z" fill="#FBFEFF"/></svg>