<!-- by TradingView --><svg width="56" height="56" viewBox="0 0 56 56" xmlns="http://www.w3.org/2000/svg"><path fill="#F9E6C6" d="M0 0h56v56H0z"/><path fill-rule="evenodd" d="M5 22.15v-.65h6.46c3.31 0 6 2.64 6 5.9v.7c0 3.26-2.69 5.9-6 5.9H5v-.54h1.13c.43 0 .78-.35.78-.78v-9.75a.78.78 0 0 0-.79-.78H5Zm3.5.48v10.22c.07.2.36.6.96.6h1.16a4.78 4.78 0 0 0 4.81-4.74v-1.8a4.78 4.78 0 0 0-4.81-4.73h-.69c-.48 0-1.44.07-1.44.45Zm10.04 1.87v.5h.81c.35 0 .63.27.63.6v7.35c0 .33-.28.55-.63.55h-.81v.5h4.08v-.5h-.74c-.35 0-.63-.22-.63-.55V25.6c0-.34.28-.62.63-.62h.74v-.49h-4.08Zm5.28 6.25V34h.4c.06-.22.24-.66.45-.66.07 0 .11.04.18.1.2.19.6.56 2.46.56 2.47 0 3-1.78 3-2.72 0-.95-.53-1.71-1.88-2.43l-.67-.34c-1.28-.64-2.8-1.39-2.8-2.4 0-1.2 1.15-1.48 1.88-1.48s2.41.23 2.41 2.58h.47V24h-.4c-.01.2-.12.63-.44.63-.13 0-.21-.07-.33-.16-.25-.18-.63-.47-1.79-.47-1.71 0-2.76.76-2.76 2.6 0 1.62 1.73 2.45 2.77 2.94l.35.17c.94.47 2.13 1.2 2.13 2.3 0 1.1-1.37 1.49-2.13 1.49-.75 0-2.77-.37-2.77-2.75h-.53Zm13.62-6.25v.5h.82c.35 0 .74.27.74.6v3.37h-4.78V25.6c0-.34.28-.62.63-.62h.74v-.49h-4.08v.5h.81c.35 0 .63.27.63.6v7.35c0 .33-.28.55-.63.55h-.81v.5h4.08v-.5h-.74c-.35 0-.63-.22-.63-.55V29.6H39v3.34c0 .33-.4.55-.74.55h-.82v.5h4.09v-.5h-.74c-.35 0-.64-.22-.64-.55V25.6c0-.34.29-.62.64-.62h.74v-.49h-4.09Zm7.59 9.5h-2.97v-.5h.6c.25 0 .48-.06.58-.28l3.9-8.72 2.55 5.47h.47v.51h-.23l1.28 2.75c.1.22.33.27.58.27h.58v.5h-3.4v-.5h.24c.46 0 .77-.37.57-.76l-1.1-2.26H45.1l-1.06 2.27c-.19.4.12.75.57.75h.42v.5Zm1.82-7.25 1.58 3.22h-3.1l1.52-3.22Z" fill="#706C4C"/><path fill-rule="evenodd" d="M5.63 21.65V21h6.46c3.32 0 6 2.64 6 5.9v.7c0 3.26-2.68 5.9-6 5.9H5.63v-.54h1.13c.44 0 .79-.35.79-.78v-9.75a.78.78 0 0 0-.8-.78H5.64Zm3.37.46v10.06c.07.2.5.58 1.09.58h1.16a4.74 4.74 0 0 0 4.82-4.66v-1.76a4.74 4.74 0 0 0-4.82-4.66h-.69c-.47 0-1.56.07-1.56.44ZM19.39 24v.5h.8c.34 0 .61.27.61.6v7.35c0 .33-.27.61-.62.61h-.8v.44h4v-.44h-.72c-.34 0-.66-.28-.66-.61V25.1c0-.34.32-.62.66-.62h.73V24h-4Zm5.06 6.41v3.09h.4c.07-.2.24-.63.46-.63.06 0 .1.04.18.1.2.18.6.53 2.46.53 2.47 0 3-1.69 3-2.59 0-.9-.53-1.62-1.89-2.3l-.66-.32c-1.29-.61-2.8-1.33-2.8-2.29 0-1.13 1.14-1.4 1.87-1.4.74 0 2.42.21 2.42 2.45h.46V24h-.4c-.01.2-.12.6-.43.6-.13 0-.22-.07-.34-.15-.25-.18-.63-.45-1.79-.45-1.71 0-2.76.72-2.76 2.46 0 1.55 1.73 2.33 2.78 2.8l.35.16c.93.45 2.13 1.15 2.13 2.2 0 1.04-1.38 1.4-2.13 1.4-.76 0-2.78-.34-2.78-2.6h-.53ZM38.08 24v.5h.81c.35 0 .63.27.63.6v3.4h-4.67v-3.4c0-.33.29-.6.64-.6h.74V24h-4.09v.5h.82c.35 0 .63.27.63.6v7.35c0 .33-.28.61-.63.61h-.82v.44h4.09v-.44h-.74a.62.62 0 0 1-.64-.61V29h4.67v3.45c0 .33-.28.61-.63.61h-.81v.44h4.08v-.44h-.74a.62.62 0 0 1-.63-.61V25.1c0-.34.28-.62.63-.62h.74V24h-4.08Zm7.58 9.5H42.7v-.41h.59c.25 0 .48-.15.58-.37l3.9-8.72 4.07 8.73c.1.22.33.36.58.36H53v.41h-3.39v-.41h.23c.46 0 .77-.46.58-.85L49.32 30h-3.6l-1.05 2.25c-.19.4.12.84.58.84h.41v.41Zm1.83-7.25 1.59 3.25h-3.12l1.53-3.25Z" fill="#000001"/></svg>