<!-- by TradingView --><svg width="56" height="56" viewBox="0 0 56 56" xmlns="http://www.w3.org/2000/svg"><path fill="#F0F3FA" d="M0 0h56v56H0z"/><path d="M28.09 25.8c-.47 0-.93-.1-1.38-.3a.92.92 0 0 1-.35-.3 6 6 0 0 0-.08-.12.08.08 0 0 0-.09-.03c-.04 0-.07.03-.09.07a.15.15 0 0 0 .02.17l.4.55c.05.06.11.08.19.05.24-.08.46-.03.65.17.05.06.06.12.04.2-.1.25-.31.49-.65.73-.3.2-.6.35-.9.43-.07.01-.12-.01-.16-.08l-1-1.97a.05.05 0 0 0-.02-.02c-.06-.03-.11-.03-.14 0-.04.01-.05.05-.04.09.28.88.67 1.62 1.16 2.22.04.04.08.06.13.06h.63c.1 0 .14.05.1.15-.18.37-.53.85-1.07 1.44l-.47.54c-.74.02-1.5.02-2.28.02a4.9 4.9 0 0 1-1.1-.13c-.17-.3-.2-.58-.06-.83.06-.13.03-.23-.09-.31-.37-.24-.68-.32-.93-.25-.1.04-.47.09-1.08.16-.06 0-.1 0-.15-.04a2.1 2.1 0 0 1-.48-.5c-.08-.11-.14-.1-.17.04l-.06.27a8.97 8.97 0 0 1 .52-3.26c.3-.53.58-.82.83-.86l1.57-.23c.09-.01.14.02.16.11a.9.9 0 0 0 .16.4c.02.03.06.06.1.08l.72.42c.07.04.12.03.16-.05l.13-.21c.05-.08.1-.1.18-.05.42.23.86.3 1.34.21.1-.01.15-.08.15-.18v-.47c0-.08-.04-.12-.12-.11-.22.03-.45.02-.7-.04a.23.23 0 0 1-.15-.11.56.56 0 0 1-.08-.2c-.05-.37-.2-.43-.44-.17l.05.3c.02.07-.01.1-.1.1-.09-.03-.16-.1-.21-.2a2.13 2.13 0 0 0-1-1.11c-.08-.04-.12-.01-.12.07v.08c0 .06.02.1.07.14l.58.44c.02.02.04.04.04.07v.1c0 .06-.03.07-.08.04-.34-.2-.64-.42-.88-.68a.23.23 0 0 0-.2-.07c-.48.05-.8.34-.97.86a.24.24 0 0 1-.13.16l-.16.07h-.42c.13-.47.3-.85.5-1.13a9.03 9.03 0 0 1 5.24-3.62c.35-.1.82-.13 1.4-.12.08 0 .13.04.14.11l1.24 6.64Z" fill="url(#a)"/><path d="m35.83 23.58-.24.63c-.09.45-.32.74-.67.86-.18.06-.29 0-.34-.17l-.12-.39c-.05-.18 0-.3.17-.35.64-.17.82-.6.55-1.3a.34.34 0 0 0-.15-.15 8.27 8.27 0 0 1-.28-.21c-.08-.06-.11-.12-.12-.18-.01-.16.04-.25.17-.25.05 0 .09.02.12.06l.91 1.45ZM19.92 24.16l-.03-.08c-.02-.04 0-.08.03-.1l.07-.05.16-.07a.24.24 0 0 0 .13-.16c.16-.52.49-.8.97-.86.08-.01.14.01.2.07.24.26.54.49.88.68.05.03.08.02.08-.04v-.1a.08.08 0 0 0-.04-.07l-.58-.44a.16.16 0 0 1-.07-.14v-.08c0-.08.04-.1.11-.07.45.22.79.6 1.01 1.1.05.12.12.18.21.2.09.02.12-.02.1-.1a6.5 6.5 0 0 1-.05-.29c.24-.26.39-.2.44.17 0 .06.03.12.08.2.03.06.09.1.15.11.25.06.48.07.7.04.08-.01.12.03.12.11v.47c0 .1-.05.17-.15.18-.48.1-.92.02-1.34-.21-.07-.05-.13-.03-.18.05l-.13.21c-.04.08-.1.09-.16.05l-.72-.41a.32.32 0 0 1-.1-.1.9.9 0 0 1-.16-.39c-.02-.09-.07-.12-.16-.11l-1.57.23Z" fill="#1162B1"/><path d="M36.8 25.9c-.15-.51-.33-1.04-.55-1.57-.08-.2-.24-.24-.47-.12h-.19l.24-.63c2.3-.42 4.81-.56 7.56-.4 1.5.08 2.67.41 3.51 1 1.13.76 1.39 1.83.79 3.22-.18.4-.33.7-.46.86a15.26 15.26 0 0 1-3.28 3.32 49.92 49.92 0 0 1-8.99 5.1c-1.26.58-2.07.93-2.4 1.08-.97.43-1.79.76-2.45 1-.25.09-.96.39-2.11.9l-.66.28c-.83.14-.86.04-.09-.3 1.59-.72 3.16-1.47 4.73-2.26a25.56 25.56 0 0 0 6.56-4.75c.64-.72 1.1-1.5 1.41-2.37.17-.48.25-.94.23-1.4a1.9 1.9 0 0 0-.5-1.3 6.22 6.22 0 0 0-2.89-1.66Z" fill="#AADEEC"/><path d="m20 23.93-.08.05c-.04.02-.05.06-.03.1l.03.08c-.25.04-.53.33-.83.86.08-.55.24-.91.48-1.08l.42-.01Z" fill="#66E2FC"/><path d="M36.8 25.9c.26 1.5.22 2.94-.12 4.36-.02.08-.07.1-.14.05a4.07 4.07 0 0 0-1.89-.67c-.08 0-.1.02-.07.1.04.07.1.12.17.16.15.06.3.14.42.23l.32.35c.2.21.45.23.79.07a.17.17 0 0 1 .2.03c.06.06.08.12.05.2a9.11 9.11 0 0 1-10.67 6.08 9.07 9.07 0 0 1-6.38-5.02c.64-.1 1.26-.2 1.88-.28.07 0 .12.01.14.07l.8 2.44c.02.08.08.12.16.12.48 0 .86-.14 1.14-.4.17-.18.38-.5.62-1l.16-.32a.33.33 0 0 0 .04-.2c-.04-.27.05-.47.27-.6.35-.23.5-.51.43-.86l4.03-1.23c.03 0 .04-.02.04-.04v-.07c0-.04-.03-.06-.07-.05l-4.15.43.47-.54c.54-.59.9-1.07 1.06-1.44.05-.1.01-.15-.1-.15h-.62a.16.16 0 0 1-.13-.06c-.5-.6-.88-1.34-1.16-2.22-.01-.04 0-.08.04-.1.03-.02.08-.02.14 0l.03.03 1 1.97c.03.07.08.1.15.08.3-.08.6-.22.9-.43.34-.24.55-.48.65-.74a.17.17 0 0 0-.04-.19c-.2-.2-.4-.25-.65-.17-.08.03-.14.01-.19-.05l-.4-.55a.15.15 0 0 1-.02-.17c.02-.04.05-.07.1-.07.03 0 .05 0 .08.03l.08.11c.12.16.24.27.35.32.45.2.91.3 1.38.3.47.3.74.62.81.95.1.45.26.87.46 1.27.03.06.08.08.14.06.07-.02.1-.07.1-.13.02-.61.32-1.13.9-1.55.16-.12.3-.1.41.06l.79 1.06c.04.06.1.1.17.11.19.04.33.17.43.37.04.08.1.1.19.08.08-.02.17-.1.25-.22a.36.36 0 0 0 .03-.3 2.07 2.07 0 0 0-.33-.6c-.06-.08-.07-.18 0-.29.03-.07.1-.1.17-.09.67.15 1.1-.1 1.27-.72.04-.16 0-.48-.13-.96l-.06-.26a.2.2 0 0 0-.1-.12l-.08-.05c-.08-.05-.1-.1-.05-.18.02-.05.07-.07.13-.06.26.02.45.15.58.36a2.6 2.6 0 0 1 .27.81c.01.06.05.08.1.06l.95-.3a.22.22 0 0 0 .14-.14c.1-.26.16-.53.15-.82.23-.12.39-.09.47.12.22.53.4 1.06.54 1.57Z" fill="#1162B1"/><path d="M33.6 28c.14.18.22.36.25.53v.15c-.04.12-.09.16-.14.12a.15.15 0 0 1-.06-.1 1.96 1.96 0 0 0-.2-.6 1.22 1.22 0 0 1-.24-.52l.01-.15c.04-.12.08-.16.13-.12.04.02.06.05.07.1.07.32.13.52.19.6Z" fill="#fff"/><path d="M21.59 29.74a8.57 8.57 0 0 1-2.89-.54l-.13-.92.06-.27c.03-.14.09-.15.17-.04.14.2.3.37.48.5.04.03.1.05.15.04.61-.07.97-.12 1.08-.16.25-.07.56.01.93.25.12.08.15.18.09.31-.13.25-.11.53.06.83Z" fill="#1162B1"/><path d="m31.82 28 .44.89v.03l-.06.1c-.03.05-.06.06-.1 0a2.03 2.03 0 0 1-.35-1c0-.01.01-.03.03-.03.02 0 .03 0 .04.02Z" fill="#fff"/><path d="M28.28 28.64c.04.12.15.2.23.16.1-.03.13-.16.08-.28-.04-.12-.15-.19-.24-.16-.09.04-.12.16-.07.28Z" fill="#AADEEC"/><path d="M17.54 28.73c-1.54-.7-2.1-1.93-1.68-3.68a8.68 8.68 0 0 1 2.47-3.32 31.93 31.93 0 0 1 6.77-4.36 80.91 80.91 0 0 1 7.57-3.22c.04-.02.04-.03 0-.05l-.13-.08a.13.13 0 0 0-.12-.01c-2.06.7-4.57 1.65-7.52 2.83A72.1 72.1 0 0 0 14.48 22a24.31 24.31 0 0 0-4.34 3.3c-.8.76-1.4 1.57-1.83 2.43a2.8 2.8 0 0 0-.27 1.02c-.05.6-.05.96 0 1.07.35.88 1 1.48 1.93 1.8a11 11 0 0 0 3.1.59c2.1.08 4.21-.03 6.32-.34l.09-.02c.64-.1 1.26-.2 1.88-.28.07 0 .12.01.14.07 0-.04.01-.08.04-.1.01-.03.04-.04.08-.05 1.08-.22 2.16-.46 3.23-.71.05-.01.14 0 .27.04l4.03-1.23c.03 0 .04-.02.04-.04v-.07c0-.04-.03-.06-.07-.05l-4.15.43c-.74.02-1.5.02-2.28.02-.4 0-.76-.05-1.1-.13a8.57 8.57 0 0 1-2.89-.54 3.66 3.66 0 0 1-1.16-.47Z" fill="url(#b)"/><path d="m31.93 29.39.87-.64c.09-.06.13-.04.13.07-.02.47-.07.79-.16.95-.1.19-.25.25-.45.19-.3-.1-.46-.22-.47-.38a.2.2 0 0 1 .08-.19ZM31.67 30.27l1.08.23c.02 0 .04.02.04.05-.01.25 0 .26.03 0l-.02-.01c-.48.05-.94-.02-1.35-.2-.2-.1-.49-.4-.87-.92l-.26-.35c-.18-.23-.15-.28.11-.14.5.27.87.67 1.1 1.22.02.06.07.1.14.12ZM33.25 29.6l.24-.08c.11-.04.14 0 .08.1l-.25.41c-.04.09-.1.1-.18.04-.08-.07-.1-.16-.04-.28.03-.1.08-.16.15-.18Z" fill="#fff"/><path d="M33.04 30.58c0-.05.06-.04.16 0 .05.03.05.05 0 .08-.05.02-.09.02-.13 0-.03-.02-.04-.05-.03-.08Z" fill="#AADEEC"/><path d="m26.2 31.05-.34 1.17c-.01.04-.03.06-.06.08l-.21.14a.12.12 0 0 1-.14 0 .12.12 0 0 1-.06-.12l.09-.89c0-.03.02-.05.04-.08l.47-.43c.05-.05.1-.06.15-.02.06.03.08.08.06.15ZM34.91 31.64c.08.32.19.33.34.03l.16-.26c.12-.19.16-.17.12.05-.1.64-.18 1.03-.22 1.19-.07.3-.31.62-.72.98-.05.04-.11.05-.17.01l-.26-.14a.23.23 0 0 0-.22-.01l-1.13.57c-.07.03-.12.02-.15-.03l-.45-.9c-.08-.16-.04-.29.12-.37l.97-.48c.09-.05.16-.11.2-.2l.33-.55c.05-.1.14-.14.25-.12.2.03.4-.1.6-.4.04-.05.1-.1.15-.1.06-.02.11 0 .14.04l.05.06a.2.2 0 0 1 .02.23c-.1.2-.14.34-.13.4Z" fill="#fff"/><defs><linearGradient id="a" x1="20.46" y1="27.11" x2="27.01" y2="23.58" gradientUnits="userSpaceOnUse"><stop offset=".27" stop-color="#E8F5FD"/><stop offset="1" stop-color="#F0F3FA"/></linearGradient><linearGradient id="b" x1="10.02" y1="27.69" x2="26.57" y2="20.82" gradientUnits="userSpaceOnUse"><stop stop-color="#66E2FC"/><stop offset="1" stop-color="#0BD2F9"/></linearGradient></defs></svg>