<!-- by TradingView --><svg width="56" height="56" viewBox="0 0 56 56" xmlns="http://www.w3.org/2000/svg"><path fill="#F0F3FA" d="M0 0h56v56H0z"/><path fill-rule="evenodd" d="M6 35V21h5.26c1.97 0 3.7.97 4.74 2.45V21h4v8.63c0 .67.78 1.37 1.48 1.37.87 0 1.52-.7 1.52-1.37V21h4v9.12c0 2.7-2.26 4.88-5.04 4.88h-.91a5.05 5.05 0 0 1-4.68-3.05 5.75 5.75 0 0 1-5.1 3.05H6Zm4-4v-6h.95c1.13 0 2.05 1.08 2.05 2.4v1.2c0 1.32-.92 2.4-2.05 2.4H10Zm18-10v14h4v-5.17L34.27 35H39v-.4L35.76 29c.46-.02.9-.15 1.26-.36.25 4.37 3.05 6.36 6.48 6.36 3.59 0 6.5-2.06 6.5-7 0-4.94-2.91-7-6.5-7-2.3 0-4.3.9-5.46 2.79A3.67 3.67 0 0 0 34.45 21H28Zm4 3.5h.85c.91 0 1.65.64 1.65 1.42v.16c0 .78-.74 1.42-1.65 1.42H32v-3ZM45.65 28c0 1.85-.96 2.63-2.15 2.63s-2.15-.82-2.15-2.63c0-1.8.96-2.63 2.15-2.63s2.15.78 2.15 2.63Z" fill="#ED1C24"/></svg>