<!-- by TradingView --><svg width="56" height="56" viewBox="0 0 56 56" xmlns="http://www.w3.org/2000/svg"><path fill="#314495" d="M0 0h56v56H0z"/><path fill-rule="evenodd" d="M27 13h-3v7.97A5.22 5.22 0 0 0 19.78 19c-3.7 0-5.78 3.13-5.78 7s2.17 7 5.78 7c1.8 0 3.23-.77 4.22-2.02V33h3V13Zm-3 13c0-2.76-1.25-5-3.5-5S17 23.24 17 26s1.32 5 3.5 5c2.18 0 3.5-2.24 3.5-5Z" fill="#fff"/><path d="M29 33h3v-7.97A5.22 5.22 0 0 0 36.22 27c3.7 0 5.78-3.13 5.78-7s-2.17-7-5.78-7c-1.8 0-3.23.77-4.22 2.02V13h-3v20Zm3-13c0-2.76 1.32-5 3.5-5 2.18 0 3.5 2.24 3.5 5s-1.25 5-3.5 5c-2.24 0-3.5-2.24-3.5-5ZM43 36.5H13v.47h30v-.47Zm-7 7H20v.5h16v-.5Z" fill="#fff"/><path opacity=".5" fill="#fff" d="M18 39h20v3H18z"/></svg>