<!-- by TradingView --><svg width="56" height="56" viewBox="0 0 56 56" xmlns="http://www.w3.org/2000/svg"><path fill="#F0F3FA" d="M0 0h56v56H0z"/><path fill-rule="evenodd" d="M44 28a16 16 0 1 1-32 0 16 16 0 0 1 32 0ZM28.54 42.99a15.27 15.27 0 0 1-1.04 0v-4.78a16.6 16.6 0 0 0-7.76 2.31c-.24-.15-.47-.32-.7-.48a15.8 15.8 0 0 1 8.46-2.68v-3.4c-2.85.12-7.74 1.28-10.22 4.53l-.61-.66a15.34 15.34 0 0 1 10.83-4.7V32H13.54a15.02 15.02 0 0 1 0-8H27.5v-1a15.21 15.21 0 0 1-10.84-4.82c.2-.23.4-.45.61-.66 2.49 3.32 7.38 4.5 10.23 4.61V18.5a13.8 13.8 0 0 1-7.94-2.9l.75-.48a14.43 14.43 0 0 0 7.19 2.44V13a15.1 15.1 0 0 1 1 0v4.55c1.94-.1 4.83-.78 7.19-2.44l.75.48a13.8 13.8 0 0 1-7.94 2.9v3.62c2.89-.14 7.72-1.35 10.15-4.68.22.22.43.44.63.67a15.17 15.17 0 0 1-10.78 4.88V24h13.96a15.02 15.02 0 0 1 0 8H28.5v1.13c5.45.18 9.2 2.99 10.77 4.77-.2.23-.4.45-.62.66-2.43-3.26-7.26-4.45-10.15-4.59v3.4c3.57.12 6.42 1.36 8.4 2.71l-.7.49a16.54 16.54 0 0 0-7.7-2.36V43h.04Zm4.62-17.62v-.06h3.45v.06h-.43c-.3 0-.53.24-.53.53v4c0 .3.24.54.53.54h.84c1.03 0 1.89-.76 2.04-1.75h.13l-.33 2.03h-5.7v-.08h.42c.3 0 .53-.24.53-.54v-4.2c0-.3-.24-.53-.53-.53h-.42Zm5.97 5.67.43-2.68h-.8c0 .97-.77 1.76-1.74 1.76h-.84a.22.22 0 0 1-.21-.22v-4c0-.11.1-.21.21-.21h.75v-.7h-4.09v.7h.74c.12 0 .21.1.21.21v4.2c0 .12-.1.22-.21.22h-.74v.72h6.3ZM26.8 25.4v-.08h3.32v.08h-.38c-.23 0-.43.2-.43.43v4.3c0 .25.2.44.43.44h.38v.1H26.8v-.1h.4c.23 0 .42-.2.42-.43v-4.3c0-.25-.19-.44-.43-.44h-.39Zm3.65-.4h-3.97v.72h.71c.06 0 .11.05.11.11v4.3a.1.1 0 0 1-.1.12h-.72V31h3.97v-.75h-.7a.1.1 0 0 1-.11-.11v-4.3c0-.07.04-.12.1-.12h.7V25Zm-10.93.66v4.75h.62c.95 0 1.71-.77 1.71-1.72v-1.31c0-.95-.76-1.72-1.71-1.72h-.62ZM16.7 25v.76h.61c.18 0 .32.15.32.32v3.87c0 .18-.14.32-.32.32h-.62V31h4.23a3 3 0 0 0 0-6H16.7Zm.61 5.6h-.3v.08h3.9a2.68 2.68 0 0 0 0-5.36h-3.9v.12h.3c.36 0 .64.29.64.64v3.87c0 .35-.28.64-.64.64Zm2.8-.51h.03a1.4 1.4 0 0 0 1.37-1.4v-1.31a1.4 1.4 0 0 0-1.37-1.4h-.32v4.1h.3Z" fill="#00AFEF"/></svg>