<!-- by TradingView --><svg width="56" height="56" viewBox="0 0 56 56" xmlns="http://www.w3.org/2000/svg"><path fill="#F0F3FA" d="M0 0h56v56H0z"/><path fill-rule="evenodd" d="M9 22v5h3v-1h-2v-1h1.7v-1H10v-1h2v-1H9Zm25.16 2.44c0 1.38-.59 2.56-2.4 2.56-1.8 0-2.3-1.12-2.3-2.5s.66-2.5 2.3-2.5c1.65 0 2.4 1.06 2.4 2.44Zm-1.4.02c0 .8-.24 1.5-.97 1.5s-.93-.65-.93-1.46c0-.8.27-1.46.93-1.46.67 0 .97.62.97 1.42ZM12.13 27h1.46l.24-1h1.5l.25 1h1.47l-1.63-5h-1.75l-1.54 5Zm2.96-2-.52-2.14-.5 2.14h1.02Zm2.19.54v1.17c.17.1.7.3 1.45.3.92 0 1.9-.39 1.9-1.6 0-.74-.68-1.2-1.03-1.33-.33-.12-.99-.4-.99-.69 0-.35.74-.49 1.6 0l.43-1.01a2.93 2.93 0 0 0-1.59-.38c-1.06 0-1.73.58-1.73 1.54 0 .78.86 1.3 1.3 1.46.23.08.72.31.72.6 0 .34-.48.33-.72.33h-.05c-.2 0-.73-.1-1.3-.39ZM24.5 22H21v1h1v3.9h1.5V23h1v-1Zm19 0H47v1h-1v4h-1.5v-4h-1v-1Zm-14.94 4.73a2.9 2.9 0 0 1-1.38.27c-1.2 0-2.18-.82-2.18-2.5 0-1.68.98-2.5 2.18-2.5.8 0 1.32.13 1.64.35l-.42 1.07c-.24-.23-.62-.37-1.15-.37-.52 0-.94.65-.94 1.45 0 .8.42 1.45.94 1.45.71 0 1.1-.16 1.3-.4v1.18Zm7.34.27h-1.46l1.57-5h1.72l1.58 5H37.9l-.24-1h-1.51l-.24 1Zm.99-4.16.52 2.16h-1.04l.52-2.16Zm2.7 3.87v-1.2c1.19.57 2.08.5 2.08.12 0-.32-.59-.58-.87-.7a2.16 2.16 0 0 1-.17-.08c-.24-.12-.99-.49-.99-1.39 0-.98.77-1.46 1.78-1.46.8 0 1.36.25 1.54.37-.14.33-.43 1-.45 1-.78-.4-1.58-.35-1.58 0 0 .29.65.58.98.7.35.1 1.05.52 1.05 1.34 0 1.24-.9 1.59-1.89 1.59-.8 0-1.31-.19-1.47-.29ZM4 32.51v1.2c.16.1.68.29 1.49.29 1 0 1.9-.35 1.9-1.59 0-.82-.7-1.24-1.06-1.35-.33-.1-.99-.4-.99-.69 0-.35.8-.4 1.6 0l.45-1A3 3 0 0 0 5.84 29c-1.02 0-1.8.48-1.8 1.46 0 .86.8 1.18 1.1 1.3l.09.04.01.01c.18.1.85.46.85.82 0 .37-.9.45-2.09-.11ZM11.5 29H8v1h1v4h1.5v-4h1v-1Zm32 0H40v1h1v4h1.5v-4h1v-1ZM12 34v-5h3v1h-1.5v1h1.26v1H13.5v1H15v1h-3Zm3.5-5v5h3v-1H17v-1h1.36v-1H17v-1h1.5v-1h-3ZM44 34v-5h3v1h-1.7v1h1.46v1H45.3v1H47v1h-3Zm4 0v-5h1.98c1.12 0 2.02.96 2.02 2.14v.72c0 1.18-.9 2.14-2.02 2.14H48Zm1.5-1v-3h.23c.43 0 .77.53.77 1.18v.64c0 .65-.34 1.18-.77 1.18h-.23Zm-30 1v-5H21v4h2v1h-3.5Zm5.5-5v5h3.5v-1h-1.96v-4H25Zm4 5v-5h1.5v5H29Zm9-5v5h1.5v-5H38Zm-6.5 5v-5H33.26l.98 3.6 1-3.6H37v5h-1v-4.84l-.1 1.06L34.85 34h-1.24l-.96-3.47V34H31.5Z" fill="#FF8D52"/></svg>