<!-- by TradingView --><svg width="56" height="56" viewBox="0 0 56 56" xmlns="http://www.w3.org/2000/svg"><path fill="#F0F3FA" d="M0 0h56v56H0z"/><path fill-rule="evenodd" d="M28 12c.18 0 .33.12.46.36l3.6 6.6c.02.04.04.05.07.05.03 0 .06-.02.07-.05l.14-.3a.23.23 0 0 1 .13-.1c.25-.11.47-.06.64.17 1.8 2.26 3.6 4.54 5.4 6.83.04.04.06.03.08-.01l.15-.48c.03-.1.1-.17.2-.21.25-.12.49-.05.7.2.14.16 2.2 2.3 6.2 6.44.2.22.21.43.02.64l-.01.01c-.2.2-.4.22-.59.04-.33-.31-.64-.62-.93-.92-1.99-2.07-3.6-3.75-4.86-5.04-.06-.07-.11-.06-.15.02l-.04.06a.2.2 0 0 0 .02.22l1.35 1.74c.18.22.15.42-.07.6l-.02.01c-.25.16-.47.14-.64-.08l-.95-1.18c-.04-.05-.07-.04-.08.01l-.99 3.1a.28.28 0 0 0 .04.25l1.09 1.64c.14.21.1.42-.12.62l-.01.01c-.26.15-.46.11-.6-.1l-.73-1.05a.06.06 0 0 0-.05-.03c-.03 0-.04.02-.05.04l-1.13 3.56c-.1.28-.28.4-.57.32h-.01c-.3-.09-.4-.27-.31-.55l1.37-4.33a.25.25 0 0 0-.03-.22l-3.06-4.65c-.03-.06-.07-.06-.1 0l-5.07 10.5a.24.24 0 0 0 0 .22l1.64 3.4c.13.26.05.45-.21.59l-.13.03c-.23.06-.39-.02-.49-.23a284.35 284.35 0 0 0-1.34-2.77.05.05 0 0 0-.06 0 281.68 281.68 0 0 0-1.34 2.77c-.1.21-.26.29-.49.23a1.2 1.2 0 0 1-.13-.03c-.26-.14-.33-.33-.21-.58l1.64-3.41a.24.24 0 0 0 0-.22l-5.07-10.5c-.03-.06-.07-.06-.1 0l-3.06 4.65a.25.25 0 0 0-.03.22l1.37 4.33c.1.28 0 .46-.3.54h-.02c-.29.08-.47-.03-.57-.31l-1.13-3.56c0-.02-.02-.04-.05-.04-.02 0-.04 0-.05.03l-.72 1.05c-.15.21-.35.25-.6.1l-.02-.01c-.22-.2-.26-.41-.12-.62l1.1-1.64a.28.28 0 0 0 .03-.25l-.99-3.1c-.01-.05-.04-.06-.08-.01l-.95 1.18c-.17.22-.39.24-.64.08h-.02c-.22-.19-.25-.39-.07-.6l1.35-1.75a.2.2 0 0 0 .02-.22l-.04-.06c-.04-.08-.1-.09-.15-.02-1.26 1.29-2.87 2.97-4.86 5.04l-.93.92c-.2.18-.4.17-.59-.04h-.01c-.2-.21-.19-.43.03-.64 3.99-4.14 6.05-6.29 6.18-6.44.22-.26.46-.33.72-.21.1.04.16.11.2.21l.14.48c.02.04.04.05.07 0l5.4-6.82c.18-.23.4-.28.65-.18.06.03.1.07.13.12l.14.3c.01.02.04.04.07.04.03 0 .05-.01.07-.04l3.6-6.61c.13-.24.28-.36.46-.36Zm0 23.69c-.02 0-.04-.02-.06-.04l-5.13-10.56c-.09-.16-.18-.26-.27-.3-.23-.07-.4-.01-.54.2l-3.1 4.7c-.08.13-.14.12-.18-.02l-.9-2.86a.28.28 0 0 1 .05-.27l5.3-6.7c.03-.04.06-.04.1 0l.04.05c.05.06.06.12.02.2l-1.51 2.76c-.14.26-.07.48.22.65h.02c.26.07.46 0 .57-.23l1.18-2.15a.09.09 0 0 1 .08-.04c.04 0 .06.01.08.04l3.46 6.31c.03.05.03.1 0 .15L26 30.18c-.14.24-.06.46.22.65l.02.01c.09.04.19.05.29 0a.5.5 0 0 0 .25-.21c.43-.74.82-1.43 1.17-2.08 0-.01.02-.02.05-.02.03 0 .05 0 .06.02.34.65.73 1.34 1.16 2.08.07.1.15.17.25.21a.35.35 0 0 0 .31 0c.28-.2.36-.42.22-.67l-1.43-2.59a.15.15 0 0 1 0-.15l3.46-6.3a.09.09 0 0 1 .08-.05c.04 0 .07.01.08.04l1.18 2.15c.12.22.3.3.57.23h.02c.3-.17.37-.4.22-.65l-1.5-2.77c-.04-.07-.04-.13.01-.19l.05-.05c.03-.04.06-.04.1 0l5.29 6.7c.06.08.08.17.05.27l-.9 2.86c-.04.14-.1.15-.18.02L34 25c-.13-.21-.31-.27-.54-.2-.1.04-.18.14-.26.3l-5.14 10.56c-.01.02-.03.04-.06.04Zm-.06-22.13-3.52 6.42a.05.05 0 0 0 0 .05l3.53 6.42c0 .02.03.03.05.03.03 0 .05 0 .06-.03l3.52-6.42a.05.05 0 0 0 0-.06l-3.52-6.41a.06.06 0 0 0-.06-.04.06.06 0 0 0-.06.04Z" fill="#030203"/></svg>