<!-- by TradingView --><svg width="56" height="56" viewBox="0 0 56 56" xmlns="http://www.w3.org/2000/svg"><path fill="#F0F3FA" d="M0 0h56v56H0z"/><path d="M36.4 11c2.04.27 3.4 1.11 4.11 2.52.6 1.2.65 2.67.14 4.41a14.27 14.27 0 0 1-2.52 4.9c-.1.11-.2.17-.35.17h-.32c-.1 0-.13-.04-.06-.13 1.3-1.87 2.5-3.66 2.87-5.93.92-5.45-6.36-3.67-9.2-2.5-2.32.96-4.89 2.57-7.71 4.81-.1.08-.17.06-.23-.05l-1.1-2.02a.2.2 0 0 1-.03-.14.2.2 0 0 1 .08-.12 37.8 37.8 0 0 1 6.62-4.08A18.71 18.71 0 0 1 36.4 11Z" fill="#EC1C24"/><path d="M22.12 22.12a3 3 0 1 0-4.24-4.24 3 3 0 0 0 4.24 4.24ZM20 20a1 1 0 1 1-2 0 1 1 0 0 1 2 0Z" fill="#0249A0"/><path d="M36.98 23H25.21c-.24 0-.28-.06-.1-.19l.97-.7a.64.64 0 0 1 .22-.09.76.76 0 0 1 .26-.02c3.32.34 6.46.6 9.43.76a3.15 3.15 0 0 1 1 .23V23ZM13 31.75l.01-1.43c.38-1.87.93-3.42 1.63-4.66a212.78 212.78 0 0 1 2-3.15.16.16 0 0 1 .21.04 5.19 5.19 0 0 0 1.84 1.46l.02.06a.16.16 0 0 1-.02.13c-.68 1-1.32 1.99-1.91 2.98-.93 1.55-1.85 4.34-.8 5.97a2.93 2.93 0 0 0 2.35 1.44c2.3.17 4.47-.25 6.5-1.27 1.71-.86 2.62-1.3 2.72-1.33.41-.13.73-.18.94-.16.48.05.5.2.1.45-3.7 2.18-7.45 3.82-11.5 3.4-2.23-.23-3.6-1.54-4.09-3.93ZM34.02 38.07c-1.6-.2-3.2-.2-4.82.01l-.1-.01a.18.18 0 0 1-.07-.07.21.21 0 0 1-.01-.2 58.86 58.86 0 0 1 6.11-10.44c.4-.53.49-.47.28.17a36.47 36.47 0 0 0-1.53 7.96c0 .04.03.08.05.11a.3.3 0 0 0 .1.08c.03.02.07.04.1.04 1.51.16 3.04.11 4.58-.14.05-.01.1 0 .14.02.04.01.08.05.1.09a.3.3 0 0 1 .02.29 50.82 50.82 0 0 1-6.89 10.96.15.15 0 0 1-.09.06c-.03 0-.07 0-.1-.02-.13-.08-.16-.2-.08-.35a23.31 23.31 0 0 0 2.45-8.23.32.32 0 0 0-.06-.22.27.27 0 0 0-.18-.1Z" fill="#EC1C24"/></svg>