<!-- by TradingView --><svg width="56" height="56" viewBox="0 0 56 56" xmlns="http://www.w3.org/2000/svg"><path fill="#F0F3FA" d="M0 0h56v56H0z"/><path d="M34 28v10h-.5V28h.5ZM40.5 28v10H40V28h.5Z" fill="#B61F24"/><path d="M41 30c-.8 0-1 .67-1 1v-3h7v2h-6ZM41 36c-.8 0-1-.67-1-1v3h7v-2h-6Z" fill="#B61F24"/><path d="M38.32 19.5A2 2 0 0 0 37 16a2 2 0 0 0-1.32 3.5 2 2 0 0 1 2.64 0Z" fill="#141414"/><path d="M38.73 22a2 2 0 0 0 0-2H47v2h-8.27Zm-3.46 0H28c-.33 0-1 .2-1 1v4c0 .33.2 1 1 1h6v2h-6c-.33 0-1 .2-1 1v4c0 .33.2 1 1 1h6v2H10c-.33 0-1-.2-1-1V21c0-.33.2-1 1-1h25.27a2 2 0 0 0 0 2Z" fill="#B61F24"/><circle cx="37" cy="25" r="2" fill="#141414"/><path fill-rule="evenodd" d="M37 22.8a1.8 1.8 0 1 0 0-3.6 1.8 1.8 0 0 0 0 3.6Zm0 .2a2 2 0 1 0 0-4 2 2 0 0 0 0 4Z" fill="#141414"/></svg>