<!-- by TradingView --><svg width="56" height="56" viewBox="0 0 56 56" xmlns="http://www.w3.org/2000/svg"><path fill="#F0F3FA" d="M0 0h56v56H0z"/><path fill-rule="evenodd" d="M44 20v7h-1.23c-1.03-1.75-5.42-5.25-14.77-5.25S14.26 25.25 13.23 27H12v-7h7.38L12 13h32l-7.38 7H44Zm0 16v-7h-1.23c-1.03 1.75-5.42 5.25-14.77 5.25S14.26 30.75 13.23 29H12v7h7.38L12 43h32l-7.38-7H44Zm-6-6v-.43h-1.58v-1.42h1.36v-.43h-1.36v-1.29h1.56V26H36v4h2Zm-3-2v1.43a1.15 1.15 0 0 1-.55.47 1.55 1.55 0 0 1-1.14-.02c-.17-.09-.31-.2-.43-.37a1.8 1.8 0 0 1-.28-.58c-.07-.23-.1-.49-.1-.78v-.3c0-.3.03-.55.08-.78.06-.23.15-.42.26-.58a1.1 1.1 0 0 1 .96-.49c.25 0 .46.05.63.16.16.1.3.24.39.42.1.18.15.38.18.61h-.43a1.23 1.23 0 0 0-.12-.38.69.69 0 0 0-.24-.28.71.71 0 0 0-.4-.1.74.74 0 0 0-.4.1.77.77 0 0 0-.27.27c-.07.13-.12.28-.16.45a3.1 3.1 0 0 0-.05.6v.3c0 .22.02.42.07.6.04.18.1.33.19.45.08.13.17.22.29.28.11.07.24.1.38.1.15 0 .27-.01.37-.05.1-.03.17-.06.22-.1l.12-.13v-.87h-.75V28H35Zm-4.09-2H30v4h.37v-1.62H31l.6 1.62H32v-.03l-.65-1.7c.09-.05.16-.1.23-.18.1-.1.17-.24.22-.39.05-.15.08-.32.08-.5 0-.26-.04-.48-.12-.66a.85.85 0 0 0-.32-.4.95.95 0 0 0-.53-.14Zm-.54 1.95h.55c.13 0 .24-.04.33-.1a.62.62 0 0 0 .2-.27c.04-.12.06-.24.06-.38 0-.15-.02-.29-.06-.4a.53.53 0 0 0-.2-.27.57.57 0 0 0-.34-.1h-.54v1.52Zm-.87-.07v.24c0 .3-.03.56-.09.79-.06.23-.14.43-.25.59-.1.16-.24.29-.4.37-.15.09-.32.13-.5.13-.19 0-.36-.04-.51-.13a1.2 1.2 0 0 1-.4-.37 1.9 1.9 0 0 1-.26-.6c-.06-.22-.09-.48-.09-.78v-.24c0-.3.03-.56.09-.79.06-.23.15-.43.26-.59.1-.16.24-.29.4-.37.15-.09.32-.13.5-.13.19 0 .36.04.51.13.15.08.29.2.4.37.1.16.2.36.25.6.06.22.09.48.09.78Zm-.4.24v-.25c0-.23-.03-.44-.07-.61-.03-.18-.09-.33-.16-.45a.77.77 0 0 0-.27-.28.67.67 0 0 0-.35-.1.66.66 0 0 0-.35.1.8.8 0 0 0-.26.28c-.08.12-.13.27-.17.45-.04.17-.06.38-.06.61v.25c0 .24.02.44.06.62.04.18.1.33.17.46.07.12.16.2.27.27a.68.68 0 0 0 .97-.28c.06-.12.12-.27.16-.45.03-.18.05-.38.05-.62Zm-4.17-.32v-1.37h1.57V26h-2v4h.43v-1.77h1.35v-.43h-1.35ZM23 29.57V30h-2v-4h.44v3.57H23ZM20 30v-.43h-1.58v-1.42h1.36v-.43h-1.36v-1.29h1.56V26H18v4h2Z" fill="#EB3D00"/></svg>