<!-- by TradingView --><svg width="56" height="56" viewBox="0 0 56 56" xmlns="http://www.w3.org/2000/svg"><path fill="#FA0109" d="M0 0h56v56H0z"/><path d="M8 18h5v2h-3v5h3v2h-3v10h3v2H8V18ZM14 18h2v19h4v2h-6V18ZM21 39V18h2v21h-2ZM28.64 28.69 25.18 18h1.58l2.7 8.35L32.41 18H34l-3.78 10.7L33.55 39h-1.57l-2.58-7.96L26.59 39H25l3.64-10.31ZM42.78 18H40v21h2V29h.5L46 39h2l-3.5-10c2.43-.8 2.5-4.41 2.5-6.5 0-2.53-1.51-4.5-4.22-4.5Zm.22 9h-1v-7h.78c1.84 0 2.22.78 2.22 2.5 0 1.36.13 4.5-2 4.5Z"/><path d="M35.7 15h.27v1.35h2.52V15h.28v24h-.28v-2.85h-2.52V39h-.28V15Zm.27 20.85h2.52v-2.7h-2.52v2.7Zm0-3h2.52v-2.7h-2.52v2.7Zm0-3h2.52V26.4h-2.52v3.45Zm0-3.75h2.52v-2.7h-2.52v2.7Zm0-3h2.52v-3.45h-2.52v3.45Zm0-3.75h2.52v-2.7h-2.52v2.7Z" fill="#FFDBE2"/><path d="M34.15 16.5c.26.5 1.7 1.5 2.31 1.5.54 0 1.89-1.51 2.74-2.56-1.05 1.37-2.52 3.73-1.97 4.81.62 1.2 1.8 2.5 2.3 3-.25-.25-1.22-.75-3.07-.75-1.84 0-2.82.5-3.08.75.77-.75 2.31-2.55 2.31-3.75 0-1.2-1.28-2.5-1.54-3Z" fill="#060000"/><path d="M37.23 16.5c-1.13.32-1.5.13-1.54 0V15h1.54v1.5Z" fill="#060000"/><path d="M37.23 16.5H35.7c0 .25.16 1.5.77 1.5.62 0 .77-1.25.77-1.5Z" fill="#FFDBE2"/><path d="M34.92 16.5H38c-.26.25-.92.75-1.54.75-.61 0-1.28-.5-1.54-.75Z"/></svg>