<!-- by TradingView --><svg width="56" height="56" viewBox="0 0 56 56" xmlns="http://www.w3.org/2000/svg"><path fill="#F0F3FA" d="M0 0h56v56H0z"/><path fill="#DC1D48" d="M17 44h2v2h-2z"/><path fill="#00AEEC" d="M18 34h2v2h-2zM36 33h2v2h-2zM36 24h2v2h-2zM37 19h2v2h-2zM34 16h2v2h-2zM37 13h2v2h-2zM30 8h2v2h-2zM24 11h2v2h-2zM22 14h2v2h-2zM18 19h2v2h-2zM15 26h2v2h-2zM17 11h2v2h-2z"/><path d="M19.5 44h2v2h-2v-2ZM22 44h2v2h-2zM22 41.5h2v2h-2v-2ZM22 39h2v2h-2v-2ZM22 36.5h2v2h-2v-2ZM22 34h2v2h-2v-2ZM22 31.5h2v2h-2v-2ZM22 29h2v2h-2v-2ZM22 26.5h2v2h-2v-2ZM24.5 24h2v2h-2v-2ZM22 21.5h2v2h-2v-2ZM32 14h2v2h-2v-2ZM29.5 11h2v2h-2v-2ZM24.5 21.5h2v2h-2v-2ZM24.5 19h2v2h-2v-2ZM27 19h2v2h-2v-2ZM27 16.5h2v2h-2v-2ZM29.5 16.5h2v2h-2v-2ZM27 14h2v2h-2v-2ZM29.5 14h2v2h-2v-2ZM29.5 19h2.1v2h-2.1v-2ZM32 19h2v2h-2v-2ZM27 21.5h2v2h-2v-2ZM32 21.5h2v2h-2v-2ZM29.5 24h2v2h-2v-2ZM32 24h2v2h-2v-2ZM24.5 41.5h2v2h-2v-2ZM24.5 39h2v2h-2v-2ZM24.5 36.5h2v2h-2v-2ZM24.5 34h2v2h-2v-2ZM24.5 31.5h2v2h-2v-2ZM24.5 29.05h2v1.7h-2v-1.7ZM24.5 26.5h2v2h-2v-2ZM27 41.5h2v2h-2v-2ZM27 39h2v2h-2v-2ZM27 36.5h2v2h-2v-2ZM27 34h2v2h-2v-2ZM27 31.5h2v2h-2v-2ZM27 29.05h2v1.7h-2v-1.7ZM27 26.5h2v2h-2v-2ZM29.5 41.5h2v2h-2v-2ZM29.5 39h2v2h-2v-2ZM29.5 36.5h2v2h-2v-2ZM29.5 34h2v2h-2v-2ZM29.5 31.5h2v2h-2v-2ZM29.5 29.05h2v1.7h-2v-1.7ZM29.5 26.5h2v2h-2v-2ZM32 41.5h2v2h-2v-2ZM32 39h2v2h-2v-2ZM32 36.5h2v2h-2v-2ZM32 34h2v2h-2v-2ZM32 31.5h2v2h-2v-2ZM32 29.05h2v1.7h-2v-1.7ZM32 26.5h2v2h-2v-2ZM24.5 44h2v2h-2v-2ZM27 44h2v2h-2zM29.5 44h2v2h-2v-2ZM32 44h2v2h-2zM34.5 44h2v2h-2v-2ZM37 44h2v2h-2z" fill="#DC1D48"/></svg>