<!-- by TradingView --><svg width="56" height="56" viewBox="0 0 56 56" xmlns="http://www.w3.org/2000/svg"><path fill="#F0F3FA" d="M0 0h56v56H0z"/><path d="M49.47 30.68a6.93 6.93 0 0 0 0-5.36A6.96 6.96 0 0 0 43 21a6.93 6.93 0 0 0-4.95 2.05 6.96 6.96 0 0 0-1.52 7.63A6.96 6.96 0 0 0 43 35a6.93 6.93 0 0 0 4.95-2.05 6.96 6.96 0 0 0 1.52-2.27Zm-2.71.95c-1 .4-1.87.21-2.6-.57a.27.27 0 0 0-.4 0c-.53.53-1.1.77-1.7.72-.58-.05-1.12-.36-1.62-.95-.06-.08-.14-.09-.23-.04l-.47.3c-.25.14-.48.11-.68-.1a.34.34 0 0 1-.09-.16c-.04-.2.02-.33.2-.42l.77-.38c.13-.07.19-.18.17-.33a3.63 3.63 0 0 1 .16-1.65c.2-.6.54-1 1.01-1.23a.8.8 0 0 1 .72 0c.67.3.8.86.42 1.67a6.27 6.27 0 0 1-1.24 1.6.2.2 0 0 0-.06.12c0 .06 0 .1.04.14.28.37.63.55 1.06.55.4 0 .78-.17 1.13-.5.1-.1.14-.2.11-.34-.37-1.8-.13-3.5.72-5.07.1-.2.23-.37.4-.5.19-.19.38-.27.56-.25.4.04.67.28.81.73.12.35.15.75.08 1.2a10.3 10.3 0 0 1-1.46 4.01c-.06.1-.05.17.03.24.34.34.72.52 1.13.56.36.03.73-.05 1.1-.26.35-.19.65-.45.91-.8.27-.33.45-.68.55-1.06.2-.73.14-1.6-.2-2.6a5.47 5.47 0 0 0-3.26-3.35.36.36 0 0 1-.19-.17c-.14-.27-.05-.46.27-.58a.4.4 0 0 1 .3 0 6.25 6.25 0 0 1 2.71 9.7 6.24 6.24 0 0 1-8.6 1.27 6.19 6.19 0 0 1-2-2.35 6 6 0 0 1-.6-3.21 6.6 6.6 0 0 1 1.25-3.31 5.26 5.26 0 0 1 2.87-2.1c.11-.03.22 0 .32.08.12.12.16.26.11.43a.4.4 0 0 1-.23.27c-1.94.9-3.07 2.31-3.4 4.21a5.16 5.16 0 0 0 .55 3.47 5.3 5.3 0 0 0 2.35 2.23c1.04.52 2.1.7 3.22.55a5.24 5.24 0 0 0 3.12-1.59c.24-.25.2-.3-.12-.18Zm-2.61-2.59c-.17-.04-.08-.94.19-2s.62-1.9.79-1.85c.16.04.08.94-.2 2-.26 1.07-.62 1.9-.78 1.85Zm-3.26.06c-.1-.06 0-.44.23-.85.23-.4.5-.7.6-.63.1.05 0 .43-.23.84s-.5.7-.6.64Z" fill="#0D509C"/><path fill-rule="evenodd" d="M6 32v-9h6v1.5H8v2h3V28H8v2.5h4V32H6Zm7 0v-9h1.21c.44 0 .79.33.79.74V32h-2Zm3 2v-9h1.21c.39 0 .71.26.78.6.35-.3.91-.6 1.65-.6 1.41 0 2.39 1.18 2.39 3.48S20.83 32 19.3 32c-.56 0-.99-.21-1.31-.49V34h-2Zm2-3.74v-3.5c.22-.18.53-.32.9-.32.9 0 1.1.64 1.1 2.04s-.07 2.12-1.1 2.12c-.43 0-.72-.15-.9-.34ZM23 25v7h2v-5.05a2.85 2.85 0 0 1 2-.39v-1.52a2.17 2.17 0 0 0-2 .68.78.78 0 0 0-.79-.72H23Zm11 3.5a3.5 3.5 0 1 1-7 0 3.5 3.5 0 0 1 7 0Zm-2 0c0 1.1-.67 2-1.5 2s-1.5-.9-1.5-2 .67-2 1.5-2 1.5.9 1.5 2Z" fill="#6F7170"/></svg>