<!-- by TradingView --><svg width="56" height="56" viewBox="0 0 56 56" xmlns="http://www.w3.org/2000/svg"><path fill="#F0F3FA" d="M0 0h56v56H0z"/><path d="m27.08 12.03 1.1 1.47-1.14 1.54c-.88.06-1.74.21-2.56.44l.83-2.08-1.43-.86c1.03-.28 2.1-.45 3.2-.51Z" fill="#F95C04"/><path d="m27.69 12 1.12 1.5-1.13 1.5a13.77 13.77 0 0 1 2.36.16l1.63-1.22-1.03-1.72a16.11 16.11 0 0 0-2.95-.22Z" fill="#F95C04"/><path d="m31.3 12.34 1.03 1.72-1.62 1.22c.87.19 1.7.46 2.5.8l1.98-1.18-.6-1.48a15.88 15.88 0 0 0-3.3-1.08Z" fill="#F95C04"/><path d="m35.27 13.74.54 1.36-2.06 1.24a13 13 0 0 1 2.08 1.29l2.42-.81v-1.1a16.03 16.03 0 0 0-2.98-1.98Z" fill="#F95C04"/><path d="M38.75 16.15v1.03L36.3 18c.64.52 1.22 1.11 1.75 1.75h2.25l.38-1.5a16.1 16.1 0 0 0-1.93-2.1Z" fill="#F95C04"/><path d="m41.07 18.76-.37 1.49h-2.26c.6.81 1.11 1.7 1.52 2.64l2.4.8.57-1.45a15.96 15.96 0 0 0-1.86-3.48Z" fill="#F95C04"/><path d="m43.19 22.95-.55 1.36-2.44-.81c.41 1.11.67 2.3.76 3.54l1.52 1.13 1.47-1.47c-.1-1.3-.37-2.55-.76-3.75Z" fill="#F95C04"/><path d="m43.99 27.37-1.47 1.46L41 27.68a13.79 13.79 0 0 1-.4 3.56l1.45 1.46 1.45-.73a16.03 16.03 0 0 0 .49-4.6Z" fill="#2D6336"/><path d="m43.32 32.62-1.37.68-1.51-1.5c-.19.6-.41 1.18-.68 1.75l.44 2.65 1.74-.34c.58-1.02 1.04-2.1 1.38-3.24Z" fill="#2D6336"/><path d="m41.6 36.44-1.8.36-.42-2.5c-.46.82-1 1.6-1.63 2.3v2.65h1.63c.84-.85 1.58-1.8 2.22-2.81Z" fill="#2D6336"/><path d="M38.86 39.75h-1.61v-2.62c-.63.64-1.32 1.2-2.06 1.7l-.4 2.03 1.56.79c.9-.55 1.74-1.19 2.51-1.9Z" fill="#2D6336"/><path d="m35.84 41.95-1.62-.81.39-1.94c-.78.46-1.6.84-2.47 1.13l-.83 2.07 1.47.87c1.07-.33 2.1-.78 3.06-1.32Z" fill="#2D6336"/><path d="m32.12 43.46-1.43-.86.83-2.08c-.82.23-1.68.38-2.56.44l-1.14 1.53L29 43.97c1.07-.07 2.11-.24 3.12-.5Z" fill="#2D6336"/><path d="m28.38 44-1.2-1.5 1.14-1.5a13.77 13.77 0 0 1-2.45-.17l-1.54 1.23 1.03 1.72a16.11 16.11 0 0 0 3.02.22Z" fill="#2D6336"/><path d="m24.7 43.66-1.03-1.72 1.55-1.24c-.76-.16-1.49-.4-2.2-.68l-2.2 1.1.58 1.46c1.05.47 2.15.84 3.3 1.08Z" fill="#2D6336"/><path d="m20.73 42.26-.55-1.38 2.26-1.13c-.61-.29-1.2-.62-1.75-1h-2.44v1.94a16 16 0 0 0 2.48 1.57Z" fill="#2D6336"/><path d="M17.75 40.29v-2.04H20a13.08 13.08 0 0 1-2.05-2h-2.24l-.32 1.6c.7.89 1.49 1.7 2.36 2.44Z" fill="#2D6336"/><path d="m14.98 37.3.32-1.55h2.26a12.98 12.98 0 0 1-1.6-2.83l-1.82-.6-.82 2.05a15.98 15.98 0 0 0 1.66 2.94Z" fill="#2D6336"/><path d="m13.05 33.7.8-2.01 1.88.62c-.32-.91-.54-1.88-.65-2.88l-1.53-1.53-1.34 2.23c.17 1.26.4 2.43.84 3.58Z" fill="#2D6336"/><path d="m12.06 29.41 1.39-2.31 1.57 1.56a13.25 13.25 0 0 1 .31-3.6l-1.4-1.75-1.43.72a16.03 16.03 0 0 0-.44 5.38Z" fill="#F95C04"/><path d="m12.68 23.38 1.39-.7 1.42 1.78c.27-.97.65-1.88 1.13-2.74l-.77-1.93-1.8.35a15.9 15.9 0 0 0-1.37 3.24Z" fill="#F95C04"/><path d="m14.4 19.56 1.75-.35.79 1.96c.38-.63.82-1.22 1.31-1.77v-2.65h-1.63c-.84.85-1.58 1.8-2.22 2.81Z" fill="#F95C04"/><path d="M17.14 16.25h1.61v2.62c.75-.76 1.59-1.43 2.5-1.98v-1.72l-1.78-.71c-.83.52-1.61 1.12-2.33 1.79Z" fill="#F95C04"/><path d="M20.01 14.13c1-.58 2.08-1.05 3.21-1.4l1.47.87-.83 2.07c-.73.25-1.44.56-2.11.93v-1.77l-1.74-.7Z" fill="#F95C04"/><path d="M40.5 28a12.5 12.5 0 1 1-25 0 12.5 12.5 0 0 1 25 0Z" fill="navy"/><path d="M24.5 27.5h-9v.5h10v-1l2 4 1-2.5h12V28H28l-.5 1-2.5-5-.5 3.5Z" fill="#CD2037"/><path d="m28.5 32 .35 1.15H30l-.93.7.36 1.15-.93-.7-.93.7.36-1.15-.93-.7h1.15L28.5 32ZM26 33l.24.76H27l-.62.48.24.76-.62-.47-.62.47.24-.76-.62-.48h.76L26 33ZM31 33l-.24.76H30l.62.48-.24.76.62-.47.62.47-.24-.76.62-.48h-.76L31 33ZM23.5 33l.24.76h.76l-.62.48.24.76-.62-.47-.62.47.24-.76-.62-.48h.76l.24-.76ZM33.5 33l-.24.76h-.76l.62.48-.24.76.62-.47.62.47-.24-.76.62-.48h-.76L33.5 33ZM21.5 34l.12.38H22l-.3.24.1.38-.3-.24-.3.24.1-.38-.3-.24h.38l.12-.38ZM35.5 34l-.12.38H35l.3.24-.1.38.3-.24.3.24-.1-.38.3-.24h-.38L35.5 34ZM23 24h-3.5v.5c.4 0 .5.33.5.5v2h3v-.5h-2v-2h1c.4 0 .5.33.5.5h.5v-1ZM21 28.5h-1V30c0 .4-.33.5-.5.5v.5H23v-1.5h-.5c0 .8-.33 1-.5 1h-.5c-.4 0-.5-.33-.5-.5v-1.5ZM25.5 31h-2v-.5c1 0 1-.5 1-1v-1h.5v1c0 .8.33 1 .5 1v.5ZM29.5 31h2v-.5c-1 0-1-.5-1-1V29H30v.5c0 .8-.33 1-.5 1v.5ZM30 24l-1.5 3.5h.5l.5-1v1h1L30 24ZM37.07 30.4c0-.15-.06-.39-.2-.7l-.27-.7h.99l.28.7c.18.45.35.75.5.89.15.13.36.2.63.22V31h-2.6v-.19c.26-.01.44-.06.53-.13.1-.08.14-.17.14-.29ZM36.98 27.5l-1.4-3.5h-.18l-1.44 3.5h.46l.8-1.93.78 1.93h.98ZM33.8 29l-.32.79c-.11.26-.17.46-.17.6 0 .1.05.2.14.27.1.08.3.13.63.15V31H32v-.19c.28-.05.45-.11.53-.2.17-.16.35-.48.55-.98l.26-.63h.46Z" fill="#fff"/></svg>