<!-- by TradingView --><svg width="56" height="56" viewBox="0 0 56 56" xmlns="http://www.w3.org/2000/svg"><path fill="#F0F3FA" d="M0 0h56v56H0z"/><path fill-rule="evenodd" d="M39 15H17a2 2 0 0 0-2 2v22c0 1.1.9 2 2 2h22a2 2 0 0 0 2-2V17a2 2 0 0 0-2-2Zm-22-3a5 5 0 0 0-5 5v22a5 5 0 0 0 5 5h22a5 5 0 0 0 5-5V17a5 5 0 0 0-5-5H17Z" fill="url(#a)"/><path fill-rule="evenodd" d="M37 15H19a4 4 0 0 0-4 4v18a4 4 0 0 0 4 4h18a4 4 0 0 0 4-4V19a4 4 0 0 0-4-4Zm-18-1a5 5 0 0 0-5 5v18a5 5 0 0 0 5 5h18a5 5 0 0 0 5-5V19a5 5 0 0 0-5-5H19Z" fill="#FFDB00"/><path fill-rule="evenodd" d="M39 13H17a4 4 0 0 0-4 4v22a4 4 0 0 0 4 4h22a4 4 0 0 0 4-4V17a4 4 0 0 0-4-4Zm-22-1a5 5 0 0 0-5 5v22a5 5 0 0 0 5 5h22a5 5 0 0 0 5-5V17a5 5 0 0 0-5-5H17Z" fill="#FFDB00"/><path d="M17 22a5 5 0 0 1 5-5h12a5 5 0 0 1 5 5v12a5 5 0 0 1-5 5H22a5 5 0 0 1-5-5V22Z" fill="url(#b)"/><path d="M28.56 36a7.2 7.2 0 0 1-6.63-3.87 8.92 8.92 0 0 1-.93-4.14c0-1.56.3-2.94.9-4.15a7.06 7.06 0 0 1 2.52-2.8A6.6 6.6 0 0 1 28.05 20c1.36 0 2.57.34 3.6 1a6.72 6.72 0 0 1 2.45 2.84 9.35 9.35 0 0 1 .85 5.16H22.99v-2h10.63l-1.03.6c.01-1-.17-1.9-.56-2.7a4.42 4.42 0 0 0-6.34-1.82 4.38 4.38 0 0 0-1.61 1.86c-.4.79-.59 1.7-.59 2.72v.47c0 1.05.21 1.98.64 2.81.44.81 1.05 1.44 1.83 1.9.78.45 1.67.68 2.68.68a4.98 4.98 0 0 0 4.06-1.9l1.4 1.84a6.2 6.2 0 0 1-2.39 1.89c-.93.43-1.99.65-3.15.65Z" fill="url(#c)"/><path fill-rule="evenodd" d="M34 18H22a4 4 0 0 0-4 4v12a4 4 0 0 0 4 4h12a4 4 0 0 0 4-4V22a4 4 0 0 0-4-4Zm-12-1a5 5 0 0 0-5 5v12a5 5 0 0 0 5 5h12a5 5 0 0 0 5-5V22a5 5 0 0 0-5-5H22Z" fill="url(#d)"/><defs><linearGradient id="a" x1="28" y1="13" x2="28" y2="43" gradientUnits="userSpaceOnUse"><stop stop-color="#407B32"/><stop offset="1" stop-color="#95D1B2"/></linearGradient><linearGradient id="b" x1="28" y1="17" x2="28" y2="39" gradientUnits="userSpaceOnUse"><stop stop-color="#006434"/><stop offset="1" stop-color="#90D2B7"/></linearGradient><linearGradient id="c" x1="28" y1="20" x2="28" y2="36" gradientUnits="userSpaceOnUse"><stop stop-color="#FFFE01"/><stop offset="1" stop-color="#FEC601"/></linearGradient><linearGradient id="d" x1="28" y1="17" x2="28" y2="39" gradientUnits="userSpaceOnUse"><stop stop-color="#FF0"/><stop offset="1" stop-color="#FDC400"/></linearGradient></defs></svg>