<!-- by TradingView --><svg width="56" height="56" viewBox="0 0 56 56" xmlns="http://www.w3.org/2000/svg"><path fill="#F0F3FA" d="M0 0h56v56H0z"/><path d="M10 16h36v6H34v3h12v6H34v3h12v6H10V16Zm12 22a10 10 0 1 0 0-20 10 10 0 0 0 0 20Z" fill="#19164F"/><path d="M28.37 28.18c0 .51.21 1.32.86 1.32.31 0 .54-.19.69-.68l.08.06c-.06.5-.4 1.12-.97 1.12-.74 0-1.03-.85-1.03-1.46 0-.67.29-1.54 1.1-1.54.63 0 .9.63.9 1.18h-1.63Zm0-.18h1.1c-.02-.32-.11-.78-.52-.78-.4 0-.56.45-.58.78ZM27 27v.66c.22-.44.4-.66.63-.66.1 0 .2.04.26.1a.33.33 0 0 1 .03.46.24.24 0 0 1-.18.09c-.07 0-.14-.04-.23-.1-.08-.08-.15-.12-.19-.12-.03 0-.07.02-.11.06-.09.09-.12.23-.21.43v1.4c0 .16.02.28.06.36.02.06.07.11.13.15.07.04.16.06.28.06V30h-1.44v-.11c.14 0 .24-.03.3-.07a.27.27 0 0 0 .1-.17c.02-.03.02-.14.02-.3v-1.13c0-.34 0-.55-.02-.6a.23.23 0 0 0-.07-.15.18.18 0 0 0-.13-.05.54.54 0 0 0-.2.05l-.03-.11.88-.36H27Z" fill="#2B81BC"/><path d="M25.63 26c.07 0 .13.03.18.08.06.06.08.13.08.2 0 .08-.02.15-.08.2a.24.24 0 0 1-.18.1.25.25 0 0 1-.2-.1.29.29 0 0 1-.07-.2c0-.07.02-.14.07-.2a.25.25 0 0 1 .2-.08Zm.37 1v2.42c0 .16.01.27.03.32.02.05.06.1.1.12a.5.5 0 0 0 .24.04v.1h-1.33v-.1c.11 0 .2-.01.23-.04a.24.24 0 0 0 .1-.12.93.93 0 0 0 .04-.32v-1.34c0-.28-.01-.46-.03-.55-.01-.06-.03-.1-.06-.12a.15.15 0 0 0-.1-.04.5.5 0 0 0-.18.05l-.04-.1.88-.32H26ZM22.02 27.34l.86-.34H23v.63c.21-.33.5-.63.93-.63.7 0 1.07.68 1.07 1.3 0 .83-.4 1.7-1.32 1.7a1 1 0 0 1-.68-.23v.62c0 .37.1.5.48.5V31H22v-.1c.4 0 .5-.13.5-.53v-2.51c0-.17 0-.28-.02-.33a.2.2 0 0 0-.09-.1.27.27 0 0 0-.14-.04.62.62 0 0 0-.2.04l-.03-.09Zm.98.46v1c0 .2 0 .54.03.6.06.23.3.43.64.43.65 0 .77-.73.77-1.25 0-.47-.19-1.16-.77-1.16-.29 0-.48.2-.67.38Z" fill="#2B81BC"/><path d="M19 27.62c.28-.26.34-.62.84-.62.2 0 .21.05.35.16.14.1.24.26.29.46.25-.28.26-.62.76-.62.74 0 .76.68.76 1.09v1.25c0 .29.01.55.47.55V30H21v-.11h.06c.45 0 .44-.29.44-.55V28.1c0-.27 0-.7-.38-.7-.24 0-.27.08-.62.39V29.35c0 .3.02.54.5.54V30h-1.42v-.11c.48 0 .42-.24.42-.55V28.1c0-.24-.04-.41-.11-.51-.31-.43-.64-.08-.89.2v1.56c0 .32.02.55.5.55V30h-1.45v-.11c.46 0 .45-.26.45-.55v-1.11c0-.32-.01-.53-.03-.62-.02-.07-.04-.12-.08-.15a.22.22 0 0 0-.14-.04.57.57 0 0 0-.2.05l-.05-.11.85-.36H19v.62ZM15.66 26.22v1.56h.48c.27 0 .44-.03.53-.1.12-.09.19-.25.2-.48H17v1.4h-.13c-.03-.2-.06-.32-.1-.38a.41.41 0 0 0-.2-.16 1.2 1.2 0 0 0-.43-.06h-.48v1.33c0 .33.04.45.39.45h.46c.26 0 .45-.01.57-.05.12-.03.23-.09.35-.18.14-.12.28-.3.43-.55H18l-.4 1h-3.27v-.1h.17c.4 0 .5-.24.5-.6v-2.6c0-.39-.09-.6-.5-.6h-.17V26h3.27l.05.88h-.14c-.04-.21-.1-.36-.16-.44a.53.53 0 0 0-.26-.18 1.8 1.8 0 0 0-.48-.04h-.95Z" fill="#2B81BC"/></svg>