<!-- by TradingView --><svg width="56" height="56" viewBox="0 0 56 56" xmlns="http://www.w3.org/2000/svg"><path fill="url(#a)" d="M0 0h56v56H0z"/><path d="M19.28 25.46a.63.63 0 0 1 .62-.46h4.46c.2 0 .38.09.5.24a.6.6 0 0 1 .12.52l-1.28 4.9c-.55.5-.82.48-1.23-.29L23.7 26h-3.15l-1.31 4.67c-.8.4-1.03.28-1.24-.3l1.28-4.9ZM31.95 25.9l-4.9 4.92a.61.61 0 0 1-.7.12.62.62 0 0 1-.35-.63l.62-4.93c.64-.5.89-.41 1.21.15l-.39 3.15 3.64-3.66c.85-.09 1.02.11.87.87ZM36.7 26h-3c-.68-.34-.8-.41-.15-1h3.81c.2 0 .38.09.5.23.13.15.17.34.12.52l-1.27 4.8a.63.63 0 0 1-.62.45h-4.45a.65.65 0 0 1-.5-.23.57.57 0 0 1-.12-.52l.64-2.3a.63.63 0 0 1 .61-.45h3.96l.48-1.5Zm-.79 2.5h-3.14l-.32 1.5h3.14l.32-1.5ZM38 30.33l1.52-5c.93-.52 1.24-.43 1.48.3l-1.52 5c-.7.5-1.06.59-1.48-.3ZM42.2 25.47a.6.6 0 0 1 .58-.47h3.6a.6.6 0 0 1 .42.18l1.2 1.03c-.13.43-.29.63-.85.88L46.13 26h-2.88l-1.09 4.7c-.66.44-.94.44-1.16-.3l1.2-4.93ZM17.5 22h-6.92c-.2 0-.58-.1-.58-.5s.38-.5.58-.5h6.91c.92.4.39.83 0 1ZM15.5 31H8.57c-.2 0-.58-.1-.58-.5s.38-.5.58-.5h6.91c.92.4.39.83 0 1ZM11.4 25.42l.44-2.42c-.29-.5-.52-.58-1.13-.25l-1.16 6.36c.38.6.65.5 1.13.25l.49-2.67h4.15c.3-.55.31-.83 0-1.27H11.4ZM41 20v-1h3.35v-1L48 20h-7ZM22 19h-1v1h1v-1ZM24 19h-1v1h1v-1ZM25 19h1v1h-1v-1ZM29 19h-2v1h2v-1ZM30 19h2v1h-2v-1ZM36 19h-3v1h3v-1ZM37 19h3v1h-3v-1ZM17 35v-1h-3.35v-1L10 35h7ZM36 34h1v1h-1v-1ZM34 34h1v1h-1v-1ZM33 34h-1v1h1v-1ZM29 34h2v1h-2v-1ZM28 34h-2v1h2v-1ZM22 34h3v1h-3v-1ZM21 34h-3v1h3v-1ZM41 21v1h3.35v1L48 21h-7ZM22 22h-1v-1h1v1ZM24 22h-1v-1h1v1ZM25 22h1v-1h-1v1ZM29 22h-2v-1h2v1ZM30 22h2v-1h-2v1ZM36 22h-3v-1h3v1ZM37 22h3v-1h-3v1ZM17 36v1h-3.35v1L10 36h7ZM36 37h1v-1h-1v1ZM34 37h1v-1h-1v1ZM33 37h-1v-1h1v1ZM29 37h2v-1h-2v1ZM28 37h-2v-1h2v1ZM22 37h3v-1h-3v1ZM21 37h-3v-1h3v1Z" fill="#FDFDFD"/><defs><linearGradient id="a" x1="10.42" y1="9.71" x2="68.15" y2="76.02" gradientUnits="userSpaceOnUse"><stop stop-color="#1A1E21"/><stop offset="1" stop-color="#06060A"/></linearGradient></defs></svg>