<!-- by TradingView --><svg width="56" height="56" viewBox="0 0 56 56" xmlns="http://www.w3.org/2000/svg"><path fill="#F0F3FA" d="M0 0h56v56H0z"/><path d="M16.5 27 14 31l-2-4 2 1 2.5-1ZM26 43l1-2-1-2 4 2-4 2Z" fill="#006CB5"/><path d="m28.93 14.13-.43.87.6 1.18c-.52-.09-1.05-.15-1.58-.17L25.5 15l1.98-1c.5.02.98.07 1.45.13Zm.52.08-.4.79.66 1.3c4.36 1.01 7.8 4.39 8.91 8.7h2.06c-1.2-5.5-5.65-9.8-11.23-10.79Zm-3.04 1.8a12 12 0 0 0-11.37 11.04l-1.02.4-.98-.49a14 14 0 0 1 13.31-12.95l-1.97.99 2.03 1.01ZM27 40c.31 0 .62-.01.93-.04L30 41l-1.92.96a14.2 14.2 0 0 1-1.58.03L27 41l-.5-1.01.5.01Zm-11.82-9.94a12 12 0 0 0 10.74 9.9l.52 1.04-.48.96A14 14 0 0 1 13.24 30.6l.71 1.42 1.23-1.96ZM40.42 32a14.02 14.02 0 0 1-10.82 9.76l1.52-.76-2.28-1.14A12.02 12.02 0 0 0 38.32 32h2.1Zm-25.41-4.4a12.23 12.23 0 0 0 .06 1.69L14 31l-.96-1.92a14.2 14.2 0 0 1-.03-1.58l.99.5 1-.4Z" fill="#006CB5"/><path d="m29.5 17-1-2 1-2-4 2 4 2ZM17.5 27 16 29h16v-2H17.5Z" fill="#006CB5"/><path d="M23 29.5 11 47l14.5-17 .5 4 3-4.5h-6ZM31.5 26.5h-7L29 21v4L45 9 31.5 26.5Z" fill="#EC6521"/></svg>