<!-- by TradingView --><svg width="56" height="56" viewBox="0 0 56 56" xmlns="http://www.w3.org/2000/svg"><path fill="#F0F3FA" d="M0 0h56v56H0z"/><path fill="url(#a)" d="M8 23h12v11H8z"/><path d="M21 24c0 .8.67 1 1 1h2v7c0 1.6 1.33 2 2 2v-9c0-1.6-1.33-2-2-2h-2c-.33 0-1 .2-1 1ZM28 23c-1.5 0-1.5 1.5-1 2 .4.4.83-.17 1-.5.8-.4 1 .83 1 1.5v6c0 1.6 1.33 2 2 2v-8c0-2-1.5-3-3-3ZM33 23c-1.5 0-1.5 1.5-1 2 .4.4.83-.17 1-.5.8-.4 1 .83 1 1.5v6c0 1.6 1.33 2 2 2v-8c0-2-1.5-3-3-3ZM39 25h1v9h4c.33 0 1-.2 1-1s-.67-1-1-1h-2v-8c0-.8-.67-1-1-1h-2c-.33 0-1 .2-1 1s.67 1 1 1ZM45.19 25.25a2.57 2.57 0 0 0-1.55-.26 1 1 0 0 1-.28-1.98c.73-.1 1.85-.05 2.83.51C47.25 24.13 48 25.27 48 27a1 1 0 1 1-2 0c0-1.07-.41-1.52-.81-1.75ZM8 33c0 .5.5 1 1 1h10c.5 0 1-.6 1-1s-.5-1-1-1h-7v-7h6l1.5-4 .5.5-.5-2.5-2 1.5h1l-1 2.5H9c-.5 0-1 .42-1 1 0 .5.5 1 1 1h1v7H9c-.5 0-1 .34-1 1Z" fill="#CD030F"/><path d="M13 29c0 .8.67 1 1 1h1c.33 0 1-.2 1-1s-.67-1-1-1h-1c-.33 0-1 .2-1 1Z" fill="#060352"/><defs><linearGradient id="a" x1="19" y1="24.1" x2="8.21" y2="32.43" gradientUnits="userSpaceOnUse"><stop stop-color="#BFBDC8"/><stop offset=".41" stop-color="#F7F9F6"/><stop offset="1" stop-color="#C6B7BA"/></linearGradient></defs></svg>