<!-- by TradingView --><svg width="56" height="56" viewBox="0 0 56 56" xmlns="http://www.w3.org/2000/svg"><path fill="#273C1E" d="M0 0h56v56H0z"/><path d="M24 18c0 4.36 2.29 5.74 3.5 6l.5-7 .5 7a6.66 6.66 0 0 0 3.5-6c0-3.72-2.53-6.43-3.99-7.99L28 10c-1.45 1.56-4 4.11-4 8ZM17.93 29.26c3.25 2.64 6.04 1.7 7.03.9l-4.74-4.8 5.7 3.66c.25-1.07.06-3.79-2.73-6.05-2.78-2.26-6.07-2.05-8.19-1.85.2 2.08.03 5.78 2.93 8.14ZM38.07 29.26c-3.25 2.64-6.04 1.7-7.03.9l4.74-4.8-5.7 3.66c-.25-1.07-.06-3.79 2.73-6.05 2.78-2.26 6.07-2.05 8.19-1.85-.2 2.08-.03 5.78-2.93 8.14ZM17.75 40.63c3.75 2.1 6.32 1.36 7.26.59l-4.53-4.7 5.44 3.58c.24-1.05.06-3.7-2.6-5.9s-7.3-.73-9.32-.53c.2 2.03.57 5.19 3.75 6.96ZM38.25 40.63c-3.75 2.1-6.32 1.36-7.26.59l4.53-4.7-5.44 3.58c-.24-1.05-.06-3.7 2.6-5.9s7.3-.73 9.32-.53c-.2 2.03-.57 5.19-3.75 6.96Z" fill="#7AA740"/></svg>