<!-- by TradingView --><svg width="56" height="56" viewBox="0 0 56 56" xmlns="http://www.w3.org/2000/svg"><path fill="#F0F3FA" d="M0 0h56v56H0z"/><path d="M13.5 25.74v4.51c0 .12.07.25.18.25H25.5v12h5V27.69c0-1.3.41-2.28 1.37-3 .94-.7 1.77-.69 3.1-.69h8.91c.08 0 .12.05.12.13v7.76a.1.1 0 0 1-.03.07c-.02.02-.04.04-.07.04H32.07c-.04 0-.07 0-.07.05v11.83c0 .04-.03.12-.09.12H24V32H12.13c-.09 0-.13-.03-.13-.12v-7.79a.09.09 0 0 1 .02-.06l.03-.01.03-.02H24V12h7.86a.1.1 0 0 1 .07.03c.02.01.07.04.07.06v9.73c0 1.53-1.05 3-2.45 3.5-.37.12-1.13.19-2.28.18H13.68c-.05 0-.18.19-.18.24Z" fill="#13348F"/></svg>