<!-- by TradingView --><svg width="56" height="56" viewBox="0 0 56 56" xmlns="http://www.w3.org/2000/svg"><path fill="url(#a)" d="M0 0h56v56H0z"/><path fill-rule="evenodd" d="M28 43a15 15 0 1 0 0-30 15 15 0 0 0 0 30Zm0 2a17 17 0 1 0 0-34 17 17 0 0 0 0 34Z" fill="#fff"/><path d="M27 14.5c0 1.6-2.5 3-4 3.5v1c.5.5 1 1.2 1 2s-.5 1.5-1 2l2 2.5c1.5-.5 3 1.17 3 1.5a2.67 2.67 0 0 1 3-1.5l2-2.5c-.33-.33-1-1.2-1-2s.67-1.67 1-2v-1c-2-.5-4-2-4-3.5h-2Z" fill="#fff"/><path d="M28 41c4.6 0 8.65-2.4 10.96-6H17.04c2.31 3.6 6.36 6 10.96 6Zm12-7h.65a14 14 0 0 1-25.3 0H40ZM28 15a13 13 0 0 1 12.96 12H15.04A13 13 0 0 1 28 15Zm13.5 13h.5a14 14 0 1 0-28 0h27.5Z" fill="#fff"/><path fill-rule="evenodd" d="M28 23c1.1 0 2-1.34 2-3s-.9-3-2-3-2 1.34-2 3 .9 3 2 3Zm0-4a.5.5 0 1 0 0-1 .5.5 0 0 0 0 1Z" fill="#31AFCF"/><path d="M36 36H20c.5 1 3.6 4 8 4s7.5-3 8-4Z" fill="#fff" fill-opacity=".6"/><path d="M37.57 33.05v-4h1.05c.28 0 .51.03.7.1.2.05.35.16.45.31.11.16.16.37.16.64 0 .17-.01.32-.04.44a.73.73 0 0 1-.45.55l.56 1.96h-.85l-.46-1.81h-.3v1.8h-.82Zm.83-2.3h.24c.13 0 .24-.02.31-.06.08-.05.13-.1.16-.2.04-.08.05-.2.05-.32a.7.7 0 0 0-.1-.42c-.07-.1-.2-.15-.38-.15h-.28v1.15ZM35.37 33.05v-4h1.77v.56h-.94v1.06h.72v.57h-.72v1.26h.95v.55h-1.78ZM32.5 33v-4h1c.34 0 .6.04.8.13.19.09.33.23.4.41.09.19.13.42.13.71v1.46c0 .3-.04.54-.12.73a.8.8 0 0 1-.41.43c-.19.09-.45.13-.79.13H32.5Zm.83-.57h.17c.16 0 .26-.02.33-.07s.1-.12.12-.2c.02-.1.03-.22.03-.36v-1.65c0-.14-.01-.25-.04-.33a.28.28 0 0 0-.13-.19.63.63 0 0 0-.31-.06h-.17v2.86ZM30.22 33v-4H32v.56h-.94v1.06h.72v.57h-.72v1.26H32V33h-1.78ZM28 33v-4h.83v3.45h.95V33H28ZM25.2 33c-.3 0-.54-.06-.71-.16a.88.88 0 0 1-.38-.44c-.07-.19-.11-.42-.11-.68v-1.46c0-.26.04-.49.11-.68.08-.19.2-.33.38-.43.17-.1.4-.15.7-.15.3 0 .54.05.71.15.18.1.3.25.38.44.08.18.12.4.12.67v1.46c0 .26-.04.5-.12.68a.85.85 0 0 1-.38.44c-.17.1-.4.16-.7.16Zm0-.58c.1 0 .18-.02.23-.06a.36.36 0 0 0 .1-.2c.02-.07.02-.16.02-.25v-1.84c0-.09 0-.17-.02-.25a.33.33 0 0 0-.1-.18c-.05-.05-.13-.07-.24-.07-.1 0-.17.02-.22.07a.33.33 0 0 0-.1.18c-.02.08-.03.16-.03.25v1.84c0 .1 0 .18.02.26.02.08.05.14.1.19.05.04.13.06.23.06ZM21 33v-4h1.05c.28 0 .51.03.7.1.2.05.35.16.46.31.1.16.16.37.16.65 0 .16-.02.3-.05.44a.73.73 0 0 1-.45.55l.56 1.95h-.85l-.46-1.81h-.3V33H21Zm.83-2.3h.24c.13 0 .24-.02.31-.06.08-.04.13-.1.16-.2.04-.08.05-.2.05-.32a.7.7 0 0 0-.1-.42c-.07-.1-.2-.15-.38-.15h-.28v1.15ZM19.18 33c-.3 0-.55-.05-.72-.15a.84.84 0 0 1-.36-.44c-.07-.2-.1-.43-.1-.71V29h.82v2.81c0 .1 0 .2.02.29.01.1.05.17.1.23s.13.09.24.09c.1 0 .19-.03.24-.1a.42.42 0 0 0 .1-.22l.02-.29V29h.82v2.7c0 .28-.04.51-.1.7a.82.82 0 0 1-.37.45c-.17.1-.4.15-.71.15ZM16 33.05v-4h1.77v.56h-.94v1.06h.72v.57h-.72v1.26h.95v.55H16Z" fill="#fff"/><defs><linearGradient id="a" x1="10.42" y1="9.71" x2="68.15" y2="76.02" gradientUnits="userSpaceOnUse"><stop stop-color="#1A1E21"/><stop offset="1" stop-color="#06060A"/></linearGradient></defs></svg>