<!-- by TradingView --><svg width="56" height="56" viewBox="0 0 56 56" xmlns="http://www.w3.org/2000/svg"><path fill="#F0F3FA" d="M0 0h56v56H0z"/><path d="M49.75 26c1.5 0 2.25.6 2.25 1.98V32h-1.01v-.91c-.53.64-1.28.91-2.1.91-1.08 0-1.89-.63-1.89-1.75 0-1.18.93-1.79 2.82-1.85l1.18-.03v-.32c0-.74-.56-1.16-1.3-1.16-.32 0-.61.04-.9.13a5.6 5.6 0 0 0-.8.31l-.38-.83a4.73 4.73 0 0 1 2.13-.5Zm.28 3.13c-.75.04-1.82.17-1.82 1.13 0 .59.46.86 1 .86.92 0 1.78-.56 1.78-1.5v-.5l-.96.01ZM46 26v6h-1v-6h1Zm-.5-2c.14 0 .25.05.35.15.1.1.15.27.15.5 0 .24-.05.4-.15.51-.1.1-.21.15-.35.15a.5.5 0 0 1-.36-.15c-.1-.1-.14-.27-.14-.5 0-.24.05-.4.14-.5a.5.5 0 0 1 .36-.16ZM43 30.26c0 .38-.09.7-.27.96-.17.25-.43.45-.76.59a4.5 4.5 0 0 1-2.2.1 3.16 3.16 0 0 1-.76-.26v-1c.25.12.53.23.85.33.32.1.63.14.94.14.4 0 .7-.07.87-.2a.65.65 0 0 0 .28-.55.6.6 0 0 0-.1-.35c-.07-.1-.2-.21-.4-.32a5.37 5.37 0 0 0-.8-.38c-.35-.15-.65-.3-.9-.44a1.72 1.72 0 0 1-.56-.53c-.13-.2-.19-.47-.19-.8 0-.5.2-.88.57-1.14.39-.27.9-.41 1.53-.41a3.94 3.94 0 0 1 1.8.4l-.35.88a3.99 3.99 0 0 0-1.5-.39c-.33 0-.57.05-.74.16a.5.5 0 0 0-.26.45c0 .14.04.26.11.36.08.1.22.2.42.3l.8.36c.35.14.64.28.88.42.24.14.42.32.55.53.13.2.19.47.19.8ZM36.79 32l-.82-2.3h-2.95L32.2 32H31l2.9-8h1.2l2.9 8h-1.21Zm-1.9-5.59-.13-.37a3396.64 3396.64 0 0 1-.27-.95 13.58 13.58 0 0 1-.36 1.32l-.77 2.24h2.3l-.78-2.24ZM27 29c0 .47-.06.9-.18 1.27s-.28.69-.5.95c-.22.25-.48.45-.8.59a2.7 2.7 0 0 1-2.03 0c-.3-.14-.56-.34-.79-.6a2.86 2.86 0 0 1-.51-.94c-.13-.37-.19-.8-.19-1.29 0-.63.1-1.17.3-1.62.2-.44.5-.78.87-1A2.5 2.5 0 0 1 24.5 26a2.33 2.33 0 0 1 2.16 1.36c.22.45.33 1 .33 1.63Zm-3.92 0c0 .42.05.8.15 1.11.1.3.25.54.46.7.21.17.48.26.81.26.33 0 .6-.09.81-.25.21-.17.37-.4.46-.7.1-.32.15-.7.15-1.13 0-.44-.05-.81-.16-1.11-.1-.3-.25-.53-.46-.69-.2-.16-.47-.25-.81-.25-.5 0-.85.18-1.08.54-.22.36-.33.86-.33 1.51ZM20.27 26c.23 0 .55.03.73.05l-.14 1.09a3.17 3.17 0 0 0-.66-.08c-.97 0-2.2.79-2.2 1.84V32h-1v-6h1l.03 1.2a2.9 2.9 0 0 1 2.24-1.2ZM15 26v6h-1v-.95c-.37.62-1.23.95-1.92.95-1.35 0-2.08-.81-2.08-2.14V26h1v3.68c0 .93.51 1.37 1.3 1.37 1.24 0 1.7-1.01 1.7-2.07V26h1ZM8 32H4v-8h4v1H5v2.5h3v1H5V31h3v1Z" fill="#B60009"/></svg>