<!-- by TradingView --><svg width="56" height="56" viewBox="0 0 56 56" xmlns="http://www.w3.org/2000/svg"><path fill="#F0F3FA" d="M0 0h56v56H0z"/><path d="M46 32v-7h1.47l3.48 4.66H50V25h2v7h-1.47l-3.48-4.66H48V32h-2ZM41.5 32a3.48 3.48 0 0 1-3.5-3.5c0-1.97 1.53-3.5 3.5-3.5 1.96 0 3.5 1.54 3.5 3.5 0 1.97-1.54 3.5-3.5 3.5Zm0-1.5c1.06 0 1.5-1 1.5-2 0-.99-.47-2-1.5-2-1.06 0-1.5 1-1.5 2s.46 2 1.5 2ZM32 32v-7h2v5.54h3V32h-5ZM25 32v-7h2.98c.6 0 1.1.1 1.53.31.44.2.77.5 1 .9.24.39.36.85.36 1.38 0 .53-.12.98-.35 1.37-.24.38-.57.67-1 .88-.44.2-.95.3-1.54.3h-1.96l.98-.83V32h-2Zm4.03 0-1.62-2.55h1.96L31 32h-1.97ZM27 29.52l-.98-.91h1.85c.38 0 .66-.09.85-.27.2-.18.29-.43.29-.75 0-.33-.1-.58-.29-.76-.19-.18-.47-.27-.85-.27h-1.85l.98-.91v3.87ZM19.62 27.71H23v1.48h-3.38v-1.48ZM20 30.5h3V32h-5v-7h5v1.5h-3v4ZM12.64 32 10 25h1.89l2.22 6.06H13L15.27 25H17l-2.64 7h-1.72ZM5.62 27.71H9v1.48H5.62v-1.48ZM6 30.52h3V32H4v-7h5v1.5H6v4.02Z" fill="#A4C639"/></svg>