<!-- by TradingView --><svg width="56" height="56" viewBox="0 0 56 56" xmlns="http://www.w3.org/2000/svg"><path fill="#00ADEF" d="M0 0h56v56H0z"/><path fill-rule="evenodd" d="M45 28a17 17 0 1 1-34 0 17 17 0 0 1 34 0Zm-2.08 1a14.5 14.5 0 0 1-28.84 0h5.05c.73 2.07 1.93 3.94 3.87 5 .17 2.33 1.7 7 4.5 7 3.5 0 4.5-2 4.5-4v-8h8.9c-.42 2.17-2.13 3.91-3.48 4.9a2.5 2.5 0 1 0 .55 1.21c1.4-1.22 3.47-3.58 3.94-6.11h1.01Zm.07-2h-1.07c-.53-3.17-3.55-4-4.92-4-1.5 0-3.17.67-4 1v-3.5c0-.33-.2-1.2-1-2-1-1-2.5-1-2.5 0s.5 1 1.5 1 1 .5 1 1V23c0 .63-.27 1.55-.73 2.56-.32.46-.72.96-1.16 1.44h-9.74a8.67 8.67 0 0 1-1.29-2.66c-.05-.5-.08-.95-.08-1.34v-3.5c.17-.33.7-1 1.5-1 1 0 1.5-.5 1.5-1s-.5-.5-1-.5-3 .5-3 2.5v.47c-.02 1.37-.06 4.2.56 7.03h-4.55a14.5 14.5 0 0 1 28.98 0ZM24.5 32.5c-1.96 0-3.32-1.56-4.2-3.5h.93c1.14 1.1 2.5 2 3.77 2 1.28 0 2.63-.63 3.86-1.53-1.37 1.7-2.97 3.03-4.36 3.03ZM40.9 27H32c0-.83 2-3 5-3 1.18 0 3.41.63 3.9 3ZM30 30.5c-.5.83-2.2 2.8-5 4 0 1.5.5 4.5 2.5 4.5 2.5 0 2.5-1.5 2.5-2v-6.5Zm-5-.5c-.95 0-1.87-.39-2.7-1h5.5c-.92.6-1.89 1-2.8 1Z" fill="#F6FCFE"/></svg>