<!-- by TradingView --><svg width="56" height="56" viewBox="0 0 56 56" xmlns="http://www.w3.org/2000/svg"><path fill="#007BFF" d="M0 0h56v56H0z"/><path d="M48.74 25c1.75 0 3.26.8 3.26 2.72V33h-2l.03-1.19a3.1 3.1 0 0 1-2.6 1.19c-1.47 0-2.43-.97-2.43-2.44 0-1.94 1.9-2.4 3.5-2.46l1.53-.1-.03-.28c0-.72-.69-1.17-1.35-1.17a5.5 5.5 0 0 0-2.21.57l-.7-1.43c.84-.44 1.9-.69 3-.69Zm.3 4.32c-.82.02-2.04.17-2.04 1.18 0 .62.66.96 1.23.96.92 0 1.8-.6 1.8-1.54v-.63l-1 .03ZM43 25v8h-2v-8h2ZM24.1 25c2.15 0 3.9 1.24 3.9 3.5v1.02h-5.6c.02.6.22 1.06.59 1.4.38.34.9.51 1.57.51.57 0 1.08-.05 1.53-.14.46-.1.93-.26 1.42-.47v1.63c-.43.19-.88.32-1.35.4-.47.1-1.04.15-1.7.15-.88 0-1.64-.14-2.31-.42-.67-.3-1.2-.73-1.58-1.32a3.95 3.95 0 0 1-.57-2.2c0-2.47 1.65-4.06 4.1-4.06Zm.02 1.5c-.99 0-1.58.55-1.67 1.5h3.32c0-.98-.68-1.5-1.65-1.5ZM14.29 33 11 25h2.47c.72 1.98 2.03 6 2.03 6s1.32-4.04 2.03-6H20l-3.29 8h-2.42ZM11 33H4V22h7v2H6v2h5v2H6v3h5v2ZM31 25a1 1 0 1 1-2 0 1 1 0 0 1 2 0Zm8 0a1 1 0 1 1-2 0 1 1 0 0 1 2 0Zm-7.5 2a.5.5 0 1 0 0-1 .5.5 0 0 0 0 1Zm5.5-.5a.5.5 0 1 1-1 0 .5.5 0 0 1 1 0ZM35.5 28a.5.5 0 1 0 0-1 .5.5 0 0 0 0 1Zm-1.5.5a.5.5 0 1 1-1 0 .5.5 0 0 1 1 0Zm.5.5a.5.5 0 1 0 0-1 .5.5 0 0 0 0 1Zm-.5.5a.5.5 0 1 1 1 0 .5.5 0 0 1-1 0Zm0 0a.5.5 0 1 1-1 0 .5.5 0 0 1 1 0Zm-1 1a.5.5 0 1 1-1 0 .5.5 0 0 1 1 0Zm2.5.5a.5.5 0 1 1 0-1 .5.5 0 0 1 0 1Zm-3.5.5a.5.5 0 1 1-1 0 .5.5 0 0 1 1 0Zm4.5.5a.5.5 0 1 1 0-1 .5.5 0 0 1 0 1ZM31 33a1 1 0 1 1-2 0 1 1 0 0 1 2 0Zm7 1a1 1 0 1 1 0-2 1 1 0 0 1 0 2Z" fill="#F0F3FA"/></svg>