<!-- by TradingView --><svg width="56" height="56" viewBox="0 0 56 56" xmlns="http://www.w3.org/2000/svg"><path fill="url(#a)" d="M0 0h56v56H0z"/><path d="M17 28v-3h-5.33C9.53 25 9 26.73 9 27.6v7.8c0 2.08 1.78 2.6 2.67 2.6H17v-3h-4.33c-.54 0-.67-.43-.67-.65V33h5v-3h-5v-1.35c0-.52.44-.65.67-.65H17ZM21.57 29H18l2.14 4.5L18 38h3.57L23 35.43 24.43 38H28l-2.14-4.5L28 29h-3.57L23 31.57 21.57 29ZM29 29v11h3v-2h2.5c.89 0 2.5-.93 2.5-2.89v-3.67c0-.81-.53-2.44-2.67-2.44H29Zm3 6v-3h1c.33 0 1 .2 1 1v1c0 .33-.2 1-1 1h-1Z" fill="#0086FB"/><path fill-rule="evenodd" d="M18 19.1c0 2.64 1.13 7.9 5.63 7.9 1.45 0 4.37-1.21 4.37-6.07s-1.67-6.88-2.5-7.29c0 1.22-.25 3.52-1.25 3.04-.85-.42-.54-1.68-.26-2.83a6.7 6.7 0 0 0 .26-1.42c0-.97-.83-2.03-1.25-2.43 0 .4-.25 1.58-1.25 3.04-.38.55-.88 1-1.4 1.45C19.2 15.51 18 16.6 18 19.11Zm6 6.9c1.1 0 2-1.34 2-3s-.9-3-2-3-2 1.34-2 3 .9 3 2 3Z" fill="url(#b)"/><path d="M47 33.5a4.5 4.5 0 1 1-9 0 4.5 4.5 0 0 1 9 0ZM42.5 35a1.5 1.5 0 1 0 0-3 1.5 1.5 0 0 0 0 3Z" fill="#0086FB"/><defs><linearGradient id="a" x1="10.42" y1="9.71" x2="68.15" y2="76.02" gradientUnits="userSpaceOnUse"><stop stop-color="#1A1E21"/><stop offset="1" stop-color="#06060A"/></linearGradient><linearGradient id="b" x1="18.63" y1="20.32" x2="28" y2="20.96" gradientUnits="userSpaceOnUse"><stop stop-color="#D81C03"/><stop offset="1" stop-color="#7D0315"/></linearGradient></defs></svg>