<!-- by TradingView --><svg width="56" height="56" viewBox="0 0 56 56" xmlns="http://www.w3.org/2000/svg"><path fill="#F0F3FA" d="M0 0h56v56H0z"/><path fill-rule="evenodd" d="M10 21a3 3 0 0 0-3 3v8a3 3 0 0 0 3 3h36a3 3 0 0 0 3-3v-8a3 3 0 0 0-3-3H10Zm35 8.4-.07-1.4h-4.86L40 29.4h.17c.02-.26.08-.48.19-.64.1-.16.24-.27.4-.32.1-.04.3-.06.58-.06h.72v4.58c0 .34-.03.55-.1.65-.1.15-.28.23-.53.23h-.21V34h2.52v-.16h-.2c-.23 0-.4-.07-.52-.19-.08-.1-.12-.32-.12-.69v-4.58h.84c.25 0 .45.04.6.12.15.08.27.2.36.38.06.1.1.28.13.53H45ZM29 22h2.74l6.17 8.86v-6.81c0-.73-.06-1.18-.2-1.36-.19-.25-.48-.37-.88-.37h-.35V22H40v.32h-.36c-.42 0-.73.15-.9.45-.12.2-.17.61-.17 1.28V34h-.27l-6.66-9.5v7.26c0 .73.07 1.18.2 1.36.2.24.48.37.88.37h.35v.32h-3.51v-.32h.35c.43 0 .74-.15.91-.46.11-.18.17-.6.17-1.27v-8.21a4.9 4.9 0 0 0-.67-.8 2.24 2.24 0 0 0-.66-.35 2.05 2.05 0 0 0-.66-.08V22Zm-4.34 8.7v-2.37h1.6c.3 0 .5.02.6.06.15.07.26.16.33.27.08.12.14.34.2.65h.17L27.5 28h.5v-.16a.88.88 0 0 1-.54-.2 2.3 2.3 0 0 1-.43-.76L25.06 22h-.14l-2 4.83c-.16.42-.32.7-.46.84-.07.07-.22.13-.46.17V28h1v.16h.2c.25 0 .42.06.52.18.08.09.11.32.11.7v3.9c0 .3-.01.49-.05.58-.03.1-.09.17-.18.21a.8.8 0 0 1-.4.1H23V34h4.5l.5-1.5h-.17c-.19.36-.37.64-.55.82-.14.14-.28.23-.43.28-.15.05-.39.07-.72.07h-.99a.74.74 0 0 1-.32-.05.29.29 0 0 1-.12-.13 1.91 1.91 0 0 1-.04-.49v-1.98h1.28c.25 0 .43.03.55.1.11.05.2.13.25.23.04.09.08.27.12.57h.16v-2.1h-.16c-.02.35-.1.59-.25.72-.11.1-.33.16-.67.16h-1.28Zm-.88-2.7h2v-.16c.22-.01.37-.05.45-.12a.3.3 0 0 0 .12-.24c0-.13-.06-.33-.17-.6l-.34-.84h-2.19l-.38.92c-.1.23-.14.4-.14.51 0 .1.04.17.12.24.08.07.26.11.53.13V28ZM16 34v-.16h.22c.26 0 .43-.08.54-.25.06-.1.1-.31.1-.65v-3.88c0-.37-.04-.6-.13-.7-.11-.13-.28-.2-.5-.2H16V28h2.42c.9 0 1.57.1 2.03.3.47.2.84.55 1.12 1.02.29.48.43 1.03.43 1.65 0 .83-.25 1.53-.76 2.1-.56.62-1.42.93-2.58.93H16Zm1.7-.43c.37.08.68.12.94.12.67 0 1.24-.24 1.69-.72.44-.48.67-1.13.67-1.96 0-.83-.23-1.48-.67-1.96a2.26 2.26 0 0 0-1.73-.71c-.26 0-.56.04-.9.12v5.1Zm7.06-10.22.96 2.37h-1.94l.98-2.37ZM20.75 22l.12 1.95h-.12c-.17-.58-.41-1-.73-1.26-.31-.26-.69-.39-1.13-.39-.37 0-.7.1-1 .3-.3.19-.53.5-.7.92-.17.42-.26.95-.26 1.58 0 .52.08.97.25 1.35.16.38.4.67.72.87.33.2.7.3 1.11.3.36 0 .68-.07.95-.23.28-.16.58-.48.91-.95l.13.08c-.28.51-.6.89-.97 1.12a2.4 2.4 0 0 1-1.33.36c-.92 0-1.63-.35-2.13-1.06A3.1 3.1 0 0 1 16 25.1c0-.57.12-1.1.37-1.58A2.74 2.74 0 0 1 18.83 22c.4 0 .8.1 1.18.3.12.07.2.1.25.1.07 0 .14-.03.2-.08a.67.67 0 0 0 .14-.32h.15Zm-6.15 1.98V22h-.16c-.03.13-.07.22-.12.27a.27.27 0 0 1-.19.06c-.07 0-.19-.04-.35-.1-.36-.16-.7-.23-1.02-.23-.5 0-.93.15-1.26.45a1.38 1.38 0 0 0-.33 1.71c.11.2.28.38.5.54.21.17.58.39 1.1.66l.94.54c.17.13.3.26.38.4.08.15.12.29.12.43 0 .25-.1.47-.32.66-.22.19-.5.28-.88.28-.32 0-.61-.07-.88-.2-.27-.14-.47-.3-.6-.51-.13-.2-.23-.52-.3-.93h-.17V28h.16c.02-.13.05-.22.1-.26.04-.04.1-.07.17-.07.08 0 .26.05.55.14a3.03 3.03 0 0 0 1.07.19c.55 0 1-.16 1.36-.47.35-.32.53-.7.53-1.13 0-.22-.06-.44-.17-.65-.1-.21-.27-.39-.47-.54-.2-.16-.6-.38-1.15-.67a4.92 4.92 0 0 1-1.31-.84.7.7 0 0 1-.2-.48c0-.23.1-.43.3-.61.2-.18.46-.27.77-.27.27 0 .54.06.8.2.25.13.44.3.58.53.14.23.23.53.29.91h.16Z" fill="#63963F"/><path d="M46 35H19.24l4.6-3.35v1.3c0 .28-.02.48-.06.57-.03.1-.09.17-.18.21a.8.8 0 0 1-.4.1H23V34h4.5l.5-1.5h-.17c-.19.36-.37.64-.55.82-.14.14-.28.23-.43.28-.15.05-.39.07-.72.07h-.99a.74.74 0 0 1-.32-.05.29.29 0 0 1-.12-.13 1.92 1.92 0 0 1-.04-.49v-1.95l.04-.03h1.24c.25 0 .43.03.55.1.11.05.2.13.25.23.04.09.08.27.12.57h.16v-2.1h-.16c-.02.35-.1.59-.25.72-.11.1-.33.16-.67.16h-.8l2.2-1.6.05.21h.17l-.02-.36L31 26.44v5.32c0 .66-.06 1.09-.17 1.27-.17.3-.48.46-.91.46h-.35v.32h3.51v-.32h-.35c-.4 0-.69-.13-.88-.37-.13-.18-.2-.63-.2-1.36v-5.8l.68-.5L38.3 34h.27v-9.95c0-.67.05-1.09.16-1.28.18-.3.49-.45.91-.45H40V22h-2.93l1.37-1H46a3 3 0 0 1 3 3v8a3 3 0 0 1-3 3ZM33.54 24.58l3.09-2.26h.2c.4 0 .7.12.88.37.14.18.2.63.2 1.36v6.8l-4.37-6.27ZM45 29.4 44.93 28h-4.86L40 29.4h.17c.02-.26.08-.48.19-.64.1-.16.24-.27.4-.32.1-.04.3-.06.58-.06h.72v4.58c0 .34-.03.55-.1.65-.1.15-.28.23-.53.23h-.21V34h2.52v-.16h-.2c-.23 0-.4-.07-.52-.19-.08-.1-.12-.32-.12-.69v-4.58h.84c.25 0 .45.04.6.12.15.08.27.2.36.38.06.1.1.28.13.53H45Z" fill="#0065A0"/></svg>