<!-- by TradingView --><svg width="56" height="56" viewBox="0 0 56 56" xmlns="http://www.w3.org/2000/svg"><path fill="#F0F3FA" d="M0 0h56v56H0z"/><path d="M15.3 38H11l2.7-10h-1.62l1.07-3h1.62c1.61-5 4.85-7 7-7A4 4 0 0 1 25 19.67L24.46 23c-.18-.56-.86-1.67-2.15-1.67-1.3 0-2.7 2.56-3.23 3.67h2.15l-1.08 3H18l-2.7 10ZM42.5 21l.46-3h-3.1c-.5 2.16-1.23 5-1.86 7.5 1.78-1.89 3-3 4.5-4.5ZM36.78 30.34l-.55 2.1c-1 3.78 1.55 5.56 3.1 5.56 1.25 0 2.94-.74 3.63-1.11L44 32.44a3.83 3.83 0 0 1-2.6 1.12c-1.23 0-1.2-2.23-1.03-3.34L41.5 25c-1.26 1.86-2.77 3.38-4.72 5.34ZM35 28.32c-.27-2.23-1.35-3.65-3.25-3.65a5 5 0 0 0-2.49.69L31.22 18h-4.25L22 36.73a48.7 48.7 0 0 0 5.24-2.76l-.17-.34 1.34-5.07c.57-.3 1.23-.56 1.75-.56 1.06 0 1.06 1.11.53 3.33l-.12.45A59.7 59.7 0 0 0 35 28.32ZM24.71 38h1.2l.14-.54c-.45.2-.9.37-1.34.54ZM26.72 37.17c.47.5 1.08.83 1.84.83 2.43 0 5.31-2.33 6.19-5.71a35.17 35.17 0 0 1-8.02 4.88Z" fill="#017CC2"/><path d="M13.17 40C28.62 37.4 40.83 24.47 45 18.33c-1.04 2.71-4.9 9.43-12 14.63-7.1 5.2-16.17 6.86-19.83 7.04ZM26 19.5c-.51.3-.88.85-.88.85l.38-.94c-.14-.22-.68-.63-1-.91 6.37-3.52 13.24-4.35 16.33-4.5-4 .67-7.77 2.03-11.25 3.8h-2.74L26 19.5ZM20.6 23.16c-.26.3-.5.64-.7.97.82-.66 1.67-1.31 2.54-1.95a1.51 1.51 0 0 0-.4-.05c-.17 0-.38.07-.65.26-.26.18-.53.45-.79.77ZM12.23 31.53l.66-2.45A29.82 29.82 0 0 0 9 35.67c.8-1.17 1.88-2.6 3.23-4.14Z" fill="#8BC824"/></svg>