<!-- by TradingView --><svg width="56" height="56" viewBox="0 0 56 56" xmlns="http://www.w3.org/2000/svg"><path fill="#F0F3FA" d="M0 0h56v56H0z"/><path fill="#F7B700" d="M13 16h2v24h-2zM41 16h2v24h-2zM16 13h24v2H16zM16 41h24v2H16z"/><path fill-rule="evenodd" d="M29.56 18.72c-.1.14-.16.12-.18-.04-.04-.24.08-.47.2-.72.2-.37.4-.77.05-1.21-.24-.3-.54-.55-.9-.72a.33.33 0 0 0-.47.33c.04.37 0 .52-.26.82-.42.46-.72.96-.92 1.5-.02.06-.07.08-.13.05-.09-.03-.12-.11-.11-.24.01-.2.05-.5.1-.9.07-.52-.1-.72-.48-.98a1.79 1.79 0 0 0-1.13-.31c-.07 0-.1.04-.1.1l.1.84c0 .02 0 .04-.02.05-.1.27-.23.53-.38.8a3.17 3.17 0 0 0-.18 1.26.06.06 0 0 1-.08.02.32.32 0 0 1-.16-.21L24.2 18c-.22-.71-1.12-.85-1.74-.7a.23.23 0 0 0-.17.25c0 .03.01.07.03.1l.04.06c.14.23.28.46.23.8-.04.37-.1.73-.16 1.1-.04.24.01.38.07.54l.08.25c.04.18-.01.2-.14.08-.2-.18-.32-.44-.45-.7-.15-.3-.3-.61-.58-.84a.26.26 0 0 0-.2-.06l-1.2.13c-.07 0-.1.04-.12.12-.02.23.02.41.12.55.22.3.32.45.33.88.01.55.16 1.03.44 1.45.11.16.08.21-.11.15a190.23 190.23 0 0 1-1.04-.99.77.77 0 0 0-.88-.18c-.3.11-.57.26-.8.43a.38.38 0 0 0-.14.36c.01.06.04.12.09.16.04.05.1.08.17.09.06 0 .16.05.3.14.05.02.08.07.1.12a5.79 5.79 0 0 0 1 1.85c.01.02.02.05.01.07 0 .03-.01.05-.03.07a.15.15 0 0 1-.05.04c-.03.02-.09 0-.17-.05-.22-.13-.53-.35-.93-.66-.23-.18-.48-.23-.74-.11a3.7 3.7 0 0 0-.88.6c-.1.1-.12.27-.07.55.01.06.05.1.12.1.36.04.62.18.77.42.33.52.67.9 1.01 1.13.36.24.32.35-.1.34-.13 0-.27-.1-.43-.18-.18-.1-.38-.22-.56-.23a.97.97 0 0 0-.87.35 14 14 0 0 1-.11.13c-.24.27-.4.46-.45.8a.2.2 0 0 0 .22.22c.43-.07.77.07 1.08.39.37.38.8.65 1.29.8.05.02.07.06.04.11l-.03.05c-.04.07-.1.1-.17.08a5.6 5.6 0 0 0-.8-.12c-.35-.03-.59.01-.73.13a1.79 1.79 0 0 0-.62 1.52.11.11 0 0 0 .12.06l.77-.08c.06 0 .13 0 .18.04.32.18.76.36 1.3.55a.7.7 0 0 0 .26.03h.13c.28.03.3.1.05.23-.23.11-.47.18-.73.2-.26.02-.42.06-.5.1-.6.34-.7 1.1-.58 1.76.01.1.07.14.17.13.22-.02.46-.11.7-.27a.3.3 0 0 1 .17-.06c.25.01.52.07.8.17.18.07.6.02 1.24-.14.08-.02.11.01.1.09 0 .1-.07.19-.21.25-.59.28-1 .55-1.25.82a.32.32 0 0 0-.09.17c-.07.4-.04.81.09 1.21.02.07.06.1.13.12.27.05.52-.03.75-.25l.16-.1c.19-.05.4-.06.61-.06.22 0 .44-.02.6-.08.23-.1.42-.18.57-.28.42-.24.48-.17.2.22-.1.13-.33.36-.7.68-.34.3-.47.54-.34.99.08.27.21.51.4.74a.37.37 0 0 0 .6-.04c.24-.41.7-.56 1.2-.72.22-.07.38-.15.49-.25l.48-.43c.02-.03.05-.02.06.02l.05.14a.16.16 0 0 1-.02.15c-.4.53-.64.89-.73 1.08-.24.5.3 1.13.66 1.44a.33.33 0 0 0 .42 0 .32.32 0 0 0 .1-.11 4 4 0 0 0 .06-.16c.08-.19.15-.35.35-.5l.9-.68c.08-.06.25-.27.5-.65a.06.06 0 0 1 .05-.02h.05c.04.02.06.05.05.1-.03.2-.13.51-.3.93-.19.44-.21.7.07 1.08.33.43.7.66 1.15.69.09 0 .13-.04.13-.12v-.54c0-.07.02-.14.06-.2.16-.26.41-.6.76-1 .13-.14.2-.32.27-.48l.09-.2c.11-.23.18-.22.2.03.02.31 0 .66-.06 1.04-.04.28.06.53.32.74.37.29.77.46 1.21.5a.2.2 0 0 0 .23-.25c-.1-.36-.16-.73.04-1.1.27-.48.41-1 .43-1.53.01-.24.07-.25.19-.05.07.14.16.3.17.45.04 1.07.66 1.57 1.84 1.5a.21.21 0 0 0 .2-.2.2.2 0 0 0-.02-.09l-.27-.78a.3.3 0 0 1 0-.19c.18-.59.22-1.18.12-1.77-.04-.27.02-.3.18-.08.1.14.18.3.27.48.13.3.28.6.55.83.4.33 1.09.15 1.52-.02a.27.27 0 0 0 .1-.41l-.34-.48c-.06-.09-.1-.27-.1-.53-.01-.57-.18-1.09-.52-1.57a.1.1 0 0 1 .02-.15c.04-.03.1-.03.15.01.24.17.55.47.92.9.03.04.14.12.3.24.39.26 1.21-.13 1.43-.35.15-.14.2-.29.13-.45-.03-.09-.12-.18-.29-.27-.23-.14-.37-.26-.4-.36a4.77 4.77 0 0 0-.93-1.75c-.01-.1.05-.12.19-.1l.03.02 1.16.8c.45.33 1.25-.4 1.54-.73a.3.3 0 0 0-.2-.5c-.36-.06-.65-.29-.86-.68a3.21 3.21 0 0 0-1.2-1.08.1.1 0 0 1-.04-.11.1.1 0 0 1 .1-.08h.15c.1 0 .19.03.28.07.58.27.9.41.96.42.6.11 1.16-.7 1.39-1.15a.3.3 0 0 0-.13-.4.3.3 0 0 0-.14-.04h-.51a.26.26 0 0 1-.19-.07 5.33 5.33 0 0 0-1.62-1.12c-.08-.03-.08-.08 0-.14l.06-.05c.05-.05.12-.06.2-.03.5.17 1.07.32 1.53-.08.37-.32.55-.77.54-1.33a.18.18 0 0 0-.2-.18l-.76.08c-.06 0-.12 0-.17-.04a3.5 3.5 0 0 0-1.83-.53c-.1 0-.11-.04-.06-.11.16-.22.48-.26.8-.3.2-.03.38-.05.53-.11.72-.3.71-1 .67-1.72a.24.24 0 0 0-.13-.2.26.26 0 0 0-.25 0l-.58.31a.23.23 0 0 1-.2.02 2.67 2.67 0 0 0-1.94 0c-.07.03-.1 0-.1-.07v-.07a.21.21 0 0 1 .11-.19l.96-.49c.62-.3.58-.73.52-1.36l-.02-.2c-.03-.33-.22-.45-.56-.36a.22.22 0 0 0-.08.03l-.5.37a.11.11 0 0 1-.06.02c-.76 0-1.3.11-1.64.32-.5.32-.57.24-.21-.24.08-.11.22-.23.37-.36.21-.17.44-.37.6-.62.23-.35-.22-1.19-.4-1.44a.29.29 0 0 0-.49.03l-.23.41c-.04.06-.1.1-.17.12a3.08 3.08 0 0 0-1.86 1.05.07.07 0 0 1-.09-.05l-.05-.15v-.03l.01-.03c.36-.56.6-.9.7-1.03.43-.56-.22-1.3-.6-1.65a.32.32 0 0 0-.52.15c-.08.3-.18.56-.47.74-.5.32-.92.72-1.25 1.18ZM28 36a8 8 0 1 0 0-16 8 8 0 0 0 0 16Z" fill="#E77514"/><circle cx="28" cy="28" r="2" fill="#101216"/></svg>