<!-- by TradingView --><svg width="56" height="56" viewBox="0 0 56 56" xmlns="http://www.w3.org/2000/svg"><path fill="#F0F3FA" d="M0 0h56v56H0z"/><path d="M40 35.05c-.54.19-1.64.87-1.64 1.48 0 .42.18.84.64.84.38 0 1-.24 1-.68v-1.64Zm-2.5 1.84c0-1.26 1.55-1.72 2.5-2.1v-.45c0-.56.1-1.08-.58-1.08-.3 0-.69.17-.69.52l.03.21.02.19c0 .3-.16.47-.42.47-.27 0-.36-.31-.36-.58 0-.8.9-1.07 1.55-1.07 1.07 0 1.45.75 1.45 1.7v2.08c0 .2.01.34.04.42.04.13.13.2.26.2.18 0 .3-.11.43-.22v.27c-.26.34-.57.53-.88.53a.86.86 0 0 1-.84-.77c-.4.37-.91.79-1.49.79-.6 0-1.02-.54-1.02-1.11ZM31.17 33c.43 0 .68.08.83.28v-1.17c0-.33.02-.53-.37-.53h-.1l-.22.03v-.17c.55-.12 1.13-.25 1.66-.44l.03.01v5.73c0 .2.03.36.09.44.05.09.17.13.41.13l.24-.01v.16l-1.7.54-.04-.04v-.4c-.4.42-.55.44-.96.44C29.5 38 29 36.53 29 35.36c0-1.34.8-2.36 2.17-2.36Zm.36 4.47c.38 0 .47-.2.47-.66v-2.36c0-.65-.12-1.17-.8-1.17-1 0-1.2.72-1.2 2.1 0 .98.46 2.09 1.53 2.09ZM26.28 33c1.05 0 1.72.96 1.72 2h-3c.04 1 .13 2.17 1.32 2.17.7 0 1.17-.42 1.51-1.02l.17.07c-.29.95-1.1 1.78-2.09 1.78-1.26 0-1.91-1.25-1.91-2.44 0-1.26.97-2.56 2.28-2.56Zm-.28.38c-.57 0-.87.47-1 1.29h1.98c-.06-.63-.27-1.3-.98-1.3ZM14 37.78c1-.1 1-.6 1-1.56v-4.9c0-.83-.18-1.06-.97-1.1V30h2.32L19 36.5l2.9-6.5H24v.22c-.76.06-1 .32-1 1.1v5.37c0 .79.23 1.02 1 1.1V38h-3.06v-.22c.87-.07 1.06-.37 1.06-1.23v-5.43L18.77 38h-.16l-3.1-7v5.22c0 .92.3 1.46 1.25 1.56V38H14v-.22ZM43 22h2.24v.18c-.24 0-.64.03-.64.35 0 .1.03.19.12.42L45.96 26l1-3.06c.04-.13.09-.3.09-.43 0-.29-.3-.3-.5-.32V22H48v.18c-.29.04-.4.22-.51.54l-1.67 4.88a7.79 7.79 0 0 1-.84 1.83c-.26.38-.76.57-1.16.57-.42 0-.82-.24-.82-.68 0-.32.23-.54.55-.54.28 0 .68.23.96.23.52 0 .96-1.37.96-1.78l-.02-.13a.99.99 0 0 0-.04-.14l-1.7-4.05a1.87 1.87 0 0 0-.31-.56.67.67 0 0 0-.4-.19V22ZM42 21.58V22h-.99v3.3c0 .41-.1 1.07.52 1.07.26 0 .43-.13.67-.42l.15.13c-.33.47-.73.92-1.34.92-.85 0-1.01-.85-1.01-1.53V22h-.6a.23.23 0 0 1-.04-.03.09.09 0 0 1-.01-.05c0-.04 0-.07.02-.09l.16-.15c.25-.22.43-.4.54-.53.12-.14.38-.56.8-1.15 0 0 .14 0 .14.1v1.48H42ZM33.32 22c.42 0 .92.11 1.22.34.3.22.46.46.46.73 0 .27-.2.47-.47.47-.7 0-.54-1.24-1.37-1.24-.97 0-1.16 1.08-1.16 1.9 0 .93.35 2.03 1.4 2.03.68 0 1.11-.48 1.46-1l.14.09c-.38.82-1 1.68-2.01 1.68-1.27 0-1.99-1.23-1.99-2.38 0-1.32.91-2.62 2.32-2.62ZM22 26.86c.51-.04 1-.18 1-.76v-2.76c0-.26-.04-.44-.12-.52-.07-.08-.2-.12-.37-.12l-.18.01c-.04 0-.28.02-.33.04v-.19c.53-.16 2-.56 2-.56v.85c.53-.45 1.05-.85 1.78-.85.62 0 .91.36 1.11.92.52-.48.94-.92 1.69-.92 1.18 0 1.42.96 1.42 1.95v2.22c0 .53.36.65.84.7V27h-2.66v-.15c.54-.05.82-.2.82-.77v-2.3c0-.66-.16-1.2-.91-1.2-.51 0-.74.32-1.09.65v2.73c0 .6.2.88.8.9V27h-2.65v-.14c.74-.09.85-.42.85-1.14v-1.5c0-.68 0-1.65-.73-1.65-.5 0-.94.29-1.27.65v2.92c0 .56.3.72.8.72V27H22v-.14Z"/><path d="M19.03 26.84c.59-.05.97-.2.97-.85v-5.57c0-.4-.07-.75-.56-.75l-.19.01-.25.06v-.2c.55-.13 1.16-.31 1.94-.54.03 0 .04.01.05.03l.01.15v6.83c0 .66.4.79 1 .83V27h-2.97v-.16ZM16 26.85c.44-.03.71-.1.83-.19.11-.1.17-.35.17-.77v-2.53c0-.23-.02-.39-.06-.48-.06-.14-.18-.22-.38-.22l-.13.01-.43.09v-.16a15.47 15.47 0 0 0 1.99-.6l.01.08v3.81c0 .4.12.66.23.76.11.1.37.17.77.2V27h-3v-.15ZM36 26.85c.44-.03.71-.1.83-.19.11-.1.17-.35.17-.77v-2.53c0-.23-.02-.39-.06-.48-.06-.14-.18-.22-.38-.22l-.13.01-.43.09v-.16a15.47 15.47 0 0 0 1.99-.6l.01.08v3.81c0 .4.12.66.23.76.11.1.37.17.77.2V27h-3v-.15ZM34 37.85c.44-.03.71-.1.83-.19.11-.1.17-.35.17-.77v-2.53c0-.23-.02-.39-.06-.48-.06-.14-.18-.22-.38-.22l-.13.01-.43.09v-.16a15.47 15.47 0 0 0 1.99-.6l.01.08v3.81c0 .4.12.66.23.76.11.1.37.17.77.2V38h-3v-.15ZM9 26.78c.85-.1 1-.4 1-1.23V20.3c0-.43-.06-.7-.18-.84-.12-.13-.4-.21-.82-.25V19h5.96l.04 1.74h-.31c-.08-.56-.22-.9-.43-1.06-.21-.14-.63-.22-1.25-.22h-1.66c-.15 0-.25.03-.29.08-.04.06-.06.17-.06.33v2.65h1.5c.87 0 1.1-.35 1.24-1.16H14v2.8h-.26c-.15-.8-.38-1.16-1.23-1.16H11v2.69c0 .78.24 1.03 1.01 1.1V27H9v-.22ZM17.14 20.15c-.1.1-.14.22-.14.35a.49.49 0 0 0 .5.5c.14 0 .25-.05.35-.14.1-.1.15-.22.15-.36a.47.47 0 0 0-.15-.35.47.47 0 0 0-.35-.15.48.48 0 0 0-.36.15ZM37.14 20.15c-.1.1-.14.22-.14.35a.49.49 0 0 0 .5.5c.14 0 .25-.05.35-.14.1-.1.15-.22.15-.36a.47.47 0 0 0-.15-.35.47.47 0 0 0-.35-.15.48.48 0 0 0-.36.15ZM35.14 31.15c-.1.1-.14.22-.14.35a.49.49 0 0 0 .5.5c.14 0 .25-.05.35-.14.1-.1.15-.22.15-.36a.47.47 0 0 0-.15-.35.47.47 0 0 0-.35-.15.48.48 0 0 0-.36.15Z"/></svg>