<!-- by TradingView --><svg width="56" height="56" viewBox="0 0 56 56" xmlns="http://www.w3.org/2000/svg"><path fill="#F0F3FA" d="M0 0h56v56H0z"/><path d="M19 22H4v12h15V22Zm-7.5.97.08.03c3.55.03 6.42 2.26 6.42 5 0 2.75-2.89 4.98-6.46 5l-.08.01-.04-.01C7.87 32.97 5 30.74 5 28s2.87-4.97 6.42-5l.08-.03ZM7.88 25c.45-.3.97-.53 1.55-.7-.2.2-.39.44-.56.7h-1Zm-1.84 2.5c.1-.53.33-1.04.7-1.5h1.61c-.17.45-.29.94-.33 1.5H6.04Zm.7 2.5a3.31 3.31 0 0 1-.7-1.5h1.99c.04.44.15.97.35 1.5H6.75Zm2.65 1.69A6.11 6.11 0 0 1 7.88 31h1c.14.24.31.47.5.69Zm5.73-.69c-.38.25-.81.45-1.28.62.15-.19.3-.4.43-.62h.85Zm1.84-2.5c-.1.53-.33 1.04-.7 1.5H14.7c.14-.44.24-.94.27-1.5h1.98Zm-.7-2.5c.37.46.6.97.7 1.5h-1.98a5.43 5.43 0 0 0-.33-1.5h1.6Zm-2.13-1h.99c-.45-.3-.97-.53-1.55-.7.2.2.39.44.56.7Zm-4.68 1c-.21.43-.37.92-.43 1.5H11V26H9.45ZM11 25h-.86c.28-.3.58-.53.86-.7v.7Zm1 1v1.5h1.98a4.34 4.34 0 0 0-.43-1.5H12Zm.86-1H12v-.7c.28.17.58.4.86.7Zm1.12 3.5H12V30h1.65c.17-.42.29-.91.33-1.5Zm-.93 2.5H12v.82c.34-.16.71-.42 1.05-.82Zm-2.05.73V31h-.89c.25.28.54.53.89.73ZM9.47 30H11v-1.5H9.03c.06.44.2.97.44 1.5Z" fill="#3596D2"/><path d="M16 24c-1 0-3.4.3-5 1.5s-1.67 3.83-1.5 5L16 24Z" fill="#A8CF38"/><path d="M9.5 30.5c1 0 3.4-.3 5-1.5s1.67-3.83 1.5-5l-6.5 6.5Z" fill="#83C15A"/><path fill-rule="evenodd" d="M52 22H19v12h33V22Zm-32 1h6v1h-5v8h-1v-9Zm2 2h4v1h-3v1h3v1h-4v-3Zm0 4h4v1h-3v2h-1v-3Zm5-6h1v8h6v1h-7v-9Zm3 0h-1v7h5v-1h-4v-6Zm11 0h-6v9h6v-1h-5v-7h5v-1Zm0 2h-4v2.5h4v-1h-3V26h3v-1Zm0 3h-4v2.5h4v-1h-3V29h3v-1Zm2.14 4H42l3-4.5-3-4.5h1.14l2.77 4.5-2.77 4.5Zm5.54-9-2.18 3.55L44.32 23h1.18l1 2 1-2h1.18Zm1.18 0-2.77 4.5 2.77 4.5H51l-3-4.5 3-4.5h-1.14Zm-3.36 5.45L48.68 32H47.5l-1-2-1 2h-1.18l2.18-3.55Z" fill="#F01823"/></svg>