<!-- by TradingView --><svg width="56" height="56" viewBox="0 0 56 56" xmlns="http://www.w3.org/2000/svg"><path fill="#F0F3FA" d="M0 0h56v56H0z"/><path d="M8.2 23h.6v2.02c.47.06.9.24 1.24.51l1.43-1.43.43.43-1.43 1.43c.27.35.46.77.51 1.24h2.03v.6h-2.03c-.05.46-.24.89-.5 1.24l1.42 1.43-.43.43-1.43-1.43c-.35.27-.77.45-1.23.51V32h-.6v-2.02a2.49 2.49 0 0 1-1.25-.51L5.53 30.9l-.43-.43 1.43-1.43a2.49 2.49 0 0 1-.51-1.24H4v-.6h2.02c.05-.47.24-.9.51-1.24L5.1 24.53l.43-.43 1.43 1.43c.35-.27.78-.46 1.24-.51V23ZM47.5 27v-1h4v1H50v3h-1v-3h-1.5ZM45.14 30H44l1.28-4h1.44L48 30h-1.14l-.84-2.9h-.04l-.84 2.9Zm-.22-2h2.14v1h-2.14v-1ZM38 26h1.47l1 2.27h.06l1-2.27H43v4h-1v-2.5l-1.15 2.47h-.7L39 27.48V30h-1v-4ZM37 28c0 1.17-.83 2-2 2s-2-.83-2-2 .83-2 2-2 2 .83 2 2Zm-1 0c0-.55-.38-1-1-1s-1 .45-1 1 .38 1 1 1 1-.45 1-1ZM29.74 30H28v-4h1.73c1.21 0 2.27.7 2.27 2s-1.04 2-2.26 2ZM29 29h.94c.7 0 1.06-.3 1.06-1 0-.83-.38-1-1.1-1H29v2ZM27 26v4h-1v-4h1ZM24 26h1v2.53c0 .87-.64 1.47-1.5 1.47s-1.5-.6-1.5-1.47V26h1v2.37c0 .32.15.63.5.63s.5-.3.5-.63V26ZM18 30v-4h1v3h2v1h-3ZM14 30v-4h3v1h-2v.5h1.82v1H15V30h-1Z" fill="#017CC0"/></svg>