<!-- by TradingView --><svg width="56" height="56" viewBox="0 0 56 56" xmlns="http://www.w3.org/2000/svg"><path fill="#F0F3FA" d="M0 0h56v56H0z"/><path d="M49 25v2.5h3v1h-3V31h3v1h-4v-8h4v1h-3ZM46 32l-5-5.5V32h-1v-8l5 5.5V24h1v8ZM33 24v5.01c0 1.23.72 1.99 2 1.99 1.25 0 2-.77 2-1.99V24h1v5c0 1.78-1.23 3-3 3-1.8 0-3-1.22-3-3v-5h1ZM31 24v1h-2.5v7h-1v-7H25v-1h6ZM22.86 32l-1.75-3H20v3h-1v-8h2.36c1.42 0 2.64 1.03 2.64 2.5a2.5 2.5 0 0 1-1.84 2.42L24 32h-1.14ZM20 28h1.36c.94 0 1.64-.55 1.64-1.5 0-.94-.58-1.5-1.64-1.5H20v3ZM14 32c-2.25 0-4-1.76-4-4s1.76-4 4-4c2.25 0 4 1.75 4 4s-1.75 4-4 4Zm0-1c1.75 0 3-1.3 3-3s-1.24-3-3-3-3 1.3-3 3 1.24 3 3 3ZM9 24v1H5v2.5h3v1H5V32H4v-8h5Z"/></svg>