<!-- by TradingView --><svg width="56" height="56" viewBox="0 0 56 56" xmlns="http://www.w3.org/2000/svg"><path fill="#F0F3FA" d="M0 0h56v56H0z"/><path d="M23.9 22.5c0-5.6 5.26-11.33 7.89-13.5-4.74 2-11.05 8.8-11.05 14 0 5.2 3.86 10.83 5.79 13a40.58 40.58 0 0 1-2.63-13.5Z" fill="#C53333"/><path d="M28.1 20c0-3.6 2.81-6.83 4.22-8-1.76 1.17-5.48 4.6-6.32 9-1.05 5.5 1.05 10 1.58 15 .42 4-1.58 9-2.63 11 1.93-1.83 5.79-6.7 5.79-11.5 0-6-2.63-11-2.63-15.5Z" fill="#002E6E"/><path d="M31.79 21c0 2.5-10.7 6.66-15.79 7.87 6.32 1.04 17.9-4.63 17.9-7.8C33.9 19 30.73 19 29.67 19c1.06.52 2.11.5 2.11 2Z" fill="#C53333"/><path d="M33.9 26.5c0 2.43-10.7 6.16-15.8 7.37 6.32 1.04 17.9-4.63 17.9-7.8C36 24 32.84 24 31.79 24c1.05.52 2.1.5 2.1 2.5Z" fill="#C53333"/></svg>