<!-- by TradingView --><svg width="56" height="56" viewBox="0 0 56 56" xmlns="http://www.w3.org/2000/svg"><path fill="#F0F3FA" d="M0 0h56v56H0z"/><path d="M5 22c0-1.1.9-2 2-2h10a2 2 0 1 1 0 4H7a2 2 0 0 1-2-2ZM5 28c0-1.1.9-2 2-2h10a2 2 0 1 1 0 4H7a2 2 0 0 1-2-2ZM40 36a2 2 0 0 1-2-2V22a2 2 0 1 1 4 0v12a2 2 0 0 1-2 2ZM5 34c0-1.1.9-2 2-2h2a2 2 0 1 1 0 4H7a2 2 0 0 1-2-2ZM44 34c0-1.1.9-2 2-2h3a2 2 0 1 1 0 4h-3a2 2 0 0 1-2-2ZM22.58 20.78c.83-.6 1.77-.78 2.42-.78h7a2 2 0 1 1 0 4h-7v7c0 .54.12.76.16.81.01.02.04.05.13.09.1.04.31.1.71.1h6a2 2 0 1 1 0 4h-6a4.85 4.85 0 0 1-3.96-1.69A5.24 5.24 0 0 1 21 31v-7c0-1.45.65-2.55 1.58-3.22Z" fill="#02315B"/></svg>