<!-- by TradingView --><svg width="56" height="56" viewBox="0 0 56 56" xmlns="http://www.w3.org/2000/svg"><path fill="#0C2A3F" d="M0 0h56v56H0z"/><path d="m47.8 22 .1 1.63h-.1a2.08 2.08 0 0 0-.58-1.06 1.35 1.35 0 0 0-.9-.32c-.3 0-.57.09-.8.25-.24.16-.43.41-.57.77-.14.35-.2.79-.2 1.31 0 .43.06.8.19 1.13.13.31.32.56.58.73.26.17.56.25.89.25.29 0 .54-.07.76-.2.22-.13.46-.4.73-.8l.1.08c-.22.42-.48.74-.78.93-.3.2-.65.3-1.06.3-.73 0-1.3-.3-1.7-.88a2.91 2.91 0 0 1-.15-2.86A2.1 2.1 0 0 1 46.26 22c.31 0 .63.08.94.25.1.06.16.08.2.08a.2.2 0 0 0 .15-.07c.06-.06.1-.15.12-.26h.12ZM43.5 26.86V27h-2v-.14h.17c.19 0 .33-.06.42-.18.05-.08.08-.27.08-.57V22.9c0-.26-.02-.43-.05-.5a.32.32 0 0 0-.14-.17.62.62 0 0 0-.31-.08h-.17V22h2v.14h-.17c-.19 0-.33.06-.42.18-.05.08-.08.27-.08.57v3.22c0 .26.01.43.04.5s.07.12.15.17c.1.05.2.08.31.08h.17ZM41 22v1.17h-.13c-.03-.2-.06-.35-.1-.44a.71.71 0 0 0-.3-.31.95.95 0 0 0-.48-.1h-.67v3.81c0 .31.03.5.1.58.09.1.22.15.41.15h.16V27h-2.02v-.14h.17c.2 0 .35-.06.43-.19.05-.08.08-.26.08-.54v-3.82h-.57c-.23 0-.39.02-.48.05a.66.66 0 0 0-.31.27c-.09.14-.14.32-.16.54H37V22h4ZM36.2 22v1.65h-.12a2.12 2.12 0 0 0-.22-.75c-.1-.2-.25-.34-.44-.45-.19-.11-.39-.17-.6-.17a.78.78 0 0 0-.56.23.7.7 0 0 0-.23.5c0 .15.05.28.14.4.14.18.47.42.98.7.43.25.71.43.87.56a1.29 1.29 0 0 1 .08 1.94c-.26.26-.6.39-1.02.39a2.05 2.05 0 0 1-.8-.16 1.79 1.79 0 0 0-.41-.11c-.06 0-.1.02-.13.05-.03.04-.06.11-.07.22h-.13v-1.64h.13c.05.34.13.6.23.77.1.17.25.31.45.43.2.1.42.17.66.17a.9.9 0 0 0 .65-.24.74.74 0 0 0 .15-.9 1.02 1.02 0 0 0-.28-.34 7.96 7.96 0 0 0-.7-.45 7.1 7.1 0 0 1-.83-.55 1.47 1.47 0 0 1-.37-.45 1.17 1.17 0 0 1-.13-.54c0-.34.12-.64.37-.89s.57-.37.95-.37c.24 0 .5.06.76.19.13.06.22.08.27.08.06 0 .1-.01.14-.05.03-.04.06-.11.09-.22h.12ZM33 26.86V27h-2v-.14h.17c.19 0 .33-.06.42-.18.05-.08.08-.27.08-.57V22.9c0-.26-.02-.43-.05-.5a.32.32 0 0 0-.14-.17.62.62 0 0 0-.31-.08H31V22h2v.14h-.17c-.19 0-.33.06-.42.18-.05.08-.08.27-.08.57v3.22c0 .26.01.43.04.5s.07.12.15.17c.1.05.2.08.31.08H33ZM30.5 27h-1.34l-1.7-2.34-.31.01h-.22v1.44c0 .32.04.52.1.6.1.1.24.15.43.15h.2V27H25.5v-.14h.19c.21 0 .36-.07.45-.2.06-.08.08-.26.08-.55V22.9c0-.32-.03-.52-.1-.6-.1-.1-.24-.15-.43-.15h-.19V22h1.83c.53 0 .93.04 1.18.12.25.07.47.22.64.43.18.2.27.45.27.74 0 .3-.1.57-.3.8-.2.22-.51.38-.94.48L29.22 26c.24.33.44.55.61.66.17.1.4.17.67.2V27Zm-3.57-2.57h.21c.48 0 .84-.1 1.08-.3.25-.21.37-.48.37-.8 0-.3-.1-.56-.3-.75-.2-.2-.45-.3-.78-.3-.14 0-.33.02-.58.07v2.08ZM23.34 22.13V22H25v.13h-.18a.47.47 0 0 0-.42.24c-.05.08-.07.25-.07.52v1.98c0 .5-.05.88-.15 1.15-.09.27-.27.5-.55.7-.27.18-.64.28-1.1.28-.52 0-.9-.1-1.17-.28a1.5 1.5 0 0 1-.57-.74 4.3 4.3 0 0 1-.1-1.2v-1.92c0-.3-.05-.5-.13-.59-.08-.09-.2-.14-.38-.14H20V22h2.03v.13h-.18c-.2 0-.34.07-.42.2-.06.08-.08.26-.08.53V25c0 .2.01.41.04.66.04.24.1.43.19.57a1 1 0 0 0 .37.34c.17.09.37.13.61.13.3 0 .58-.07.83-.2.24-.15.4-.33.49-.54.09-.22.13-.59.13-1.1v-1.99c0-.3-.03-.5-.1-.57-.08-.1-.22-.16-.4-.16h-.17ZM19.5 22v1.17h-.13c-.03-.2-.06-.35-.1-.44a.71.71 0 0 0-.3-.31.95.95 0 0 0-.48-.1h-.67v3.81c0 .31.04.5.1.58.09.1.22.15.4.15h.17V27h-2.02v-.14h.17c.2 0 .35-.06.43-.19.05-.08.08-.26.08-.54v-3.82h-.57c-.23 0-.39.02-.48.05a.66.66 0 0 0-.31.27c-.09.14-.14.32-.16.54h-.13V22h4ZM13.34 22.13V22H15v.13h-.18a.47.47 0 0 0-.42.24c-.05.08-.07.25-.07.52v1.98c0 .5-.05.88-.15 1.15-.09.27-.27.5-.55.7-.27.18-.64.28-1.1.28-.52 0-.9-.1-1.17-.28a1.5 1.5 0 0 1-.57-.74 4.3 4.3 0 0 1-.1-1.2v-1.92c0-.3-.05-.5-.13-.59-.08-.09-.2-.14-.38-.14H10V22h2.03v.13h-.18c-.2 0-.34.07-.42.2-.06.08-.08.26-.08.53V25c0 .2.01.41.04.66.04.24.1.43.19.57a1 1 0 0 0 .37.34c.17.09.37.13.61.13.3 0 .58-.07.83-.2.24-.15.4-.33.49-.54.09-.22.13-.59.13-1.1v-1.99c0-.3-.03-.5-.1-.57-.08-.1-.22-.16-.4-.16h-.17ZM7.32 22.27v1.97h.85c.2 0 .33-.05.42-.14.1-.1.15-.27.18-.55h.13v1.7h-.13c0-.2-.02-.34-.07-.43a.44.44 0 0 0-.18-.2.7.7 0 0 0-.35-.08h-.85v1.57c0 .26.02.43.05.5.02.07.07.12.14.17.1.05.2.08.32.08h.16V27H6v-.14h.16c.2 0 .34-.06.42-.18.06-.08.08-.27.08-.57V22.9c0-.26-.01-.43-.04-.5a.32.32 0 0 0-.14-.17.6.6 0 0 0-.32-.08H6V22h3.46l.04 1.1h-.12c-.06-.23-.13-.4-.2-.51a.67.67 0 0 0-.3-.24c-.11-.05-.3-.08-.53-.08H7.32ZM46.76 29v1.65h-.12a2.09 2.09 0 0 0-.22-.75c-.1-.2-.26-.34-.45-.45-.2-.11-.4-.17-.61-.17a.8.8 0 0 0-.59.23.69.69 0 0 0-.23.5c0 .15.05.28.15.4.14.18.47.42 1 .7.44.25.73.43.89.56a1.3 1.3 0 0 1 .5 1c0 .36-.15.68-.42.94-.27.26-.62.39-1.04.39a2.15 2.15 0 0 1-.82-.16 1.87 1.87 0 0 0-.42-.11c-.06 0-.1.02-.14.05-.03.04-.05.1-.07.22h-.13v-1.64h.13c.06.34.14.6.24.77.1.17.25.31.46.43.2.1.43.16.67.16.29 0 .51-.07.68-.23a.73.73 0 0 0 .15-.9 1.03 1.03 0 0 0-.3-.34 8.16 8.16 0 0 0-.72-.45c-.4-.23-.67-.41-.84-.55-.17-.13-.3-.28-.38-.45a1.15 1.15 0 0 1-.13-.54c0-.34.13-.64.38-.89.26-.25.58-.37.97-.37.25 0 .5.06.78.19.13.06.22.08.27.08a.2.2 0 0 0 .15-.05c.03-.04.07-.11.09-.22h.12ZM40.66 29.27v1.98h1.2c.26 0 .44-.04.53-.13.12-.11.18-.31.2-.6h.13v1.74h-.13c-.03-.24-.07-.4-.1-.46a.44.44 0 0 0-.2-.2.98.98 0 0 0-.44-.08h-1.19v1.65c0 .34.17.56.55.56h.8a2 2 0 0 0 .57-.06.85.85 0 0 0 .35-.23c.14-.16.28-.39.43-.7h.14L43.1 34h-3.6v-.14h.17c.3 0 .33-.36.33-.74v-3.25c0-.4 0-.73-.33-.73h-.17V29h3.6l.05 1.1H43c-.04-.27-.1-.45-.16-.55a.55.55 0 0 0-.26-.22c-.09-.04-.25-.06-.48-.06h-1.45ZM39 33.86V34h-2v-.14h.17c.19 0 .33-.06.42-.18.05-.08.08-.27.08-.56v-3.23c0-.26-.02-.43-.05-.5a.32.32 0 0 0-.14-.17.62.62 0 0 0-.31-.08H37V29h2v.14h-.17c-.19 0-.33.06-.42.18-.05.08-.08.27-.08.57v3.23c0 .25.01.42.04.5.03.06.07.11.15.16.1.05.2.08.31.08H39ZM36.5 29v1.17h-.13c-.03-.2-.06-.35-.1-.44a.71.71 0 0 0-.3-.31.95.95 0 0 0-.48-.1h-.67v3.81c0 .31.03.5.1.58.09.1.22.15.41.15h.16V34h-2.02v-.14h.17c.2 0 .35-.06.43-.19.05-.08.08-.26.08-.54v-3.82h-.57c-.23 0-.39.02-.48.05a.66.66 0 0 0-.31.27c-.09.14-.14.32-.16.54h-.13V29h4ZM32 33.86V34h-2v-.14h.17c.19 0 .33-.06.42-.18.05-.08.08-.27.08-.56v-3.23c0-.26-.02-.43-.05-.5a.32.32 0 0 0-.14-.17.62.62 0 0 0-.31-.08H30V29h2v.14h-.17c-.19 0-.33.06-.42.18-.05.08-.08.27-.08.57v3.23c0 .25.01.42.04.5.03.06.07.11.15.16.1.05.2.08.31.08H32ZM29.5 34h-1.34l-1.7-2.34H26v1.46c0 .39 0 .74.46.74h.2V34H24.5v-.14h.19c.47 0 .6-.35.6-.74v-3.23c0-.4-.13-.75-.6-.75h-.19V29h1.83c.53 0 .93.04 1.18.12.25.07.47.22.64.43.18.2.27.45.27.74 0 .3-.1.57-.3.8-.2.22-.51.38-.94.48L28.22 33c.24.33.44.55.61.66.17.1.4.17.67.2V34ZM26 31.43c.45 0 .86 0 1.22-.3.25-.21.37-.48.37-.8 0-.3-.1-.56-.3-.75-.2-.2-.45-.3-.78-.3-.14 0-.27.02-.51.07v2.08ZM22.34 29.13V29H24v.13h-.18a.47.47 0 0 0-.42.24c-.05.08-.07.25-.07.52v1.98c0 .5-.05.88-.15 1.15-.09.27-.27.5-.55.7-.27.18-.64.28-1.1.28-.52 0-.9-.1-1.17-.28a1.5 1.5 0 0 1-.57-.74 4.3 4.3 0 0 1-.1-1.2v-1.92c0-.3-.05-.5-.13-.59-.08-.09-.2-.14-.38-.14H19V29h2.03v.13h-.18c-.2 0-.34.07-.42.2-.06.08-.08.26-.08.53V32c0 .2.01.41.04.66.04.24.1.43.19.57a1 1 0 0 0 .37.34c.17.09.37.13.61.13.3 0 .58-.07.83-.2.24-.15.4-.33.49-.54.09-.22.13-.59.13-1.1v-1.99c0-.3-.03-.5-.1-.57-.08-.1-.22-.16-.4-.16h-.17ZM18.3 29l.1 1.63h-.1a2.08 2.08 0 0 0-.58-1.06 1.35 1.35 0 0 0-.9-.32c-.3 0-.57.09-.8.25-.24.16-.43.41-.57.77-.14.35-.2.79-.2 1.31 0 .43.06.8.19 1.13.13.31.32.56.58.73.26.17.56.25.89.25.29 0 .54-.07.76-.2.22-.13.46-.4.73-.8l.1.08c-.22.42-.48.74-.78.93-.3.2-.65.3-1.06.3-.73 0-1.3-.3-1.7-.88a2.91 2.91 0 0 1-.15-2.86A2.1 2.1 0 0 1 16.76 29c.31 0 .63.08.94.25.1.06.16.08.2.08a.2.2 0 0 0 .15-.07c.06-.06.1-.15.12-.26h.12Z" fill="#fff"/><path d="M11.83 29.27v1.98h1.02c.27 0 .45-.04.54-.13.12-.11.18-.31.2-.6h.13v1.74h-.13c-.03-.24-.07-.4-.1-.46a.44.44 0 0 0-.2-.2.98.98 0 0 0-.44-.08h-1.02v1.65c0 .22 0 .35.03.4.01.05.05.09.1.12.04.02.13.04.25.04h.8a2 2 0 0 0 .57-.06.85.85 0 0 0 .35-.23c.14-.16.28-.39.43-.7h.14L14.1 34h-3.6v-.14h.17c.1 0 .21-.02.3-.08a.3.3 0 0 0 .16-.18c.02-.08.04-.24.04-.48v-3.25c0-.32-.03-.51-.1-.59-.07-.1-.21-.14-.4-.14h-.17V29h3.6l.05 1.1H14c-.04-.27-.1-.45-.16-.55a.55.55 0 0 0-.26-.22c-.09-.04-.25-.06-.48-.06h-1.28ZM9.7 29v1.65h-.12a2.12 2.12 0 0 0-.22-.75c-.1-.2-.25-.34-.44-.45-.19-.11-.39-.17-.6-.17a.78.78 0 0 0-.56.23.7.7 0 0 0-.23.5c0 .15.05.28.14.4.14.18.47.42.98.7.43.25.71.43.87.56a1.29 1.29 0 0 1 .08 1.94c-.26.26-.6.39-1.02.39a2.05 2.05 0 0 1-.8-.16 1.79 1.79 0 0 0-.41-.11c-.06 0-.1.02-.13.05-.03.04-.06.1-.07.22h-.13v-1.64h.13c.05.34.13.6.23.77.1.17.25.31.45.43.2.1.42.16.66.16a.9.9 0 0 0 .65-.23.74.74 0 0 0 .15-.9 1.02 1.02 0 0 0-.28-.34 7.95 7.95 0 0 0-.7-.45 7.1 7.1 0 0 1-.83-.55 1.47 1.47 0 0 1-.37-.45 1.17 1.17 0 0 1-.13-.54c0-.34.12-.64.37-.89s.57-.37.95-.37c.24 0 .5.06.76.19.13.06.22.08.27.08.06 0 .1-.01.14-.05.03-.04.06-.11.09-.22h.12Z" fill="#fff"/></svg>