<!-- by TradingView --><svg width="56" height="56" viewBox="0 0 56 56" xmlns="http://www.w3.org/2000/svg"><path fill="#123C6E" d="M0 0h56v56H0z"/><path d="M20 24v9h4v-2h-2v-7h-2ZM8 26c-2.2 0-2 1.5-2 2.5 0 1.97 1.23 2.47 3 2.5v-3h2v4.99c-1 0-1.5.02-2.5 0-2 .02-4.5-1.41-4.5-4.49 0-2 .6-4.5 4-4.5 1.12 0 2.37.5 2.9 1.55l-1.8.9C8.94 26.1 8.35 26 8 26Z" fill="#FDFDFF"/><path fill-rule="evenodd" d="M12 33h2l.33-1h2.34l.33 1h2l-3.5-9-3.5 9Zm4-3-.5-1.5L15 30h1ZM25 33h2l.33-1h2.34l.33 1h2l-3.5-9-3.5 9Zm4-3-.5-1.5L28 30h1Z" fill="#FDFDFF"/><path d="M48 24h-2l2 5v4h2v-4l2-5h-2l-1 3-1-3ZM45 23H35v7h1v-6h8v9h-9v1h10V23Zm-2.5 2c-.8 0-1 .33-1 .5 0 .25.13.25.25.25.13 0 .25 0 .25.25 0 .32-.68.68-1.51 1.13l-.6.33c-.15-.4-.28-.74-.39-.96-.5-1-1-1.5-2-1.5-.8 0-1 .67-1 1 0-.17.2-.5 1-.5s1.28.96 1.7 2.37L39 28c-1.5 1-4.5 3-5.5 4.5s-1 3.5-.5 4.5 2 2 3.5 2c1.2 0 2.17-1.33 2.5-2-.33.33-1.3 1-2.5 1-1.5 0-2.5-2.5-2.5-4.5 0-1.44 3.13-3.41 5.43-4.77l.07.27c.5 2 2 3 2.5 3s1 0 1-.5c0-.4-.67-.5-1-.5-.64 0-1.28-1.43-1.79-2.72.55-.32 1-.59 1.29-.78 1.5-1 1.5-1.5 1.5-2 0-.4-.33-.5-.5-.5Z" fill="#FDFDFF"/></svg>