<!-- by TradingView --><svg width="56" height="56" viewBox="0 0 56 56" xmlns="http://www.w3.org/2000/svg"><path fill="#F0F3FA" d="M0 0h56v56H0z"/><path d="M27.16 29.6c-2.37.45-4.04-.24-6.25-1.16a.28.28 0 0 1-.17-.24.28.28 0 0 1 .13-.26 52.53 52.53 0 0 1 11.06-5.06c2.58-.83 5.1-.95 7.52-.36 5.38 1.32 5.24 7.02 2.16 10.36-4.34 4.71-12.42 6.91-18.67 7.1-3.76.13-8.1-.6-11.06-3.02-3.2-2.6-3.72-6.52-1.62-10 4.8-7.93 16.12-11.34 24.9-10.93a.25.25 0 0 1 .2.14.23.23 0 0 1-.02.24c-.29.4-.67.63-1.16.69-1.36.17-2.75.38-4.16.61-6.5 1.1-13.05 4.25-16.69 9.58-1.74 2.56-1.87 5.95.82 7.94 2.6 1.92 6.34 2.26 9.58 1.91a21.57 21.57 0 0 0 11.35-4.53A9.58 9.58 0 0 0 37 30.56c.65-.94.7-2.2-.61-2.55a4.85 4.85 0 0 0-2.47.06c-2.75.7-5 1.22-6.76 1.54Z" fill="#959699"/><path d="M45.18 30.72v.02a.1.1 0 0 1 0 .03c0 .02-.02.02-.03.01a.07.07 0 0 1-.02-.08c.55-1.47.88-2.8 1-3.97.8-8.17-9.14-7.64-14.64-6.45a26.99 26.99 0 0 0-9.29 3.91c-1.67 1.1-3.67 2.94-4.06 5-.46 2.45 2.08 3.55 4.12 3.73 2.67.22 4.85-.15 7.29-1.13.74-.3 1.6-.32 2.4-.27a.4.4 0 0 1 .29.67c-2 2.45-5.27 3.37-8.4 3.59-2.43.16-4.63-.35-6.6-1.54-1.79-1.1-2.94-2.88-2.24-5 .94-2.87 3.52-4.95 6.03-6.38A31.6 31.6 0 0 1 37.8 18.6c4.2.12 9.04 1.6 9.2 6.36a9.27 9.27 0 0 1-1.82 5.77Z" fill="#B22432"/></svg>