<!-- by TradingView --><svg width="56" height="56" viewBox="0 0 56 56" xmlns="http://www.w3.org/2000/svg"><path fill="#F0F3FA" d="M0 0h56v56H0z"/><path fill-rule="evenodd" d="M29.77 32.81c.43-.15.7-.58.97-1 .17-.27.33-.53.53-.72 1.95-1.85 4.45-2.52 6.92-1.38a6.3 6.3 0 0 1 3.75 5.44 51.8 51.8 0 0 1 0 3.82 6.5 6.5 0 0 1-4.13 5.95c-.44.16-.49.08-.13-.23a8.4 8.4 0 0 0 2.88-6.65l-.05-2.43a4.77 4.77 0 0 0-1.92-3.97c-.63-.5-1.3-.8-2.04-.88-1.6-.18-2.92.1-4.1 1.27a4.2 4.2 0 0 0-1.4 2.9c0 .58-.06 1.85-.15 3.82a7.16 7.16 0 0 1-2.47 5.2c-.7.64-1.66.98-2.86 1.03-2.12.1-4.12-.44-6-1.6a17.29 17.29 0 0 1-8.3-12.03 18.1 18.1 0 0 1-.2-4.64c.1-1.56.45-3.06 1.02-4.51a17.23 17.23 0 0 1 5.3-7.4c3.9-3.1 8.37-4.3 13.4-3.61 2.65.36 5.15 1.4 7.5 3.11 2.39 1.74 3.94 3.61 3.68 6.73a5.93 5.93 0 0 1-1.61 3.58 5.8 5.8 0 0 1-3.72 1.88c-1.23.15-2.35.01-3.38-.4-.77-.3-1.47-.9-2.1-1.44l-.04-.04a4.73 4.73 0 0 0-3.7-1c-2.06.42-3.32 1.6-3.8 3.56-.37 1.57 0 3.2 1.1 4.4a4.7 4.7 0 0 0 5.05 1.24Zm7.98-15.73a14.1 14.1 0 0 0-13.33-3.1 14.64 14.64 0 0 0-9.73 8.72c-.89 2.09-.95 4.54-.82 6.82.08 1.41.44 2.84 1.08 4.29a14.74 14.74 0 0 0 4.69 5.93 13.54 13.54 0 0 0 5.29 2.45l.1.03c.96.22 1.53.36 2.41.3.15 0 .18.05.09.17-.22.3-.53.5-.94.62-1.28.37-2.6.31-3.94-.18-3.3-1.2-5.88-3.3-7.73-6.29a17.1 17.1 0 0 1-2.27-5.81 15.1 15.1 0 0 1 .96-8.6 15.61 15.61 0 0 1 8.98-8.9c1.83-.7 3.66-1.05 5.49-1.06a15.8 15.8 0 0 1 9.13 2.85c1.06.72 2.37 1.86 2.9 3 .6 1.33.62 2.63.05 3.9a4.92 4.92 0 0 1-2.52 2.53 4.44 4.44 0 0 1-3.96-.12 8.85 8.85 0 0 1-1.5-1.06 6.64 6.64 0 0 0-1.6-1.07c-2.87-1.02-5.75-.24-7.53 2.26a6.12 6.12 0 0 0 1.03 8.22 5.92 5.92 0 0 0 5.14 1.55c.32-.05.43.08.34.4l-.06.17c-.1.3-.31.47-.63.5a7.41 7.41 0 0 1-4.03-.85 7.4 7.4 0 0 1-4.06-6.8 7.5 7.5 0 0 1 4.95-7.04c2.4-.9 4.7-.52 6.92 1.12l.97.72a3.47 3.47 0 0 0 4.24.17c1.35-.93 1.74-2.9 1.08-4.39-.2-.46-.6-.94-1.19-1.45Zm-1.12 3.05c0 .14-.03.3-.11.42l-.08.12a.61.61 0 0 1-.9.13A18.82 18.82 0 0 0 33 18.95c-3.4-1.8-6.7-1.73-9.91.2a9.85 9.85 0 0 0-5 7.5 9.62 9.62 0 0 0 .52 5.08c1.86 4.37 5.27 6.58 10.25 6.66.27 0 .43-.14.47-.43l.08-.57c.04-.3-.09-.43-.39-.41a8.64 8.64 0 0 1-7.96-3.54c-.6-.77-1-1.55-1.25-2.36-.3-1-.5-1.88-.6-2.65-.05-.53.02-1.28.23-2.22a9.07 9.07 0 0 1 2.25-4.36 9.09 9.09 0 0 1 3.99-2.46c2.93-.92 6.1-.21 8.52 1.93.52.46.95.71 1.3.76.79.12 1.7-.26 2.07-1.02.5-1 .28-1.91-.66-2.76a12.1 12.1 0 0 0-6.06-3.06 13.03 13.03 0 0 0-15.32 15.43 13.6 13.6 0 0 0 2.25 5.12c2.38 3.3 5.89 5.1 10.52 5.4.34.02.55-.13.64-.45l.13-.46c.09-.32-.02-.48-.35-.46-1.4.06-2.6-.05-3.56-.34-4.84-1.46-7.94-5.21-8.69-10.2a9.27 9.27 0 0 1 .15-3.38 12.16 12.16 0 0 1 3.9-6.77 11.55 11.55 0 0 1 15.95.6c.1.1.16.25.17.4Z" fill="#131575"/><path d="M34.71 33.63c-.65.3-1.02.8-1.03 1.57 0 .88-.01 1.73-.03 2.56-.01 1.06-.1 1.9-.26 2.53a6.98 6.98 0 0 1-2.64 3.94c-.44.33-.87.55-1.31.66-.37.09-.4.04-.06-.14 1.5-.85 2.43-2.6 2.8-4.22.28-1.3.15-2.96.16-4.36 0-.75.08-1.33.21-1.74a3.27 3.27 0 0 1 2.48-2.33 3.3 3.3 0 0 1 3.92 2.42c.1.38.14 1.24.15 2.56 0 .84-.03 1.7-.1 2.59a4.64 4.64 0 0 1-.56 1.93 8.18 8.18 0 0 1-1.75 2.32c-.52.42-1.22.78-2.12 1.07-.05.01-.07 0-.05-.05l.02-.07.01-.02c1.56-.74 2.24-1.8 2.84-3.45.6-1.64.54-3.4.48-5.4-.03-.75-.14-1.47-.64-1.96-.73-.72-1.57-.85-2.52-.4Z" fill="#393A96"/><path d="M32.74 44.25a7.05 7.05 0 0 0 2.21-5.2c.02-1.75.03-2.94.06-3.6.01-.43.24-.66.7-.69h.02c.45 0 .7.23.72.66.14 2.03.16 3.34.05 3.94-.4 2.36-2.08 5-4.52 5.61-.22.06-.24.02-.05-.11.26-.18.55-.36.81-.6Z" fill="#131575"/></svg>