<!-- by TradingView --><svg width="56" height="56" viewBox="0 0 56 56" xmlns="http://www.w3.org/2000/svg"><path fill="url(#a)" d="M0 0h56v56H0z"/><path d="M18.22 18.4c.13-.22.35-.3.65-.21.07.02.13.06.13.13v2.48c0 .1-.07.2-.17.2h-.34c-.06 0-.1-.1-.12-.15-.29-1.03-.86-2.23-2.14-2.21-1.29.02-2.05 1.01-2.27 2.19a5.42 5.42 0 0 0-.04 2.1c.35 1.66 1.4 2.75 3.21 2.34.13-.02.3-.11.5-.26a.2.2 0 0 0 .08-.14c.07-.62.07-1.13 0-1.53-.07-.4-.8-.5-1.12-.49-.06 0-.09-.03-.1-.08l-.01-.34c0-.08.03-.12.11-.12h3.26c.08 0 .11.04.11.12v.33c0 .05-.02.07-.07.08-.24.02-.6.1-.76.28a.58.58 0 0 0-.13.37v1.74c0 .06 0 .1-.05.13-.73.34-1.49.55-2.27.62-.85.07-1.6-.04-2.26-.36-1.66-.8-2.31-2.73-1.94-4.5a3.66 3.66 0 0 1 2.98-3.03c.86-.2 1.73-.08 2.62.36.06.03.1.01.14-.04Z" fill="#fff"/><path fill-rule="evenodd" d="M10.37 34.96v-2.29c0-.07.03-.11.1-.11a7.88 7.88 0 0 0 1.7-.12c1.28-.45 1.86-1.34 1.76-2.66a1.55 1.55 0 0 0-.4-1 2.5 2.5 0 0 0-1.77-.75C10.9 28 9.71 27.99 8.2 28c-.07 0-.12.04-.13.11l-.07.25a.13.13 0 0 0 .02.1.12.12 0 0 0 .07.05l.8.22c.06.02.1.07.11.14v5.99c0 .32-.1.5-.4.56a1.9 1.9 0 0 1-.43.03c-.06 0-.1.03-.1.1v.31c0 .04.02.07.04.1l.09.03h3.13c.07 0 .1-.04.1-.1v-.31c0-.1-.04-.14-.13-.13-.23.03-.47-.02-.71-.14a.39.39 0 0 1-.16-.15.4.4 0 0 1-.06-.21Zm.02-6.34-.03.06v3.18l.01.04.04.01h.58c.4.01.77-.15 1.05-.45.28-.29.44-.69.44-1.1v-.16a1.66 1.66 0 0 0-.42-1.12 1.48 1.48 0 0 0-1.05-.47h-.58l-.04.01Z" fill="#fff"/><path d="M40.93 30.72h-.75a.14.14 0 0 1-.1-.04.16.16 0 0 1-.04-.1v-.4c0-.11.05-.18.15-.18h.75c.06 0 .06-.02.06-.09V28.4c0-.04.05-.07.07-.1a.12.12 0 0 1 .1-.04h.87c.08 0 .12.05.12.14v1.52c0 .07.03.09.1.09h1.32c.05 0 .08.04.08.1v.55c0 .05-.02.07-.06.07h-1.31c-.07 0-.1.04-.1.11l-.02 2.98c0 .37.05.7.15.99.14.42.9.32 1.3.27.07 0 .12.02.15.08.06.09.06.21.01.37a.2.2 0 0 1-.1.13c-.54.26-1.06.37-1.55.35-.7-.04-1.12-.46-1.13-1.24V30.8c0-.06-.01-.09-.07-.09Z" fill="#fff"/><path d="M38.96 31.05a.36.36 0 0 0-.05-.28.33.33 0 0 0-.23-.15c-.65-.08-1.09.2-1.33.85-.3.83-.33 1.66-.08 2.48.34 1.07 1.15 1.61 2.16 1 .17-.1.36-.34.6-.72a.14.14 0 0 1 .15-.06l.06.02.27.2c.06.03.07.09.03.16-.5.9-1.19 1.38-2.07 1.44-.79.06-1.43-.2-1.92-.75-.6-.69-.75-1.66-.67-2.61.15-1.9 1.65-3.07 3.42-2.48a1.4 1.4 0 0 1 .85 1.84.5.5 0 0 1-.4.33c-.45.07-.91-.19-.86-.73.02-.25.04-.43.07-.54ZM47.1 30.15c.07-.14.22-.18.44-.13.07.02.1.06.1.12l.1 1.7c.01.08-.03.13-.11.13h-.29c-.08 0-.14-.05-.16-.13-.1-.37-.23-.63-.41-.8-.44-.42-.89-.5-1.34-.25-.38.2-.44.54-.17 1.01.05.11.2.21.42.3 1.22.5 2.53.8 2.3 2.4-.1.64-.48 1.1-1.14 1.34-.71.26-1.4.2-2.07-.18-.06-.03-.1-.02-.14.04-.1.17-.29.21-.55.14-.05-.02-.08-.06-.08-.12v-1.8c0-.07.03-.1.08-.1l.29-.02c.06 0 .1.03.13.1.3.83.88 1.6 1.8 1.46.56-.08.88-.6.64-1.13-.1-.23-.32-.4-.65-.52a9.23 9.23 0 0 1-1.56-.7c-.2-.12-.55-.6-.58-.92-.05-.49 0-.89.17-1.19.37-.68 1.3-.97 1.98-.83l.67.15c.06 0 .1-.01.13-.07ZM39 20.68c0 .1.03.12.1.05.71-.72 1.42-.9 2.32-.56.2.07.4.29.58.64.11.21.2.59.23 1.12l.02 2.87c0 .24.04.4.12.47.12.12.28.18.49.17.03 0 .06.02.08.04.03.02.04.06.05.09l.01.3a.12.12 0 0 1-.03.1.11.11 0 0 1-.08.03h-2.56c-.07 0-.1-.04-.1-.12v-.35l.03-.05a.11.11 0 0 1 .1-.03c.11.01.25 0 .4-.05.2-.06.24-.21.24-.4v-2.85c-.01-1.62-1.27-1.59-1.95-.55a.32.32 0 0 0-.05.18v3.17c0 .07.02.13.06.18.17.22.38.32.63.32.08 0 .13.05.13.13l.02.28c0 .1-.04.14-.13.14h-2.53c-.09 0-.13-.05-.13-.14v-.25c0-.1.05-.15.15-.14.41.04.62-.22.63-.8v-3.05c0-.54-.24-.87-.7-.9-.1 0-.14-.06-.14-.15v-.28c0-.1.05-.15.14-.16l1.74-.11c.08 0 .13.03.13.13v.53ZM16.29 30.7c.4-.43 1.1-.88 1.67-.62.34.15.5.45.48.88-.02.5-.2.78-.52.84-.2.04-.4 0-.56-.14-.2-.15-.27-.37-.22-.68.01-.1-.03-.14-.12-.1-.23.12-.44.27-.63.46-.14.14-.21.38-.21.73v2.9c0 .06.02.11.06.16.2.28.56.34.84.32.1 0 .13.04.13.14l-.02.3c0 .07-.04.11-.11.11h-2.76c-.1 0-.13-.05-.13-.15l.02-.28c0-.04.01-.07.04-.09a.11.11 0 0 1 .08-.03c.42.02.67-.16.67-.54v-3.24c0-.57-.25-.87-.73-.9a.14.14 0 0 1-.1-.05.16.16 0 0 1-.03-.11l.01-.27c0-.1.05-.14.14-.15l1.76-.12c.09 0 .13.04.13.13v.44c0 .12.03.13.1.05ZM33.74 35.33c-.46.36-.85.67-1.47.67-1.03 0-1.57-.57-1.62-1.7-.03-.8-.04-1.7-.02-2.68 0-.6-.23-.9-.7-.91-.08 0-.11-.04-.11-.12v-.37c0-.06.03-.1.08-.1l1.75-.11a.1.1 0 0 1 .08.03.11.11 0 0 1 .03.08c.01.59.02 1.81.01 3.67 0 .27.05.75.19.98.41.72 1.21.38 1.68-.1a.71.71 0 0 0 .23-.52c0-1.07-.02-2.02-.03-2.85 0-.22-.2-.53-.48-.57a9.02 9.02 0 0 0-.4-.05c-.09 0-.13-.05-.13-.14v-.28c0-.08.04-.12.12-.13l1.93-.13a.1.1 0 0 1 .08.03l.03.04v.05L35 34.6c0 .37.24.57.72.6.04 0 .05.03.05.06v.46c0 .03 0 .04-.04.05l-1.74.08c-.07 0-.1-.03-.12-.1l-.03-.38c0-.08-.04-.1-.1-.05ZM32.79 25.73a2.45 2.45 0 0 0 2.95-.54 3.3 3.3 0 0 0 .14-4.24 2.7 2.7 0 0 0-.85-.68 2.45 2.45 0 0 0-2.95.54 3.31 3.31 0 0 0-.14 4.24c.24.29.53.52.85.68Zm1.13-.32c-.77 0-1.4-1.08-1.4-2.4 0-1.33.62-2.4 1.39-2.4.77 0 1.4 1.07 1.4 2.4 0 1.32-.62 2.4-1.4 2.4ZM19.1 35.04a2.44 2.44 0 0 0 2.9.77c.33-.14.63-.35.89-.61a3.3 3.3 0 0 0 .16-4.24 2.56 2.56 0 0 0-1.87-.96c-.35-.01-.7.05-1.03.19-.34.14-.64.35-.9.61a3.3 3.3 0 0 0-.16 4.24Zm1.97.37c-.77 0-1.4-1.07-1.4-2.4 0-1.32.62-2.4 1.39-2.4.77 0 1.39 1.07 1.4 2.4 0 1.32-.63 2.4-1.4 2.4Z" fill="#fff"/><path fill-rule="evenodd" d="M27.82 28.49c.04.72.04 1.3 0 1.72 0 .05-.03.07-.08.05-1.26-.46-2.27-.25-3.03.63-1.11 1.3-.97 3.9.56 4.81.64.38 1.53.44 2.15-.05.1-.08.21-.16.33-.23.07-.05.1-.03.1.07l-.01.24c0 .1.04.14.14.14l1.81-.12c.08 0 .12-.05.12-.13l.02-.26c0-.09-.04-.13-.12-.14-.47-.01-.81-.16-.81-.74V27.2c0-.02 0-.04-.02-.05v-.03a.18.18 0 0 0-.18-.11l-2.09.14c-.07 0-.11.05-.1.13l.01.32c0 .07.04.1.1.1.53 0 1.06.15 1.1.8Zm-.74 2.22c-1.05-.38-1.62.67-1.74 1.62-.12.93-.09 1.85.53 2.5.6.64 1.38.45 1.91-.17.04-.04.06-.1.06-.16v-2.28c0-.44-.03-.73-.08-.87-.12-.3-.35-.52-.68-.64ZM25.08 25.55l-.04.18c-.02.09-.03.08-.02-.02.01-.09 0-.16-.01-.21-.02-.06-.06-.09-.12-.09-.55.03-.72-.4-.7-.97.03-1.35.04-2.3.02-2.83-.06-1.67-1.8-1.83-2.98-1.42-.39.14-.69.36-.9.67-.16.22-.19.5-.1.83.14.62.87.49 1.19.1a.17.17 0 0 0 .04-.12l-.05-.71c0-.06.01-.11.04-.16a.24.24 0 0 1 .13-.1c.62-.22 1.04-.06 1.26.48.12.28.17.55.16.81 0 .06-.02.12-.06.17a.3.3 0 0 1-.14.1c-.93.34-1.54.57-1.85.7-.7.3-1.05.83-1.04 1.58.02.71.33 1.17.93 1.36.72.24 1.42.05 2.1-.56.05-.05.1-.04.12.02a.96.96 0 0 0 .8.6c.38.06.76.13 1.15-.08.02-.01.04 0 .04.02 0 .03.02.05.06.07.03.02.07.03.1.03h2.45c.07 0 .11-.04.1-.13l-.01-.29a.13.13 0 0 0-.04-.09.12.12 0 0 0-.09-.03c-.42 0-.62-.22-.62-.66v-2.72c0-.33.04-.57.18-.72.72-.77 1.78-.7 1.82.63v2.78c0 .52-.22.75-.66.7-.08-.01-.13.03-.13.11l-.02.3c0 .08.03.12.11.12h2.53a.12.12 0 0 0 .09-.04.13.13 0 0 0 .03-.1l-.01-.24a.17.17 0 0 0-.05-.1.16.16 0 0 0-.1-.05c-.44-.02-.65-.29-.65-.8.02-.96.02-2.06 0-2.93-.02-.9-.4-1.58-1.3-1.7-.55-.07-.98.07-1.46.4l-.17.16-.14.14c-.07.06-.07.04-.07-.04V20.13c0-.09-.08-.13-.17-.13l-1.71.12c-.1 0-.14.05-.14.14l-.02.26a.15.15 0 0 0 .04.11l.04.04h.06c.48 0 .72.42.72 1.06.02 1.5.02 2.68 0 3.16-.01.4-.22.6-.61.57-.03 0-.06 0-.08.02a.12.12 0 0 0-.05.07Zm-3.47-2.04c-.42.34-.55.74-.4 1.2.05.16.13.28.24.35.52.33 1.12 0 1.48-.48.03-.06.07-.11.07-.18v-1.47l-.01-.02h-.01c0-.02-.01-.02-.02-.03a.06.06 0 0 0-.05-.01c-.53.14-.96.35-1.3.64Z" fill="#fff"/><defs><linearGradient id="a" x1="10.42" y1="9.71" x2="68.15" y2="76.02" gradientUnits="userSpaceOnUse"><stop stop-color="#1A1E21"/><stop offset="1" stop-color="#06060A"/></linearGradient></defs></svg>