<!-- by TradingView --><svg width="56" height="56" viewBox="0 0 56 56" xmlns="http://www.w3.org/2000/svg"><path fill="#F0F3FA" d="M0 0h56v56H0z"/><path d="M30.74 32.67a.59.59 0 0 1-.41-.48c-.05-.22.04-.41.25-.57.47-.35 1.16.17.9.73-.1.22-.3.34-.58.35a.07.07 0 0 0-.06.05A12.88 12.88 0 0 1 18.94 41a12.93 12.93 0 0 1-12.32-9.05 13 13 0 0 1 .03-8.08c.95-2.8 2.62-5.03 5-6.66a12.63 12.63 0 0 1 9.24-2.04 12.75 12.75 0 0 1 7.4 4.05 11.58 11.58 0 0 0-11.06-2.78 11.54 11.54 0 0 0-8.17 8.89A11.68 11.68 0 0 0 20.65 39.3c1.66-.03 3.24-.42 4.73-1.14a11.55 11.55 0 0 0 5.38-5.46c0-.02 0-.03-.02-.04Z" fill="#213870"/><path d="M27.92 34.74c.33-.26.33-.25.03.03a10.47 10.47 0 0 1-8.55 2.76 10.36 10.36 0 0 1-5.53-2.48 9.84 9.84 0 0 1-2.62-3.65 9.71 9.71 0 0 1 2.4-10.85 10.37 10.37 0 0 1 5.62-2.71 10.38 10.38 0 0 1 9.45 3.49c.04.04.03.06-.03.06h-.41a.2.2 0 0 1-.13-.04l-.27-.23a9.25 9.25 0 0 0-6.34-2.06 9.32 9.32 0 0 0-6.3 2.85 8.8 8.8 0 0 0-2.47 6.35c.07 1.9.68 3.6 1.82 5.07a9.2 9.2 0 0 0 5.87 3.44 9.44 9.44 0 0 0 7.46-2.03Z" fill="#367BB8"/><path d="M21.4 25.36c0-.03 0-.04-.03-.04h-1.31c-.03 0-.04-.01-.04-.04v-.8l.02-.01h2.38c.02 0 .04 0 .04.03.02.46-.07.88-.27 1.25a2.27 2.27 0 0 1-2.2 1.25c-.54 0-1.1-.16-1.54-.48a2.51 2.51 0 0 1-.53-3.52c.45-.59 1.06-.92 1.81-.98a2.75 2.75 0 0 1 2.37.87l-.01.03-.58.57c-.02.02-.04.02-.06 0a5.24 5.24 0 0 0-.4-.3 1.82 1.82 0 0 0-1.6-.2c-.52.18-.85.52-1.01 1-.3.9.22 1.8 1.13 2.07.69.2 1.51 0 1.82-.7ZM32.04 23.78a.02.02 0 0 0-.02 0l-.02.01V27L32 27h-.95c-.03 0-.04-.01-.04-.04v-4.93l.01-.02.02-.01h.83a.09.09 0 0 1 .08.04c.68 1.07 1.34 2.12 2.03 3.18a.02.02 0 0 0 .02 0 .02.02 0 0 0 .01-.01v-3.19a.02.02 0 0 1 .03-.02h.93c.03 0 .04.01.04.04v4.93l-.01.02-.02.01h-.83a.09.09 0 0 1-.08-.04c-.68-1.07-1.33-2.12-2.02-3.18ZM38.34 22h-2.72a.02.02 0 0 0-.02.02v.96l.02.02h2.72l.02-.02v-.96a.02.02 0 0 0-.02-.02ZM40.5 22h1.44c.04 0 .06.02.06.06v.9c0 .03-.02.04-.04.04h-.9c-.03 0-.06.02-.06.05v3.89c0 .02-.03.06-.05.06h-.91c-.02 0-.04-.04-.04-.06v-3.9c0-.03-.04-.04-.07-.04h-.89c-.03 0-.04-.02-.04-.04v-.9c0-.04.02-.06.06-.06h1.44ZM24.6 22a58.73 58.73 0 0 1 .47.01l.02.03 1.87 4.92a.03.03 0 0 1 0 .04H26l-.02-.03-1.37-3.59h-.04l-1.37 3.59a.05.05 0 0 1-.05.03h-.9a.03.03 0 0 1-.03-.03v-.01l1.88-4.93.02-.02h.03l.44-.01Z" fill="#213870"/><path fill-rule="evenodd" d="m30.53 26.95-1.12-2.12c-.02-.04-.01-.06.02-.07.56-.21.86-.61.89-1.2.02-.4-.07-.75-.28-1.01a1.18 1.18 0 0 0-.78-.48 9.65 9.65 0 0 0-1.84-.05c-.03 0-.04.02-.04.05v4.9c0 .02 0 .03.03.03h.88a.03.03 0 0 0 .03-.03 1357.09 1357.09 0 0 1 .02-2.1l.05.01.03.03 1.09 2.05c0 .03.03.04.06.04h.95a.03.03 0 0 0 .01-.05Zm-2.2-4v1h.53a.6.6 0 0 0 .38-.13c.1-.08.17-.2.17-.32v-.09a.4.4 0 0 0-.04-.18.46.46 0 0 0-.12-.15.57.57 0 0 0-.18-.1.64.64 0 0 0-.21-.03h-.53Z" fill="#213870"/><path d="M38.33 24h-2.7a.03.03 0 0 0-.03.03v.94c0 .02.01.03.03.03h2.7c.02 0 .03-.01.03-.03v-.94a.03.03 0 0 0-.03-.03ZM38.33 26h-2.7c-.02 0-.03.01-.03.03v.94c0 .02.01.03.03.03h2.7c.02 0 .03-.01.03-.03v-.94a.03.03 0 0 0-.03-.03Z" fill="#213870"/><path d="M17.83 29.36c-.01 1.03 1.3 1.42 1.96.7.03-.04.07-.04.11 0l.1.09v.07c-.83.87-2.45.43-2.44-.87.01-1.3 1.64-1.7 2.45-.82l.01.03c0 .01 0 .03-.02.03l-.09.1c-.04.03-.08.03-.11-.01-.65-.73-1.96-.35-1.97.68ZM26.47 28.41c-.17.17-.08.44.09.56.43.32 1.02.68.84 1.22a.72.72 0 0 1-.86.45.85.85 0 0 1-.56-.47v-.03l.01-.03.15-.07c.03-.02.05-.01.06.02.17.3.48.5.8.27.16-.13.2-.3.12-.5a.98.98 0 0 0-.31-.34l-.47-.37c-.37-.32-.27-.94.25-1.05.32-.06.58.07.79.38v.03l-.17.12h-.03c-.12-.14-.2-.21-.24-.23-.2-.09-.35-.07-.47.04ZM34.08 29.36c-.01 1.05 1.3 1.4 1.97.7a.06.06 0 0 1 .04-.03.07.07 0 0 1 .05.02l.1.1c.02.02.02.05 0 .08-.35.34-.77.49-1.25.43-.7-.09-1.19-.6-1.18-1.3 0-.7.5-1.22 1.2-1.3.48-.04.9.1 1.24.45.03.03.03.06 0 .1l-.1.08a.06.06 0 0 1-.05.02h-.02l-.02-.02c-.67-.72-1.98-.39-1.98.67ZM24.7 29.29l.61.68c.02.02.03.01.03-.01v-1.8a.05.05 0 0 1 .02-.04.05.05 0 0 1 .04-.01l.17.02c.02 0 .03.02.03.04v2.4c0 .05-.02.06-.06.02-.36-.37-.7-.75-1.03-1.15l-.61-.68c-.02-.02-.03-.02-.03.01v1.8a.05.05 0 0 1-.04.05h-.02l-.17-.03c-.02 0-.03-.01-.03-.03v-2.4c0-.05.02-.06.06-.02.36.36.7.75 1.03 1.15ZM28.42 28.12h.64c.04 0 .05.01.05.05v.14c0 .03-.01.05-.05.05h-.48a.04.04 0 0 0-.03.04v2.15c0 .03-.02.04-.04.05h-.18c-.03 0-.04-.02-.04-.05V28.4a.04.04 0 0 0-.04-.04h-.48c-.03 0-.05-.02-.05-.05v-.14c0-.04.02-.05.05-.05h.65ZM32.46 30.43c.1 0 .2-.03.3-.08.29-.16.29-.42.29-.78a681.58 681.58 0 0 0 .02-1.45h.19c.03 0 .04.01.04.04v1.32c-.01.49 0 .82-.37 1.06a.84.84 0 0 1-.47.13.84.84 0 0 1-.47-.13c-.38-.25-.36-.58-.36-1.06v-1.33c0-.02.01-.04.04-.04h.17c.01 0 .02 0 .03.02l.01.02v1.42c0 .36-.01.61.27.77.1.06.2.09.3.09ZM37.24 28.12h.64c.04 0 .05.01.05.04v.16c0 .03-.01.04-.04.04h-.5c-.01 0-.03.01-.03.03v2.16c0 .02-.01.04-.04.05H37.15c-.03 0-.04-.03-.04-.05v-2.16c0-.02-.01-.03-.03-.03h-.5c-.02 0-.04-.01-.04-.04v-.16c0-.03.02-.04.05-.04h.65ZM38.47 28.12h-.17a.04.04 0 0 0-.04.04v2.41c0 .02.01.04.04.04h.17c.02 0 .04-.02.04-.04v-2.4a.04.04 0 0 0-.04-.05ZM43.24 29.28l.62.69c.02.03.03.02.03-.01v-1.8l.01-.03h.2c.03 0 .05 0 .05.04v2.35c0 .1-.04.12-.1.04a41.8 41.8 0 0 0-1.64-1.78v1.82l-.04.01h-.16c-.03 0-.05-.01-.05-.05v-2.34c0-.11.03-.13.1-.04l.98 1.1ZM46.04 30.36h.89l.02.01.02.03v.16a.04.04 0 0 1-.01.03.04.04 0 0 1-.03.01h-1.18l-.01-.04V28.13l.04-.01H45.98l.02.03V30.35l.04.01ZM47.81 28.12h.65c.03 0 .05.01.05.04v.16c0 .03-.02.04-.05.04h-.49a.03.03 0 0 0-.02.01v2.18c0 .03-.02.04-.05.05H47.73c-.03 0-.05-.02-.05-.05v-2.16a.03.03 0 0 0 0-.02h-.52c-.03 0-.04-.02-.04-.05v-.16c0-.03.01-.04.04-.04h.65ZM22.71 30.29a1.3 1.3 0 0 0 0-1.86 1.35 1.35 0 0 0-1.89 0 1.3 1.3 0 0 0 0 1.86 1.35 1.35 0 0 0 1.9 0Zm.13-.93c0 .59-.48 1.06-1.07 1.06-.6 0-1.08-.47-1.08-1.06 0-.58.48-1.05 1.08-1.05.6 0 1.07.47 1.07 1.05ZM41.26 30.29a1.3 1.3 0 0 0-.44-2.14 1.36 1.36 0 0 0-1.45.29 1.3 1.3 0 0 0-.39.92 1.35 1.35 0 0 0 2.28.93Zm.13-.93c0 .59-.48 1.06-1.08 1.06-.6 0-1.07-.47-1.07-1.06 0-.58.48-1.05 1.07-1.05.6 0 1.08.47 1.08 1.05Z" fill="#367BB8"/><path fill-rule="evenodd" d="m30.23 29.46.22-.03c.42-.05.68-.36.61-.77-.06-.35-.31-.53-.76-.54a21 21 0 0 0-.8 0l-.01.03v2.4c0 .02 0 .03.03.04l.16.02c.04.01.06 0 .06-.05v-.93c0-.24.08-.27.23-.07l.79 1c.02.03.06.05.11.05h.17c.05 0 .06-.02.03-.06l-.84-1.07v-.02Zm-.48-1.09V29.2l.03.01h.56c.06 0 .12 0 .18-.03.06-.02.1-.05.15-.08a.4.4 0 0 0 .1-.13c.03-.05.04-.1.04-.16v-.03c0-.11-.05-.21-.14-.29a.5.5 0 0 0-.33-.12h-.56l-.03.01ZM48.88 28.13v.02l-.02 2.43.01.02h.02l.9.01c.32 0 .63-.12.85-.33.23-.22.36-.52.36-.83v-.15c0-.3-.12-.6-.35-.83a1.22 1.22 0 0 0-.84-.34h-.93Zm.25.25-.02.03v1.92l.01.03.03.01h.6a1.05 1.05 0 0 0 .7-.27.94.94 0 0 0 .3-.66v-.13c0-.25-.11-.49-.3-.66a1.02 1.02 0 0 0-.7-.28h-.6l-.02.01Z" fill="#367BB8"/><path d="M22.54 32.7a.6.6 0 0 0 .6-.6.6.6 0 0 0-.6-.6.6.6 0 0 0-.6.6c0 .33.26.6.6.6ZM24.63 32.7a.6.6 0 0 0 .61-.6.6.6 0 0 0-.6-.6.6.6 0 0 0-.61.6c0 .33.27.6.6.6ZM26.73 32.7a.6.6 0 0 0 .6-.6.6.6 0 0 0-.6-.6.6.6 0 0 0-.6.6c0 .33.27.6.6.6ZM28.83 32.7a.6.6 0 0 0 .6-.6.6.6 0 0 0-.6-.6.6.6 0 0 0-.6.6c0 .33.26.6.6.6ZM30.92 32.7a.6.6 0 0 0 .61-.6.6.6 0 0 0-.6-.6.6.6 0 0 0-.61.6c0 .33.27.6.6.6Z" fill="#BCDAF1"/></svg>