<!-- by TradingView --><svg width="56" height="56" viewBox="0 0 56 56" xmlns="http://www.w3.org/2000/svg"><path fill="#F0F3FA" d="M0 0h56v56H0z"/><path fill-rule="evenodd" d="m37 17.69 2.73-3.59c-2.4-2.15-4.19.1-4.79 1.5-.63-1.13-3.03-3.43-7.57-3.6C21.68 11.8 16 15.3 16 22.08c0 5.43 3.26 8.84 4.89 9.87L16 37.82V43h4v-4.08c2.8 0 5.6 3.39 6.87 5.08l6.18-5.08 1.1 3.19c1.29 2.29 4.18.7 5.58-2.3 1.11-2.39-1.3-1.6-2.73-.9V17.7Zm-18.8 5.28c-.25 3.27 2.29 5.88 3.58 6.78l5.19-7.48-1.1-.9-2.3 2.2-1.79-1.3 3.2-3.68 3.88.6 1.3-1.7c-7.08-3.59-11.67 1.4-11.97 5.48Zm13.25-4.38L24.97 30H33v-9.12l-1.55-2.3Zm-10.08 16.5L23.01 33H33v2.83l-3.85 3.36-7.78-4.1Z"/></svg>