<!-- by TradingView --><svg width="56" height="56" viewBox="0 0 56 56" xmlns="http://www.w3.org/2000/svg"><path fill="#F0F3FA" d="M0 0h56v56H0z"/><path fill-rule="evenodd" d="M45 23A9786.24 9786.24 0 0 0 11 23c-1.58.01-2.7.13-3.37.37-1.15.4-2.1 1.1-2.83 2.1A4.15 4.15 0 0 0 4 28c0 .96.27 1.8.81 2.54.73 1 1.68 1.7 2.83 2.1.67.23 1.8.35 3.37.35H44.99c1.58 0 2.7-.12 3.37-.35 1.15-.41 2.1-1.11 2.83-2.1.54-.74.81-1.58.81-2.54s-.27-1.8-.81-2.54c-.73-.99-1.68-1.69-2.83-2.1-.67-.23-1.79-.35-3.37-.35Zm1.27 1H9.73c-1.34 0-2.5.44-3.47 1.3-.8.7-1.22 1.55-1.26 2.54-.02.76.18 1.43.62 2A5.51 5.51 0 0 0 7.3 31.3a6.74 6.74 0 0 0 3.27.7H28l17.43.01a7.11 7.11 0 0 0 3.27-.71 5.51 5.51 0 0 0 1.68-1.45 3 3 0 0 0 .62-2 3.45 3.45 0 0 0-1.26-2.54 5.09 5.09 0 0 0-3.47-1.3Z" fill="#409AAD"/><path d="M12.72 28.8h-1.06a.14.14 0 0 1-.1-.04.13.13 0 0 1-.04-.1v-.77c0-.07.04-.1.11-.1h2.98c.1 0 .2.04.27.1.08.07.12.17.12.26v2.48c0 .13-.07.2-.2.2h-.65c-.16 0-.23-.08-.23-.22 0-.11-.08-.18-.24-.2a.46.46 0 0 0-.29.05c-.7.37-1.6.64-2.4.5-1.61-.27-2.78-.97-2.96-2.54-.09-.73.03-1.4.41-1.95.87-1.23 3.27-1.88 4.74-1.2.58.27 1.06.6 1.44 1 .27.3.26.57-.04.82a.32.32 0 0 1-.2.07H13.3a.21.21 0 0 1-.2-.1c-.53-.89-1.28-1.13-2.25-.74-.54.22-.76.84-.84 1.34-.15.8.08 1.44.69 1.93.4.33 1.02.25 1.52.24.35 0 .59-.15.72-.45l.08-.17c.12-.28.03-.41-.3-.41ZM44 26.1v1.26c0 .02 0 .05.02.07a.1.1 0 0 0 .08.03h2.8c.09 0 .1.05.1.11v.76a.1.1 0 0 1-.03.07.1.1 0 0 1-.07.03h-2.8a.1.1 0 0 0-.06.03.1.1 0 0 0-.04.07v1.37c0 .06.03.1.09.1h3.8c.02 0 .05.03.07.05.02.02.04.04.04.07v.76a.1.1 0 0 1-.03.07.1.1 0 0 1-.03.02c-.02.01-.03.03-.05.03h-5.78a.1.1 0 0 1-.08-.03.1.1 0 0 1-.03-.07v-5.8l.04-.07a.1.1 0 0 1 .08-.03h5.77a.1.1 0 0 1 .08.03.1.1 0 0 1 .03.07v.8a.1.1 0 0 1-.04.07.1.1 0 0 1-.07.03h-3.8a.1.1 0 0 0-.07.03.1.1 0 0 0-.02.03v.04ZM28.7 29c-.1-.33-.21-.32-.32 0l-.6 1.88c-.02.08-.07.12-.16.12h-.92a.2.2 0 0 1-.12-.04.21.21 0 0 1-.07-.1c-.46-1.2-1.02-2.6-1.68-4.16-.1-.24-.22-.42-.34-.53-.07-.06-.15-.17-.25-.17h-8.67v-.93c0-.02 0-.04.02-.05a.07.07 0 0 1 .04-.02h9.49c.08 0 .17.03.24.07.07.05.13.12.16.2a45.44 45.44 0 0 1 1.44 3.82c.11.35.22.35.33 0l.57-1.8a.29.29 0 0 1 .13-.16c.3-.18.65-.2 1.06-.06.1.03.15.09.18.18l.6 2 .04.06a.1.1 0 0 0 .06.02c.07 0 .13-.05.16-.14l1.45-3.9a.44.44 0 0 1 .4-.29h9.52c.03 0 .05.02.05.06V26h-8.73c-.05 0-.1.02-.15.05a.28.28 0 0 0-.1.12L30.6 30.9c-.03.07-.08.1-.15.1h-.96c-.08 0-.14-.03-.16-.11L28.7 29Z" fill="#409AAD"/><path fill-rule="evenodd" d="M22.01 30.68v-1.11a.14.14 0 0 1 .15-.14h.74c.1 0 .18.05.22.15l.46 1.15c.07.17.2.27.37.27h1l.06-.03h.01a.15.15 0 0 0 .07-.15.15.15 0 0 0-.03-.08 5 5 0 0 1-.78-1.34.2.2 0 0 1 .05-.22l.6-.6a.69.69 0 0 0 0-.96 1.8 1.8 0 0 0-1.28-.62h-2.81c-.08 0-.12.04-.12.12v3.4c0 .32.15.48.47.48h.5c.22 0 .32-.1.32-.32Zm.35-1.88h1.18a.33.33 0 0 0 .23-.17.35.35 0 0 0 .02-.3l-.12-.45a.34.34 0 0 0-.3-.2l-1.06-.04a.33.33 0 0 0-.27.13.34.34 0 0 0-.07.3v.46a.33.33 0 0 0 .39.26ZM38 30.68v-1.11a.14.14 0 0 1 .15-.14h.74c.1 0 .18.05.22.15l.47 1.15c.06.17.18.27.36.27h1l.06-.03H41a.15.15 0 0 0 .07-.15.15.15 0 0 0-.03-.08 5 5 0 0 1-.78-1.34.2.2 0 0 1 .05-.22l.6-.6a.69.69 0 0 0 0-.96 1.8 1.8 0 0 0-1.28-.62h-2.81c-.08 0-.12.04-.12.12v3.4c0 .32.15.48.47.48h.51c.2 0 .31-.1.31-.32Zm.35-1.88h1.18a.33.33 0 0 0 .23-.17.35.35 0 0 0 .02-.3l-.11-.45a.34.34 0 0 0-.3-.2l-1.07-.04a.33.33 0 0 0-.27.13.34.34 0 0 0-.07.3v.46a.33.33 0 0 0 .39.26ZM17.1 30h1.34c.1 0 .18.05.22.15l.24.66c.02.05.05.1.1.13.05.04.1.06.16.06h.91c.14 0 .19-.08.13-.21l-1.45-3.63a.25.25 0 0 0-.23-.16H17.4c-.1 0-.16.04-.2.12a21.62 21.62 0 0 0-1.61 3.69.23.23 0 0 0 .11.16c.03.02.07.03.1.03h.47a.39.39 0 0 0 .36-.24l.26-.64a.22.22 0 0 1 .08-.1c.04-.02.08-.02.12-.02Zm.3-.58a.1.1 0 0 0 .07.03l.65.02a.1.1 0 0 0 .08-.03.1.1 0 0 0 .03-.08v-.05c0-.26-.04-.5-.11-.7-.08-.18-.18-.28-.28-.29h-.05c-.05 0-.1.03-.16.08a.65.65 0 0 0-.13.2l-.1.32c-.01.12-.03.25-.03.38v.05c0 .03.01.05.03.07ZM33.14 30h1.35c.1 0 .18.05.22.15l.23.66c.02.05.06.1.1.13.05.04.1.06.16.06h.91c.15 0 .2-.08.14-.21l-1.45-3.63a.25.25 0 0 0-.23-.16h-1.13c-.09 0-.16.04-.2.12a21.62 21.62 0 0 0-1.6 3.69.23.23 0 0 0 .11.16c.03.02.06.03.1.03h.47a.39.39 0 0 0 .35-.24l.27-.64a.22.22 0 0 1 .08-.1c.03-.02.08-.02.12-.02Zm.3-.58a.1.1 0 0 0 .08.03l.65.02a.1.1 0 0 0 .07-.03.1.1 0 0 0 .03-.08v-.05c0-.26-.03-.5-.1-.7-.08-.18-.18-.28-.29-.29h-.05c-.05 0-.1.03-.15.08a.65.65 0 0 0-.14.2c-.03.1-.07.2-.09.32-.02.12-.03.25-.03.38v.05c0 .03 0 .05.03.07Z" fill="#409AAD"/></svg>