<!-- by TradingView --><svg width="56" height="56" viewBox="0 0 56 56" xmlns="http://www.w3.org/2000/svg"><path fill="#F0F3FA" d="M0 0h56v56H0z"/><path fill-rule="evenodd" d="M38.34 34.1c-.18.2-.28.52-.3.93.65.27 1.19.64 1.62 1.12a.6.6 0 0 0 .64.16c3.86-1.32 5.82-5.53 4.03-9.19a6.94 6.94 0 0 0-3.89-3.52c-.11-.05-.16-.13-.13-.25.6-3.05-.9-6.11-3.5-7.7-1.95-1.22-3.98-1.5-6.1-.85a.24.24 0 0 1-.25-.06c-.9-.85-1.49-1.36-1.78-1.52-3.22-1.84-6.22-1.6-8.99.74-2.15 1.81-3 4.2-2.55 7.19.02.1-.02.16-.12.17a7.12 7.12 0 0 0-4.96 3.55 6.17 6.17 0 0 0-.43 6.18 8.97 8.97 0 0 0 4.63 4.33c.1.04.19.04.28.01l2.8-.96 2.28-.87a.5.5 0 0 0 .31-.55.5.5 0 0 0-.08-.2l-.67-.97a.17.17 0 0 1-.03-.15c.04-.14.14-.2.29-.18.11.02.2.08.27.18l.92 1.31a.42.42 0 0 0 .41.18c3-.44 5.91-.52 8.76-.26.64.06 1.3.2 1.93.35l.58.13a.6.6 0 0 0 .6-.22c.38-.5.62-.8.72-.95.11-.14.23-.22.37-.24a.13.13 0 0 1 .12.06.14.14 0 0 1 .02.13l-.45 1.19a.38.38 0 0 0 .12.43c.48.37 1.03.56 1.65.55a.3.3 0 0 0 .24-.12c.21-.26.35-.4.41-.44.52-.22.6-.12.23.31Zm-18.1-16.02c2.08-2.73 4.78-3.5 8.12-2.3a.11.11 0 0 0 .14-.17 3.2 3.2 0 0 0-1.12-.99 5.52 5.52 0 0 0-8.33 3.65c-.07.38-.15.9-.22 1.56-.01.15.05.23.2.23.05 0 .1-.02.14-.07a.65.65 0 0 0 .1-.1c.37-.84.7-1.44.97-1.81Z" fill="#F16C59"/><path d="M38.03 35.03c-.74-.32-1.46-.72-2.22-.91a32.32 32.32 0 0 0-16.47.3l2.28-.86a.5.5 0 0 0 .31-.55.5.5 0 0 0-.08-.2l-.67-.97a.17.17 0 0 1-.03-.15c.04-.14.14-.2.29-.18.11.02.2.08.27.18l.92 1.31a.42.42 0 0 0 .41.18c3-.44 5.91-.52 8.76-.26.84.08 1.74.32 2.51.48a.6.6 0 0 0 .6-.22c.38-.5.62-.8.72-.95.11-.14.23-.22.37-.24a.14.14 0 0 1 .15.12l-.01.07-.45 1.19a.38.38 0 0 0 .12.43c.48.37 1.03.56 1.65.55a.3.3 0 0 0 .24-.12c.21-.26.35-.4.41-.44.52-.22.6-.12.23.31-.18.2-.28.52-.3.93ZM38.59 39.07c.61.35.75.2.42-.41a12.2 12.2 0 0 0-.52-.88c-.07-.1-.05-.18.04-.24l.3-.21a.37.37 0 0 0 .02-.6 1.92 1.92 0 0 1-.54-.59c-.07-.12-.04-.17.1-.13.42.1.74.26.97.47.17.16.26.47.27.93.01.73.16 1.63-.09 2.15-.32.69-.64 1.1-.96 1.26a17.84 17.84 0 0 1-5.34 1.01c-3.44.16-6.87.2-10.3.14-1.8-.04-3.37-.28-4.71-.74-.6-.2-1.15-.63-1.3-1.29-.2-.96-.32-2.06-.33-3.3 0-.1.04-.16.13-.2l2.51-1.07a.26.26 0 0 1 .32.08l.1.14v.02a.03.03 0 0 1-.01.03h-.02a5.44 5.44 0 0 0-2.44 1.33.19.19 0 0 0 .02.17.2.2 0 0 0 .07.06c.1.05.2.05.31 0 .57-.32 1.17-.6 1.79-.85.06-.03.1-.01.14.04l.05.07a.06.06 0 0 1 0 .06.06.06 0 0 1-.03.04c-.3.08-.5.22-.6.42a.31.31 0 0 1-.23.17c-.4.07-.8.27-1.15.62a.25.25 0 0 0-.03.33.3.3 0 0 0 .1.07c.09.05.17.05.25 0 .46-.32 1.07-.61 1.83-.88.41-.14.44-.09.08.16-.46.32-.83.52-1.09.58-.26.07-.49.2-.69.39-.08.08-.29.24-.62.48-.09.06-.1.14-.04.23l.08.11c.02.03.05.05.08.06l.1-.01c1.15-.6 2.17-.98 3.07-1.14 4.46-.79 9.1-.89 13.9-.3.83.1 1.66.26 2.48.48.56.14 1.06.48 1.5.74Zm.18 1.23a.37.37 0 0 0 .03-.6c-.29-.23-.67-.5-1.08-.64a16.6 16.6 0 0 0-3.87-.92c-3.1-.22-6.63-.15-10.6.21-.15.02-.4.08-.77.18-.26.08-.52.13-.77.17-1.25.17-1.96.3-2.14.38-.69.33-1.29.6-1.8.8a.2.2 0 0 0-.12.15.18.18 0 0 0 .07.18c.33.25.73.45 1.2.6 1.62.48 3.02.75 4.21.8 3.3.16 6.55.15 9.73-.03.8-.05 1.66-.16 2.56-.34l2.55-.53c.16-.04.43-.18.8-.41Z" fill="#403F7D"/></svg>