<!-- by TradingView --><svg width="56" height="56" viewBox="0 0 56 56" xmlns="http://www.w3.org/2000/svg"><path fill="#F0F3FA" d="M0 0h56v56H0z"/><path fill-rule="evenodd" d="M26.5 22.63c.07-.2.22-.46.34-.63l.17.12c-.1.16-.25.4-.3.58-.04.1-.04.15-.03.17l.01.01s.03.01.07 0h.01c.05 0 .1-.02.14-.1a.63.63 0 0 0 .07-.22l.2.03a.83.83 0 0 1-.1.32h.16l.2-.05a.14.14 0 0 0 .04-.03l-.13-.6.2-.04.14.62a1.1 1.1 0 0 1 .45-.24 3 3 0 0 1 .86-.1 3 3 0 0 1 .86.1 1.1 1.1 0 0 1 .45.24l.14-.62.2.05-.13.59.05.03c.04.02.1.03.19.04h.16l-.01-.01a.83.83 0 0 1-.1-.3l.21-.03c0 .06.03.15.07.22.04.08.09.1.14.1h.01c.04.01.06 0 .07 0 .02-.03.02-.09-.02-.18-.05-.19-.2-.42-.3-.58l.17-.12c.12.17.27.42.33.63.04.1.06.22.02.32a.22.22 0 0 1-.11.12 2.29 2.29 0 0 1-.66.04.84.84 0 0 1-.26-.06h-.01l-.03.1c0 .23-.05.57-.11.93.26 0 .5.04.7.1.2.06.38.14.53.25.14.1.26.23.35.37.14.22.22.48.25.74.03.22.03.45 0 .68-.04.37-.14.73-.25 1.02h1.37c.25 0 .47.03.66.09a1.41 1.41 0 0 1 1.02.97c.08.28.09.57.06.83.2.03.39.07.55.13.2.08.38.17.53.29.2.16.34.35.45.55.1.23.17.47.2.71a3.81 3.81 0 0 1-.22 1.5c.52.04 1.04.04 1.41.02l.06.19a11.51 11.51 0 0 0-.75.48l-.18-.1a.26.26 0 0 1 .06-.07l.07-.06a3.94 3.94 0 0 1 .35-.22c-.34 0-.74 0-1.13-.04l-.18.2-.16-.14.08-.09c-.35-.03-.69-.1-.97-.18-.28-.09-.52-.2-.68-.37a.63.63 0 0 1-.12-.19 1.43 1.43 0 0 1-.1-.39c-.02-.17-.01-.36.01-.54a3.8 3.8 0 0 1 .45-1.37l.03-.1c-.36.04-.78.06-1.2.04a4.6 4.6 0 0 1-.85-.12 2.41 2.41 0 0 1-.6-.24 1.06 1.06 0 0 1-.62-.95c-.02-.18.02-.39.1-.62h-.38a1.64 1.64 0 0 1-.96-.32 1.17 1.17 0 0 1-.35-.47c-.07-.16-.1-.34-.1-.56 0-.2.03-.49.08-.79l.14-.8v-.06c-.22.15-.56.3-1.01.3h-.06c-.45 0-.8-.15-1.02-.3l.01.05.14.81c.05.3.09.58.09.8 0 .2-.04.4-.1.55-.1.2-.22.35-.36.47a1.64 1.64 0 0 1-.96.33h-.37c.07.22.1.43.1.62-.01.2-.07.38-.17.53-.1.17-.27.3-.45.41-.18.1-.39.18-.6.24a7.23 7.23 0 0 1-2.05.08c0 .03 0 .06.02.1a4.41 4.41 0 0 1 .45 1.37c.02.18.03.37.01.54-.01.14-.05.27-.1.4a.63.63 0 0 1-.12.18c-.16.17-.4.28-.68.37-.28.09-.62.15-.97.18l.08.09-.16.14-.18-.2c-.39.03-.79.04-1.13.04a8.68 8.68 0 0 1 .42.28c.02.02.05.04.06.07l-.18.1-.02-.01a11.51 11.51 0 0 0-.73-.46l.06-.2c.37.02.9.02 1.42-.02a3.81 3.81 0 0 1-.22-1.5c.02-.24.08-.48.2-.7.1-.21.24-.4.44-.56.15-.12.33-.21.53-.29.16-.06.35-.1.55-.13-.03-.26-.02-.55.07-.83a1.41 1.41 0 0 1 1.01-.97c.2-.06.41-.09.66-.09h1.37c-.11-.3-.21-.65-.25-1.02a2.9 2.9 0 0 1 0-.68c.03-.26.11-.52.25-.74.1-.14.2-.26.35-.37.15-.1.33-.2.53-.25.2-.06.44-.1.7-.1-.06-.36-.11-.7-.11-.92l-.03-.12h-.01a.84.84 0 0 1-.26.07 2.29 2.29 0 0 1-.66-.04.22.22 0 0 1-.11-.12c-.04-.1-.02-.22.02-.32Zm2.73.05-1.27 1.51c.05.05.13.1.22.16l1.45-1.62a2.86 2.86 0 0 0-.4-.05Zm.63.1-1.48 1.66.31.08 1.42-1.6a.83.83 0 0 0-.25-.13Zm.37.32-1.28 1.45a2 2 0 0 0 .32-.02l.93-.98a3.22 3.22 0 0 0 .03-.45Zm-.09.81-.48.51c.22-.09.37-.2.44-.28l.04-.23Zm-2.27.07 1.1-1.3c-.12 0-.25 0-.38.02l-.78.91.06.37Zm-.1-.65.5-.58-.07.02a.9.9 0 0 0-.32.15.28.28 0 0 0-.11.23v.18Zm-.06.96c-.19 0-.36.02-.5.05l.63.67-.08-.47-.05-.25Zm.2 1.08-.94-.97a1.5 1.5 0 0 0-.3.13l1.3 1.3-.07-.46Zm.07.78-1.48-1.5c-.07.06-.13.13-.18.2l1.62 1.58.04-.28Zm-.12.5-1.65-1.62c-.08.14-.13.3-.15.48l1.6 1.4a.96.96 0 0 0 .2-.27Zm-.37.39-1.46-1.28.01.4 1.17 1c.1-.02.2-.07.28-.12Zm-.52.19-.88-.76c.05.28.14.55.23.77h.45l.2-.01Zm-.8.22h-.3l.4.37a1.9 1.9 0 0 0-.1-.37Zm.12.67-.72-.67h-.42l1.07.94a.86.86 0 0 0 .07-.27Zm-.18.45-1.27-1.12h-.12c-.15 0-.28.01-.4.03l1.52 1.33c.1-.07.2-.15.27-.24Zm-.47.34-1.57-1.37c-.16.05-.28.12-.39.2l1.6 1.3c.12-.03.25-.08.36-.13Zm-.62.19-1.5-1.23c-.11.13-.2.27-.25.42l1.17.88.58-.07Zm-.91.08-.9-.67c-.04.2-.04.42-.02.61.27.04.6.06.92.06Zm-1.1.15-.33.07.52.42-.14-.3h-.01v-.02a2.27 2.27 0 0 1-.04-.17Zm.34.88-.9-.73c-.11.04-.21.1-.3.15l1.3.95a3.9 3.9 0 0 0-.1-.37Zm.15.67-1.53-1.12c-.11.1-.2.22-.28.35l1.82 1.06-.01-.3Zm0 .52-1.9-1.1c-.07.14-.1.3-.13.46l1.91.97a1.17 1.17 0 0 0 .11-.34Zm-.27.48-1.77-.9.01.4 1.32.7c.18-.05.33-.12.44-.2Zm-.73.29-1-.53c.05.24.12.46.2.65.28-.03.55-.07.8-.12Zm7.79-7.88c.19 0 .36.02.5.05l-.63.67.08-.47.05-.25Zm-.2 1.08.94-.97c.11.03.21.08.3.13l-1.3 1.3.07-.46Zm-.07.78 1.48-1.5c.07.06.13.13.18.2l-1.62 1.58a1.3 1.3 0 0 1-.04-.28Zm.12.5 1.65-1.62c.08.14.13.3.15.48l-1.6 1.4a.96.96 0 0 1-.2-.27Zm.37.39 1.46-1.28-.01.4-1.17 1a1.3 1.3 0 0 1-.28-.12Zm.52.19.88-.76c-.05.28-.14.55-.23.77h-.45l-.2-.01Zm.8.22h.3l-.4.37c.01-.11.05-.23.1-.37Zm-.12.67.72-.67h.42l-1.07.94a.86.86 0 0 1-.07-.27Zm.18.45 1.27-1.12h.12c.15 0 .28.01.4.03l-1.52 1.33c-.1-.07-.2-.15-.26-.24Zm.47.34 1.57-1.37c.16.05.28.12.39.2l-1.6 1.3a2.37 2.37 0 0 1-.36-.13Zm.62.19 1.5-1.23c.11.13.2.27.25.42l-1.17.88-.58-.07Zm.91.08.9-.67c.04.2.04.42.02.61-.27.04-.6.06-.92.06Zm1.1.15.33.07-.52.42.14-.3h.01v-.02l.04-.17Zm-.34.88.9-.73c.11.04.21.1.3.15l-1.3.95.1-.37Zm-.15.67 1.53-1.12c.11.1.2.22.28.35l-1.82 1.06.01-.3Zm0 .52 1.9-1.1c.07.14.1.3.13.46l-1.91.97a1.17 1.17 0 0 1-.11-.34Zm.27.48 1.77-.9-.01.4-1.32.7a1.63 1.63 0 0 1-.44-.2Zm.73.29 1-.53c-.05.24-.12.46-.2.65a6.44 6.44 0 0 1-.8-.12Z" fill="#65443F"/><path d="m35.29 34 .05.04c.24.15.66.6.66 1.26 0 .81-.5 1.67-1.74 2.22-.6.27-1.02.44-1.33.65-.29.2-.48.43-.59.83l-.34-.06c.13-.46.35-.75.7-1 .35-.23.81-.41 1.39-.67 1.12-.5 1.56-1.26 1.56-1.97 0-.51-.3-.86-.47-1a3.82 3.82 0 0 0-2.83 1.86V38H32v-1.88l.01-.03a4.14 4.14 0 0 1 3.2-2.08l.08-.01ZM21.14 34.36c.1-.19.27-.36.54-.36.21 0 .38.09.51.19s.22.22.27.3l-.19.08a.98.98 0 0 0-.22-.25.6.6 0 0 0-.37-.14c-.14 0-.26.09-.35.25-.08.16-.12.35-.12.5 0 .06.02.15.07.25s.12.2.2.29c.09.09.18.17.28.21.1.05.18.07.27.05h.33l-.23-.26.16-.1.36.38a.5.5 0 0 0 .23.04c.04 0 .07-.02.1-.04l.03-.03.05-.12.2.06a.46.46 0 0 1-.06.13.63.63 0 0 0-.03.13v.1l.03.03c.06.02.1.06.1.12 0 .04-.02.08-.04.1a1.11 1.11 0 0 1-.17.16 1.3 1.3 0 0 0-.1.1h.2a5.32 5.32 0 0 0 .45-.16l.06-.03.22-.08a1.91 1.91 0 0 0 .4-.2c.25-.17.47-.4.47-.64 0-.09-.05-.15-.13-.19a.84.84 0 0 0-.36-.07c-.15 0-.3.03-.41.07-.12.04-.2.09-.21.13l-.2-.07c.06-.1.2-.18.33-.23.15-.05.32-.07.49-.07.16 0 .33.02.46.09.14.07.24.18.24.34 0 .28-.21.52-.43.7.14.07.31.13.47.15a.58.58 0 0 0 .31-.04h.01l.15-.16a.72.72 0 0 0 .07-.26c0-.13-.06-.2-.12-.24a.37.37 0 0 0-.2-.06v-.18a.6.6 0 0 1 .33.1c.12.08.2.2.2.39a.86.86 0 0 1-.1.34.55.55 0 0 1-.18.2.26.26 0 0 0-.05.09c0 .02 0 .03.02.04.02.02.07.03.2.03.17 0 .28-.04.35-.1.13-.13.15-.33.13-.46l.2-.02c.03.15.02.4-.17.59-.07.1-.16.25-.18.37-.02.06 0 .1 0 .1s.01.02.08.01c.06 0 .1 0 .15-.02.16-.03.26-.1.31-.17.06-.08.07-.19.03-.32l.2-.05c.06.17.04.33-.05.46a.67.67 0 0 1-.39.24c-.06.14-.11.32-.1.47 0 .08.02.14.05.17.03.04.08.06.18.06.12 0 .2-.01.23-.03.04-.02.05-.03.06-.05v-.08a.3.3 0 0 0-.03-.06h-.26v-.17h.27l.02-.03a.66.66 0 0 0 .03-.24H27a.8.8 0 0 1-.04.3.35.35 0 0 1-.04.06l.04.09c.01.05.02.12 0 .18a.28.28 0 0 1-.15.15.3.3 0 0 1-.02.16.57.57 0 0 1-.14.2.8.8 0 0 1-.54.23.43.43 0 0 1-.17-.03.86.86 0 0 1-.25.35.6.6 0 0 1-.44.12 1 1 0 0 1-.4-.14 1.53 1.53 0 0 1-.3-.24l.16-.11c.07.07.16.14.26.2s.21.1.3.11c.1.01.19 0 .27-.07a.78.78 0 0 0 .24-.37.42.42 0 0 1-.02-.18c0-.07.02-.14.03-.2l.2.06a.53.53 0 0 0-.02.14c0 .06 0 .1.02.13a.1.1 0 0 0 .04.04l.08.02c.14 0 .28-.08.38-.17a.4.4 0 0 0 .1-.14v-.05h-.12c-.15 0-.27-.04-.35-.13a.43.43 0 0 1-.1-.28c0-.14.03-.3.08-.43-.1 0-.2-.02-.27-.1-.05-.06-.04-.15-.03-.22a.87.87 0 0 1 .06-.18.96.96 0 0 1-.18.01.62.62 0 0 1-.33-.07.2.2 0 0 1-.1-.18.95.95 0 0 1-.24 0 1.8 1.8 0 0 1-.61-.21 2.08 2.08 0 0 1-.43.2 1.12 1.12 0 0 0-.24.09l-.2.08-.3.1a.7.7 0 0 1-.32-.01c-.05-.02-.1-.04-.13-.09a.13.13 0 0 1 0-.13.37.37 0 0 1 .07-.1l.09-.07.03-.03.1-.1a.23.23 0 0 1-.1-.12.32.32 0 0 1-.01-.1h-.05a.74.74 0 0 1-.36-.06h-.49a.68.68 0 0 1-.4-.06 1.16 1.16 0 0 1-.34-.26c-.1-.1-.18-.22-.23-.33a.75.75 0 0 1-.09-.32c0-.16.04-.39.14-.57Z" fill="#5D4D4A"/><path d="M41.12 34.18h-.41c-.07 0-.1-.03-.1-.1-.03-.31 0-.61.08-.9.2-.73.32-1.41.31-2.17a7.74 7.74 0 0 0-1.6-4.91c-.27-.34-.76-.85-1.48-1.53-1.52-1.45-4.04-2.83-6.07-3.7-.3-.13-.62-.47-.85-.54a10.2 10.2 0 0 1-2.44-1.1c-.22-.13-.2-.23.05-.3l.32-.09a.8.8 0 0 1 .7.13c.18.13.4.26.68.38.46.2.63.76 1.14.94.5.17.62.05 1.03-.04.57-.14 1.1.4 1.57.62.6.28 1.2.48 1.81.62.2.05.38-.16.3-.34l-.36-.98a.27.27 0 0 1-.01-.12.28.28 0 0 1 .26-.24c.6-.02 1 0 1.42.53.35.46.83 1.11 1.43 1.96.46.65.91 1.11 1.66 1.23.2.03.37-.11.38-.3a1.1 1.1 0 0 0-.42-.92c-.12-.1 0-.28.14-.23.2.07.39.19.59.35.65.55 1.25 1.18 1.8 1.9a9.5 9.5 0 0 1 1.95 6c0 1.67-.29 3.57-.86 5.2-.15.43-.38.91-.7 1.46a13.56 13.56 0 0 1-4.26 4.92A18.27 18.27 0 0 1 28.55 45c-1.96 0-3.9-.3-5.74-.98-6.78-2.52-11.8-8.52-11.8-16 .01-3.08.92-6.09 2.66-8.82a16.46 16.46 0 0 1 4.2-4.43 20.66 20.66 0 0 1 5.32-2.78c1.96-.69 3.84-.95 5.86-.99a19.2 19.2 0 0 1 7.02 1.06c.13.05.24.12.32.2.04.03.05.09.04.14a.15.15 0 0 1-.12.1c-.45.04-.83.21-1.15.51-.17.16-.34.21-.55.28a.26.26 0 0 0-.18.2c-.02.1.03.2.1.25.11.07.27.11.48.13.06 0 .1.04.11.1.06.16-.08.5.2.54.73.1 1.49.08 2.28-.06.3-.05.44.38.55.56.03.06.09.1.15.12.07.01.14 0 .2-.03l1.1-.6c.24-.13.35.01.43.2.08.18.02.31-.17.39l-.83.31a.17.17 0 0 0-.06.05.16.16 0 0 0-.04.06l-.17.54a.3.3 0 0 1-.11.14c-.06.04-.2.07-.4.09-.34.03-.1.55.18.55h.62c.15 0 .26.13.22.27-.19.67-1.09.92-2 .9a11.1 11.1 0 0 1-1.83-.22A35.2 35.2 0 0 0 29 17c-2 0-3.42.4-5.06 1.25-3.79 1.99-6.93 6.12-6.94 10.47 0 2.7 1.01 5.13 2.67 7.3 1.71 2.23 4.3 3.63 6.76 4.91a7.85 7.85 0 0 0 3.47 1.09c1.41 0 2.68-.97 3.73-1.76a19.58 19.58 0 0 1 5.6-2.97c.14-.05.31-.2.36-.4.14-.67.59-1.05.93-1.57.2-.3.43-.61.7-.96.09-.12.06-.18-.1-.18Z" fill="#4577AC"/><path d="M33.45 29 30 32.62V39h.82v-5.97L34 29.69l-.55-.69ZM25.55 29 29 32.62V39h-.82v-5.97L25 29.69l.55-.69Z" fill="#4F943A"/><path d="m24.58 29.73 3.08 3.17-.58.68L24 30.4l.58-.68ZM34.42 29.73l-3.08 3.17.58.68L35 30.4l-.58-.68Z" fill="#4F943A"/><path d="m34.88 30.54-1.42 1.4-.25-.31 1.42-1.4.25.3ZM33.92 29.6 32.5 31l-.25-.3 1.42-1.41.25.3ZM24.12 30.54l1.42 1.4.25-.31-1.42-1.4-.25.3ZM25.08 29.6 26.5 31l.25-.3-1.42-1.41-.25.3Z"/></svg>