<!-- by TradingView --><svg width="56" height="56" viewBox="0 0 56 56" xmlns="http://www.w3.org/2000/svg"><path fill="#F0F3FA" d="M0 0h56v56H0z"/><path d="M43.9 30.05a4.58 4.58 0 0 0 .08-.61v.01c.02.1.02.2.01.3a15.25 15.25 0 0 1-2.53 7.07 17.1 17.1 0 0 1-5.51 5.12 15.23 15.23 0 0 1-5.35 1.87c-1.87.29-3.77.25-5.7-.11a15.22 15.22 0 0 1-6.97-3.25 16.48 16.48 0 0 1-4.65-6.1 14.5 14.5 0 0 1-1.18-4.46c-.17-1.55-.12-3.11.13-4.68.48-2.94 1.72-5.51 3.71-7.73a17.2 17.2 0 0 1 4.64-3.68 14.76 14.76 0 0 1 5.62-1.71 17.2 17.2 0 0 1 5.85.4c1.94.49 3.7 1.3 5.3 2.46.03.01.03.03.02.05l-.02.04h-.02a14.71 14.71 0 0 0-9.83-1.7c-1.63.28-3.14.84-4.53 1.7a14.54 14.54 0 0 0-5.35 5.62 14.12 14.12 0 0 0-.46 11.94 14.24 14.24 0 0 0 10.02 8.22c1.65.32 3.29.38 4.92.17 1.7-.22 3.24-.71 4.64-1.48a14.28 14.28 0 0 0 6.8-8.14c.09-.3.2-.75.35-1.32Z" fill="#DD411A"/><path d="M42 24.36c0 .01 0 .02-.02.03l-.03-.01a11.27 11.27 0 0 0-3.72-5.14 9.9 9.9 0 0 0-3.52-1.78 11.28 11.28 0 0 0-3.93-.34 9.93 9.93 0 0 0-6 2.55c-3.14 2.82-4.25 6.33-3.33 10.52.28 1.25.9 2.5 1.87 3.74a10.65 10.65 0 0 0 4.4 3.39 10.74 10.74 0 0 0 10.3-1.23h.04v.04a12.25 12.25 0 0 1-18.43-3.07c-.6-1-1.02-2.02-1.26-3.08a11.86 11.86 0 0 1 3.38-11.68 11.9 11.9 0 0 1 5.64-3c1.09-.24 2.2-.34 3.32-.29 3.51.17 6.42 1.6 8.73 4.31A11.84 11.84 0 0 1 42 24.36Z" fill="#F5BA3D"/><path d="m35.63 22.48 1.23-2.23c.1-.17.14-.16.14.03v6.49c0 .07-.06.1-.13.11h-.05c-.03 0-.05 0-.05-.03a13.33 13.33 0 0 0-1.28-3.86c-.28-.55-.84-1.06-1.35-1.55-.5-.48-1.09-.82-1.79-1.03a3.51 3.51 0 0 0-2.02-.07c-.73.21-1.34.69-1.83 1.43-.95 1.43-1.5 3.86-1.5 6.32 0 2.86.5 5.74 2.25 7.15.6.49 1.43.66 2.46.5 2.36-.37 2.31-2.04 2.29-3.97v-2.75c0-.36 0-.57-.36-.64a8.26 8.26 0 0 0-1.82-.21c-.02 0-.04-.01-.04-.03l-.02-.05.01-.07c.02-.03.04-.02.07-.02h8.18c.04 0 .05 0 .05.03v.05c0 .07-.03.1-.1.1-.74.06-1.5.15-2.3.26-.21.04-.53.2-.6.48-.04.16-.07.4-.07.73V35.71c0 .02-.02.04-.04.05a.07.07 0 0 1-.06.02l-.06-.01c-.03-.01-.05-.03-.05-.06 0-.54-.14-.97-.32-1.28-.24-.41-.44-.57-.96-.47-.52.1-.95.33-1.31.7a4.62 4.62 0 0 1-2.24 1.25 7.33 7.33 0 0 1-4.65-.82 6.52 6.52 0 0 1-2.76-3.34 9.86 9.86 0 0 1-.5-4.44 8.4 8.4 0 0 1 4.22-6.58 5.4 5.4 0 0 1 7.29 1.75l.03.02c.02 0 .03 0 .04-.02Z" fill="#1DA739"/></svg>