<!-- by TradingView --><svg width="56" height="56" viewBox="0 0 56 56" xmlns="http://www.w3.org/2000/svg"><path fill="#F0F3FA" d="M0 0h56v56H0z"/><path d="M24.21 32.46a24.58 24.58 0 0 0 8.72-6.68c3.43-4.18 5-8.96 4.7-14.35-.03-.56.05-.57.23-.05.93 2.68 1.06 5.42.4 8.22a19.59 19.59 0 0 1-6.17 10.3 20.1 20.1 0 0 1-13.46 5.28 17.5 17.5 0 0 1-5.84-.93.25.25 0 0 1-.17-.16 4.18 4.18 0 0 1-.2-1.13c-.18-3.3.46-6.28 1.91-8.93a16.02 16.02 0 0 1 10.38-7.9c3.42-.83 6.72-.48 9.92 1.03a.14.14 0 0 1 .07.15c-.6 2.55-1.6 4.95-3.02 7.2a26.96 26.96 0 0 1-5.7 6.44l-1.8 1.47c-.09.08-.08.1.03.04Z" fill="#015CA1"/><path d="M13.11 35.9c3.18.63 6.37.76 9.56.4 2.6-.3 5.1-1.03 7.5-2.21a16.2 16.2 0 0 0 5.17-3.93 33.93 33.93 0 0 0 3.92-5.72A50.28 50.28 0 0 0 43.3 15c.04-.12.07-.12.1 0 .05.16.08.36.08.59-.01 2.69-.25 5.1-.7 7.24a19.1 19.1 0 0 1-8.01 12.15c-6.21 4.13-14.14 4.1-21.22 2.76a.42.42 0 0 1-.36-.34l-.3-1.27c-.04-.2.03-.27.22-.23Z" fill="#00A033"/><path d="M26.01 20.53a2.5 2.5 0 1 0 5-.03 2.5 2.5 0 0 0-5 .03Z" fill="#ED7711"/><path d="M47 22.11c-.2 2.78-.85 5.52-1.93 8.23-1.48 3.69-4.1 7.28-7.36 9.46-5.3 3.52-11.85 3.8-18.02 2.44a45.64 45.64 0 0 1-9.52-3.25.3.3 0 0 1-.17-.28v-.55c0-.15.07-.2.22-.15a39.24 39.24 0 0 0 14.54 2.13c3.04-.14 6.04-.76 9.01-1.88 4.68-1.75 8.2-5.46 10.57-9.9a35.75 35.75 0 0 0 2.58-6.26c.07-.21.1-.2.08.01Z" fill="#00A033"/></svg>