<!-- by TradingView --><svg width="56" height="56" viewBox="0 0 56 56" xmlns="http://www.w3.org/2000/svg"><path fill="#F0F3FA" d="M0 0h56v56H0z"/><path fill-rule="evenodd" d="m30.26 19.03-.03-.01c-.92-1.2-2.17-1.9-3.69-2.68a12 12 0 0 0-7.6-1.17A12.78 12.78 0 0 0 8.19 25.8c-.44 2.76-.08 5.4 1.07 7.88a12.42 12.42 0 0 0 12.07 7.3 16.7 16.7 0 0 0 4.78-.96 9.73 9.73 0 0 0 4.21-3.1c.07-.1.11-.1.11.03v4a.06.06 0 0 0 .02.03.06.06 0 0 0 .04.02h7.44a.09.09 0 0 0 .08-.05v-9.59c0-.02.01-.05.03-.06a.09.09 0 0 1 .06-.03h7.85c.04 0 .06-.02.06-.05V24.4c0-.02 0-.03-.02-.04a.07.07 0 0 0-.05-.02h-7.8a.14.14 0 0 1-.1-.04.14.14 0 0 1-.03-.1v-1.94a.09.09 0 0 1 .08-.09h7.86a.06.06 0 0 0 .06-.05v-7.04c0-.02 0-.04-.02-.05-.01-.01-.03-.03-.05-.03H30.37l-.04.02a.05.05 0 0 0-.02.04v3.96l-.03.01h-.02Zm7.16 2.6a.07.07 0 0 1 .05-.02h7.92s.02 0 .03-.02l.01-.03v-5.93c0-.03-.01-.04-.04-.04H31a.1.1 0 0 0-.1.1v4.3c0 .03 0 .05-.02.06a.1.1 0 0 1-.05.03l-.39.11c-.05.02-.09 0-.11-.04a6.52 6.52 0 0 0-1.8-1.99c-.6-.41-1.3-.83-2.12-1.26-1.16-.62-2.35-1.01-3.56-1.19A12.37 12.37 0 0 0 8.92 30.96a12 12 0 0 0 10.8 9.47c1.12.11 2.33-.05 3.54-.23a9.98 9.98 0 0 0 7.18-4.43c.03-.04.06-.05.11-.04l.37.11c.05.02.08.05.08.1v4.4c0 .02 0 .05.03.07a.1.1 0 0 0 .07.03h6.25a.08.08 0 0 0 .08-.08v-9.61c0-.02 0-.03.02-.05a.07.07 0 0 1 .04-.01h7.88c.04 0 .06-.02.06-.07v-5.67c0-.02-.01-.04-.04-.04h-7.92c-.01 0-.03 0-.05-.02a.07.07 0 0 1-.02-.05v-3.16c0-.02 0-.04.02-.05ZM31.41 32.7a9.55 9.55 0 0 1-4.7 5.7c-1.08.6-2.35 1-3.82 1.22-2.64.4-5.37.07-7.72-1.22a10.66 10.66 0 0 1-4.6-4.91 12.46 12.46 0 0 1-.88-8.33 11.14 11.14 0 0 1 10.8-8.73c1.53-.04 2.9.12 4.12.48 1.13.34 2.23.93 3.3 1.78 1.13.89 1.97 1.8 2.52 2.72.02.04.02.07-.01.1l-3.23 3.15a.09.09 0 0 1-.14-.02 6.6 6.6 0 0 0-10.97-.82 8.16 8.16 0 0 0-1.68 4.05c-.04.3 0 .71.12 1.25.63 2.78 2.73 5.68 5.9 5.88 1.18.07 2.32-.1 3.41-.52a5.01 5.01 0 0 0 2.94-3.42.08.08 0 0 0-.04-.06h-5.65l-.05-.02v-.01l-.03-.04v-3.9c0-.03.03-.04.06-.04h10.35a.07.07 0 0 0 .05-.02.07.07 0 0 0 .03-.05V16.6l.01-.04a.06.06 0 0 1 .05-.02H44.68v4.17a.06.06 0 0 1-.01.04.06.06 0 0 1-.05.02H36.7l-.01.03v4.64a.06.06 0 0 0 .06.06h8.03a.03.03 0 0 1 .03.01V29.84c0 .04-.01.06-.06.06h-8c-.01 0-.03 0-.04.02a.06.06 0 0 0-.02.04v9.32c0 .03 0 .06-.03.08a.12.12 0 0 1-.08.03H31.6a.13.13 0 0 1-.09-.03.12.12 0 0 1-.03-.09v-6.55c0-.17-.03-.18-.08 0Zm-10.98-.8v-5.63c0-.05.02-.07.07-.08.88-.02 4.31-.02 10.3-.01.06 0 .1-.03.1-.09v-3.76l-.02-.04a.06.06 0 0 0-.05-.02l-.03.01-3.6 3.14c-.03.03-.07.03-.1-.02a6.61 6.61 0 0 0-8.45-2.9c-.86.4-1.57.97-2.13 1.7-.6.78-.97 1.69-1.13 2.72-.15.92-.2 1.53-.16 1.84.34 2.58 2.77 5.1 5.47 5.27a7.6 7.6 0 0 0 3.22-.49c.78-.3 1.37-.8 1.75-1.53a.04.04 0 0 0 0-.04.04.04 0 0 0-.04-.02h-5.17a.04.04 0 0 1-.02-.01l-.02-.03Zm-.57.57v-6.76c0-.06.03-.08.09-.08h6.54c.07 0 .1-.03.05-.1a6.03 6.03 0 0 0-5.37-3.05c-.96.02-1.85.26-2.65.71a5.12 5.12 0 0 0-2.28 2.66 7.24 7.24 0 0 0-.4 2.1c-.06.7.03 1.32.25 1.87.24.58.58 1.14 1.03 1.66A5.3 5.3 0 0 0 21 33.5a6.15 6.15 0 0 0 3.51-.93v-.06s-.01-.02-.04-.01a1522.47 1522.47 0 0 0-4.6.02.06.06 0 0 1-.02-.03v-.01Zm10.46-8.92v2.04l-.01.03H27.94a.04.04 0 0 1-.04-.02v-.05l2.34-2.04a.05.05 0 0 1 .05 0l.02.01v.03Z"/></svg>