<!-- by TradingView --><svg width="56" height="56" viewBox="0 0 56 56" xmlns="http://www.w3.org/2000/svg"><path fill="#F26B35" d="M0 0h56v56H0z"/><path fill-rule="evenodd" d="M25.97 41.37a.64.64 0 0 1 .21-.28c.18-.12.4-.17.65-.16l2.25.12c.3.02.5.2.6.55l.57 2.01c.04.13.12.24.23.3.1.08.24.1.37.08l1.67-.28a.32.32 0 0 0 .27-.34c-.03-.72-.06-1.16-.09-1.32-.05-.34-.08-.77-.09-1.29 0-.3.05-.51.3-.68.47-.34 1.12-.7 1.94-1.1a.2.2 0 0 1 .16-.02c.25.07.46.18.62.33.77.72 1.4 1.28 1.9 1.7a.23.23 0 0 0 .29.01l1.62-1.26a.28.28 0 0 0 .06-.38l-1.7-2.52a.56.56 0 0 1 0-.63l1.1-1.62a.6.6 0 0 1 .65-.24l3.22.86a.5.5 0 0 0 .59-.27l.8-1.73a.2.2 0 0 0 0-.17c-.1-.25-.2-.41-.31-.5a4.95 4.95 0 0 0-.93-.46c-.64-.27-1.38-.62-2.2-1.05a.47.47 0 0 1-.26-.44l.14-1.81c.03-.4.25-.64.65-.71 1.38-.26 2.5-.5 3.37-.68a.49.49 0 0 0 .38-.52c-.07-.66-.18-1.27-.34-1.85-.08-.29-.31-.44-.68-.45l-3.34-.03a.47.47 0 0 1-.41-.24c-.2-.37-.34-.78-.43-1.23-.06-.27-.02-.46.11-.58.4-.36 1.22-1.09 2.48-2.17a.49.49 0 0 0 .09-.64L41.4 18.1c-.18-.27-.4-.32-.69-.17l-2.53 1.36c-.26.14-.53.18-.77-.03a9.93 9.93 0 0 1-1.26-1.25.83.83 0 0 1-.11-.8c.32-.9.66-1.8 1.04-2.74.13-.32.04-.56-.28-.7l-2.16-.99a.4.4 0 0 0-.52.17l-1.27 2.28c-.21.38-.5.52-.86.41l-2.05-.57a.65.65 0 0 1-.34-.23.63.63 0 0 1-.13-.37l-.08-2.13c0-.22-.12-.33-.34-.34H27.48c-.59 0-1 0-1.07.7l-.16 1.8c-.04.4-.18.66-.43.78-.07.03-.6.19-1.56.46-.56.16-.97-.32-1.22-.77-.44-.8-.81-1.45-1.1-1.93-.16-.25-.37-.32-.64-.2-.58.27-1.13.56-1.65.88l-.11.06c-.31.18-.5.3-.32.71.16.38.47 1.16.92 2.34.2.51.1.98-.29 1.41-.65.7-1.07 1.13-1.28 1.28-.43.32-1.04-.14-1.41-.45l-1.77-1.45c-.23-.18-.44-.16-.63.05l-1.45 1.55a.38.38 0 0 0 .01.54c.53.49 1.43 1.27 2.71 2.35.3.25.36.59.2 1.02l-.4 1c-.17.4-.4.63-.81.68-.88.11-1.78.17-2.7.18-.23 0-.47.04-.7.1-.31.08-.36.29-.4.6a57 57 0 0 1-.22 1.6.44.44 0 0 0 .36.51l3.4.66a.54.54 0 0 1 .43.4c.09.37.17.8.25 1.3.09.53-.06.89-.45 1.06l-2.93 1.28c-.36.15-.46.41-.31.77l.63 1.45c.17.36.43.77.84.64 1.07-.32 2.16-.6 3.26-.84.5-.1.85.54 1.14 1.07l.1.19c.2.34.17.66-.07.97-.5.64-1.13 1.4-1.9 2.3a.32.32 0 0 0 .02.44l1.61 1.48a.3.3 0 0 0 .41 0c.62-.53 1.3-1.16 2.05-1.88.55-.53.94-.31 1.54.01l.11.06c.36.2.68.4.94.6a.53.53 0 0 1 .22.42c0 .54-.01 1.46-.04 2.76-.01.53.6.65 1.07.73.32.05.63.09.95.12.21.02.37-.02.46-.1.12-.12.23-.34.33-.65.33-1.03.51-1.6.55-1.68Zm4.1-6.44a3.87 3.87 0 0 1-3.9-3.24.12.12 0 0 1 .1-.13l1.25-.25c.92-.21 1.77-.58 2.54-1.11a8.26 8.26 0 0 0 1.7-1.67.22.22 0 0 1 .24.03c.2.17.42.34.64.5.26.2.51.38.69.56a.9.9 0 0 0 .27.2l.12.02c.14 0 .27-.15.28-.29v-2.62c0-.17-.03-.3-.06-.4-.05-.16-.12-.27-.2-.32a81.41 81.41 0 0 1-.7-.49c-.17-.1-.35-.22-.35-.35.02-.36.03-.49.02-.88a.45.45 0 0 0-.13-.3c-.09-.1-.23-.19-.35-.19H26.7c-.43 0-.69.2-.71.6v1.6c0 .1-.03.2-.1.25l-1.67 1.33a.14.14 0 0 1-.2 0 6.95 6.95 0 0 1-.93-1.19 3.53 3.53 0 0 1-.07-3.58c.27-.44.62-.8 1.05-1.1a3.83 3.83 0 0 1 4.16-.21c.38.2.73.53 1.1.87a41.37 41.37 0 0 0 .23.2.23.23 0 0 0 .26-.1.86.86 0 0 0 .17-.46v-2.47a.9.9 0 0 0-.31-.6c-.33-.3-.73-.5-1.18-.64a7.58 7.58 0 0 0-3.54-.14 6.27 6.27 0 0 0-4.9 3.93 6.1 6.1 0 0 0 .7 6.28 8.76 8.76 0 0 0 2.04 2.03.34.34 0 0 1 .15.29c-.03 1.69.47 3.49 1.55 4.8a6.24 6.24 0 0 0 4.67 2.34 6.8 6.8 0 0 0 4.76-1.4 7.07 7.07 0 0 0 2.58-5.41.7.7 0 0 0-.06-.38c-.08-.13-.2-.2-.38-.2-2.11-.02-4.16-.03-6.14 0a.42.42 0 0 0-.41.4v1.92c0 .3.15.45.46.45h2.32a.14.14 0 0 1 .13.08.14.14 0 0 1-.02.15 3.13 3.13 0 0 1-2.35 1.3Z" fill="#fff"/></svg>