<!-- by TradingView --><svg width="56" height="56" viewBox="0 0 56 56" xmlns="http://www.w3.org/2000/svg"><path fill="#F0F3FA" d="M0 0h56v56H0z"/><path d="M20.52 34.85a8.9 8.9 0 0 1-6.02 1.3c-3.5-.44-6.6-2.32-7.84-5.7-1.68-4.51-.1-9.16 4.16-11.46 2.5-1.35 5.25-1.52 8.25-.53.4.14.63-.1.96-.27.68-.37 1-.76 1.78-1.17a.14.14 0 0 1 .14 0l.05.05c.01.02 0 .05 0 .07v5.05c0 .23-.07.27-.24.1-2.16-2.02-4.51-2.64-7.28-1.57-5.25 2.04-6.22 8.43-1.6 11.85 2.03 1.5 4.65 1.58 6.98.8a.34.34 0 0 0 .22-.43l-1.23-3.7a.36.36 0 0 0-.35-.24h-5.3c-.13 0-.2-.07-.2-.2v-1.56c0-.16.09-.24.25-.24H24.8a.2.2 0 0 1 .2.2v1.54c0 .17-.08.26-.25.26h-.28c-.13 0-.2.06-.23.19l-1.56 9.46c-.07.45-.2.47-.37.04l-1.55-3.75c-.05-.13-.13-.16-.24-.09ZM30.75 24.2 29 26.42a.12.12 0 0 1-.09.05.12.12 0 0 1-.1-.05l-1.8-2.18a.12.12 0 0 1 .03-.18c.02 0 .04-.06.06-.06h3.56a.12.12 0 0 1 .1.2ZM45.27 24.2l-1.68 2.2a.12.12 0 0 1-.15.03.12.12 0 0 1-.04-.03l-1.87-2.2a.12.12 0 0 1 .1-.2h3.55l.06.02a.12.12 0 0 1 .03.18ZM31.42 27c.2 0 .3.1.3.31v1.4c0 .2-.1.29-.27.29h-.84a.35.35 0 0 0-.21.09.4.4 0 0 0-.14.2c-.4 1.42-.81 2.93-1.22 4.52-.03.13-.09.19-.17.19-.08 0-.14-.06-.17-.19-.41-1.59-.82-3.1-1.23-4.52a.4.4 0 0 0-.13-.2.36.36 0 0 0-.22-.09h-.84c-.18 0-.27-.09-.27-.28v-1.4c0-.22.1-.32.3-.32h5.11ZM46.12 27c.2 0 .3.1.3.31v1.4c0 .2-.1.29-.27.29h-.84a.35.35 0 0 0-.22.09.4.4 0 0 0-.13.2c-.4 1.42-.81 2.93-1.22 4.52-.03.13-.1.19-.17.19-.08 0-.14-.06-.17-.19-.41-1.59-.82-3.1-1.23-4.52a.4.4 0 0 0-.14-.2.36.36 0 0 0-.22-.09h-.83c-.18 0-.27-.09-.27-.28v-1.4c0-.22.1-.32.29-.32h5.12Z" fill="#ED1C24"/><path d="M36 29.72a.13.13 0 0 0-.08-.05.12.12 0 0 0-.1.03c-.52.5-.9.9-1.13 1.2-.22.28-.2.69.06.99.06.07.15.11.24.11h.69c.21 0 .32.11.32.33v1.3c0 .24-.11.37-.34.37h-4.98c-.22 0-.34-.14-.34-.36v-1.3c0-.22.12-.34.34-.34h.97a.2.2 0 0 0 .12-.03.2.2 0 0 0 .07-.1c.6-1.8 1-3.28 1.21-4.2.12-.52.26-.53.44-.03a19.96 19.96 0 0 1 .5 1.74.15.15 0 0 0 .22 0c.47-.5 1.06-1.08 1.76-1.75.46-.42.85-.63 1.2-.63h1.37c.07 0 .2.15.23.22a54.97 54.97 0 0 0 4.72 8.43c.04.06.09.06.14.02l6.23-5.83a.04.04 0 0 1 .05 0l.06.04c.03.02.04.06.01.1l-6.36 8.96a.15.15 0 0 1-.24 0A201.29 201.29 0 0 1 36 29.73Z" fill="#ED1C24"/></svg>