<!-- by TradingView --><svg width="56" height="56" viewBox="0 0 56 56" xmlns="http://www.w3.org/2000/svg"><path fill="#F0F3FA" d="M0 0h56v56H0z"/><path d="M14.63 27.6a13.3 13.3 0 0 0 1.42 6.57c1.57 3.17 4 5.5 7.3 6.99 1.2.55 2.39.9 3.57 1.09 1.01.15 2.25.2 3.71.16a13.5 13.5 0 0 0 4.6-1.11c1.58-.65 2.98-1.54 4.2-2.66a.1.1 0 0 1 .08-.03c.03 0 .06.01.08.03l1.71 1.68a.1.1 0 0 1 .03.07.1.1 0 0 1-.03.07 17.52 17.52 0 0 1-10.11 4.45C20.83 45.97 11.72 37.79 12 27.54c.28-10.25 9.83-17.94 20.11-16.32a17.48 17.48 0 0 1 9.87 5 .1.1 0 0 1 0 .08.1.1 0 0 1-.02.03l-1.8 1.59a.11.11 0 0 1-.08.02.1.1 0 0 1-.08-.03 14.1 14.1 0 0 0-4.06-2.88 13.48 13.48 0 0 0-4.52-1.35c-1.46-.13-2.7-.14-3.72-.04-1.19.12-2.4.42-3.63.9a14.7 14.7 0 0 0-7.67 6.58 13.31 13.31 0 0 0-1.78 6.49Z" fill="#60157E"/><path d="M18.1 27.78a9.9 9.9 0 0 0 .2 2.56 11.3 11.3 0 0 0 5.65 7.44c1.54.87 3.23 1.33 5.09 1.38 3 .1 5.65-.84 7.93-2.81a.1.1 0 0 1 .13 0l1.74 1.7a.07.07 0 0 1 .02.05.07.07 0 0 1-.02.06 13.73 13.73 0 0 1-4.65 2.75c-9.22 3.2-18.95-3.53-18.7-13.2.27-9.67 10.36-15.9 19.39-12.2a13.69 13.69 0 0 1 4.51 3.04.07.07 0 0 1-.02.05l-1.82 1.6a.1.1 0 0 1-.14 0 11.21 11.21 0 0 0-7.77-3.22 11.34 11.34 0 0 0-11.2 8.25 10 10 0 0 0-.33 2.55Z" fill="#143AC3"/></svg>