<!-- by TradingView --><svg width="56" height="56" viewBox="0 0 56 56" xmlns="http://www.w3.org/2000/svg"><path fill="#F0F3FA" d="M0 0h56v56H0z"/><path d="M39.43 31.17a.49.49 0 0 0-.19-.35.7.7 0 0 0-.44-.13.8.8 0 0 0-.31.05.45.45 0 0 0-.2.16.39.39 0 0 0-.07.22c0 .07.01.13.04.19.03.05.07.1.13.13.05.04.11.07.18.1l.23.07.32.08c.16.04.3.09.44.15.13.06.25.14.35.24.1.09.17.2.22.32.06.13.08.27.08.43 0 .24-.05.45-.17.62-.1.18-.27.31-.48.4-.21.1-.46.15-.76.15s-.55-.05-.77-.14c-.21-.1-.38-.24-.5-.43a1.34 1.34 0 0 1-.2-.7h.75c0 .12.04.23.1.32.07.09.15.15.25.2.11.04.23.06.36.06.13 0 .25-.02.34-.06.1-.04.17-.1.23-.17a.4.4 0 0 0 .08-.25.34.34 0 0 0-.08-.22.55.55 0 0 0-.2-.15l-.34-.12-.4-.1c-.3-.08-.55-.2-.73-.38a.9.9 0 0 1-.26-.68c0-.24.06-.44.18-.62s.28-.31.49-.41c.2-.1.44-.15.71-.15.27 0 .5.05.7.15.21.1.37.23.48.41.11.18.17.38.17.61h-.73ZM34.39 34v-4h2.45v.7h-1.68v.95h1.55v.7h-1.55v.95h1.69v.7h-2.46ZM33.83 31.42h-.78a.85.85 0 0 0-.08-.3.72.72 0 0 0-.4-.34.86.86 0 0 0-.3-.05.82.82 0 0 0-.5.15.95.95 0 0 0-.32.43c-.07.2-.11.42-.11.69 0 .28.04.51.11.7.08.19.19.33.33.43.14.1.3.14.49.14.1 0 .2-.01.28-.04a.74.74 0 0 0 .24-.13.72.72 0 0 0 .17-.2.84.84 0 0 0 .1-.28h.77a1.58 1.58 0 0 1-.47.96c-.13.13-.3.23-.48.3-.18.08-.4.12-.63.12-.32 0-.61-.08-.87-.24a1.63 1.63 0 0 1-.6-.68c-.15-.3-.22-.66-.22-1.08 0-.42.07-.79.22-1.08.15-.3.35-.53.6-.68a1.76 1.76 0 0 1 1.45-.14 1.46 1.46 0 0 1 .83.72c.1.17.15.37.17.6ZM30 30v4h-.78v-4H30ZM26.13 30l.88 3.04h.03l.89-3.04h.85l-1.26 4h-.99l-1.26-4h.86ZM22.23 34v-4h1.44c.27 0 .5.05.7.16.2.1.35.26.45.46.1.2.15.42.15.69 0 .26-.05.5-.15.68-.1.2-.26.34-.46.44-.2.1-.43.15-.71.15h-.96v-.68h.84c.14 0 .26-.02.36-.06.1-.05.17-.11.22-.2.05-.1.07-.2.07-.33a.7.7 0 0 0-.07-.34.46.46 0 0 0-.22-.2.83.83 0 0 0-.37-.08H23V34h-.77Zm1.97-1.82.9 1.82h-.85l-.88-1.82h.83ZM19.22 34v-4h2.45v.7H20v.95h1.54v.7H20v.95h1.68v.7h-2.46ZM17.91 31.17a.49.49 0 0 0-.18-.35.7.7 0 0 0-.44-.13.79.79 0 0 0-.32.05.45.45 0 0 0-.2.16.39.39 0 0 0-.07.22c0 .07.02.13.05.19.03.05.07.1.12.13.05.04.12.07.19.1l.22.07.33.08c.16.04.3.09.44.15.13.06.24.14.34.24.1.09.17.2.23.32.05.13.08.27.08.43 0 .24-.06.45-.17.62-.11.18-.27.31-.48.4-.21.1-.47.15-.76.15-.3 0-.55-.05-.77-.14-.22-.1-.39-.24-.51-.43a1.34 1.34 0 0 1-.2-.7h.75c.01.12.05.23.1.32.07.09.16.15.26.2.1.04.22.06.36.06.13 0 .24-.02.34-.06.1-.04.17-.1.22-.17a.4.4 0 0 0 .08-.25.34.34 0 0 0-.07-.22.55.55 0 0 0-.21-.15l-.34-.12-.4-.1c-.3-.08-.54-.2-.72-.38a.9.9 0 0 1-.27-.68c0-.24.06-.44.18-.62s.28-.31.5-.41c.2-.1.44-.15.7-.15.27 0 .51.05.71.15.2.1.36.23.48.41.1.18.17.38.17.61h-.74ZM49.54 28v-4h2.45v.7h-1.68v.95h1.56v.7H50.3v.95H52v.7h-2.46ZM46.23 28v-4h1.44c.27 0 .5.05.7.16.2.1.35.26.45.46.1.2.15.42.15.69 0 .26-.05.5-.15.68-.1.2-.26.34-.46.44-.2.1-.43.15-.71.15h-.96v-.68h.84c.14 0 .26-.02.36-.06.1-.05.17-.11.22-.2.05-.1.07-.2.07-.33a.7.7 0 0 0-.07-.34.46.46 0 0 0-.22-.2.83.83 0 0 0-.37-.08H47V28h-.77Zm1.97-1.82.9 1.82h-.85l-.88-1.82h.83ZM45.68 26c0 .42-.07.79-.22 1.08-.15.3-.36.53-.61.69-.26.15-.55.23-.87.23a1.64 1.64 0 0 1-1.48-.92 2.4 2.4 0 0 1-.23-1.08c0-.42.08-.79.23-1.08a1.62 1.62 0 0 1 1.48-.92 1.62 1.62 0 0 1 1.48.92c.15.3.22.66.22 1.08Zm-.78 0c0-.27-.04-.5-.11-.7a.93.93 0 0 0-.33-.43.82.82 0 0 0-.48-.14.82.82 0 0 0-.49.14.94.94 0 0 0-.32.43c-.08.2-.12.43-.12.7 0 .28.04.5.12.7.07.18.18.33.32.43.14.1.3.14.49.14.18 0 .35-.05.48-.14.14-.1.25-.25.33-.43.07-.2.11-.42.11-.7ZM38.6 28v-4h.77v1.65h1.56V24h.77v4h-.77v-1.65h-1.56V28h-.77ZM37.3 25.17a.49.49 0 0 0-.19-.35.7.7 0 0 0-.44-.13.79.79 0 0 0-.32.05.45.45 0 0 0-.2.16.39.39 0 0 0-.06.22c0 .07 0 .13.04.19.03.05.07.1.12.13l.19.1.22.07.33.08c.16.04.3.09.44.15.13.06.25.14.34.24.1.09.18.2.23.32.05.13.08.27.08.43 0 .24-.06.45-.17.62-.1.18-.27.31-.48.4-.21.1-.46.15-.76.15s-.55-.05-.77-.14c-.22-.1-.39-.24-.5-.43a1.34 1.34 0 0 1-.2-.7h.75c0 .12.04.23.1.32.06.09.15.15.25.2.1.04.23.06.36.06.13 0 .24-.02.34-.06.1-.04.17-.1.23-.17a.4.4 0 0 0 .08-.25.34.34 0 0 0-.08-.22.55.55 0 0 0-.2-.15l-.34-.12-.4-.1c-.3-.08-.55-.2-.73-.38a.9.9 0 0 1-.26-.68c0-.24.06-.44.17-.62.12-.18.29-.31.5-.41.2-.1.44-.15.7-.15.28 0 .51.05.72.15.2.1.36.23.47.41.11.18.17.38.17.61h-.73ZM32.4 28v-4h2.4v.7h-1.64v.95h1.48v.7h-1.48V28h-.77ZM29.46 28v-4h2.41v.7h-1.64v.95h1.48v.7h-1.48V28h-.77ZM28.9 26c0 .42-.08.79-.23 1.08-.15.3-.36.53-.62.69-.25.15-.54.23-.86.23a1.64 1.64 0 0 1-1.48-.92 2.4 2.4 0 0 1-.23-1.08c0-.42.08-.79.22-1.08A1.62 1.62 0 0 1 27.2 24a1.62 1.62 0 0 1 1.48.92c.15.3.22.66.22 1.08Zm-.79 0c0-.27-.04-.5-.11-.7a.93.93 0 0 0-.33-.43.82.82 0 0 0-.48-.14.82.82 0 0 0-.5.14.94.94 0 0 0-.31.43c-.08.2-.12.43-.12.7 0 .27.04.5.12.7.07.18.18.33.32.43.14.1.3.14.49.14.18 0 .34-.05.48-.14.14-.1.25-.25.33-.43.07-.2.11-.43.11-.7ZM21.54 28v-4h.77v3.3h1.57v.7h-2.34ZM18.43 28h-.83l1.26-4h1l1.25 4h-.83l-.91-3.09h-.03L18.43 28Zm-.05-1.57h1.94v.66h-1.94v-.66ZM14.49 28v-4h1.46c.27 0 .49.04.67.13.18.09.31.2.4.36.1.16.14.33.14.54 0 .15-.03.29-.09.4a.8.8 0 0 1-.23.3.92.92 0 0 1-.34.15v.04c.14.01.27.05.39.13s.22.2.3.34c.07.14.1.3.1.5 0 .22-.04.4-.14.57a1 1 0 0 1-.42.4c-.18.1-.41.14-.68.14h-1.56Zm.77-.7h.63c.21 0 .37-.04.47-.13.1-.09.14-.2.14-.36 0-.11-.02-.2-.07-.3a.51.51 0 0 0-.2-.2.66.66 0 0 0-.33-.06h-.64v1.06Zm0-1.63h.57c.1 0 .2-.02.28-.06a.48.48 0 0 0 .27-.44.46.46 0 0 0-.14-.35c-.1-.1-.23-.14-.4-.14h-.58v1ZM13.92 26c0 .42-.08.79-.23 1.08-.15.3-.35.53-.6.69-.27.15-.56.23-.88.23a1.64 1.64 0 0 1-1.48-.92 2.4 2.4 0 0 1-.22-1.08c0-.42.07-.79.22-1.08a1.62 1.62 0 0 1 1.48-.92 1.62 1.62 0 0 1 1.48.92c.15.3.23.66.23 1.08Zm-.78 0c0-.27-.04-.5-.12-.7a.93.93 0 0 0-.32-.43.82.82 0 0 0-.49-.14.82.82 0 0 0-.48.14.94.94 0 0 0-.33.43c-.07.2-.11.43-.11.7 0 .28.04.5.11.7.08.18.19.33.33.43.13.1.3.14.48.14.19 0 .35-.05.5-.14.13-.1.24-.25.31-.43.08-.2.12-.42.12-.7ZM8 28v-4h.77v3.3h1.56v.7H8ZM6.48 25.31a.88.88 0 0 0-.1-.24.7.7 0 0 0-.39-.3.87.87 0 0 0-.27-.04.83.83 0 0 0-.5.15.96.96 0 0 0-.32.43c-.08.19-.12.42-.12.69 0 .27.04.5.12.69.07.19.18.33.32.43.14.1.31.15.5.15.18 0 .33-.03.45-.1a.68.68 0 0 0 .28-.28c.07-.12.1-.27.1-.43l.16.02h-.94v-.62H7.3v.5c0 .34-.06.63-.2.88-.13.24-.32.43-.56.56-.23.13-.5.2-.81.2-.34 0-.64-.08-.9-.24-.26-.16-.46-.4-.6-.7-.15-.3-.22-.65-.22-1.06 0-.31.04-.6.13-.84.08-.25.2-.46.36-.63A1.57 1.57 0 0 1 5.7 24a1.67 1.67 0 0 1 1.05.37 1.44 1.44 0 0 1 .51.94h-.78Z" fill="#2E8BCE"/></svg>