<!-- by TradingView --><svg width="56" height="56" viewBox="0 0 56 56" xmlns="http://www.w3.org/2000/svg"><path fill="#F0F3FA" d="M0 0h56v56H0z"/><path d="M12.5 22c.97.1 1.72.45 2.25 1.06.14.16.25.13.25-.09v-.76c0-.13.03-.21.16-.21h2.68c.1 0 .16.06.16.17v9.29a6.9 6.9 0 0 1-.47 2.85C16.43 36.54 13.9 37 11.67 37a4.85 4.85 0 0 1-4.47-3.16c-.12-.28-.02-.42.29-.42h2.92c.13 0 .23.04.3.14.55.66 1.22.95 2.01.85 1.49-.2 2.22-1.13 2.2-2.83 0-.14-.04-.15-.13-.05-.63.75-1.3 1.16-2 1.23-2.7.26-4.51-.88-5.44-3.43A5.46 5.46 0 0 1 12.5 22Zm.33 7.99c1-.13 1.81-.91 2.06-1.88.08-.33.1-.67.06-1-.17-1.35-1.4-2.44-2.79-2.26-1.39.17-2.3 1.54-2.12 2.88.13 1 .84 1.9 1.82 2.18.32.1.64.12.97.08ZM24.7 22a5.48 5.48 0 0 1 4.9 4.22.13.13 0 0 1-.06.1.13.13 0 0 1-.06 0h-2.74a.24.24 0 0 1-.22-.12c-.79-1.3-1.84-1.65-3.17-1.06-2 .9-1.75 4.44.6 4.93 1.05.22 1.9-.18 2.52-1.18.05-.1.14-.14.24-.14h2.69c.13 0 .18.06.14.2a5.36 5.36 0 0 1-8.06 3.2A5.68 5.68 0 0 1 20 24.23c1.13-1.6 2.85-2.22 4.7-2.22ZM38.73 23.66c.07.09.14.09.2 0A4.22 4.22 0 0 1 42.55 22c2.58.3 3.44 2.18 3.45 4.56.01 2.11.01 4.2 0 6.28 0 .1-.05.16-.15.16h-2.65c-.11 0-.2-.06-.19-.18V26.6c-.03-1.02-.72-1.55-1.74-1.57h-.06c-.65-.13-1.25.29-1.5.88-.08.2-.12.43-.12.66l-.01 6.25c0 .13-.07.19-.2.19h-2.75a.19.19 0 0 1-.13-.06.2.2 0 0 1-.06-.13v-5.44c0-.8-.06-1.32-.18-1.56-.3-.64-.83-.92-1.59-.83-.95.11-1.6.73-1.66 1.81v6.05c0 .1-.23.16-.33.16h-2.55c-.08 0-.12-.04-.12-.13V22.25c0-.17.08-.25.25-.25h2.51c.16 0 .24.08.24.24v1.03c0 .17.05.18.15.05A3.13 3.13 0 0 1 35.31 22c1.4 0 2.53.45 3.42 1.66Z"/><circle cx="50" cy="31" r="2" fill="#2043EE"/></svg>