<!-- by TradingView --><svg width="56" height="56" viewBox="0 0 56 56" xmlns="http://www.w3.org/2000/svg"><path fill="#F0F3FA" d="M0 0h56v56H0z"/><path fill-rule="evenodd" d="M27.33 12.92a.8.8 0 0 1-.08.29c-.02.02-.03.02-.05 0l-1.03-.95-.02-.01a.04.04 0 0 0-.03.01l-.01.02c-.16.62-.3 1.13-.44 1.52-.33.99-.65 1.89-.95 2.69-.22.57-.44 1.27-.6 1.8a9.15 9.15 0 0 0-.35 2.4c.07 1.17.52 2.19 1.38 3.05a9.84 9.84 0 0 0 2.6 1.85l.02-.01c.28-.23.54-.48.77-.74a23.73 23.73 0 0 0 3.18-4.51c.32-.6.59-1.22.8-1.89.4-1.25.1-2.7-.48-3.83a9.65 9.65 0 0 0-3.58-3.9 6.23 6.23 0 0 0-1.6-.7c-.06-.02-.08 0-.06.06.17.39.31.8.42 1.21.15.54.19 1.09.11 1.64Zm.75 13.36c.11-.24.25-.46.4-.65.27-.34.59-.69.94-1.04a39.64 39.64 0 0 1 3.2-2.76c.27-.2.6-.27 1-.2 1 .2 1.7.35 2.14.45 1.88.4 3.72 1 5.52 1.82a18.6 18.6 0 0 1 3.78 2.26c1.68 1.3 3.29 3.33 2.87 5.62-.29 1.6-1.51 2.94-2.81 3.89a15.7 15.7 0 0 1-3.02 1.73c-.85.37-1.73.7-2.64.98a34.55 34.55 0 0 1-6.27 1.34c-4.73.56-9.44.29-14.1-.82a30.22 30.22 0 0 1-4.54-1.45C11.6 36.23 8.1 33.96 8 30.33a4.84 4.84 0 0 1 1.56-3.46 13.92 13.92 0 0 1 3.68-2.58c2.37-1.19 4.9-2 7.58-2.45.86-.14 1.72-.22 2.57-.24.03 0 .05.02.06.05a7.74 7.74 0 0 0 2 3.15c.42.41.88.78 1.38 1.08.39.24.78.38 1.2.44.02 0 .04-.01.05-.04ZM35 33h5.76c.38 0 .21.59.15.78-.1.31-.24.5-.39.72l-.29.44a.12.12 0 0 1-.1.06H32v-8.75c0-.06.03-.13.08-.17a.29.29 0 0 1 .2-.08H35v7Zm-15-1.95v1.62c0 .03-.02.05-.05.05-1.18.07-2.25-.7-2.95-1.58-.3-.37-.46-.73-.5-1.07-.13-1.26.72-1.9 1.89-2.04.46-.05.98-.04 1.43-.04l.42.01h2.52c-.1-.5-.25-.97-.44-1.4a2.17 2.17 0 0 0-.29-.47c-.06-.08-.12-.12-.18-.12h-4.11c-.57 0-1 .02-1.29.07-1.15.18-2.24.67-2.73 1.74-.18.4-.27.92-.26 1.59.04 3.15 2.8 5.11 5.82 5.51.35.05.9.07 1.64.08h2.04l.02-.01.02-.02v-5.45c0-.19-.02-.3-.03-.33-.04-.13-.15-.19-.34-.19h-3.38a.26.26 0 0 0-.18.07.25.25 0 0 0-.07.18v1.71c0 .03 0 .04.03.04h.92c.03 0 .05.02.05.05Zm8.94-4.04L26.06 27a.06.06 0 0 0-.06.06l-.02 10.88c0 .03.03.06.06.06h2.88c.03 0 .06-.02.06-.06L29 27.07a.06.06 0 0 0-.06-.06Z" fill="#231F20"/></svg>