<!-- by TradingView --><svg width="56" height="56" viewBox="0 0 56 56" xmlns="http://www.w3.org/2000/svg"><path fill="#141A51" d="M0 0h56v56H0z"/><path d="M31 21a1 1 0 1 0 0-2 1 1 0 0 0 0 2ZM10.86 25.61a.25.25 0 0 0-.03-.2.26.26 0 0 0-.24-.14h-.46a.17.17 0 0 1-.12-.04.15.15 0 0 1-.05-.11v-1.4c0-.11.06-.17.17-.17h2c.05 0 .09.01.13.03.03.02.07.05.09.09.82 1.15.86 2.22.13 3.18a2.9 2.9 0 0 1-1.82 1.08 3.94 3.94 0 0 1-4.45-2.73 3.9 3.9 0 0 1 .39-3.33C7.32 20.62 8.55 20 10.27 20c.15 0 .46.05.92.14.17.03.26.13.26.3v1.8c0 .19-.09.24-.26.17-1.23-.51-2.58.14-2.7 1.42-.11 1.26.84 2.19 2.18 1.94.1-.02.16-.07.19-.16ZM22.15 22h.59c.13 0 .26.07.26.21v1.58c0 .14-.13.21-.26.21h-.57c-.1 0-.15.05-.15.16 0 .67.27 1.49.78 1.52.13 0 .2.08.2.22v1.93c0 .12-.06.18-.17.17-1.16-.08-1.97-.56-2.44-1.44a5.7 5.7 0 0 1-.4-2.6l.01-3.9.04-.04a.07.07 0 0 1 .04-.02h1.88c.02 0 .03 0 .04.02.02.01 0 .03 0 .05v1.8c0 .09.07.13.15.13ZM26.16 22.36l.25-.14.03-.02a.93.93 0 0 1 .04-.02c1.01-.23 1.8.02 2.2.77.22.41.33 1.07.32 1.97v3c0 .05-.05.08-.1.08h-1.84c-.04 0-.06-.02-.06-.07v-3.2c0-.3-.24-.43-.5-.41h-.02a.8.8 0 0 0-.23.02.36.36 0 0 0-.13.09.41.41 0 0 0-.09.13.45.45 0 0 0-.03.17v3.2c0 .02 0 .04-.02.05a.07.07 0 0 1-.05.02h-1.86a.07.07 0 0 1-.07-.07v-7.86c0-.05.02-.07.06-.07h1.87a.07.07 0 0 1 .07.07v2.19c0 .13.05.16.16.1ZM19.6 25a2.98 2.98 0 0 1-1.86 2.77 3.05 3.05 0 0 1-3.3-.65A2.99 2.99 0 0 1 16.58 22a3.05 3.05 0 0 1 2.8 1.85c.14.37.22.76.22 1.15Zm-2.13 0a.88.88 0 0 0-.56-.82.9.9 0 0 0-1.17.48.88.88 0 0 0 .2.97.9.9 0 0 0 1.53-.62ZM31.91 22h-1.82c-.05 0-.09.04-.09.1v5.8c0 .06.04.1.09.1h1.82c.05 0 .09-.04.09-.1v-5.8c0-.06-.04-.1-.09-.1Z" fill="#fff"/><path d="M16.8 32.75a.35.35 0 0 0 .2-.23.35.35 0 0 0-.04-.3c-.19-.26-.42-.33-.7-.2-.13.06-.26.23-.26.37v4.48c0 .09-.02.13-.1.13h-1.76c-.09 0-.14-.05-.14-.13v-3a7 7 0 0 1 .25-2.44c.59-1.44 2.67-1.92 3.94-.84.93.79 1.07 2.33.36 3.31-.4.56-1.09.82-2.07.79-.09 0-.13-.05-.13-.15v-1.47c0-.09.04-.15.12-.18l.33-.14ZM21.9 30h-1.8a.1.1 0 0 0-.1.1v6.8c0 .06.04.1.1.1h1.8a.1.1 0 0 0 .1-.1v-6.8a.1.1 0 0 0-.1-.1ZM26.27 34.11c-.6-.72-1.76.07-1.22.86.14.2.4.33.76.2.12-.05.19-.02.19.1v1.52c0 .06-.04.11-.08.15a.23.23 0 0 1-.16.06c-1.35-.01-2.12-.52-2.55-1.52-.97-2.28 1.57-4.24 3.8-3.19.8.38 1.23 1.04 1.3 1.96a48 48 0 0 1 0 2.68c0 .05-.02.07-.07.07h-1.72c-.05 0-.08-.02-.08-.07V34.9c0-.38-.05-.65-.17-.79ZM35.54 35.05c.3.26.87.25 1.1-.14l.1-.15a.2.2 0 0 1 .18-.1h1.56a.12.12 0 0 1 .1.04.12.12 0 0 1 .02.1c-.34 1.38-1.17 2.12-2.48 2.2-2.3.13-3.56-2.66-1.95-4.22a2.59 2.59 0 0 1 4.35 1.11c.03.11 0 .16-.12.16h-1.57a.5.5 0 0 1-.23-.05 12 12 0 0 0-.3-.16c-.8-.39-1.39.68-.76 1.21ZM44.2 34.5c0 .66-.27 1.3-.76 1.77a2.66 2.66 0 0 1-3.68 0A2.45 2.45 0 0 1 39 34.5c0-.66.27-1.3.76-1.77a2.66 2.66 0 0 1 3.68 0c.5.47.77 1.1.77 1.77Zm-1.84 0c0-.2-.08-.38-.22-.51a.78.78 0 0 0-1.08 0 .72.72 0 0 0-.22.51c0 .2.08.38.22.52a.78.78 0 0 0 1.08 0 .72.72 0 0 0 .22-.52ZM47.5 32c.97 0 1.83.47 2.23 1.23.18.33.27.78.27 1.34v2.32c0 .07-.07.11-.15.11h-1.77c-.07 0-.08-.03-.08-.1v-2.69c0-.11-.04-.2-.1-.27-.06-.07-.23-.11-.4-.11-.16 0-.34.04-.4.11a.4.4 0 0 0-.1.27v2.7c0 .06-.04.09-.1.09h-1.77c-.08 0-.13-.05-.13-.12v-2.32c0-.56.1-1 .28-1.34A2.49 2.49 0 0 1 47.5 32ZM32.65 33.98c-.1 0-.2.04-.29.1a.36.36 0 0 0-.13.26c-.1 1.76-1.06 2.65-2.87 2.66-.24 0-.36-.1-.36-.32V35.3c0-.25.14-.36.41-.33.31.04.52-.16.62-.6.09-.38.05-.94.24-1.31.44-.88 1.6-1.15 2.6-1.05.09 0 .13.05.13.13v1.69c0 .1-.05.14-.16.14h-.19Z" fill="#8FBFD2"/></svg>