<!-- by TradingView --><svg width="56" height="56" viewBox="0 0 56 56" xmlns="http://www.w3.org/2000/svg"><path fill="#F0F3FA" d="M0 0h56v56H0z"/><path d="M44.92 21.26a5.8 5.8 0 0 1-.7 1.74h-6.98l1.24-2H17.6L28 38l2.97-5h-3.42l-3.21-6h17.4l-8.92 15.32a5.65 5.65 0 0 1-9.63-.02L11.75 23.04c-2.13-3.58.54-8.04 4.81-8.04h22.88c3.5 0 6.05 3.07 5.48 6.26Z" fill="url(#a)"/><path d="M38.33 20.95h.15L37.19 23h7.03c.3-.55.59-1.12.7-1.74a5.35 5.35 0 0 0-3.38-5.87l-3.21 5.56Z" fill="url(#b)"/><path d="m27.92 37.89-3.35 5.97c-.53-.4-1-.93-1.38-1.56L11.75 23.04A5.29 5.29 0 0 1 14 15.59L17.84 21h-.23l10.31 16.89Z" fill="url(#c)"/><path d="m41.72 27.03-8.9 15.29a5.68 5.68 0 0 1-8.25 1.54l3.35-5.97.08.11 2.97-5h-3.42l-3.21-6H41.1l.6.03Z" fill="url(#d)"/><defs><linearGradient id="a" x1="13.92" y1="17.26" x2="40.54" y2="17.47" gradientUnits="userSpaceOnUse"><stop stop-color="#EC0190"/><stop offset="1" stop-color="#622D8F"/></linearGradient><linearGradient id="b" x1="44.46" y1="17.18" x2="37.72" y2="23.38" gradientUnits="userSpaceOnUse"><stop stop-color="#C2198B"/><stop offset="1" stop-color="#712B87"/></linearGradient><linearGradient id="c" x1="11.9" y1="17.27" x2="24" y2="42.51" gradientUnits="userSpaceOnUse"><stop stop-color="#5D2E90"/><stop offset="1" stop-color="#EA028E"/></linearGradient><linearGradient id="d" x1="40.54" y1="27.58" x2="25.83" y2="44.16" gradientUnits="userSpaceOnUse"><stop stop-color="#C5158E"/><stop offset="1" stop-color="#583291"/></linearGradient></defs></svg>