<!-- by TradingView --><svg width="56" height="56" viewBox="0 0 56 56" xmlns="http://www.w3.org/2000/svg"><path fill="#F0F3FA" d="M0 0h56v56H0z"/><path d="M21.72 35.63a9.52 9.52 0 0 0 6.74 2.25 9.8 9.8 0 0 0 6.27-2.6c.34-.3.68-.3 1 .03l3.15 3.1c.2.21.34.4.38.58.04.16 0 .32-.14.5-.13.19-.43.46-.9.84A16.02 16.02 0 0 1 12 27.71a16 16 0 0 1 25.65-12.46 16.08 16.08 0 0 1 5.4 7.37c.15.43-.05.63-.36.93l-.09.1a192.58 192.58 0 0 1-3.37 3.33c-.67.64-1.36 0-1.52-.7a13 13 0 0 0-.36-1.35 9.83 9.83 0 0 0-6.49-6.43 9.9 9.9 0 0 0-12.61 11.13 9.48 9.48 0 0 0 3.47 6ZM44 24.9v4.24a.27.27 0 0 1-.28.28h-4.24a.27.27 0 0 1-.2-.47l4.25-4.24a.27.27 0 0 1 .47.2Zm0 6.8a.69.69 0 0 0-.23-.5.72.72 0 0 0-.5-.2h-8.4c-.22 0-.54.02-.68.21-.19.26-.18.49.03.7a910.29 910.29 0 0 0 8.85 8.66c.21.2.45.22.7.03.2-.14.23-.45.23-.67V31.7Z" fill="#E31F25"/></svg>