<!-- by TradingView --><svg width="56" height="56" viewBox="0 0 56 56" xmlns="http://www.w3.org/2000/svg"><path fill="#F0F3FA" d="M0 0h56v56H0z"/><path d="M28 42.91V16.18c0-1.2.95-2.18 2.13-2.18h7.74c1.18 0 2.13.97 2.13 2.18v18.85A8.88 8.88 0 0 1 31.22 44h-2.16c-.58 0-1.06-.49-1.06-1.09Z" fill="url(#aqv43akgy)"/><path fill-rule="evenodd" d="M29 16.36v26.38c0 .15.1.26.26.26h2.15c4.4 0 7.59-3.66 7.59-8.16V16.36c0-.75-.4-1.36-1.13-1.36h-7.55c-.73 0-1.32.6-1.32 1.36Zm-1-.18V42.9c0 .6.48 1.09 1.06 1.09h2.16A8.88 8.88 0 0 0 40 35.03V16.18c0-1.2-.95-2.18-2.13-2.18h-7.74c-1.18 0-2.13.97-2.13 2.18Z" fill="url(#bqv43akgy)"/><path d="M23.92 37c.6 0 1.08-.48 1.08-1.07V15.07c0-.6-.48-1.07-1.08-1.07h-.3A11.56 11.56 0 0 0 12 25.5C12 31.85 17.2 37 23.63 37h.3Z" fill="url(#cqv43akgy)"/><path d="M23.45 36h.3c.15 0 .25-.08.25-.22V15.26c0-.15-.1-.26-.25-.26h-.3C17.48 15 13 19.6 13 25.5S17.48 36 23.45 36Zm1.55-.07c0 .6-.48 1.07-1.08 1.07h-.3A11.56 11.56 0 0 1 12 25.5C12 19.15 17.2 14 23.63 14h.3c.59 0 1.07.48 1.07 1.07v20.86Z" fill="url(#dqv43akgy)"/><defs><linearGradient id="aqv43akgy" x1="28.4" y1="16.53" x2="39.52" y2="35.9" gradientUnits="userSpaceOnUse"><stop stop-color="#FAFEFF"/><stop offset="1" stop-color="#5F7487"/></linearGradient><linearGradient id="bqv43akgy" x1="34" y1="14" x2="34" y2="44" gradientUnits="userSpaceOnUse"><stop stop-color="#82878A"/><stop offset="1" stop-color="#5E6C6F"/></linearGradient><linearGradient id="cqv43akgy" x1="15.1" y1="18.83" x2="22.16" y2="33.95" gradientUnits="userSpaceOnUse"><stop stop-color="#F8F8FA"/><stop offset="1" stop-color="#607588"/></linearGradient><linearGradient id="dqv43akgy" x1="18.5" y1="14" x2="18.5" y2="37" gradientUnits="userSpaceOnUse"><stop stop-color="#82878A"/><stop offset="1" stop-color="#5E6C6F"/></linearGradient></defs></svg>