<!-- by TradingView --><svg width="56" height="56" viewBox="0 0 56 56" xmlns="http://www.w3.org/2000/svg"><path fill="#00739F" d="M0 0h56v56H0z"/><path d="M7.34 26H7v.24c-.1-.08-.46-.24-1.08-.24-.8 0-1.92.5-1.92 1.98C4 29.47 5.05 30 5.92 30c.69 0 1.23-.2 1.42-.31v-.93c0-.2.15-.35.34-.35h.15v-.2H6.07v.2h.34c.19 0 .34.16.34.35v.71c-.05.09-.29.26-.78.26-.75 0-1.27-.8-1.27-1.63 0-.83.23-1.86 1.22-1.86.78 0 1.08.81 1.12 1.22h.3V26Zm1.02 2.63V30h.32l.06-.29c.07.1.38.3 1.03.3.81 0 1.46-.54 1.46-1.17 0-.63-.54-.98-1.46-1.25-.92-.28-1-1.3-.08-1.3.74 0 1 .72 1.05 1.09H11V26h-.26l-.1.28c-.12-.09-.45-.28-.87-.28-.7 0-1.29.35-1.29 1.06 0 .72.73 1.07 1.38 1.26.65.19.74.66.74.68.02.25-.1.73-.79.73-.8 0-1.09-.73-1.13-1.1h-.32Zm8.62 1.33v-1.33h.3c.04.37.31 1.1 1.07 1.1.64 0 .76-.48.74-.73 0-.02-.08-.5-.7-.68-.61-.2-1.3-.54-1.3-1.26 0-.71.57-1.06 1.22-1.06.4 0 .7.19.81.28l.1-.22h.26v1.32h-.26c-.04-.37-.3-1.1-.99-1.1-.86 0-.78 1.03.08 1.3.86.28 1.37.63 1.37 1.26S19.08 30 18.31 30c-.61 0-.9-.2-.97-.29l-.06.25h-.3Zm32.32-1.33V30h.3l.05-.29c.07.1.36.3.98.3.76 0 1.37-.54 1.37-1.17 0-.63-.51-.98-1.37-1.25-.87-.28-.95-1.3-.08-1.3.7 0 .95.72 1 1.09h.25V26h-.26l-.1.28a1.3 1.3 0 0 0-.81-.28c-.66 0-1.22.35-1.22 1.06 0 .72.69 1.07 1.3 1.26.62.19.7.66.7.68.02.25-.1.73-.75.73-.75 0-1.02-.73-1.06-1.1h-.3Zm-37.4-2.39V26h1.66v.24h-.27a.3.3 0 0 0-.29.29v2.94c0 .16.14.28.29.28h.9c.17-.1.51-.46.59-.96h.25l-.1 1.21H11.9v-.25h.22c.15 0 .27-.12.27-.28v-2.94a.28.28 0 0 0-.27-.29h-.22Zm8.62-.24v.24h.22c.16 0 .26.13.26.29v2.94c0 .16-.1.28-.26.28h-.22V30h3.17l.11-1.2h-.25c-.08.5-.42.84-.59.95h-1.04a.28.28 0 0 1-.28-.28v-1.43h.52c.3 0 .55.26.55.57v.12H23v-1.56h-.29v.06c0 .3-.25.56-.55.56h-.52v-1.53h.88c.4 0 .75.34.75.77h.3V26h-3.05Zm24.98.24V26h3.05v1.03h-.3a.76.76 0 0 0-.75-.77h-.88v1.53h.52c.3 0 .6-.25.6-.56v-.06H48v1.56h-.26v-.12c0-.31-.3-.57-.6-.57h-.52v1.43c0 .16.12.28.28.28h1.04c.17-.1.51-.46.59-.96h.25l-.1 1.21H45.5v-.25h.22c.16 0 .28-.12.28-.28v-2.94a.28.28 0 0 0-.28-.29h-.22Zm-17.88 2.71-.26-.14c-.2.48-.48.86-1.22.86S25 28.95 25 28.07c0-.88.27-1.8 1.14-1.8.7 0 1.01.8 1.08 1.2h.2v-1.4h-.25l-.12.23c-.11-.1-.45-.3-.9-.3-1.21 0-1.89.9-1.89 1.93 0 1.02.53 2.07 1.74 2.07.98 0 1.49-.7 1.62-1.05Zm.2-2.73V26h1.66v.22a.48.48 0 0 0-.48.48v2.05c0 .5.4.9.91.9h.15c.5 0 .94-.4.94-.9v-2.04c0-.27-.25-.49-.52-.49h-.2V26h1.66v.22h-.14a.5.5 0 0 0-.5.49v1.9A1.4 1.4 0 0 1 29.9 30h-.15a1.4 1.4 0 0 1-1.41-1.39v-1.9a.5.5 0 0 0-.5-.49Zm4.66-.22v.21h.24c.16 0 .28.13.28.29v2.94c0 .2-.15.36-.35.36h-.17v.2h1.75v-.2h-.22a.36.36 0 0 1-.36-.36V28.2h.38l1.25 1.8h1.17v-.21h-.1a.72.72 0 0 1-.56-.29l-1.1-1.46c.47-.18.96-.52.96-1.08 0-.75-.68-.95-1.02-.96h-2.15Zm1.16 1.91v-1.69h.52c.25 0 .75.16.75.77 0 .7-.58.91-.87.92h-.4ZM36.75 26v.26h.32c.15 0 .27.12.27.28v2.95c0 .15-.12.28-.27.28h-.32V30h1.8v-.23h-.32c-.15 0-.23-.13-.23-.28v-2.95c0-.16.08-.28.23-.28h.32V26h-1.8Zm6.03.26V26h1.79v.26h-.32c-.15 0-.25.12-.25.28v2.95c0 .15.1.28.25.28h.32V30h-1.8v-.23h.32c.15 0 .28-.13.28-.28v-2.95a.28.28 0 0 0-.28-.28h-.31ZM39 26v1.09h.24c0-.46.36-.83.8-.83h.35v3.23c0 .16-.12.28-.28.28h-.31V30h1.8v-.23h-.32a.29.29 0 0 1-.28-.28v-3.23h.38c.45 0 .8.37.8.83h.23V26H39Z" fill="#fff"/></svg>