<!-- by TradingView --><svg width="56" height="56" viewBox="0 0 56 56" xmlns="http://www.w3.org/2000/svg"><path fill="#F0F3FA" d="M0 0h56v56H0z"/><path d="M29.32 12.2c-.26-.09-.26-.15.02-.18.39-.04.8-.02 1.21.06 3.31.64 6 2.47 8.06 5.5.05.06.04.12-.04.17l-1.24.71c-.08.05-.14.03-.19-.05-1.74-2.99-4.35-5.06-7.82-6.21Zm6.57 7.6-1.42.81c-.08.05-.14.03-.19-.04-3.39-5.5-8.33-7.25-14.82-5.25-.51.16-.57.06-.15-.29 3.38-2.84 7.2-3.21 11.48-1.13a10.23 10.23 0 0 1 5.19 5.64c.04.11 0 .2-.1.26ZM13.06 24.2a12 12 0 0 1 3.41-4.06c1.94-1.56 4.37-2.32 7.28-2.28a10.9 10.9 0 0 1 8.43 3.94c.13.16.3.2.49.15.23-.07.42-.18.57-.35.1-.12.12-.25.04-.4-1.3-2.39-3.01-3.98-5.15-4.77a13.1 13.1 0 0 0-8.34-.25c-4.12 1.18-6.63 3.77-7.53 7.79-.52 2.35-.26 2.43.8.23Zm-.47 6.12c.08-2.27.65-4.31 1.7-6.13a10.67 10.67 0 0 1 4.05-4.01 9.92 9.92 0 0 1 5.5-1.27c2.1.12 4.12.83 6.09 2.13.38.26.35.34-.1.23a14.05 14.05 0 0 0-9.91 1.1 9.15 9.15 0 0 0-4.85 6.01c-.69 2.5-.62 5.1.21 7.84.17.55.05.62-.35.22a7.82 7.82 0 0 1-2.34-6.12Zm12.4 13.33c-4.55-3.06-6.84-6.6-6.86-10.63-.03-4.03 2.21-7.6 6.72-10.72.43-.3.39-.4-.13-.31-3.9.68-6.62 2.84-8.17 6.45-.6 1.39-.9 2.92-.88 4.6.01 1.67.32 3.2.94 4.57 1.6 3.6 4.36 5.72 8.26 6.35.52.09.56-.02.12-.31Zm-.26-5.44c2.69 2.66 6.55 3.67 11.59 3.02.51-.07.55.03.11.3a11.41 11.41 0 0 1-7.11 1.64 10.28 10.28 0 0 1-6.62-2.91 10.24 10.24 0 0 1-2.97-6.6c-.24-2.6.3-4.97 1.59-7.1.27-.44.38-.4.31.11-.62 5.04.42 8.88 3.1 11.54ZM34.85 29c.24 0 .4.15.3.37l-.52 1.14c-.12.27-.05.31.2.12a3.44 3.44 0 0 0 1.4-2.3c.02-.22-.07-.33-.29-.33h-8.2c-.22 0-.33.11-.33.33v.3c0 .18.09.37.28.37h7.16Zm1.86-.25.12-.48c.05-.18.16-.27.33-.27h1.7c.25 0 .34.13.25.39a7.34 7.34 0 0 1-.85 1.98c-1.9 2.25-3.95 3.43-6.14 3.57-.64.04-.67-.1-.1-.4 2.73-1.46 4.3-3.05 4.69-4.79Zm-7.08 8.45c-1.21-.42-2.82-1.4-4.8-2.94-.05-.04-.06-.07-.03-.1l.1-.09c.08-.05.13-.07.18-.03a22.4 22.4 0 0 0 3.62 2.13 8.87 8.87 0 0 0 8.64-.55 11.7 11.7 0 0 0 5.36-7.25c.07-.25-.02-.37-.26-.37h-1.55a.56.56 0 0 0-.55.36 14.89 14.89 0 0 1-2.16 3.3c-3 3.57-7.34 4.2-12.98 1.9a.8.8 0 0 0-.57-.02l-.16.05c-.2.07-.36.02-.5-.15a10.38 10.38 0 0 0-1.65-1.69c-.2-.15-.25-.1-.16.12 1.75 4.96 4.8 7.8 9.13 8.53 3.24.55 6.07-.15 8.49-2.08 2.59-2.07 4-5.12 4.22-9.15 0-.07-.03-.1-.1-.12-.05-.02-.1 0-.13.06a20.34 20.34 0 0 1-4.14 5.82c-2.88 2.8-6.21 3.56-10 2.27Z" fill="#EF464A"/></svg>