<!-- by TradingView --><svg width="56" height="56" viewBox="0 0 56 56" xmlns="http://www.w3.org/2000/svg"><path fill="#3E3F9B" d="M0 0h56v56H0z"/><path fill-rule="evenodd" d="M11 36.7V19.3l4.41-4.3H40.6L45 19.3v17.4L40.59 41H15.4L11 36.7Zm2-.03V19.33L16.3 16h22.4l3.3 3.33v17.34L38.7 40H16.3L13 36.67Zm5.48-17.76.24-.91h5.01l.46.48-.65.7v.16l-.02.03c1.02.15 2.3.42 2.97.58.49-.21.63-.55.64-.69h.79v4.46h-.79c-.32-.57-1.53-1.7-3.86-1.78V25h6.82v-4.84c-.05-.3-.28-1-.85-1.43l.21-.73h5.26l.2.73c-.29.25-.91 1-.91 1.99V35h3.46c.57 0 1.96-.13 2.9-1.01l.54.62L38.3 38h-9.27v-.78c.35-.13 1.06-.74 1.06-2.11V28.5h-6.82v4.35c.56-.01 1.69-.3 1.69-1.38 0-1.07-.54-1.42-.82-1.45v-.8h3.72v4.92c.06.52.34 1.61.97 1.79v.62h-4.69v-.53c.13-.1.38-.4.42-.7l-1.3.2c-.03.5.11 1.54 1.02 1.7V38h-5.96v-.78c.3-.04.96-.5 1.23-2a8.17 8.17 0 0 1-5.61-8c0-4.62 3.44-6.84 5.16-7.37-.08-.64-.45-.9-.62-.94Zm1.84 2.46c-2.4.69-4.07 2.9-4.07 6.3 0 3 2.13 4.8 4.07 5.58V21.37Zm2.2 13.54c1.08-.07 1.89-.32 2.26-.43l.22-.06.13-.03c.14-.04.34-.1.57.03.25.15.17.5.1.66l-.41.75h1.95a6.56 6.56 0 0 1-.44-2.15v-3.7h-1.51c.17.24.52.86.52 1.49 0 1.56-1.45 2.18-3.39 2.21V27.5h8.57v7.91c-.1.4-.37 1.3-.58 1.59H37.7l1.16-1.56-.92.2c-.8-.02-2.64-.09-3.59-.2-.84-.1-1.22-.28-1.35-.38V20.1c0-.28.36-.88.73-1.09h-3.3c.22.31.66 1.07.66 1.6V26h-8.57v-4.85c2.35.1 4 .9 4.56 1.3v-1.87c-.1.08-.4.23-.76.23-.15 0-.38-.08-.68-.19-.62-.22-1.56-.57-2.84-.57h-.28c0-.28.09-.85.44-1.05h-3.3c.19.27.54.86.64 1.36-3.03.79-5.43 3.1-5.43 7.31 0 4.13 3.2 6.23 5.45 6.95v.8c-.1.4-.37 1.28-.58 1.58h3.37c-.2-.19-.59-.79-.59-1.66v-.43Zm-3.03-12.33v9.15c-.79-.42-2.36-1.95-2.36-4.66 0-2.73 1.57-4.14 2.36-4.5Z" fill="#fff"/></svg>