<!-- by TradingView --><svg width="56" height="56" viewBox="0 0 56 56" xmlns="http://www.w3.org/2000/svg"><path fill="#F0F3FA" d="M0 0h56v56H0z"/><path d="M18.22 29.02H16.2a.43.43 0 0 1-.4-.24l-.77-1.35a.87.87 0 0 1-.01-.89l1.07-2.03c.1-.18.25-.27.45-.27h6.15c.35 0 .65.13.9.38l1.19 1.21a.2.2 0 0 1 .05.2l-2.26 8.78a.62.62 0 0 1-.3.38 10.32 10.32 0 0 1-4.98 1.58 8.65 8.65 0 0 1-6.61-2.68 9.22 9.22 0 0 1-2.34-3.97 8.58 8.58 0 0 1-.05-4.6 11.56 11.56 0 0 1 2.9-5.2 17.72 17.72 0 0 1 6.2-4.13A29.52 29.52 0 0 1 28.16 14c1.87-.03 3.66.03 5.36.18 1.54.14 3.39.58 5.54 1.34 2.85.99 5.15 2.66 6.9 5a11.02 11.02 0 0 1 1.33 10.22 13.45 13.45 0 0 1-3.68 5.42 23.2 23.2 0 0 1-11.36 5.5c-1.18.22-2.52.33-4.04.33-1.92 0-3.27-.03-4.05-.08a30.5 30.5 0 0 1-4.1-.63 17.35 17.35 0 0 1-5.77-2.32.14.14 0 0 1-.07-.14c0-.06.03-.1.09-.13.36-.16.75-.37 1.15-.63.36-.23.7-.34 1.02-.33 1.63.06 3.1-.27 4.38-.96a1.3 1.3 0 0 1 .76-.04c1.68.4 2.84.65 3.47.75 2.18.34 4.32.4 6.43.18a27.08 27.08 0 0 0 5.3-1.61c.9-.42 1.68-.93 2.33-1.54a23.11 23.11 0 0 0 2.58-2.79c.83-1.08 1.43-2.2 1.82-3.37.47-1.44.5-2.7.1-3.8a7.6 7.6 0 0 0-1.88-2.8A7.8 7.8 0 0 0 39 20a27.6 27.6 0 0 0-15.7-.98c-2.74.61-5.08 1.66-7.02 3.15a7.59 7.59 0 0 0-2.62 3.34 4.65 4.65 0 0 0 .32 4.12 7.95 7.95 0 0 0 3 2.96.27.27 0 0 0 .4-.15c.46-1.26.78-2.35.96-3.27.03-.1-.02-.15-.12-.15Z" fill="#332A33"/><path d="M38.5 38.14a24.32 24.32 0 0 1-12.24 2.16 45.79 45.79 0 0 1-2.45-.23c-.86-.11-1.67-.29-2.43-.53-1.31-.4-2.4-.73-3.29-.95-.18-.05-.24-.15-.2-.3 0-.02.06-.04.18-.06a9.74 9.74 0 0 0 2.89-.86c.13-.07.28-.1.43-.07l2.84.56a20.74 20.74 0 0 0 13.09-1.45 8.94 8.94 0 0 0 2.66-1.79c1.19-1.2 2.2-2.45 3.04-3.75a8.54 8.54 0 0 0 1.46-4.43 6.93 6.93 0 0 0-1.45-4.41 10.91 10.91 0 0 0-2.82-2.67 19.18 19.18 0 0 0-9.4-3.07c-.39-.02-1.19-.05-2.4-.07-.9-.02-1.7.01-2.38.1-2.25.27-4.43.8-6.54 1.6-1.72.64-3.3 1.5-4.74 2.6a9.4 9.4 0 0 0-3.26 3.98 6.04 6.04 0 0 0 .7 5.62 5.77 5.77 0 0 0 5.3 3.02c.32-.01.52-.17.6-.47l1.6-5.54c.03-.12-.01-.18-.13-.18h-3.7a.19.19 0 0 1-.17-.1.2.2 0 0 1 0-.2l.91-1.75a.4.4 0 0 1 .36-.22c1.51 0 3.27 0 5.27.03.37 0 .7.1.96.27a72.1 72.1 0 0 0-2.58 9.1 8.5 8.5 0 0 1-5.96.82 6.28 6.28 0 0 1-3.08-1.68 8.24 8.24 0 0 1-1.97-2.94 8.18 8.18 0 0 1 .2-6.88c.31-.62.75-1.31 1.34-2.07a15.55 15.55 0 0 1 6.3-4.62 24.03 24.03 0 0 1 4.2-1.42c1.44-.32 3.21-.57 5.33-.75 2.09-.18 3.86-.18 5.31 0 1.97.23 3.88.62 5.75 1.14 1.12.32 2.33.87 3.61 1.64 1.17.7 2.14 1.57 2.92 2.6A13 13 0 0 1 47.03 26c.71 5.13-4.33 10.2-8.52 12.15Z" fill="#FC202F"/><path d="M27.86 19.54h3.62c.1 0 .18.04.24.11.32.43.58.9.77 1.42.03.08.03.16 0 .25L28.27 36.8c-.04.15-.14.22-.29.22h-3.39a.4.4 0 0 1-.33-.16c-.23-.3-.5-.7-.83-1.18-.13-.2-.2-.47-.18-.78.02-.4.05-.68.1-.82 2.13-7.4 3.48-12.14 4.07-14.21.06-.23.21-.34.45-.34ZM36.68 30.09c1.47-.32 2.83-.71 4.1-1.18a.17.17 0 0 1 .18.04c.05.05.07.1.05.18a8.34 8.34 0 0 1-3.68 5.03 21.14 21.14 0 0 1-5.79 2.4.29.29 0 0 1-.24-.03l-1.65-1.06c-.1-.07-.13-.15-.1-.26l4.13-15.1c.06-.23.21-.33.45-.3.8.08 1.59.24 2.38.5.59.17.98.41 1.19.7.26.4.54.76.83 1.13.05.06.07.13.04.21l-2.06 7.55c-.01.05 0 .1.04.14.03.04.08.06.13.05Z" fill="#332A33"/><path d="M30.78 20.14a641.22 641.22 0 0 0-3.96 14.14.1.1 0 0 0 .08.04c.02.09 0 .17-.06.23a.27.27 0 0 1-.2.08c-.84.04-1.67.05-2.48.04a.21.21 0 0 1-.18-.09.21.21 0 0 1-.03-.2l4.04-14.04c.05-.17.15-.26.32-.27.67-.06 1.38-.08 2.1-.07.14 0 .27.05.37.14ZM36.73 21.15c-.06.02-.1.06-.13.12-.74 2.55-1.6 5.67-2.57 9.37-.02.06 0 .12.06.18l-.18.83c-.01.06 0 .11.05.16.04.05.1.07.15.06a20.3 20.3 0 0 0 5.53-1.8c.23-.11.27-.07.1.14a8.96 8.96 0 0 1-2.24 2.02 18.62 18.62 0 0 1-6.82 2.53c-.25.04-.34-.06-.27-.31.47-1.73 1.59-5.73 3.36-12l.45-1.82c.03-.15.13-.23.29-.23.48.02.97.11 1.46.3.4.14.65.3.76.45Z" fill="#FC202F"/></svg>