<!-- by TradingView --><svg width="56" height="56" viewBox="0 0 56 56" xmlns="http://www.w3.org/2000/svg"><path fill="#808892" d="M0 0h56v56H0z"/><path fill-rule="evenodd" d="M7.86 24.6c-.1.03-.34.02-.74-.02a.4.4 0 0 1-.35-.28 1.06 1.06 0 0 1-.05-.14c0-.28.11-.41.33-.41h1.58c.25 0 .37.12.37.38v2.18c0 .15-.07.25-.2.3-.64.28-1.27.4-1.9.39a3.2 3.2 0 0 1-1.64-.45C4.19 25.9 3.8 24.8 4.1 23.22a2.5 2.5 0 0 1 1.57-1.99c.88-.36 1.87-.3 2.96.17.27.11.38.34.33.68l-.07.1c-.16.22-.37.28-.61.17l-.16-.07c-.4-.18-.73-.28-.98-.29-1.08-.04-1.7.44-1.87 1.44-.09.52-.07.98.04 1.4.14.5.43.83.85 1.02.4.17.96.2 1.7.07.1-.02.14-.08.14-.19V24.7c0-.1-.04-.13-.14-.1ZM41 21.5a.5.5 0 1 1-1 0 .5.5 0 0 1 1 0Zm-26 0a.5.5 0 1 1-1 0 .5.5 0 0 1 1 0Zm18.37-.5h.26c.2 0 .37.2.37.44v5.12c0 .24-.17.44-.37.44h-.26c-.2 0-.37-.2-.37-.44v-5.12c0-.24.17-.44.37-.44Zm-4.14 3c-.13 0-.23.08-.23.22v1.48c0 .18.11.3.27.36.21.1.45.1.7.04.08-.03.14 0 .2.06.1.11.12.27.09.47-.02.12-.1.2-.26.26-.25.1-.49.14-.7.13-.82-.08-1.27-.55-1.3-1.42v-1.44c0-.1-.03-.16-.12-.16h-.34c-.06 0-.11-.01-.15-.07-.14-.2-.14-.6 0-.8.04-.07.09-.13.15-.13h.38c.08 0 .1 0 .08-.1v-.45c.04-.29.22-.43.5-.43h.13c.27 0 .37.14.37.43v.46c0 .08.07.09.14.09h.75c.1 0 .16.07.2.17.05.2.05.58-.02.73-.03.08-.08.1-.15.1h-.69Zm22.28-1h-.79c-.1 0-.22-.03-.22-.12v-.41c0-.28-.07-.44-.38-.46-.37-.04-.47.03-.57.25-.05.12-.05.23-.05.47v.15c.01.08-.14.13-.23.12-.17 0-.46.04-.54.22a.87.87 0 0 0 .03.59c.03.07.1.2.18.2h.32c.09 0 .24.03.24.1v.37c-.04.97 0 1.6.17 1.9.32.55.84.7 1.78.6.32-.04.5-.2.53-.45l.01-.07c.04-.28-.09-.4-.39-.35-.43.06-.73 0-.92-.15l-.06-.04c-.05-.05-.12-.1-.12-.15v-1.64c0-.08.13-.13.22-.13h.74c.25 0 .37-.19.37-.41v-.28c0-.2-.1-.31-.32-.31Zm-39.6 3.57c-.3.28-.61.42-.91.43-.63.02-1.06-.2-1.32-.68a3.19 3.19 0 0 1-.17-1.33l-.01-1.48c0-.34.16-.51.49-.51h.07c.34 0 .5.17.5.52v2.06c0 .41.25.61.72.59l.07-.03c.4-.16.65-.46.65-.9v-1.79c0-.3.09-.45.39-.45h.14c.31 0 .47.16.47.49v3.03c0 .28-.14.43-.4.44-.38 0-.57-.1-.58-.35 0-.1-.04-.1-.1-.04Zm2.09.26c0 .2-.1.32-.3.37l-.38.11a.3.3 0 0 0-.2.18.28.28 0 0 0 0 .26c.17.32.6.33 1.31.04.17-.06.3-.2.42-.41.1-.2.15-.38.15-.56V23.4c0-.27-.13-.41-.4-.41h-.17c-.3 0-.43.15-.43.45v3.38Zm7.07-3.38c.25-.27.58-.42.98-.45.21-.01.35.1.42.36a.5.5 0 0 1 0 .07c.03.24-.08.39-.3.43-.33.07-.54.12-.63.16-.32.13-.54.36-.54.67v1.81c0 .35-.1.51-.42.5h-.1c-.32-.02-.47-.2-.47-.55L20 23.57c0-.44.24-.61.74-.52.1.01.18.14.23.37.02.08.05.09.1.03Zm16.53-.38a1.47 1.47 0 0 0-1.5.36c-.06.07-.1.05-.12-.04-.05-.3-.24-.4-.59-.35-.26.05-.39.21-.39.5v2.96c0 .33.16.5.47.5h.07c.32 0 .46-.17.46-.52v-1.8c0-.47.28-.74.72-.8l.05-.02c.44-.06.72.15.73.62v1.98c0 .36.12.54.42.54h.07c.34 0 .5-.18.5-.53.01-.99 0-1.7-.01-2.12-.03-.7-.33-1.13-.88-1.28Zm2.2 4.03c.1-.07.2-.17.2-.3v-3.36c0-.3.1-.44.4-.44h.17c.3 0 .43.14.43.41v3.3c0 .43-.14.75-.41.95-.23.17-.6.28-1.1.34a.44.44 0 0 1-.4-.17.31.31 0 0 1-.06-.34c.05-.13.15-.2.28-.21.2-.03.36-.09.48-.18Zm6.9-1.32c-.09-.17-.14-.43-.13-.79 0-.36.05-.62.16-.78.12-.2.33-.33.65-.38.13-.02.32.02.57.13.12.06.2.1.26.1.22.05.36-.05.42-.3l-.01-.14a.42.42 0 0 0-.26-.35c-1.08-.5-1.94-.3-2.57.54-.19.26-.28.65-.29 1.17a2 2 0 0 0 .27 1.17c.6.87 1.46 1.07 2.55.61a.42.42 0 0 0 .27-.35c.01-.09.02-.13.01-.14-.05-.25-.19-.35-.4-.31-.06 0-.15.04-.28.1-.25.1-.43.14-.57.11-.31-.05-.53-.18-.64-.39Zm-4.18-.36c-.03-.1 0-.16.1-.16h2.07a.3.3 0 0 0 .24-.1c.07-.08.1-.17.09-.28-.06-1.06-.5-1.67-1.3-1.84-.4-.08-.8-.04-1.15.12-.38.17-.65.45-.83.82a2.48 2.48 0 0 0-.13 1.7c.13.51.45.89.95 1.12.67.3 1.39.26 2.16-.14.14-.08.22-.2.23-.4v-.07c-.02-.23-.14-.33-.35-.28-.16.03-.37.1-.61.2-.32.12-.62.13-.9.01a1 1 0 0 1-.57-.7Zm.03-.85c0 .03 0 .04.03.04h1.5c.03 0 .04-.02.04-.05v-.02a.83.83 0 0 0-.23-.58.72.72 0 0 0-.55-.24h-.02c-.22 0-.4.08-.55.24a.84.84 0 0 0-.22.6Zm-24.1 1.96c-.06.1-.1.17-.15.2-.67.39-1.3.36-1.9-.1-.38-.28-.49-.72-.33-1.32.05-.18.19-.32.43-.43a4.5 4.5 0 0 1 1.84-.26c.14 0 .18-.07.14-.2l-.09-.33a.32.32 0 0 0-.27-.23c-.43-.07-.91 0-1.45.22-.22.09-.36 0-.4-.26l-.03-.13c-.04-.2.05-.34.26-.41a3.7 3.7 0 0 1 1.74-.26c.64.1 1.05.45 1.24 1.06l.02 1.27c0 .53 0 .97-.02 1.33a.2.2 0 0 1-.1.17.73.73 0 0 1-.75.02.18.18 0 0 1-.1-.17v-.15c0-.14-.03-.15-.09-.02Zm.01-.93c-.26.54-.6.75-1.02.62-.3-.1-.43-.3-.4-.62.03-.22.16-.33.38-.33h.84c.24 0 .31.1.2.33Zm5.03 1.1c.7.44 1.36.4 1.95-.13.07-.05.1-.04.1.04 0 .22.16.34.49.35.3 0 .46-.14.46-.45l.01-1.9c.01-.84-.33-1.35-1.02-1.54a3.34 3.34 0 0 0-2 .22c-.2.07-.28.2-.24.4l.02.14c.05.26.18.34.4.25.52-.22 1-.3 1.44-.23.15.02.24.1.29.24l.09.32c.04.14 0 .2-.14.2-1.46-.02-2.23.26-2.32.85-.08.58.07 1 .47 1.25Zm1.9-1.45c-.53-.04-.92 0-1.17.13-.2.1-.26.24-.18.44.13.36.39.5.79.4.35-.07.57-.35.66-.84.02-.08-.02-.13-.1-.13ZM15.1 32.5c0 .82.2 1.83.58 3.04.02.07.02.14-.02.21-.12.2-.29.28-.52.24-.13-.02-.25-.13-.36-.34A6.48 6.48 0 0 1 14 32.5c0-1.13.26-2.18.78-3.15.11-.2.23-.32.36-.34.23-.04.4.04.52.24.04.06.04.13.02.2a10.4 10.4 0 0 0-.57 3.05Zm2.89.05v1.85c0 .39-.1.58-.45.58h-.08c-.31 0-.47-.17-.47-.53v-5c0-.29.13-.44.4-.44h.23c.3 0 .37.17.37.5v1.81c0 .1.1.12.17.05l1.89-2.13c.2-.22.43-.29.7-.2l.1.02c.25.16.28.34.1.56a31.1 31.1 0 0 1-1.93 2.17c-.04.04-.04.08 0 .13l2.05 2.34c.2.22.18.44-.05.66l-.03.02c-.31.1-.55.07-.7-.1l-2.1-2.35c-.08-.1-.2-.08-.2.06Zm16.85 1.5-.49-.03c-.1-.01-.19-.09-.25-.22-.07-.14-.1-.3-.1-.5L34 29.36c0-.23-.1-.35-.3-.35h-.37c-.21 0-.32.12-.32.35a209.3 209.3 0 0 0 0 4.35c0 .52.2.9.6 1.12.37.22.77.24 1.21.07a.21.21 0 0 0 .13-.17c.04-.18.05-.36.02-.54-.01-.08-.05-.12-.12-.13ZM42 32.51c0 1.24-.25 2.3-.76 3.17-.17.3-.4.4-.68.27-.2-.1-.27-.24-.19-.46.36-1 .55-2 .55-2.99 0-1-.18-1.99-.54-2.98-.08-.22-.02-.37.18-.46.29-.13.51-.04.69.27.5.87.75 1.93.75 3.18ZM28.16 31c-.45.01-.8.16-1.05.45-.06.08-.1.07-.11-.03-.02-.25-.16-.38-.4-.41-.24-.03-.41.04-.51.23-.06.1-.08.28-.08.54L26 34.43c0 .37.17.56.51.57h.05c.35.01.44-.16.44-.52v-1.65a.9.9 0 0 1 .38-.7c.12-.1.34-.17.67-.23l.17-.04c.2-.04.31-.17.33-.4v-.09c-.02-.25-.15-.37-.4-.37Zm-4.48 3.17c-.62.1-1.01-.15-1.18-.76-.02-.1.01-.15.1-.15h2.16c.13 0 .2-.07.22-.2.08-.64-.06-1.16-.43-1.55a1.61 1.61 0 0 0-1.24-.51c-.51 0-.94.19-1.28.55-.39.4-.56.95-.53 1.63.05.78.4 1.31 1.04 1.61.66.3 1.35.28 2.08-.09.17-.08.28-.2.33-.35a.34.34 0 0 0-.08-.36c-.1-.1-.2-.13-.34-.08-.39.14-.67.23-.85.26Zm-1.14-1.61c0 .03.02.05.05.05h1.48c.02 0 .04-.02.04-.05v-.03a.81.81 0 0 0-.23-.57.71.71 0 0 0-.54-.24h-.04a.72.72 0 0 0-.54.24.8.8 0 0 0-.22.58v.02ZM31 34.63c-.66.48-1.29.5-1.88.06-.4-.3-.55-.72-.43-1.25.08-.35.38-.6.89-.73.37-.1.78-.13 1.22-.1.15.02.23-.05.23-.21v-.17c0-.21-.1-.33-.3-.37a2.26 2.26 0 0 0-1.35.19c-.22.09-.37.02-.46-.2a.55.55 0 0 1-.03-.08c-.04-.21.01-.36.15-.43.54-.29 1.13-.4 1.78-.31.83.1 1.22.62 1.18 1.56v1.94c0 .24-.1.38-.34.42-.3.05-.49-.04-.53-.27-.02-.08-.06-.1-.13-.05Zm-.03-1.37c.05 0 .08.03.07.08-.04.6-.31.9-.8.9-.46 0-.62-.23-.51-.73a.2.2 0 0 1 .13-.15c.3-.11.68-.15 1.11-.1Zm5.51 1.45c.68.42 1.3.38 1.86-.1.07-.06.12-.04.13.06.01.2.15.3.4.29.37 0 .54-.2.5-.6-.03-.34-.03-.98-.02-1.93.02-.76-.31-1.21-1-1.37a3.1 3.1 0 0 0-1.84.21.46.46 0 0 0-.25.22c-.05.1-.06.2-.02.3l.03.07c.1.23.25.3.47.19.4-.2.84-.26 1.34-.2.2.02.3.13.3.34v.21c0 .15-.08.22-.22.21-.38-.03-.79 0-1.22.1-.69.15-1 .54-.93 1.18.02.15.07.3.16.47.1.17.2.29.31.35Zm1.8-1.45-.53-.02c-.2 0-.36.04-.51.11-.17.09-.23.23-.19.41.04.18.09.3.16.38.06.08.17.1.34.1.53-.02.8-.3.83-.86 0-.08-.03-.12-.1-.12Z" fill="#fff"/></svg>