<!-- by TradingView --><svg width="56" height="56" viewBox="0 0 56 56" xmlns="http://www.w3.org/2000/svg"><path fill="#F0F3FA" d="M0 0h56v56H0z"/><path d="m6 36 4.75-7.62L28 31.83l17.25-3.45L50 36H6Z" fill="#243F90"/><path d="M12.82 23.85 18.26 16h18l5.44 7.85-14.44-2.84-14.44 2.84Z" fill="#FFCB0B"/><path d="M27 29v-5h4.3c.94 0 1.7.6 1.7 1.5s-.76 1.5-1.7 1.5h-2.98v2H27Zm4.03-4h-2.79v1h2.79c.49 0 .7-.22.7-.5s-.21-.5-.7-.5ZM18 26.48c0 1.36 1.16 2.46 3.93 2.46 2.77 0 3.93-1.1 3.93-2.46H22v.5h2.28c-.24.59-.98 1.02-2.35 1.02-1.72 0-2.43-.67-2.43-1.5s.73-1.5 2.43-1.5c.8 0 1.4.15 1.79.4l1.52-.4c-.6-.6-1.69-.98-3.31-.98-2.74 0-3.93 1.1-3.93 2.46Zm16-1.7v3.32c0 .43.36.9.8.9H40l-.75-1h-3.62c-.15 0-.26-.08-.26-.22V24h-.57c-.44 0-.8.35-.8.77Z"/></svg>