<!-- by TradingView --><svg width="56" height="56" viewBox="0 0 56 56" xmlns="http://www.w3.org/2000/svg"><path fill="#F0F3FA" d="M0 0h56v56H0z"/><path d="M27.5 38H13v-4.4h1.26c9.58 0 12.82-17.07 13.24-25.6v30Z" fill="#EE1F29"/><path d="M28.5 38H43v-4.4h-1.26C32.16 33.6 28.92 16.53 28.5 8v30Z" fill="#2F3593"/><path fill-rule="evenodd" d="M27.54 30.38c1.73 0 3.13-1.14 3.13-3.7l-.02-.47a.85.85 0 0 1 .61-.1v-2.28c-.66 0-.95.34-1.06.7A2.86 2.86 0 0 0 27.54 23c-1.73 0-3.13 1.24-3.13 3.69 0 1.42.47 2.43 1.2 3.03-.7.43-1.61 1.25-1.61 2.26 0 1.22.77 1.77 1.16 1.9-.39.17-1.16.8-1.16 1.86 0 1.34 1.35 2.26 3.94 2.26 2.6 0 4.06-1.31 4.06-3.66 0-2.36-2.45-2.82-3.9-2.82-1.28 0-2.65-.48-1.37-1.24.26.07.53.1.81.1Zm0-2.19c.5 0 .92-.66.92-1.49 0-.82-.41-1.5-.92-1.5-.5 0-.92.68-.92 1.5 0 .83.41 1.5.92 1.5Zm.3 5.58c.97 0 1.75.45 1.75 1 0 .56-.78 1-1.75 1s-1.75-.44-1.75-1c0-.55.78-1 1.75-1Z" fill="#F0F3FA"/><path fill="#2F3593" d="M13 39h30v2H13z"/></svg>