<!-- by TradingView --><svg width="56" height="56" viewBox="0 0 56 56" xmlns="http://www.w3.org/2000/svg"><path fill="#F0F3FA" d="M0 0h56v56H0z"/><path fill-rule="evenodd" d="m8 21.16.06 13.93c0 .02 0 .03.03.04L28.29 41h.02l19.6-5.87c.02 0 .03-.02.03-.04L48 21.16c0-.03-.01-.04-.03-.05l-19.84-6.1h-.02L8.03 21.1c-.02 0-.03.02-.03.05Zm25.18 12.88v.02c-3.36.43-6.73.44-10.1.03-1.4-.17-2.84-.44-4.3-.82-1.48-.39-2.84-.9-4.08-1.56a8.62 8.62 0 0 1-1.73-1.22 4.12 4.12 0 0 1-1.04-1.38 2.66 2.66 0 0 1-.18-1.7 3.5 3.5 0 0 1 1.02-1.71c.5-.5 1.07-.92 1.7-1.27.97-.55 2-1 3.12-1.35 1.54-.49 3.13-.85 4.76-1.08a40.7 40.7 0 0 1 10.47-.1c1.46.17 2.9.44 4.36.82 1.21.31 2.38.73 3.49 1.25.78.37 1.48.8 2.11 1.32.6.49 1.03 1.02 1.29 1.6.3.7.33 1.38.07 2.05a5.02 5.02 0 0 1-2.08 2.3 17.23 17.23 0 0 1-5.02 2.08c-.03 0-.03.02-.01.04l.96 1.08c.01.02.03.02.05.02 1-.35 1.97-.77 2.88-1.26a9.9 9.9 0 0 0 2.88-2.25 4.32 4.32 0 0 0 1.17-3.4 5.05 5.05 0 0 0-1.69-3.06c-.53-.5-1.1-.93-1.7-1.3a20.4 20.4 0 0 0-6.28-2.42 33.67 33.67 0 0 0-7.25-.77c-3.18 0-6.14.39-8.88 1.16-1.82.51-3.42 1.2-4.81 2.06a8.41 8.41 0 0 0-2.5 2.24 4.19 4.19 0 0 0 .16 5.28c.8 1.02 1.95 1.9 3.42 2.65.97.5 2 .91 3.06 1.24 1.34.43 2.71.74 4.12.96a35.38 35.38 0 0 0 13.03-.44 37.9 37.9 0 0 0-.97-1.14 3.71 3.71 0 0 1-.42-.52l-.4-.54-1.02-1.12a7.04 7.04 0 0 1-.63-.8L31 29.6c-.36-.43-.57-.7-.65-.85-.1-.2-.06-.33.12-.4l.55-.28c.35-.17.51-.46.47-.88a6.8 6.8 0 0 1-.01-1.02c.03-.12.06-.2.09-.23l.24-.25a.58.58 0 0 0 .12-.2c.04-.11.05-.2.03-.25-.03-.1-.11-.16-.25-.2a5.14 5.14 0 0 0-1.2-.05h-2.66c-.74.03-1.48.63-.86 1.36a2.96 2.96 0 0 1 .16.59c.08.7.09 1.83.04 2.53-.01.22.01.37.07.46.06.08.12.12.17.12.44 0 .8-.19 1.05-.55l.2-.28c.05-.06.1-.08.18-.04.09.04.18.12.27.23.44.55.89 1.08 1.34 1.57.5.56.97 1.12 1.41 1.7.37.47.8.93 1.29 1.35Zm-3.55-7.31c-.1-.08-.25-.12-.45-.1-.2.02-.34.08-.43.18a.38.38 0 0 0-.1.28c0 .09.04.18.11.26.06.08.14.14.23.18.1.05.19.07.28.06.08 0 .17-.04.25-.1a.67.67 0 0 0 .2-.23c.05-.1.07-.19.06-.28a.37.37 0 0 0-.15-.25Zm3.78-3.46a.87.87 0 0 0 0 1.2c.31.3.82.28 1.14-.06a.87.87 0 0 0 0-1.19.79.79 0 0 0-1.14.05Zm.02 1.83.05.02c.45-.06.83-.1 1.12-.11.34-.02.6 0 .79.04.18.05.23.17.16.36-.05.13-.16.3-.34.49l-.5.56a.55.55 0 0 0-.11.23c-.03.13-.04.33-.03.6l.03.65v.01c.01.4 0 .67-.03.84-.04.26-.15.5-.32.7-.22.26-.46.43-.72.5-.18.04-.32-.02-.4-.17a.9.9 0 0 1-.07-.49c.05-.79.06-1.54.02-2.26 0-.23-.04-.39-.08-.48-.07-.15-.23-.29-.48-.42-.02-.01-.03-.03-.03-.06 0-.31.08-.57.22-.75.15-.2.37-.3.66-.3.03 0 .05.01.06.04Zm-16.32 3.19c.11-.07.24-.07.38 0 .25.12.36.34.34.66 0 .17-.02.35-.04.55-.04.34.09.5.38.48.2 0 .4-.11.6-.32.19-.18.33-.39.42-.62.04-.1.06-.25.06-.44l-.01-1.53c0-.3.06-.57.2-.77.06-.08.18-.18.35-.3l.21-.16c.1-.1.18-.2.22-.32a.55.55 0 0 0-.02-.4.1.1 0 0 0-.04-.05.6.6 0 0 0-.32-.07c-.17 0-.42.03-.76.08a2.7 2.7 0 0 1-.67 0c-.29-.02-.47.11-.56.38-.03.1-.04.26-.04.49l.01.5c0 .18-.01.31-.05.4-.07.15-.17.24-.3.27-.23.04-.38-.05-.46-.28a2.06 2.06 0 0 1-.06-.67l-.01-.5a.67.67 0 0 0-.5-.54 1.34 1.34 0 0 0-1.23.24c-.19.14-.25.34-.19.6.02.07.08.17.19.3.17.24.26.57.26.99v2.3c0 .17.06.3.17.39.1.08.26.07.5-.04.15-.07.31-.16.46-.27a.57.57 0 0 0 .25-.43l.05-.56c.03-.17.1-.3.21-.36Zm19.47-1.82a.16.16 0 0 0-.1-.15c-.37-.19-.46-.43-.28-.71.16-.24.38-.4.66-.48.16-.05.43-.07.8-.08a7.29 7.29 0 0 0 .48-.01 7.85 7.85 0 0 1 1.47 0c.44.05.6.23.48.53-.07.16-.2.34-.42.56-.1.1-.15.17-.17.24-.07.18-.04.37.09.56l.06.09c.13.2.23.36.28.49.15.32.36.68.63 1.05l.14.26c.11.22.06.42-.16.6l-.38.3c-.24.2-.46.18-.64-.04a4.27 4.27 0 0 0-.4-.44 1.3 1.3 0 0 0-.42-.24c-.1-.05-.25-.07-.45-.07l-.33-.03a2.04 2.04 0 0 0-.59 0 .74.74 0 0 0-.48.37l-.3.48c-.19.26-.42.32-.7.16-.15-.08-.3-.2-.47-.34-.15-.14-.21-.3-.18-.49.03-.13.12-.3.26-.48.42-.54.76-1.1 1.02-1.66.07-.15.1-.31.1-.47Zm1.77 1.57a.74.74 0 0 1-.78-.2.09.09 0 0 1-.03-.07c0-.35.11-.6.34-.76.13-.09.26-.1.38-.04.1.06.18.17.22.34.03.14.05.28.04.4 0 .2-.06.3-.17.33Zm-12.67-.4c-.33-.5-.55-.9-.65-1.2-.03-.08 0-.15.06-.22l.48-.55c.11-.13.16-.24.17-.32.01-.21-.09-.33-.3-.34-.2-.02-.53 0-.99.02-.34.03-.67.04-1 .03-.49-.01-.83-.01-1.02.01-.32.03-.6.17-.85.4-.15.15-.21.3-.19.48.02.13.06.2.13.22l.32.07c.1.02.17.05.2.08.12.1.07.32-.13.63l-.16.33-.34.77c-.06.13-.13.25-.22.37-.13.17-.2.3-.24.36-.17.37-.1.66.2.89.22.15.44.25.67.3.12.01.22-.01.33-.08a1.79 1.79 0 0 0 .35-.35c.23-.24.53-.4.9-.44.28-.04.61-.02 1 .05.12.02.23.09.33.19.06.06.15.17.27.34l.02.04c.1.15.2.24.32.27.1.03.24 0 .4-.06.23-.11.42-.26.6-.44a.15.15 0 0 0 .03-.11c-.01-.38-.1-.73-.27-1.07a7.66 7.66 0 0 0-.42-.67Zm-2-.78h-.02c-.31.12-.48.42-.51.92-.01.12.04.22.16.3.1.06.2.1.31.1.11.01.22-.02.32-.07.12-.07.19-.17.19-.28 0-.5-.15-.82-.44-.97Z" fill="#1D407B"/></svg>