<!-- by TradingView --><svg width="56" height="56" viewBox="0 0 56 56" xmlns="http://www.w3.org/2000/svg"><path fill="#F0F3FA" d="M0 0h56v56H0z"/><path d="M26.51 22.07c.06 0 .1.01.13.03l.13.03c2.4.53 4.84.94 7.3 1.24.05 0 .08.03.1.07l.25.4c.02.04.01.06-.03.08h-.1c-1.4-.14-2.8-.4-4.23-.76-1.32-.33-2.6-.7-3.86-1.1-.1-.03-.1-.05 0-.06.05 0 .1 0 .18.04l.13.03Z" fill="#99CA4E"/><path d="M7.05 27.57a31.07 31.07 0 0 0 2.1-.1A25.67 25.67 0 0 0 9.1 25h.95c.03 0 .04.02.04.04-.1 1.98-.1 3.96 0 5.93 0 .02 0 .03-.03.03a6.06 6.06 0 0 0-.94 0c-.04 0-.05-.01-.05-.04.06-.77.08-1.71.06-2.84 0-.03-.01-.04-.05-.05a29.02 29.02 0 0 0-4.13.05c-.02 1.13 0 2.07.06 2.83 0 .04-.01.05-.05.05-.29-.03-.6-.03-.94 0C4 31 4 30.99 4 30.97c.1-1.98.1-3.96.01-5.93 0-.03.01-.04.04-.04H5a25.62 25.62 0 0 0-.02 2.5c.7.04 1.38.07 2.07.07ZM27.59 27.92c.01.02.02.02.04 0a31.73 31.73 0 0 0 1.9-2.92 9.6 9.6 0 0 0 .85.02c-.7.9-1.52 2-2.46 3.32a.15.15 0 0 0-.02.1c0 .86.03 1.7.08 2.53 0 .02 0 .03-.03.03h-.97c-.02 0-.03-.01-.03-.03.06-.76.06-1.55.05-2.37v-.08l-1.51-2.15c-.36-.5-.69-.94-1-1.33-.01-.02 0-.03.01-.03h1.18c.03 0 .05.01.06.03.61 1.05 1.23 2.01 1.85 2.88ZM43.37 29.46h.01c.02-1.66 0-3.14-.07-4.43 0-.02 0-.03.03-.03.2.02.42.02.63 0a61.9 61.9 0 0 0 .03 5.96c0 .02-.01.03-.04.03h-.16a.3.3 0 0 1-.14-.07c-1.54-1.43-3.21-2.9-5.02-4.4-.02 0-.03 0-.03.02a81.81 81.81 0 0 0 .06 4.46h-.65c-.02 0-.02 0-.02-.02.1-1.93.1-3.98 0-5.9 0-.02.01-.04.04-.04a.3.3 0 0 1 .31.06c.97.84 2.18 1.9 3.64 3.2.44.38.9.77 1.38 1.16Z" fill="#71706E"/><path d="M33.71 26.32c0-.01-.01-.02-.03-.02a189.35 189.35 0 0 0-1.43 2.72 33.14 33.14 0 0 0-.9 1.98h-.74c-.02 0-.02 0-.01-.02.7-1.2 1.23-2.15 1.58-2.84l1.58-3.05c.03-.06.08-.09.15-.09.07 0 .12.03.15.09l2.22 4.39a30.04 30.04 0 0 0 .83 1.48c.01.03 0 .04-.03.04h-1.02c-.03 0-.05-.02-.07-.04l-.2-.46c-.23-.5-.4-.88-.53-1.12-.3-.62-.82-1.64-1.55-3.06Z" fill="#0092DB"/><path fill-rule="evenodd" d="M24.19 30.96a52.56 52.56 0 0 1-2.8-2.96c0-.01.01-.02.03-.02a2.87 2.87 0 0 0 1.41-.48c.43-.3.63-.7.62-1.2-.01-.33-.14-.6-.4-.83a1.63 1.63 0 0 0-.89-.4c-.34-.05-.6-.07-.79-.07-.8.03-1.6.03-2.37 0-.03 0-.05.02-.04.05.05.45.04.9.04 1.37V27.3c0 1.27 0 2.48-.03 3.66 0 .03 0 .04.04.04.31-.03.63-.03.94 0 .03 0 .04-.01.04-.04a29.9 29.9 0 0 1-.07-2.83c0-.03.02-.04.05-.04h.2c.06 0 .13.03.2.11.87.9 1.7 1.81 2.5 2.75.03.04.07.05.11.05a10.41 10.41 0 0 1 1.21-.02v-.02Zm-3.04-3.4c.5-.1.83-.26 1.02-.49a.94.94 0 0 0 .23-.57c0-.5-.29-.81-.88-.95a5.9 5.9 0 0 0-1.56-.07c-.02 0-.03.01-.03.03v2.1c0 .03 0 .04.04.04.4.03.79 0 1.18-.08ZM13.07 28.73a12.94 12.94 0 0 1 2.49.03c.2.38.4.8.62 1.26l.44.95c.01.02.03.03.05.03a7.6 7.6 0 0 1 1.02 0c.04 0 .05-.01.03-.04-.35-.6-.62-1.08-.8-1.43l-2.26-4.47a.08.08 0 0 0-.06-.05.46.46 0 0 0-.18 0 .08.08 0 0 0-.06.04 106.88 106.88 0 0 1-3.15 5.94h.74c.01 0 .02 0 .03-.02.29-.7.62-1.42.99-2.17a.12.12 0 0 1 .1-.07Zm1.25-2.42c-.01-.02-.02-.02-.04-.02a88.64 88.64 0 0 0-.95 1.8c-.02.05 0 .08.05.08a8.48 8.48 0 0 0 1.8 0c.05 0 .07-.02.05-.07l-.91-1.8ZM49.38 28.72c.1 0 .19.02.24.03a.1.1 0 0 1 .07.04c.37.67.74 1.39 1.1 2.15 0 .04.04.06.08.06h1.1c.03 0 .04-.01.02-.04l-.07-.11c-.35-.56-.6-.98-.76-1.28l-2.43-4.47c-.04-.07-.1-.1-.18-.1-.08 0-.14.03-.18.1a124.11 124.11 0 0 1-3.36 5.9h.8c.01 0 .02 0 .03-.02.33-.74.68-1.48 1.07-2.2.01-.02.04-.04.08-.04.76-.07 1.56-.08 2.4-.02Zm-1.04-2.42-.03-.01-.03.01-1 1.8a.05.05 0 0 0 0 .05 12.2 12.2 0 0 0 1.98.03c.03 0 .05 0 .06-.02a.05.05 0 0 0 0-.05l-.98-1.8Z" fill="#71706E"/></svg>