<!-- by TradingView --><svg width="56" height="56" viewBox="0 0 56 56" xmlns="http://www.w3.org/2000/svg"><path fill="#F0F3FA" d="M0 0h56v56H0z"/><path d="M34.12 22c-4.64.4-6.01 5.43-6.12 7.89 2.81-3.65 5.47-5.37 6.44-5.78A28.7 28.7 0 0 0 29.38 31c6.1-.44 7.62-5.04 7.62-7.28V22h-2.88ZM23.31 27c2.13 0 3.35 2.18 3.69 3.28l-4.08-2.42 3.4 3c-3.94.8-5.19-2.24-5.32-3.86h2.31Z" fill="#A9CF48"/><path d="M31.04 40 37 37.16c-7.4-3-17.06-2.2-21-1.54 5.43-.8 12.3 2.67 15.04 4.38Z" fill="#00844A"/><path d="M26.34 42 30 40.34c-4.4-3.59-10.5-4.39-13-4.34 4.59.81 8.14 4.34 9.34 6Z" fill="#01A85B"/><path d="M20 24.83A13.34 13.34 0 0 1 31.67 18a13.29 13.29 0 0 1 13.21 15l-2.38-.5a11.86 11.86 0 0 0-11.82-13.2 11.9 11.9 0 0 0-10.18 5.71l-.5-.18ZM38.1 37l7.9-3.17C44.36 33.22 39.07 32 31.09 32 20.19 32 11.82 34.85 9 36.27v.36a47.18 47.18 0 0 1 13.12-2c7.44 0 13.75 1.58 15.98 2.37Z" fill="#036940"/><path d="m32 15.97-.71-4.75C30.4 13.59 28.76 15 27.83 15c-1.45 0-2.9-2.67-3.46-4 .11 1.84-.05 5.5-2.41 5.5-1.89 0-4.3-1.8-5.27-2.7.6 1.18 1.81 3.74 1.81 4.65 0 1.13-.6 1.78-2.03 1.78-1.93 0-5.56-1.19-7.13-1.78 1.84 1.06 5.54 3.63 5.54 5.4 0 2.38-6.59 4.2-9.88 4.8 2.9.02 8.73.44 8.73 1.95s-1.65 2.9-2.47 3.4l5.21-1.4C15.5 19.5 26.42 16.06 32 15.97Z" fill="#FDB708"/></svg>