<!-- by TradingView --><svg width="56" height="56" viewBox="0 0 56 56" xmlns="http://www.w3.org/2000/svg"><path fill="#F0F3FA" d="M0 0h56v56H0z"/><path d="M19.11 27.94c-5.64 0-12.42 2.23-15.11 3.34a92.04 92.04 0 0 1 15.11-1.62v-1.72ZM36.89 27.94c5.64 0 12.42 2.23 15.11 3.34a92.04 92.04 0 0 0-15.11-1.62v-1.72Z" fill="#ED3237"/><path d="M22 22h2.5v11H22V22Zm-8.5 0H11v11h2.5V22Zm7 0H18v11h2.5V22ZM26 33V22h6.43a3.1 3.1 0 0 1 3.07 3.1v.25c-.01.9-.7 2.7-3.4 2.75l2.43 3.5 3.69-9.6h3.03l4.24 11h-2.67l-3.52-8.85L35.9 33h-3.52l-3.61-6h2.33c1.05 0 1.9-.7 1.9-1.74s-.85-1.76-1.9-1.76h-2.6V33H26Z" fill="#303335"/></svg>