<!-- by TradingView --><svg width="56" height="56" viewBox="0 0 56 56" xmlns="http://www.w3.org/2000/svg"><path fill="#F0F3FA" d="M0 0h56v56H0z"/><path d="M41.44 36.69A15.93 15.93 0 0 0 43.97 27H31.75l9.69 9.69Zm-1.69 2.17L29.5 28.61V42h-1.88c-.62 0-1.12-.47-1.12-1.04V28.61L16.25 38.86A15.96 15.96 0 0 0 28 44c4.64 0 8.83-1.98 11.75-5.14Zm-25.19-2.17A15.93 15.93 0 0 1 12.03 27h12.22l-9.69 9.69ZM12.5 24h14v-1.96c0-.57.5-1.04 1.12-1.04h1.88v3h14a15.95 15.95 0 0 0-3-6h-25a15.95 15.95 0 0 0-3 6Zm6.17-9h18.66c-2.63-1.89-5.85-3-9.33-3-3.48 0-6.7 1.11-9.33 3Z" fill="#017E40"/></svg>