<!-- by TradingView --><svg width="56" height="56" viewBox="0 0 56 56" xmlns="http://www.w3.org/2000/svg"><path fill="#F0F3FA" d="M0 0h56v56H0z"/><path fill-rule="evenodd" d="M17.5 32H24V12h-1.46l-2.38 9.43C16.31 23.53 14 28.6 14 32.73c0 3.53 1.3 6.2 2 7.17v.1h24v-.1c.7-.96 2-3.64 2-7.17 0-4.12-2.3-9.2-6.16-11.3L33.46 12H32v20h6.5l-2.27-9a12.2 12.2 0 0 1 4.86 9.73c0 2.2-.61 4.31-1.09 5.53V33H16v5.26a15.96 15.96 0 0 1-1.1-5.53 12.2 12.2 0 0 1 4.87-9.74L17.5 32Zm8.22-20v9.05h.65V12h3.1v9.05h.65V12H31v15.77h-2.24a.92.92 0 0 0-.86-.58.92.92 0 0 0-.85.58H25V12h.72ZM25 28.49V32h6v-3.51h-2.24a.92.92 0 0 1-.86.58.92.92 0 0 1-.85-.58H25Zm.89-6.7v.98h4.03v-.98h-4.03Zm2.01-9.34c-.4 0-.72.33-.72.73v7.13c0 .4.32.74.72.74.4 0 .72-.33.72-.74v-7.13c0-.4-.32-.73-.72-.73ZM27 34h-2v5h2v-5Zm-3 0h-2v2h-2v-2h-2v5h2v-2h2v2h2v-5Zm4 0v5h2v-4.13L31.85 39h1.97L36 34.87V39h2v-5h-3.73l-1.36 3.24L31.63 34H28Z" fill="#037BC3"/></svg>