<!-- by TradingView --><svg width="56" height="56" viewBox="0 0 56 56" xmlns="http://www.w3.org/2000/svg"><path fill="#F0F3FA" d="M0 0h56v56H0z"/><path fill-rule="evenodd" d="M50 27.77 28 16 6 27.77 28 40l22-12.23ZM34.5 22H36v5h-1.5v-.5c-.27.3-.61.5-1 .5-.83 0-1.5-.9-1.5-2s.67-2 1.5-2c.39 0 .73.2 1 .5V22Zm-.5 2.2c.28 0 .5.37.5.83 0 .46-.22.84-.5.84s-.5-.38-.5-.84c0-.46.22-.84.5-.84ZM25.5 22H27v.7h-1.5V22Zm0 1H27v4h-1.5v-4Zm-.5-1h-1.5v2H22v-2h-1.5v5H22v-2h1.5v2H25v-5Zm4 1.52c.23-.27.6-.52 1.15-.52 1.16 0 1.35 1.09 1.35 1.2V27H30v-2.4c-.01-.15-.1-.45-.44-.45-.26 0-.45.3-.56.57V27h-1.5v-4H29v.52ZM18 28h1.5v2H21v-2h1.5v5H21v-2h-1.5v2H18v-5Zm15.5 0H32v1.51a1.23 1.23 0 0 0-.95-.51c-.8 0-1.43.9-1.43 2s.64 2 1.43 2c.36 0 .7-.2.95-.51V33h1.5v-5ZM32 31.57c-.1.24-.3.4-.5.4-.34 0-.62-.4-.62-.89s.28-.89.61-.89c.21 0 .4.16.51.4v.98ZM24.88 29c-1.49 0-1.91.94-1.94 1.4h1.36c0-.15.1-.46.52-.46.41 0 .5.33.5.5l-1.31.19c-.4.06-1.18.4-1.18 1.26.01.37.27 1.11 1.18 1.11.55 0 1-.23 1.3-.48V33h1.4a1.2 1.2 0 0 1-.16-.44v-2.15c.07-.47-.18-1.41-1.67-1.41Zm-.13 2.33c.17-.03.4-.1.57-.16v.43c-.13.25-.36.55-.67.55-.16-.01-.47-.09-.47-.33 0-.31.29-.45.57-.5ZM28.5 29H27v4h1.5v-2.11c.35-.42.77-.42.99-.35V29c-.47 0-.79.2-.99.42V29Zm5.25 0 1.41 3.82a.55.55 0 0 1-.36.13h-.63V34h1.15c.26-.02.85-.3 1.1-1.24L37.6 29h-1.3l-.54 2-.6-2h-1.4Z" fill="#216631"/></svg>