<!-- by TradingView --><svg width="56" height="56" viewBox="0 0 56 56" xmlns="http://www.w3.org/2000/svg"><path fill="#F0F3FA" d="M0 0h56v56H0z"/><path fill-rule="evenodd" d="M16 33.71V39h8L13.48 28.51 28 14.31 42.65 28.7 32 39h8v-5.33l5-5.06-4.97-4.85v-7.28H32.9L28 12l-4.89 4.48h-7.14v7.28L11 28.61l5 5.1Zm.46-.34v5.13H17V33l-4.36-4.49 4.86-4.49V18h6.12l4.4-4.4L32.4 18h6.14v6.02l4.84 4.67L39 33v5.51h.57v-5.13l4.79-4.68-4.78-4.67V17h-6.87l-4.68-4.3v-.03l-.01.02-.02-.02v.03L23.32 17h-6.87v7.02l-4.78 4.67 4.79 4.68Z"/><path d="M18 23.43V18.5h5.04L18 23.43ZM38 23.37V18.5h-4.99L38 23.37ZM17.5 33.42v5.08h5.07l-5.07-5.08ZM38.5 33.33v5.17h-5.29l5.29-5.17Z" fill="#FEF542"/><path d="M26.5 22.85c-.38-.7-.68-2.25 1.09-2.85-.4.61-1.15 2.04-1.1 2.85Zm.95 1.43a1.93 1.93 0 0 0-1.74-1.13c-1.26 0-1.75 1.1-1.24 2 .25-.56 1.19-1.5 2.98-.87Zm.21 3.89v-3.38c-1.39.23-4.16 1.65-4.16 5.46A5.7 5.7 0 0 0 27.66 36v-5.14c-1.8.93-1.74 2.97-1.49 3.87-.4-.25-1.23-1.17-1.23-2.79 0-2.26 1.81-3.46 2.72-3.77Zm.68 0v-3.38c1.39.23 4.16 1.65 4.16 5.46A5.7 5.7 0 0 1 28.34 36v-5.14c1.8.93 1.74 2.97 1.49 3.87.4-.25 1.23-1.17 1.23-2.79 0-2.26-1.81-3.46-2.72-3.77Zm1.98-5.02c-1 0-1.58.75-1.73 1.13 1.78-.63 2.72.31 2.97.87.5-.9.02-2-1.24-2Zm-.9-.3c.38-.7.68-2.25-1.09-2.85.4.61 1.15 2.04 1.1 2.85Zm-2.31-.17c0-.7.57-1.38.91-1.7.34.32.95 1 .95 1.7a.9.9 0 0 1-.89.84 1.39 1.39 0 0 1-.08 0 .9.9 0 0 1-.9-.84Z" fill="#38B408"/></svg>