<!-- by TradingView --><svg width="56" height="56" viewBox="0 0 56 56" xmlns="http://www.w3.org/2000/svg"><path fill="#F0F3FA" d="M0 0h56v56H0z"/><path fill-rule="evenodd" d="M30.16 35.79a11 11 0 1 0-6.07-.5c-2.31.42-4.37 1.23-5.9 1.83-.79.31-1.43.57-1.9.68-1.7.42-3.4.75-5.29 0 .35.33 1.56.98 3.59.98.96 0 1.97-.39 3.22-.86 2.03-.78 4.7-1.79 8.84-1.79 1.43-.02 4.17.34 3.63 1.92l-.18.5c-.66 1.8-1.27 3.45 4.1 3.45 5.35 0 9.52-1.47 12.1-2.38l.7-.24c-2.63.66-8.83 2-12.62 2-4.7 0-3.91-1.93-3.63-2.63v-.01c.2-.46.6-2-.6-2.95ZM28 35a10 10 0 1 0 0-20 10 10 0 0 0 0 20Zm0-1a9 9 0 1 0 0-18 9 9 0 0 0 0 18Zm-7-6 1.83-9h1.55l-.58 3h3.51l.6-3h1.56l-.58 3H35l-.25 1.3h-2.6L30.61 31h-1.65l1.61-7.7h-1.94l-.9 4.7H26.1l.96-4.7h-3.5l-.9 4.7H21Z" fill="#3C4A9C"/></svg>