<!-- by TradingView --><svg width="56" height="56" viewBox="0 0 56 56" xmlns="http://www.w3.org/2000/svg"><path fill="#012D74" d="M0 0h56v56H0z"/><path fill-rule="evenodd" d="M6 19h3.5v5.43A3.82 3.82 0 0 1 12.69 23c1.68 0 3.14 1.23 3.85 3.03.2-1.25 1.3-3.03 4.61-3.03 3.68 0 4.83 1.85 4.85 2.88.73-1.71 2.17-2.88 3.83-2.88 1.46 0 2.49.5 3.17 1.3V23h3.47v1.18l-1.18 1.92h1.18v7.53h.01c0 1.6-.8 4.37-5.27 4.37s-5.44-2.42-5.37-3.63h3.58c.12.42.68 1.24 1.89 1.24 1.52 0 1.69-1.46 1.69-1.98v-1.17a3.86 3.86 0 0 1-3.17 1.38c-1.66 0-3.1-1.17-3.83-2.89v2.15c0 .45.18.79.27.9H22.8l-.3-1.03c-.27.34-1.22 1.03-2.97 1.03-2.27 0-3.13-1.26-3.36-2.28-.78 1.38-2.06 2.28-3.5 2.28-1.47 0-2.5-.51-3.18-1.36V34H6V19Zm11 9.65c1.01-1 2.68-1.17 3.82-1.3l.52-.05c1.27-.17 1.46-.74 1.4-1.01-.03-.33-.39-1-1.59-1-1.2 0-1.57.85-1.61 1.27h-2.82a6.85 6.85 0 0 1 .28 2.09Zm-5.45 2.81c1.05 0 1.9-1.33 1.9-2.96s-.85-2.96-1.9-2.96c-1.38 0-1.91 1.33-1.91 2.96s.47 2.96 1.9 2.96Zm10.95-1.7v-1a3.28 3.28 0 0 1-1.1.43c-.72.15-1.9.4-1.9 1.42 0 1.03.84 1.2 1.26 1.15 1.4 0 1.74-1.33 1.74-2Zm18.9-3.2h3.07c.04-.42.42-1.27 1.64-1.27 1.21 0 1.57.67 1.6 1 .07.27-.13.84-1.41 1l-.53.07C44 27.54 41 27.86 41 31v.11V19h-3.5v4.63l1.44 2.47H37.5V34H41v-2.88c0 1.03.68 2.88 3.47 2.88 1.78 0 2.74-.69 3-1.03l.31 1.03H51c-.1-.11-.27-.45-.27-.9V26c.07-1-.75-3-4.62-3-3.88 0-4.76 2.37-4.71 3.56Zm6.33 2.2v1c0 .67-.37 2-1.88 2-.46.05-1.37-.12-1.37-1.15 0-1.01 1.28-1.27 2.07-1.43a3.78 3.78 0 0 0 1.18-.43Zm-18.53-.34c0-1.44.84-2.61 1.86-2.61 1.4 0 1.86 1.17 1.86 2.6 0 1.45-.52 2.62-1.86 2.62-1.02 0-1.86-1.17-1.86-2.61Z" fill="#fff"/></svg>