<!-- by TradingView --><svg width="56" height="56" viewBox="0 0 56 56" xmlns="http://www.w3.org/2000/svg"><path fill="#F0F3FA" d="M0 0h56v56H0z"/><path d="M30.39 18.45h16.55c.04 0 .06.02.06.06v19.43c0 .04-.02.05-.05.05h-7.89c-.07 0-.06-.03-.06-.1v-6c0-.06-.08-.1-.15-.1h-2.77c-.06 0-.08.04-.08.1v5.95c0 .1-.06.15-.16.15H21.5c-.04.01-.06 0-.06-.05v-6.3c0-.08-.04-.12-.11-.12H17c-.1 0-.16.05-.16.15v6.14c0 .08-.04.18-.11.18h-7.6c-.08 0-.13-.11-.13-.2V18.56c0-.09.04-.13.12-.13h7.24c.1 0 .15.05.15.15v5.8c0 .06.03.09.09.09h4.72c.07 0 .1-.04.1-.1v-5.8c0-.08.04-.12.12-.12 2.13-.02 3.33-.02 3.59 0 .3.03.99-.2.58-.6l-.64-.64a.2.2 0 0 1-.06-.2c.16-.63.78-1.04 1.86-1.02.2 0 .35.15.42.25.05.05.12.16.23.32.04.07.1.12.17.16.34.17.61.38.8.63.08.1.16.1.25.03.51-.4 1.12-.5 1.84-.3.08.03.12.08.13.16.03.42-.1.77-.38 1.07-.08.09-.06.13.06.13Z" fill="#151417"/><path d="M29.66 22.74c.12.15.37.35.77.6l.5.34c.46.31.97.4 1.55.28.08-.02.15-.01.22.03.65.43 1.35.71 2.1.84.17.02.27.02.33-.02a.6.6 0 0 0 .13-.15c.08-.1.11-.1.1.04-.13.83 0 1.65.38 2.44.04.08.04.17-.01.25a.26.26 0 0 1-.22.13c-.28.02-.52.08-.72.18a.37.37 0 0 0-.17.15l-.5.86a.32.32 0 0 1-.2.15c-.45.11-.72.23-.82.36l-.17.24c-.32.44-.59.75-.8.91-.37.3-.68.57-.91.82-.3.33-.83.64-1.59.92-.16.06-.24.17-.23.34.02.95-.05 1.8-.2 2.54a3.45 3.45 0 0 1-1.66 2.37.38.38 0 0 1-.4.01.38.38 0 0 1-.21-.33 4.23 4.23 0 0 0-.84-2.35.43.43 0 0 1-.1-.23c0-.07 0-.18-.02-.31a2.06 2.06 0 0 0-.16-.78c-.37-.77-.68-1.76-.92-2.98-.08-.4-.09-.99-.03-1.77.05-.56.06-.99.04-1.27a.18.18 0 0 0-.13-.16.37.37 0 0 0-.23 0c-.07.01-.12.07-.15.17-.2.57-.7.84-1.48.81-.09 0-.14-.05-.17-.12-.07-.2-.08-.4-.04-.6a.23.23 0 0 1 .12-.16l.58-.34a.17.17 0 0 0 .1-.14.17.17 0 0 0-.08-.16c-.32-.24-.64-.34-.93-.29-.18.03-.24-.04-.19-.21l.04-.1c.05-.19.18-.26.37-.24.53.07 1.02.07 1.48.01.12-.01.17-.08.15-.2a2.76 2.76 0 0 0-.87-1.58c-.17-.14-.26-.27-.29-.37a.4.4 0 0 1 .14-.39.28.28 0 0 1 .24-.07l.14.02c.44.06.76.07.95.04.33-.06.59-.23.76-.52.24-.4.39-.64.44-.7.52-.59 1-1.26 1.41-2.01.05-.08.03-.14-.05-.18a3.4 3.4 0 0 0-.37-.13 1.27 1.27 0 0 1-.5-.23c-.13-.13-.17-.34-.14-.63l.21-1.3c.02-.1-.01-.16-.1-.2l-.6-.36a.13.13 0 0 1-.08-.13c0-.06.04-.1.1-.12.34-.13.69-.2 1.05-.19.09 0 .15.05.2.13.14.3.35.5.62.59.16.05.33.18.53.38l.17.16c.19.17.38.18.58.03.38-.27.76-.4 1.13-.42a.1.1 0 0 1 .1.07c.03.04.03.08 0 .12l-.11.13c-.62.74-.99 1.3-1.12 1.7-.3.93.06 1.6 1.1 1.99.17.06.2.16.12.3l-.46.79a.16.16 0 0 0 .02.2Z" fill="#F0F3FA"/><path d="M22 31.15c0-.17-.18-.15-.19-.15h-5.28c-.13 0-.2.05-.2.18v6.14c0 .12-.06.18-.18.18h-6.5c-.12 0-.18-.06-.18-.18V19.08c0-.05.03-.08.08-.08h6.24c.15 0 .23.07.23.22v5.68c0 .09.04.1.13.1h5.58c.13 0 .27-.03.27-.16v-5.72c0-.12.04-.12.16-.12h3.34c.1 0 .16.05.16.16.02.54.25.8.7 1.05.09.05.1.11.06.2-.26.45-.53.81-.8 1.08a3.6 3.6 0 0 0-.64.91c-.1.2-.27.3-.5.3h-1.25c-.1 0-.17.04-.23.11-.31.4-.41.85-.3 1.32.03.1.08.16.16.21.34.22.58.45.72.7.18.3.1.39-.23.26-.5-.2-.98-.09-1.44.33a.32.32 0 0 0-.11.23c-.03.43.05.85.27 1.26.03.07.05.15.05.23.01.48.13.9.37 1.26.04.07.1.11.19.12a3 3 0 0 0 1.5-.26c.13-.06.2-.01.19.14l-.04.33c-.06.41-.07.73-.04.94.16 1.25.5 2.45 1 3.61a2.27 2.27 0 0 1 .2.77c.01.35.08.62.22.81.41.62.67 1.3.76 2.04.01.12-.05.39-.17.39h-4.04c-.16 0-.26-.28-.26-.44v-5.91ZM35.28 31.35c.05 1.93.05 4.08-.02 6.03 0 .08-.04.12-.12.12h-6.4c-.14 0-.16-.06-.08-.17l.28-.33c.27-.29.43-.74.5-.94.29-.96.43-1.6.42-1.95 0-.53.01-1 .06-1.42a.2.2 0 0 1 .13-.16c.52-.23.84-.4.98-.51.97-.8 1.72-1.53 2.27-2.19.13-.15.35-.3.66-.43.36-.16.58-.33.67-.52.13-.26.24-.46.33-.58.1-.14.23-.19.39-.16.09.02.12.07.1.16-.07.28.03.42.3.42h3.33c.24 0 .37-.12.37-.36v-2.21a.3.3 0 0 1 .08-.21l.2-.21c.23-.22.33-.73.31-1.51a.2.2 0 0 1 .11-.2l.88-.5a.55.55 0 0 0 .26-.33.56.56 0 0 0-.02-.4l-.5-1.1c-.04-.09-.1-.14-.2-.15a2.37 2.37 0 0 0-1.58.37c-.6.42-1.12 1-1.58 1.72a.34.34 0 0 1-.19.14c-.38.12-.76.11-1.14-.03a.25.25 0 0 1-.14-.13 6.94 6.94 0 0 1-.11-.25c-.22-.61-.43-.62-.63-.03l-.16.66c-.04.21-.17.3-.39.26a4.3 4.3 0 0 1-1.52-.62c-.26-.17-.45-.25-.57-.24-.15 0-.3.01-.44.03-.47.05-1.05-.21-1.74-.77-.08-.07-.1-.15-.05-.25.13-.23.23-.45.3-.66.1-.29-.02-.52-.38-.7l-.56-.35c-.23-.14-.36-.3-.4-.48-.03-.17 0-.38.08-.63.08-.24.18-.44.32-.58.09-.1.27-.14.55-.14h16.12c.1 0 .14.05.14.14v18.3c0 .04-.02.2-.06.2H39.6c-.09 0-.13-.19-.13-.28v-5.9c0-.11-.06-.16-.17-.16h-3.83c-.13 0-.2.06-.2.2Z" fill="#4161A8"/><path d="M37.71 24.96a4.47 4.47 0 0 0-.72-.03c-.25 0-.5-.12-.74-.37-.06-.07-.05-.12.04-.12l1.23-.14c.1 0 .17-.05.21-.14.34-.62.8-1.18 1.35-1.67.32-.27.7-.4 1.14-.4.06 0 .11.03.14.09l.41.7c.05.09.03.15-.05.2l-1.03.59a.29.29 0 0 0-.15.28c.02.41 0 .82-.05 1.2a.28.28 0 0 1-.13.2 1.6 1.6 0 0 0-.74 1.41c0 .07-.04.1-.11.11-.05 0-.09-.01-.1-.06l-.54-1.68a.27.27 0 0 0-.16-.17Z" fill="#F0F3FA"/><path d="m38.2 27.42.41.11c.19.05.3.11.32.2.02.1.03.2.01.31 0 .09-.06.13-.14.13h-2.7c-.14 0-.17-.06-.09-.16l.2-.26a.34.34 0 0 0 .08-.23c0-.15-.07-.56-.2-1.24-.07-.4-.11-.73-.11-1.02 0-.1.04-.12.12-.07.39.23.79.35 1.2.34.1 0 .17.04.2.14l.44 1.48c.04.13.13.22.27.27Z" fill="#F0F3FA"/></svg>