<!-- by TradingView --><svg width="56" height="56" viewBox="0 0 56 56" xmlns="http://www.w3.org/2000/svg"><path fill="#F0F3FA" d="M0 0h56v56H0z"/><path d="m19.78 23.77-3.6-.34c-.12 0-.18-.07-.18-.2v-6.4c0-.5.18-.94.54-1.3.36-.35.79-.53 1.3-.53h4.06c.1 0 .13.05.1.15l-1.95 8.43c-.03.14-.12.2-.27.19ZM38.81 15.33l-3.5 9.96c-.03.08-.08.12-.16.11l-9.51-.88c-.13-.01-.17-.08-.14-.2l2.41-9.2c.02-.08.08-.12.16-.12h10.59c.15 0 .2.2.15.33Z" fill="#4C4C4C"/><path d="M41.16 40.53a.88.88 0 0 0-.19.21l-.1.13a.32.32 0 0 1-.25.12h-5.14c-.16 0-.22-.08-.16-.23l6.16-16.38c.11-.3.2-.5.26-.62.21-.36.3-.33.25.08l.01 2.21V39c0 .38-.37 1.18-.84 1.53ZM12.98 32.47c-1-1.41-1.93-2.2-2.77-2.34-.27-.05-.28-.12-.03-.23.1-.04.22-.05.34-.03 2.48.33 4.98.62 7.51.86.13.02.18.09.15.21l-2.04 8.8c-.13.56-.24.55-.32-.02a16.63 16.63 0 0 0-2.84-7.25ZM20.9 40.83l2.59-9.42c.02-.06.06-.1.13-.08l9.26.94c.1 0 .14.06.11.16l-2.88 8.49c-.02.05-.06.08-.12.08h-8.97c-.1 0-.15-.06-.12-.17Z" fill="#A60F38"/></svg>