<!-- by TradingView --><svg width="56" height="56" viewBox="0 0 56 56" xmlns="http://www.w3.org/2000/svg"><path fill="#F0F3FA" d="M0 0h56v56H0z"/><path fill-rule="evenodd" d="M31 13.47v11.4h.72V24h1.55v-.6h1.44v-.7h.8v-.74h1.45v-.68h1.57v-.74h.72v-.68H40v-6.39h-2V12h-5v1.47h-2Zm-15 6.34V14h1v-.56h1.24v-.73H19v-.7h4.51v1.43h1.5v11.38h-.77v-.71h-1.49v-.71H22v-.73h-1.52v-.7H19v-.7h-1.47v-.71h-.76v-.75H16Zm0 16.44v6.37h2.25v.69H19V44h4v-1.38h2V31.28h-.77v.69h-.73v.7h-1.46v.7h-1.5v.75H19v.67h-.75v.7H17v.76h-1Zm15-5V42.6h2v1.4h5v-1.4h2v-6.4h-.78v-.63h-1.47v-.69h-.69v-.75h-1.5v-.77h-1.53v-.66h-.84v-.78h-1.35v-.66H31Zm-15-10v.77h.77v.66h1.42v.76h1.44v.67h-2.15v-.7h-1.47v1.45h1.47v.67h-1.47v.76h.74v.72h1.46v.68H16v.7h1.47v.7h-.73v.73h-.74v.72h2.2v.67H16v1.45h.74V32h2.18v.66h-1.45v.69h-.73v.75h-.74v.71h1.47V34h1.45v-.65h.7v-.7h1.45V32h1.38v-.8h.82v-.66h1.47v-.72H26V29h.91v-.61h1.44V29H30v.82h1.3v.72h1.44v.67h.72v.7H35v.75h1.3v-.7h-.67v-.74h.76v.68h2.15v.76h1.44V31.2h-2.2v-.67h2.2v-.72h-1.44V29h.7v-.61h.74v-.68H37V27h2.98v-1.47h-.69v.72h-1.47v-.75h1.42V25h.74v-1H37v-.6h1.54v-.72h1.44v-1.4h-1.44v.74h-.76v.66H36.3v.72H35v.6h-.8v1h-1.46v.53H31.3v.76H30v.72h-.9v.68h-1.45v-.68H26v-.72h-1.25v-.76H24v-.67h-1.45v-.75h-1.46v-.68h-1.44v-.75h-.75v-.7h-1.4v-.73H16ZM36.32 32.7v.68h.79v.75h1.43v.68H40v-.68h-.75v-.75h-1.44v-.68h-1.5ZM35.5 24H37v1h-1.5v-1Zm-15.1.07h-.76v.75h.76v-.75Zm-1.43 1.47h-.76v.75h.76v-.75Zm2 5.46H19v1h1.98v-1Z" fill="#233848"/></svg>