<!-- by TradingView --><svg width="56" height="56" viewBox="0 0 56 56" xmlns="http://www.w3.org/2000/svg"><path fill="#F0F3FA" d="M0 0h56v56H0z"/><path d="M28.92 12.84a2.6 2.6 0 0 0-.76-.4 7.95 7.95 0 0 0-2.8-.15c-.84.1-1.75.36-2.74.75L24 11.52a.3.3 0 0 1 .17-.1 17.83 17.83 0 0 1 7.7 0c.09.03.1.05.01.08-1.03.37-2.01.81-2.95 1.34Z" fill="#77A72E"/><path d="M33.35 13.03v.06c-.01.05-.03.07-.08.08-1.3.3-2.5.8-3.63 1.49a.36.36 0 0 1-.18.03l-1.16-.97c-.05-.04-.05-.08 0-.11a12.4 12.4 0 0 1 3.88-1.8c.06-.03.1-.01.14.03l1.03 1.2Z" fill="#486529"/><path d="m28.92 12.84-2.05 1.53a5.57 5.57 0 0 0-2.94.66 3.86 3.86 0 0 0-1.77 2.38 5.19 5.19 0 0 0 .7 4.2l-.1.95c-.04.24-.12.45-.26.63-.14.19-.3.37-.44.54a17.63 17.63 0 0 1-2.07-3.63c.02-.38.07-.77.13-1.16a.41.41 0 0 0-.04-.24c.06-.04.1-.08.1-.11.11-.53.23-1.06.37-1.58a.14.14 0 0 0-.02-.11.24.24 0 0 0-.03-.04c.1-.04.14-.09.16-.13a13.66 13.66 0 0 1 1.88-3.63 11.2 11.2 0 0 1 2.8-.8 7.95 7.95 0 0 1 2.82.14c.17.04.43.17.76.4Z" fill="#8EB627"/><path d="M18.8 16.19a8.87 8.87 0 0 0-3.51.56 17.18 17.18 0 0 1 5-3.94.1.1 0 0 1 .09 0c.04.01.04.03.02.06a13.61 13.61 0 0 0-1.6 3.32Z" fill="#77A72E"/><path d="M22.54 13.1a13.65 13.65 0 0 0-1.88 3.63c-.02.04-.07.09-.16.13h-1.4c-.1 0-.13-.04-.1-.14.38-1.34.98-2.61 1.77-3.8a.12.12 0 0 1 .12-.06l1.65.24Z" fill="#486529"/><path d="M38.82 17.1c.13-.9-.05-1.63-.52-2.21-.27-.34-.7-.67-1.28-1a4.28 4.28 0 0 0-2.78-.77c-.06 0-.07-.02-.03-.06l.07-.08 1.26-.12a.3.3 0 0 1 .17.03 17.04 17.04 0 0 1 5.9 5c.06.08.05.1-.04.07-.86-.37-1.78-.66-2.75-.86Z" fill="#77A72E"/><path d="m34.28 12.98-.07.08c-.05.04-.04.07.02.06 1.05-.06 1.98.2 2.79.77.43 1 .77 2.02 1.03 3.09-2.16-.3-4.2-.09-6.12.65-1.4.54-2.74 1.34-4 2.4a10.61 10.61 0 0 1-.8-3.43c.25-.2.5-.43.73-.7a.22.22 0 0 0 .06-.14.2.2 0 0 0 .1 0l.09-.03a16.24 16.24 0 0 1 1.34-1l.01-.04c.08 0 .14-.01.18-.03a12.34 12.34 0 0 1 3.63-1.48c.04-.02.07-.04.07-.09v-.06c.2.1.52.07.94-.05ZM26.87 14.37a13.05 13.05 0 0 0-4.01 7.24 5.19 5.19 0 0 1-.7-4.2c.31-1.07.9-1.87 1.77-2.38a5.56 5.56 0 0 1 2.94-.66Z" fill="#A4C422"/><path d="m38.82 17.1-.77-.12c-.26-1.07-.6-2.1-1.03-3.1.58.34 1 .67 1.28 1 .47.59.65 1.32.52 2.22Z" fill="#8EB627"/><path d="M27.92 15.76c0 .06-.02.1-.06.15-.23.26-.48.49-.73.7-.48.5-.92 1.02-1.31 1.57a.37.37 0 0 1-.23.16l-1-.45c-.07-.03-.09-.08-.05-.14.57-1 1.29-1.92 2.14-2.75.05-.05.11-.06.18-.01l1.06.77Z" fill="#486529"/><path d="m18.8 16.19-.41 1.63a3.91 3.91 0 0 0-2.46.38 3.03 3.03 0 0 0-1.63 2.14c0-.1-.04-.17-.12-.2.07-.04.11-.1.11-.15v-1.53c.01-.36.1-.65.3-.87.23-.3.46-.57.7-.84a8.87 8.87 0 0 1 3.5-.56Z" fill="#8EB627"/><path d="M27.13 16.6c.08 1.2.35 2.35.8 3.43l-.6.6a.26.26 0 0 1-.15.08 7.95 7.95 0 0 0-3.12 1.12c.15-.73.4-1.42.78-2.07.02-.04.03-.1.02-.16.03 0 .06-.01.08-.03a.12.12 0 0 0 .06-.06c.16-.35.36-.67.59-.98a.13.13 0 0 0 .02-.13l-.02-.06a.37.37 0 0 0 .23-.16c.39-.55.83-1.07 1.3-1.58Z" fill="#77A72E"/><path d="m35.82 18.58-.02.06a.12.12 0 0 1-.12.09l-1.33.06-1.92.35-.5-1.08c-.05-.1-.02-.16.08-.2 1.06-.37 2.2-.6 3.4-.67.06 0 .1.02.1.07l.31 1.32ZM41.75 20.05c-.1.05-.16.05-.2 0-1.12-.6-2.34-1-3.65-1.18a.27.27 0 0 1-.15-.06l-.07-.06-.24-1.43c0-.06.02-.08.08-.08 1.43.13 2.8.49 4.08 1.08.1.05.14.13.14.23v1.5Z" fill="#486529"/><path d="M18.39 17.82a12.7 12.7 0 0 0 1.26 8.17c-1.1.25-2.2.41-3.3.48l-.36-.55-.85-1.63a.44.44 0 0 0 0-.19 12.83 12.83 0 0 1-.84-3.76 3.03 3.03 0 0 1 1.63-2.14c.8-.4 1.62-.53 2.46-.38Z" fill="#A4C422"/><path d="m37.68 18.75.07.06c.04.04.1.06.15.06 1.31.18 2.53.57 3.65 1.19l.85.87c.37.38.62.7.75.97a5.04 5.04 0 0 1-.15 4.34l-1.4-1.38c-.5-3-1.77-4.66-3.81-4.98a6.1 6.1 0 0 0-3.49.6c-.8.36-1.6.84-2.39 1.44-.06-.2-.25-.34-.54-.44.39-.71.68-1.13.88-1.24.73-.43 1.43-.9 2.1-1.45l1.33-.06c.06 0 .1-.03.12-.09l.02-.06c0 .05.02.08.06.11.02.02.06.04.11.03.52 0 1.03.03 1.54.1.04 0 .08 0 .1-.03l.05-.04Z" fill="#8EB627"/><path d="m31.04 19.55-2.26 1.21-.58-.57c-.05-.05-.05-.1 0-.15.62-.52 1.32-.99 2.1-1.4.1-.06.19-.03.25.07l.49.84ZM20.08 18.7v.02c.04.1.05.16.04.22-.06.4-.1.78-.13 1.16l.02 1.92c0 .04-.01.07-.04.1-.02.01-.02.03-.03.05l-1.09.29c-.07.02-.11 0-.12-.08-.2-1.18-.25-2.35-.14-3.51.01-.06.04-.09.1-.09l1.39-.08Z" fill="#486529"/><path d="M34.35 18.8a17.2 17.2 0 0 1-2.1 1.44c-.2.11-.5.53-.88 1.24a5.94 5.94 0 0 0-2.6-.72l2.27-1.21 1.39-.41 1.92-.35Z" fill="#77A72E"/><path d="M41.6 24.86a13.06 13.06 0 0 0-9.68-2.94c.79-.6 1.59-1.08 2.38-1.44a6.1 6.1 0 0 1 3.49-.6c2.04.32 3.3 1.98 3.8 4.98Z" fill="#A4C422"/><path d="M24.86 19.6c0 .07 0 .12-.02.16a7.02 7.02 0 0 0-.78 2.07c-.27.15-.6.15-.99.03-.04-.01-.06-.05-.05-.1.15-.85.4-1.67.72-2.45.03-.07.08-.09.15-.06l.97.35Z" fill="#486529"/><path d="m41.75 20.05.02.04a.2.2 0 0 0 .08.08l1.44.85c.21.14.36.3.44.52a17.97 17.97 0 0 1 1.25 7.4c0 .23-.06.24-.15.04a11.47 11.47 0 0 0-1.82-2.74 5.04 5.04 0 0 0 .14-4.34 4.1 4.1 0 0 0-.75-.97l-.85-.87c.04.04.1.04.2 0ZM19.99 20.1c.55 1.3 1.24 2.51 2.07 3.63a5.89 5.89 0 0 0-1.1 2.26 15.45 15.45 0 0 1-.73-2.36.1.1 0 0 0-.07-.03l.03-.03a.12.12 0 0 0 .02-.1l-.19-1.25a.05.05 0 0 0-.03-.04.1.1 0 0 0-.05-.01c0-.02.01-.04.03-.05a.13.13 0 0 0 .04-.1l-.02-1.92Z" fill="#77A72E"/><path d="M14.18 20.14c.08.03.13.1.12.2.08 1.25.36 2.5.84 3.76v.2l-1.1.9c-.1.08-.16.07-.21-.04a12.8 12.8 0 0 1-1.06-4.05c0-.09.03-.16.11-.2l1.3-.77Z" fill="#486529"/><path d="M13.27 24.63a7.57 7.57 0 0 0-.9 3.87c.02.8.17 1.7.42 2.69l-.45-.37c-.37-.45-.74-.91-1.1-1.4a.96.96 0 0 1-.22-.52c-.11-2.4.24-4.72 1.08-6.99.1-.3.2-.49.26-.56.04-.05.06-.05.07.01l.4 2.03c.05.23.2.65.44 1.24Z" fill="#77A72E"/><path d="M35.78 23.49c-.02.06-.05.09-.11.07-.8-.25-1.5-.42-2.14-.52a.3.3 0 0 1-.18-.1c-.1-.27-.13-.55-.1-.83.01-.06.05-.09.1-.09.86.04 1.7.14 2.5.3.07.02.1.06.09.13l-.16 1.04ZM40.05 25.88c-.06.04-.12.04-.16 0-.29-.26-.6-.5-.93-.72l-1.71-.97a.17.17 0 0 1-.1-.13V24l.3-1.1c.01-.05.05-.07.1-.05 1.12.4 2.14.96 3.07 1.65.06.05.08.1.04.18l-.6 1.2Z" fill="#486529"/><path d="M35.78 23.49c.03.08.08.14.15.16.39.1.76.25 1.11.43.06.03.1 0 .1-.08l.02.06c0 .06.04.1.09.13l1.71.97-3.75 1.04a9.07 9.07 0 0 0-1.74-3.04.59.59 0 0 1-.12-.22c.05.05.11.09.18.1.63.1 1.34.27 2.14.52.06.02.1 0 .1-.07Z" fill="#77A72E"/><path d="M20.16 23.6a.1.1 0 0 1 .07.03l.03.06c.17.78.4 1.55.7 2.3l-.66.51c-.05.05-.1.04-.14-.02a12.1 12.1 0 0 1-1.02-2.37c-.02-.09 0-.14.09-.17l.93-.34Z" fill="#486529"/><path d="M13.94 26.08a8.88 8.88 0 0 0-.1 2.12c.32 2.41 1.68 3.72 4.1 3.94.52.04 1.33-.05 2.41-.27.47.23.98.36 1.53.4a6.1 6.1 0 0 1-.23.47c-.09.14-.2.26-.37.37a5.92 5.92 0 0 1-3.9 1.04l-1.65-.74-1.03-.63a9.12 9.12 0 0 1-1.91-1.59c-.25-.99-.4-1.89-.43-2.7a7.58 7.58 0 0 1 .9-3.86l.68 1.45ZM40.05 25.88v.04c0 .02 0 .04.02.06l1.26 1.26.6.69c-.9-.3-1.68-.47-2.35-.5-.8-.03-1.58.12-2.32.46a7.64 7.64 0 0 0-2.05-1.7l3.75-1.03c.33.22.64.46.93.72.04.04.1.04.16 0Z" fill="#8EB627"/><path d="M43.66 30.78a.26.26 0 0 1-.14-.13c-.42-.99-.95-1.9-1.6-2.72l-.59-.7.76-1.26c.05-.1.12-.1.2-.02.98 1 1.78 2.14 2.4 3.42.03.06.02.12-.02.17l-1 1.24ZM16.34 26.47l.6.86 1.16 1.33-.73 1.05c-.03.05-.08.06-.13.01-.89-.77-1.66-1.64-2.32-2.6-.06-.07-.05-.15.02-.21l1.05-.98.35.54Z" fill="#486529"/><path d="m19.65 25.99.4.7c-1 .32-2.03.54-3.1.64l-.6-.86c1.1-.07 2.2-.23 3.3-.48Z" fill="#8EB627"/><path d="M13.94 26.08a12.99 12.99 0 0 0 6.41 5.79 9.09 9.09 0 0 1-2.41.27c-2.42-.22-3.78-1.53-4.1-3.94-.05-.48-.02-1.19.1-2.12Z" fill="#A4C422"/><path d="m20.04 26.68.48.72c.03.05.05.1.05.16-.02 1.14.2 2.21.64 3.23a.17.17 0 0 1-.17.01 6.76 6.76 0 0 1-1.66-1.07c-.05-.04-.12-.07-.22-.07l-1.06-1-1.16-1.33c1.08-.1 2.1-.32 3.1-.65Z" fill="#77A72E"/><path d="M36.87 29.59a.24.24 0 0 0-.05-.02 9.26 9.26 0 0 0-1.48-1.85c.04-.23.18-.5.42-.84.05-.05.1-.06.15-.01.66.56 1.25 1.2 1.78 1.91.03.04.03.08-.01.1l-.81.7Z" fill="#486529"/><path d="M41.92 27.93c.65.82 1.18 1.73 1.6 2.72.03.06.07.1.14.13l.59 2c.02.09.02.19 0 .29-.26.87-.6 1.7-1 2.47-.35.16-.7.4-1.06.75-.41.39-.92.63-1.53.7a12.9 12.9 0 0 0-3.4-9.1c.74-.34 1.51-.5 2.32-.46.67.03 1.45.2 2.34.5Z" fill="#A4C422"/><path d="M36.87 29.59v.06c0 .04 0 .08.02.11l.61 1.12.7 1.83a5.92 5.92 0 0 0-1.53-.92 2.89 2.89 0 0 0-1.73-.12c-.14-.36-.18-.6-.13-.73a7.3 7.3 0 0 0 .53-3.21 9.25 9.25 0 0 1 1.48 1.84l.05.02Z" fill="#77A72E"/><path d="M21.21 30.79c.05.32.02.66-.12 1.03-.02.07-.06.09-.13.06-.8-.3-1.56-.67-2.28-1.1-.08-.06-.1-.12-.05-.2l.53-.92c.1 0 .17.03.22.07.5.44 1.05.8 1.66 1.07.06.03.12.02.17-.01ZM38.6 34.16c-.02 0-.04 0-.06-.03a6.92 6.92 0 0 0-.34-1.42l-.7-1.83.97-.68c.06-.05.12-.04.16.03.56 1.02 1 2.1 1.32 3.22.02.1 0 .17-.1.2l-1.24.5ZM12.79 31.19c.54.6 1.18 1.13 1.91 1.59l1.03.63-.28 1.52c-.02.07-.05.1-.12.06a12.83 12.83 0 0 1-3.44-2.43.22.22 0 0 1-.06-.24l.51-1.5.45.37Z" fill="#486529"/><path d="M38.2 32.71a6.92 6.92 0 0 1 .34 1.42c.02.03.04.04.07.03-.05.02-.07.05-.06.1a8.74 8.74 0 0 1 .17 1.67l.06.07c-.02 1.1-.12 2.15-.31 3.16a6.03 6.03 0 0 1-4.94 1.74 12.83 12.83 0 0 0 1.4-9.23c.59-.14 1.16-.1 1.74.12.45.17.96.48 1.53.92Z" fill="#A4C422"/><path d="M33.84 34.92a.13.13 0 0 1-.07-.02c-.02-.02-.02-.04-.02-.07.1-.76.15-1.56.13-2.4l.8-.23c.07-.02.1 0 .12.07.14.84.19 1.7.15 2.56 0 .06-.03.1-.09.1h-1.02Z" fill="#486529"/><path d="M21.88 32.26c.77 1 1.7 1.78 2.79 2.33.05.02.1.09.15.19a.67.67 0 0 0-.54-.09c-.62.16-1.24.22-1.87.2-.06-.01-.1 0-.14.05a.18.18 0 0 0-.02.06c-.05-.05-.09-.07-.12-.07-.38 0-.75 0-1.13-.03-.05 0-.1 0-.12.02a.15.15 0 0 0-.08.11c-.03-.08-.07-.12-.12-.13a18.15 18.15 0 0 1-3.3-.75c1.44.1 2.74-.24 3.9-1.04.16-.1.29-.23.37-.37l.23-.48ZM33.88 32.43a15.71 15.71 0 0 1-.11 2.47l.07.02-.05.03a.15.15 0 0 0-.06.1 88.51 88.51 0 0 1-.24 1.3c0 .01.02.03.05.03-.07.05-.1.1-.11.13-.12.45-.27.9-.45 1.35-.25-.64-.53-1.25-.83-1.84-.24-.46-.6-.79-1.08-.98.09-.22.2-.36.34-.43a6.7 6.7 0 0 0 2.47-2.18ZM14.38 34.86c-.29.75-.34 1.5-.18 2.25.06.24.2.58.42 1.04l.47 1.03a16.76 16.76 0 0 1-3.4-6.14c-.05-.18 0-.2.13-.07a12.3 12.3 0 0 0 2.56 1.89Z" fill="#77A72E"/><path d="m20.8 35.03.08 1.04c0 .1-.05.16-.15.16a13.5 13.5 0 0 1-3.35-.48c-.1-.02-.15-.1-.14-.2l.16-1.37c1.07.34 2.17.58 3.28.72.05 0 .09.05.12.13ZM24.81 34.78l.27.55c.04.1.01.16-.08.2-.8.28-1.62.48-2.47.58-.06 0-.1-.02-.1-.08L22.24 35l.02-.06a.14.14 0 0 1 .14-.06c.63.03 1.25-.03 1.87-.19a.67.67 0 0 1 .53.09Z" fill="#486529"/><path d="M16.62 35.85c-.13 1.4-.1 2.8.08 4.2a69.5 69.5 0 0 0-.96-.22c-.18-.04-.4-.26-.65-.65-.15-.35-.3-.69-.47-1.03-.22-.46-.36-.8-.42-1.04-.16-.75-.1-1.5.18-2.25l2.24.99ZM32.98 37.86l-.8 1.7-.53.8c.24-2-.09-3.5-.99-4.52l.4-.8c.49.2.85.52 1.09.98.3.59.58 1.2.83 1.84Z" fill="#8EB627"/><path d="M27.96 37.04a5.5 5.5 0 0 0 1.52-1.75c.26-.15.6-.06 1.03.28.03.02.03.05.01.09-.43.75-.94 1.44-1.52 2.07-.06.06-.12.07-.18.01l-.86-.7Z" fill="#486529"/><path d="M29.48 35.3a5.49 5.49 0 0 1-1.52 1.74l-1.07.89-.83.54c.14-1.07.13-2.13-.05-3.18.64.01 1.28.06 1.93.13.25.03.76-.01 1.54-.13ZM43.25 35.54a16.36 16.36 0 0 1-2.8 4.1c-.11.13-.16.1-.14-.06l.35-2.58c.61-.08 1.12-.32 1.53-.71.36-.34.71-.6 1.06-.75Z" fill="#77A72E"/><path d="M26.01 35.29c.18 1.05.2 2.1.05 3.18-.65.38-1.34.72-2.07 1-.05.01-.09.04-.1.07a.2.2 0 0 0-.02.14.13.13 0 0 0-.1-.1.2.2 0 0 0-.12.01c-.48.17-.97.31-1.47.42a.12.12 0 0 0-.09.08l-.02.06-.03-.04a.09.09 0 0 0-.1-.04c-1.33.24-2.7.3-4.12.2l-1.12-.21c-.18-1.4-.2-2.8-.08-4.21 1.24.4 2.42.61 3.56.66A12.1 12.1 0 0 0 26 35.3Z" fill="#A4C422"/><path d="m38.23 40.23.24-1.07c.19-1.01.3-2.06.3-3.16l1.39-.47c.09-.03.14 0 .14.1.1 1.36-.02 2.72-.34 4.07a.4.4 0 0 1-.34.33c-.43.09-.9.16-1.4.2Z" fill="#486529"/><path d="M30.66 35.84c.9 1.02 1.23 2.53.99 4.52l-.53.73a11.4 11.4 0 0 1-2.78 2.6c-.84 0-1.6-.05-2.27-.15a6.43 6.43 0 0 1-3.43-1.66 12.9 12.9 0 0 0 8.02-6.04Z" fill="#A4C422"/><path d="m33.54 36.38 1.13.08c.1 0 .14.06.12.15a13.44 13.44 0 0 1-1.08 3.28c-.04.09-.1.12-.2.09l-1.34-.43.81-1.69c.18-.45.33-.9.45-1.35 0-.04.04-.08.11-.13ZM26.9 37.93l.8.85c.07.07.07.14 0 .2-.95.76-1.92 1.37-2.93 1.83-.1.04-.16.02-.22-.07l-.68-1.06a.2.2 0 0 1 .02-.14c.01-.03.05-.06.1-.08.73-.27 1.42-.6 2.07-1l.83-.53Z" fill="#486529"/><path d="m38.47 39.16-.24 1.07-.82 2.01c-.17-.15-.36-.17-.59-.09-1.4.55-2.8.6-4.23.16l.94-1.42c1.87.2 3.52-.39 4.94-1.73Z" fill="#8EB627"/><path d="m22.07 40.15.71 1.2c.05.1.03.15-.07.18-1.4.34-2.8.45-4.2.35a.18.18 0 0 1-.17-.13l-.52-1.49c1.42.11 2.8.05 4.13-.19.04 0 .07 0 .1.04l.02.04ZM31.12 41.09l1.39.51c.1.04.12.1.06.18a12.66 12.66 0 0 1-3 2.98.18.18 0 0 1-.2.01l-1.28-.76c.01-.09.1-.2.25-.32a11.4 11.4 0 0 0 2.78-2.6Z" fill="#486529"/><path d="M37.4 42.24A16.66 16.66 0 0 1 30.06 45c-.21.03-.23-.02-.06-.15.98-.72 1.85-1.56 2.6-2.53 1.42.45 2.83.4 4.23-.16.23-.08.42-.06.59.1Z" fill="#77A72E"/><path d="M22.64 41.88c1 .91 2.15 1.47 3.43 1.66.67.1 1.43.15 2.27.15-.16.12-.24.23-.25.32-.59.26-1.19.56-1.8.9-.1.04-.2.07-.32.05a14.4 14.4 0 0 1-3.87-.91 7.09 7.09 0 0 0-.72-.65 2.48 2.48 0 0 1-.52-.54 2 2 0 0 0-.66-.6l2.44-.38Z" fill="#8EB627"/><path d="M20.2 42.27c.22.1.44.3.66.59l.12.15c.1.13.24.26.4.39.25.2.5.41.72.65-1.2-.46-2.29-.98-3.26-1.59-.24-.15-.22-.22.06-.22l1.3.03Z" fill="#77A72E"/></svg>