<!-- by TradingView --><svg width="56" height="56" viewBox="0 0 56 56" xmlns="http://www.w3.org/2000/svg"><path fill="#F0F3FA" d="M0 0h56v56H0z"/><path fill-rule="evenodd" d="M13 13h13v1.14a14 14 0 0 0 0 27.72V43H13V13Zm30 30H31v-1.32A14.02 14.02 0 0 0 41.42 32h-4.06A10.2 10.2 0 0 1 31 37.73V32h-5v5.98a10.18 10.18 0 0 1 0-19.96V25h5v-6.73A10.2 10.2 0 0 1 37.73 25h3.95A14.02 14.02 0 0 0 31 14.32V13h12v30ZM19 27v2.99h.8v-1.27h1.4v1.27h.8V27h-.8v1.27h-1.4V27H19Zm4.31 0-1.23 2.99h.72l.33-.85h1.04l.32.85h.72L24.07 27h-.76Zm.34.79.36.94h-.73l.37-.94Zm1.9-.77V30h.67v-1.27h.37l.82 1.27h.67v-.16l-.89-1.18a.85.85 0 0 0 .54-.78c0-.47-.4-.85-.9-.85h-1.29Zm.64.44h.48c.26 0 .46.2.46.44s-.2.44-.46.44h-.48v-.88ZM28.3 30v-3h1.07l.73 2.36.83-2.36H32v3h-.74v-2.18L30.37 30h-.6L29 27.82V30h-.69Zm5.72 0c.87 0 1.57-.66 1.57-1.47 0-.81-.7-1.47-1.57-1.47-.87 0-1.57.66-1.57 1.47 0 .8.7 1.47 1.57 1.47Zm0-.4c.47 0 .86-.48.86-1.07 0-.6-.39-1.07-.86-1.07-.48 0-.86.48-.86 1.07 0 .6.38 1.07.86 1.07ZM36 30v-3h.88l1.27 2v-2h.71v3h-.79l-1.37-2.08V30H36Zm4.07-3h-.88l1.06 1.79V30H41v-1.21L42 27h-.83l-.58 1.27-.52-1.27Z" fill="#D63733"/></svg>