<!-- by TradingView --><svg width="56" height="56" viewBox="0 0 56 56" xmlns="http://www.w3.org/2000/svg"><path fill="#F0F3FA" d="M0 0h56v56H0z"/><path fill-rule="evenodd" d="M31.93 15H25v13h6.93c3.39 0 7.07-2.91 7.07-6.5S35.32 15 31.93 15Zm-1.11 2H26v10h4.82c2.13 0 4.18-2.24 4.18-5s-2.05-5-4.18-5ZM33.03 41h-7.8V28h7.8c3.82 0 7.97 2.91 7.97 6.5S36.85 41 33.03 41Zm-1.68-2H26V29h5.35c2.37 0 4.65 2.24 4.65 5s-2.28 5-4.65 5Z" fill="#FDC765"/><path d="M16 12h15v2h-3.66c-.74 0-1.34.6-1.34 1.33v25.34c0 .73.6 1.33 1.34 1.33H31v2H16v-2h3.66c.74 0 1.34-.6 1.34-1.33V15.33c0-.73-.6-1.33-1.34-1.33H16v-2Z" fill="#24A9E1"/></svg>