<!-- by TradingView --><svg width="56" height="56" viewBox="0 0 56 56" xmlns="http://www.w3.org/2000/svg"><path fill="#ED1B24" d="M0 0h56v56H0z"/><path d="M31.27 23H27c0-2.5-1.43-3-2.48-3S22 20.08 22 22.26c0 2.18 1.31 2.43 3.9 3.74 2.58 1.32 6.1 1.98 6.1 7.08S28.69 40 24.52 40C17.8 40 17 34.5 17 32h4.61c0 2.62.93 4 2.91 4S27 34.98 27 33.5c0-1.49-.78-2.76-2.8-3.42-4.12-1.36-6.83-2.97-6.83-7.2 0-4.25 2.22-6.88 6.83-6.88 6.14 0 7.27 4.7 7.07 7ZM10 16h5v24h-5zM40 16h-5v24h13v-4h-8V16Z" fill="#fff"/></svg>