<!-- by TradingView --><svg width="56" height="56" viewBox="0 0 56 56" xmlns="http://www.w3.org/2000/svg"><path fill="#F0F3FA" d="M0 0h56v56H0z"/><path d="M42 34.1v-6.46c0-.63-.03-.8-.33-1.01l-.23-.15c-.11-.1-.11-.38 0-.47.66-.2 1.8-.7 2.25-1 .12-.02.28.04.34.18-.03.2-.03.37-.03.53 0 .11.06.2.13.22.48-.24 1.27-.64 2.12-.64 1.72 0 2.75 1.33 2.75 3.04 0 2.23-1.6 3.66-3.96 3.66-.22 0-.65-.02-.8-.05-.14.03-.24.13-.24.46v1.7c0 1.11.14 1.24.67 1.29l.55.04c.13.1-.02.56-.02.56h-4.13s-.15-.46-.02-.56l.33-.03c.53-.06.62-.19.62-1.3Zm2-6.55v2.43c0 .35.13.68.37.92.21.22.6.37.85.37 1 0 1.78-.94 1.78-2.42 0-1.56-1-2.45-2.07-2.45-.27 0-.62.07-.75.23-.08.1-.18.3-.18.92ZM39 27.24v2.2c0 1.06.36 1.44.7 1.44.2 0 .36-.05.63-.2.15.03.25.23.2.38-.2.27-.99.94-1.94.94-.58 0-.95-.24-1.4-.62-.12-.1-.18-.14-.27-.14-.08 0-.18.07-.35.19-.3.21-.8.57-1.42.57-.96 0-2.15-.62-2.15-1.8 0-.84.8-1.36 2.02-1.73.63-.2 1.1-.33 1.57-.46.3-.09.4-.2.41-.34v-.57c0-.63-.15-1.25-.87-1.25-.4 0-.83.05-.94.77a.73.73 0 0 1-.29.53c-.25.19-.9.39-1.2.39-.28 0-.38-.19-.38-.42 0-.43.4-.97.8-1.28A5 5 0 0 1 37 25c1.4 0 2.08.52 2 2.24Zm-2 2.82V29c0-.27-.06-.32-.18-.3-.75.1-1.4.38-1.4 1.16 0 .54.38 1.13.85 1.13.52 0 .71-.43.73-.94ZM29.86 25c.52 0 1.2.11 1.62.28.2.18.32.4.32.85 0 .49-.22.93-.4.93-.08 0-.22-.03-.25-.08-.43-.66-1.03-1.23-1.59-1.23-1 0-1.56 1.21-1.56 2.34 0 1.3.8 2.6 2.23 2.6.57 0 1.03-.2 1.37-.8.18-.02.4.1.4.36A2.92 2.92 0 0 1 29.27 32C27.33 32 26 30.63 26 28.7c0-2.33 1.77-3.7 3.86-3.7ZM18 30.07V27.6c0-.64.04-.82-.3-1.03l-.24-.15c-.12-.1-.12-.39 0-.49.83-.2 1.74-.65 2.25-.94.14 0 .22.05.29.15v.73c0 .1 0 .13.06.13.05 0 .23-.08.34-.13a4.54 4.54 0 0 1 2.01-.65c1.46 0 1.59.92 1.59 2.04v2.8c0 1.13.07 1.26.7 1.33l.28.03c.14.1-.01.57-.01.57h-3.74s-.16-.47-.02-.57l.32-.05c.4-.05.47-.18.47-1.07v-2.74c0-.64-.02-1.16-.9-1.16-.5 0-.85.21-.99.4-.1.1-.11.3-.11.6v2.9c0 .9.04 1.02.48 1.09l.28.03c.14.1-.01.57-.01.57h-3.67s-.16-.47-.02-.57l.28-.03c.63-.07.66-.2.66-1.33ZM14 30.07c0 1.13.11 1.26.64 1.33l.3.03c.14.1 0 .57 0 .57h-3.87s-.15-.47-.02-.57l.3-.03c.54-.07.65-.2.65-1.33V27.6c0-.64-.05-.82-.35-1.03l-.23-.15c-.1-.1-.1-.39 0-.49.76-.2 1.83-.65 2.31-.94.13 0 .2.05.27.15v4.92Z" fill="#2D4C9C"/><path d="M13.19 18.51 5 25l7.47-4.34.29 1.46L22 16l-8.38 4.3-.43-1.79Z" fill="#EA7219"/><path d="M12.05 22.18 5 27l6.18-3.5.18 1.27L18 20l-5.76 3.27-.19-1.09Z" fill="#2D4C9C"/></svg>