<!-- by TradingView --><svg width="56" height="56" viewBox="0 0 56 56" xmlns="http://www.w3.org/2000/svg"><path fill="#F0F3FA" d="M0 0h56v56H0z"/><path d="M26 27h15v7H26zM26 36h15v6H26zM15.22 20H15v22h8V26.95A9 9 0 0 1 15.22 20Zm14.44 5H41v-6h-8.05a8.99 8.99 0 0 1-3.3 6Z"/><path fill-rule="evenodd" d="M24 25a7 7 0 0 0 4.33-12.51 6.97 6.97 0 0 0-8.69.03l-.04-.03a6.7 6.7 0 0 0-.75.76A7 7 0 0 0 24 25Zm.5-12.98c1.1.1 2.1.47 2.95 1.07-.87.49-1.87.8-2.95.88v-1.95Zm-1 0c-1.1.1-2.13.48-2.98 1.1a7 7 0 0 0 2.98.86v-1.96Zm0 2.97a8.22 8.22 0 0 1-3.82-1.16 5.98 5.98 0 0 0-1.66 3.67h5.48v-2.51Zm-5.48 3.51c.12 1.42.73 2.7 1.66 3.67A8.22 8.22 0 0 1 23.5 21V18.5h-5.48Zm6.48 2.52V18.5h5.48a5.98 5.98 0 0 1-1.69 3.7 8.2 8.2 0 0 0-3.79-1.18Zm-1 1a7 7 0 0 0-2.98.87c.86.6 1.88 1 2.98 1.09v-1.96Zm1 1.96v-1.95c1.08.08 2.08.4 2.95.88-.85.6-1.86.98-2.95 1.07Zm5.48-6.48a5.98 5.98 0 0 0-1.69-3.7 8.2 8.2 0 0 1-3.79 1.18v2.52h5.48Z"/></svg>