<!-- by TradingView --><svg width="56" height="56" viewBox="0 0 56 56" xmlns="http://www.w3.org/2000/svg"><path fill="#F0F3FA" d="M0 0h56v56H0z"/><path fill-rule="evenodd" d="M39.92 37.63c4.9-2.19 8.08-5.7 8.08-9.65 0-6.3-8.08-11.48-18.35-11.98l3.42 7.2-3.2 2.81-1.9-4.01-8.06 16.98C22.38 39.63 25.12 40 28 40c2.86 0 5.58-.36 8.04-1.01l-4.29-9.02c.58-1.04 1.6-2.56 2.8-3.62l5.37 11.28ZM26.29 16C16.05 16.52 8 21.7 8 27.98c0 3.94 3.16 7.44 8.03 9.63l10.26-21.6ZM38 21c-3.68 2.27-12.04 8.87-16 17.06 1.08.3 3.1.75 3.98.94 1.36-3.54 5.68-12.1 12.02-18Z" fill="#011061"/></svg>