<!-- by TradingView --><svg width="56" height="56" viewBox="0 0 56 56" xmlns="http://www.w3.org/2000/svg"><path fill="#F0F3FA" d="M0 0h56v56H0z"/><path fill-rule="evenodd" d="m4 34 3.75-12H52l-4.44 12H4Zm1.23-1L8.8 23h41.76l-3.78 10H5.23Z" fill="#801618"/><path fill-rule="evenodd" d="M42.77 27.5H46l-.95 2.88c-.47.2-1.9.62-3.83.62-2.42 0-3.33-1.18-3.33-2.47 0-1.28 1.66-3.53 4.88-3.53a6.3 6.3 0 0 1 3.14.65l-.68 1.56c-.24-.17-.96-.5-1.89-.5-1.15 0-2.32.72-2.32 1.82.17.78.94.65 1.3.5l.45-1.53ZM10.02 25 8 31h3.3l1.93-6h-3.2Zm4.31 0-1.9 6h2.94l.81-2.2L17 31h3.02l1.68-6h-2.85l-.78 1.94-.74-1.94h-2.99Zm11.75 6h-5.02l1.77-6h5.6a2.59 2.59 0 0 1 1.27 2.1c0 1.62-2.23 3.9-3.62 3.9Zm-.67-4-.75 2h.88l.16-.24c.22-.3.53-.76.53-1.09 0-.42-.11-.62-.17-.67h-.65Zm3.18 4h3.27l.58-1h1.49v1h3.23l-.32-6h-4.37l-3.88 6Zm5.34-2.5v-1.04l-.61 1.04h.6Z"/></svg>