<!-- by TradingView --><svg width="56" height="56" viewBox="0 0 56 56" xmlns="http://www.w3.org/2000/svg"><path fill="#F0F3FA" d="M0 0h56v56H0z"/><path d="m26.89 12.08-1.45 3.71c-.04.1-.1.15-.2.17-2.23.4-4.3 1.22-6.22 2.47-.13.09-.17.06-.12-.1a68.58 68.58 0 0 1 1.77-4.51c.06-.1.15-.17.25-.22 1.93-.91 3.9-1.45 5.9-1.6.03 0 .05 0 .06.02.01.02.02.04 0 .06Z" fill="#009ED6"/><path d="m31.04 15.22 1.08-2.52c.03-.06.07-.1.13-.13a.24.24 0 0 1 .19-.02c1.55.47 2.98 1.12 4.28 1.95.08.05.1.12.07.21l-.99 2.65a.12.12 0 0 1-.07.07.12.12 0 0 1-.1 0 16.09 16.09 0 0 0-4.7-1.5c-.06-.02-.1-.06-.08-.13.04-.2.1-.39.19-.58Z" fill="#61A83C"/><path d="M16.44 17.46a35.4 35.4 0 0 0-2.15 18.73c.04.27 0 .29-.14.05a16.29 16.29 0 0 1-2.14-8.7 16.02 16.02 0 0 1 4.64-10.86c.11-.11.14-.1.08.06l-.29.72Z" fill="#009ED6"/><path d="M37.8 40.94a16.7 16.7 0 0 1-3.14 1.86c-1.29.56-2.47.81-3.53.74-2.64-.18-4.2-1.63-4.67-4.36-.12-.74-.14-1.69-.05-2.84a79.9 79.9 0 0 1 3.83-18.97.18.18 0 0 1 .2-.12c1.67.26 3.26.76 4.76 1.5.08.04.1.1.07.19a81.02 81.02 0 0 0-3.35 14.52 18.5 18.5 0 0 0-.11 4.17c.08.74.24 1.39.48 1.95.48 1.14 1.27 1.78 2.37 1.93a5.69 5.69 0 0 0 3.14-.63l.01.05v.01Z" fill="#61A83C"/><path d="M16.37 30.14c.28-3.2.85-6.27 1.74-9.22a.33.33 0 0 1 .1-.16c1.85-1.57 4-2.66 6.47-3.27.12-.02.16.02.12.14a80.69 80.69 0 0 0-3.38 13.87 21.8 21.8 0 0 0-.32 3.95c.13 3.3 1.48 6.11 4.04 8.45.1.08.08.12-.04.1a16.53 16.53 0 0 1-6.62-2.9c-.16-.12-.3-.26-.4-.42a11.64 11.64 0 0 1-1.63-3.95c-.14-.7-.21-1.57-.2-2.63 0-1.73.05-3.05.12-3.96ZM36.41 32.26c.41-2.2 1.03-4.5 1.85-6.91.72-2.1 1.6-4.34 2.68-6.72a.07.07 0 0 1 .05-.05c.03 0 .05.01.07.03a18.5 18.5 0 0 1 1.77 3.16c.1.21.16.4.17.55.01.17-.02.36-.1.57A59.37 59.37 0 0 0 39.5 34.9c-.12.7.07 1.17.57 1.42.21.1.47.17.76.18.27.02.55-.01.85-.07.03-.01.05 0 .07.02v.08c-.23.36-.52.67-.87.93-.8.57-1.53.92-2.2 1.05-.92.18-1.6-.08-2.06-.79a3.6 3.6 0 0 1-.49-1.47 7.16 7.16 0 0 1-.03-1.59c.1-1 .19-1.8.3-2.41Z" fill="#009ED6"/></svg>