<!-- by TradingView --><svg width="56" height="56" viewBox="0 0 56 56" xmlns="http://www.w3.org/2000/svg"><path fill="#F0F3FA" d="M0 0h56v56H0z"/><path d="M20.47 35.48H25c0 2.89 1.84 5.52 4.68 5.52C32.5 41 35 38.37 35 35.48V34h-4l.97-4H39v5.54A9.37 9.37 0 0 1 29.73 45a9.37 9.37 0 0 1-9.26-9.46v-.06Z" fill="#121415"/><path d="M36.92 19.87c5.49-.96 6.31-6.31 6.03-8.87-3.67 4.2-5.44 4.27-8.75 5.4-4.97 1.67-7.58 3.47-7.82 10.66-.23 7.19-4.61 8.15-6.15 8.15a4.48 4.48 0 0 1-4.26-4.68c0-2.68 2.45-4.73 3.67-5.53h-6.15c-.83.76-2.49 2.94-2.49 6.5 0 4.43 4.14 8.5 9.23 8.5 8.88 0 9.82-7.31 10.42-12.94.59-5.63 3.43-6.83 6.27-7.2Z" fill="#CA3B37"/><path d="M42.57 14.84c-1.07.89-2.99 2.1-5.65 2.75-4.38 1.08-7.33 3.36-7.92 9.95C28.37 34.6 26.03 38 20 38c-4.86 0-7-4-7-7.47 0-1.87 1.14-4.04 3.24-5.53h3.4c-1.22.8-3.67 2.85-3.67 5.53A4.28 4.28 0 0 0 20.23 35c1.54 0 5.53-.75 5.77-7.94.24-7.2 3.23-8.99 8.2-10.67 3.31-1.12 5.08-1.2 8.75-5.39.11 1 .05 2.42-.38 3.84Z" fill="#121415"/></svg>