<!-- by TradingView --><svg width="56" height="56" viewBox="0 0 56 56" xmlns="http://www.w3.org/2000/svg"><path fill="#F0F3FA" d="M0 0h56v56H0z"/><path fill-rule="evenodd" d="M47 25.92 52 28l-5 2.08V33h-7l-12 5-12-5H9v-2.92L4 28l5-2.08V23h7l12-5 12 5h7v2.92Zm0 1.03v2.1L49.51 28 47 26.95ZM37.5 23 28 19.05 18.5 23h2.75L28 20l6.75 3h2.75Zm-4.63 0L28 20.84 23.13 23h2.47l2.4-1 2.4 1h2.47ZM9 26.95 6.49 28 9 29.05v-2.1ZM18.5 33l9.5 3.95L37.5 33h-2.75L28 36l-6.75-3H18.5Zm4.63 0L28 35.16 32.87 33H30.4L28 34l-2.4-1h-2.47ZM10 24h36v8H10v-8Zm35 1H11v6h34v-6Zm-1 1H12v4h32v-4Z" fill="#381377"/><path d="M40 29v-2h.63l.37 1.36.37-1.36H42v2h-.39v-1.57l-.4 1.57h-.41l-.41-1.57V29H40ZM35 29v-2h1.95v.34h-1.42v.44h1.32v.34h-1.32v.54H37V29h-2ZM31 29v-2h.45v.89l.9-.89h.6l-.83.78L33 29h-.58l-.6-.94-.37.34v.6H31ZM26 28.01c0-.2.03-.36.1-.5a.92.92 0 0 1 .45-.43c.13-.05.28-.08.45-.08a1 1 0 0 1 .73.27c.18.17.27.42.27.73s-.09.56-.27.74A1 1 0 0 1 27 29a1 1 0 0 1-.73-.26A.97.97 0 0 1 26 28Zm.43-.01c0 .22.05.38.16.5.1.11.25.17.41.17.17 0 .3-.06.4-.17.12-.11.17-.28.17-.5 0-.23-.05-.4-.16-.5a.54.54 0 0 0-.4-.17.55.55 0 0 0-.42.17c-.1.11-.16.28-.16.5ZM21 27h.88c.2 0 .35.01.45.04a.84.84 0 0 1 .6.5c.04.13.07.3.07.48 0 .16-.02.3-.07.42a.87.87 0 0 1-.26.36.9.9 0 0 1-.34.16c-.1.03-.25.04-.42.04H21v-2Zm.48.34v1.32h.36c.14 0 .23 0 .3-.02a.47.47 0 0 0 .19-.08.4.4 0 0 0 .12-.2c.04-.08.05-.2.05-.36 0-.15-.01-.27-.05-.35a.45.45 0 0 0-.13-.2.5.5 0 0 0-.23-.1 2.6 2.6 0 0 0-.4-.01h-.2ZM16 29v-2h.5l1.03 1.34V27H18v2h-.51l-1.02-1.3V29H16ZM13 29v-2h.5v2H13Z" fill="#381377"/></svg>