<!-- by TradingView --><svg width="56" height="56" viewBox="0 0 56 56" xmlns="http://www.w3.org/2000/svg"><path fill="#181B1E" d="M0 0h56v56H0z"/><path d="M38.56 34v-.5c.95 0 1.44-.45 1.44-1.42v-8.16c0-.97-.5-1.42-1.45-1.42V22h6.06v.5h-.16c-.96 0-1.45.46-1.45 1.42v8.42c0 .7.27.96.97.96 2.51 0 3.63-1.1 4.55-3.4l.48.1-.86 4h-9.58ZM25 31.58A6.15 6.15 0 0 1 20.04 34 5.94 5.94 0 0 1 14 28c0-3.4 2.66-6 6.04-6 1.11 0 2.38.22 3.27.65.28.13.52.16.74.07.21-.1.36-.28.44-.56l.04-.16H25v4h-.47a4.77 4.77 0 0 0-1.54-2.38 4.26 4.26 0 0 0-2.68-.92c-2.7 0-3.34 3.06-3.34 5.2 0 2.16.65 5.2 3.34 5.2 1.66 0 3.03-.78 4.14-1.97l.55.45ZM37 31.58A6.15 6.15 0 0 1 32.04 34 5.94 5.94 0 0 1 26 28c0-3.4 2.66-6 6.04-6 1.11 0 2.38.22 3.27.65.28.13.52.16.74.07.21-.1.36-.28.44-.56l.04-.16H37v4h-.47a4.77 4.77 0 0 0-1.54-2.38 4.26 4.26 0 0 0-2.68-.92c-2.7 0-3.34 3.06-3.34 5.2 0 2.16.65 5.2 3.34 5.2 1.66 0 3.03-.78 4.14-1.97l.55.45ZM9 32.08v-8.16c0-.96-.55-1.42-1.5-1.42V22h6v.5c-.95 0-1.5.47-1.5 1.42v8.16c0 .96.55 1.42 1.5 1.42v.5h-6v-.5c.95 0 1.5-.47 1.5-1.42Z" fill="#fff"/></svg>