<!-- by TradingView --><svg width="56" height="56" viewBox="0 0 56 56" xmlns="http://www.w3.org/2000/svg"><path fill="#F0F3FA" d="M0 0h56v56H0z"/><path d="M27.73 9.12c.15-.16.4-.16.54 0l.95 1.02c.12.14.33.16.48.05l1.13-.82a.37.37 0 0 1 .53.1l.73 1.2c.1.16.3.22.47.14l1.27-.59c.2-.09.42 0 .5.21l.48 1.31c.06.18.25.28.43.23l1.36-.33c.2-.05.41.1.45.3l.22 1.38c.02.19.19.32.37.31l1.4-.05c.21-.01.39.17.38.38l-.05 1.4c-.01.18.12.35.3.37l1.39.22c.2.04.35.24.3.45l-.33 1.36c-.05.18.05.37.23.43l1.3.48c.21.08.3.3.22.5l-.59 1.27a.37.37 0 0 0 .14.47l1.2.73c.18.1.23.35.1.53l-.82 1.13a.37.37 0 0 0 .05.48l1.02.95c.16.15.16.4 0 .54l-1.02.95a.37.37 0 0 0-.05.48l.82 1.13c.13.18.08.42-.1.53l-1.2.73c-.16.1-.22.3-.14.47l.59 1.27c.09.2 0 .42-.21.5l-1.31.48a.37.37 0 0 0-.23.43l.33 1.36c.05.2-.1.41-.3.45l-1.38.22a.37.37 0 0 0-.31.37l.05 1.4c.01.21-.17.39-.38.38l-1.4-.05a.37.37 0 0 0-.37.3l-.22 1.39a.37.37 0 0 1-.45.3l-1.36-.33a.37.37 0 0 0-.43.23l-.48 1.3c-.08.21-.3.3-.5.22l-1.27-.59a.37.37 0 0 0-.47.14l-.73 1.2a.37.37 0 0 1-.53.1l-1.13-.82a.37.37 0 0 0-.48.05l-.95 1.02a.37.37 0 0 1-.54 0l-.95-1.02a.37.37 0 0 0-.48-.05l-1.13.82a.37.37 0 0 1-.53-.1l-.73-1.2a.37.37 0 0 0-.47-.14l-1.27.59c-.2.09-.42 0-.5-.21l-.48-1.31a.37.37 0 0 0-.43-.23l-1.36.33a.37.37 0 0 1-.45-.3l-.22-1.38a.37.37 0 0 0-.37-.31l-1.4.05a.37.37 0 0 1-.38-.38l.05-1.4a.37.37 0 0 0-.3-.37l-1.39-.22a.37.37 0 0 1-.3-.45l.33-1.36a.37.37 0 0 0-.23-.43l-1.3-.48a.37.37 0 0 1-.22-.5l.59-1.27a.37.37 0 0 0-.14-.47l-1.2-.73a.37.37 0 0 1-.1-.53l.82-1.13a.37.37 0 0 0-.05-.48l-1.02-.95a.37.37 0 0 1 0-.54l1.02-.95a.37.37 0 0 0 .05-.48l-.82-1.13a.37.37 0 0 1 .1-.53l1.2-.73c.16-.1.22-.3.14-.47l-.59-1.27c-.09-.2 0-.42.21-.5l1.31-.48a.37.37 0 0 0 .23-.43l-.33-1.36a.37.37 0 0 1 .3-.45l1.38-.22c.19-.02.32-.19.31-.37l-.05-1.4c-.01-.21.17-.39.38-.38l1.4.05c.18.01.35-.12.37-.3l.22-1.39a.37.37 0 0 1 .45-.3l1.36.33c.18.05.37-.05.43-.23l.48-1.3c.08-.21.3-.3.5-.22l1.27.59c.17.08.37.02.47-.14l.73-1.2a.37.37 0 0 1 .53-.1l1.13.82c.15.11.36.1.48-.05l.95-1.02Z" fill="url(#a)"/><path fill-rule="evenodd" d="M28 39a14 14 0 1 0 0-28 14 14 0 0 0 0 28Zm0-.36a13.64 13.64 0 1 0 0-27.28 13.64 13.64 0 0 0 0 27.28Z" fill="#255515"/><path d="M27.99 35.18c5.6 0 10.15-4.52 10.15-10.09S33.6 15 27.99 15c-5.6 0-10.15 4.52-10.15 10.1 0 5.56 4.55 10.08 10.15 10.08Zm0-.54c5.3 0 9.6-4.27 9.6-9.55 0-5.27-4.3-9.55-9.6-9.55s-9.6 4.28-9.6 9.55c0 5.28 4.3 9.55 9.6 9.55Z" fill="#D6C179"/><ellipse cx="27.99" cy="25.09" rx="9.79" ry="9.73" fill="#54B234"/><circle cx="28" cy="25" r="7" fill="#77FA4C"/><path d="m21.72 36-.3-.17.83-1.4.3.16-.83 1.41Zm-2.05-3.6.25.23-.32 1.3.81-.84.23.22-1.14 1.17-.26-.24.32-1.27-.8.82-.23-.22 1.14-1.17Zm-1.56-2.15.36.6-1.44.82-.36-.6a.85.85 0 0 1-.1-.24.53.53 0 0 1 .05-.35c.04-.09.1-.16.17-.23a1.27 1.27 0 0 1 .78-.32c.23 0 .42.11.54.32Zm-1.2.39c-.05.09-.04.2.04.33l.16.27.94-.53-.16-.27c-.08-.14-.2-.2-.38-.17-.1.01-.2.05-.3.11a.78.78 0 0 0-.3.26Zm-1.39-2.27-.09-.32 1.6-.44.09.32-1.6.44Zm.8-3.61.01.6.35.1v.35l-1.66-.54-.01-.38 1.64-.62v.37l-.33.12Zm-.28.1-.65.22.66.19-.01-.41Zm1.21-3.66-.1.32-1.31.32 1.13.32-.09.3-1.6-.44.1-.34 1.3-.31-1.11-.31.09-.3 1.59.44Zm1.26-2.94a.6.6 0 0 0 .1-.18c.02-.1 0-.17-.08-.22a.14.14 0 0 0-.14-.02.77.77 0 0 0-.2.14l-.13.12c-.13.11-.24.18-.31.21-.13.05-.26.02-.4-.07a.47.47 0 0 1-.2-.34c-.02-.14.04-.3.16-.46.1-.14.22-.23.37-.28a.5.5 0 0 1 .44.07l-.2.27a.24.24 0 0 0-.24-.02.43.43 0 0 0-.15.14.37.37 0 0 0-.08.2c0 .06.02.11.07.15.05.04.1.04.16.01l.18-.13.22-.19c.1-.08.19-.13.26-.16a.41.41 0 0 1 .37.08c.12.08.19.2.2.35.02.15-.04.3-.16.48a.8.8 0 0 1-.42.32.5.5 0 0 1-.43-.08l.19-.27c.06.04.12.05.17.05.09 0 .17-.06.25-.17Zm2.26-2.88-.63-.78.28-.21.63.78c.1.14.17.26.19.37.03.2-.07.39-.3.56-.22.17-.43.22-.62.15a.85.85 0 0 1-.32-.27l-.63-.79.28-.21.63.79c.07.08.13.14.18.16.1.05.2.03.3-.06.11-.08.16-.17.13-.27a.55.55 0 0 0-.12-.22Zm3.41-1.26a.67.67 0 0 1-.38.33.73.73 0 0 1-.6 0 .9.9 0 0 1-.43-.51c-.1-.27-.11-.5-.02-.7.07-.17.2-.3.4-.37.26-.1.48-.09.67.03.1.07.18.15.22.24l-.32.13a.47.47 0 0 0-.15-.13c-.08-.05-.18-.05-.3 0a.34.34 0 0 0-.22.24.7.7 0 0 0 .06.44c.06.17.15.28.26.34.1.05.21.06.32.02.11-.05.18-.12.21-.21a.5.5 0 0 0 .02-.2l.31-.13c.04.17.03.34-.05.48ZM26.96 13l-.36.02.05.64-.34.02-.12-1.62.8-.06c.12 0 .21 0 .28.02.06.02.12.06.16.1a.45.45 0 0 1 .14.3c.01.08 0 .16-.04.23a.33.33 0 0 1-.18.18c.08.02.13.06.17.11.04.06.06.14.07.25v.11l.03.15c0 .04.03.07.07.09v.04l-.38.03a.82.82 0 0 1-.05-.22l-.02-.16c0-.1-.03-.17-.07-.2-.04-.03-.11-.04-.21-.03Zm.18-.31c.07-.04.1-.1.1-.2-.02-.1-.05-.16-.12-.19a.38.38 0 0 0-.17-.01l-.4.03.03.43.39-.03c.08 0 .14-.01.17-.03Zm3.19 1.15c-.24-.04-.4-.14-.5-.28-.14-.18-.18-.42-.13-.7.05-.3.18-.5.37-.62.14-.1.33-.14.57-.1.23.05.4.14.5.29.13.17.18.4.12.7-.05.28-.17.49-.36.61-.15.1-.34.14-.57.1Zm.4-.38c.1-.08.16-.21.2-.4a.65.65 0 0 0-.05-.43.4.4 0 0 0-.3-.2.4.4 0 0 0-.35.09.65.65 0 0 0-.2.4.65.65 0 0 0 .05.43.4.4 0 0 0 .3.2.4.4 0 0 0 .35-.09Zm2.83 1.2c.07.04.13.07.19.07.1.02.17-.02.21-.1a.14.14 0 0 0 0-.14.76.76 0 0 0-.17-.17l-.14-.12a1.1 1.1 0 0 1-.26-.27c-.06-.11-.06-.24.02-.38a.48.48 0 0 1 .3-.25c.15-.04.31-.01.5.08.16.08.27.19.33.32.07.14.07.28 0 .44l-.3-.15c.04-.09.03-.17-.02-.24a.44.44 0 0 0-.16-.13.39.39 0 0 0-.22-.05.17.17 0 0 0-.14.1.14.14 0 0 0 .01.15l.16.16.23.18c.1.08.16.16.2.23.05.12.04.24-.03.37a.48.48 0 0 1-.33.25.74.74 0 0 1-.5-.1.79.79 0 0 1-.39-.35.47.47 0 0 1 .02-.44l.3.15a.33.33 0 0 0-.02.18c.01.08.09.16.2.22Zm3.36 1.9-.58-.54-.3.3.67.62-.2.21-.91-.85 1.14-1.17.88.82-.2.2-.64-.59-.24.25.58.55-.2.2Zm2.2 1.27.18.3-1.18.66.41.7-.26.14-.58-1 1.44-.8Zm1.47 3.04.09.33-1.6.44-.09-.32 1.6-.45Zm-1.07 2.97v-.31l1.65-.04.01.5-1.3.32 1.32.26.01.49-1.66.04v-.32l1.12-.03a11.56 11.56 0 0 1 .27 0l-1.4-.27-.01-.33 1.38-.34a11.43 11.43 0 0 0-.27 0l-1.12.03Zm1.42 3.52-.08.33-1.61-.37.08-.33 1.61.37Zm-1.28 3.55-.27-.12.2-.44-1.24-.55.14-.32 1.25.56.2-.45.27.12-.55 1.2Zm-2.78 2.15.53-.6-.32-.27-.6.68-.23-.2.83-.92 1.25 1.06-.8.9-.22-.19.58-.65-.27-.22-.53.6-.22-.19Zm-2.69 1.22.6-.38.9 1.37-.6.38a.89.89 0 0 1-.24.1.56.56 0 0 1-.35-.02.74.74 0 0 1-.24-.16 1.26 1.26 0 0 1-.18-.21 1.07 1.07 0 0 1-.19-.53.58.58 0 0 1 .3-.55Zm.45 1.15c.1.05.21.03.34-.05l.27-.17-.58-.9-.27.17c-.14.1-.2.22-.16.39.02.09.06.18.13.28.09.14.18.24.27.28Z" fill="#2B2B2A"/><path fill-rule="evenodd" d="M25 19.6a48.62 48.62 0 0 0-.57-3.52l.35-.08c.18.86.49 2.55.64 4l.73-4 .36.08-.71 3.88a6.26 6.26 0 0 1 1.28-1.95c.21-.19.76-.47 1.1-.47.24 0 .47.11.7.2.36.13.78.26 1.23.21.5-.04.77.38.8.85.35-.72.76-1.48.93-2.27.02-.1.02-.15.01-.17l.36-.06c.02.1 0 .2-.02.31-.18.85-.62 1.66-.99 2.43.58-.56 1.4-1.21 1.66-2l.34.11c-.24.76-.93 1.35-1.47 1.89.48-.2 1.02-.39 1.54-.32.3.04.57.18.73.47l-.31.2c-.1-.17-.25-.26-.47-.29-.85-.11-1.82.46-2.51.9l-.2.3.2-.14c.32-.21.62-.4.83-.47a.68.68 0 0 1 .17-.04c.15-.01.3.09.3.26.02.17-.08.34-.16.48l.1.01c.06.02.13.05.18.1.12.14.1.32.04.46-.06.14-.17.3-.33.5s-.39.45-.68.74l-.25-.28a9 9 0 0 0 .65-.7c.16-.19.24-.32.28-.41.03-.08-.23-.02-.26-.01l-.4.52c-.49-.42-.6-.2-1.37.18-.67 1.26-1.3 2.83-1.3 4.1 0 2.05.25 3.6.57 4.72.32 1.1.7 1.75.93 2.02.68.54 1.46.99 2.35 1.3l-.11.36a8.22 8.22 0 0 1-2.47-1.37c-3.14-2.52-4.2-6.98-4.51-9.53a9.54 9.54 0 0 0-1.34-1.46c.07.33.17.73.3 1.23l-.34.1a18.4 18.4 0 0 1-.38-1.62h-.01c-.11-.06-.16-.04-.17-.04-.17.08-.04.67-.01.79.05.3.14.67.28 1.15l-.34.11a10.4 10.4 0 0 1-.3-1.2c-.06-.34-.18-1 .22-1.2a.44.44 0 0 1 .27-.03c-.03-.27-.04-.84.37-.76a.5.5 0 0 1 .2.1c.3.22.53.6.74.91l.4.65a4.05 4.05 0 0 0-.45-2.02c-.21-.33-.43-.4-.59-.34-.42.15-1.49.63-1.97.86l-.15-.35c.48-.23 1.56-.71 2-.87.39-.14.75.09 1 .5Zm.52 2.17.27-.7a8.13 8.13 0 0 1 .68-1.32c.22-.23.46-.06.5.22 0 .15 0 .37-.03.66a.4.4 0 0 1 .3-.04c.17.04.25.22.28.39.03.17.03.4 0 .71-.04.3-.1.7-.2 1.18l-.35-.08c.1-.48.16-.85.19-1.14.03-.3.02-.49 0-.6-.03-.18-.22.05-.28.12l-.1.64-.35-.07-.09.12c-.24.37-.5.8-.71 1.2.27 2.27 1.15 5.97 3.49 8.45-.13-.3-.26-.67-.38-1.08-.34-1.15-.6-2.75-.6-4.83 0-1.37.69-3.03 1.36-4.29-.01-.31-.03-.66-.06-.97-.04-.3-.08-.54-.13-.68a9 9 0 0 0-.36 1.11l-.35-.1c.1-.41.2-.91.44-1.27a.58.58 0 0 1 .1-.12c-.06-.07-.13-.14-.2-.06-.27.3-.36.8-.44 1.17l-.36-.1c.1-.43.22-.99.53-1.33.1-.11.24-.19.39-.17.09.01.17.06.23.12.06-.12.12-.2.17-.28.06-.07.18-.18.33-.13.22.08.26.4.28.6a9 9 0 0 1 .02 1.18c.12-.2.23-.36.33-.5.08-.3.16-.7.12-1.01-.02-.26-.12-.46-.4-.44-.53.06-1.02-.1-1.38-.23-.5-.18-1.02-.18-1.44.2-.77.68-1.84 2.42-1.8 3.47Zm4.22-2.05a5.92 5.92 0 0 0-.06-.76c-.07.13-.07.24-.2.17.1.16.18.37.26.6Zm.77 1.04c.34-.25.7-.52 1.1-.69l-.24.39c-.3.07-.58.18-.86.3Zm-4.68 1.22a12.78 12.78 0 0 1 .7-.99c.05-.36.08-.63.08-.8-.13.23-.3.6-.48 1.03l-.3.76Zm-1 .02-.37-.6c-.18-.28-.38-.63-.65-.82l-.01.14c0 .1.01.22.04.38.37.23.69.57.99.9Z" fill="#3A8324"/><path d="M28.5 24c1.2 0 1.5.55 1.5.83-.67-.28-1.58-.19-1.58 2.85S26.92 31 26.25 31c-.67 0-1.25-.18-1.25-.74 1.33.28 1.5-.55 1.5-2.48 0-1.94.5-3.78 2-3.78Z" fill="url(#b)"/><path fill="url(#c)" d="M22 24h2v7h-2z"/><path d="M33 24h-2v7h4v-1h-2v-6Z" fill="url(#d)"/><path d="M27.85 36c-9.96.03-13.65 1.49-13.65 1.88 0 .31.44.79.66.99l-2.75 1.26a.2.2 0 0 0-.05.33l1.38 1.27 3.02 1.39c.06.26.24.79.47.79.28 0 .37-.2.37-.5.15-1.56 7.1-2.3 10.69-2.41 3.6.11 10.54.85 10.69 2.41 0 .3.1.5.37.5.23 0 .41-.53.47-.8l3.02-1.38 1.38-1.27a.2.2 0 0 0-.05-.33l-2.74-1.26c.22-.2.65-.68.65-1 0-.38-3.7-1.84-13.65-1.87h-.28Z" fill="url(#e)"/><path d="M42.22 43.94c.37.2.78-.14.78-.63V41.5L40.21 40l-.76 1.97c-.1.24 0 .52.19.62l2.58 1.35Z" fill="url(#f)"/><path d="M13.78 43.94c-.37.2-.78-.14-.78-.63V41.5L15.79 40l.76 1.97c.1.24 0 .52-.19.62l-2.58 1.35Z" fill="url(#g)"/><defs><linearGradient id="a" x1="28" y1="9" x2="28" y2="41" gradientUnits="userSpaceOnUse"><stop stop-color="#C39A4C"/><stop offset=".15" stop-color="#FBF4C2"/><stop offset=".3" stop-color="#CDA756"/><stop offset=".46" stop-color="#FBF8C9"/><stop offset=".58" stop-color="#E0CC96"/><stop offset=".74" stop-color="#FDFBCE"/><stop offset=".86" stop-color="#C79E4C"/><stop offset="1" stop-color="#737373"/></linearGradient><linearGradient id="b" x1="30" y1="27.5" x2="25" y2="27.5" gradientUnits="userSpaceOnUse"><stop stop-color="#DA2F21"/><stop offset="1" stop-color="#C12820"/></linearGradient><linearGradient id="c" x1="24" y1="27.5" x2="22" y2="27.5" gradientUnits="userSpaceOnUse"><stop stop-color="#DA2F21"/><stop offset="1" stop-color="#C12820"/></linearGradient><linearGradient id="d" x1="35.16" y1="27.28" x2="30.75" y2="27.28" gradientUnits="userSpaceOnUse"><stop stop-color="#DA2F21"/><stop offset="1" stop-color="#C12820"/></linearGradient><linearGradient id="e" x1="12" y1="39.95" x2="43.98" y2="39.95" gradientUnits="userSpaceOnUse"><stop stop-color="#C32A20"/><stop offset=".08" stop-color="#C22920"/><stop offset=".22" stop-color="#E33224"/><stop offset=".34" stop-color="#BC271F"/><stop offset=".54" stop-color="#E83324"/><stop offset=".66" stop-color="#BE281D"/><stop offset=".84" stop-color="#E63223"/><stop offset=".91" stop-color="#D22D21"/><stop offset="1" stop-color="#BD2720"/></linearGradient><linearGradient id="f" x1="39.78" y1="40.92" x2="43.18" y2="42.29" gradientUnits="userSpaceOnUse"><stop stop-color="#E9E1A3"/><stop offset=".28" stop-color="#F9F7C6"/><stop offset="1" stop-color="#D4B167"/></linearGradient><linearGradient id="g" x1="16.22" y1="40.92" x2="12.82" y2="42.29" gradientUnits="userSpaceOnUse"><stop stop-color="#E9E1A3"/><stop offset=".28" stop-color="#F9F7C6"/><stop offset="1" stop-color="#D4B167"/></linearGradient></defs></svg>