<!-- by TradingView --><svg width="56" height="56" viewBox="0 0 56 56" xmlns="http://www.w3.org/2000/svg"><path fill="#F0F3FA" d="M0 0h56v56H0z"/><path d="M27 15c-3.92 0-7.23 1.26-8.39 1.9a9.1 9.1 0 0 1 2.58 8.2l16.9-6.82C36.04 17.18 31.78 15 27 15Z" fill="#458EB9"/><path d="m23.65 26.87 16.77-6.31A9.9 9.9 0 0 1 43 26.87c0 4.06-2.57 6.72-4.01 8.22l-.12.12c-3.14-2.9-10.68-8.84-15.22-8.34ZM39.75 25l-2.54 1.84.97.36-1.45.86.97.12-1.7 1.6 1.7-.62L38.79 31v-2.2l.73.36-.37-1.83.85.6-.24-2.93Z" fill="#85AA54"/><path d="M11 27.25c0-4.95 3.61-8.3 5.42-9.34 1.93 2.77 2.32 4.67 2.32 6.69a4.7 4.7 0 0 1-1.42 3.28l1.42 1.01c6.2-2.02 14.2 4.47 17.42 7.96C35 37.57 31.52 39 26.87 39 18.23 39 11 33.44 11 27.25Z" fill="#D46556"/><path d="m31.86 41.41.47-.34c.22.19.44.24.7.15.3-.1.46-.29.4-.46-.04-.16-.2-.2-.53-.18-.28.02-.55.04-.77 0-.26-.03-.43-.17-.5-.39-.1-.36.21-.76.8-.96.52-.17.9-.11 1.16.17l-.48.32c-.18-.17-.36-.2-.62-.12-.24.08-.37.23-.32.38.06.22.36.16.87.15.55 0 .84.06.94.43.11.42-.19.81-.83 1.03-.55.18-1 .12-1.29-.18ZM28.67 41.83l-.38-1.57.63-.18.38 1.59c.08.35.3.47.76.34.5-.15.62-.36.53-.72l-.38-1.59.62-.17.39 1.64c.13.56-.25 1-1.06 1.24-.86.25-1.34.06-1.5-.58ZM25.15 41.7c0-.83.55-1.3 1.44-1.3.9 0 1.44.47 1.44 1.3 0 .82-.55 1.3-1.44 1.3-.89 0-1.44-.48-1.44-1.3Zm.66 0c0 .58.28.87.78.87s.78-.3.78-.87c0-.58-.27-.88-.78-.88-.5 0-.78.3-.78.88ZM22 42.04l.54-2.4.63.16.62 1.45c.1.21.17.44.23.68 0-.16.02-.33.06-.5l.29-1.3.54.15-.53 2.4-.54-.14-.7-1.5a4.34 4.34 0 0 1-.22-.68c0 .15-.03.32-.07.5l-.3 1.33-.54-.15ZM20 41.44 21.01 39l.7.36-1 2.43-.71-.35Z" fill="#1C3656"/><path d="M27.07 43.25c10.58 0 19.16-7.07 19.16-15.78 0-3.12-1.1-6.02-3-8.47A13.87 13.87 0 0 1 47 28.35C47 36.99 38.48 44 27.97 44a21.13 21.13 0 0 1-13.7-4.8 21.54 21.54 0 0 0 12.8 4.05Z" fill="#918F8F"/></svg>