<!-- by TradingView --><svg width="56" height="56" viewBox="0 0 56 56" xmlns="http://www.w3.org/2000/svg"><path fill="#F0F3FA" d="M0 0h56v56H0z"/><path d="M49.06 31H47v-6h2.1c1.77 0 2.9 1.25 2.9 3 0 1.76-1.16 3-2.94 3ZM48 30h1.1c1.26 0 1.9-.79 1.9-2 0-1.2-.63-2-1.88-2H48v4ZM36 26v-1h5v1h-2v5h-1v-5h-2ZM35 25v6h-1v-6h1ZM26 25h1.27l1.7 4.35h.06l1.7-4.35H32v6h-1v-4.12L29.37 31h-.74L27 26.87V31h-1v-6ZM24 25v6h-1v-6h1ZM11 31v-6h1v5h3v1h-4ZM6 31v-6h4v1H7v1.54h2.77v.91H7V30h3v1H6ZM18 31v-6h1v5h3v1h-4ZM5 25v6H4v-6h1ZM42 31v-6h4v1h-3v1.54h2.77v.91H43V30h3v1h-4Z" fill="#EA3A4F"/></svg>