<!-- by TradingView --><svg width="56" height="56" viewBox="0 0 56 56" xmlns="http://www.w3.org/2000/svg"><path fill="#F0F3FA" d="M0 0h56v56H0z"/><path fill="#080801" d="M4 32h48v2H4z"/><path fill="#DB0401" d="M8 21h2v9H8zM11 30v-9h4.71A2.29 2.29 0 0 1 18 23.29V30h-2v-6.29c0-.39-.32-.71-.71-.71H13v7h-2ZM32 30v-9h4.71A2.29 2.29 0 0 1 39 23.29V30h-2v-6.29c0-.39-.32-.71-.71-.71H34v7h-2ZM21 21h-2v9h5v-2h-3v-7ZM40 21h2.5a4.5 4.5 0 0 1 .5 8.97v-2.02a2.5 2.5 0 0 0-.5-4.95H42v7h-2v-9ZM28 21a3 3 0 0 0-3 3v6h2v-3h1v-2h-1v-1a1 1 0 1 1 2 0v7h2v-7a3 3 0 0 0-3-3Z"/></svg>