<!-- by TradingView --><svg width="56" height="56" viewBox="0 0 56 56" xmlns="http://www.w3.org/2000/svg"><path fill="#F0F3FA" d="M0 0h56v56H0z"/><path d="M42 39h-.87l-2.48-2.9V39H38v-6h.65v2.93L41 33h.8l-2.42 2.96L42 39ZM36.98 38.66c-.4.23-.88.34-1.46.34a2.39 2.39 0 0 1-2.34-1.74 3.72 3.72 0 0 1-.18-1.2c0-.44.07-.85.2-1.22s.31-.7.54-.97a2.5 2.5 0 0 1 2.63-.78 2.9 2.9 0 0 1 .63.2v.69a5.02 5.02 0 0 0-1-.33 2.35 2.35 0 0 0-.39-.04 1.75 1.75 0 0 0-1.4.67c-.17.21-.31.47-.41.78a3.25 3.25 0 0 0 0 1.96c.09.28.22.53.39.73a1.82 1.82 0 0 0 1.4.64 2.73 2.73 0 0 0 1.39-.37v.64ZM33 39h-.72l-.63-1.77h-2.33l-.6 1.77H28l2.15-6h.68L33 39Zm-1.58-2.43c-.32-.92-.95-2.84-.95-2.84s-.62 1.92-.95 2.84h1.9ZM28 34.6c0 1.58-1.48 1.91-2.71 1.91h-.59V39H24v-6h1.32c1.08 0 2.68.2 2.68 1.6Zm-.74.06c0-.94-1.1-1.02-1.82-1.02h-.74v2.21h.7c.77 0 1.86-.22 1.86-1.2ZM23 39h-.71l-3.64-5.03s.04 3.38.04 5.03H18v-6h.77l3.58 4.98-.03-4.98H23v6Z" fill="#254C76"/><path fill-rule="evenodd" d="M44 28c0 1.38-.17 2.72-.5 4h-31A16.03 16.03 0 0 1 28 12a16 16 0 0 1 16 16ZM28 44c-4.06 0-7.76-1.51-10.58-4h21.16c-2.82 2.49-6.52 4-10.58 4Zm-1-19v2.3h7V29h-8.4a.6.6 0 0 1-.6-.61V25h2Zm-5 4h2v-6h8v2.02h-4v1.69h5.05c.53 0 .95-.4.95-.9V21.9c0-.5-.42-.89-.95-.89H34v-2l-2 .67V21h-8v-1.33L22 19v2h.95c-.53 0-.95.4-.95.89V29Zm2.6-11.98L24 19l-2-.95.71-1.72A2.1 2.1 0 0 1 24.64 15H26v2.02h-1.4ZM30 15h-4v-2h4v2Zm0 0h1.36c.84 0 1.6.52 1.93 1.33l.71 1.72-2 .95-.6-1.98H30V15Zm-3 1v4h2v-4h-2Zm7 14H22v.55c0 .25.38.45.85.45h10.3c.47 0 .85-.2.85-.45V30Z" fill="#67C4EF"/><path d="M15.39 33h1.96v.6h-.67v4.8h.67v.6h-1.96v-.6H16v-4.8h-.61V33Z" fill="#254C76"/></svg>