<!-- by TradingView --><svg width="56" height="56" viewBox="0 0 56 56" xmlns="http://www.w3.org/2000/svg"><path fill="#F0F3FA" d="M0 0h56v56H0z"/><path d="M49 26.88c0 .08-.04.12-.12.12h-2.64c-.07 0-.12-.04-.13-.12 0-.07.12-.12.36-.15.25-.03.37-.12.37-.25 0-.04-.22-.56-.58-1.48h-2.55c-.3.95-.5 1.47-.5 1.46 0 .13.12.22.36.26.24.04.36.09.36.15 0 .09-.04.13-.12.13h-1.69c-.08 0-.12-.04-.12-.12 0-.08.04-.12.12-.13.25-.02.43-.08.54-.18.1-.1.2-.28.31-.56 1.22-3.1 1.82-4.66 1.82-4.67 0-.04-.05-.15-.16-.33.3-.33.58-.67.85-1.01l2.54 6c.12.28.22.47.32.56.11.1.3.17.54.2.08 0 .12.04.12.12Zm-2.88-2.2-1.19-2.93-1.1 2.92h2.29ZM21 35.88c0 .08-.04.12-.12.12h-2.64c-.07 0-.12-.04-.13-.12 0-.07.12-.12.36-.15.25-.03.37-.12.37-.25 0-.04-.22-.56-.58-1.48h-2.55c-.3.95-.5 1.47-.5 1.46 0 .13.12.22.36.26.24.04.36.09.36.15 0 .09-.04.13-.12.13h-1.69c-.08 0-.12-.04-.12-.12 0-.08.04-.12.12-.13.25-.02.43-.08.54-.18.1-.1.2-.28.31-.56 1.22-3.1 1.82-4.66 1.82-4.67 0-.04-.05-.15-.16-.33.3-.33.58-.67.85-1.01l2.54 6c.12.28.22.47.32.56.11.1.3.17.54.2.08 0 .12.04.12.12Zm-2.88-2.2-1.19-2.93-1.1 2.92h2.29ZM43 35.88c0 .08-.04.12-.12.12h-2.64c-.07 0-.12-.04-.13-.12 0-.07.12-.12.36-.15.25-.03.37-.12.37-.25 0-.04-.22-.56-.58-1.48h-2.55c-.3.95-.5 1.47-.5 1.46 0 .13.12.22.36.26.24.04.36.09.36.15 0 .09-.04.13-.12.13h-1.69c-.08 0-.12-.04-.12-.12 0-.08.04-.12.12-.13.25-.02.43-.08.54-.18.1-.1.2-.28.31-.56 1.22-3.1 1.82-4.66 1.82-4.67 0-.04-.05-.15-.16-.33.3-.33.58-.67.85-1.01l2.54 6c.12.28.22.47.32.56.11.1.3.17.54.2.08 0 .12.04.12.12Zm-2.88-2.2-1.19-2.93-1.1 2.92h2.29Z" fill="#21356D"/><path d="M43 26.85c0 .09-.08.14-.23.15l-1.59-.01-1.03-2.63c-.21-.52-.3-.78-.47-.78H39v2.34c0 .38.05.61.14.7.07.09.25.13.54.13.07 0 .11.04.11.12 0 .09-.04.13-.11.13H37.1c-.07 0-.11-.04-.11-.12 0-.09.04-.13.11-.13.31 0 .7-.05.78-.13.07-.09.11-.33.11-.72v-4.8c0-.4-.04-.63-.11-.72-.07-.08-.47-.13-.78-.13-.07 0-.11-.04-.11-.12 0-.09.04-.13.11-.13h2.56c1.2 0 2.36.6 2.36 1.92 0 .79-.55 1.35-1.3 1.47.2.25.37.53.52.86l.78 1.64c.26.57.53.85.8.85.12 0 .17.04.17.1Zm-2-5.14c0-.97-.46-1.46-1.45-1.46-.37 0-.55.13-.55.37v2.67l.46.01c.92 0 1.54-.7 1.54-1.59Z" fill="#21356D"/><path d="M37 24.12c0 .08-.04.12-.13.12-.24 0-.38.07-.44.22-.03.08-.04.08-.04.4V26c0 .92-2.28.99-2.91.99A3.46 3.46 0 0 1 30 23.54 3.44 3.44 0 0 1 33.43 20c1.61 0 1.6.5 2.41.5.16 0 .26-.07.32-.22s.1-.22.13-.22c.05 0 .07.03.07.09l.02 2.13c0 .13-.02.2-.06.2-.06 0-.12-.08-.18-.23-.58-1.33-1.4-2-2.44-2-1.8 0-2.7 1.75-2.7 3.3 0 1.45.97 3.2 2.49 3.2.87 0 1.68-.43 1.68-1.4 0-.31.1-.73-.13-.97-.08-.1-.29-.14-.63-.14-.08 0-.12-.04-.12-.11 0-.09.04-.13.12-.13h2.46c.09 0 .13.04.13.12ZM29 25a61.84 61.84 0 0 1-.42 2H24.1c-.07 0-.1-.04-.1-.12 0-.09.03-.13.1-.13.29 0 .73-.05.8-.13.07-.09.1-.33.1-.72v-4.8c0-.4-.03-.63-.1-.72-.07-.08-.51-.13-.8-.13-.07 0-.1-.04-.1-.12 0-.09.03-.13.1-.13h4.29l.54 1.76c0 .08-.03.12-.07.13-.04 0-.08-.04-.14-.14l-.43-.7c-.46-.62-1.12-.8-1.86-.8-.29 0-.43.08-.43.24v2.75l.4.01c1.04 0 1.42-.47 1.42-1.4 0-.08.03-.12.09-.14.06 0 .09.05.09.13v3.23c0 .1-.03.16-.08.16-.06 0-.1-.05-.1-.15a7.49 7.49 0 0 0-.1-.77c-.16-.57-.78-.76-1.32-.76H26v2.86c0 .22.17.33.5.33.74 0 1.48-.22 1.9-.87l.47-.9c.04-.04.07-.06.1-.06.02 0 .03.03.03.09ZM23.42 21.8c0 .08-.02.13-.06.13-.03 0-.14-.15-.3-.43-.34-.55-.83-1.22-1.55-1.22-.24 0-.4.03-.44.1-.05.05-.07.23-.07.53v5.06c0 .57.13.79.7.79.08 0 .12.04.12.11 0 .09-.04.13-.11.13h-2.42c-.07 0-.11-.04-.11-.12 0-.08.04-.12.11-.12.61 0 .71-.22.71-.8V20.9c0-.3-.02-.48-.07-.53-.04-.07-.2-.1-.44-.1-.72 0-1.2.67-1.54 1.22-.17.28-.28.43-.31.43-.05 0-.07-.04-.05-.12l.01-.2.35-1.85c.01-.07.04-.24.12-.26.21 0 .27.49.52.49l3.82.01c.25 0 .3-.49.52-.49.05 0 .09.08.12.25l.35 1.86c.02.05.02.11.02.18ZM36.42 30.8c0 .08-.02.13-.06.13-.03 0-.14-.15-.3-.43-.34-.55-.83-1.22-1.55-1.22-.24 0-.4.03-.44.1-.05.05-.07.23-.07.53v5.06c0 .57.13.79.7.79.08 0 .12.04.12.11 0 .09-.04.13-.11.13h-2.42c-.07 0-.11-.04-.11-.12 0-.08.04-.12.11-.12.61 0 .71-.22.71-.8V29.9c0-.3-.02-.48-.07-.53-.04-.07-.2-.1-.44-.1-.72 0-1.2.67-1.54 1.22-.17.28-.28.43-.31.43-.05 0-.07-.04-.05-.12l.01-.2.35-1.67a.51.51 0 0 1 .04-.14c.02-.07.05-.11.08-.12.02 0 .07.05.16.16.1.1.21.15.36.15l3.82.01c.15 0 .27-.05.36-.15.08-.1.14-.16.15-.16.06 0 .1.09.13.25l.35 1.68c.02.05.02.11.02.18ZM17 20.12c0 .08-.04.12-.12.12-.66 0-.88.12-.88.8v5.69c0 .18-.01.27-.04.27-.05 0-.13-.09-.25-.26l-4.45-5.97.05 5.17c0 .38.04.6.1.7.09.08.3.12.62.12.07 0 .11.04.11.11 0 .09-.04.13-.11.13h-1.91c-.08 0-.12-.04-.12-.12 0-.08.04-.12.12-.12.3 0 .66-.04.75-.13.08-.09.12-.32.13-.68v-4.97c0-.34-.05-.55-.14-.63-.08-.07-.4-.1-.7-.1-.08 0-.12-.05-.12-.12 0-.09.04-.13.12-.13h1.94l3.6 4.8v-3.74c0-.45-.2-.82-.7-.82-.08 0-.12-.04-.12-.11 0-.09.04-.13.12-.13h1.88c.08 0 .12.04.12.12Z" fill="#21356D"/><path d="M10 26.87c0 .09-.04.13-.13.13H7.13c-.09 0-.13-.04-.13-.12 0-.09.04-.13.13-.13.34 0 .67-.05.74-.13.09-.09.13-.33.13-.72v-4.8c0-.4-.04-.63-.13-.72-.07-.08-.4-.13-.74-.13-.09 0-.13-.04-.13-.12 0-.09.04-.13.13-.13h2.74c.09 0 .13.04.13.12 0 .09-.04.13-.13.13-.34 0-.67.05-.75.15-.08.1-.12.33-.12.69v4.83c0 .38.05.61.15.7.09.09.4.13.72.13.09 0 .13.04.13.12ZM30 35.87c0 .09-.04.13-.13.13h-2.74c-.09 0-.13-.04-.13-.12 0-.09.04-.13.13-.13.34 0 .67-.05.74-.13.09-.09.13-.33.13-.72v-4.8c0-.4-.04-.63-.13-.72-.07-.08-.4-.13-.74-.13-.09 0-.13-.04-.13-.12 0-.09.04-.13.13-.13h2.74c.09 0 .13.04.13.12 0 .09-.04.13-.13.13-.34 0-.67.05-.75.15-.08.1-.12.33-.12.69v4.83c0 .38.05.61.15.7.09.09.4.13.72.13.09 0 .13.04.13.12ZM48 34a53.8 53.8 0 0 1-.5 2h-5.37c-.09 0-.13-.04-.13-.12 0-.09.04-.13.13-.13.34 0 .67-.05.74-.13.09-.09.13-.33.13-.72v-4.8c0-.4-.04-.63-.13-.72-.07-.08-.4-.13-.74-.13-.09 0-.13-.04-.13-.12 0-.09.04-.13.13-.13h2.74c.09 0 .13.04.13.12 0 .09-.04.13-.13.13-.34 0-.67.05-.75.15-.08.1-.12.33-.12.69v5.32c0 .22.2.33.61.33.58 0 1.15-.05 1.5-.13.5-.14.9-.38 1.17-.74l.57-.9c.04-.04.08-.06.1-.06.03 0 .05.03.05.09ZM26 30.92c0 1.13-.7 1.69-2.3 1.69l-.7-.03v2.34c0 .38.05.61.14.7.07.09.46.13.75.13.07 0 .11.04.11.12 0 .09-.04.13-.11.13H21.1c-.07 0-.11-.04-.11-.12 0-.09.04-.13.11-.13.31 0 .7-.05.78-.13.07-.09.11-.33.11-.72v-4.8c0-.71-.17-.85-.89-.85-.07 0-.11-.04-.11-.12 0-.09.04-.13.11-.13h2.25c1.35 0 2.64.27 2.64 1.92Zm-1-.22c0-.74-.4-1.44-1.2-1.44-.61 0-.8.3-.8.89v2.15l.68.01c.88 0 1.32-.53 1.32-1.6ZM14 33.72a96.82 96.82 0 0 1-.02 2.12c0 .07-.02.1-.06.1-.03 0-.07-.07-.13-.21-.06-.15-.16-.23-.3-.23-.77 0-1.47.5-2.26.5C9.35 36 8 34.28 8 32.49 8 30.68 9.33 29 11.23 29c.46 0 .92.08 1.38.25.45.17.74.25.88.25.15 0 .25-.07.3-.22.06-.15.1-.22.13-.22.04 0 .06.03.06.09a98.85 98.85 0 0 0 .02 2.13c0 .14-.02.2-.06.2-.05 0-.1-.07-.17-.23-.54-1.33-1.3-2-2.29-2C9.88 29.25 9 31 9 32.47c0 1.47.93 3.29 2.56 3.29 1.18 0 1.81-1.03 2.21-2.01.06-.16.12-.24.16-.24.05 0 .07.07.07.2ZM7 28h42v.22H7V28Z" fill="#21356D"/></svg>