<!-- by TradingView --><svg width="56" height="56" viewBox="0 0 56 56" xmlns="http://www.w3.org/2000/svg"><path fill="#F0F3FA" d="M0 0h56v56H0z"/><path d="M15.5 25a1.5 1.5 0 1 0 0-3 1.5 1.5 0 0 0 0 3Zm-2.48 7.37 1.48-5.78A2.1 2.1 0 0 0 17 26l-1.7 6.61a.52.52 0 0 1-.5.39h-1.28a.51.51 0 0 1-.5-.63Zm4.23-4.93a.6.6 0 0 1 .59-.44h4.56c.39 0 .68.35.58.72l-1.23 4.84a.6.6 0 0 1-.59.44H20a.59.59 0 0 1-.58-.72l.82-3.21a.47.47 0 0 0-.47-.59.48.48 0 0 0-.47.36l-.95 3.72a.6.6 0 0 1-.59.44H16.6a.59.59 0 0 1-.58-.72l1.23-4.84Zm11.92-.15c.04-.17.18-.29.35-.29h4c.3 0 .54.3.47.63l-.36 1.72a1.53 1.53 0 0 1-1.47 1.26h-.59c-.2 0-.33-.19-.3-.39l.3-1.43c.05-.2-.09-.37-.27-.37-.13 0-.24.1-.27.23l-.59 2.53c-.05.2.1.4.3.4h1.84c.18 0 .32.17.3.36l-.09.77a.31.31 0 0 1-.3.29h-3.95c-.35 0-.6-.35-.52-.72l1.15-4.99Zm12.5-.29a.55.55 0 0 0-.53.44l-1.12 4.84c-.09.37.17.72.52.72h1.06c.25 0 .47-.18.53-.44l.86-3.72a.45.45 0 0 1 .43-.36c.23 0 .4.1.42.36.01.08.07.16.15.16h1.57c.06 0 .1-.04.12-.1l.3-1.18c.09-.37-.17-.72-.52-.72h-3.8Zm-7.12.44c.07-.26.3-.44.55-.44h4.33c.37 0 .64.35.55.72l-1.62 6.84a.57.57 0 0 1-.56.44h-4.48c-.27 0-.41-.3-.25-.52l.3-.36a.31.31 0 0 1 .24-.12h2.61l1.16-4.93a.47.47 0 0 0-.44-.59c-.22 0-.4.15-.45.36l-.9 3.72a.57.57 0 0 1-.55.44h-.49c-.37 0-1.15-.61-.87-1.65l.87-3.9ZM47.5 27a.5.5 0 0 0-.5.52v.19c0 .32.25.58.56.58h1.87c.19 0 .33.17.31.36 0 .03-.01.05-.03.07a.29.29 0 0 0-.03.07.31.31 0 0 1-.3.21H47.2a.5.5 0 0 0-.48.38l-.7 2.89c-.1.37.17.73.54.73h.68c.33 0 .63-.24.71-.58l.45-1.76a.31.31 0 0 1 .3-.24h.24c.2 0 .35.2.3.4l-.34 1.46c-.08.37.18.72.54.72h.69c.34 0 .64-.24.72-.6l1.14-4.92c.06-.25-.12-.48-.36-.48H47.5Zm-21.58 4.27.72-3.27h.92c.18 0 .33-.13.35-.31l.09-.78a.35.35 0 0 0-.35-.4h-.7l.48-2.25a.21.21 0 0 0-.2-.26h-.01a.2.2 0 0 0-.14.05l-2.76 2.53a.28.28 0 0 1-.2.08.28.28 0 0 0-.26.2l-.24.83c-.04.14.06.27.2.27h.42L23 32.46c-.07.27.13.54.41.54h2.9c.18 0 .33-.1.4-.27l.27-.73a.28.28 0 0 0-.26-.38h-.54a.28.28 0 0 1-.27-.35Z" fill="url(#a)"/><path d="M8 22.43a.42.42 0 0 0-.41-.43H4.4c-.22 0-.41.2-.41.43v7.66c0 .24.19.43.41.43H8v-.22a2.77 2.77 0 0 1-2.69-2.8c0-1.54 1.2-2.78 2.69-2.8v-2.27Z" fill="#FF514A"/><path d="M12 24.91a.42.42 0 0 0-.41-.43H8v.22h.03c1.5 0 2.73 1.25 2.73 2.8A2.76 2.76 0 0 1 8 30.3v2.27c0 .24.19.43.41.43h3.18c.22 0 .41-.2.41-.43v-7.66Z" fill="#237FC2"/><defs><linearGradient id="a" x1="13.18" y1="28.89" x2="52" y2="28.89" gradientUnits="userSpaceOnUse"><stop stop-color="#2089C3"/><stop offset="1" stop-color="#4FA5E4"/></linearGradient></defs></svg>