<!-- by TradingView --><svg width="56" height="56" viewBox="0 0 56 56" xmlns="http://www.w3.org/2000/svg"><path fill="#F0F3FA" d="M0 0h56v56H0z"/><path fill-rule="evenodd" d="M26.78 26A8.03 8.03 0 0 1 20 18.05 8.02 8.02 0 0 1 28 10c4.42 0 8 3.6 8 8.05a8.04 8.04 0 0 1-6.37 7.88v-.78a7.27 7.27 0 0 0 5.1-4.39H29.5V20h5.48c.09-.32.16-.66.2-1H20.82c.04.34.11.68.2 1h5.24v.76h-4.98c.92 2.31 2.99 4.04 5.5 4.47V26Zm8.46-7.95v.25H20.76a7.35 7.35 0 0 1 .02-.9h14.44l.02.65ZM20.88 16.7h14.24a7.25 7.25 0 0 0-.24-.94H21.12c-.1.3-.18.62-.24.94ZM34.02 14c.21.32.4.65.56 1H21.42c.16-.35.35-.68.56-1h12.04Zm-.52-.7a7.3 7.3 0 0 0-1.06-1h-8.88c-.39.3-.74.63-1.05 1H33.5ZM28 10.76c1.17 0 2.27.28 3.25.77h-6.5c.98-.5 2.08-.77 3.25-.77Z" fill="#DA3B66"/><path d="m17 26.34 10.5-7.5v21.42l-5.15 3.51V27.9L17 31.5v-5.17Zm4 3.25v5.06l-2.1 1.73-1.9-3.65 4-3.14Zm18-3.25-10.5-7.5v21.42l5.15 3.51V27.9L39 31.5v-5.17Zm-4 3.25v5.06l2.1 1.73 1.9-3.65-4-3.14Zm-2.17 14.93-4.9-3.31-4.91 3.31 4.9 3.48 4.91-3.48Z"/></svg>