<!-- by TradingView --><svg width="56" height="56" viewBox="0 0 56 56" xmlns="http://www.w3.org/2000/svg"><path fill="#F0F3FA" d="M0 0h56v56H0z"/><path d="m48 25.26 2.25 6.38c.07.24.2.36.4.36h1.01c.18 0 .34-.14.34-.32l-.03-.15-3.04-8.2a.45.45 0 0 0-.4-.33h-1.06c-.17 0-.3.1-.38.31l-3.05 8.18a.44.44 0 0 0-.04.16c0 .2.15.35.34.35h1c.2 0 .33-.13.4-.38L48 25.26Z" fill="#054694"/><path d="M21.24 23c.17 0 .27.17.26.32v.72c0 .14-.08.33-.24.32H19.5v7.3c0 .17-.13.33-.28.34h-.94c-.15 0-.28-.15-.28-.32v-7.32h-1.74c-.17 0-.27-.17-.26-.32v-.72c-.01-.15.1-.3.24-.32h5ZM5.1 23c.1 0 .2.03.28.1.08.05.12.14.12.22v8.34a.3.3 0 0 1-.12.23.5.5 0 0 1-.29.11h-.68a.48.48 0 0 1-.3-.1.29.29 0 0 1-.11-.22v-8.34a.3.3 0 0 1 .12-.23.5.5 0 0 1 .29-.11h.68ZM32.95 23c1.73 0 2.84.86 3.02 2.36 0 .18-.14.33-.32.34h-1c-.19 0-.35-.15-.35-.31-.08-.52-.33-1.05-1.58-1.05h-.4c-1.14.03-1.79.41-1.82 1.48v3.41c0 1.08.63 1.45 1.83 1.48h.4c1.18-.03 1.89-.39 1.92-1.48v-.73h-1.3c-.19 0-.35-.15-.35-.32v-.85c0-.17.16-.32.35-.33h2.33c.14 0 .35.1.32.26v1.92c0 1.85-1.35 2.82-3.11 2.82h-.78C30.37 32 29 31 29 29.18V25.8c0-1.81 1.4-2.79 3.1-2.79h.85ZM40.9 23c1.76 0 3.1 1.15 3.1 3 0 1.5-.75 2.26-1.9 2.53l1.55 3.04c.02.05.04.1.04.16.02.15-.13.28-.29.27h-1.12a.5.5 0 0 1-.44-.27L40.39 29H38.5v2.68c0 .17-.16.32-.35.32h-.8c-.2-.02-.36-.19-.35-.37V23.3c0-.16.17-.3.35-.31h3.54Zm-2.4 4.5h2.2c1.17-.03 1.57-.5 1.6-1.61-.03-1.1-.42-1.36-1.6-1.39h-2.2v3ZM27.7 23c.18 0 .3.07.3.32v.86c0 .24-.13.32-.33.32H23.5v2h3.15c.18-.01.35.13.35.32v.86c0 .16-.14.3-.3.32h-3.17v2.5h4.12c.18 0 .35.13.35.32v.86c0 .16-.14.3-.3.32h-5.36a.35.35 0 0 1-.34-.32v-8.36c0-.08.03-.17.1-.23.06-.06.14-.09.23-.09h5.37ZM15 23.32a.33.33 0 0 0-.09-.23.29.29 0 0 0-.2-.09h-.91a.3.3 0 0 0-.21.1.35.35 0 0 0-.09.24v6.19L9.59 23.2a.45.45 0 0 0-.16-.15.42.42 0 0 0-.21-.06H8.3a.3.3 0 0 0-.21.1.35.35 0 0 0-.09.24v8.34c0 .09.03.17.09.23.05.06.13.09.2.09h.91a.3.3 0 0 0 .21-.1.35.35 0 0 0 .09-.24v-6.19l3.92 6.32c.04.06.1.12.16.15.06.04.13.06.2.06h.92c.08 0 .16-.04.21-.1a.35.35 0 0 0 .09-.24v-8.34Z" fill="#231F20"/></svg>