<!-- by TradingView --><svg width="56" height="56" viewBox="0 0 56 56" xmlns="http://www.w3.org/2000/svg"><path fill="#F0F3FA" d="M0 0h56v56H0z"/><path d="M46 36.52c-3.58-8.04-12.22-13-16-14.52 9.02 6.38 11.25 13.95 11 16.97-1.78 1-6.8 3-11.5 3-9.59 0-17.9-6.98-17.9-16 0-7.2 5.35-12.31 8.02-13.97-3.2 1.74-9.62 7.23-9.62 15.33C10 37.44 20.79 44 29.5 44c8.7 0 13.74-4.1 16.5-7.48Z" fill="url(#a)"/><path d="M29.18 14c-5.02 0-9.47 1.78-12.18 5h6.72c2.05-1.93 5.02-3 8.33-3 5.92 0 10.55 4.07 10.95 9h1c-.95-6.2-7.22-11-14.82-11Z" fill="url(#b)"/><path d="M38 37.48A15.91 15.91 0 0 1 29.3 40c-6.93 0-12.75-4.26-14.3-10h6.5c1.74 3.4 6.16 6 10.62 6 1.81 0 3.52-.39 5.03-1.07l.85 2.55Z" fill="url(#c)"/><path d="M21.05 27a11.85 11.85 0 0 1 .63-5h-5.83a15.47 15.47 0 0 0-.85 5h6.05Z" fill="url(#d)"/><defs><linearGradient id="a" x1="27.99" y1="12" x2="27.99" y2="44" gradientUnits="userSpaceOnUse"><stop offset=".09" stop-color="#1F1F1F"/><stop offset=".54" stop-color="#BABBBD"/><stop offset=".89" stop-color="#242424"/></linearGradient><linearGradient id="b" x1="30.5" y1="14" x2="30.5" y2="25" gradientUnits="userSpaceOnUse"><stop stop-color="#727375"/><stop offset=".18" stop-color="#BABBBD"/><stop offset=".73" stop-color="#242424"/></linearGradient><linearGradient id="c" x1="26.3" y1="22.5" x2="26.3" y2="40" gradientUnits="userSpaceOnUse"><stop stop-color="#231E60"/><stop offset=".49" stop-color="#0292D8"/><stop offset="1" stop-color="#001F53"/></linearGradient><linearGradient id="d" x1="26.39" y1="22" x2="26.39" y2="42" gradientUnits="userSpaceOnUse"><stop stop-color="#231E60"/><stop offset=".49" stop-color="#0292D8"/></linearGradient></defs></svg>