<!-- by TradingView --><svg width="56" height="56" viewBox="0 0 56 56" xmlns="http://www.w3.org/2000/svg"><path fill="#F0F3FA" d="M0 0h56v56H0z"/><path fill-rule="evenodd" d="M28 41c9.94 0 18-5.82 18-13s-8.06-13-18-13-18 5.82-18 13 8.06 13 18 13Zm-7-18v16h5V23h-5Zm5-3.5a2.5 2.5 0 1 1-5 0 2.5 2.5 0 0 1 5 0Zm6.9-3.5c1.24.39 3.87 1.29 4.44 1.8a6.45 6.45 0 0 0-2.84 5.53c0 2.08 1.21 3.86 2.37 5.56 1.09 1.59 2.13 3.12 2.13 4.79 0 3.46-5.17 4.72-7.81 5.32 2.12-1.8 3.31-3.77 3.31-5.32 0-1.89-1.13-3.8-2.25-5.7-1.13-1.91-2.25-3.82-2.25-5.7 0-2.81 1.93-5.36 2.9-6.28Z" fill="#12183C"/></svg>