<!-- by TradingView --><svg width="56" height="56" viewBox="0 0 56 56" xmlns="http://www.w3.org/2000/svg"><path fill="#F0F3FA" d="M0 0h56v56H0z"/><path d="M45 35.56v-3.7c0-.83-.16-.93-.53-1.31l-.12-.13c-.06-.09-.06-.32 0-.38.32-.17 1.2-.72 1.55-1.04.07.02.1.06.1.15v1.23c0 .1.02.17.05.19.48-.62.83-1.27 1.34-1.27.34 0 .61.34.61.84 0 .7-.37.98-.59.98-.13 0-.2-.07-.3-.15-.2-.21-.4-.34-.6-.34-.58 0-.5 1.76-.5 2.05v2.88c0 1.53.08 1.78.6 1.85l.35.06c.03.03.04.09.04.16 0 .16-.06.37-.06.37h-2.88s-.06-.21-.06-.37c0-.07 0-.13.04-.16l.26-.06c.5-.13.7-.32.7-1.85ZM42.07 32.24h-2.69c-.38 0-.4.04-.4.58 0 2.15.87 3.99 2.42 3.99.48 0 .89-.22 1.34-1.05.14-.06.25.06.26.26-.48 1.45-1.53 1.98-2.28 1.98-.95 0-1.69-.6-2.1-1.4a6.07 6.07 0 0 1-.62-2.78C38 31.2 39.18 29 40.92 29c1.25 0 2.07 1.26 2.07 2.54 0 .3-.03.47-.06.55-.05.13-.25.15-.86.15Zm-2.82-.64h1.03c1.08 0 1.4-.08 1.51-.21.05-.04.1-.13.1-.4 0-.6-.29-1.35-1.13-1.35-.86 0-1.6 1.15-1.61 1.86 0 .04 0 .1.1.1ZM31.27 36.1l-1.22-4.92c-.3-1.22-.46-1.44-.79-1.57l-.21-.09c-.07-.1.04-.52.04-.52h2.32s.12.41.03.52l-.3.09c-.19.04-.3.17-.3.3 0 .14.07.55.22 1.14l1.05 4.27s.73-2.77.95-3.68c.18-.7.19-.98.12-1.27-.12-.48-.31-.65-.6-.76l-.22-.09c-.09-.13.04-.52.04-.52h2.35s.12.41.04.52l-.27.09c-.53.17-.5.24-.35 1 .23 1.14 1.18 4.69 1.18 4.69s.8-3.14 1.08-4.47c.1-.5.13-.78.13-.94 0-.13-.08-.24-.23-.28l-.34-.09c-.1-.1.02-.52.02-.52h1.9s.12.41.04.52l-.27.09c-.31.1-.43.41-.7 1.37a114.2 114.2 0 0 0-1.25 4.95c-.18.78-.34 1.42-.45 1.98-.05.07-.1.09-.17.09-.05 0-.1-.02-.14-.09a54.6 54.6 0 0 0-.55-2.4l-.93-3.61-.98 3.79c-.24.94-.42 1.72-.53 2.22a.17.17 0 0 1-.16.09.18.18 0 0 1-.16-.09c-.07-.45-.29-1.35-.4-1.8ZM26.07 29C27.7 29 29 30.8 29 33.41c0 2.67-1.24 4.59-3.04 4.59C24.3 38 23 36.27 23 33.6c0-2.68 1.37-4.6 3.07-4.6ZM28 33.76c0-1.82-.73-4.12-2.1-4.12-.95 0-1.9 1.34-1.9 3.69 0 1.94.83 4.03 2.1 4.03s1.9-1.96 1.9-3.6Z" fill="#29347C"/><path fill-rule="evenodd" d="M18 16c-1.1 0-2 2.52-2 3.72v2.21a20.56 20.56 0 0 0-3 4.55l.7.21c.63-1.3 1.44-2.53 2.3-3.56V37l2-2.05v-2.06c4.9-2.24 7-5.95 7-8.84C25 21.1 23.62 19 21.04 19c-1.06 0-2.08.43-3.04 1.1V16Zm0 5.13v10.6c1.6-.75 5-3.35 5-7.68 0-2.53-1-4.05-2.67-4.05-.61 0-1.44.42-2.33 1.13Z" fill="#29347C"/><path d="M15.73 31.42c.17.03.26.11.27.25.02.45-.05.92-.21 1.41-.8 2.02-3.06 5-5.65 4.92-2.04-.06-2.21-2.64-2.12-4.1.1-1.62.05-4.3 1.05-5.75A2.96 2.96 0 0 1 10.75 27c.04.01.08.04.1.08v.06c-.13.55-.4 1.1-.46 1.68-.2 1.53-.32 2.35-.43 3.89-.05.67-.17 3.66.97 3.63 1.27-.03 2.39-1.75 3.03-2.6.6-.81 1.1-1.52 1.49-2.12.07-.1.16-.17.28-.2Z" fill="#FAC44B"/><path d="m15 35.71-.15.18a.55.55 0 0 1 .14-.18Z" fill="#B9B8BD"/><path d="M11.4 22.87c-.34.55-.57.88-.7.97a.76.76 0 0 1-.48.16c-.11 0-.2-.09-.21-.19-.02-.17 0-.4.06-.65.27-1.15.78-2.67 2.07-3.11.34-.12.62-.03.82.25.3.4-1.32 2.19-1.56 2.57Z" fill="#FAC44B"/></svg>