<!-- by TradingView --><svg width="56" height="56" viewBox="0 0 56 56" xmlns="http://www.w3.org/2000/svg"><path fill="#F0F3FA" d="M0 0h56v56H0z"/><path d="M48.3 32c-1.5 0-2.3-1.29-2.3-2.98 0-1.72.83-3.02 2.3-3.02 1 0 1.4.34 1.7 1v-3h1v8h-1v-1.14c-.3.63-.7 1.14-1.7 1.14ZM47 29.01c0 1.34.43 2.33 1.51 2.33.86 0 1.49-.92 1.49-2.34 0-1.4-.63-2.34-1.49-2.34-1.1 0-1.51 1.02-1.51 2.35ZM25.84 32 24 26h1l1.5 5 1.49-5h1.06l1.45 5 1.5-5h1l-1.84 6h-1.14l-1.52-4.88L26.96 32h-1.12ZM18 32v-6h1v1c.3-.63.75-1 1.9-1 1.3 0 2.1.71 2.1 2.12V32h-1v-3.73c0-1.03-.39-1.54-1.34-1.54-1.06 0-1.66.65-1.66 1.84V32h-1ZM14.5 32c-1.62 0-2.5-1.15-2.5-3 0-1.86.89-3 2.5-3 1.62 0 2.5 1.14 2.5 3 0 1.85-.86 3-2.5 3ZM13 29c0 1.44.4 2.3 1.5 2.3 1.12 0 1.5-.88 1.5-2.3 0-1.43-.38-2.3-1.5-2.3-1.1 0-1.5.87-1.5 2.3ZM36.5 32c-1.62 0-2.5-1.15-2.5-3 0-1.86.89-3 2.5-3 1.62 0 2.5 1.14 2.5 3 0 1.85-.86 3-2.5 3ZM35 29c0 1.44.4 2.3 1.5 2.3 1.12 0 1.5-.88 1.5-2.3 0-1.43-.38-2.3-1.5-2.3-1.1 0-1.5.87-1.5 2.3ZM42.5 32c-1.62 0-2.5-1.15-2.5-3 0-1.86.89-3 2.5-3 1.62 0 2.5 1.14 2.5 3 0 1.85-.86 3-2.5 3ZM41 29c0 1.44.4 2.3 1.5 2.3 1.12 0 1.5-.88 1.5-2.3 0-1.43-.38-2.3-1.5-2.3-1.1 0-1.5.87-1.5 2.3ZM7 32v-6h1v1c.27-.7.9-1 2.04-1 .34 0 .69.05.96.14v.84c-.27-.08-.6-.14-.98-.14-1.26 0-2.02.74-2.02 2V32H7ZM5 32v-8h1v8H5Z" fill="#AD6533"/></svg>