<!-- by TradingView --><svg width="56" height="56" viewBox="0 0 56 56" xmlns="http://www.w3.org/2000/svg"><path fill="#F0F3FA" d="M0 0h56v56H0z"/><path d="M10.03 21c-.57 0-1.03.44-1.03.99v8.95c0 .49-.5.92-1 1.06h1.97c.57 0 1.03-.44 1.03-.99V21.8c0-.37.25-.7.62-.8h-1.59Zm4.07 0c-1.16 0-2.1 1-2.1 2.22v7.23c0 1.27-.97 2.3-2.16 2.3H8V34h40v-.6H16.68c.19-.32.32-.7.32-1V28h3v-1h-3v-.42c0-.32.23-.58.5-.58H20v-2h-4.05c-.53 0-.95.49-.95 1.09v7.1c0 .31-.18.81-.42 1.21h-1.24c.4-.4.66-.98.66-1.62v-7.25c0-.85.94-1.53 1.74-1.53H20v-2h-5.9Z" fill="url(#a)"/><path d="M45.31 28v5H43.91a.32.32 0 0 1-.19-.05.17.17 0 0 1-.06-.14c0-.1.05-.17.13-.2.06-.02.13-.03.17-.09.03-.04.04-.1.04-.19v-3.66c0-.09-.01-.15-.04-.19l-.04-.04-.13-.05c-.08-.03-.13-.1-.13-.2 0-.06.02-.1.06-.14a.3.3 0 0 1 .19-.05H45.31Zm.69 3.95v-2.89c0-.3-.06-.58-.38-.65V28l.3.01c1.16.15 1.58 1.47 1.58 2.47 0 .93-.36 2.16-1.37 2.46-.13.04-.3.06-.5.06v-.4c.32-.1.37-.32.37-.65ZM41 28v5h-1.6a.4.4 0 0 1-.22-.05.17.17 0 0 1-.07-.14c0-.1.05-.17.15-.2.16-.05.24-.08.24-.28v-3.66c0-.09-.02-.15-.05-.19-.04-.06-.12-.07-.19-.1-.1-.02-.15-.09-.15-.19 0-.06.03-.1.07-.14a.38.38 0 0 1 .22-.05H41Zm.41 0H43v1.3c0 .07-.02.13-.05.16-.03.04-.07.05-.14.05-.06 0-.1 0-.12-.03a.32.32 0 0 1-.07-.14 1.4 1.4 0 0 0-1.2-.91V28Zm-.3 2.67v-.43a.99.99 0 0 0 .32-.22.75.75 0 0 0 .16-.32.4.4 0 0 1 .08-.2.18.18 0 0 1 .14-.05c.08 0 .13.03.16.1.02.02.03.1.03.2v1.4c0 .12-.01.2-.04.24-.03.05-.08.07-.15.07a.18.18 0 0 1-.13-.05.38.38 0 0 1-.08-.18.91.91 0 0 0-.19-.38.56.56 0 0 0-.3-.18Zm.3 2.33v-.4c.58-.08.99-.42 1.19-.96a.4.4 0 0 1 .08-.16.17.17 0 0 1 .13-.04c.07 0 .12.02.15.06.03.04.04.1.04.2V33h-1.58ZM37.78 28v4.3c0 .1.02.17.05.2l.06.06.16.04c.11.03.17.1.17.2 0 .07-.03.12-.1.16-.04.03-.11.04-.22.04h-1.81a.47.47 0 0 1-.23-.05.17.17 0 0 1-.08-.15c0-.1.06-.17.17-.2l.16-.04.05-.05c.04-.04.05-.11.05-.2V28h1.57ZM39 28v1.5c0 .07-.02.13-.06.17a.19.19 0 0 1-.15.07.2.2 0 0 1-.15-.06.32.32 0 0 1-.07-.17l-.04-.22a1.6 1.6 0 0 0-.2-.6.77.77 0 0 0-.26-.25V28H39Zm-4 0h.93v.44a.73.73 0 0 0-.26.26c-.1.16-.17.36-.2.59l-.04.22a.3.3 0 0 1-.08.17.2.2 0 0 1-.14.06.2.2 0 0 1-.15-.07.26.26 0 0 1-.06-.17V28ZM30 28h1.6c.16 0 .25.06.25.2 0 .1-.05.16-.14.19a1.6 1.6 0 0 0-.13.05l-.04.04c-.03.04-.04.1-.04.19v3.66c0 .09.01.15.04.19l.04.04.13.05c.1.03.14.1.14.2 0 .13-.09.19-.26.19h-1.71a.45.45 0 0 1-.23-.05.17.17 0 0 1-.07-.15c0-.1.05-.17.16-.2l.16-.04.05-.05c.03-.04.05-.11.05-.2V28Zm-1.14 0 .67 2.05.3-1.1v1.21l-.8 2.84h-.17l-1.34-4.22a.73.73 0 0 0-.14-.28c-.03-.03-.08-.06-.16-.07-.15-.04-.22-.11-.22-.23 0-.06.02-.11.06-.14.05-.04.1-.06.19-.06h1.6Zm-1.34 1.68.37 1.11v1.35l.06.16c.05.1.12.18.2.24l.13.09c.09.05.13.11.13.18 0 .13-.09.19-.26.19h-.86c-.17 0-.26-.06-.26-.18 0-.04 0-.07.02-.1a.32.32 0 0 1 .1-.06c.25-.15.37-.4.37-.77v-2.2ZM25.98 33h-1.63a.58.58 0 0 1-.26-.05c-.06-.03-.09-.08-.09-.14 0-.1.06-.17.19-.2l.17-.05c.02 0 .04-.02.06-.04.03-.04.05-.1.05-.19v-3.66c0-.09-.02-.15-.05-.19a.11.11 0 0 0-.06-.04l-.17-.05c-.13-.03-.19-.1-.19-.2 0-.06.03-.1.09-.14a.54.54 0 0 1 .26-.05h1.75c.1 0 .2.02.25.05.06.03.1.08.1.14 0 .1-.07.17-.2.2l-.17.05a.12.12 0 0 0-.05.04c-.04.04-.06.1-.06.19v3.66c0 .09.02.15.06.19.02.02.03.04.05.04l.18.05c.12.03.18.1.18.2 0 .06-.03.1-.09.14a.55.55 0 0 1-.25.05h-.12ZM33.98 33h-1.63a.58.58 0 0 1-.26-.05c-.06-.03-.09-.08-.09-.14 0-.1.06-.17.19-.2l.17-.05c.02 0 .04-.02.06-.04.03-.04.05-.1.05-.19v-3.66c0-.09-.02-.15-.05-.19a.11.11 0 0 0-.06-.04l-.17-.05c-.13-.03-.19-.1-.19-.2 0-.06.03-.1.09-.14a.54.54 0 0 1 .26-.05h1.75c.1 0 .2.02.25.05.06.03.1.08.1.14 0 .1-.07.17-.2.2l-.17.05a.12.12 0 0 0-.05.04c-.04.04-.06.1-.06.19v3.66c0 .09.02.15.06.19.02.02.03.04.05.04l.18.05c.12.03.18.1.18.2 0 .06-.03.1-.09.14a.55.55 0 0 1-.25.05h-.12ZM22 33H20.3a.43.43 0 0 1-.22-.05.16.16 0 0 1-.08-.14c0-.1.05-.17.16-.2l.15-.05c.02 0 .03-.02.05-.04.03-.04.04-.1.04-.19v-3.66c0-.09-.01-.15-.04-.19-.02-.02-.03-.04-.05-.04l-.15-.05c-.1-.03-.16-.1-.16-.2 0-.06.03-.1.08-.14a.4.4 0 0 1 .22-.05H22.14c.11 0 .2.01.25.04.07.04.1.1.1.16 0 .1-.06.17-.19.2l-.18.04a.18.18 0 0 0-.06.05c-.04.04-.06.11-.06.2V33Zm.49 0v-.41c.13-.02.23-.05.3-.07.4-.14.63-.56.75-.93a.88.88 0 0 1 .12-.26.2.2 0 0 1 .15-.07c.08 0 .13.03.17.09l.02.16V33h-1.51Z" fill="#7D5C1D"/><circle cx="11" cy="19" r="1" fill="#8E7847"/><defs><linearGradient id="a" x1="28" y1="20.93" x2="28" y2="34" gradientUnits="userSpaceOnUse"><stop stop-color="#9A7329"/><stop offset="1" stop-color="#8E7847"/></linearGradient></defs></svg>