<!-- by TradingView --><svg width="56" height="56" viewBox="0 0 56 56" xmlns="http://www.w3.org/2000/svg"><path fill="#181B1E" d="M0 0h56v56H0z"/><path fill="#71B1DC" d="M24 28h8v8h-8z"/><path fill="#F9DE4B" d="M25 29h6v6h-6z"/><path fill-rule="evenodd" d="M4.02 32.03c.53 2.58 11.7 2.63 24.94.13 13.25-2.5 23.55-6.62 23.02-9.2-.53-2.57-11.7-2.62-24.94-.12-13.25 2.5-23.55 6.62-23.02 9.2Zm2-.42c.42 2.02 10.6 1.81 22.74-.46C40.91 28.88 50.41 25.41 50 23.4c-.43-2.02-10.61-1.81-22.75.46C15.09 26.12 5.59 29.59 6 31.6Z" fill="#71B1DC"/><path d="M32 22.9a4 4 0 1 1-8 .2 4 4 0 0 1 8-.2Z" fill="#71B1DC"/><circle cx="30" cy="22" r="1" fill="#F9DE4B"/></svg>