<!-- by TradingView --><svg width="56" height="56" viewBox="0 0 56 56" xmlns="http://www.w3.org/2000/svg"><path fill="#F0F3FA" d="M0 0h56v56H0z"/><path d="M6 24h1.5v9H6v-9Z" fill="#E02526"/><path d="M18 23h1.5v2H22v1.5h-2.5v3.38c0 .9.47 1.62 1.3 1.62H22V33h-1.33C19.19 33 18 31.73 18 30.17V23ZM17 25v1.5h-5.45c-.58 0-1.05.38-1.05.92s.47.9 1.05.9h2.95c1.38 0 2.5 1.05 2.5 2.34 0 1.3-1.12 2.34-2.5 2.34H9v-1.5h5.45c.58 0 1.05-.3 1.05-.84s-.47-.94-1.05-.94H11.5c-1.38 0-2.5-1-2.5-2.3 0-1.3 1.12-2.42 2.5-2.42H17Z" fill="#54A446"/><circle cx="6.75" cy="22.75" r=".75" fill="#E02526"/><path d="M47 23h1.5v2H51v1.5h-2.5v3.38c0 .9.47 1.62 1.3 1.62h1.2V33h-1.33C48.19 33 47 31.73 47 30.17V23ZM24.5 25H23v8h1.5v-4.74c0-1.07.8-1.76 1.87-1.76.65 0 1.23.31 1.58.8L29 26.3A3.28 3.28 0 0 0 26.37 25a2.9 2.9 0 0 0-1.87.68V25ZM36.97 29.48 37 29a4 4 0 1 0-.6 2.1l-1.1-1.2a2.47 2.47 0 1 1-.05-1.9H32v1.48h4.97ZM45.97 29.48 46 29a4 4 0 1 0-.6 2.1l-1.1-1.2a2.47 2.47 0 1 1-.05-1.9H41v1.48h4.97Z" fill="#54A446"/></svg>