<!-- by TradingView --><svg width="56" height="56" viewBox="0 0 56 56" xmlns="http://www.w3.org/2000/svg"><path fill="#F0F3FA" d="M0 0h56v56H0z"/><path d="m16.2 14.92.19.16a.1.1 0 0 1-.01.16l-.22.15a.1.1 0 0 1-.1 0l-.65-.33c-.1-.05-.06-.2.05-.2.17.01.6-.05.75.06ZM40.57 15.08l-.56.27a.12.12 0 0 1-.08 0l-.27-.05a.12.12 0 0 1-.06-.2l.13-.15a.12.12 0 0 1 .08-.04l.7-.06c.12-.01.17.17.06.23ZM18.06 16.51v-.03c.09-.17.36-.1.49-.03l.03.02c.13.07.35.25.25.43 0 0-.01.02-.03.01l-.74-.4ZM33.86 19.7a.12.12 0 0 0-.11-.06H23.09c-.32 0-.61-.03-.93.02a.06.06 0 0 0-.03.02.07.07 0 0 0-.02.04v.75c0 .03 0 .05-.03.05a1.88 1.88 0 0 0-.69.33.03.03 0 0 1-.03-.01V19c0-.02 0-.04.02-.06a.08.08 0 0 1 .06-.02h13.1a.1.1 0 0 1 .09.1v1.7c0 .15-.06.18-.18.07-.19-.2-.3-.17-.53-.27a.09.09 0 0 1-.06-.1l.02-.6c0-.04 0-.09-.02-.13ZM21.07 21.1l-.15.3a.09.09 0 0 1-.14 0l-.57-.69a.09.09 0 0 1 0-.1l.74-1c.05-.06.15-.02.15.06l-.02 1.39v.04ZM35.01 19.6l.77.99a.08.08 0 0 1 0 .1l-.57.73a.08.08 0 0 1-.06.03.08.08 0 0 1-.07-.04l-.2-.36a.08.08 0 0 1-.01-.04v-1.35l.01-.05a.08.08 0 0 1 .13 0Z" fill="#C89650"/><path d="M22.33 25.67c.08 0 .14.03.19.07l.08.09c.03.02.08.03.12.02.04 0 .08-.03.1-.07.44-.58.62-1.2.56-1.84a8.71 8.71 0 0 0-.6-2.48c-.1-.25.02-.52-.15-.74-.08-.1-.19-.1-.27-.18a.12.12 0 0 1-.04-.09l-.02-.52a.07.07 0 0 1 .02-.05.07.07 0 0 1 .05-.03h11.24a.07.07 0 0 1 .05.03.07.07 0 0 1 .03.05l-.01.5c0 .05-.03.1-.07.12l-.22.15a.17.17 0 0 0-.08.1c-.05.24 0 .44-.1.68a9.83 9.83 0 0 0-.58 2.37c-.09.7.15 1.3.52 1.88.07.11.16.13.27.04l.14-.1a.07.07 0 0 1 .08-.01.07.07 0 0 1 .04.07v3.25a4.63 4.63 0 0 1-1.45 3.37 11.88 11.88 0 0 1-4.02 2.59c-.3.12-.5-.03-.76-.14a13.4 13.4 0 0 1-2.78-1.64c-1.3-.97-2.36-2.36-2.35-4.04v-3.45Z" fill="#E9212A"/><path d="M10.84 22.1c-.17-.01-.28.05-.36.19-.02.04-.05.05-.1.04-.3-.09-.42-.3-.37-.65.01-.1.06-.12.14-.05.09.08.15.18.27.2.18.05.4.03.56-.08a2.5 2.5 0 0 1 1.16-.4c1.03-.1 1.78.6 1.61 1.67-.06.38-.2.77-.41 1.17a.17.17 0 0 1-.11.08c-.08.02-.14 0-.18-.03a.15.15 0 0 1-.04-.18c.24-.44.47-1.05.34-1.52-.17-.62-.57-.88-1.19-.8a.86.86 0 0 0-.63.41c-.19.3.03.65.37.65a.2.2 0 0 0 .12-.04l.14-.1c.04-.02.09 0 .1.04.06.4-.19.63-.44.88-.15.15-.35.17-.58.05a1.1 1.1 0 0 1-.57-.67.78.78 0 0 1 .19-.8c.02-.02 0-.06-.02-.06ZM32 32.85a5.8 5.8 0 0 0 1.73-2.57c.1-.33.15-.83.15-1.52 0-2.26 0-4.52-.02-6.78 0-.04.02-.08.05-.1a.07.07 0 0 1 .06-.01.07.07 0 0 1 .04.03l.53.85c.05.09.08.18.08.28v6.01c-.01 3.6-3.47 5.7-6.37 6.91a.59.59 0 0 1-.46.02c-1.55-.61-2.9-1.39-4.03-2.33a6.44 6.44 0 0 1-2.28-3.51c-.09-.4-.13-.92-.13-1.58l.01-5.43c0-.14.06-.33.14-.44.15-.21.3-.45.45-.7.03-.07.17-.1.17 0l-.01 6.92c0 .57.05 1.02.15 1.36.34 1.08 1 1.98 1.85 2.7 1.08.92 2.33 1.67 3.77 2.25.17.06.25 0 .4-.07 1.45-.6 2.7-1.37 3.73-2.3Z" fill="#C89650"/><path d="M33.6 22.34a.03.03 0 0 1 .04-.02v.01a.5.5 0 0 1 .05.21l-.01 1.69c0 .08-.04.11-.12.08l-.12-.04a.2.2 0 0 1-.13-.2c.06-.69.16-1.26.29-1.73ZM22.31 22.38c.07.05.12.16.16.31l.23 1.35c.02.09-.02.15-.1.2l-.14.06c-.1.04-.14.01-.14-.1l-.01-1.82Z" fill="#E9212A"/><path d="M11.96 26.54c.26-.28.56-.53.9-.73.18-.11.32-.28.44-.45a.22.22 0 0 0-.07-.3 2.73 2.73 0 0 0-.87-.34.23.23 0 0 1-.15-.1.89.89 0 0 1-.15-.54c0-.07.04-.13.1-.17.15-.12.3-.25.43-.4a.14.14 0 0 1 .1-.05l.04.01c.04.03.05.06.03.1-.15.37.04.7.4.8.13.03.26.1.37.18.58.44.2 1.02-.24 1.37-.44.35-1 .7-1.25 1.19-.12.2-.2.55.02.73.3.27.58.04.83-.15.17-.12.22-.08.15.12a.82.82 0 0 1-1.47.17c-.51-.82.29-2.3.76-2.97a.27.27 0 0 1 .1-.08c.11-.07.2-.07.29-.02a.13.13 0 0 1 .04.17l-.8 1.46ZM17.46 31.89c-.16.11-.3.1-.45-.02a.16.16 0 0 1-.05-.1c-.07-.68-.09-1.1-.62-1.57a.25.25 0 0 1-.05-.32c.17-.28.3-.55.32-.89l.06-.7c0-.05.02-.1.05-.13.14-.16.31-.3.51-.41a.07.07 0 0 1 .1.01c.8.9 1.35 1.62.96 2.92-.1.34-.18.68-.23 1-.04.18-.32.17-.45.16-.06 0-.11.01-.15.05ZM25.33 41.44c-.06.34.14.57.43.7.18.1.17.15-.02.19-.7.13-1.17-.57-.82-1.18.28-.5 1.1-.51 1.3.06.2.59-.6.88-.79.22-.04-.14-.07-.14-.1 0ZM30.6 41.41c-.06.09-.03.22-.13.29-.27.2-.66.1-.69-.28-.05-.76 1.08-.83 1.35-.24.29.67-.16 1.2-.89 1.16a.06.06 0 0 1-.06-.06c0-.06.03-.1.08-.13.32-.13.47-.37.44-.7 0-.1-.03-.11-.1-.04ZM22.55 43.93l-.04.1c0 .02-.03.03-.05.02l-.76-.24a.05.05 0 0 1-.03-.06l.42-1.11.02-.03h.03l.18.04c.03 0 .04.04.03.06l-.34.9c-.01.03 0 .06.02.07l.5.19c.02 0 .03.03.02.06ZM24.02 43.17a.14.14 0 0 0-.17.1l-.25 1.03c-.02.08.03.15.1.17.08.02.16-.02.18-.1l.25-1.03a.14.14 0 0 0-.1-.17ZM31.76 43.99c-.07.02-.1.06-.09.14l.02.09c.01.07.05.1.12.08l.5-.11c.06-.02.08.05.1.1.02.06 0 .1-.07.12l-.72.17a.1.1 0 0 1-.1-.06l-.26-1.09c0-.03.01-.07.04-.07l.77-.19c.07-.02.08.06.08.1 0 .08-.04.13-.11.15l-.42.09c-.06.01-.1.06-.08.13v.04c.03.08.08.11.16.1l.42-.11c.04-.01.07 0 .08.03.03.06.02.11-.02.17a.08.08 0 0 1-.05.04l-.37.08ZM26.46 44.04c-.12.2-.23.42-.34.66-.11.26-.4.24-.46-.06l-.15-.7c-.04-.2-.07-.2-.1 0l-.08.7c-.01.07-.05.12-.12.14a.14.14 0 0 1-.08 0c-.03 0-.04-.02-.04-.06l.14-1.14a.1.1 0 0 1 .08-.1c.1 0 .2 0 .28.05.04.02.06.04.08.08.09.26.15.53.17.81.02.15.06.16.13.03.1-.17.19-.35.26-.54.1-.27.28-.34.54-.24.04.01.05.04.05.08l-.15 1.11c-.01.06-.04.09-.1.09h-.03c-.1 0-.14-.06-.13-.16l.11-.73c.02-.11 0-.12-.06-.02ZM29.59 43.86l-.33.04h-.02a.05.05 0 0 1-.03-.06l.03-.16.01-.03h.03l.99-.11h.01c.02 0 .04.02.04.04l.01.13v.03l-.04.02-.33.06-.03.01-.01.04.09.96c0 .03-.02.05-.05.05h-.17a.05.05 0 0 1-.04-.04l-.1-.94a.05.05 0 0 0-.06-.04ZM28.08 43.65h-.06a.1.1 0 0 0-.1.1l.02 1.15c0 .05.05.1.1.1h.07a.1.1 0 0 0 .1-.1l-.02-1.15a.1.1 0 0 0-.1-.1Z" fill="#C89650"/><path fill-rule="evenodd" d="M31.92 14.7c.2-.04.38-.1.55-.2.06-.04.07-.03.02.02-.4.45-.81.5-1.24.14a1.03 1.03 0 0 1-.33-.58c0-.05 0-.09.02-.13a.16.16 0 0 1 .1-.07c.48-.17.66-.5.52-1-.22-.75-1.4-.51-1.33.32.02.2.1.37.22.51.02.02.03.05.03.08s0 .05-.02.08c-.35.43-.8.61-1.35.55a.92.92 0 0 1-.8-.59c-.09-.2-.04-.25.14-.16l.57.3c.03.01.06 0 .08-.02.15-.2.54-.57.57-.83.02-.2-.23-.44-.34-.55a.3.3 0 0 1-.1-.26c.01-.07-.04-.13-.1-.12-.17.03-.32.08-.45.15a.18.18 0 0 0-.09.09.67.67 0 0 1-.2.24c-.06.05-.09-.1-.06-.14.15-.2.3-.3.31-.59 0-.1.08-.18.13-.26.05-.06.03-.1-.04-.1l-.2-.03a.16.16 0 0 1-.12-.07c-.09-.13-.22-.48-.4-.48-.06 0-.11.03-.14.07l-.3.44a.1.1 0 0 1-.1.05c-.06 0-.13 0-.2.02-.05.02-.06.05-.03.1.05.1.12.19.13.3 0 .2.1.36.25.49.11.1.02.3-.07.2-.25-.29-.27-.5-.72-.46-.04 0-.06.03-.06.07l-.01.18-.01.04c-.08.19-.29.32-.39.51a.17.17 0 0 0 .01.17l.53.78c.02.03.04.04.07.02l.7-.37c.04-.03.1.02.08.06a.9.9 0 0 1-.76.73c-.6.12-1.08-.07-1.44-.55-.03-.04-.03-.08 0-.12.28-.36.34-.86-.04-1.16-.5-.4-1.15.02-1.09.7.04.37.3.55.6.63.06.02.09.06.07.12-.09.53-.49.95-1 .86a1 1 0 0 1-.6-.37c-.03-.04-.02-.05.03-.02.18.11.38.18.59.2h.06c.06-.02.1-.08.1-.15-.01-.26 0-.53.05-.8.04-.26-.2-.38-.4-.48-.07-.03-.14-.05-.18-.12a.66.66 0 0 0-.32-.3c-.05-.02-.08 0-.09.04-.06.22-.15.42-.26.61.05-.2 0-.37-.1-.57a.26.26 0 0 1-.02-.11v-.26c0-.1-.1-.16-.18-.11-.2.12-.4.14-.59.04a.16.16 0 0 0-.1-.01c-.31.07-.45.3-.43.65 0 .09.05.12.12.1.42-.14.6.22.75.54l.05.12c.02.04.03.08.02.13l-.05.16c-.08.2.1.48.3.49.09 0 .2.03.25.11l.55.87.03.12c.01.17.06.31.15.44.03.04.04.1.02.15a.6.6 0 0 0 .1.5c.02.04.03.09.02.13-.14.89 1.56 1.25 2.11 1.33.76.1 1.61.15 2.58.12a9.07 9.07 0 0 0 2.32-.37c.4-.12 1.22-.51 1.06-1.1 0-.04 0-.07.02-.1a.58.58 0 0 0 .1-.55.12.12 0 0 1 .04-.12.4.4 0 0 0 .12-.25c.04-.3.23-.6.41-.87.07-.1.15-.21.2-.32.08-.14.3-.07.41-.16.18-.13.21-.32.1-.56a.22.22 0 0 1 .02-.2l.32-.54a.24.24 0 0 1 .1-.1.21.21 0 0 1 .13-.01l.26.04c.05.01.08 0 .08-.06.05-.39-.07-.62-.36-.69a.2.2 0 0 0-.12.01.77.77 0 0 1-.66-.05c-.07-.03-.14.03-.13.1A.92.92 0 0 1 33 13c-.1.28.06.8-.1.42l-.2-.47a.15.15 0 0 0-.27-.03l-.23.3a.15.15 0 0 1-.08.05c-.34.1-.48.34-.4.7.03.18.03.35.01.53 0 .03 0 .06.02.08.02.08.1.12.17.11Zm-3.94-2.59c0-.02.07-.01.07.03 0 .18.02.36.05.54.07.34.4.35.66.35.09 0 .34 0 .13.07l-.23.05c-.2.03-.39.06-.52.22a.14.14 0 0 1-.09.05c-.1.01-.09-.02-.16-.07-.1-.08-.18-.14-.3-.16a3.9 3.9 0 0 1-.54-.13c-.04 0 .05-.03.07-.03.2 0 .51.01.68-.1.2-.12.18-.62.18-.82Zm-3.23.93c.07.31.25.47.57.39.06-.02.04.1 0 .13-.36.16-.7-.08-.64-.51.02-.14.04-.14.07 0Zm6.5 0c-.06.3-.24.47-.53.4-.07-.02-.09 0-.06.07.14.41.68-.13.7-.39 0-.04-.01-.07-.03-.1-.04-.05-.06-.04-.07.02Zm-5.94 1.73h-.01c-.1-.1.09-.27.17-.28.06-.03.33.08.26.19l-.42.1Zm5-.1.37.1.02-.01c.09-.1-.05-.27-.14-.29-.08-.02-.32.08-.26.19h.01Zm-4.7.48a12.1 12.1 0 0 1 5.84.26c.1.03.31.14.63.32.07.04 0 .18-.06.14a2.67 2.67 0 0 0-.85-.4c-.4-.1-.84-.18-1.3-.26-1.09-.18-2.18-.2-3.3-.05-.53.07-1.04.17-1.54.28-.34.07-.66.21-.97.43-.05.04-.14-.02-.08-.09.33-.37 1.13-.53 1.64-.63Zm2.7.58c0 .17-.13.31-.3.31-.15 0-.29-.14-.29-.31 0-.18.14-.32.3-.32.16 0 .29.14.29.32Zm2.52-.08-1.63-.24c-.16-.02-.3.1-.33.27v.03c-.03.17.09.33.25.36l1.63.24c.16.02.3-.1.33-.27V16c.03-.17-.09-.33-.25-.36Zm-5.65 0 1.64-.23c.16-.02.3.1.33.27v.03c.02.17-.1.33-.25.35l-1.64.23c-.16.02-.31-.1-.33-.27V16c-.03-.17.09-.33.25-.35Zm-.93 1.05c.1 0 .19-.09.19-.2 0-.12-.09-.2-.2-.2-.1 0-.18.08-.18.2 0 .11.08.2.19.2Zm7.71-.2c0 .11-.08.2-.2.2-.1 0-.19-.09-.19-.2 0-.12.09-.21.2-.21.1 0 .2.09.2.2Zm-3.94 1.45c1.72 0 3.11-.23 3.11-.52 0-.28-1.39-.52-3.1-.52-1.72 0-3.12.24-3.12.52 0 .29 1.4.52 3.11.52Z" fill="#C89650"/><path d="M26.78 20.6c-.02.01-.03 0-.03-.02v-.05c0-.02 0-.03.03-.03h2.35c.02 0 .04 0 .04.03v.06c-.14.03-.31 0-.43.08-.19.12-.28.3-.28.56v10.99c0 .17.03.34.1.48.14.26.37.24.61.25.05 0 .05.1 0 .1l-2.39.02c-.06 0-.07-.12-.02-.12.48.04.72-.19.73-.66a564 564 0 0 0-.03-11.22c-.02-.37-.33-.5-.68-.46ZM24.95 21.2l1.5.02a.1.1 0 0 1 .06.02.1.1 0 0 1 .03.07v7.47c0 1.18-.42 2.23-1.75 2.29-.6.02-1.16-.2-1.69-.67a.22.22 0 0 1-.06-.26l.57-1.66.02-.02c.07-.05.1.05.09.1-.04.37-.12.79-.05 1.14.14.67.6.93 1.4.78.42-.08.58-.44.58-.83v-7.5c0-.78-.33-.77-.77-.84-.01-.05.02-.11.07-.1ZM30.34 29.64c0 .75.53.67 1.06.67.38 0 .68-.18.9-.53.24-.38.44-.8.6-1.27.02-.07.16-.04.14.03l-.47 2.2c-.01.06-.05.09-.1.09h-3c-.03 0-.04 0-.04-.03v-9.5a.08.08 0 0 1 .07-.08l1.55-.01c.05 0 .03.11-.03.11-.46 0-.68.23-.68.7v7.62Z" fill="#C89650"/><path fill-rule="evenodd" d="m33.14 42.96.38 1a.1.1 0 0 0 .13.06l.37-.15a.65.65 0 0 0 .35-.3c.07-.15.08-.3.02-.45l-.05-.13a.54.54 0 0 0-.3-.31.64.64 0 0 0-.47 0l-.38.15a.1.1 0 0 0-.05.13Zm.32.1.22.62c.04.1.14.04.2.02.1-.04.18-.11.23-.2.05-.1.06-.2.03-.29l-.04-.09c-.05-.14-.2-.22-.35-.22-.05 0-.1 0-.15.02-.06.03-.17.05-.14.14Z" fill="#C89650"/><path d="M17.23 37.78c-.15.02-.09-.1-.07-.19.02-.15-.23-.27-.28-.1-.1.32 0 .5.3.54.17.02.3-.05.38-.2.13-.23.25-.45.39-.67.07-.13-.13-.3-.22-.18-.17.23-.31.48-.43.76a.08.08 0 0 1-.07.04ZM18.1 38.31a.13.13 0 0 0-.17-.03.44.44 0 0 1-.23.1c-.09 0-.13-.04-.15-.11 0-.04 0-.07.03-.09l.84-.76a.11.11 0 0 1 .1-.03c.18.03.28.18.22.36-.13.34-.23.66-.33.97-.02.09-.07.1-.14.05-.08-.05-.15-.12-.12-.23a.26.26 0 0 0-.04-.23ZM19.02 38.96c-.05-.06-.06-.12-.02-.19l.3-.53c.04-.08.15-.06.16.03 0 .07.03.14.07.2.1.17.18.16.24-.03.13-.4-.45-.67-.7-.38-.17.19-.29.46-.36.8-.01.04 0 .1.03.13.13.16.3.26.5.3.04 0 .08 0 .1-.04l.25-.44c.08-.13-.17-.22-.25-.24-.12-.02-.16.02-.13.15.03.1.02.17-.03.24a.1.1 0 0 1-.16 0ZM19.83 39.55c-.08.07-.22.03-.24-.07 0-.04 0-.07.03-.1.23-.32.46-.61.7-.88a.13.13 0 0 1 .1-.05c.16 0 .3.12.26.3-.06.35-.12.69-.16 1.01 0 .07-.05.1-.11.08-.08-.01-.17-.03-.17-.14a.65.65 0 0 0-.05-.24c-.07-.13-.3.02-.36.09ZM25.66 38.94c0 .13-.1.24-.24.24a.23.23 0 0 1-.23-.24c0-.13.1-.23.23-.23s.24.1.24.23ZM21.42 39.22l-.24.75c-.02.08-.07.1-.15.1l-.05-.01c-.09-.01-.12-.07-.1-.15l.24-.75c.03-.1 0-.15-.09-.18-.08-.04-.11-.1-.1-.18.03-.06.1-.1.15-.08l.62.18c.06.02.09.06.08.12v.04c-.01.07-.05.1-.13.1l-.12-.01c-.06 0-.1.02-.1.07ZM21.92 40.01a.16.16 0 0 1-.08-.1.27.27 0 0 0-.06-.13c-.07-.07-.2-.04-.22.06-.05.28.05.43.3.46.26.03.4-.11.44-.35l.14-.75c.03-.17-.29-.25-.32-.07l-.13.85c0 .03-.05.05-.07.03ZM23.77 39.36l.1.83c0 .07-.03.12-.09.15-.09.04-.22 0-.23-.11l-.05-.82c0-.04-.03-.07-.07-.08l-.16-.03c-.04-.01-.06-.04-.07-.08-.01-.08.06-.13.13-.14l.63-.05c.05 0 .09.02.1.08.02.06.03.14-.06.15l-.17.02c-.04 0-.06.03-.06.08ZM22.8 39.08h.12c.05 0 .08.05.08.1l-.05 1.12c0 .04-.04.08-.08.07h-.12a.08.08 0 0 1-.08-.09l.05-1.12c0-.04.04-.08.08-.08Z" fill="#C89650"/><path fill-rule="evenodd" d="M22.52 25.74a.34.34 0 0 0-.2-.07c.1-.06.13-.11.09-.16a.8.8 0 0 1-.2-.58c0-.25.27-.42.48-.52a.14.14 0 0 0 .06-.07c.08-.17.1-.36.05-.56a42.29 42.29 0 0 1-.3-1.37h-.02l-.01.28c-.04-.15-.09-.26-.16-.3.08-.06.13-.12.12-.18a.6.6 0 0 0-.18-.44.17.17 0 0 0-.26.02 7.13 7.13 0 0 0-1.08 1.82c-.68 1.7-.62.48-.75.48.02.03.02.08 0 .11-.2.73-.52 1.45-1.02 1.97-.56.57-1.35.8-1.94 1.32a3 3 0 0 1-.42.32c-.13.08-.27-.14-.27.08 0 .32-.02.67-.09 1.05-.12.73-.45 1.09-1.1 1.47l-1.28.76a2 2 0 0 0-1 1.64c-.05.64-.04 1.25.01 1.83 0 .06.03.07.08.05.68-.3 1.3-.32 1.96.1.16.1.27.25.33.44.16.53.07.98-.27 1.35-.09.09-.07.11.04.07a.8.8 0 0 0 .52-.62.32.32 0 0 1 .23-.24c.41-.1.93.02 1.32.17.15.06.3 0 .42-.1.15-.15-.1-.39-.27-.33-.33.1-.64.09-.93-.04a.14.14 0 0 1-.08-.1.56.56 0 0 0-.25-.33c-.1-.06-.1-.12 0-.19s.11-.2.02-.36c-.05-.08.08-.18.13-.08.12.23.27.46.45.69.05.06.11.08.18.05.07-.03.08-.13.02-.17l-.22-.15c-.06-.05-.04-.14.03-.16h.01c.07 0 .4-.03.3-.16l-.5-.63c-.08-.09-.2.02-.3.1l-.1.08a.12.12 0 0 1-.11 0c-.2-.13-.41-.19-.62-.17-.08 0-.13-.09-.09-.15.3-.48.73-.8 1.26-.95.06-.02.1 0 .13.04.05.07.06.15.04.23-.09.4.09.65.53.78.04 0 .08 0 .12-.02a.3.3 0 0 0 .1-.08c.03-.04.06-.04.08 0l.04.1c.07.15.13.28.33.28.06 0 .09.04.07.1-.03.1-.03.2-.02.3 0 .1 0 .2-.03.31-.04.15-.1.3-.17.44-.05.1.05.42.17.26.08-.1.18-.2.3-.3.17-.12.07-.32 0-.46-.09-.22-.21-.5-.2-.63a1.2 1.2 0 0 0-.16-.81.11.11 0 0 0-.1-.06h-.31a.17.17 0 0 1-.13-.07c-.18-.2-.2-.4-.04-.6a.1.1 0 0 0 .02-.1c-.14-.3-.06-.57.3-.6.1-.01.18.13.27.05l.02-.02c.13-.21.32-.25.59-.13.12.06.16.15.14.27-.01.07 0 .14.07.18.21.1.27.3.17.57-.03.09-.12.14-.21.18l-.07.04a.14.14 0 0 0-.07.09.51.51 0 0 1-.28.34c0 .03.05.06.07.04.3-.24.78-.47 1.05-.05.02.04.04.03.06-.01.07-.18.2-.25.4-.23.17.03.3.18.4.31.04.06.04.15 0 .2-.56.78-.86 1.58-.22 2.44l.12.12c.1.08.2.16.2.25 0 .02-.03.05-.06.04a1.7 1.7 0 0 1-1.17-.57 6.5 6.5 0 0 0-.34-.4c-.1-.11-.12-.1-.06.04.05.1.12.2.2.3.21.22.17.28-.11.18l-.38-.18c-.24-.12-.49-.25-.44-.2.26.24.55.42.87.56.68.29 1.38.5 2.1.63a.34.34 0 0 1 .16.09c.02.03 0 .08-.04.08a1.75 1.75 0 0 0-1 .5c0 .05.07.1.1.06.35-.27.71-.42 1.1-.45a5.83 5.83 0 0 1 3.02.85c.07.03.2-.08.12-.13a5.4 5.4 0 0 0-.91-.43c-.26-.1-.52-.2-.76-.34-.44-.24-.94-.53-.95-1.09 0-.03.04-.06.07-.05.18.08.36.13.55.13.34.02.65-.42.8-.68.06-.12.11-.11.15.02.1.42.36.74.77.94.08.04.16.06.24.04.26-.06.52-.1.78-.14.68-.09.82.41.97.9l.1.3a.8.8 0 0 0 .23.32c.28.26.2.6.43.87.83.98 1.1 2.17.29 3.21-.29.37-.71.56-1.27.6-.1 0-.1-.12-.03-.16.63-.32.88-.82.74-1.49-.05-.27-.21-.52-.37-.75-.04-.07-.1-.14-.19-.08a4.8 4.8 0 0 1-1.06.62c-1.65.64-3.35.38-4.97-.3-.13-.06-.17-.02-.11.11.1.27.31.48.6.65.04.02.04.08 0 .1-.42.26-.88.34-1.37.26-.17-.02-.31-.1-.46-.17a4.2 4.2 0 0 0-.17-.08.12.12 0 0 0-.13 0 3.3 3.3 0 0 1-2.49.52 1.67 1.67 0 0 1-.62-.24c-.03-.02-.04-.07 0-.1a.85.85 0 0 1 .28-.17c.34-.11.64-.26.93-.45a.08.08 0 0 0 .02-.12l-.2-.24c-.05-.07 0-.18.09-.2a4.01 4.01 0 0 0 1.97-.6.04.04 0 0 0 0-.07l-.93-.57c-.08-.05-.15-.08-.25-.05-1.49.42-3.43.58-4.53-.79a.06.06 0 0 1-.02-.06c.01-.04.04-.05.08-.02.73.53 1.79.33 2.57-.06.06-.03.06-.12 0-.15-.2-.11-.41-.07-.63-.03a1.4 1.4 0 0 1-.4.04c-1.06-.1-1.8-1.34-1.38-2.31.2-.49.62-.68 1.25-.6.57.1.72.82.2 1.09a.1.1 0 0 1-.14-.1c0-.04 0-.08.02-.12a.07.07 0 0 0-.04-.1.98.98 0 0 0-.5 0c-.31.08-.14.53.04.65.82.54 1.84-.49 1.14-1.23-.57-.59-1.52-.43-2.08.11-.43.42-.62.96-.59 1.62 0 .05-.09.06-.1 0a2.43 2.43 0 0 1-.03-.96c0-.04 0-.08-.03-.11a1.14 1.14 0 0 1-.19-.55l.01-.06c.03-.06.1-.1.16-.08.45.12.48.03.12-.19-.12-.07-.24-.15-.37-.18-.09-.02-.11-.13-.05-.18l.34-.31a.15.15 0 0 0 .05-.1c.04-.64.15-1.26.32-1.87.04-.13 0-.23-.02-.32-.04-.13-.08-.24.03-.4.21-.3.42-.59.64-.86.33-.43.3-.98.2-1.49-.2-.89-.29-1.95.12-2.78.14-.28.38-.57.7-.87a12.1 12.1 0 0 0 1.45-1.52c.62-.78.8-1.7.5-2.67-.1-.3-.22-.58-.34-.86l-.08-.2c-.14-.34-.35-.88-.19-.27.01.05 0 .1-.03.13-.22.2-.4.43-.53.7-.26.54-.65.74-1.15.6-.07-.02.11-.25.22-.37.2-.24.36-.5.47-.8a.96.96 0 0 1 .68-.61c.09-.03 0-.14-.05-.15a.29.29 0 0 0-.18 0c-.34.13-.6.36-.78.68-.15.28-.17-.47-.07-.62.2-.3.42-.47.68-.53.06-.01.1-.04.14-.08.27-.32.58-.64.94-.95.02-.01-.05-.06-.08-.03l-.23.23c-.12.13-.24.26-.38.35a2.1 2.1 0 0 1-1.53.27c-.05-.01-.02-.11.03-.1.12 0 .23 0 .34-.02.08-.02.1-.07.13-.13.01-.04.03-.09.07-.12.1-.07.17-.15.23-.25.22-.36.58-.58 1-.57.2 0 .2-.03.03-.12a.77.77 0 0 0-.7.01l-.72.3c-.05.02-.1-.07-.06-.1.25-.16.41-.4.6-.63.1-.1.2-.21.27-.33a.12.12 0 0 1 .1-.05c.3-.04.6.03.87.2.02 0 .05-.05.04-.06-.42-.36-.86-.45-1.33-.26-.1.04-.12.01-.06-.08.3-.46.59-.74 1.2-.52.08.03.1 0 .06-.08-.12-.22-.56-.35-.78-.39-.04 0-.03-.03-.03-.06v-.01c.23 0 .45-.01.67-.05.17-.02.35 0 .52.06.04.01.06.06.04.1-.16.3-.19.54-.3.83-.02.04.08.08.1.03a2.12 2.12 0 0 1 .52-1.06.1.1 0 0 1 .14.05c.07.4.03.74-.11 1.03-.03.06-.02.08.04.05.14-.07.23-.2.25-.39.03-.18.1-.34.2-.48.07-.12.17-.13.28-.04.08.06.06-.04.05-.09-.1-.62.86-2.39 1.32-3 .06-.09.2-.05.15.07-.36 1.1-.73 2.15-1.09 3.18-.01.05.03.1.08.08.34-.1.7-.1 1.06 0 .45.11.63.5.45.92a.17.17 0 0 1-.23.1c-.04-.02-.05-.05-.03-.09.24-.77-.99-.6-1.4-.5-.04 0-.04.02 0 .03.3.12.57.3.84.56.06.06.1.14.13.23.04.07.07.15.13.21.16.19.35.38.57.59.13.13.29.17.47.17.02 0 .05 0 .07.02.12.06.07.19.04.29l-.02.04c-.01.04 0 .08.02.11l.27.4c.06.08.04.15-.05.2-.04 0-.1 0-.18-.05a6.05 6.05 0 0 1-.48-.28c-.14-.09-.25-.07-.34.05-.04.05-.01.11.04.13l.72.2c.08.03.13.12.1.2-.1.3-.37.25-.6.19-.36-.1-.52-.14-.66-.5a.11.11 0 0 0-.1-.08l-.51-.08c-.08 0-.16-.14-.25-.1-.28.15-.56.25-.88.12a1.53 1.53 0 0 1-.82-.73c-.02-.04-.1 0-.09.03.23.5.63.8 1.2.93h.09c.1-.05.27-.09.35.02.2.28.7 1 1.08 1.1.28.06.56.14.84.23.46.15.8.66 1.03 1.08.1.17 0 .33-.15.43-.15.1-.14.14.03.14.07 0 .12-.02.17-.08.32-.34.58-.68.78-1.03.2-.35.51-.47.91-.44.25.02.28.29.29.48 0 .13.03.27.08.4.23.69.4 1.4.52 2.14.06.39 0 .83-.19 1.32-.13.33-.3.57-.51.73Zm-4.38 7.14c.15 0 .28-.12.28-.27 0-.15-.13-.27-.3-.27-.15 0-.28.12-.28.27 0 .15.14.27.3.27Zm-.31 3.31s-.04-.1-.34.06a.17.17 0 0 1-.14.02 20.9 20.9 0 0 1-.12-.04c-.33-.1-.68-.2-1.02-.16a.1.1 0 0 0-.08.06c-.16.41-.43.7-.8.84-.19.08-.5.2-.92.34-.04.01.02.1.07.1.45-.07.87-.01 1.26.17.65.3 1.27.65 1.87 1.05 1.1.74 2.2 1.3 3.32 1.67 1.44.48 2.8.48 4.09-.01a2.1 2.1 0 0 0 1.35-1.33c.11-.34.07-.6-.12-.8a1.67 1.67 0 0 1-.44-.82c-.12-.53-.46-.73-1.01-.6-.16.04-.16.07 0 .08.4.03.57.29.49.66-.14.66-.8 1.12-1.44 1.24a3.7 3.7 0 0 1-1.18.03 8.08 8.08 0 0 1-3.52-1.3l-1.4-.94c-.12-.08.02-.25.08-.32Zm5.35-.09a26.48 26.48 0 0 1 1.16.9l.34.3c.07.09.1.13.09.15-.03.04-.23-.06-.57-.27-.33-.2-.76-.5-1.2-.82-.09-.06.12-.3.18-.26Zm-.8 2.28c.7.08 1.26.07 1.27-.03.01-.09-.54-.23-1.23-.3-.68-.09-1.25-.08-1.26.02-.01.09.54.23 1.23.3Zm-3.21 2.5c-.22-.13-.4-.32-.56-.55-.04-.06-.09-.07-.14-.01a4.12 4.12 0 0 1-2.89 1.1c-.06 0-.08.1-.02.1 1.05.21 2-.03 2.87-.72a.18.18 0 0 1 .23.01c.38.34.81.46 1.31.35.05 0 .05-.03.02-.06a1.4 1.4 0 0 1-.42-.73.46.46 0 0 0-.24-.32 1.92 1.92 0 0 0-.34-.15c-.16-.05-.21 0-.17.17.07.22.22.45.47.69.07.06-.05.17-.12.12Z" fill="#C89650"/><path d="M38.74 36.88c.1-.01.19 0 .28.02a.1.1 0 0 0 .12-.13c-.11-.29-.4-.2-.58-.03-.19.2-.12.47.13.57.14.05.3.07.46.07a.1.1 0 0 1 .1.07c.03.13-.12.2-.2.12a.2.2 0 0 0-.11-.06.13.13 0 0 0-.14.16c.04.15.13.22.27.2.39-.02.65-.49.26-.7-.14-.08-.3-.11-.52-.1-.08 0-.18-.18-.07-.2ZM38.25 37.49c-.06.05-.13.06-.2.02a.1.1 0 0 1 0-.18c.06-.04.2-.09.21-.19.01-.05 0-.1-.05-.12a.13.13 0 0 0-.14 0l-.4.25c-.04.03-.05.06-.02.1l.57.94a.12.12 0 0 0 .16.04c.12-.06.25-.15.38-.26.06-.04.1-.28-.05-.22l-.24.1c-.09.03-.14-.05-.17-.12a.11.11 0 0 1 .06-.14c.1-.04.25-.31.03-.29-.06 0-.1.03-.14.07ZM37.34 37.48l-.06.04a.11.11 0 0 0-.04.16l.58.91c.03.05.1.07.15.04l.06-.04c.05-.04.07-.1.04-.16l-.58-.91a.11.11 0 0 0-.15-.04ZM35.52 38.92c.11-.05.12-.19.24-.27a.14.14 0 0 1 .2.06l.3.62c0 .02.02.04.04.06.13.1.21.13.25.06a.18.18 0 0 0 0-.18l-.35-.7c-.02-.05 0-.08.03-.1.1-.06.14-.14.13-.25a.07.07 0 0 0-.08-.06c-.21.07-.4.15-.6.25-.07.04-.1.22-.17.2-.23-.08-.62.03-.59.35.03.33.21.36.43.41l.2.05c.03 0 .05.03.06.07 0 .05 0 .09-.04.12-.03.04-.07.04-.1 0-.05-.03-.28-.2-.31-.07-.15.5.9.45.7-.15-.07-.23-.22-.26-.4-.3-.06-.02-.13-.03-.2-.07-.07-.03-.08-.07-.02-.12.04-.04.08-.04.13 0a.15.15 0 0 0 .15.02ZM30.52 39.17c.12 0 .23-.1.23-.23 0-.12-.1-.23-.23-.23s-.23.1-.23.23.1.23.23.23ZM34.47 39.9l-.23-.86c-.02-.08-.07-.1-.15-.08-.07.03-.14.07-.12.16l.2.8c.05.2.17.28.36.27l.1-.02c.26-.04.37-.2.32-.46a8.67 8.67 0 0 0-.2-.79c-.02-.06-.06-.08-.12-.08l-.1.01c-.06 0-.09.04-.07.1l.21.86a.1.1 0 0 1 0 .08c-.04.06-.18.1-.2 0ZM31.8 38.91h-.05a.12.12 0 0 0-.15.08l-.27 1.02c-.02.06.02.13.08.15l.05.01c.06.02.13-.02.15-.08l.27-1.02a.12.12 0 0 0-.09-.16ZM32.17 40.17c.01-.18.04-.34.1-.5.02-.07.04-.07.05 0l.1.6c0 .04.03.07.07.09.1.03.19.03.27 0a.08.08 0 0 0 .06-.07l.12-1.06c0-.07-.02-.11-.1-.13h-.06c-.07-.02-.11.01-.12.08l-.06.45c-.01.07-.03.07-.05 0-.04-.07-.04-.16-.05-.24-.02-.2-.03-.37-.34-.36-.06 0-.09.03-.1.08l-.2 1.04c-.01.1.03.15.13.15h.03c.1 0 .14-.04.15-.13Z" fill="#C89650"/><path fill-rule="evenodd" d="M37.2 38.87c-.07-.09-.15-.2-.12-.3.01-.05.03-.06.07-.02.09.08.16.17.2.27.04.06.1.08.17.06l.07-.03c.08-.02.1-.07.05-.14a1.75 1.75 0 0 0-.24-.31.84.84 0 0 1-.16-.3l-.06-.14c-.07-.16-.19-.2-.35-.13a128.86 128.86 0 0 0-.23.1c-.15.06-.18.17-.1.3l.46.83a.14.14 0 0 0 .19.05l.03-.01c.08-.04.1-.1.04-.19l-.03-.04Zm-.4-.62c.04.07.1.1.15.08.05-.02.06-.1.03-.16-.03-.07-.1-.1-.14-.08-.05.02-.06.1-.03.16Z" fill="#C89650"/><path d="M33.06 39.23a.13.13 0 0 1 .11-.14l.28-.02a.38.38 0 0 1 .41.35l.05.51c.01.21-.15.4-.35.42l-.28.02a.13.13 0 0 1-.14-.12l-.08-1.02Zm.3.13.04.73c0 .03.04.04.07.04.02 0 .04 0 .06-.02.07-.04.1-.12.1-.2l-.03-.4c0-.06-.03-.1-.06-.15-.02-.02-.2-.1-.19 0Z" fill="#C89650"/><path fill-rule="evenodd" d="m40.31 18.16.73.78c.1.11.23.16.34.2.13.05.25.1.33.2l.27.36c.03.03.05.08.05.13l-.03.4c0 .18-.06.19-.14.02-.16-.3-.4-.5-.75-.63-.07-.02-.38.05-.25.1.22.08.39.2.5.34.12.14.19.3.26.45.07.18.15.35.28.5.09.1.14.2.17.3.02.05.05.08.1.1.03 0 .06.02.09.04.04.04.04.06-.02.07-.42.11-.75 0-1-.35l-.17-.3c-.14-.25-.29-.51-.53-.64-.07-.04-.1.1-.06.1h.02c.08.04.12.1.13.17.02.37.18.67.43.93.13.14.27.28.3.47.04.13.15.6.05.76-.02.04-.08.03-.1 0-.24-.48-.7-.75-.94-1.2l-.1-.16c-.11-.14-.16-.12-.16.06 0 .2.03.4.16.57.15.18.29.36.42.56.23.35.2.65-.09.9a.05.05 0 0 1-.08-.02 1.18 1.18 0 0 0-.4-.52c-.07-.07-.17-.13-.18-.24 0-.05 0-.1-.02-.15-.02-.2-.05-.4.03-.59a.77.77 0 0 0 .06-.42c-.02-.15-.05-.15-.1 0a2.9 2.9 0 0 0 0 1.72c.28.93 1.27 1.83 2.02 2.5.28.24.5.54.67.9.13.27.18.55.22.84.03.2.17.23.33.35.15.11.3.22.53.17.5-.1.34-.73.1-1a6.24 6.24 0 0 0-1.15-1.02 1.42 1.42 0 0 1-.4-.5c-.3-.56.1-.9.6-1.06.25-.08-.18-.18-.22-.24-.36-.64-.61-1.68-.08-2.29.63-.73 1.74-.53 2.46-.07.3.18.6.14.84-.1.12-.13.18-.1.17.07v.13c-.02.24-.2.5-.46.47-.15-.02-.21-.2-.38-.22-.06 0-.07.01-.03.06.18.23.3.59.17.88-.17.35-.77.93-1.15.53-.23-.24-.5-.48-.42-.85 0-.04.05-.05.09-.03.42.28.94-.1.62-.56a.86.86 0 0 0-.68-.4c-.98-.07-1.37.86-1.07 1.69l.3.77c.03.05.06.06.1.02.18-.18.2-.42.08-.65-.01-.04 0-.07.03-.09.05-.03.1-.03.15.02.15.17.3.31.46.44.06.05.09.12.09.2-.02.37-.17.59-.46.64-.23.04-.45.14-.66.24-.13.06-.17.16-.13.3.12.34.53.56.83.76.17.11.34.27.5.47.01.02.04 0 .03-.02l-.82-1.46c-.05-.1-.02-.15.08-.16l.1-.01c.09-.02.16.01.22.1.48.7.88 1.45.93 2.29.03.42-.13.9-.56 1.05-.49.17-.95-.1-1.13-.55-.02.64-.08 1.28-.2 1.92-.07.4.1.88.38 1.22l.06.07c.22.25.6.7.5.98a.83.83 0 0 0-.01.48 9.4 9.4 0 0 1 .34 1.84c.1.15.28.23.37.39.09.13-.22.13-.25.17a1.1 1.1 0 0 1-.47.28c-.1.06.09.16.15.13l.23-.08c.13-.06.27.08.23.22-.05.15-.11.3-.2.43a.19.19 0 0 0-.03.13c.04.36.03.71-.03 1.05 0 .03-.07 0-.07-.04.04-1.13-.67-2.17-1.86-2.13-.47.01-.8.22-1 .6-.15.32-.1.6.18.85.35.34.73.38 1.12.13.17-.1.23-.24.2-.43-.05-.3-.41-.27-.64-.22-.04 0-.06.03-.05.08.01.05 0 .1-.01.15-.05.11-.12.13-.2.04-.37-.35-.3-.86.2-1 .66-.19 1.3.08 1.42.83.19 1.2-.78 2.27-1.98 1.99-.19-.05-.38-.06-.54.07a.06.06 0 0 0 0 .1c.76.4 1.86.62 2.59.07.09-.07.03.14.02.15-.5.6-1.17.93-2 1a7.22 7.22 0 0 1-2.43-.25.44.44 0 0 0-.32.03l-.9.56c-.03.02-.03.08 0 .1a4 4 0 0 0 1.9.57c.2.02.24.11.1.27l-.16.16c-.03.04-.03.08.01.11.25.19.49.29.73.39.16.07.32.14.48.23.04.02.04.07.01.1-.37.3-.8.31-1.26.32-.65 0-1.25-.18-1.82-.55a.2.2 0 0 0-.21 0c-.59.35-1.22.36-1.9 0-.06-.02-.08-.07-.05-.12a.13.13 0 0 1 .06-.06c.31-.16.5-.39.58-.7v-.02a.05.05 0 0 0-.07-.03c-2.01.9-4.34 1.08-6.15-.3a.07.07 0 0 0-.09.01c-.28.37-.52.85-.45 1.32.07.49.33.82.79 1.01.04.02.05.09.01.12-.09.07-.2.03-.3.02-.94-.14-1.54-1.03-1.54-1.95 0-.7.34-1.27.8-1.83.21-.28.14-.6.41-.87.09-.09.18-.18.23-.31.08-.2.15-.42.2-.64.21-.76.98-.61 1.54-.46.52.14 1.05-.51 1.14-.96.03-.15.08-.16.16-.03.15.27.31.57.63.67.19.05.38 0 .57-.05.06-.02.19-.09.22 0a.06.06 0 0 1 0 .02.99.99 0 0 1-.3.6c-.36.31-.75.55-1.18.7-.37.12-.71.29-1.06.46l-.03.01c-.05.02-.1.19-.02.18.15-.02.29-.07.4-.14a5.9 5.9 0 0 1 2.03-.68c.7-.1 1.26.03 1.7.4.04.03.19 0 .14-.05a1.81 1.81 0 0 0-.96-.48c-.05 0-.07-.03-.06-.07 0-.05.03-.08.08-.09.8-.14 1.53-.36 2.2-.64 2.51-1.07-.96.2-1.35.25-.17.02-.19-.02-.06-.14.86-.8.68-1.85 0-2.69a.15.15 0 0 1-.02-.16c.15-.3.54-.5.8-.18.03.04.07.05.11.01.4-.3.63-.16.98.07.12.07-.02-.1-.05-.12-.17-.13-.17-.34-.39-.44a.16.16 0 0 1-.1-.1c-.09-.3-.02-.49.22-.59.04-.01.05-.04.04-.09-.08-.4.29-.4.57-.39.05 0 .06-.02.05-.07l-.11-.44c-.22-.8-.45-1.68 0-2.42.2-.32.48-.67.83-1.06.07-.08.18.04.25.09.22.16.42.3.43.63 0 .53.12 1 .35 1.41.02.04.03.09.03.13-.01.15-.18.29-.28.39-.28.29-.39.76-.39 1.18.02 1.38-.66.27-.3 1.17.02.03.03.07.02.1-.04.32-.22.46-.53.42a.2.2 0 0 0-.14.03.21.21 0 0 0-.08.13l-.37 1.62c-.02.07.02.15.08.2.13.07.23.17.3.3.03.05.06.05.1 0 .05-.07.12-.15.07-.25a1.75 1.75 0 0 1-.19-1.07c0-.05.04-.1.09-.1.16-.05.25-.16.28-.33.02-.05.07-.06.1-.03.25.2.6-.09.75-.3a.19.19 0 0 0 .03-.1v-.52c0-.04.03-.07.06-.06a1.9 1.9 0 0 1 1.37 1c.03.06.02.08-.04.08-.24-.02-.45.04-.64.16a.22.22 0 0 1-.26-.01l-.2-.16c-.03-.03-.05-.02-.07 0-.18.22-.4.43-.55.66v.02c-.05.16.37.05.38.23 0 .04-.01.07-.05.08-.1.04-.17.1-.23.17a.07.07 0 0 0 .02.1c.11.05.2.02.27-.08l.44-.7c.04-.05.07-.05.08.02.02.13.22.37.12.6-.07.16-.28.25-.35.43a.18.18 0 0 1-.1.1c-.3.1-.6.1-.9 0a.18.18 0 0 0-.11 0c-.14.03-.24.23-.13.35.12.14.28.16.44.09.28-.13 1.36-.42 1.5.05.08.28.24.59.54.67.07.02.08 0 .03-.06-.51-.63-.56-1.57.28-1.96a1.84 1.84 0 0 1 1.67.02c.05.02.1 0 .1-.06a7.8 7.8 0 0 0 .02-1.76c-.08-.8-.4-1.33-1.09-1.73l-1.5-.9c-.75-.44-.9-1.5-.87-2.32.06-1.67.05-1.34-.14-.1 0 .05-.07.07-.1.04-.46-.4-.98-.75-1.56-1.05a3.78 3.78 0 0 1-1.87-2.6.16.16 0 0 1 .08-.18c.58-.36-.32-.14-.71-.24-.25-.12-.28-.64-.43-.85l-.66-1.03c-.27-.42-.48.1-.56.32-.16.47-.49 1.59-.31 2.05.05.13.14.19.24.24.06.04.13.08.18.14.24.26.08.72-.13.95a.13.13 0 0 1-.19 0 2.53 2.53 0 0 1-.55-1.03c-.07-.27-.06-.64.03-1.1.1-.54.22-1.03.34-1.48l.1-.28c.07-.19.14-.36.13-.6-.01-.23.13-.43.37-.44.33 0 .62.11.79.4.22.4.5.75.81 1.08.46.47.04-.22.02-.26a.13.13 0 0 1-.01-.13c.22-.46.48-.81.8-1.04.2-.14.57-.26 1.13-.37.26-.05.66-.56.92-.9.3-.39.25-.13.67-.24.53-.14.9-.44 1.1-.92v-.01c-.03-.02-.06-.04-.08 0-.28.43-.67.8-1.2.78-.35-.02-.42-.14-.72-.09l-.6.1c-.04 0-.07.03-.07.08-.04.44-.72.57-1.06.5-.2-.02-.2-.32-.03-.4l.67-.2c.18-.04-.04-.34-.26-.2-.18.12-.37.24-.57.34-.11.06-.25-.05-.18-.17.08-.14.17-.26.26-.38.06-.07.07-.15.02-.22-.05-.09-.05-.16.02-.22.06-.07.14-.08.23-.09.12-.01.25-.02.36-.16.15-.2.32-.37.5-.51a.25.25 0 0 0 .1-.13c.1-.37.55-.72.9-.86.34-.05.3-.07.17-.1-.45-.1-.9-.17-1.33.03-.28.13.07.55-.13.56-.2.02-.3-.08-.32-.28-.08-.9 1.09-.88 1.65-.73.03 0 .05-.02.05-.04v-.01c-.4-1.1-.77-2.18-1.13-3.23-.02-.06.05-.15.1-.1h.02c.2.24.34.5.44.8.03.1.1.19.15.27.23.32.57.85.5 1.27 0 .04.02.06.05.07.37.04.3.46.19.7v.06c.03.03.06.03.08 0a.18.18 0 0 1 .1-.08c.04 0 .07 0 .1.02.18.12.26.27.25.48 0 .19.15.37.3.47h.01c.05.02.1-.04.06-.07-.28-.23-.2-.75-.14-1.06.01-.04.06-.06.09-.03.3.27.47.59.5.94 0 .16.04.16.09.01a.6.6 0 0 0 .03-.2.4.4 0 0 0-.07-.21c-.03-.03-.31-.4-.13-.45.3-.07.56-.06.81.02h.13a.32.32 0 0 1 .2.01c.05.02.05.04 0 .06l-.2.04c-.23.06-.44.1-.62.35-.03.05-.02.07.04.05l.43-.06c.4-.04.53.16.7.4.03.07.07.13.12.19.07.1.05.13-.07.08h-.02a.86.86 0 0 0-.45-.1c-.34.05-.03.06.21.33.17.19.32.39.46.6.09.12.2.2.33.28.07.04.07.14-.03.13h-.01l-.75-.32a.76.76 0 0 0-.7.03c-.13.07-.12.1.03.1.47-.02.81.17 1.02.55.06.1.14.17.22.25.06.06.16.26.27.27l.28.02c.06 0 .05.1 0 .1-.49.07-.94 0-1.37-.2-.16-.08-.27-.2-.4-.33-.07-.09-.15-.17-.25-.25-.09-.06-.1-.06-.02.03ZM37.9 32.89c.15 0 .27-.13.27-.28a.28.28 0 0 0-.27-.28.28.28 0 0 0-.28.28c0 .15.13.28.28.28Zm-4.83 3.39-.14-.19c-.02-.03-.05-.02-.08 0-.13.1-1.7 1.2-1.6 1.37l.02.02c.08.1 1.02-.58 1.12-.65.08-.06.77-.42.68-.55Zm.58 2.09c.7-.09 1.25-.24 1.23-.33 0-.1-.58-.1-1.28 0-.7.08-1.25.23-1.24.32.02.1.59.1 1.29.01Zm-4.39.66c-.1.13-.96 2-.57 1.93.01 0 .02 0 .02-.02-.08-.63.27-1.2.59-1.74.02-.04.03-.26-.04-.18Zm7.62 1.82c.23-.12.4-.3.53-.53.02-.05.1-.07.14-.03a3.75 3.75 0 0 0 2.36 1.08l.39.04c.3.05.3.1 0 .15-1.1.18-1.85-.18-2.77-.77a.1.1 0 0 0-.11 0l-.1.08c-.13.09-.25.17-.38.23-.1.04-1.02.15-.88 0 .23-.25.38-.54.45-.86.01-.04.03-.07.06-.1.16-.12.27-.18.33-.2.35-.12.43-.02.25.3-.1.18-.23.35-.39.52-.06.07.06.13.12.1Zm1.45-4.51-.14-.15c-.02-.03 0-.17.05-.13l.1.07c.13.1.25.19.44.12.3-.12.63-.19.98-.2a.16.16 0 0 1 .16.1c.23.62.64.77 1.17.96l.3.1c.36.15.35.2-.04.17-.22-.02-.43 0-.62.06-.84.24-1.73.82-2.5 1.32a10.75 10.75 0 0 1-4.77 1.88 5.47 5.47 0 0 1-2.63-.43c-.5-.2-.86-.56-1.1-1.05-.2-.41-.2-.73.03-.95.25-.24.4-.58.48-.92.05-.2.14-.35.27-.44.21-.16.57-.22.82-.08.05.04.05.05-.02.05-1-.01-.52 1.07-.14 1.4.8.69 1.98.63 2.97.4a8.22 8.22 0 0 0 2.65-1.1c.52-.35 1.03-.69 1.52-1.04a.1.1 0 0 0 .02-.14Z" fill="#C89650"/></svg>