<!-- by TradingView --><svg width="56" height="56" viewBox="0 0 56 56" xmlns="http://www.w3.org/2000/svg"><path fill="#F0F3FA" d="M0 0h56v56H0z"/><path fill-rule="evenodd" d="M48 28c0 3.87-8.95 7-20 7S8 31.87 8 28s8.95-7 20-7 20 3.13 20 7Zm-2 0c0 3.59-8.06 6.5-18 6.5S10 31.59 10 28s8.06-6.5 18-6.5 18 2.91 18 6.5Zm-27 1h-7.77a2.31 2.31 0 0 1-.23-1c0-3.19 7.03-5.8 15.92-5.99L19 29Zm-3.67 3a13.4 13.4 0 0 1-2.06-1H18c2.8 0 5.83-1.67 7-2.5l6.38-6.38c2.19.15 4.22.46 6.02.88h-2.9c-2 0-4.17 1.67-5 2.5l-5 5a4.76 4.76 0 0 1-3 1.5h-6.17Zm22.17-8h3.17c2.7 1.06 4.33 2.46 4.33 4 0 3.31-7.61 6-17 6-3.48 0-6.7-.37-9.4-1h2.9c2.8 0 5-.5 6.5-2l6-5.5c1-1 2.67-1.5 3.5-1.5Z" fill="#1E1C1D"/></svg>