<!-- by TradingView --><svg width="56" height="56" viewBox="0 0 56 56" xmlns="http://www.w3.org/2000/svg"><path fill="#F0F3FA" d="M0 0h56v56H0z"/><path fill-rule="evenodd" d="M40 16H15a5 5 0 0 0-5 5v14a5 5 0 0 0 5 5h25a5 5 0 0 0 5-5V21a5 5 0 0 0-5-5Zm-25-1a6 6 0 0 0-6 6v14a6 6 0 0 0 6 6h25a6 6 0 0 0 6-6V21a6 6 0 0 0-6-6H15Z" fill="#2B2616"/><path fill-rule="evenodd" d="M41 16H16a5 5 0 0 0-5 5v14a5 5 0 0 0 5 5h25a5 5 0 0 0 5-5V21a5 5 0 0 0-5-5Zm-25-1a6 6 0 0 0-6 6v14a6 6 0 0 0 6 6h25a6 6 0 0 0 6-6V21a6 6 0 0 0-6-6H16Z" fill="#E3E2DA"/><path fill-rule="evenodd" d="M39 20c-.33.17-1 .7-1 1.5 0 1 .5 1 1 1s2.5-.5 2.5-2-.5-2-2-2S36 19 36 21v13l1 .5-4 2.5 1-1.5V25l-4 9-4-7.5V33l1 1-6 .5c-.67 1-2.7 3-5.5 3-3.5 0-3.5-3-3.5-3.5s.5-3 3-3c.67 0 2 .4 2 2s-.67 2-1 2c-.17 0-.5-.2-.5-1 0-.3.04-.54.08-.75.08-.5.13-.75-.58-.75-1 0-1.5.5-1.5 1.5s.5 2 2 2c1.2 0 2.83-1 3.5-1.5V28c-1-.17-3-1-3-3s2.33-2.83 3.5-3v-1l-2-1 3-2H22l-1 1.5V21l3-1h1l5 10c1-4.17 4.3-12.5 9.5-12.5 1.17 0 3.5.6 3.5 3 0 1.17-.8 3.5-4 3.5-.67-.04-2-.59-2-2.5.17-.5.8-1.5 2-1.5Zm-15 4v-3l-3 2c1 0 2.5.5 3 1Zm0 3v6l-2 .5c-.33 0-1-.2-1-1v-4c.5-.17 2.6-.7 3-1.5Zm-3-3c.83.17 2 .7 2 1.5s-1.17 1.33-2 1.5v-3Zm-2 0v2.5c-.5-.17-1.5-.7-1.5-1.5s1-1 1.5-1Z" fill="#2B2616"/><path fill-rule="evenodd" d="M40 20c-.33.17-1 .7-1 1.5 0 1 .5 1 1 1s2.5-.5 2.5-2-.5-2-2-2S37 19 37 21v13l1 .5-3.5 2 .5-1V25l-4 9-4-7.5V33l1 1-6 .5a5.8 5.8 0 0 1-5 2.5c-3.5 0-4-2.5-4-3s.5-3 3-3c.67 0 2 .4 2 2s-.67 2-1 2c-.17 0-.5-.2-.5-1 0-.3.04-.54.08-.75.08-.5.13-.75-.58-.75-1 0-1.5.5-1.5 1.5s.5 2 2 2c1.2 0 2.83-1 3.5-1.5V28c-1-.17-3-1-3-3s2.33-2.83 3.5-3v-1l-2-1 3-2H23l-1 1.5V21l3-1h1l5 10c1-4.17 4.3-12.5 9.5-12.5 1.17 0 3.5.6 3.5 3 0 1.17-.8 3.5-4 3.5-.67-.04-2-.59-2-2.5.17-.5.8-1.5 2-1.5Zm-15 4v-3l-3 2c1 0 2.5.5 3 1Zm0 3v6l-2 .5c-.33 0-1-.2-1-1v-4c.5-.17 2.6-.7 3-1.5Zm-3-3c.83.17 2 .7 2 1.5s-1.17 1.33-2 1.5v-3Zm-2 0v2.5c-.5-.17-1.5-.7-1.5-1.5s1-1 1.5-1Z" fill="#E3E2DA"/><path fill-rule="evenodd" d="M39.5 20c-.33.17-1 .7-1 1.5 0 1 .5 1 1 1s2.5-.5 2.5-2-.5-2-2-2-3.5.5-3.5 2.5v13l1 .5-4 2.5 1-1.5V25l-4 9-4-7.5V33l1 1-6 .5c-.67 1-2.7 3-5.5 3-3.5 0-3.5-3-3.5-3.5s.5-3 3-3c.67 0 2 .4 2 2s-.67 2-1 2c-.17 0-.5-.2-.5-1 0-.3.04-.54.08-.75.08-.5.13-.75-.58-.75-1 0-1.5.5-1.5 1.5s.5 2 2 2c1.2 0 2.83-1 3.5-1.5V28c-1-.17-3-1-3-3s2.33-2.83 3.5-3v-1l-2-1 3-2h1.5l-1 1.5V21l3-1h1l5 10c1-4.17 4.3-12.5 9.5-12.5 1.17 0 3.5.6 3.5 3 0 1.17-.8 3.5-4 3.5-.67-.04-2-.59-2-2.5.17-.5.8-1.5 2-1.5Zm-15 4v-3l-3 2c1 0 2.5.5 3 1Zm0 3v6l-2 .5c-.33 0-1-.2-1-1v-4c.5-.17 2.6-.7 3-1.5Zm-3-3c.83.17 2 .7 2 1.5s-1.17 1.33-2 1.5v-3Zm-2 0v2.5c-.5-.17-1.5-.7-1.5-1.5s1-1 1.5-1Z" fill="#CBB063"/><path fill-rule="evenodd" d="M40.5 16h-25a5 5 0 0 0-5 5v14a5 5 0 0 0 5 5h25a5 5 0 0 0 5-5V21a5 5 0 0 0-5-5Zm-25-1a6 6 0 0 0-6 6v14a6 6 0 0 0 6 6h25a6 6 0 0 0 6-6V21a6 6 0 0 0-6-6h-25Z" fill="url(#a)"/><defs><linearGradient id="a" x1="9.5" y1="25" x2="46.5" y2="25" gradientUnits="userSpaceOnUse"><stop stop-color="#C9AD5E"/><stop offset=".12" stop-color="#EBE7D8"/><stop offset=".24" stop-color="#D6C485"/><stop offset=".34" stop-color="#E9E9E6"/><stop offset=".72" stop-color="#CBB063"/><stop offset="1" stop-color="#CFB466"/></linearGradient></defs></svg>