<!-- by TradingView --><svg width="56" height="56" viewBox="0 0 56 56" xmlns="http://www.w3.org/2000/svg"><path fill="#606BFF" d="M0 0h56v56H0z"/><path d="M48 33c-2.35 0-4-1.65-4-4s1.65-4 4-4c2.34 0 4 1.65 4 4s-1.64 4-4 4Zm0-1.5c1.4 0 2-1.26 2-2.5 0-1.25-.59-2.5-2-2.5-1.41 0-2 1.25-2 2.5s.58 2.5 2 2.5ZM40.2 33c-2.4 0-4.2-1.55-4.2-4 0-2.44 1.83-4 4.2-4 .37 0 .76.05 1.19.14.43.1.83.25 1.2.47.19.1.3.23.36.38a.8.8 0 0 1-.18.85.7.7 0 0 1-.39.2.89.89 0 0 1-.51-.1 3 3 0 0 0-.75-.3c-.26-.08-.5-.12-.73-.12-1.46 0-2.39 1.13-2.39 2.48 0 1.4.92 2.48 2.39 2.48a3.3 3.3 0 0 0 1.48-.4c.19-.1.35-.12.5-.1.15.04.28.11.38.23.1.1.16.23.18.4.02.14 0 .28-.07.43a.7.7 0 0 1-.33.36c-.36.21-.75.36-1.16.46-.41.1-.8.14-1.16.14ZM27.08 33c-.7 0-1.08-.37-1.08-1.01v-5.96c0-.66.32-1.03 1-1.03.68 0 1 .37 1 1.03v1.07l-.2-.4c.54-1.15 1.99-1.7 3.18-1.7 1.98 0 3.02 1.24 3.02 3.17V32c0 .64-.37 1.01-1.08 1.01-.64 0-.92-.34-.92-1.01v-3.72c0-1.19-.66-1.72-1.72-1.72-1.1 0-2.28.8-2.28 1.98V32c0 .67-.18 1.01-.92 1.01ZM23 33c-.33 0-.57-.1-.74-.29-.17-.19-.26-.45-.26-.8v-5.83c0-.35.09-.61.26-.8.17-.18.41-.28.73-.28s.57.1.74.29c.18.18.27.44.27.8v5.83c0 .34-.09.6-.26.8-.17.18-.42.28-.75.28ZM23 24c-.47 0-.84-.09-1.11-.26a.86.86 0 0 1-.39-.74c0-.32.13-.57.39-.74.27-.17.64-.26 1.11-.26a2 2 0 0 1 1.11.26c.26.17.39.42.39.74 0 .31-.13.56-.39.74A2 2 0 0 1 23 24ZM14.46 33C12.21 33 11 31.09 11 29c0-2.08 1.22-4 3.46-4 1.14 0 2.33.58 2.7 1.71l-.16.4v-1.09c0-.66.39-.99 1-.99.65 0 1 .34 1 1v5.93c0 .64-.34 1-1 1-.65 0-1-.36-1-1V30.9l.18.32c-.35 1.18-1.55 1.79-2.72 1.79Zm.56-1.5c1.44 0 1.98-1.26 1.98-2.5 0-1.26-.55-2.5-1.98-2.5-1.41 0-2.02 1.24-2.02 2.5 0 1.25.6 2.5 2.02 2.5ZM5.03 33a.98.98 0 0 1-.76-.25.91.91 0 0 1-.27-.68c0-.22.07-.4.2-.55.13-.17.32-.26.57-.27l.51-.03C6.31 31.15 7 30.58 7 29.58v-7.5c0-.73.31-1.08 1-1.08.66 0 1 .42 1 1.08v7.49c0 2.07-1.38 3.28-3.39 3.4l-.58.03Z" fill="#fff"/></svg>