<!-- by TradingView --><svg width="56" height="56" viewBox="0 0 56 56" xmlns="http://www.w3.org/2000/svg"><path fill="#F0F3FA" d="M0 0h56v56H0z"/><path fill-rule="evenodd" d="M7 21h3v8c0 1-.3 3-3.5 3-.83 0-2.1-.1-2.5-.5v-3l.12.13c.33.35.82.87 1.88.87s1.03-.52 1-.87V21Zm13 11h-3v-1.25C15.22 32 14.43 32 14 32c-.5 0-3 0-3-2.5 0-2 2-2.5 3-2.5h3v-1c0-.17-.2-.5-1-.5s-1 .33-1 .5h-3c0-.67.8-2 4-2s4 1.5 4 3v5Zm-3-4v1.8c-.59.37-1.3.7-2 .7-.33 0-1-.2-1-1 0-1 .5-1.5 1.5-1.5H17Zm22 4h3v-5c0-1.5-.8-3-4-3s-4 1.33-4 2h3c0-.17.2-.5 1-.5s1 .33 1 .5v1h-3c-1 0-3 .5-3 2.5 0 2.5 2.5 2.5 3 2.5.43 0 1.22 0 3-1.25V32Zm0-2.2V28h-1.5c-1 0-1.5.5-1.5 1.5 0 .8.67 1 1 1 .7 0 1.41-.33 2-.7ZM20.5 21h3v2h-3v-2Zm0 3h3v8h-3v-8Zm6.5 0h-3v11h3v-3.77c.51.43 1.19.77 2 .77 2 0 4-1.5 4-4s-2-4-4-4c-.95 0-1.6.47-2 1v-1Zm0 1.85v4.28c.32.22.66.37 1 .37 1 0 2 0 2-2.5 0-2-1.33-2.5-2-2.5-.27 0-.68.09-1 .35ZM43 24h3v1.5c.33-.5 1.4-1.5 3-1.5 2 0 3 1 3 3v5h-3v-5c0-.33-.3-1-1.5-1s-1.5.67-1.5 1v5h-3v-8Z" fill="#004395"/></svg>