<!-- by TradingView --><svg width="56" height="56" viewBox="0 0 56 56" xmlns="http://www.w3.org/2000/svg"><path fill="#F0F3FA" d="M0 0h56v56H0z"/><path d="M28.19 9c.01.47-.12.93-.41 1.36-.03.05-.07.06-.11.01a3.66 3.66 0 0 1-.73-1.12.12.12 0 0 1 .1-.11L28.1 9h.09ZM28.59 9.09l.4.19c.04.01.06.04.07.07l.17.42a.13.13 0 0 1-.1.18h-.06l-.46-.16a.13.13 0 0 1-.09-.1l-.1-.46a.13.13 0 0 1 .17-.14ZM26.37 9.68c-.12.2-.12.44 0 .5.12.08.32-.04.44-.25s.12-.44 0-.51-.32.04-.44.26ZM29.36 9.94c.19-.27.44-.36.77-.27.07.02.1.06.07.13-.11.34-.37.47-.77.38a.16.16 0 0 0-.17.08.16.16 0 0 0-.02.06 1.65 1.65 0 0 0 .02.6h-.05c-.02 0-.04-.02-.04-.04-.05-.24-.04-.52.02-.84 0-.04.03-.06.07-.06l.06-.01a.07.07 0 0 0 .04-.03ZM25.12 10.15c0 .24.12.43.27.43.15 0 .28-.19.28-.42 0-.24-.12-.43-.27-.43-.15 0-.28.19-.28.42ZM28.58 10.51c.24-.04.42-.18.4-.31-.02-.13-.23-.21-.47-.17-.25.03-.43.17-.4.3.01.14.23.22.47.18Z" fill="#DDB980"/><path d="M30.02 11.2c-.1-.62.17-.96.8-1.03.05-.01.09.02.1.08.06.35-.03.6-.27.76a1.7 1.7 0 0 1-1.67.15c-.35-.14-.72-.31-1.1-.5l-.02-.05.02-.05c.01-.04.03-.05.07-.03a4.27 4.27 0 0 0 2.02.75l.03-.02a.08.08 0 0 0 .02-.07ZM27.22 11.3a.05.05 0 0 0-.01-.06l-.03-.02h-.02c-.42.19-.82.28-1.2.29-.26 0-.3.09-.1.25l.48.44.01.03v.02l-.03.1h-.01l-.74-.82a.2.2 0 0 1-.04-.1c-.12-.55-.5-.8-.97-1.16v-.06c.02-.02.03-.03.05-.01.32.2.6.44.85.74.04.05.07.11.09.17.03.13.07.22.12.27.03.04.08.06.14.06.46-.02.87-.1 1.25-.26.2-.09.36-.1.48-.06.23.08.39.16.48.24.05.05.06.1.01.16-.13.16-.33.2-.6.1-.19-.05-.25-.16-.2-.33Z" fill="#DDB980"/><path d="M26.73 10.57c-.09.22-.05.44.09.5.13.05.31-.09.4-.3.08-.23.04-.45-.1-.5-.13-.06-.31.08-.4.3ZM26.06 10.98c.24-.06.4-.21.37-.35-.03-.13-.25-.2-.49-.14s-.4.21-.37.35c.03.13.25.2.49.14ZM24.4 11.27c.25.16.53.19.62.05.08-.14-.05-.38-.3-.55-.25-.16-.53-.19-.62-.05-.09.14.04.38.3.55ZM31.37 11.18l.42-.13h.05l.05.06c.02.02.02.03 0 .04a.7.7 0 0 1-.52.02v.01ZM31.66 11.7c.2.1.4.09.45-.01.05-.1-.08-.26-.28-.35-.2-.1-.4-.09-.45.01-.05.1.08.26.28.35ZM28.92 11.94c.2.08.41.06.46-.06.04-.11-.1-.27-.3-.35-.21-.08-.41-.06-.46.06-.04.1.1.27.3.35ZM26.64 11.85c-.14.19-.15.41-.03.5.12.08.32-.01.46-.2.13-.2.14-.42.02-.5-.12-.08-.32 0-.45.2ZM29.71 13.64c.15.23.18.47.07.7-.02.07-.06.08-.12.04a.67.67 0 0 1-.3-.4.18.18 0 0 1 .04-.16c.04-.06.07-.1.08-.16.01-.06-.01-.1-.07-.12l-.66-.2a.15.15 0 0 1-.1-.1 6.98 6.98 0 0 1-.39-1.58c0-.03.01-.04.04-.04l.05.01a6.61 6.61 0 0 0 .4 1.57l.06.04.9.26.02.04c0 .02 0 .03-.02.04v.06ZM31.04 11.78c.11.03.11.05-.01.06a.79.79 0 0 1-.51-.19c-.03-.02-.03-.03 0-.04l.05-.02h.01c.13.08.28.14.46.19ZM30.17 12.77l-.4-.24a.2.2 0 0 1-.1-.15l-.06-.46a.2.2 0 0 1 .2-.23.2.2 0 0 1 .1.02l.41.23a.2.2 0 0 1 .1.16l.06.47a.2.2 0 0 1-.2.23.2.2 0 0 1-.1-.03ZM23.98 12.16c.2-.1.32-.27.26-.39-.05-.1-.26-.12-.46-.03-.2.1-.32.27-.26.39.05.11.26.12.46.03ZM25.81 13.07c.2.06.24 0 .1-.17-.09-.11-.09-.26 0-.44a.18.18 0 0 1 .25-.08l.07.07c.15.27.15.5 0 .7a.16.16 0 0 1-.13.07 4.53 4.53 0 0 1-1.02-.16.12.12 0 0 1-.09-.1v-.06l-.02-.04a.09.09 0 0 0-.03-.02c-.36-.17-.48-.47-.36-.91.01-.06.05-.08.1-.07.57.11.79.45.68 1.03a.15.15 0 0 0 .03.12.14.14 0 0 0 .12.04c.13 0 .23 0 .3.02ZM31.18 12.27c-.07.25 0 .49.17.53.16.04.34-.12.41-.37.07-.25 0-.5-.16-.54-.16-.04-.35.13-.42.38ZM27.6 12.25c.04.04.05.13.02.28-.07.31-.25.48-.56.5a.1.1 0 0 0-.08.06l-.03.05a.08.08 0 0 1-.05.03c-.03.01-.07 0-.1-.03a.11.11 0 0 1-.04-.1.08.08 0 0 1 .03-.04l.05-.04a.1.1 0 0 0 .04-.09c-.02-.3.13-.51.43-.62.14-.04.23-.04.28 0Z" fill="#DDB980"/><path d="M30.27 13.72a.95.95 0 0 1-.46-.14c-.02 0-.02-.02 0-.03l.05-.03c.33.12.66.14 1.01.07a.2.2 0 0 0 .14-.1c.34-.52.8-.9 1.4-1.12.02 0 .04 0 .05.02l.03.05a3.51 3.51 0 0 0-1.4 1.04.11.11 0 0 0 .11.13h1.19c.03 0 .05.01.05.05l.01.05-.01.02c-.58-.01-1.1 0-1.58.01-.35.01-.36.08-.02.19.29.1.4.38.32.86 0 .06-.05.09-.1.08-.4-.04-.63-.24-.71-.6a.67.67 0 0 1 .01-.26l.03-.18c-.01-.07-.05-.1-.12-.1ZM24.21 12.87c-.05.09-.15.11-.3.08a.6.6 0 0 1-.24-.15c-.18-.16-.25-.28-.2-.36.05-.09.19-.09.42 0 .1.02.18.07.24.14.1.11.13.2.08.3ZM29.03 13c.27.16.55.17.64.02.09-.15-.06-.4-.33-.55-.26-.16-.55-.16-.63-.01-.09.14.06.4.32.55ZM28.02 13c.15.07.3.05.34-.04.04-.09-.05-.21-.2-.28-.16-.06-.3-.04-.35.05-.03.09.06.21.2.28Z" fill="#DDB980"/><path d="M30.67 13.38c.2-.09.33-.25.28-.37-.04-.11-.25-.14-.45-.05-.2.08-.33.25-.28.36.05.12.25.14.45.06ZM24.55 13.26a.4.4 0 0 1-.05.2c-.25.42-.6.74-1.05.95h-.04v-.01c-.02-.01-.02-.02 0-.04.37-.25.69-.54.95-.88.11-.14.16-.3.12-.46 0-.05.02-.08.07-.07l.29.02c.12.01.11.05 0 .11l-.2.06c-.06.01-.09.05-.09.12ZM32 13.4c.2.06.4.02.43-.1.04-.13-.09-.28-.3-.35-.2-.06-.4-.02-.43.1-.04.12.09.27.3.34ZM23.54 13.17c.2 0 .35-.04.34-.07 0-.04-.15-.06-.34-.06-.2.01-.35.05-.34.08 0 .04.15.06.34.05ZM26.87 13.3l.07-.02c.06 0 .1.03.11.09a3.35 3.35 0 0 0 .24.67l-.05.03c-.04.02-.06.01-.07-.03-.05-.22-.14-.4-.28-.56a.24.24 0 0 0-.15-.08l-.36-.06c-.1-.03-.1-.05-.01-.08a.58.58 0 0 1 .4.06.1.1 0 0 0 .05 0 .1.1 0 0 0 .05-.02ZM27.85 13.82c.29-.01.51-.15.5-.3 0-.16-.24-.28-.52-.27-.28.02-.5.15-.5.31s.24.27.52.26ZM25.23 13.77c.21-.09.34-.25.3-.37-.06-.11-.26-.13-.47-.04-.21.08-.34.25-.3.36.06.12.26.14.47.05Z" fill="#DDB980"/><path d="M23.62 13.79c.2.04.4-.03.42-.15.02-.13-.12-.26-.33-.3-.2-.04-.39.03-.41.15-.03.12.12.26.32.3ZM28.9 14.38c-.17-.2-.26-.32-.27-.36-.08-.6.04-.65.36-.13.06.1.23.33.51.7.04.05.04.1.01.14l-.2.33c-.03.07-.08.09-.15.05-.24-.12-.32-.31-.24-.58.02-.05.01-.1-.03-.15ZM26.78 13.72l.26.37a.17.17 0 0 1-.14.27l-.46-.01a.17.17 0 0 1-.13-.08l-.27-.4a.17.17 0 0 1 .15-.26l.47.04a.17.17 0 0 1 .12.07ZM31.78 14.29c.2.1.4.08.46-.03.05-.11-.07-.28-.27-.37-.2-.1-.4-.09-.45.02-.05.11.07.28.26.38ZM23.96 14.28c-.1.24-.03.49.12.54.16.06.36-.09.45-.33.08-.24.03-.48-.13-.54-.16-.06-.36.1-.44.33ZM28.12 14.34a1 1 0 0 1-.4.1c-.13 0-.17-.05-.13-.17l.02-.07a.22.22 0 0 1 .18-.15l.5-.07a.1.1 0 0 1 .07.03.09.09 0 0 1 .02.08l-.22.78c-.02.06-.05.06-.07 0-.05-.1-.01-.24.1-.4a.13.13 0 0 0 .02-.07c0-.07-.03-.09-.1-.06ZM25.66 15.21c-.12-.1-.3-.14-.4-.22-.24-.22-.3-.5-.19-.82.02-.06.06-.09.13-.07.43.1.66.33.68.72 0 .06 0 .12-.02.17l-.04.16c-.02.06 0 .1.05.1l.73.22c.05.02.06.04.02.07a8.66 8.66 0 0 0-1.41 1.32l-.04-.04c-.02-.03-.02-.05 0-.08.38-.44.76-.8 1.15-1.07.16-.1.14-.18-.04-.2l-1.55-.25a.09.09 0 0 0-.1.05v.03c-.02.4-.22.6-.6.6-.08.01-.1-.03-.1-.1l.03-.2a.22.22 0 0 1 .12-.17c.1-.05.19-.13.26-.24a.2.2 0 0 1 .15-.08c.17-.01.56.04 1.14.16.09.02.1 0 .03-.06ZM27.31 14.73c0 .23.04.4.07.4.03 0 .06-.18.05-.4 0-.23-.04-.4-.07-.4-.03 0-.05.18-.05.4ZM31.21 15.09a.1.1 0 0 0 .06-.02.1.1 0 0 0 .04-.06c.1-.43.39-.55.88-.37.02 0 .03.01.02.03l-.28.48c-.02.03-.04.05-.08.04-.16-.04-.5-.08-.7 0-.05.01-.1 0-.13-.03-.04-.05-.03-.07.03-.07h.16Z" fill="#DDB980"/><path d="M26.75 15.12c.25-.05.43-.2.4-.33-.02-.14-.25-.2-.5-.16-.24.05-.42.2-.4.33.03.14.25.2.5.16ZM30.13 15.29c.15.3.33.56.55.77.02.02.02.04-.01.06l-.05.03c-.02.01-.04 0-.05-.01l-.48-.66a.23.23 0 0 1-.04-.18c0-.08-.02-.13-.1-.16-.09-.04-.13-.09-.13-.14a.06.06 0 0 1 .04-.04.06.06 0 0 1 .05 0c.15.1.4.14.73.13.06 0 .1.01.14.05l.34.34c.04.05.07.1.07.16.02.17.02.31-.02.41-.04.13-.12.15-.23.08-.32-.2-.42-.49-.29-.84.03-.08 0-.12-.08-.12h-.36c-.09 0-.11.04-.08.12ZM23.93 15.11h.27c.16.01.17.04 0 .07a3 3 0 0 1-.52.06c-.16 0-.17-.02 0-.08l.25-.05ZM28.07 15.18c.07.09.04.22-.1.4a.73.73 0 0 1-.31.24c-.25.1-.4.13-.44.09-.04-.05.02-.19.16-.42a.75.75 0 0 1 .28-.27c.2-.1.34-.12.41-.04ZM29.36 15.28c.25-.01.38 0 .38.03s-.13.05-.38.06c-.25.02-.37 0-.38-.03 0-.03.13-.05.38-.06ZM31.41 15.62c.04.15.15.25.24.23.1-.03.14-.17.1-.32-.03-.14-.14-.25-.23-.22-.1.02-.15.16-.11.31ZM28.8 15.54a.08.08 0 0 0-.1 0c-.15.05-.42.18-.8.37-.03.01-.05 0-.05-.03v-.08l.64-.27c.29-.1.46-.02.52.27.06.33-.05.55-.34.68a.1.1 0 0 1-.14-.05c-.15-.31-.06-.58.26-.8.04-.02.04-.05 0-.09ZM25.28 16.16c.31-.01.56-.16.55-.32 0-.17-.26-.3-.58-.28-.31 0-.56.15-.55.32 0 .17.26.3.58.28ZM29.79 16.24c.24-.05.42-.2.4-.35-.04-.13-.26-.2-.51-.15-.25.06-.42.21-.4.35.04.14.26.2.5.15ZM27.87 16.36l-.3-.3v-.03l.05-.03h.06a3.67 3.67 0 0 1 1.13 1.5.07.07 0 0 1-.03.06h-.03l-1.14.16c-.07.01-.1-.02-.1-.09a2.4 2.4 0 0 1 .37-1.26l-.01-.01Z" fill="#DDB980"/><path d="M27.2 16.71c.24-.02.43-.15.42-.29-.02-.14-.23-.23-.47-.2-.25.03-.44.16-.42.3.01.13.22.22.47.2ZM25.01 16.62c.18 0 .32-.1.31-.21 0-.11-.15-.2-.32-.2-.18.02-.32.11-.31.22 0 .11.15.2.32.19ZM30.32 16.77c.26-.05.44-.21.4-.34-.02-.14-.25-.2-.5-.14-.26.06-.44.22-.4.35.02.13.25.2.5.13ZM30.85 16.32l-.07-.01c-.1-.02-.11-.05-.02-.1h.05c.03 0 .06.01.08.05.03.06.11.09.24.1.04 0 .06.02.04.07l-.02.07c0 .02-.02.02-.04.02-.09-.04-.14-.07-.17-.12a.13.13 0 0 0-.1-.08ZM26.66 16.84c.17.02.3.04.38.08.15.07.23.17.23.28l.02.34c0 .12-.05.16-.17.11-.25-.1-.47-.28-.65-.54-.02-.04-.03-.08-.02-.1l.02-.05v-.07a.08.08 0 0 0-.05-.05.1.1 0 0 0-.08 0 .11.11 0 0 0-.05.05c-.12.19-.35.24-.7.17-.1-.02-.13-.09-.07-.18.2-.35.52-.46.97-.34.06.02.09.06.09.12v.09c0 .05.03.08.08.09ZM28.96 17.3l-.28-.38a.12.12 0 0 1 .02-.17.12.12 0 0 1 .06-.02l.56-.07a.12.12 0 0 1 .1.04l.4.4a.12.12 0 0 1-.07.2l-.68.05a.12.12 0 0 1-.1-.05Z" fill="#DDB980"/><path d="M29.5 32c-.84.6-1.78.78-2.97.63 0-3.69-.07-7.3-.03-10.94.02-1.58-.8-2.26-2.38-2.31a.13.13 0 0 1-.12-.13v-.13c0-.08.04-.12.12-.12h7.73c.08 0 .14.03.15.1v.14a.1.1 0 0 1-.1.12c-1.18.08-2.3.31-2.43 1.64.03 3.5.03 11 .03 11Z" fill="#2A7771"/><path d="M26.5 24.5v.33c-.61.23-1.49.5-1.5 1.29-.03 2.14-.02 4.23 0 6.38 0 .14.14.14.2.14h1.24c1.56-.14 2.2-.08 3.03-.68a3.04 3.04 0 0 0 1.33-1.72c.3-1.08.31-2.2.01-3.38a2.83 2.83 0 0 0-1.33-1.76.98.98 0 0 1 0-.48c2.07.25 4.09 1.3 4.32 3.6a3.68 3.68 0 0 1-1.95 3.82c-.72.42-1.63.69-2.72.8-.07 0-.1.02-.12.05v.05c0 .02.01.04.04.04 2.93.33 3.8 3.66 4.71 5.97.52 1.3 1.76 1.75 3.1 1.71.07 0 .14.07.14.15 0 .04 0 .09-.03.12-.01.02-.03.07-.06.07h-4.1c-.81 0-1.34-.32-1.74-1-1.2-2.02-1.21-4.52-2.95-6.27a3.56 3.56 0 0 0-1.69-.74L25 33l.01 5.83c0 .68.64 1.49 1.31 1.73l-.07.45H20v-.3c1.26-.02 2.99-.84 2.99-2.39L23 27c0-1.77-1.32-2.21-3-2.27v-.23h6.5Z" fill="#DDB980"/><path d="M29.52 36c-.08 4.76-1.18 11-7.11 11-.03 0-.04-.01-.04-.04v-.23c0-.05.02-.08.07-.08a2.6 2.6 0 0 0 1.73-.85c1.86-2.02 2.34-5.7 2.33-8.3V33c.7.06 1.2.3 1.62.73a5.44 5.44 0 0 1 1.4 2.27Z" fill="#2A7771"/></svg>