<!-- by TradingView --><svg width="56" height="56" viewBox="0 0 56 56" xmlns="http://www.w3.org/2000/svg"><path fill="url(#a)" d="M0 0h56v56H0z"/><path fill-rule="evenodd" d="M44 28a16 16 0 1 1-32 0 16 16 0 0 1 32 0Zm-5 1.5C39 36.4 34.08 42 28 42s-11-5.6-11-12.5S21.92 17 28 17s11 5.6 11 12.5ZM18 29c0-5.6 5.5-10 9-11-3 2-4 5.5-4 7s.46 6 4 6c4 0 5 3 5 5s-1 5-5 5c-4.5 0-9-5-9-12Zm10 7a1 1 0 1 1-2 0 1 1 0 0 1 2 0Z" fill="url(#b)"/><defs><linearGradient id="a" x1="10.42" y1="9.71" x2="68.15" y2="76.02" gradientUnits="userSpaceOnUse"><stop stop-color="#1A1E21"/><stop offset="1" stop-color="#06060A"/></linearGradient><linearGradient id="b" x1="12" y1="28" x2="44.5" y2="28.5" gradientUnits="userSpaceOnUse"><stop stop-color="#FFA715"/><stop offset="1" stop-color="#EF7115"/></linearGradient></defs></svg>