<!-- by TradingView --><svg width="56" height="56" viewBox="0 0 56 56" xmlns="http://www.w3.org/2000/svg"><path fill="#F0F3FA" d="M0 0h56v56H0z"/><path d="m21.67 29.67-5.91 4.16c1.4 1.11 5.74 3.34 11.82 3.34s11.54-2.23 13.5-3.34l-7.6-4.16h-4.21l3.37-5.84c-.67-2.66-3.66-5-5.06-5.83-2.03 1.33-3.66 4.44-4.22 5.83l3.37 5.84h-5.06Z" fill="url(#a)"/><path d="M25.89 23c0 1.33 1.69 2.22 2.53 2.5a3.71 3.71 0 0 1-.84-2.5c0-1.67 1.69-1.67 1.69-2.5 0-.67-1.13-1.39-1.7-1.67.29.28.68 1 0 1.67-.84.83-1.68.83-1.68 2.5ZM26.73 25.5c0-.67-1.12-1.39-1.69-1.67.85.84.85 1.67.85 2.5 0 .67 1.12 1.4 1.69 1.67a7.74 7.74 0 0 1-.85-2.5ZM29.27 23c0 .67.56 1.39.84 1.67l.85-3.34c-.57.28-1.7 1-1.7 1.67Z" fill="#757678"/><path d="m28.42 17.17-.84.83c3.38 2 4.78 4.72 5.06 5.83l-3.37 5.84h.84l3.38-5.84c-.68-3.33-3.66-5.83-5.07-6.66Z" fill="#767779"/><path d="M28.42 13h-1.69c-3.38 3.75-7.78 11.2-8.43 13.36-5.4 2.67-7.88 6.67-8.45 8.33 1.97 1.67 7.1 5 11.83 5 4.61 0 5.55 2.18 5.9 3.31-.2-.87 1.71-1.85 7.6-2.5 6.08-.67 10.7-3.89 11.82-5-1.35-4-6.47-8.61-8.44-10-1.7-5-7.32-10.83-10.14-12.5ZM12.4 34.7c1.12-1.67 4.56-5.17 9.29-5.84 0-3.06 1.34-9.2 6.74-12.53C30.67 18 35.2 22.2 35.2 28.86c1.4.56 5.06 2.5 8.44 5.83-2.81 1.11-10.65 4.14-16.05 4.14s-13.51-2.5-15.2-4.14Z" fill="url(#b)"/><path d="M26.73 13c-5.4 4-8.44 10.56-9.29 13.33C12.04 29 9.56 33 9 34.67c1.97 1.66 7.1 5 11.82 5 4.62 0 6.4 2.11 6.73 3.25-.19-.87.9-2.6 6.78-3.25 6.08-.67 9.86-3.06 10.98-4.17-1.35-4-5.63-7.78-7.6-9.17-2.03-6.66-8.16-11.66-10.98-13.33Zm-15.2 21.67c1.13-1.67 4.56-5.17 9.3-5.84 0-3.05 1.34-10 6.75-13.33 2.25 1.67 6.75 6.67 6.75 13.33 1.41.56 5.07 2.5 8.45 5.84-2.82 1.1-9.8 3.33-15.2 3.33-5.4 0-12.95-2.22-16.05-3.33Z" fill="url(#c)"/><path d="m27.09 32.41-.36-2.74.85 2.96 1.9-3.3.3.14-1.71 2.94.12-.07c.31-.18.7-.34 1.08-.34.4 0 .66.18.9.35l.14.1c.3.19.68.38 1.49.38a5.04 5.04 0 0 0 2.2-.5l.47-.19c.24-.08.47-.14.7-.14 1.17 0 2.18 1 3.39 1-1.22 0-2.23-.67-3.38-.67-.19 0-.38.05-.6.12l-.44.18-.27.1c-.54.22-1.2.44-2.07.44a2.78 2.78 0 0 1-1.85-.56c-.23-.17-.4-.28-.68-.28-.3 0-.62.13-.91.3-.29.16-.53.36-.66.49l-.12.12-.12-.12a3.43 3.43 0 0 0-.66-.5c-.3-.16-.62-.29-.91-.29-.86 0-1.54.84-2.53.84-1.23 0-2.16-.84-3.38-.84-1.32 0-2.75.55-3.3.82.57-.28 1.91-1.15 3.3-1.15 1.23 0 2.15.83 3.38.83 1 0 1.63-.83 2.53-.83a2.25 2.25 0 0 1 1.2.41Zm-4.65-.93a3.92 3.92 0 0 0-3.23 0c.59-.29 1.96-1 3.38-.3.8.4 1.4.4 1.9.3.46-.09.92-.31 1.4-.31v.33c-.45 0-.9.22-1.34.31-.56.11-1.23.1-2.11-.33Zm10.75.42c-.4.2-.86.43-1.39.43a2.67 2.67 0 0 1-1.66-.63.84.84 0 0 1-.14-.17.4.4 0 0 1-.06-.2h.34l.01.04.09.1a2.33 2.33 0 0 0 1.42.54c.44 0 .83-.2 1.24-.4l.05-.04c.38-.2.8-.4 1.24-.4.93 0 1.62.83 2.54.83-.93 0-1.62-.5-2.54-.5-.36 0-.7.18-1.11.39h-.03ZM19.98 34c-1.31 0-2.29.42-2.54.67.32-.31 1.14-1 2.54-1 1.23 0 2.15.83 3.38.83 1.46 0 2.75-.83 4.22-.83 1.73 0 3.34.83 5.06.83 1.22 0 2.22-.83 3.38-.83 1.16 0 2.16 1 3.38 1-1.22 0-2.23-.67-3.38-.67s-2.16.83-3.38.83c-1.73 0-3.33-.83-5.06-.83-1.47 0-2.75.83-4.22.83-1.23 0-2.16-.83-3.38-.83Zm.84 2.17s.08-.84.85-.84c.9 0 1.53.84 2.53.84 1.22 0 2.15-.84 3.38-.84 1.21 0 2.23.84 3.38.84.93 0 1.6-.84 2.53-.84 1.4 0 1.86.3 2.18.61-.25-.25-.87-.27-2.18-.27-.9 0-1.59.83-2.53.83-1.17 0-2.17-.83-3.38-.83-1.22 0-2.15.83-3.38.83-1 0-1.67-.83-2.53-.83-.6 0-.58.24-.85.5Z" fill="#757678"/><defs><linearGradient id="a" x1="25.89" y1="19.67" x2="32.49" y2="36.39" gradientUnits="userSpaceOnUse"><stop stop-color="#F3F5F7"/><stop offset=".32" stop-color="#fff"/><stop offset=".75" stop-color="#fff"/><stop offset="1" stop-color="#D9DADC"/></linearGradient><linearGradient id="b" x1="20.82" y1="23" x2="41.77" y2="36.59" gradientUnits="userSpaceOnUse"><stop stop-color="#6F6F72"/><stop offset=".34" stop-color="#3E3F41"/><stop offset=".61" stop-color="#494A4C"/><stop offset="1" stop-color="#7F8183"/></linearGradient><linearGradient id="c" x1="19.98" y1="23" x2="40.93" y2="36.59" gradientUnits="userSpaceOnUse"><stop stop-color="#F2F2F2"/><stop offset=".34" stop-color="#B2B3B5"/><stop offset=".61" stop-color="#EFEFEF"/><stop offset="1" stop-color="#B4B5B7"/></linearGradient></defs></svg>