<!-- by TradingView --><svg width="56" height="56" viewBox="0 0 56 56" xmlns="http://www.w3.org/2000/svg"><path fill="#F0F3FA" d="M0 0h56v56H0z"/><path d="M25.83 12C24.9 12 22 13.53 22 14.22v18.9c0 1.66-.25 2.21-1.42 2.21-1.16 0-2.58-1.1-2.58-4.44 0-2.67 1.17-5.19 1.75-6.11L16.5 22c-1.17.93-3.5 4-3.5 8.89C13 37 20 42 23.5 42c2.8 0 3.5-2.08 3.5-3.13V13.11c0-.55 0-1.11-1.17-1.11Zm4.9 6c-.92 0-1.73.27-1.73 1.1v20.72c0 1.09.58 2.18 1.73 2.18s5.18-1.64 5.18-3.27c0-1.31-1.14-2-1.91-2.18V26h1.34c1.15 0 .57-3 0-3.84-.62-.9-3.46-4.16-4.61-4.16ZM37 25.24v14.52c0 .18.19.3.35.21l5.52-2.17a.24.24 0 0 0 .13-.22v-3.16c0-.14-.1-.24-.23-.24-.05 0-.08.02-.11.06l-.28.35c-.03.03-.06.06-.1.05a.24.24 0 0 1-.24-.24v-6.26c0-.03 0-.06-.02-.1a.14.14 0 0 0-.06-.06l-4.48-2.85a.33.33 0 0 1-.07-.06.24.24 0 0 0-.41.17Z" fill="url(#a)"/><defs><linearGradient id="a" x1="28" y1="12" x2="28" y2="42" gradientUnits="userSpaceOnUse"><stop stop-color="#DB8688"/><stop offset="1" stop-color="#BA2223"/></linearGradient></defs></svg>