<!-- by TradingView --><svg width="56" height="56" viewBox="0 0 56 56" xmlns="http://www.w3.org/2000/svg"><path fill="#F0F3FA" d="M0 0h56v56H0z"/><path d="M28 44a16 16 0 0 0 7-30.4V29c0 1.33-.39 3.3-1.59 4.96C32.18 35.68 30.13 37 27 37a8.03 8.03 0 0 1-6.46-2.86 9.31 9.31 0 0 1-2.04-5.07l-.03-.5 5.81-5.08.21 1.9c.07.61.35 1.56.92 2.32.39.51.9.94 1.59 1.15v-8.27l7.3-7.3A16 16 0 1 0 28 44Zm-4.19-15.09a5.14 5.14 0 0 0 2.26 1.74c-.35.32-.74.63-1.17.91-.94.61-2 1.01-3.07.98a7.45 7.45 0 0 1-1.28-3.13l2.39-2.09c.2.53.49 1.08.87 1.6ZM27 35a6.7 6.7 0 0 1-3.2-.73c.8-.24 1.54-.61 2.19-1.03 1.07-.7 1.95-1.56 2.52-2.26A6.74 6.74 0 0 0 33 28.46V29c0 1-.31 2.54-1.21 3.8C30.92 34 29.47 35 27 35Zm4.23-7.57A9.24 9.24 0 0 0 33 24.8v-7.39l-4 4v7.45a5.2 5.2 0 0 0 2.23-1.43Z" fill="url(#a)"/><defs><linearGradient id="a" x1="39" y1="19" x2="20" y2="42" gradientUnits="userSpaceOnUse"><stop stop-color="#B21C9F"/><stop offset="1" stop-color="#452B9C"/></linearGradient></defs></svg>