<!-- by TradingView --><svg width="56" height="56" viewBox="0 0 56 56" xmlns="http://www.w3.org/2000/svg"><path fill="#F0F3FA" d="M0 0h56v56H0z"/><path d="M29.97 27.8c.9-.08 1.03-.5 1.03-1.36v-4.3c0-.72-.27-.91-.97-.94V21h2.08l2.45 5.34L36.9 21H39v.2c-.67.04-1 .26-1 .95v4.7c0 .7.32.9 1 .96V28h-2.96v-.2c.77-.05.96-.3.96-1.07v-4.75L34.3 28h-.15l-2.69-5.78v4.23c0 .81.15 1.27 1 1.36V28h-2.49v-.2ZM26.96 23.03c0-1-.36-1.64-1.53-1.64-.2 0-.32.02-.37.07-.04.04-.06.14-.06.28v2.83c.16.02.32.02.49.02 1.02 0 1.47-.48 1.47-1.56ZM23.2 27.8c.71-.08.81-.4.81-1.08v-4.58c0-.37-.05-.61-.15-.73-.1-.12-.32-.2-.66-.22V21h2.56c1.18 0 2.25.63 2.25 2 0 1.43-.95 2-2.25 2H25v1.85c0 .7.22.9.9.96V28H23.2v-.2ZM16 29.97c0-.39.23-.74.65-.74.75 0 .58 1.24 1.17 1.24.41 0 .68-.8.68-1.14v-6.72c0-.96-.05-1.28-1-1.33V21H21v.28c-.93.05-1 .39-1 1.33v5.45c0 1.45-.98 2.94-2.62 2.94-.6 0-1.38-.32-1.38-1.03Z" fill="#3A3386"/><path fill-rule="evenodd" d="M28 44a16 16 0 1 0 0-32 16 16 0 0 0 0 32Zm0-2a14 14 0 1 0 0-28 14 14 0 0 0 0 28Z" fill="url(#akk0reb22)"/><path d="M38.82 39.78A16 16 0 0 1 12.2 25.46a1 1 0 0 1 .35-.11l1.64.35a14 14 0 0 0 26.29 8.66c-.2 1.69-.68 3.67-1.66 5.42Z" fill="url(#bkk0reb22)"/><path d="M39.23 16.6A16 16 0 0 0 12 28.39a15.95 15.95 0 0 0 2.53 3.46 14 14 0 0 1 20.4-16c1.38.04 2.93.25 4.3.77Z" fill="url(#ckk0reb22)"/><path fill="#6077AF" d="M20 35h16v2H20zM21 29h18v2H21z"/><defs><linearGradient id="akk0reb22" x1="27.51" y1="18.63" x2="27.51" y2="41.9" gradientUnits="userSpaceOnUse"><stop offset=".1" stop-color="#2E4C99"/><stop offset=".73" stop-color="#DAE0E3"/></linearGradient><linearGradient id="bkk0reb22" x1="12" y1="38.25" x2="39.71" y2="38.25" gradientUnits="userSpaceOnUse"><stop offset=".19" stop-color="#DAE0E3"/><stop offset=".93" stop-color="#2E4C99"/></linearGradient><linearGradient id="ckk0reb22" x1="39.23" y1="22.26" x2="12" y2="22.26" gradientUnits="userSpaceOnUse"><stop offset=".19" stop-color="#DAE0E3"/><stop offset=".93" stop-color="#2E4C99"/></linearGradient></defs></svg>