<!-- by TradingView --><svg width="56" height="56" viewBox="0 0 56 56" xmlns="http://www.w3.org/2000/svg"><path fill="#F0F3FA" d="M0 0h56v56H0z"/><path fill-rule="evenodd" d="M28.81 11.97c-.25-.28-.5-.57-.73-.88-.12-.1-.27-.12-.46-.03a.16.16 0 0 0-.08.08c-.11.27-.27.5-.5.67a3.19 3.19 0 0 0-1.22 2.29c0 .04-.05.07-.1.05l-.4-.2-1.14-.06c-.62.23-.57.6-.51 1.08.03.23.06.3-.17.33-.33.05-.7.1-.98.25-.62.32-.95.82-1 1.51-.06.75.27 1.25 1 1.5.32.1.74-.01 1.06-.14.07-.03.15.03.14.1-.11.69-.97 1-1.55 1A7.75 7.75 0 0 1 20 19.1a1.58 1.58 0 0 1-.61-.24c-.13-.08-.2-.4-.08-.51.2-.17.43-.38.4-.65-.11-.46-.44-.55-.82-.64-.1-.03-.24-.03-.29-.13a2 2 0 0 0-.61-.7c-.61-.44-1.55-.31-1.97.36-.36.58-.02 1.23.62 1.35.05.01.07.04.05.08-.4 1-.9 1.96-1.3 2.97a7.54 7.54 0 0 0-.47 2.81c0 .4.02.77.03 1.15 0 .07-.02.08-.07.03-.52-.5-1.2-.78-2.05-.83-1.06-.07-1.8.58-1.83 1.65 0 .12.03.22.09.3.05.08.17.07.22-.02.05-.1.12-.2.22-.29.3-.17.63-.26.98-.27.21-.01.4.03.58.1l.28.13c.38.15.76.31.9.74.06.17.01.2-.14.1-.75-.5-1.66-.76-2.42-.1-.28.32-.4.69-.36 1.09 0 .06.08.09.12.05a1.54 1.54 0 0 1 1.62-.26l.05.03c.38.17.8.37.95.8.04.11 0 .13-.1.06-.56-.38-1.26-.61-1.94-.4-.38.12-.62.37-.73.76-.1.41.02.78.38 1.1.13-.04.22-.1.25-.2.07-.21.22-.38.45-.38.64.02 1.05.78 1.28 1.3.06.15-.16.16-.24.11l-.68-.45a.92.92 0 0 0-.78-.14c-.2.07-.38.25-.5.54-.31.73.22 1.58.77 2.05.06.03.31.08.23-.08-.12-.24-.09-.46.08-.66a.12.12 0 0 1 .17-.02c.38.32.57.74.77 1.17l.14.3c.17.26.33.55.48.85.2.43.44.66.77.96a5.66 5.66 0 0 1 1.46 2.3c.03.06.02.13-.03.19-.12.15-.35.33-.35.54-.01.25.2.49.22.77a1.16 1.16 0 0 0 .72 1.13l.78.1a.1.1 0 0 0 .11-.1l-.02-.34c0-.13.1-.25.25-.25.26 0 .44.04.54.13.13.1.12.2-.02.28-.4.24-.59.58-.58 1.01.06.52.3.9.74 1.17.54.25 1.17.36 1.76.27.27-.04.6-.17.96-.4l.45-.31c.1-.1.17-.2.21-.33-.03-.07-.08-.08-.14-.03a1.5 1.5 0 0 1-1.7.22.7.7 0 0 1-.29-.25.28.28 0 0 1 .1-.4c.2-.1.4-.16.62-.16a11.3 11.3 0 0 0 3.27-.46c.04-.01.63-.29.52-.12-.26.38-.55.71-.87.98l-.51.57a.12.12 0 0 0 .1.2l1.51-.1c.04-.01.06 0 .06.05l.01.78c0 .12.14.2.24.14l.93-.5c.06-.04.08-.02.07.04-.03.16-.04.32-.04.49 0 .17.14.32.32.26.34-.1.64-.24.9-.4.04-.03.1 0 .1.05.13.81.38 1.6.75 2.33.03 0 .05.03.07.07.06 0 .1-.02.13-.1.33-.74.55-1.53.68-2.36 0-.04.06-.06.09-.03.24.2.57.34 1 .41.08.02.17-.05.18-.13.02-.2.02-.4 0-.59-.03-.16.03-.2.16-.1.3.22.62.4.97.5.08.04.13 0 .13-.08 0-.3-.02-.58-.08-.85a.08.08 0 0 1 .1-.1l1.03.18c.13.02.35.02.68 0 0-.12-.01-.2-.05-.23-.24-.24-.5-.52-.75-.82l-.58-.5c-.1-.1-.08-.13.05-.1 1.16.17 2.27.53 3.49.54.2 0 .42.05.62.15a.17.17 0 0 1 .09.1c.04.15.01.27-.1.37-.55.55-1.34.37-1.92-.06a.07.07 0 0 0-.06-.01c-.02 0-.04.03-.05.07.09.24.27.44.56.6l.93.4c.56.05 1.02.03 1.4-.06.84-.2 1.25-.75 1.22-1.64-.09-.3-.28-.55-.56-.72-.16-.1-.16-.2 0-.31.1-.08.3-.1.57-.07.04 0 .08.02.11.05.03.03.05.07.05.11v.36c0 .1.07.15.22.11l.28-.04c.16-.02.31-.04.44-.1.51-.24.73-.67.66-1.3a.26.26 0 0 1 .07-.21c.3-.33-.01-.64-.24-.86a.12.12 0 0 1-.04-.13c.31-.86.7-1.54 1.15-2.04.12-.15.26-.28.4-.4.3-.3.6-.57.77-.97.3-.67.63-1.28.99-1.82.09-.14.2-.28.3-.4a.1.1 0 0 1 .1-.03c.4.07.31.42.25.69l-.02.07c.06.11.16.08.32-.1.36-.35.6-.76.72-1.23.11-.8-.43-1.66-1.34-1.1l-.73.48c-.09.06-.2-.02-.19-.12.02-.17.08-.33.18-.47a4 4 0 0 1 .41-.5c.27-.29.77-.57 1.03-.19.06.09.11.18.16.3.06.13.26.12.31-.02.03-.08.07-.15.12-.22.05-.09.11-.18.13-.3.07-.5-.1-.88-.52-1.11-.56-.32-1.63-.13-2.1.29-.12.12-.16.1-.11-.07.13-.45.67-.73 1.09-.86.51-.16 1-.07 1.45.28a.14.14 0 0 0 .23-.13c-.12-.9-.73-1.5-1.64-1.38-.47.06-.84.22-1.12.47-.03.03-.29.11-.24-.01v-.01c.22-.35.52-.63.92-.77l.24-.09c.21-.08.43-.17.67-.17.49 0 .87.18 1.16.56.03.04.06.06.1.05.13 0 .2-.07.21-.18.06-.73-.24-1.28-.91-1.65a2.76 2.76 0 0 0-2.04.1l-.34.16-.6.44c-.02.02-.06 0-.06-.03.05-.74.03-1.52-.06-2.32-.06-.6-.19-1.15-.38-1.69-.27-.74-.58-1.47-.92-2.19l-.42-.73c-.02-.03-.01-.06.03-.07.49-.2.92-.4.86-1a.12.12 0 0 1-.03-.1l-.2-.35c-.42-.49-1.14-.7-1.73-.4-.38.2-.6.5-.82.86a.15.15 0 0 1-.1.07c-.53.08-1.23.29-.9.98a.8.8 0 0 0 .34.34c.04.03.05.06.04.11l-.06.3a.1.1 0 0 1-.06.08c-.64.29-1.39.5-2.23.63-.76.11-1.97-.07-2.12-1-.01-.07.07-.13.13-.1.27.13.55.19.83.18.25 0 .47-.07.67-.2.8-.54.7-1.67.17-2.35-.22-.29-.5-.48-.86-.57l-.73-.12a.16.16 0 0 1-.14-.18l.08-.66c-.23-.75-1.24-.73-1.84-.49l-.57.26c-.07.03-.1 0-.09-.06.05-.44-.2-1.1-.38-1.4-.08-.11-.32-.4-.74-.83ZM28.58 20c-.26-.49-.43-1-.51-1.55-.02-.16-.16.07-.16.1a2.97 2.97 0 0 1-.99 2c-.46.37-1.02.83-1.6.95-.7.15-1.43.23-2.2.24-.06 0-.1.03-.1.09-.05.6-1 .59-.92 1.31.01.12.2.09.28.1.05 0 .07.02.07.06 0 .27-.03.46-.1.57-.25.44-.51.88-.78 1.31-.29.47-.6.76-1 1.1a.6.6 0 0 0-.19.25c-.02.06.01.12.07.15.34.15.64.36.9.62.24.38.36.8.34 1.25 0 .33.18.57.2.89 0 .24-.19.84.02 1.04.18.18.3.4.37.67-.04.43-.26.83-.67 1.2-.1.09-.1.19 0 .28.3.3.4.54.1.92-.05.07-.34.13-.22.24.46.4.63.93.52 1.58a.8.8 0 0 1-.57.65c-.48.17-.86-.2-.79-.67.05-.34.36-.4.64-.43.1-.02.14-.17.05-.23-.32-.24-.72-.14-.92.18-.24.37-.23.76.03 1.18.18.28.36.51.53.69.11.11.27.2.48.27 1 .32 2.02.47 3.07.46.42 0 .76-.05 1.03-.14l1.15-.36a.7.7 0 0 1 .46-.01l1.5-.1c.04 0 .06.02.07.06v.13c.1-.1.23-.17.38-.13l1.25.39c.29.09.7.14 1.22.14a7.24 7.24 0 0 0 3.5-.74c.26-.3.46-.59.57-.86.14-.32.14-.6 0-.85-.18-.34-.5-.46-.94-.37-.16.03-.18.31 0 .29.32-.05.52.06.6.32.16.45 0 .74-.5.87-.43-.06-.7-.28-.8-.66-.2-.64-.04-1.19.47-1.63.04-.03.04-.06 0-.09a.86.86 0 0 1-.39-.64c-.02-.2.15-.34.29-.46.15-.13-.05-.3-.13-.4-.2-.21-.41-.44-.49-.72-.1-.4.01-.75.34-1.05a.13.13 0 0 0 .05-.12c-.05-.36-.06-.7-.04-1 .01-.12.05-.23.09-.34.04-.13.09-.25.08-.4 0-.3.04-.6.15-.9.18-.5.57-.77 1.03-1 .37-.18-.93-1.29-1.06-1.5l-.64-1.12a2.39 2.39 0 0 1-.27-.72c0-.05.01-.07.06-.07.27 0 .37-.13.32-.36-.12-.48-.99-1.12-1.37-1.16-.7-.08-1.55-.07-2.2-.38-.7-.33-1.28-.8-1.73-1.39Z" fill="#25190E"/><path fill="#25190E" d="M23 23h10v13H23z"/><path d="M27.83 12.64c-.24.43-.5.79-.66 1.26-.1.34-.22.67-.34.98a.1.1 0 0 1-.14.04.98.98 0 0 1-.43-1c.1-.69.36-1.27.9-1.74.26-.23.48-.47.67-.74.02-.03.06-.03.09 0 .38.4.73.8 1.05 1.17.5.61.9 1.75.16 2.32-.06.05-.1.04-.13-.03l-.37-.95c-.17-.47-.46-.87-.72-1.3-.01-.04-.07-.04-.08 0Z" fill="#E8B84A"/><path d="M28.03 16.8c-.03.06-.06.06-.1 0a5.43 5.43 0 0 1-.64-1.5c-.13-.58.27-1.58.53-2.07a.05.05 0 0 1 .1 0c.26.48.45 1.02.58 1.53.19.73-.15 1.37-.47 2.03ZM27.42 19.06c-.3.9-.8 1.51-1.52 1.87-.55.27-1.35.41-1.97.46l-1.7.12c-.69.05-.85.5-1.12 1.01-.2.4-.82.76-1.2 1-.04.04-.06.02-.06-.04l.25-1.92a.32.32 0 0 1 .27-.28c.26-.04.51-.07.76-.07l2.57-.07c.36-.01.74-.05 1.15-.11 1.3-.21 1.84-1.09 2.02-2.29.1-.67-.06-1.3-.5-1.87a5.24 5.24 0 0 0-1.26-1.2 7.48 7.48 0 0 1-.9-.72c-.28-.25-.07-.65.3-.65.47 0 .84.07 1.1.21.58.31 1.07.8 1.47 1.45.6.96.71 2 .34 3.1ZM28.86 19.74a3.68 3.68 0 0 1-.05-3.61 4.1 4.1 0 0 1 1.45-1.55c.38-.24.79-.28 1.21-.29.36 0 .59.4.29.67-.25.22-.56.46-.92.73a5.32 5.32 0 0 0-1.52 1.67c-.46.79-.19 1.99.26 2.7.26.42.62.7 1.07.84.57.18 1.26.24 1.9.25l2.47.06c.25 0 .48.04.69.08a.17.17 0 0 1 .12.11c.05.17.1.35.12.54l.19 1.55c0 .08-.02.09-.07.05-.26-.2-.52-.4-.8-.58-.6-.4-.52-1.31-1.37-1.42-.93-.1-1.87-.13-2.84-.3a3.01 3.01 0 0 1-2.2-1.5Z" fill="#E8B84A"/><path d="M22.26 20.62a3.63 3.63 0 0 0 3.07-.88c.1-.09.21-.28.36-.57a2 2 0 0 0-.03-1.97c-.38-.7-1.4-1.14-2.17-1.35-.15-.04-.15-.09 0-.14.54-.2 1.14.23 1.63.48.49.24.85.66 1.14 1.1.44.68.42 1.48.11 2.21-.43 1.05-1.4 1.3-2.45 1.31-.73 0-1.45 0-2.16-.02a3.94 3.94 0 0 0-2.6.8c-.24.18-.46.44-.65.76-.04.07-.08.07-.1 0l-.3-.82a.27.27 0 0 1 .03-.23c.28-.44.67-.71 1.15-.83.42-.1.85-.12 1.29-.07l1.68.22ZM36.84 21.58a4.3 4.3 0 0 0-2.78-.78c-1.04.02-2.38.13-3.34-.2-.77-.28-1.17-1.04-1.3-1.82-.2-1.09.7-2.3 1.68-2.72.41-.18.87-.5 1.34-.37.06.02.1.05.12.11.01.05 0 .07-.05.08-.57.07-.93.3-1.4.57-.84.48-1.33 1.59-.9 2.5l.33.62c.1.18.24.32.43.44.41.28.78.45 1.1.53.68.15 1.45.15 2.3 0 .93-.18 1.7-.2 2.32-.07.42.08.8.34 1.13.77.07.1.09.2.05.31l-.27.76c-.04.12-.1.13-.16.01-.2-.34-.4-.59-.6-.74Z" fill="#E8B84A"/><path d="M17.83 19.53a3.37 3.37 0 0 1 2.46.08c.6.23 1.25.3 1.9.28.38-.01.67-.07.87-.2.76-.44 1.2-.88 1.19-1.82a1.25 1.25 0 0 0-.83-1.2c-1.01-.44-1.48.96-.64 1.09.31.04.6-.03.86-.22.03-.02.07-.02.1.01.06.06.07.13.03.2-.24.46-.6.64-1.12.54-.58-.11-.84-.62-.7-1.17.17-.6.58-.92 1.22-.97.9-.07 1.36.44 1.94 1 .19.2.31.4.37.59.16.5.09 1.15-.3 1.54-.12.13-.23.25-.32.38-.82 1.1-2.96.62-4.07.37a5.7 5.7 0 0 0-.84-.12 5.14 5.14 0 0 0-2.13.15c-.28.09-.47.3-.71.45-.07.05-.08.03-.06-.04.18-.48.44-.8.78-.94ZM33.58 16.96c-.25-.5-.92-.42-1.3-.13-.88.67-.63 1.92.19 2.57.33.26.62.43 1.04.47.8.07 1.58-.03 2.33-.31.57-.21 1.1-.27 1.69-.2.74.08 1.2.44 1.46 1.11.02.06 0 .07-.05.04-.26-.13-.44-.32-.73-.43a4.78 4.78 0 0 0-2.2-.15c-.8.08-1.62.28-2.44.4-.18.03-.48.03-.91 0a2.21 2.21 0 0 1-1.31-.44c-.3-.26-.62-.6-.76-.95-.3-.68-.13-1.5.47-1.97.22-.18.41-.4.66-.55.49-.3 1-.36 1.52-.2.66.2 1.04 1.06.7 1.68-.2.39-.83.49-1.17.37a.77.77 0 0 1-.54-.63c-.02-.13.02-.15.12-.08.26.18.54.25.84.21.43-.05.57-.45.4-.8Z" fill="#E8B84A"/><path d="M40.63 24.99a.06.06 0 0 1-.06.05h-.04l-.04-.98c-.03-1-.29-1.96-.77-2.87-.22-.43-.45-.87-.66-1.33-.41-.87-1.16-1.66-1.33-2.62-.1-.56.6-.96 1.06-.97.33 0 .36.1.1.3-.46.35-.43.78-.17 1.24.36.63.82 1.28 1.08 1.95.18.45.42.89.55 1.37.34 1.22.43 2.5.28 3.86ZM15.38 25.04a9.39 9.39 0 0 1 .78-5.25c.34-.79.86-1.44 1.23-2.2.2-.41.04-.77-.3-1.05-.21-.17-.18-.25.1-.26.61 0 1.15.44 1.04 1.09a2.3 2.3 0 0 1-.32.82 32.47 32.47 0 0 0-1.9 3.56c-.11.26-.2.52-.26.8a13.91 13.91 0 0 0-.3 2.49l-.04.02c-.02 0-.02 0-.03-.02Z" fill="#E8B84A"/><path d="M38.85 17.04c-.1.25.04.53.29.61.24.09.52-.05.6-.3a.48.48 0 0 0-.28-.62.49.49 0 0 0-.61.3ZM16.7 17.67c.27 0 .48-.21.48-.48a.49.49 0 0 0-.48-.48.49.49 0 0 0-.5.48c0 .27.23.48.5.48ZM22.7 17.26c.05.2.2.32.35.29.15-.04.23-.22.19-.4-.05-.2-.2-.32-.35-.3-.15.04-.23.22-.18.41ZM32.74 17.14c-.04.18.04.36.19.4.15.03.3-.09.35-.27.05-.19-.04-.36-.18-.4-.15-.04-.31.08-.36.27ZM19.06 17.43l.22.25a.2.2 0 0 1-.07.31l-.42.22a.2.2 0 0 1-.3-.12.2.2 0 0 1 0-.12l.14-.44c.05-.16.32-.24.43-.1ZM37.5 18.1a.04.04 0 0 1 0 .04.04.04 0 0 1-.03.02l-.06.01a.8.8 0 0 1-.23.02.65.65 0 0 1-.21-.05.46.46 0 0 1-.16-.1.33.33 0 0 1-.08-.16.38.38 0 0 1 .1-.34c.1-.1.23-.18.38-.21l.06-.02a.04.04 0 0 1 .03.01.04.04 0 0 1 .02.03l.18.76ZM17.92 19.12c-.05 0-.05-.05-.05-.08a.51.51 0 0 1 .42-.58l.03-.01c.28-.05.55.14.6.41 0 .03.02.09-.02.1l-.98.16ZM37.16 18.97a.08.08 0 0 1-.07-.1v-.02a.5.5 0 0 1 .22-.33c.11-.07.25-.1.38-.08h.04a.52.52 0 0 1 .34.21.5.5 0 0 1 .09.38v.03l-.04.05a.08.08 0 0 1-.06.01l-.9-.15ZM17.18 21.57c-.04-.16-.13-.18-.25-.07-.28.28-.52.62-.72 1.01-.02.05-.12.05-.1-.01a9 9 0 0 1 .43-1.24c.2-.44 1.99-1.02 2.44-1.16.25-.06-.05.24-.16.28-.7.24-.99.8-1.33 1.4a.12.12 0 0 1-.2.01.58.58 0 0 1-.11-.22ZM38.9 21.46l-.15.3a.14.14 0 0 1-.12.08.14.14 0 0 1-.13-.07c-.2-.39-.4-.7-.62-.93a2.48 2.48 0 0 0-.8-.52.24.24 0 0 1-.13-.13l-.01-.03a.06.06 0 0 1 0-.06.06.06 0 0 1 .07-.02c.76.24 1.48.53 2.15.9.17.08.29.22.36.41a11.02 11.02 0 0 1 .33 1.14h-.03a.07.07 0 0 1-.08-.03 3.48 3.48 0 0 0-.75-1.08.08.08 0 0 0-.07.02.08.08 0 0 0-.03.02ZM19.28 23.7c-.1.34-.18.6-.45.84-.52.46-.71.96-1.05 1.49-.18.28-.3.59-.43.9-.04.12-.1-.2-.1-.25.14-.71.22-1.49.5-2.15.45-1.08 1-1.95 1.64-2.61.05-.06.12-.1.2-.1.04-.02.06 0 .06.05-.05.55-.18 1.16-.37 1.84ZM38.65 26.92c-.24-.55-.53-1.08-.86-1.64-.16-.26-.36-.5-.6-.73a1.48 1.48 0 0 1-.44-.77c-.15-.63-.36-1.24-.4-1.91 0-.05.02-.06.06-.05.54.13 1.4 1.75 1.72 2.4.38.79.46 1.68.63 2.52 0 .06 0 .13-.03.19-.03.04-.05.04-.08 0ZM21.55 23.06c-.05.07-.08-.22-.08-.24.02-.13.08-.28.17-.42v-.02l.15-.2c.05-.06.46-.3.4-.19l-.64 1.07ZM33.81 21.98c.14-.08.33.12.4.2.17.2.38.53.3.78a.14.14 0 0 1-.05.1l-.03-.01c-.06-.1-.63-1.06-.62-1.07ZM17.66 22.2c.09-.2.16-.2.23 0l.12.4c.07.2.05.4-.04.59-.5 1-.86 2.08-1.07 3.26-.03.22-.08.43-.14.64-.1.36-.15.35-.15-.02 0-.98.12-1.93.33-2.86.14-.56.37-1.24.72-2.02ZM39.27 27.33c-.2-1.45-.6-2.85-1.24-4.15a.82.82 0 0 1-.04-.6l.11-.38c.07-.21.14-.22.23-.02l.48 1.21c.4 1.08.5 2.31.6 3.49.01.15 0 .3-.07.46-.03.09-.05.09-.07 0ZM16.15 26.87a10 10 0 0 1-.07-1.5 6 6 0 0 1 .64-2.98c.06-.11.1-.1.12.03.05.38-.01.81-.12 1.18-.3 1.04-.45 2.14-.44 3.31 0 .03-.04.02-.05.02-.05 0-.08-.02-.08-.06ZM39.24 22.34c.18.24.3.55.38.84a9.9 9.9 0 0 1 .25 3.6c-.03.25-.08.25-.14.02a.8.8 0 0 1-.04-.23c0-.87-.1-1.69-.28-2.44-.14-.57-.35-1.2-.23-1.77.01-.06.03-.06.06-.02ZM35.97 25.36c-.36-.65-.75-1.3-.84-1.97-.01-.08.02-.1.09-.04.48.37.97.74 1.47 1.1.54.4.7.95 1.04 1.46.31.48.56.96.73 1.44.02.06 0 .2-.1.14-.69-.38-1.15-.96-1.77-1.42a2.23 2.23 0 0 1-.62-.7ZM17.71 26.9c.32-.6.67-1.19 1.02-1.78.14-.23.33-.44.54-.6.5-.41 1.01-.8 1.51-1.15.1-.08-.69 1.85-.81 2.06a2 2 0 0 1-.43.53l-1.13.98c-.22.2-.46.37-.73.53-.12.07-.17.03-.14-.1.03-.17.1-.32.17-.47ZM20.45 25.44c.21-.46.42-.9.64-1.32.08-.17.21-.3.39-.38.1-.04.19-.06.28-.05.15 0 .19.08.12.2-.27.53-.64 1.02-.93 1.54-.21.38-.54.68-.98.9-.16.08-.19.04-.1-.1.17-.27.45-.5.58-.8ZM35.03 25.4c-.29-.5-.61-.98-.92-1.5-.09-.15-.05-.21.12-.2l.19.02c.2.02.34.12.43.29l.67 1.33c.17.34.4.63.6.95.09.13.06.15-.07.08-.46-.27-.8-.6-1.02-.98ZM15.97 28.81c0 .04-.09.23-.12.12-.22-.69-.54-1.38-.96-2.08-.3-.5-.64-.99-1.18-1.26-.3-.14-.51-.37-.83-.46-.5-.14-.93-.06-1.26.25-.09.08-.12.06-.1-.06.27-1.19 2.48-.91 3.06-.13a5.82 5.82 0 0 1 1.4 3.62ZM40.36 28.4c-.06.17-.12.35-.2.53-.03.08-.06.08-.1 0a.59.59 0 0 1-.04-.26 5.82 5.82 0 0 1 1.12-3.12c.26-.36.5-.6.7-.72.5-.28 1.36-.4 1.9-.23a1.18 1.18 0 0 1 .78.8.05.05 0 0 1-.02.04h-.02c-.03 0-.05 0-.07-.02-.16-.14-.3-.3-.54-.34-.42-.06-.86 0-1.2.27-.25.18-.54.27-.76.48-.72.7-1.2 1.64-1.55 2.57Z" fill="#E8B84A"/><path d="M15.63 29.74c.01.04.07.04.1 0 .52-.72 1.39-1.97 2.29-2.22.48-.13.95-.15 1.42-.06.7.14.93.55 1.06 1.18.06.3-.04.36-.3.2a2.68 2.68 0 0 0-2.54-.23c-.97.46-1.5 1.1-2 2a.08.08 0 0 1-.15.01c-.05-.08-.1-.16-.13-.25-.3-.77-.58-1.41-.84-1.94-.18-.37-.39-.81-.76-1.04-.63-.4-1.1-.42-1.82-.3-.18.04-.23-.03-.14-.18.22-.41.55-.58.98-.51.56.1.98.26 1.25.5.23.2.46.53.7.99.33.63.63 1.25.88 1.85ZM40.42 29.72c.23-.7.58-1.37.94-2.03.4-.73.84-1.13 1.76-1.29.54-.09.9.13 1.09.64.01.05-.03.09-.08.08a2.46 2.46 0 0 0-1.64.08c-.3.12-.55.37-.76.75-.44.76-.83 1.62-1.16 2.58-.07.18-.15.2-.26.02a9.95 9.95 0 0 0-.7-1 3.11 3.11 0 0 0-2.32-1.16c-.66.01-1.2.2-1.63.54-.05.04-.13 0-.14-.06a1.6 1.6 0 0 1 .16-.78c.13-.32.38-.51.76-.6 1.38-.3 2.2.18 3.02 1.2l.83 1.05c.04.04.11.03.13-.02Z" fill="#E8B84A"/><path d="M20.4 29.65c.07.12.15.12.24 0 .21-.29.32-.63.3-1.01-.02-1-.67-1.28-1.48-1.58-.04-.01-.05-.06-.02-.1a.28.28 0 0 1 .16-.06c.46 0 .86.17 1.2.5.84.77.35 2.08-.26 2.87a.12.12 0 0 1-.2 0c-.27-.4-.6-.87-1.05-1.06-.25-.1-.49-.23-.71-.38-.04-.02 0-.09.04-.08.34.06.71.08 1.02.22.32.15.57.38.75.68ZM35.58 29.7c.35-.66 1-.83 1.7-.94.21-.03.23 0 .05.12-.23.15-.48.28-.74.39a.8.8 0 0 0-.31.22l-.66.8c-.03.04-.06.05-.1.01-.59-.62-1-1.65-.65-2.49.22-.55 1.02-.97 1.58-.9.23.04.24.1.03.2l-.3.1c-.23.07-.46.2-.7.4-.6.53-.5 1.52-.08 2.1a.1.1 0 0 0 .18 0ZM15.84 31.99c0-.27.03-.55.1-.86.25-1 .9-1.51 2-1.2.7.2.8.85.8 1.46 0 .1-.03.1-.09.03-.2-.26-.34-.6-.63-.79-.38-.25-.79-.26-1.23-.03a.82.82 0 0 0-.38.4c-.36.79-.13 1.42.23 2.2a9.41 9.41 0 0 0 1.86 2.87c.28.27.57.59.89.81.6.43 1.1.76 1.51.97.25.12.6.22 1.05.29.05 0 .07-.02.06-.07-.02-.1-.1-.18-.22-.21a4.71 4.71 0 0 1-1.74-.93c-.26-.2-.4-.51-.64-.72a1.3 1.3 0 0 1-.35-.44c-.23-.48-.18-1.42.27-1.76.66-.5 1.73-.6 2.15.25.07.14.03.18-.12.13a1.12 1.12 0 0 0-1.45 1.44 3 3 0 0 0 .7 1.01c.25.27.65.47 1 .56.88.22 1.78.33 2.71.34.8.01 1.58-.17 2.34-.53.07-.04.2.09.11.14-.84.6-1.7.84-2.68 1.04a6.52 6.52 0 0 1-3.34-.19 9.72 9.72 0 0 1-1.63-.73c-.36-.2-.6-.39-.73-.58-.48-.72-1.02-1.39-1.47-2.12-.7-1.12-1.33-1.99-2.21-2.9a1.8 1.8 0 0 1-.56-1.08 2.2 2.2 0 0 0-1.2-1.86 1.04 1.04 0 0 0-1 .01c-.05.03-.1.02-.13-.03a.35.35 0 0 1-.02-.4c.13-.22.47-.3.71-.32.68-.04 1.42.38 1.81.99.4.62.68 1.23.85 1.82.11.38.3.72.56 1.03.08.09.11.07.11-.04ZM40.23 32.04c.04.04.08.04.1-.01.18-.3.36-.61.46-.95.2-.65.5-1.28.88-1.9a2.1 2.1 0 0 1 1.7-1c.26-.01.5.07.76.26.1.07.13.16.1.28l-.02.13c-.02.1-.07.12-.16.08-.35-.18-.71-.16-1.1.05-.9.49-.99 1.18-1.16 2.07-.04.2-.15.4-.32.58-.76.83-1.5 1.7-2.1 2.66l-.83 1.31c-.25.38-.55.7-.79 1.08-.23.36-.57.66-1.02.89a7.43 7.43 0 0 1-6.3.44 3.73 3.73 0 0 1-1.2-.67c-.09-.07-.07-.11.05-.11a.5.5 0 0 1 .2.04c.84.37 1.74.52 2.7.46 1.03-.07 2.84-.19 3.44-1.14.09-.13.17-.26.27-.38.48-.62.26-1.6-.51-1.85-.17-.05-.86.15-.9-.02 0-.02 0-.04.02-.05.22-.45.62-.67 1.13-.67.31 0 .65.11 1 .33.63.4.57 1.71.08 2.16-.15.14-.32.22-.42.4-.37.68-1.47 1.19-2.19 1.39-.06.02-.2.18-.1.22h.02c.98-.08 1.57-.58 2.36-1.06.28-.17.52-.37.72-.6.38-.4.8-.76 1.13-1.23.48-.72.92-1.54 1.31-2.47.29-.68.31-1.32-.08-1.95a.75.75 0 0 0-.43-.3c-.84-.27-1.25.3-1.66.9-.05.08-.09.07-.1-.03-.07-1.08.44-1.61 1.55-1.52.48.05.83.3 1.04.77.18.4.3.85.34 1.34 0 .03 0 .05.03.07Z" fill="#E8B84A"/><path d="M19.98 30.66c.12.72.01 1.92-.62 2.41a.14.14 0 0 1-.1.03c-.4-.05-.41-.4-.31-.72.16-.5.24-1.01.22-1.53-.03-.95-.93-1.35-1.76-1.42a.1.1 0 0 1-.08-.09c0-.07.03-.11.1-.12.53-.1 1.11.02 1.76.37.45.24.7.6.79 1.07ZM36.1 30.33a.76.76 0 0 1 .22-.37c.6-.53 1.3-.8 2.1-.78.08 0 .15.03.22.08l.05.07c.04.06.02.1-.05.1-.9.05-1.8.47-1.8 1.49 0 .5.09 1.02.26 1.56.16.5-.38.9-.69.38a3.04 3.04 0 0 1-.32-2.53ZM35 31.43a7.95 7.95 0 0 1-.37-1.43c-.03-.2.01-.22.13-.06.14.18.27.37.39.57.25.4.32.94.43 1.4.07.3.27.74.6 1.3l-.03.07h-.03A6.38 6.38 0 0 1 35 31.43ZM20.55 31.36c.08-.45.27-.87.56-1.26.05-.07.08-.15.16-.2.1-.07.14-.05.11.07l-.2.93a5.36 5.36 0 0 1-1.27 2.34.1.1 0 0 1-.07.03c-.01 0-.02 0-.03-.02v-.03l.45-.84c.16-.32.23-.67.29-1.02ZM38.99 37.88l.3-.06a.22.22 0 0 1 .28.21c0 .16-.1.22-.27.2a2.43 2.43 0 0 0-.7-.02c-.58.08-1.23.47-1.68.56-.48.1-.97.2-1.47.32-1.22.26-2.81.3-3.98-.18-.33-.13-.67-.19-1-.34-.42-.19-.85-.41-1.28-.67-.15-.09-.24-.2-.28-.31-.04-.15 0-.18.12-.08.52.4 1.12.7 1.8.92l.9.25c1.44.34 3.03.14 4.35-.5.41-.2.82-.3 1.2-.58.36-.25.64-.56.86-.91l.36-.54c.58-.8 1.15-1.64 1.73-2.5.56-.84 1.28-1.52 1.96-2.27.14-.14.34-.22.45-.37.19-.24.4-.44.67-.61.35-.23.77-.18.87.28.09.37.04.7-.13 1a.13.13 0 0 1-.2.01c-.4-.44-.8-.22-1.13.15-.27.31-.46.58-.55.8-.35.88-.6 1.52-1.28 2.18-.44.42-.88.93-1.13 1.48-.12.27-.22.54-.4.79-.15.2-.32.4-.5.57-.09.1.01.24.13.22ZM20.41 38.38c1.55.64 3.08.55 4.66.08.7-.21 1.34-.53 1.94-.97.07-.05.13.04.1.1-.18.33-.85.63-1.2.8-.34.18-.68.31-1.03.4-.5.14-.94.34-1.45.41-.88.12-1.75.1-2.63-.09-.53-.1-1.05-.22-1.57-.33-.48-.1-.9-.28-1.35-.45a2.19 2.19 0 0 0-1.16-.1c-.12.02-.21-.03-.29-.14v-.03c-.04-.11 0-.18.12-.21.14-.04.3-.03.45.03.05.02.09.01.13-.02a.13.13 0 0 0 .04-.13.23.23 0 0 0-.07-.13c-.3-.28-.5-.51-.58-.69a6.21 6.21 0 0 0-.97-1.64c-.39-.42-.84-.8-1.13-1.3-.33-.54-.42-1.16-.82-1.67-.34-.42-.77-1.32-1.44-.6a.1.1 0 0 1-.13.02c-.29-.17-.27-.69-.22-.97.17-1.02 1.24-.2 1.53.27.14.23.4.27.58.48a25.24 25.24 0 0 1 1.67 1.86c.55.83 1.05 1.58 1.62 2.36.26.35.52.74.78 1.16.14.22.36.45.67.68.5.36 1.17.57 1.75.82Z" fill="#E8B84A"/><path d="M17.03 30.92c.58-.38 1.1.45 1.23.88.01.05-.04.1-.08.08-2.11-.75-1.25.74-1.39.45-.21-.47-.23-1.1.24-1.4ZM39.07 32.36c-.34-.52-.65-.66-1.28-.5-.05 0-.09-.04-.07-.09.11-.27.3-.54.57-.8a.47.47 0 0 1 .45-.14c.7.13.7 1.03.44 1.53-.02.04-.09.04-.11 0ZM38.5 33.31c-.16-.3-.46-.64-.82-.57a.1.1 0 0 1-.11-.14c.14-.3.57-.52.88-.33.38.24.33.7.26 1.08 0 .04-.05.06-.09.05a.17.17 0 0 1-.12-.09ZM17.32 33.4c-.15-.42-.14-1.18.49-1.18.2 0 .44.1.56.27.11.14.08.22-.1.24-1.07.1-.85.96-.95.67ZM18.4 35.32c-.3-.44-1.02-1.78-.27-2.14.33-.16.69.17.7.48.01.14-.02.29-.07.43-.16.4-.24.8-.25 1.2 0 .13-.04.14-.11.03ZM38.18 33.61c.1.57-.3 1.3-.6 1.76-.05.06-.07.06-.08-.02a5.92 5.92 0 0 0-.28-1.34c-.1-.3-.02-.84.38-.85.34 0 .53.14.58.45ZM28.74 37.06l-.23.22a.22.22 0 0 0-.04.25c.2.43 1.07.9 1.5 1.14.36.2.79.37 1.27.48 1.18.29 2.2.48 3.08.6.49.05 1.03.07 1.62.06.17 0 .35 0 .55.03.22.02.48-.01.65.15.4.36.5.79.32 1.28a.94.94 0 0 1-.46.53c-.46.23-1.1.3-1.62.2a.28.28 0 0 1-.14-.07c-.04-.03-.01-.1.03-.1.32 0 .62-.09.88-.25.38-.23.44-.77.01-.99-.2-.1-.43-.16-.68-.18-.88-.05-1.74-.05-2.6-.3-.79-.23-1.57-.48-2.34-.74a7.37 7.37 0 0 1-2.42-1.78c-.07-.07-.07-.17-.1-.25-.03-.05-.05-.05-.07 0-.06.21-.2.4-.4.59a6.75 6.75 0 0 1-2.54 1.6c-.8.26-1.57.51-2.38.68-.73.16-1.5.14-2.23.2-.32.04-.75.16-.84.51-.16.65.67.9 1.18.9.07.01.07.1.02.13a.33.33 0 0 1-.18.07c-.39.04-.8 0-1.23-.1-.47-.1-.76-.36-.87-.76-.18-.65.22-1.32.95-1.33.73-.02 1.44.01 2.17-.08a22.1 22.1 0 0 0 3.78-.78c.54-.17 1.01-.5 1.46-.8.31-.22.55-.34.73-.69a.1.1 0 0 0-.02-.12l-.38-.4 1.5-.09c.04 0 .06.02.07.06v.13Z" fill="#E8B84A"/><path d="M19.09 39.07c.53.11 1.09.21 1.66.3.04.01.06.07.03.1a.19.19 0 0 1-.13.06c-.34.02-.7.02-1.06 0-.47-.02-.87-.23-1.31-.35-.5-.13-.84.02-1.01.45a.13.13 0 0 1-.16.07c-.46-.17-.82-.76-.3-1.12.24-.17.66-.07.93.03.64.25 1.1.4 1.35.46ZM38.08 39.14c-.58.01-1.02.34-1.59.39-.26.02-1.02.1-1.23-.03-.1-.05-.09-.09.01-.11.73-.17 1.47-.25 2.16-.49l1.18-.39c.24-.08.59-.01.73.2.28.43-.06.78-.4.99a.13.13 0 0 1-.19-.05c-.14-.25-.33-.52-.67-.51ZM26.52 40.56c-.15.33-.23.88-.5 1.13a2.17 2.17 0 0 1-.78.47l-.03-.02a.06.06 0 0 1-.02-.06c.27-.78.6-1.49 1-2.1a4 4 0 0 1 1.33-1.28c.05-.02.07-.01.08.04.01.07 0 .13-.06.2a8.13 8.13 0 0 0-1.02 1.62ZM30.87 41.65c.14.11.21.26.23.44v.03l-.03.02a.06.06 0 0 1-.05 0 2.22 2.22 0 0 1-.75-.38c-.1-.08-.22-.28-.33-.59a8.02 8.02 0 0 0-1.03-1.93c-.1-.14-.19-.27-.26-.41-.07-.14-.04-.17.1-.1 1.05.62 1.62 1.66 2.07 2.86l.05.06ZM27.57 41.56c-.07-.9.11-1.7.45-2.54.02-.06.05-.06.07 0 .42.98.58 1.95.5 2.92-.05.73-.18 1.46-.38 2.19-.04.13-.08.14-.12 0-.28-.88-.45-1.74-.52-2.57ZM23.64 41.42c.37-.46.8-.89 1.32-1.3.14-.1.3-.14.45-.26.23-.19.48-.37.74-.53.04-.03.08-.02.1.02l.03.02v.04c-.3.32-.53.63-.7.91-.24.41-.55.92-1.05 1.03a7.29 7.29 0 0 1-.87.14.05.05 0 0 1-.02-.07ZM30.96 39.92c.16.1.3.2.44.32.38.35.92.75 1.15 1.2.04.06.02.08-.05.07a7.99 7.99 0 0 0-.84-.16c-.24-.03-.4-.2-.51-.39-.08-.14-.21-.18-.29-.3a9.37 9.37 0 0 0-.9-1.28.04.04 0 0 1 .04-.03h.05c.06 0 .13.02.18.06.25.2.49.38.73.51ZM29.3 40.65a12.69 12.69 0 0 1 .52 1.8l-.02.04a.08.08 0 0 1-.1.01l-.63-.4a.26.26 0 0 1-.13-.23c.02-.6-.01-1.22-.1-1.83 0-.07 0-.08.05-.03.18.19.31.4.4.64ZM26.91 40.6c.09-.2.2-.39.34-.54.08-.09.11-.07.1.04-.08.63-.1 1.24-.09 1.82a.21.21 0 0 1-.13.2c-.2.08-.37.2-.52.34-.2.2-.27.15-.22-.12.11-.58.29-1.16.52-1.74ZM26.14 24.63h-.64c-.04-.01-.07-.04-.09-.08-.07-.26.06-.55.34-.55h2.02c.15 0 .22.08.23.23a.4.4 0 0 1-.42.4h-.47c-.04 0-.07.01-.1.03a.17.17 0 0 0-.07.1l-1.14 3.58a7 7 0 0 1-.36.93c-.36.76-1.43.99-2.02.4-.3-.3-.44-.73-.42-1.28 0-.08.04-.12.12-.11h.34c.05 0 .09.03.1.1.03.32.07.53.13.62.43.75 1.17.12 1.35-.43.45-1.32.83-2.59 1.14-3.9 0-.02-.01-.04-.04-.04ZM29.98 27.71c-.3.05-.57.18-.84.4-1.17.93-2.24 1.96-2.38 3.46-.03.39.16.62.57.7.31.05.62.07.94.05.21-.01.3.08.24.27l-.03.14c-.05.19-.18.28-.39.27-.45-.02-.85-.1-1.22-.22-.78-.27-1-1.18-.8-1.85.28-.85.78-1.5 1.37-2.21a5.6 5.6 0 0 1 2.16-1.62c.63-.28 1.56.07 1.38.81-.07.27-.15.55-.25.84a.14.14 0 0 1-.1.1.98.98 0 0 1-.55.01.1.1 0 0 1-.05-.03.09.09 0 0 1-.02-.06c.02-.26.08-.51.17-.77.05-.12-.06-.31-.2-.29Z" fill="#E8B84A"/><path d="M30.38 30.67h-.63c-.18 0-.35-.09-.39-.25-.01-.05 0-.09.01-.13.11-.2.3-.3.59-.29l2.72.01c.24 0 .35.1.31.28v.05c-.05.21-.24.34-.5.33h-.9c-.1 0-.18.05-.2.13-.2.53-.3.86-.49 1.33-.35.88-.72 1.77-1.09 2.64-.08.18-.24.25-.5.22h-.07c-.2-.03-.28-.12-.22-.27l1.28-3.36c.08-.22.14-.4.17-.61 0-.04-.04-.08-.09-.08Z" fill="#E8B84A"/></svg>