<!-- by TradingView --><svg width="56" height="56" viewBox="0 0 56 56" xmlns="http://www.w3.org/2000/svg"><path fill="#E22B2B" d="M0 0h56v56H0z"/><path d="M15 13h26v21.05a11.5 11.5 0 0 1-1.5 4.94C37.73 42.11 34.21 45 28 45c-3.38 0-5.98-.85-7.95-2.17A11.55 11.55 0 0 1 15 34.05V13Zm2 2v16.8l2-1.75V15h-2Zm4 0v15.95l-3.96 3.47c.09.76.3 1.66.71 2.6L23 31.6V15h-2Zm4 0v17.4l-6.23 6.44a9.24 9.24 0 0 0 1.71 1.82L27 33.61V15h-2Zm4 0v4.59L33.59 15H29Zm7.41 0L29 23.41v2.32l10-10.17V15h-2.59ZM39 18.27 29 28.44v3.22l10-9.59v-3.8Zm0 6.57-3.55 3.41 3.55 3.4v-6.8Zm-.04 9.55L34 29.64l-1.56 1.49 5.9 5.7c.35-.89.54-1.73.62-2.44Zm-1.6 4.27L31 32.5l-1.6 1.53 6.18 6.58a9.25 9.25 0 0 0 1.78-1.96Zm-3.48 3.07L28 35.47l-5.82 6.3C23.67 42.5 25.57 43 28 43c2.44 0 4.37-.5 5.88-1.27Z" fill="#FEFEFE"/></svg>