<!-- by TradingView --><svg width="56" height="56" viewBox="0 0 56 56" xmlns="http://www.w3.org/2000/svg"><path fill="#F0F3FA" d="M0 0h56v56H0z"/><path d="M25.82 28.88c-.01-.07-.1-.1-.28-.1-2.28.06-4.35.03-6.22-.1-2.34-.15-3.45-1.39-3.3-3.7.08-1.58.9-2.51 2.42-2.81 1.1-.22 1.8.14 2.44 1.04a24.71 24.71 0 0 0 1.94 2.49c.16.17.13.26-.11.28-1 .06-2.05-.11-3.16-.5-1.06-.38-1.57-1.08-1.51-2.11a.42.42 0 0 0-.48-.44.42.42 0 0 0-.22.1l-.25.23a2.17 2.17 0 0 0-.7 1.55c-.04 1.08.22 1.73.78 1.96.7.28 1.43.42 2.18.41 2.16-.02 4.19-.01 6.08.03.43 0 .5-.14.18-.43a57.67 57.67 0 0 1-4.4-4.58c-1.09-1.28-1.2-2.61-.33-3.99.51-.8 1.23-1.32 2.17-1.57 1.46-.38 3.66.77 3.36 2.6a29.52 29.52 0 0 0-.39 3.25c0 .47-.18.53-.5.19-.52-.56-1-1.19-1.43-1.9-.78-1.26-.7-2.33.22-3.2.15-.14.15-.28 0-.4-.96-.83-2.66.57-2.97 1.3-.52 1.22.48 2.17 1.28 2.97a942.67 942.67 0 0 0 4.41 4.38.13.13 0 0 0 .14-.05 264.37 264.37 0 0 1 .1-6.27c.05-1.9 1.1-3.36 3.05-3.5 1.37-.1 2.4.35 3.12 1.33.46.63.57 1.44.33 2.42-.12.47-.62.99-1.52 1.56-.64.4-1.29.9-1.94 1.48-.14.12-.23.09-.27-.09-.08-.34-.02-1 .18-1.96.26-1.3.7-2.73 2.2-2.68.82.03.95-.26.4-.86a2.43 2.43 0 0 0-1.44-.77c-1.58-.27-2.51.68-2.55 2.28-.04 1.9-.05 4.16-.02 6.8 0 .37.13.42.39.15 1.35-1.4 2.77-2.78 4.24-4.15 1.43-1.33 2.84-1.56 4.23-.7 1.62 1.03 2.14 2.35 1.54 3.97-.43 1.17-1.28 1.7-2.56 1.59l-3.34-.46c-.17-.03-.2-.1-.08-.24 1.08-1.17 3.64-3.17 5.07-1.44.34.41.58.36.7-.17l.03-.13a1.86 1.86 0 0 0-.24-1.4c-1-1.53-2.1-1.8-3.3-.8a109.23 109.23 0 0 0-5.31 5.35v.03c.01.07.1.1.28.1 2.28-.06 4.35-.03 6.22.1 2.34.15 3.45 1.39 3.3 3.7-.08 1.58-.9 2.51-2.42 2.81-1.1.22-1.8-.14-2.44-1.04a24.71 24.71 0 0 0-1.94-2.49c-.16-.17-.13-.26.11-.28 1-.06 2.05.11 3.16.5 1.06.38 1.57 1.08 1.51 2.11a.42.42 0 0 0 .48.44.42.42 0 0 0 .22-.1l.25-.23a2.17 2.17 0 0 0 .7-1.55c.04-1.08-.22-1.73-.78-1.96a5.55 5.55 0 0 0-2.18-.41c-2.16.02-4.19.01-6.08-.03-.43 0-.5.14-.18.43a57.67 57.67 0 0 1 4.4 4.58c1.09 1.28 1.2 2.61.33 3.99-.51.8-1.23 1.32-2.17 1.57-1.46.38-3.66-.77-3.36-2.6.24-1.55.37-2.63.39-3.25 0-.47.18-.53.5-.19.52.56 1 1.19 1.43 1.9.78 1.26.7 2.33-.22 3.2-.15.14-.15.28 0 .4.96.83 2.66-.57 2.97-1.3.52-1.22-.48-2.17-1.28-2.97a937.67 937.67 0 0 0-4.41-4.38.13.13 0 0 0-.14.05 264.37 264.37 0 0 1-.1 6.27c-.05 1.9-1.1 3.36-3.05 3.5-1.37.1-2.4-.35-3.12-1.33-.46-.63-.57-1.44-.33-2.42.12-.47.62-.99 1.52-1.56.64-.4 1.29-.9 1.94-1.48.14-.12.23-.09.27.09.08.34.02 1-.18 1.96-.26 1.3-.7 2.73-2.2 2.68-.82-.03-.95.26-.4.86.38.42.86.67 1.44.77 1.58.27 2.51-.68 2.55-2.28.04-1.9.05-4.16.02-6.8 0-.37-.13-.42-.39-.15-1.35 1.4-2.77 2.78-4.24 4.15-1.43 1.33-2.84 1.56-4.23.7-1.62-1.03-2.14-2.35-1.54-3.97.43-1.17 1.28-1.7 2.56-1.59l3.34.46c.17.03.2.1.08.24-1.08 1.17-3.64 3.17-5.07 1.44-.34-.41-.58-.36-.7.17l-.03.13a1.86 1.86 0 0 0 .24 1.4c1 1.53 2.1 1.8 3.3.8a109.23 109.23 0 0 0 5.31-5.35v-.03Z" fill="#055198"/><path fill-rule="evenodd" d="M42 14H14v28h28V14Zm-29-1v30h30V13H13Z" fill="#055198"/><path fill-rule="evenodd" d="M41 15H15v26h26V15Zm-26.5-.5v27h27v-27h-27Z" fill="#055198"/></svg>