<!-- by TradingView --><svg width="56" height="56" viewBox="0 0 56 56" xmlns="http://www.w3.org/2000/svg"><path fill="#F0F3FA" d="M0 0h56v56H0z"/><path d="M11.42 23.58a.17.17 0 0 1-.19-.19l.16-1.17c.02-.14.5-.1.6-.1 1.64.02 3.29-.02 4.92-.12.05 0 .1.05.09.1l-.17 1.24c0 .07-.07.14-.14.15-.64.13-.65.43-.69 1.01v7c0 2.9-1.49 4.49-4.28 5.5a.08.08 0 0 1-.1-.03l-.58-.77c-.06-.08-.05-.16.02-.23C12.13 34.93 13 34 13 32.5c.02-3.11 0-5.84 0-8.08 0-.9-.72-.97-1.58-.84ZM22.22 27.89a1.49 1.49 0 0 0-1.87 1.14c-.21.92-.14 1.85.22 2.78.11.28.31.54.6.75.55.41 1.55.37 2.17.18.28-.08.62-.2 1.05-.37a.12.12 0 0 1 .08 0 .1.1 0 0 1 .06.04c.17.33.3.68.38 1.04v.1a.2.2 0 0 1-.07.08c-.66.51-1.39.92-2.19 1.2-.35.13-.74.18-1.18.17-2-.08-3.65-.94-4.22-2.7a4.69 4.69 0 0 1 1.4-5.17c1.58-1.23 3.73-1.35 5.75-.87.23.06.42.12.55.2a.1.1 0 0 1 .04.04v.06c-.21.96-.36 1.95-.45 2.98 0 .05-.04.08-.1.08H23a.13.13 0 0 1-.05-.04.1.1 0 0 1-.02-.04.1.1 0 0 1 0-.05c.09-.57.06-1.42-.7-1.6Z" fill="#041089"/><path fill-rule="evenodd" d="M39.35 27.38c-.04.05-.07.07-.1.06-.06 0-.09-.03-.08-.1.1-.51.16-.9.17-1.19 0-.11-.05-.16-.17-.15-1.32.14-2.62.43-3.94.6-.04 0-.07.02-.08.07L35 27.75c0 .04.03.09.07.1l.55.06c.45.03.68.25.69.67.06 2.54.05 5.17-.04 7.87-.03.81-.13 1.07-.84 1.27a.13.13 0 0 0-.1.1l-.15 1.13c0 .02 0 .05.03.05h5.08c.06 0 .1-.06.12-.11l.17-1.26c0-.02-.01-.04-.03-.04h-.96c-.33 0-.59-.15-.59-.44V35c3 0 6-1.4 6-4.5 0-2.1-1.11-4.5-3.5-4.5-.92 0-1.7.9-2.15 1.38ZM42 30.5c.03-1.06-.12-2.54-1.5-2.5-.42.01-1.5.43-1.5 1v3c0 1 1.11 1 1.5 1 1.18 0 1.47-1.48 1.5-2.5ZM31.02 33.68l.15.39c.3.8 1.33.93 1.83.93 1 0 1.56-1.16 1.98-1.92a.14.14 0 0 0 .01-.11.58.58 0 0 0-.23-.3.15.15 0 0 0-.12-.03c-.04 0-.2.06-.45.14-.63.21-1-.35-.91-.9.08-.5.2-1.4.37-2.67.27-2-1.25-3.24-3.15-3.21-1.38.02-2.76.79-3.95 1.41a.11.11 0 0 0-.06.13l.38 1.17c.04.1.16.13.24.08.64-.37 1.48-.83 2.27-.8 1 .05 1.52.59 1.55 1.63 0 .07-.05.14-.12.16-1.01.18-2.16.4-3.44.68-.92.2-1.38.76-1.37 1.68.01 1.4 1.03 2.86 2.5 2.86.88 0 1.69-.81 2.29-1.37.07-.06.2-.04.23.05ZM31 31c0-.04-.08-.07-.11-.06-.55.12-1.01.24-1.4.34-.45.12-.78.2-.68.75.12.6.27.94.69.97a2.5 2.5 0 0 0 1.5-.5V31Z" fill="#041089"/><path fill="#AB020B" d="M12 17h19v3H12z"/></svg>