<!-- by TradingView --><svg width="56" height="56" viewBox="0 0 56 56" xmlns="http://www.w3.org/2000/svg"><path fill="#F0F3FA" d="M0 0h56v56H0z"/><path fill-rule="evenodd" d="M41 14H15v24h26V14Zm-27-1v30h28V13H14Zm25.54 29c-.3 0-.55-.03-.79-.1a1.31 1.31 0 0 1-.54-.3.65.65 0 0 1-.21-.47h.89c.01.12.07.21.18.28.1.07.26.1.45.1.2 0 .34-.02.45-.09.12-.07.17-.15.17-.26a.26.26 0 0 0-.11-.21.83.83 0 0 0-.29-.13 5.09 5.09 0 0 0-.46-.11 7.22 7.22 0 0 1-.66-.17 1.24 1.24 0 0 1-.43-.24.58.58 0 0 1-.18-.45c0-.17.06-.32.19-.45.12-.13.29-.23.51-.3.22-.07.48-.1.76-.1.43 0 .77.07 1.04.22s.41.35.44.62h-.91c0-.1-.07-.19-.18-.25a.85.85 0 0 0-.45-.1c-.16 0-.3.03-.39.08a.28.28 0 0 0-.14.26c0 .08.03.14.1.2.08.05.17.09.28.12l.46.11c.27.06.49.11.66.17.17.06.31.14.44.25.12.11.18.26.18.44 0 .16-.06.3-.17.44-.12.13-.28.24-.5.32-.23.08-.49.12-.8.12Zm-2.04 0v-3h-.83l-1.17 2.23L34.34 39h-.84v3h.74v-1.95l.98 1.95h.56l.98-1.95V42h.74Zm-5.74-.48H33V42h-2v-3h.76v2.52ZM30 42v-3h-.76v3H30Zm-1-3v.49h-1.35v.77h1.03v.47h-1.03V42H27v-3h2Zm-4.3 1.24v-.75H26V39h-2v3h2v-.49h-1.3v-.8h1.15v-.47H24.7ZM22 41.52h1.24V42h-2v-3H22v2.52Zm-2.8-1.28v-.75h1.3V39h-2v3h2v-.49h-1.3v-.8h1.15v-.47H19.2ZM18 39v.49h-1.09V42h-.82v-2.51H15V39h3Zm-2.5-8 2-1c.83 1.17 2.8 3.5 4 3.5 1.2 0 1.5-1 1.5-1.5V21c0-.33-.2-1-1-1h5c-.33 0-1 .2-1 1v11c-.33 1-1.8 3-5 3s-5-2.67-5.5-4ZM28 17c0 1.1-1.57 2-3.5 2s-3.5-.9-3.5-2 1.57-2 3.5-2 3.5.9 3.5 2Zm11 0h-1v12.7a5.39 5.39 0 0 0-2-1.26V21h-1l-3 4-3-4h-1v11c0 2.2 2.46 4 5.5 4a6.3 6.3 0 0 0 4.5-1.7V36h1V17Zm-4 5.5v5.65c-.48-.1-.98-.15-1.5-.15a6.3 6.3 0 0 0-4.5 1.7v-7.2l3 4 3-4Zm-4.8 11.52c-.8-.59-1.2-1.31-1.2-2.02 0-.7.4-1.43 1.2-2.02.8-.59 1.97-.98 3.3-.98 1.33 0 2.5.4 3.3.98.8.59 1.2 1.31 1.2 2.02 0 .7-.4 1.43-1.2 2.02-.8.59-1.97.98-3.3.98-1.33 0-2.5-.4-3.3-.98Z" fill="#8C2104"/></svg>