<!-- by TradingView --><svg width="56" height="56" viewBox="0 0 56 56" xmlns="http://www.w3.org/2000/svg"><path fill="#F0F3FA" d="M0 0h56v56H0z"/><path d="M12.5 34V21l8.5-8.5h13l9.5 8.5v13L34 43.5H21L12.5 34Z" fill="#FFC10E"/><path fill-rule="evenodd" d="M28.65 16.69a1 1 0 0 0-.13-.5L32.2 13l-.32-.38-3.7 3.22a1 1 0 0 0-.48-.15l-1.45-3.02-.42.28 1.37 2.85a1 1 0 0 0-.54.89v.63l-4.56 4.09-1.46-1.4a1 1 0 0 0-.22-.16l.09-6.35H20v6.14l-5.95-.2-.05.5 5.13.2a1 1 0 0 0 .12 1.31l.75.73v5.51h-2.35a1 1 0 0 0-.56.17l-4.57-2.87-.3.4 4.54 2.85a1 1 0 0 0-.1.49l-4.43 2.25.27.42 4.3-2.19a1 1 0 0 0 .63.45l4.49 4.15L20 35.65a1 1 0 0 0-.27.44H14.5v.5h5.23a1 1 0 0 0 .27.49v5.95h.5v-5.68a1 1 0 0 0 .9-.26l.09-.09h6.16v2.19a1 1 0 0 0 .2.6l-2.4 3.24.4.32 2.39-3.25a1 1 0 0 0 .75.03l2.47 3.22.38-.32-2.44-3.18a1 1 0 0 0 .25-.66l4.44-4.58 1.67 1.6a1 1 0 0 0 .64.29v4.69h.5V36.5h4.25V36h-3.83a1 1 0 0 0 .09-.81h.09v-6.5h1.65a1 1 0 0 0 .62-.22L43 30.88l.32-.38-3.24-2.43a1 1 0 0 0-.02-.82l3.24-1.85-.28-.42-3.04 1.71-4.88-4.44 1.52-1.45a1 1 0 0 0 .3-.8H42v-.56h-5.32a.97.97 0 0 0-.22-.2l.04-4.74H36l.06 4.5h-7.41v-2.31Zm-10.46 13 4.09 3.78 3.93-3.78h-8.02Zm9.33-.5a1 1 0 0 1 .43.29 1 1 0 0 1 1.02-.24 1 1 0 0 1 .48-.84 1 1 0 0 1-.22-1.1 1 1 0 0 1-.8-.98 1 1 0 0 1-1.05.33 1 1 0 0 1-.35 1.12 1 1 0 0 1 .49 1.42Zm-1.78-1.5-5.24-5.03v5.03h5.24ZM37 34.63l-6.18-5.94H37v5.94Zm-7.35 3.84v-8.13l4.08 3.92-4.08 4.21Zm-2.2-22.14-.04-.08a.5.5 0 0 0-.26.44v9a.5.5 0 0 0 1 0v-9a.5.5 0 0 0-.5-.5l-.2.14Zm-5 5.43 4.2-3.77V25.8l-4.2-4.04Zm-1.95.14v.06l5.58 5.37a.5.5 0 0 0 .7-.72l-6.5-6.24a.5.5 0 1 0-.69.72l.85.81h.06Zm14.23.7 4.5 4.1-.08-.01h-8.67l4.25-4.09Zm-6.08-3.1h6.42l-6.34 6.1-.08.08V19.5Zm-.5 10.92a1 1 0 0 0 .03-.41.5.5 0 0 1 .97.18v9a.5.5 0 1 1-1 0v-8.77Zm-.48-.43a1 1 0 0 0-.02.2v.14a.5.5 0 0 1-.11.16l-6.49 6.24a.5.5 0 1 1-.7-.72l6.5-6.24a.5.5 0 0 1 .82.22Zm-.02 1.09v5.42h-5.64l5.64-5.42Zm11.5-3.89h-9a.5.5 0 1 0 0 1h9a.5.5 0 1 0 0-1Zm-9.38-.52 6.49-6.23a.5.5 0 1 0-.7-.72l-6.48 6.23a.5.5 0 0 0 .7.72Zm6.34 9.19-6.49-6.24a.5.5 0 0 1 .7-.72l6.48 6.24a.5.5 0 1 1-.69.72Zm-18.46-7.67h9a.5.5 0 1 1 0 1h-9a.5.5 0 0 1 0-1Z" fill="#78612F"/><path d="M20.8 12h13.4l9.8 8.8v13.4L34.2 44H20.8L12 34.2V20.8l8.8-8.8Zm.4 1L13 21.2v12.6l8.2 9.2h12.6l9.2-9.2V21.2L33.8 13H21.2Z" fill="#EB3442"/></svg>