<!-- by TradingView --><svg width="56" height="56" viewBox="0 0 56 56" xmlns="http://www.w3.org/2000/svg"><path fill="#F0F3FA" d="M0 0h56v56H0z"/><path d="M28.12 12c.2.02.4.09.58.2l13.42 7.5c.25.14.42.25.5.34.16.15.26.33.33.54.03.1.05.28.05.5v2.94c0 .2-.02.34-.05.43a.87.87 0 0 1-.83.55h-2.55a.83.83 0 0 1-.45-.13.82.82 0 0 1-.4-.73v-1.13a.9.9 0 0 0-.04-.3.47.47 0 0 0-.2-.25l-9.6-5.37a2.58 2.58 0 0 0-.56-.25 1.3 1.3 0 0 0-.63 0c-.13.02-.32.1-.57.25l-9.6 5.37a.47.47 0 0 0-.2.24.85.85 0 0 0-.03.3v.9c0 .27-.02.46-.06.55a.84.84 0 0 1-.43.46.79.79 0 0 1-.32.09h-2.4c-.24 0-.42-.02-.52-.05a.85.85 0 0 1-.56-.7v-3.43c.04-.35.2-.63.44-.84.07-.06.27-.19.61-.37l13.36-7.48c.1-.06.26-.1.46-.13h.25Z" fill="#231F20"/><path d="M24.78 43h-.23c-.2-.03-.37-.07-.48-.13l-10.2-5.67a2.41 2.41 0 0 1-.5-.34 1.3 1.3 0 0 1-.37-.77v-2.8c.07-.4.3-.65.7-.74.26-.06.48.03.72.16l6.83 3.8c.15.07.32.04.39-.1.02-.03.03-.1.03-.18V25.78c0-.34.01-.58.05-.7.09-.33.3-.59.61-.76l2.68-1.5c.18-.09.3-.14.37-.16.24-.04.52.11.6.35l.02.29v18.25c0 .23-.02.4-.05.5-.14.53-.61.88-1.17.95ZM31.46 43h-.23c-.72-.08-1.23-.6-1.23-1.3V23.33c0-.18.01-.3.04-.36a.54.54 0 0 1 .6-.32 5566.36 5566.36 0 0 0 3.02 1.64c.32.18.52.44.62.77.04.12.06.31.06.58v10.52c0 .13.01.22.05.26.04.06.11.1.2.1.05 0 .11-.02.2-.07a31731 31731 0 0 1 6.93-3.84.88.88 0 0 1 1.24.46c.02.09.04.23.04.44v2.37c0 .44-.15.78-.44 1.04a5 5 0 0 1-.62.38l-9.83 5.46c-.23.13-.45.2-.65.23Z" fill="#764C29"/></svg>