<!-- by TradingView --><svg width="56" height="56" viewBox="0 0 56 56" xmlns="http://www.w3.org/2000/svg"><path fill="#F0F3FA" d="M0 0h56v56H0z"/><path d="m35.98 27.61.44-.07 2.12 13.63v.02c-.4.72-.89 1.38-1.46 1.97-.54.57-1.14 1.07-1.8 1.52a13.73 13.73 0 0 1-9.83 2.13c-.96-.16-1.86-.44-2.7-.84a9.24 9.24 0 0 1-4.53-4.55l1.45-17.87h-.01a7602.18 7602.18 0 0 1-1.92.48l-.02.04h-.01c-.21-.06-.38-.1-.54-.16a2.4 2.4 0 0 1-.96-.71 3.8 3.8 0 0 1-.69-1.37 11.29 11.29 0 0 1-.33-2.68l-.18-.14v-.02l.88-.6a126.44 126.44 0 0 0 1.22-.8c-.06-.35-.14-.69-.23-1.01a6.43 6.43 0 0 0-.32-.92c-.18-.42-.43-.8-.75-1.12a3.98 3.98 0 0 1-.77-.58l.36-.53h.02c.23.12.45.26.65.44l.14.09c.29.15.6.25.92.33.6.15 1.25.21 1.86.23l1.1.03c.25.01.52.02.8.05.26.02.52.06.77.12a1.81 1.81 0 0 1 .69.33l.2-3.68-.02-.01a6.23 6.23 0 0 1-1.1-.26l-.01-.02.21-.62h.01a5.2 5.2 0 0 0 3.26 0A6.7 6.7 0 0 0 27.32 9l.51.37c.4.26.8.47 1.23.64a4.74 4.74 0 0 0 3.85-.13l.27.6v.02a6.22 6.22 0 0 1-1.34.43l.08 2.59-.54.03a.01.01 0 0 0-.01 0l.14 1.4a1606.23 1606.23 0 0 1 .37 3.61 3.34 3.34 0 0 1 1.2.84l-1.14-5.5.65-.14.3 1.38c0 .01 0 .01 0 0a3.89 3.89 0 0 1 2.9-.95l-.04.65v.01a3.24 3.24 0 0 0-2.1.57 4.63 4.63 0 0 0-.6.5l.72 3.53h-.01l-.56.12v.01c.26.36.42.79.5 1.24.05.31.08.64.1.99l.02.77c0 .12.02.27.05.47a1.57 1.57 0 0 0 .36.84h.92v-.01l-.31-2.64.01-.02h.06v-.01l-1.1-.29h-.01l.16-.65h.01l2.41.62c-.09-.52-.04-1.02.14-1.5.2-.52.57-1 .98-1.36l.19-.19c.06-.06.1-.14.14-.22.1-.23.05-.47-.04-.71a1.8 1.8 0 0 0-.13-.24 2.95 2.95 0 0 1-.35-.82c-.1-.44-.1-.88.05-1.3a3.65 3.65 0 0 1 .78-1.3 7.39 7.39 0 0 0-2.86.32 5.23 5.23 0 0 0-1.83 1l-.42-.5v-.01a5.98 5.98 0 0 1 2.6-1.3c.43-.1.86-.15 1.3-.18.46-.03.94-.03 1.41 0a48.36 48.36 0 0 1 1.4.08 139.96 139.96 0 0 0-.94.88c-.32.32-.6.7-.77 1.11-.14.37-.16.74-.05 1.11a2.44 2.44 0 0 0 .3.62c.12.2.2.44.25.68.06.34.01.66-.15.96-.06.12-.14.22-.22.31l-.25.23c-.25.23-.46.5-.62.78-.2.35-.3.73-.28 1.13.02.22.06.45.15.69a42.02 42.02 0 0 0 .25.7l-1.87-.49.37 3.18-1.91.02h-.02c-.23-.17-.4-.37-.53-.62-.1-.2-.17-.4-.21-.62a4.88 4.88 0 0 1-.1-.87c0-.47-.02-.86-.06-1.17a3.87 3.87 0 0 0-.14-.72 1.98 1.98 0 0 0-.74-1.05 2.68 2.68 0 0 0-3.08-.17l-.32-.57v-.01a3.83 3.83 0 0 1 1.22-.46.57.57 0 0 1-.16-.07l-.2-.12a1.51 1.51 0 0 1-.64-1.56c.14-.83.91-1.27 1.7-1.17a4.02 4.02 0 0 1 .16.02l-.13-1.29h-.01a3.72 3.72 0 0 0-1.67.12 7.16 7.16 0 0 0-1.43.65l-.22-.11c-.41-.2-.85-.33-1.3-.35-1.09-.06-2.04.56-2.77 1.3v.01L23 15.4H23a15665.1 15665.1 0 0 1-.29 5.7c.08.38.26.7.52.98.3.31.7.54 1.11.68.28.1.56.18.84.23.38.07.75.1 1.12.12a11.09 11.09 0 0 0 2.65-.26 5.25 5.25 0 0 0-.58-.17l-.84-.22c-.3-.08-.6-.18-.9-.3-.24-.1-.48-.21-.7-.35-.33-.19-.63-.45-.82-.78-.17-.28-.25-.6-.23-.95a2.43 2.43 0 0 1 .13-.63l.62.2c-.03.12-.06.24-.07.36-.04.33.04.6.24.84.1.12.23.23.38.32.19.13.39.23.6.32.35.15.72.27 1.1.37l.83.2.46.15c.2.08.36.18.48.32.1.1.18.24.25.41l.22.57c.22.6.49 1.14.8 1.65.55.9 1.33 1.7 2.33 2.01 1.56.5 3.16-.33 4.25-1.42a7.17 7.17 0 0 0 1.17-1.57c-.18.16-.38.28-.6.37-.37.14-.81.1-1.2-.01a5.7 5.7 0 0 1-.38-.14c-.1-.23-.17-.44-.2-.66a1.6 1.6 0 0 1 .8-1.72c.1-.06.21-.11.32-.15a2.44 2.44 0 0 1 2.59.77 7.4 7.4 0 0 1-2.4 3.93 6.33 6.33 0 0 1-1.62 1.04ZM25.81 10.82v.01l.08 2.9.01.01a3.9 3.9 0 0 1 1.75.39 6.9 6.9 0 0 1 1.25-.56l-.1-2.92a7.07 7.07 0 0 1-1.47-.8c-.48.4-.99.71-1.52.97Zm4 .12-.32-.08v.01l.08 2.56.32-.03-.08-2.46Zm.68.08.07 2.38h.01a5.24 5.24 0 0 1 .68.11l-.08-2.49h-.68Zm-5.7.23.1 2.67a3.23 3.23 0 0 1 .34-.1l-.09-2.72a5.73 5.73 0 0 1-.48.15h.13Zm-.58 2.97a.02.02 0 0 0 .01-.02l-.09-2.84v-.01l-.21.02a5.23 5.23 0 0 1-.7.05l-.2 3.7c.36-.35.76-.65 1.2-.9Zm-3.84 8.89-1.45 18.06v.01a25.8 25.8 0 0 0 2.75.8l1.24-19.16v-.01h.11c.01 0 .01 0 0 0a2.68 2.68 0 0 1-.98-1.66 40486.1 40486.1 0 0 0 .18-3.83l-.25.11h-.02a2.01 2.01 0 0 0-.16-.3 1.43 1.43 0 0 0-.77-.58 2.97 2.97 0 0 0-.93-.14l-.87-.04-.51-.06a2.16 2.16 0 0 1-.73-.26v-.01l.34-.56h.01c.13.07.27.12.42.15.19.04.38.06.59.07l.79.03c.32.01.6.05.87.11a2.18 2.18 0 0 1 1.26.78l.08-1.45h-.01l-.4.42a.97.97 0 0 0-.32-.17c-.24-.09-.5-.12-.75-.15a12.1 12.1 0 0 0-.74-.04c-.76-.02-1.13-.02-1.73-.06a8.78 8.78 0 0 1-1.42-.21c.14.27.26.52.35.78.29.8.43 1.58.6 2.5.05.27.1.52.16.75.2.84.57 1.68 1.16 2.31.56.6 1.28.95 2.1 1a4.17 4.17 0 0 0 1.12-.07l.13.65c-.35.08-.69.11-1.02.1a3.74 3.74 0 0 1-2.83-1.23c-.31-.34-.57-.72-.78-1.14-.23-.45-.4-.95-.53-1.47a14.5 14.5 0 0 1-.19-.82l-1.08.7v.01a5.8 5.8 0 0 1 1.34 1.55 3.94 3.94 0 0 1 .42 2.71l1.97-.5.07.26.01.01.4.03v.02Zm10.37-7.01-.02-.02c-.45-.1-.97.1-1.04.62a.96.96 0 0 0 .03.42c.23-.36.67-.55 1.07-.57 0 0 .01 0 0 0l-.04-.45Zm.42 2.1a1.62 1.62 0 0 1-.2.1l.2.03.01-.01v-.11Zm-13.92 5 .01-.01a3.16 3.16 0 0 0-.27-2.13 4.4 4.4 0 0 0-1.1-1.36c.02.51.08 1 .17 1.48.1.49.27.98.54 1.4.17.26.39.46.65.61Zm21.1.38.4.48a6.48 6.48 0 0 0 .5-1.22c-.3-.24-.65-.37-1.04-.4-.52-.03-1.13.2-1.25.77a1.3 1.3 0 0 0 .06.66c.29.1.6.15.89.02.07-.04.16-.09.25-.16a2.89 2.89 0 0 0 .18-.15h.01Zm-9.23-.06a11.97 11.97 0 0 1-3.64.2 5.6 5.6 0 0 1-1.91-.56l-1.23 18.97c2.33.48 4.66.62 7.02.43a27.98 27.98 0 0 0 4.6-.78L32.9 27.77c-.81-.3-1.49-.85-2.02-1.52a7.35 7.35 0 0 1-.61-.88 10.84 10.84 0 0 1-.97-2.14 1.07 1.07 0 0 0-.1-.2.45.45 0 0 0-.2-.16s-.01 0 0 0l.12.64v.01Zm4.48 4.42h-.01l1.03 13.67a35.41 35.41 0 0 0 3.16-1.03l-2-12.88c-.7.26-1.45.37-2.18.24Zm.95 14.4-.85 2.48h.01c.43-.2.87-.47 1.31-.78a9.7 9.7 0 0 0 2.63-2.69c-1.02.38-2.05.7-3.1.99Zm-12.06 2.73a138.65 138.65 0 0 0-.7-2.36 26.91 26.91 0 0 1-2.47-.67 8.51 8.51 0 0 0 3.17 3.03Zm.82.4.01.02c2.17.91 4.6 1.03 6.88.57a13.5 13.5 0 0 0 2.66-.83l.9-2.7c-1.29.31-2.59.53-3.89.66a25.55 25.55 0 0 1-7.32-.31l.76 2.59Z" fill="#1B154B"/><path d="M24.1 17.53a1.44 1.44 0 0 1 1.33-1.71c.27-.02.52.04.76.17.34.2.59.52.69.9.07.3.06.58-.04.87l-.05.16a.9.9 0 0 1-.25.43c-.26.24-.57.37-.93.38-.18 0-.36 0-.53-.06l-.23-.1a1.26 1.26 0 0 1-.4-.31c-.18-.21-.3-.45-.35-.73Zm2.08-.57a.76.76 0 0 0-.64-.47.75.75 0 0 0-.75.52.78.78 0 0 0 .03.57c.24-.47.86-.72 1.36-.62Z" fill="#1B154B"/><path d="m24.04 16.83.18 4.7-.01.01-.65.03-.01-.01-.18-4.7v-.01l.66-.03v.01ZM30.9 19.75a.78.78 0 0 0-.66.33 2.24 2.24 0 0 0-.22.32l-.57-.33v-.01c.18-.31.38-.6.69-.79a1.44 1.44 0 0 1 .78-.2v.01l-.01.66h-.01Z" fill="#1B154B"/><path d="M23.76 38.08a1.47 1.47 0 0 1-.6-.98 1.3 1.3 0 0 1 .47-1.17 4018.4 4018.4 0 0 0 3.9-1.82c.12-.06.25-.1.4-.13.3-.05.58-.02.85.11.08.03.17.09.24.13a7726.6 7726.6 0 0 1 3.48 1.66c.13.09.23.2.32.32.08.1.13.2.17.31.2.58-.1 1.16-.55 1.52a12894.98 12894.98 0 0 1-3.16 1.53c-.45.31-.96.4-1.49.26a2.42 2.42 0 0 1-.54-.23 4048.25 4048.25 0 0 1-3.49-1.51Zm5.7 1.23a3069.84 3069.84 0 0 1 2.85-1.36c.5-.38.81-1.03.44-1.6a1.32 1.32 0 0 0-.6-.5 1441.12 1441.12 0 0 1-3.33-1.58c-.27-.15-.56-.2-.87-.14-.16.03-.31.08-.46.15l-.18.09a3627.5 3627.5 0 0 1-3.6 1.68c-.15.13-.25.27-.33.44-.22.5-.02 1.06.38 1.4a.5.5 0 0 0 .1.08 3662.07 3662.07 0 0 0 3.46 1.5c.14.07.28.14.43.18a1.6 1.6 0 0 0 1.49-.23 30.09 30.09 0 0 0 .21-.11Z" fill="#E51E25"/><path fill-rule="evenodd" d="M23.57 36.42c-.3.5-.1 1.1.36 1.45.04.03.09.06.15.08l3.01 1.23.23.1c.16.09.32.15.48.2.49.12.94.06 1.36-.2l.03-.02.12-.07 2.74-1.22.13-.07.1-.09c.25-.2.45-.5.48-.82.04-.4-.16-.73-.48-.96-.06-.04-.16-.1-.3-.15l-3-1.34a2.14 2.14 0 0 1-.18-.09 1.33 1.33 0 0 0-.93-.1c-.11.02-.2.05-.27.08a4578.35 4578.35 0 0 1-3.74 1.65c-.12.1-.22.21-.29.34Zm6.85.16c.03.03.09.05.15.08a63.88 63.88 0 0 1 .35.13c.13.06.21.17.2.32-.02.21-.22.3-.4.33-.12.02-.22.02-.35 0a1.03 1.03 0 0 1-.31-.07v-.3l.23-.01v.01c.01.07.02.14.07.18.09.08.36.07.41-.05.07-.14-.1-.23-.21-.27l-.06-.02c-.14-.04-.27-.09-.36-.16-.1-.09-.12-.22-.07-.34.06-.14.26-.2.41-.2.19-.02.37-.01.55.05v.28h-.23c0-.1-.03-.18-.13-.2-.1-.02-.27 0-.29.13 0 .05 0 .08.04.1Zm-.65-.03h-.21c-.02 0-.02 0-.02-.02 0-.06-.02-.1-.04-.14-.06-.07-.2-.07-.27-.04a.14.14 0 0 0-.08.22l.12.07a12.67 12.67 0 0 0 .44.17c.13.08.17.2.15.34a.3.3 0 0 1-.13.19c-.15.1-.35.12-.53.11-.15 0-.28-.03-.4-.07v-.32h.23l.01.01c0 .07.01.14.06.18.08.07.22.06.31.03.09-.02.15-.1.1-.2-.02-.07-.14-.12-.2-.15l-.07-.02c-.11-.04-.21-.07-.31-.13a.27.27 0 0 1-.13-.35c.06-.15.26-.22.41-.23.2-.01.37 0 .56.06v.28Zm-2.39.72a2.15 2.15 0 0 1-.21-.02v-.74c0-.03 0-.07.02-.1 0-.04.07-.05.17-.05v-.12a7.58 7.58 0 0 1-.72 0v.1l.01.02h.1c.08.01.1.06.1.13l-.01.69c0 .06-.03.1-.1.1l-.09.01v.12h1.14v-.37l-.01-.01h-.22l-.02.01c0 .05.02.15-.02.19-.02.03-.07.03-.12.04h-.02Zm.88-1.03a17.18 17.18 0 0 0 .37 0v.11h-.01c-.09 0-.15.02-.17.05-.02.02-.02.07-.02.15a41.54 41.54 0 0 0 .02.7c.02.03.08.04.17.04v.12a17.18 17.18 0 0 0-.72 0v-.12c.1 0 .15-.01.18-.05a41.49 41.49 0 0 0 0-.84c-.03-.03-.08-.05-.17-.04h-.01v-.12h.36Zm-2.08.56c-.02 0-.02 0 0 .01.19.02.34.12.32.32-.01.17-.15.24-.3.26a51.83 51.83 0 0 0-.97.01v-.1l.01-.01.11-.01c.07-.01.09-.07.09-.14v-.63c0-.05-.01-.1-.03-.12l-.02-.01a.34.34 0 0 0-.15-.02v-.12h.6c.15 0 .29 0 .4.04.13.03.2.1.21.22.02.18-.12.27-.27.3Zm-.42-.43v.34h.15c.06 0 .1-.01.14-.04a.14.14 0 0 0 .06-.11v-.03l-.01-.06a.16.16 0 0 0-.05-.05.21.21 0 0 0-.06-.04.25.25 0 0 0-.08 0h-.14Zm0 .5v.39h.26l.07-.05a.18.18 0 0 0 .05-.05.15.15 0 0 0 .02-.07v-.05c0-.05-.02-.1-.07-.12a.25.25 0 0 0-.15-.06h-.17Zm1.5 1.33h-.1v-.1h.22V38.35c-.16.13-.4.13-.47-.1-.05-.16 0-.4.21-.42.13-.01.23.03.26.17l-.1.02c-.04-.1-.16-.12-.23-.05-.06.06-.05.17-.04.25.04.13.16.14.26.07V38.21Zm1.54.12c.1 0 .1-.07.1-.15a16.37 16.37 0 0 0 0-.34h.1v.4c0 .14-.08.2-.2.2-.12 0-.2-.06-.2-.19a11.56 11.56 0 0 1 0-.41h.1v.35c0 .07 0 .14.1.14Zm-.55-.5c.18 0 .26.14.26.3 0 .16-.08.3-.26.3s-.26-.13-.26-.3c0-.16.08-.3.26-.3Zm-.15.3c0 .11.07.2.15.2.08 0 .15-.08.15-.2 0-.11-.07-.2-.15-.2-.08 0-.15.09-.15.2Zm-.24.12a.44.44 0 0 0-.07-.08c.08-.03.12-.08.13-.16 0-.11-.06-.17-.18-.17a14.51 14.51 0 0 0-.26 0v.58h.11v-.23h.01c.05-.02.09 0 .12.05a52.7 52.7 0 0 1 .11.19h.13l-.1-.18Zm-.27-.31v.14h.14c.02 0 .04 0 .05-.02a.07.07 0 0 0 .03-.04v-.02a.07.07 0 0 0-.03-.04.07.07 0 0 0-.05-.02h-.13Zm1.64.27v.21h-.1v-.58h.15l.16.01.06.06c.04.08.04.2-.04.26-.05.04-.16.04-.22.04h-.01Zm0-.26v-.01h.1c.02 0 .04 0 .06.02.02.02.02.04.02.06 0 .02 0 .04-.02.06a.08.08 0 0 1-.06.02h-.1v-.15Z" fill="#E51E25"/></svg>