<!-- by TradingView --><svg width="56" height="56" viewBox="0 0 56 56" xmlns="http://www.w3.org/2000/svg"><path fill="#F0F3FA" d="M0 0h56v56H0z"/><path d="M28 12a18.12 18.12 0 0 1 0 25 18.12 18.12 0 0 1 0-25Z" fill="url(#a)"/><path d="M7 29.2c4.95 7.61 14.41 10.01 22 5.6-4.95-7.61-14.41-10.01-22-5.6Z" fill="url(#b)"/><path d="M49 29.2c-4.95 7.61-14.41 10.01-22 5.6 4.95-7.61 14.41-10.01 22-5.6Z" fill="url(#c)"/><path d="M28 23c5.33 3.99 5.33 10.01 0 14-5.33-3.99-5.33-10.01 0-14Z" fill="url(#d)"/><path d="M15 34.28a10.41 10.41 0 0 0 13 2.44 10.41 10.41 0 0 0-13-2.44Z" fill="url(#e)"/><path d="M41 34.28a10.41 10.41 0 0 1-13 2.44 10.41 10.41 0 0 1 13-2.44Z" fill="url(#f)"/><defs><linearGradient id="a" x1="23.01" y1="17.18" x2="31.21" y2="26.46" gradientUnits="userSpaceOnUse"><stop stop-color="#EAF4DA"/><stop offset="1" stop-color="#8AC93A"/></linearGradient><linearGradient id="b" x1="23.72" y1="34.29" x2="7.38" y2="29.04" gradientUnits="userSpaceOnUse"><stop offset=".14" stop-color="#8AC93A"/><stop offset="1" stop-color="#EAF4DA"/></linearGradient><linearGradient id="c" x1="45.57" y1="27.87" x2="28.73" y2="35.22" gradientUnits="userSpaceOnUse"><stop stop-color="#EAF4DA"/><stop offset=".86" stop-color="#8AC93A"/></linearGradient><linearGradient id="d" x1="24.01" y1="25.9" x2="28.15" y2="32.59" gradientUnits="userSpaceOnUse"><stop stop-color="#EAF4DA"/><stop offset="1" stop-color="#8AC93A"/></linearGradient><linearGradient id="e" x1="24.88" y1="36.64" x2="15.57" y2="33.11" gradientUnits="userSpaceOnUse"><stop offset=".14" stop-color="#8AC93A"/><stop offset="1" stop-color="#EAF4DA"/></linearGradient><linearGradient id="f" x1="31.12" y1="36.64" x2="40.43" y2="33.11" gradientUnits="userSpaceOnUse"><stop offset=".14" stop-color="#8AC93A"/><stop offset="1" stop-color="#EAF4DA"/></linearGradient></defs></svg>