<!-- by TradingView --><svg width="56" height="56" viewBox="0 0 56 56" xmlns="http://www.w3.org/2000/svg"><path fill="#F0F3FA" d="M0 0h56v56H0z"/><path d="M29.53 20.63c-1.06-.7-1.78-1.3-3.09-.79-.3.12-.52.03-.68-.26l-.4-.72c-.15-.27-.09-.46.19-.58 2-.83 3.52.26 4.28 2.08.17.43.07.52-.3.27ZM33.75 19.76c-.19.26-.3.6-.3 1-.02.23-.13.35-.35.35h-.84c-.22 0-.33-.11-.32-.34.05-1.77.78-2.64 2.17-2.62 1.49.02 2.96.8 4.41 2.35.12.12.1.19-.07.2l-.18.02a.3.3 0 0 1-.14-.03 7.57 7.57 0 0 0-3.5-1.18c-.46 0-.75.08-.88.25ZM26.26 26.25a4.6 4.6 0 0 0-.84 0c-1.56.27-2.58-.3-3.05-1.7-.06-.16 0-.29.15-.39a4.45 4.45 0 0 0 1.4-1.25.84.84 0 0 0 .04-.85.94.94 0 0 0-.32-.34 1.07 1.07 0 0 0-.45-.16c-.56-.07-.92-.11-1.1-.15-1.37-.23-1.45-.65-.24-1.24.8-.39 1.64-.11 2.5.83.96 1.06 1.06 2.18.3 3.36-.32.49-.17.7.45.66 1.03-.08 1.5-.51 1.45-1.3a8.67 8.67 0 0 1-.03-1.25c.02-.32.21-.47.56-.47h.38c.36 0 .54.16.54.47v4.12c0 .1-.04.2-.13.28a.48.48 0 0 1-.3.13c-.58.02-.91-.15-1-.52-.04-.14-.14-.22-.3-.23ZM30.42 22h-.84c-.32 0-.58.18-.58.4l.02 4.21c0 .22.26.4.58.4h.83c.33 0 .59-.19.59-.4L31 22.4c0-.22-.26-.4-.58-.4ZM33.59 21.98h-1.17c-.23 0-.42.14-.42.3v4.4c0 .17.18.3.41.3h1.17c.23 0 .42-.13.42-.3v-4.4c0-.16-.18-.3-.41-.3ZM37.58 23.05l.23-.79c.05-.17.16-.26.32-.26h.57c.2 0 .3.1.3.32v4.15c0 .35-.16.53-.48.53h-.38c-.3 0-.45-.16-.45-.5v-1.54a.35.35 0 0 0-.07-.22.3.3 0 0 0-.19-.1c-.75-.13-1.2.05-1.34.52-.14.48.15 1.07.2 1.56 0 .04 0 .07-.02.1a.17.17 0 0 1-.06.07.15.15 0 0 1-.17-.01 2.58 2.58 0 0 1-.99-2.65c.05-.28.2-.53.4-.71.2-.18.45-.28.71-.28h1.19c.12 0 .2-.07.23-.2Z" fill="#0094DE"/><path fill-rule="evenodd" d="M21.13 25.17c-.09-.34.02-.58.34-.72l.43-.19c.18-.07.27-.21.26-.42-.02-.4-.38-.78-.77-.8-.65-.03-1.34-.08-2.07-.16a.26.26 0 0 0-.24.11.29.29 0 0 0-.03.27l.89 2.23c.1.26.02.43-.24.5-.54.16-.9.13-1.07-.1a31.17 31.17 0 0 0-1.97-2.35c-.63-.65-1.11-.55-1.43.32l-.17.48c-.18.97.03 1.79.62 2.47 1.43 1.67 3.08 2.57 4.93 2.7 1.1.09 3.16.17 6.16.25.83.02 1.5.24 2 .68a1.28 1.28 0 0 1 .18 1.72c-.43.59-1.17.7-1.81.4-1.03-.5-2.15-.9-3.36-1.24-1.39-.4-2.4-.03-3.05 1.07a.78.78 0 0 0-.1.56c.25 1.28 1 2.06 2.25 2.34.85.19 1.2.47 1.84 1l.16.14c.63.52 1.12.85 1.48 1 3 1.24 5.6.46 7.78-2.36a.34.34 0 0 0-.09-.51.32.32 0 0 0-.18-.05c-3.32.2-6.86.19-10.6-.02-.96-.05-1.5-.52-1.6-1.4a.6.6 0 0 1 .17-.53c.59-.57 1.3-.7 2.16-.4 1.7.6 2.9.99 3.65 1.16 2.04.47 3.4-1.68 1.7-3.28a3.25 3.25 0 0 0-1.96-.89 28.2 28.2 0 0 0-2.55-.07c-3.55 0-7.9-.01-9.2-4.01a.94.94 0 0 1 .11-.83.42.42 0 0 1 .22-.17.4.4 0 0 1 .45.15l.42.62c.74 1.1 1.47 2.17 2.59 2.63.61.26 1.11.16 1.5-.28.35-.43.42-1.1.2-2.02Zm11.38 9.6a26.6 26.6 0 0 1-7.1.14.38.38 0 0 0-.25.06.42.42 0 0 0-.16.19c-.17.36-.05.7.37.98a5.85 5.85 0 0 0 3.64 1.2A5.9 5.9 0 0 0 32.6 36c.4-.31.5-.65.32-1a.42.42 0 0 0-.17-.19.38.38 0 0 0-.25-.04Z" fill="#0094DE"/><path fill-rule="evenodd" d="M28 43a15 15 0 1 0 0-30 15 15 0 0 0 0 30Zm0 2a17 17 0 1 0 0-34 17 17 0 0 0 0 34Z" fill="#0094DE"/></svg>