<!-- by TradingView --><svg width="56" height="56" viewBox="0 0 56 56" xmlns="http://www.w3.org/2000/svg"><path fill="#F0F3FA" d="M0 0h56v56H0z"/><path d="M31 15h1.88c1.37 0 1.91 1.19 1.91 2.41 0 .9-.28 1.99-1.16 2.4l-.3.21h-1.6V19h1.12c.7 0 .9-.95.9-1.52 0-.59-.15-1.48-.87-1.48H32v7h-1v-8Zm2.9 8-1.19-3.5h1.08L35 23h-1.1ZM28.1 19.4h-1.33v-1.03h1.17c.63 0 .86-.58.86-1.12 0-.59-.19-1.25-.86-1.25H27v7h-1v-8h1.94c1.3 0 1.95.93 1.95 2.16 0 .93-.52 1.79-1.5 1.88l-.3.36Zm-.04 3.6H26.4l.5-1h1.15c.66 0 .94-.9.94-1.46 0-.55-.22-1.14-.9-1.14H27v-1.03h1.41l.25.4c1 .02 1.34 1.05 1.34 1.9 0 1.22-.6 2.33-1.94 2.33ZM22.18 16.1 20.25 23H19l2.43-8h.83l-.08 1.1Zm1.57 6.9-1.94-6.9-.1-1.1h.85L25 23h-1.25Zm-.06-3v1h-3.56v-1h3.56ZM39.18 16.1 37.25 23H36l2.43-8h.83l-.08 1.1Zm1.57 6.9-1.94-6.9-.1-1.1h.85L42 23h-1.25Zm-.06-3v1h-3.56v-1h3.56ZM15 15v8h-1v-8h1Zm2.92 0-1.96 3.86-1.16 1.96-.2-1.4.81-1.63L16.73 15h1.19Zm-1.08 8-1.49-3.78.67-.95L18 23h-1.16Z" fill="#DA251D"/><path d="M40.95 29.88c0-.7-.42-1.09-1.04-1.38-1-.48-1.78-1.17-1.78-2.35 0-1.12.7-2.15 1.9-2.15 1.29 0 1.97 1.22 1.97 2.38h-1c0-.59-.3-1.38-1-1.38-.6 0-.82.61-.82 1.15 0 .63.57.99 1.08 1.22 1.04.47 1.74 1.3 1.74 2.5 0 1.15-.79 2.13-2 2.13-1.37 0-2-1.22-2-2.47h1c0 .7.2 1.47 1 1.47.6 0 .95-.58.95-1.12ZM36 28v2.97A2.36 2.36 0 0 1 34 32c-1.73 0-2-1.93-2-3.31V27.3c0-1.35.27-3.3 2-3.3 1.4 0 1.94 1.27 2 2.5h-.97C35 25.86 34.77 25 34 25c-1.07 0-1 1.54-1 2.3v1.39c0 .8-.1 2.31 1 2.31.38 0 .74-.23 1-.48V29h-1v-1h2ZM29 24h1v5.48c0 1.27-.58 2.52-2 2.52-1.45 0-2-1.24-2-2.52V24h1v5.48c0 .68.18 1.52 1 1.52.81 0 1-.84 1-1.52V24ZM20 24h1.88c1.37 0 1.91 1.19 1.91 2.41 0 .9-.28 2-1.16 2.4l-.3.19h-1.6l.03-1h1.12c.7 0 .87-.95.87-1.52 0-.59-.15-1.48-.87-1.48H21v7h-1v-8Zm2.9 8-1.19-3.5h1.08L24 32h-1.1ZM15.56 32h-1.1v-1h1.1c1.23 0 1.44-1.42 1.44-2.4v-1.3c0-.93-.2-2.3-1.4-2.3h-1.17v-1h1.17c1.8 0 2.4 1.85 2.4 3.36v1.29c0 1.55-.62 3.35-2.44 3.35ZM15 24v8h-1v-8h1Z" fill="#3B5998"/><path d="M42.56 41h-1.1v-1h1.1c1.23 0 1.44-1.36 1.44-2.35v-1.3c0-.96-.19-2.35-1.4-2.35h-1.17v-1h1.17c1.8 0 2.4 1.85 2.4 3.36v1.29c0 1.55-.62 3.35-2.44 3.35ZM42 33v8h-1v-8h1ZM39 40v1h-3.32v-1H39Zm-3-7v8h-1v-8h1Zm3 3.5v1h-3.5v-1H39Zm0-3.5v1h-3.32v-1H39ZM32 33v8h-1v-8h1Zm2 0v1h-5v-1h5ZM28 33v8h-1v-8h1ZM19.39 33h1.04L22 38.95 23.57 33h.96l-2.1 8h-.86l-2.18-8ZM19 33h1v8h-1v-8Zm5 0h1v8h-1v-8ZM17 33v8h-1v-8h1ZM15 40v1h-3.33v-1H15Zm-3-7v8h-1v-8h1Z"/></svg>