<!-- by TradingView --><svg width="56" height="56" viewBox="0 0 56 56" xmlns="http://www.w3.org/2000/svg"><path fill="#F0F3FA" d="M0 0h56v56H0z"/><path fill-rule="evenodd" d="M11 17c0-.67.4-2 1.99-2h2.98c.34 0 1.1.2 1.5 1 .16-.34.8-1 1.99-1h5.47c.5 0 1.7.4 2.5 2l.99 1.98 2-2.98c.32-.34 1.29-1 2.48-1h4.48c.5 0 1.7.5 2.49 2.49l1.5 2.99c.33.66.69 2.48-.5 4.48l-2 3.48c-.16.5-.8 1.5-1.99 1.5H33.9c-.5 0-1.4-.3-1-1.5.4-1.2 1.83-4.15 2.49-5.48.17-.33.4-1.19 0-1.99-.5-1-1-1.49-1.5-.5l-2.98 5.98c-.66 1.5-1 4.68 2.99 5.47 3.02.6 4.39-.8 5.66-2.12.83-.85 1.62-1.66 2.8-1.86 2.06-.34 2.23.5 2.46 1.72.1.54.22 1.15.53 1.77 1 1.99 1 3.98-1 4.97-.94.47-1.77.61-2.49.73-.8.13-1.46.24-1.99.77-.5.5-1 .5-1.5.5s-.99 0-1.49.5c-.56.56-1.12.32-1.87.01-.57-.23-1.25-.51-2.11-.51-1.2 0-2.22.9-3.27 1.83-.7.62-1.41 1.25-2.2 1.65-1.06.53-1.41.77-1.81.9-.36.1-.74.1-1.68.1-.5 0-1.01.03-1.51.06-1.46.1-2.85.18-3.97-.56-.74-.5-1-.75-1.3-1.06a13.4 13.4 0 0 0-1.68-1.43l-.81-.59c-2-1.43-4.67-3.33-4.67-6.38 0-1.89.3-2.46.56-2.99.23-.44.44-.85.44-1.99V17Zm1.49 12c-.4 0-.5-.4-.5-.56V16.99c0-.8.67-1 1-1h2.98v4.49l2-3c.8-1.19 1.65-1.48 1.99-1.48h4.97c.8 0 1.33.66 1.5 1 .5 1.32 1.6 3.97 1.99 3.97.5 0 2-2.98 2.49-3.98.4-.8 1.16-1 1.5-1h4.47c.8 0 1.33.67 1.5 1l1.99 3.98c.4.8.16 2 0 2.5-.5 1.15-1.6 3.68-2 4.47-.4.8-1.16 1.06-1.49 1.06H34.9c-.8 0-.66-.73-.5-1.06.67-1.5 2.1-4.68 2.5-5.47.4-.8.16-1.33 0-1.5-.17-.33-.7-1.3-1.5-2.49-.8-1.19-1.33-.5-1.5 0l-4.47 8.96c-.8 1.6-1.66 1-2 .5L22.45 17.5l-3 4.48c.67 1.66 2.2 5.18 3 5.97.8.8.33 1.06 0 1.06h-2.5c-.79 0-.99-.4-.99-.56l-2.99-4.98v4.98c0 .4-.33.56-.5.56H12.5Zm-1.5 3.42c0-1.99 2.33-2.49 3.49-2.49.7-.1 1.53.12 2.3.32.86.23 1.66.44 2.18.18 1-.5 1.5-.5 2.99 0 .84.28 1.2.09 1.63-.13.33-.18.7-.37 1.35-.37.83 0 1.2.46 1.53.86.27.33.52.64.96.64.67 0 .89-.45 1.11-.89.11-.22.22-.44.39-.6.31-.32.82.74 1.28 1.7.27.56.52 1.1.7 1.28.14.13.24.33.35.56.3.62.68 1.43 2.15 1.43 1.33 0 1.55-.22 1.99-.66.22-.22.5-.5 1-.83.74-.5 1.12-.5 1.43-.5.3 0 .56 0 1.05-.5 1-1 3-1.99 3.99-1.99.68 0 .9.71 1.13 1.48.1.35.2.7.36 1.01.5 1 .5 1.5-.5 2.49-.72.72-2.48 1.18-3.96 1.57-.57.14-1.1.28-1.51.42-.38.12-.63.22-.81.29-.2.07-.33.12-.46.15-.24.06-.5.06-1.22.06-.7 0-.96-.1-1.24-.22-.33-.14-.68-.28-1.75-.28-2 0-3.48 1.5-4.48 2.49a8.88 8.88 0 0 1-2.71 1.63l-.78.36c-.66.33-1.77.22-2.87.11-.55-.05-1.1-.11-1.6-.11-1.22 0-2.44-1.32-3.38-2.35l-.6-.64c-.6-.58-1.52-1-2.28-1.33a4.8 4.8 0 0 1-1.21-.66c-.5-.5-2-1.99-2-4.48Zm9.96-9.95 2.5 4.48c.16.33.59 1.05.99 1.05h1.5c.32 0 .89-.16.49-.56l-3.49-7.46c-.16-.33-.6-.8-1 0-.15.31-.36.59-.55.85-.42.55-.78 1.02-.44 1.64Z" fill="#D7021C"/></svg>