<!-- by TradingView --><svg width="56" height="56" viewBox="0 0 56 56" xmlns="http://www.w3.org/2000/svg"><path fill="#F0F3FA" d="M0 0h56v56H0z"/><path d="m26 38 5-20h17l-1 5H35.5L33 33h12l-1 5H26Z" fill="#E62926"/><path d="M13 18h6l-.25 1h-6l.25-1Zm-.5 2-.25 1h6l.25-1h-6Zm11.3 0-.85 1h5.46l.86-1H23.8Zm6.34-1 .86-1h-5.5l-.85 1h5.49Zm-2.6 3H22.1l-.85 1h5.43l.87-1Zm-1.72 2H20.4l-.85 1h5.4l.87-1Zm-1.73 2H18.7l-.85 1h5.38l.86-1Zm-1.73 2H17l.35 1h4.15l.86-1ZM22 30h-4.3l.35 1h4.45l-.5-1Zm1 2h-4.6l.7 2H24l-1-2Zm1.5 3h-5.05l.35 1H25l-.5-1Zm1 2h-5.35l.35 1H26l-.5-1Zm-11-1 .25-1h-6l-.25 1h6Zm-6.25 1h6L14 38H8l.25-1ZM9 34h6l.5-2h-6L9 34Zm.75-3h6l.25-1h-6l-.25 1Zm.5-2h6l.25-1h-6l-.25 1Zm.5-2h6l.25-1h-6l-.25 1Zm.5-2h6l.25-1h-6l-.25 1Zm.5-2h6l.25-1h-6l-.25 1Z" fill="#EE6D64"/><path d="M25.5 18H31l-.25 1h-5.5l.25-1Zm-.5 2-.25 1h5.5l.25-1H25Zm5 2h-5.5l-.25 1h5.5l.25-1Zm-.5 2H24l-.25 1h5.5l.25-1Zm-.5 2h-5.5l-.25 1h5.5l.25-1Zm-.5 2H23l-.25 1h5.5l.25-1Zm-.5 2h-5.5l-.25 1h5.5l.25-1Zm-.5 2H22l-.5 2H27l.5-2Zm-.75 3h-5.5L21 36h5.5l.25-1Zm-.5 2h-5.5l-.25 1H26l.25-1Z" fill="#E62926"/><path d="m44.4 36-.2 1H26.25l.25-1h17.9Zm.4-2-.2 1H26.75l.25-1h17.8Zm-11.3-3-.25 1H27.5l.25-1h5.75Zm.5-2-.25 1H28l.25-1H34Zm.5-2-.25 1H28.5l.25-1h5.75Zm.5-2-.25 1H29l.25-1H35Zm12.4-4-.2 1H30l.25-1H47.4Zm.4-2-.2 1H30.5l.25-1H47.8Zm-18.3 5 .25-1h5.75l-.25 1H29.5Z" fill="#EE6D64"/></svg>