<!-- by TradingView --><svg width="56" height="56" viewBox="0 0 56 56" xmlns="http://www.w3.org/2000/svg"><path fill="#F0F3FA" d="M0 0h56v56H0z"/><path fill-rule="evenodd" d="M35.5 27.13a8.34 8.34 0 0 0-.06-1.1 9.1 9.1 0 0 1 4.83 3.46c-.1.49-.2.97-.35 1.44a7.92 7.92 0 0 0-4.42-3.8Zm-.58.98A6.74 6.74 0 0 0 35 27v-.03a8.07 8.07 0 0 0-.7-3.24v-.02a7.99 7.99 0 0 0-1.19-1.87 8.04 8.04 0 0 0-5.9-2.84 8.34 8.34 0 0 0-2.4.3 7.94 7.94 0 0 0-2.44 1.17 8.05 8.05 0 0 0-3.25 7.95 7.94 7.94 0 0 0 .7 2.1l.01.04a8 8 0 0 0 5.07 4.16 7.97 7.97 0 0 0 8.21-2.56 8.02 8.02 0 0 0 1.81-4.05Zm.21 1.37c.1-.35.2-.71.26-1.08a9.07 9.07 0 0 1 3.66 4.68c-.22.45-.46.87-.73 1.28a7.9 7.9 0 0 0-3.19-4.88Zm-.46 1.2c-.16.33-.34.65-.55.96a7.88 7.88 0 0 1 1.68 5.6c.38-.33.74-.67 1.08-1.04a9.04 9.04 0 0 0-2.21-5.53Zm2.23 6.22A14.08 14.08 0 0 1 27 41l-.9-.03h-.08a14.03 14.03 0 0 1-3.83-.82l-.04-.01a13.93 13.93 0 0 1-6.27-4.63 14.03 14.03 0 0 1-1.9-3.38c-.02-.01-.02-.03-.03-.05a13.9 13.9 0 0 1-.9-3.82 14.17 14.17 0 0 1-.05-1.54 13.9 13.9 0 0 1 1.53-6.1 14.07 14.07 0 0 1 2.27-3.21 14.05 14.05 0 0 1 3.08-2.46 13.96 13.96 0 0 1 3.62-1.5l.03-.02a13.96 13.96 0 0 1 12.2 2.62 14.1 14.1 0 0 1 4.48 6.3 13.89 13.89 0 0 1 .47 7.64 13.92 13.92 0 0 1-3.78 6.91Zm3.6-9.72a13.64 13.64 0 0 0-.06-1.47 9.12 9.12 0 0 0-5.6-1.98c.15.34.27.69.37 1.05 1.6.1 3.6.66 5.29 2.4Zm-6.23-4.59a7.95 7.95 0 0 1 5.76.85c-.13-.48-.29-.94-.47-1.4a9.13 9.13 0 0 0-5.92-.35c.23.29.44.59.63.9Zm-1.5-1.83a7.95 7.95 0 0 1 5.76-.78c-.25-.42-.53-.82-.83-1.21a9.12 9.12 0 0 0-5.79 1.3c.3.2.59.44.86.69Zm-1.95-1.36a7.94 7.94 0 0 1 5.32-2.34c-.36-.33-.74-.64-1.13-.93a9.1 9.1 0 0 0-5.21 2.84c.35.12.69.27 1.02.43Zm-2.26-.76a7.91 7.91 0 0 1 4.48-3.72c-.44-.22-.89-.41-1.35-.58a9.06 9.06 0 0 0-4.24 4.17c.38.02.75.07 1.1.13Zm-2.39-.1a7.89 7.89 0 0 1 3.28-4.82 13.5 13.5 0 0 0-1.47-.18 9.04 9.04 0 0 0-2.9 5.18c.35-.08.72-.14 1.1-.18Zm-2.94.84a7.87 7.87 0 0 1 1.37-5.67c-.5.1-.97.2-1.44.34a9.01 9.01 0 0 0-.9 5.89c.32-.2.64-.4.97-.56Zm-1.97 1.35a7.86 7.86 0 0 1-.27-5.82c-.44.22-.87.46-1.29.73-.5 2.36.07 4.41.79 5.9.24-.29.5-.56.77-.8Zm-1.52 1.85a7.87 7.87 0 0 1-1.88-5.51c-.37.33-.71.68-1.03 1.06.17 2.4 1.29 4.2 2.4 5.43.14-.34.32-.67.5-.98Zm-.95 2.2A7.9 7.9 0 0 1 15.45 20c-.25.42-.48.86-.7 1.3a9.05 9.05 0 0 0 3.83 4.56c.05-.37.12-.73.21-1.09Zm-4.83-1.3a7.9 7.9 0 0 0 4.54 3.67c0 .37.04.74.1 1.1a9.07 9.07 0 0 1-4.94-3.31c.07-.5.17-.98.3-1.45Zm4.91 6.02a7.93 7.93 0 0 1-5.37-2.25c.01.5.05.99.1 1.47a9.09 9.09 0 0 0 5.67 1.82 8.44 8.44 0 0 1-.4-1.04Zm1.03 2.17c-1.58.4-3.66.47-5.8-.68.14.47.32.93.51 1.38a9.1 9.1 0 0 0 5.95.18 8.53 8.53 0 0 1-.66-.88Zm1.58 1.8a7.93 7.93 0 0 1-5.77.94c.28.41.57.81.88 1.2 2.4.22 4.39-.59 5.78-1.48-.31-.2-.6-.42-.89-.66Zm2.03 1.28a7.92 7.92 0 0 1-5.29 2.5c.38.33.77.63 1.18.9a9.06 9.06 0 0 0 5.15-3c-.36-.12-.7-.25-1.04-.4Zm2.31.67a7.9 7.9 0 0 1-4.4 3.88c.46.2.92.38 1.4.54a9.04 9.04 0 0 0 4.11-4.34c-.38 0-.75-.03-1.11-.08Zm2.4 0a7.88 7.88 0 0 1-3.13 4.95c.49.06.98.1 1.48.12a9.02 9.02 0 0 0 2.74-5.3c-.35.1-.71.17-1.09.22Zm2.3-.69a7.87 7.87 0 0 1-1.61 5.64c.5-.07.98-.17 1.46-.3a9.01 9.01 0 0 0 1.14-5.86c-.31.2-.64.37-.98.52Zm2.03-1.3c.59 1.53.93 3.58.03 5.87.46-.21.9-.44 1.32-.7.61-2.34.1-4.43-.56-5.94-.24.28-.51.54-.8.78Z" fill="#377B4C"/><path d="m21 37.6.39-.2c.72-.38 2-1.15 3.37-2.2l.9-.7c1.7-1.33 3.17-2.5 4.96-2.5 1.77 0 4.57 2.1 6.3 3.4l.05.04.76.56a8.01 8.01 0 0 0 4.6 1.6 2.28 2.28 0 0 0 1.24-.35c.23-.16.37-.33.43-.45 0 .2 0 .42-.02.65-.05.74-.19 1.62-.45 2.48v.02c-.17.55-.38 1.09-.66 1.6a5.82 5.82 0 0 1-.73 1.04A4.06 4.06 0 0 1 38.98 44c-2.83 0-4.06-1.4-5.2-2.7l-.33-.36c-.77-.85-1.56-1.59-2.83-1.74a10.71 10.71 0 0 0-2.7.03c-.42.06-.78.15-1.1.23-.33.08-.62.15-.92.2a3.05 3.05 0 0 1-1.13-.05v-.01a8.88 8.88 0 0 1-2.5-1.03 7.89 7.89 0 0 1-.59-.4l-.03-.02a7.45 7.45 0 0 1-.65-.55Zm1.07.35.37.26 2.85-1.64c.76-.44 1.42-.98 2.04-1.5.24-.2.47-.39.7-.56.83-.65 1.62-1.11 2.59-1.11.22 0 .5.07.83.2.33.14.7.34 1.1.58.66.4 1.4.92 2.18 1.45l.47.33c.94.65 1.92 1.3 2.84 1.8.92.5 1.83.84 2.61.84a4.8 4.8 0 0 0 2.88-.86 2.71 2.71 0 0 1-1.42.26 5 5 0 0 1-1.46.2c-.67 0-1.5-.3-2.4-.79-.9-.48-1.86-1.12-2.8-1.77l-.47-.33a42.94 42.94 0 0 0-2.21-1.47c-.41-.24-.8-.45-1.16-.6-.35-.15-.69-.24-1-.24-1.11 0-2 .54-2.84 1.2l-.75.6c-.6.5-1.22 1.01-1.95 1.43l-3 1.72Zm21.46-.15c-.11.16-.24.32-.38.47a3.31 3.31 0 0 1-2.5 1.13c-.67 0-1.5-.3-2.4-.79a30.03 30.03 0 0 1-3.27-2.1 42.93 42.93 0 0 0-2.21-1.47c-.41-.24-.8-.45-1.16-.6-.35-.15-.69-.24-1-.24-1.1 0-1.99.48-2.68 1.02-.35.27-.66.56-.93.81l-.03.03c-.26.25-.47.45-.66.58-.47.34-1.46.8-2.47 1.24l-.69.3-.43.2.46.23.13-.06.7-.3c1-.45 2.04-.92 2.55-1.29.21-.15.44-.37.69-.6l.05-.05c.26-.25.56-.52.89-.78a3.93 3.93 0 0 1 2.43-.93c.22 0 .5.07.83.2.33.14.7.34 1.1.58.66.4 1.4.92 2.18 1.45l.47.33c.94.65 1.92 1.3 2.84 1.8.92.5 1.83.84 2.61.84 1.22 0 2.13-.54 2.77-1.22.05-.27.08-.53.1-.78Zm-.14.97-.19.33c-.53.86-1.3 1.5-2.55 1.5-.78 0-1.71-.3-2.7-.8-.99-.47-2.01-1.12-2.98-1.76l-1.33-.92-1.28-.87c-.37-.25-.7-.46-.99-.6a1.81 1.81 0 0 0-.75-.25 3.4 3.4 0 0 0-1.84.58c-.4.24-.82.55-1.3.91l-.75.55c-.8.57-1.94 1.07-2.93 1.44.2.08.4.14.6.2a12.63 12.63 0 0 0 3.35-1.89c.48-.35.88-.64 1.26-.87a2.98 2.98 0 0 1 1.6-.52c.1 0 .29.06.56.2.27.14.59.33.96.58l1.26.86 1.34.92c.97.66 2.01 1.31 3.03 1.8 1 .5 2 .84 2.9.84.8 0 1.45-.24 1.95-.62a4.72 4.72 0 0 1-2.4 1.42 2.6 2.6 0 0 1-1.02-.08 8 8 0 0 1-1.3-.48 25.87 25.87 0 0 1-2.98-1.66 99.14 99.14 0 0 1-2.67-1.74 17.34 17.34 0 0 0-1.32-.77.83.83 0 0 0-.3-.07h-.01c-.42 0-.76 0-1.22.16-.44.16-.99.48-1.82 1.08-.6.43-1.23.77-1.79 1.02.29-.03.58-.1.94-.19l.24-.06.27-.06c.2-.12.4-.25.59-.39a7.6 7.6 0 0 1 1.72-1.02c.38-.14.66-.14 1.08-.14h.04l.1.04.3.16c.25.13.57.33.94.57l.89.58c.55.36 1.16.77 1.8 1.17 1 .62 2.05 1.24 3.01 1.68.49.22.95.4 1.38.5.43.11.84.15 1.2.1a5 5 0 0 0 2.5-1.41 9.5 9.5 0 0 0 .6-2.02Zm-1.46 3.43c-.97.54-2.07.8-2.95.8-.57 0-1.28-.28-2.08-.72-.8-.45-1.63-1.04-2.44-1.64l-.81-.6c-.51-.39-1-.75-1.43-1.05a8.7 8.7 0 0 0-.88-.56c-.26-.13-.5-.23-.72-.23-.3 0-.65.1-1.02.23-.22.08-.45.18-.68.3.31-.02.65-.02 1.03 0 .27-.08.5-.13.67-.13.1 0 .27.05.51.18l.36.21c.91.31 1.57.92 2.16 1.56l.55.4c.81.6 1.67 1.22 2.49 1.67.8.46 1.6.78 2.3.78.59 0 1.28-.1 1.97-.34.37-.23.7-.52.97-.86Z" fill="#377B4C"/><path fill-rule="evenodd" d="M21.46 28h1.92l.15-.4h.44l.15.4H25l-.86-2h-.79l-.84 1.97-.96-1.05L22.6 26h-1.12l-.58.5V26H20v2h.9v-.62l.56.62Zm.67-1.83-.84.73.85.93h-.58l-.64-.7-.21.1v.6h-.52v-1.66h.52v.76a8.6 8.6 0 0 0 .2-.19l.65-.57h.57Zm2.13 1.66-.14-.4h-.74l-.14.4h-.46l.7-1.66h.53l.71 1.66h-.46Zm-.52-1.23v-.02l.02.02v.02c.03.03.06.1.1.17l.02.04.08.17h-.41l.07-.17.02-.04c.04-.07.07-.14.1-.17v-.02Zm2.15-.6H25v2h1.85v-.75h-.96V26Zm-.2.17v1.25h.96v.41H25.2v-1.66h.5Zm6.9 1.66-.24-1.25v1.25h-.49v-1.66h.67l.3 1.25.32-1.25h.66v1.66h-.5v-1.25l-.23 1.25h-.49Zm.1-1.83.15.62L33 26h1v2h-2.33v-2h1.02Zm-5.41 2v-2h.89v1.25h.95V28h-1.84Zm.7-.58v-1.25h-.5v1.66h1.45v-.41h-.96Zm3.67.58h-.88l-.14-.4h-.45l-.15.4h-.88l.85-2h.8l.85 2Zm-1.61-.56h.73l.15.4h.45l-.7-1.67h-.53l-.7 1.66h.45l.15-.4Zm.36-.86v.02l-.01.02-.1.17-.01.04a5.5 5.5 0 0 0-.08.17h.4a5.25 5.25 0 0 0-.07-.17l-.02-.04a7.8 7.8 0 0 0-.09-.17v-.02l-.02-.02Z" fill="#377B4C"/></svg>