<!-- by TradingView --><svg width="56" height="56" viewBox="0 0 56 56" xmlns="http://www.w3.org/2000/svg"><path fill="#F0F3FA" d="M0 0h56v56H0z"/><path fill-rule="evenodd" d="M25 11v1h6v-1h-6Zm11 2H20l4.44 13H27v1h2v-1h2.56L36 13Zm-4 5.6V15h-5.47c-.85 0-2.53.81-2.53 2.25 0 1.8 1.68 3.15 2.95 3.6.34.12.67.2.99.3.86.21 1.53.4 1.53 1.05 0 .9-.84.9-1.68.9s-1.68-.45-1.68-1.8h-1.69V24h5.47c.7 0 2.11-.45 2.11-2.25 0-1.27-1.74-2.1-3.26-2.84-1.17-.57-2.21-1.07-2.21-1.66 0-.3.25-1.35 1.26-1.35 1.26 0 2.53.45 2.53 2.7H32ZM43.88 35.49l-.77-.45-2.64 4.65.76.44 2.65-4.64Zm-6.83 8.4L45 29.94l-13.68-2.83-1.33 2.32-.76-.45-.89 1.55.77.45-1.33 2.32 9.27 10.59Zm3.63-10.62c-.1-.58-.46-1.05-1.09-1.42-.32-.19-.67-.3-1.06-.32-.4-.02-.77.1-1.13.34l-.13-.08c.04-.42-.04-.8-.23-1.13-.2-.32-.5-.6-.9-.84a2.29 2.29 0 0 0-.68-.27 1.92 1.92 0 0 0-1.48.3l-.09-.04.28-.98-1.15-.68-3.8 6.7 1.52.88 1.78-3.15c.27-.47.53-.85.78-1.14.26-.3.52-.48.77-.55a1 1 0 0 1 .8.13c.2.12.33.26.39.44s.06.4 0 .65c-.07.25-.19.53-.37.85l-2.22 3.9 1.51.9 1.9-3.36a3.9 3.9 0 0 1 1.1-1.33c.36-.25.75-.26 1.15-.02a.8.8 0 0 1 .42.73c0 .33-.14.73-.41 1.2l-2.22 3.91 1.52.9 2.47-4.37c.49-.86.68-1.57.57-2.15Z" fill="#DA251C"/><path d="M18.34 43.21 11 29.83l9.82-2.12c-1.56.85-2.48 2.9-2.75 3.87l-.89-1.34-2.2 1.79 4.41 7.15 2.21-1.34-.88-1.34a6.35 6.35 0 0 0 3.89-.72l-6.27 7.43Zm7.03-8.34 1.53-1.82-1.22-2.23.7-.43-.81-1.48-.7.43-1.23-2.23-2.43.52 1.72 2.6-1.33.9-1.33-.9a2.77 2.77 0 0 0-.44 3.14c.77 1.55 1.87 1.08 3.6.35.25-.12.53-.23.82-.35l1.12 1.5Zm-13.34.28.71-.43 2.45 4.46-.7.43-2.46-4.46ZM25.94 37l1.4-1.84L28.91 37h-2.97Zm-.77 1-.76 1h6.2l-.84-1h-4.6Zm6.3 2h-7.82l-.76 1h9.43l-.85-1Zm1.7 2H22.13l-.76 1h12.67l-.85-1Zm1.71 2H20.6l-.77 1h15.9l-.85-1ZM22.95 25.32l.42 1.07-1.13.23.71-1.3ZM22.54 24.24l-.42-1.07-2.13 3.9 1.13-.22 1.42-2.6ZM18.87 27.3l2.83-5.2-.41-1.08-3.54 6.5 1.12-.22ZM16.62 27.76l4.25-7.81-.41-1.08-4.96 9.11 1.12-.22ZM14.37 28.21l5.67-10.41-.41-1.07-6.38 11.7 1.12-.22ZM12.12 28.67l7.1-13.02-.42-1.07L11 28.89l1.12-.22ZM32.62 25.32l-.42 1.07 1.12.23-.7-1.3ZM33.03 24.24l.42-1.07 2.12 3.9-1.12-.22-1.42-2.6ZM36.7 27.3l-2.84-5.2.42-1.08 3.54 6.5-1.12-.22ZM38.95 27.76l-4.26-7.81.42-1.08 4.96 9.11-1.12-.22ZM41.2 28.21 35.51 17.8l.42-1.07 6.38 11.7-1.13-.22ZM43.44 28.67l-7.08-13.02.41-1.07 7.8 14.31-1.13-.22Z" fill="#DA251C"/></svg>