<!-- by TradingView --><svg width="56" height="56" viewBox="0 0 56 56" xmlns="http://www.w3.org/2000/svg"><path fill="#716E51" d="M0 0h56v56H0z"/><path d="M21 43.72V12.17c0-.13-.16-.22-.28-.14l-2.64 1.51a.17.17 0 0 0-.08.15v27.76c0 .05.02.09.05.12l2.64 2.27c.12.11.31.03.31-.12ZM22 26.28v-14.1c0-.13.16-.22.28-.13l3.25 1.93c.05.03.07.08.08.13l.4 4.4c.02.15.18.21.3.13l7.02-4.62a.18.18 0 0 1 .1-.04h3.07c.16 0 .24.2.12.3L22.3 26.42c-.11.1-.3.03-.3-.13ZM41.82 27H23.86c-.16 0-.24-.2-.11-.3l14.96-11.26c.11-.09.29 0 .29.14v3.92c0 .05-.02.1-.05.12l-4.58 4.08c-.1.11-.03.3.13.3h5.28c.06 0 .12.03.15.08l2.04 2.65c.08.12 0 .27-.15.27ZM41.79 29H23.84c-.17 0-.24.2-.12.3L38.7 41.05c.12.1.3.02.3-.13V37a.17.17 0 0 0-.04-.11l-4.6-4.6c-.1-.12-.01-.29.14-.29h4.9c.05 0 .1-.03.14-.07l2.39-2.65c.09-.12 0-.28-.14-.28ZM22 43.83V29.7c0-.16.19-.24.3-.13L36.57 41.7c.12.1.04.3-.12.3H32.5a.18.18 0 0 1-.12-.04l-6.04-4.55c-.11-.1-.3-.02-.3.13v4.32c0 .06-.02.12-.08.15l-3.69 1.96c-.12.08-.27 0-.27-.14Z" fill="#fff"/></svg>