<!-- by TradingView --><svg width="56" height="56" viewBox="0 0 56 56" xmlns="http://www.w3.org/2000/svg"><path fill="#F0F3FA" d="M0 0h56v56H0z"/><path d="M43 35.05c0 .4-.1.75-.27 1.05-.18.29-.44.51-.78.67-.34.15-.74.23-1.2.23a4.92 4.92 0 0 1-1.25-.16 3.05 3.05 0 0 1-.5-.2v-1.06c.25.13.54.24.85.33.31.1.63.15.96.15.26 0 .48-.04.66-.11.17-.08.3-.19.39-.33.08-.14.13-.3.13-.5s-.05-.37-.15-.5c-.1-.15-.25-.28-.46-.4l-.75-.37c-.2-.09-.4-.2-.59-.3a2.43 2.43 0 0 1-.5-.41 1.76 1.76 0 0 1-.46-1.3c0-.39.08-.72.25-1 .17-.27.4-.48.72-.62.3-.15.67-.22 1.08-.22a3.67 3.67 0 0 1 1.78.43l-.32.9c-.26-.12-.51-.2-.75-.28-.24-.07-.49-.1-.74-.1-.21 0-.4.04-.55.1a.79.79 0 0 0-.34.31.87.87 0 0 0-.12.46c0 .2.04.36.13.5.1.13.23.26.42.37l.74.37c.34.16.63.32.87.49.24.17.43.37.56.61.13.24.19.54.19.9Z" fill="url(#a)"/><path d="M34 37v-7h1v6h3v1h-4Z" fill="url(#b)"/><path d="M33 37h-4v-7h4v1h-3v2h3v1h-3v2h3v1Z" fill="url(#c)"/><path d="M28 37h-4v-7h4v1h-3v2h3v1h-3v2h3v1Z" fill="url(#d)"/><path d="M21 37h-1v-6h-2v-1h5v1h-2v6Z" fill="url(#e)"/><path d="M17 35.05c0 .4-.1.75-.27 1.05-.18.29-.44.51-.78.67-.34.15-.74.23-1.2.23a4.92 4.92 0 0 1-1.25-.16 3.05 3.05 0 0 1-.5-.2v-1.06c.25.13.54.24.85.33.31.1.63.15.96.15.26 0 .48-.04.66-.11.17-.08.3-.19.39-.33.08-.14.13-.3.13-.5s-.05-.37-.15-.5c-.1-.15-.25-.28-.46-.4l-.75-.37c-.2-.09-.4-.2-.59-.3a2.43 2.43 0 0 1-.5-.41 1.76 1.76 0 0 1-.46-1.3c0-.39.08-.72.25-1 .17-.27.4-.48.72-.62.3-.15.67-.22 1.08-.22a3.67 3.67 0 0 1 1.78.43l-.32.9c-.26-.12-.51-.2-.75-.28-.24-.07-.49-.1-.74-.1-.21 0-.4.04-.55.1a.79.79 0 0 0-.34.31.87.87 0 0 0-.12.46c0 .2.04.36.13.5.1.13.23.26.42.37l.74.37c.34.16.63.32.87.49.24.17.43.37.56.61.13.24.19.54.19.9Z" fill="url(#f)"/><path d="M48 28h-1.24l-2.04-3.18-.72.56V28h-1v-7h1v3.35c.13-.18.34-.35.48-.52l.4-.52L46.73 21h1.21l-2.45 3.06L48 28Z" fill="url(#g)"/><path d="M42 28h-1v-3h-3v3h-1v-7h1v3h3v-3h1v7Z" fill="url(#h)"/><path d="M35 26.05c0 .4-.1.75-.27 1.05-.18.29-.44.51-.78.67-.34.15-.74.23-1.2.23a4.92 4.92 0 0 1-1.25-.16 3.05 3.05 0 0 1-.5-.2v-1.06c.25.13.54.24.85.33.31.1.63.15.96.15.26 0 .48-.04.66-.11.17-.08.3-.19.39-.33.08-.14.13-.3.13-.5s-.05-.37-.15-.5c-.1-.15-.25-.28-.46-.4l-.75-.37c-.2-.09-.4-.2-.59-.3a2.43 2.43 0 0 1-.5-.41 1.76 1.76 0 0 1-.46-1.3c0-.39.08-.72.25-1 .17-.27.4-.48.72-.62.3-.15.67-.22 1.08-.22a3.67 3.67 0 0 1 1.78.43l-.32.9c-.26-.12-.51-.2-.75-.28-.24-.07-.49-.1-.74-.1-.21 0-.4.04-.55.1a.79.79 0 0 0-.34.31.87.87 0 0 0-.12.46c0 .2.04.36.13.5.1.13.23.26.42.37l.74.37c.34.16.63.32.87.49.24.17.43.37.56.61.13.24.19.54.19.9Z" fill="url(#i)"/><path d="M29 28v-7h1v7h-1Z" fill="url(#j)"/><path d="M27 28h-1.45l-3.57-5.59L22 28h-1v-7h1.44L26 26.5V21h1v7Z" fill="url(#k)"/><path d="m18.87 28-.64-2h-2.47l-.64 2H14l2.41-7h1.18L20 28h-1.13Zm-.91-3c-.34-1-.96-3-.96-3s-.6 2-.95 3h1.91Z" fill="url(#l)"/><path d="M13 28h-1.24l-2.04-3.18-.72.56V28H8v-7h1v3.35c.13-.18.34-.35.48-.52l.4-.52L11.73 21h1.21l-2.45 3.06L13 28Z" fill="url(#m)"/><defs><linearGradient id="a" x1="40.79" y1="31.15" x2="40.79" y2="37.49" gradientUnits="userSpaceOnUse"><stop stop-color="#D44826"/><stop offset=".52" stop-color="#D15539"/><stop offset="1" stop-color="#B02401"/></linearGradient><linearGradient id="b" x1="35.79" y1="31.15" x2="35.79" y2="37.49" gradientUnits="userSpaceOnUse"><stop stop-color="#D44826"/><stop offset=".52" stop-color="#D15539"/><stop offset="1" stop-color="#B02401"/></linearGradient><linearGradient id="c" x1="30.79" y1="31.15" x2="30.79" y2="37.49" gradientUnits="userSpaceOnUse"><stop stop-color="#D44826"/><stop offset=".52" stop-color="#D15539"/><stop offset="1" stop-color="#B02401"/></linearGradient><linearGradient id="d" x1="25.79" y1="31.15" x2="25.79" y2="37.49" gradientUnits="userSpaceOnUse"><stop stop-color="#D44826"/><stop offset=".52" stop-color="#D15539"/><stop offset="1" stop-color="#B02401"/></linearGradient><linearGradient id="e" x1="20.24" y1="31.15" x2="20.24" y2="37.49" gradientUnits="userSpaceOnUse"><stop stop-color="#D44826"/><stop offset=".52" stop-color="#D15539"/><stop offset="1" stop-color="#B02401"/></linearGradient><linearGradient id="f" x1="14.79" y1="31.15" x2="14.79" y2="37.49" gradientUnits="userSpaceOnUse"><stop stop-color="#D44826"/><stop offset=".52" stop-color="#D15539"/><stop offset="1" stop-color="#B02401"/></linearGradient><linearGradient id="g" x1="45.63" y1="21.97" x2="45.63" y2="27.82" gradientUnits="userSpaceOnUse"><stop stop-color="#DC5536"/><stop offset=".22" stop-color="#E76F52"/><stop offset=".48" stop-color="#B7482D"/><stop offset="1" stop-color="#841905"/></linearGradient><linearGradient id="h" x1="39.63" y1="21.97" x2="39.63" y2="27.82" gradientUnits="userSpaceOnUse"><stop stop-color="#DC5536"/><stop offset=".22" stop-color="#E76F52"/><stop offset=".48" stop-color="#B7482D"/><stop offset="1" stop-color="#841905"/></linearGradient><linearGradient id="i" x1="33.1" y1="21.97" x2="33.1" y2="27.82" gradientUnits="userSpaceOnUse"><stop stop-color="#DC5536"/><stop offset=".22" stop-color="#E76F52"/><stop offset=".48" stop-color="#B7482D"/><stop offset="1" stop-color="#841905"/></linearGradient><linearGradient id="j" x1="29.52" y1="21.97" x2="29.52" y2="27.82" gradientUnits="userSpaceOnUse"><stop stop-color="#DC5536"/><stop offset=".22" stop-color="#E76F52"/><stop offset=".48" stop-color="#B7482D"/><stop offset="1" stop-color="#841905"/></linearGradient><linearGradient id="k" x1="24.15" y1="21.97" x2="24.15" y2="27.82" gradientUnits="userSpaceOnUse"><stop stop-color="#DC5536"/><stop offset=".22" stop-color="#E76F52"/><stop offset=".48" stop-color="#B7482D"/><stop offset="1" stop-color="#841905"/></linearGradient><linearGradient id="l" x1="17.15" y1="21.97" x2="17.15" y2="27.82" gradientUnits="userSpaceOnUse"><stop stop-color="#DC5536"/><stop offset=".22" stop-color="#E76F52"/><stop offset=".48" stop-color="#B7482D"/><stop offset="1" stop-color="#841905"/></linearGradient><linearGradient id="m" x1="10.63" y1="21.97" x2="10.63" y2="27.82" gradientUnits="userSpaceOnUse"><stop stop-color="#DC5536"/><stop offset=".22" stop-color="#E76F52"/><stop offset=".48" stop-color="#B7482D"/><stop offset="1" stop-color="#841905"/></linearGradient></defs></svg>