<!-- by TradingView --><svg width="56" height="56" viewBox="0 0 56 56" xmlns="http://www.w3.org/2000/svg"><path fill="#F9D3D0" d="M0 0h56v56H0z"/><path fill-rule="evenodd" d="M4 36V20h48v16H5V20.77h23.22v14.17h22.81V21.05h.27v14.1H28V21H5.2v14.8h46.61V20.2H4.21V36H4Zm2-11v.23h.44c.33 0 .56.27.56.6v5.32c0 .33-.23.6-.56.6H6V32h2.95v-.25h-.38c-.33 0-.57-.27-.57-.6V28.7l2.44 2.5c.2.22.06.59-.24.59h-.23V32h3.27v-.21c-.51 0-1-.21-1.37-.58l-3.05-3.1 2.35-2.39c.32-.32.75-.5 1.2-.5V25H9.82v.22h.27c.35 0 .45.45.2.7L8 28.2v-2.37c0-.34.24-.6.57-.6h.38V25H6Zm11.46 0H14v.25h.42c.32 0 .59.27.59.6v5.34a.6.6 0 0 1-.6.6H14V32h3.6c1.02 0 2.4-.4 2.4-1.9 0-1.2-.87-1.6-1.38-1.65.4-.14 1.13-.64 1.13-1.5 0-1.54-1.5-1.94-2.29-1.95ZM16 25.5v2.7h1.3c.5.02 1.5-.24 1.5-1.43 0-1.48-2.02-1.5-2.8-1.27Zm0 3.16v2.8c.19.06.7.16 1.2.16.6 0 1.8-.2 1.8-1.44s-1.13-1.75-3-1.52Zm6.27 1.03h-.22V32h.22c-.02-.14 0-.42.26-.42.13 0 .3.06.5.14.31.12.74.28 1.26.28.85 0 2.21-.57 2.21-1.82 0-1.23-1.25-1.81-1.45-1.9a62.5 62.5 0 0 1-1.46-.81c-1-.45-1.26-2.05.44-2.05 1.36 0 1.78 1.27 1.82 1.9h.2V25h-.2c-.07.41-.3.48-.73.25a2.84 2.84 0 0 0-1.1-.25C22.6 25 22 26.07 22 26.75c0 .68.23.9.62 1.3.31.31 1.33.88 1.8 1.12.38.15 1.16.63 1.16 1.32 0 .9-.92 1.1-1.38 1.09-1.46 0-1.9-1.26-1.93-1.9ZM45 26h.25l.19-.52h.9l.19.52h.26l-.76-2h-.25L45 26Zm1.27-.7-.39-1.04-.38 1.04h.77ZM31 24h.24v2H31v-2Zm11 0h.24v2H42v-2Zm-8 2v-2h.34l.97 1.8V24h.22v2h-.34l-.95-1.74V26H34Zm4-2h.8c.33 0 .6.25.6.55v.9c0 .3-.27.55-.6.55H38v-2Zm.23.16h.42c.29 0 .52.21.52.46v.76c0 .25-.23.46-.52.46h-.42v-1.68Zm-7 4.84H31v2h1.02v-.22h-.8V29ZM39 29h-.23v2H39v-2Zm-5 0h-.2v2h.2v-2Zm7 0h-.77v.22h.54V31h.22v-1.78h.54V29h-.54Zm1.78 0h1.04v.22H43v.64h.75v.21H43v.71h.82V31h-1.04v-2ZM35 31v-2h.35l.66 1.79.64-1.79H37v2h-.21v-1.77L36.1 31h-.24l-.65-1.77V31H35Zm10.54-2h-.79v2h.79c.32 0 .57-.25.57-.55v-.9c0-.3-.25-.55-.57-.55Zm-.15.16H45v1.68h.4c.27 0 .49-.2.49-.46v-.76c0-.25-.22-.46-.5-.46Z"/></svg>