<!-- by TradingView --><svg width="56" height="56" viewBox="0 0 56 56" xmlns="http://www.w3.org/2000/svg"><path fill="#F0F3FA" d="M0 0h56v56H0z"/><path d="M21 41.99h-4.99l2.61-3 2.38 3Z" fill="url(#a)"/><path d="m26.75 41.99-5.36-5.86 2.34-2.55 7.77 8.4h-4.75Z" fill="#4DC3F3"/><path d="m37.25 41.99-10.6-11.52L29 27.92l13 14.07h-4.75Z" fill="url(#b)"/><path opacity=".5" d="M31.77 30.81 21 42l-2.38-2.9 10.4-11.28 2.75 2.99Z" fill="url(#c)"/><path d="M16 36.41V42L42 14h-5.15L16 36.41Zm0-11.06v5.57L31.14 14h-5.16L16 25.35ZM16 14v5.45L21.35 14H16Z" fill="url(#d)"/><defs><linearGradient id="a" x1="19.03" y1="39.23" x2="18.34" y2="41.96" gradientUnits="userSpaceOnUse"><stop stop-color="#005185"/><stop offset="1" stop-color="#2A98D3"/></linearGradient><linearGradient id="b" x1="30.95" y1="29.47" x2="34.44" y2="41.89" gradientUnits="userSpaceOnUse"><stop stop-color="#2083C7"/><stop offset="1" stop-color="#4CBCEA"/></linearGradient><linearGradient id="c" x1="30.55" y1="30.9" x2="20.65" y2="40.62" gradientUnits="userSpaceOnUse"><stop stop-color="#085696"/><stop offset="1" stop-color="#187AB2"/></linearGradient><linearGradient id="d" x1="37.33" y1="19.32" x2="26.08" y2="37.78" gradientUnits="userSpaceOnUse"><stop stop-color="#0D5FB1"/><stop offset="1" stop-color="#4DC8F4"/></linearGradient></defs></svg>