<!-- by TradingView --><svg width="56" height="56" viewBox="0 0 56 56" xmlns="http://www.w3.org/2000/svg"><path fill="#F0F3FA" d="M0 0h56v56H0z"/><path fill-rule="evenodd" d="m9.5 25.6 6.64-1.5-2.44-6.95 10.26 3.66 2.4-3.81 3.8 2.84 7.23-2.71-1.28 4.05H49l-7.14 4.72 5.88 2.25-6.95 2.44 2.83 3.29-11.48.94-.48 3.64-3.91-3.2L23.8 40l-1.1-4.06-5.65 2.27 1.14-4.56L7 32.83l5.56-3.75-3.06-3.47ZM21 31v-7h1.5v3.14L24.9 24h1.43l-2.59 3.02L26.33 31H24.5l-2-3.15V31H21Zm6-7v7h4v-1h-2.48v-2h2.33v-1h-2.33v-2H31v-1h-4Zm5 7v-7h1.5v6H36v1h-4Z" fill="#E97812"/></svg>