<!-- by TradingView --><svg width="56" height="56" viewBox="0 0 56 56" xmlns="http://www.w3.org/2000/svg"><path fill="#F0F3FA" d="M0 0h56v56H0z"/><path d="M5 34V22h2v5.64L11.67 22h2.38l-4.34 5.25L14.46 34H11.8l-3.43-5.13L7 30.53V34H5ZM15 22v12h8v-2h-6v-3h5v-2h-5v-3h6v-2h-8ZM24.68 30.8l-1.18 1.4a6.53 6.53 0 0 0 4.31 1.8c1.23 0 3.69-.92 3.69-3.35 0-2.42-2.1-3.09-3.82-3.6-1.71-.5-1.68-1.24-1.68-1.7 0-.44-.08-1.35 1.54-1.35 1.3 0 2.22.58 2.56 1l.93-1.18c-.22-.51-1.67-1.82-3.49-1.82-1.82 0-3.6 1.15-3.6 3.36 0 2.2 1.5 3.07 3.74 3.56 1.79.4 1.89 1.32 1.82 1.73-.04.54-.27 1.62-1.69 1.62a4.71 4.71 0 0 1-3.13-1.47Z"/><path fill-rule="evenodd" d="M43 22v12h2v-4h2.35l2.49 4H52l-2.73-4.14c1.57-.52 2.73-2.35 2.73-4.1A3.68 3.68 0 0 0 48.4 22H43Zm5.35 2H45v4h3.35c.91 0 1.65-.9 1.65-2s-.74-2-1.65-2Z"/><path d="M34.06 34H31.5l5.58-12 5.42 12h-2.52l-2.9-7.16L34.06 34Z" fill="#F5811E"/></svg>