<!-- by TradingView --><svg width="56" height="56" viewBox="0 0 56 56" xmlns="http://www.w3.org/2000/svg"><path fill="#F0F3FA" d="M0 0h56v56H0z"/><path d="M42.14 33.66C45.9 32.16 48 30.12 48 28s-2.1-4.16-5.86-5.66C38.4 20.84 33.3 20 28 20c-5.3 0-10.4.84-14.14 2.34C10.1 23.84 8 25.88 8 28s2.1 4.16 5.86 5.66C17.6 35.16 22.7 36 28 36c5.3 0 10.4-.84 14.14-2.34Zm-23.5-6.36c-.06-.03-.12 0-.19.07a728.01 728.01 0 0 0-2.47 2.9c-.1.1-.18.2-.23.33a.09.09 0 0 0 .02.1.09.09 0 0 0 .08.02l.32-.1c.3-.1.6-.2.93-.2a81.3 81.3 0 0 1 1.98-.02.7.7 0 0 1 .48.18l4.87 4.3c.07.05.06.08-.03.07a32.66 32.66 0 0 1-6.84-1.37c-1.5-.47-2.85-1.1-4.04-1.9-1.29-.85-2.34-1.94-2.5-3.54-.25-2.83 3.7-4.78 5.95-5.55 3.53-1.21 7.29-1.7 11.05-1.7.52 0 1.03.05 1.51.15.16.03.3.1.43.2.03.02.04.05.05.09 0 .03 0 .07-.02.1-.1.13-.23.25-.37.36l-9.19 6.77a.72.72 0 0 1-.4.13 21.41 21.41 0 0 1-1.44-.01.24.24 0 0 1-.13-.26l.23-1.02a.09.09 0 0 0-.04-.1Zm24.65 3.72a15 15 0 0 1-5.22 2.68 29.4 29.4 0 0 1-4.8 1.04 3.77 3.77 0 0 1-3.15-.91 683.89 683.89 0 0 1-3.93-3.51.05.05 0 0 1 .02-.04l11.25-8.05a.27.27 0 0 1 .23-.04c2.51.66 7.41 2.66 7.3 5.89-.04 1.17-.83 2.17-1.7 2.94Z" fill="#231F20"/></svg>