<!-- by TradingView --><svg width="56" height="56" viewBox="0 0 56 56" xmlns="http://www.w3.org/2000/svg"><path fill="url(#a)" d="M0 0h56v56H0z"/><path d="M6 20h1.5v2.71l2-2.71h1.62l-2.6 3.52L10.98 27H9.34L7.5 24.37V27H6v-7Zm8.5 0H13v7h1.5v-7ZM35 20h-1.8v1H35v6h1.5v-6h1.7v-1H35Zm-17 7v-7h1.74l2.76 4.8V20H24v7h-1.8l-2.7-4.54V27H18Zm9 0v-7h4.06v1H28.5v2h2.09v1H28.5v2h2.56v1H27Zm15.5-7H41v7h1.5v-7Zm8.5 5c-.51 1.18-1.6 2-2.85 2-1.74 0-3.15-1.57-3.15-3.5s1.41-3.5 3.15-3.5c1.26 0 2.35.82 2.85 2h-1.31c-.33-.6-.85-1-1.43-1-1 0-1.8 1.12-1.8 2.5s.8 2.5 1.8 2.5c.58 0 1.1-.4 1.42-1H51Zm-40.75 5h5v1H13.5v6H12v-6h-1.75v-1Zm30.5 0h5v1H44v6h-1.5v-6h-1.75v-1ZM25.5 35.4V30H27v4.64c0 .81.57 1.36 1.3 1.36.73 0 1.2-.55 1.2-1.36V30H31v5.4c0 .89-.64 1.6-1.43 1.6h-2.64c-.79 0-1.43-.71-1.43-1.6ZM18 37v-7h2.98c1.12 0 2.02.87 2.02 1.95V32c0 .85-.56 1.58-1.35 1.84.36.21.45.44.54.66 0 .03.02.06.04.1L23 37h-1.41l-.7-2.06c-.13-.39-.49-.94-.9-.94h-.49v3H18Zm2.68-6H19.5v2h1.18c.45 0 .82-.45.82-1s-.37-1-.82-1Zm14.74 4.3H34c0 .71.95 1.7 2.17 1.7 1.23 0 2.83-.44 2.83-2 0-1.55-1.28-2.18-2.05-2.38a1.26 1.26 0 0 1-.93-.83c-.03-.27.05-.8.66-.8s.89.4.95.59h1.17A2.1 2.1 0 0 0 36.68 30c-1.76 0-2.28 1.11-2.28 1.79 0 .67.4 1.59 1.62 2.03 1.21.44 1.25.86 1.25 1.18 0 .33-.12.9-.94.9-.65 0-.88-.4-.9-.6Z" fill="#fff"/><defs><linearGradient id="a" x1="10.42" y1="9.71" x2="68.15" y2="76.02" gradientUnits="userSpaceOnUse"><stop stop-color="#1A1E21"/><stop offset="1" stop-color="#06060A"/></linearGradient></defs></svg>