<!-- by TradingView --><svg width="56" height="56" viewBox="0 0 56 56" xmlns="http://www.w3.org/2000/svg"><path fill="#9A0000" d="M0 0h56v56H0z"/><path d="M25.85 14.64c.01-.79.02-2.39 0-2.46h4.3v2.46h2.03l.86.95.81 5.39h9.2l1.63 7.92c-.54 5.26-4.6 15.78-16.48 15.78-11.9 0-16.1-9.8-16.71-14.7l1.25-9h9.43l.58-5.57.77-.77h2.33Z" fill="#ECEFF6"/><path fill-rule="evenodd" d="M28 45a17 17 0 1 0 0-34 17 17 0 0 0 0 34Zm0-1a16 16 0 1 0 0-32 16 16 0 0 0 0 32Z" fill="#1E201C"/><path d="M42.94 21H13.19c-.38.64-1.22 2.28-1.52 3.7-.3 1.4-.3 4.12-.27 5.3h33.18c.07-.16.2-.94.2-2.7 0-1.78-1.23-4.94-1.84-6.3Z" fill="#1E201C"/><path fill-rule="evenodd" d="M26.2 12.7v-.3h3.6v.3h-3.6Zm0 .45v.63h3.6v-.63h-3.6Zm3.6 1.08h-3.6v.64h-2c-.2 0-.37.05-.53.13h8.54a1.13 1.13 0 0 0-.54-.13h-1.86v-.64Zm2.85 1.2h-9.43c-.08.12-.13.28-.15.44l-.02.13h9.77l-.02-.15c-.02-.15-.07-.3-.15-.43Zm.22.96h-9.86l-.06.49h9.99l-.07-.5Zm.13.95H22.9l-.07.52h10.24l-.07-.52Zm.13.98H22.78l-.05.46h10.46l-.06-.46Zm.13.92H22.67l-.08.7h10.76l-.1-.7Zm.15 1.16H22.54l-1.09 9.18h13.2L33.4 20.4Zm1.3 9.64H21.4l-.09.7h13.5l-.1-.7Zm.15 1.16h-13.6l-.04.3-.01.16h13.7l-.01-.2-.04-.26Zm.06.92H21.21c.01.24.05.48.11.7H34.8c.07-.22.1-.46.12-.7Zm-.28 1.16H21.5c.07.16.15.31.24.46H34.4c.09-.15.17-.3.24-.46Zm-.59.91H22.08c.15.17.32.32.5.46h10.97c.18-.14.35-.29.5-.46Zm-1.37.93h-9.23c.36.13.75.2 1.16.2h1.27v.5h4.24v-.5h1.4c.4 0 .8-.07 1.16-.2Zm-1.16.77c2.4 0 4.26-2.12 3.94-4.51l-2.1-15.6a1.7 1.7 0 0 0-1.69-1.48h-1.3v-1.62h.06a.42.42 0 1 0 0-.84h-4.86a.42.42 0 0 0 0 .84h.05v1.62H24.2c-.87 0-1.6.65-1.7 1.5l-1.84 15.64a3.98 3.98 0 0 0 3.95 4.45H25.31v.95c0 .4.32.72.71.72h3.96c.4 0 .71-.32.71-.72v-.95H31.52Zm-1.4.38h-4.24v.57c0 .08.06.15.14.15h3.96c.08 0 .14-.07.14-.15v-.57Z" fill="#1E201C"/><path fill-rule="evenodd" d="M14 22v7h2v-2.64L17.82 29h2.3v-.35l-2.61-3.68 2.99-2.48V22h-1.18L16 24.83V22h-2Zm7 0h2v7h-2v-7Zm3 7v-7h3.44c1.06 0 2.06.8 2.06 1.77v.59c0 .83-.73 1.53-1.6 1.72l1.6 2.55V29h-1.87L26 26.4V29h-2Zm2.66-6H26v2.5h.66c.46 0 .84-.42.84-.95v-.6c0-.53-.38-.95-.84-.95ZM30 29h1.08l.4-1h2.28l.24 1h2.26L34 22h-1.27L30 29Zm3.52-2-.62-2.63L31.86 27h1.66ZM38 29h-1v-7h1.15L41 25.76V22h1v7h-.96L38 25.3V29Z" fill="#ECEFF6"/><path d="M16.82 29.37a11.26 11.26 0 0 0 22.36 0h-.67a10.6 10.6 0 0 1-21.02 0h-.67Z" fill="#1E201C"/><path fill-rule="evenodd" d="m16.32 38.34-.76-.75 2.33-2.33.78.77c.23.23.38.48.45.73.07.26.06.52-.02.78-.09.26-.25.51-.5.75-.23.25-.49.41-.75.5-.26.08-.53.09-.79.02-.26-.08-.5-.23-.74-.47Zm-.1-.7.39.37c.17.18.35.3.54.35a.9.9 0 0 0 .56-.03c.18-.07.37-.2.55-.38.18-.19.31-.37.38-.56a.88.88 0 0 0 .03-.54 1.2 1.2 0 0 0-.33-.53l-.4-.4-1.72 1.71Zm23.51.25-2.08-2.25-.34.31 1.53 1.65-.02.02-2.67-.59-.31.3 2.08 2.24.34-.31-1.53-1.65.02-.02 2.67.59.31-.3Zm-6.2 1.26 1.55 2.43.41-.26-.59-.92.56-.36.03-.02 1.14.57.47-.3-1.23-.6.06-.08a.8.8 0 0 0 .15-.46.86.86 0 0 0-.15-.46.88.88 0 0 0-.35-.33.82.82 0 0 0-.49-.07c-.18.03-.38.1-.59.24l-.97.62Zm1.17.93.52-.33c.14-.09.24-.17.3-.26s.09-.18.09-.27a.53.53 0 0 0-.1-.27.54.54 0 0 0-.2-.2.44.44 0 0 0-.29-.03 1 1 0 0 0-.36.15l-.52.33.56.88Zm-2.5 2.78-.49.15.19-3.4.53-.15 2.02 2.73-.49.15-.52-.73-1.2.36-.04.9Zm.14-2.77.85 1.17-.93.28.06-1.44.02-.01Zm-10.07-1.3-1.4 2.89 2 .96.17-.38-1.5-.73.42-.89 1.4.68.17-.38-1.39-.67.43-.88 1.49.72.18-.38-1.97-.95Zm-2.76-1.52.46.26v1.62l.02.01 1.4-.8.45.26-1.9 1.06-.6 1.04-.4-.23.6-1.04-.03-2.18Zm9.62 2.9-.52.07 1.37 1.69.17 1.2.45-.07-.17-1.2.84-2-.52.07-.6 1.5h-.03l-.99-1.27Zm-5 2.83 1.05.16c.33.05.63.03.88-.07s.46-.25.62-.48c.16-.22.27-.5.32-.85.05-.33.03-.63-.05-.9a1.3 1.3 0 0 0-.45-.63c-.2-.17-.47-.27-.8-.32l-1.08-.17-.5 3.26Zm1.1-.27-.54-.08.36-2.4.56.08c.24.04.43.11.58.23.15.12.25.27.3.46.05.2.06.41.02.67a1.6 1.6 0 0 1-.22.64.9.9 0 0 1-.43.35c-.18.07-.39.09-.64.05Z" fill="#1E201C"/></svg>