<!-- by TradingView --><svg width="56" height="56" viewBox="0 0 56 56" xmlns="http://www.w3.org/2000/svg"><path fill="#F0F3FA" d="M0 0h56v56H0z"/><path d="m20.96 43.4-3.18-2.92a2.48 2.48 0 0 1-.09-3.52l8.09-8.24 6.35 6.51-8.03 8.1c-.87.87-2.23.9-3.14.07Z" fill="url(#a2fsleitm)"/><path d="M30.12 33.35c1.3 1.4.84 2.94.45 3.49l5.73-5.87c.92-.94.94-2.48.02-3.43L31.97 23h-8.44l-1.67 1.74a905.8 905.8 0 0 1 8.26 8.6Z" fill="#26988A"/><circle cx="31" cy="16" r="5" fill="#CB7D5F"/><defs><linearGradient id="a2fsleitm" x1="28.2" y1="31.99" x2="22.8" y2="37.83" gradientUnits="userSpaceOnUse"><stop stop-color="#0F3A35"/><stop offset="1" stop-color="#269789"/></linearGradient></defs></svg>