<!-- by TradingView --><svg width="56" height="56" viewBox="0 0 56 56" xmlns="http://www.w3.org/2000/svg"><path fill="url(#a)" d="M0 0h56v56H0z"/><path d="M7 29v5h2v-5h2.44l5.04 5H29v-2h-7v-3h6v-2h-6v-3h7v-2h-9v10h-2.39l-3.01-3H17v-7H6v2h1v3H6v2h1Zm2-5h6v3H9v-3Zm39-2h2v12h-2V22ZM31 32v2h4v-6.26L38.14 34h2.13L44 27.74V34h2V22h-2.08l-4.58 8.33-4.1-8.33H33v10h-2Z" fill="#fff"/><defs><linearGradient id="a" x1="10.42" y1="9.71" x2="68.15" y2="76.02" gradientUnits="userSpaceOnUse"><stop stop-color="#1A1E21"/><stop offset="1" stop-color="#06060A"/></linearGradient></defs></svg>