<!-- by TradingView --><svg width="56" height="56" viewBox="0 0 56 56" xmlns="http://www.w3.org/2000/svg"><path fill="#F0F3FA" d="M0 0h56v56H0z"/><path d="M47.48 32.26A7.72 7.72 0 0 0 49 27.64a7.72 7.72 0 0 0-1.68-4.56 14.19 14.19 0 0 0-4.62-3.82 25.49 25.49 0 0 0-6.86-2.48 34.87 34.87 0 0 0-8.05-.77c-2.79.04-5.46.4-8.02 1.05A25.5 25.5 0 0 0 13 19.77a14.15 14.15 0 0 0-4.48 3.97A7.72 7.72 0 0 0 7 28.36a7.72 7.72 0 0 0 1.68 4.56 14.19 14.19 0 0 0 4.62 3.82 25.49 25.49 0 0 0 6.86 2.48c2.58.56 5.27.82 8.05.77a34.8 34.8 0 0 0 8.02-1.05A25.5 25.5 0 0 0 43 36.23a14.15 14.15 0 0 0 4.48-3.97Zm-9.32-7c.32-.63.6-1.08.84-1.35.35-.4.69-.44 1.02-.14.1.09.16.22.17.4.03.56-.03 1.21-.18 1.96-.02.1.02.15.13.15.1 0 .18-.05.24-.16.2-.34.53-1.04 1-2.1a2.2 2.2 0 0 1 2.02-1.43.4.4 0 0 1 .31.11.4.4 0 0 1 .13.31c-.03.83-.06 1.41-.1 1.75-.07.83.08.87.45.12a34 34 0 0 0 .86-1.9c.05-.12.15-.17.28-.15l.08.01c.1.02.13.07.09.16-.34.8-.7 1.55-1.07 2.23-.11.21-.25.39-.41.53-.22.18-.4.24-.58.2-.21-.07-.33-.26-.35-.58-.01-.1-.06-.12-.14-.05a.24.24 0 0 0-.07.1c-.2.57-.48.87-.81.92-.4.05-.7-.13-.89-.55a.1.1 0 0 0-.1-.06.1.1 0 0 0-.08.06c-.3.67-.62 1.03-.98 1.1-.23.04-.42 0-.55-.16a.76.76 0 0 1-.19-.56c.03-.69.07-1.22.14-1.6.09-.46-.01-.5-.3-.13-.51.67-.85 1.48-1.03 2.44a.8.8 0 0 1-.41.58l-.08.04c-.23.13-.34.07-.35-.2 0-.1.04-.44.1-.99.03-.12 0-.13-.08-.03-.1.13-.23.35-.39.67-.25.5-.5.82-.73.96-.37.2-.62.1-.76-.3-.07-.2-.14-.2-.22 0-.16.4-.42.65-.8.74-.4.1-.7-.08-.9-.51-.05-.09-.1-.1-.16-.03-.09.1-.2.25-.34.45-.46.66-1.17.91-2.11.75-.14-.02-.2.03-.19.17.1.98.06 1.89-.13 2.72-.07.35-.19.36-.35.03a4.68 4.68 0 0 1-.17-3.7c.03-.08 0-.12-.08-.13l-.07-.01c-.03 0-.04 0-.05.02a4.16 4.16 0 0 1-1.05 1.7.81.81 0 0 1-.59.25.75.75 0 0 1-.57-.26 1.36 1.36 0 0 1-.35-.96c0-.2-.06-.22-.17-.04l-.27.53c-.32.7-.64 1.13-.96 1.3-.35.18-.58.05-.69-.38-.05-.2-.12-.2-.2-.03-.27.54-.55.85-.84.9-.35.08-.62-.1-.82-.54-.06-.12-.13-.13-.2-.01l-.1.16c-.18.29-.33.48-.46.56-.2.15-.44.14-.72-.01-.41-.23-.64-.64-.67-1.22 0-.13-.06-.17-.18-.13l-.62.24a.2.2 0 0 0-.13.16l-.3 1.78a.22.22 0 0 1-.16.18l-.63.18c-.13.04-.17 0-.12-.13l.08-.28c.03-.21-.03-.24-.17-.09-.3.32-.64.59-1.02.8-.5.3-.91.38-1.22.23-.28-.13-.49-.44-.62-.94a17.2 17.2 0 0 1-.39-1.66.63.63 0 0 0-.35-.5l-.1-.05c-.2-.1-.29-.05-.27.17.12 1.5-.23 2.66-1.05 3.48-.37.36-.8.6-1.33.73-.61.16-1.07.04-1.37-.35-.34-.44-.3-.85.09-1.24.2-.2.5-.24.9-.15.1.03.12.08.06.15l-.4.5a.41.41 0 0 0-.06.43c.05.15.16.24.32.26.63.06 1.15-.2 1.56-.8.47-.68.57-1.51.29-2.5-.02-.07-.07-.11-.16-.12-.22-.03-.43-.1-.62-.2a.3.3 0 0 1-.17-.22.3.3 0 0 1 .09-.28l.6-.59a.24.24 0 0 0 .07-.2c-.06-.97.1-1.9.49-2.8.02-.05 0-.06-.05-.04-.61.33-1.16.42-1.65.26a.4.4 0 0 0-.25 0c-.71.23-1.03.73-.96 1.5 0 .14.08.24.2.31a.4.4 0 0 0 .38.02c.32-.14.45-.43.37-.87-.02-.1.02-.14.11-.14.2-.01.36.05.49.19.14.15.17.31.09.5-.22.5-.55.81-.98.91-.4.1-.7-.03-.93-.38-.21-.31-.27-.66-.18-1.04.18-.77.69-1.3 1.52-1.58.2-.06.48-.09.85-.08h.38c.31 0 .67-.14 1.08-.4l.24-.16c.07-.04.14-.03.19.04.05.06.05.13 0 .2-.54.69-.76 1.5-.67 2.4l.02.28c.02.43.1.77.21 1 .06.1.15.16.27.15.12 0 .2-.07.24-.18.23-.64.5-1.6.81-2.9.1-.44.3-.84.6-1.19.4-.45.79-.56 1.18-.31.25.15.39.44.4.87a.2.2 0 0 1-.11.19.6.6 0 0 1-.31.05c-.1 0-.16-.05-.19-.13l-.08-.35a.3.3 0 0 0-.24-.23.29.29 0 0 0-.3.1 2 2 0 0 0-.47 1.05 8.94 8.94 0 0 1-.94 3.03c-.04.08-.02.14.05.18.56.3.9.67 1 1.13.14.62.31 1.17.5 1.65.05.12.14.2.26.23a.4.4 0 0 0 .34-.04c.6-.36 1.07-.79 1.37-1.28.2-.3.36-.89.5-1.73.28-1.64.55-3.27.8-4.88.01-.04.03-.07.07-.09l.78-.41c.04-.02.05-.01.05.03-.3 1.6-.62 3.43-.98 5.49 0 .07.02.1.1.1.41-.03.68-.19.8-.48l.06-.13c.17-.42.32-.72.46-.88.23-.3.5-.38.82-.27.3.1.4.31.3.6a.3.3 0 0 1-.18.21.29.29 0 0 1-.27-.03l-.22-.14c-.1-.06-.17-.04-.2.06-.09.4-.24.72-.44.95-.06.08-.05.14.04.18.41.18.6.57.53 1.18 0 .1.04.15.15.13.1-.02.18-.08.26-.2.22-.31.43-.73.63-1.24a8.5 8.5 0 0 1 .53-1.27c.5-.59 1.08-.9 1.76-.9.32-.02.47.14.44.45a17.46 17.46 0 0 0-.08 1.63c-.08.89.08.93.47.13l.65-1.43c.15-.32.22-.66.2-1a8.53 8.53 0 0 1 .64-3.74.18.18 0 0 1 .17-.12c.08 0 .14.03.18.1.35.56.5 1.27.44 2.13a6.6 6.6 0 0 1-.5 2.17c-.13.3-.17.57-.13.8l.2.83c.03.08.1.14.18.17.1.02.17 0 .24-.06.16-.14.31-.32.44-.54.5-.85.8-1.63.87-2.36.02-.17.08-.29.17-.36a.93.93 0 0 1 .43-.2c.1-.03.15.02.15.13l-.03.38c0 .1.03.1.1.03l.22-.25c.29-.32.53-.52.74-.6.4-.16.71-.07.94.26.2.31.25.65.12 1.02-.15.46-.44.92-.86 1.39-.03.04-.03.07-.01.12.02.04.06.05.1.05l.13-.03c.16-.03.28-.09.37-.18.57-.64.87-1.07.9-1.28.07-.67.35-1.25.85-1.73.54-.54 1.14-.72 1.79-.54.08.03.12.08.11.16 0 .2-.04.95-.13 2.29 0 .18.06.25.22.2.06-.02.1-.05.13-.11.47-.92.8-1.64 1-2.16.04-.12.08-.33.11-.62.03-.17.14-.31.35-.43a.6.6 0 0 1 .2-.07c.19-.03.27.04.24.22l-.13 1.04c0 .13.02.14.08.02Zm3.86-.9c-.27.76-.31 1.44-.1 1.5.2.08.59-.49.85-1.25s.31-1.44.1-1.5c-.2-.08-.59.49-.85 1.25Zm-14.25.37c0-.03 0-.04.03-.04h.02c.09 0 .16.11.21.33.06.22.09.48.08.79v.07c0 .3-.04.56-.11.78-.07.21-.14.32-.23.32h-.02c-.02 0-.03-.02-.03-.04l.05-2.21Zm6.47 3.18c-.21-.07-.18-.76.09-1.55.26-.79.65-1.37.87-1.3.21.07.18.77-.08 1.55-.27.8-.66 1.37-.88 1.3Zm-3.32.45c-.17.1-.26.05-.25-.14a2.9 2.9 0 0 1 .62-1.8c.1-.1.2-.14.34-.11a.3.3 0 0 1 .25.25c.15.73-.17 1.34-.96 1.8Zm-6.66 2.33.02-.01.97-2.75-.01-.02h-.01c-.19-.06-.39-.02-.6.14-.2.16-.35.38-.45.67l-.24.69c-.1.29-.12.55-.06.8s.18.41.37.47h.01Zm-10.51-1.17c.06-.05.11-.04.15.04.04.08.06.16.04.23a.16.16 0 0 1-.13.12.16.16 0 0 1-.17-.06c-.08-.11-.05-.22.1-.33Zm16.5 1.11c-.04 0-.09-.2-.09-.46 0-.25.04-.46.08-.46.05 0 .1.2.1.46s-.04.46-.09.46Z" fill="#F47920"/><path d="M46.36 26.31c.02-.01.05 0 .07 0 .04.03.05.05.04.09-.09.33-.23.57-.42.71a.23.23 0 0 1-.22.04.84.84 0 0 1-.53-.45.42.42 0 0 1 0-.38c.06-.13.15-.21.29-.25.25-.07.46 0 .62.2.05.07.1.08.15.04ZM44.38 26.92l-.26-.24a.34.34 0 0 0-.47.01l-.2.21a.32.32 0 0 0 .01.46l.26.25c.14.12.35.12.48-.01l.2-.21a.32.32 0 0 0-.02-.47ZM42.48 27.39c.04 0 .07.01.1.03.02 0 .03.02.03.03a.8.8 0 0 1-.42.76.18.18 0 0 1-.2-.01.61.61 0 0 0-.3-.14c-.08 0-.12-.05-.12-.14 0-.09-.04-.18-.13-.26-.07-.06-.06-.12.02-.17a.3.3 0 0 0 .15-.18c.02-.08.07-.12.15-.13.25-.03.4-.07.46-.1.1-.07.15-.06.15.03v.15c0 .08.04.12.11.13ZM40.35 27.73c.06.03.14.08.22.15a.3.3 0 0 1 .12.23c.01.33-.15.54-.47.62a.22.22 0 0 1-.17-.03 1.76 1.76 0 0 0-.22-.1.21.21 0 0 1-.14-.1c-.16-.29-.11-.54.14-.76a.3.3 0 0 1 .25-.07c.11.01.2.03.27.06ZM37.67 28.79c-.09-.1-.08-.2.03-.3l.25-.18a.5.5 0 0 1 .37-.1c.14 0 .25.07.34.17l.02.03c.08.1.11.22.1.36a.5.5 0 0 1-.2.33l-.24.2c-.12.08-.22.07-.3-.04l-.37-.47ZM35.8 29.38c.06.29.35.47.65.4.29-.06.47-.35.4-.65a.55.55 0 0 0-.66-.4.54.54 0 0 0-.4.65ZM34.4 29.28l.12-.02c.09-.02.15 0 .19.09.05.1.11.17.2.22.08.04.1.1.09.17-.06.29-.2.47-.39.56l-.09.09a.1.1 0 0 1-.06.02.1.1 0 0 1-.07-.02.57.57 0 0 0-.1-.07c-.2-.07-.35-.24-.44-.52-.03-.08 0-.14.07-.18a.5.5 0 0 0 .18-.24c.03-.08.09-.12.18-.1h.12Z" fill="#FFEB01"/></svg>