<!-- by TradingView --><svg width="56" height="56" viewBox="0 0 56 56" xmlns="http://www.w3.org/2000/svg"><path fill="#F0F3FA" d="M0 0h56v56H0z"/><path d="M12.02 26.73a17.36 17.36 0 0 1 11-15.73c-4.19 2.44-5.59 9.13-5.76 12.18 1.57-8.12 9.44-10.66 14.68-10.66 4.2 0 7.7 2.37 8.39 3.55-.87-.5-3.57-1.52-7.34-1.52-4.72 0-12.06 5.08-12.06 13.2s6.3 12.18 12.06 12.18c4.61 0 9.26-2.03 11.01-3.05-1.05 1.7-4.93 5.08-12.06 5.08-7.13 0-12.76-6.1-14.68-9.14 0 2.84 4.2 9.3 6.3 12.18-4.03-2.03-11.96-8.53-11.54-18.27Z" fill="#D42D27"/><path d="M33.3 17c2.46 0 4.45 1.4 5.13 2.1-8.22-.42-10.95 4.04-11.3 6.32l10.27 2.1-10.27 1.59c2.25 6.1 10.18 5.35 13.87 4.2C37.92 37 34.32 37 33.3 37c-1.03 0-9.76-.53-10.28-9.47C22.52 18.58 30.22 17 33.3 17Z" fill="#0080C0"/></svg>