<!-- by TradingView --><svg width="56" height="56" viewBox="0 0 56 56" xmlns="http://www.w3.org/2000/svg"><path fill="#F0F3FA" d="M0 0h56v56H0z"/><path d="m25.02 28.4.54-.94c.06-.1.13-.11.22-.05.34.25.62.34.84.28.19-.06.4-.27.62-.64.2-.31.53-.9 1-1.74a.26.26 0 0 1 .29-.14c2.75.38 4.52 1.86 5.3 4.45.2.66.23 1.45.1 2.37a5.86 5.86 0 0 1-7.67 4.66c-1.77-.6-3.02-2.18-3.76-4.1-.03-.08 0-.11.07-.12h3.18c.17 0 .32-.05.45-.15a.6.6 0 0 0 .24-.42c.06-.46.06-.88 0-1.26-.05-.39-.36-.58-.92-.59h-7.9c-.56 0-.85.28-.84.85v.86c0 .3.12.5.37.61.15.06.4.1.75.11l.25.02c.08 0 .12.05.14.13.49 2.67 1.87 5.16 4.14 6.82.06.04.06.09 0 .14a5.08 5.08 0 0 0-1.64 2.67c-.02.07-.06.1-.14.06a16.12 16.12 0 0 1-8.64-13.65c-.1-2.8.48-5.43 1.74-7.9a15.8 15.8 0 0 1 6.7-6.84 15.8 15.8 0 0 1 9.07-1.82c.14 0 .18.08.1.2l-.31.56c-.04.07-.1.08-.16.04-.49-.3-.88-.18-1.17.38-2.27 4.4-4.22 8.17-5.84 11.34-.15.3-.2.52-.13.68.1.24.3.42.6.52.08.02.1.08.07.16-.1.23-.22.46-.36.69-.16.24-.2.47-.12.7.05.14.2.3.43.44.64.38 1.2.67 1.67.87.14.05.27.05.4 0a.56.56 0 0 0 .32-.25Z" fill="#00FF03"/><path d="m33.2 13-.05-.06c-.07-.1-.05-.12.06-.08 2.18.8 4.02 1.88 5.51 3.26a15.9 15.9 0 0 1 5.2 10.4 15.65 15.65 0 0 1-2.68 10.49 16.57 16.57 0 0 1-5.14 4.85c-.07.05-.12.03-.14-.05a4.76 4.76 0 0 0-1.66-2.39c-.06-.05-.06-.1 0-.14a10.2 10.2 0 0 0 3.97-10.2A10.37 10.37 0 0 0 35.86 24a9.25 9.25 0 0 0-5.38-2.97c-.09-.02-.1-.07-.07-.15l2.62-5.08c.25-.49.13-.86-.38-1.12-.08-.04-.09-.1-.05-.16.3-.5.51-.93.62-1.32a.22.22 0 0 0-.03-.2ZM28 43.01h4.93c.1 0 .1 0 0 .05a13.71 13.71 0 0 1-9.86.02c-.1-.04-.1-.05 0-.06l4.93-.01Z" fill="#134978"/></svg>