<!-- by TradingView --><svg width="56" height="56" viewBox="0 0 56 56" xmlns="http://www.w3.org/2000/svg"><path fill="url(#a)" d="M0 0h56v56H0z"/><path fill-rule="evenodd" d="M11.5 31c1.64 0 2.5-1.34 2.5-3s-.95-3-2.5-3C9.94 25 9 26.34 9 28s.86 3 2.5 3Zm0-.58c1.14 0 1.74-1.08 1.74-2.42 0-1.34-.66-2.42-1.74-2.42S9.76 26.66 9.76 28c0 1.34.6 2.42 1.74 2.42ZM4 25v5.9h.82v-2.03l.8-.9L7.4 30.9h.92l-2.16-3.53 2.1-2.36H7.24L4.82 27.8V25H4ZM37 28c0 1.66-.86 3-2.5 3-1.64 0-2.5-1.34-2.5-3s.95-3 2.5-3 2.5 1.34 2.5 3Zm-.65 0c0 1.34-.63 2.42-1.85 2.42-1.22 0-1.85-1.08-1.85-2.42 0-1.34.7-2.42 1.85-2.42 1.15 0 1.85 1.08 1.85 2.42ZM40 31c1.64 0 2.5-1.34 2.5-3s-.95-3-2.5-3-2.5 1.34-2.5 3 .86 3 2.5 3Zm0-.58c1.22 0 1.85-1.08 1.85-2.42 0-1.34-.7-2.42-1.85-2.42-1.15 0-1.85 1.08-1.85 2.42 0 1.34.63 2.42 1.85 2.42ZM15 31v-6h2.88c.78 0 1.41.71 1.41 1.59v.1c0 .87-.63 1.58-1.4 1.58h-.08c.29.13.47.4.54.54.25.45.77 1.39.88 1.55.1.17.33.5.43.64h-.94l-1.16-2.2a1.4 1.4 0 0 0-.48-.53h-1.32V31H15Zm2.78-5.3h-2.05v1.87h2.05c.45 0 .81-.42.81-.94s-.36-.94-.81-.94ZM20 31v-6h4v.75h-3.2v1.9h2.9v.7h-2.9v1.9H24V31h-4Zm8-6v5.9h.78v-2.6h2.8v-.7h-2.8v-1.86h3.08V25H28Zm17.32 0H43v6h2.32c1.17 0 2.11-1.05 2.11-2.34v-1.32c0-1.3-.94-2.34-2.11-2.34Zm-.19.68h-1.4v4.64h1.4c.9 0 1.61-.8 1.61-1.78v-1.08c0-.98-.72-1.78-1.6-1.78Zm2.62 3.41h.84c.03.4.36 1.19 1.41 1.19 1.06 0 1.29-.64 1.27-.96 0-.26-.24-.82-1.08-.98-1.05-.2-2.16-.7-2.16-1.78s.94-1.56 2-1.56c1.05 0 1.7.79 1.79 1.67h-.74a1.11 1.11 0 0 0-1.13-.97c-.98 0-1.17.63-1.17.86 0 .23.2.7.95.82.76.12 2.27.58 2.27 1.94 0 1.35-1.38 1.68-2.1 1.68-.72 0-2.1-.53-2.15-1.9Z" fill="#FFFEFF"/><defs><linearGradient id="a" x1="28" y1="0" x2="28" y2="56" gradientUnits="userSpaceOnUse"><stop stop-color="#711C36"/><stop offset="1" stop-color="#DEC7CF"/></linearGradient></defs></svg>