<!-- by TradingView --><svg width="56" height="56" viewBox="0 0 56 56" xmlns="http://www.w3.org/2000/svg"><path fill="#F0F3FA" d="M0 0h56v56H0z"/><path d="M17 13h-4v30h30V13H19v13.57L22.6 24h14.96c.8 0 1.44.61 1.44 1.37v3.26A1.4 1.4 0 0 1 37.56 30H30v8h-2V28H36.12c.49 0 .88-.54.88-1 0-.46-.4-1-.88-1H23.2l-2.8 2 5.6 4h-3.4L19 29.43V32h-2V13Z" fill="#EB1D2A"/><path fill="#06070C" d="M33 13h10v10H33z"/><path d="M38.28 16.35a4.62 4.62 0 0 1-.22-2.35l.58.13c-.08.51-.08 1.28.17 1.93.25.62.74 1.16 1.73 1.24h.02c.21.04.44 0 .64-.09.2-.08.37-.2.45-.26l.35.55c-.13.1-.34.25-.6.36-.26.1-.58.18-.92.12a2.48 2.48 0 0 1-2.2-1.63Z" fill="#F1E978"/><path d="M34.59 14.06c-.02.2-.04.67-.04.9a6.33 6.33 0 0 0 6.2 6.46h.23a132.08 132.08 0 0 0 .98 0l.04.57h-1.25C37.02 22 34 18.85 34 14.96c0-.23.01-.72.03-.96l.56.06Z" fill="#FFFEFF"/><path d="M35.62 14.06c-.02.18-.02.58-.02.78a5.43 5.43 0 0 0 5.85 5.54h.5l.05.61a10.84 10.84 0 0 1-1.1 0 6.04 6.04 0 0 1-5.9-6.15c0-.2 0-.63.03-.84l.6.06Z" fill="#FFFEFF"/><path d="m37.05 14.06-.02.6c0 2.37 1.5 4.23 3.67 4.23.15 0 .34-.04.54-.1.2-.06.4-.14.53-.2l.23.55c-.15.07-.37.16-.6.23a2.5 2.5 0 0 1-.7.13c-2.56 0-4.24-2.2-4.24-4.84 0-.16 0-.5.02-.66l.57.06Z" fill="#FFFEFF"/></svg>