<!-- by TradingView --><svg width="56" height="56" viewBox="0 0 56 56" xmlns="http://www.w3.org/2000/svg"><path fill="#F0F3FA" d="M0 0h56v56H0z"/><path d="M33.16 13c.01.06.04.11.08.16a.1.1 0 0 1 .02.07c-.03.46-.04.93-.01 1.43 0 .15-.04.28-.02.43v7.39l-.02.27c0 .03.01.05.05.05l9.74-.01v20.1c0 .03-.02.05-.04.08a.11.11 0 0 1-.08.03 113498.8 113498.8 0 0 1-29.83-.01l-.03-.02a.05.05 0 0 1-.02-.04V13.08a.08.08 0 0 1 .08-.08H17v19h2v-3.07a.18.18 0 0 1 .1-.04l.1.03L23.67 32h3.15l-5.93-4.2a.08.08 0 0 1-.03-.07.08.08 0 0 1 .03-.07l3.31-2.1a.37.37 0 0 1 .22-.05h11.74a1 1 0 0 1 .62.19c.65.49.33 1.3-.53 1.3H28v10h2v-8h7.16c1.25 0 1.84-.91 1.84-2v-1.88c-.01-.74-.3-1.26-.99-1.56-.16-.07-.32-.1-.5-.1H23.07a.5.5 0 0 0-.3.1c-1.15.82-2.26 1.9-3.34 2.7l-.33.2c-.02 0-.1-.02-.1-.05V13c-.01 0 0 0 0 0-.01 0 .01 0 0 0h14.16Z" fill="#CF2C23"/><path d="M33 13h10v10H33V13Z" fill="#020204"/><path d="M39.91 16.78c.68.3 1.37.25 2.07-.15.12-.07.25.03.28.14a.1.1 0 0 1-.01.09.53.53 0 0 1-.2.17 2.5 2.5 0 0 1-2.74-.15c-.79-.65-1.2-1.75-.8-2.73.04-.1.11-.14.22-.1.2.05.06.41.03.54-.25.82.44 1.87 1.15 2.19Z" fill="#F9E759"/><path d="M38.2 20.8a6.73 6.73 0 0 0 2.68.55l1.2-.1a.14.14 0 0 1 .15.11v.06c-.01.12-.08.2-.2.21-2 .31-3.75-.1-5.27-1.22a6.74 6.74 0 0 1-2.71-6.2c.02-.15.12-.2.28-.15a.14.14 0 0 1 .09.14 6.44 6.44 0 0 0 3.78 6.6Z" fill="#F0F3FA"/><path d="M35.92 16.37a5.1 5.1 0 0 0 6.18 3.5c.04.02.07.04.09.07a.3.3 0 0 1 .04.09c.03.09 0 .15-.09.18a5.42 5.42 0 0 1-5.83-2.14 5.5 5.5 0 0 1-.95-3.85c.02-.12.08-.18.2-.17h.04c.11 0 .16.06.15.17-.09.8-.03 1.52.17 2.15Z" fill="#F0F3FA"/><path d="M38.09 17.46a3.7 3.7 0 0 0 3.8 1.01c.1-.03.2-.03.3.01l.03.05c.04.12 0 .21-.11.26-.17.08-.36.14-.56.17a4.1 4.1 0 0 1-4.79-4.72c.02-.13.1-.2.23-.2a.2.2 0 0 1 .1.03.13.13 0 0 1 .07.14c-.2 1.28.11 2.36.93 3.25ZM18.73 40.54c.11.05.28.06.41.05.07 0 .12-.04.14-.12.06-.19.08-.37.07-.54 0-.07-.04-.1-.1-.1l-.26-.04c-.04 0-.06-.03-.07-.07a.4.4 0 0 1 .04-.28.13.13 0 0 1 .12-.07h.78c.09 0 .13.05.13.15v1.36c0 .03-.01.05-.04.05-.21.03-.41.02-.61-.05a.1.1 0 0 0-.08.01c-.2.1-.44.13-.73.1-.46-.07-.54-.35-.53-.75.01-.54.02-1.04.01-1.5 0-.39.19-.62.57-.7.4-.07.78-.05 1.11.07.3.12.34.52.3.8-.01.03-.03.04-.06.05-.17.02-.34.02-.52 0-.04 0-.06-.03-.06-.08v-.24a.22.22 0 0 0-.04-.12.2.2 0 0 0-.1-.08c-.24-.09-.54-.02-.55.3a34.94 34.94 0 0 0 .02 1.75l.05.05ZM32.77 40.55c.2.02.3-.07.3-.27v-2.2c0-.05.03-.08.09-.08h.48c.06 0 .1.04.1.1.02.71.02 1.44 0 2.19 0 .26-.1.52-.38.61-.37.13-.87.13-1.22 0-.28-.09-.42-.3-.42-.63v-2.11c0-.1.06-.16.17-.16h.38c.06 0 .1.04.1.1l.01 2.14c0 .19.1.29.28.3l.11.01ZM28.95 40.6a.68.68 0 0 0 .05-.26v-1.68a.67.67 0 0 0-.19-.47.63.63 0 0 0-.45-.19h-.72a.63.63 0 0 0-.45.2.67.67 0 0 0-.19.46v1.68a.68.68 0 0 0 .19.47.64.64 0 0 0 .45.19h.72a.62.62 0 0 0 .45-.2c.06-.05.1-.13.14-.2Zm-1.03-2.21h.17c.15 0 .27.12.27.28v1.65c0 .15-.12.28-.27.28h-.16a.27.27 0 0 1-.27-.28v-1.65c0-.16.11-.28.26-.28ZM24.43 40.09c.01-.23-.06-.44-.26-.56a.1.1 0 0 1-.04-.09.1.1 0 0 1 .06-.08c.13-.05.2-.15.21-.3.01-.26 0-.5-.02-.73a.15.15 0 0 0-.03-.08.68.68 0 0 0-.55-.24 52.52 52.52 0 0 1-1.46 0 .05.05 0 0 0-.01.04v2.85c0 .05.02.08.08.08h.5c.05 0 .08-.02.08-.07l-.01-1.1c0-.1.05-.15.15-.15h.35c.13 0 .2.07.22.2.05.34.06.67.04.97 0 .1.04.14.13.15l.53.02c.07 0 .1-.03.09-.1a3.31 3.31 0 0 1-.06-.81ZM23.2 38.4l.35.01c.1 0 .2.1.19.2l-.02.47c0 .1-.09.19-.2.18h-.35a.2.2 0 0 1-.19-.2l.02-.47c0-.1.1-.2.2-.19Z" fill="#F0F3FA"/><path fill-rule="evenodd" d="M37.02 39.75a19.03 19.03 0 0 0 .8-.01c.36-.01.51-.23.5-.59l-.01-.7c-.01-.35-.34-.44-.62-.43a26.57 26.57 0 0 1-1.36-.01.1.1 0 0 0-.05.05.1.1 0 0 0-.01.04v2.8c0 .07.03.1.1.1h.49c.05 0 .08-.03.08-.08l.02-1.08a.1.1 0 0 1 .06-.1ZM37 38.47a.13.13 0 0 0-.04.1v.63a.14.14 0 0 0 .04.1.14.14 0 0 0 .1.03h.29a.27.27 0 0 0 .2-.08.29.29 0 0 0 .08-.2v-.34a.3.3 0 0 0-.08-.2.28.28 0 0 0-.2-.08h-.3a.14.14 0 0 0-.09.04Z" fill="#F0F3FA"/></svg>