<!-- by TradingView --><svg width="56" height="56" viewBox="0 0 56 56" xmlns="http://www.w3.org/2000/svg"><path fill="#F0F3FA" d="M0 0h56v56H0z"/><path fill-rule="evenodd" d="M14.89 38 4 27.25 15.39 16l8.06 7.97-8.56 8.46V38Zm-.1-5.87-4.97-4.9 5.55-5.49L18 24.35l-3.23 3.18v4.6Z" fill="#EA5921"/><path d="M26 24h-3v9h3v-2.86L27.96 33H32l-3.14-4.36L32 24h-4.28L26 26.95V24ZM33 33v-9h5.01c1.65 0 2.99 1.43 2.99 3.2 0 1.77-1.34 3.3-2.99 3.3H36V33h-3Zm4.1-6.6H36v2h1.1c.5 0 .9-.45.9-1s-.4-1-.9-1ZM45 24h-3v3h3v6h3v-6h3v-3h-6Z" fill="#2B2A29"/></svg>