<!-- by TradingView --><svg width="56" height="56" viewBox="0 0 56 56" xmlns="http://www.w3.org/2000/svg"><path fill="#F0F3FA" d="M0 0h56v56H0z"/><path fill-rule="evenodd" d="M7 27v-7h1.68v2.84l2.3-2.84h1.94l-2.36 2.9L13 27h-1.93l-1.65-2.7-.74.9V27H7Zm8-7v7h1.7v-2h1.28l1.04 2h1.92l-1.4-2.3c.73-.4 1.23-1.2 1.23-2.16 0-1.4-1.07-2.54-2.4-2.54H15Zm1.7 1.42h1.44c.57 0 1.04.5 1.04 1.1 0 .61-.47 1.1-1.04 1.1H16.7v-2.2ZM23 20v7h5.34v-1.47H24.7V24h3.16v-1.46H24.7v-1.08h3.64V20H23Zm6.38 0v1.48h1.94V27H33v-5.52h2.02V20h-5.64Zm6.93 1.46v-1.45H42v1.45h-2V27h-1.75v-5.54h-1.94ZM46.5 27a3.5 3.5 0 1 0 0-7 3.5 3.5 0 0 0 0 7Zm0-1.45c1.02 0 1.84-.92 1.84-2.05s-.82-2.04-1.84-2.04-1.84.91-1.84 2.04.82 2.05 1.84 2.05Zm-38.73 7.9L7 34.88A5.1 5.1 0 0 0 10.18 36c1.95 0 2.82-1.03 2.82-2.24 0-1.19-1.26-1.64-1.67-1.79l-.03-.01a8.43 8.43 0 0 0-.23-.08c-.57-.18-1.74-.56-1.74-.99 0-.5 1.14-.6 2.88.26L13 29.8a5.63 5.63 0 0 0-2.8-.79c-1.58 0-2.79.72-2.79 2.15s1.59 1.8 2.2 1.93c.6.14 1.53.42 1.53.94 0 .5-.67.53-1.08.53-.4 0-1.93-.63-2.29-1.1ZM31.5 36a3.5 3.5 0 1 0 0-7 3.5 3.5 0 0 0 0 7Zm0-1.45c1.02 0 1.84-.92 1.84-2.05s-.82-2.05-1.84-2.05-1.84.92-1.84 2.05.82 2.05 1.84 2.05Zm8 1.45a3.5 3.5 0 1 0 0-7 3.5 3.5 0 0 0 0 7Zm0-1.45c1.02 0 1.84-.92 1.84-2.05s-.82-2.05-1.84-2.05-1.84.92-1.84 2.05.82 2.05 1.84 2.05Zm-18.5.33.74-1.43a4.6 4.6 0 0 0 2.2 1.1c.39 0 1.03-.02 1.03-.53 0-.52-.9-.8-1.47-.94-.58-.13-2.1-.5-2.1-1.93S22.55 29 24.07 29c1.22 0 2.3.53 2.68.79l-.75 1.36c-1.67-.86-2.77-.75-2.77-.26 0 .43 1.12.8 1.67 1 .1.02.17.05.22.07l.03.01c.4.15 1.6.6 1.6 1.79 0 1.21-.83 2.24-2.7 2.24-1.5 0-2.66-.75-3.06-1.12ZM13.57 29 16 33.68V36h1.72v-2.32L20.15 29h-1.72l-1.56 2.98L15.31 29h-1.74ZM44 36h1.54v-4.14L48.47 36H50v-7h-1.6v4.17L45.54 29H44v7Z" fill="#FAB702"/></svg>