<!-- by TradingView --><svg width="56" height="56" viewBox="0 0 56 56" xmlns="http://www.w3.org/2000/svg"><path fill="#F0F3FA" d="M0 0h56v56H0z"/><path d="M31.78 20.82a26.89 26.89 0 0 1-7.38 3.07c-.45.12-1.49.4-3.1.88-1.79.51-3.34 1.39-4.66 2.62a6.67 6.67 0 0 0-2.17 4.59c0 .04-.02.06-.06.06h-.11c-.06 0-.08-.03-.08-.08.1-1.35.21-2.28.33-2.8.72-3 2.9-5.34 6.53-7.02 3.17-1.47 6.08-2.8 8.75-4 .32-.14.8-.44 1.4-.9 1.93-1.4 4.01-2.96 6.25-4.66a9.48 9.48 0 0 1 3.07-1.5c.54-.16.6-.07.15.28l-.36.28c-.72.56-1.23 1-1.54 1.3-.5.52-.9 1.08-1.2 1.7-.3.64-1.94 4.4-4.9 11.28a12.07 12.07 0 0 1-2.56 3.68c-1.94 1.75-4.71 2.59-8.3 2.51-.33 0-.34-.06-.04-.17 1.2-.42 2.26-.8 3.17-1.16.28-.11.95-.51 2.02-1.2a7 7 0 0 0 1.74-1.5 15.22 15.22 0 0 0 3.19-7.17c.02-.13-.03-.16-.14-.09Z" fill="#509AC6"/><path d="M24.37 27.7c.03-.09 0-.13-.1-.14-3.4-.11-6.04 1.06-7.88 3.5a9.61 9.61 0 0 0-1.88 4.47l-.29 2.32c0 .02-.01.04-.03.04h-.11c-.05 0-.08-.03-.08-.08.01-2.15.4-4.17 1.14-6.06a11.26 11.26 0 0 1 3.54-4.94c.93-.71 2.47-1.35 4.65-1.91 2.8-.74 5.1-1.48 6.87-2.24.28-.12.37-.04.27.24a15.16 15.16 0 0 1-4.42 6.5 8.8 8.8 0 0 1-4.35 1.9c-.21.04-1.1.17-2.64.38-.06.01-.08-.02-.08-.07a.2.2 0 0 1 .03-.09 3.87 3.87 0 0 0 5.36-3.83Z" fill="#59A7CE"/><path d="M17.8 30.43a8.66 8.66 0 0 1 4.95-1.93c.1 0 .13.04.07.13a4.56 4.56 0 0 1-2.53 1.77c-.86.24-1.65.38-2.35.4-.45.01-.5-.11-.14-.37ZM30.46 38.78a7.59 7.59 0 0 1-2.87-.8c-.57-.31-1.66-.88-3.28-1.71a6.63 6.63 0 0 0-4.19-.64c-.39.06-.9.33-1.55.82a.1.1 0 0 1-.12.01l-.14-.08c-.07-.04-.08-.08-.01-.13.7-.52 1.17-.84 1.4-.97a5.75 5.75 0 0 1 4.52-.62c1.97.57 3.92 1.2 5.85 1.91.73.27 1.45.43 2.16.48l3.87.33c.98.1 1.85.35 2.62.76.12.07.1.11-.02.14-.25.05-.65.06-1.18.03a6.27 6.27 0 0 0-2.7.6c-1.67.7-3.4 1.45-5.2 2.23-.53.24-1.07.44-1.62.6a5.84 5.84 0 0 1-3.66-.07c-.91-.32-1.97-.94-3.2-1.88-.04-.04-.05-.08-.02-.14l.06-.1c.04-.08.1-.09.18-.04a6.7 6.7 0 0 0 6.82.7 10.1 10.1 0 0 0 2.32-1.28c.11-.09.1-.14-.04-.15Z" fill="#509AC6"/><path d="M24.05 38.81c-.97-1.66-2.74-2.2-5.32-1.66-.35.08-.8.3-1.33.64-.5.33-.94.59-1.34.78l-.04-.01c-.02-.02-.03-.05-.03-.07l.01-.1a11.3 11.3 0 0 1 4.46-2.2 5.48 5.48 0 0 1 3.63.5c.27.12.69.33 1.28.64 1.64.84 2.9 1.4 3.76 1.64.14.04.14.1.02.17-3.16 1.85-6.15 1.59-8.96-.77-.02-.02-.02-.03-.01-.05l.04-.1c.02-.08.07-.09.14-.04a4.65 4.65 0 0 0 3.61.8c.11-.01.14-.07.08-.17Z" fill="#509AC6"/><path d="M21.64 38.42c.81.27 1.54.33 1.6.13.08-.2-.53-.6-1.35-.87-.82-.27-1.54-.33-1.61-.12-.07.2.54.59 1.36.86Z" fill="#509AC6"/></svg>