<!-- by TradingView --><svg width="56" height="56" viewBox="0 0 56 56" xmlns="http://www.w3.org/2000/svg"><path fill="#F0F3FA" d="M0 0h56v56H0z"/><path d="M40 42.95c0 .03-.02.05-.06.05H16.06c-.04 0-.06-.02-.06-.05v-29.9c0-.03.02-.05.06-.05h23.88c.04 0 .06.02.06.05v29.9Z" fill="#030204"/><path d="M37.76 34.9a5.93 5.93 0 0 0-.85-1.69l-.75-1.02a42.7 42.7 0 0 0-3.9-5.05c.1-.23.31-.41.62-.54l.82-.35c.22-.08.45-.19.67-.33.57-.34.98-.39 1.24-.12.24.24.4.5.5.82l.3 1.02c.03.14.13.23.28.27.24.07.35-.04.33-.33a8.52 8.52 0 0 1 .3-3.12c.08-.25.1-.46.06-.62a2.56 2.56 0 0 0-.29-.58.21.21 0 0 1-.01-.2.22.22 0 0 1 .15-.12c.42-.13.64-.4.66-.8.01-.34-.01-.67-.07-.98-.05-.24-.15-.4-.3-.5-.18-.1-.37-.08-.58.05-.35.21-.77.59-1.26 1.13-.12.13-.44.29-.96.49-.07.02-.13 0-.18-.07l-.2-.3a.45.45 0 0 0-.36-.22.48.48 0 0 0-.4.16c-.24.25-.5.34-.8.27a.36.36 0 0 1-.2-.1c-.2-.23-.4-.35-.59-.38-.12-.01-.34.02-.66.11l-.13.04c-.14.04-.28.05-.42.03-.5-.07-1.01-.16-1.53-.26a.4.4 0 0 1-.32-.3c-.1-.27-.15-.47-.19-.58a1.96 1.96 0 0 0-.68-.9c-.3-.23-.64-.4-1.01-.53a.6.6 0 0 1-.34-.28.56.56 0 0 1-.06-.42c.11-.46.38-1.08.8-1.86.2-.38.15-.64-.17-.78a.32.32 0 0 0-.26 0l-1.04.4a.57.57 0 0 1-.63-.12 5.14 5.14 0 0 1-.15-.15c-.6-.56-1.03-.8-1.33-.72l-1.38.39c-.2.06-.29.19-.26.4.07.48.31.8.74.94.16.05.2.15.12.28l-.04.06c-.15.27-.25.47-.28.6a.95.95 0 0 0 .06.67l.13.25c.14.24.22.43.24.56.05.22 0 .43-.13.63-.37.57-.76 1-1.18 1.28a3.35 3.35 0 0 0-.84.98.26.26 0 0 1-.2.11.25.25 0 0 1-.2-.07l-.28-.26a.26.26 0 0 0-.2-.07.28.28 0 0 0-.2.1c-.21.25-.46.4-.76.48a.43.43 0 0 0-.3.22.4.4 0 0 0-.02.35c.1.3.25.52.43.68.07.06.06.1-.02.13l-.86.33c-.22.09-.31.24-.29.46.02.2.12.46.3.8.24.45.65.58 1.25.4.44-.13.88-.16 1.31-.1.2.02.28.12.25.31-.1.57.07 1.12.5 1.66-.15.16-.28.35-.41.55-.23.36-.58.9-1.04 1.58-.58.86-1 1.5-1.24 1.92-.16.26-.4.63-.76 1.12l-.44.63c-.09.14-.2.5-.35 1.06l.34-19.87c0-.06.03-.1.1-.1h20.17c.17 0 .26.09.26.26.04 6.38-.02 12.76-.18 19.14-.01.48-.16.7-.45.67Z" fill="#FF0"/><path d="M32.27 27.14a15.83 15.83 0 0 1-1.86-1.8c-.17-.19-.35-.35-.52-.49l-.56-.43a.3.3 0 0 0-.33 0c-.07.03-.16.1-.27.2-.18.15-.32.25-.43.28-.17.05-.34 0-.52-.14-.02-.05-.02-.1-.02-.16.08 0 .13-.03.15-.05.02-.03.01-.07-.03-.12-.21-.21-.44-.27-.7-.16-.22.1-.54.27-.94.51-.06.04-.1.1-.11.17l-.05.1c-.06.05-.12.06-.18.04a2.44 2.44 0 0 0-.62-.13.16.16 0 0 1-.16-.11c-.03-.08 0-.18.06-.3.1-.15.23-.19.4-.1l.46.27c.05.02.06.01.05-.04-.08-.34-.27-.52-.6-.51h-.36c-.15.01-.26.06-.34.13a27 27 0 0 0-3.03 3.64 2.07 2.07 0 0 1-.5-1.66c.03-.19-.05-.3-.25-.32a3.16 3.16 0 0 0-1.31.11c-.6.18-1.01.05-1.25-.4a2.49 2.49 0 0 1-.3-.8c-.02-.22.07-.37.29-.46l.86-.33c.08-.03.09-.07.02-.13a1.67 1.67 0 0 1-.43-.68.4.4 0 0 1 .03-.35.43.43 0 0 1 .29-.22c.3-.07.55-.23.76-.48.05-.06.11-.1.2-.1.08 0 .14.02.2.07l.27.26c.06.06.13.08.22.07.08 0 .14-.04.2-.11a3.35 3.35 0 0 1 .84-.97 4.4 4.4 0 0 0 1.17-1.29c.13-.2.18-.41.13-.63-.02-.13-.1-.32-.24-.56a6.8 6.8 0 0 1-.13-.25.95.95 0 0 1-.06-.67 2.7 2.7 0 0 1 .32-.66c.08-.13.04-.23-.11-.28-.44-.14-.68-.46-.75-.95-.03-.2.06-.33.26-.4.3-.07.75-.2 1.38-.38.3-.08.74.16 1.33.72l.15.15c.19.17.4.2.63.11l1.04-.4a.32.32 0 0 1 .26 0c.32.15.37.4.17.79-.42.78-.68 1.4-.8 1.86a.56.56 0 0 0 .07.42.6.6 0 0 0 .33.28c.37.12.71.3 1 .53.35.27.58.57.69.9l.19.59a.4.4 0 0 0 .32.29c.52.1 1.03.2 1.53.26a1 1 0 0 0 .42-.03l.13-.04c.32-.09.54-.12.66-.1.19.02.39.14.6.37.05.05.11.08.18.1.3.07.57-.02.8-.27.12-.11.25-.16.4-.16.16.02.29.09.37.21l.2.31c.05.07.1.1.18.07.52-.2.84-.36.96-.5.5-.53.91-.9 1.26-1.12.21-.13.4-.15.57-.05.16.1.26.26.3.5.07.3.1.64.08.98-.02.4-.24.67-.66.8a.22.22 0 0 0-.15.13.21.21 0 0 0 .02.2c.16.27.25.46.28.57.04.16.02.37-.06.62-.29.97-.39 2.01-.3 3.12.02.29-.09.4-.33.33a.39.39 0 0 1-.29-.27l-.3-1.02c-.09-.31-.25-.58-.49-.82-.26-.27-.67-.22-1.24.12-.22.14-.45.25-.67.33l-.82.35c-.3.13-.51.31-.61.54Z" fill="#FB2620"/><path d="M27.76 24.6c-.2-.06-.4-.07-.6-.03-.13.04-.2.13-.18.27l.08.53a.16.16 0 0 1-.08.17l-.2.1c-.05.02-.08.04-.1.07v.13c.03.05.07.07.12.07l1.23.03c.02 0 .04 0 .05-.02a.19.19 0 0 0 .02-.05c.01-.06 0-.1-.06-.13-.3-.2-.47-.42-.51-.68-.03-.14.06-.24.25-.3.18.15.35.2.52.14.1-.03.25-.13.42-.28.12-.1.21-.17.28-.2a.3.3 0 0 1 .33 0l.56.43c.17.14.35.3.52.5.57.65 1.2 1.25 1.86 1.8a42.71 42.71 0 0 1 3.9 5.04c0 .02.25.36.74 1.02.37.5.65 1.06.85 1.69.1 1.1-.2 2.02-.92 2.76-1.23 1.28-2.64 1.46-4.23.53a3.5 3.5 0 0 1-.71-.62l-.23-.23a.1.1 0 0 0-.1-.03.1.1 0 0 0-.07.07c-.2.82-.59 1.51-1.14 2.07a3.9 3.9 0 0 1-2.1 1.1c-.72.14-1.43.05-2.13-.25a3.6 3.6 0 0 1-1.67-1.42c-.43-.69-.65-1.19-.66-1.5 0-.26-.1-.29-.28-.1a3.34 3.34 0 0 1-2.64 1.19 3.31 3.31 0 0 1-2.35-1.1 4 4 0 0 1-1.01-2.57c.14-.57.26-.92.35-1.06l.44-.63c.35-.49.6-.86.76-1.12.24-.42.66-1.06 1.24-1.92l1.04-1.58a27.01 27.01 0 0 1 3.44-4.19c.08-.07.19-.12.34-.13h.37c.32 0 .51.17.59.51.01.05 0 .06-.05.04l-.46-.26c-.17-.1-.3-.06-.4.1-.07.11-.09.21-.06.29.03.07.08.1.16.11.17.01.38.05.62.13.06.02.12 0 .18-.04a.17.17 0 0 0 .04-.1.24.24 0 0 1 .12-.17c.4-.24.72-.41.95-.51.25-.1.48-.05.69.16.04.05.05.09.03.12-.02.02-.07.04-.15.05Z" fill="#F0F3FA"/><path d="M27.76 24.6c0 .05 0 .1.02.16-.2.06-.27.16-.25.3.04.25.21.48.51.68.05.03.07.07.06.13l-.02.05a.06.06 0 0 1-.05.02l-1.23-.03c-.05 0-.09-.02-.11-.08-.02-.04-.02-.08 0-.12.01-.03.04-.05.09-.07l.2-.1c.06-.04.09-.1.08-.17l-.07-.53c-.02-.14.04-.23.18-.27.19-.04.38-.03.6.03ZM29.3 25.33c.2-.14.29-.34.2-.46-.08-.1-.3-.08-.5.06s-.3.34-.21.46c.08.1.31.08.5-.06ZM24.6 25.44c-.02-.01-.03-.03-.01-.06v-.01c.07-.1.16-.16.28-.19.12-.02.23 0 .34.06l.29.17c.11.06.18.15.22.27.04.11.02.22-.04.32V26c-.02.03-.04.03-.07.02l-1-.59ZM29.1 26.44l-.04-.01v-.01c-.07-.1-.08-.21-.02-.35a.75.75 0 0 1 .3-.34l.08-.05c.14-.1.29-.14.44-.14.14 0 .25.05.32.15v.05l-1.08.7ZM24.95 26.13c.22.16.46.44.72.82.06.09.03.14-.06.16-.1.02-.19 0-.26-.07-.47-.41-.9-.63-1.3-.65-.1 0-.14-.05-.12-.15.02-.14.12-.22.3-.23.33-.03.57.01.72.12ZM26.38 26.89c.32-.43.78-.61 1.38-.53.18.02.4.18.67.48.03.04.04.09 0 .13l-.05.1c-.03.05-.05.05-.08.02-.39-.38-.95-.39-1.7-.03-.08.03-.15.02-.2-.04-.05-.04-.05-.09-.02-.13ZM29.28 27.5l-.04-.01v-.01c-.07-.12-.06-.27.05-.44.11-.18.28-.34.5-.47l.05-.03c.23-.13.45-.2.66-.2.2-.02.35.04.42.16.02.02.01.03 0 .04l-1.64.96ZM25.07 28.2a5.29 5.29 0 0 0-.86-.61 1.62 1.62 0 0 0-.83-.13c-.31.03-.36-.08-.16-.3.23-.25.56-.3 1-.16.38.12.69.3.9.58.13.14.2.3.22.47a.2.2 0 0 1-.02.1c-.06.12-.14.14-.25.06ZM31.6 27.74c-.75.1-1.36.43-1.83.98-.06.06-.11.07-.17.02-.11-.1-.14-.2-.09-.3.3-.57.75-.96 1.33-1.18.15-.06.3-.06.45-.01.16.05.29.13.39.23.15.14.13.23-.09.26ZM26.02 28.35c.21-.44.51-.73.9-.85.6-.2 1.18-.08 1.72.35.11.1.18.18.19.26 0 .05 0 .08-.04.11a.13.13 0 0 1-.13.03c-.42-.13-.65-.2-.7-.2-.28-.09-.6-.08-.94 0-.21.06-.52.18-.93.36-.08.04-.1.02-.07-.06ZM23.73 28.86c-.25-.14-.6-.21-1.06-.22l-.36-.01c-.2-.02-.22-.1-.08-.22.24-.22.51-.34.81-.35.83-.04 1.47.3 1.91 1.02.1.17.13.34.09.5a.16.16 0 0 1-.13.12.17.17 0 0 1-.18-.05c-.3-.32-.63-.58-1-.8ZM32.62 28.97c-.37-.02-.66 0-.86.04-.25.05-.5.18-.76.37-.1.07-.32.27-.64.59-.4.4-.53.33-.4-.21.14-.55.51-.97 1.11-1.27.66-.32 1.21-.23 1.65.26.14.16.1.23-.1.22ZM27.41 28.63c.67-.02 1.24.23 1.71.77.09.1.14.18.15.27 0 .05 0 .1-.05.12a.13.13 0 0 1-.14.02 8.99 8.99 0 0 0-1.04-.4 1.78 1.78 0 0 0-.6-.07 1.8 1.8 0 0 0-.59.11c-.34.14-.68.3-1 .48a.13.13 0 0 1-.14 0 .12.12 0 0 1-.06-.12c0-.09.05-.18.12-.28.42-.57.97-.87 1.64-.9ZM23.42 29.44a3.23 3.23 0 0 1 1 .9c.2.31.27.67.21 1.07a.1.1 0 0 1-.08.1.1.1 0 0 1-.12-.04l-.03-.04a3.76 3.76 0 0 0-1.35-1.11 3.81 3.81 0 0 0-1.8-.13.1.1 0 0 1-.12-.06.1.1 0 0 1 .01-.13c.25-.32.56-.52.92-.6a3.32 3.32 0 0 1 1.36.04ZM31.65 30.87c-.13.09-.3.26-.51.5-.26.29-.48.5-.66.6-.07.05-.11.03-.12-.06 0-.36.09-.73.27-1.1.38-.78.99-1.17 1.83-1.17.64 0 1.12.18 1.43.56.03.05.04.1 0 .15-.02.05-.07.07-.13.06-.8-.13-1.5.02-2.11.46ZM28.99 31.33a2.53 2.53 0 0 0-2.63-.09c-.5.26-.85.44-1.08.54-.1.04-.13.01-.1-.08a2.49 2.49 0 0 1 1.97-1.62c.93-.16 1.71.15 2.35.94.13.16.21.34.23.54 0 .04 0 .07-.04.1a.1.1 0 0 1-.1 0c-.08-.03-.28-.15-.6-.33Z" fill="#100909"/><path d="M21.31 31.86a3.3 3.3 0 0 0-.92.1l-.37.06c-.03 0-.06 0-.09-.04a.08.08 0 0 1 0-.1c.4-.64.98-1 1.73-1.06 1.08-.1 1.89.39 2.43 1.48.18.34.22.8.13 1.4a.1.1 0 0 1-.08.08.1.1 0 0 1-.11-.03c-.1-.1-.22-.26-.4-.49-.3-.38-.52-.62-.68-.73a3.8 3.8 0 0 0-1.64-.67ZM35 32.25c-1.4-.41-2.62.18-3.67 1.78-.14.2-.22.2-.26-.05a2.63 2.63 0 0 1 .1-1.43c.46-1.07 1.29-1.55 2.5-1.45.3.03.6.13.93.32.35.22.54.44.57.69 0 .04-.01.08-.05.11a.13.13 0 0 1-.12.03ZM30 33.91a3.37 3.37 0 0 0-2.13-.91c-.83-.05-1.6.16-2.3.64l-.61.4c-.08.05-.11.03-.1-.07.16-.86.65-1.52 1.47-1.98.39-.21.82-.32 1.3-.32.48 0 .9.12 1.25.35.36.23.66.49.91.77.32.36.47.7.47 1.02 0 .06-.03.1-.1.13a.14.14 0 0 1-.16-.03Z" fill="#100909"/><path d="M18.36 35.09a2.58 2.58 0 0 0 2.52 2.66 2.6 2.6 0 0 0 2.68-2.5 2.58 2.58 0 0 0-2.52-2.66 2.6 2.6 0 0 0-2.68 2.5ZM31.78 35.85a2.63 2.63 0 0 0 3 2.17 2.59 2.59 0 0 0 2.16-2.97 2.63 2.63 0 0 0-3-2.18 2.59 2.59 0 0 0-2.16 2.98ZM27.63 39.87a3.11 3.11 0 0 0 3.14-3.08c0-1.7-1.4-3.08-3.14-3.08a3.11 3.11 0 0 0-3.15 3.08c0 1.7 1.4 3.08 3.15 3.08Z" fill="#100909"/></svg>