<!-- by TradingView --><svg width="56" height="56" viewBox="0 0 56 56" xmlns="http://www.w3.org/2000/svg"><path fill="#F0F3FA" d="M0 0h56v56H0z"/><path fill-rule="evenodd" d="M18.37 14A4.37 4.37 0 0 0 14 18.37v19.26A4.37 4.37 0 0 0 18.37 42h19.26A4.37 4.37 0 0 0 42 37.63V18.37A4.37 4.37 0 0 0 37.63 14H18.37Zm13.5 4.15c.64.34.89 1.12.54 1.76l-9.2 17.04c-.34.63-1.13.87-1.77.53a1.29 1.29 0 0 1-.54-1.75l9.2-17.04a1.32 1.32 0 0 1 1.77-.54Zm-9.68 5c.35-.63.12-1.42-.51-1.76a1.32 1.32 0 0 0-1.79.5l-1.73 3.08c-.35.62-.12 1.41.52 1.76.63.35 1.43.12 1.78-.5l1.73-3.08Zm4.2.11c.36-.62.13-1.4-.5-1.76a1.32 1.32 0 0 0-1.79.5l-4.13 7.26c-.35.62-.13 1.41.5 1.76.64.35 1.44.13 1.8-.5l4.12-7.26Zm7.98-1.61c.64.34.86 1.13.51 1.76l-5.9 10.48c-.35.63-1.14.86-1.78.5a1.29 1.29 0 0 1-.51-1.75l5.9-10.49a1.32 1.32 0 0 1 1.78-.5Zm2.46 6.13c.36-.62.13-1.41-.5-1.76a1.32 1.32 0 0 0-1.79.5l-6.53 11.55c-.36.63-.13 1.42.5 1.77.64.34 1.44.12 1.79-.5l6.53-11.56Z" fill="#3BB3C3"/></svg>