<!-- by TradingView --><svg width="56" height="56" viewBox="0 0 56 56" xmlns="http://www.w3.org/2000/svg"><path fill="#F0F3FA" d="M0 0h56v56H0z"/><path d="m22.77 13.94-1.07-1.99c2.32-.81 4.71-1.1 7.16-.87.07 0 .13.04.2.11l.1.13c.4.4.48.84.26 1.34a.9.9 0 0 1-.33.37c-.16.11-.37.2-.63.24-.05.01-.2 0-.47-.01l-.55-.02h-.89c-1.29.07-2.55.3-3.78.7Z" fill="#359CEE"/><path d="m21.7 11.95 1.07 1.99a14.63 14.63 0 0 0-3.7 1.82l-1.08-1.95a17.3 17.3 0 0 1 3.7-1.86Z" fill="#52C1F6"/><path d="m18 13.8 1.06 1.96-.94.7a14.94 14.94 0 0 0-3.26 3.72c-.2.31-.35.51-.46.6-.19.17-.41.3-.67.39a.89.89 0 0 1-.84-.09.76.76 0 0 1-.35-.75 3.21 3.21 0 0 1 .53-1.45 17.05 17.05 0 0 1 4.92-5.07Z" fill="#69DFFC"/><path d="M30.37 15.37a6.96 6.96 0 0 1-.85 1.51c-.27.34-.49.63-.65.87-.28.41-.42.87-.43 1.36-.01.5.13.96.42 1.37.06.09.25.32.57.69.18.22.36.54.52.97-.3.06-.64.03-1.06-.08a3.35 3.35 0 0 0-.59-.12c-.58-.03-1.13.1-1.64.4l-1-.04c.39-.32.67-.7.86-1.16.1-.24.14-.46.13-.69 0-.1-.05-.27-.14-.47-.2-.49-.27-.99-.22-1.5.09-1.06.54-1.9 1.34-2.5.81-.61 1.72-.81 2.74-.6Z" fill="#F6DC01"/><path d="M32.01 16.26c-.4.3-.7.55-.9.76-.18.18-.36.44-.52.77a.06.06 0 0 0 0 .06c.17.27.26.53.26.78 0 .2-.06.48-.17.83-.01.02-.01.04 0 .07.06.39.27.73.63 1.01.4.31.65.5.76.6-.59.57-1.3.91-2.12 1a3.25 3.25 0 0 0-.52-.97c-.32-.37-.5-.6-.57-.7-.29-.4-.43-.86-.42-1.36 0-.5.15-.95.43-1.36.16-.24.38-.53.65-.87.28-.34.56-.84.85-1.5a3.4 3.4 0 0 1 1.64.88Z" fill="#FF0"/><path d="M32.01 16.26a3.44 3.44 0 0 1 .06 4.87l-.76-.59a1.62 1.62 0 0 1-.64-1.01v-.07c.12-.35.18-.62.18-.83 0-.25-.09-.51-.25-.78a.06.06 0 0 1 0-.06c.16-.33.33-.59.5-.77.2-.2.5-.46.91-.76Z" fill="#FFFF64"/><path d="M41.79 27.48a15.07 15.07 0 0 0-2.64-7.95 1.3 1.3 0 0 1-.22-.46 1.5 1.5 0 0 1 0-.54c.1-.49.38-.77.83-.83.3-.04.63.07 1 .34.07.06.17.17.28.33a17.01 17.01 0 0 1 2.95 10.2 17.27 17.27 0 0 1-2.8 8.84c-.18.28-.33.46-.44.55-.2.16-.42.26-.64.32a.97.97 0 0 1-.65-.06.94.94 0 0 1-.5-.46.83.83 0 0 1-.06-.43c.03-.37.11-.65.24-.84a15.1 15.1 0 0 0 2.65-9.01Z" fill="#1170E8"/><path d="M21.96 17.99c-.45.42-.42.77.08 1.04a.73.73 0 0 1-.42.27.73.73 0 0 1-.5-.05.73.73 0 0 1-.4-.48.74.74 0 0 1 .1-.65.75.75 0 0 1 1.14-.13Z" fill="#02BA4C"/><path d="M22.04 19.03c-.5-.27-.53-.62-.08-1.04.15.13.23.3.24.5.02.2-.03.38-.16.54Z" fill="#89E9AC"/><path d="M20.94 21.52c-.38.73-.9 1.32-1.59 1.77l-.8.5c-.15.08-.27.18-.36.29-.13.16-.33.37-.6.62a4 4 0 0 0-1.13 3.45c.05.25.13.51.27.79.29.56.64 1.08 1.05 1.57.36.4.9.75 1.65 1 .08.04.33.11.74.23.14.05.26.1.36.18.56.42 1.09.87 1.58 1.37a5.96 5.96 0 0 1-7.24-3.38 6.18 6.18 0 0 1-.32-3.78c.1-.45.26-.88.48-1.31a5.92 5.92 0 0 1 5.9-3.3Z" fill="#F6DC01"/><path d="m25.66 22.3 1 .04-.3.22a.88.88 0 0 0-.55.06 2.5 2.5 0 0 0-.5.35l-.3.26c-.26.25-.49.44-.67.57-.24.16-.39.3-.45.4a1.2 1.2 0 0 0-.12.87l.2 1.05c.02.21.06.39.1.53.16.52.2.95.14 1.32a4.09 4.09 0 0 1-1 1.96c-.52.58-1 .98-1.43 1.18-.02.02-.02.03 0 .04l2.34 1.07c-.6.5-1.27.85-2 1.07-.5-.5-1.03-.95-1.59-1.37-.1-.08-.22-.13-.36-.18l-.74-.22c-.74-.26-1.3-.6-1.65-1.01-.41-.49-.76-1.01-1.04-1.57a2.57 2.57 0 0 1-.27-.8 4 4 0 0 1 .58-2.8c.13-.2.31-.41.55-.64.26-.25.46-.46.59-.62.1-.11.21-.21.36-.3.22-.12.5-.29.8-.5a4.56 4.56 0 0 0 1.59-1.76 6.36 6.36 0 0 1 2.79 1.02c.12.09.25.14.38.17.59.11 1.1-.02 1.55-.41Z" fill="#FF0"/><path d="M26.36 22.56c-.45.38-.72.88-.79 1.5-.02.16 0 .33.04.5l.17.45.15.34c.22.63.35 1.26.38 1.88a5.96 5.96 0 0 1-2.19 5l-2.34-1.08c-.02-.01-.02-.02 0-.04.44-.2.91-.6 1.43-1.18a4.09 4.09 0 0 0 1-1.96c.06-.37.02-.8-.14-1.32a3.7 3.7 0 0 1-.11-.53c-.03-.22-.1-.57-.2-1.05a1.2 1.2 0 0 1 .13-.86c.06-.1.21-.25.45-.41.18-.13.4-.32.67-.57a5.66 5.66 0 0 1 .8-.61c.17-.08.35-.1.55-.06Z" fill="#FFFF64"/><path d="M38.2 23.04c-.3.42-.62.8-.97 1.17-.33.35-.39.73-.18 1.14.21.44.53.94.93 1.5-.2.11-.4.2-.6.27-.11.03-.2.1-.26.18a.85.85 0 0 0-.12.85c.08.2.2.36.38.45-.06.2-.11.42-.18.62-.08.26-.12.43-.12.53 0 .21.06.39.18.54l.5.6c-.3.22-.6.3-.94.27-.34-.04-.62-.2-.85-.47a1.3 1.3 0 0 1-.09-1.58c.07-.1.19-.22.37-.37l.1-.07a1.01 1.01 0 0 0 .2-1.3c-.07-.1-.2-.19-.4-.25a2.31 2.31 0 0 1-1.5-3.17 2.32 2.32 0 0 1 1.85-1.4c.6-.07 1.17.1 1.7.49Z" fill="#02BA4C"/><path d="M38.48 23.3c-.14.23-.28.39-.41.48l-.72.5c-.13.1-.22.2-.27.29-.09.2-.1.38-.05.55.04.14.14.3.3.48.32.37.66.7 1.03.96l-.38.29c-.4-.56-.72-1.06-.93-1.5-.2-.4-.15-.79.18-1.14.35-.36.67-.75.97-1.17l.28.25Z" fill="#04D581"/><path d="M38.36 26.56a6.2 6.2 0 0 1-1.03-.96 1.45 1.45 0 0 1-.3-.48.74.74 0 0 1 .05-.55.84.84 0 0 1 .27-.29l.72-.5c.13-.09.27-.25.41-.49a2.4 2.4 0 0 1-.12 3.27Z" fill="#89E9AC"/><path d="M37.76 28.78c-.13.23-.26.44-.4.63a.5.5 0 0 0-.04.61c.06.11.15.2.25.28.15.11.31.22.47.31-.08.12-.18.21-.28.29l-.5-.6a.82.82 0 0 1-.18-.55c0-.1.04-.27.12-.53.07-.2.12-.41.18-.62.13.03.25.09.38.18Z" fill="#04D581"/><path d="m38.04 30.61-.47-.3a.9.9 0 0 1-.25-.29.5.5 0 0 1 .03-.6c.15-.2.28-.41.4-.64.33.25.51.58.54 1 .02.3-.06.58-.25.83Z" fill="#89E9AC"/><path d="M30.56 29.82a7.02 7.02 0 0 0-.65 1.4c-.06.14-.1.3-.1.51 0 .1.02.2.08.29.2.34.55.87 1.03 1.6.13.19.26.34.38.46.22.42.5.68.82.78.1.03.22.03.37.01l.37-.04c.5-.04.98.02 1.45.19a7.96 7.96 0 0 1-1.25 1.55c-.32.31-.54.57-.68.75-.22.32-.34.62-.35.92-.03.54.22 1.03.75 1.45a5.22 5.22 0 0 1 1.54 1.92c-.5.19-1 .26-1.48.21-1.14-.11-2-.63-2.6-1.55a3.48 3.48 0 0 1 .56-4.56c.16-.16.26-.28.3-.39a.9.9 0 0 0 .04-.65c-.08-.23-.2-.43-.34-.62a1.18 1.18 0 0 0-.55-.4 1 1 0 0 0-.38 0h-.1c-.1.02-.18.01-.27 0-.7-.13-1.2-.48-1.49-1.05a2 2 0 0 1 .68-2.63c.54-.36 1.16-.4 1.87-.15Z" fill="#02BA4C"/><path d="M31.03 30.14a2.2 2.2 0 0 1-.5.68c-.24.23-.4.42-.47.55a.7.7 0 0 0-.03.66c.04.1.16.25.34.47l.18.21c.11.15.22.33.33.55l.34.62.08.2a2.72 2.72 0 0 1-.38-.47c-.48-.72-.83-1.25-1.03-1.6a.5.5 0 0 1-.08-.28 1.62 1.62 0 0 1 .16-.69c.22-.55.42-.96.59-1.22l.47.32Z" fill="#04D581"/><path d="m31.22 33.88-.34-.62a3.52 3.52 0 0 0-.5-.76c-.2-.22-.3-.38-.35-.47a.7.7 0 0 1 .03-.66c.07-.13.23-.32.46-.55l.15-.15c.13-.14.25-.31.36-.53.26.23.45.48.55.76a2.03 2.03 0 0 1-.2 1.86c-.18.34-.23.71-.16 1.12Z" fill="#89E9AC"/><path d="m15.92 37.33-2.02 1a17.26 17.26 0 0 1-1.65-2.65c-.22-.44-.3-.83-.22-1.17.08-.4.28-.66.6-.8.2-.1.42-.1.66-.02.2.07.4.2.57.37.08.08.18.25.31.52.48.98 1.06 1.9 1.75 2.75Z" fill="#52C1F6"/><path d="m35.8 36.09-1.64.88c-.05.03-.06.07-.05.12l.1.3c.1.31.16.54.19.68.03.21.02.43-.03.66-.02.1-.08.24-.18.42l-.21.42a.1.1 0 0 0 0 .08.1.1 0 0 0 .05.06c.58.24 1.13.56 1.65.97-.38.41-.83.72-1.36.93a5.22 5.22 0 0 0-1.54-1.91c-.53-.43-.78-.92-.75-1.46 0-.3.13-.6.35-.92a6.59 6.59 0 0 1 .93-1c.37-.4.7-.83 1-1.3a3.5 3.5 0 0 1 1.48 1.07Z" fill="#04D581"/><path d="m25.58 35.96-.1.09c-.47.44-.8.78-.95 1.04-.25.4-.21.77.1 1.12l.6.66c.07.06.14.2.23.4-.39.3-.82.45-1.31.45a2.12 2.12 0 0 1-1.93-1.3 2.12 2.12 0 0 1 3.37-2.47Z" fill="#F6DC01"/><path d="M25.46 39.27c-.09-.2-.16-.34-.23-.4l-.6-.66c-.31-.35-.35-.73-.1-1.12a5.71 5.71 0 0 1 1.05-1.13 2.11 2.11 0 0 1 .7 1.47 2.14 2.14 0 0 1-.82 1.84Z" fill="#FFFF64"/><path d="M35.68 40.68a6.81 6.81 0 0 0-1.65-.97.1.1 0 0 1-.06-.06.1.1 0 0 1 0-.08l.22-.42c.1-.18.16-.32.18-.42.05-.23.06-.45.03-.66a5.11 5.11 0 0 0-.29-.98c-.01-.05 0-.1.05-.12l1.63-.88a3.54 3.54 0 0 1-.11 4.59Z" fill="#89E9AC"/><path d="M15.92 37.33c.66.82 1.4 1.57 2.24 2.24l-1.98 1.23c-.84-.74-1.6-1.56-2.28-2.46l2.02-1.01Z" fill="#359CEE"/><path d="M18.16 39.57a14.54 14.54 0 0 0 10.53 3.12c.5-.04.91.18 1.22.64a1 1 0 0 1-.7.29h-3.08c-.52.01-1.32.02-2.4.01h-2.05c-.23 0-.5.04-.8.1a16.72 16.72 0 0 1-4.7-2.93l1.98-1.23Z" fill="#278AEC"/><path d="M29.9 43.33c.06.09.1.18.13.28.03.1.03.2 0 .3-.12.31-.29.57-.53.78a.7.7 0 0 1-.37.2 16.36 16.36 0 0 1-8.26-1.16c.31-.06.58-.1.8-.1h4.46c1.07-.02 2.1-.02 3.07-.01a1 1 0 0 0 .7-.29Z" fill="#1170E8"/></svg>