<!-- by TradingView --><svg width="56" height="56" viewBox="0 0 56 56" xmlns="http://www.w3.org/2000/svg"><path fill="#00583D" d="M0 0h56v56H0z"/><path d="M32.64 21c.23-.55 2.01-1 4.18-1 2.2 0 4 .45 4.18 1.02v.2a.53.53 0 0 1-.13.2c-.48-.48-2.11-.83-4.05-.83s-3.58.35-4.06.82a.5.5 0 0 1-.12-.18v-.22ZM41 18.8c-.19-.58-1.99-1.02-4.18-1.02-2.17 0-3.95.44-4.18 1V14H41v4.8ZM15 32.5h.38v-4.06h2.03c-.39-.5-.6-1.1-.6-1.74a2.67 2.67 0 0 1 1.12-2.22v-.86H15v8.87Zm5.53-8.02a2.7 2.7 0 0 1 1.11 2.22c0 .63-.2 1.24-.6 1.74h.93v-4.82h-1.44v.86Zm-1.67 5.63h-2.74a.38.38 0 0 0-.35.06.38.38 0 0 0-.15.3.37.37 0 0 0 .16.3.38.38 0 0 0 .34.06h2.74a.38.38 0 0 0 .45-.19.37.37 0 0 0-.11-.47.38.38 0 0 0-.34-.06Zm13.93.7c0-.63 1.83-1.12 4.11-1.12 2.15 0 3.9.45 4.1 1.02v.2a.5.5 0 0 1-.13.19c-.47-.47-2.07-.82-3.97-.82-1.9 0-3.5.35-3.97.82a.41.41 0 0 1-.14-.29Zm0-4.62c0-.63 1.83-1.13 4.11-1.13 2.15 0 3.9.44 4.1 1.01v.2a.5.5 0 0 1-.13.2c-.47-.48-2.07-.83-3.97-.83-1.9 0-3.5.34-3.97.84a.42.42 0 0 1-.14-.3Zm0 13.12c0-.62 1.83-1.12 4.11-1.12 2.15 0 3.9.45 4.1 1.02v.2a.48.48 0 0 1-.13.19c-.47-.47-2.07-.82-3.97-.82-1.9 0-3.5.34-3.97.82a.41.41 0 0 1-.14-.29Zm0-4.1c0-.62 1.83-1.12 4.11-1.12 2.15 0 3.9.44 4.1 1v.23a.54.54 0 0 1-.13.2c-.47-.49-2.07-.83-3.97-.83-1.9 0-3.5.34-3.97.82a.42.42 0 0 1-.14-.3Zm-16.84-1.16h3.13c.2 0 .2-.07.2-.17v-.05c0-.1 0-.18-.2-.18h-3.13c-.2 0-.2.08-.19.18v.05c0 .1 0 .17.2.17ZM15.4 41v-7.74H15v8.73h8.36V41h-7.97Zm3.55-4.13h-2.8a.4.4 0 0 0-.35.05.38.38 0 0 0-.16.3.37.37 0 0 0 .16.3.4.4 0 0 0 .35.06h2.8a.4.4 0 0 0 .35-.05.38.38 0 0 0 .16-.3.37.37 0 0 0-.16-.31.4.4 0 0 0-.35-.05ZM32.64 41 41 41v.99l-8.36.01v-.99Zm-3.78-2.93c.14 0 .27-.06.37-.16.1-.1.16-.23.16-.36v-3.01a.5.5 0 0 0-.16-.37.54.54 0 0 0-.75 0 .5.5 0 0 0-.15.37v3a.5.5 0 0 0 .15.37.53.53 0 0 0 .38.16Zm3.1 2.92H24v1h8l-.03-1Zm-6.61-3.77a.33.33 0 0 0 .22-.12.31.31 0 0 0 .06-.24v-2.5a.28.28 0 0 0-.06-.23.3.3 0 0 0-.22-.1.3.3 0 0 0-.23.1.28.28 0 0 0-.06.23v2.51a.3.3 0 0 0 .06.25.32.32 0 0 0 .23.12v-.02Zm1.36 2.94a.54.54 0 0 0 .38-.17.5.5 0 0 0 .13-.4v-5.05a.49.49 0 0 0-.13-.39.52.52 0 0 0-.39-.16.53.53 0 0 0-.38.16.5.5 0 0 0-.13.39v5.05c0 .14.05.27.14.37.1.1.24.15.38.15v.05Zm4.22-.05a.55.55 0 0 0 .37-.15.52.52 0 0 0 .16-.37v-4.97a.5.5 0 0 0-.14-.4.53.53 0 0 0-.39-.16.55.55 0 0 0-.4.17.51.51 0 0 0-.13.39v4.97c0 .14.05.27.15.37.1.1.24.15.38.15Zm-8.71-20.3a.57.57 0 0 0-.05.23h-.02v2.77H20.6V20a.61.61 0 0 0-.23-.4.65.65 0 0 0-.43-.14v-2.96a.6.6 0 0 0-.21-.4.63.63 0 0 0-.84.02.6.6 0 0 0-.2.4v2.94a.67.67 0 0 0-.42.15c-.13.1-.2.24-.23.39v2.8H15V14h8.36v5.83a.6.6 0 0 0-.23-.26.63.63 0 0 0-.34-.1.62.62 0 0 0-.44.17.59.59 0 0 0-.13.19Zm4.23 10.62v1.28c0 .14.06.28.16.38a.55.55 0 0 0 .77 0c.1-.1.16-.24.16-.38v-1.3a1.45 1.45 0 0 1-1.09.02Zm-2.44-6.83v8.88h.33v-3.07c0-.1.04-.2.11-.27a.38.38 0 0 1 .65.27v3.08h.66v-2.6c-.22-.3-.33-.65-.33-1.02a1.65 1.65 0 0 1 .88-1.5v-3.75l-2.3-.02Zm3.8.32a.33.33 0 0 0-.22.12.32.32 0 0 0-.07.24v2.59a.29.29 0 0 0 .16.32.3.3 0 0 0 .36-.08.29.29 0 0 0 .06-.24v-2.59a.32.32 0 0 0-.07-.24.33.33 0 0 0-.22-.12Zm2.82 6.57v1.2c0 .14.06.27.16.38a.55.55 0 0 0 .93-.39v-1.28a1.53 1.53 0 0 1-1.09.09Zm-2.06-.03v1.25c0 .13.07.26.17.35a.55.55 0 0 0 .91-.35v-1.28a1.27 1.27 0 0 1-1.08.03Zm1.56-6.5c-.13 0-.24.17-.24.38v1.34c0 .2.11.36.24.36.14 0 .25-.16.25-.36v-1.35c0-.2-.11-.38-.25-.38v.02ZM24 22.83V14h8v8.82h-.15V19.7a.7.7 0 0 0-1.17-.45.7.7 0 0 0-.23.45v3.13h-.64v-2.59h-.03a.7.7 0 0 0-1.21-.5.7.7 0 0 0-.2.5v2.58h-.66v-3.8h-.03a.71.71 0 0 0-1.2-.46.71.71 0 0 0-.22.47v3.79H24Z" fill="#fff"/></svg>