<!-- by TradingView --><svg width="56" height="56" viewBox="0 0 56 56" xmlns="http://www.w3.org/2000/svg"><path fill="#F0F3FA" d="M0 0h56v56H0z"/><path d="M21 13v21h-8V21.39L21 13Zm-8 22h21v8H21.39L13 35Z" fill="#CD0009"/><path d="M43 21H22v-8h12.61L43 21Zm-8 22V22h8v12.61L35 43Z" fill="#867973"/><path fill-rule="evenodd" d="m27.76 23-2.74 4.58a3.65 3.65 0 0 0-.52 1.88A3.48 3.48 0 0 0 27.91 33h.27a3.39 3.39 0 0 0 3.32-3.45c0-.72-.22-1.42-.62-2L27.76 23Zm-1.25 4.14a2.96 2.96 0 0 0-1.22 2.23c0 1.1.98 1.88 1.47 2.14a4.57 4.57 0 0 1-.49-2.14c0-1.07.16-1.93.24-2.23Z" fill="#BD4000"/></svg>