<!-- by TradingView --><svg width="56" height="56" viewBox="0 0 56 56" xmlns="http://www.w3.org/2000/svg"><path fill="#F0F3FA" d="M0 0h56v56H0z"/><path fill-rule="evenodd" d="M30.85 19.67c.57.6 1.24.88 2.02.86a2.6 2.6 0 0 0 1.98-.97c.53-.63.79-1.38.76-2.24a3.19 3.19 0 0 0-.89-2.2 2.6 2.6 0 0 0-2.02-.86 2.6 2.6 0 0 0-1.98.98 3.2 3.2 0 0 0-.77 2.24c.03.86.33 1.6.9 2.19Zm3.3-1.86c.55-1.76.36-2.78-.55-3.06-.92-.28-1.64.46-2.18 2.22-.54 1.76-.35 2.78.56 3.06.91.28 1.64-.46 2.18-2.22Z" fill="#161411"/><path d="M40.28 20.43c-.05-.06-.11-.06-.17 0a214.22 214.22 0 0 0-3.05 2.92c-.25.23-.37.44-.35.63.01.06.05.15.13.27l.08.17c.05.2 0 .22-.1.07l-1.7-2.18c-.02-.03-.01-.04.02-.05h.05s.02 0 .03.02l.37.27c.15.12.3.1.44-.03l3.22-3.22c.03-.03.04-.07.02-.1-.1-.23-.26-.42-.47-.58-.25-.2-.49-.26-.7-.2a4.6 4.6 0 0 0-.64.26.07.07 0 0 1-.07 0 .09.09 0 0 1-.03-.04v-.02l.94-.94c.09-.08.16-.08.24.01l2.91 3.76c.07.1.07.18-.02.26l-.85.86-.03.01c-.07 0-.1-.02-.1-.08l.02-.05.08-.18c.23-.5.3-.87.18-1.13a2.5 2.5 0 0 0-.45-.7Z" fill="#161411"/><path fill-rule="evenodd" d="m26.9 16.09-1.7.25c-.06 0-.1-.02-.1-.07a10.78 10.78 0 0 1-.23-2.07c.03-.28.22-.46.57-.54.03 0 .04-.02.03-.04v-.05c0-.02-.02-.04-.05-.03l-2.64.38-.02.02v.02c.01.01.03.03.06.03.26.04.43.08.52.13.15.08.23.22.25.42l.49 4.4c.04.43-.12.69-.5.8a.94.94 0 0 1-.78-.15 706.3 706.3 0 0 0-4.43-2.8.05.05 0 0 0-.06 0 .05.05 0 0 0-.02.05c.7 3.42 1.06 5.26 1.1 5.52.03.32 0 .65-.1.98-.05.14-.13.17-.25.08l-1.15-.87a.05.05 0 0 0-.06 0l-.05.02c-.06.04-.07.08-.02.13.26.24.48.52.66.84.2.37.25.72.16 1.07a4.6 4.6 0 0 1-.65 1.37c-.07.1-.17.13-.28.07-1.16-.63-2.32-1.28-3.49-1.94-.25-.14-.39-.28-.43-.42-.05-.21.01-.43.2-.66V23a.34.34 0 0 0-.04-.03c-.02-.02-.05-.01-.09.04-.09.1-.16.21-.2.32a49.8 49.8 0 0 0-1.02 2.31c0 .03 0 .04.03.06l.04.01h.02l.28-.42c.09-.12.2-.15.32-.08l3.76 2.1c.32.19.36.48.12.9v.04l.05.06c.03.03.05.03.07-.01A586 586 0 0 0 19.2 24l.1-.35a.98.98 0 0 1 .32-.47 14.1 14.1 0 0 1 1.03-.81l-.03-.04c-.03-.05-.08-.06-.13-.03-.26.14-.45.2-.58.18a.16.16 0 0 1-.13-.1 4.07 4.07 0 0 1-.3-1.1c-.02-.06 0-.1.05-.14.5-.36.9-.69 1.2-.99.16-.15.32-.16.5-.03l.63.49c.15.1.17.24.06.4l-.26.34c-.04.05-.03.07.03.05.1-.02.16-.04.18-.07l1.4-1.18c.23-.2.5-.33.82-.38.65-.11 1.3-.2 1.97-.26.05 0 .07-.02.07-.07v-.08c0-.03-.02-.05-.05-.05h-.37c-.22 0-.34-.1-.36-.32l-.22-2.2c-.01-.07.02-.11.1-.12l1.7-.17c.06-.01.1.02.1.08l.24 2.26c0 .06-.02.12-.07.16-.16.13-.34.22-.56.26-.03 0-.04.02-.03.04v.05c0 .05.03.06.07.06a29.2 29.2 0 0 1 2.63-.34v-.05c0-.03-.02-.05-.05-.05-.49.01-.74-.2-.76-.64l-.02-.28c-.2-1.95-.37-3.31-.48-4.09-.04-.32.07-.53.33-.63a21.65 21.65 0 0 1 .43-.17l-.01-.04c-.01-.03-.03-.04-.06-.04l-2.68.4h-.03c-.01.03 0 .06.01.1a.1.1 0 0 0 .08.04h.35c.2 0 .3.1.32.3l.22 2.08c0 .05-.02.07-.07.08ZM19 18.9l.38 1.88c.01.03.03.05.06.06.04.01.06 0 .1-.01l1.08-.93c.06-.05.05-.1-.02-.14l-1.47-.95c-.03-.02-.06-.02-.1 0a.08.08 0 0 0-.03.1Z" fill="#161411"/><path d="M39.75 25.18c.77-.3 1.44-.58 2.01-.85.22-.1.3-.26.22-.49a.83.83 0 0 1-.02-.36c.02-.1.04-.11.08 0 .38 1.02.67 1.88.87 2.57.06.21.03.22-.09.04-.21-.35-.44-.48-.68-.38-.72.3-1.33.56-1.85.76-.77.3-1.44.59-2.01.85-.22.1-.3.27-.22.5.03.1.04.23.02.36-.02.1-.04.1-.08 0a37.4 37.4 0 0 1-.87-2.58c-.06-.2-.03-.22.09-.03.21.35.44.47.68.37l1.85-.76ZM14.44 29.06c.01.58.4 1.04.86 1.03.46 0 .83-.48.82-1.05 0-.57-.39-1.03-.85-1.03-.46 0-.83.48-.83 1.05ZM39.79 29.73c0 .57.4 1.02.88 1.01.48 0 .86-.46.86-1.03-.01-.56-.4-1.02-.89-1.01-.47 0-.86.47-.85 1.03Z" fill="#161411"/><path d="m27.56 23.64-.1 5.53c0 .05-.02.08-.07.1-.05.01-.1 0-.12-.05l-1.87-2.77a.1.1 0 0 1-.01-.05l-.1-6.3c0-.05.02-.08.08-.1.05 0 .09 0 .12.05l2.05 3.54.02.05Zm2.74-3.33-.03 6.15c0 .02 0 .05-.02.07l-2.02 2.65c-.04.04-.08.06-.14.04-.06-.02-.1-.06-.09-.12v-5.52c0-.02 0-.04.02-.06l2.04-3.27c.03-.06.08-.08.14-.06.07.02.1.06.1.12Zm-5.52 6.1-5.53-.07a.1.1 0 0 0-.08.05.08.08 0 0 0 0 .1l2.15 3.14c.02.03.05.04.08.04l5.36-.04c.04 0 .06-.02.08-.05a.08.08 0 0 0 0-.09l-1.98-3.04a.09.09 0 0 0-.08-.04Zm9.38 3.24-5.52-.02a.1.1 0 0 1-.1-.06.1.1 0 0 1 .02-.1l2.37-3.04a.1.1 0 0 1 .07-.04l5.52.02a.1.1 0 0 1 .09.05.1.1 0 0 1-.01.1l-2.37 3.05a.1.1 0 0 1-.07.04Zm-6.01.93c-.23.38-.37.57-.4.57-.05 0-.18-.2-.4-.58l-.15-.25c-.13-.2-.35-.32-.68-.32h-4.7c-.13 0-.17.12-.11.25v.02l1.83 2.44c.11.15.26.23.45.24a238.65 238.65 0 0 0 7.48.04c.19 0 .34-.08.46-.23l1.85-2.41.01-.03c.06-.13.02-.31-.11-.32h-4.7c-.33 0-.55.13-.68.33l-.15.25Z" fill="#EA8532"/><path fill-rule="evenodd" d="m39.28 38.51.13.11a432.25 432.25 0 0 1 1.18-2.14c-.01-.04-.05-.06-.1-.04l-.02.01-.38.33c-.06.05-.12.05-.18 0l-1.58-1.2c-.06-.04-.07-.09-.03-.14.3-.42.48-.88.57-1.37.14-.73-.06-1.3-.58-1.72-.43-.34-.86-.37-1.3-.1-.3.2-.54.46-.75.8-.29.47-.62 1.07-1 1.8a.41.41 0 0 1-.15.16l-1.65.95c-.03.02-.03.04 0 .07l.04.03h.03c.35-.21.61-.14.77.2.36.77.68 1.54.98 2.32.26.7.4 1.14.42 1.3.07.55-.16 1-.69 1.37-.36.25-.71.26-1.04.03a1.84 1.84 0 0 1-.5-.77c-.2-.49-.63-1.54-1.26-3.17-.07-.17-.08-.3-.04-.4a1.04 1.04 0 0 1 .27-.3c.3-.27.27-.32-.09-.14-.65.32-1.32.69-2.02 1.1-.1.06-.1.08.03.07l.32-.04c.2-.02.35.07.42.26a225.74 225.74 0 0 0 1.12 2.79c.24.6.49 1 .73 1.19.47.36 1.02.39 1.67.08 1.3-.64 1.67-1.65 1.11-3.03l-1.13-2.84a.67.67 0 0 1 0-.46c.02-.05.06-.1.1-.13l.72-.4a.3.3 0 0 1 .35.02c1.23.94 2.36 1.83 3.4 2.67.22.19.27.43.13.73Zm-2.98-4.54 1.5 1.2c.1.07.2.08.3.03.11-.05.17-.14.17-.26.44-1.2-.83-2.23-1.96-1.43a.27.27 0 0 0-.12.23c0 .1.04.17.11.23ZM23.42 39.4c0-.09.04-.12.12-.1.37.1.66.12.9.06.25-.07.46-.25.65-.55.48-.77.38-1.5-.32-2.21a36.7 36.7 0 0 0-2.44-2.1.14.14 0 0 0-.16-.02c-.13.07-.27.1-.4.12-.07 0-.11-.03-.13-.09a6.87 6.87 0 0 0-.52-1.26 3.35 3.35 0 0 0-1.5-1.42 2.16 2.16 0 0 0-1.96.01 2.75 2.75 0 0 0-1.6 2.36c-.08.85.13 1.65.63 2.41a5.26 5.26 0 0 0 1.86 1.69c.1.05.18.03.24-.05.25-.3.48-.55.68-.76.25-.26.5-.25.75.01l.03.02.08-.02c.04 0 .05-.02.02-.06l-1.56-2.01c0-.01-.02-.02-.03 0l-.05.02c-.03.02-.03.04-.02.06.13.2.19.42.19.65 0 .06-.03.11-.07.16l-.9.9c-.08.08-.17.08-.25.01-.74-.61-1.05-1.25-.92-1.9.07-.3.23-.66.49-1.06.27-.41.58-.77.93-1.07.88-.76 1.62-.88 2.22-.37.59.5.86 1.16.8 2a3.45 3.45 0 0 1-.28.96c-.08.22-.03.25.14.1a20 20 0 0 0 1.07-1.15c.1-.1.18-.1.25.03l.1.16c.06.12.06.23-.01.35L20 39.1a.33.33 0 0 1-.2.14.33.33 0 0 1-.26-.03l-.27-.16h-.04a.07.07 0 0 0-.05.04c-.01.03 0 .06.02.08l2 1.66c.04.03.05.02.04-.03a.8.8 0 0 0-.24-.42c-.12-.1-.14-.23-.07-.37.17-.32.49-.85.97-1.59.12-.18.24-.19.37-.03l.02.08v3.07c0 .13.05.24.16.33l.92.77c.15.12.2.1.15-.1l-.03-.12c-.05-.2-.08-.37-.08-.5V39.4Zm.08-3.45c-.02 0-.04 0-.05.02l-1.28 2.05c-.02.02-.01.04 0 .06l.44.26c.25.16.53.21.82.15.3-.06.52-.22.68-.47l.2-.3c.15-.26.19-.53.12-.82-.08-.29-.24-.52-.5-.68l-.43-.27ZM26.38 42.33a2.4 2.4 0 0 0 3.79 0c.52-.6.78-1.35.78-2.23 0-.87-.25-1.62-.78-2.24a2.4 2.4 0 0 0-3.78 0 3.35 3.35 0 0 0-.79 2.23c0 .88.26 1.62.78 2.24Zm3.28-2.23c0-1.83-.45-2.76-1.37-2.76-.91 0-1.37.92-1.38 2.76 0 1.84.45 2.76 1.37 2.76.91 0 1.37-.92 1.38-2.76Z" fill="#161411"/><path fill-rule="evenodd" d="M28 45a17 17 0 1 0 0-34 17 17 0 0 0 0 34Zm0-1a16 16 0 1 0 0-32 16 16 0 0 0 0 32Z" fill="#EA8532"/></svg>