<!-- by TradingView --><svg width="56" height="56" viewBox="0 0 56 56" xmlns="http://www.w3.org/2000/svg"><path fill="#F0F3FA" d="M0 0h56v56H0z"/><path d="M24.66 43.37c.1-.02.13-.07.07-.15-.16-.26-.12-.56.12-.9a9.88 9.88 0 0 0 1.89-6.97 56 56 0 0 0-1.08-6.13c-.14-.63-.19-1.59-.15-2.89.03-.78.16-1.51.4-2.18.47-1.29.68-2.25.66-2.9a5.9 5.9 0 0 0-.85-2.7c-.04-.06-.1-.1-.18-.09a.19.19 0 0 0-.17.12c-.34.8-.73 1.55-1.17 2.25-.24.38-.53.74-.9 1.07-.27.27-.54.25-.78-.05a9.77 9.77 0 0 1-1.72-3.62 3.08 3.08 0 0 1-.1-1.52c.12-.51.4-.97.82-1.38a.26.26 0 0 0 .08-.29.28.28 0 0 0-.23-.2 1.73 1.73 0 0 1-.26-.05c-.45-.33-.4-.52.17-.6.38-.04.85-.04 1.4 0 .1.01.17.07.19.18.01.1-.06.18-.2.24a6.7 6.7 0 0 0-.5.26.22.22 0 0 0-.12.23c0 .13.05.31.12.56.1.32.13.57.1.72-.02.26-.18.5-.47.7-.23.18-.3.4-.19.66.32.8.7 1.55 1.16 2.24.06.1.13.1.2 0 .3-.38.61-1.04.95-1.98.23-.65.42-1.11.57-1.4.26-.46.57-.81.93-1.04.52-.32 1-.59 1.4-.79a.57.57 0 0 0 .3-.33.54.54 0 0 0-.02-.44l-.13-.26c-.4-.82-.6-1.44-.57-1.87a8.09 8.09 0 0 1 1.07-3.73c.05-.1.14-.14.25-.14.12 0 .2.06.24.15.32.64.63 1.54.93 2.72.24.92.11 1.9-.37 2.93-.2.4-.02.75.52 1.04.43.24.93.5 1.5.78.54.25.93.69 1.18 1.3.49 1.22.95 2.2 1.39 2.93.17.3.35.3.53 0a6.6 6.6 0 0 0 .93-2.2.5.5 0 0 0-.2-.52c-.37-.29-.5-.6-.42-.95l.25-.94c.05-.2-.02-.33-.2-.4l-.63-.24c-.1-.04-.14-.1-.14-.2 0-.05.02-.1.05-.14.04-.05.1-.08.17-.1a3.83 3.83 0 0 1 1.64-.02c.45.12.46.27.03.45l-.36.14a.3.3 0 0 0-.2.22c-.01.1.02.2.1.28.6.58.88 1.27.83 2.06a8.56 8.56 0 0 1-1.69 4.58c-.13.18-.3.21-.5.08a6.66 6.66 0 0 1-1.51-1.38 20.5 20.5 0 0 1-1.21-1.74l-.13-.2a.14.14 0 0 0-.13-.07c-.06 0-.1.02-.13.07a3.25 3.25 0 0 0-.52 1.88 5 5 0 0 0 .62 1.95c.45.86.76 1.6.92 2.2.22.8.28 1.64.19 2.5a46.4 46.4 0 0 1-1.5 6.1c-1.03 3.55-1.22 6.57-.58 9.07.07.23.2.47.39.7a.4.4 0 0 0 .23.14c1.38.27 2.68.65 3.9 1.13.43.17.78.37 1.05.6.08.07.1.15.06.25-.03.1-.1.15-.21.15a10.62 10.62 0 0 0-6.47 2.42.33.33 0 0 0-.12.26v1.82c0 .13-.07.2-.21.2h-.6c-.15 0-.23-.07-.22-.21 0-.45.02-.88.04-1.3a1 1 0 0 0-.4-.9 11.8 11.8 0 0 0-6.4-2.35.42.42 0 0 1-.35-.2c-.04-.07.01-.14.15-.22a13.4 13.4 0 0 1 4.5-1.45Z" fill="#2F2483"/></svg>