<!-- by TradingView --><svg width="56" height="56" viewBox="0 0 56 56" xmlns="http://www.w3.org/2000/svg"><path fill="#3853A4" d="M0 0h56v56H0z"/><path d="m4 32 1.44-8h2l-1.12 6.36h3.54L9.55 32H4Zm6.44 0 1.44-8h5.46l-.27 1.69h-3.52l-.85 4.74h3.62L16.07 32h-5.63Zm3.87-5-.33 1.63h2.32l.27-1.63h-2.26Zm3 5 1.37-8h4.46c.7 0 2.05.43 1.83 2.04-.27 2.01-.36 2.51-1.83 3.19L24.81 32h-2.34l-1.59-2.45.31-1.63h.88c.2 0 .65-.18.77-.8l.13-.88c.03-.21-.04-.64-.55-.64h-2.03L19.35 32H17.3Zm8.66-8-.32 1.7h2.43l-1.1 6.3h2.01l1.08-6.3h2.36l.34-1.7h-6.8ZM37 32l.57-3.3h-2.86l-.57 3.3H32.1l1.38-8h2.04l-.52 3h2.85l.52-3h2.04l-1.4 8H37Zm11.58 0 1.38-8H52l-1.4 8h-2.02Zm-8.86 0h2.14l2.83-5.6 1.04 5.6h2.09l-1.4-8h-2.61l-4.09 8Z" fill="#fff"/></svg>