<!-- by TradingView --><svg width="56" height="56" viewBox="0 0 56 56" xmlns="http://www.w3.org/2000/svg"><path fill="#F0F3FA" d="M0 0h56v56H0z"/><path d="M14 41V25.66l9-6.12v5.56l9-6v6l10-7.28V41H14Z" fill="#2C80C2"/><path d="M26 13.5v9.64l1.5-.59V12.5l-1.5 1Z" fill="#2C80C2"/><path fill-rule="evenodd" d="M25.13 23.74v2.52h-8.25l-.83.72.24 9.13.6.71h8.24V40H35.8v-2.31h-7.64v-.87h9.65l.9-.57v-4.6h-5.58v2.33l-.44.25h-4.33V28.7h4.33l.44.44V30h5.57v-3.02l-.71-.72h-9.83v-4.5l-3.04 1.98Zm.03 4.95h-3.44l-.39.54v4.42l.69.58h3.14V28.7Z" fill="#EEF1F8"/><path fill-rule="evenodd" d="M28 37h-2.63v2.62h10.26V38H28v-1Zm-3 0v3h11v-2.37h-7.63V37h9.34A1.3 1.3 0 0 0 39 35.69V31.6h-5.98v1.87c0 .3-.25.52-.55.52h-4.1v-5h4.1c.3 0 .55.26.55.57V30H39v-2.69A1.3 1.3 0 0 0 37.71 26h-9.34v-4.47L25 23.74V26h-7.71A1.3 1.3 0 0 0 16 27.31v8.38c0 .72.58 1.31 1.29 1.31H25Zm.37-11H28v-3.8l-2.63 1.75V26ZM28 29h-2.63v5H28v-5Zm-3 5v-5h-3.06c-.3 0-.55.26-.55.57v3.9c0 .32.24.53.55.53H25Zm13.63-6.69v2.31H33.4v-.05a.93.93 0 0 0-.92-.94H21.94c-.51 0-.94.42-.94.94v3.9c0 .52.43.94.94.94h10.53c.5 0 .92-.42.92-.93V32h5.24v3.69c0 .52-.41.94-.92.94H17.3a.93.93 0 0 1-.92-.94V27.3c0-.52.41-.93.92-.93H37.7c.5 0 .92.41.92.93Z"/><path d="M27.8 9.13a5.36 5.36 0 0 0-1.56 3.9l.16.83.34-.83c-.12-1.24 1.68-2.14 2.87-3.22.94-.86.85-1.47.68-1.67-.26-.23-1.12-.35-2.49 1Z" fill="#2C80C2"/></svg>