<!-- by TradingView --><svg width="56" height="56" viewBox="0 0 56 56" xmlns="http://www.w3.org/2000/svg"><path fill="#2B4689" d="M0 0h56v56H0z"/><path d="M40.95 29.08c.45 2.06 3.28 1.79 4.77 1.19a.1.1 0 0 1 .1 0 .1.1 0 0 1 .03.05v.05l-.38 2.25c-.01.06-.05.1-.12.11-2.73.57-5.44.39-6.8-2.07a4.57 4.57 0 0 1-.46-3.1c.74-4.2 5.14-5.47 8.83-3.92.06.02.09.06.08.13l-.42 2.41c-.01.09-.05.1-.12.05-1.28-.93-3.13-1.3-4.51-.28-1.02.76-1.26 1.95-1 3.13Z" fill="#fff"/><path d="M19.44 23h2.67a.06.06 0 0 1 .04.02.07.07 0 0 1 .02.06l-1.6 9.87-.02.03a.06.06 0 0 1-.04.02h-2.67a.06.06 0 0 1-.06-.05v-.03l1.6-9.87.02-.03a.06.06 0 0 1 .04-.02Z" fill="#FECC06"/><path d="m14.47 30.71-.36 2.21a.1.1 0 0 1-.03.06.09.09 0 0 1-.06.02H8.1a.09.09 0 0 1-.07-.03.1.1 0 0 1-.02-.08l1.59-9.81a.1.1 0 0 1 .03-.06.09.09 0 0 1 .06-.02h2.55a.09.09 0 0 1 .07.03.1.1 0 0 1 .02.08l-1.2 7.39a.1.1 0 0 0 .06.1h3.2l.04.01.03.03a.1.1 0 0 1 .02.07ZM28.54 26.61c-.04.59-.04 1.19-.14 1.78-.24 1.48-.47 2.98-.68 4.5 0 .03-.01.06-.04.08a.13.13 0 0 1-.08.03h-2.54a.05.05 0 0 1-.05-.02v-.05l1.57-9.82c.01-.07.05-.11.12-.11h2.88c.08 0 .13.03.16.1l2.62 6.13.93-6.18c0-.01 0-.02.02-.03a.06.06 0 0 1 .04-.02h2.55a.1.1 0 0 1 .08.04.11.11 0 0 1 .02.09l-1.58 9.82c0 .01 0 .02-.02.03a.06.06 0 0 1-.04.02h-2.79a.2.2 0 0 1-.19-.13l-2.77-6.27c-.04-.09-.06-.08-.07.01Z" fill="#fff"/></svg>