<!-- by TradingView --><svg width="56" height="56" viewBox="0 0 56 56" xmlns="http://www.w3.org/2000/svg"><path fill="#F0F3FA" d="M0 0h56v56H0z"/><path fill-rule="evenodd" d="M27.53 11c3-.07 5.7.53 8.14 1.8 1.66.88 3.27 2.14 4.84 3.78 1.4 1.47 2.5 3.17 3.27 5.1a16.82 16.82 0 0 1 1.21 5.86c.06 2.04-.24 4.01-.88 5.92a15.89 15.89 0 0 1-2.99 5.27 19.02 19.02 0 0 1-4.63 4.03 16.23 16.23 0 0 1-8.02 2.23c-3 .08-5.7-.51-8.14-1.8a19.06 19.06 0 0 1-4.84-3.76 15.87 15.87 0 0 1-3.27-5.1 16.82 16.82 0 0 1-1.21-5.87c-.06-2.03.24-4 .88-5.92a15.89 15.89 0 0 1 2.99-5.27 19.02 19.02 0 0 1 4.63-4.03 16.22 16.22 0 0 1 8.02-2.23Zm13.8 16.59c.03-.12-.02-.18-.15-.17-1 .07-1.93.35-2.8.84a9.94 9.94 0 0 0-2.88 2.2c-.3.38-.83 1-1.58 1.88a4.57 4.57 0 0 1-2.74 1.54 4.16 4.16 0 0 1-3.45-.76 8.02 8.02 0 0 1-2.1-2.92 7.41 7.41 0 0 1-.74-2.69c0-.09.03-.16.1-.21a.23.23 0 0 1 .25-.02l1.8.86c1.44.69 2.98.95 4.65.8 2.75-.25 4.66-1.58 5.74-3.99.91-2.02.92-4.26.02-6.7a3.96 3.96 0 0 0-.75-1.15 7.8 7.8 0 0 0-5.7-2.66 9.94 9.94 0 0 0-5 .96c-.72.36-1.5.8-2.3 1.35a.1.1 0 0 1-.12 0 .1.1 0 0 1-.06-.08v-2.93c0-.23.12-.37.34-.43.15-.04.63-.16 1.45-.34.86-.2 2.3-.25 4.34-.14 1.31.06 2.65.4 4.03 1.03 1.19.54 2.34 1.22 3.47 2.04a14.49 14.49 0 0 1 5.78 9.46c.38 2.12.3 4.29-.25 6.51-.52 2.11-1.47 4-2.85 5.66-.46.55-.9.99-1.33 1.32a.16.16 0 0 1-.17.03.16.16 0 0 1-.11-.13 4.98 4.98 0 0 1-.06-1.67l.1-.86a16.4 16.4 0 0 1 2.72-7.74c.17-.26.3-.56.36-.9Zm-24.42-5.31a8.48 8.48 0 0 0-1.63-2.18c-.14-.14-.27-.12-.38.04a9.4 9.4 0 0 0-1.29 2.55c-.15.47-.35 1.38-.6 2.75a13.53 13.53 0 0 0-.26 2.78 16.4 16.4 0 0 0 1.17 5.66 13.23 13.23 0 0 0 2.94 4.51c.09.1.16.08.2-.04.1-.24.41-1.1.95-2.6.34-.92.54-1.81.63-2.69.2-2.2.19-4.11-.05-5.71-.24-1.7-.8-3.38-1.68-5.07Zm4.5 19.46c-1.5-.82-2.7-1.64-3.57-2.45-.08-.08-.08-.15.02-.22.3-.23.7-.46 1.16-.68a19.1 19.1 0 0 1 6.42-1.78c1.48-.14 3.16-.07 5.03.2 2.35.36 4.56.93 6.62 1.71.29.11.5.34.62.69.03.07.02.15-.02.22-.14.25-.38.5-.71.77a14.32 14.32 0 0 1-10.8 3.02c-1.73-.19-3.32-.68-4.77-1.48Zm-1.7-24.36c1.75-1.39 2.94-2.8 2.64-3.18-.3-.37-1.96.46-3.71 1.84-1.76 1.38-2.95 2.8-2.65 3.17.3.37 1.96-.45 3.71-1.83Zm4.83 4.6a3.7 3.7 0 0 0 3.41 3.98c2 .12 3.73-1.48 3.85-3.56a3.7 3.7 0 0 0-3.41-3.98 3.71 3.71 0 0 0-3.85 3.56Z" fill="#2E3191"/></svg>