<!-- by TradingView --><svg width="56" height="56" viewBox="0 0 56 56" xmlns="http://www.w3.org/2000/svg"><path fill="#F0F3FA" d="M0 0h56v56H0z"/><path d="M6.3 22.45a4.64 4.64 0 0 1 2.19-3.8c2.9-1.8 6.56.32 6.67 3.77 0 .07-.03.1-.09.1h-.2c-.06 0-.1-.03-.1-.1-.23-2.51-2.32-4.36-4.78-3.96-1.98.32-3.34 2.01-3.6 4.05h-.04c-.04 0-.05-.02-.05-.06Z" fill="#ED3336"/><path d="M8.12 29.26h3.82l.03.01.03.03v1.66l-.01.03-.04.01h-5.9L6 30.99v-.03L6 23.04l.01-.03.04-.01H8v6.21c0 .02.08.03.09.04h.03ZM15.12 29.26h3.82l.03.01.03.03v1.66l-.01.03-.04.01h-5.9l-.04-.01v-.03L13 23.04l.01-.03.04-.01H15v6.21c0 .02.08.03.09.04h.03ZM32.2 23.61c-.29-.02-.4-.2-.34-.53 0-.05.04-.08.1-.08h3.08c.07 0 .1.03.09.1l-.04.34c0 .03-.02.06-.04.08a.14.14 0 0 1-.08.04c-.32.07-.59.26-.8.58-.7 1.1-1.38 2.12-2.02 3.1a.97.97 0 0 0-.15.6v2.26c0 .05-.02.1.02.13.12.13.28.2.48.22.06 0 .1.04.1.1v.37c.01.05-.02.08-.07.08h-3.14c-.05 0-.07-.02-.07-.07v-.32c0-.07.03-.12.1-.14l.34-.1a.31.31 0 0 0 .16-.11.34.34 0 0 0 .08-.2v-2.25c0-.2-.07-.4-.18-.57-.64-.96-1.28-1.95-1.93-2.96-.28-.42-.6-.67-.94-.73a.11.11 0 0 1-.07-.04.12.12 0 0 1-.03-.06l-.05-.36c-.01-.06.01-.09.08-.09h3.1c.07 0 .1.03.1.1v.36c0 .05-.03.09-.08.1l-.14.04c-.06.02-.07.05-.04.1l1.14 1.83a.06.06 0 0 0 .05.03h.03l.02-.03 1.16-1.88v-.02a.02.02 0 0 0 0-.02h-.01ZM45.8 25.22c.13.2.31.35.56.42 1.5.45 3.59.62 3.64 2.72.05 2.16-1.81 2.79-3.62 2.61-1.63-.15-2.53-1.1-2.7-2.82 0-.05.02-.08.07-.09l1.7-.16c.06 0 .1.02.1.08.12.7.39 1.22 1.15 1.3.5.06 1.15-.04 1.36-.56.14-.35-.13-.61-.44-.7-1.33-.42-3.39-.6-3.62-2.4-.17-1.28.6-2.22 1.8-2.5.96-.23 2.28-.15 3.05.42.65.49.97 1.18.95 2.08 0 .05-.02.08-.07.08l-1.74.04c-.07 0-.1-.03-.1-.09-.03-.61-.35-.93-.97-.96-.37-.02-.9.05-1.11.4a.11.11 0 0 0 0 .13Z" fill="#040001"/><path fill-rule="evenodd" d="M26.02 29.96c.64-.65.99-1.53.98-2.45l-.01-1.1A3.46 3.46 0 0 0 23.53 23h-.64a3.41 3.41 0 0 0-3.39 3.49l.01 1.1A3.46 3.46 0 0 0 22.97 31h.64c.91-.02 1.78-.39 2.41-1.04Zm-1.04-2.28c.17-1.18-.03-2.88-1.59-2.95-1.85-.08-2.13 1.72-1.84 3.14.4 2.02 3.13 1.84 3.43-.19ZM36.01 23.01l-.01.04v7.9l.01.04.04.01h3.54a3.37 3.37 0 0 0 3.15-2.15c.17-.42.26-.87.26-1.33v-1.04c0-.92-.36-1.8-1-2.46A3.37 3.37 0 0 0 39.6 23h-3.55l-.04.01Zm2.02 1.77a.06.06 0 0 0-.02.04L38 29.2c0 .02 0 .03.02.04l.04.02h1.36A1.58 1.58 0 0 0 41 27.71v-1.38a1.55 1.55 0 0 0-.97-1.45c-.19-.08-.4-.12-.6-.12h-1.36c-.01 0-.03 0-.04.02Z" fill="#040001"/><path d="M28 32.2c-.4-.13-.99 0-.86.58.11.49.83.56 1.14.9.35.38.18 1.05-.3 1.23-.33.12-.7.12-1.1 0-.06-.01-.08-.05-.08-.1l.06-.48c.02-.21.06-.22.13-.01.03.1.05.22.06.34 0 .06.04.1.1.12a1 1 0 0 0 .67 0c.27-.09.39-.44.26-.7-.28-.57-1.23-.41-1.28-1.22-.06-.93.89-.92 1.5-.8.04 0 .06.03.05.09l-.09.51c-.02.1-.04.1-.08 0-.03-.1-.06-.21-.07-.32a.18.18 0 0 0-.04-.09.16.16 0 0 0-.07-.05ZM32.9 32.21c-.3-.1-.77-.1-.88.3-.13.46.35.74.68.87.53.2.87.72.48 1.28-.31.44-.99.37-1.44.25-.04-.01-.06-.04-.06-.1l.07-.58c0-.02 0-.03.02-.03h.04a10.95 10.95 0 0 1 .12.48c0 .05.04.09.09.1.32.11.6.09.81-.07.3-.22.2-.7-.1-.88-.21-.12-.43-.24-.64-.34-.4-.21-.58-.78-.28-1.17.32-.4.9-.35 1.34-.26.05 0 .08.04.07.1l-.06.48c0 .05-.03.07-.07.06-.01 0-.02 0-.03-.02a2.3 2.3 0 0 1-.07-.34.15.15 0 0 0-.02-.08.13.13 0 0 0-.07-.05ZM6.64 33.65v1.06c0 .07.03.1.09.1h.79c.02 0 .05 0 .07-.02a.14.14 0 0 0 .04-.06l.14-.39c.01-.03.03-.05.06-.05a.1.1 0 0 1 .04 0l.02.04-.05.57c0 .06-.03.1-.09.1a78.35 78.35 0 0 1-1.72-.02.05.05 0 0 1-.02-.05c0-.03.02-.04.05-.05a.4.4 0 0 0 .15-.06.13.13 0 0 0 .06-.11v-2.42c0-.07-.02-.12-.08-.14a1.2 1.2 0 0 1-.13-.07c-.09-.05-.08-.08.02-.08h1.66c.06 0 .08.04.07.1l-.06.38c-.04.24-.09.24-.14.01a1.33 1.33 0 0 1-.03-.21c0-.07-.04-.1-.1-.1H6.7c-.05 0-.08.04-.07.1.03.34.03.66 0 .96 0 .07.03.11.1.11l.52.03h.04a.1.1 0 0 0 .03-.03l.02-.04.01-.04c0-.08.02-.14.07-.2.05-.07.08-.06.08.03v.7c0 .12-.03.14-.09.04a.3.3 0 0 1-.05-.16c0-.1-.05-.15-.13-.15h-.47c-.07 0-.11.04-.11.12ZM10.69 34.12v-1.86c0-.06-.03-.1-.08-.11a.71.71 0 0 1-.13-.06c-.1-.04-.09-.07.02-.08h.63c.09 0 .09.03.02.07a.69.69 0 0 1-.18.08c-.05.01-.08.05-.08.11v2.51c0 .26-.07.29-.22.09l-1.59-2.2c-.06-.08-.09-.06-.09.04l.01 2c0 .03.01.06.03.08a.1.1 0 0 0 .05.04l.2.05.02.02a.03.03 0 0 1-.01.03 3.34 3.34 0 0 1-.07.04 2.25 2.25 0 0 0-.64 0l-.03-.01-.02-.03c-.01-.04 0-.06.03-.07l.18-.04c.04 0 .07-.04.07-.09v-2.46l-.02-.06a3.84 3.84 0 0 1-.21-.12c-.1-.05-.09-.07.01-.08h.44c.04.01.07.03.1.06l1.49 2.07c.05.07.07.06.07-.02ZM12.64 32.33c0-.1-.04-.15-.13-.15l-.48.01c-.08 0-.13.05-.14.13a1.2 1.2 0 0 1-.09.34c-.05.13-.09.13-.1-.02l-.02-.55a.1.1 0 0 1 .02-.06l.02-.02.03-.01h2.16c.05 0 .08.04.07.1l-.08.49c-.03.24-.08.24-.13 0-.03-.1-.04-.19-.04-.29 0-.07-.03-.11-.1-.11h-.53c-.07 0-.1.04-.1.11v2.44c0 .07.02.1.08.1a.6.6 0 0 1 .23.06l.01.03v.04l-.03.03h-.95l-.02-.01-.01-.04c-.01-.03 0-.05.02-.06l.23-.05c.06-.01.09-.05.09-.12v-2.4ZM15.17 33.28c0 .06.03.09.08.08H15.83l.04-.05a.15.15 0 0 0 .03-.05v-.06c0-.06.01-.12.06-.15.05-.05.08-.04.08.04v.75c0 .02-.01.03-.03.03h-.04c-.02 0-.03 0-.04-.03l-.05-.22c-.01-.06-.05-.09-.1-.09h-.47c-.1 0-.14.05-.14.16v.97c0 .1.05.15.14.15h.73c.05 0 .1-.03.12-.08a6.47 6.47 0 0 0 .19-.45c0-.01.02-.02.04-.01 0 0 .02 0 .02.02v.02l-.04.59c0 .07-.04.1-.1.1H14.6a.1.1 0 0 1-.06-.02.04.04 0 0 1-.02-.04c0-.03.03-.05.05-.06l.16-.05c.05 0 .07-.04.07-.1v-2.47c0-.07-.03-.12-.1-.12a.3.3 0 0 1-.15-.07c-.06-.05-.05-.07.02-.07h1.7c.05 0 .08.04.07.1l-.07.48c0 .05-.03.07-.07.04a.1.1 0 0 1-.04-.07l-.05-.27c-.01-.06-.05-.1-.1-.1h-.77c-.06 0-.09.04-.08.1v1ZM25.82 32.27v2.45c0 .07.02.11.08.12l.15.03c.03 0 .04.03.04.06V35h-.88s-.02 0-.02-.02l-.01-.05v-.02l.02-.02.2-.06c.02 0 .04-.02.05-.04a1201.18 1201.18 0 0 0 .02-2.49c0-.05-.02-.09-.06-.12a.47.47 0 0 0-.22-.09v-.06c0-.02 0-.03.03-.03h.8c.08 0 .09.03.02.09a.19.19 0 0 1-.12.05c-.07 0-.1.05-.1.13ZM29.83 33.38c.14-.01.29-.02.42 0 .17.02.25-.08.25-.29v-.03l.02-.02.03-.02h.03l.03.02.02.02v.03c-.04.22-.04.45 0 .69 0 .04-.01.08-.04.11l-.02.01c-.01 0-.03 0-.04-.02a.87.87 0 0 1-.07-.25c-.01-.07-.04-.1-.1-.1h-.54a.08.08 0 0 0-.06.03.1.1 0 0 0-.03.07v1.04c0 .1.05.15.14.15h.72c.1 0 .17-.06.19-.17a.76.76 0 0 1 .14-.33c.06-.07.08-.06.07.03l-.04.55c0 .03-.01.05-.03.07a.09.09 0 0 1-.06.03h-1.68c-.04 0-.06-.02-.06-.06l.01-.04a.07.07 0 0 1 .05-.03c.06 0 .11-.02.17-.05l.03-.03a.1.1 0 0 0 .02-.05v-2.48c0-.06-.03-.1-.09-.11a.42.42 0 0 1-.16-.07c-.07-.05-.07-.08.02-.08h1.68c.06 0 .09.03.08.1l-.07.49c0 .03-.03.05-.06.05h-.04v-.01a1.87 1.87 0 0 0-.08-.35.14.14 0 0 0-.04-.07.1.1 0 0 0-.07-.02h-.74c-.06 0-.09.03-.09.1v.99c0 .07.03.1.1.1Z" fill="#20201F"/><path d="m49.46 32 .02.02v.01a.03.03 0 0 1 0 .03l-1.96 2.85a.21.21 0 0 1-.08.07.2.2 0 0 1-.1.02H33.72c-.08 0-.1-.05-.05-.11l2.02-2.8c.04-.06.1-.1.16-.09h13.62Z" fill="#ED3336"/><path fill-rule="evenodd" d="m19.02 34.6-.57-1c-.03-.06-.02-.1.05-.13.7-.3.71-1.36-.12-1.44a7.78 7.78 0 0 0-1.2-.01c-.09 0-.1.03-.02.08l.15.06c.05.02.08.05.08.11v2.42c0 .02 0 .05-.02.07a.1.1 0 0 1-.06.04l-.16.04c-.02 0-.03.02-.03.04v.04l.03.08h.83l.01-.05v-.02l.03-.04c.01-.03 0-.04-.03-.05a.42.42 0 0 1-.18-.06.13.13 0 0 1-.04-.04.14.14 0 0 1-.02-.07v-1.04c0-.05.02-.08.07-.08.15-.01.26.06.34.2.15.32.31.63.48.93.15.27.38.37.7.3.09-.02.1-.05.01-.1l-.04-.03c-.11-.06-.22-.13-.3-.24Zm-1.25-2.41a.08.08 0 0 0-.02.05v1.11c0 .02 0 .04.02.05l.04.03h.3a.5.5 0 0 0 .37-.16.55.55 0 0 0 .15-.39v-.17a.56.56 0 0 0-.15-.38.5.5 0 0 0-.37-.16h-.3c-.01 0-.03 0-.04.02ZM20.52 34.07v-.27c0-.06.03-.09.08-.08.55.1 1.18-.12 1.22-.84.03-.5-.18-.78-.63-.85a7.08 7.08 0 0 0-1.24 0c-.09 0-.1.02-.01.07l.15.07c.05.02.07.05.07.1v2.46c0 .07-.02.1-.07.12l-.16.05c-.02 0-.03.02-.03.04V35l.03.01h.89v-.09a.05.05 0 0 0 0-.03l-.02-.01h-.02c-.18.03-.27-.05-.26-.23v-.57Zm0-1.85a.1.1 0 0 0 0 .04v1.24c0 .02 0 .04.02.06.02.02.04.02.06.02h.28c.15 0 .29-.06.4-.18.1-.11.15-.27.15-.43v-.2a.67.67 0 0 0-.16-.42.55.55 0 0 0-.18-.13.5.5 0 0 0-.2-.05H20.55l-.02.03-.02.02ZM23.88 33.9a7.16 7.16 0 0 0-.16-.3c-.03-.04-.02-.08.03-.1l.2-.13c.37-.22.48-.94.1-1.2-.34-.2-.94-.18-1.4-.15h-.21c-.09.01-.1.04-.02.08.05.04.11.06.17.07.05.02.08.05.08.11v2.4c0 .06-.02.1-.08.12l-.18.06c-.01 0-.02 0-.01.02v.06l.02.03V35h.83l.02-.07v-.04a.05.05 0 0 0-.01-.04.05.05 0 0 0-.03-.02.33.33 0 0 1-.15-.04.1.1 0 0 1-.04-.04.1.1 0 0 1-.01-.05v-1.04c0-.05.02-.08.07-.1.12-.02.21.02.28.14.15.25.3.53.44.84.17.36.43.5.77.45.12-.03.13-.06 0-.12-.28-.13-.51-.59-.7-.96Zm-.84-1.68-.01.04-.01 1.1c0 .02 0 .04.02.05.01.02.03.03.05.03h.3a.5.5 0 0 0 .36-.17c.1-.1.16-.25.16-.4v-.1a.63.63 0 0 0-.15-.42.53.53 0 0 0-.17-.13.48.48 0 0 0-.2-.04h-.31l-.03.02-.01.02Z" fill="#20201F"/></svg>