<!-- by TradingView --><svg width="56" height="56" viewBox="0 0 56 56" xmlns="http://www.w3.org/2000/svg"><path fill="#F2F2EA" d="M0 0h56v56H0z"/><path d="M29 18.24c-.06.13-.07.4-.03.83 0 .07-.02.13-.09.16-.88.48-1.61.66-2.21.53a1.79 1.79 0 0 1-1.35-1.08 2.49 2.49 0 0 1-.09-1.72 2.2 2.2 0 0 1 1-1.37c.55-.32 1.18-.33 1.9-.02.17.07.41.11.7.12h.04c.08 0 .12.04.12.12v1.08c0 .1-.05.13-.14.12a.2.2 0 0 1-.1-.05.3.3 0 0 1-.08-.11c-.24-.63-.59-.98-1.04-1.07-.75-.15-1.25.14-1.5.87-.3.85-.19 1.64.33 2.37.33.45.78.55 1.36.29.22-.1.36-.23.4-.4a.84.84 0 0 0 0-.45c-.06-.18-.15-.31-.28-.38l-.25-.14c-.3-.15-.28-.22.05-.22h1.56c.05 0 .07.01.09.05.01.04 0 .07-.02.1a.99.99 0 0 1-.25.2c-.05.03-.1.09-.13.17ZM31.68 19.02c.5-.66.95-1.36 1.34-2.1.05-.1.06-.2.01-.32a.37.37 0 0 0-.23-.21.42.42 0 0 1-.2-.17c-.05-.06-.04-.1 0-.16.04-.05.09-.07.15-.04.4.15.79.23 1.18.24.07 0 .12.03.15.06.02.03.03.06.03.1 0 .06-.04.1-.11.13-.2.05-.34.13-.42.25-.72 1.1-1.45 2.2-2.2 3.3a.16.16 0 0 1-.18.07.17.17 0 0 1-.14-.13c-.37-1.6-.62-2.75-.73-3.43a1.5 1.5 0 0 0-.55-.9c-.05-.05-.06-.09-.04-.14.03-.06.07-.08.13-.05.45.17.9.25 1.35.25.33 0 .37.11.13.32l-.19.14a.21.21 0 0 0-.09.22l.49 2.54c.02.1.06.11.12.03ZM20.7 18.33c-.06-.11-.03-.14.08-.09L24.35 20c.27.13.36.06.25-.23l-1.17-3.1a.37.37 0 0 1 .08-.4c.1-.11.14-.2.12-.27-.02-.07-.06-.1-.13-.07l-1.3.5c-.1.04-.1.09-.04.16.06.06.16.07.3.05.32-.07.54.05.67.36l.63 1.6c.05.11.02.15-.1.1l-3.2-1.5a.26.26 0 0 0-.3.03 2 2 0 0 1-.83.38c-.1.02-.14.08-.12.18l.01.06c.01.04.04.06.08.04.45-.13.77 0 .95.4.35.73.68 1.57 1 2.53.02.07.01.14-.03.2l-.13.19a.15.15 0 0 0-.02.13c.01.05.05.09.1.11a.1.1 0 0 0 .1-.01c.32-.23.71-.38 1.17-.46.05 0 .07-.03.06-.08l-.02-.07c0-.04-.03-.06-.06-.06h-.5a.26.26 0 0 1-.25-.17l-.98-2.26ZM34.9 20.96l.43.3c.03.02.04.04.03.07 0 .04-.02.05-.05.06l-.17.03a.24.24 0 0 1-.2-.04 3.84 3.84 0 0 0-1.1-.56c-.36-.1-.36-.2 0-.33a.62.62 0 0 0 .4-.31c.63-1.3 1.03-2.17 1.18-2.6.07-.2-.02-.38-.3-.52-.05-.03-.08-.08-.05-.15l.03-.1c.01-.05.05-.07.1-.04.6.29 1.09.51 1.45.67.04.02.07.05.09.09v.08c-.02.05-.05.07-.07.07l-.25.01a.18.18 0 0 0-.17.12l-1.4 2.92c-.05.1-.03.17.06.23ZM39.16 21.07l-.56-.28c-.14-.07-.16-.16-.06-.3l.68-.87c.08-.09.16-.1.25-.02l.82.66c.06.04.07.1.04.16l-.16.34c-.03.06-.02.11.03.15l.05.04c.06.05.1.04.16 0 .18-.19.31-.4.4-.63.03-.06.02-.1-.03-.14l-2.31-1.86h-.05l-.08.03c-.04.01-.05.04-.03.08.1.16.17.35.2.54 0 .08 0 .15-.05.2-.72.96-1.27 1.71-1.65 2.27a.73.73 0 0 1-.6.34c-.16.01-.15.08.02.22.97.77 1.51 1.2 1.63 1.28.46.3.86.28 1.22-.05.32-.31.27-.41-.17-.31-.6.14-1.11-.06-1.53-.6-.06-.1-.06-.18 0-.27l.79-1c.06-.07.13-.08.2-.02l.52.41c.06.05.08.11.07.19-.05.25-.07.4-.07.46 0 .08.03.12.11.11.07 0 .12-.04.16-.1.28-.47.46-.76.55-.87.18-.22.13-.3-.16-.28a.63.63 0 0 0-.25.1.14.14 0 0 1-.14.02ZM19.42 22.49c.43-.44.65-.96.65-1.58 0-.62-.22-1.14-.65-1.58a2.12 2.12 0 0 0-1.56-.65c-.61 0-1.13.21-1.56.65-.43.44-.65.96-.65 1.58 0 .62.22 1.14.65 1.58.43.43.95.65 1.56.65.6 0 1.13-.22 1.56-.65Zm-.4-.1c-.6.48-1.6.2-2.24-.61-.63-.82-.65-1.87-.05-2.34.6-.47 1.6-.2 2.22.62.64.82.66 1.87.06 2.34ZM39.9 25.06l2.05-.4c.16-.03.19.02.1.14a16.9 16.9 0 0 0-1.08 1.9c-.02.06-.02.1.02.15.03.04.08.05.13.04 1.25-.38 2.53-.73 3.86-1.04.05-.01.2.03.48.12h.04a.1.1 0 0 0 .04-.05c.02-.04.01-.07-.02-.1-.26-.3-.48-.63-.64-1.01a.15.15 0 0 0-.13-.1l-.08-.01c-.07-.01-.1.02-.1.1l.09.41c.03.19-.03.31-.2.38-.68.28-1.4.5-2.18.63-.2.04-.24-.03-.12-.2.45-.62.9-1.27 1.33-1.95.11-.19.29-.18.52.01.03.03.05.03.07-.01l.02-.07c.01-.02 0-.06-.02-.1a9 9 0 0 0-.84-1.15c-.17-.2-.24-.17-.24.08l.04.23c.01.08 0 .15-.02.22-.12.26-.27.5-.47.7-.17.19-.4.3-.71.36l-1 .19c-.16.04-.19-.01-.1-.15l1.52-2.2c.05-.08.12-.1.2-.06l.16.08c.21.1.25.05.12-.14l-.63-.92c-.22-.32-.34-.3-.36.07-.01.14-.04.26-.1.35-.55.92-1.21 1.98-1.97 3.16a.2.2 0 0 0 0 .24.2.2 0 0 0 .22.1ZM14.76 26.22l-2.45-1.96c-.08-.07-.17-.07-.25 0l-.28.22a.1.1 0 0 1-.12.02l-.13-.07c-.07-.03-.08-.07-.02-.12.32-.27.64-.68.97-1.24.05-.1.13-.12.23-.1.07.03.1.07.09.14l-.02.28c-.01.11.03.2.11.26l2.4 1.93c.04.03.08.03.12 0 .54-.53.76-1.05.66-1.56-.07-.37.02-.42.28-.15.37.4.34.82-.09 1.3-.57.62-.97 1.1-1.19 1.46a.36.36 0 0 1-.2.15c-.08.03-.11 0-.1-.09l.04-.32c.01-.06 0-.11-.05-.15ZM32.03 28.66a.84.84 0 0 1 0-.54c.07-.17.1-.27.1-.31-.04-.41.03-.8.2-1.18.01-.04 0-.05-.03-.04l-.18.03c-.04 0-.06.03-.06.06l-.3 2.1c0 .08.03.11.11.08l.08-.03c.08-.03.1-.09.08-.17ZM24.71 27.29h-.06a.06.06 0 0 0-.06.06l.13 2.24c0 .03.03.05.07.05h.06c.03 0 .06-.03.05-.07l-.13-2.23a.06.06 0 0 0-.06-.05ZM31.45 27.54h.04c.04 0 .07.04.07.08l-.1 2.39c0 .04-.04.07-.08.06h-.03a.07.07 0 0 1-.07-.07l.1-2.39c0-.04.03-.07.07-.07ZM31.96 30.02c.14.48.2.98.19 1.5 0 .08.01.16.04.23.07.2.02.4-.14.64-.14.2-.32.34-.51.42-.02.01-.04 0-.05-.01l-.03-.08c-.01-.04 0-.07.03-.1.18-.1.32-.24.41-.4a.87.87 0 0 0 .09-.55c-.1-1.01-.18-1.65-.22-1.92 0-.03 0-.05.03-.07a.06.06 0 0 1 .08 0l.1.08c.06.04.07.08.03.14a.54.54 0 0 1-.04.06.07.07 0 0 0 0 .06ZM25.35 32.52a2.73 2.73 0 0 1-.38-.36.7.7 0 0 1-.2-.44c0-.28 0-.76.02-1.43 0-.03-.02-.05-.05-.07l-.08-.02c-.04-.02-.06 0-.06.04v1.65c0 .08.02.15.08.2l.55.55c.02.02.03.02.05 0l.07-.05c.03-.03.03-.05 0-.07ZM31.45 30.59l-.03-.15c0-.02 0-.03.02-.04l.05.01c.11.18.15.4.1.63 0 .04-.03.05-.06.04l-.1-.05c-.03-.02-.05-.05-.03-.1l.04-.12a.43.43 0 0 0 .01-.22Z" fill="#505445"/><path d="M24.6 32.44c-.13-.03-.2-.11-.2-.25v-1.27a.05.05 0 0 0-.03-.06l-.14-.07c-.05-.02-.07 0-.07.04.03.7.03 1.08.03 1.17-.02.2.02.34.13.43.2.17.35.27.45.3.09.01.11-.01.07-.1a.35.35 0 0 0-.24-.19ZM31.54 32.36c.06-.06.06-.12 0-.18-.05-.06-.1-.06-.17 0-.42.4-.61.63-.56.69.04.05.29-.12.73-.51ZM34.07 32.54a.31.31 0 0 0 .08-.06c.04-.04.1-.08.15-.1.27-.08.58-.06.92.07.08.03.1 0 .08-.08a.3.3 0 0 0-.28-.21c-.18-.02-.5.03-.97.14a3 3 0 0 1-1.18 0c-.05 0-.07.01-.08.05v.08c-.01.04 0 .06.05.07a7.02 7.02 0 0 0 1.23.04ZM29.48 33.62c-.75.17-1.53.22-2.32.15-.13-.02-.14.01-.03.08.17.1.4.15.67.15.35 0 .91-.05 1.69-.15.04 0 .06-.03.07-.08v-.08c0-.06-.02-.08-.08-.07ZM31.8 34.4c.09-.06.15-.05.2.04.03.04.02.07-.01.1-.05.05-.12.04-.19-.02-.05-.05-.05-.09 0-.13ZM22.76 32.35c.2.03.38 0 .4-.05 0-.07-.16-.14-.37-.18-.2-.03-.38-.01-.4.05 0 .06.16.14.37.18Z" fill="#505445"/><path d="M23.24 32.42a.32.32 0 0 1 0-.15.1.1 0 0 1 .09-.08l.06-.01c.08-.02.1.01.1.1a.84.84 0 0 0-.02.33c.02.08 0 .12-.09.12h-.97a.4.4 0 0 1-.21-.06c-.16-.1-.42-.08-.78.02a1.9 1.9 0 0 1-.4.09c-.13 0-.14-.04-.04-.12.44-.33.91-.38 1.4-.16.09.03.34.05.76.05.1 0 .13-.05.1-.13ZM22.15 32.8c.04-.03.07-.01.07.03 0 .05-.03.08-.1.08-.03 0-.04-.01-.04-.04s.02-.05.07-.08ZM34.02 38.33c-.06.02-.14-.08-.18-.22-.05-.14-.03-.27.03-.29.05-.02.14.08.18.22.04.14.03.27-.03.3Z" fill="#505445"/><path fill-rule="evenodd" d="m21.21 39.93-.55-.05c-.08 0-.1-.04-.04-.1a2.4 2.4 0 0 1 1.8-.88c.44 0 .7-.02.8-.05.28-.06.53-.18.76-.36.15-.11.38-.33.7-.65l.1-.1.13-.15c.11-.1.28-.16.52-.16.93.01 1.72.23 2.37.65a.2.2 0 0 0 .2 0l.15-.08c.07-.04.13-.03.17.05.05.07.1.12.15.14.07.03.14.02.2-.02l.25-.18c.33-.24.58-.4.75-.46.88-.34 1.77-.3 2.65.12a6.94 6.94 0 0 1 1.53 1.15l.22.4c.04.09.1.11.19.1 1.05-.22 2.23-.34 3.52-.34.23 0 .25-.06.04-.17-.4-.22-.92-.4-1.56-.53a.27.27 0 0 1-.16-.1 9.2 9.2 0 0 0-1.22-1.32c-.2-.16-.17-.24.08-.24l.42.01c.22 0 .4.1.53.3.16.23.33.52.53.86.1.18.32.35.67.5.8.36 1.58.42 2.33.2l.3-.13c.17-.08.3-.14.4-.16a.53.53 0 0 0 .2-.1c.26-.21.56-.3.9-.25h.05l.01-.02.02-.02v-.01c.02-.04.01-.07-.03-.08a7.7 7.7 0 0 1-.85-.47 16.1 16.1 0 0 0-1.75-1.26.23.23 0 0 0-.22-.02c-.58.2-1.08.47-1.52.8a.17.17 0 0 1-.18.01 2 2 0 0 0-.39-.15c-.09 0-.1.03-.04.08.22.22.39.34.49.37.17.05.24.17.21.37-.02.2 0 .35.06.44.07.1.1.08.1-.06l-.04-.38c-.01-.14.05-.19.19-.14l.39.13c.09.03.13.1.12.2-.02.24.09.49.31.73.04.04.04.08.01.12-.03.03-.06.04-.1.02l-1.19-.58a.39.39 0 0 1-.16-.15l-.15-.24a4.7 4.7 0 0 0-.53-.77 1.2 1.2 0 0 0-.77-.41 7.54 7.54 0 0 0-3.23.43c-.07.02-.07.05-.02.1l.08.06c.02.02.03.02.05.01a6 6 0 0 1 1.29-.32c.07-.01.12.01.16.07.05.08.1.11.18.1a2 2 0 0 1 .75-.01c.24.05.25.11.01.2-.3.1-.59.18-.89.24-.1.02-.14-.02-.13-.12 0-.06.03-.14.08-.22.02-.04.01-.06-.02-.08a.11.11 0 0 0-.06-.02.1.1 0 0 0-.07.03l-.25.2a.2.2 0 0 1-.21.03.5.5 0 0 0-.46.03c-.09.05-.08.07.02.07.24 0 .42.06.55.17.06.05.08.11.05.2l-.08.24c-.02.07-.06.09-.13.04l-.63-.5c-.04-.04-.09-.05-.14-.02a.26.26 0 0 1-.24 0c-.38-.18-.8-.24-1.26-.18-.76.1-1.4.35-1.94.77a.16.16 0 0 1-.18.01l-.07-.03a.08.08 0 0 1-.05-.08c0-.04.01-.07.04-.08l1.65-.97a.3.3 0 0 1 .2-.04l.46.07c.13.03.32-.01.56-.1.33-.13.75-.29 1.27-.47.21-.07.52-.1.92-.1a3.2 3.2 0 0 0 1.59-.38c.04.01.07.04.09.07.03.08.09.1.17.08l1.46-.56a.36.36 0 0 0 .16-.14c.17-.25.38-.31.65-.2.07.03.14.03.2 0 .26-.15.6-.28 1.02-.41.2-.06.62-.42 1.26-1.06a.1.1 0 0 1 .1-.04.1.1 0 0 1 .06.03c.02.01.02.03.02.06a.37.37 0 0 1-.06.19c-.02.02-.02.04 0 .07.02.02.04.03.06.01.31-.15.76-.3 1.36-.47.18-.05.42-.2.71-.44.11-.09.23-.3.35-.65l.16-.39c.19-.35.27-.33.24.07l-.05.6c0 .08-.04.14-.09.19-.13.12-.2.2-.24.26-.05.08-.03.11.07.09.03 0 .15-.07.37-.18.09-.05.18-.02.28.1l.34.4c.26.3.17.4-.27.3-.41-.08-.83-.19-1.28-.32a.31.31 0 0 0-.2.01c-.72.3-1.24.48-1.56.55-.3.07-.58.22-.88.46-.36.3-.88.54-1.55.74a.09.09 0 0 0-.07.07c0 .04 0 .07.04.1l.08.06a.1.1 0 0 0 .1.02 4.57 4.57 0 0 0 1.6-.9c.22-.2.5-.34.84-.42.3-.06.66-.2 1.1-.4.1-.05.22-.08.32-.1.16-.02.28-.01.35.02.5.23.9.34 1.18.33.23-.01.69-.12 1.35-.31.42-.12.77-.35 1.05-.68.18-.21.34-.58.48-1.1.3-1.17.8-2.27 1.46-3.3a.2.2 0 0 0 .03-.18 20.88 20.88 0 0 0-7.28-10.08 20.81 20.81 0 0 0-11.88-4.22 20.77 20.77 0 0 0-13.3 4A20.93 20.93 0 0 0 8.03 28.1a.26.26 0 0 0 0 .21 19.89 19.89 0 0 1 1.43 3.78c.12.43.33.72.63.88.46.25 1.1.55 1.89.9.24.1.5.13.77.08.16-.04.4-.12.73-.27.48-.2.85-.3 1.11-.3.48.02.9.14 1.24.37.28.18.26.3-.06.37-.15.03-.37.14-.68.31-.13.08-.28.2-.45.38a1.4 1.4 0 0 1-.89.46c-.35.02-.7.01-1.04-.03-.26-.04-.29.03-.09.2.35.28.6.49.77.6.09.07.22.18.4.36.28.27.5.44.66.51.24.11.64.23 1.2.36.07.02.14.02.2 0 .58-.2 1.15-.46 1.72-.8.19-.1.43-.3.73-.6.5-.5 1.1-.5 1.81-.02.17.12.15.18-.05.2a8.66 8.66 0 0 0-3.56 1.41c-.09.2-.02.26.19.18.3-.12.56-.2.77-.24.17-.03.42.04.75.2l.26.12c.34.18.6.28.75.33.23.06.5.07.82.04.19-.02.42-.19.7-.49.38-.4.84-.75 1.38-1.06.05-.03.07-.01.08.04l.02.1c.02.06 0 .1-.07.14-.7.38-1.06 1-1.07 1.89 0 .04.02.07.06.09l.07.03c.1.04.14.1.1.16a.17.17 0 0 1-.06.06.12.12 0 0 1-.13 0 .1.1 0 0 1-.05-.05c-.04-.08-.1-.1-.16-.02-.24.28-.39.55-.44.8a.25.25 0 0 1-.13.17c-.23.13-.33.32-.3.57.04.24.17.42.4.53l.67.38c.06.03.1.08.1.14 0 .07-.02.13-.07.17l-.09.07c-.08.06-.07.1.03.13.06.02.12 0 .18-.05.17-.12.27-.26.29-.41.02-.17-.04-.31-.2-.45-.29-.23-.5-.37-.64-.43-.53-.24-.52-.44.02-.62.2-.06.38.12.54.54l.03.02c.03.01.06.02.07.01.04-.01.06-.04.06-.08l-.06-.4c0-.09-.06-.14-.15-.14Zm8.76-13.9 1.89-.63c.04.07.02.12-.07.16-.3.16-.62.3-.94.43-.03 0-.03.03-.01.05l.04.06h.02c.4-.08.75-.22 1.07-.4a.15.15 0 0 1 .18 0c.08.07.15.09.2.06.08-.03.09-.08.02-.13a.87.87 0 0 0-.51-.23.47.47 0 0 0-.45-.18c-.1.02-.27.08-.48.19l-.19.1a.4.4 0 0 1-.2.03c-.25-.03-.4-.02-.45 0-.42.24-.48.17-.17-.2.04-.05.2-.07.5-.06.27.01.47-.03.6-.13.1-.06.09-.1-.02-.13a3.02 3.02 0 0 0-.76-.02.26.26 0 0 0-.19.09.37.37 0 0 1-.26.11c-.05 0-.08-.01-.1-.06l-.02-.08c-.02-.03 0-.06.03-.08l.57-.21a.36.36 0 0 1 .22-.02c.84.2 1.48.43 1.93.7.47.26.6.14.4-.38-.03-.09-.18-.17-.45-.24-.65-.16-1.26-.34-1.84-.52-.28-.09-.47.01-.56.3a.2.2 0 0 1-.14.14c-.3.09-.41.29-.36.6 0 .06 0 .1-.03.15-.02.04-.05.05-.07.03-.2-.17-.24-.34-.12-.51L30 24a.3.3 0 0 0 .04-.33.3.3 0 0 0-.27-.19l-1.28-.1c-.03 0-.05-.02-.05-.04l-.02-.1c0-.03 0-.05.04-.05l5.18.08c.1 0 .11-.03.03-.1-.33-.22-.7-.32-1.14-.3-.45.01-1.84 0-4.18-.03a.23.23 0 0 0-.19.1l-.2.24a.21.21 0 0 0-.02.22c.03.09.1.13.18.14l.9.1c.26.04.43.15.51.33.07.13.05.26-.04.38l-.66.83c-.06.08-.06.16.02.23.04.04.07.07.08.12.03.1 0 .13-.1.1-.16-.04-.26-.14-.27-.3-.01-.1.03-.2.12-.31.14-.15.31-.37.53-.65.07-.1.08-.21.02-.32a.28.28 0 0 0-.28-.17 2.4 2.4 0 0 1-1.16-.22.3.3 0 0 1-.17-.21.31.31 0 0 1 .05-.27c.23-.33.55-.7.95-1.11.26-.27.49-.67.69-1.2.02-.08.07-.1.14-.05a.5.5 0 0 0 .1.04c.15.05.16.03.01-.06a.52.52 0 0 0-.12-.04.04.04 0 0 1-.03-.04v-.06c.01-.04.04-.06.09-.06.67.02 1.26.1 1.79.22 4.45 1.1 7.75 3.7 9.9 7.8.04.1.1.1.17.04l.3-.24a.3.3 0 0 1 .16-.07c.51-.06.96-.3 1.33-.73a.12.12 0 0 1 .13-.04l.03.01c.04.02.06.06.04.1-.14.4-.18.98-.13 1.74l.02.39c.01.25-.04.48-.17.7l-.73 1.28c-.19.33-.56.62-1.12.87-.23.1-.42.28-.59.55-.03.06-.02.1.02.15l.06.04c.06.03.11.03.16 0l.08-.06a.86.86 0 0 1 .38-.15c.33-.04.6-.16.84-.36.16-.14.3-.39.41-.75.05-.14.2-.39.43-.75.13-.19.34-.38.64-.56.25-.16.55-.39.9-.7.22-.2.41-.33.56-.39.17-.06.46-.09.86-.09h.14a11.06 11.06 0 0 0 .16 0c.07 0 .14-.03.19-.08l1-.97a.1.1 0 0 0 .02-.1 20.24 20.24 0 0 0-8.7-10.87 20.02 20.02 0 0 0-12.95-2.93c-4.69.5-8.71 2.36-12.07 5.55a20.2 20.2 0 0 0-5.23 8.08c-.02.05 0 .09.05.11.67.25 1.21.45 1.64.59a5.2 5.2 0 0 1 1.55.75c.57.45 1.08.97 1.54 1.59.08.1.25.26.5.47l.26.22c.16.14.35.28.58.4l1.83.97c.23.12.3.06.22-.19l-.14-.16c-.29-.3-.64-.62-1.05-.97a.9.9 0 0 0-.51-.21 2.05 2.05 0 0 1-1.23-.5c-.33-.32-.7-.74-1.13-1.24a2.08 2.08 0 0 1-.54-1.76l.2-.7c.17-.64.12-1.25-.15-1.85-.04-.1-.02-.12.08-.08.24.13.45.32.6.57a5.8 5.8 0 0 1 .46.99.4.4 0 0 0 .14.17c.12.1.32.2.59.3.33.14.57.28.71.42.7.7 1.01 1.56.95 2.58-.04.54.3 1.09 1.02 1.64.12.1.18.06.18-.09v-.18a.28.28 0 0 0-.06-.18l-.75-.94a.39.39 0 0 1-.09-.26c0-.5-.03-1.08-.11-1.74-.04-.28.04-.58.24-.9.57-.9.86-1.9.88-3 0-.09.04-.13.13-.13h.1c.07 0 .13-.02.18-.07a14.61 14.61 0 0 1 11.26-4.4c.14 0 .17.07.1.2l-.07.08a.29.29 0 0 1-.25.13 14.35 14.35 0 0 0-10.87 4.41.2.2 0 0 0-.05.22l.15.38c.03.09.07.1.13.03a13.3 13.3 0 0 1 6.3-3.94c1.06-.3 2.39-.5 3.96-.58.04 0 .06.02.08.05.01.03 0 .05-.01.08l-.13.17a.4.4 0 0 1-.33.16h-1.53c-.03 0-.05.01-.06.04-.02.06-.02.1 0 .12l.06.02c.3.03.79.05 1.44.06a.7.7 0 0 0 .62-.33l.81-1.17a.35.35 0 0 0 .06-.2c.02-.27.04-.44.06-.53.01-.03.03-.06.06-.06.06-.02.09 0 .09.06 0 .34 0 .57-.05.68-.15.4-.46.9-.95 1.48-.32.4-.76.89-1.32 1.47a.2.2 0 0 0-.05.2.2.2 0 0 0 .14.15c.21.07.54.13.99.18.13.02.24.05.32.1a.3.3 0 0 1 .15.22c.01.1-.01.18-.07.26l-.47.6a.2.2 0 0 0-.04.18c.06.24.2.4.44.48.07.02.35.02.84 0 .08 0 .14-.03.18-.1.07-.09.17-.1.32-.01.11.05.2.13.24.23 0 .01.02.02.03 0Zm-.6-4.15c0 .02.04.05.1.09.07.06.06.08-.03.07l-.34-.02c-.1-.01-.12-.06-.06-.13.24-.3.4-.57.47-.8.02-.09.08-.12.15-.1.88.15 1.5.28 1.88.38 4 1.03 7.09 3.47 9.24 7.33.1.17.1.34-.02.5a.7.7 0 0 1-.1.13c-.13.12-.23.1-.3-.05a13.44 13.44 0 0 0-10.8-7.69.2.2 0 0 0-.18.09.18.18 0 0 0-.02.2Zm-.5.46c-.08.17-.14.26-.2.29a.08.08 0 0 1-.08-.01c-.03-.02-.04-.05-.03-.09.05-.14.13-.23.24-.27.1-.04.13-.01.08.08Zm-1.73.22c-1.14.1-1.91.14-2.3.1-1.58-.14-1.58-.25.01-.32.47-.02 1.32 0 2.57.06.1 0 .12.05.07.13a.3.3 0 0 1-.13.12c-.04.02-.07.02-.1.01a.06.06 0 0 1-.03-.04c-.01-.05-.05-.07-.1-.06Zm-4.91.57a6.69 6.69 0 0 1 .97-.25l3.78-.02c.12 0 .14.05.07.14l-.1.11a.4.4 0 0 1-.32.16H22.4c-.07 0-.13-.02-.17-.03-.08-.05-.08-.08 0-.11Zm12.4.42h-4.35a.06.06 0 0 0-.05.06v.13c0 .04.02.06.05.06h4.35c.03 0 .06-.02.06-.06v-.13a.06.06 0 0 0-.06-.06Zm-8.18 0h-5.09a.12.12 0 0 0-.12.12c0 .07.05.13.12.13h5.09c.06 0 .12-.06.12-.12v-.01a.12.12 0 0 0-.12-.13Zm-3.63.85c1.47-.01 2.65-.1 2.65-.2s-1.19-.17-2.65-.16c-1.46.01-2.65.1-2.65.2s1.2.18 2.65.16Zm10.46 0c1.39.01 2.51-.06 2.51-.16s-1.12-.19-2.5-.2c-1.39-.02-2.5.05-2.5.15-.01.1 1.11.2 2.5.2Zm-5.39.26c.02-.02.03-.04.02-.07-.02-.02-.03-.03-.06-.03a8.1 8.1 0 0 1-1.2 0c-.13 0-.34.03-.6.12-.13.04-.33.1-.62.16a4.3 4.3 0 0 0-1.53.75c-.04.03-.13.01-.26-.06a.12.12 0 0 1-.03-.03.07.07 0 0 1-.01-.01c-.07-.16-.04-.27.08-.36a6.68 6.68 0 0 1 2.08-.86 4.47 4.47 0 0 1 2.33.11c.04.01.05.04.03.07l-.48.82a.17.17 0 0 0 .02.2l.4.52c.03.03.07.05.11.05l1.69.14c.02 0 .03.01.03.04v.08c0 .08-.05.12-.14.12l-2-.16c-.07 0-.11-.05-.13-.12l-.06-.32c-.02-.09-.07-.14-.17-.15-.07-.02-.19-.03-.33-.04-.37-.03-.64-.1-.81-.18a4.5 4.5 0 0 0-.92-.3c-.02-.01-.03-.02-.03-.05 0-.02 0-.03.03-.04l.46-.09c.06-.01.12 0 .18.03.4.24.83.36 1.28.38.1 0 .16-.04.17-.15v-.06c.01-.09-.03-.13-.11-.12-.39.05-.75 0-1.09-.16-.18-.08-.17-.13.03-.14.24-.01.66 0 1.26.06.13.01.26-.04.38-.15Zm-4.3.21c-.2.05-.41.07-.62.07h-3.3c-.04 0-.07-.04-.07-.1v-.1c0-.06.02-.08.07-.08l4.09-.02c.2 0 .22.06.04.18l-.21.05Zm12.77.04c0 .04-.02.06-.05.06h-.04c-2.44-.03-3.67-.08-3.67-.14v-.14c0-.07 1.23-.08 3.68-.05h.03c.04 0 .06.01.06.05v.22Zm-13.05.59c0 .03-.01.05-.05.05h-.02c-2.94-.01-4.41-.05-4.41-.12v-.17c0-.07 1.47-.1 4.41-.1h.02c.04.01.05.03.05.06v.28Zm10.02-.3c.18-.01.3 0 .35.05.08.05.07.1-.02.13l-.23.09c-.09.03-.14 0-.18-.08a.21.21 0 0 1 0-.1c0-.05.02-.08.08-.09Zm3.63.3-1.9.01c-.03 0-.05 0-.06-.02l-.15-.17a.07.07 0 0 1 0-.08.07.07 0 0 1 .06-.04l1.9-.02c.03 0 .05.01.06.03l.14.17c.02.02.03.05.01.08a.07.07 0 0 1-.06.04Zm-10.74.64c-.06.08-.16.1-.29.06l-1.29-.36c-.04-.01-.07-.05-.06-.1l.01-.06c.01-.07.05-.1.12-.09.4.08.79.26 1.15.52.02.02.04.02.06 0l.1-.08c.03-.03.03-.05 0-.08-.16-.12-.4-.24-.72-.37l-.3-.12c-.18-.08-.3-.04-.37.1a.18.18 0 0 1-.12.1.53.53 0 0 0-.24.15h-.05l-.05-.08c-.04-.04-.03-.08.02-.1l.67-.4a.22.22 0 0 1 .22 0c.61.3 1.38.54 2.3.72.1.02.11.05.04.12l-.1.08a.24.24 0 0 1-.2.05l-.78-.11c-.05 0-.09 0-.12.05Zm8.53 1.98a3.14 3.14 0 0 1-.54-2.19c.01-.1-.03-.14-.12-.14-.7-.01-.92.4-.67 1.22.02.08 0 .13-.07.17a.36.36 0 0 1-.37-.02.31.31 0 0 1-.15-.31c.03-.36.14-.71.33-1.05.04-.07.1-.11.17-.12.3-.03.56-.16.76-.38.06-.06.12-.08.2-.06.14.04.26.11.36.22a.2.2 0 0 1 .04.2v.02l-.01.03v.02c-.02.01-.02.03-.03.05a.5.5 0 0 0-.05.2c.05.83.26 1.52.62 2.07.07.12.09.24.03.38a.37.37 0 0 1-.29.24c-.66.13-1.19.47-1.59 1.02-.34.47-.44.89-.3 1.26.03.07.08.11.15.14a.5.5 0 0 0 .19.01c.1 0 .17 0 .2.02.08.04.12.1.13.18 0 .06-.02.12-.08.2-.19.22-.48.31-.88.27a.12.12 0 0 1-.11-.1 2.7 2.7 0 0 1 .12-1.73 3.51 3.51 0 0 1 1.91-1.67c.08-.03.09-.08.05-.15Zm-17.5-2.3c.07-.01.13-.05.13-.1 0-.04-.07-.07-.14-.07-.08 0-.14.05-.14.09 0 .04.07.07.14.07Zm6.12-.04-4.91.01a.14.14 0 0 0-.14.14v.01c0 .08.06.15.14.15l4.91-.01c.08 0 .14-.07.14-.15a.14.14 0 0 0-.14-.15Zm14.08 0-2.5.02a.14.14 0 0 0-.14.14c0 .08.06.14.13.14l2.52-.01c.07 0 .13-.07.13-.14v-.01a.14.14 0 0 0-.14-.14Zm-3.65 6.17c-.07-.14-.01-.29.17-.46a.2.2 0 0 1 .14-.05h6.25c.04 0 .06.02.05.07l-.07.2c0 .03-.03.05-.07.05-2.78.04-4.74.01-5.88-.08-.18-.01-.28 0-.3.03-.2.3-.14.37.2.23.03 0 .12-.02.27-.02.95 0 1.96.28 3.04.81.08.04.13.1.15.2.02.09 0 .17-.07.23-.14.17-.33.3-.58.4-.77.33-1.6.56-2.5.71-.9.15-1.9.3-2.98.46a5.5 5.5 0 0 1-1.6.05 4.7 4.7 0 0 0-1.22-.06 6.9 6.9 0 0 1-1.6-.03c-.08-.01-.23.04-.47.15a.38.38 0 0 1-.2.04l-2.64-.2-.02-.01.01-.01c.12-.06.27-.09.47-.1 1.07-.03 2.44-.07 4.1-.1.06 0 .19 0 .36-.03l.37-.03 2.44.12c.02 0 .03 0 .04-.03v-.06c0-.02 0-.03-.02-.03-.66-.07-1.31-.09-1.97-.06-.06 0-.1-.03-.1-.1l-.02-.07c-.02-.04-.05-.06-.1-.06a3 3 0 0 0-.7.13c-.2.06-.42.09-.65.07a7.27 7.27 0 0 1-4.02-1.6.38.38 0 0 1-.14-.28 7.4 7.4 0 0 1 .04-1.4l.18-1.4c.06-1.24-.09-2.45-.44-3.64a.08.08 0 0 1 .02-.08.08.08 0 0 1 .1-.02c.43.2.89.34 1.39.45 2.4.5 4.69.45 6.88-.17.19-.05.36-.12.53-.22.13-.08.18-.05.13.1a10.04 10.04 0 0 0-.43 4.5c.07.5.1 1.04.1 1.6 0 .18-.07.32-.2.44a6.88 6.88 0 0 1-2.54 1.4c-.02 0-.03.02-.03.05l.01.07c0 .01.01.02.02.01.25-.03.48-.07.72-.13a.41.41 0 0 1 .22.02c.75.25 1.53.26 2.32 0 .05 0 .06-.04.03-.07l-.07-.1a.05.05 0 0 0-.06-.01c-.65.2-1.3.23-1.94.12a.09.09 0 0 1-.08-.07.1.1 0 0 1 .03-.1c.12-.11.27-.15.43-.1a.8.8 0 0 0 .19.02h.86c.03 0 .04-.02.03-.05l-.01-.08v-.01h-.01l-.02-.01a2.06 2.06 0 0 0-.69.03c-.06.01-.11 0-.14-.01a.14.14 0 0 1-.05-.05c-.03-.06-.02-.1.03-.14l.91-.62c.07-.05.12-.1.14-.19l.15-.46c.03-.1.1-.13.19-.13l.85.07c.08.01.1-.02.07-.1Zm-16.63-5.74c.02-.11.07-.14.17-.08.07.05.1.1.07.16-.03.07-.07.09-.14.06-.08-.03-.12-.08-.1-.14Zm16.67.17c.03.09.03.15.02.2-.07.17-.14.17-.22 0-.06-.13-.05-.22.02-.27.08-.05.14-.03.18.07Zm-10.35-.05-5.56.01c-.1 0-.17.08-.17.17 0 .1.08.17.17.17h5.56c.1 0 .17-.08.17-.17v-.01c0-.1-.08-.17-.17-.17Zm14.48.01-3-.01a.16.16 0 0 0-.15.16v.02c0 .09.07.16.16.16l3 .01c.08 0 .15-.07.15-.16v-.02a.16.16 0 0 0-.16-.16ZM16.84 27.6l-.01-.01v-.04a4.99 4.99 0 0 1 .48-.96h.07c.04.01.05.03.03.07l-.32.67a.38.38 0 0 0-.03.25c.04.16-.08.32-.36.48h-.04a.1.1 0 0 1-.06-.05c-.02-.02-.01-.04.02-.05.14-.05.22-.14.25-.26.01-.02 0-.05-.03-.1Zm-4.16.69c0 .03-.02.04-.09.04-.07 0-.1-.04-.1-.1a.77.77 0 0 1 .18-.42c.04-.05.04-.1.01-.16-.03-.07 0-.16.1-.26.1-.09.1-.18-.01-.26a.36.36 0 0 1-.15-.34c0-.03.03-.05.06-.06.03 0 .05.01.07.04.27.66.34 1.18.2 1.54-.12.33-.23.68-.3 1.04-.01.05-.04.06-.08.03l-.06-.05-.01-.02v-.04c.04-.23.01-.4-.08-.53-.04-.07-.03-.13.04-.17.1-.07.18-.11.24-.12.05-.01.1-.05.1-.1.02-.03.02-.06.01-.08 0-.05-.02-.07-.06-.06-.05 0-.07.04-.07.08Zm11-1.33h-5.8a.13.13 0 0 0-.14.13c0 .08.06.14.13.14l5.82.01c.07 0 .13-.06.13-.13v-.01a.13.13 0 0 0-.13-.14ZM33.8 27c.12 0 .2.02.27.05.04.03.05.06.04.1 0 .03-.02.06-.06.07-.16.04-.27.01-.33-.08-.05-.1-.02-.14.08-.14Zm4.7 0-3.38-.02a.13.13 0 0 0-.13.12v.01c0 .07.06.13.12.13l3.39.02c.07 0 .13-.06.13-.13a.13.13 0 0 0-.13-.14Zm-14.68.47H18.2a.06.06 0 0 0-.06.06v.18c0 .04.03.06.06.06h5.63c.04 0 .06-.02.06-.06v-.18a.06.06 0 0 0-.06-.06Zm10.13-.04-1.25.05a.14.14 0 0 0-.13.14v.03c0 .07.07.13.14.13l1.25-.05c.07 0 .13-.06.13-.14v-.03a.14.14 0 0 0-.14-.13Zm-16 .8-.42.33c-.22.18-.3.13-.23-.15.04-.2.1-.45.15-.76.02-.14.11-.2.27-.17.08.02.13.06.16.13.13.25.2.39.23.4.2.13.29.3.3.53a.66.66 0 0 1-.24.56c-.17.16-.5.38-.99.67-.02.02-.04.01-.05 0a.05.05 0 0 1-.02-.05l.22-.67a.11.11 0 0 1 .01-.03l.03-.02.66-.55c.04-.03.05-.07.04-.11l-.04-.1c-.01-.04-.04-.05-.09-.02Zm20.93-.74h-3.54a.1.1 0 0 0-.1.1v.07c0 .05.05.1.1.1h3.54a.1.1 0 0 0 .1-.1v-.07a.1.1 0 0 0-.1-.1Zm-25.33.34c.06.35.07.63.03.85-.02.1-.07.11-.14.05l-.16-.13a.15.15 0 0 1-.05-.18c.1-.27.12-.49.07-.66-.01-.03 0-.05.02-.07a.06.06 0 0 1 .07 0l.1.04c.03.02.05.05.06.1Zm.83.82c-.05-.19-.11-.19-.17 0-.06.2-.1.47-.12.82 0 .07-.04.11-.1.12l-.1-.07a.4.4 0 0 1-.14-.4c.08-.4.09-.75.03-1.06-.02-.1.01-.13.1-.1.63.23 1.03.6 1.19 1.13.02.07.01.14-.02.2l-.4.84c-.07.16-.16.17-.27.03l-.06-.08a.39.39 0 0 1-.05-.44c.17-.34.2-.67.11-.99Zm9.56-.32c0 .04-.02.06-.06.06l-4.71-.01c-.53 0-.8-.06-.8-.15v-.08c0-.1.27-.14.8-.14l4.71.01c.04 0 .06.02.06.06v.25Zm10.2-.34-1.48.06a.16.16 0 0 0-.16.17v.01c0 .1.08.16.17.16l1.49-.06c.09 0 .15-.08.15-.17v-.01a.16.16 0 0 0-.17-.16Zm5.14.06-3.71-.02a.06.06 0 0 0-.06.06v.22c0 .03.03.05.06.05l3.7.02c.04 0 .06-.03.06-.06v-.21a.06.06 0 0 0-.05-.06Zm-22.93.28c.02.33.2.5.5.51.09 0 .14.05.16.13.05.22.06.41.04.6 0 .05-.04.09-.1.1-.04.02-.09 0-.12-.04l-.7-.88a.18.18 0 0 1-.03-.2l.12-.25c.07-.15.12-.14.13.03Zm25.82.32c-.07-.02-.1 0-.11.08-.02.43-.04.7-.06.81-.07.41-.15.41-.25 0l-.15-.63a.18.18 0 0 1 .05-.19c.14-.13.39-.2.74-.23.06 0 .11.03.13.1l.04.1c.02.05.06.07.12.07.03 0 .06-.02.07-.05a.09.09 0 0 0 .02-.04l-.01-.04c-.08-.16-.06-.29.05-.38a.11.11 0 0 1 .13-.01c.05.02.07.06.07.1 0 .3-.08.5-.26.61-.06.04-.11.03-.16-.02a1.09 1.09 0 0 0-.42-.28Zm-25.26-.29c.05-.02.09 0 .12.04.02.04.02.09 0 .15-.02.05-.05.08-.1.08-.06.01-.1-.01-.12-.07-.03-.1 0-.16.1-.2Zm15.73.26c.15-.03.42-.05.81-.06.09 0 .1.04.06.1-.21.3-.5.4-.9.3-.07-.02-.1-.07-.1-.15 0-.1.04-.16.13-.19Zm-8.82-.02h-5.15a.1.1 0 0 0-.1.1v.12c0 .06.04.11.1.11h5.15a.1.1 0 0 0 .1-.1v-.12a.1.1 0 0 0-.1-.11Zm13.6 0h1.8c.26.01.42.07.48.19.05.07.03.1-.06.11l-2.22.03h-2.23c-.08 0-.1-.04-.06-.1.06-.12.22-.18.48-.2l1.8-.04Zm-27.5.93a.75.75 0 0 1-.15.06c-.13-.04-.37-.2-.73-.51l-.01-.01-.02-.02c-.04-.03-.08-.03-.1 0-.01.02-.02.04-.02.09l.03.06c.23.27.41.43.53.48.43.16.41.25-.04.26h-.08l-.07.02c-.03 0-.07 0-.12.02-.07 0-.12-.03-.15-.1l-.31-.83c-.12-.3-.03-.4.26-.26l1.33.6a.2.2 0 0 1 .1.13l.2.51c.11.3.03.36-.24.2a.6.6 0 0 1-.23-.31.46.46 0 0 1-.03-.2l-.01-.13c-.03-.07-.08-.09-.15-.06Zm3.29-.7c.03-.03.05-.03.08 0 .03.02.03.05 0 .09-.02.04-.06.05-.1.02-.05-.03-.04-.07.02-.12Zm28.17 1.8L41 29.36l.01-.08.2-.35a.1.1 0 0 1 .1-.05c.05 0 .08.03.1.07l.35 1.3a.1.1 0 0 1 0 .08l-.2.3a.1.1 0 0 1-.1.05.1.1 0 0 1-.08-.08Zm-25.2-1.47.78.88c.02.01.02.03.02.05l-.01.29c0 .08-.04.1-.11.07l-.62-.32a.08.08 0 0 1-.04-.06l-.15-.85c-.01-.03 0-.06.04-.08.03-.02.06-.01.1.02Zm-3.12.64c-.07 0-.1-.03-.11-.1-.01-.14.01-.26.08-.35.06-.1.13-.15.23-.16h.08c.09-.01.17.03.25.12.07.09.11.2.12.33v.01c0 .07-.02.1-.09.1l-.56.05Zm10.74-.6h-5.18a.11.11 0 0 0-.11.12v.06c0 .07.05.12.1.12l5.19-.01c.06 0 .11-.05.11-.12v-.06a.11.11 0 0 0-.11-.11Zm8.8.36c-.06.04-.1.02-.1-.05l-.05-.21c-.01-.07.01-.1.08-.1h.3c.1 0 .12.03.08.12a.98.98 0 0 1-.31.24Zm1.36-.06c-.01 0-.02-.01-.02-.03 0-.18.15-.27.45-.27h5.13c.3 0 .45.08.45.26 0 .02 0 .03-.03.03h-5.98Zm8.71.2-.43.34a.08.08 0 0 1-.1.01c-.04-.02-.05-.05-.05-.1.05-.46.28-.71.7-.74.08 0 .13.03.14.11.06.45.07.74.03.88-.16.58-.56.85-1.2.83-.08 0-.1-.05-.06-.13l.22-.47a.3.3 0 0 1 .18-.16l.58-.23a.06.06 0 0 0 .04-.04l.07-.22c.01-.04 0-.07-.03-.09-.03-.02-.06-.02-.09 0Zm-32-.31c.3.12.52.26.65.41.04.05.06.11.05.17l-.12.87c-.02.14-.09.17-.2.08l-.17-.14a.29.29 0 0 1-.1-.33c.08-.27 0-.55-.2-.86l-.03-.09c-.01-.03 0-.07.03-.1a.08.08 0 0 1 .09-.01Zm6.67 3.82c-.21-.3-.3-.57-.28-.8.02-.25 0-.44-.08-.6-.05-.09-.14-.2-.28-.34a2.1 2.1 0 0 1-.37-.44c-.1-.17-.15-.35-.17-.55 0-.09.03-.12.12-.08l.53.26c.07.04.12.1.12.2l.03.47c0 .03.02.05.05.07l.13.06c.08.04.1.02.1-.07l-.1-.44a.16.16 0 0 1 .08-.18l.76-.48c.02-.02.02-.03 0-.05l-.07-.05c-.06-.04-.11-.04-.15 0l-.48.37c-.09.08-.15.06-.19-.05-.03-.12-.01-.23.07-.35a2.4 2.4 0 0 1 1.07-.75c.08-.03.12 0 .1.08-.09.57-.18.92-.29 1.05a7 7 0 0 0-.66 1.04.43.43 0 0 0-.05.21c.01.34 0 .59-.05.75-.03.07 0 .14.05.19.18.16.2.32.08.48-.05.07-.05.13 0 .2.24.29.48.56.74.81v.02l-.03.06c-.02.06-.05.06-.09.01-.12-.16-.3-.24-.56-.23a.3.3 0 0 1-.2-.08c-.1-.08-.15-.2-.15-.38a.24.24 0 0 0-.09-.18.63.63 0 0 1-.22-.36.36.36 0 0 0-.11-.2c-.36-.32-.75-.65-1.18-1-.2-.15-.4-.23-.6-.25a3 3 0 0 1-.7-.15c-.06-.02-.08-.07-.06-.14.01-.04.04-.07.09-.07.25-.02.44-.07.57-.15a.17.17 0 0 1 .2 0l.19.14c.22.15.39.28.48.4.32.4.65.72 1 .96.05.04.1.08.12.14.12.2.28.37.49.5.07.03.08.02.04-.05Zm23.58-3.39c.02.25.15.59.4 1 .05.1.05.2 0 .3-.1.14-.2.16-.28.05a.15.15 0 0 1-.02-.07 3 3 0 0 0-.48-1.23c-.04-.08-.03-.14.04-.2l.2-.17c.1-.07.13-.05.14.07v.25Zm-25.78.53a.46.46 0 0 0-.08.22c0 .04-.02.06-.06.07a.08.08 0 0 1-.1-.02.31.31 0 0 1-.06-.36c.1-.25.23-.48.38-.68a.08.08 0 0 1 .08-.04c.04 0 .07.03.08.06.1.35.12.68.04 1a.26.26 0 0 0 .02.2c.08.14.12.25.11.34 0 .04-.02.06-.06.07-.04.01-.07 0-.1-.03l-.24-.31c-.05-.07-.04-.12.04-.15.13-.07.16-.18.1-.35-.04-.1-.09-.1-.15-.02Zm30.28 1.44c.2.2.22.48.04.85-.04.08-.01.12.07.13h.09c.08 0 .14-.03.17-.1.18-.43.25-.88.2-1.36 0-.08.02-.15.07-.2a2 2 0 0 0 .5-1.06c0-.07.05-.14.11-.18l.16-.16c.11-.16.13-.15.03.02-.18.35-.3.74-.39 1.19a.2.2 0 0 1-.13.16c-.24.1-.29.25-.14.42a.2.2 0 0 1 .04.21c-.12.28-.2.56-.26.84-.04.26-.38.53-1.02.8l-.07.04-.05.02-.07.03-.11.05a.28.28 0 0 1-.2.02 1.7 1.7 0 0 1-.93-.7c-.02-.02-.02-.04.01-.06l.5-.28c.03-.03.07-.02.1.02.27.33.63.49 1.06.49.05 0 .07-.03.05-.07l-.02-.07a.05.05 0 0 0-.05-.03c-.41 0-.7-.15-.88-.48-.05-.07-.03-.13.06-.16a3.4 3.4 0 0 0 1.2-.72c.02-.03.05-.03.08 0l.06.04v.02a.3.3 0 0 1-.22.14c-.13.01-.15.06-.06.14ZM23.79 29.7h-5.24a.13.13 0 0 0-.13.13v.09c0 .07.06.12.13.12h5.24c.07 0 .12-.05.12-.12v-.1a.13.13 0 0 0-.12-.12Zm16.24 0h-6.4a.16.16 0 0 0-.15.17c0 .1.07.17.16.17h6.39c.09 0 .16-.07.16-.16v-.01a.16.16 0 0 0-.16-.16Zm5.08.48a.17.17 0 0 0-.06 0 2.94 2.94 0 0 0-.29 1.22c0 .38-.14.57-.42.59-.08 0-.13-.03-.15-.1-.25-.83-.03-1.44.67-1.84.34-.2.68-.31 1.02-.32.13 0 .25.03.35.1.06.05.06.1.01.15a.79.79 0 0 0-.2.58c0 .04-.03.07-.07.09a.1.1 0 0 1-.08 0 .08.08 0 0 1-.04-.07.83.83 0 0 1 .04-.4c.03-.06 0-.1-.06-.1h-.07c-.04 0-.06.01-.07.05-.07.25-.1.5-.08.76 0 .08-.01.15-.05.21-.1.2-.2.3-.25.34-.33.16-.45.06-.35-.32l.22-.83c.01-.05 0-.09-.04-.1h-.03Zm-30.92.22h-.82c-.1 0-.2-.04-.26-.12l-.1-.14c-.12-.14-.09-.2.1-.18.27.05.5.03.67-.05.1-.04.17-.02.24.05l.24.3c.07.1.05.14-.07.14Zm-2.85.77.27-.97c.02-.07.06-.1.12-.12.06-.01.11 0 .15.05l.3.35c.03.04.04.08.04.13l-.16 1.1a.15.15 0 0 1-.12.12.15.15 0 0 1-.16-.04l-.41-.47a.16.16 0 0 1-.03-.15Zm-1.21-.52-.69.04a.16.16 0 0 1-.16-.08l-.13-.22a.16.16 0 0 1 0-.19c.04-.06.1-.09.17-.08l.5.05a.2.2 0 0 1 .06.01l.3.13c.09.04.12.1.11.2-.01.09-.07.14-.16.14Zm13.65-.36h-5.35a.11.11 0 0 0-.11.11v.04c0 .06.05.11.1.11h5.36c.06 0 .1-.05.1-.11v-.04a.11.11 0 0 0-.1-.11Zm16.3 0-6.7.02a.06.06 0 0 0-.07.06v.13c0 .03.03.06.06.06l6.7-.01c.04 0 .07-.03.07-.06v-.13a.06.06 0 0 0-.06-.06Zm-26.2.81a.17.17 0 0 1-.17-.06l-.28-.36c-.07-.08-.05-.11.05-.1.23.04.56.05 1 .04.11 0 .21.05.3.17.05.08.03.13-.07.15l-.83.16Zm-1.33-.26c.5.6 1 1.1 1.53 1.51.25.2.22.25-.08.14a7.39 7.39 0 0 0-1.83-.35c-.1 0-.11-.05-.07-.13.18-.32.28-.69.28-1.1 0-.19.06-.2.17-.07Zm5.68-.02h5.5c.06 0 .1.03.12.09.02.05 0 .1-.05.13l-.17.13a.11.11 0 0 1-.07.02h-5.5c-.06 0-.1-.03-.12-.08-.01-.06 0-.1.05-.14l.17-.12a.1.1 0 0 1 .02-.02h.05Zm-7.43.38-1.12.4c-.07.02-.12 0-.15-.07l-.17-.5c-.03-.1 0-.15.1-.15l1.1-.03c.02 0 .04 0 .06.02l.2.13a.1.1 0 0 1 .06.1.1.1 0 0 1-.08.1Zm29.39-.37-6.14-.01c-.1 0-.18.08-.18.17 0 .1.08.18.18.18l6.13.01c.1 0 .18-.07.18-.17s-.08-.18-.17-.18Zm3.08.84a.59.59 0 0 1 .22-.52l.23-.19c.18-.14.25-.1.21.13-.04.27-.03.51.05.72.07.21.02.38-.17.5l-.32.2c-.2.14-.29.09-.26-.14.04-.3.05-.54.04-.7Zm-1.3.16c-.12.03-.3 0-.58-.11-.17-.07-.2-.17-.04-.29.08-.07.22-.14.43-.2.2-.07.35-.1.46-.08.2.01.23.1.12.26-.16.24-.3.38-.4.42Zm-18.28-.42-6.02.06a.06.06 0 0 0-.06.06v.18c0 .04.03.06.06.06l6.02-.05c.04 0 .06-.03.06-.06v-.19a.06.06 0 0 0-.06-.06Zm-12.06.72c-.53.03-1.02.18-1.48.44-.1.06-.19.04-.26-.05-.1-.14-.16-.35-.2-.63-.02-.09.02-.13.1-.14.33-.01.69-.13 1.1-.35.1-.06.2-.04.27.06l.5.62c.02.03.01.05-.03.05Zm28.85-.07.18-.23c.03-.04.07-.04.1 0l.04.05c.02.03.02.05-.01.08l-.47.32a.22.22 0 0 1-.11.05 43.32 43.32 0 0 0-2.78-.03c-.26 0-.52-.06-.78-.2-.16-.08-.15-.12.03-.12h3.42a.5.5 0 0 1 .23.06l.07.04c.03.01.06 0 .08-.02Zm-17.27 1.92c-.06 0-.07.03-.02.07l.11.1h.05c.78.06 1.64.02 2.6-.1.2-.02.4.05.6.2.06.06.06.08-.02.08-1.1.02-1.92.05-2.48.1l-.42.08c-.21.04-.42.04-.62 0l-2.11-.4a8.45 8.45 0 0 1-2.09-.7.28.28 0 0 1-.16-.23.28.28 0 0 1 .1-.26c.1-.1.25-.18.43-.23.94-.25 1.97-.5 3.1-.72.21-.04.43-.06.65-.07l.65-.03c.07-.05.11-.02.12.09l.03.58c0 .08.04.15.1.2l.77.63c.07.05.06.1 0 .14-.07.05-.22.05-.43 0-.03-.02-.05 0-.07 0-.15.13-.13.18.06.18.46-.01.91.04 1.35.16.02.01.02.02 0 .04l-.07.06a.1.1 0 0 1-.07.02 8.78 8.78 0 0 0-2.16.01Zm18.59-1.96c.03 0 .04.02.03.05-.01.06-.06.11-.13.15l-.89.47c-.08.05-.11.03-.08-.07.03-.12.15-.34.35-.67.05-.07.11-.09.19-.05.13.08.3.12.53.12Zm-24.25 0c0-.02.01-.04.04-.04h.73c1.6 0 2.39.02 2.39.09v.12c0 .07-.8.1-2.39.1h-.73c-.03 0-.04 0-.04-.04v-.22Zm-6.43.8c-.05.02-.06.06-.02.1l.04.06h.02c.19-.04.31-.15.38-.31a.2.2 0 0 1 .15-.13h.08c.12 0 .13.04.04.11-.16.14-.26.27-.28.4-.02.09.02.12.11.09a.28.28 0 0 0 .17-.12c.12-.2.28-.36.48-.49.03-.02.06-.01.09.02l.02.06-.01.03c-.3.35-.5.59-.61.7-.05.05-.1.06-.16.03l-.98-.48c-.07-.04-.08-.08-.01-.13.07-.06.16-.07.26-.03.07.02.13 0 .18-.05.07-.1.18-.15.3-.18.13-.03.14 0 .05.09-.11.11-.21.19-.3.22Zm7.48-.07c0 .03-.01.04-.04.04h-.82c-.13 0-.19-.04-.19-.1v-.06c0-.07.06-.1.19-.1l.82.01c.03 0 .04.01.04.04v.17Zm21.7-.2-2.39-.02a.06.06 0 0 0-.05.06v.15c0 .03.02.06.05.06l2.39.02c.03 0 .06-.03.06-.06v-.15a.06.06 0 0 0-.06-.06Zm-27.7.4c-.09.24-.24.46-.46.66-.02.01-.04.01-.07 0l-.05-.04c-.06-.06-.07-.12 0-.18l.68-.77c.04-.04.08-.04.12.02l.04.05c.04.04.03.07-.02.09l-.1.04a.22.22 0 0 0-.13.13Zm.31.39c-.01.03 0 .05.02.07.02.03.05.03.08.01.29-.16.46-.4.52-.7.02-.09.07-.11.15-.07l.06.03c.05.02.06.05.04.1-.23.54-.63.83-1.2.88a.08.08 0 0 1-.1-.05c-.01-.03-.01-.07.01-.1.05-.05.1-.1.18-.12a.23.23 0 0 0 .14-.15c.1-.27.15-.42.17-.44.1-.12.21-.16.32-.12.09.03.1.08.03.15-.21.2-.35.37-.42.5Zm1.04-.45a.71.71 0 0 1 .03-.08.1.1 0 0 1 .11-.07.1.1 0 0 1 .1.08c.07.16.02.27-.13.35-.17.08-.24.04-.2-.13 0-.01.01-.04.04-.07a.22.22 0 0 0 .05-.08Zm.88.05c-.02-.06.02-.1.1-.11l.07.01c.68.42 1.33.72 1.96.92.06.02.1.06.12.13l.02.11c0 .03 0 .06-.03.08a.07.07 0 0 1-.09 0l-1.94-.94a.25.25 0 0 0-.16-.02l-.29.05c-.08.02-.13-.02-.14-.1-.01-.1 0-.19.02-.26.03-.1.06-.1.1-.01.08.15.15.21.22.2.03 0 .04-.03.04-.06Zm3.2.12c.15 0 .27.06.36.17a.1.1 0 0 1 .01.11.1.1 0 0 1-.08.06 4.08 4.08 0 0 1-.57 0 .1.1 0 0 1-.08-.06.1.1 0 0 1 0-.11c.1-.11.22-.17.37-.17Zm21.96.02h-1.92a.16.16 0 0 0-.16.16c0 .1.08.16.16.16H40c.08 0 .15-.07.15-.15v-.01a.16.16 0 0 0-.15-.16ZM19.25 34.6l-.29.15c-.07.03-.12.02-.15-.03-.22-.35-.49-.65-.8-.9-.03-.02-.04-.05-.02-.1.01-.04.04-.06.08-.06h.07a3.4 3.4 0 0 0 .16-.02c.3-.03.57.02.8.16a16.6 16.6 0 0 0 7.22 2.28c3.3.3 6.46-.25 9.45-1.64a74.3 74.3 0 0 1 1.34-.62c.33-.14.68-.21 1.05-.2.38.02.82.02 1.34 0 .23 0 .25.06.06.2l-.02.02-.03.02-.04.03c-.4.3-.72.49-.99.57-.3.1-.53.19-.65.27a.2.2 0 0 1-.2 0c-.31-.14-.53-.08-.68.2a.29.29 0 0 1-.16.14l-.98.38c-.13.05-.21 0-.24-.14-.03-.16-.08-.26-.16-.3-.08-.05-.14-.03-.18.06l-.16.32a.3.3 0 0 1-.15.15c-.62.26-1.2.35-1.74.27a.3.3 0 0 0-.22.04c-.25.17-.62.28-1.1.35a.48.48 0 0 0-.2.08c-.33.22-.65.28-.98.2-.26-.07-.44-.07-.54-.01l-1.74.96a.2.2 0 0 1-.19 0 3.17 3.17 0 0 1-1-.7c-.06-.06-.12-.07-.2-.04-.4.15-.72.15-.97 0a1.2 1.2 0 0 0-.56-.17c-.3-.02-.5-.01-.6.03-.25.12-.5.1-.72-.06a.44.44 0 0 0-.2-.07c-.7-.1-1.37-.32-2-.66l-.4-.32c-.22-.18-.46-.2-.7-.06a.2.2 0 0 1-.2 0c-.52-.25-.93-.5-1.2-.76-.07-.06-.14-.07-.21-.02Zm-2.39-.31.34.42c.03.04.04.09.03.14a.15.15 0 0 1-.11.1l-.3.09c-.05.01-.1 0-.14-.04l-.65-.62c-.05-.05-.06-.12-.03-.18.04-.07.1-.1.17-.09l.6.12c.04.01.07.03.1.06Zm.42-.06c.32.06.52.14.6.22.09.08.08.15 0 .23l-.12.1c-.1.07-.19.06-.26-.05l-.28-.41c-.05-.08-.04-.11.06-.1Zm17.64.32a14.72 14.72 0 0 1-3.97 1.18c-2.09.27-4 .28-5.73.04-1.41-.2-2.88-.63-4.4-1.29a.1.1 0 0 1-.06-.07l-.02-.1c0-.05.01-.07.05-.06 1.07.3 2.18.5 3.34.63a36.37 36.37 0 0 0 9.48-.23c.48-.1.9-.16 1.3-.18.14 0 .14.02 0 .08Zm-18.93.86-.76-.57a.13.13 0 0 1-.05-.12c0-.05.02-.09.06-.1l.46-.26c.07-.04.12-.02.17.03l.55.7c.07.08.05.15-.04.2l-.25.13a.12.12 0 0 1-.14-.01Zm2.17-.84c.06-.02.12 0 .17.05.05.07.04.1-.04.1h-.16c-.13-.05-.12-.1.03-.15Zm-3.3.33c.04-.06.08-.06.13-.03l.32.24c.3.23.43.39.36.48l-.07.1c-.07.1-.26.03-.57-.2l-.32-.23c-.05-.04-.05-.08-.02-.13l.17-.23Zm5.97 1a2.38 2.38 0 0 1-.74-.34c-.3-.2-.55-.3-.72-.31a1.7 1.7 0 0 0-1.39.54c-.08.08-.12.07-.12-.05v-.58c0-.08.04-.12.12-.12.52.01.99-.04 1.38-.15a.2.2 0 0 1 .2.05c.37.32.78.55 1.21.68.08.02.14.01.2-.03.23-.15.41-.11.55.11l.07.07 1.02.5c.04.02.05.04.03.08l-.04.07c-.01.04-.04.05-.08.03a27.2 27.2 0 0 0-.82-.33c-.07-.03-.36-.1-.87-.22Zm-3.26-.73c.29.68.1 1.13-.56 1.33-.08.03-.1 0-.08-.08.11-.26.16-.56.14-.91a.3.3 0 0 1 .07-.21c.08-.11.2-.18.31-.2.06 0 .1.02.12.07Zm-3.83.56-.06.13c-.02.04-.05.05-.08.03-.21-.08-.39-.19-.53-.3-.09-.09-.07-.12.05-.1.48.06.86.01 1.14-.14a.23.23 0 0 1 .21-.02c.16.07.3.16.4.28.07.1.05.14-.07.13l-.95-.07a.11.11 0 0 0-.1.06Zm2.7.38c-.04-.32 0-.53.07-.63.21-.25.32-.21.34.1.01.25-.01.47-.08.7-.08.29-.2.46-.39.53-.2.08-.25.02-.16-.17l.18-.4c.03-.04.04-.08.03-.13Zm-1.32.6c.36-.23.6-.54.73-.94.03-.08.11-.13.24-.15.08-.01.13.03.13.11 0 .35-.1.72-.33 1.1-.1.17-.23.22-.41.16l-.34-.11c-.13-.04-.14-.1-.02-.18Zm-.83-.51c.03.12.09.14.17.04a.98.98 0 0 1 1.04-.32.1.1 0 0 1 .07.07.1.1 0 0 1-.03.1l-.8.65a.09.09 0 0 1-.09 0c-.32-.1-.6-.34-.84-.71a.08.08 0 0 1 0-.1c.02-.03.05-.05.09-.04l.29.04c.1.02.14.07.1.17a.15.15 0 0 0 0 .1Zm7.04.2-.1-.04c-.03-.01-.05-.03-.05-.07 0-.02.01-.05.03-.06.02-.02.04-.02.06-.01.15.1.33.16.54.18.13.02.13.06.02.11-.59.3-.91.5-.98.6-.3.5-.71.75-1.24.78-.25.02-.63-.13-1.12-.43l-.14-.09c-.21-.12-.2-.17.04-.16.59.04 1 .1 1.26.17a.2.2 0 0 0 .2-.05c.34-.3.84-.6 1.48-.9.04 0 .04-.02 0-.04Zm15.88.35 1.08-.56c.07-.03.13-.02.19.04l.24.27c.04.04.05.08.04.14a.15.15 0 0 1-.1.1l-.84.38a.15.15 0 0 1-.09 0l-.48-.08c-.07-.01-.12-.05-.13-.13 0-.07.02-.13.09-.16Zm-16.56-.3c.13-.02.22-.08.21-.13-.01-.05-.12-.07-.25-.05-.12.03-.22.1-.2.15 0 .05.12.07.24.04Zm19.6.89c.02 0 .02.02 0 .03-.06.08-.18.1-.36.04a1.58 1.58 0 0 1-.54-.3l-.05-.05a1.56 1.56 0 0 1-.4-.48c-.1-.17-.1-.3-.04-.37a.04.04 0 0 1 .01 0v-.01h.03l1.35 1.14Zm-20.47-.66-.39.02a.18.18 0 0 0-.16.1c-.05.1-.17.13-.34.1-.05-.02-.06-.04-.02-.08a.88.88 0 0 1 .57-.31c.04 0 .13 0 .3.04.09.01.19-.02.3-.1.15-.1.2-.07.14.12-.07.19-.2.3-.39.33-.08.01-.1-.02-.05-.09a.24.24 0 0 1 .08-.07c.08-.04.07-.06-.04-.06Zm3-.16c.32.09.55.18.7.29.09.06.08.12-.02.15l-.14.06c-.13.05-.23.02-.32-.08l-.27-.35c-.05-.07-.04-.1.05-.07Zm1 .03c.11.02.2.09.24.19.03.05.01.07-.04.08-.23.02-.34-.03-.35-.14 0-.12.04-.16.15-.13Zm-5.26.12c.03-.03.07-.03.1 0 .08.04.08.11 0 .2-.04.05-.08.05-.13.02-.07-.06-.06-.13.03-.22Zm7.25.14c.4.2.84.26 1.28.2.1-.01.19.01.26.07l.7.57c.08.06.07.1-.01.13l-.15.06a.11.11 0 0 1-.1-.01 3.71 3.71 0 0 0-1.88-.58.24.24 0 0 1-.23-.16.3.3 0 0 1-.02-.2c.02-.1.07-.12.15-.08Zm-.7.27c.1.03.2.01.22-.04 0-.05-.07-.11-.18-.14-.11-.03-.2-.01-.22.03-.02.05.06.12.17.15Zm13.8.2c-.26.07-.42.1-.46.1-.47-.12-.47-.22 0-.32.08-.02.2-.07.38-.16.07-.04.13-.02.18.03.09.1.16.22.2.34.03.08 0 .1-.06.06l-.1-.04a.2.2 0 0 0-.15-.01ZM23 37.3c0 .04-.02.06-.05.06h-.14c-.53 0-.8-.05-.8-.13v-.08c0-.09.27-.13.8-.12h.14c.03 0 .05.01.05.05v.22Zm1.07-.04a.1.1 0 0 0 .09-.09.1.1 0 0 0-.1-.1.1.1 0 0 0-.08.1c0 .05.04.1.09.1Zm11.27.55c-.1-.07-.25-.07-.46.01a.1.1 0 0 1-.08 0l-.7-.34c-.06-.03-.06-.06 0-.08l.66-.3a.1.1 0 0 1 .1 0c.32.23.52.44.61.65.03.08.09.13.17.16.08.03.15.09.2.17.03.07.01.1-.07.12-.11.02-.27.02-.47 0-.04 0-.07-.02-.09-.04a.33.33 0 0 1-.04-.08c-.03-.08 0-.13.07-.16l.09-.03c.04-.02.05-.05.01-.08Zm-11.24.08c.05-.35.18-.57.41-.66.37-.15.4-.08.12.18l-.53.48Zm0 0a.43.43 0 0 1-.27.38c-.08.04-.1.01-.06-.07a.77.77 0 0 1 .33-.31Zm-.6.29.02-.02.29-.93c0-.01 0-.03-.02-.03a.34.34 0 0 0-.3.05.5.5 0 0 0-.2.28l-.03.09a.5.5 0 0 0 0 .35c.05.1.12.18.22.2a.04.04 0 0 0 .02.01Zm11.03-.2-1.03-.68a.12.12 0 0 0-.14 0 .13.13 0 0 0-.07.12v.66c0 .06.03.1.08.12l.79.37c.06.03.12.02.16-.04l.25-.35c.05-.08.04-.14-.04-.2Zm-11.99-.35c.02.11-.21.24-.51.28-.3.05-.56 0-.58-.1-.01-.12.22-.24.52-.29.3-.05.56 0 .57.11Zm16.6.6c-.18-.23-.3-.44-.35-.62-.01-.05-.05-.07-.1-.06-.17.03-.32.03-.43 0-.16-.05-.22.02-.2.18.1.63.45.84 1.04.63.07-.03.09-.07.04-.13Zm1.34-.6c-.04-.04-.08-.03-.14.02a.13.13 0 0 1-.14.04 3.05 3.05 0 0 0-1.08-.16c-.1 0-.13.05-.1.15.05.19.17.34.35.47a.2.2 0 0 0 .2.02l.86-.33c.11-.04.13-.1.05-.2Zm-17.24.8c0-.16-.07-.36-.2-.58-.08-.14-.18-.15-.28-.03-.14.17-.17.44-.1.8.03.08.08.12.16.13.06 0 .14-.02.23-.07.13-.06.19-.14.19-.24Zm-1.8.15a.12.12 0 0 1-.12-.02c-.07-.06-.08-.14 0-.26.09-.16.28-.24.56-.25.1 0 .12.04.08.12-.06.1-.2.22-.42.36h-.01a1.12 1.12 0 0 1-.08.05h-.01Zm.18.13.65-.46c.1-.08.15-.05.14.08l-.01.18c-.01.13-.08.2-.2.21l-.54.08c-.14.02-.15-.01-.04-.09Zm13.41.04a.67.67 0 0 1 0-.25c.02-.04.04-.06.08-.07.03 0 .06 0 .09.04.03.03.06.05.1.06.12.03.13.09.04.17a.43.43 0 0 1-.22.11c-.05 0-.08-.01-.09-.06Zm1.13-.18c.11-.05.2-.06.27-.01.07.05.06.09-.02.12-.35.12-.64.13-.86.03-.09-.05-.1-.1-.02-.17l.06-.04a.15.15 0 0 1 .11-.03c.11 0 .2.04.27.09.06.04.12.04.2 0Zm-1.59.2c.03-.04.06-.04.09 0 .05.06.08.12.08.17 0 .04-.01.07-.05.1a.08.08 0 0 1-.1-.01c-.1-.07-.1-.16-.02-.27Zm-.34.21a.1.1 0 0 0 .1-.1.1.1 0 0 0-.1-.1.1.1 0 0 0-.1.1c0 .06.05.1.1.1Z" fill="#505445"/><path d="M24.77 40.83c-.01-.4.04-.7.16-.86.06-.07.04-.12-.05-.14-.04-.01-.12 0-.25.02-.08.02-.1.06-.08.14.1.23.13.51.1.84 0 .03 0 .05.03.07l.08.04c.01 0 .02 0 .02-.02v-.1ZM22.51 40.16a7.5 7.5 0 0 0 .02 1.74c.01.07-.02.1-.1.1l-.4-.03c-.08 0-.12-.06-.1-.15.1-.66.1-1.28-.05-1.87-.01-.06.01-.1.08-.09l.58.05c.09 0 .1.04.05.11l-.04.05a.19.19 0 0 0-.04.1ZM24.71 41.08l-.04.04c-.03.02-.06.02-.08-.01l-.86-1.09a.27.27 0 0 0-.2-.1l-.48-.04c-.1 0-.12.02-.03.08.19.14.24.33.17.57a.45.45 0 0 0-.02.2c.06.48.04.83-.08 1.05-.04.08-.02.13.07.16l.18.05c.12 0 .14-.05.08-.13l-.05-.06a.27.27 0 0 1-.06-.17v-1.05c0-.22.07-.25.2-.08l1.13 1.42c.02.03.05.04.1.03.03-.01.05-.04.05-.08v-.76c0-.06-.02-.07-.08-.03ZM26.36 41.85c.27.02.52-.06.74-.24.03-.02.05-.02.08 0 .03 0 .04.03.03.06 0 .07-.05.13-.15.2a.29.29 0 0 1-.2.06c-.3-.02-.57 0-.84.04a.27.27 0 0 1-.2-.04c-.47-.3-.63-.7-.5-1.18.12-.46.44-.76.94-.9a1 1 0 0 1 .5.05c.18.05.32.07.4.06.09 0 .13.03.12.12 0 .15-.02.26-.06.33-.05.1-.1.1-.13-.01a.68.68 0 0 0-.05-.13.3.3 0 0 0-.11-.13c-.3-.17-.54-.19-.74-.05-.18.12-.29.32-.34.6-.05.28-.03.54.06.77.1.24.25.38.45.39ZM28.67 40.53v.17c0 .07-.02.1-.08.12l-.17.03c-.1.02-.16-.02-.16-.12v-.55c0-.09.04-.14.13-.15.34-.05.59.04.75.28.05.09.1.08.12-.01a.57.57 0 0 0 0-.29c-.03-.08-.08-.13-.17-.13h-1.4c-.05 0-.06.02-.02.06l.11.13c.04.07.06.15.05.24-.04.45-.04.9 0 1.34 0 .05 0 .08-.04.11l-.06.05c-.12.1-.1.14.05.14h1.43c.1 0 .17-.05.18-.16l.05-.33c0-.03-.01-.05-.05-.06-.03-.01-.05 0-.06.03-.13.33-.42.47-.87.41-.15-.02-.22-.1-.2-.26.02-.12.02-.25-.01-.36-.02-.08.01-.13.09-.16a.27.27 0 0 1 .2 0c.06.03.1.08.13.15l.08.2c.06.09.1.08.1-.02 0-.2-.02-.4-.1-.6a.25.25 0 0 1 .01-.17c.03-.06.03-.1.01-.13-.08-.13-.11-.12-.1.04ZM35.87 40.22c-.12-.04-.29-.02-.5.08-.1.04-.12.02-.07-.07.14-.24.32-.36.56-.35.3 0 .47.14.52.4 0 .07 0 .14-.04.2l-.11.16c-.06.07-.05.14.03.2.31.23.32.55.04.95-.04.06-.1.1-.17.1l-.78.06c-.05 0-.08 0-.11-.03a.21.21 0 0 1-.07-.17c0-.11.05-.14.14-.08.22.13.45.18.67.15.08 0 .13-.05.16-.13a.52.52 0 0 0-.04-.4.3.3 0 0 0-.15-.15.76.76 0 0 1-.24-.16c-.06-.06-.05-.1.02-.15.23-.12.32-.27.28-.45a.2.2 0 0 0-.14-.16ZM30.78 40.24l.07.03c.06.01.1.05.1.12a20.78 20.78 0 0 1-.02 1.35l-.03.07c-.04.06-.02.1.05.12.17.04.34.04.52-.02.04-.01.05-.04.02-.07l-.07-.1a.2.2 0 0 1-.05-.12v-1.6c0-.07-.03-.1-.1-.09a1 1 0 0 0-.5.2c-.07.04-.07.08.01.11ZM34.54 40.32c-.26-.1-.52-.06-.79.13-.09.07-.12.04-.1-.07l.08-.33c.02-.1.08-.14.17-.14h1c.08 0 .11.04.08.13l-.6 1.87c-.02.05-.05.07-.1.05l-.07-.02c-.05-.02-.06-.05-.05-.1l.45-1.38c.02-.07 0-.11-.07-.14Z" fill="#505445"/><path fill-rule="evenodd" d="m32.38 40.89-.16-.14a.32.32 0 0 1-.11-.17c-.09-.36.07-.6.5-.7.26-.07.46-.02.62.16.22.26.2.47-.05.65-.1.07-.12.15-.04.25l.16.2c.1.12.12.25.09.4-.07.29-.21.42-.42.4-.1 0-.11-.04-.05-.1.08-.1.11-.18.1-.25-.03-.19-.14-.34-.34-.46-.08-.05-.14-.04-.2.05-.14.24-.15.43-.01.58.15.17.11.23-.1.18-.2-.04-.3-.18-.33-.41-.01-.17.1-.32.34-.48.08-.05.08-.1 0-.16Zm.53-.17c-.11.05-.25-.06-.4-.32-.04-.08-.05-.15-.03-.22a.27.27 0 0 1 .16-.18.27.27 0 0 1 .24.02c.06.04.1.1.12.19.06.3.03.46-.09.51Z" fill="#505445"/><path d="M20.24 41.72a.8.8 0 0 0 .3.15c.18.06.19.09 0 .07h-.42c-.03.01-.05 0-.07 0l-.02-.07a2.96 2.96 0 0 0-.05-.43c-.05-.18-.02-.18.06 0 .06.12.12.21.2.28Z" fill="#505445"/><path fill-rule="evenodd" d="m39.79 35.48.9-.35c.07-.02.1 0 .09.07l-.04.27c-.02.08-.06.12-.14.1-.13-.02-.22-.01-.28.02-.05.04-.06.08 0 .12a.4.4 0 0 0 .27.08c.08 0 .13.03.16.1.08.33.27.59.54.78h.03l.04-.04c.03-.02.03-.04 0-.07-.24-.19-.39-.4-.44-.65 0-.06.02-.1.08-.11l.5-.1c.05-.01.08.01.1.06.1.3.28.58.54.84.03.03.06.04.1.02l.08-.03c.03 0 .04-.03.02-.05l-.48-.54c-.22-.27-.1-.73.37-1.39a.18.18 0 0 0 .03-.12c0-.04-.02-.07-.03-.07a.36.36 0 0 0-.34.28c-.13.49-.38.8-.73.91-.09.04-.16 0-.22-.08a.29.29 0 0 1 0-.3c.4-.8.96-1.09 1.71-.87.07.02.08.05.04.1l-.7.98c-.09.11-.06.14.06.1l.08-.03c.08-.03.14-.01.19.07.14.25.34.45.59.6.08.05.09.11.03.18l-.3.37a.22.22 0 0 1-.17.1c-.78 0-1.24 0-1.38-.04-.28-.08-.63-.35-1.03-.81-.15-.18-.5-.3-1.04-.39-.03 0-.05 0-.06.03l-.04.08c0 .03 0 .04.03.04.34.05.59.13.75.24.09.05.38.3.89.75.14.12.25.2.34.2.7.08 1.34.1 1.9.08.22-.01.41-.09.58-.22 1.02-.82 1.79-1.4 2.3-1.74.16-.1.32-.18.48-.23a.1.1 0 0 0 .08-.09.1.1 0 0 0-.05-.1.44.44 0 0 0-.5 0 .18.18 0 0 1-.18 0c-.13-.07-.31-.07-.53 0a.28.28 0 0 1-.18.02c-.77-.23-1.55-.4-2.34-.53-.48-.08-.8-.05-.95.07-.49.4-.88.66-1.18.82-.36.2-.62.28-.78.27a1.6 1.6 0 0 0-1.01.23.37.37 0 0 1-.3.04.3.3 0 0 0-.2.03 8.4 8.4 0 0 1-1.63.57.13.13 0 0 1-.04-.05c-.01-.04 0-.07.03-.09.25-.17.64-.33 1.18-.47.44-.1.43-.17-.01-.2a7.52 7.52 0 0 0-1.75.7c-.15.08-.14.13.03.16.62.1 1.19.02 1.69-.24.14-.08.3-.12.45-.14.1-.01.26-.04.48-.1l.5-.22a.85.85 0 0 1 .62-.02c.06.02.11.02.17 0Zm3.28-.97c-.09.07-.53.68-.48.75.04.06.29.01.44-.02l.08-.01c.13-.02.6-.46.57-.5a4.44 4.44 0 0 0-.6-.22Zm.72.95c-.2.07-.75.12-1 .13.15.19.48.58.56.64.1.07.52-.12.78-.32s.28-.38.3-.56c.03-.16-.36 0-.6.1h-.04Z" fill="#505445"/></svg>