<!-- by TradingView --><svg width="56" height="56" viewBox="0 0 56 56" xmlns="http://www.w3.org/2000/svg"><path fill="#F0F3FA" d="M0 0h56v56H0z"/><path fill-rule="evenodd" d="M4 22v9h4v-1H5v-8H4Zm8.5 6c0 1.66-1 3-2.25 3C9.01 31 8 29.66 8 28s1-3 2.25-3c1.24 0 2.25 1.34 2.25 3Zm-1 0c0 1.21-.56 2.2-1.25 2.2S9 29.2 9 28c0-1.21.56-2.2 1.25-2.2s1.25.99 1.25 2.2Zm8.5-6h-1v3.4c-.3-.25-.64-.4-1-.4-1.1 0-2 1.34-2 3s.9 3 2 3c.36 0 .7-.15 1-.4v.4h1v-9Zm-1 5.98c0-1.2-.45-2.17-1-2.17s-1 .97-1 2.17.45 2.18 1 2.18 1-.97 1-2.18Zm-3.44-1.84V25c-.8 0-1.34.51-1.56.84V25h-1v6h1v-4.02c.55-.95 1.27-.88 1.56-.84Zm7.85.04.48-.7a1.55 1.55 0 0 0-1.16-.48c-.77 0-1.73.45-1.73 1.38 0 .94.7 1.6 1.17 1.9.47.3.88.74.88 1.14 0 .4-.4.78-.84.78-.35 0-.66-.27-.77-.4l-.44.85c.2.12.73.35 1.29.35.69 0 1.71-.52 1.71-1.73 0-.83-.52-1.24-1.02-1.63-.23-.18-.46-.35-.62-.57-.5-.66-.25-1.27.37-1.27.37 0 .47.12.6.3l.08.08ZM27 22h1v9h-1v-9Zm6 0h1v3.95c.18-.4.63-.95 1.51-.95C36.8 25 37 26.13 37 26.57V31h-1v-4.17c0-.29-.13-.87-.74-.87-.55 0-1.03.63-1.26 1.04v4h-1v-9Zm-1.59 4.18.48-.7a1.55 1.55 0 0 0-1.16-.48c-.77 0-1.6.45-1.6 1.38 0 .94.56 1.6 1.04 1.9.47.3.88.74.88 1.14 0 .4-.4.78-.84.78-.35 0-.66-.27-.77-.4l-.44.85c.2.12.73.35 1.29.35.69 0 1.71-.52 1.71-1.73 0-.83-.52-1.24-1.02-1.63-.23-.18-.46-.35-.62-.57-.5-.66-.25-1.27.37-1.27.37 0 .47.12.6.3l.08.08ZM50 25h-1v6h1v-3.91c.74-.83 1.61-.99 2-.95V25c-.92 0-1.6.32-2 .62V25Zm-10.22 6h-1.02l-1.63-6h1.12l1.03 3.89L40.34 25h.96l1.04 3.89.94-3.89h1.18l-1.65 6h-.96l-1.03-4.18L39.78 31Zm5.18-4.7c-.19-.22-.6-.66-.65-.7.28-.2 1.03-.6 1.76-.6 1.4 0 1.87 1.04 1.93 1.56V31h-1v-.52c-.34.3-.8.52-1.4.52-1.24 0-1.58-1.06-1.6-1.6 0-1.43 1.9-2.12 3-2.31v-.3c0-.56-.35-.9-1.07-.9-.58 0-.89.27-.97.4ZM47 27.97v1.36c-.2.41-.56.85-1.14.85-.67 0-.82-.63-.82-.94.08-.2.34-.65.82-.85.4-.17.86-.33 1.14-.42Z" fill="#9D0B0B"/></svg>