<!-- by TradingView --><svg width="56" height="56" viewBox="0 0 56 56" xmlns="http://www.w3.org/2000/svg"><path fill="#F0F3FA" d="M0 0h56v56H0z"/><path d="M15.61 23.45c.64-.52 1.66-1.43 3.05-2.74a34.45 34.45 0 0 1 3.1-2.67c3-2.1 6.39-3.11 10.2-3.04.04 0 .06.02.07.06 0 .04-.02.06-.08.07-2.32.12-4.54.73-6.66 1.84a34.02 34.02 0 0 0-3.3 1.98c-.69.46-1.8 1.27-3.33 2.4l-1.93 1.43c-.36.27-.73.5-1.1.7-.13.09-.14.07-.02-.03Z" fill="#D2AB67"/><path d="M15.68 24.86c-.66.23-1.25.35-1.75.37-.58.02-.6-.07-.05-.26 1.01-.36 2.07-.92 3.16-1.68.65-.46 1.6-1.22 2.85-2.27a33.23 33.23 0 0 1 3.9-2.95 18.4 18.4 0 0 1 7.69-2.44c1.4-.14 2.49-.2 3.27-.19.02 0 .03.01.03.04v.01l-.01.02c-2.15.28-4.01.64-5.58 1.07a15.51 15.51 0 0 0-5.72 2.81c-2.44 1.98-3.97 3.2-4.58 3.67a11.4 11.4 0 0 1-3.2 1.8Z" fill="#D2AB67"/><path d="M15.15 25.21c1.23-.47 2.27-.95 3.12-1.45.68-.39 1.61-1.04 2.82-1.94 1.67-1.27 3-2.25 3.99-2.93a13.6 13.6 0 0 1 6.84-2.46c.06.03.08.07.07.12a7.54 7.54 0 0 0-1.5.76 4.2 4.2 0 0 1-1.33.59c-1.17.28-2.29.8-3.37 1.57-.88.62-2.31 1.73-4.3 3.33a13.1 13.1 0 0 1-4.54 2.35c-.37.11-.66.16-.87.13a3 3 0 0 0-.96.1c-.05.01-.07-.01-.06-.06a.14.14 0 0 1 .1-.1Z" fill="#D2AB67"/><path d="M10.59 32.39c.3 0 .85-.05 1.63-.16.12-.02.32 0 .57.05.18.04.37.05.56.03 1.15-.11 2.3-.1 3.45.03a.2.2 0 0 1 .18.13c.03.07.02.15-.03.21-.15.22-.33.4-.53.55-.14.1-.37.17-.71.22-2.37.3-4.42.43-6.16.36-.3-.02-.7-.25-1.18-.7a.29.29 0 0 1-.1-.28 2.3 2.3 0 0 0-.23-1.21.42.42 0 0 1-.02-.3c.3-1 .5-1.86.6-2.57.13-.88.3-1.74.5-2.57.32-1.3.99-3.74 2.02-7.35.19-.65.52-.75 1-.28l.43.45c.43.48.59 1.05.45 1.69-.14.71-.36 1.63-.63 2.74-.18.72-.64 2.3-1.39 4.77-.36 1.2-.64 2.42-.84 3.67-.03.13 0 .25.1.36.08.1.2.16.33.16Z" fill="#03743C"/><path d="M25.24 20.05a10.46 10.46 0 0 1 3.37-1.75c.48-.14.51-.06.1.23-.3.23-.82.58-1.54 1.07a40.64 40.64 0 0 0-3.98 2.98 20.48 20.48 0 0 1-3.4 2.52 5.6 5.6 0 0 1-4.04.6c-.17-.05-.16-.08 0-.1a10.8 10.8 0 0 0 5.76-2.47c2.2-1.84 3.45-2.87 3.73-3.08ZM39.4 22.3c-.54.15-.96.13-1.24-.05A.3.3 0 0 1 38 22c-.04-.48.22-.79.77-.94a.17.17 0 0 0 .12-.13.17.17 0 0 0-.05-.17c-.25-.25-.4-.5-.45-.76-.02-.1 0-.2.08-.27.44-.4.92-.4 1.43.02.09.07.16.06.2-.04.17-.34.4-.54.66-.6.23-.06.44 0 .63.16a.7.7 0 0 1 .26.6c0 .28-.16.52-.44.73-.05.04-.07.07-.06.11l.04.07.01.01c.46-.03.8.02 1.02.15.15.1.24.23.28.4a.6.6 0 0 1-.1.48c-.33.52-.8.66-1.38.4-.18-.09-.26-.03-.24.17.08.7-.1 1.1-.54 1.18a.42.42 0 0 1-.42-.15c-.29-.33-.38-.65-.28-.97.04-.13-.01-.18-.14-.15Zm.06-1.17c-.5.02-.75.23-.77.62 0 .11.04.2.14.24.15.08.42.03.82-.16.25-.12.33-.05.24.21-.14.38 0 .68.4.93.1.05.16.03.2-.07.1-.3.12-.61.04-.93-.05-.2.02-.26.2-.18.7.3 1.11.2 1.21-.28.03-.12-.01-.21-.12-.27a1.56 1.56 0 0 0-.84-.15.15.15 0 0 1-.16-.09.15.15 0 0 1 .02-.18c.2-.25.3-.53.31-.84 0-.1-.04-.19-.12-.24-.28-.18-.55.04-.82.66-.05.1-.12.13-.21.05a5.5 5.5 0 0 1-.3-.26c-.28-.27-.5-.33-.68-.16a.24.24 0 0 0-.06.26c.08.23.26.46.55.68.13.1.11.15-.05.16Z" fill="#D2AB67"/><path d="m29.5 28.7.4-.54a8.34 8.34 0 0 1 2.2-2.36 4 4 0 0 1 1.94-.33c.85-.02.97.27.36.87l-.69.66a12.3 12.3 0 0 0-1.7 1.85 9.4 9.4 0 0 0-1.4 2.56c-.32 1.36-.1 2.14.64 2.35.43.12.74.2.95.24.3.05.56.27.78.65.05.1.02.15-.07.18-.5.13-.9.16-1.23.08a1.15 1.15 0 0 0-.45 0l-.2.03a.45.45 0 0 1-.27-.07 4.26 4.26 0 0 1-2.05-3.11c-.02-.11-.04-.11-.07 0-.11.38-.17.78-.18 1.2 0 .18-.06.32-.2.43a.53.53 0 0 1-.43.14c-.63-.1-1.03-.42-1.2-.97-.08-.26-.06-.59.04-.99l.25-.97c.52-1.98 1.2-4.54 2.07-7.68.1-.4.21-.9.31-1.52a.36.36 0 0 1 .11-.2c.6-.54 1.2-.99 1.83-1.33.1-.05.18-.05.28 0 .5.32.68.71.5 1.2a192.15 192.15 0 0 0-2.6 7.58c-.06.19-.03.2.09.05Z" fill="#03743C"/><path d="M19.48 25.59c.7-.36 1.34-.75 1.94-1.18.32-.23 1.65-1.32 4-3.27.28-.24.6-.42.93-.54.12-.05.13-.02.04.06a48.21 48.21 0 0 1-4.27 4.01c-.82.58-1.7.92-2.62 1-.17.02-.17 0-.02-.09Z" fill="#D2AB67"/><path d="M42.74 32.86c.12.1.21.07.27-.08a7.47 7.47 0 0 0 .32-4.47l-.39-2.21c-.27-1.6 0-2.95.8-4.05.27-.38.75-.54 1.44-.48 1 .08 1.86.44 2.6 1.07.12.12.2.26.22.44a.65.65 0 0 1-.14.48c-.45.6-.96 1.1-1.54 1.5-.07.05-.1.04-.1-.04l.13-1.25c.09-.88-.17-1-.77-.36a3.04 3.04 0 0 0-.8 1.74c-.05.38-.02 1 .09 1.86.34 2.75.5 4.38.49 4.9a6.23 6.23 0 0 1-.31 1.8c-.26.74-.63 1.14-1.12 1.21-.5.08-.89.07-1.18 0a1.99 1.99 0 0 1-.95-.6c-1.24-1.32-1.68-2.46-1.31-3.42.27-.71.58-1.28.94-1.72.57-.67.84-.57.8.32l-.07 2.24c.05.5.25.87.58 1.12Z" fill="#03743C"/><path d="M24.63 22.8c.02-.02.04-.01.05 0l.02.02c.07.1.02.27-.15.53a3.9 3.9 0 0 1-.73.78l-.07.06c-.32.27-.62.46-.9.59-.27.12-.45.14-.53.05l-.01-.02c-.02-.02-.01-.04 0-.05l2.32-1.96Z" fill="#D2AB67"/><path d="M19.3 31.78c0 .04 0 .07.04.09.03.02.07.02.1 0a16.71 16.71 0 0 0 3.8-3.46c.26-.32.46-.68.6-1.06l.45-1.12c.3-.61.55-1.15.73-1.62.1-.27.3-.36.57-.24l1.24.52c.11.05.19.13.23.25a.4.4 0 0 1-.03.34l-1.35 2.53a8.59 8.59 0 0 0-.9 2.43c-.1.53-.28 1.38-.56 2.57a10.35 10.35 0 0 1-2.67 5.11 5.98 5.98 0 0 1-2.94 1.78 4.5 4.5 0 0 1-3.73-.84c-1.1-.8-1.8-1.9-2.11-3.3-.04-.14.02-.2.17-.18l.2.03c.13.01.21.08.26.2.75 1.85 2.15 2.69 4.2 2.52a4.24 4.24 0 0 0 3.66-2.52c.53-1.08.96-2.21 1.26-3.4.08-.3 0-.36-.25-.16l-.1.09a7.59 7.59 0 0 1-1.99 1.27c-.78.27-1.46.06-2.02-.62-.33-.4-.5-.85-.53-1.34-.02-.4.06-.92.26-1.57.28-.96.66-1.96 1.13-3.02.04-.08.1-.12.19-.1l1.3.19c.23.03.4.16.5.37.12.22.11.43 0 .64-.1.18-.27.44-.54.8a5.5 5.5 0 0 0-.56.84 7.5 7.5 0 0 0-.6 1.98ZM37.4 32.55c.02.14.09.24.2.3.13.06.25.06.37-.01l1.36-.8c.12-.07.17-.04.15.1l-.04.28a.57.57 0 0 1-.18.34c-.23.21-.38.5-.45.85a.42.42 0 0 1-.15.26c-.36.3-.76.47-1.18.5-.1.01-.2-.02-.27-.09a5.84 5.84 0 0 1-1.8-2.94c-.08-.33.02-1.05.3-2.18a17.1 17.1 0 0 1 1.38-3.72c.09-.17.27-.3.55-.4.25-.08.46-.09.63-.01.14.06.42.12.84.19.12.02.16.08.13.2a39.56 39.56 0 0 1-1.3 4.25 5.6 5.6 0 0 0-.53 2.88Z" fill="#03743C"/><path d="M47.78 36H25.22c-.12 0-.22.1-.22.23v.04c0 .13.1.23.22.23h22.56c.12 0 .22-.1.22-.23v-.04c0-.13-.1-.23-.22-.23Z" fill="#D2AB67"/></svg>