<!-- by TradingView --><svg width="56" height="56" viewBox="0 0 56 56" xmlns="http://www.w3.org/2000/svg"><path fill="#F0F3FA" d="M0 0h56v56H0z"/><path d="m41.45 19.34-5.29 8.74.4 13.44-.57.34-.38-14 5.49-9.05.35.53Zm-.94-1.32-5.6 9.74.17 14.6-.5.23-.28-14.94 5.85-10.06.36.43Zm-24.5-.61 5.96 10.24-.29 15.06a15.9 15.9 0 0 1-.5-.23l.18-14.72-5.71-9.93.36-.42Zm-.97 1.2 5.62 9.25-.4 14.15-.56-.33.4-13.6-5.42-8.95a16 16 0 0 1 .36-.52Z" fill="#EF1C22"/><path d="M37.33 41a15.98 15.98 0 0 0 4.51-21.03l-4.94 8.3.43 12.73ZM33 43.2V27.22l6.15-10.7A15.95 15.95 0 0 0 28 12c-4.41 0-8.4 1.78-11.3 4.67L23 27.22V43.2a15.98 15.98 0 0 0 10 0Zm-14.19-2.1a15.98 15.98 0 0 1-4.58-21.25l5.01 8.42-.43 12.83Z" fill="#2E3192"/></svg>