<!-- by TradingView --><svg width="56" height="56" viewBox="0 0 56 56" xmlns="http://www.w3.org/2000/svg"><path fill="#B9BFC6" d="M0 0h56v56H0z"/><path fill-rule="evenodd" d="M9.41 23v6H8.1l.05-4.12h-.03l-1 4.12h-.95l-.96-4.12h-.03L5.22 29H4v-6h1.7l.95 3.86h.04L7.62 23h1.8Zm5.1 6-1.44-6h-1.69l-1.44 6h1.34l.25-1.1h1.33l.24 1.1h1.4Zm-1.82-2.14h-1.01l.5-2.55h.04l.47 2.55ZM16.67 23c1.7 0 2.47 1.17 2.47 3.02 0 1.81-.78 2.98-2.47 2.98H15v-6h1.67Zm.02 4.81c.64 0 1.1-.63 1.1-1.8 0-1.2-.46-1.82-1.1-1.82h-.33v3.62h.33ZM24 29v-6h-1.32v2.28h-1.36V23H20v6h1.32v-2.5h1.36V29H24Zm5-6v3.68c0 1.29-.58 2.32-2.02 2.32-1.45 0-1.98-1.02-1.98-2.32V23h1.34v3.57c0 .66.14 1.16.66 1.16.53 0 .66-.5.66-1.16V23H29Zm4.1.57a2.08 2.08 0 0 0-1.5-.57c-.87 0-1.84.54-1.84 1.8 0 .95.54 1.34 1.18 1.64.52.24.8.43.8.8 0 .37-.26.58-.58.58-.35 0-.7-.17-.96-.43l-.69.97c.35.34.97.64 1.69.64.97 0 1.84-.62 1.84-1.85 0-.99-.71-1.4-1.25-1.66-.48-.23-.73-.38-.73-.73 0-.42.28-.6.58-.6.29 0 .57.14.78.36l.7-.95h-.01ZM38 23v3.68c0 1.29-.58 2.32-2.02 2.32-1.45 0-1.98-1.02-1.98-2.32V23h1.34v3.57c0 .66.14 1.16.66 1.16.53 0 .66-.5.66-1.16V23H38Zm5.14 3.02c0-1.85-.77-3.02-2.47-3.02H39v6h1.67c1.7 0 2.47-1.17 2.47-2.98Zm-1.35 0c0 1.16-.46 1.8-1.1 1.8h-.33v-3.63h.33c.64 0 1.1.62 1.1 1.83ZM47.48 29l-1.43-6h-1.69l-1.44 6h1.34l.24-1h1.34l.24 1h1.4Zm-1.81-2h-1.02l.5-2.7h.04l.48 2.7ZM52 29v-6h-1.16l.03 3.7h-.03L49.48 23H48v6h1.2l-.04-3.65h.03L50.57 29H52ZM7 30v3h2.12v-.37h-1.7v-.97h1.55v-.36H7.43v-.93h1.7V30H7Zm5.37 1.8h.45c-.06.37-.23.65-.51.87-.28.22-.61.33-1 .33-.46 0-.83-.14-1.13-.43-.3-.28-.44-.64-.44-1.07 0-.44.15-.8.44-1.08.3-.28.67-.42 1.12-.42.4 0 .72.1 1 .32s.45.5.52.87h-.45c-.06-.26-.19-.46-.38-.6a1.1 1.1 0 0 0-.69-.22c-.33 0-.6.1-.8.3-.22.22-.32.49-.32.83 0 .34.1.61.31.82.21.2.48.3.81.3.28 0 .51-.06.7-.21.19-.14.31-.35.37-.6Zm1.38.86c.23.23.54.34.95.34.4 0 .72-.11.95-.34.22-.22.35-.54.35-.94V30h-.42v1.7c0 .3-.08.53-.23.69-.15.16-.37.23-.65.23s-.5-.07-.65-.23c-.15-.16-.23-.38-.23-.68V30h-.4v1.72c0 .4.1.72.33.94Zm5.74.34-.8-1.16c.22-.07.4-.17.52-.33a.89.89 0 0 0 .18-.56c0-.3-.1-.54-.31-.7-.2-.17-.5-.25-.87-.25H17v3h.43v-1.1h.82l.74 1.1h.5Zm-.53-2.05a.51.51 0 0 0-.2-.43.86.86 0 0 0-.54-.15h-.8v1.16h.8c.23 0 .41-.05.54-.15.13-.1.2-.25.2-.43ZM20 30v3h.43v-3H20Zm2 .38h-1.18V30h2.75v.38H22.4V33H22v-2.62Zm2-.38v3h.43v-3H24Zm1.57 3v-3h2.12v.37H26v.93h1.56v.36H26v.97h1.7V33h-2.13Zm6.43-.1V30h.43v2.54H34v.36h-2Zm1.86-2.52H35V33h.45v-2.62h1.16V30h-2.75v.38ZM37 33v-3h1.28c.5 0 .91.14 1.24.42.32.28.48.64.48 1.08 0 .44-.16.8-.48 1.08a1.8 1.8 0 0 1-1.24.42H37Zm2.52-1.5c0-.33-.11-.6-.34-.81-.23-.2-.53-.31-.9-.31h-.82v2.24h.82c.37 0 .67-.1.9-.3.23-.22.34-.49.34-.82Zm.98 1.5v-.5h.5v.5h-.5Zm-10.43-.49a.97.97 0 0 1-.53.13c-.24 0-.44-.06-.6-.17a.56.56 0 0 1-.25-.43h-.45c.01.29.13.52.37.7.23.17.56.26.92.26s.65-.08.86-.23a.73.73 0 0 0 .32-.62c0-.23-.09-.41-.25-.55-.16-.14-.4-.23-.72-.27l-.28-.04a1.4 1.4 0 0 1-.56-.16.35.35 0 0 1-.18-.32c0-.14.06-.25.18-.33a.91.91 0 0 1 .5-.12c.24 0 .42.05.55.14.13.1.2.24.23.43h.44a.9.9 0 0 0-.35-.68 1.4 1.4 0 0 0-.87-.25c-.34 0-.61.08-.81.23-.2.15-.3.35-.3.6 0 .23.08.42.26.56.18.15.43.25.76.29l.28.04c.24.03.4.08.51.15.1.07.16.17.16.3 0 .15-.06.26-.19.34Zm-24.77.13c.23 0 .4-.04.53-.13.13-.08.2-.2.2-.34a.34.34 0 0 0-.17-.3c-.1-.07-.27-.12-.5-.15l-.29-.04a1.49 1.49 0 0 1-.76-.29.7.7 0 0 1-.26-.56c0-.25.1-.45.3-.6.2-.15.47-.23.81-.23.37 0 .65.08.87.25a.9.9 0 0 1 .36.68h-.45a.58.58 0 0 0-.23-.43.91.91 0 0 0-.54-.14.91.91 0 0 0-.5.12.38.38 0 0 0-.19.33c0 .14.06.24.18.32.12.07.3.13.56.16l.28.04c.32.04.56.13.72.27.17.14.25.32.25.55 0 .26-.1.47-.32.62-.21.15-.5.23-.86.23s-.68-.09-.92-.27a.88.88 0 0 1-.37-.7h.45c.01.2.1.34.25.44.16.11.36.17.6.17Z" fill="#fff"/></svg>