<!-- by TradingView --><svg width="56" height="56" viewBox="0 0 56 56" xmlns="http://www.w3.org/2000/svg"><path fill="#F0F3FA" d="M0 0h56v56H0z"/><path fill-rule="evenodd" d="M45 28a17 17 0 1 1-34 0 17 17 0 0 1 34 0Zm-1 0a16 16 0 1 1-32 0 16 16 0 0 1 32 0Zm-1 0a15 15 0 1 1-30 0 15 15 0 0 1 30 0Zm-26-6v-2h19.62A2.4 2.4 0 0 1 39 22.4V35h-8V24.45A2.4 2.4 0 0 0 28.64 22H17Zm0 1v1h5.64A2.4 2.4 0 0 1 25 26.45V35h5V24.87c0-1.08-.7-1.87-1.74-1.87H17Zm7 12v-8.13c0-1.08-.7-1.87-1.74-1.87H17v10h7Z" fill="#1F1A17"/></svg>