<!-- by TradingView --><svg width="56" height="56" viewBox="0 0 56 56" xmlns="http://www.w3.org/2000/svg"><path fill="#F0F3FA" d="M0 0h56v56H0z"/><path fill-rule="evenodd" d="M15.82 27.2c.06-.13.09-.12.08.03-.05.71-.18 1.45-.38 2.21l-.07.28a39.38 39.38 0 0 0-.96 4.62c-.15 1.07-.2 2.16-.16 3.26.03.6.2 1.32.83 1.4.88.1 1.98-1.23 2.48-1.88.8-1.06 1.53-2.18 2.18-3.36a.08.08 0 0 1 .08-.04c.4 0 .75-.16 1.07-.45.32-.3.65-.65.98-1.02.06-.07.08-.06.05.03a39.9 39.9 0 0 0-1.26 5.62c-.04.32-.04 1.1.37 1.1.64 0 1-.99 1.21-1.45.44-.99.81-2.32 1.13-3.24a28.57 28.57 0 0 0 1.18-4.62 8 8 0 0 0 .74 1.12c-.1.4-.14 1.17.44 1.19.18 0 .39-.08.55-.2a7.76 7.76 0 0 0 1.78-2.61c.08-.17.11-.17.1.03-.03.21-.03.44 0 .68.09.63.6.48.88.17A26.7 26.7 0 0 0 31 27.83c.04-.05.05-.04.04.02-.1.8-.04 2.1 1.04 2.16.29.01.5-.01.62-.07a6.85 6.85 0 0 0 1.73-1.29c.03-.03.06-.03.07.02.56 1.6 2.9-.99 3.34-1.5.1-.1.24-.21.4-.3a6.1 6.1 0 0 0 1.84-1.72c.04-.06.06-.05.05.02-.07.56-.1 1.9.9 1.34.43-.24.84-.55 1.23-.94.07-.06.09-.05.07.05-.27 1.23-.46 3.35 1.15 3.38.12 0 .25 0 .4-.03.9-.14 1.66-.64 2.43-1.17l1.62-1.14c.05-.04.08-.1.07-.17-.02-.1-.07-.16-.17-.18a.6.6 0 0 0-.6.18 6.72 6.72 0 0 1-2.65 1.84c-1.35.44-1.9-.56-1.63-1.84.16-.8.4-1.6.74-2.4.14-.35.32-.69.54-1.02.53-.79 1.03-1.58 1.5-2.37a14.94 14.94 0 0 0 1.81-4.2.44.44 0 0 0-.09-.4c-.2-.23-.63-.02-.75.18-.83 1.4-1.54 2.7-2.27 4.1a29.13 29.13 0 0 0-1.77 4.02c-.07.22-.17.4-.29.53-.38.45-.79.83-1.21 1.13a.53.53 0 0 1-.25.1c-.32.04-.1-.72-.08-.8.18-.68.45-1.33.8-1.98l.3-.53c.1-.2-.01-.33-.2-.36-.04 0-.05-.03-.05-.07a.5.5 0 0 0-.1-.43.14.14 0 0 0-.08-.05c-.65-.15-1.68.89-2.08 1.37-.56.69-1.1 1.46-1.59 2.31-.21.37-.28.77-.21 1.2a.1.1 0 0 1-.03.1c-.34.34-.7.7-1.09 1.06-.3.3-.63.53-.96.7-.14.07-.3-.01-.34-.16-.06-.18-.08-.42.02-.6.57-.88 1.12-1.78 1.68-2.67a51.55 51.55 0 0 0 2.98-5.56c.13-.3.22-.55.26-.74.07-.28-.02-.46-.26-.52-.28-.08-.53.02-.74.3-1.91 2.5-3.4 5.28-4.46 8.3-.1.3-.2.62-.27.92a.94.94 0 0 1-.22.44c-.41.45-1 1-1.6 1.1-.64.1-.9-.55-.87-1.13.04-.83.29-1.66.6-2.43.3-.77.65-1.54 1.03-2.32a.1.1 0 0 1 .06-.05l1.94-.67c.1-.03.13-.1.1-.2v-.03c-.05-.16-.15-.23-.31-.2-.46.1-.91.21-1.35.37-.04.01-.05 0-.03-.05l.86-1.83a.18.18 0 0 0 .01-.1c-.1-.6-.63-.3-.8.03-.33.66-.67 1.43-1.02 2.31a.24.24 0 0 1-.13.14l-1.32.5c-.1.05-.15.13-.13.26l.03.08c.09.15.21.2.37.16l.57-.16c.02 0 .04.02.04.04a9.8 9.8 0 0 1-1.14 2.53 27.5 27.5 0 0 1-2.01 2.6.1.1 0 0 1-.08.03c-.13-.01-.18-.09-.16-.23.1-.54.28-1.22.55-2.04.1-.29-.1-.55-.4-.36-.04.03-.06.02-.06-.03a.39.39 0 0 0-.17-.35c-.3-.22-.7-.03-.96.2l-.85.88c-.65.7-1.46 1.26-2.25 1.73-.03.03-.05.02-.06-.03-.04-.3-.2-.6-.46-.87-.02-.03-.03-.06-.01-.1a26.2 26.2 0 0 0 1.4-4.03c.06-.23-.03-.34-.27-.35h-.08a.39.39 0 0 0-.23.07.42.42 0 0 0-.15.2c-.69 1.84-1.37 3.72-2.06 5.63-.2.52-.38.94-.58 1.27-.3.5-.66 1-1.06 1.49-.19.23-.6.73-.92.7a.05.05 0 0 1-.04-.03.05.05 0 0 1 0-.06 15.68 15.68 0 0 0 1.73-4.43c.05-.21.08-.44.08-.67 0-.15-.02-.3-.05-.44-.1-.37-.32-.51-.57-.52-.35-.01-.75.22-1 .44a9.5 9.5 0 0 0-1.12 1.23c-.78 1-1.57 2.43-2.1 3.7a9.3 9.3 0 0 0-.4 1.2c-.08.27-.05.78.3.84.32.06.67-.28.86-.52.45-.55.85-1.12 1.2-1.7.04-.06.06-.05.06.02-.02.43.06.8.23 1.1v.1a19.76 19.76 0 0 1-3.1 4.6c-.15.15-.22.26-.41.33-.82.31-.91-1.18-.9-1.99l.02-.42c.07-.95.14-1.95.37-3l.9-3.97a58 58 0 0 0 .65-3.7c0-.03 0-.06-.02-.1a.31.31 0 0 0-.27-.16.29.29 0 0 0-.22.11c-.2.25-.35.46-.44.66a122.86 122.86 0 0 1-3.32 6.84c-.02.04-.03.04-.03 0 .15-1.35.48-2.45.62-3.72a25.37 25.37 0 0 1 .24-1.74c0-.1-.06-.15-.17-.15l-.08.01-.22.05c-.2.04-.3.16-.35.36-.12.48-.29.96-.52 1.45-1.17 2.5-2.67 4.85-4.14 7.86-.04.08-.02.14.07.17.07.03.2.1.3.1.06 0 .1-.02.12-.07l4-7.87c.04-.06.05-.06.05 0-.03.7-.27 1.2-.37 1.93a86.56 86.56 0 0 1-.6 3.84c-.06.26.2.37.4.28a.14.14 0 0 0 .07-.06c1.11-2.09 2.09-4.2 3.06-6.32l.7-1.52Zm30.56-9.51a26.46 26.46 0 0 0-1.96 4.02c-.04.13-.02.15.08.05.17-.17.33-.38.49-.62a18.1 18.1 0 0 0 1.76-3.5.6.6 0 0 0 .04-.24c0-.02 0-.03-.02-.04a.08.08 0 0 0-.03-.03.07.07 0 0 0-.07.01c-.12.1-.22.22-.3.35Zm-7.36 2.19A25.05 25.05 0 0 0 35.74 26c-.06.16-.02.19.1.07.06-.05.12-.12.17-.2.97-1.5 1.84-3.2 2.6-4.77.2-.4.37-.8.5-1.17.09-.23.06-.25-.1-.06Zm.48 4.18c-.65.87-1.1 1.65-.99 1.73.1.1.72-.54 1.38-1.41.65-.87 1.1-1.65.99-1.74-.11-.1-.73.54-1.38 1.42ZM26.96 28.4c-.43.81-.79 1.69-1.03 2.58a.7.7 0 0 0-.01.3c.01.11.12.18.22.13a.87.87 0 0 0 .33-.27c.8-1.1 1.42-2.38 2.03-3.65.06-.13.14-.28 0-.4-.12-.1-.33-.05-.45.04-.43.3-.8.73-1.09 1.27Zm-7.66 2.6c-.44.83-.99 1.67-1.62 2.5-.2.25-.27.21-.23-.1.07-.5.24-1.03.44-1.47.45-.96 1.13-2.2 1.75-3.14.3-.44.77-1.12 1.26-1.32.45-.18.53.5.48.8-.18 1.1-.67 2.5-1.07 3.54-.1.23-.2.46-.32.67-.06.1-.08.08-.09-.02 0-.76.1-1.51.33-2.26.19-.6-.72-.6-.73-.01 0 .3-.07.58-.2.8Zm4.61-2.28-.36.88c.17.2.56-.06.63-.23v-.01a.5.5 0 0 0 0-.37c-.03-.09-.16-.29-.27-.27Zm-2.1 8.6c-.1.25-.4.57-.32.06a40.02 40.02 0 0 1 1.9-7.34h.04a1 1 0 0 0 .63-.06c.04-.01.06 0 .05.05a36.29 36.29 0 0 1-2.3 7.3Z" fill="#F72C38"/></svg>