<!-- by TradingView --><svg width="56" height="56" viewBox="0 0 56 56" xmlns="http://www.w3.org/2000/svg"><path fill="#001E57" d="M0 0h56v56H0z"/><path d="M4 27v-4h2.5l1.36 4h-1.6L6 26.18V27H4Zm0 1v5h2v-5H4Zm2.58 0 1.6 5h1.53l1.68-5H9.64l-.74 2.04L8.2 28H6.59Zm3.43-1h1.71l.28-.82V27h2v-4h-2.54l-1.45 4ZM14 28h-2v5h2v-5Zm2.61 0h1.7L18 29h1.93l-.32-1h1.76L23 33h-1.78l-.65-2H17.4l-.6 2H15l1.61-5Zm4.43-1-1.3-4h-1.51l-1.3 4h1.68l.33-1.08.34 1.08h1.76Zm2.46 1a5 5 0 0 0 10 0H28v1h3.46a3.13 3.13 0 0 1-6.09-1H23.5Zm2.04-1H23.6a5 5 0 0 1 9.47-1.04h-2.2A3.12 3.12 0 0 0 25.54 27ZM35 28v5h2v-5h-2Zm2-1h-2v-4h1.93l2.56 4h-2.17l-.32-.52V27Zm.95 1 3.12 5H43v-5h-2v1.36L40.13 28h-2.18ZM41 27h2v-4h-2v4Zm4.61 1L44 33h1.78l.61-2h3.18l.65 2H52l-1.63-5H48.6l.32 1H47l.3-1h-1.69Zm2-1h-1.67l1.29-4h1.5l1.3 4h-1.75l-.34-1.08L47.6 27Z" fill="#F58220"/></svg>