<!-- by TradingView --><svg width="56" height="56" viewBox="0 0 56 56" xmlns="http://www.w3.org/2000/svg"><path fill="#F0F3FA" d="M0 0h56v56H0z"/><path d="M43 30.3c0-5.04-2.06-8.33-3.08-9.35l-16.5 4.32c-1.1 6.23-1.5 18.7 5.74 18.7C38.21 43.97 43 36.61 43 30.3Z" fill="url(#a)"/><path d="M42.8 27.64c.13.82.2 1.71.2 2.66 0 6.3-4.8 13.67-13.84 13.67-.6 0-1.15-.08-1.65-.25l-.13-1.68c1.77-.13 6.11-1.05 9.33-3.74 3.22-2.7 3.92-7.7 3.87-9.85l2.22-.81Z" fill="url(#b)"/><path d="M33.55 43.33c-3.44-1.56-8.64-5.9-6.43-13.19.32.43 1.99 1.3 6.11 1.3a9.45 9.45 0 0 0 8.92-6.5 10.73 10.73 0 0 0-2.23-3.99l-16.5 4.32c-1.1 6.23-1.5 18.7 5.74 18.7 1.6 0 3.06-.23 4.39-.64Z" fill="url(#c)"/><path d="M24.68 32.69c0 8.3 7.24 10.23 11.75 9.57-1.76 1.3-4.08 1.74-7.2 1.74C22.03 44 13 38.55 13 29.1 13 15.95 22.37 12 28.8 12c7.37 0 11.9 4.26 11.9 8.32 0 4.06-2.33 9.15-7.69 9.15-4.28 0-6.23-1.91-6.67-2.87-.55.61-1.66 2.69-1.66 6.09Z" fill="url(#d)"/><path d="M33 43.7c-5.04-.4-12.63-3.67-12.63-14.75 0-11.5 11.73-14.6 18.74-12.78C37.18 13.8 33.58 12 28.79 12 22.37 12 13 15.96 13 29.1 13 38.54 22.02 44 29.23 44c1.41 0 2.66-.09 3.77-.3Z" fill="url(#e)"/><path d="M27.16 43.86c-4.67-1.56-10.73-5.83-10.73-14.99 0-9.77 8.16-14.93 14.81-16.7-.77-.11-1.6-.17-2.45-.17C22.37 12 13 15.96 13 29.1c0 8.57 7.41 13.84 14.16 14.76Z" fill="url(#f)"/><defs><linearGradient id="a" x1="35.63" y1="29.35" x2="37.2" y2="37.45" gradientUnits="userSpaceOnUse"><stop stop-color="#CC435C"/><stop offset="1" stop-color="#EFAA5C"/></linearGradient><linearGradient id="b" x1="30.97" y1="42.1" x2="43.25" y2="24.26" gradientUnits="userSpaceOnUse"><stop offset=".25" stop-color="#F9DC3D"/><stop offset=".85" stop-color="#D1545F" stop-opacity="0"/></linearGradient><linearGradient id="c" x1="39.38" y1="24.55" x2="32.29" y2="43.9" gradientUnits="userSpaceOnUse"><stop stop-color="#C52B57"/><stop offset=".17" stop-color="#D1545F"/><stop offset=".37" stop-color="#9C2128"/><stop offset="1" stop-color="#DD9349"/></linearGradient><linearGradient id="d" x1="44.14" y1="31.95" x2="26.69" y2="43.75" gradientUnits="userSpaceOnUse"><stop stop-color="#AECA12"/><stop offset="1" stop-color="#458F67"/></linearGradient><linearGradient id="e" x1="33.33" y1="14.45" x2="25.84" y2="43.95" gradientUnits="userSpaceOnUse"><stop stop-color="#E3DF25"/><stop offset=".3" stop-color="#ACBD4B"/><stop offset=".68" stop-color="#529168"/><stop offset="1" stop-color="#31876B"/></linearGradient><linearGradient id="f" x1="28.01" y1="12" x2="21.95" y2="43.82" gradientUnits="userSpaceOnUse"><stop stop-color="#D9D82F"/><stop offset=".34" stop-color="#78A349"/><stop offset=".64" stop-color="#207360"/><stop offset="1" stop-color="#0C5D52"/></linearGradient></defs></svg>