<!-- by TradingView --><svg width="56" height="56" viewBox="0 0 56 56" xmlns="http://www.w3.org/2000/svg"><path fill="#F0F3FA" d="M0 0h56v56H0z"/><path d="M15 22.8a10.33 10.33 0 0 0-.95.7l-.03-.05c-.02-.03-.02-.05 0-.06 4.75-3.82 10.74-7.1 16.85-8.24l.02-.01a.08.08 0 0 0 .02-.05c0-.04-.02-.06-.05-.06a7.21 7.21 0 0 0-1.84.07l-1.5.23c-3.57.5-6.88 1.54-10.14 3.06-1.9.9-3.74 2.09-5.53 3.6a15.7 15.7 0 0 0-3.3 3.78 9.98 9.98 0 0 0-1.53 4.44c-.1 1.2.16 2.48.78 3.81a8.91 8.91 0 0 0 2.61 3.19c1.07.85 2.27 1.54 3.58 2.04l1.74.65c.6.22 1.2.34 1.8.36 1.54.07 2.92 0 4.14-.22l2.73-.5c.88-.16 1.74-.36 2.58-.61l2.55-.76a44.3 44.3 0 0 0 8.6-3.93c.87-.51 1.89-1.19 3.05-2.02.04-.02.06-.02.07.01l-.01.07a40.65 40.65 0 0 1-12.69 7.07l-1.6.54c-.5.18-1.3.38-2.45.61-.63.13-1.06.22-1.3.29-.27.07-.26.12.02.14.87.07 1.75.06 2.67-.02.58-.06 1.56-.2 2.94-.41.55-.1.99-.16 1.3-.2.83-.13 1.54-.29 2.14-.47l2.11-.63c1.04-.3 2.37-.84 4-1.59a25.2 25.2 0 0 0 6.33-4.2 13.55 13.55 0 0 0 3.42-4.56c.5-1.1.77-2.14.85-3.1a7.72 7.72 0 0 0-1.79-5.5 13 13 0 0 0-4.99-3.56 288 288 0 0 0-2.4-.85 9.68 9.68 0 0 0-3.35-.45c-7.6.13-15.29 3.25-21.45 7.4Zm26-2.85a3.86 3.86 0 0 1-1.14 2.84c-.77.8-1.7 1.2-2.81 1.21a3.85 3.85 0 0 1-2.84-1.14A3.85 3.85 0 0 1 33 20.05a3.86 3.86 0 0 1 1.14-2.84c.77-.8 1.7-1.2 2.81-1.21 1.1-.01 2.05.36 2.84 1.14.8.77 1.2 1.7 1.21 2.81Zm-2.71-2.01a5.9 5.9 0 0 0-.05 1.54c0 .04-.01.07-.04.1-.04.01-.07.01-.1-.01a4.41 4.41 0 0 1-.8-.9c-.36-.5-.76-.98-1.2-1.43-.1-.1-.2-.1-.31-.04-.5.3-.92.51-1.29.61-.89.25-.9.52-.03.8l.79-.02c.17 0 .27.08.3.25.07.38.11.7.13 1 .01.28.1.52.26.71.1.13.31.32.63.56.55.42.97.2 1.28-.63.12-.33.27-.59.46-.77a.26.26 0 0 1 .18-.08c.07 0 .2 0 .37.02.45.04.8 0 1.02-.1.17-.07.25-.2.23-.37-.02-.24-.08-.38-.2-.44-.77-.39-1.28-.67-1.5-.85-.08-.06-.12-.04-.13.05Zm-2.23 4.16c-.15.03-.26 0-.36-.13l-.67-.84c-.2-.25-.23-.22-.12.07.2.57.48 1.05.8 1.45.15.17.31.24.5.2l1.3-.28c.55-.13 1.2-.61 1.93-1.44.06-.07.05-.13-.01-.19-.3-.25-.62-.36-.95-.34a.17.17 0 0 0-.16.12c-.15.38-.29.63-.41.76-.16.16-.4.27-.74.34-.28.06-.65.15-1.11.28Z" fill="#017CC2"/><path d="M14.88 28.15c0-.35-.1-.4-.32-.12-.56.71-1.07 1.52-1.53 2.41-.08.15-.26.21-.55.2-.08 0-.12-.04-.13-.12-.08-.71-.24-1.46-.49-2.25-.19-.58-.34-.57-.46.03-.07.34-.18.78-.33 1.34a.32.32 0 0 0 .02.22c.05.1.14.21.28.31.06.05.1.11.1.2.02.3-.07.47-.3.5-.68.12-1.17.16-1.47.11-.7-.1-.77-.37-.2-.82a1.85 1.85 0 0 0 .49-.86l.78-3c.07-.28.1-.57.07-.85a.26.26 0 0 0-.07-.17l-.3-.3c-.25-.28-.21-.49.12-.64a3.1 3.1 0 0 1 2.24-.22c.16.05.27.16.3.34l.5 2.24c.04.13.1.2.22.22.12.03.21-.01.28-.11l1.38-2.04.27-.35c.23-.26.58-.4 1.06-.42.4-.02.77.04 1.12.16.3.1.34.28.15.54l-.03.04c-.43.58-.7 1.12-.8 1.62-.09.49-.3 1.43-.62 2.81-.13.58.03.97.49 1.17.09.04.1.1.02.15-.3.26-.63.41-.99.46a6.4 6.4 0 0 1-2.15-.1.21.21 0 0 1-.17-.14.23.23 0 0 1 .03-.23c.66-.9 1-1.68 1-2.33ZM26.42 27.43a.73.73 0 0 0-.7-.02.25.25 0 0 0-.13.16 7 7 0 0 0-.4 2.89c.01.12-.02.22-.09.31a.4.4 0 0 1-.27.17c-.75.1-1.48.08-2.18-.07-.14-.02-.22-.11-.25-.27a.34.34 0 0 1 .13-.36l.07-.05c.16-.12.26-.22.3-.3.46-.85.78-2.17.96-3.95.02-.23-.04-.55-.19-.96l-.05-.12c-.05-.15 0-.25.12-.32a4.7 4.7 0 0 1 2.45-.53c.1 0 .13.06.1.15l-.48 2.22c-.02.08 0 .14.07.19.15.09.27.06.36-.07.44-.6 1.03-.81 1.75-.65.51.12.71.62.6 1.5l-.24 2.03a3.52 3.52 0 0 0 .09 1.2c.01.08 0 .15-.07.21-.12.12-.3.19-.56.2-.86.02-1.55-.01-2.08-.1a.13.13 0 0 1-.1-.1c-.03-.05-.02-.1.02-.14.33-.41.62-1.12.87-2.12.08-.32.09-.63.03-.92a.25.25 0 0 0-.13-.18ZM42.56 26.8a.06.06 0 0 0 .1.03c.53-.74 1.2-.97 2.04-.69.21.07.34.18.4.33.16.44.15 1.26-.04 2.46l-.01.04a6.25 6.25 0 0 0 .02 1.66c.01.13-.05.21-.17.23a7.6 7.6 0 0 1-2.38.08.2.2 0 0 1-.17-.13.22.22 0 0 1 .02-.22c.37-.63.67-1.45.87-2.45.08-.35-.06-.54-.4-.57a.2.2 0 0 0-.02 0c-.33-.06-.55.09-.65.46a6.05 6.05 0 0 0-.25 2.43c.02.22-.07.35-.27.4a6.4 6.4 0 0 1-2.1.1.33.33 0 0 1-.28-.22.36.36 0 0 1 .02-.36c.4-.59.67-1.28.84-2.07.05-.24.08-.4.07-.49a.56.56 0 0 0-.2-.35c-.12-.13-.2-.21-.2-.25-.02-.17.05-.3.2-.38.75-.45 1.5-.73 2.23-.84.1-.01.15.03.18.13l.15.67ZM46.25 26.21l.29.27c.06.06.13.08.22.06a.2.2 0 0 0 .16-.17c.02-.1.01-.18-.04-.2-.19-.14-.16-.19.07-.16.17.01.22.12.18.32-.1.45-.32.67-.67.67a.45.45 0 0 1-.33-.13.41.41 0 0 1-.13-.32c0-.19.04-.3.1-.35.06-.04.1-.03.15.01Z" fill="#fff"/><path fill-rule="evenodd" d="M20.04 26.82c.09-.08.17-.07.24.03.21.3.24.6.1.88-.15.28-.4.44-.75.5l-.28.04c-.63.1-1.04.22-1.25.38-.34.27-.56.58-.66.96-.13.42-.05.8.24 1.1.2.23.51.32.95.27a5.77 5.77 0 0 0 1.3-.33.27.27 0 0 1 .21.02c.05.02.12.07.2.13.11.1.21.15.3.17.3.07.6.01.9-.17.27-.16.5-.38.68-.66a.18.18 0 0 0 .01-.2 1.65 1.65 0 0 0-.05-.1 1.21 1.21 0 0 1-.16-.67c.04-.44.1-.86.18-1.26.1-.51.13-.84.09-.98-.14-.44-.39-.7-.73-.8-1.24-.34-2.33 0-3.27 1.01-.18.2-.16.42.07.69.04.05.1.07.17.06.36-.08.77-.33 1.21-.78l.3-.29Zm-.41 3.23c.02.01.04 0 .05-.01l.56-1.06c.01-.03 0-.04-.02-.06a.6.6 0 0 0-.48-.05.59.59 0 0 0-.36.3l-.02.03a.61.61 0 0 0-.04.47c.05.17.15.3.3.37v.01ZM31.56 26.84a.2.2 0 0 1 .15.12c.13.32.15.6.04.84-.1.25-.33.4-.66.45l-.28.03c-.58.08-.97.18-1.17.32-.32.21-.55.5-.7.88-.16.41-.14.77.08 1.08.36.52 1.05.58 2.06.19a.68.68 0 0 1 .52.03c.95.4 1.66.17 2.11-.7a.15.15 0 0 0-.01-.18c-.22-.28-.3-.55-.24-.82l.33-1.5c.15-.78-.16-1.28-.93-1.5-.37-.1-.82-.1-1.34 0-.53.11-.95.3-1.28.55-.28.21-.47.47-.57.77-.03.11-.02.2.04.3.07.09.15.14.26.14.22 0 .41-.05.58-.19.17-.12.44-.38.82-.76a.2.2 0 0 1 .19-.05Zm-.48 3.25c.08.03.13 0 .16-.07l.38-.96c.03-.08.01-.13-.06-.16l-.04-.01a.46.46 0 0 0-.39 0 .53.53 0 0 0-.27.3l-.08.19a.54.54 0 0 0 0 .4c.05.14.14.23.27.29l.03.02Z" fill="#fff"/><path d="M36.84 26.8c.09 0 .16.05.2.13.25.5.11.89-.42 1.2-.13.06-.37.12-.74.16-.5.07-.84.16-1.03.29-.2.13-.4.35-.6.67-.23.37-.3.66-.24.88.17.53.5.81 1 .86.4.04.86-.07 1.37-.34a.27.27 0 0 1 .2-.02c.08.02.2.07.36.15.25.13.43.2.55.19.54-.04.97-.23 1.26-.58a.55.55 0 0 0 .1-.58c-.1-.35-.14-.64-.1-.88l.17-1.43c.1-.81-.15-1.28-.74-1.4-1.18-.26-2.2 0-3.05.76a.81.81 0 0 0-.25.64c0 .33.16.44.46.32a3.6 3.6 0 0 0 1.27-.95c.06-.06.14-.1.23-.08Zm-.28 2.04.07.03c.14.07.2.23.13.37l-.24.5a.27.27 0 0 1-.36.14l-.07-.04a.28.28 0 0 1-.12-.37l.23-.5c.07-.14.23-.2.36-.13Z" fill="#fff"/></svg>