<!-- by TradingView --><svg width="56" height="56" viewBox="0 0 56 56" xmlns="http://www.w3.org/2000/svg"><path fill="#1F3A93" d="M0 0h56v56H0z"/><path d="M4 21v6h1.5v-2.5l.94 2.5h1.02l1.04-2.5V27H10v-6H8.66l-1.64 3.94L5.34 21H4ZM44 21v6h1.5v-2.5l.8 2.5h.96l.74-2.5V27h1.5v-6h-1.3l-1.35 3.94L45.26 21H44Z" fill="#fff"/><path fill-rule="evenodd" d="M9.9 27h1.36l.42-1h2.53l.36 1h1.6l-2.57-6h-1.23l-2.46 6Zm3.94-2-.82-2.23L12.1 25h1.75ZM21.62 27h1.35l.41-1h2.54l.37 1h1.6L25.3 21h-1.23l-2.46 5.98Zm3.93-2-.82-2.22L23.8 25h1.75ZM32.34 27h1.35l.41-1h2.54l.36 1h1.6l-2.57-6H34.8l-2.46 6Zm3.93-2-.82-2.23-.93 2.23h1.75Z" fill="#fff"/><path d="M16.5 21H18v2.42h2V21h1.5v6H20v-2.42h-2V27h-1.5v-6ZM50.5 21H52v6h-1.5zM29.5 21.01H28V27h4v-1.5h-2.5v-4.49ZM40.84 25.36 41.97 27h1.86l-2.08-2.97L43.83 21h-1.77l-1.22 1.73-1.2-1.73h-1.78l2.08 3.03L37.86 27h1.86l1.12-1.64ZM23 29v6h1.5v-2.5l.94 2.5h1.02l1.04-2.5V35H29v-6h-1.34l-1.64 3.94L24.34 29H23Z" fill="#fff"/><path fill-rule="evenodd" d="M16.5 35h1.35l.41-1h2.52l.37 1h1.59l-2.56-6h-1.22l-2.46 6Zm3.92-2-.82-2.23-.92 2.23h1.74Z" fill="#fff"/><path d="M12.74 29h3.76v1.3H14v1.12h2.5v1.16H14v1.1h2.5V35h-4v-6h.24ZM34.24 29H38v1.3h-2.5v1.12H38v1.16h-2.5v1.1H38V35h-4v-6h.24ZM31 29h-1.5v6h4v-1.27H31V29ZM7.66 33.07A9 9 0 0 0 7 34.3c.18.22.84.71 2.13.71 1.62 0 2.57-.6 2.57-1.75 0-1.14-1.03-1.72-1.9-1.82-.88-.1-1.16-.38-1.16-.6 0-.23.15-.62.87-.62a2 2 0 0 1 1.3.62l.65-1c-.52-.64-1.3-.83-2.05-.83-.75 0-2.2.4-2.2 1.83 0 1.42 1.35 1.78 1.92 1.79.57 0 1.13.23 1.13.63s-.3.53-1.2.53c-.71 0-1.23-.47-1.4-.7ZM38.96 33.07a9 9 0 0 0-.66 1.22c.18.22.84.71 2.13.71 1.62 0 2.57-.6 2.57-1.75 0-1.14-1.03-1.72-1.9-1.82-.88-.1-1.16-.38-1.16-.6 0-.23.15-.62.87-.62a2 2 0 0 1 1.3.62l.65-1c-.52-.64-1.3-.83-2.05-.83-.75 0-2.2.4-2.2 1.83 0 1.42 1.35 1.78 1.92 1.79.57 0 1.13.23 1.13.63s-.3.53-1.2.53c-.71 0-1.23-.47-1.4-.7ZM43.96 33.07a9 9 0 0 0-.66 1.22c.18.22.84.71 2.13.71 1.62 0 2.57-.6 2.57-1.75 0-1.14-1.03-1.72-1.9-1.82-.88-.1-1.16-.38-1.16-.6 0-.23.15-.62.87-.62a2 2 0 0 1 1.3.62l.65-1c-.52-.64-1.3-.83-2.05-.83-.75 0-2.2.4-2.2 1.83 0 1.42 1.35 1.78 1.92 1.79.57 0 1.13.23 1.13.63s-.3.53-1.2.53c-.71 0-1.23-.47-1.4-.7Z" fill="#fff"/><path fill="#C83660" d="M48.5 33.5H50V35h-1.5z"/></svg>