<!-- by TradingView --><svg width="56" height="56" viewBox="0 0 56 56" xmlns="http://www.w3.org/2000/svg"><path fill="#F0F3FA" d="M0 0h56v56H0z"/><path d="M15.48 39.44c-.81.6-1.97.45-2.52-.4A18.08 18.08 0 0 1 10 29.09C10 19.1 18.06 11 28 11s18 8.1 18 18.1c0 3.75-1.14 7.24-3.09 10.13-.55.83-1.69.97-2.5.39-.93-.67-1.06-2-.42-2.94A13.7 13.7 0 0 0 42.34 29c0-7.73-6.42-14-14.34-14s-14.34 6.27-14.34 14c0 2.77.83 5.36 2.25 7.53.62.94.49 2.25-.43 2.9ZM19 24.38A2.44 2.44 0 0 1 21.5 22c1.38 0 2.5 1.06 2.5 2.38v13.24A2.44 2.44 0 0 1 21.5 40a2.44 2.44 0 0 1-2.5-2.38V24.38ZM28 22a2.44 2.44 0 0 0-2.5 2.38v13.24A2.44 2.44 0 0 0 28 40c1.38 0 2.5-1.06 2.5-2.38V24.38A2.44 2.44 0 0 0 28 22Zm4 2.38A2.44 2.44 0 0 1 34.5 22c1.38 0 2.5 1.06 2.5 2.38v13.24A2.44 2.44 0 0 1 34.5 40a2.44 2.44 0 0 1-2.5-2.38V24.38ZM28 21a2.5 2.5 0 1 0 0-5 2.5 2.5 0 0 0 0 5Z" fill="#DA251D"/></svg>