<!-- by TradingView --><svg width="56" height="56" viewBox="0 0 56 56" xmlns="http://www.w3.org/2000/svg"><path fill="url(#a)" d="M0 0h56v56H0z"/><path fill-rule="evenodd" d="M41 23.27V33h2v-4.13h1.33c.36.04 1.15.41 1.42 1.55.27 1.14.57 2.2.69 2.58h1.94a17.3 17.3 0 0 1-.57-2.05c-.17-.84-.46-2.17-1.59-2.57A2.8 2.8 0 0 0 48 25.63c0-3.02-4.67-2.83-7-2.36Zm2 1.02v3.37c1 .18 3 .06 3-1.87 0-1.71-2-1.71-3-1.5ZM4 33h1.84l.57-7.25L9.07 33h1.66l2.94-7.25.41 7.25H16l-.8-10H13l-3.06 7.31L7.08 23h-2.2L4 33Zm15.02 0H17l3.84-10h2.2L27 33h-2.16l-1-2.7H20l-1 2.7Zm2.9-7.88L23.34 29H20.5l1.42-3.88ZM28 23.05h2V33h-2v-9.95ZM52 23h-2v10h2V23Zm-17.5 0H31v1.24h3.5V33h2v-8.76H40V23h-5.5Z" fill="#fff"/><defs><linearGradient id="a" x1="10.42" y1="9.71" x2="68.15" y2="76.02" gradientUnits="userSpaceOnUse"><stop stop-color="#1A1E21"/><stop offset="1" stop-color="#06060A"/></linearGradient></defs></svg>