<!-- by TradingView --><svg width="56" height="56" viewBox="0 0 56 56" xmlns="http://www.w3.org/2000/svg"><path fill="#F0F3FA" d="M0 0h56v56H0z"/><path d="M28.14 30.47c.04.03.08.02.1-.04l4.3-9.31c.03-.08.1-.12.18-.12h1.44c.1 0 .2.04.3.1.1.05.17.13.22.22.29.51.55 1.03.78 1.54.9 1.98 1.8 3.92 2.72 5.8.5 1.01.92 2.02 1.28 3.01.02.04.05.06.09.06 2.7-.37 5.27-1.18 7.75-2.44.46-.23.91-.6 1.36-1.09.71-.77.5-1.58-.64-2.43-.4-.3-.89-.58-1.48-.86-.4-.19-.81-.35-1.22-.5-2.83-1-5.82-1.77-8.96-2.3a.07.07 0 0 1-.05-.05c-.01-.03 0-.06.02-.08a.15.15 0 0 1 .07-.03c1.1-.15 2.22-.15 3.37 0 1.86.22 3.59.57 5.2 1.02 1.6.46 3.01 1.12 4.24 1.99a4.05 4.05 0 0 1 1.68 2.09c.26.88.06 1.75-.62 2.6a8.02 8.02 0 0 1-2.5 1.97c-.87.48-1.87.89-3 1.24-2.24.7-4.56 1-6.95 1.14-.07 0-.12-.03-.15-.1-.9-2-1.82-3.9-2.75-5.88a20.65 20.65 0 0 0-1.4-2.45 32.72 32.72 0 0 0-1.22 2.36c-.26.53-.6 1.33-1.07 2.4l-1.02 2.3c-.4.85-.77 1.6-1.13 2.24a.23.23 0 0 1-.22.13h-1.68c-.11 0-.2-.09-.24-.2l-2.8-6.17c-.48-1.04-1-2.06-1.59-3.05a.12.12 0 0 0-.1-.06.12.12 0 0 0-.12.07 33.07 33.07 0 0 0-1.75 3.85c-.57 1.49-1.24 2.8-2.03 4.19-.13.24-.3.37-.52.37-2.72 0-5.3-.28-7.73-1.28a13.56 13.56 0 0 1-2.82-1.5 6.76 6.76 0 0 1-2.12-2.31 2.77 2.77 0 0 1-.14-2.45 4.2 4.2 0 0 1 1.64-1.86 13.98 13.98 0 0 1 4-1.78 34 34 0 0 1 6.67-1.14c.69-.05 1.36-.02 2.02.1.09 0 .1.05.04.11a.22.22 0 0 1-.13.08c-1.16.19-2.3.4-3.41.64a26.8 26.8 0 0 0-5.78 2l-.05.02c-.44.21-.8.39-1.06.54-.46.26-.85.53-1.14.79-.83.73-.98 1.46-.47 2.19 1.35 1.9 4.28 3.19 8.79 3.87.13.02.23-.03.29-.16l4.78-10.73a.2.2 0 0 1 .19-.13h1.6c.1 0 .17.04.22.13l4.54 9.17c.04.08.1.13.18.17Z" fill="url(#algjk13mi)"/><defs><linearGradient id="algjk13mi" x1="21.97" y1="21" x2="21.97" y2="34.1" gradientUnits="userSpaceOnUse"><stop stop-color="#80B7D9"/><stop offset=".82" stop-color="#114994"/></linearGradient></defs></svg>