<!-- by TradingView --><svg width="56" height="56" viewBox="0 0 56 56" xmlns="http://www.w3.org/2000/svg"><path fill="#F0F3FA" d="M0 0h56v56H0z"/><path fill-rule="evenodd" d="m33 18-.35 1.83h-20.8l.5-1.83H33Zm-.7 3.64.2-1.06H11.66l-.29 1.06H32.3ZM32.04 23l.12-.61h-21L11 23h21.04Zm-21.26 2.51c.05-.18.09-.18.11 0 .23 1.83.44 3.62.62 5.37 0 .08.04.12.12.12.04 0 .08-.02.1-.05l3.87-5.44c.13-.19.17-.17.1.06-.46 1.68-.88 3.17-1.27 4.49-.07.2-.14.36-.21.45a.7.7 0 0 1-.37.24c-.1.02-.26.04-.47.04-.06 0-.1.03-.11.09l-.01.04c-.02.04 0 .07.05.07h2.63c.05 0 .08-.03.1-.09v-.04c.01-.04 0-.06-.04-.06-.2-.01-.33-.02-.4-.04-.23-.03-.36-.14-.39-.3-.01-.1.02-.28.1-.52.3-1 .6-2.08.9-3.16a188.1 188.1 0 0 1 .51-1.78.1.1 0 0 0 .03-.06v-.07c.08-.3.24-.51.49-.61.08-.04.26-.06.52-.07.05 0 .07-.02.07-.07v-.05c0-.05-.02-.07-.07-.07h-1.35a.11.11 0 0 0-.1.05l-4.04 5.69c-.04.06-.07.05-.08-.02l-.66-5.67c0-.03-.02-.05-.05-.05H9.94c-.04 0-.05.02-.05.06v.06c0 .05.02.07.06.07.29.02.54.12.74.32.05.05.06.1.04.16l-1.11 3.9-.2.75c-.2.82-.43 1.28-.68 1.38-.17.07-.37.1-.6.09-.06 0-.1.02-.12.09l-.02.05c0 .04 0 .05.04.05h2.12c.06 0 .08-.03.08-.09v-.04l-.05-.05-.52-.08a.1.1 0 0 1-.03-.02c-.18-.1-.23-.3-.14-.64.3-1.09.72-2.6 1.28-4.55Zm33.88 5.28a1.58 1.58 0 0 1-1.35-1.13 3.13 3.13 0 0 1-.01-1.08c0-.04-.02-.07-.06-.08h-.03c-.06-.02-.1 0-.12.07l-.48 2.35c0 .03 0 .05.04.07h.03c.03.01.06 0 .08-.03.11-.17.2-.28.28-.33.12-.08.27-.09.43-.02.51.21.93.33 1.26.36.74.06 1.35-.12 1.82-.57a1.78 1.78 0 0 0 0-2.65L45.1 26.3c-.3-.31-.45-.62-.46-.94 0-.28.1-.52.32-.73a1.52 1.52 0 0 1 1.75-.15c.58.34.8.91.67 1.7 0 .05.02.08.06.09h.05c.06.02.1 0 .1-.06.12-.56.25-1.14.4-1.73 0-.06.01-.15 0-.28a2.78 2.78 0 0 1 0-.16.07.07 0 0 0-.03-.03c-.04-.01-.07 0-.09.04-.15.37-.43.46-.83.28a3.86 3.86 0 0 0-.84-.3 2.28 2.28 0 0 0-1.23.1c-.4.17-.71.43-.92.8-.27.48-.29.96-.05 1.43.11.23.4.57.86 1 .7.68 1.09 1.07 1.18 1.2.37.53.41 1.06.12 1.58-.15.26-.36.45-.65.56-.26.1-.54.12-.85.08ZM25.82 27.1c-.01.07.01.08.07.04.92-.8 1.81-1.55 2.68-2.28.06-.04.13-.15.2-.33a.11.11 0 0 0 0-.12.56.56 0 0 0-.3-.23c-.04-.01-.07-.04-.07-.1v-.03c.02-.04.04-.06.09-.06h1.96c.05 0 .07.02.09.07v.03c-.01.04-.03.07-.07.08-.47.1-.89.28-1.26.57-.83.63-1.72 1.36-2.68 2.2-.04.03-.04.07-.02.1.59.98 1.21 2 1.87 3.04.3.48.7.72 1.2.72.04 0 .06.02.05.06l-.01.06c-.01.05-.04.07-.08.07H26.8c-.05 0-.08-.03-.06-.08 0-.03.02-.05.06-.07a.9.9 0 0 1 .18-.07c.18-.05.3-.12.37-.2.14-.18.14-.38 0-.6l-1.58-2.62a.06.06 0 0 0-.06-.03c-.03 0-.05.02-.05.05-.32 1.18-.6 2.16-.83 2.93-.02.09 0 .2.08.3.04.07.12.12.23.14l.44.06c.06 0 .08.04.07.1l-.01.04c-.01.03-.03.05-.06.05h-2.51c-.03 0-.05-.01-.06-.04a.06.06 0 0 1 .01-.07l.03-.03c.03-.04.08-.06.12-.06.37.01.62-.12.75-.38.1-.2.18-.38.22-.54a556.27 556.27 0 0 1 1.4-5c.1-.49-.12-.72-.65-.7-.04 0-.06-.01-.06-.05v-.05c0-.05.02-.08.07-.08h2.37c.05 0 .07.02.06.07l-.01.06c-.01.04-.04.05-.08.05a.77.77 0 0 0-.6.22c-.1.1-.19.27-.27.54-.22.7-.4 1.42-.55 2.17ZM35.08 31c.05 0 .08-.02.1-.07.13-.45.27-.88.42-1.32l.16-.48c0-.02 0-.04-.03-.04l-.04-.01c-.05-.01-.08 0-.1.05l-.19.32a2.42 2.42 0 0 1-2.08 1.25h-1.28a.3.3 0 0 1-.25-.14.32.32 0 0 1-.04-.28l.75-2.65c.01-.05.04-.08.1-.08.3-.01.6-.01.9.01.26.03.42.18.49.47.05.24.03.48-.07.73-.02.04 0 .07.05.08H34c.06.02.1 0 .11-.06l.45-1.8.05-.32a.87.87 0 0 1 .1-.3c.02-.03.02-.06 0-.08l-.04-.02c-.05-.04-.09-.03-.12.03l-.23.43c-.16.25-.39.42-.7.49a3.83 3.83 0 0 1-.94.04c-.05 0-.07-.03-.06-.09l.8-2.79c0-.03.03-.05.07-.06.68-.04 1.2-.03 1.58.03.67.1.95.5.83 1.17 0 .05.01.08.06.09h.03c.06.02.1 0 .1-.07l.3-1.47c0-.04-.01-.06-.05-.06h-4.57c-.04 0-.06.02-.06.06v.06c0 .04.02.06.06.06.12 0 .22 0 .29.02.33.07.46.28.38.61l-.09.38c0 .08-.33 1.21-.96 3.4l-.24.93c-.1.36-.21.67-.34.93-.14.26-.4.38-.77.34-.06 0-.1.02-.11.08l-.01.04c-.02.06 0 .09.06.09h5.1Zm2.87-1.03c.12-.4.22-.8.32-1.2l.34-1.2c.03-.07.08-.1.16-.09l.41.09a.1.1 0 0 1 .08.06l1.04 3.3c.01.04.04.07.1.07h1.5c.05 0 .08-.03.08-.08v-.05c0-.05-.03-.07-.07-.07-.32 0-.55-.08-.7-.23-.2-.2-.36-.52-.49-.96-.1-.36-.32-1.02-.64-1.98-.04-.1 0-.17.1-.2a2.3 2.3 0 0 0 1.61-1.1c.2-.34.25-.7.18-1.08-.15-.83-.96-1.25-1.77-1.25h-2.3c-.06 0-.08.03-.08.08v.03c0 .04.02.06.05.07.16 0 .3.05.44.15.12.09.19.21.2.38 0 .28-.04.53-.12.75 0 0-.8 3.05-1.3 4.53l-.14.36c-.16.33-.43.48-.81.44-.07 0-.11.03-.13.1v.05c-.02.04 0 .06.04.06h2.5c.06 0 .1-.03.1-.09v-.03c0-.05-.03-.07-.07-.07-.43-.03-.66-.15-.68-.37-.02-.15 0-.3.05-.47Zm1.49-5.36-.51 1.77c-.1.32-.15.55-.17.69 0 .04 0 .06.05.07.83.15 1.46-.09 1.9-.7.1-.16.18-.31.22-.47.03-.11.04-.29.06-.53a1.1 1.1 0 0 0-.2-.74c-.27-.35-.68-.48-1.22-.38a.09.09 0 0 0-.08.08l-.05.21Zm-18.87 4.17h-1.88a.11.11 0 0 0-.1.05c-.41.56-.7.97-.86 1.22a.59.59 0 0 0-.1.4c.02.15.1.26.25.3l.26.08c.03 0 .04.03.03.06v.04c-.01.05-.04.07-.09.07h-1.87c-.03 0-.05-.02-.05-.06v-.05c0-.05.02-.08.07-.08.3-.02.56-.15.77-.38l.04-.05c.3-.33.52-.6.67-.8 1.35-1.86 2.65-3.66 3.89-5.4.2-.27.27-.24.24.1l-.51 5.69c-.03.3 0 .51.1.62.14.17.37.24.69.2.04 0 .06.02.06.07v.05c0 .06-.02.09-.08.09h-2.51c-.05 0-.07-.02-.06-.07l.02-.04c.01-.06.05-.1.11-.09.52.03.8-.22.86-.76l.06-.94.03-.12a.24.24 0 0 0 .04-.11c0-.06-.02-.1-.08-.1Zm-1.68-.36 1.94-2.72c.01-.02.03-.02.05-.01.02 0 .03.02.03.04l-.26 2.72c0 .02-.01.04-.04.04h-1.69c-.02 0-.03-.01-.04-.03v-.04Zm6.95 5.2.12-.62H47l-.16.61h-21Zm-.35 1.8.2-1.06h20.95l-.29 1.06H25.5Zm-.14.75L25 38h20.66l.49-1.83h-20.8Z" fill="#0D0D0D"/></svg>