<!-- by TradingView --><svg width="56" height="56" viewBox="0 0 56 56" xmlns="http://www.w3.org/2000/svg"><path fill="#F0F3FA" d="M0 0h56v56H0z"/><path d="M5.6 22 4 34h3.36l.68-4.92L10.7 34l2.52-4.92L14.26 34H18l-2.14-12h-2.93l-2.23 4.73L8.31 22h-2.7ZM18 34V22h9.76l1.34 2.57L30.46 22h10.06l.78 3.1H37v1.45h3v2.95h-3v1.54h4.48L40.52 34H34V23h-.32L31 28.43V34h-4v-5.57L25.33 25H21v1.42h3v3.08h-3V31h4.33l-.89 3H18ZM42 22v12h4v-4h.25l1.74 4H52l-2.23-4.75c1.14-.76 1.9-2.01 1.9-3.34 0-2.16-1.97-3.91-4.4-3.91H42Zm4 5.87v-3h.38c.62 0 1.12.67 1.12 1.5s-.5 1.5-1.12 1.5H46Z" fill="#283D98"/></svg>