<!-- by TradingView --><svg width="56" height="56" viewBox="0 0 56 56" xmlns="http://www.w3.org/2000/svg"><path fill="#2A3568" d="M0 0h56v56H0z"/><path d="M28 12a16 16 0 0 1 .2 32c-1.26-2.39-4.34-4.77-4.34-4.77 8 .99 9.83-7.44 6.32-12.21-3.5-4.77-7.58 2.53-7.58 2.53s-.56-6.04-4.77-3.37c-4.21 2.66 0 14.04 0 14.04l-.01.12a16.24 16.24 0 0 1-4.31-5.55A16 16 0 0 1 28 12Zm-3.5 16Zm0 0c-.12.58-.3 1.15-.55 1.69-.25.48-.57.94-.94 1.36l-.18.2c-.5.52-.8 1.19-.83 1.9-.01.65.25 1.3.74 1.78a2.33 2.33 0 0 0 1.76.75 2.45 2.45 0 0 0 1.76-.75c.49-.48.75-1.13.74-1.79a2.88 2.88 0 0 0-.83-1.89l-.18-.2a6.66 6.66 0 0 1-.94-1.36A7.86 7.86 0 0 1 24.5 28Z" fill="#C39B3C"/></svg>