<!-- by TradingView --><svg width="56" height="56" viewBox="0 0 56 56" xmlns="http://www.w3.org/2000/svg"><path fill="#F0F3FA" d="M0 0h56v56H0z"/><path d="M12 22v6h1v-4.77L14.47 28h1.06L17 23.23V28h1v-6h-1.62L15 26.53 13.62 22H12Z" fill="#FE1B14"/><path fill-rule="evenodd" d="M22 27.62a2.25 2.25 0 1 1 0-3.74v-.38h1V28h-1v-.38Zm0-1.87a1.25 1.25 0 1 1-2.5 0 1.25 1.25 0 0 1 2.5 0ZM36 27.62a2.25 2.25 0 1 1 0-3.74v-.38h1V28h-1v-.38Zm0-1.87a1.25 1.25 0 1 1-2.5 0 1.25 1.25 0 0 1 2.5 0ZM42.5 27.62a2.25 2.25 0 1 1 0-3.74v-.38h1V28h-1v-.38Zm0-1.87a1.25 1.25 0 1 1-2.5 0 1.25 1.25 0 0 1 2.5 0Z" fill="#FE1B14"/><path d="M24.5 23.88v-.38h-1V28h1v-2.75a.75.75 0 0 1 1.5 0V28h1v-3a1.5 1.5 0 0 0-2.5-1.12ZM31 25.75a1.25 1.25 0 1 1-2.5 0 1.25 1.25 0 0 1 2.5 0Zm0-1.87a2.25 2.25 0 1 0-.03 3.76c-.12.5-.55.86-1.08.86-.4 0-.74-.2-.95-.5h-1.1a2.12 2.12 0 0 0 4.15-.63V23.5h-.99v.38ZM37.5 22h1v6h-1v-6ZM45 23.5v.53a1.74 1.74 0 0 1 2.57.07A2 2 0 0 1 51 25.5V28h-1v-2.5a1 1 0 1 0-2 0V28h-1v-2.5a1 1 0 1 0-2 0V28h-1v-4.5h1Z" fill="#FE1B14"/><path fill-rule="evenodd" d="M14 32.5a1.5 1.5 0 1 0 0-3 1.5 1.5 0 0 0 0 3Zm0 .5a2 2 0 1 0 0-4 2 2 0 0 0 0 4Z" fill="#FE1B14"/><path d="M17 30h-.5v3h.5v-1.5a1 1 0 0 1 .75-.97v-.52c-.3.03-.57.18-.75.4V30ZM20.25 31.5a1 1 0 1 1-2 0 1 1 0 0 1 2 0Zm0-1.12a1.5 1.5 0 1 0 0 2.24.88.88 0 0 1-1.49.63h-.61a1.38 1.38 0 0 0 2.6-.63V30h-.5v.38ZM23.5 31.5a1 1 0 1 1-2 0 1 1 0 0 1 2 0Zm0-1.12a1.5 1.5 0 1 0 0 2.24V33h.5v-3h-.5v.38ZM50.5 32.63V33H50v-.38a1.5 1.5 0 1 1 0-2.24V29h.5v3.63ZM50 31.5a1 1 0 1 0-2 0 1 1 0 0 0 2 0ZM25 30h-.5v3h.5v-1.75a.75.75 0 0 1 1.5 0V33h.5v-1.75a1.25 1.25 0 0 0-2-1V30ZM27.75 29h-.5v.5h.5V29Zm0 1h-.5v3h.5v-3ZM37.3 29h-.5v.5h.5V29Zm0 1h-.5v3h.5v-3ZM43.75 29h-.5v1H43v.5h.25V33h.5v-2.5h.5V30h-.5v-1ZM42.5 29H42v.5h.5V29Zm0 1H42v3h.5v-3ZM30.37 32a1 1 0 1 1 0-1h.54a1.5 1.5 0 1 0 0 1h-.54ZM32.77 32.16a.37.37 0 0 0-.04-.17.36.36 0 0 0-.15-.15 1.32 1.32 0 0 0-.33-.11 2.52 2.52 0 0 1-.36-.12c-.1-.05-.2-.1-.27-.18a.7.7 0 0 1-.24-.56.87.87 0 0 1 .25-.61.87.87 0 0 1 .3-.2c.11-.04.24-.06.38-.06.2 0 .38.04.52.12.15.08.26.2.34.33.08.14.12.3.12.47h-.54a.47.47 0 0 0-.05-.22.38.38 0 0 0-.15-.16.43.43 0 0 0-.24-.06c-.09 0-.17.01-.23.05a.34.34 0 0 0-.17.31c0 .05 0 .1.02.14a.3.3 0 0 0 .08.1l.15.09.25.07a2 2 0 0 1 .47.18.8.8 0 0 1 .31.28c.07.11.11.26.11.43 0 .13-.02.24-.07.35-.04.1-.11.2-.2.28a.93.93 0 0 1-.3.18c-.13.04-.26.06-.41.06a.96.96 0 0 1-1.02-.96h.52c0 .12.03.21.08.29.05.07.12.12.2.15.07.03.15.04.23.04.1 0 .18-.01.24-.04a.36.36 0 0 0 .15-.13.35.35 0 0 0 .05-.19ZM34.5 29h.5v4h-.5v-4ZM36.5 32.5v.5H35v-.5h1.5ZM37.75 30h.5v.19a1.12 1.12 0 0 1 1.5.23 1.12 1.12 0 0 1 2 .7V33h-.5v-1.88a.62.62 0 1 0-1.25 0V33h-.5v-1.88a.62.62 0 1 0-1.25 0V33h-.5v-3Z" fill="#FE1B14"/><path fill-rule="evenodd" d="M47.2 31.75a1.5 1.5 0 1 0-.08.3h-.56a1 1 0 0 1-1.8-.3h2.44Zm-1.48-1.25a1 1 0 0 0-.96.75h1.93a1 1 0 0 0-.97-.75Z" fill="#FE1B14"/><path d="M5.7 36.5a15.63 15.63 0 0 1 6.5-2.96c-.98.4-4.7 2.07-6.5 2.96Z" fill="#7DD11B"/><path d="M8.1 22.48c.05.28-.15.37-.25.38.07.1.13.36-.18.51.13.03.33.13.07.29.1.05.3.18.18.25-.14.1-.28-.06-.35-.13.1.14.26.43.17.48-.1.07-.28 0-.42-.1.02.06.05.17-.03.17a.72.72 0 0 1-.25-.07c.06.17.27.53.63.58.1.16-.8.22-.8.47 0 .15.12.22.24.25.22.04.18.22.33.26-.37-.08-1.13-.05-1.35.7.07.06.28.15.56.1.35-.06.39.16.57.13.17-.03.14-.26.42-.32.28-.06.35.32.14.41-.21.1-.35.04-.6.16-.25.13-.7.16-.77.16-.07 0-.1.26.42.2.1-.03.32-.03.32.12 0 .1-.3.05-.67.1-.37.04-.81.35-.81.35.07.18.3.51.63.41.42-.13.63.07.18.22-.46.16-.67.3-.53.42.14.13.32-.06.77-.1.46-.03.7.1.74.16.04.07-.91.42-1.51.51-.48.08-.62.27-.63.35.11-.03.33-.05.24.1-.08.15-.17.21-.2.22.09.03.3.08.38.03.1-.06.24-.19.28-.1.03.1.07.14.14.1.07-.03.39-.12.46.1s-.21.41-.92.6c-.7.2-.7.3-.7.36s.32.38.53.28c.2-.1.38.2.56.2.18 0 .6-.23.8-.39.22-.16.47.45.82.38l.6-.16v2.4c-.64.31-1.9 1.01-2.64 1.72 0 0 3.87-1.89 6.43-2.94-.57.07-1.9.39-3.1.9v-1.92c.36.07.71-.54.92-.38.21.16.64.38.81.38.18 0 .35-.28.56-.19.22.1.53-.22.53-.28 0-.07 0-.16-.7-.36-.7-.19-.99-.38-.92-.6.07-.22.4-.13.46-.1.07.04.1 0 .14-.1.04-.09.18.04.28.1.09.05.3 0 .39-.03-.03 0-.13-.07-.21-.22-.09-.15.13-.13.25-.1-.02-.08-.16-.27-.64-.35-.6-.1-1.54-.44-1.51-.5.04-.07.28-.2.74-.17.46.04.63.23.77.1s-.07-.26-.52-.42c-.46-.15-.25-.35.17-.22.34.1.56-.23.63-.41 0 0-.44-.3-.8-.35-.37-.05-.67 0-.67-.1 0-.15.2-.15.31-.13.53.07.5-.19.43-.19s-.53-.03-.78-.16c-.24-.12-.39-.06-.6-.16-.2-.1-.14-.47.14-.41.29.06.25.29.43.32.17.03.2-.2.56-.13.28.05.5-.04.56-.1-.22-.75-.98-.78-1.35-.7.15-.04.11-.22.33-.26.12-.03.25-.1.25-.25 0-.25-.92-.31-.81-.47.37-.05.57-.4.63-.58a.72.72 0 0 1-.24.07c-.09 0-.06-.11-.04-.16-.14.1-.32.16-.42.1-.09-.06.08-.35.17-.49-.07.07-.2.23-.35.13-.1-.07.07-.2.18-.25-.25-.16-.06-.26.07-.29-.31-.15-.25-.4-.18-.51-.1-.01-.3-.1-.24-.38-.07-.01-.21-.07-.21-.2 0-.15-.04-.28-.1-.28-.08 0-.11.13-.11.29 0 .12-.15.18-.22.19Z" fill="#81C41C"/></svg>