<!-- by TradingView --><svg width="56" height="56" viewBox="0 0 56 56" xmlns="http://www.w3.org/2000/svg"><path fill="#F0F3FA" d="M0 0h56v56H0z"/><path d="M8 22.97v10.19c0 .3.14.58.37.77.5.4 1.2 1.03 1.72 1.7a1 1 0 0 0 .88.4l5.76-.54c.66-.1 2.14-.16 2.75.45l.27.28a10.58 10.58 0 0 0 8 3.78 13.08 13.08 0 0 0 .25 0c4.68-.1 7.11-2.71 8.1-3.78l.27-.28c.62-.61 2.12-.56 2.8-.45l5.82.54c.35.04.68-.13.9-.4.51-.67 1.22-1.3 1.73-1.7a.99.99 0 0 0 .38-.77V22.97c0-.3-.15-.6-.39-.78-.69-.56-1.33-1.3-1.75-1.83a.96.96 0 0 0-.81-.38c-1.62.1-4.44.31-5.89.5-1.62.22-2.26-.26-2.52-.53-3.1-3.18-6.27-3.95-8.76-3.95-2.96 0-5.33.77-8.4 3.95-.25.27-1.15.75-2.75.54-1.43-.2-4.22-.4-5.81-.5a.94.94 0 0 0-.8.37c-.42.53-1.06 1.27-1.74 1.83-.23.19-.38.47-.38.78Z" fill="#2292A4"/><path d="M16.93 32.2c.39 0 .83-.19 1-.28.35.07.45.38.3.57-.13.19-.59 0-1.3 0-.57 0-.65-.43-.61-.64.04.11.22.34.6.34ZM39.76 32.2a2.5 2.5 0 0 1-1-.28c-.35.07-.45.38-.3.57.14.19.59 0 1.3 0 .57 0 .65-.43.61-.64-.04.11-.22.34-.6.34Z" fill="#fff"/><path fill-rule="evenodd" d="M19 24v4h.7v-2.53l.93 2.53h.57l1.11-2.53V28H23v-4h-.69l-1.37 2.92L19.7 24H19Zm4.86 4h.83l.35-1h1.58l.38 1h.85l-1.68-4h-.74l-1.57 4Zm2.57-1.5-.62-1.63-.59 1.63h1.2Zm1.93 1.5v-4h.86L31 27v-3h.75v4h-.85L29 25v3h-.64Zm4.22-.52.54-.4c.1.12.36.4.76.4.5 0 .88-.2.88-.52 0-.31-.39-.53-.88-.68-.48-.16-1.19-.56-1.19-1.22 0-.66.66-1.06 1.36-1.06.55 0 .98.25 1.13.37l-.27.57c-.11-.13-.42-.41-.81-.41-.49 0-.75.14-.75.47 0 .26.15.32.6.5l.42.2c.78.34 1.1.8 1.1 1.2 0 .39-.38 1.1-1.57 1.1-.96 0-1.24-.38-1.32-.52ZM37 24h-.7v4h.7v-4ZM23 33v-2h1.24v.25h-.96V32H24v.26h-.72V33H23Zm2-2h-.3v.23h.3V31Zm0 .5h-.3V33h.3v-1.5Zm.34 0h.25v.35c.04-.14.18-.35.46-.35.38 0 .56.24.56.42V33h-.26v-1.03c0-.08-.07-.23-.3-.23-.23 0-.4.28-.46.44V33h-.25v-1.5Zm3.66 0h-.3V33h.3v-.92c.09-.16.23-.34.41-.34.24 0 .3.15.3.23V33H30v-1.08c0-.18-.2-.42-.59-.42a.46.46 0 0 0-.4.25v-.25Zm-1 1.28a.71.71 0 0 1-.5.22c-.37 0-.66-.34-.66-.75s.29-.75.65-.75c.18 0 .4.08.51.22v-.22h.26V33H28v-.22Zm0-.53c0 .3-.26.55-.5.55-.25 0-.44-.25-.44-.55 0-.3.2-.55.43-.55.25 0 .51.25.51.55Zm3.18.36c-.09.1-.21.16-.32.16-.21 0-.45-.2-.45-.53s.24-.53.45-.53c.1 0 .22.05.3.15l.22-.1a.65.65 0 0 0-.52-.28c-.38 0-.68.34-.68.76s.3.76.68.76c.21 0 .4-.11.53-.29l-.21-.1Zm1.46 0c-.09.1-.2.16-.32.16-.2 0-.4-.17-.44-.46H33v-.07c0-.42-.3-.76-.68-.76-.37 0-.68.34-.68.76s.3.76.68.76c.22 0 .4-.11.53-.28l-.2-.11Zm-.32-.9c-.18 0-.38.15-.43.4h.86c-.05-.25-.25-.4-.43-.4Z" fill="#fff"/><path d="M28 16.73c-4.01 0-6.64 2.22-7.45 3.32a3.58 3.58 0 0 1-2.8 1.32c-1.43 0-5.2-.36-6.96-.54-.56.74-1.58 1.66-2.07 2.07v.35H8.5v-.46l.04-.04c.48-.4 1.57-1.37 2.1-2.11l.04-.06.07.01c1.73.18 5.56.54 7 .54 1.4 0 2.34-.82 2.62-1.22.85-1.14 3.54-3.41 7.63-3.41 4.1 0 6.78 2.27 7.63 3.41.28.4 1.22 1.22 2.62 1.22 1.44 0 5.27-.36 7-.54h.07l.04.05c.53.74 1.62 1.72 2.1 2.11l.04.04v.46h-.22v-.35c-.5-.4-1.51-1.33-2.07-2.07-1.76.18-5.53.54-6.96.54a3.58 3.58 0 0 1-2.8-1.32c-.8-1.1-3.44-3.32-7.45-3.32ZM28 39.27c-4.01 0-6.64-2.22-7.45-3.32a3.58 3.58 0 0 0-2.8-1.32c-1.43 0-5.2.36-6.96.54a14.95 14.95 0 0 0-2.07-2.07v-.35H8.5v.46l.04.04c.48.4 1.57 1.37 2.1 2.11l.04.06.07-.01c1.73-.18 5.56-.54 7-.54 1.4 0 2.34.82 2.62 1.22.85 1.14 3.54 3.41 7.63 3.41 4.1 0 6.78-2.27 7.63-3.41a3.36 3.36 0 0 1 2.62-1.22c1.44 0 5.27.36 7 .54h.07l.04-.05c.53-.74 1.62-1.72 2.1-2.11l.04-.04v-.46h-.22v.35c-.5.4-1.51 1.33-2.07 2.07-1.76-.18-5.53-.54-6.96-.54-1.49 0-2.48.87-2.8 1.32-.8 1.1-3.44 3.32-7.45 3.32Z" fill="#fff"/></svg>