<!-- by TradingView --><svg width="56" height="56" viewBox="0 0 56 56" xmlns="http://www.w3.org/2000/svg"><path fill="url(#a)" d="M0 0h56v56H0z"/><path fill="#C89347" d="m10 28 18-18 18 18-18 18z"/><path d="M17.92 20.08 15 23v10l3 3v-7.26l4.37 6.1L26 28.24V44l2 2 1-1V11l-.8-.8-5.47 18.92-4.8-9.04Zm17.74-2.42C33.18 19.62 30 23.4 30 28.63c0 4.22 2.85 7.5 5.75 9.62l2.28-2.28c-1.77-1.38-4.1-4.13-4.1-7.93 0-3.37 2.24-6.14 4.27-7.84l-2.54-2.54Z" fill="#fff"/><defs><linearGradient id="a" x1="10.42" y1="9.71" x2="68.15" y2="76.02" gradientUnits="userSpaceOnUse"><stop stop-color="#1A1E21"/><stop offset="1" stop-color="#06060A"/></linearGradient></defs></svg>