<!-- by TradingView --><svg width="56" height="56" viewBox="0 0 56 56" xmlns="http://www.w3.org/2000/svg"><path fill="#F0F3FA" d="M0 0h56v56H0z"/><path d="M31 35V11.26A17 17 0 1 0 27 45V27.85c0-.85 0-2.3-1.63-2.3-2.06 0-2.37 2.17-2.37 2.95V35h-2v-7.15c.03-.77-.15-2.3-1.58-2.3-1.42 0-2.1 1.14-2.42 2.13V35h-2V24h2v1.65C17.45 25 18.26 24 19.77 24c2.1 0 2.75 1.47 2.75 1.86.14-.52 1.36-1.86 3.07-1.86 1.7 0 3.41.95 3.41 2.72V45a17.01 17.01 0 0 0 4-33.25v13.84c.88-.98 1.7-1.59 3-1.59 2.71 0 5 2.28 5 5.5S38.8 35 36.09 35c-1.31 0-2.21-.6-3.09-1.6V35h-2Z" fill="#62B8FF"/><path d="M35.83 33.49c-1.4 0-2.32-1.1-2.83-2.67v-2.64c.5-1.57 1.42-2.67 2.83-2.67 1.86 0 3.17 1.6 3.17 3.99s-1.3 3.99-3.17 3.99Z" fill="#62B8FF"/></svg>