<!-- by TradingView --><svg width="56" height="56" viewBox="0 0 56 56" xmlns="http://www.w3.org/2000/svg"><path fill="#F0F3FA" d="M0 0h56v56H0z"/><path fill-rule="evenodd" d="M28 44a16 16 0 1 0 0-32 16 16 0 0 0 0 32Zm4.6-19.94c.09-.15.19-.2.3-.16.09.04.14.14.12.24l-.25 1.33a36.1 36.1 0 0 0-.48 3.65c-.11 1.44-.35 2.7-.6 4.1-.16.87-.33 1.78-.48 2.82a9.82 9.82 0 0 0-.2 1.8l-.01.04c0 .08.06.14.13.14.63 0 1.53-.23 1.9-.8.6-.93.87-2.07 1.13-3.18.1-.4.18-.8.3-1.18.94-3.42 1.73-6.88 2.33-10.38.14-.8.17-1.6.2-2.41v-.46c.02-.23 0-.4-.05-.48-.28-.46-1.06-.23-1.4.02-1.48 1.09-2.58 2.45-3.72 3.87l-.65.8c-.83 1.01-1.74 2.1-2.9 2.72-.76.4-1.41.28-1.96-.38-.75-.9-1.09-2.21-1.38-3.33l-.03-.09-.18-.73c-.28-1.06-.56-2.12-.8-3.19a5.63 5.63 0 0 0-.28-.71.13.13 0 0 0-.1-.09.87.87 0 0 0-.44.02c-.36.11-.91.36-1.66.74-.43.21-.59.42-.64.9-.43 3.75-.67 5.9-.72 6.46-.16 1.55-.28 3.1-.4 4.66a242.2 242.2 0 0 1-.67 7.45c-.02.31-.05.84.4.74.44-.1.86-.24 1.28-.45a.7.7 0 0 0 .42-.52l.03-.14c.1-.38.21-.91.25-1.34a76.3 76.3 0 0 1 1.52-9.97c.03-.13.1-.21.2-.24a.1.1 0 0 1 .12.06c.27.89.68 1.85 1.23 2.65a2 2 0 0 0 1.71.96c.4 0 .84-.1 1.3-.26 1.61-.57 3.28-2.69 4.13-4.11l1-1.57Z" fill="#B7B7B7" fill-opacity=".7"/></svg>