<!-- by TradingView --><svg width="56" height="56" viewBox="0 0 56 56" xmlns="http://www.w3.org/2000/svg"><path fill="#F0F3FA" d="M0 0h56v56H0z"/><path fill-rule="evenodd" d="M19 14v3.36c1.84.72 4.82 2.33 7.83 4.85-.29.33-.56.66-.83.99a41.84 41.84 0 0 0-7-4.2v2.36c1.54.5 3.83 1.47 6.15 2.9l-1 1.36A22.67 22.67 0 0 0 19 24v1.95c1.12.09 2.69.36 4.33.89A32.07 32.07 0 0 0 20.12 33h.9c.91-2.14 2.1-4.06 3.4-5.77l.83.35C23.29 29.85 22.3 31.82 22 33h.9c.69-1.87 1.84-3.53 3.23-4.98.36.2.71.4 1.05.63A11.7 11.7 0 0 0 24 33h1.22A8.32 8.32 0 0 1 28 29.24 8.32 8.32 0 0 1 30.78 33H32a11.7 11.7 0 0 0-3.18-4.35c.34-.23.7-.44 1.05-.63A14.63 14.63 0 0 1 33.11 33H34c-.3-1.18-1.29-3.15-3.25-5.42l.9-.38A27.05 27.05 0 0 1 35.1 33h.9a32.11 32.11 0 0 0-3.24-6.2c1.61-.5 3.14-.76 4.24-.85V24c-1.93.37-3.61.92-5.07 1.58l-1-1.36A28.78 28.78 0 0 1 37 21.36V19a41.92 41.92 0 0 0-6.93 4.15c-.25-.32-.52-.63-.8-.94 3.02-2.52 6-4.13 7.84-4.85V14a34.79 34.79 0 0 0-9.05 6.87A34.79 34.79 0 0 0 19 14Zm9.88 10.07-.82-.79c-.3.27-.6.55-.88.84l.82.7.88-.75Zm-1.75 1.54-.83-.59-1.02 1.15c.29.15.56.31.82.47.32-.34.67-.68 1.03-1.03Zm-.16 1.58 1.03-.9 1.03.9c-.37.25-.7.5-1.03.76-.32-.25-.66-.5-1.03-.76Zm1.9-1.58.9-.63c.34.37.69.75 1.02 1.15l-.9.5c-.31-.33-.66-.67-1.02-1.02Z" fill="#2A18C1"/><path d="M36.35 42c-.2 0-.39-.03-.57-.09-.24-.07-.58-.23-.67-.5a2.99 2.99 0 0 1-.1-.58 8.76 8.76 0 0 1 0-.7c0-.04 0-.07.03-.09a.18.18 0 0 1 .1-.02c.05 0 .08 0 .09.02l.06.08c.1.45.25.8.45 1.07.2.28.43.41.7.41.44 0 .66-.47.66-.86 0-.56-.36-.88-.79-1.17-.66-.49-1.27-1-1.27-1.86 0-1.05.8-1.71 1.7-1.71.18 0 .35.02.5.07.26.08.45.14.51.24.03.04.05.1.07.19l.06.45.02.58c0 .08-.04.12-.12.12a.21.21 0 0 1-.12-.04.2.2 0 0 1-.06-.1 1.9 1.9 0 0 0-.35-.81.7.7 0 0 0-.56-.28c-.41 0-.69.22-.69.75s.61.93.98 1.21c.62.47 1.02 1.05 1.02 1.84 0 1.19-.63 1.78-1.65 1.78ZM33.12 42c-.03 0-.06 0-.08-.03a.14.14 0 0 1-.04-.1c0-.1.04-.16.13-.19a.67.67 0 0 0 .32-.18c.06-.08.09-.22.09-.41v-4.14c0-.2-.03-.33-.08-.41-.05-.09-.16-.16-.32-.21-.09-.03-.13-.1-.13-.2 0-.04.01-.07.04-.1a.12.12 0 0 1 .08-.03h1.75a.1.1 0 0 1 .08.05c.02.01.03.04.03.09 0 .06 0 .1-.03.12a.24.24 0 0 1-.1.07c-.16.07-.27.14-.32.23-.05.08-.08.2-.08.4v4.12c0 .18.03.3.09.4.06.07.17.14.32.2l.1.06c.02.03.03.07.03.12 0 .05-.01.08-.03.1-.02.03-.04.04-.08.04h-1.77ZM32.2 42c-.45 0-.75-.16-.98-.4-.38-.44-.62-.98-.84-1.48-.1-.24-.21-1.06-.69-1.06-.02 0-.04.02-.05.05a.3.3 0 0 0-.02.13v1.85c0 .18.04.31.11.4.08.08.2.15.4.2.09.02.14.07.14.18 0 .08-.04.13-.12.13h-2.02c-.03 0-.06 0-.09-.03a.12.12 0 0 1-.04-.1c0-.09.05-.15.14-.18.17-.05.29-.1.35-.18.06-.07.1-.2.1-.4v-4.14c0-.14-.01-.25-.04-.33-.03-.17-.18-.26-.4-.32-.12-.04-.15-.11-.15-.19 0-.07.06-.13.15-.13H30c.52 0 .92.12 1.2.35.28.24.42.6.42 1.07 0 .54-.24 1.1-.86 1.38l-.02.04a92.82 92.82 0 0 1 .4.82c.13.25.27.47.4.69.19.28.44.8.88.9.16.04.31.05.47.05.07 0 .1.05.1.16 0 .38-.37.54-.8.54Zm-2.33-3.22c.67 0 .76-.77.76-1.16 0-.4-.02-1.23-.73-1.23-.1 0-.17.05-.22.16-.04.1-.06.32-.06.65v1.25c0 .12.02.2.06.26.05.05.12.07.2.07Z" fill="#2E2E7F"/><path d="M23.18 42c-.1 0-.18-.03-.18-.14 0-.13.07-.16.16-.2a.94.94 0 0 0 .57-.59c.12-.32.22-.64.32-.96a133.8 133.8 0 0 0 1-3.4l.04-.2c.33-.11.59-.2.8-.48l.06-.03c.06-.02.11.25.12.3l.3 1.2.3 1.2.3 1.2.3 1.18c.07.31.27.5.57.61.1.04.16.08.16.19 0 .08-.06.13-.14.13L25.73 42c-.08 0-.15-.04-.15-.12 0-.1.07-.16.16-.19.17-.04.3-.1.37-.18.08-.08.1-.2.08-.34l-.15-.75c-.03-.14-.04-.34-.11-.47-.02-.03-.04-.04-.08-.04h-1.22a.09.09 0 0 0-.07.04c-.07.09-.07.25-.1.36-.07.24-.12.48-.18.73-.03.17-.02.3.04.4.06.1.19.2.38.25.11.03.17.1.17.19 0 .07-.04.12-.16.12h-1.53Zm1.65-2.56h.89c.06 0 .1-.02.1-.06a.3.3 0 0 0-.02-.09l-.45-1.98-.04-.1c-.01 0-.03.03-.05.1l-.54 1.98c-.02.05-.02.11.02.13l.09.02Z" fill="#2E2E7F"/><path d="M18.16 42c-.11 0-.16-.05-.16-.13 0-.1.1-.12.2-.16.1-.05.19-.13.27-.25a.96.96 0 0 0 .15-.46l.08-1.08a143.44 143.44 0 0 0 .18-2.66c.02-.17.04-.4-.04-.57-.09-.27-.45-.26-.63-.44a.15.15 0 0 1-.05-.12c0-.05.02-.09.05-.1a.3.3 0 0 1 .13-.03h1.3c.04 0 .08.02.1.05a.2.2 0 0 1 .07.11c.06.22.11.47.18.7l1 3.16.04.05c.02 0 .03-.02.04-.05l.98-2.98c.07-.42.1-.77.14-.92.02-.08.05-.12.1-.12h1.4c.04 0 .08.01.11.04.04.01.06.05.06.1s-.02.09-.05.11c-.19.16-.43.2-.57.42-.06.1-.08.24-.07.44a54.06 54.06 0 0 0 .07 2.03 218 218 0 0 1 .1 1.9c0 .15.05.34.14.44.09.09.2.16.36.2.09.04.16.08.16.18 0 .09-.06.14-.14.14h-2.03c-.1 0-.16-.05-.16-.13 0-.1.07-.16.16-.19.17-.04.29-.1.35-.18.07-.08.1-.28.1-.46a94.37 94.37 0 0 1-.07-2.2c0-.35-.01-.7-.03-1.04 0-.04 0-.06-.02-.05-.02 0-.03.02-.05.06l-1.3 4.08c-.03.08-.06.12-.1.1a.14.14 0 0 1-.1-.08c-.23-.7-.46-1.38-.71-2.06-.24-.67-.47-1.34-.67-2-.02-.06-.04-.08-.07-.06-.03 0-.04.05-.05.11a47.96 47.96 0 0 0-.05 2.07v1.07c0 .16.04.3.13.41.08.1.2.18.39.23.08.03.19.07.19.18 0 .09-.09.14-.17.14h-1.44Z" fill="#2E2E7F"/><path fill-rule="evenodd" d="M16 11h24v34H16V11Zm1 1h22v22H17V12Zm22 23H17v9h22v-9Z" fill="#2A18C1"/></svg>