<!-- by TradingView --><svg width="56" height="56" viewBox="0 0 56 56" xmlns="http://www.w3.org/2000/svg"><path fill="#F0F3FA" d="M0 0h56v56H0z"/><path d="M23.45 30.76V30h4.1v.76H26V35h-1v-4.24h-1.55ZM10.07 30l1.4 3.94h.06l1.4-3.94H14l-1.9 5h-1.2L9 30h1.07ZM46.02 27v-.8l2.76-3.2H46v-1h4v1l-2.5 3H50v1h-3.98ZM32 27v-5h2.05c.81 0 1.74.35 1.74 1.3 0 .56-.4.94-.94 1.06v.05c.66.03 1.15.58 1.15 1.23 0 1-.98 1.36-1.83 1.36H32Zm1-.76h1.02c.7 0 1-.28 1-.67 0-.53-.5-.8-.98-.8H33v1.47Zm0-2.11h.93c.43 0 .89-.24.89-.72 0-.38-.3-.66-.87-.66H33v1.38ZM6 22h1.06l1.44 3.62L9.94 22H11v5h-1v-3l-1.19 2.99h-.62l-1.19-3V27H6v-5ZM12.95 27H12l1.52-5h.96L16 27h-.94L14 23.23 12.95 27Zm-.09-2h2.27v1h-2.27v-1ZM17 27v-5h1.96c.99 0 1.85.44 1.85 1.5 0 .96-.65 1.5-1.86 1.5h-1.4v-.75h1.27c.54 0 1.02-.15 1.02-.75s-.48-.74-1.02-.74H18V27h-1Zm2.7-2.27L21 27h-1.06l-1.27-2.43 1.03.16ZM33 35v-5h1.96c.99 0 1.85.44 1.85 1.5 0 .96-.65 1.5-1.86 1.5h-1.4v-.75h1.27c.54 0 1.02-.15 1.02-.75s-.48-.74-1.02-.74H34V35h-1Zm2.7-2.27L37 35h-1.06l-1.27-2.43 1.03.16ZM22 27v-5h1v2.3l1.89-2.3h1.1l-1.92 2.24L26 27h-1.08l-1.43-2.1-.49.61V27h-1ZM31 24.5c0 1.2-.64 2.5-2 2.5-1.36 0-2-1.3-2-2.5s.64-2.5 2-2.5c1.36 0 2 1.3 2 2.5Zm-1 0c0-.75-.1-1.7-1-1.7s-1 .95-1 1.7c0 .76.1 1.7 1 1.7s1-.94 1-1.7ZM37 27v-5h3v.76h-2v1.36h1.5v.76H38v1.36h2V27h-3ZM38 35v-5h3v.76h-2v1.36h1.5v.76H39v1.36h2V35h-3ZM15 35v-5h3v.76h-2v1.36h1.5v.76H16v1.36h2V35h-3ZM45 22v5h-.78L42 23.8V27h-1v-5h.79L44 25.3V22h1ZM23 30v5h-.78L20 31.8V35h-1v-5h.79L22 33.3V30h1ZM31 30h1v3.22c0 1.12-.94 1.78-2 1.78s-2-.66-2-1.78V30h1v3.14c0 .64.38 1.06 1 1.06s1-.42 1-1.06V30ZM45.02 31.4a.64.64 0 0 0-.3-.48c-.17-.12-.4-.17-.68-.17-.2 0-.37.02-.5.08a.75.75 0 0 0-.33.22c-.08.1-.11.2-.12.33 0 .1.03.19.08.26.05.08.12.14.2.2.1.04.19.09.3.12l.31.09.49.11c.2.04.38.1.57.18.55.21.96.6.96 1.22 0 1.06-1.09 1.44-1.98 1.44-.4 0-.75-.06-1.05-.18-.3-.11-.53-.28-.7-.5-.17-.23-.26-.5-.27-.83h.93a.7.7 0 0 0 .17.42c.1.12.22.2.38.25.16.06.34.09.54.09.42 0 1-.17 1-.7 0-.45-.55-.59-.9-.67l-.6-.14c-.42-.1-.76-.26-1.01-.47a1.04 1.04 0 0 1-.37-.84c0-.28.08-.53.25-.75.16-.21.4-.38.68-.5.29-.12.62-.18.98-.18.37 0 .7.06.97.18.28.12.5.28.66.5.16.2.24.45.25.72h-.91Z"/></svg>