<!-- by TradingView --><svg width="56" height="56" viewBox="0 0 56 56" xmlns="http://www.w3.org/2000/svg"><path fill="#F0F3FA" d="M0 0h56v56H0z"/><path d="M27.5 43V30.07c0-1.26-.49-2.47-1.36-3.37L13 13v5.5c0 .78.31 1.54.86 2.1L20 27.24v.99l-7-7.52v5.6c0 .8.31 1.55.86 2.12L20 35.07v.98l-7-7.51v5.43c0 .78.3 1.52.83 2.08L20.44 43h7.06ZM19.5 43h-4.45A2.06 2.06 0 0 1 13 40.93v-4.76L19.5 43ZM28.5 43V30.07c0-1.26.49-2.47 1.36-3.37L43 13v5.5c0 .78-.31 1.54-.86 2.1L36 27.2v.99l7-7.47v5.6c0 .8-.31 1.55-.86 2.12L36 35V36l7-7.46v5.43c0 .78-.3 1.52-.83 2.08L35.56 43H28.5ZM36.5 43h4.45c1.13 0 2.05-.93 2.05-2.07v-4.76L36.5 43Z" fill="#0A4595"/></svg>