<!-- by TradingView --><svg width="56" height="56" viewBox="0 0 56 56" xmlns="http://www.w3.org/2000/svg"><path fill="#F0F3FA" d="M0 0h56v56H0z"/><path d="M41.1 25.26c.26 6.38-4.76 12.7-7.31 15.05 2.35-8.5 1.56-14.11.88-15.85.7 7.4-1.04 13.65-2 15.85-1.08-.4-3.92-2.32-6.6-6.76C22.75 28 24.5 24.3 28.7 18.18c3.37-4.9 3.05-8.16 2.47-9.18 3.9 2.66 9.62 8.3 9.94 16.26Z" fill="url(#a)"/><path d="M12 32.99c3.24 14.17 14.34 11.7 19.48 8.7-5.66 0-9.09-1.83-10.1-2.75a30.2 30.2 0 0 0 11.3 1.86c-.32-6.93-7.4-9.5-13.52-7.81-4.9 1.35-6.82.56-7.16 0Z" fill="url(#b)"/><path d="M39.75 38.64c.62 0 1.13-.51 1.13-1.14 0-.64-.5-1.15-1.13-1.15a1.14 1.14 0 0 0-1.13 1.21c-1.03.27-2.83 1.3-4.36 2.8-1.66 1.64-5.1 3.08-6.6 3.6 7.65-1.44 10.7-4.06 11.54-5.47.16.1.35.15.55.15Z" fill="#F7AF37"/><path d="M42.43 31.06a3 3 0 0 1 1.5 1.94c.27.9-.29 1.8-1 2.53-.74.75-1.69 1.36-2.34 1.7l-.17-.24c.4-.37.95-1 1.33-1.68.4-.69.58-1.37.33-1.88a3.28 3.28 0 0 0-1.35-1.48.75.75 0 0 0-.26-.07c-.07 0-.11 0-.13.03-.03.02-.05.06-.06.14-.02.1 0 .22.04.4l-.3.07c-.04-.2-.06-.36-.04-.5a.52.52 0 0 1 .16-.35c.1-.08.22-.1.34-.1.12 0 .25.05.38.1.5.24 1.12.86 1.5 1.62.31.67.05 1.47-.35 2.17-.2.35-.43.68-.66.97.46-.31.95-.7 1.36-1.11.7-.72 1.14-1.51.93-2.24a2.71 2.71 0 0 0-1.33-1.74.72.72 0 0 0-.26-.07c-.07 0-.1.02-.11.03-.01 0-.03.04-.02.1 0 .08.03.19.11.33l-.26.15a1.18 1.18 0 0 1-.16-.45.43.43 0 0 1 .11-.35c.1-.09.21-.12.33-.12.12 0 .25.04.38.1Z" fill="#F7AF37"/><ellipse cx="40.48" cy="32.74" rx=".51" ry=".52" fill="#F7AF37"/><ellipse cx="42.17" cy="31.94" rx=".51" ry=".52" fill="#F7AF37"/><defs><linearGradient id="a" x1="36.26" y1="11.09" x2="28.86" y2="33.26" gradientUnits="userSpaceOnUse"><stop stop-color="#F4B12C"/><stop offset="1" stop-color="#EE607A"/></linearGradient><linearGradient id="b" x1="31.8" y1="37.33" x2="22.4" y2="44.57" gradientUnits="userSpaceOnUse"><stop stop-color="#F59B43"/><stop offset="1" stop-color="#EF4989"/></linearGradient></defs></svg>