<!-- by TradingView --><svg width="56" height="56" viewBox="0 0 56 56" xmlns="http://www.w3.org/2000/svg"><path fill="#F0F3FA" d="M0 0h56v56H0z"/><path d="M51 22h1v13h-1z"/><path d="M52 34v1H4v-1zM44 28.28V30h-1v-4h1v1.44h3V26h1v4h-1v-1.72h-3ZM38 30v-3h-2v-1h5v1h-2v3h-1ZM30.22 27c-.15 0-.22.07-.22.2v1.59c0 .14.07.21.22.21h2.56c.15 0 .22-.07.22-.21V27.2c0-.13-.07-.2-.22-.2h-2.56Zm-.12 3c-.73 0-1.1-.32-1.1-.97v-2.06c0-.65.37-.97 1.1-.97h2.8c.73 0 1.1.32 1.1.97v2.06c0 .65-.37.97-1.1.97h-2.8ZM27 26v3.31c0 .46-.23.69-.68.69H26a.68.68 0 0 1-.58-.27L23 27v3h-1v-3.31c0-.46.23-.69.68-.69H23c.25 0 .44.1.58.27L26 29v-3h1ZM16 30c-.66 0-1-.29-1-.86V26h1v2.8c0 .13.07.2.2.2h2.6c.13 0 .2-.07.2-.2V26h1v3.14c0 .57-.34.86-1 .86h-3ZM8 26c.24 0 .4.1.5.27L10 29l1.5-2.73c.1-.18.26-.27.5-.27h.35c.43 0 .65.23.65.69V30h-1v-2.43l-1.24 2.16a.47.47 0 0 1-.44.27h-.64c-.2 0-.34-.1-.44-.27L8 27.57V30H7v-3.31c0-.46.22-.69.65-.69H8Z"/></svg>