<!-- by TradingView --><svg width="56" height="56" viewBox="0 0 56 56" xmlns="http://www.w3.org/2000/svg"><path fill="#F0F3FA" d="M0 0h56v56H0z"/><path d="M26 14h5v8.73L37.55 14H43v21h-6V24.5L30.18 35H25v-9.73L18.45 35H11l15-21Z" fill="#232021"/><path d="m37 14-5 6v-6h.56v4.5L36.3 14h.7Z" fill="#232021"/><path d="M38 39v-3h.83l1.67 2.13L42.17 36H43v3h-.86v-2.02l-1.4 1.85h-.47l-1.41-1.85V39H38ZM33.48 36.05a9.63 9.63 0 0 1 2.76.12c.19.06.34.12.45.2.12.08.2.16.24.25a.6.6 0 0 1 .07.29v1.19c0 .1-.02.2-.07.29a.7.7 0 0 1-.24.24c-.11.08-.26.15-.45.2a9.54 9.54 0 0 1-3.48 0 1.53 1.53 0 0 1-.45-.2.75.75 0 0 1-.24-.24.63.63 0 0 1-.07-.3v-1.18c0-.11.02-.2.07-.3a.75.75 0 0 1 .24-.24c.11-.08.26-.14.45-.2.18-.05.42-.09.72-.12Zm2.51.9-.03-.15a.41.41 0 0 0-.13-.15.74.74 0 0 0-.26-.12 5.33 5.33 0 0 0-2.15 0 .81.81 0 0 0-.25.12c-.06.05-.1.1-.13.15a.37.37 0 0 0-.03.15v1.1c0 .06.01.1.03.15.02.05.07.1.13.15.07.05.15.09.26.12a6.1 6.1 0 0 0 2.15 0c.1-.03.19-.07.25-.12.06-.05.1-.1.13-.15.02-.04.03-.1.03-.15v-1.1ZM29.52 38.95a9.56 9.56 0 0 1-2.76-.12 1.54 1.54 0 0 1-.45-.2.75.75 0 0 1-.24-.25.63.63 0 0 1-.07-.29v-1.18c0-.11.02-.2.07-.3a.75.75 0 0 1 .24-.24c.11-.08.26-.14.45-.2a9.66 9.66 0 0 1 3.48 0c.19.06.34.12.45.2.12.08.2.16.24.25a.6.6 0 0 1 .07.29v.24h-1v-.2c0-.05-.02-.1-.04-.15a.41.41 0 0 0-.13-.15.74.74 0 0 0-.26-.12 5.35 5.35 0 0 0-2.15 0 .82.82 0 0 0-.25.12c-.06.05-.1.1-.13.15a.36.36 0 0 0-.03.15v1.1c0 .05 0 .1.03.15.02.05.07.1.13.15.07.05.15.09.26.12a6.1 6.1 0 0 0 2.15 0c.1-.03.19-.07.25-.12.06-.05.1-.1.13-.15.02-.04.03-.1.03-.15v-.2H31v.24c0 .11-.02.2-.07.3a.7.7 0 0 1-.24.24c-.11.08-.26.14-.45.2-.18.05-.42.09-.72.12ZM26 36.43h-3.01v1h2.91v.43H23V39H22v-3h4v.43ZM17 39v-3h3.92v.43h-2.96v.83h2.76v.39h-2.76v.92H21V39h-4ZM11 39v-3h.83l1.67 2.13L15.17 36H16v3h-.86v-2.02l-1.4 1.85h-.47l-1.41-1.85V39H11Z" fill="#DA372F"/><path fill="#232021" d="M11 40h32v1H11z"/></svg>