<!-- by TradingView --><svg width="56" height="56" viewBox="0 0 56 56" xmlns="http://www.w3.org/2000/svg"><path fill="#F0F3FA" d="M0 0h56v56H0z"/><path d="M32.04 15.36a1.3 1.3 0 0 1-.2-.73c.01-.18.12-.35.33-.52.2-.16.36-.34.47-.54l.46-.84c.03-.05.02-.1-.03-.13H33c.2-.28.46-.47.8-.6.03 0 .05 0 .05.04l.02.04v.02c-.33.2-.45.47-.36.83 0 .05 0 .1-.02.16a.9.9 0 0 1-.2.3.37.37 0 0 0-.09.13.65.65 0 0 1-.2.28c-.08.06-.09.12-.03.19.03.04.06.09.06.14.02.06 0 .11-.04.16l-.95 1.07Z" fill="#FEEABE"/><path d="M39.5 14.63c-.22-.09-.48-.08-.78.03-.26.1-.41.3-.45.58v.17l-.02.01h-.05c-.05-.01-.08 0-.09.05-.02.12-.1.18-.21.18-.07 0-.1-.03-.12-.1a.3.3 0 0 1 .01-.17l.2-.48c.01-.05.04-.1.08-.14.16-.17.35-.3.54-.38.45-.19.9-.32 1.33-.4.33-.06.63-.17.93-.33l1.34-.7a14.99 14.99 0 0 1 1.44-.6v.03c-.84.41-1.64.87-2.42 1.37-.2.14-.5.28-.86.43-.3.12-.58.27-.86.45Z" fill="#F4C762"/><path d="M32.43 13.2c-.42.73-.96.97-1.6.72.53-.51 1.03-.94 1.5-1.3a.2.2 0 0 1 .14-.04c.08 0 .1.04.04.1l-.27.3a.17.17 0 0 0-.04.15c.02.05.05.1.1.12.02 0 .06-.01.13-.05Z" fill="#FEEABE"/><path d="M33 12.6h.07c.05.03.06.08.03.13l-.46.84c-.11.2-.27.38-.47.54-.2.17-.32.34-.34.52-.02.2.05.45.2.73-.2.12-.34.24-.44.37-.09.1-.19.16-.29.19L31 16l-.4.2c.05-.1.04-.18-.03-.21a.38.38 0 0 0-.09-.03c-.04-.01-.07-.04-.08-.08a.4.4 0 0 1 .06-.35c.04-.05.1-.09.16-.1h.13c.16.02.2-.04.14-.19-.08-.16-.2-.19-.34-.07-.25.2-.49.35-.73.48a.98.98 0 0 0-.38.44.43.43 0 0 1-.29.23l-.07.02c-.14.04-.19-.01-.14-.15a3.4 3.4 0 0 1 1.01-1.56c.05-.04.1-.06.16-.07a.98.98 0 0 0 .6-.33c.03-.04.02-.08-.04-.1l-.08-.02c.13-.07.2-.14.24-.2.64.25 1.18.01 1.6-.72l.57-.6Z" fill="#F4C762"/><path d="M40.05 13.81h-.02c-.03-.05.02-.13.14-.25.12-.12.29-.25.49-.39l.05-.04c.2-.13.39-.23.55-.3.16-.07.26-.08.29-.04v.02l-1.5 1Z" fill="#FEEABE"/><path d="M38.05 13.64c.43-.4.75-.76.71-.8-.03-.03-.4.27-.83.68-.42.4-.74.76-.7.8.03.02.4-.28.82-.68Z" fill="#F4C762"/><path d="m37.43 17.97-2.65 1.28c-.3.12-.55.2-.75.2-.42.05-.43.14-.04.3.1.03.26.03.5 0 .02.03.05.05.08.06.03.02.04.04 0 .06l-.04.04c-.1.03-.25.05-.45.07-.3.04-.52.08-.66.14-.37.14-.82.18-1.33.14-.08 0-.18-.03-.31-.08-.12-.05-.21-.07-.27-.08-.1 0-.21.02-.32.1a.3.3 0 0 1-.14.04l-.46.02c-.08 0-.11.04-.1.12.04.1.1.16.2.2.36.11.72.11 1.08 0 .26-.08.45-.12.59-.12.07 0 .17 0 .31.02.22.02.39.03.5.02.56-.06 1.13-.1 1.7-.13.24 0 .47-.04.7-.09a2.9 2.9 0 0 1 .98.02v.05c0 .02-.02.04-.05.04a7 7 0 0 0-.99.08c-.92.17-1.8.23-2.63.19-.25-.01-.59.1-1 .31L31 21c-.23.02-.45 0-.66-.07a2.87 2.87 0 0 0-.86-.13c-.12 0-.17.06-.14.18a.4.4 0 0 0 .12.22c.1.08.21.13.34.13.34 0 .69-.03 1.03-.1.1-.03.19-.03.29-.01.32.05.38.15.15.27l-1.34.33a.2.2 0 0 1-.17-.04.99.99 0 0 0-.65-.2.16.16 0 0 1-.16-.07.5.5 0 0 0-.25-.18c-.04-.02-.07 0-.1.04l-.19.42a.25.25 0 0 0-.01.18c.02.07.06.12.12.15.13.08.27.12.43.12.12 0 .27-.03.44-.08.46-.15.92-.18 1.38-.1.07 0 .13.02.16.06.03.04.03.08-.02.1l-.05.03c-.36.04-.71.12-1.05.26-.14.05-.35.08-.63.09h-.06c-.24 0-.25.06-.04.16.07.04.16.06.26.08.11.02.2.02.28.01a12.3 12.3 0 0 1 1.25-.07l.01.07c0 .03 0 .04-.03.05-.37.04-.74.07-1.1.08-.17 0-.35.03-.54.08-.11.02-.28.07-.5.14-.3.08-.51.14-.67.17-.09.02-.12.06-.1.15l.11.22-.87.29c-.4.01-.77-.04-1.12-.15a1.8 1.8 0 0 0-.48-.57.14.14 0 0 0-.13-.02.14.14 0 0 0-.1.09.51.51 0 0 1-.2.24l-.26.14a1.67 1.67 0 0 0-.4.25c-.43.31-.77.54-1 .68-.38.24-.74.4-1.06.5l-.92.2c.42-.13.54-.29.35-.48l.36.08c.06 0 .1 0 .15-.04a.49.49 0 0 0 .15-.22l.06-.26c.02-.13.05-.22.07-.28.24-.6.51-1.2.82-1.79a.15.15 0 0 0 0-.15.9.9 0 0 1-.08-.8c.17-.45.4-.84.68-1.18.17-.2.33-.42.48-.64.18-.26.43-.5.75-.7.06-.04.1-.09.13-.15.14-.32.35-.6.63-.85a.99.99 0 0 0 .2-.27.93.93 0 0 1 .2-.28c.24-.2.6-.52 1.05-.97a12.77 12.77 0 0 1 2.9-2.2l.18-.09.08.03c.06.01.07.05.03.1a.98.98 0 0 1-.59.32.33.33 0 0 0-.16.07 3.4 3.4 0 0 0-1.01 1.56c-.05.14 0 .19.14.15l.07-.02a.43.43 0 0 0 .29-.23c.1-.21.23-.36.38-.44.24-.13.48-.29.73-.48.15-.12.26-.1.34.07.07.15.02.21-.14.19h-.13a.25.25 0 0 0-.16.1.4.4 0 0 0-.06.35c0 .04.04.07.08.08l.09.03c.07.03.08.1.03.22-.58.54-1.17 1.07-1.77 1.6a2.8 2.8 0 0 0-.47.51c-.15.2-.32.39-.53.54-.13.1-.25.22-.37.38a6.61 6.61 0 0 0-.38.56.26.26 0 0 0-.05.16c0 .08 0 .15-.03.22a.19.19 0 0 1-.06.1c-.47.35-.7.66-.7.93-.02.26.07.29.23.09a4.01 4.01 0 0 1 .45-.43c.09-.06.15-.1.18-.14.04-.05.07-.1.08-.17l.01-.2a.7.7 0 0 1 .08-.35c.25-.4.6-.79 1.03-1.15a.3.3 0 0 0 .07-.1l.07-.14a.1.1 0 0 1 .06-.05.1.1 0 0 1 .08 0l.05.03c.04.02.05.04.03.08l-.08.15c-.12.24-.24.4-.35.5-.22.17-.39.35-.5.54-.14.24-.2.47-.16.7 0 .04.03.07.06.1.03.02.07.03.1.03.15-.02.3-.01.43.01.21.04.26-.03.14-.2-.12-.19-.06-.35.16-.5a.24.24 0 0 0 .07-.32.38.38 0 0 1-.06-.26c.02-.1.07-.18.14-.24.13-.1.23-.23.3-.37a.2.2 0 0 1 .12-.12.7.7 0 0 0 .31-.21c.2-.24.4-.44.62-.62.31-.27.56-.4.75-.4a.2.2 0 0 0 .16-.07l.35-.41.71-.8a.2.2 0 0 1 .06 0c.04 0 .07.03.07.07v.08l-.09.27c-.2.24-.42.47-.66.69a.93.93 0 0 0-.3.52l-.07.6c0 .06-.03.1-.08.1l-.18.06a.23.23 0 0 0-.13.09 1.6 1.6 0 0 1-.23.23c-.12.11-.2.2-.23.26a.43.43 0 0 0-.05.35c.02.06.05.1.1.13a1 1 0 0 0 1.03.03.24.24 0 0 0 .11-.11c.11-.23.28-.44.5-.62.05-.04.06-.1.05-.16l-.01-.07a.07.07 0 0 0-.04-.05.08.08 0 0 0-.07 0 .37.37 0 0 1-.36-.08c-.05-.04-.05-.08.01-.12.09-.05.14-.1.18-.16a1 1 0 0 0 .3-.64c.01-.4.12-.7.31-.91.23-.25.48-.47.75-.66.16-.1.32-.18.5-.21.28-.06.58-.2.88-.43.1-.08.2-.21.32-.4l.18-.28a11.17 11.17 0 0 1 1.24-1.2v.02c-.44.48-.88 1-1.32 1.53-.03.03-.02.06 0 .08.04.03.11.04.23.02l-.65.8a.2.2 0 0 0-.05.14l.06.5-.12-.46a.19.19 0 0 0-.13-.14.2.2 0 0 0-.19.03c-.54.41-.69.76-.43 1.04.04.15 0 .29-.14.41a.19.19 0 0 1-.2.04.18.18 0 0 1-.13-.17l-.03-.43c.03-.1.03-.21 0-.3-.02-.06-.06-.08-.1-.05-.45.26-.66.58-.63.98.04.09.05.2.02.33a1.3 1.3 0 0 0-.03.32c0 .14.03.27.06.4.02.05.05.08.1.1.16.02.31.03.47 0 .27-.15.5-.37.68-.66.1-.16.2-.25.3-.29.53-.18.86-.4 1-.64.04-.09.11-.2.22-.34.11-.15.19-.26.23-.35.02-.03.02-.05 0-.07-.02-.03-.07-.04-.13-.02h-.06c-.04 0-.06-.03-.07-.07a.32.32 0 0 1 0-.15l.42-.34a.4.4 0 0 0 .1-.13l.05-.1c.1-.2.2-.33.3-.4.22-.17.44-.32.67-.45.2-.12.43-.2.66-.23a2.3 2.3 0 0 0 1.15-.5c.39-.31.82-.6 1.32-.83h.04v.05l-.87.58c-.17.1-.38.28-.64.53l-.23.22a1.8 1.8 0 0 1-.58.34c-.26.1-.37.27-.34.5-.16.19-.31.38-.44.57a.82.82 0 0 1-.2.22c-.3.2-.4.17-.33-.1.02-.04.08-.1.17-.2l.33-.38a.84.84 0 0 0 .19-.4c0-.07-.03-.09-.1-.05-.4.25-.67.5-.81.77-.05.1-.04.2.04.28.02.11 0 .2-.1.24-.15 0-.25.07-.3.17a.25.25 0 0 0 .02.21c.04.07.1.12.17.14.14.04.22-.02.26-.17a.78.78 0 0 1 .1-.24c.1 0 .18.04.24.14.04.05.08.08.15.07.06 0 .1-.03.13-.1.12-.27.32-.42.59-.44.06 0 .1-.03.1-.1a.54.54 0 0 0-.1-.4c-.03-.04-.02-.09.02-.13l.07-.06c.15-.1.34-.12.56-.08a.3.3 0 0 0 0 .17c0 .07.04.1.1.1.12 0 .2-.06.22-.18.02-.04.05-.06.1-.05h.04l.01-.01v-.17l.93-.33c.05-.02.1-.03.16-.03.4.03.77-.03 1.11-.2.77-.32 1.54-.67 2.3-1.05a6.5 6.5 0 0 1 1.05-.44 43.43 43.43 0 0 1 1.1-.3l-.02.02c-.54.18-.95.35-1.25.51-.85.48-1.8.93-2.84 1.37a.09.09 0 0 0-.06.07c0 .03 0 .05.02.07.06.06.13.09.22.07h.05c.37-.07.65-.14.83-.21a8.75 8.75 0 0 1 2.59-.66v.01l-.01.02c-.87.23-1.7.52-2.5.87-.23.1-.22.16.02.2.27.04.55-.02.83-.16a.33.33 0 0 1 .18-.04h.08c.1 0 .1.01 0 .04a8.4 8.4 0 0 1-1.14.28.91.91 0 0 1-.42-.02.21.21 0 0 0-.14 0c-.4.15-.73.36-1 .63a.1.1 0 0 0-.02.1.1.1 0 0 0 .08.08.7.7 0 0 0 .37 0c.6-.14 1.23-.24 1.87-.3.05 0 .1-.02.15-.04.07-.05.12-.06.15-.06.24.04.24.09 0 .14l-2.02.36c-.33.06-.66.2-.97.42-.29.2-.26.3.1.29a8.51 8.51 0 0 0 1.98-.33.71.71 0 0 0 .25-.12c.04-.03.04-.03.02.02a.15.15 0 0 1-.06.05 8.2 8.2 0 0 1-2.26.7c-.27.04-.53.1-.77.19-.14.05-.33.08-.58.1h-.16a.3.3 0 0 0-.16.06c-.26.19-.56.3-.9.35Z" fill="#DB9715"/><path d="M34.06 14.6c-.39.48-.66.89-.6.92.04.04.39-.31.77-.78.38-.47.65-.88.6-.92-.05-.03-.4.32-.77.79Z" fill="#F4C762"/><path d="M34.98 16.18a.32.32 0 0 0 0 .15c0 .04.03.06.07.06h.06c-.19-.01-.31.12-.38.42a.22.22 0 0 1-.16.17l-.98.34c-.06.02-.08.05-.07.11.01.08 0 .16-.04.24a.15.15 0 0 1-.12.08.52.52 0 0 0-.37.22 1.7 1.7 0 0 1-.56.5.13.13 0 0 0-.06.1c-.03.08.01.13.1.16.1.02.21.04.34.04-.16.03-.31.02-.46 0a.12.12 0 0 1-.1-.1 2.1 2.1 0 0 1-.07-.4c-.01-.06 0-.17.03-.32a.54.54 0 0 0-.02-.33c.46.14.7-.07.73-.63l.02.43c0 .09.05.14.13.17.08.04.15.02.21-.04.14-.12.18-.26.14-.4.26-.23.55-.4.87-.48l-.06-.5c0-.06.01-.1.05-.15l.65-.79c.63-.4 1.2-.87 1.71-1.42.02-.03.04-.02.06 0l.03.05c.02.02.02.03 0 .05-.44.4-.8.77-1.06 1.14-.13.2-.3.35-.5.47-.24.16-.44.37-.58.64a.14.14 0 0 0 0 .1c0 .03.02.06.06.08.14.09.25.04.33-.16Z" fill="#FFAB19"/><path d="M32.05 16.35v-.08c0-.04-.02-.06-.06-.07a.2.2 0 0 0-.06 0c.06-.13.18-.3.35-.52a3.9 3.9 0 0 0 .28-.4c.11-.2.2-.32.28-.39.32-.27.62-.58.89-.92.06-.08.1-.07.1.03s-.03.18-.1.26c-.24.3-.5.6-.79.89a.79.79 0 0 0-.11.18.76.76 0 0 1-.12.2c-.25.25-.47.52-.66.82ZM28.8 14.4c.17-.1.36-.18.57-.22.07 0 .08.01.03.07-.1.12-.25.25-.44.37a7.56 7.56 0 0 1-.77.42.27.27 0 0 0-.12.13.73.73 0 0 1-.28.33c-.3.17-.32.14-.09-.1.2-.2.35-.4.47-.58.05-.08.1-.14.18-.19l.2-.1.24-.12Z" fill="#FEEABE"/><path d="M21.26 24.66c-.09.06-.2.03-.36-.1a.36.36 0 0 0-.14-.07c-.14-.04-.22-.12-.22-.23.08.05.15.06.21.04.05-.02.09-.07.1-.14.1-.56.26-1.12.47-1.67a638.35 638.35 0 0 0 2.98-7.97l.05.04c.01.01.02.03.01.04a95.87 95.87 0 0 1-2.59 7.92 9.92 9.92 0 0 0-.51 2.14Z" fill="#DB9715"/><path d="M39.5 14.63c.1.18.42.2.96.05a2.2 2.2 0 0 1-1.11.2c-.06 0-.1 0-.16.03l-.92.33c.04-.29.19-.48.45-.58.3-.1.56-.12.79-.03Z" fill="#FEEABE"/><path d="M39.49 15.28c-.09.18-.22.32-.4.43a.23.23 0 0 0-.1.12.55.55 0 0 1-.28.32.14.14 0 0 1-.13 0c-.06-.03-.08-.08-.08-.14 0-.04.01-.08.04-.1.1-.1.18-.24.23-.4.03-.05.06-.1.12-.12l.48-.22c.16-.08.2-.04.12.11Z" fill="#F4C762"/><path d="M37.03 15.42c.05 0 .11 0 .2.04l-.07.06c-.04.04-.05.09-.02.13.1.13.12.27.1.4 0 .06-.04.1-.1.1-.27.02-.47.17-.59.45a.15.15 0 0 1-.13.1.15.15 0 0 1-.15-.08c-.06-.1-.14-.14-.24-.14-.04-.07-.13-.1-.25-.11.09-.05.12-.13.1-.24.08.05.14.04.17-.03-.07.27.04.31.33.1a.83.83 0 0 0 .2-.2c.14-.2.29-.4.45-.58Z" fill="#FCE79A"/><path d="M28.3 16.23c-.03-.01-.04-.03-.02-.05v-.02c.12-.19.23-.34.34-.45.1-.11.19-.15.24-.13.05.03.06.12.02.27-.04.15-.12.32-.23.5v.03c-.02.02-.04.03-.06.01l-.3-.16Z" fill="#F4C762"/><path d="M31.6 15.73c-.06.27-.18.5-.35.7a.5.5 0 0 0 0-.07c0-.04-.03-.06-.06-.07a.08.08 0 0 0-.1.02l-.4.47c-.04.05-.05.1-.01.16l.02.05.04.03c.02 0 .03 0 .05-.02a.8.8 0 0 0 .22-.25c0 .19.08.27.2.25l-.34.4a.2.2 0 0 1-.16.08c-.19 0-.44.13-.75.4a5.3 5.3 0 0 0-.62.62.7.7 0 0 1-.3.2.2.2 0 0 0-.13.13.95.95 0 0 1-.3.37.37.37 0 0 0-.14.24c-.01.1 0 .18.05.27a.24.24 0 0 1-.06.32c-.22.14-.28.3-.16.49.12.17.07.24-.14.2a1.72 1.72 0 0 0-.42-.01c-.04 0-.08-.01-.11-.04a.15.15 0 0 1-.06-.1c-.04-.22.02-.45.16-.69.11-.19.28-.37.5-.54.1-.1.23-.26.35-.5l.08-.15c.02-.04 0-.06-.03-.08l-.05-.02a.1.1 0 0 0-.08 0 .1.1 0 0 0-.06.04l-.07.15a.3.3 0 0 1-.07.09c-.44.36-.78.75-1.03 1.15a.7.7 0 0 0-.08.36v.2a.35.35 0 0 1-.09.16c-.03.04-.1.08-.18.14l-.15.12-.3.3c-.16.2-.25.18-.24-.08 0-.27.24-.58.7-.94a.19.19 0 0 0 .07-.09.62.62 0 0 0 .03-.22c0-.06.01-.11.05-.16l.08-.13.3-.43c.12-.16.24-.28.37-.38.21-.15.38-.33.53-.54.12-.18.28-.35.47-.52.6-.52 1.2-1.05 1.77-1.6l.4-.2.3-.1c.1-.02.2-.09.3-.18Z" fill="#FEEABE"/><path d="M30.08 16.33c.14-.11.2-.27.14-.36-.07-.1-.25-.07-.4.04-.15.1-.21.27-.14.36.07.09.25.07.4-.04Z" fill="#F4C762"/><path d="m39.05 16.25.46-.27c.06-.03.1-.02.16.02l.15.13c.03.03.04.06.04.1 0 .05-.02.08-.06.1l-.16.1a.13.13 0 0 1-.06.02l-.45.04c-.08 0-.12-.03-.14-.1-.02-.06 0-.1.06-.14ZM34.29 16.67c-.32.09-.61.25-.87.47-.26-.28-.11-.63.43-1.04a.2.2 0 0 1 .2-.03c.06.02.1.07.12.14l.12.46Z" fill="#FEEABE"/><path d="M27.81 16.99a.5.5 0 0 1-.1-.07.16.16 0 0 1-.06-.16c.04-.27.22-.46.53-.56.02 0 .05 0 .07.02.01.02.02.04 0 .06a.76.76 0 0 0-.05.38c0 .08.05.12.13.12.05 0 .08.03.1.1 0 .03 0 .05-.02.08a.91.91 0 0 1-.4.36.12.12 0 0 0-.06.09.97.97 0 0 1-.57.73c-.22.1-.28.05-.16-.16.15-.28.35-.48.6-.6a.2.2 0 0 0 .12-.2.2.2 0 0 0-.13-.2Z" fill="#FCE79A"/><path d="m31.25 16.43-.25.32a.8.8 0 0 1-.21.25.06.06 0 0 1-.05.02.06.06 0 0 1-.04-.03l-.02-.05c-.04-.05-.03-.1.01-.16l.4-.47a.08.08 0 0 1 .1-.02c.03 0 .05.03.06.07a.5.5 0 0 1 0 .07Z" fill="#F4C762"/><path d="M35.1 16.4c.07-.02.11-.01.13.02.02.02.03.04.01.07-.04.09-.12.2-.23.35l-.23.34c-.13.25-.46.46-.98.64-.11.04-.22.13-.31.29-.19.3-.41.51-.68.66-.13 0-.24-.02-.34-.04-.09-.03-.13-.08-.1-.17 0-.04.03-.06.06-.08.22-.13.4-.3.56-.51.09-.12.21-.2.37-.21.06-.01.1-.04.12-.09a.36.36 0 0 0 .04-.24c-.01-.06.01-.1.07-.11l.98-.34a.22.22 0 0 0 .16-.17c.07-.3.2-.43.38-.41ZM35.78 16.37c.12 0 .2.04.25.11a.78.78 0 0 0-.1.24c-.04.15-.12.2-.26.17a.26.26 0 0 1-.17-.14.25.25 0 0 1-.01-.21c.04-.1.13-.16.29-.17ZM39.28 17.01a1.25 1.25 0 0 1-.75.14c-.31-.04-.5-.19-.55-.46 0-.04.01-.09.05-.12a.3.3 0 0 1 .22-.07c.08 0 .15.04.2.1.06.08.15.14.27.18.07.02.18.05.33.07l.21.04c.03 0 .05.03.06.05 0 .03-.01.06-.04.07Z" fill="#FEEABE"/><path d="M28.75 17.48c-.26.18-.47.42-.62.72a.27.27 0 0 1-.1.1.73.73 0 0 0-.26.26c-.13.2-.3.32-.52.33-.14.01-.23-.05-.25-.19v-.1c.02-.08.07-.12.15-.12l.6-.06c.06 0 .1-.04.12-.1l.13-.34a.6.6 0 0 1 .1-.18l.46-.55c.04-.05.1-.09.15-.12a.55.55 0 0 0 .28-.33.28.28 0 0 1 .12-.14c.1-.07.22-.11.35-.12a.1.1 0 0 1 .1.04.1.1 0 0 1-.01.1c-.11.17-.25.29-.43.37a.26.26 0 0 0-.13.13.75.75 0 0 1-.24.3Z" fill="#F4C762"/><path d="M31.97 16.62c-.01.07.05.12.18.14-.2.2-.3.5-.31.91a1 1 0 0 1-.3.64c-.17.09-.3.11-.42.06-.06-.02-.09-.06-.09-.11l-.01-.43a.93.93 0 0 1 .29-.52c.24-.22.46-.45.66-.7ZM32.92 16.99c-.03.56-.27.77-.73.63-.03-.4.18-.72.62-.98.05-.03.09-.01.1.04.04.1.04.2.01.3ZM36.6 17.05l.79-.17c.05 0 .09 0 .12.05l.26.34a.1.1 0 0 1 .01.13c-.02.04-.06.06-.1.06h-.9a.11.11 0 0 1-.1-.05l-.15-.16a.11.11 0 0 1-.03-.12.11.11 0 0 1 .1-.08Z" fill="#FEEABE"/><path d="M26.35 17.97c.07-.13.13-.24.2-.31.07-.1.17-.18.29-.24.1-.06.22-.18.36-.36l.11-.14a.08.08 0 0 1 .07-.03c.02 0 .04 0 .06.03.08.12.1.26.06.42-.01.06-.05.1-.11.1a.77.77 0 0 0-.34.12.23.23 0 0 0-.1.12c-.11.3-.17.62-.16.94 0 .06-.02.12-.07.16l-.43.45a.11.11 0 0 1-.1.03.1.1 0 0 1-.08-.06.55.55 0 0 0-.24-.23.17.17 0 0 1-.1-.18c.03-.3.14-.5.35-.6.1-.05.19-.13.23-.22Z" fill="#FCE79A"/><path d="M36.73 17.82c.02.01.02.03.01.05-.02.05-.07.08-.14.08h-.77a.58.58 0 0 1-.36-.1.63.63 0 0 1-.24-.32.12.12 0 0 1 .03-.13.13.13 0 0 1 .12-.04c.47.08.92.24 1.35.46Z" fill="#FEEABE"/><path d="m31.02 17.83.01.43c0 .05.03.1.09.11.11.05.25.03.42-.06a.44.44 0 0 1-.18.16c-.06.04-.06.08 0 .12.1.09.23.11.35.07l.07.01.04.05.01.07c.02.06 0 .12-.05.16-.22.18-.39.39-.5.62a.24.24 0 0 1-.11.1 1 1 0 0 1-1.03-.02.21.21 0 0 1-.1-.13.43.43 0 0 1 .05-.35c.03-.06.11-.15.23-.26.11-.1.19-.17.23-.23a.23.23 0 0 1 .13-.1l.18-.04c.05-.02.08-.05.08-.1l.08-.61Z" fill="#F4C762"/><path d="M29.93 18.32c-.25.3-.38.61-.28.7.1.07.39-.11.64-.41.26-.3.38-.61.28-.7-.1-.07-.38.11-.64.41Z" fill="#FEEABE"/><path d="M34.8 18.54c.39.04.7-.05.73-.2.01-.14-.28-.3-.66-.34-.38-.04-.7.05-.72.2-.02.15.28.3.66.34Z" fill="#FCE79A"/><path d="M37.43 17.97c0 .05-.03.1-.07.15-.03.04-.03.08 0 .12.02.03.06.05.1.05.1 0 .26 0 .47.02.35.03.62.02.79 0 .33-.07.65-.08.96-.05.03 0 .05.01.06.04v.06a.16.16 0 0 1-.11.08l-.25.06-.53.13c-.2.07-.35.15-.48.26-.24.2-.52.32-.84.34a.23.23 0 0 0-.2.12c-.08.14-.3.25-.64.33-.25.06-.49.09-.7.09-.41 0-.8.05-1.16.15a.5.5 0 0 1-.3 0l.05-.05c.02-.02.02-.04-.01-.06a.18.18 0 0 1-.08-.06c.46-.13.94-.2 1.42-.2a4.41 4.41 0 0 0 .95-.13c.49-.15.47-.25-.03-.29a3.2 3.2 0 0 0-.56.02c-.14.01-.33.01-.56 0-.29-.03-.6 0-.93.1l2.65-1.28Z" fill="#FEEABE"/><path d="M26.22 18.48c.01.13.1.23.19.22.09-.01.14-.13.13-.26-.02-.13-.1-.23-.2-.22-.08.01-.14.13-.12.26Z" fill="#DB9715"/><path d="m33.5 19.17-.27-.14a.05.05 0 0 1-.03-.05c0-.02 0-.03.03-.04l.58-.38a.05.05 0 0 1 .05 0l.6.33c.02.01.02.03.02.05 0 .03-.02.04-.04.05l-.9.18h-.04ZM29.15 18.96h.02c.12.06.19.15.22.27.03.13.02.24-.05.35l-.02.03a.47.47 0 0 1-.28.22.45.45 0 0 1-.36-.03v-.03l.47-.8Z" fill="#FEEABE"/><path d="m25.97 19.56-.11.13c-.06.06-.1.1-.12.14a.32.32 0 0 0-.03.2c0 .02-.01.04-.04.04h-.13c-.03 0-.04-.02-.04-.05v-.27c0-.1-.05-.12-.13-.09a.27.27 0 0 0-.17.19c-.06.2-.1.42-.1.63 0 .17-.07.34-.21.53-.12.16-.25.3-.41.4a.12.12 0 0 1-.1.02.11.11 0 0 1-.09-.06.6.6 0 0 0-.3-.31c-.1-.05-.13-.12-.1-.22.1-.23.25-.42.45-.55a.1.1 0 0 1 .1-.01.1.1 0 0 1 .06.08c0 .12-.03.23-.1.35-.12.23-.08.26.12.1a.8.8 0 0 0 .24-.32c.02-.06 0-.1-.05-.14l-.12-.06c-.05-.04-.07-.08-.04-.14.2-.44.52-.8.94-1.08a.05.05 0 0 1 .05-.01c.02 0 .03.02.03.04.06.2.18.33.36.37.07.01.08.04.04.1ZM26.6 19.3c-.14.16-.19.36-.1.43s.27-.01.42-.18c.14-.17.19-.36.1-.43s-.27 0-.42.17ZM33.23 19.75a2.1 2.1 0 0 1-1.34.06.24.24 0 0 1-.16-.14.23.23 0 0 1 .02-.21l.1-.15c.07-.14.19-.18.34-.12.09.03.23.06.41.09l.35.06c.13.04.23.1.32.17.04.04.06.08.05.14a.13.13 0 0 1-.1.1Z" fill="#FCE79A"/><path d="M25.75 20.43c.05-.34.24-.54.56-.6.05 0 .1.01.13.05.03.03.04.07.03.12-.05.16-.15.23-.3.22-.05 0-.08.02-.08.07a.97.97 0 0 1-.62.8c-.1.04-.18.01-.2-.1l-.02-.1c-.02-.05-.01-.1.01-.15.03-.05.06-.1.12-.12a.7.7 0 0 1 .26-.08c.07-.01.1-.05.11-.11Z" fill="#F4C762"/><path d="M29.18 20.51c-.02.03-.04.03-.07.02l-.04-.03a.31.31 0 0 1-.15-.16.2.2 0 0 1 .01-.19l.02-.03c.04-.06.1-.1.16-.1.08-.02.15 0 .22.04l.05.02c.02.02.03.04.01.07l-.21.36ZM31.88 20.97c-.1.06-.14.1-.14.13 0 .1.05.15.15.14l1.61-.11c.04 0 .06.01.07.04 0 .03 0 .05-.04.06-.7.2-1.45.3-2.26.26.23-.12.17-.22-.15-.27a.76.76 0 0 0-.29 0c-.34.08-.69.12-1.03.11a.5.5 0 0 1-.34-.13.4.4 0 0 1-.13-.22c-.03-.12.02-.18.15-.18.3 0 .59.04.86.13.2.06.43.09.66.07l.88-.03ZM28.1 21.2c-.16.24-.34.43-.53.58-.18.15-.4.23-.67.23a.15.15 0 0 1-.12-.06c-.11-.13-.12-.31-.03-.54.08-.18.22-.24.42-.19.14.04.25 0 .35-.13a.3.3 0 0 1 .3-.13l.18.02c.16.02.2.1.1.23Z" fill="#FEEABE"/><path d="M23.63 22.03a.48.48 0 0 1-.08-.24c0-.05 0-.13.02-.24.02-.12.03-.2.02-.27 0-.06.03-.1.1-.1h.03a.1.1 0 0 1 .1.08c.04.16.14.27.3.35.05.03.07.07.06.13a.72.72 0 0 1-.09.29.26.26 0 0 1-.23.12.26.26 0 0 1-.23-.12Z" fill="#FCE79A"/><path d="m44.89 21.42-3.27.09c-1.08.1-2.04.2-2.86.34a110.39 110.39 0 0 0-5.3.95.1.1 0 0 1-.07-.02.1.1 0 0 1-.04-.07c0-.02.01-.05.04-.09a82 82 0 0 1 6.59-1.23c.75-.11 1.77-.18 3.04-.22.7-.02 1.32.06 1.87.25Z" fill="#873800"/><path d="M25.08 21.67c.14-.11.2-.27.14-.34-.06-.08-.23-.05-.38.07-.14.12-.2.27-.14.35.07.07.24.04.38-.08Z" fill="#F4C762"/><path d="M44.89 21.42c.37 0 .7.19.99.59.09.13.13.27.12.43-.01.13-.06.28-.14.47-.57 1.3-1 2.64-1.27 4.03-.1.5-.16 1.07-.18 1.73l-.05 1.75a5.53 5.53 0 0 0-1.67-.4 7.86 7.86 0 0 0-1.72.07c.14-.31.18-.71.15-1.2 0-.05.02-.1.06-.11.1-.04.2-.1.28-.19.45.02.75-.13.89-.43.13-.28.13-.7 0-1.28a.09.09 0 0 0-.03-.05.08.08 0 0 0-.05-.02c-.04 0-.07.01-.09.05l-.05.1c-.1-.49-.4-.87-.86-1.16a.78.78 0 0 1-.35-.5c-.06-.2-.05-.4.01-.59.03-.1.1-.17.22-.22a.5.5 0 0 1 .32-.02.26.26 0 0 1 .2.24l.03.54c0 .06.03.1.09.12.05.02.12.01.2-.01a.3.3 0 0 0-.06.15c0 .06.02.1.08.11.13.05.26.03.37-.06.12-.08.16-.2.14-.34a2.77 2.77 0 0 0-.24-.77.28.28 0 0 1-.02-.16c.02-.2 0-.38-.07-.54a1.3 1.3 0 0 1-.1-.52v-1.59c0-.05-.02-.08-.08-.09l-.4-.04 3.28-.1Z" fill="#E78101"/><path d="M25.73 21.32c.01-.02.03-.03.06-.01l.04.02c.1.07.16.16.18.28.02.12 0 .24-.08.35l-.01.03a.5.5 0 0 1-.3.22.4.4 0 0 1-.33-.04l-.05-.03c-.02-.01-.03-.03 0-.06l.49-.76Z" fill="#FEEABE"/><path d="m41.62 21.51.4.04c.05 0 .07.04.07.1v1.58c0 .18.03.35.1.52.07.16.1.34.07.54 0 .06 0 .1.02.16.13.26.2.52.24.77a.34.34 0 0 1-.14.34.37.37 0 0 1-.37.06c-.06-.02-.09-.05-.08-.1a.3.3 0 0 1 .09-.19c.07-.08.1-.15.1-.22a2.59 2.59 0 0 0-.14-.77.2.2 0 0 0-.1-.11c-.25-.1-.5-.14-.78-.1-.32.03-.5.18-.56.43-.07.3-.07.64 0 .98.02.14.1.27.2.39.07.07.2.16.36.28.23.16.39.3.46.4.2.3.22.67.06 1.09-.07.17-.2.25-.4.24a.3.3 0 0 1-.2-.09.28.28 0 0 1-.1-.2l-.02-.47a.16.16 0 0 0-.05-.12.17.17 0 0 0-.13-.04h-.07c-.11 0-.16.06-.16.16l.03.6c0 .24.16.42.46.55-.1.17.05.26.48.26a.85.85 0 0 1-.28.19c-.05.02-.07.06-.06.1.03.5-.01.9-.15 1.21-.53.05-.88.1-1.05.12-.9.16-2.42.54-4.58 1.13a.12.12 0 0 0-.09.1c-.03.16-.14.26-.34.3-.3.07-.87.3-1.7.66-.7-.03-.97.08-.78.33a4.9 4.9 0 0 0-1.99.38c-.53.2-1.8.57-3.84 1.1l.05-.1a.07.07 0 0 0-.02-.08.07.07 0 0 0-.08-.02c-.54.15-1.1.3-1.68.43-.51.12-1.08.28-1.72.49l-1.7.57c-.04.02-.06.06-.06.1a.2.2 0 0 0 .11.16c-.79.35-1.56.52-2.3.54a.42.42 0 0 1-.31-.12.4.4 0 0 1-.14-.3 8.14 8.14 0 0 0-.57-2.64.51.51 0 0 0-.37-.24.35.35 0 0 0-.24.06c-.33.2-.71.27-1.15.2l-.17.02c-.12 0-.25-.1-.38-.32.23-.04.63-.07 1.21-.1.13 0 .18-.1.17-.25 0-.09-.06-.12-.14-.11l-.84.1c-.05 0-.08-.02-.08-.07V31.3c0-.08.05-.13.14-.14l.61-.1a.32.32 0 0 0 .26-.2c.04-.1 0-.15-.11-.15-.27 0-.52.04-.73.15-.1.06-.16.03-.16-.09v-1.4c0-.1.06-.16.17-.15.25 0 .49 0 .71-.03.1-.01.17-.07.2-.17v-.07c.03-.11-.01-.16-.13-.15l-1.35.11.12-2.3c0-.05.02-.1.06-.14a.95.95 0 0 1 .28-.19l3.83-.58-.04.06a.08.08 0 0 0 0 .08c.01.03.04.05.08.04.58-.02 1.15-.07 1.7-.15.14-.02.38-.08.73-.18.2-.06.4-.1.59-.14.65-.12 1.69-.38 3.13-.78.11-.03.24-.1.4-.2l.07-.06a.31.31 0 0 1 .2-.06.6.6 0 0 0 .4-.13c.1-.09.08-.14-.04-.17l-.13.02.87-.29c1.38-.19 2.74-.47 4.08-.86.41-.12.83-.2 1.26-.26-.03.04-.04.07-.04.09 0 .03.02.05.04.07a.1.1 0 0 0 .07.02c.23-.01.57-.07 1.01-.17l.45-.1c1.3-.26 2.58-.48 3.84-.68a41.1 41.1 0 0 1 2.86-.34Z" fill="#FFAB19"/><path d="m30.86 22.25.05-.03c.05-.02.05-.06.02-.1-.04-.04-.09-.05-.16-.05l3.35-.52c.03 0 .04 0 .05.03v.04c.01.04 0 .06-.04.07-.42.1-.84.21-1.26.34a4.55 4.55 0 0 1-1.16.15l-.25.03a2.1 2.1 0 0 1-.6.04ZM24.46 22.38c.18-.05.3-.15.27-.24-.02-.08-.18-.11-.35-.07-.17.05-.3.15-.27.24.02.08.18.11.35.07ZM25.97 22.32c.12-.13.27-.18.45-.14.05.02.1.05.11.1.02.04.02.09-.01.13-.05.09-.13.17-.22.26-.1.1-.2.17-.3.23-.27.13-.45.06-.53-.23a.2.2 0 0 1 .04-.18c.04-.06.1-.09.16-.1h.17c.06 0 .1-.03.13-.07Z" fill="#FEEABE"/><path d="M23.1 23.78c.22-.42.4-.83.55-1.24a.1.1 0 0 1 .07-.07.1.1 0 0 1 .1.01c.38.22.73.2 1.07-.06.1-.08.17-.06.19.08l.06.5c.02.1-.02.19-.11.25l-1.89 1.3c-.28.2-.38.13-.28-.19.05-.15.13-.35.25-.58Z" fill="#F0F3FA"/><path d="M27.84 22.96c.43-.02.77-.15.76-.29 0-.13-.36-.22-.8-.2-.42.02-.76.15-.76.29.01.14.37.23.8.2Z" fill="#FEEABE"/><path d="M20.54 24.26c0 .11.08.19.22.23.06.01.1.04.14.07.15.13.27.16.36.1l.6.25c.19.2.07.35-.36.48l-1.4.31-3.84.58c-.9.1-1.79.14-2.67.09-.16-.01-.4-.07-.7-.18l-.39-.12c-.25-.07-.5-.18-.76-.32-.55-.31-1.08-.68-1.6-1.1-.34-.8-.07-1.34.83-1.6.43-.13.86-.2 1.3-.21 1.71-.05 3.35.1 4.93.47 1.03.24 2.14.55 3.34.95Z" fill="#B05C02"/><path d="M27.44 23.73a1.8 1.8 0 0 1-.78.03c-.32-.07-.49-.23-.51-.5-.01-.06 0-.1.05-.14.09-.09.2-.15.32-.17a.1.1 0 0 1 .12.04c.18.26.48.38.87.37.07 0 .11.02.14.07.03.06.03.1 0 .16a.34.34 0 0 1-.21.14Z" fill="#FCE79A"/><path d="M26.06 23.88a3.17 3.17 0 0 0 1.25.13c.12.03.14.08.04.17a.6.6 0 0 1-.4.13.31.31 0 0 0-.2.06l-.08.06c-.15.1-.28.17-.39.2a47.7 47.7 0 0 1-3.72.92 6 6 0 0 1-.72.18c-.56.08-1.13.13-1.71.15a.08.08 0 0 1-.08-.04.08.08 0 0 1 0-.08l.04-.06 1.41-.3.93-.2-.11.16c-.04.05-.02.07.04.06.3-.04.6-.12.9-.24.3-.13.58-.23.84-.3l.88-.27c.46-.14.82-.39 1.08-.73Z" fill="#F4C762"/><path d="M42 25.36a.34.34 0 0 1-.21 0c-.06-.01-.09-.05-.1-.1l-.03-.55c0-.06-.02-.1-.05-.15a.26.26 0 0 0-.14-.1.5.5 0 0 0-.32.03.36.36 0 0 0-.22.22c-.06.2-.07.39-.01.6.06.22.17.39.35.5a1.78 1.78 0 0 1 .78 2.17c-.18.35-.53.47-1.07.35-.3-.13-.46-.31-.46-.55l-.03-.6c0-.1.05-.16.16-.16h.07c.05 0 .1.01.13.04.03.04.05.07.05.12l.02.48c0 .07.04.14.1.2a.3.3 0 0 0 .2.08c.2.01.33-.07.4-.24.16-.42.15-.79-.06-1.08a1.9 1.9 0 0 0-.46-.4 2.56 2.56 0 0 1-.35-.3.75.75 0 0 1-.21-.38 2.38 2.38 0 0 1 0-.98c.06-.25.24-.4.56-.44.27-.03.53 0 .77.1a.2.2 0 0 1 .11.12c.08.23.13.49.14.77 0 .07-.03.14-.1.22a.38.38 0 0 1-.03.03ZM38.28 24.3c0-.03.01-.04.04-.04h.8c.2 0 .4.07.55.21a.7.7 0 0 1 .23.52v2.7a.7.7 0 0 1-.23.52.77.77 0 0 1-.55.22h-.79c-.03 0-.05-.02-.05-.05V24.3ZM36.04 28.19l.03-3.07c0-.14.05-.25.13-.36.08-.1.19-.17.32-.2l.41-.1a.59.59 0 0 1 .52.1c.15.12.23.27.23.46l-.01 3.05a.59.59 0 0 1-.42.55l-.43.13a.58.58 0 0 1-.54-.09.55.55 0 0 1-.24-.47Z" fill="#2F1303"/><path d="m39.45 24.81.01 2.92c0 .1-.04.16-.13.19l-.38.12a.2.2 0 0 1-.18-.02.2.2 0 0 1-.09-.17l-.01-3.03c0-.06.02-.1.06-.14a.2.2 0 0 1 .14-.06h.38c.05 0 .1.01.14.05.04.04.06.09.06.14Z" fill="#FFAB19"/><path d="M10.15 24.66c.51.41 1.04.78 1.6 1.09.25.14.5.25.75.32l.39.12c.3.1.54.17.7.18.88.05 1.77.02 2.67-.09-.1.05-.2.12-.28.2a.2.2 0 0 0-.06.14l-.12 2.3.07 4.04c.13.22.26.33.39.32.08-.01.14-.02.16-.01.44.06.82 0 1.15-.21a.35.35 0 0 1 .24-.06c.16.03.28.1.37.24a1.73 1.73 0 0 1 .19.46c.23.75.36 1.47.38 2.19 0 .11.05.2.14.29.08.08.19.12.3.12a5.97 5.97 0 0 0 2.32-.54l3.74-1.1a.29.29 0 0 1 .17 0c.06.02.1.05.14.1.15.2.32.39.5.57.1.09.2.13.31.12.14 0 .16-.05.06-.14l-.26-.22a216.18 216.18 0 0 1 6.17-1.87c.1-.06.18-.08.24-.08.08 0 .15-.03.2-.08a.26.26 0 0 0 .09-.22l1.5.48c.25.27.65.42 1.18.46.24.01.46.09.67.21a.1.1 0 0 1 .04.1.1.1 0 0 1-.07.09c-1.11.3-2.16.66-3.16 1.07-.06.02-.06.06-.02.1.03.03.07.05.12.06l-.68.22c-.22.07-.28.2-.19.4l.35.77-.07-.03-.05.01a.04.04 0 0 0-.01.05c.23.76.51 1.52.85 2.28.04.1.04.18 0 .27 0 .02-.01.04-.03.05h-.07c-.54-.2-1.08-.38-1.62-.54-.35-.11-.54-.07-.58.1a6.39 6.39 0 0 1-2.63-1.64c-.34-.36-.44-.3-.3.16.09.3.29.67.6 1.14-.1-.03-.15.02-.15.16 0 .05.01.11.04.18.39.94.75 1.9 1.09 2.87.04.12 0 .2-.14.21-.02 0-.07-.01-.16-.05a19.2 19.2 0 0 0-2.95-1.2c-.23-.1-.39-.04-.46.18l-.06.14c-.52 1.25-1.04 2.5-1.58 3.74-.07.17-.12.16-.13-.02-.1-.97-.3-1.96-.61-2.95l-.22-.89c-.08-.31-.2-.6-.38-.85-.3-.77-.69-1.2-1.19-1.28-.9-1-1.99-1.75-3.28-2.24-.16-.06-.52-.03-1.07.09-.43-.07-.86-.1-1.28-.07-.9.07-1.76-.01-2.6-.23a6.38 6.38 0 0 1-2.11-1.1c-.37-.3-.74-.76-1.08-1.4-.08-.07-.09-.19-.04-.35.04-.14.07-.26.07-.33l.1-1.24c.07-1.01.12-1.77.13-2.29.02-.85-.02-1.66-.12-2.4-.11-.89-.24-1.78-.37-2.67Z" fill="#F98C0C"/><path d="m33.84 28.63.04-3.18c0-.13.04-.24.11-.34.08-.1.18-.16.3-.2l.42-.12a.56.56 0 0 1 .51.1c.16.1.24.26.24.45l-.03 3.08a.55.55 0 0 1-.3.5l-.44.22a.6.6 0 0 1-.57-.02.57.57 0 0 1-.28-.49Z" fill="#0E0702"/><path d="M36.93 24.83h-.13a.32.32 0 0 0-.32.32l-.02 2.88c0 .17.15.31.33.31h.12c.18 0 .32-.13.32-.3l.02-2.89a.32.32 0 0 0-.32-.32Z" fill="#FDBB22"/><path d="m32.33 25.9.02 1.14c0 .17.08.22.24.15.38-.16.6-.21.65-.15.05.08.06.16.02.25a.3.3 0 0 1-.21.17c-.2.05-.39.1-.58.13-.08.02-.12.06-.12.14l-.02 1.7c0 .14-.07.22-.21.25l-.07.02c-.1.02-.16-.02-.16-.13l.03-4.07c0-.07.03-.12.1-.13l1.3-.24c.04-.01.07 0 .1.02a.1.1 0 0 1 .04.1l-.03.08a.5.5 0 0 1-.29.18l-.6.14c-.14.03-.21.12-.21.26Z" fill="#2F1303"/><path d="m34.22 28.53.05-3.02c0-.12.06-.2.18-.25l.21-.08a.27.27 0 0 1 .26.02c.08.05.12.13.12.22v2.94c0 .1-.04.17-.12.22l-.27.18a.27.27 0 0 1-.28 0 .25.25 0 0 1-.15-.23Z" fill="#FDBB22"/><path d="M30.22 30v.1a.11.11 0 0 1-.08.05l-.23.05c-.07.02-.11 0-.13-.07l-.42-1.51a.3.3 0 0 0-.2-.22.13.13 0 0 0-.13.02.13.13 0 0 0-.07.1l-.04 1.81a.2.2 0 0 1-.05.13.3.3 0 0 1-.21.11.12.12 0 0 1-.1-.03.12.12 0 0 1-.03-.1l.01-4.01c0-.14.07-.23.21-.26l.76-.2c.35-.08.54.05.58.4.04.38.03.76 0 1.14a.8.8 0 0 1-.12.33c-.04.06-.1.15-.2.26l-.1.1a.13.13 0 0 0-.03.14l.58 1.66Z" fill="#2F1303"/><path d="M28.96 27.9v-1.27c0-.04.01-.08.04-.1a.16.16 0 0 1 .1-.06l.43-.05c.05 0 .1 0 .13.04.04.03.05.07.05.12l-.04 1.08c0 .05-.03.1-.07.12l-.38.26a.16.16 0 0 1-.17 0 .15.15 0 0 1-.09-.13Z" fill="#FDBB22"/><path d="M27.18 27.19c-.02-.02-.03-.02-.05-.02a.04.04 0 0 0-.03.04l-.13.7c-.1.44-.15.78-.17 1a28.1 28.1 0 0 1-.29 1.99.39.39 0 0 1-.2.28l-.08.05c-.11.06-.16.03-.14-.09l.58-4.2a.46.46 0 0 1 .33-.37l.25-.07c.18-.05.26.02.26.2 0 .17.03.46.1.84l.07.42c.1.82.2 1.68.34 2.58.01.11-.04.19-.15.22l-.1.03c-.1.03-.15 0-.17-.1a65.26 65.26 0 0 1-.4-3.47.38.38 0 0 0-.02-.03Z" fill="#2F1303"/><path d="M41.46 28.6c-.43-.01-.59-.1-.48-.27.54.12.9 0 1.07-.35.14-.27.16-.6.08-1.01l.05-.11c.02-.04.05-.05.09-.05l.05.02.03.05c.13.57.13 1 0 1.28-.14.3-.44.45-.9.43Z" fill="#F4C762"/><path d="M24.8 27.56c-.14.04-.27.1-.39.18a.08.08 0 0 1-.09.01.08.08 0 0 1-.04-.07c0-.1.01-.21.05-.31a.14.14 0 0 1 .1-.09l1.43-.35h.09L26 27c.02.04.02.07.01.1-.03.1-.1.19-.23.23l-.34.1c-.07.01-.1.05-.1.13l-.05 3.67c0 .1-.05.2-.15.25a.26.26 0 0 1-.13.03.1.1 0 0 1-.08-.02.1.1 0 0 1-.03-.08l.03-3.74c0-.1-.05-.13-.14-.1Z" fill="#2F1303"/><path d="M23.37 27.95c-.34-.01-.57.1-.69.33-.1.2-.11.45-.04.77.03.14.1.25.22.35.07.06.19.13.36.22.18.1.3.17.37.24.12.1.19.24.2.4.06.43.06.76.02.96a.86.86 0 0 1-.62.7c-.23.07-.49.08-.76.03-.07-.01-.1-.05-.12-.12a2.85 2.85 0 0 1-.06-.81c.01-.14.09-.2.22-.21h.06c.03 0 .05 0 .07.02l.02.06v.61c0 .04.02.08.05.1.02.03.06.05.1.05.33.02.54-.11.65-.41a1.34 1.34 0 0 0-.01-.8.7.7 0 0 0-.24-.31 2.52 2.52 0 0 0-.34-.21l-.24-.14a.82.82 0 0 1-.35-.6c-.02-.17-.02-.41.01-.73a.9.9 0 0 1 .41-.7c.22-.15.5-.21.83-.2.12.01.2.07.25.18.1.25.12.54.1.85-.02.12-.08.2-.2.23l-.05.01c-.1.04-.16 0-.15-.11l.02-.66c0-.06-.03-.1-.1-.1ZM20.83 28.47a.28.28 0 0 0-.12.22l-.45 3.6a.17.17 0 0 1-.13.14l-.24.08c-.1.02-.12 0-.08-.09.06-.13.1-.26.12-.4.14-1.15.31-2.38.52-3.68.02-.11.09-.17.2-.18l.42-.05c.06 0 .1.02.1.08l.56 3.78c.01.14-.04.23-.18.26l-.05.02c-.1.03-.15 0-.16-.1l-.46-3.66-.02-.02h-.03ZM18.85 30.87h-.05l-.05-.01c-.08-.07-.12-.17-.11-.3 0-.07.05-.11.13-.1.2 0 .38-.01.57-.07.1-.02.13.01.1.1 0 .03-.02.07-.04.1a.21.21 0 0 0-.05.15l.03 1.22c0 .41-.2.64-.62.7l-.39.05c-.39.05-.59-.11-.58-.5 0-.67 0-1.38-.02-2.12v-.61c.02-.22.06-.39.13-.52.16-.33.5-.48 1.04-.45.23 0 .37.14.41.4a2.3 2.3 0 0 1-.02.68.26.26 0 0 1-.2.23l-.05.02c-.1.03-.15 0-.13-.1.05-.25.06-.48.03-.72-.01-.08-.06-.12-.14-.13a.77.77 0 0 0-.45.06c-.16.08-.23.2-.24.36l.01 2.9c0 .13.07.2.2.18l.38-.02c.07 0 .12-.03.16-.08.05-.04.07-.1.07-.16l.01-1.15c0-.09-.04-.12-.13-.1ZM15.87 32.96l-.07-4.05 1.35-.11c.12-.01.16.04.14.15a1.4 1.4 0 0 0-.02.07c-.02.1-.08.16-.19.17a5 5 0 0 1-.71.03c-.11 0-.17.05-.17.16v1.4c0 .1.05.14.16.08.21-.1.46-.16.73-.15.11 0 .15.05.11.15a.32.32 0 0 1-.26.2l-.61.1c-.09 0-.13.06-.13.14l-.01 1.23c0 .05.03.07.08.07l.84-.1c.08-.01.13.02.14.1.01.17-.04.25-.17.26-.58.03-.98.06-1.21.1ZM14.67 30.19c-.25.87-.46 1.75-.63 2.65-.03.14-.11.23-.24.26-.1.02-.13-.01-.13-.1.01-.1-.02-.23-.1-.4a1.28 1.28 0 0 1-.1-.3c-.07-.51-.16-1.02-.25-1.52-.04-.27-.13-.5-.28-.7-.04-.06-.06-.05-.06.03.07 1 .08 1.96.04 2.88 0 .04-.02.07-.04.1a.14.14 0 0 1-.1.04h-.1a.1.1 0 0 1-.08-.02.1.1 0 0 1-.03-.07v-3.49c0-.15 0-.3.03-.45 0-.06.04-.1.1-.1.07-.01.14 0 .19.02.05.02.08.06.1.1.3.99.55 2 .74 3.01.03.18.08.18.15.02.07-.15.13-.37.19-.68.04-.22.08-.39.12-.5.2-.64.38-1.28.53-1.92a.13.13 0 0 1 .09-.1.25.25 0 0 1 .21 0 .1.1 0 0 1 .06.1v3.8c0 .1-.05.16-.14.2l-.12.03c-.08.03-.12 0-.11-.08l.07-2.43c0-.05 0-.12-.03-.21a1.54 1.54 0 0 1-.02-.16c-.01-.11-.03-.12-.06-.01Z" fill="#0E0702"/><path d="M44.36 30.42c.3.46.37.92.22 1.35-.07.22-.35.43-.82.64-.34.16-.69.27-1.04.35-1.38.32-2.84.44-4.38.37-1.7-.1-3.4-.33-5.12-.73.82-.37 1.39-.59 1.69-.66.2-.04.32-.14.34-.3a.12.12 0 0 1 .1-.1c2.15-.6 3.68-.97 4.57-1.13.17-.03.52-.07 1.05-.12.58-.08 1.15-.1 1.72-.07.55.04 1.11.17 1.67.4Z" fill="#873800"/><path d="m32.43 32.73.44.1c0 .1-.02.17-.08.23a.28.28 0 0 1-.2.08.56.56 0 0 0-.25.08 216.18 216.18 0 0 0-6.17 1.87l-.36-.5a.14.14 0 0 1-.02-.16.14.14 0 0 1 .14-.08c.25 0 .47-.04.67-.13 2.03-.54 3.31-.9 3.84-1.1a4.9 4.9 0 0 1 1.99-.39Z" fill="#D46305"/><path d="M34.36 33.32c1.09.27 2.08.46 2.98.56.33.03.34.1.03.2l-4.24 1.33a.27.27 0 0 1-.12-.06c-.04-.04-.04-.08.02-.1 1-.41 2.05-.77 3.16-1.07a.1.1 0 0 0 .07-.09.1.1 0 0 0-.04-.1c-.21-.12-.43-.2-.66-.21-.54-.04-.94-.19-1.2-.46ZM17.45 36.74c-1.3.15-2.38.17-3.22.05a5.47 5.47 0 0 1-2.89-1.24 3 3 0 0 1-.96-1.6 4.57 4.57 0 0 0 2.1 2.04c.4.2.76.36 1.1.45.83.22 1.69.3 2.59.23.42-.03.85 0 1.28.07Z" fill="#873800"/><path d="M26.6 34.22c-.2.09-.42.13-.67.13-.06 0-.1.03-.14.08-.02.06-.02.11.02.16l.36.5.26.22c.1.09.08.13-.06.14a.4.4 0 0 1-.3-.12 4.53 4.53 0 0 1-.5-.57.29.29 0 0 0-.15-.1.29.29 0 0 0-.17 0l-3.75 1.1a.2.2 0 0 1-.1-.15c-.01-.05 0-.09.06-.1.73-.26 1.3-.45 1.7-.58.63-.2 1.2-.37 1.7-.49a33.2 33.2 0 0 0 1.69-.43c.03-.01.06 0 .08.02.02.02.03.05.02.08l-.05.1Z" fill="#EAC8B2"/><path d="m32.61 36.8 1.28 3.03v.06a.08.08 0 0 1-.05.05.3.3 0 0 1-.17 0 28.9 28.9 0 0 1-2.64-.95c.04-.17.23-.21.57-.1a39.06 39.06 0 0 1 1.7.54.08.08 0 0 0 .04-.05.35.35 0 0 0-.01-.27c-.34-.76-.62-1.52-.85-2.28l.01-.05a.05.05 0 0 1 .05 0l.07.02Z" fill="#B05C02"/><path d="M28.7 38.65c.62 1.23 1.12 2.5 1.5 3.8 0 .04 0 .07-.03.09a.07.07 0 0 1-.08 0l-3.27-1.57a19.2 19.2 0 0 1 2.72 1.1c.14-.02.18-.09.14-.22-.34-.97-.7-1.92-1.09-2.86a.46.46 0 0 1-.04-.18c0-.14.05-.2.15-.16Z" fill="#873800"/><path d="m23 40.17-1.2-1.28c.5.09.9.51 1.2 1.28Z" fill="#F4C762"/></svg>