<!-- by TradingView --><svg width="56" height="56" viewBox="0 0 56 56" xmlns="http://www.w3.org/2000/svg"><path fill="#F0F3FA" d="M0 0h56v56H0z"/><path d="M50 30v-5h1v5h-1ZM25.71 30l-.35-1.11h-1.73L23.28 30H22l1.82-5h1.4L27 30h-1.29Zm-1.22-3.99s-.4 1.33-.62 1.99h1.23c-.21-.66-.6-1.99-.6-1.99ZM41.71 30l-.35-1.11h-1.73L39.28 30H38l1.82-5h1.4L43 30h-1.29Zm-1.22-3.99s-.4 1.33-.62 1.99h1.23c-.21-.66-.6-1.99-.6-1.99ZM19.7 30 17 26.3V30h-1v-5h1.39L20 28.7V25h1v5h-1.3ZM47.7 30 45 26.3V30h-1v-5h1.39L48 28.7V25h1v5h-1.3ZM10 30v-4l-1.53 4H7.45L6 26v4H5v-5h1.78L8 28.6 9.27 25H11v5h-1ZM36 30v-4l-1.53 4h-1.02L32 26v4h-1v-5h1.78L34 28.6l1.26-3.6H37v5h-1ZM12 30v-5h3v1h-2v1h2v1h-2v1h2v1h-3ZM4 32h48v1H4z"/></svg>