<!-- by TradingView --><svg width="56" height="56" viewBox="0 0 56 56" xmlns="http://www.w3.org/2000/svg"><path fill="#2155A8" d="M0 0h56v56H0z"/><path fill-rule="evenodd" d="M38 33a5 5 0 1 0 0-10 5 5 0 0 0 0 10Zm0-1.42a3.58 3.58 0 1 0 0-7.16 3.58 3.58 0 0 0 0 7.16Z" fill="#FEFEFC"/><path d="M16 23h6v1.5h-6V23ZM16 26.5h6V28h-6v-1.5ZM16 30.5h6V32h-6v-1.5ZM30.5 23H32v10h-.39L24 24.79V23h.66l5.84 6.3V23ZM24 27.05V33h1.5v-4.32L24 27.05ZM50.5 23H52v10h-.39L44 24.79V23h.66l5.84 6.3V23ZM44 27.05V33h1.5v-4.32L44 27.05ZM5.29 23h.64l3.44 6.12L12.9 23h.72l.15 1.47L9.66 32h-.57L6.3 26.67 5.54 32H4l1.29-9ZM12.79 28.92l1.18-2.1L15 32h-1.54l-.67-3.08Z" fill="#FEFEFC"/></svg>