<!-- by TradingView --><svg width="56" height="56" viewBox="0 0 56 56" xmlns="http://www.w3.org/2000/svg"><path fill="#17283F" d="M0 0h56v56H0z"/><path d="M42 34V22h4v11.34h5.68c.22 0 .32.1.32.34 0 .25-.12.32-.49.32H42Zm-1 0V22h.59v12H41ZM35 34V22h4v12h-4Zm-1 0V22h.55v12H34ZM22 31.31c-.65-.94-1-2.05-1-3.31a5.9 5.9 0 0 1 1-3.31v6.62Zm4.58 2.15.6.01c1.9 0 3.48-.72 4.62-2.11.55-.64.61-1.2.94-1.2.16 0 .26.1.26.27 0 .23-.31.87-1 1.59A6.4 6.4 0 0 1 27.3 34a6.33 6.33 0 0 1-4.63-1.86V23.9a6.18 6.18 0 0 1 4.62-1.9c1.62 0 3 .48 4.29 1.52.63.51.93.91.93 1.14 0 .12-.12.22-.26.22-.28 0-.43-.37-.89-.77a6.05 6.05 0 0 0-4.78-1.57v10.92ZM9.83 33.01l-3.58-4.9c-.92 3.24-1.3 5.08-1.39 5.49-.06.25-.14.4-.35.4-.35 0-.51-.05-.51-.27 0-.05.03-.18.1-.38l1.96-6.47 4.09 5.63-.32.5Zm5.1.99-1.6-6.19c-1.28 1.83-2.2 3.19-2.8 4.1L6.32 26.1 7.56 22a143.9 143.9 0 0 0 4.58 6.5l1.4-2.01L15.5 34h-.58Zm1.27 0-2.14-8.24 2.5-3.76c1.17 3.96 2.32 8.03 3.44 12h-3.8Z" fill="#FDFCFD"/></svg>