<!-- by TradingView --><svg width="56" height="56" viewBox="0 0 56 56" xmlns="http://www.w3.org/2000/svg"><path fill="#F0F3FA" d="M0 0h56v56H0z"/><path d="M14 17h12v5.42a5 5 0 1 0 4 0V17h12v6h-5.28L48 37h-6.98l-4.35-4.5-4.43 4.5h-8.48l-4.43-4.5-4.35 4.5H8l11.28-14H14v-6Z" fill="#2175B5"/><path d="m24.57 24.72.25-.06c.1-.02.19.07.17.16-.05.24.03.47.24.68.05.04.07.09.08.12 0 .06 0 .12-.05.16a.22.22 0 0 1-.26.05l-.4-.22c-.22-.12-.26-.27-.13-.46.02-.03.01-.06-.02-.08-.15-.1-.28-.08-.4.04-.03.04-.05.03-.05-.02 0-.06.02-.13.06-.2.34-.5.79-.92 1.35-1.27.3-.18.6-.29.9-.32l.74-.06c.15-.01.13-.22.25-.23.68-.08 1.3 0 1.87.24.2.09.2.18 0 .27l-.24.1c-.2.09-.41.1-.62.06-.26-.06-.49.03-.69.27a.12.12 0 0 1-.1.05l-.8-.05c-.09 0-.1-.14-.16-.2-.07-.06-.15-.07-.23-.02a.38.38 0 0 0-.13.16c-.2.39-.51.51-.95.37a.19.19 0 0 0-.12 0c-.24.08-.45.2-.63.38-.16.16-.14.19.07.08Z" fill="#2175B5"/><path d="M29.57 23.53a4.25 4.25 0 0 1-.15-.08c-.14-.08-.13-.12.04-.11.23.01.45.2.67.34.25.16.27.37.44.53.03.03.02.08-.02.1-.23.06-.48.09-.73.06-.11 0-.19-.12-.15-.22a.63.63 0 0 0-.01-.53.18.18 0 0 0-.09-.1ZM30.1 25.23c.04-.12.08-.47.2-.54l.54-.3a.14.14 0 0 1 .1-.02l.07.05c.5.6.81 1.22.92 1.86 0 .03-.01.05-.05.06-.65.14-1.26.25-1.8.33-.15.02-.18-.03-.09-.14.06-.08.11-.17.15-.26.1-.22-.2-.61-.34-.77-.03-.03-.03-.06 0-.1.02-.04.08-.06.18-.07.06 0 .1-.04.13-.1ZM25.62 25.35a.7.7 0 0 0-.47-.15c-.1 0-.13-.03-.05-.1a.7.7 0 0 1 .54-.23c.03 0 .06.01.08.03.03.02.04.05.05.08.02.12 0 .23-.04.34a.07.07 0 0 1-.1.03ZM25.94 26.28a.2.2 0 0 0 .08.07c.22.11.49.19.79.21.1.01.14.2 0 .2-.32 0-.63-.08-.95-.22a.13.13 0 0 1-.07-.07.88.88 0 0 1-.06-.3c0-.31.18.06.21.11Z" fill="#2175B5"/><path d="M29.88 30.08c.22-.15.4-.24.52-.28.3-.08.34-.02.16.2a.9.9 0 0 1-.75.34c-.62-.02-1.26.1-1.88.04l-2.22-.1c-.45-.01-.65-.12-1.01-.39a.04.04 0 0 1 0-.06c.1-.03.17-.09.2-.17a7 7 0 0 0 .17-.85.1.1 0 0 1 .09-.08c.55.01 1.1.05 1.68.12.1.01.13-.16.04-.16l-1.83-.12a.1.1 0 0 1-.08-.05c-.08-.13-.06-.25.08-.36.33-.25.53-.36.61-.66.01-.04 0-.06-.04-.06l-.31-.02c-.12 0-.12-.2 0-.2.24-.03.46-.08.66-.18a.99.99 0 0 1 .47-.12l.63.01c.05 0 .1.04.11.08.08.32.18.57.3.75.03.06.07.09.13.1.05 0 .07-.02.07-.06.03-.51.31-.8.85-.85a.14.14 0 0 1 .1.03 6.03 6.03 0 0 0 .91.58.1.1 0 0 0 .07-.03c.14-.17.14-.3-.01-.43-.15-.12-.12-.18.08-.18.67.02 1.37-.1 2.11-.35.09-.03.19.03.2.12.06.68-.07 1.34-.4 1.97-.02.06-.04.06-.06 0-.08-.24-.23-.11-.16.08 0 .03-.03.06-.06.05a.6.6 0 0 1-.18-.16.1.1 0 0 0-.13 0l-1.14.97a.12.12 0 0 0-.05.08l-.02.35c0 .08.02.1.09.05ZM25.87 30.56c.23.03.41.05.54.05l.36-.02c.72.02 1.45.03 2.18.02.29 0 .55-.08.8-.22.02-.02.07.06.03.1-.8.57-2.06.58-3.06.42-.29-.05-.58-.15-.87-.3-.1-.05-.09-.07.02-.05Z" fill="#2175B5"/></svg>