<!-- by TradingView --><svg width="56" height="56" viewBox="0 0 56 56" xmlns="http://www.w3.org/2000/svg"><path fill="url(#a)" d="M0 0h56v56H0z"/><path fill="#1E1E1E" d="M29 16h13.73v1.69H29z"/><path fill="#F8D374" d="M29.27 16.31H43V18H29.27z"/><path fill="#1E1E1E" d="M27 41H13.27v-1.69H27z"/><path fill="#F8D374" d="M26.74 40.7H13V39h13.73z"/><path fill="#1E1E1E" d="M29 18h13.73v1.69H29z"/><path fill="#F8D374" d="M29.27 18.31H43V20H29.27z"/><path fill="#1E1E1E" d="M27 39H13.27v-1.69H27z"/><path fill="#F8D374" d="M26.74 38.7H13V37h13.73z"/><path fill="#1E1E1E" d="M29 20.5h13.73v2.73H29z"/><path fill="#F8D374" d="M29.27 20.77H43v2.73H29.27z"/><path fill="#1E1E1E" d="M27 36.5H13.27v-2.73H27z"/><path fill="#F8D374" d="M26.74 36.22H13V33.5h13.73z"/><path fill="#1E1E1E" d="M29 24h13.73v2.77H29z"/><path fill="#F8D374" d="M29.27 24.23H43V27H29.27z"/><path fill="#1E1E1E" d="M27 33H13.27v-2.77H27z"/><path fill="#F8D374" d="M26.74 32.77H13V30h13.73z"/><path fill="#1E1E1E" d="M13 13h30v2H13zM13 41h30v2H13z"/><path d="M36.21 36.68V34.8H42v4.47a7.7 7.7 0 0 1-2.45 1.22c-1.06.35-2.14.52-3.24.52-1.39 0-2.6-.24-3.63-.74a5.16 5.16 0 0 1-2.34-2.1 5.98 5.98 0 0 1-.78-3c0-1.17.3-2.21.88-3.12.58-.9 1.43-1.6 2.54-2.09a7.96 7.96 0 0 1 3.19-.56c1.65 0 2.94.3 3.86.88a3.92 3.92 0 0 1 1.8 2.42l-2.67.42a2.4 2.4 0 0 0-1.06-1.3 3.58 3.58 0 0 0-1.93-.48c-1.18 0-2.1.31-2.8.94-.7.63-1.04 1.56-1.04 2.8 0 1.33.35 2.33 1.05 3 .7.66 1.62 1 2.76 1a6.27 6.27 0 0 0 3.15-.96v-1.43H36.2Z" fill="#1E1E1E"/><path d="M35.65 36.29v-1.9h5.78v4.48A7.7 7.7 0 0 1 39 40.09c-1.07.35-2.15.52-3.24.52-1.4 0-2.6-.25-3.64-.74a5.16 5.16 0 0 1-2.33-2.11 5.98 5.98 0 0 1-.78-3c0-1.16.29-2.2.87-3.11.58-.9 1.43-1.6 2.55-2.1A7.96 7.96 0 0 1 35.6 29c1.65 0 2.94.3 3.87.88a3.93 3.93 0 0 1 1.8 2.42l-2.67.42a2.39 2.39 0 0 0-1.07-1.3 3.58 3.58 0 0 0-1.93-.48c-1.17 0-2.1.31-2.8.94-.69.63-1.03 1.56-1.03 2.8 0 1.33.35 2.33 1.05 3 .7.66 1.62 1 2.76 1a6.26 6.26 0 0 0 3.15-.96v-1.43h-3.08Z" fill="#F8D374"/><path d="M14.39 27V16.36h3.94l2.37 7.26 2.34-7.26H27V27h-2.45v-8.38L21.95 27h-2.53l-2.58-8.38V27h-2.45Z" fill="#1E1E1E"/><path d="M14 26.64V16h3.95l2.37 7.26L22.66 16h3.95v10.64h-2.45v-8.38l-2.59 8.38h-2.54l-2.58-8.38v8.38H14Z" fill="#F8D374"/><defs><linearGradient id="a" x1="28" y1="0" x2="28" y2="56" gradientUnits="userSpaceOnUse"><stop stop-color="#656565"/><stop offset="1" stop-color="#F0F0F0"/></linearGradient></defs></svg>