<!-- by TradingView --><svg width="56" height="56" viewBox="0 0 56 56" xmlns="http://www.w3.org/2000/svg"><path fill="#F0F3FA" d="M0 0h56v56H0z"/><path d="m13.98 28.74-.78 1.17c-.1.14-.15.12-.16-.05-.27-4.32.93-8.11 3.62-11.37a15.33 15.33 0 0 1 10.9-5.46c3.7-.21 7.16.8 10.36 3.01.08.06.1.15.06.28a.25.25 0 0 1-.14.07.2.2 0 0 1-.13-.03 17.56 17.56 0 0 0-3.04-1.51 15.6 15.6 0 0 0-11.15-.08 14.6 14.6 0 0 0-6.6 5.06 14.74 14.74 0 0 0-2.9 8.79c0 .04 0 .08-.04.12Z" fill="#7C4E39"/><path d="M19.85 25.68c0-.14-.05-.15-.13-.04l-4.3 6.14c-1.8 2.56-3.65 5.02-5.54 7.37-.2.25-.54.58-.76.72a.65.65 0 0 1-.73.03c-.44-.24-.5-.58-.2-1 3.38-4.67 6.93-9.5 10.64-14.5.24-.32.63-.88 1.08-.92.62-.06 1.23.35 1.35.95.03.15 0 .46-.08.92-.21 1.1-.2 2.15.22 3.14.4.92 1.54 1.26 2.43 1.14a9.02 9.02 0 0 0 3.41-1.3c2.17-1.32 4.2-3 6.09-4.88.92-.91 2.03-2.07 3.3-3.48.3-.32.53-.67.7-1.04.87-1.87 2.21-4.06 3.65-5.57.25-.25.53-.36.82-.36.37 0 .75.22 1.04.55.1.12.15.25.16.38.02.27-.11.55-.25.8-.75 1.37-2.3 2.09-3.02 3.5a86.27 86.27 0 0 0-4 9.16c-.76 2.06-1.74 3.87-1.73 6.11 0 1.68.98 3.78 3.04 3.83 1.83.05 3.25-1.58 4.06-3.05a16.1 16.1 0 0 0 1.9-8.12 14.03 14.03 0 0 0-2.08-7.39.26.26 0 0 1 0-.29c.05-.1.17-.26.28-.11a14.84 14.84 0 0 1 2.8 8.68c.02 1.53-.17 3.24-.56 4.75a10.32 10.32 0 0 1-2.18 4.26A5.3 5.3 0 0 1 37.3 38c-3-.06-4.3-3.2-4.31-5.68 0-3.07 1.16-6.07 2.35-8.85.3-.68.59-1.33.9-1.95.12-.25.08-.28-.12-.08l-1.66 1.6a44.8 44.8 0 0 1-6.53 5.23C26.63 29.1 25 30 23.4 30c-2.3 0-3.47-2.26-3.55-4.32Z" fill="#7C4E39"/><path d="m19.17 39.89.74.62c.05.04.08.1.09.16 0 .11 0 .19-.04.23a.26.26 0 0 1-.11.09.14.14 0 0 1-.12 0 5.34 5.34 0 0 1-1.16-.89 16.71 16.71 0 0 1-3.56-4.96.06.06 0 0 1 0-.06 473.7 473.7 0 0 0 .7-1.08l.02.01c.66 2.39 1.8 4.34 3.44 5.88Z" fill="#7C4E39"/></svg>