<!-- by TradingView --><svg width="56" height="56" viewBox="0 0 56 56" xmlns="http://www.w3.org/2000/svg"><path fill="#2A508A" d="M0 0h56v56H0z"/><path fill-rule="evenodd" d="M28 44s-.29.01-.39-.1c-3.18-3.36-6.31-6.79-9.44-10.22-3.32-3.64-6.64-7.28-10.03-10.85a.53.53 0 0 1-.14-.36c0-.38.23-.38.51-.39h.04c3.4-.04 5.81-.02 7.25.06.1 0 .18-.1.15-.2-.25-.89-.42-1.75-.5-2.57-.1-.86-.51-1.5-.94-2.18-.17-.25-.34-.51-.49-.79-.07-.13 0-.3.14-.34.6-.16 1.14-.01 1.62.44.83.77 1.4 1.38 1.74 1.85.26.37.5.8.69 1.27a.1.1 0 0 0 .17.04c1.46-1.24 3.21-2.7 4.95-3.49.27-.12.63-.18 1.07-.17h7.2c.44 0 .8.05 1.07.17 1.74.8 3.5 2.25 4.95 3.49a.1.1 0 0 0 .17-.04c.2-.48.43-.9.7-1.27.32-.47.9-1.08 1.73-1.85.48-.45 1.02-.6 1.62-.44.14.04.21.21.14.34-.15.28-.32.54-.49.8-.43.66-.85 1.3-.94 2.17-.08.82-.25 1.68-.5 2.57-.03.1.05.2.15.2 1.44-.08 3.85-.1 7.25-.06h.04c.28 0 .51.01.51.4 0 .13-.05.26-.14.35-3.39 3.57-6.7 7.21-10.03 10.85-3.13 3.43-6.26 6.86-9.44 10.23-.1.1-.39.09-.39.09Zm-2.2-15.98a.34.34 0 0 1-.07-.1c-.02-.07.04-.14.1-.11.73.3 1.4.94 2.08 1.67a.1.1 0 0 0 .09.07.1.1 0 0 0 .1-.06 6.41 6.41 0 0 1 2.06-1.68c.07-.03.13.04.11.1a3.58 3.58 0 0 0-2.27 3.4 3.58 3.58 0 0 0-.22-.45c-.61-1.06-1.3-2-1.99-2.84Zm2.2 8.26a.38.38 0 0 1-.13.17.93.93 0 0 0-.42.97c.14.85.04 1.6-.88 1.77-.33.06-.73-.07-1.08-.18-.16-.04-.3-.09-.42-.11-.2-.04-.03.26.05.32.73.49 1.4 1.06 2 1.7.25.26.61.35.88.58.27-.23.63-.32.87-.58.61-.64 1.28-1.21 2-1.7.09-.06.26-.36.06-.32-.12.02-.26.07-.42.11-.35.11-.75.24-1.08.18-.92-.17-1.02-.92-.88-1.77a.93.93 0 0 0-.42-.97.38.38 0 0 1-.13-.17Zm-6.29-17.46a.23.23 0 0 0-.1.3l.22.51c.05.11.18.17.3.11 1.15-.54 2.49-1 3.42-1.88.12-.1.17-.19.14-.24l-.07-.16c-.24-.53-3.16 1.01-3.9 1.36Zm5.06 4.88-.82-2.33c-.07-.25.02-.37.27-.37h.93c.22 0 .33.11.34.34.04.92-.13 1.5-.5 2.37-.08.2-.16.2-.22 0Zm-3.41-2.03c.29.38.69.53 1.2 1.05l.4.47c.22.27.44.53.73.76.19.15.25.1.18-.13-.1-.34-.24-.72-.43-1.15-.03-.05-.2-.23-.54-1.15-.09-.25-.24-.4-.45-.46a1.9 1.9 0 0 0-.93.02c-.17.04-.26.12-.26.24-.01.13.03.26.1.35Zm-2.24-.1c.21.33.51.5.66.4.16-.1.1-.45-.1-.77-.22-.32-.51-.5-.66-.4-.16.1-.11.45.1.78Zm.02 4.4c.65.48 1.1.85 1.36 1.12.36.38-.42.51-.65.37a8.64 8.64 0 0 1-3.95-5.6c-.01-.06-.04-.1-.07-.12-.06-.03-.09-.02-.08.05l.06 1.3c.03.74.38 1.4.68 1.97l.26.5c.05.12 0 .26-.1.33-.24.14-.53.04-.76-.05l-.1-.03c-.35-.12-.43-.02-.26.3.44.8.94 1.53 1.5 2.19 1.76 2.03 4.53 2.26 5.68 5.07.17.4.22.73.16.95l-.02.1c-.09.3-.19.68-.08 1 .2.65.42 1.1.62 1.38.24.31.48.35.7.1.53-.58.86-1.16 1-1.74.09-.38.11-1.03.07-1.95a5.1 5.1 0 0 0-.45-2.05c-.48-.94-.91-1.65-1.3-2.13a27.9 27.9 0 0 0-4.16-4.21 1.5 1.5 0 0 0-.65-.29c-.17-.03-.32.13-.28.3.1.45.42.86.82 1.15Zm5.38.48c.13.17.24.38.35.62.1.2.04.25-.15.16-.63-.31-1.18-.82-1.7-1.3l-.2-.2-.04-.02c-1.06-.99-1.8-1.67-1.93-3.07-.05-.51.69.33.7.34a61.24 61.24 0 0 1 2.97 3.47Zm-3.71 8.44c.37-.64.6-1.12.71-1.44.21-.6-.75-1.57-1.15-1.9-.8-.7-2.2-1.23-3-1.81a8.28 8.28 0 0 1-2.63-3.19c-.21-.45-.35-.9-.42-1.38-.07-.49-.12-1-.15-1.47a.13.13 0 0 0-.14-.12l-2.28.01h-2c-.11 0-.2.14-.14.25.2.39.45.86.78 1.26 1.78 2.13 3.3 3.9 4.58 5.29l1.94 2.25a33.7 33.7 0 0 0 2.93 3 .23.23 0 0 0 .29.02c.29-.21.51-.47.68-.77Zm0 1.96-.07-.54c0-.03.02-.06.05-.07l.42-.14c.03-.01.07 0 .08.03l.91 1.64c.03.04 0 .1-.05.1l-.04-.01-1.27-.96a.07.07 0 0 1-.03-.05Zm11.48-18.03c.1.05.16.2.1.3l-.22.51a.22.22 0 0 1-.3.11c-1.14-.53-2.5-1.01-3.42-1.88-.12-.1-.17-.19-.14-.24l.07-.16c.25-.56 3.25 1.06 3.9 1.36Zm-5.06 4.88.82-2.33c.07-.25-.02-.37-.27-.37h-.93c-.22 0-.33.11-.34.34-.04.92.13 1.5.5 2.37.08.2.16.2.22 0Zm3.41-2.03c-.29.38-.69.53-1.2 1.05l-.4.47c-.22.27-.44.53-.73.76-.19.15-.25.1-.18-.13.1-.34.24-.72.43-1.15.03-.05.2-.23.54-1.15.09-.25.24-.4.45-.46.27-.07.58-.07.93.02.17.04.26.12.26.24.01.13-.03.26-.1.35Zm2.24-.1c-.21.33-.51.5-.66.4-.16-.1-.1-.45.1-.77.22-.32.51-.5.66-.4.16.1.1.45-.1.78Zm-.02 4.4c-.65.48-1.1.85-1.36 1.12-.36.38.42.51.65.37a8.64 8.64 0 0 0 3.95-5.6c.01-.06.04-.1.07-.12.06-.03.09-.02.08.05l-.06 1.3a4.68 4.68 0 0 1-.68 1.97l-.26.5a.26.26 0 0 0 .1.33c.24.14.53.04.76-.05l.1-.03c.35-.12.43-.02.26.3-.44.8-.94 1.53-1.5 2.19-1.76 2.03-4.53 2.26-5.68 5.07-.17.4-.22.73-.16.95l.02.1c.09.3.19.68.08 1-.2.65-.42 1.1-.62 1.38-.24.31-.48.35-.7.1a3.98 3.98 0 0 1-1-1.74 8.06 8.06 0 0 1-.07-1.95c.05-.87.2-1.55.45-2.05.48-.94.91-1.65 1.3-2.13a27.9 27.9 0 0 1 4.16-4.21c.16-.13.38-.23.65-.29.17-.03.32.13.28.3-.1.45-.42.86-.82 1.15Zm-5.38.48a3.1 3.1 0 0 0-.35.62c-.1.2-.04.25.15.16.63-.31 1.18-.82 1.7-1.3l.2-.2.04-.02c1.06-.99 1.8-1.67 1.93-3.07.05-.51-.69.33-.7.34a61.24 61.24 0 0 0-2.97 3.47Zm3.71 8.44a9.98 9.98 0 0 1-.71-1.44c-.21-.6.75-1.57 1.15-1.9.8-.7 2.2-1.23 3-1.81a8.28 8.28 0 0 0 2.63-3.19c.21-.45.35-.9.42-1.38.07-.49.12-1 .15-1.47 0-.07.07-.12.14-.12l2.28.01h2c.11 0 .2.14.14.25-.2.39-.45.86-.78 1.26-1.78 2.13-3.3 3.9-4.58 5.29l-1.94 2.25a33.7 33.7 0 0 1-2.93 3 .23.23 0 0 1-.29.02 2.41 2.41 0 0 1-.68-.77Zm0 1.96.07-.54a.07.07 0 0 0-.05-.07l-.42-.14c-.03-.01-.07 0-.08.03l-.91 1.64c-.03.04 0 .1.05.1l.04-.01 1.27-.96a.07.07 0 0 0 .03-.05Z" fill="#FDFFFF"/></svg>