<!-- by TradingView --><svg width="56" height="56" viewBox="0 0 56 56" xmlns="http://www.w3.org/2000/svg"><path fill="#190657" d="M0 0h56v56H0z"/><path d="M49 32v-8h2v8h-2ZM40 32v-8h2v3h3v-3h2v8h-2v-3.3h-3V32h-2ZM24 32v-6.38h-3V24h8v1.62h-3V32h-2ZM17 32v-8h2v8h-2ZM4 32v-8h3.02L9 29.24 10.97 24H14v8h-2v-5.5L9.76 32H8.24L6 26.5V32H4ZM37.3 25.02l-.86 1.4a6.25 6.25 0 0 0-2.33-.83c-.7 0-1.3.2-1.3.55 0 .35.53.6 2 1.05 1.47.44 2.5 1.02 2.5 2.42S36.1 32 34.1 32a7.4 7.4 0 0 1-3.8-1.27c.2-.33.66-1.1.9-1.53 1.13.7 2.13 1.11 2.9 1.11s1.2-.29 1.2-.57c0-.29.07-.54-1.63-1.09-1.7-.54-2.77-1.08-2.77-2.32 0-1.25 1.2-2.33 3.2-2.33 1.6 0 2.8.68 3.2 1.02Z" fill="#fff"/></svg>