<!-- by TradingView --><svg width="56" height="56" viewBox="0 0 56 56" xmlns="http://www.w3.org/2000/svg"><path fill="#F0F3FA" d="M0 0h56v56H0z"/><path d="M11.25 23a3 3 0 0 0-2.73 1.86L5 33h4.02l3.45-8h2.79l-3.44 8h2.96l3.45-8h2.79l-3.45 8h3.7l3.63-8.41c.32-.74-.18-1.59-.95-1.59h-12.7ZM28.48 28.01l8.45-4.73c.13-.07.07-.28-.07-.28H32.8l-6.33 3.5c-1.14.64-2 2.29-1.11 3.25l3 3.25h4.29c.13 0 .19-.16.1-.25L28.48 28Z" fill="#253A8F"/><path fill-rule="evenodd" d="M38.38 23 34 33h3.64L39 30h7.75c1.08 0 1.99-.59 2.45-1.64l1.72-3.98c.27-.65-.17-1.38-.83-1.38H38.38Zm2.75 2-1.3 3h5.89L47 25h-5.87Z" fill="#253A8F"/></svg>