<!-- by TradingView --><svg width="56" height="56" viewBox="0 0 56 56" xmlns="http://www.w3.org/2000/svg"><path fill="#F0F3FA" d="M0 0h56v56H0z"/><path d="m28.39 25.9-2.69-4.49-5.87 6.9 3.13 5.36 5.43-7.77Z" fill="#060808"/><path d="M40.44 38h5.1l-8.15-13.56h-5.1L40.44 38Z" fill="url(#a)"/><path d="M17.88 17H23L10.58 38 8 33.62 17.88 17Z" fill="url(#b)"/><path d="M32.88 17H38L25.5 38l-2.57-4.38L32.88 17Z" fill="url(#c)"/><path d="M25.5 38h5.21l7.4-12.36 4.8 7.98H48L38 17 25.5 38Z" fill="url(#d)"/><path d="M42.9 33.62H48L45.53 38h-5.1l2.47-4.38Z" fill="#28C1E7"/><path d="M25.7 21.41 23 17 10.58 38h5.2l9.92-16.59Z" fill="url(#e)"/><defs><linearGradient id="a" x1="37.64" y1="25.42" x2="41.79" y2="37.25" gradientUnits="userSpaceOnUse"><stop stop-color="#2D3895"/><stop offset="1" stop-color="#1DACDA"/></linearGradient><linearGradient id="b" x1="23.15" y1="16.97" x2="11.04" y2="38.22" gradientUnits="userSpaceOnUse"><stop stop-color="#26C0E7"/><stop offset="1" stop-color="#2E3192"/></linearGradient><linearGradient id="c" x1="38.06" y1="17.43" x2="22.93" y2="17.43" gradientUnits="userSpaceOnUse"><stop stop-color="#1EB8E2"/><stop offset="1" stop-color="#2D3896"/></linearGradient><linearGradient id="d" x1="46.28" y1="30.18" x2="25.66" y2="38.3" gradientUnits="userSpaceOnUse"><stop stop-color="#3F4150"/><stop offset="1" stop-color="#100F13"/></linearGradient><linearGradient id="e" x1="23.71" y1="17.38" x2="11.01" y2="38.24" gradientUnits="userSpaceOnUse"><stop stop-color="#3F4252"/><stop offset="1" stop-color="#0F0E13"/></linearGradient></defs></svg>