<!-- by TradingView --><svg width="56" height="56" viewBox="0 0 56 56" xmlns="http://www.w3.org/2000/svg"><path fill="#F0F3FA" d="M0 0h56v56H0z"/><path d="M37.68 19 34 25l2.83 4L43 19h-5.32Z" fill="#07624A"/><path d="M11 40.89c0-1.54.64-3.18 1.06-3.8 0 .82.2 2.02 1.93 2.02 1.74 0 5.5-2.28 12.36-9.36 6.85-7.08 8.02-11.81 8.02-13.08 0-1.01-1.35-1.12-2-1.05.8-.54 2.63-1.62 3.5-1.62 1.1 0 1.7.4 1.7 1.62 0 3.19-3.41 8.44-9.26 15.35C20.18 40.4 13.47 43 12.7 43c-.78 0-1.69-.82-1.69-2.11Z" fill="#31246A"/><path d="M34 31.32V25l11 15h-5.12L34 31.32ZM31 20h-2v5a26.5 26.5 0 0 0 2-5ZM19 25.9V20l4 4.13L20.07 27 19 25.9Z" fill="#44AA5B"/><path d="M28 26.29V20l-7.5 7.5 3.3 3.5 4.2-4.71Z" fill="#07624A"/><path d="M14 20h4v16.14L14 39V20ZM33 39h-4V28.14L33 23v16Z" fill="#31246A"/></svg>