<!-- by TradingView --><svg width="56" height="56" viewBox="0 0 56 56" xmlns="http://www.w3.org/2000/svg"><path fill="#F0F3FA" d="M0 0h56v56H0z"/><path d="M26.33 41.58A4.93 4.93 0 0 0 21.6 38a6.5 6.5 0 0 0-3.17.67c-.8.36-1.46.67-3.42.23.88 1.87 3.08 5.94 6.85 5.94 1.55 0 3.63-1.25 4.48-1.87.32.21.97.92.97 2.03h.7c.06-1.25-1.37-3.96-7.55-4.8 1.14-.4 4.21 0 5.88 1.38Zm3.34 0A4.93 4.93 0 0 1 34.41 38c1.73 0 2.5.36 3.17.67.8.36 1.46.67 3.42.23-.88 1.87-3.07 5.94-6.85 5.94-1.54 0-3.63-1.25-4.48-1.87-.32.21-.96.92-.96 2.03H28c-.07-1.25 1.36-3.96 7.55-4.8-1.15-.4-4.22 0-5.89 1.38Z" fill="#137451"/><path d="M27.43 30v-5H21c.04 1.97.34 3.86.86 5.63 1.78-.37 3.64-.59 5.56-.62Zm0 1c-1.81.04-3.57.24-5.25.58a19.02 19.02 0 0 0 3.56 6.24c.55.1 1.12.16 1.69.18v-7Zm1.04 7v-7c1.81.03 3.58.23 5.26.56a17.58 17.58 0 0 1-4.07 6.33c-.4.06-.8.1-1.2.11Zm0-8v-5H35a20.02 20.02 0 0 1-.94 5.61 29.8 29.8 0 0 0-5.6-.6ZM36 25c-.05 2.05-.39 4-.96 5.83 1.28.32 2.5.71 3.68 1.18A13.84 13.84 0 0 0 40.89 25H36Zm4.9-1H36a21 21 0 0 0-.97-5.87 27 27 0 0 0 3.65-1.2A13.83 13.83 0 0 1 40.9 24ZM35 24h-6.53v-5c1.93-.04 3.8-.26 5.58-.64.57 1.76.9 3.66.95 5.64Zm-6.53-6c1.8-.03 3.57-.25 5.24-.62a17.57 17.57 0 0 0-4.05-6.27c-.4-.06-.8-.1-1.2-.11v7Zm-1.04-7v7a26.31 26.31 0 0 1-5.23-.64 19 19 0 0 1 3.54-6.18c.55-.1 1.12-.16 1.69-.18Zm0 8v5H21c.04-1.96.34-3.84.85-5.6 1.78.36 3.65.57 5.57.6ZM20 24c.04-2.03.35-3.99.88-5.82a27.1 27.1 0 0 1-3.72-1.19A13.84 13.84 0 0 0 15 24h5ZM15 25c.1 2.6.89 5.02 2.2 7.05 1.17-.48 2.41-.88 3.7-1.2-.54-1.84-.85-3.8-.9-5.85h-5Zm23.13 7.85a12.95 12.95 0 0 1-6.78 4.69 18.92 18.92 0 0 0 3.36-5.76c1.2.29 2.33.65 3.42 1.07Zm-6.78-21.39a18.9 18.9 0 0 1 3.34 5.69c1.16-.31 2.27-.7 3.33-1.15-1.69-2.17-4-3.79-6.67-4.54ZM21.2 31.8c.7 2.08 1.7 3.97 2.94 5.62a12.97 12.97 0 0 1-6.35-4.54 26.3 26.3 0 0 1 3.4-1.08Zm-3.3-15.83c1.6-2.05 3.76-3.6 6.24-4.39a20.34 20.34 0 0 0-2.92 5.54c-1.15-.3-2.26-.7-3.32-1.15Z" fill="#0F4B91"/></svg>