<!-- by TradingView --><svg width="56" height="56" viewBox="0 0 56 56" xmlns="http://www.w3.org/2000/svg"><path fill="#0A4BFF" d="M0 0h56v56H0z"/><path d="m36.93 37.5-.23.63c-.33.88-1.2.87-2 .86h-.21c-7.06.02-14.13.01-21.2-.02-.14 0-.28-.02-.4-.06-.2-.05-.34-.1-.4-.15-.32-.25-.49-.52-.49-.8V19.35c0-.05.01-.1.04-.14l.07-.14c.17-.32.35-.65.76-.85.25-.13.6-.22 1.07-.3 2.6-.38 5.31-.8 8.16-1.25.06-.01.1-.04.13-.1l1.54-2.87c.23-.43.79-.72 1.29-.7a2 2 0 0 1 1.4.6l.1.18c0 .03 0 .04-.04.02-.78-.5-1.47-.51-2.07-.03-.2.16-.43.48-.69.98L13.31 34.59c-.2.4-.32.72-.33.97a1.63 1.63 0 0 0 1.06 1.6c.45.23 1.05.15 1.4-.17.13-.1.28-.34.47-.7a133722.29 133722.29 0 0 1 7.43-14.71h.01c.02.02.02 2.88.02 6.45v5.91c0 .17.05.37.18.6.27.54.95.86 1.5.89.68.04 1.09-.27 1.52-.81l.16-.2c.17-.2.33-.4.46-.63l4.08-8.02c.05-.1.07-.09.07.02v7.09c0 .44.18.9.54 1.2.7.58 1.45.6 2.22.07.27-.18.46-.42.55-.73.06-.17.1-.47.1-.87V19.7c0-.63-.02-1-.04-1.1-.2-.9-1.15-1.4-2.01-1.21-.51.11-.9.42-1.18.94a1218.37 1218.37 0 0 0-5.38 10.29v-.02l.63-2.55.02-.15v-10c0-.03.02-.06.06-.06 4.3-.73 7.7-1.32 10.21-1.77.5-.09.9-.1 1.34-.02.57.1.64 1.06.6 1.54 0 .09.03.12.12.11.39-.05.85-.06 1.4-.03.63.03 1.04.3 1.23.79.09.23.11.67.06 1.3a912.52 912.52 0 0 1-.3 3.83l.06.04c.57.12 1.18-.08 1.71-.28.33-.12.61-.15.96-.2l.41-.06c1.03-.16 1.4.82 1.35 1.66-.02.29-.07.71-.14 1.28-.24 1.7-3 2.25-4.55 2.55l-.39.08c-.04 0-.06.03-.06.07l-.84 8.34c-.02.26-.06.5-.1.72l-.05.19c-.1.53-.23 1.11-.76 1.35-.17.07-.48.1-.94.1h-1.16c-.04 0-.06.02-.08.06Zm3.17-19.68c.07-.67.03-1.2-.49-1.57-.2-.15-.39-.26-.56-.34-.05-.02-.08 0-.08.04l-1.9 19.67v.03a.04.04 0 0 0 .04.01c.82-.01 1.16-.12 1.26-1 .1-.79.2-1.8.33-3.03l1.4-13.81Zm4.43 6.45a1.28 1.28 0 0 0-.9-2.18 1.28 1.28 0 0 0 0 2.55c.34 0 .66-.13.9-.37Zm-.2-.93c0 .38-.3.68-.67.68a.67.67 0 0 1-.67-.68c0-.37.3-.67.67-.67.37 0 .67.3.67.67Z" fill="#fff"/></svg>