<!-- by TradingView --><svg width="56" height="56" viewBox="0 0 56 56" xmlns="http://www.w3.org/2000/svg"><path fill="#F0F3FA" d="M0 0h56v56H0z"/><path d="M7 21.36 9.49 21l-.25 15L7 21.36Zm42 0L46.51 21l.25 15L49 21.36Z" fill="#08338F"/><path d="m8 20.08.6 8.43h38.8l.6-8.43C40 18.5 31.35 18.04 28 18c-3.35.04-12 .51-20 2.08Z" fill="#009846"/><path d="m8.61 28.51.42 8.74a107.92 107.92 0 0 0 19.94 1.73c3.82-.07 10.76-.34 18-1.73l.42-8.74H8.6Z" fill="#006CB5"/><path d="M40 26.22c0 .37-.06.78-.48.78-.41 0-.52-.41-.52-.78v-3.47c0-.35.1-.74.48-.74.24 0 .41.16.56.35l1.96 2.7v-2.27c0-.38.06-.79.48-.79.41 0 .52.42.52.79v3.52c0 .34-.1.69-.48.69-.26 0-.45-.2-.6-.4L40 23.96v2.26ZM36 24.97v1.2c0 .38-.15.8-.53.8-.37 0-.47-.42-.47-.8v-3.39c0-.3.05-.5.15-.6.1-.12.26-.18.5-.18h.73c.8 0 1.62.49 1.62 1.53 0 .7-.45 1.2-1.03 1.33l.75.98c.09.11.16.23.2.34.06.1.08.2.08.3 0 .14-.04.27-.13.37a.4.4 0 0 1-.32.15c-.22 0-.38-.22-.5-.4L36 24.97Zm0-.75h.38c.32 0 .62-.2.62-.6a.6.6 0 0 0-.6-.62H36v1.22ZM33.13 22c.37 0 .83.1.83.54 0 .43-.47.46-.83.46H32v1h1c.37 0 .83.04.83.48s-.46.53-.83.53h-1V26h1.17c.36 0 .83.03.83.47 0 .44-.47.53-.83.53H31.8c-.31 0-.52-.05-.63-.15-.11-.1-.17-.3-.17-.57V22.8c0-.54.25-.8.81-.8h1.32ZM27 26h.72c.87 0 1.28-.68 1.28-1.56 0-.86-.49-1.44-1.3-1.44H27v3Zm.6-4c.3 0 .56.03.8.09 1 .25 1.6 1.3 1.6 2.36 0 1.46-.89 2.55-2.3 2.55h-.97c-.28 0-.48-.05-.58-.15-.1-.1-.15-.3-.15-.57V22.8c0-.3.05-.51.16-.62.12-.12.3-.18.58-.18h.86ZM21.26 24.51c0 .7.38 1.49 1.24 1.49.85 0 1.23-.8 1.23-1.49 0-.7-.37-1.51-1.23-1.51-.88 0-1.24.8-1.24 1.51ZM20 24.5c0-1.37.97-2.5 2.5-2.5 1.52 0 2.5 1.13 2.5 2.5s-.97 2.5-2.5 2.5a2.41 2.41 0 0 1-2.5-2.5ZM13.04 26.08l.63-3.32c.08-.43.3-.76.79-.76.44 0 .71.27.82.66l.77 2.9.73-2.9c.1-.39.37-.66.8-.66.52 0 .74.35.82.8l.57 3.35.02.15.01.12c0 .33-.23.58-.6.58-.38 0-.52-.33-.57-.65l-.37-2.9c-.28 1.16-.49 1.98-.63 2.46-.13.47-.19 1.09-.8 1.09-.4 0-.6-.2-.7-.56l-.75-3-.4 2.84c-.05.34-.19.72-.61.72-.35 0-.57-.26-.57-.58l.01-.15.03-.19ZM40 33.4c0 1.03-.8 1.6-1.64 1.6-.39 0-1.36-.13-1.36-.76 0-.15.04-.27.13-.35.09-.1.2-.14.34-.14.08 0 .23.04.46.12.23.08.42.13.57.13a.5.5 0 0 0 .5-.5c0-.42-.47-.55-.76-.65-.62-.2-1.24-.54-1.24-1.35 0-.95.8-1.5 1.58-1.5.37 0 1.15.12 1.15.7 0 .14-.04.25-.12.34a.41.41 0 0 1-.31.12c-.26 0-.5-.17-.76-.17-.22 0-.54.12-.54.41 0 .2.26.36.64.5l.2.06c.6.23 1.16.65 1.16 1.44ZM35.13 30c.37 0 .87.1.87.54 0 .43-.5.46-.87.46H34v1h1c.37 0 .83.04.83.48s-.46.53-.83.53h-1V34h1.17c.36 0 .83.03.83.47 0 .44-.47.53-.83.53H33.8c-.31 0-.52-.05-.63-.15-.11-.1-.17-.3-.17-.57V30.8c0-.54.25-.8.81-.8h1.32ZM32 34.21c0 .38-.1.79-.5.79s-.5-.41-.5-.79V30.8c0-.37.1-.79.5-.79s.5.42.5.79v3.42ZM28 32.97v1.2c0 .38-.15.83-.53.83-.37 0-.47-.45-.47-.83v-3.39c0-.3.05-.5.14-.6.1-.12.27-.18.51-.18h.73c.8 0 1.58.49 1.58 1.53 0 .7-.41 1.2-.99 1.33l.75.98c.13.16.28.4.28.63 0 .3-.2.53-.45.53-.22 0-.38-.22-.5-.4L28 32.97Zm0-.75h.38c.32 0 .62-.2.62-.6a.6.6 0 0 0-.61-.62H28v1.22ZM26 34.21c0 .38-.1.79-.5.79s-.5-.41-.5-.79V30.8c0-.37.1-.79.5-.79s.5.42.5.79v3.42ZM21.14 34l-.15.5c-.08.24-.23.5-.5.5-.28 0-.49-.23-.49-.53v-.18l.05-.14 1.18-3.43c.13-.39.38-.72.8-.72.37 0 .63.28.75.64l1.15 3.49.05.2.02.15a.5.5 0 0 1-.51.52c-.3 0-.46-.26-.54-.54l-.13-.46h-1.68Zm.3-1h1.08L22 31.19 21.44 33ZM16 34h.72c.87 0 1.28-.68 1.28-1.56 0-.86-.49-1.44-1.3-1.44H16v3Zm.6-4c.3 0 .56.03.8.09 1 .25 1.6 1.3 1.6 2.36 0 1.46-.89 2.55-2.3 2.55h-.97c-.28 0-.47-.05-.58-.15-.1-.1-.15-.3-.15-.57V30.8c0-.54.23-.8.74-.8h.86Z" fill="#fff"/></svg>