<!-- by TradingView --><svg width="56" height="56" viewBox="0 0 56 56" xmlns="http://www.w3.org/2000/svg"><path fill="#F0F3FA" d="M0 0h56v56H0z"/><path fill-rule="evenodd" d="m31.27 15.44.12-.26c.11-.24.3-.36.56-.33.95.08 1.62.48 2.02 1.2 2.6 4.7 4.55 8.28 5.85 10.75.92 1.74 1.79 3.49 2.6 5.25l.23.43c.3.54.64 1.14.34 1.74a54.41 54.41 0 0 1-2.35 4.27c-.23.37-.6.53-1.05.53-2.85.02-5.69.01-8.53-.01-.11 0-.15.05-.1.15l.31.73c.05.1.25.1.37.11h7.94a2.32 2.32 0 0 0 1.73-.98 42.38 42.38 0 0 0 2.34-4.24c.28-.57.36-1.38.1-1.94-2.35-5.16-5.17-10.26-7.87-15.13l-1.1-1.99a3.1 3.1 0 0 0-1.85-1.55 1.62 1.62 0 0 1-.21-.08.97.97 0 0 0-.54-.08.14.14 0 0 1-.14-.07.15.15 0 0 1 0-.15c.3-.5.7-.79 1.18-.85.8-.11 1.36.55 1.75 1.2a133.9 133.9 0 0 1 4.2 7.4c1.86 3.56 3.78 7.29 5.77 11.2.3.59.28 1.33-.05 1.91-1.06 1.9-2.13 3.74-3.19 5.52-.33.56-1.1.83-1.71.83l-8.27-.01c-.1 0-.13.05-.08.14l.47.76c.03.07.08.1.15.1L40 42c1.07 0 1.97-.56 2.54-1.51 1.26-2.14 2.3-4 3.15-5.6.44-.84.4-1.77-.04-2.61l-.54-1.09a262.46 262.46 0 0 0-9.33-17.4c-.76-1.27-2.1-2.45-3.6-1.37a3.2 3.2 0 0 0-1.07 1.32 3934.75 3934.75 0 0 1-2.58 5.6.14.14 0 0 1-.2-.04l-3.24-5.64c-.23-.4-.49-.7-.77-.9-1.13-.82-2.68-.6-3.4.68l-9.6 16.9-.52.84c-.17.26-.34.52-.5.8a2.08 2.08 0 0 0-.2 1.7l.07.29c.05.2.1.4.2.6l3.01 6.24c.37.76.98 1.18 1.83 1.19a507.49 507.49 0 0 0 3.83 0c.1 0 .18-.05.22-.14l.3-.72c.05-.1.02-.14-.09-.14H15.1c-.3 0-.56-.1-.77-.33a.89.89 0 0 1-.14-.25 2.75 2.75 0 0 0-.02-.06c-.11-.24-.04-.36.22-.36h5.58c.02 0 .03 0 .04-.03a5.47 5.47 0 0 0 .37-.98c-1.75.02-3.3.01-4.87.01h-1.75c-.14 0-.23-.07-.29-.2v-.01c0-.04-.07-.34-.2-.64-.04-.14.09-.15.23-.15h7c.13 0 .36-.12.42-.24l.24-.57c.05-.1-.05-.19-.16-.19h-8.15a.26.26 0 0 1-.24-.16l-.26-.63c-.07-.14-.02-.21.13-.21h9.12s.05-.01.06-.04l.34-.9c.01-.04 0-.06-.04-.06h-9.79c-.22 0-.39-.1-.5-.31a1.88 1.88 0 0 1-.12-.36c-.08-.22 0-.33.22-.33H22.4c.02 0 .05-.01.06-.04l.34-.89a.05.05 0 0 0 0-.04.04.04 0 0 0-.04-.02L12.48 33h-.02c-.76 0-1.73 0-1.14-1.03l3.07-5.36 3.81-6.65c.34-.6 1.44-.12 1.71.34 1.2 2.03 2.42 4 3.63 5.92l.05.09c.38.6 1.21 1.94 2 1.36.27-.2.47-.47.59-.8.15-.43.32-.85.5-1.25.72-1.64 1.5-3.36 2.32-5.15a.26.26 0 0 1 .1-.1.24.24 0 0 1 .13-.05c.44 0 .87.17 1.11.6.92 1.66 1.72 3.19 2.4 4.59.6 1.22 1.2 2.25 1.8 3.3.57.97 1.15 1.96 1.73 3.13.38.75-.6 1.06-1.25 1.06h-6.37c-.08 0-.1.04-.07.12l.26.75c.04.09.1.13.2.13h5.98c1.38.01 2.68-1.07 2-2.48a74.17 74.17 0 0 0-2.1-3.88c-.7-1.24-1.42-2.5-2.14-3.96a46.05 46.05 0 0 0-1.82-3.33 1.7 1.7 0 0 0-1.3-.83.17.17 0 0 1-.14-.1.18.18 0 0 1 0-.16l.24-.46a.2.2 0 0 1 .17-.12c.65-.06 1.04-.03 1.44.6.96 1.5 1.8 2.9 2.49 4.22 1.52 2.89 3.06 6 4.6 9.32.17.38.19.77.02 1.18A1.55 1.55 0 0 1 37 35h-7.5c-.09 0-.11.04-.07.13l.21.78s.05.09.36.09h6c1.46 0 2.25 0 2.9-1.16.1-.18.2-.32.3-.44.22-.33.38-.54.3-1.1a3.02 3.02 0 0 0-.26-.82c-2.2-4.76-4.37-9.32-7.2-13.75a1.85 1.85 0 0 0-1.53-.9.22.22 0 0 1-.2-.13.24.24 0 0 1 0-.22l.3-.56c.1-.19.26-.26.47-.22.44.1.84.26 1.2.48.28.17.5.4.66.68a279.9 279.9 0 0 1 7.84 15.23c.22.46.2.9-.07 1.35-.28.46-.56.83-.83 1.19-.25.32-.5.64-.74 1.03a.77.77 0 0 1-.66.34h-8.25c-.1 0-.14.07-.09.17l.32.68c.05.1.23.15.54.15h6.94c.77 0 1.37-.16 1.79-.74l.52-.69c.42-.53.83-1.07 1.26-1.85.33-.6.35-1.36.06-1.97a306.84 306.84 0 0 0-5.92-11.73 79.68 79.68 0 0 0-2.08-3.7c-.39-.66-1.09-1.13-2.1-1.4-.25-.08-.32-.24-.2-.48Zm-6.94.77a3 3 0 0 0-2.12-1.43.16.16 0 0 1-.13-.2.16.16 0 0 1 .06-.08c1.1-.87 2-.3 2.58.75a95.86 95.86 0 0 0 3.32 5.59v.06a2.15 2.15 0 0 1-.48.73h-.01a344.12 344.12 0 0 0-3.22-5.42Zm-2.57-.66c.82-.02 1.55.55 1.95 1.25.98 1.66 2 3.38 3.09 5.15.11.2.25.36.42.5.05.05.06.11.03.18l-.22.44c-.12.23-.25.24-.38.02a379.07 379.07 0 0 1-3.43-5.59 2.32 2.32 0 0 0-1.9-1.13c-.14-.01-.18-.08-.1-.2l.26-.46a.3.3 0 0 1 .28-.16Zm4.08 7.84a1340.9 1340.9 0 0 1-3.38-5.55c-.3-.5-.96-.71-1.57-.72a.34.34 0 0 0-.33.2l-.19.35c-.07.13-.03.2.13.22.68.05 1.22.4 1.61 1.05a230.2 230.2 0 0 0 3.8 6.02c.08.13.16.13.23 0l.4-.75c.05-.08.03-.14-.04-.18a1.8 1.8 0 0 1-.66-.64Zm-4.78-3.06a1.8 1.8 0 0 0-1.5-.9.12.12 0 0 1-.1-.06.12.12 0 0 1-.01-.1c.1-.28.3-.6.63-.6.4 0 .99.14 1.21.51 1.07 1.77 2.28 3.71 3.61 5.82.23.35.5.63.8.84.07.04.08.1.05.18l-.28.7a.19.19 0 0 1-.15.12.18.18 0 0 1-.17-.08c-.38-.5-.73-1-1.05-1.52l-3.04-4.9Z" fill="#E5007A"/></svg>