<!-- by TradingView --><svg width="56" height="56" viewBox="0 0 56 56" xmlns="http://www.w3.org/2000/svg"><path fill="#F0F3FA" d="M0 0h56v56H0z"/><path d="M29.3 16.98a1.41 1.41 0 0 1 1.96-.84l1.74.84c1.78.88 3.24 1.96 4.38 3.22 1.4 1.56 2.08 3.19 2.01 4.88 0 .18.06.22.2.1a7.8 7.8 0 0 1 2.75-1.51 4.12 4.12 0 0 1 3.1.46c.1.06.22.08.34.07.22-.02.42-.02.62-.01.77.05.8.22.08.5L8.1 39.99c-.04.02-.07 0-.09-.03-.02-.05 0-.08.03-.1 3.83-2.05 7.63-4.07 11.39-6.05a37.04 37.04 0 0 0 5.13-3.24c.68-.52 1.33-1.5 1.94-2.95.46-1.1.83-2.26 1.1-3.5.55-2.4 1.11-4.78 1.7-7.14Z" fill="#F58A1E"/><path d="M27.5 21.42c-.3 1.9-.69 3.5-1.14 4.77a10.6 10.6 0 0 1-2.43 4.08c-.43.42-1.3 1.02-2.62 1.8-2.52 1.5-5.04 2.94-7.57 4.29-.05.03-.1.01-.13-.04l-.05-.07.01-.03a84.5 84.5 0 0 0 5.83-4.7 3.97 3.97 0 0 0 1.38-3.02c0-1.12-.08-2.21-.28-3.28l-1.15-6.3c-.1-.54.12-.8.65-.77 1.69.06 4.13 1.04 7.35 2.94a.3.3 0 0 1 .16.33Z" fill="#015496"/></svg>