<!-- by TradingView --><svg width="56" height="56" viewBox="0 0 56 56" xmlns="http://www.w3.org/2000/svg"><path fill="#C06" d="M0 0h56v56H0z"/><path d="m49.5 33.28.2 1.35h-.13c-.1-.44-.24-.79-.44-1.04s-.43-.38-.69-.38c-.3 0-.54.25-.54.6 0 .44.41.64.68.82.6.4 1.42.86 1.42 1.86 0 .69-.34 1.2-.92 1.4-.19.07-.4.11-.62.11-.38 0-.83-.1-1.35-.32L47 35.92h.11c.28 1.2.71 1.8 1.3 1.8.42 0 .71-.34.71-.84 0-.62-.55-.88-.92-1.13-.47-.33-1.08-.69-1.08-1.47 0-.85.66-1.28 1.27-1.28.3 0 .67.1 1.1.28Zm-.73 4.5c.56-.1.9-.51.9-1.12 0-.8-.68-1.22-1.17-1.55-.34-.23-.92-.53-.92-1.12 0-.3.13-.56.4-.8-.45.2-.7.58-.7 1.07 0 .7.56 1.02.98 1.31.42.29 1.02.6 1.02 1.3 0 .44-.17.74-.5.9Zm-1.52-.25c.2.08.4.16.6.22a2.29 2.29 0 0 1-.65-.85l.05.63ZM41.81 34.24c.24-.3.46-.53.67-.72.43-.38.8-.52 1.27-.52 1.02 0 1.5.88 1.5 1.88v1.98c0 .52.22.88.75.98V38h-2.47v-.16c.52-.1.56-.46.56-.98v-2.01c0-.59.04-1.48-.7-1.48-.24 0-.47.09-.7.26-.23.17-.52.48-.88.92v2.3c0 .53.13.9.66.99V38H40v-.16c.53-.1.66-.45.66-.98v-2.5c0-.33-.04-.57-.14-.7-.1-.15-.27-.24-.52-.28v-.13l1.81-.22v1.2Zm2.18 3.5h1.13c-.2-.16-.31-.25-.31-.53l-.01-.06v-2.27c0-.77-.14-1.67-1.06-1.67a3 3 0 0 0-.26.02c.7.1.8.46.8 1.61v2.31c0 .3-.1.4-.29.59Zm-3.43 0h1.13c-.2-.16-.32-.25-.32-.53v-3.94l-.92.12c.1.08.36.21.39.37l.02.27v3.12c0 .3-.1.41-.3.59ZM18 35.5a2.52 2.52 0 0 1 3.47-2.3 2.51 2.51 0 0 1 .29 4.47c-.38.22-.8.33-1.25.33A2.5 2.5 0 0 1 18 35.5Zm1.25-.03c0 .72.06 1.67.72 2.11a.96.96 0 0 0 1.07 0c.66-.44.72-1.39.72-2.11 0-.9-.16-1.61-.57-2a.97.97 0 0 0-.69-.28c-1.08 0-1.25 1.46-1.25 2.28Zm.35 2.2c-.67-.57-.9-1.29-.9-2.18 0-1.05.33-1.79 1-2.22a2.42 2.42 0 0 0-1.52 2.23c0 1 .59 1.7 1.42 2.17Zm1.45.1a2.4 2.4 0 0 0 1.46-2.27c0-.91-.45-1.87-1.33-2.23.55.43.83 1.17.83 2.21 0 1.05-.27 1.73-.87 2.21l-.09.07ZM24 35.5a2.52 2.52 0 0 1 3.47-2.3 2.51 2.51 0 0 1 .29 4.47c-.38.22-.8.33-1.25.33A2.5 2.5 0 0 1 24 35.5Zm1.25-.03c0 .72.06 1.67.72 2.11a.96.96 0 0 0 1.07 0c.66-.44.72-1.39.72-2.11 0-.9-.16-1.61-.57-2a.97.97 0 0 0-.69-.28c-1.08 0-1.25 1.46-1.25 2.28Zm.35 2.2c-.67-.57-.9-1.29-.9-2.18 0-1.05.33-1.79 1-2.22a2.42 2.42 0 0 0-1.52 2.23c0 1 .59 1.7 1.42 2.17Zm1.45.1a2.4 2.4 0 0 0 1.46-2.27c0-.91-.45-1.87-1.33-2.23.55.43.83 1.17.83 2.21 0 1.05-.27 1.73-.87 2.21l-.09.07ZM12.87 29h.17l2.39 6.85 1.59-4.42c.14-.4.21-.74.21-1 0-.65-.44-1.05-1.34-1.23V29H19v.2c-.5.19-.92.56-1.26 1.18-.17.3-.34.69-.51 1.14L14.89 38h-.16l-2.35-6.83L10.13 38h-.15l-2.52-7c-.3-.81-.62-1.59-1.46-1.8V29h3.79v.2c-.34.02-.58.06-.72.12a.6.6 0 0 0-.43.6c0 .19.05.42.15.7l1.83 5.26L12.87 29Zm-.05.86-.32.97 2.34 6.76.32-.92-2.34-6.8Zm-2.47 6.82-2.08-5.97a2.7 2.7 0 0 1-.17-.76c0-.14.03-.26.1-.36.05-.1.16-.22.32-.35H6.68c.5.44.75 1.06.98 1.68l2.4 6.67.29-.91Zm6.36-7.44c.25.14.42.28.52.43.11.15.18.34.2.6.2-.42.45-.76.76-1.03H16.7ZM47 26.4c-.5.4-.95.6-1.51.6-.76 0-1.49-.41-1.49-1.24 0-1.06 1.02-1.67 3-1.75 0-.57.17-1.8-.7-1.8a.56.56 0 0 0-.45.18c-.34.37-.05 1.18-.73 1.18-.27 0-.48-.2-.48-.5 0-.4.32-.74.83-.93a2.56 2.56 0 0 1 1.93.1c.75.38.9 1.12.9 1.89v1.68c0 .33.05.56.14.7.1.13.29.29.56.33V27h-2v-.6Zm0-.27V24.2c-.39.05-.65.15-.93.29-.55.27-.85.7-.85 1.22 0 .48.32.9.82.9.3 0 .57-.16.96-.48Zm.2.61h.96c-.14-.1-.33-.28-.33-.47V24.1c0-.78-.16-1.67-1.04-1.9.59.4.41 1.3.41 1.93v2.61Zm-1.45.1c-.68-.14-1.02-.5-1.02-1.1 0-.77.66-1.15 1.28-1.44-.77.15-1.8.5-1.8 1.45 0 .72.64 1.1 1.3 1.1l.24-.01Zm0-4.63c-.55.14-.93.48-.93.87 0 .15.08.24.2.24.06 0 .1-.01.13-.04.02-.04.05-.1.07-.2.04-.23.1-.4.16-.5.08-.11.2-.24.37-.37ZM38 27v-.18c.68-.11.77-.53.77-1.07v-6.3c0-.52-.1-.97-.77-1.07v-.14l2.2-.24v7.75c0 .54.13.96.8 1.07V27h-3Zm.64-.29h1.41c-.26-.18-.38-.35-.38-.64v-7.8l-1.16.12c.14.1.43.24.47.4l.02.31v6.97c0 .32-.11.44-.36.64Z" fill="#fff"/><path d="M29 38v-.18c.68-.1.77-.53.77-1.07v-6.3c0-.52-.1-.97-.77-1.07v-.14l2.2-.24v7.75c0 .54.13.96.8 1.07V38h-3Zm.64-.29h1.41c-.26-.18-.38-.35-.38-.64v-7.8l-1.16.12c.14.1.43.24.47.4l.02.31v6.97c0 .32-.11.44-.36.64ZM41 27v-.18c.68-.11.77-.53.77-1.07v-6.3c0-.52-.1-.97-.77-1.07v-.14l2.2-.24v7.75c0 .54.13.96.8 1.07V27h-3Zm.64-.29h1.41c-.26-.18-.38-.35-.38-.64v-7.8l-1.16.12c.14.1.43.24.47.4l.02.31v6.97c0 .32-.11.44-.36.64ZM32 38v-.18c.68-.1.77-.53.77-1.07v-6.3c0-.52-.1-.97-.77-1.07v-.14l2.2-.24v7.75c0 .54.13.96.8 1.07V38h-3Zm.64-.29h1.41c-.26-.18-.38-.35-.38-.64v-7.8l-1.16.12c.14.1.43.24.47.4l.02.31v6.97c0 .32-.11.44-.36.64ZM34.34 24.17v.13c0 1.07.5 2.29 1.74 2.29.18 0 .37-.03.55-.09.39-.12.73-.33 1.19-.73l.12.15c-.42.39-.81.67-1.19.83-.37.17-.79.25-1.25.25-1.38 0-2.5-.97-2.5-2.39A2.6 2.6 0 0 1 35.65 22c.43 0 .81.08 1.17.25.72.34 1.13.93 1.18 1.92h-3.66Zm0-.2h2.42c0-.76-.2-1.78-1.14-1.78-.78 0-1.2.6-1.28 1.78Zm1.42 2.86c-1.3-.16-1.98-1.21-1.98-2.5 0-.78.24-1.48.86-2a2.5 2.5 0 0 0-1.43 2.27 2.24 2.24 0 0 0 2.3 2.23h.25Zm1.74-2.86c-.04-.86-.48-1.5-1.18-1.71.47.36.66.81.66 1.55v.16h.52ZM36.34 35.17v.13c0 1.07.5 2.29 1.74 2.29.18 0 .37-.03.55-.09.39-.12.73-.33 1.19-.73l.12.15c-.42.39-.81.67-1.19.83-.37.17-.79.25-1.25.25-1.38 0-2.5-.97-2.5-2.39A2.6 2.6 0 0 1 37.65 33c.43 0 .81.08 1.17.25.72.34 1.13.93 1.18 1.92h-3.66Zm0-.2h2.42c0-.76-.2-1.78-1.14-1.78-.78 0-1.2.6-1.28 1.78Zm1.42 2.86c-1.3-.16-1.98-1.21-1.98-2.5 0-.78.24-1.48.86-2a2.5 2.5 0 0 0-1.43 2.27 2.24 2.24 0 0 0 2.3 2.23h.25Zm1.74-2.86c-.04-.86-.48-1.5-1.18-1.71.47.36.66.81.66 1.55v.16h.52ZM30 26.22l-.02.02c-.54.5-1.03.76-1.64.76-.43 0-.83-.1-1.19-.33a2.58 2.58 0 0 1-1.15-2.2c0-1.43 1.28-2.47 2.6-2.47.52 0 .93.2 1.4.6v-3.16c0-.36-.05-.61-.15-.77-.1-.15-.2-.25-.47-.3v-.13l1.89-.24v7.64c0 .35.05.6.14.76.1.15.32.38.59.43V27h-2v-.78Zm0-3.25-.05-.05c-.51-.47-.83-.69-1.23-.69-.29 0-.54.1-.76.3-.56.51-.76 1.04-.76 1.9 0 .61.32 1.47.74 1.9.22.2.46.31.74.31.43 0 .82-.3 1.32-.88v-2.8Zm-1.98 3.84a3.9 3.9 0 0 1-.53-.4 2.76 2.76 0 0 1-.75-1.98c0-1.1.33-1.36.99-2.06-.93.57-1.53 1.13-1.53 2.1 0 1.2.76 2.08 1.82 2.34Zm2.18-.1h.93l-.13-.1c-.2-.1-.2-.46-.2-.66v-7.68l-1.03.12c.1.08.38.22.42.38l.01.31v7.64ZM20 24.5a2.52 2.52 0 0 1 3.47-2.3A2.51 2.51 0 0 1 25 24.5c0 1.36-1.12 2.5-2.49 2.5A2.52 2.52 0 0 1 20 24.5Zm1.18-.03c0 .81.24 2.27 1.33 2.27 1.07 0 1.31-1.44 1.31-2.27 0-.82-.24-2.28-1.32-2.28s-1.32 1.46-1.32 2.28Zm.42 2.2c-.67-.57-.9-1.29-.9-2.18 0-1.05.33-1.79 1-2.22a2.42 2.42 0 0 0-1.52 2.23c0 1 .59 1.7 1.42 2.17Zm1.45.1a2.4 2.4 0 0 0 1.46-2.27c0-.91-.45-1.87-1.33-2.23.55.43.83 1.17.83 2.21 0 1.05-.27 1.73-.87 2.21l-.09.07ZM12.8 26.6h-.15l-3.41-7.17-.37 4.46a8.3 8.3 0 0 0-.03.7c0 1.3.47 1.94 1.57 2.2V27H7v-.2c.61-.23 1.1-.72 1.34-1.33.14-.34.23-.88.3-1.62l.39-4.75a1.72 1.72 0 0 0-.54-.67c-.2-.14-.47-.21-.78-.23V18h3.03l-.04.09c-.07.2-.11.36-.11.47 0 .21.1.54.31.99l2.42 5.06 2-4.92c.16-.4.24-.7.24-.9 0-.22-.09-.48-.25-.79h3v.2c-.41.07-.72.2-.9.4-.19.19-.28.47-.28.85 0 .17.01.33.03.5l.53 4.9.08.58c.11.78.5 1.23 1.23 1.37v.2h-3.97v-.2c.88-.24 1.27-.6 1.27-1.16 0-.11-.01-.3-.04-.55l-.61-5.63-2.85 7.14Zm3.1.06h1.93c-.36-.3-.55-.52-.61-1.04l-.69-6.3-.01-.24c0-.2.07-.32.32-.53l.35-.3h-1.44l.78 7.27.03.15c.04.55-.25.7-.65 1Zm-3.2-.44.35-.86-2.88-6.04a1.93 1.93 0 0 1-.2-.68.8.8 0 0 1 .1-.39H8.61c.24.18.41.36.53.56.16.25.3.5.4.75l3.15 6.66Zm-3.56.44c-.3-.34-.5-.66-.58-1.12-.18.48-.46.82-.85 1.12h1.43Z" fill="#fff"/></svg>