<!-- by TradingView --><svg width="56" height="56" viewBox="0 0 56 56" xmlns="http://www.w3.org/2000/svg"><path fill="#F0F3FA" d="M0 0h56v56H0z"/><path d="M30.02 13.08c1.7-.1 3.54-.12 3.98 0-2.5.72-3.47 2.73-3.47 4.17s.37 2.66 1.48 3.52c-1.42.06-2.85-1.08-3.4-1.65v2.16l-1.7-1.37c-.02.67-.57 2.11-.8 3.09 0-1.61-.6-2.68-1.11-3.09.27-.38.81-1.35.81-2.16 0-1-.3-1.07-.81-1.65 1.62-.43 1.33-2.8 5.02-3.02ZM13.17 21A2.65 2.65 0 0 1 11 20c1.03 3.5 3.22 4 4.43 4H20c2.1 0 4.27.46 4.99 1-.64-3-3.54-4-4.67-4h-7.16ZM14.17 25A2.65 2.65 0 0 1 12 24c1.03 3.5 3.22 4 4.43 4H21c2.1 0 4.27.46 4.99 1-.64-3-3.54-4-4.67-4h-7.16ZM15.17 29A2.65 2.65 0 0 1 13 28c1.03 3.5 3.22 4 4.43 4H22c2.1 0 4.27.46 4.99 1-.64-3-3.54-4-4.67-4h-7.16ZM42.83 21c1.28 0 1.98-.73 2.17-1-1.03 3.5-3.22 4-4.43 4H36c-2.1 0-4.27.46-4.99 1 .64-3 3.54-4 4.67-4h7.16ZM41.83 25c1.28 0 1.98-.73 2.17-1-1.03 3.5-3.22 4-4.43 4H35c-2.1 0-4.27.46-4.99 1 .64-3 3.54-4 4.67-4h7.16ZM40.83 29c1.28 0 1.98-.73 2.17-1-1.03 3.5-3.22 4-4.43 4H34c-2.1 0-4.27.46-4.99 1 .64-3 3.54-4 4.67-4h7.16ZM9 34h38v1.13H9zM14 36h28v1H14zM18 38h20v1H18z" fill="#173B48"/></svg>