<!-- by TradingView --><svg width="56" height="56" viewBox="0 0 56 56" xmlns="http://www.w3.org/2000/svg"><path fill="#F0F3FA" d="M0 0h56v56H0z"/><path d="m51.62 27-.02-3.7c0-.2.06-.3.2-.3.15 0 .2.07.2.32 0 2.5-.03 5.19 0 7.68a102.41 102.41 0 0 0-6.56-3.87V30.77c0 .15-.07.23-.21.23-.15 0-.22-.1-.22-.29L45 23c1.43.9 3.64 2.3 6.62 4ZM40.1 23l3.9 8h-3.38l-.47-1-3.33-.01-.32.56c-.1.2-.16.33-.2.37a.16.16 0 0 1-.13.08c-.11 0-.17-.05-.17-.16 0-.05.03-.14.1-.27 1.26-2.55 2.68-5.03 4-7.57Zm-1.52 3.57-1.54 3.04h2.93l-1.4-3.04ZM36 27.47A3.54 3.54 0 0 1 32.49 31 3.56 3.56 0 0 1 29 27.48 3.54 3.54 0 0 1 32.48 24c.95 0 1.77.33 2.45.98.3.3.46.5.46.63 0 .04-.02.07-.05.1a.17.17 0 0 1-.12.05c-.08 0-.15-.06-.24-.17a2.98 2.98 0 0 0-2.49-1.3c-.12 0-.36.01-.49.03v6.35a3.26 3.26 0 0 0 3.68-2.9h-2.52c-.13 0-.46.06-.46-.15 0-.22.37-.15.52-.15H36ZM25.22 29.75a5.93 5.93 0 0 0 2.26.93c.1.02.16.07.16.15 0 .11-.08.17-.24.17a3.8 3.8 0 0 1-1.49-.46 10.8 10.8 0 0 1-1.92-1.2L24 31h-3l.02-7h2.03c.91 0 1.6.03 2.06.08 1.54.16 2.89 1.23 2.89 2.86a2.86 2.86 0 0 1-2.78 2.8Zm-.48-.31h.24c1.42 0 2.69-1.04 2.69-2.5 0-2.01-2-2.57-3.67-2.59v4.54c.2.2.5.38.74.55ZM16.5 24a3.5 3.5 0 1 1 0 7 3.5 3.5 0 0 1 0-7Zm-.38.32-.03 3.15.02 2.62v.6l.32.02a3.23 3.23 0 0 0 3.02-1.98 3.25 3.25 0 0 0-.17-2.8c-.33-.6-.8-1.04-1.4-1.32a3.29 3.29 0 0 0-1.76-.29ZM11.02 24 13 31h-2.88l-.91-3.55-1.96 3.04-2.01-2.89c-.2.7-.4 1.57-.63 2.6l-.18.7c-.04.06-.11.1-.22.1-.14 0-.21-.05-.21-.15 0-.03.04-.2.13-.5l.3-1.03.5-1.8 1-3.52 2.6 3.88L11.03 24Z"/></svg>