<!-- by TradingView --><svg width="56" height="56" viewBox="0 0 56 56" xmlns="http://www.w3.org/2000/svg"><path fill="#6A3995" d="M0 0h56v56H0z"/><path d="M5 24v8h2v-6h5.19c.4 0 .81.22.81.57V32h2v-5.79c0-1.22-1.13-2.21-2.53-2.21H5Z" fill="#fff"/><path fill="#EC543F" d="M9 27h2v5H9z"/><path fill-rule="evenodd" d="M20 32c2.52 0 4-1.8 4-4s-1.6-4-4-4-4 1.8-4 4 1.48 4 4 4Zm0-2c1.26 0 2-.9 2-2s-.8-2-2-2-2 .9-2 2 .74 2 2 2Z" fill="#fff"/><path d="M24.82 26a2.2 2.2 0 0 1-.3-2h2.17c-.19.44 0 .93.11 1.11l2.16 2.27c1.6 1.84.21 4.62-2.31 4.62H24v-2h2.32c.8 0 1.23-.84.72-1.42-.89-1.02-1.86-2.14-2.22-2.59ZM36 32v-2h-1.6c-1.3 0-2.4-.87-2.4-2.02 0-1.16 1.1-1.98 2.4-1.98H36v-2h-1.81C31.74 24 30 25.77 30 27.95v.1c0 2.18 1.74 3.95 4.19 3.95H36ZM37 24v8h2v-3h3v-2h-3v-3h-2ZM43 32v-5h2v5h-2Z" fill="#fff"/><path d="M43 26v-2h2v2h-2Z" fill="#EC543F"/><path d="M46 32v-5h3.37c.35 0 .63-.17.63-.5 0-.33-.28-.5-.63-.5H46v-2h3.4c1.44 0 2.6 1.12 2.6 2.5S50.84 29 49.4 29H48v3h-2Z" fill="#fff"/></svg>