<!-- by TradingView --><svg width="56" height="56" viewBox="0 0 56 56" xmlns="http://www.w3.org/2000/svg"><path fill="#0F213C" d="M0 0h56v56H0z"/><path fill-rule="evenodd" d="M48.28 30.95h-3.17v-.47h.22c.37 0 .67-.3.67-.68v-6.66h-.9v-.4c.86 0 1.9-.5 2.32-.74v4.57c.24-.58.9-1.57 1.97-1.57 1.42 0 1.9 1.23 1.9 1.67v3.76H52V31h-2v-3.75c.01-.36-.38-1.07-1.22-1.07-.77 0-1.2.75-1.36 1.22v2.4c0 .38.3.68.67.68h.2v.47ZM4 23.45V23h2.95l2.45 5.51L12.2 23H15v.45h-1.12v6.37c0 .37.3.66.66.66H15V31h-3.67v-.52h.32c.36 0 .66-.3.66-.66v-5.3L9.3 31h-.58l-3.07-6.43v5.54c0 .18.15.33.33.33h.7V31H4.04v-.56h.7c.19 0 .34-.15.34-.33v-6.66H4Zm11.65 2.35c.53-.1 1.73-.41 2.35-.8v1.42c.24-.51.89-1.33 1.96-1.33v1.9c-.1-.18-.46-.52-1.04-.52-.49 0-.79.43-.92.74v2.53c0 .4.3.72.67.72H19V31h-3.35v-.54h.36c.37 0 .67-.32.67-.72v-3.53l-1.03-.1v-.3ZM26 25c-.89.49-1.93.7-2.34.75v.47h.97v3.14c-.3.3-.73.58-1.18.58a.95.95 0 0 1-.99-.82V25c-.67.5-1.72.72-2.17.76v.53H21v3.64c.02.35.37 1.06 1.46 1.06 1.08 0 1.84-.55 2.17-.93V31h2.07v-.49H26V25Zm7.93 0H30.5c-1.38 0-2.5.9-2.5 2 0 .8.59 1.49 1.43 1.8-.44.26-1.16.78-1.16 1.33 0 .6.43.8.65.83-.4.11-1.17.57-1.17 1.46 0 1.11 1.57 1.58 2.68 1.58 1.1 0 3.25-.58 3.25-2.58 0-1.01-.85-1.41-1.27-1.42h-2.28s-1.19.14-.26-1.06c.2.04.41.06.63.06 1.38 0 2.5-.9 2.5-2 0-.44-.18-.85-.48-1.18.16-.12.35-.17.47-.18h.94V25Zm-3.43 3.34c.62 0 1.12-.6 1.12-1.34 0-.74-.5-1.34-1.12-1.34-.62 0-1.12.6-1.12 1.34 0 .74.5 1.34 1.12 1.34ZM31.82 31h-2.34c-.18.28-.54.94-.54 1.33 0 .48.41 1.17 1.5 1.17 1.1 0 2-.77 2-1.48 0-.57-.41-.92-.62-1.02Zm6.68-3h-2.83c0 1.68 1.22 2.1 2.18 2.1.76 0 1.1-.3 1.16-.45l.49.34c-.12.34-.73 1.01-2.22 1.01a2.67 2.67 0 0 1-2.78-2.73c0-1.31.61-3.27 2.78-3.27a2.1 2.1 0 0 1 2.22 2.07c0 .72-.67.93-1 .93Zm-.25-.74h-2.49c0-.5.25-1.53 1.24-1.53s1.25 1.02 1.25 1.53Zm6.15-.44h-.43c.02-.38-.17-1.14-1.13-1.14-1.19 0-1.45 1.1 0 1.42 1.46.31 2.16 1.1 2.16 1.8 0 1.64-1.55 2.1-2.63 2.1a3.7 3.7 0 0 1-1.87-.52V29h.59c.16 1.3.9 1.3 1.27 1.29h.12c.36 0 1.15 0 1.15-.67s-.7-.84-1.26-.97l-.12-.03c-.57-.14-1.75-.53-1.75-1.8 0-1.26 1.32-1.82 2.22-1.82.73 0 1.53.34 1.84.51l-.16 1.31Z" fill="#fff"/></svg>