<!-- by TradingView --><svg width="56" height="56" viewBox="0 0 56 56" xmlns="http://www.w3.org/2000/svg"><path fill="#F0F3FA" d="M0 0h56v56H0z"/><path d="M46.5 25.2c1.63 0 2.5 1.29 2.5 2.85v3.75a.2.2 0 0 1-.2.2h-1.1a.2.2 0 0 1-.2-.2v-3.55c0-1-.42-1.75-1.5-1.75-1.09 0-1.5.73-1.5 1.75v3.55a.2.2 0 0 1-.2.2h-1.1a.2.2 0 0 1-.2-.2v-8.6c0-.11.09-.2.2-.2h1.1c.11 0 .2.09.2.2v2.88a2.49 2.49 0 0 1 2-.88ZM40.5 26v3.5c0 .54.01 1 .6 1h.7c.11 0 .2.09.2.2v1.1a.2.2 0 0 1-.2.2h-.95c-1.27 0-1.85-.72-1.85-2v-4h-.8a.2.2 0 0 1-.2-.2v-1.1c0-.11.09-.2.2-.2h.8v-1.3c0-.11.09-.2.2-.2h1.1c.11 0 .2.09.2.2v1.3h1.3c.11 0 .2.09.2.2v1.1a.2.2 0 0 1-.2.2h-1.3ZM34.44 32A3.4 3.4 0 0 1 31 28.5c0-2 1.51-3.5 3.5-3.5s3.5 1.5 3.5 3.5-1.57 3.5-3.56 3.5Zm0-1.22c1.28 0 2.1-1.07 2.1-2.29 0-1.2-.79-2.27-2.06-2.27-1.29 0-2.04 1.07-2.04 2.27 0 1.21.7 2.3 2 2.3ZM27.3 25c1.7 0 2.7 1.32 2.7 2.94v3.86a.2.2 0 0 1-.2.2h-1.1a.2.2 0 0 1-.2-.2v-3.65c0-1.02-.39-1.91-1.49-1.91s-1.51.89-1.51 1.91v3.65a.2.2 0 0 1-.2.2h-1.1a.2.2 0 0 1-.2-.2v-6.6c0-.11.09-.2.2-.2h1.1c.11 0 .2.09.2.2v.7a2.2 2.2 0 0 1 1.8-.9ZM22.8 25c.11 0 .2.09.2.2v6.6a.2.2 0 0 1-.2.2h-1.1a.2.2 0 0 1-.2-.2v-.71c-.45.6-1.06.91-1.8.91-1.7 0-2.7-1.32-2.7-2.94V25.2c0-.11.09-.2.2-.2h1.1c.11 0 .2.09.2.2v3.64c0 1.03.38 1.92 1.49 1.92 1.1 0 1.51-.89 1.51-1.92V25.2c0-.11.09-.2.2-.2h1.1ZM15.8 23c.11 0 .2.09.2.2v8.6a.2.2 0 0 1-.2.2h-1.1a.2.2 0 0 1-.2-.2v-5.96l-2.46 6.04a.2.2 0 0 1-.18.12h-.7a.2.2 0 0 1-.19-.12L8.5 25.84v5.96a.2.2 0 0 1-.2.2H7.2a.2.2 0 0 1-.2-.2v-8.6c0-.11.09-.2.2-.2h1.18a.2.2 0 0 1 .18.12l2.95 6.94 2.94-6.94a.2.2 0 0 1 .18-.12h1.17Z" fill="#006990"/></svg>