<!-- by TradingView --><svg width="56" height="56" viewBox="0 0 56 56" xmlns="http://www.w3.org/2000/svg"><path fill="#77AFC8" d="M0 0h56v56H0z"/><path d="M12 36V20l16-9 16 9v16l-16 9-16-9Z" fill="#00587B"/><path d="M40 31a6 6 0 0 1-12 0c0-5.19 5.5-13 5.5-13S40 26 40 31Z" fill="#ED0102"/><path d="M29 31a6 6 0 0 1-12 0c0-5.19 5.5-13 5.5-13S29 26 29 31Z" fill="#ED0102"/><path d="M24.05 16.74 22.5 18l-1.64-1.15 1.53-2.16 1.66 2.05Zm-.27 2.94A41.45 41.45 0 0 0 22.5 18l1.55-1.26h.01l.02.03.06.08a32.27 32.27 0 0 1 .99 1.3c.63.85 1.47 2.05 2.32 3.42a33.18 33.18 0 0 1 2.38 4.52A13.15 13.15 0 0 1 31 31a8 8 0 1 1-16 0c0-3.13 1.6-6.77 2.98-9.38a50.51 50.51 0 0 1 2.81-4.67l.05-.07.02-.02v-.01L22.5 18s-.48.68-1.15 1.77C19.73 22.38 17 27.34 17 31a6 6 0 0 0 12 0c0-3.58-3.33-8.7-5.22-11.32Z" fill="#fff"/><path fill-rule="evenodd" d="M35.05 16.74 33.5 18l-1.64-1.15 1.53-2.16 1.66 2.05Zm-.27 2.94C34.02 18.65 33.5 18 33.5 18l1.55-1.26h.01l.02.03.06.08a32.27 32.27 0 0 1 .99 1.3c.63.85 1.47 2.05 2.32 3.42a33.18 33.18 0 0 1 2.38 4.52A13.15 13.15 0 0 1 42 31a8 8 0 1 1-16 0c0-3.13 1.6-6.77 2.98-9.38a50.51 50.51 0 0 1 2.81-4.67l.05-.07.02-.02v-.01L33.5 18s-.48.68-1.15 1.77C30.73 22.38 28 27.34 28 31a6 6 0 0 0 12 0c0-3.58-3.33-8.7-5.22-11.32Z" fill="#fff"/></svg>