<!-- by TradingView --><svg width="56" height="56" viewBox="0 0 56 56" xmlns="http://www.w3.org/2000/svg"><path fill="#F0F3FA" d="M0 0h56v56H0z"/><path d="m8 21.2 6.99-3.2 6.5 2.5 6-2.5L34 20.5l6.5-2.5L48 21.2V35.8L40.5 39 34 36.5 27.5 39l-6-2.5-6.51 2.5L8 35.8V21.2Zm13.5 14.77 6 2.5 6.5-2.5 6.5 2.5 7-3V21.53l-7-3-6.5 2.5-6.5-2.5-6 2.5-6.5-2.5-6.5 3v13.94l6.5 3 6.5-2.5Z" fill="#313192"/><path d="M9 35.35V21.7l6-2.7 6.5 2.5 6-2.5 6.5 2.5 6.5-2.5 6.5 2.7v13.66l-6.5 2.7-6.5-2.5-6.5 2.5-6-2.5-6.53 2.52L9 35.35Zm12.5-.31 6 2.5 6.5-2.5 6.5 2.5 6-2.5v-13l-6-2.5-6.5 2.5-6.5-2.5-6 2.5-6.5-2.5-5.5 2.5v13l5.5 2.5 6.5-2.5Z" fill="#313192"/><path fill-rule="evenodd" d="m10.5 23.04 4.5-2.5 6.5 2.5h-4v3.5l-2-3.5h-4v5h10v-5l6-2.5 6.5 2.5 6.5-2.5 5 2.5v11l-5 2.5-6.5-2.5-6.5 2.5-6-2.5-6.5 2.5-4.5-2.5v-11Zm1 6h10v1h-5.79l-.21-.5v.5h-4v-1Zm0 1.5v.5h4v-.5h-4Zm0 1.5v-.5h4v.5h-4Zm0 .5v.5h4v-.5h-4Zm5.29 0 .21.5h4.5v-.5h-4.71Zm6.71 0v.5h4v-.5h-4Zm4-.5h-4v-.5h4v.5Zm7 .5v.5h10v-.5h-10Zm10-.5h-10v-.5h10v.5Zm-23 0h-4.93l-.21-.5h5.14v.5Zm23-1.5v.5h-10v-.5h10Zm-17 .5h2c.54 0 1.3-.13 2.01-.5H23.5v.5h4Zm-11.36 0h5.36v-.5h-5.57l.21.5Zm22.36-1h-4v-1h4v1Zm-6.25 0H23.5v-1h9.55c-.21.4-.49.73-.8 1Zm1.25-3c0 .36-.03.7-.1 1h-3.97c.05-.15.07-.31.07-.5 0-1.2-1-1.5-1.5-1.5h-.5v2h-4v-5h6c1.33 0 4 .8 4 4Zm1 1h4v-5h-4v5Z" fill="#313192"/></svg>