<!-- by TradingView --><svg width="56" height="56" viewBox="0 0 56 56" xmlns="http://www.w3.org/2000/svg"><path fill="url(#adgnbmywt)" d="M0 0h56v56H0z"/><path d="M39.25 25.86h-2.5L36.32 27H35l2.26-6h1.48L41 27h-1.34l-.41-1.14Zm-.34-.86L38 22.4l-.92 2.6h1.83ZM32.76 27l-1.18-2.34H31V27h-1v-6h2c.42 0 .77.08 1.07.25.29.16.5.38.65.66.14.28.22.59.22.93 0 .4-.1.75-.3 1.07-.21.32-.52.54-.92.66L34 27h-1.24ZM31 23.76h.97c.3 0 .5-.08.65-.23a.96.96 0 0 0 .22-.66c0-.28-.08-.5-.22-.64-.14-.16-.36-.23-.65-.23H31v1.76ZM24 21v3.68c0 .8.68 1.32 1.47 1.32.81 0 1.53-.52 1.53-1.32V21h1v3.67C28 26.1 26.86 27 25.47 27S23 26.1 23 24.67V21h1ZM21.55 21v1H20v5h-1v-5h-1.45v-1h4ZM15.25 25.86h-2.5L12.32 27H11l2.26-6h1.48L17 27h-1.34l-.41-1.14Zm-.34-.86L14 22.4l-.92 2.6h1.83ZM10 27H9l-3-4.11V27H5v-6h1l3 4.12V21h1v6ZM18 30v1.48h2.5v.95H18V34h2.5v1H17v-6h3.5v1H18ZM12 29v3.68c0 .8.68 1.32 1.47 1.32.81 0 1.53-.52 1.53-1.32V29h1v3.67C16 34.1 14.86 35 13.47 35S11 34.1 11 32.67V29h1ZM10 29v6H9v-2.5H6V35H5v-6h1v2.5h3V29h1Z" fill="#fff"/><path d="M51 29v6h-1v-3.9L48 35h-1l-2-3.9V35h-1v-6h1l2.5 5 2.5-5h1ZM40 30v1.48h2.5v.95H40v1.6h2.5V35H39v-6h3.5v1H40ZM38 29v6h-1v-2.5h-3V35h-1v-6h1v2.5h3V29h1ZM26 32a2.86 2.86 0 0 1 1.52-2.62c.48-.25 1-.38 1.6-.38.68 0 1.28.17 1.8.5.51.34.87.9 1.08 1.5h-1.42a1.68 1.68 0 0 0-.6-.73 1.78 1.78 0 0 0-.87-.21c-.36 0-.68.08-.96.24-.28.16-.5.39-.65.68-.16.29-.23.63-.23 1.02 0 .4.07.73.23 1.03.15.3.37.52.65.68.28.16.6.24.96.24.33 0 .62-.07.88-.21.25-.15.45-.46.6-.74H32a2.9 2.9 0 0 1-1.08 1.5c-.51.33-1.11.5-1.8.5-.6 0-1.12-.13-1.6-.38a2.94 2.94 0 0 1-1.12-1.07c-.27-.45-.4-.97-.4-1.55ZM25 31v1h-3v-1h3Z" fill="#67A0F5"/><defs><linearGradient id="adgnbmywt" x1="28" y1="0" x2="28" y2="56" gradientUnits="userSpaceOnUse"><stop stop-color="#143264"/><stop offset="1" stop-color="#020408"/></linearGradient></defs></svg>