<!-- by TradingView --><svg width="56" height="56" viewBox="0 0 56 56" xmlns="http://www.w3.org/2000/svg"><path fill="url(#a55lq5yj1)" d="M0 0h56v56H0z"/><path d="M50.03 29.72a5.53 5.53 0 0 1 .01-1.03h.41l.15.5c.03.14.09.23.17.28l.28.12c.13.04.28.06.46.06.25 0 .44-.05.56-.15.13-.11.2-.26.2-.45a.46.46 0 0 0-.13-.33c-.09-.1-.21-.18-.37-.25l-.6-.25a3.19 3.19 0 0 1-.79-.41c-.2-.16-.3-.4-.3-.7 0-.37.14-.64.41-.83a1.9 1.9 0 0 1 1.09-.28 3.41 3.41 0 0 1 1.2.22 4.2 4.2 0 0 1-.07.98h-.39l-.11-.46a.73.73 0 0 0-.07-.15.31.31 0 0 0-.13-.11 1.18 1.18 0 0 0-.5-.13c-.2 0-.38.04-.52.13s-.2.23-.2.43c0 .14.04.26.13.36.1.09.2.16.35.23l.45.16c.22.08.43.17.62.27.2.1.36.22.47.37.13.16.19.35.19.58 0 .36-.15.63-.44.83-.3.2-.68.29-1.15.29a4.09 4.09 0 0 1-1.38-.28ZM47.81 30v-.35c.19-.03.5-.02.5-.28v-1.74c0-.48-.05-1.12-.66-1.12a1.4 1.4 0 0 0-1.1.51l.03-.29a1.49 1.49 0 0 1 1.34-.73c.87 0 1.08.78 1.08 1.5v1.87c0 .27.3.25.5.28V30h-1.69Zm-2.26 0v-.35c.2-.03.45-.01.45-.28v-2.56c0-.28-.3-.24-.5-.27v-.34a3.46 3.46 0 0 1 1.05-.2l.12.13.07.68v2.56c0 .13.05.2.15.22l.35.06V30h-1.69ZM44.9 29.43c0 .12.06.18.18.2l.42.06V30h-1.94v-.31l.41-.06c.13-.02.19-.08.19-.2v-2.31c0-.11-.06-.18-.18-.19l-.48-.06v-.3a7.07 7.07 0 0 1 1.3-.17l.1.1v2.93Zm.05-3.98c0 .13-.04.24-.14.32a.55.55 0 0 1-.37.12.55.55 0 0 1-.36-.12.41.41 0 0 1-.15-.32.4.4 0 0 1 .15-.32c.09-.09.21-.13.36-.13s.28.04.37.13c.1.08.14.18.14.32ZM40 28.05c0-.64.15-1.14.45-1.5.3-.37.72-.55 1.23-.55.4 0 .71.11.96.34.24.23.36.56.36.99a3.75 3.75 0 0 1-.03.47h-2.48v-.35h1.82l.01-.08a1 1 0 0 0-.2-.73.64.64 0 0 0-.53-.26.73.73 0 0 0-.64.35c-.16.24-.24.63-.24 1.16 0 .4.05.72.14.96.1.24.22.4.37.5a1.13 1.13 0 0 0 1.12 0c.18-.09.32-.22.43-.4l.21.14c-.07.28-.23.5-.48.66-.25.17-.55.25-.91.25s-.66-.08-.9-.25c-.23-.17-.4-.4-.52-.69-.11-.29-.17-.63-.17-1ZM36.22 28.05c0-.34-.03-.63-.09-.88a1.12 1.12 0 0 0-.3-.57.82.82 0 0 0-.6-.21.79.79 0 0 0-.72.37c-.15.25-.23.64-.23 1.2 0 .34.03.63.08.88.06.25.16.44.31.58.15.14.35.2.6.2.33 0 .56-.12.71-.36.16-.25.24-.65.24-1.2Zm-2.72-.02c0-.47.08-.86.24-1.16.17-.3.39-.52.66-.66a2 2 0 0 1 .91-.21c.4 0 .72.08.96.25.25.16.43.4.55.7.12.3.18.64.18 1.04 0 .47-.08.85-.24 1.15-.17.3-.39.5-.66.65-.27.14-.58.21-.91.21-.4 0-.72-.08-.96-.25-.25-.16-.44-.4-.56-.69-.11-.29-.17-.63-.17-1.03ZM31.17 26.99a2.11 2.11 0 0 1 .8-.84c.2-.1.38-.15.57-.15.07 0 .14 0 .23.03.09.02.16.04.22.07a4.78 4.78 0 0 1-.09 1.3h-.33l-.1-.53a.3.3 0 0 0-.08-.16c-.03-.03-.08-.04-.14-.04a1.4 1.4 0 0 0-1.04.56l-.04-.24Zm.16-.01v2.4c0 .12.06.2.19.2l.65.08V30h-2.12v-.35l.4-.06c.12-.02.18-.1.18-.22v-2.54c0-.14-.06-.22-.18-.24l-.45-.05v-.34a3.66 3.66 0 0 1 1.12-.2l.11.12.1.86ZM27 29.4c0 .1-.03.16.08.17l.8.1V30H25.5v-.32l.52-.1c.12-.02.17-.08.17-.18v-3.75c0-.09-.05-.15-.14-.18l-.55-.1V25h2.22c.95 0 1.78.33 1.78 1.4 0 1.09-.92 1.7-1.94 1.7a9.2 9.2 0 0 1-.8-.03l-.01-.37.4.04h.4c.8 0 1.18-.6 1.18-1.34 0-.77-.39-1.05-1.17-1.05-.15 0-.28 0-.38.02l-.18.01v4.02ZM24 26.58v3.3c0 1.28-.64 1.75-1.81 2.12l-.19-.32c.76-.42 1.15-.92 1.15-1.8v-2.65c0-.11-.07-.18-.2-.2l-.54-.06v-.32a8.33 8.33 0 0 1 1.43-.18l.16.11Zm0-1.1c0 .13-.05.24-.16.33a.62.62 0 0 1-.4.13.64.64 0 0 1-.4-.13.43.43 0 0 1-.17-.34c0-.14.06-.25.16-.34.1-.09.24-.13.41-.13.16 0 .3.04.4.13.1.09.16.2.16.34ZM19.92 30a.94.94 0 0 1-.66-.24c-.17-.16-.26-.4-.26-.7 0-.25.06-.46.19-.6.13-.16.29-.27.48-.34.2-.07.4-.11.6-.13l.76-.07v.35l-.67.07a.93.93 0 0 0-.53.19c-.12.1-.18.26-.18.47 0 .17.04.3.12.39.08.1.2.14.37.14.17 0 .34-.05.5-.14.18-.1.3-.2.4-.34l.07.17c-.11.23-.27.42-.49.57-.2.14-.44.21-.7.21Zm-.83-3.2a1 1 0 0 1 .47-.6c.24-.13.5-.2.81-.2.38 0 .67.11.85.34.2.22.29.57.29 1.03v1.92c0 .13.05.2.17.22l.32.04v.31l-.24.08c-.11.03-.21.04-.3.04a.48.48 0 0 1-.38-.16.84.84 0 0 1-.17-.46v-1.89c0-.34-.06-.58-.18-.72-.11-.14-.3-.21-.53-.21a1.23 1.23 0 0 0-.96.44l-.15-.18ZM16.67 26.99a2.11 2.11 0 0 1 .8-.84c.2-.1.38-.15.57-.15.07 0 .14 0 .23.03.09.02.16.04.22.07a4.78 4.78 0 0 1-.09 1.3h-.33l-.1-.53a.3.3 0 0 0-.08-.16c-.03-.03-.08-.04-.14-.04a1.4 1.4 0 0 0-1.04.56l-.04-.24Zm.16-.01v2.4c0 .12.06.2.19.2l.66.08V30h-2.13v-.35l.4-.06c.12-.02.18-.1.18-.22v-2.54c0-.14-.06-.22-.18-.24l-.45-.05v-.34a3.66 3.66 0 0 1 1.12-.2l.11.12.1.86ZM13 26.6l-.5-.07v-.32l.38-.06c.06-.01.1-.03.13-.06a.27.27 0 0 0 .06-.12l.22-.97h.38v1.11h1.15v.46h-1.13v2.18c0 .36.06.73.5.73.12 0 .24-.03.34-.08.11-.05.2-.12.29-.22l.18.2a.94.94 0 0 1-.42.46c-.18.1-.4.16-.63.16-.63 0-.95-.4-.95-1.01v-2.4ZM38 26.6l-.5-.07v-.32l.38-.06c.06-.01.1-.03.13-.06a.27.27 0 0 0 .06-.12l.22-.97h.38v1.11h1.15v.46h-1.13v2.18c0 .36.06.73.5.73.12 0 .24-.03.34-.08.11-.05.2-.12.29-.22l.18.2a.94.94 0 0 1-.42.46c-.18.1-.4.16-.63.16-.63 0-.95-.4-.95-1.01v-2.4ZM9.92 30a.94.94 0 0 1-.66-.24c-.17-.16-.26-.4-.26-.7 0-.25.06-.46.19-.6.13-.16.29-.27.48-.34.2-.07.4-.11.6-.13l.76-.07v.35l-.67.07a.93.93 0 0 0-.53.19c-.12.1-.18.26-.18.47 0 .17.04.3.12.39.08.1.2.14.37.14.17 0 .34-.05.5-.14.18-.1.3-.2.4-.34l.07.17c-.11.23-.27.42-.49.57-.2.14-.44.21-.7.21Zm-.83-3.2a1 1 0 0 1 .47-.6c.24-.13.5-.2.81-.2.38 0 .67.11.85.34.2.22.29.57.29 1.03v1.92c0 .13.05.2.17.22l.32.04v.31l-.24.08c-.11.03-.21.04-.3.04a.48.48 0 0 1-.38-.16.84.84 0 0 1-.17-.46v-1.89c0-.34-.06-.58-.18-.72-.11-.14-.3-.21-.53-.21a1.23 1.23 0 0 0-.96.44l-.15-.18ZM8.38 25.63V30h-.6l-2.97-4.4.19-.02v3.8c0 .29.69.26.88.3V30H4v-.33c.19-.03.55-.02.55-.29v-3.75c0-.27-.35-.26-.55-.3V25h1.25l2.95 4.2-.2.04v-3.6c0-.3-.59-.28-.78-.31V25H9v.33c-.18.04-.62.04-.62.3Z" fill="#009459"/><defs><linearGradient id="a55lq5yj1" x1="10.42" y1="9.71" x2="68.15" y2="76.02" gradientUnits="userSpaceOnUse"><stop stop-color="#1A1E21"/><stop offset="1" stop-color="#06060A"/></linearGradient></defs></svg>