<!-- by TradingView --><svg width="56" height="56" viewBox="0 0 56 56" xmlns="http://www.w3.org/2000/svg"><path fill="#F0F3FA" d="M0 0h56v56H0z"/><path d="M28 13c-8.8 1.2-13 7.83-14 11 4-5.2 11-7.5 14-8v-3Z" fill="url(#akvew35ee)"/><path d="M28 25c8.8-1.2 13-7.83 14-11-4 5.2-11 7.5-14 8v3Z" fill="url(#bkvew35ee)"/><path d="M28 37c8.8-1.2 13-7.83 14-11-4 5.2-11 7.5-14 8v3Z" fill="url(#ckvew35ee)"/><path d="M28 43c8.8-1.2 13-7.83 14-11-4 5.2-11 7.5-14 8v3Z" fill="url(#dkvew35ee)"/><path d="M28 31c8.8-1.2 13-7.83 14-11-4 5.2-11 7.5-14 8v3Z" fill="url(#ekvew35ee)"/><path d="M28 19c-8.8 1.2-13 7.83-14 11 4-5.2 11-7.5 14-8v-3Z" fill="url(#fkvew35ee)"/><path d="M28 25c-8.8 1.2-13 7.83-14 11 4-5.2 11-7.5 14-8v-3Z" fill="url(#gkvew35ee)"/><path d="M28 31c-8.8 1.2-13 7.83-14 11 4-5.2 11-7.5 14-8v-3Z" fill="url(#hkvew35ee)"/><defs><linearGradient id="akvew35ee" x1="28" y1="13" x2="15" y2="23" gradientUnits="userSpaceOnUse"><stop stop-color="#FF8000"/><stop offset="1" stop-color="#F53"/></linearGradient><linearGradient id="bkvew35ee" x1="41" y1="15.5" x2="28" y2="24.5" gradientUnits="userSpaceOnUse"><stop stop-color="#FF8000"/><stop offset=".5" stop-color="#FF7E04"/><stop offset="1" stop-color="#F53"/></linearGradient><linearGradient id="ckvew35ee" x1="41" y1="27.5" x2="28" y2="36.5" gradientUnits="userSpaceOnUse"><stop stop-color="#FF8000"/><stop offset=".5" stop-color="#FF7E04"/><stop offset="1" stop-color="#F53"/></linearGradient><linearGradient id="dkvew35ee" x1="41" y1="33.5" x2="28" y2="42.5" gradientUnits="userSpaceOnUse"><stop stop-color="#FF8000"/><stop offset=".5" stop-color="#FF7E04"/><stop offset="1" stop-color="#F53"/></linearGradient><linearGradient id="ekvew35ee" x1="28.5" y1="30.5" x2="39" y2="23.5" gradientUnits="userSpaceOnUse"><stop stop-color="#FF8000"/><stop offset=".5" stop-color="#FF7E04"/><stop offset="1" stop-color="#F53"/></linearGradient><linearGradient id="fkvew35ee" x1="28" y1="19" x2="15" y2="29" gradientUnits="userSpaceOnUse"><stop stop-color="#FF8000"/><stop offset="1" stop-color="#F53"/></linearGradient><linearGradient id="gkvew35ee" x1="28" y1="25" x2="15" y2="35" gradientUnits="userSpaceOnUse"><stop stop-color="#FF8000"/><stop offset="1" stop-color="#F53"/></linearGradient><linearGradient id="hkvew35ee" x1="28" y1="31" x2="15" y2="41" gradientUnits="userSpaceOnUse"><stop stop-color="#FF8000"/><stop offset="1" stop-color="#F53"/></linearGradient></defs></svg>