<!-- by TradingView --><svg width="56" height="56" viewBox="0 0 56 56" xmlns="http://www.w3.org/2000/svg"><path fill="#204C7D" d="M0 0h56v56H0z"/><path d="M14.1 25.33A2.6 2.6 0 0 1 11.59 28c-.51 0-.99-.16-1.39-.44l.13.44-1.02-.36a3.07 3.07 0 0 0 2.28 1.03c1.74 0 3.16-1.5 3.16-3.34A3.25 3.25 0 0 0 11.58 22c-1.39 0-2.57.94-2.99 2.26l.57.3a2.55 2.55 0 0 1 2.42-1.9 2.6 2.6 0 0 1 2.53 2.67Z" fill="#0799E6"/><path d="M9.4 27.9c.18-.36.28-.79.28-1.23A2.6 2.6 0 0 0 7.16 24a2.6 2.6 0 0 0-2.53 2.67c0 1.04.57 1.94 1.4 2.38l-.28.6A3.36 3.36 0 0 1 4 26.67a3.25 3.25 0 0 1 3.16-3.34c1.74 0 3.16 1.5 3.16 3.34 0 .58-.15 1.13-.4 1.6l-.53-.36Zm-.35 1.43.63-.66c-.18.25-.39.47-.63.66Z" fill="#31B36B"/><path d="M10.72 31.76a2.52 2.52 0 0 1-2.3 1.57 2.6 2.6 0 0 1-2.53-2.66A2.6 2.6 0 0 1 8.42 28c.78 0 1.47.37 1.94.95l.45-.47a3.08 3.08 0 0 0-2.39-1.15 3.25 3.25 0 0 0-3.16 3.34A3.25 3.25 0 0 0 8.42 34c1.2 0 2.24-.7 2.77-1.74l-.47-.5Z" fill="#0799E6"/><path d="M10.13 28.29c-.28.5-.45 1.08-.45 1.71a3.25 3.25 0 0 0 3.16 3.33C14.6 33.33 16 31.84 16 30c0-1.29-.7-2.4-1.7-2.96-.12.2-.25.38-.39.54A2.68 2.68 0 0 1 15.37 30a2.6 2.6 0 0 1-2.53 2.67A2.6 2.6 0 0 1 10.32 30c0-.54.15-1.04.4-1.46-.2-.06-.4-.14-.6-.25h.01ZM12 26H8l2 2 2-2Z" fill="#31B36B"/><path d="M12 30H8l2-2 2 2Z" fill="#31B36B"/><path d="M12 30v-4l-2 2 2 2ZM8 30v-4l2 2-2 2Z" fill="#0799E6"/><path d="M21 22h-3v12h3v-6.67L25 34h3V22h-3v6.67L21 22Z" fill="#FCFEFD"/><path fill-rule="evenodd" d="M32 22h-2v12h6.15C39.1 34 40 31.11 40 30v-3.33c0-4-3.03-4.67-4.47-4.67H32Zm1 3v6h1.5c.72 0 2.5-.07 2.5-1.67v-2.66c0-1.34-.78-1.67-2.5-1.67H33ZM41 34h3.67l.23-1h3.47l.27 1H52l-3.67-12h-3.66L41 34Zm6.57-4-1.07-4-.92 4h1.99Z" fill="#FCFEFD"/></svg>