<!-- by TradingView --><svg width="56" height="56" viewBox="0 0 56 56" xmlns="http://www.w3.org/2000/svg"><path fill="#F0F3FA" d="M0 0h56v56H0z"/><path d="m5 26.52 1.68-.04c5.41 0 10.54 2.31 14.06 4.97 1.21.93 2.77 2.27 3.8 3.48 1.83 2.14 1.4 2.55 4.66 1.55.53-.14 3.39-1 3.64-1.14l-3.36-2.51a93.88 93.88 0 0 0-3.49-2.42c-2.17-1.44-3.39-2.03-5.63-3.13-.65-.31-1.46-.56-2.05-.9 1.4.07 3.61.93 4.82 1.41.75.31 1.46.66 2.15 1.04.68.38 1.4.76 2.02 1.17l1.93 1.24c1.15.73 2.61 1.93 3.76 2.7.69.44 1.53.71 2.55.58 1.43-.21 5.23-2.14 6.56-2.93 2.3-1.35 4.6-2.87 6.54-4.73.56-.55 2.02-1.93 2.36-2.55l-1.28 1.07a18.13 18.13 0 0 1-11.9 4.2c-6.17 0-12.2-3-16.93-5.44-1.18-.62-2.48-1.35-3.8-1.83-.9-.34-1.33-.45-2.23-.07-2.9 1.24-6 2.62-8.86 3.83-.28.1-.78.3-1 .45Z" fill="#1D376A"/></svg>