<!-- by TradingView --><svg width="56" height="56" viewBox="0 0 56 56" xmlns="http://www.w3.org/2000/svg"><path fill="#530902" d="M0 0h56v56H0z"/><path fill="#7D2000" d="M15 11h26v34H15z"/><circle cx="28" cy="21" r="8" fill="#FFFFFD"/><path d="M34.5 22.5a6.5 6.5 0 1 1-13 0 6.5 6.5 0 0 1 13 0Z" fill="#050805"/><circle cx="28" cy="24" r="5" fill="#fff"/><circle cx="28" cy="26" r="3" fill="#020202"/><path d="M19 39v-9h6c1.6 0 2 1.33 2 2v7h-3v-7h-2v7h-3ZM29 30v9h7c.33 0 1-.2 1-1v-7c0-.33-.2-1-1-1h-7Zm3 2h1c.33 0 1 .2 1 1v3c0 .33-.2 1-1 1h-1v-5ZM34.75 41.6v.87c0 .19.02.3.05.35.05.07.12.1.22.1h.1V43H34v-.08h.1c.11 0 .19-.04.24-.13a.83.83 0 0 0 .04-.32v-1.94c0-.19-.02-.3-.06-.35-.05-.07-.12-.1-.22-.1H34V40h.96c.24 0 .42.03.56.08a.79.79 0 0 1 .48.75c0 .24-.07.44-.21.6a.77.77 0 0 1-.6.23c-.06 0-.13 0-.2-.02a2.36 2.36 0 0 1-.24-.04Zm0-.13a2.53 2.53 0 0 0 .31.04c.14 0 .25-.06.35-.17a.7.7 0 0 0 .15-.47.92.92 0 0 0-.07-.36.52.52 0 0 0-.2-.25.52.52 0 0 0-.29-.08c-.06 0-.15.01-.25.04v1.25ZM32.5 40.08V40h1v.08h-.1c-.12 0-.2.05-.26.14-.03.05-.04.15-.04.32v1.18c0 .3-.03.53-.09.69a.85.85 0 0 1-.33.42c-.16.11-.39.17-.67.17-.3 0-.54-.06-.7-.17a.9.9 0 0 1-.33-.44 2.58 2.58 0 0 1-.07-.73v-1.14c0-.18-.03-.3-.07-.36-.05-.05-.13-.08-.23-.08h-.11V40h1.22v.08h-.11c-.12 0-.2.04-.25.11-.04.06-.05.16-.05.33v1.28c0 .11 0 .24.03.39.02.14.05.26.1.34a.6.6 0 0 0 .23.2c.1.06.22.08.37.08.18 0 .35-.04.5-.12a.66.66 0 0 0 .29-.32c.05-.13.08-.35.08-.66v-1.2c0-.17-.02-.29-.06-.33-.05-.07-.13-.1-.24-.1h-.1ZM28.53 40c.4 0 .74.14 1.03.43.3.28.44.63.44 1.05 0 .44-.15.8-.44 1.09-.3.29-.65.43-1.07.43a1.46 1.46 0 0 1-1.5-1.51c.01-.46.18-.83.5-1.12.3-.25.64-.37 1.04-.37Zm-.04.15c-.28 0-.5.1-.66.29-.2.24-.31.58-.31 1.04 0 .47.1.83.32 1.08.16.2.38.29.65.29.29 0 .52-.1.71-.32.19-.2.28-.54.28-.99 0-.5-.1-.86-.3-1.1a.86.86 0 0 0-.7-.29ZM26.5 43h-.8l-1.03-1.4h-.31v.87c0 .19.02.3.06.35.06.07.14.1.25.1h.12V43H23.5v-.08h.11c.13 0 .22-.04.28-.13.03-.04.04-.15.04-.32v-1.94c0-.19-.02-.3-.06-.35-.06-.07-.14-.1-.26-.1h-.11V40h1.1c.32 0 .55.02.7.07a.8.8 0 0 1 .4.26c.1.12.15.27.15.44a.7.7 0 0 1-.18.48c-.12.14-.3.23-.56.29l.62.86c.15.2.27.33.37.4.1.06.24.1.4.12V43Zm-2.14-1.54H24.48c.3 0 .5-.06.65-.19a.6.6 0 0 0 .22-.47.61.61 0 0 0-.18-.45.63.63 0 0 0-.46-.18c-.09 0-.2.01-.35.04v1.25ZM22.58 40l.08.9h-.08c-.08-.22-.18-.39-.3-.5a.95.95 0 0 0-.68-.25.97.97 0 0 0-.85.43c-.17.25-.25.54-.25.87 0 .28.06.53.16.75a1.06 1.06 0 0 0 1.29.61c.1-.02.2-.06.3-.11v-.83a.72.72 0 0 0-.04-.28.21.21 0 0 0-.1-.1.6.6 0 0 0-.25-.04v-.08H23v.08h-.05c-.12 0-.2.04-.24.1a.72.72 0 0 0-.04.32v.88a2.25 2.25 0 0 1-1.04.25c-.57 0-1-.18-1.3-.53a1.4 1.4 0 0 1-.33-.93c0-.25.06-.49.19-.72.15-.28.35-.49.6-.64.22-.12.48-.18.77-.18a1.54 1.54 0 0 1 .67.14l.16.04c.03 0 .05-.01.07-.03.02-.03.03-.08.04-.15h.08Z" fill="#FFFFFD"/></svg>