<!-- by TradingView --><svg width="56" height="56" viewBox="0 0 56 56" xmlns="http://www.w3.org/2000/svg"><path fill="#F0F3FA" d="M0 0h56v56H0z"/><path d="M29.91 46h-.68a.24.24 0 0 1-.23-.24v-25.7c0-.08.04-.16.1-.2l5.53-3.82c.16-.1.37 0 .37.2v4.16c0 .08-.03.15-.1.2L30.25 24c-.06.05-.24.12-.24.2v3.01c0 .19.34.3.5.2l5.15-3.12c.15-.1.35.02.35.2v4.2c0 .08-.04.15-.11.2l-5.63 3.41c-.07.05-.26.12-.26.2v3c0 .2.34.3.5.21l5.15-3.12c.15-.1.35.02.35.2v4.78c0 .08-.04.16-.11.2l-5.63 3.42c-.07.04-.26.12-.26.2v4.37c0 .13.04.24-.09.24ZM24.68 15.09l3.19 2.07c.08.05.18.05.26 0l3.2-2.07c.1-.07.13-.22.06-.32l-3.2-4.67a.24.24 0 0 0-.39 0l-3.19 4.67c-.07.1-.04.25.07.32ZM27.87 19.34l-6.53-3.31a.23.23 0 0 0-.34.2v4.22c0 .09.05.17.13.2l6.53 3.32c.16.08.34-.03.34-.2v-4.22a.24.24 0 0 0-.13-.2ZM27.86 27.77l-7.54-3.75c-.15-.07-.32.05-.32.25v4.72c0 .1.05.2.14.24l7.54 3.75c.15.07.32-.05.32-.25v-4.72c0-.1-.05-.2-.14-.24ZM27.86 36.35l-7.54-3.33a.23.23 0 0 0-.32.22v4.2c0 .09.05.17.14.21l7.54 3.33c.15.07.32-.05.32-.22v-4.2c0-.09-.05-.17-.14-.21Z" fill="#E4AC55"/></svg>