<!-- by TradingView --><svg width="56" height="56" viewBox="0 0 56 56" xmlns="http://www.w3.org/2000/svg"><path fill="#F0F3FA" d="M0 0h56v56H0z"/><path d="M40 16h-8v12.38L23 16h-7v12.92c1.75.43 5.54.9 7 1.08v-3.23L25.31 30h5.93c2.19 0 6.75-.72 8.76-1.08V16Z" fill="#FF8E01"/><path d="M16 40v-8.63c-2.81-.36-7-1.44-7-3.16 0-1.71 4.22-2.85 6.33-3.21-1.58.54-4.75 1.93-4.75 3.21 0 1.61 4.75 3.22 17.4 3.22 12.66 0 17.4-2.68 17.4-3.75 0-.86-2.46-2.14-3.69-2.68 1.94.36 5.7 1.5 5.28 3.21-.42 1.72-4.68 2.93-6.97 3.29V40h-8l-4.02-7.5H23V40h-7Z" fill="#194DB3"/></svg>