<!-- by TradingView --><svg width="56" height="56" viewBox="0 0 56 56" xmlns="http://www.w3.org/2000/svg"><path fill="#F0F3FA" d="M0 0h56v56H0z"/><path d="M18 26H9v5h9v10h6V31h9v-5h-9v-9h-6v9Z" fill="#2D2D2D"/><path d="M18 27H8v5h10v10h5V32h9v-5h-9v-9h-5v9Z" fill="red"/><path d="M37.41 18.6a8.34 8.34 0 0 1 7.16.49l-.02.02-.14.08a.1.1 0 0 1-.09.01c-1.99-.6-3.88-.58-5.66.05-1.23.44-1.55 1.11-.95 2 .12.18.06.23-.17.16a4 4 0 0 0-1.76-.08c-.1.02-.14.07-.12.15l.04.07c.03.03.07.04.12.04a8.46 8.46 0 0 1 3.21.58c.03 0 .07 0 .1-.02a.23.23 0 0 0 .07-.05.18.18 0 0 0 .05-.06c.12-.35.38-.51.77-.5.37 0 .53.29.79.46.09.06.19.08.3.04a8.16 8.16 0 0 1 6.81.4c.04.02.06.05.07.07a.1.1 0 0 1-.06.15.14.14 0 0 1-.1 0 8.84 8.84 0 0 0-4.98-.14c-1.27.33-2.33.99-1.6 2.17.16.25.08.32-.24.22-.63-.21-1.22-.2-1.78.03-.33.13-.44.05-.33-.22l.26-.72a.3.3 0 0 0 .02-.15c-.01-.05-.03-.1-.07-.15-1.1-1.49-4.93-1.2-6.7-.92-1.09.17-1.14.05-.16-.36.87-.36 1.8-.6 2.79-.71.12-.02.2-.07.22-.17.07-.27.16-.55.26-.84.35-.95-1.5-1.4-2.28-1.5a14.72 14.72 0 0 0-4.48.13c-.96.17-1 .07-.15-.3 2.1-.93 4.48-1.31 6.75-.32a.14.14 0 0 0 .15-.03.1.1 0 0 0 .02-.03c.1-.26.28-.45.56-.56a.51.51 0 0 1 .4 0c.25.1.45.25.6.44.08.1.19.12.32.07Zm-1.72.26a.25.25 0 0 1-.15.1.31.31 0 0 1-.2-.01 7.32 7.32 0 0 0-5.19-.23c-.34.1-.32.16.04.16 1.81 0 3.25-.1 4.95.67.68.31.87.8.56 1.43a.11.11 0 0 0-.01.08c0 .03.02.05.05.07a.2.2 0 0 0 .08.04h.1c.36-.1.75-.13 1.17-.1.16.02.21-.04.17-.16-.68-2.04 3.33-2.45 4.94-2.31.06 0 .1-.02.1-.07l.03-.08c0-.03-.01-.04-.05-.05a7.74 7.74 0 0 0-4.85.48c-.2.09-.35.05-.45-.12a.94.94 0 0 0-.62-.45c-.18-.04-.3 0-.39.13l-.28.42Zm5.34 3.46c-.17.08-.3.04-.38-.1-.21-.37-.5-.5-.88-.4-.14.05-.22.13-.25.24a.56.56 0 0 1-.24.32.36.36 0 0 1-.36.03 7.01 7.01 0 0 0-4.14-.44 22.1 22.1 0 0 1-1.32.26v.08c0 .05.04.08.1.07a83.4 83.4 0 0 1 2.25-.03c1.36 0 4.2.51 3.53 2.1-.07.18 0 .23.22.17.35-.1.72-.12 1.1-.05.19.04.26-.02.2-.17-.53-1.69 1.9-2.25 3.55-2.33l1.21-.04c.6 0 .6-.07.03-.19a7.33 7.33 0 0 0-4.62.48Z" fill-opacity=".99"/></svg>