<!-- by TradingView --><svg width="56" height="56" viewBox="0 0 56 56" xmlns="http://www.w3.org/2000/svg"><path fill="#F0F3FA" d="M0 0h56v56H0z"/><path d="M20 12h16v3h-5v1h9v9h1v-5h3v16h-3v-5h-1v9h-9v1h5v3H20v-3h5v-1h-9v-9h-1v5h-3V20h3v5h1v-9h9v-1h-5v-3Z" fill="#009FE3"/><path fill-rule="evenodd" d="M40 31h1v5h3V20h-3v5h-1v-9h-9v-1h5v-3H20v3h5v1h-9v9h-1v-5h-3v16h3v-5h1v9h9v1h-5v3h16v-3h-5v-1h9v-9Zm-.5 8.5v-9h2v5h2v-15h-2v5h-2v-9h-9v-2h5v-2h-15v2h5v2h-9v9h-2v-5h-2v15h2v-5h2v9h9v2h-5v2h15v-2h-5v-2h9Z" fill="#C4B98C"/><path d="M26.64 37.87a6.82 6.82 0 0 1-3.1-1.51 7.22 7.22 0 0 1-1.94-8.38c.65-1.64 1.5-3.28 2.55-4.94a64.01 64.01 0 0 1 3.32-4.75c.19-.24.4-.33.63-.27.2.04.39.18.56.41a68.3 68.3 0 0 1 2.62 3.7 38.2 38.2 0 0 1 1.9 3.14c.6 1.13 1.08 2.24 1.44 3.3a7.32 7.32 0 0 1-.1 4.9 7.1 7.1 0 0 1-5.94 4.5c-.67.06-1.32.03-1.94-.1Z" fill="#F07D00"/><path d="M32.5 31.07a4.67 4.67 0 0 1-2.78 4.27 4.38 4.38 0 0 1-3.45 0 4.46 4.46 0 0 1-2.44-2.5 4.67 4.67 0 0 1 2.44-6.03 4.38 4.38 0 0 1 3.45 0 4.46 4.46 0 0 1 2.44 2.5c.23.56.35 1.15.35 1.76Z" fill="#fff"/><path d="M32.3 30.17c-.02 0-.04-.01-.05-.05a.05.05 0 0 0-.04-.04h-.05a.06.06 0 0 0-.05.05v.15l-.14-.47a3.95 3.95 0 0 0-1.76-2.35 1.4 1.4 0 0 0-.28-.18l-.71-.3a1.76 1.76 0 0 0-.58-.14c-.4-.03-.8-.02-1.19.01-.38.04-.74.14-1.1.3a4.27 4.27 0 0 0-2.32 2.57c-.15.4-.2.85-.18 1.34l-.02-.07c-.02-.04-.05-.05-.09-.01l-.08.08a.14.14 0 0 0-.04.11l.02.53a4.57 4.57 0 0 1 2.42-4.68 4.3 4.3 0 0 1 4.43.33 4.4 4.4 0 0 1 1.82 2.82Z" fill="#CF681A"/><path d="M32.11 30.28c.09.46.1.93.02 1.4a4.23 4.23 0 0 1-4.87 3.57 4.28 4.28 0 0 1-3.33-3.2 6.36 6.36 0 0 1-.08-1c-.03-.48.03-.93.18-1.33a4.27 4.27 0 0 1 2.32-2.57c.36-.16.72-.26 1.1-.3.39-.03.78-.04 1.19 0 .21 0 .4.05.58.13l.71.3c.07.03.17.1.28.18.07.05.12.1.16.11a3.95 3.95 0 0 1 1.6 2.24l.14.47Z" fill="#fff"/><path d="m31.6 29.1-.26.07-.27-.02a.11.11 0 0 1-.1-.06.32.32 0 0 1 0-.36c.04-.05.03-.1-.02-.13l-.02-.02c-.03-.02-.06-.02-.08 0L29.6 29.8c-.15.01-.22-.04-.2-.14l1.4-1.13a.1.1 0 0 0 .03-.1c-.02-.06-.06-.1-.14-.1-.05 0-.1.01-.14.05a.09.09 0 0 1-.1.02c-.23-.08-.3-.21-.24-.4a.07.07 0 0 0 0-.09.73.73 0 0 0-.24-.2c-.05-.02-.08 0-.1.04-.04.08-.1.1-.2.1-.2-.03-.27-.14-.24-.34.02-.07-.01-.11-.09-.11a.38.38 0 0 1-.2-.07c-.06-.04-.1-.03-.14.03l-.06.1a.15.15 0 0 1-.14.07c-.17 0-.28-.1-.33-.28-.01-.04-.04-.06-.09-.06l-.32-.03c-.06 0-.1.02-.1.08 0 .05-.01.09-.05.11-.14.1-.3.12-.44.03-.04-.02-.06 0-.07.08a.23.23 0 0 1-.03-.06c-.02-.04-.03-.03-.04 0a.54.54 0 0 0 0 .18.69.69 0 0 1-.02-.27c0-.02 0-.05-.03-.07a.07.07 0 0 0-.07 0l-.07.02a.15.15 0 0 0-.1.11.6.6 0 0 1-.15.29.1.1 0 0 1-.12.02.56.56 0 0 1-.23-.14.1.1 0 0 0-.07-.03.1.1 0 0 0-.08.02.22.22 0 0 1-.14.07c-.06 0-.09.04-.08.1v.12c.01.03 0 .06-.01.1-.1.17-.24.2-.43.1a.1.1 0 0 0-.12.01l-.26.19c-.06.04-.07.1-.04.16.1.16.07.29-.08.38-.06.03-.14.03-.26 0h-.01c-.05 0-.09.01-.1.07a.52.52 0 0 1-.13.2.07.07 0 0 0-.02.04c0 .02 0 .03.02.05l.02.01c.05.02.08.05.1.1.03.1.02.2-.05.28-.08.1-.16.12-.27.1-.05-.02-.09 0-.1.04-.06.1-.1.2-.12.3l.01.06c.02.02.03.03.05.03.1.02.16.08.18.18.03.13-.02.22-.14.27l-.22.1a.3.3 0 0 0-.02.25l-.01.13-.02-.2a.1.1 0 0 0-.06-.1c-.02-.01-.04 0-.06.01a16.65 16.65 0 0 0-.11.43 4.23 4.23 0 0 1 1.53-3.3 4 4 0 0 1 6.14 1.3Z" fill="#CF681A"/><path d="M28.24 30.37c-.05-.03-.1 0-.14.04-.07-.24-.1-.49-.1-.75.02-.79.08-1.57.19-2.34 0-.05.03-.06.07-.04.02.01.03.03.03.07.05.8 0 1.63-.14 2.49v.34c0 .02.01.04.04.05h.03l.02-.03c.22-.93.52-1.8.89-2.61.07-.15.1-.14.08.02-.02.2-.07.41-.14.64-.2.7-.45 1.38-.72 2.01a.36.36 0 0 1-.1.1ZM27.41 27.46l.05.16c.07.22.12.39.14.5.12.67.22 1.33.3 2 .02.1 0 .2-.02.28-.06-.06-.1-.05-.15.01a.61.61 0 0 0 .03-.29 15.4 15.4 0 0 1-.42-2.71c.01-.04.02-.05.04 0 0 .02.02.04.03.05Z" fill="#B0522F"/><path d="M26.4 27.67a.1.1 0 0 0-.04.13l1.16 2.49a.1.1 0 0 0 .13.04.1.1 0 0 0 .05-.13l-1.16-2.49a.1.1 0 0 0-.13-.04ZM28.33 30.38v-.03l.72-1.1c.26-.4.48-.73.68-1 .2-.26.31-.39.34-.37h.01c.02.03-.05.18-.21.47l-.63 1.03-.72 1.1h-.03l-.16-.1ZM26.47 29.43a4.91 4.91 0 0 0 1.07 1.08c.05-.04-.35-.6-.89-1.23a4.91 4.91 0 0 0-1.07-1.09c-.05.05.35.6.9 1.24Z" fill="#B0522F"/><path d="M27.28 30.48c0 .04-.04.07-.14.09-.8-.45-1.5-.94-2.11-1.47-.21-.2-.2-.22.05-.09.75.4 1.48.89 2.2 1.47Z" fill="#943F44"/><path d="M31.6 29.1a4.39 4.39 0 0 1 .43 2.58 4.14 4.14 0 0 1-2.58 3.28 3.92 3.92 0 0 1-3.54-.3 4.04 4.04 0 0 1-1.87-2.59 4.3 4.3 0 0 1-.12-.96 16.64 16.64 0 0 1 .11-.43c.02-.02.04-.02.06 0a.1.1 0 0 1 .06.08l.02.2c0 .1.07.17.2.2.04 0 .07.03.09.06.07.08.08.17.02.25a.4.4 0 0 1-.12.1.28.28 0 0 0-.12.13c-.01.02 0 .04.03.08v.17c0 .05.02.07.06.08.09 0 .16.03.24.07.08.04.12.1.12.19 0 .08-.03.15-.1.21a.14.14 0 0 0-.04.16l.06.2c.02.07.06.1.12.08.11-.02.2 0 .27.03.08.04.11.12.1.24a.42.42 0 0 1-.08.19c-.03.05-.03.1 0 .14.04.05.07.05.1.01.64-.71 1.35-1.36 2.15-1.94a.42.42 0 0 0 .08-.1l.02-.03c.08.01.15.05.2.12l.03-.02c.02-.02.02-.04 0-.05a.2.2 0 0 1-.1-.09c-.02-.05-.05-.05-.1-.01a.17.17 0 0 0-.03.05c-.03.02-.05.01-.07 0 .03 0 .04-.02.04-.08 0-.04-.03-.06-.06-.04.06 0 .1-.04.1-.1.01-.05 0-.07-.05-.06l-.22.07c-.05-.07-.18-.1-.39-.08.12.01.23 0 .35-.01.02 0 .03-.01.02-.03 0-.02 0-.03-.03-.03a20.4 20.4 0 0 1-2.88-.28.3.3 0 0 1 .02-.25v.12c0 .05.03.07.07.07.89-.04 1.78 0 2.66.1.11.02.22.05.32.1a.1.1 0 0 0 .1 0c.07-.04.09-.1.08-.2.1-.05.12-.09.06-.11l.24-.26c.04-.07.1-.07.15 0 0 .08.07.08.22 0 .04-.05.09-.07.14-.04.05.09.12.16.2.21.03.02.05.01.06-.02a7.15 7.15 0 0 1 .92-.9c-.03.1.04.15.19.14l-1.04.83c-.03.02-.04.05-.02.09.07.13.19.17.34.12.95-.3 1.9-.44 2.81-.44.05 0 .08-.03.06-.09l-.05-.19c-.01-.04-.04-.06-.08-.06-.15.01-.24-.07-.29-.23a.13.13 0 0 1 .03-.12l.1-.14a.1.1 0 0 0 .02-.13l-.15-.27.25-.07Z" fill="#1D4776"/><path d="M28.64 30.64v-.02l1-.5 1.19-.55c.33-.14.5-.2.52-.18l.01.04c.02.02-.14.13-.45.3-.32.19-.7.39-1.17.62l-1 .49h-.01l-.1-.2ZM27.14 30.57c.1-.02.15-.05.14-.09l.2.19c.07.02.06.06-.05.11l-.1.07a.12.12 0 0 1-.1.02 16.02 16.02 0 0 1-2.65-.99c-.15-.1-.13-.14.04-.1.79.22 1.58.49 2.4.82a.9.9 0 0 1 .21.13h.05l.02-.04c.02-.02.01-.03 0-.04l-.16-.08Z" fill="#753964"/><path d="M32.3 30.17a4.62 4.62 0 0 1-1.22 4.1 4.33 4.33 0 0 1-6.46-.32 4.47 4.47 0 0 1-.98-2.25l-.02-.53c0-.04.01-.08.04-.11l.08-.08c.04-.04.07-.04.09.01l.02.07c.02.51.04.84.08.99a4.28 4.28 0 0 0 4.24 3.28 4.23 4.23 0 0 0 3.95-3.66c.08-.46.08-.93 0-1.4-.02-.05-.01-.1 0-.14 0-.03.02-.05.04-.05h.05c.02 0 .04.02.04.04.01.04.03.06.06.05Z" fill="#215667"/><path d="M31.64 30.96c.02.02.05.03.1.04l.04.01c.04.01.06.04.05.08v.12c0 .04-.02.06-.07.06-.95-.14-1.81-.2-2.57-.2a.71.71 0 0 0-.4.1.09.09 0 0 1-.06.02.08.08 0 0 1-.06-.04.12.12 0 0 1-.02-.07c0-.05.03-.07.07-.06.1 0 .23-.01.37-.05.12-.03.24-.06.37-.07.64-.06 1.3-.2 1.97-.4a.18.18 0 0 1 .13 0c.05.03.06.07.02.11-.1.13-.07.25.06.35Z" fill="#fff"/><path d="M28.27 30.84c0 .03.01.04.03.02.1.26.02.44-.25.54a.18.18 0 0 1-.18-.03.2.2 0 0 1-.1-.16v-.25c.03-.07.04-.12.03-.15.2-.05.37-.04.47.03Z" fill="#273179"/><path d="M24.18 30.84c.95.16 1.92.25 2.88.28.02 0 .03 0 .03.02 0 .03 0 .04-.02.04-.12.02-.23.02-.34.01-.83.1-1.66.27-2.5.51.03-.05.07-.1.13-.13a.4.4 0 0 0 .12-.1c.06-.08.05-.17-.02-.25a.16.16 0 0 0-.09-.06c-.13-.03-.2-.1-.2-.2a.32.32 0 0 0 0-.12Z" fill="#fff"/><path d="M26.72 31.19c.21-.02.34.01.4.08a.5.5 0 0 1-.21.1c-.87.21-1.75.35-2.64.4-.03-.03-.04-.05-.03-.07.83-.24 1.66-.42 2.48-.51Z" fill="#273179"/><path d="M31.58 32.32c-.86-.45-1.76-.78-2.7-1-.06-.06-.02-.1.1-.1l.13.01c.89.14 1.77.18 2.64.13.06 0 .08.02.08.07-.02.1-.07.15-.17.15a.12.12 0 0 0-.1.05c-.13.16-.11.32.06.48.02.02.03.04.03.07 0 .05-.01.1-.07.14Z" fill="#fff"/><path d="M28.88 31.32c.94.22 1.84.55 2.7 1a.26.26 0 0 1-.15.02c-.9-.2-1.76-.5-2.6-.89l.05-.13ZM27.28 31.36c.03-.02.05 0 .06.04 0 .06 0 .08-.04.07-.8.51-1.66.93-2.56 1.24-.03.02-.06.02-.09 0a.03.03 0 0 1-.01-.03l.01-.03c.83-.53 1.7-.96 2.63-1.3Z" fill="#273179"/><path d="M28.84 31.45c.83.4 1.7.7 2.59.89.05 0 .1 0 .15-.02a.3.3 0 0 1-.02.16c-.02.03-.04.05-.08.04-.16-.03-.27.03-.32.18-.02.05-.02.1.01.13.14.18.11.34-.06.47a.16.16 0 0 1-.15.03c-.12-.04-.2-.01-.27.07-.06.09-.06.18 0 .3v.12a.23.23 0 0 1-.13.13c-.04.02-.08.01-.1-.03a13.72 13.72 0 0 0-2-2.34.4.4 0 0 0 .13-.15c.04-.07.12-.06.25.02Z" fill="#fff"/><path d="M29.78 32.45c.7.47 1.3.8 1.33.74.04-.06-.5-.49-1.2-.96-.69-.48-1.29-.81-1.33-.75-.04.06.5.5 1.2.97Z" fill="#1D4776"/><path d="m28.46 31.58-.02.06v.05c.6.87 1.25 1.64 1.98 2.3.05.06.05.1-.03.1a.22.22 0 0 1-.19-.03.2.2 0 0 0-.24-.01.21.21 0 0 0-.1.22v.13c.01.05-.01.08-.06.1l-.07.02c-.05.02-.08 0-.1-.05-.3-.94-.7-1.8-1.18-2.59a.18.18 0 0 1-.02-.12c0-.05-.01-.08-.06-.08-.05-.01-.05-.03 0-.07a.28.28 0 0 1 .09-.03ZM25.89 34.24c-.02.05-.05.06-.1.03l-.03-.03a.05.05 0 0 1-.02-.04l.01-.04c.1-.12.09-.24-.03-.36a.19.19 0 0 0-.13-.06l-.14.03a.37.37 0 0 1-.18.02c-.05-.01-.08-.05-.08-.13 0-.04.02-.08.05-.1a13.5 13.5 0 0 0 2.26-1.97l.03.02c.02.02.02.04 0 .06-.4.5-.75 1-1.06 1.5-.21.34-.4.7-.58 1.07ZM27.82 34.64a20.2 20.2 0 0 0 .24-2.68h.03c.03 0 .04.01.04.04-.02.32 0 .65.06.98a26.66 26.66 0 0 0 .42 1.8l.05.01c.02 0 .03 0 .03-.03-.08-.94-.23-1.87-.44-2.8-.01-.03-.03-.04-.05-.03h-.04c-.03 0-.04 0-.05-.02-.02-.08 0-.14.04-.2a.1.1 0 0 1 .1-.03c.04 0 .05.03.03.08-.03.04-.02.09.01.13.03.02.05.05.06.09a11.54 11.54 0 0 0 1.24 2.56c.01.04 0 .06-.03.07l-.07-.01a2.5 2.5 0 0 1-.13-.12.15.15 0 0 0-.13-.04c-.13.01-.2.1-.23.26-.01.12-.08.18-.2.16-.05 0-.1 0-.16.02-.05.02-.09 0-.1-.04-.07-.16-.18-.21-.33-.17a.15.15 0 0 0-.08.05.15.15 0 0 0-.04.1c0 .05-.02.1-.06.12-.05.04-.13.05-.24.03a.48.48 0 0 0-.2 0c-.03 0-.06 0-.07-.05a.84.84 0 0 1-.03-.13.2.2 0 0 0-.07-.13.22.22 0 0 0-.12-.06l-.13.01a.22.22 0 0 0-.1.1.28.28 0 0 1-.06.05.1.1 0 0 1-.13.02.5.5 0 0 0-.18-.06c-.05 0-.08-.03-.09-.08l-.03-.2a.15.15 0 0 0-.07-.1c-.14-.09-.28-.07-.4.06-.04.03-.07.03-.1 0l-.03-.02c-.05-.04-.06-.08-.02-.13a13.04 13.04 0 0 0 1.66-2.5l.03.02c.02.01.03.03.02.06-.29.63-.5 1.18-.63 1.65a2026.6 2026.6 0 0 1-.33 1.19l.05.02.03-.01c.43-.88.76-1.82 1-2.82.03-.08 0-.12-.08-.12-.01 0-.02 0 0-.03.01-.05.04-.06.1-.05.07.01.1.07.08.15-.17.88-.23 1.83-.18 2.83.02.32.06.32.1 0Z" fill="#fff"/></svg>