<!-- by TradingView --><svg width="56" height="56" viewBox="0 0 56 56" xmlns="http://www.w3.org/2000/svg"><path fill="#F0F3FA" d="M0 0h56v56H0z"/><path fill="#007C3D" d="M14 22h28v20H14z"/><path d="M33.54 12h.27c.38.03.74.15 1.08.34.22.13.4.3.56.5l.13.22c.1.23.15.46.17.68.02.24 0 .47-.07.68a1.1 1.1 0 0 1-.73.71 1.8 1.8 0 0 1-.51.09c-.17 0-.35 0-.53-.04v.02c.13.26.24.47.34.62a2.18 2.18 0 0 0 .68.7c.14.12.3.26.44.42.12.14.24.3.38.5.2.28.33.57.41.88.08.32.1.64.06.97-.04.27-.13.5-.28.72-.16.23-.36.44-.6.64-.47.4-1.04.76-1.7 1.06a13.54 13.54 0 0 1-2.2.77 12.35 12.35 0 0 1-1.41.03c-.15 0-.29 0-.4.02a.22.22 0 0 0-.11.03c-.15.1-.32.2-.5.26a2.66 2.66 0 0 1-1.16.14 2.8 2.8 0 0 1-.57-.1c-.2-.06-.37-.15-.51-.28a.2.2 0 0 0-.08-.04 6.3 6.3 0 0 1-4.45-.83l-.51-.3a4.47 4.47 0 0 1-1.44-1.38c-.18-.3-.29-.6-.33-.92-.05-.34-.02-.68.1-1.01.08-.25.21-.5.4-.73.16-.21.36-.4.58-.58l.36-.27c.25-.18.48-.4.7-.67a1.97 1.97 0 0 0 .34-.65h-.01c-.19.06-.37.09-.55.09a1.29 1.29 0 0 1-.95-.35 1.46 1.46 0 0 1-.3-1.74 2.07 2.07 0 0 1 .5-.66c.11-.1.23-.16.35-.2.49-.2.97-.24 1.45-.13.17.04.31.1.44.2.13.08.23.18.31.3.08.12.14.26.18.4a1.67 1.67 0 0 1 .05.5v-.01a7.41 7.41 0 0 1 3.87-1.37 6.57 6.57 0 0 1 4.43 1.37h.02c0-.23.05-.45.12-.66.1-.28.24-.5.44-.66.2-.16.45-.26.74-.28Z" fill="#1F1A16"/><path d="M34.36 13.25a1.7 1.7 0 0 0-.82-.13.99.99 0 0 0-.57.24 1.03 1.03 0 0 0-.31.55h-.01l-.25-.14-.01-.02c0-.23.03-.46.09-.67.08-.31.23-.55.45-.7.2-.15.43-.23.7-.23a2.38 2.38 0 0 1 1.49.56c.17.14.29.31.35.5.07.21.12.4.13.58.01.19 0 .36-.05.51a.98.98 0 0 1-.57.65c-.14.07-.3.1-.5.11a2.58 2.58 0 0 1-.64-.05 4.31 4.31 0 0 0-1.03-1.02c.05-.19.11-.33.2-.44a.8.8 0 0 1 .6-.3l.34.03a1.88 1.88 0 0 1 .36.11l.01-.01.05-.1-.01-.03ZM21.87 13.4l.12-.05c.12-.04.24-.07.36-.08.13-.01.25 0 .36.02a.8.8 0 0 1 .32.14c.1.08.18.18.24.3l.1.32-.01.02a4 4 0 0 0-.8.92c-.24.1-.49.15-.72.15a1.2 1.2 0 0 1-1.13-.79 1.28 1.28 0 0 1-.08-.34c-.02-.13-.01-.24.01-.35.09-.38.28-.7.57-.97.13-.12.3-.21.5-.28.2-.06.42-.1.64-.1.24-.01.45.01.65.08.21.07.38.18.51.33.14.17.23.38.25.64v.4c0 .02-.01.03-.03.04l-.2.14h-.01a1.1 1.1 0 0 0-.26-.5.93.93 0 0 0-.4-.27c-.16-.05-.33-.06-.52-.05-.17.02-.35.06-.53.14-.01 0-.02.01-.01.02l.04.1c0 .01.02.02.03.01ZM29 13.5v.02h.03a3.32 3.32 0 0 1 .8-.05h.07c.42 0 .78-.15 1.08-.43H31a7.47 7.47 0 0 1 .76.45 8.8 8.8 0 0 0-.54.14c-.21.06-.44.08-.69.07l-.04.01c-.01.01-.02.03-.01.05v.01c.12.09.27.17.44.25.24.11.47.16.7.15.23-.01.45-.1.64-.25h.03c.26.12.5.29.75.48a4.27 4.27 0 0 1 .6.66.79.79 0 0 0-.35-.13 2.22 2.22 0 0 0-.45-.02l-.4-.02c-.23-.03-.44-.1-.65-.2h-.04c-.03.02-.03.04-.01.06a3.21 3.21 0 0 0 1.11.93 3.85 3.85 0 0 0 1.38.43c.02 0 .04.01.05.03.14.18.3.33.51.47.04.02.04.03-.01.03a5.64 5.64 0 0 0-.76.03c-.42.03-.86-.1-1.33-.4a.04.04 0 0 0-.04 0 .04.04 0 0 0-.03.03l.01.04c.2.33.45.6.78.8a3 3 0 0 0 1.06.38 5.5 5.5 0 0 0 1.2.1c.18.25.3.53.37.82 0 .02 0 .02-.02.01a1.8 1.8 0 0 0-.9-.27 7.08 7.08 0 0 1-.5-.05 1.6 1.6 0 0 1-.79-.35.04.04 0 0 0-.04 0c-.02 0-.04.02-.03.05.03.25.12.47.28.64.14.16.34.29.6.39l.63.26c.24.1.47.25.67.44.03.03.04.06.03.09-.15.32-.4.62-.75.9-.28.24-.59.46-.93.65-.73.41-1.56.76-2.5 1.04-.33.1-.69.14-1.07.13a16.66 16.66 0 0 0-1.2.02.31.31 0 0 0-.08.04c-.13.1-.26.16-.4.22a2.55 2.55 0 0 1-.9.17c-.34 0-.65-.04-.92-.15a1.06 1.06 0 0 1-.4-.25 5.42 5.42 0 0 1-5.75-1.69 3.4 3.4 0 0 1-.8-1.1c-.02-.03-.01-.05 0-.06l.04-.05h.01c.33-.27.68-.5 1.04-.7.26-.14.5-.28.7-.43.09-.06.18-.14.26-.24a.8.8 0 0 0 .2-.51c0-.01 0-.02-.02-.03 0-.02-.02-.02-.04-.01a.08.08 0 0 0-.03.02c-.18.22-.44.36-.78.42l-.56.1a2.62 2.62 0 0 0-.96.35v-.01a2.26 2.26 0 0 1 .36-.86h.43c.37 0 .73-.05 1.06-.14.33-.08.61-.2.85-.37.26-.18.46-.41.6-.69v-.03c0-.02 0-.03-.02-.03l-.04.01a1.6 1.6 0 0 1-.9.28 17.81 17.81 0 0 1-.98 0 4.31 4.31 0 0 0 .74-.67c.47-.06.87-.18 1.2-.37.39-.21.67-.51.84-.9v-.03a.06.06 0 0 0-.03-.03h-.03c-.12.08-.26.14-.41.17a2.28 2.28 0 0 1-.46.06c-.2.02-.37.07-.53.15h-.01a3.47 3.47 0 0 1 1.09-1.07c.1.1.22.16.36.21.13.04.27.06.43.07.38 0 .75-.08 1.1-.28l.01-.03v-.03a.06.06 0 0 0-.05-.03 3.21 3.21 0 0 1-1.27-.44l.01-.01a8.07 8.07 0 0 1 .6-.31l.4.22a2.76 2.76 0 0 0 1.86.29v-.04a.04.04 0 0 0-.02-.03 2.31 2.31 0 0 1-.97-.67 2.74 2.74 0 0 0-.15-.14l-.06-.05v-.02a7.37 7.37 0 0 1 1.03-.2l.45.54c.2.23.36.48.48.73.05.1.09.1.12 0 .03-.12.08-.24.16-.37.05-.1.13-.2.21-.33a12.2 12.2 0 0 0 .44-.6 6.28 6.28 0 0 1 .95.21l-.17.16a3.57 3.57 0 0 0-.23.3c-.14.16-.32.28-.56.35l-.02.01v.03Z" fill="#FFF500"/><path d="M25.57 18.5a.96.96 0 0 1-.5-.15 1.4 1.4 0 0 1-.43-.42c-.13-.18-.22-.39-.3-.62a2.7 2.7 0 0 1 .3-2.11c.12-.18.26-.32.42-.42.17-.1.34-.15.51-.15.18 0 .35.05.5.15.17.1.31.24.44.42.12.18.22.39.28.62a2.7 2.7 0 0 1-.28 2.11 1.4 1.4 0 0 1-.43.42.96.96 0 0 1-.5.15ZM30.65 18.5a.96.96 0 0 1-.5-.15 1.4 1.4 0 0 1-.44-.42c-.12-.18-.22-.39-.28-.62a2.7 2.7 0 0 1 .28-2.11c.13-.19.27-.33.43-.42.17-.1.33-.15.51-.15s.34.05.5.15c.17.1.31.23.44.42.12.18.22.39.28.62a2.7 2.7 0 0 1-.28 2.11 1.4 1.4 0 0 1-.43.42.96.96 0 0 1-.51.15Z" fill="#1F1A16"/><path d="M25.56 16.9a.82.82 0 0 0-.27-.15.7.7 0 0 0-.28-.03c-.1 0-.18.04-.26.09a.6.6 0 0 0-.25.36v.02c0 .02-.01.02-.02 0a2.7 2.7 0 0 1-.04-1.07c.03-.19.09-.36.16-.52.07-.17.17-.32.28-.45.11-.12.24-.22.38-.27.15-.07.3-.08.46-.05.2.03.38.14.54.32.14.16.25.34.33.56a2.56 2.56 0 0 1 .06 1.49.64.64 0 0 0-.15-.3.55.55 0 0 0-.23-.15.63.63 0 0 0-.3-.03.76.76 0 0 0-.38.17h-.03ZM29.65 17.02a.38.38 0 0 0-.04.09l-.03.09c0 .03-.01.03-.02 0-.08-.35-.1-.7-.05-1.02.03-.21.1-.41.17-.6.1-.2.2-.36.35-.5.12-.11.25-.19.39-.23.14-.05.3-.05.44 0 .14.03.27.1.39.2.1.1.2.22.28.36a2.06 2.06 0 0 1 .27.85 2.72 2.72 0 0 1-.08.95.65.65 0 0 0-.14-.29.55.55 0 0 0-.25-.16.62.62 0 0 0-.29-.02c-.1.02-.2.06-.3.12a3.76 3.76 0 0 0-.1.05.85.85 0 0 0-.26-.14.68.68 0 0 0-.27-.03c-.1 0-.18.03-.25.08a.64.64 0 0 0-.21.2Z" fill="#F0F3FA"/><path d="M28.2 20.3c-.07.05-.13.05-.18.01-.33-.15-.6-.34-.81-.58-.14-.15-.23-.3-.28-.48a.9.9 0 0 1 0-.54.66.66 0 0 1 .34-.4.66.66 0 0 1 .43-.04c.13.03.26.1.39.2h.03l.03-.03.15-.1a.7.7 0 0 1 .15-.05c.32-.09.57 0 .75.26.07.1.11.23.12.39 0 .24-.08.49-.26.72a1.85 1.85 0 0 1-.6.5c-.08.06-.17.1-.25.14Z" fill="#1F1A16"/><path d="M28.02 20.31c.05.04.11.04.19 0v.55l.01.02c.26.1.5.17.75.21.27.04.53.05.77.01.34-.05.69-.2 1.03-.43a5.16 5.16 0 0 0 .88-.72 11.55 11.55 0 0 1 .89-.73c.34-.22.69-.37 1.04-.44.01 0 .02 0 .03.02l.04.19V19h-.02c-.25.05-.5.14-.74.28-.22.12-.44.27-.65.46l-.83.74c-.1.09-.23.2-.39.3-.28.2-.56.36-.84.45-.3.1-.62.15-.94.13a3.62 3.62 0 0 1-1.12-.27.15.15 0 0 0-.1 0c-.6.19-1.17.25-1.7.18a3 3 0 0 1-1.09-.38c-.3-.17-.61-.4-.92-.7l-.62-.6c-.2-.18-.38-.31-.57-.4a.8.8 0 0 0-.5-.03h-.02v-.01l-.03-.2.01-.03c.26-.06.51-.02.77.11a4.4 4.4 0 0 1 .76.61l.45.45c.18.16.34.3.5.4a2.85 2.85 0 0 0 2.24.52 4.23 4.23 0 0 0 .7-.19 49.83 49.83 0 0 1 .02-.52Z" fill="#D72618"/><path d="M41.8 22.02c0 .01 0 .02.03.02.19-.02.38 0 .58.02.32.03.6.18.85.45.22.24.4.52.52.83.13.33.2.67.22 1.03v.18H43.83v-.01c0-.39-.07-.75-.2-1.09a2.32 2.32 0 0 0-.59-.9c-.1-.1-.2-.17-.31-.22a1.16 1.16 0 0 0-.37-.1 3.12 3.12 0 0 0-.95.04c-.25.04-.45.12-.6.23-.2.13-.3.3-.29.52 0 .05.03.1.07.13a.3.3 0 0 0 .15.06c.13.02.3.03.5.02.26 0 .42.07.47.21.03.06.02.1-.02.15-.05.04-.12.05-.23.05a4.96 4.96 0 0 0-.45-.01c-.16 0-.3.02-.43.06a.67.67 0 0 0-.2.09.48.48 0 0 0-.13.13.38.38 0 0 0-.06.17c0 .07 0 .14.03.2a.4.4 0 0 0 .15.2.5.5 0 0 0 .22.09c.25.03.48.08.7.15.07.02.12.05.17.1a.1.1 0 0 1 .05.13l-.05.05a.2.2 0 0 1-.07.04c-.1.03-.21.04-.34.04a5.09 5.09 0 0 1-.65-.02.25.25 0 0 0-.24.15.44.44 0 0 0-.04.15v.15c.04.3.21.5.51.62a2.25 2.25 0 0 0 .86.1v.02c0 .04 0 .09.03.12v.02l-.01.01c-.3.13-.57.16-.82.08a.11.11 0 0 0-.11.02.14.14 0 0 0-.06.1.3.3 0 0 0 .08.26c.06.06.14.1.24.14a2.69 2.69 0 0 0 1.43.02c.35-.1.63-.26.85-.48.23-.24.41-.53.53-.88a3.12 3.12 0 0 0 .2-1.04H44v.2l-.03.31a3.05 3.05 0 0 1-.42 1.14 1.9 1.9 0 0 1-.9.8 2.46 2.46 0 0 1-1.16.2c-.25 0-.48-.03-.7-.1a.75.75 0 0 1-.31-.2.49.49 0 0 1-.13-.33c0-.07.01-.13.05-.2.04-.05.09-.1.15-.12.04-.01.04-.03 0-.04a.93.93 0 0 1-.48-.38.88.88 0 0 1-.12-.59.56.56 0 0 1 .1-.25.36.36 0 0 1 .21-.15.82.82 0 0 1 .23-.02 19.8 19.8 0 0 0 .71 0c.02 0 .02 0 0 0-.17-.07-.36-.11-.58-.14a.85.85 0 0 1-.23-.06.61.61 0 0 1-.37-.48.57.57 0 0 1 .24-.56c.09-.06.2-.11.32-.14.13-.04.28-.06.45-.06a4.83 4.83 0 0 1 .46 0 .68.68 0 0 0-.2-.04l-.48-.01a.57.57 0 0 1-.35-.13c-.09-.08-.13-.2-.11-.35a.72.72 0 0 1 .17-.4c.1-.11.21-.2.36-.27a3.02 3.02 0 0 1 .88-.21.1.1 0 0 0 .05-.02ZM14.38 22.04l.04.02c.27.03.5.1.7.2.27.13.44.3.5.51.04.13.04.24.02.34-.04.11-.1.2-.22.24a.8.8 0 0 1-.24.05l-.49.02c-.06 0-.12 0-.18.02v.02c.2-.02.37-.02.51 0 .19 0 .35.03.49.07l.22.11c.07.05.12.1.16.17a.56.56 0 0 1 .08.47.6.6 0 0 1-.34.4c-.07.04-.16.06-.3.08a3.38 3.38 0 0 0-.54.13h.05a6 6 0 0 0 .83 0c.09.01.16.04.2.09.11.1.17.22.19.37.01.13 0 .27-.07.41a.83.83 0 0 1-.22.33c-.09.08-.2.15-.34.2v.02c.2.1.27.25.2.48-.05.18-.22.32-.5.4a2.04 2.04 0 0 1-.7.1h-.02l-.03.01v-.02c-.24 0-.46-.03-.7-.1-.49-.12-.88-.4-1.17-.81a2.68 2.68 0 0 1-.36-.75 3.83 3.83 0 0 1-.15-.82v-.19h.16l.01.01a3.22 3.22 0 0 0 .37 1.48c.13.22.3.41.48.56.2.17.43.28.69.35.41.11.82.13 1.23.05.13-.03.23-.06.31-.1a.4.4 0 0 0 .22-.22.27.27 0 0 0 .01-.1.2.2 0 0 0-.02-.1.12.12 0 0 0-.07-.05.16.16 0 0 0-.1 0 .93.93 0 0 1-.41.03 1.3 1.3 0 0 1-.4-.12v-.02a.34.34 0 0 0 .03-.13v-.02h.02c.27 0 .5 0 .7-.06.25-.06.44-.18.54-.35.06-.1.1-.2.1-.3a.52.52 0 0 0-.04-.32c-.04-.09-.11-.13-.2-.13a7.09 7.09 0 0 0-.65.01 1.98 1.98 0 0 1-.4-.05.2.2 0 0 1-.06-.05c-.04-.04-.04-.08 0-.14a.3.3 0 0 1 .14-.1c.22-.08.45-.13.7-.16a.6.6 0 0 0 .27-.1.42.42 0 0 0 .16-.22.4.4 0 0 0-.02-.32.44.44 0 0 0-.1-.12.5.5 0 0 0-.14-.09 1.35 1.35 0 0 0-.43-.1 2.72 2.72 0 0 0-.45 0 17.7 17.7 0 0 1-.25 0 .22.22 0 0 1-.09-.05.11.11 0 0 1-.04-.07c0-.03.01-.07.03-.1.05-.08.11-.12.2-.15a.82.82 0 0 1 .25-.03l.46-.01c.1-.01.16-.04.2-.08.06-.05.08-.12.07-.21a.62.62 0 0 0-.3-.44c-.13-.1-.3-.16-.51-.2a3 3 0 0 0-1.08-.06c-.19.03-.35.1-.5.2a2.46 2.46 0 0 0-.7.95 3 3 0 0 0-.22 1.17c0 .01 0 .02-.02.02H12v-.2c.03-.52.17-1 .43-1.44.13-.22.28-.4.46-.56a1.34 1.34 0 0 1 .86-.33 3.35 3.35 0 0 1 .63 0Z" fill="#1F1A16"/><path d="M12 24.61v-.04h.15c.02 0 .02 0 .02-.02a3.14 3.14 0 0 1 .22-1.17c.08-.2.18-.37.3-.52.11-.17.25-.31.4-.43.15-.1.31-.17.5-.2a3 3 0 0 1 1.08.05c.2.05.38.12.51.21.18.12.27.26.3.44 0 .1-.01.16-.06.21-.05.04-.12.07-.21.08-.15.01-.3.02-.46.01-.1 0-.18 0-.25.03a.34.34 0 0 0-.2.14.17.17 0 0 0-.03.1c0 .04.02.06.04.08.03.02.05.04.09.05h.1a22.02 22.02 0 0 0 .6 0c.16.02.3.05.43.1.05.02.1.05.14.09l.1.13a.4.4 0 0 1 .02.31.42.42 0 0 1-.16.23.6.6 0 0 1-.27.09 3.2 3.2 0 0 0-.7.16.3.3 0 0 0-.15.1c-.03.06-.03.1 0 .14a.2.2 0 0 0 .07.05 7.06 7.06 0 0 0 1.05.04c.09 0 .16.04.2.13.05.09.06.2.05.31a.76.76 0 0 1-.1.3c-.11.18-.3.3-.56.36a2.45 2.45 0 0 1-.7.06l-.01.02c0 .05-.01.1-.03.13v.02c.13.06.26.1.4.12.15.02.28 0 .4-.03a.16.16 0 0 1 .11 0c.03 0 .05.03.07.06a.2.2 0 0 1 .02.09l-.01.1a.4.4 0 0 1-.22.22c-.08.04-.18.07-.3.1-.42.08-.83.06-1.24-.05a1.82 1.82 0 0 1-.69-.35 2.03 2.03 0 0 1-.48-.56 3.22 3.22 0 0 1-.37-1.47l-.01-.02H12ZM44 24.55v.07h-.16l-.01.01c0 .37-.06.71-.18 1.03-.12.35-.3.64-.53.88-.22.22-.5.38-.85.48a2.69 2.69 0 0 1-1.43-.02.56.56 0 0 1-.24-.14.3.3 0 0 1-.08-.26c0-.04.03-.07.06-.1a.11.11 0 0 1 .1-.02 1.14 1.14 0 0 0 .84-.1.25.25 0 0 1-.03-.13v-.02h-.02c-.35 0-.63-.02-.84-.1a.73.73 0 0 1-.51-.77c0-.06.02-.1.04-.15.05-.1.13-.15.24-.15a5.74 5.74 0 0 1 .65.02c.13 0 .24-.01.34-.04a.2.2 0 0 0 .07-.04.14.14 0 0 0 .05-.05.1.1 0 0 0 0-.07.14.14 0 0 0-.05-.07.54.54 0 0 0-.17-.09 3.77 3.77 0 0 0-.7-.15.5.5 0 0 1-.22-.09.4.4 0 0 1-.15-.2.46.46 0 0 1-.03-.2c0-.06.03-.12.06-.17.04-.05.08-.1.14-.13a.67.67 0 0 1 .19-.09c.13-.04.27-.06.43-.06h.45c.1.01.18 0 .23-.04.04-.04.05-.1.02-.15-.05-.14-.21-.21-.47-.2-.2 0-.37-.01-.5-.03a.3.3 0 0 1-.15-.06.18.18 0 0 1-.07-.13c-.01-.21.09-.39.29-.52.15-.1.35-.19.6-.23.3-.07.62-.08.95-.04a1.16 1.16 0 0 1 .68.32c.26.23.46.54.6.9a3.16 3.16 0 0 1 .2 1.1H44Z" fill="#FFF500"/><path d="M20.95 28.73a291.5 291.5 0 0 1 .78-4.6.79.79 0 0 1 .29-.3c.12-.07.25-.1.39-.08a.52.52 0 0 1 .45.42c.02.08.02.15 0 .23l-1.03 6.43c0 .05-.02.1-.05.15a.68.68 0 0 1-1.05.16 1.28 1.28 0 0 1-.19-.34 790.14 790.14 0 0 0-1.4-3.08h-.03l-.03.01a2843 2843 0 0 1-2.05 3.18.76.76 0 0 1-.4.3.55.55 0 0 1-.24.03.5.5 0 0 1-.24-.1.57.57 0 0 1-.2-.28.72.72 0 0 1-.02-.35c.01-.06.04-.11.07-.17a6989.16 6989.16 0 0 0 2.72-4.4c.06-.05.13-.1.2-.13a.56.56 0 0 1 .49 0c.1.04.17.1.24.2l.08.14a4.62 4.62 0 0 1 .08.17 353.26 353.26 0 0 1 1.14 2.41ZM31.4 31.67a2.18 2.18 0 0 1-1.2-1.23 4.4 4.4 0 0 1-.24-2.42c.12-.63.28-1.2.48-1.74.16-.43.35-.8.57-1.14a3.58 3.58 0 0 1 1.34-1.23c.19-.09.37-.14.55-.15.24-.02.46.05.67.2.26.18.44.43.55.74a4 4 0 0 1 .13 2.11.57.57 0 0 1-.23.35.58.58 0 0 1-.4.11.52.52 0 0 1-.28-.11.52.52 0 0 1-.17-.25.7.7 0 0 1-.02-.23 242.52 242.52 0 0 0 0-1.32.44.44 0 0 0-.1-.22.26.26 0 0 0-.23-.09.76.76 0 0 0-.38.2c-.1.08-.2.2-.3.32a5.1 5.1 0 0 0-.96 2.07 7.3 7.3 0 0 0-.14 1.72c0 .1.02.2.05.29.15.46.4.76.71.89.21.08.43.08.65 0 .2-.08.39-.21.55-.4.14-.16.26-.34.34-.53a.96.96 0 0 1 .2-.3.67.67 0 0 1 .3-.18.56.56 0 0 1 .34 0c.1.04.2.1.26.2.14.2.14.43 0 .73a.83.83 0 0 0-.06.14c-.03.1-.08.2-.15.31A3.42 3.42 0 0 1 33 31.56c-.28.11-.54.18-.8.2-.29.03-.55 0-.8-.09ZM28.12 25c-.09-.05-.21-.02-.36.1a5.2 5.2 0 0 0-1.46 2.95 7.7 7.7 0 0 0-.07 1.34c0 .09.02.18.05.26.13.38.32.62.57.75.13.06.27.1.41.08.13 0 .26-.05.4-.12.11-.06.23-.14.34-.25.1-.1.19-.2.27-.32l.08-.15c.04-.1.09-.18.13-.25a.79.79 0 0 1 .2-.2.57.57 0 0 1 .74.08c.07.08.12.17.14.28.02.1 0 .21-.02.32a2.12 2.12 0 0 1-.47.8 5.76 5.76 0 0 1-.77.67c-.3.16-.6.26-.92.32-.36.05-.68.02-.98-.12a2.01 2.01 0 0 1-1.01-1.08 4.4 4.4 0 0 1-.31-2.42c.08-.46.2-.92.35-1.38.21-.63.48-1.17.8-1.62.4-.55.85-.93 1.37-1.14.17-.08.35-.12.51-.12.22-.01.42.04.6.15.18.1.33.26.46.46.05.09.1.2.14.32.2.62.23 1.3.09 2.07a.64.64 0 0 1-.12.27.55.55 0 0 1-.29.2.5.5 0 0 1-.56-.2.55.55 0 0 1-.1-.33v-.93c0-.18-.01-.32-.03-.43-.04-.18-.1-.3-.18-.36ZM23.9 26.21c.38 0 .7-.3.7-.67 0-.37-.31-.67-.7-.67-.38 0-.69.3-.7.67 0 .37.32.67.7.67ZM35.02 27.23c.2-.43.51-.83.93-1.2a3.13 3.13 0 0 1 1.74-.84c.13-.01.26 0 .37.02a.71.71 0 0 1 .4.23.57.57 0 0 1 .12.44.53.53 0 0 1-.52.47 3.48 3.48 0 0 0-.95.32 2.3 2.3 0 0 0-1.23 1.7c-.02.14-.03.27 0 .4a1.9 1.9 0 0 0 .46.96 1.68 1.68 0 0 0 .94.5c.26.05.51.05.76 0 .1-.02.21-.07.36-.15.3-.17.5-.37.6-.62a.93.93 0 0 0 .07-.38c0-.12-.03-.24-.07-.36a1.59 1.59 0 0 0-.46-.6.71.71 0 0 0-.45-.12c-.06 0-.1.02-.15.04a.31.31 0 0 0-.13.14.33.33 0 0 0-.03.18.75.75 0 0 0 .23.41c.06.05.1.1.12.13.07.12.11.25.1.38a.56.56 0 0 1-.39.54.65.65 0 0 1-.27.02.99.99 0 0 1-.53-.25 2.06 2.06 0 0 1-.5-.71c-.2-.49-.16-.95.11-1.38a3.94 3.94 0 0 1 .35-.43c.12-.1.26-.18.42-.25.16-.06.32-.1.47-.1.1-.01.2 0 .28.02l.18.05c.37.06.7.2.98.4.3.21.53.48.69.82.08.16.14.33.18.5.05.2.07.38.06.55-.04.39-.13.74-.3 1.06a2.4 2.4 0 0 1-1.52 1.24 3.08 3.08 0 0 1-1.38.06 3.57 3.57 0 0 1-1.55-.81c-.45-.43-.7-.94-.77-1.55-.08-.65.02-1.25.28-1.83ZM23.31 31.16a.93.93 0 0 1-.11-.17.39.39 0 0 1-.06-.2l.14-3.6a.6.6 0 0 1 .04-.23.6.6 0 0 1 .41-.36.56.56 0 0 1 .43.06c.06.04.12.09.16.15a.7.7 0 0 1 .12.2c.02.04.02.1.02.17l-.12 3.61c0 .1-.01.17-.03.22-.05.1-.1.19-.2.25a.56.56 0 0 1-.55.08.65.65 0 0 1-.25-.18ZM34.85 37.7l-.08 1.84c0 .13-.02.24-.05.3a.5.5 0 0 1-.25.27.63.63 0 0 1-.66-.09.57.57 0 0 1-.17-.26 1.01 1.01 0 0 1-.04-.3v-2.42a.06.06 0 0 0-.03-.05 2.9 2.9 0 0 1-.57-.42c-.22-.22-.3-.42-.25-.62.04-.15.16-.3.36-.46a3.55 3.55 0 0 1 .54-.34l.04-2.23c0-.08.02-.16.04-.24a.62.62 0 0 1 .12-.2.52.52 0 0 1 .43-.18.63.63 0 0 1 .38.15.64.64 0 0 1 .22.34l.02.27a159.26 159.26 0 0 0-.01 1.39l2.56-1.48c.1-.06.2-.1.3-.12a.68.68 0 0 1 .5.12.65.65 0 0 1 .26.41.6.6 0 0 1-.12.5.87.87 0 0 1-.25.2 3328.81 3328.81 0 0 0-3.26 1.99v.15l.01.04c1.5.8 3 1.61 4.47 2.42.12.06.21.15.27.25.06.1.1.22.09.36 0 .1-.02.19-.06.27a.55.55 0 0 1-.15.2.51.51 0 0 1-.22.1.6.6 0 0 1-.27 0 .97.97 0 0 1-.23-.1 1217.1 1217.1 0 0 0-3.94-2.06Z" fill="#F0F3FA"/><path fill-rule="evenodd" d="M16.96 34.48c.23-.02.47-.07.71-.17l.02.01v.08l.02 1.15c0 .07-.03.12-.1.15l-.2.1a.84.84 0 0 0-.32.33.6.6 0 0 0-.06.22c-.01.08 0 .16.03.23.04.12.12.22.23.32.1.08.21.15.35.2l.01.02-.04 2.27c0 .06.01.1.03.16.05.12.11.21.2.29a.52.52 0 0 0 .52.14.56.56 0 0 0 .23-.13.61.61 0 0 0 .2-.49l.08-2.95c0-.02 0-.04.02-.05a8987.73 8987.73 0 0 1 3.35-1.89 1.3 1.3 0 0 0 .44-.55.9.9 0 0 0-.01-.7c-.1-.22-.26-.39-.5-.5a1.73 1.73 0 0 0-.69-.18 9.38 9.38 0 0 0-4.8.9.54.54 0 0 0-.3.63.58.58 0 0 0 .19.3c.1.1.24.13.39.11Zm2.4.22a1108.38 1108.38 0 0 0 1.37-.75l.2-.16a.06.06 0 0 0 .01-.04c0-.02 0-.03-.02-.05-.04-.04-.17-.06-.39-.06l-.42.03a6.84 6.84 0 0 0-1.18.3l-.01.96h.01l.43-.23Z" fill="#F0F3FA"/><path fill-rule="evenodd" d="M22 36.89a9.17 9.17 0 0 1 .41.04l-.7 2.55a.59.59 0 0 0 .06.47.64.64 0 0 0 .45.3c.1.02.2.01.29-.03.17-.06.3-.17.38-.33l.12-.38a550.2 550.2 0 0 1 .76-2.6l1.54.03c.02 0 .03 0 .03.02l.46 1.8a.51.51 0 0 0 .23.33.53.53 0 0 0 .42.08.64.64 0 0 0 .36-.23.79.79 0 0 0 .17-.36.52.52 0 0 0-.01-.2l-1.52-6.21a.6.6 0 0 0-.07-.18c-.1-.16-.21-.28-.34-.36a.75.75 0 0 0-.47-.13.61.61 0 0 0-.24.07.84.84 0 0 0-.2.15 1.02 1.02 0 0 0-.26.42 3131.01 3131.01 0 0 0-1.07 3.49 49.7 49.7 0 0 0-1.08 0 .57.57 0 0 0-.23.13.63.63 0 0 0-.14.22.72.72 0 0 0-.01.51c.04.14.14.25.29.32.07.04.2.07.37.08Zm2.6-2.84-.46 1.57v.01h.87v-.01l-.4-1.57h-.01ZM29.18 38.93a9.69 9.69 0 0 1 .03-.62l3.4 1.83c.11.06.22.07.34.04.1-.03.2-.09.28-.18a.6.6 0 0 0 .14-.3.47.47 0 0 0-.07-.34.64.64 0 0 0-.23-.21 16359.86 16359.86 0 0 0-3.75-2.13l2.2-.82a2 2 0 0 0 .33-.16c.13-.08.24-.17.33-.28.08-.1.14-.22.17-.34a.84.84 0 0 0 .02-.37 1.05 1.05 0 0 0-.17-.4 1.71 1.71 0 0 0-.57-.53 4.9 4.9 0 0 0-1.57-.55 8.7 8.7 0 0 0-1.47-.11c-.44 0-.94.03-1.52.08a.9.9 0 0 0-.24.06.65.65 0 0 0-.21.12.49.49 0 0 0-.15.28c-.02.1-.01.2.02.3a.72.72 0 0 0 .43.42c.08.03.19.04.33.04a18.4 18.4 0 0 1 .74.03v1.18l-.01.02c-.2 0-.38.05-.55.12a.93.93 0 0 0-.2.12.75.75 0 0 0-.15.15.54.54 0 0 0-.1.43c.04.17.14.3.3.42a6.33 6.33 0 0 0 .68.4l-.02 1.23c0 .2.01.33.04.4.04.14.12.24.23.31.1.07.21.1.34.1a.57.57 0 0 0 .58-.38c.03-.07.05-.2.05-.36Zm.07-3.23c.5-.09.98-.23 1.45-.43a.64.64 0 0 0 .18-.11c.07-.06.09-.12.05-.17a.26.26 0 0 0-.14-.09 3.07 3.07 0 0 0-1.13-.1H29.25l-.02.02v.88h.02Z" fill="#F0F3FA"/></svg>