<!-- by TradingView --><svg width="56" height="56" viewBox="0 0 56 56" xmlns="http://www.w3.org/2000/svg"><path fill="#F0F3FA" d="M0 0h56v56H0z"/><path d="M51.5 26v4.28c0 .36.15.57.5.59V31h-2v-.13c.35-.01.5-.25.5-.59v-3.56c0-.35-.16-.56-.5-.58V26h1.5ZM47.65 30.54c-.38.3-.73.46-1.03.46a.64.64 0 0 1-.44-.16.53.53 0 0 1-.18-.4c0-.22.1-.42.3-.6.21-.17.66-.4 1.35-.7v-.29c0-.21-.02-.35-.04-.4a.32.32 0 0 0-.15-.15.46.46 0 0 0-.24-.07.66.66 0 0 0-.35.1c-.06.03-.1.07-.1.12 0 .04.04.1.1.16.09.09.13.17.13.26 0 .1-.04.18-.12.25a.47.47 0 0 1-.32.11.54.54 0 0 1-.36-.12.35.35 0 0 1-.14-.27.6.6 0 0 1 .2-.42c.12-.14.3-.24.53-.31.22-.07.46-.11.7-.11.3 0 .53.06.7.18.18.11.3.23.34.37.03.09.05.28.05.6v1.1c0 .14 0 .22.02.26 0 .03.02.06.05.07.02.02.04.03.07.03.06 0 .12-.04.18-.12l.1.08c-.11.15-.23.26-.35.33a.8.8 0 0 1-.4.1.68.68 0 0 1-.42-.11.51.51 0 0 1-.18-.35Zm0-.23v-.96c-.27.14-.47.3-.6.47a.54.54 0 0 0-.13.33c0 .1.03.18.1.25.06.06.14.08.24.08.11 0 .24-.05.39-.17ZM42 26v1.86c.31-.3.7-.44 1.06-.44.9 0 1.44.75 1.44 1.58 0 1.05-.74 2-1.81 2-.2 0-.38-.03-.54-.09-.16-.05-.3-.15-.46-.28l-.56.37H41v-4.3c0-.35-.11-.55-.5-.57V26H42Zm0 2.18v1.5c0 .45.07 1.07.64 1.07.75 0 .86-1.26.86-1.75 0-.9-.39-1.17-.8-1.17a.96.96 0 0 0-.7.35ZM38.5 28c.27 0 .53.06.77.2.24.12.42.3.54.53.13.24.19.5.19.77 0 .4-.12.74-.35 1.01-.27.33-.66.49-1.15.49-.48 0-.85-.15-1.11-.45-.26-.3-.39-.64-.39-1.04s.13-.76.4-1.06c.26-.3.63-.45 1.1-.45Zm0 .21a.43.43 0 0 0-.3.12c-.08.08-.13.23-.16.46a9.26 9.26 0 0 0 .01 1.56c.03.15.08.25.16.33a.4.4 0 0 0 .28.11c.1 0 .19-.02.26-.07a.5.5 0 0 0 .18-.3 6.2 6.2 0 0 0 0-1.86.54.54 0 0 0-.2-.28.4.4 0 0 0-.22-.07ZM36 26v4.28c0 .36.12.57.5.59V31h-2v-.13c.38-.01.5-.25.5-.59v-3.56c0-.35-.12-.56-.5-.58V26H36ZM33.47 26v1.69h-.13a2.15 2.15 0 0 0-.67-1.05c-.3-.24-.63-.36-.99-.36-1.18 0-1.68 1.33-1.68 2.28 0 1 .47 2.17 1.68 2.17a1.66 1.66 0 0 0 .7-.14v-1c0-.33-.1-.46-.48-.46h-.11V29H34v.13c-.4.03-.53.07-.53.47v.99a4.26 4.26 0 0 1-1.9.41c-1.4 0-2.57-.98-2.57-2.44A2.53 2.53 0 0 1 31.54 26c.22 0 .43.02.61.06.1.02.26.07.48.16.22.09.35.13.39.13.06 0 .12-.02.17-.07.06-.05.1-.14.15-.28h.13ZM15 26v3.29l.7-.79c.16-.16.26-.27.3-.34a.41.41 0 0 0 .06-.2.2.2 0 0 0-.08-.18c-.05-.04-.16-.07-.31-.1v-.13h1.53v.14a.84.84 0 0 0-.38.1c-.11.07-.33.26-.65.57l-.37.37.8 1.19c.33.48.52.75.58.8.09.1.2.14.32.15V31h-1.77v-.13c.08 0 .13-.02.17-.05.03-.03.05-.06.05-.1 0-.05-.05-.15-.15-.3l-.68-1-.12.21v.62c0 .33.14.58.5.62V31h-2v-.13c.36-.04.5-.3.5-.62v-3.5c0-.32-.14-.57-.5-.61V26H15ZM20 26v3.29l.7-.79c.16-.16.26-.27.3-.34a.41.41 0 0 0 .06-.2.2.2 0 0 0-.08-.18c-.05-.04-.16-.07-.31-.1v-.13h1.53v.14a.84.84 0 0 0-.38.1c-.11.07-.33.26-.65.57l-.37.37.8 1.19c.33.48.52.75.58.8.09.1.2.14.32.15V31h-1.77v-.13c.08 0 .13-.02.17-.05.03-.03.05-.06.05-.1 0-.05-.05-.15-.15-.3l-.68-1-.12.21v.62c0 .33.14.58.5.62V31h-2v-.13c.36-.04.5-.3.5-.62v-3.5c0-.32-.14-.57-.5-.61V26H20ZM12 28v2.38c0 .2.08.35.14.4.06.06.18.1.36.1V31h-2v-.12c.16 0 .29-.04.36-.11.06-.05.14-.18.14-.4v-1.74a.56.56 0 0 0-.15-.4c-.06-.07-.18-.1-.35-.11V28H12ZM25 28v2.38c0 .2.08.35.14.4.06.06.18.1.36.1V31h-2v-.12c.16 0 .29-.04.36-.11.06-.05.14-.18.14-.4v-1.74a.56.56 0 0 0-.15-.4c-.06-.07-.18-.1-.35-.11V28H25ZM5.72 26 8 29.03v-2.1c0-.49-.06-.8-.6-.8V26H9v.13c-.51.07-.74.3-.74.8V31h-.12L5 26.93v3.22c0 .4.15.72.6.72h.12V31H4v-.13c.53 0 .71-.2.71-.72v-3.56l-.1-.13a.94.94 0 0 0-.27-.26.8.8 0 0 0-.34-.07V26h1.72ZM12 26.5a.5.5 0 1 1-1 0 .5.5 0 0 1 1 0ZM25 26.5a.5.5 0 1 1-1 0 .5.5 0 0 1 1 0Z" fill="#585858"/></svg>