<!-- by TradingView --><svg width="56" height="56" viewBox="0 0 56 56" xmlns="http://www.w3.org/2000/svg"><path fill="#F0F3FA" d="M0 0h56v56H0z"/><path d="M20.74 40.72a1 1 0 0 0 1.39 0l4.29-4.2a.94.94 0 0 0 0-1.35l-4.46-4.36a1 1 0 0 0-1.4 0l-2.44 2.4a.84.84 0 0 1-1.17 0 .8.8 0 0 1 0-1.15l2.5-2.43c1-.98 2.63-.98 3.63 0l10.83 10.86a1.8 1.8 0 0 0 2.52 0l6.73-6.85c.54-.53.85-1.26.84-2.02l-.07-6.85c0-.65-.27-1.28-.75-1.75l-7.92-7.74a1 1 0 0 0-1.39 0l-4.29 4.2a.94.94 0 0 0 0 1.35l4.46 4.36a1 1 0 0 0 1.4 0l2.44-2.4a.84.84 0 0 1 1.17 0 .8.8 0 0 1 0 1.15l-2.5 2.43c-1 .98-2.63.98-3.63 0L22.09 15.51a1.8 1.8 0 0 0-2.52 0l-6.73 6.85a2.78 2.78 0 0 0-.84 2.02l.07 6.85c0 .65.27 1.28.75 1.75l7.92 7.74Z" fill="#E42125"/></svg>