<!-- by TradingView --><svg width="56" height="56" viewBox="0 0 56 56" xmlns="http://www.w3.org/2000/svg"><path fill="#F0F3FA" d="M0 0h56v56H0z"/><path d="M11.51 28.02c-.84-.87-.46-2.89-.17-3.78.2 1.81.58 1.93.75 1.76.15 1.04.26 2.9-.58 2.02Zm3.22 6.37c-1.39-.27-2.56-1.65-2.97-2.3a5.2 5.2 0 0 0 0 1.85c.66 2.65 3.28 3.74 4.5 3.95.07-1.05-.15-3.23-1.53-3.5Zm.08 5.22c.68.65 2.8 1.94 5.83 1.85 3.04-.1 2.86.95 2.4 1.48-2.03.34-6.51.14-8.23-3.33ZM38.06 16.38c.66-2.24-1.37-3.85-2.47-4.38a4.55 4.55 0 0 1 3.13 5 2.5 2.5 0 0 1-.66-.62Zm4.08 4.8a4.6 4.6 0 0 0-.66-5.14c2.39 2.12 1.86 5.11 1.3 6.35-.7.54-1.8 1.06-.64-1.22Zm3.36 1.2c.35 1.3.51 4.46-1.59 6.82-2.1 2.36-.87 1.6 0 .93 1.12-1.4 3-4.92 1.6-7.74Z" fill="#180C1C"/><ellipse cx="28.03" cy="28" rx="16.08" ry="16" fill="#0A4E43"/><circle cx="25" cy="25" r="11" fill="#0A7365"/><circle cx="23" cy="23" r="8" fill="#118B7C"/><path d="m17.3 16.08.71-.6 3.29-1.13-4.02 4.56c.03-.2.07-.56.08-1.02a22.9 22.9 0 0 0-4.45 4.64 15.94 15.94 0 0 1 2.3-4.2c.77-.82 1.53-1.5 2.12-1.97l-.03-.28Zm-4.56 16.91a15.86 15.86 0 0 1-.74-3.7c1.28-5.86 8-10.76 11.73-12.73a7.04 7.04 0 0 0-1.22-.97c3.6-1.18 9.02-.9 11.28-.6-1.56.84-7.05 5.87-7.68 7.4-.06-.83-.2-1.6-.4-2.33a38.54 38.54 0 0 0-6.89 4.42l6.16-.93-3.68 5.72c-.07-.3-.17-.71-.33-1.17-4.35 3-6.1 6-6.64 8.29-.42-.69-.8-1.4-1.12-2.16.98-4.03 4.45-7.48 6.37-8.92-.24-.3-.5-.59-.78-.82-3.85 3.17-5.52 6.22-6.06 8.5Z" fill-opacity=".4"/><path d="M32.76 14.13c-2.24-.28-7.6-.56-11.15.6.44.27.84.59 1.2.94-4.13 2.17-12 7.95-11.8 14.61 0 .9.57 3.17.86 4.2-.65-2.62 1.02-9.35 12.9-15.38.2.71.33 1.47.4 2.28.62-1.5 6.04-6.42 7.59-7.25Z" fill="url(#aghge2ub5)"/><path d="m17.97 24.56 6.16-1.31-3.31 5.83c-.09-.3-.22-.69-.4-1.13-6.75 5.2-6.51 9.99-5.62 11.74-.58-.7-1.9-2.4-1.9-3.68 0-4.6 3.86-8.96 5.92-10.7-.26-.29-.54-.55-.85-.75Z" fill="url(#bghge2ub5)"/><path d="m15.67 15.53 3.84-1.65-3.65 4.89c.02-.2.03-.58.02-1.05a19.84 19.84 0 0 0-4.54 6.52c.18-3.08 2.83-6.56 4.42-8.08l-.09-.63Z" fill="url(#cghge2ub5)"/><defs><linearGradient id="aghge2ub5" x1="32.32" y1="14.96" x2="11.2" y2="30.87" gradientUnits="userSpaceOnUse"><stop stop-color="#55306A"/><stop offset="1" stop-color="#9260A5"/></linearGradient><linearGradient id="bghge2ub5" x1="23.9" y1="24.11" x2="10.09" y2="30.84" gradientUnits="userSpaceOnUse"><stop stop-color="#55306A"/><stop offset="1" stop-color="#9260A5"/></linearGradient><linearGradient id="cghge2ub5" x1="19.35" y1="14.43" x2="9.9" y2="19.74" gradientUnits="userSpaceOnUse"><stop stop-color="#55306A"/><stop offset="1" stop-color="#9260A5"/></linearGradient></defs></svg>