<!-- by TradingView --><svg width="56" height="56" viewBox="0 0 56 56" xmlns="http://www.w3.org/2000/svg"><path fill="#F0F3FA" d="M0 0h56v56H0z"/><path d="M31.04 9.53 36 9a78.98 78.98 0 0 1-5.34 17.6c-.17.05-.75.21-1.66.4 2.38-5.81 2.35-14.07 2.04-17.47Z" fill="#F46C15"/><path fill-rule="evenodd" d="m48 25-4 6H29c-1.72 3.95-7.09 12-13.45 12C14 43 12 41.94 12 39.8c0-2.15 3.52-11.12 36-14.8Zm-21 6c-1.07 3-4.6 9-10.14 9-.8 0-1.86-.5-1.86-1.64S16.46 32.6 27 31Z" fill="#F46C15"/><path d="M18.2 21.42a2.2 2.2 0 0 0 2.2-2.2A2.2 2.2 0 0 0 18.2 17a2.2 2.2 0 0 0-2.2 2.21 2.2 2.2 0 0 0 2.2 2.21ZM34.8 45a2.2 2.2 0 0 0 2.2-2.21 2.2 2.2 0 0 0-2.2-2.21 2.2 2.2 0 0 0-2.2 2.2A2.2 2.2 0 0 0 34.8 45Zm-3.4-4.82c0 1.09-.87 1.97-1.95 1.97a1.96 1.96 0 0 1-1.96-1.97c0-1.09.88-1.97 1.96-1.97s1.95.88 1.95 1.97ZM25.75 39c.8 0 1.44-.65 1.44-1.45 0-.8-.64-1.46-1.44-1.46-.8 0-1.45.65-1.45 1.46 0 .8.65 1.45 1.45 1.45Zm-6.08-15.58c0 .8-.65 1.46-1.44 1.46-.8 0-1.45-.65-1.45-1.46a1.45 1.45 0 1 1 2.89 0Zm3.55 12.67c.8 0 1.44-.65 1.44-1.45 0-.8-.64-1.46-1.44-1.46-.8 0-1.44.65-1.44 1.46 0 .8.64 1.45 1.44 1.45Zm-.42-3.97c0 .59-.47 1.06-1.05 1.06a1.06 1.06 0 0 1-.84-1.7h-.1a.79.79 0 0 1-.78-.78c0-.44.35-.8.78-.8a.79.79 0 0 1 .68 1.2c.08-.03.17-.04.26-.04.58 0 1.05.48 1.05 1.06Zm-3.82-4.51c.58 0 1.05-.48 1.05-1.06 0-.59-.47-1.07-1.05-1.07-.58 0-1.05.48-1.05 1.07 0 .58.47 1.06 1.05 1.06Zm2.07 1.24c0 .58-.47 1.06-1.05 1.06-.58 0-1.05-.48-1.05-1.06 0-.59.47-1.06 1.05-1.06.58 0 1.05.47 1.05 1.06Z" fill="#0E8831"/></svg>