<!-- by TradingView --><svg width="56" height="56" viewBox="0 0 56 56" xmlns="http://www.w3.org/2000/svg"><path fill="#F0F3FA" d="M0 0h56v56H0z"/><path fill="#251661" d="M13 13h30v30H13z"/><path d="M27.73 40c0-17.43-2.6-21.66-3.73-22.83 1.7-1 3-1.17 4-1.17s2.3.18 4 1.17c-1.13 1.17-3.73 5.4-3.73 22.83h-.54Z" fill="#FFF236"/><path d="M18 21.81c.46-.75 1.95-2.56 4.25-3.81l.23.3C24.03 20.23 27 24 27 40h-.83c-.1-5.67-1.87-17.24-8.17-18.19Zm20 0A12.16 12.16 0 0 0 33.75 18l-.23.3C31.97 20.23 29 24 29 40h.83c.1-5.67 1.87-17.24 8.17-18.19Z" fill="#FFF236"/><path fill-rule="evenodd" d="M28 38a10 10 0 1 0 0-20 10 10 0 0 0 0 20Zm0-1a9 9 0 1 0 0-18 9 9 0 0 0 0 18Z" fill="#FFF236"/></svg>