<!-- by TradingView --><svg width="56" height="56" viewBox="0 0 56 56" xmlns="http://www.w3.org/2000/svg"><path fill="#F0F3FA" d="M0 0h56v56H0z"/><path fill-rule="evenodd" d="m27.97 23-3.55-7L17 33.06h3.07a8 8 0 0 0 15.86 0H39L31.58 16l-3.55 7C33 23.02 37 26.82 37 31.5c0 .17 0 .33-.02.5H36a8 8 0 1 0-16 0h-.98a8.2 8.2 0 0 1-.02-.5c0-4.68 4.01-8.48 8.97-8.5ZM32 37.75A7 7 0 0 0 34.93 33H21.07A7 7 0 0 0 24 37.75V34h4v4h-3.6a6.97 6.97 0 0 0 7.45-.15L28 34h4v3.75ZM28 25c1.32 0 2.55.37 3.6 1H28v5l-3.87-4.84A6.97 6.97 0 0 1 28 25Zm0 6h4v-4.75A7 7 0 0 1 35 32H21a7 7 0 0 1 3-5.75V31h4Z" fill="#2076B1"/><path d="M39.33 42A17.22 17.22 0 0 0 45 29.18 17.1 17.1 0 0 0 28 12c-9.39 0-17 7.7-17 17.18 0 5.1 2.2 9.67 5.67 12.82h22.66Zm-2.55-8a9 9 0 0 1-17.56 0H15l9.5-20 3.5 7 3.5-7L41 34h-4.22Z" fill="#50554E" fill-opacity=".5"/></svg>