<!-- by TradingView --><svg width="56" height="56" viewBox="0 0 56 56" xmlns="http://www.w3.org/2000/svg"><path fill="#F0F3FA" d="M0 0h56v56H0z"/><path d="M39 34v-6h3v.78h-2.28v1.83h2.1v.77h-2.1v1.84H42V34h-3ZM38 29.98h-.7a1.59 1.59 0 0 0-.16-.5 1.33 1.33 0 0 0-.27-.37 1.1 1.1 0 0 0-.78-.3c-.27 0-.5.08-.72.25-.2.17-.37.42-.5.74-.11.33-.17.73-.17 1.2 0 .48.06.88.18 1.2.12.33.29.58.5.74.2.17.45.26.7.26a1.13 1.13 0 0 0 .78-.3c.11-.1.2-.22.28-.37.07-.14.13-.3.15-.5l.71.01c-.04.29-.11.55-.22.8-.1.23-.24.44-.41.62a1.73 1.73 0 0 1-1.28.54c-.4 0-.76-.12-1.08-.36a2.4 2.4 0 0 1-.74-1.03A4.31 4.31 0 0 1 34 31c0-.62.1-1.16.27-1.6.18-.45.43-.8.74-1.04.32-.24.68-.36 1.07-.36a1.76 1.76 0 0 1 1.27.52c.17.17.31.38.42.62.12.25.2.53.23.84ZM33 28v6h-.69l-2.52-4.4h-.04V34H29v-6h.7l2.51 4.4h.05V28H33ZM25.72 34H25l1.61-6h.78L29 34h-.72l-1.26-4.91h-.04L25.72 34Zm.12-2.35h2.32v.76h-2.32v-.76ZM24 28v6h-.69l-2.52-4.4h-.04V34H20v-6h.7l2.51 4.4h.05V28H24ZM18.72 28v6H18v-6h.72ZM14 34v-6h3v.78h-2.27v1.83h2.05v.77h-2.05V34H14ZM39.6 41H38v-6h1.66c.49 0 .9.12 1.26.36.34.24.61.58.8 1.03.19.44.28.98.28 1.6 0 .63-.1 1.16-.28 1.61-.2.45-.46.8-.82 1.04-.36.24-.79.36-1.3.36Zm-.85-.8h.82c.38 0 .7-.08.94-.25.25-.17.44-.42.57-.75.12-.33.18-.73.18-1.2 0-.48-.06-.88-.18-1.2-.13-.34-.31-.58-.56-.75a1.56 1.56 0 0 0-.9-.26h-.87v4.42ZM34 41v-6h3v.78h-2.28v1.83h2.1v.77h-2.1v1.84H37V41h-3ZM28.39 35.78V35h4v.78h-1.61V41H30v-5.22h-1.61ZM27 35v6h-.8v-6h.8ZM20 35h.9l1.57 4.66h.06L24.1 35h.9v6h-.7v-4.34h-.05l-1.46 4.33h-.58l-1.46-4.33h-.04V41H20v-6ZM18.8 35v6H18v-6h.8ZM14 41v-6h.75v5.22H17V41h-3Z" fill="#556083"/><path fill-rule="evenodd" d="M14 17.95 15.7 16H19l1.32 1.23V16h2.98l.74.9.8-.9h5.79l1.38.9.7-.9h4.88c1.04.37 3.13 1.74 3.13 4.24 0 .9-.31 1.85-.9 2.24.17.44 1.52 3.2 2.18 4.52h-4.1l-1.27-2.07-.47.79.47 1.28h-2.5l-1.7-1.9v-1.28c-.26-.17-1-.5-1.8-.5s-1.42.33-1.63.5V27h-2.4l-1.02-1.12V27h-3.93l-.74-1.12-.32 1.12h-2.6L16 24.93v-4.69l-2-2.29Zm3.5 5.38V18.5c0-.27-.24-.5-.53-.5H16l.6-.72c.21-.26.55-.28.9-.28h.8l3.2 4v-3.31c0-.38.36-.69.77-.69.4 0 .73.3.73.69v5.72c0 .33-.28.59-.63.59h-.1a.64.64 0 0 1-.5-.23L19 20.15v3.18c0 .37-.32.67-.7.67-.4 0-.8-.3-.8-.67Zm6.5-5.08.62-.76c.25-.31.64-.49 1.05-.49h1.89C28.9 17 30 18.03 30 19.3v.77c0 .85-.73 1.53-1.63 1.53H26.5V24H25v-5.75h-1Zm2.5 2.1h1.2c.54 0 .98-.4.98-.92 0-.65-.56-1.18-1.26-1.18h-.92v2.1Zm6.6-2.93a1 1 0 0 1 .8-.42h2.23c1.2 0 2.37 1.03 2.37 2.3v.77c0 .54-.48 1.01-.87 1.28L39 24h-1.5l-1.24-2.4H35V24h-1.5v-5.75h-1l.6-.83Zm2.91.83H35v2.1h1.25c.48 0 .75-.4.75-.92 0-.65-.38-1.18-.99-1.18Z" fill="#556083"/><path fill-rule="evenodd" d="M44 13H12v30h32V13Zm-.55.56h-30.9v28.88h30.9V13.56Z" fill="#556083"/></svg>