<!-- by TradingView --><svg width="56" height="56" viewBox="0 0 56 56" xmlns="http://www.w3.org/2000/svg"><path fill="#F0F3FA" d="M0 0h56v56H0z"/><path d="m8.55 26.85-.4-.1c-.03 0-.04-.02-.04-.05V21c-.01-.8.4-1.45 1.12-1.82.25-.12.68-.18 1.3-.18h35.24c1 0 1.7.34 2.1 1.23.08.2.13.54.13 1.01v13c-.02.65-.6 1.32-1.15 1.57-.27.11-.74.17-1.41.17-10.8-.02-19.05-.02-24.75 0-.24 0-.45.04-.5-.01-.01-.02-.01-.03.01-.04.26-.08.5-.17.75-.28.2-.09.41-.14.62-.14h23.76c.71 0 1.2-.07 1.47-.2.53-.26.8-.76.8-1.49V21.79c0-1.03-.03-1.85-.97-2.22a3.15 3.15 0 0 0-1.04-.12H10.56c-.92 0-1.35.05-1.83.77-.12.19-.18.47-.17.83a1101.38 1101.38 0 0 1-.01 5.8Z" fill="#20A449"/><path fill-rule="evenodd" d="M42.18 24.48a4.37 4.37 0 0 0-.64-.02c-.25.03-.25.1-.03.23a1 1 0 0 1 .18.22.1.1 0 0 1 0 .12l-.34.53a.08.08 0 0 1-.04.03h-.06l-1.27-.83c-.06-.04-.08-.1-.06-.16.08-.28.22-.48.44-.62.36-.24.58-.6.23-1a.13.13 0 0 1-.03-.06v-.06l.11-.53c.01-.04.04-.07.08-.07h1.43c.07 0 .12-.04.14-.12l.18-.85a.37.37 0 0 1 .1-.2.3.3 0 0 1 .2-.07l1.5-.02c.34 0 .68.29.58.7l-.06.44c0 .06.02.1.07.1l.05.02c.05.01.07.05.06.1l-.11.53c-.02.05-.05.08-.1.08h-.04c-.03 0-.05.02-.06.05l-.55 2.61c0 .03-.02.04-.04.04h-.82c-.03 0-.05-.02-.04-.05l.54-2.57c.02-.06 0-.1-.07-.1h-.09a.14.14 0 0 0-.09.04.17.17 0 0 0-.05.1l-.54 2.54c0 .03-.02.05-.05.05h-.85c-.02 0-.03-.01-.03-.03l.23-1.08c.01-.06 0-.09-.06-.1Zm1.7-2.39c0 .08-.12.14-.26.15-.14.02-.26-.04-.27-.1 0-.08.11-.15.26-.16.14-.01.26.04.26.11Zm-2.06.97-.18.5c-.03.08 0 .12.08.12h.58a.1.1 0 0 0 .07-.03.13.13 0 0 0 .04-.07l.1-.55c0-.05-.01-.07-.06-.07h-.49c-.07 0-.11.03-.14.1Zm-5.55-.13a.1.1 0 0 0 .08.05c.05 0 .07.03.06.1-.08.36-.16.76-.23 1.2-.16.99.83.8 1.27.52a.07.07 0 0 1 .08 0l.03.05a.1.1 0 0 1 0 .05l-.15.7a.07.07 0 0 0 .01.05l.02.02h.81c.04 0 .07-.01.07-.05l.55-2.58.03-.06a.1.1 0 0 1 .06-.02h.12c.04 0 .06.03.05.08l-.47 2.64.01.02.82-.06h.03l.01-.03.54-2.56c.01-.05.04-.08.08-.08h.04c.04-.02.07-.05.08-.1l.12-.53c0-.06 0-.1-.06-.1l-.05-.02c-.06-.01-.08-.05-.07-.12.01-.13.04-.24.06-.34.12-.39-.14-.74-.5-.74l-1.4-.02c-.43 0-.53.5-.61.9l-.06.25a.18.18 0 0 1-.05.09.14.14 0 0 1-.1.03h-1.11c-.04 0-.07.02-.08.07a37.93 37.93 0 0 0-.1.59Zm2.9-.93-.28-.01c-.05 0-.1.04-.1.1v.02c0 .06.04.11.1.11l.28.01c.06 0 .1-.05.1-.1v-.02c0-.06-.04-.11-.1-.11Zm-1.9 1.8.13-.75c.01-.06.05-.09.1-.09h.34c.04 0 .06.02.05.07l-.13.8a.2.2 0 0 1-.06.12.16.16 0 0 1-.1.04h-.18l-.06-.01a.15.15 0 0 1-.05-.05.17.17 0 0 1-.03-.13Zm-1.3-1.52h.07c.04 0 .05.02.05.06l-.12.56c-.01.04-.04.06-.07.06h-.17c-.05 0-.08.03-.09.09l-.42 2.53c0 .03-.01.05-.03.07a.1.1 0 0 1-.06.02h-.78c-.04 0-.05-.02-.04-.06l.46-2.5c.01-.1-.02-.15-.1-.15h-.05c-.06 0-.1.04-.11.1l-.26 1.22c0 .04-.03.06-.06.06h-.87c-.13 0-.2.07-.23.21v.07c-.02.1.01.14.1.14h.93c.03 0 .05.02.04.05l-.14.85c0 .03-.03.05-.06.06-.67.05-1.15 0-1.42-.15-.5-.27-.7-.66-.6-1.16.16-.67.9-.98 1.46-.94.08.01.13-.03.14-.11l.05-.3c0-.06-.02-.1-.08-.1h-.95l-.01-.01.14-.64c0-.03.02-.05.04-.05h.52a.1.1 0 0 0 .06-.02.11.11 0 0 0 .03-.06l.17-.82c.02-.1.07-.18.14-.24s.16-.1.24-.1l1.4-.01c.25 0 .44.06.55.31.06.15.05.34.04.53v.35c.02.05.05.08.1.08Zm-1.32-.3c.05 0 .11.01.16.03.06.03.09.07.09.11 0 .06-.02.09-.07.09a15.63 15.63 0 0 0-.35.01c-.05 0-.07-.02-.08-.08 0-.05.03-.08.08-.11.06-.03.11-.05.17-.05Zm-3.28 3.72.57-2.66c0-.05.03-.07.07-.07h.17c.06 0 .1-.04.11-.1l.1-.51c.02-.07 0-.1-.06-.1h-5.97c-.05 0-.08.03-.09.08l-.1.46v.07l.05.06.05.06v.13c-.05.58-.14 1.15-.27 1.73 0 .05 0 .1.05.12l1.57 1.02h.08a.1.1 0 0 0 .05-.05l.33-.62a.11.11 0 0 0 .01-.07.08.08 0 0 0-.03-.05l-.88-.73a.17.17 0 0 1-.05-.08.19.19 0 0 1 0-.1l.25-1.2a.13.13 0 0 1 .08-.1.64.64 0 0 1 .4-.01c.05 0 .07.04.08.1.02.5-.09.9-.34 1.2-.05.07-.05.13.02.18l.28.24c.1.08.2.07.29-.02.45-.44.7-.98.74-1.62a.1.1 0 0 1 .03-.07.08.08 0 0 1 .06-.02H30.9l.03.03.02.04a.1.1 0 0 1 0 .04l-.1.48c-.02.07-.06.1-.12.1H29.2a.14.14 0 0 0-.1.04.18.18 0 0 0-.05.1l-.13.6c0 .04 0 .09.02.13.15.3.35.5.6.58.04.02.09.02.12 0 .26-.1.4-.27.42-.5 0-.1.06-.15.16-.15h.25c.09 0 .12.05.1.14l-.23 1.1v.02h.01l.01.01h.96c.02 0 .03 0 .03-.03Z" fill="#20A449"/><path d="M10.06 30.15c-.51.02-.98.14-1.4.35-.33-.3-.68-.6-.91-.96a3.88 3.88 0 0 1-.54-3 .06.06 0 0 1 .05-.03l.03.02c.19.18.42.32.7.4.53.18.97.3 1.32.36.05 0 .09.03.12.07a.2.2 0 0 1 .04.13 3.14 3.14 0 0 0 .13 1.25.05.05 0 0 1-.04.03h-.02c-.24-.1-.45-.25-.64-.44-.02-.02-.04-.02-.05 0l-.04.01c-.02.01-.02.03 0 .04.21.3.48.53.78.72a.2.2 0 0 1 .09.1l.38.95Z" fill="#20A449"/><path fill-rule="evenodd" d="M31.81 26h3.77l.02.02a.07.07 0 0 1 .01.06l-.25 1.14c0 .01 0 .02-.02.03a.06.06 0 0 1-.04.02h-1.22l-.04.01a.06.06 0 0 0-.02.04l-.58 2.63c0 .01 0 .03-.02.04a.06.06 0 0 1-.04.01h-1.13a.06.06 0 0 1-.04-.02l-.01-.03v-.03l.44-2.56a.07.07 0 0 0-.01-.05l-.02-.02h-1.05l-.03-.01a.06.06 0 0 1-.03-.05v-.03l.25-1.15.02-.04.04-.01Zm11.4 2.57c-.4.27-.92.3-1.25-.05-.42-.44-.25-1 .24-1.21.43-.2.83-.1 1.18.3l.05.04.05.01h1.49l.02-.02a.05.05 0 0 0 0-.05c-.2-.6-.57-1.03-1.13-1.29a2.76 2.76 0 0 0-3.12.41c-1.2.99-.35 2.68.88 3.11.85.3 1.66.22 2.43-.22.47-.27.77-.64.9-1.1.01-.04 0-.06-.04-.06l-1.54.07a.32.32 0 0 0-.16.06Zm-12.03-2.53H29.9c-.02 0-.03 0-.04.02a.07.07 0 0 0-.03.04l-.34 1.97-.02.04a.07.07 0 0 1-.08.01.07.07 0 0 1-.03-.03l-.96-2a.07.07 0 0 0-.03-.03.07.07 0 0 0-.03-.01H26.9l-.04.01a.08.08 0 0 0-.02.05L26 29.9v.03a.08.08 0 0 0 .04.05h1.33l.04-.01a.08.08 0 0 0 .02-.05l.3-1.65.01-.04a.07.07 0 0 1 .08-.01l.03.03.92 1.7.03.03h1.57a.07.07 0 0 0 .03-.05l.85-3.8a.08.08 0 0 0-.02-.07.07.07 0 0 0-.05-.03Zm5.6 3.11-.13.66c-.03.13-.11.19-.24.19h-.92c-.13 0-.18-.07-.15-.2l.74-3.71c.01-.05.04-.07.09-.07.98 0 1.6-.01 1.88-.02.38-.01.72.06 1 .22.65.38.88.97.66 1.77-.16.62-.66 1.07-1.2 1.09h-1.64c-.04 0-.07.03-.08.07Zm.4-1.87v-.02l.03-.01h.8c.05 0 .1.01.14.03a.4.4 0 0 1 .12.06l.08.09c.02.03.03.07.03.1v.05c0 .08-.04.15-.11.2a.44.44 0 0 1-.27.07h-.8l-.02-.01-.01-.03v-.53Z" fill="#20A449"/><path d="M14.2 33.13a2.6 2.6 0 0 1 .03-1.06c.13-.84.5-1.47 1.1-1.9a6.89 6.89 0 0 1 3.03-1.03c.34-.06.61-.09.81-.1.77-.02 1.35-.1 2.12-.11.66-.01 1.07-.1 1.66-.13a4.94 4.94 0 0 0 1.66-.36c.17-.08.27-.18.41-.27.06-.03.08-.02.08.04l-.03 1.01a7.24 7.24 0 0 1-5.75 6.63c-1.33.3-2.73.15-4.2-.43-.05-.02-.07-.06-.05-.1.22-.64.53-1.1.94-1.42 1.14-.87 2.53-1.22 3.91-1.74.18-.06.35-.14.51-.23.28-.16.73-.38.88-.77.08-.2.04-.23-.13-.11-.5.35-1.03.6-1.61.73-.68.16-1.36.32-2.05.5-.18.04-.37.1-.56.18-1.08.48-1.88.98-2.41 2.06l-.02.02h-.05l-.02-.03-.26-1.38Z" fill="#20A449"/><path d="M10.06 30.15c.2.35.4.68.62.99.04.05.03.07-.03.05l-.32-.08a.32.32 0 0 0-.15 0l-.95.22c-.2.04-.37.05-.52.02-.06 0-.07.01-.03.06.04.05.08.08.13.08h1.53c.29 0 .44.07.68.22a.14.14 0 0 1 .06.13.15.15 0 0 1-.07.12c-.09.05-.2.13-.36.25-.22.18-.5.3-.82.35-1.3.2-2.24-.3-2.82-1.47-.02-.04 0-.06.04-.07a4 4 0 0 0 1.6-.52c.43-.2.9-.33 1.4-.35Z" fill="#8EC63D"/><path fill-rule="evenodd" d="M14.2 33.13a2.6 2.6 0 0 1 .03-1.06 4.9 4.9 0 0 1-.96-1.56c-.02-.07 0-.11.08-.11l1.47-.01c.05 0 .1-.02.14-.06l.22-.3c.09-.11.27-.26.55-.45a.14.14 0 0 0 .06-.12v-1.67c0-.06.03-.09.08-.09h2.36a.08.08 0 0 1 .08.06v.04l-.11.8c-.01.1.03.15.13.13l.32-.05c.03 0 .06-.02.08-.04a.15.15 0 0 0 .04-.08l.12-.82c0-.03.02-.04.04-.04h1.72c.07 0 .1.03.08.1l-.12.7a.04.04 0 0 0 .03.05h.02a.97.97 0 0 1 .47-.06c.03 0 .05 0 .05-.04a5.74 5.74 0 0 0-.82-4.23 5.67 5.67 0 0 0-6.07-2.58 5.93 5.93 0 0 0-.1 11.5Zm3.5-8.72c.05 0 .06-.02.05-.06-.32-.88-.95-1.9-1.85-2.19a.06.06 0 0 0-.05.01.06.06 0 0 0-.03.05v2.13c0 .04.02.06.06.06h1.83Zm-2.58-2.24c-.91.29-1.54 1.3-1.86 2.19-.01.03 0 .05.04.05h1.83c.04 0 .06-.02.06-.06v-2.13a.06.06 0 0 0-.05-.05h-.02Zm2.42.38a5 5 0 0 1 2.19 1.79c.03.05.02.08-.04.08H18.5c-.06 0-.1-.03-.1-.08a5.84 5.84 0 0 0-.9-1.73c-.05-.07-.04-.08.03-.06Zm-4.94 1.79c.19-.6.49-1.17.9-1.72.04-.06.03-.08-.04-.05-.87.36-1.6.95-2.17 1.77-.04.05-.03.08.03.08h1.17c.06 0 .1-.03.11-.08Zm-2.28 2.68c.07-.72.25-1.36.52-1.92a.1.1 0 0 1 .09-.06h1.41l.03.03a.07.07 0 0 1 .01.06 9.1 9.1 0 0 0-.25 1.94.06.06 0 0 1-.05.02h-1.7c-.04 0-.06-.03-.06-.07Zm10.31.06c.05 0 .07-.02.06-.07a5.53 5.53 0 0 0-.52-1.91.1.1 0 0 0-.09-.06H18.7l-.03.01-.02.02a.07.07 0 0 0-.02.06 9.15 9.15 0 0 1 .26 1.94l.05.02h1.7Zm-7.9-.1.26-1.85a.1.1 0 0 1 .03-.06.1.1 0 0 1 .06-.02h2.02a.1.1 0 0 1 .06.02.1.1 0 0 1 .03.07v1.85a.1.1 0 0 1-.03.07.1.1 0 0 1-.06.03h-2.28a.1.1 0 0 1-.07-.04.1.1 0 0 1-.03-.07Zm3.1-1.87v1.9a.07.07 0 0 0 .01.05.06.06 0 0 0 .05.02h2.3c.07 0 .1-.03.1-.11l-.27-1.85a.08.08 0 0 0-.08-.07h-2.05c-.02 0-.03 0-.05.02a.07.07 0 0 0-.01.04Zm-5.5 2.67c-.01-.05 0-.07.05-.07h1.7l.05.02.02.05a9.03 9.03 0 0 0 .23 1.93.07.07 0 0 1-.04.05h-1.42c-.04 0-.07-.02-.09-.05a5.58 5.58 0 0 1-.5-1.93Zm4.86 1.88v-1.84a.11.11 0 0 0-.03-.08.1.1 0 0 0-.08-.03h-2.25a.1.1 0 0 0-.1.08v.04l.26 1.84c0 .03.01.05.03.07a.1.1 0 0 0 .07.03h2a.1.1 0 0 0 .07-.03.11.11 0 0 0 .03-.08Zm-1.7 2.54c.05.06.04.08-.03.05a4.97 4.97 0 0 1-2.17-1.78c-.03-.05-.02-.07.04-.07h1.17c.05 0 .09.02.1.08.2.6.49 1.17.9 1.72ZM35.21 31.73l.06-.34c0-.02.02-.04.04-.04h.96c.05 0 .07-.02.07-.06l.01-.24v-.02l-.01-.02h-.02L36.3 31h-1.37c-.03 0-.05.02-.05.05l-.3 1.86v.03c0 .02.01.03.02.03l.03.02a.1.1 0 0 0 .04.01l1.4-.01c.05 0 .08-.03.09-.07l.02-.24c0-.04-.02-.07-.07-.07l-.92.02a.1.1 0 0 1-.04-.01.1.1 0 0 1-.04-.02l-.02-.03v-.04l.04-.28c0-.06.04-.1.11-.1l.84.01c.05 0 .08-.02.08-.06l.03-.29c0-.03 0-.05-.05-.05l-.89.01c-.03 0-.04-.01-.04-.04Zm3.5.1-.05.3-.01.02a.06.06 0 0 1-.04.02H37.67a.05.05 0 0 0-.02.04l-.06.36v.02l.02.02a.06.06 0 0 0 .04.02h1a.06.06 0 0 1 .03.01.05.05 0 0 1 .02.04l-.05.28c0 .01 0 .02-.02.03a.06.06 0 0 1-.03.01h-1.46a.06.06 0 0 1-.04-.02l-.01-.02v-.02l.3-1.9c0-.01 0-.02.02-.03l.03-.01h1.41l.02.02a.05.05 0 0 1 .01.04l-.04.25c0 .01 0 .02-.02.03a.06.06 0 0 1-.03.01h-.96l-.03.01a.05.05 0 0 0-.02.03l-.05.32v.02l.01.02.02.02h.9a.06.06 0 0 1 .04.02l.01.02v.02Zm-8.02.45v-.04l-.03-.01-.03-.01H30.3l-.02-.02v-.04l.06-.24c.01-.04.05-.06.1-.06h.66c.05 0 .08.02.07.07l-.14.85c0 .04-.03.06-.06.07-.72.22-1.61.29-1.92-.4-.08-.2-.07-.42.05-.68.3-.7 1.31-1 2.06-.59v.01a.03.03 0 0 1 .02.03l-.01.01-.22.26c-.03.03-.07.04-.12.01a.95.95 0 0 0-.82-.09c-.83.25-.7 1.54.53 1.18.05-.01.08-.04.1-.08l.05-.23Zm9.89-.2a34.51 34.51 0 0 0-.26-.43h-.02l-.02.01a.14.14 0 0 0-.05.1l-.2 1.16c0 .05-.03.08-.1.08h-.27c-.06 0-.09-.03-.08-.08l.3-1.85c0-.04.04-.06.09-.06l.5-.01c.02 0 .05.02.08.07a13.59 13.59 0 0 1 .67 1.26l.02.01a.05.05 0 0 0 .04 0h.02a.14.14 0 0 0 .05-.1l.2-1.16c0-.05.04-.08.1-.08h.27c.06 0 .09.03.08.08l-.3 1.85c0 .04-.04.06-.09.06l-.5.01c-.02 0-.04-.02-.08-.07-.04-.06-.2-.34-.45-.84Zm-7.25.16.39.7c.02.04 0 .06-.03.06h-.41c-.03 0-.05 0-.07-.02a.11.11 0 0 1-.05-.05l-.28-.68a.15.15 0 0 0-.06-.07.18.18 0 0 0-.17-.02.16.16 0 0 0-.06.06c-.1.12-.1.35-.11.54l-.01.12c0 .08-.05.12-.14.12h-.25c-.07 0-.1-.03-.09-.1l.3-1.83c0-.02 0-.03.02-.04a8.6 8.6 0 0 0 .31-.02c.63-.02 1.5-.05 1.25.68-.08.2-.24.35-.5.43a.1.1 0 0 0-.03.02.08.08 0 0 0-.02.03.08.08 0 0 0 0 .07Zm-.68-.89a.03.03 0 0 1 .01-.02.03.03 0 0 1 .02 0h.44c.08 0 .15.02.2.06.06.04.09.1.09.15v.1c0 .02 0 .05-.02.07a.22.22 0 0 1-.07.07.32.32 0 0 1-.1.05.4.4 0 0 1-.1.01h-.44l-.02-.01-.01-.02v-.46Z" fill="#8EC63D"/></svg>