<!-- by TradingView --><svg width="56" height="56" viewBox="0 0 56 56" xmlns="http://www.w3.org/2000/svg"><path fill="#F0F3FA" d="M0 0h56v56H0z"/><path d="M28 18h-.04C15.83 18 6 22.48 6 28s9.83 10 21.96 10H28V18Z" fill="#000F2A"/><path d="M28 18h.04C40.17 18 50 22.48 50 28s-9.83 10-21.96 10H28V18Z" fill="#436EB2"/><path d="M19 23.23c0-1.21 1.62-1.69 2.32-.68L26 29.22V23c0-.55.39-1 .96-1 .58 0 1.04.45 1.04 1v8.76c0 1.22-1.64 1.7-2.34.69L21 25.8V32c0 .55-.39 1-.96 1-.58 0-1.04-.45-1.04-1v-8.77Z" fill="#fff"/><path d="M31.06 23a4.13 4.13 0 0 1 3.56 2.12c.25.4.02.9-.43 1.07-.44.16-.94-.07-1.22-.45a2.33 2.33 0 0 0-1.9-1.03c-1.75 0-2.07 1.27-2.07 2.79 0 1.4.57 2.79 2.06 2.79 1.06 0 1.84-.45 2.22-.76v-.82h-1.11a.86.86 0 0 1-.86-.85c0-.48.38-.86.86-.86h2.17c.37 0 .66.3.66.65v2.54A5.12 5.12 0 0 1 31.06 32C28.63 32 27 30.06 27 27.72c0-2.46 1.34-4.72 4.06-4.72Z" fill="#fff"/></svg>