<!-- by TradingView --><svg width="56" height="56" viewBox="0 0 56 56" xmlns="http://www.w3.org/2000/svg"><path fill="#F0F3FA" d="M0 0h56v56H0z"/><path d="M26.72 20c-.98 0-1.77.4-2.04.6 3.3.79 4.18 1.9 4.57 3.56-2.16-2.74-4.43-2.86-5.25-2.74.1.32.56 1.08 1.62 1.51 2.96 1.01 3.65 3.13 3.63 4.07.58-.46 1.75-1.75 1.75-3.18 0-2.5-3.05-3.82-4.28-3.82ZM27.52 12c3.49 0 5.77 2.97 6.48 4.45a14 14 0 0 0-5.91-1.12c-2.53 0-4.8 1.27-5.61 1.9.69-.26 2.58-.78 4.56-.78 2.5 0 5.38.98 6.66 1.5-1.11 1.11-2.62 1.36-3.93 1.36S27.85 19 25.9 19c-3.53 0-6.05 1.05-6.89 2-.3-5.77 4.14-9 8.5-9Z" fill="#A4CB53"/><path d="M45.5 31.22c.1.76.8 1.28 1.62 1.28.49 0 .92-.17 1.26-.47l.37.38c-.4.37-.98.59-1.62.59-1.23 0-2.13-.81-2.13-2.02 0-1.17.84-1.98 2.08-1.98 1.28 0 1.92.86 1.92 1.74 0 .1-.02.31-.06.48H45.5Zm0-.52h3c0-.63-.6-1.2-1.43-1.2-.78 0-1.46.49-1.57 1.2ZM43 33v-6h.5v6H43ZM29.06 33c-1.18 0-2.06-.83-2.06-2s.89-2 2.06-2c.6 0 1.13.2 1.5.56l-.42.37a1.41 1.41 0 0 0-1.08-.43c-.85 0-1.56.63-1.56 1.5 0 .86.7 1.5 1.57 1.5.43 0 .81-.14 1.1-.46l.4.37c-.37.38-.9.59-1.5.59ZM40.06 33c-1.18 0-2.06-.83-2.06-2s.89-2 2.06-2c.6 0 1.13.2 1.5.56l-.42.37a1.41 1.41 0 0 0-1.08-.43c-.85 0-1.56.63-1.56 1.5 0 .86.7 1.5 1.57 1.5.43 0 .81-.14 1.1-.46l.4.37c-.37.38-.9.59-1.5.59ZM25.4 28.83a.42.42 0 0 1-.4-.41c0-.23.18-.42.4-.42.23 0 .42.19.42.42 0 .23-.19.41-.41.41Zm.1.69V33H25v-3.48h.5ZM32.4 28.83a.42.42 0 0 1-.4-.41c0-.23.18-.42.4-.42.23 0 .42.19.42.42 0 .23-.19.41-.41.41Zm0 .69V33H32v-3.48h.4ZM22.55 29c.16 0 .31.03.45.09l-.17.55a.95.95 0 0 0-.36-.08c-.5 0-.97.45-.97 1.24V33H21v-4h.43l.04.79c.22-.5.6-.79 1.08-.79ZM36.55 29c.16 0 .31.03.45.09l-.17.55a.95.95 0 0 0-.36-.08c-.5 0-.97.45-.97 1.24V33H35v-4h.43l.04.79c.22-.5.6-.79 1.08-.79ZM18.99 32.18l.26.45c-.2.2-.52.37-1 .37-.8 0-1.25-.45-1.25-1.32v-2.17h-.75V29H17v-1h.5v1h1.49v.51H17.5v2.17c0 .53.27.82.74.82a1 1 0 0 0 .75-.32ZM14.5 29h.5v4h-.45l-.04-.72c-.22.45-.62.72-1.12.72-.78 0-1.39-.63-1.39-1.6V29h.5v2.4c0 .67.48 1.04.98 1.04.52 0 1.02-.42 1.02-1.15V29ZM8.63 29c.78 0 1.37.63 1.37 1.6V33h-.5v-2.34c0-.64-.37-1.1-.93-1.1-.53 0-1.07.4-1.07 1.15V33H7v-4h.43l.04.73c.23-.45.65-.73 1.16-.73Z"/><path d="M41 27h-2.09c-.96-8.55-6.05-10.06-9.91-11 8.38.18 11.5 7.4 12 11ZM16 27h1.43c.7-4.77 4.8-5.84 7.57-5.94A8.11 8.11 0 0 0 16 27ZM15 34a13.9 13.9 0 0 0 26 0h-3.84A11.31 11.31 0 0 1 28 38.5c-3.75 0-7.07-1.7-9.16-4.5H15Z" fill="#A4CB53"/></svg>