<!-- by TradingView --><svg width="56" height="56" viewBox="0 0 56 56" xmlns="http://www.w3.org/2000/svg"><path fill="#FEF250" d="M0 0h56v56H0z"/><path d="M39.37 19H31.2A12.18 12.18 0 0 0 25 16h14.24A6.63 6.63 0 0 1 46 22.5a6.44 6.44 0 0 1-3.16 5.5A6.44 6.44 0 0 1 46 33.5c0 3.59-3.03 6.5-6.76 6.5H25c2.38-.4 4.52-1.47 6.2-3h8.17c2 0 3.63-1.57 3.63-3.5S41.18 30 39.18 30H35v-4h4.18c2 0 3.82-1.57 3.82-3.5S41.38 19 39.37 19Z" fill="#00050A"/><path d="M24 19.02v.94a9.02 9.02 0 0 1 4.78 6.06h3.06a11.98 11.98 0 0 0-3.87-7H24Zm7.83 11h-3.05A9.02 9.02 0 0 1 24 36.1v.93h3.9a11.98 11.98 0 0 0 3.93-7ZM20 16c.34 0 .67.01 1 .04v3.04a9 9 0 1 0 0 17.89v2.99A12 12 0 1 1 20 16Z" fill="#00050A"/></svg>