<!-- by TradingView --><svg width="56" height="56" viewBox="0 0 56 56" xmlns="http://www.w3.org/2000/svg"><path fill="#F0F3FA" d="M0 0h56v56H0z"/><path d="M10.29 17.1h-.02a.1.1 0 0 1 0-.04l.01-.03.02-.02.03-.01h35.03l.01.02c-.02 2.18 1.23 4.41 3.51 4.41.01 0 .02 0 .03-.02v-.02a.1.1 0 0 1 .07.02l.02.05v13.59h-.01a3.45 3.45 0 0 0-3.62 3.5l-.02.02a.05.05 0 0 0-.01.04v.15l.01.04c.05.06.04.12-.01.18a.05.05 0 0 1-.04.02H10.29c-.01-2.07-1.11-3.93-3.27-4.05-.01 0-.02-.01-.02-.03V21.36a.03.03 0 0 1 .01-.02.02.02 0 0 1 .02 0c.05 0 .08 0 .1-.03 0-.02.02-.03.03-.03 1.96 0 3.19-2.38 3.14-4.15l-.01-.02Z" fill="#72869E"/><path d="M23.82 33.45c.18-.08.18-1.1.18-1.46V30h3.99c.01.97 0 1.36-.03 1.94-.03.6-.15 1.18-.34 1.74-.47 1.35-1.7 2.18-3.36 2.3-.92.06-1.79.02-2.6-.13a2.7 2.7 0 0 1-1.38-.69A3.45 3.45 0 0 1 19.14 33c-.12-.98-.14-1.9-.14-2.89l.01-5.46c-.02-.93.11-1.97.6-2.84.95-1.65 3.07-1.95 5.03-1.75.77.08 1.43.24 1.98.7 1.07.9 1.3 2.23 1.35 3.45.03.7.04 1.11.02 1.79H24v-2.7c0-.41-.05-.9-.5-.84-.5.08-.5.99-.5 1.43v8.45c0 .6.2 1.4.82 1.11ZM33.82 33.44c.18-.08.18-1.1.18-1.45v-2h3.99c.01.97 0 1.36-.03 1.94-.03.6-.15 1.19-.34 1.74-.47 1.36-1.7 2.18-3.36 2.3-.92.06-1.79.02-2.6-.12a2.7 2.7 0 0 1-1.38-.7A3.45 3.45 0 0 1 29.14 33c-.12-.98-.14-1.9-.14-2.88l.01-5.46c-.02-.94.11-1.98.6-2.84.95-1.65 3.07-1.96 5.03-1.76.77.08 1.43.25 1.98.7 1.07.91 1.3 2.24 1.35 3.46.03.7.04 1.1.02 1.79H34v-2.7c0-.42-.05-.9-.5-.84-.5.07-.5.98-.5 1.43v8.45c0 .6.2 1.39.82 1.1ZM46 33v3H39.01l-.01-.02V20.02h.03V20h.01L43 20v.02H43V33h3Z" fill="#FFD648"/><path fill-rule="evenodd" d="M16.96 34.87c.32-.35.56-.73.7-1.15.16-.47.25-.95.27-1.46.07-1.58.07-2.64.07-4.4v-1.64c0-.94-.02-1.82-.08-2.64a4.78 4.78 0 0 0-.34-1.63 3 3 0 0 0-2.01-1.7 8.3 8.3 0 0 0-2.79-.22c-.92.06-1.9.3-2.54.86-.45.39-.76.86-.94 1.42-.13.39-.2.78-.22 1.17-.05.88-.08 1.77-.08 2.66v3.99c0 .9.03 1.63.07 2.16.05.82.17 1.49.63 2.16.74 1.1 2.06 1.5 3.5 1.55 1.35.04 2.9-.18 3.76-1.13Zm-3.19-1.46c.18-.34.23-.82.23-1.2v-8.8c0-.26-.03-.5-.07-.71-.05-.26-.2-.38-.44-.37-.25 0-.36.2-.4.44-.08.52-.09 1.07-.09 1.61v7.8c0 .28.01.55.04.8.02.17.05.3.1.4.12.29.49.32.63.03Z" fill="#FFD648"/></svg>