<!-- by TradingView --><svg width="56" height="56" viewBox="0 0 56 56" xmlns="http://www.w3.org/2000/svg"><path fill="#F0F3FA" d="M0 0h56v56H0z"/><path d="M31.46 28A4 4 0 1 0 28 30h4v-2h-.54Z" fill="#8A3130"/><path d="M29.66 36.2c-.7.09-1.43.13-2.16.13-10.77 0-19.5-9.45-19.5-9.45S16.73 16 27.5 16 47 26.88 47 26.88l-.11.12h-9.96c.05-.33.07-.66.07-1 0-4.42-4.03-8-9-8s-9 3.58-9 8 4.03 8 9 8c2.09 0 4-.63 5.53-1.7l2.38-2.39L37 31 23.09 45 22 43.91l7.66-7.7Z" fill="#8A3130"/><path d="M40.37 29 26.39 42.92 27.5 44 41 30.55V32h2v-1.59h2V32h2v-1.59h1V29h-7.63Z" fill="#8A3130"/></svg>