<!-- by TradingView --><svg width="56" height="56" viewBox="0 0 56 56" xmlns="http://www.w3.org/2000/svg"><path fill="#F0F3FA" d="M0 0h56v56H0z"/><path d="M42.96 40.64A2.37 2.37 0 0 1 40.58 43l-25.22-.04A2.37 2.37 0 0 1 13 40.58l.04-25.22A2.37 2.37 0 0 1 15.42 13l25.22.04A2.37 2.37 0 0 1 43 15.42l-.04 25.22Z" fill="#ED1D25"/><path d="M34.18 19.8c0 .12.03.14.12.04.8-.92 1.64-1.86 2.5-2.8.71-.81 1.54-1.3 2.7-.89 1.32.5 1.6 2.01.77 3.04a75.2 75.2 0 0 1-2.51 2.93.3.3 0 0 0 .02.42c.78.75 1.52 1.48 2.22 2.2.66.68 1 1.47 1 2.38 0 .75-.54 1.54-1.33 1.7-.83.17-1.48.09-1.97-.24a11.25 11.25 0 0 1-3.26-3.13.14.14 0 0 0-.13 0 .13.13 0 0 0-.05.04.39.39 0 0 0-.07.22c-.01.87.09 2-.63 2.68a2 2 0 0 1-2.16.48c-1.3-.42-1.4-1.48-1.4-2.6v-7.8c0-.3.04-.62.1-.94.26-1.33 1.78-1.86 2.98-1.27.64.31 1 .88 1.06 1.7.04.63.05 1.24.04 1.84ZM24.2 16.45c-2.58-.84-5.8-.58-7.64 1.47-1.5 1.66-1.8 4.1-1.39 6.27a5.5 5.5 0 0 0 3.74 4.4c1.27.42 2.6.51 3.98.3 2.51-.4 4.1-1.77 4.78-4.1.85-2.94.18-7.14-3.47-8.34Zm-2.86 4.13h.34c.97 0 1.75.74 1.74 1.63v.6c-.01.9-.8 1.63-1.77 1.62h-.34c-.97-.01-1.75-.74-1.74-1.64v-.6c0-.9.8-1.62 1.77-1.61ZM24.43 37.47c.5-.02 1-.01 1.5 0 .4.01.67.15.84.43.47.77.23 2.05-.85 2.08-.82.03-1.72.03-2.7 0-.74-.02-1.17-.64-1.19-1.35a169.2 169.2 0 0 1 0-6.24c0-.57.22-.99.62-1.25.52-.32 1.21-.07 1.47.49.12.27.18.59.19.94v4.78c0 .08.04.12.12.12ZM37.44 33.48l.03.03h.08l.02-.03c.32-.6.68-1.21 1.08-1.84.45-.7 1.4-.9 2-.25.48.53.43 1.21.08 1.8-.58 1-1.27 1.94-1.81 2.82-.11.18-.17.38-.16.58 0 .69 0 1.36-.03 2.03-.03.62-.2 1.04-.72 1.27a1.17 1.17 0 0 1-1.57-.6c-.12-.31-.18-.66-.18-1.04v-1.73c0-.18-.06-.37-.16-.53-.68-1.05-1.37-2.01-1.86-2.89-.36-.64-.32-1.22.14-1.71.4-.43 1.25-.54 1.7-.08.18.19.34.39.47.6.32.55.62 1.07.89 1.57Z" fill="#FFE500"/><path fill-rule="evenodd" d="M17.45 36.88a.1.1 0 0 1 .04 0c1.5.1 2.82-.13 3.32-1.75.25-.8.25-1.61.01-2.43a2.15 2.15 0 0 0-2.11-1.66c-.72-.04-1.5-.05-2.35-.02-1.08.03-1.35.79-1.36 1.7v5.5c0 .43.07.8.19 1.12.21.53.95.85 1.5.54.4-.23.63-.6.67-1.12a16.33 16.33 0 0 0 .03-1.82.1.1 0 0 1 .06-.06Zm-.03-3.47a.1.1 0 0 0-.03.08l.01.93a.1.1 0 0 0 .11.1h.54c.16 0 .3-.07.4-.17.11-.1.17-.24.17-.39v-.06a.52.52 0 0 0-.18-.38.57.57 0 0 0-.4-.15h-.55a.1.1 0 0 0-.07.04ZM30.06 39.05a.14.14 0 0 1 .08-.03h2.87a.2.2 0 0 1 .1.03c.04.02.06.05.07.08l.05.13c.12.3.24.63.62.7 1.28.25 2.05-.88 1.65-1.96-.71-1.93-1.43-3.84-2.16-5.72-.43-1.13-1.49-1.6-2.69-1.04-.43.2-.69.72-.85 1.13-.64 1.68-1.3 3.47-2 5.35-.26.73-.33 1.4.23 1.92.4.35.87.45 1.41.28.33-.1.45-.46.55-.75l.02-.06c.01-.03.03-.05.05-.06Zm1.59-3.84-.35 1.13a.05.05 0 0 0 0 .05l.03.01h.72a.05.05 0 0 0 .04-.01v-.05l-.34-1.13c0-.01 0-.02-.02-.03l-.03-.01h-.03l-.02.04Z" fill="#FFE500"/></svg>