<!-- by TradingView --><svg width="56" height="56" viewBox="0 0 56 56" xmlns="http://www.w3.org/2000/svg"><path fill="#F0F3FA" d="M0 0h56v56H0z"/><path d="M29.75 43.91A16.08 16.08 0 0 1 12 27.9c0-2.05.67-4.42 1.37-6.22.44 4.7 3.08 13.26 12.03 13.26 6.82 0 10.2-4.24 10.92-6.05.34 1.12.6 2.86.6 3.92 0 1.82-1.49 8.12-7.17 11.11Z" fill="#8CC63F"/><path d="M36.63 34.8a16.48 16.48 0 0 1-8.58 2.44c-4.65 0-7.6-2.35-8.9-4.02a11.4 11.4 0 0 0 6.25 1.7c6.82 0 10.21-4.23 10.93-6.04.34 1.12.6 2.86.6 3.92 0 .44-.09 1.14-.3 2Z" fill="#709D2D"/><path d="M29.72 43.91h.03c5.68-3 7.18-9.3 7.18-11.1 0-1.07-.26-2.81-.6-3.94A9.06 9.06 0 0 1 33.84 32c.33.5.77 1.4.77 2.37 0 1.44-1.53 7.28-4.8 9.47l-.1.07Z" fill="#709D2D"/><path d="M36.32 28.87c.34 1.12.6 2.87.6 3.93 0 .44-.08 1.14-.3 2-.64.4-1.4.8-2.24 1.15.16-.7.24-1.25.24-1.58 0-.97-.44-1.88-.77-2.37a9.02 9.02 0 0 0 2.47-3.13Z" fill="#597C23"/><path d="M13.36 21.6a16.01 16.01 0 0 1 22.68-7.46 18.97 18.97 0 0 1 4.84 4.24c-4.27-1.95-13.13-3.87-17.6 3.92-3.4 5.94-1.38 10.96-.17 12.49a16.12 16.12 0 0 1-3.73-1.4c-1.57-.9-6.26-5.35-6.02-11.78Z" fill="url(#a5vj0kkmp)"/><path d="M17.81 32.14c-.07-2.34.36-5.55 2.16-8.69 2.31-4.04 5.82-5.44 7.91-5.74a11.45 11.45 0 0 0-4.6 4.59c-3.4 5.94-1.38 10.96-.17 12.49a16.12 16.12 0 0 1-3.73-1.4 8.81 8.81 0 0 1-1.57-1.25Z" fill="#B45617"/><path d="M13.37 21.58v.03c-.25 6.43 4.44 10.88 6.01 11.78.92.53 2.59 1.13 3.73 1.4a8.8 8.8 0 0 1-1.5-3.67 4.5 4.5 0 0 1-2.43-.51c-1.24-.72-5.54-4.97-5.8-8.9v-.13Z" fill="#B1541E"/><path d="M17.93 29.6c-.11.92-.14 1.78-.12 2.54a9.1 9.1 0 0 0 1.57 1.25c.92.53 2.59 1.13 3.73 1.4a8.81 8.81 0 0 1-1.5-3.67 4.5 4.5 0 0 1-2.43-.51 7.82 7.82 0 0 1-1.25-1Z" fill="#7B3A12"/><path d="M40.93 18.43a16.14 16.14 0 0 1-4.96 23.43 19.42 19.42 0 0 1-6.2 2.01c3.82-2.73 10.04-9.4 5.58-17.17-3.41-5.94-8.75-6.71-10.67-6.43.8-.86 2.16-2 3.07-2.54 1.57-.9 7.76-2.75 13.18.7Z" fill="url(#b5vj0kkmp)"/><path d="M29.62 17c2.05 1.11 4.6 3.1 6.4 6.24a11.4 11.4 0 0 1 .81 9.88c.09-1.97-.21-4.21-1.48-6.42-3.41-5.94-8.75-6.71-10.67-6.43.78-1.07 2.16-2 3.07-2.54a8.8 8.8 0 0 1 1.87-.73Z" fill="#AE8B07"/><path d="m40.94 18.45-.01-.02c-5.42-3.45-11.61-1.6-13.18-.7-.91.53-2.27 1.68-3.07 2.54a8.73 8.73 0 0 1 3.92.54c.26-.53.82-1.37 1.66-1.85 1.24-.72 7.05-2.31 10.57-.56l.11.05Z" fill="#CAA111"/><path d="M31.74 18.38A16.49 16.49 0 0 0 29.62 17a9.08 9.08 0 0 0-1.87.73c-.91.53-2.32 1.47-3.07 2.54a8.73 8.73 0 0 1 3.92.54c.26-.53.82-1.37 1.66-1.85.28-.17.8-.38 1.48-.58Z" fill="#958039"/><defs><linearGradient id="a5vj0kkmp" x1="37.86" y1="15.85" x2="15.15" y2="26.29" gradientUnits="userSpaceOnUse"><stop stop-color="#F69453"/><stop offset="1" stop-color="#E76F24"/></linearGradient><linearGradient id="b5vj0kkmp" x1="30.98" y1="16.41" x2="37" y2="41.99" gradientUnits="userSpaceOnUse"><stop stop-color="#FFC905"/><stop offset="1" stop-color="#FBB313"/></linearGradient></defs></svg>