<!-- by TradingView --><svg width="56" height="56" viewBox="0 0 56 56" xmlns="http://www.w3.org/2000/svg"><path fill="#F0F3FA" d="M0 0h56v56H0z"/><path d="m16.03 21.62.52.04c.2.01.36.2.32.4a.35.35 0 0 1-.08.17c-.7.8-1.64 1.3-2.12 2.22a4.27 4.27 0 0 1-2.65 2.16.34.34 0 0 1-.44-.28c-.1-.8 1.06-1.72 1.67-2.01.16-.08.17-.3.03-.4a1.75 1.75 0 0 1-.45-.4c-.12-.15-.1-.28.05-.39l1.39-1c.19-.15.18-.28-.02-.4l-.34-.21c-.19-.12-.22-.26-.1-.44A4.7 4.7 0 0 1 17.54 19c.2-.01.3.08.25.28-.21 1.01-1.06 1.45-1.84 2-.29.2-.25.31.1.34ZM11.04 21.17c-.1.95.26 1.77.82 1.83.56.06 1.1-.66 1.2-1.61.1-.95-.26-1.77-.82-1.83-.56-.06-1.1.66-1.2 1.61ZM9.29 24.24c.38.83 1.13 1.3 1.69 1.06.55-.25.7-1.11.32-1.94-.38-.83-1.13-1.3-1.69-1.05-.55.24-.7 1.1-.32 1.93ZM8.48 24.81l2.6 1.68c.27.17.33.54.14.79l-.3.41a.58.58 0 0 1-.79.13L8.25 26.5a.56.56 0 0 1-.17-.2l-.4-.78c-.26-.49.33-1 .8-.7ZM11.96 28.57c-.18-.15-.1-.35.02-.5a8.82 8.82 0 0 1 1.65-1.55c.51-.35.9-.46 1.09-.3l.13.1c.18.15.14.55-.12 1.1a8.7 8.7 0 0 1-1.25 1.88c-.13.15-.33.25-.5.1l-1.02-.83ZM9.33 29.2c1.28.42 2.43.47 2.55.1.12-.36-.82-.99-2.1-1.41-1.3-.42-2.44-.47-2.56-.1-.12.36.82.99 2.1 1.4ZM15.6 30.52l-.64.83c-.2.27-.62.3-.86.05l-.5-.5a.56.56 0 0 1-.04-.76l1.35-1.53c.37-.42 1.1-.08 1 .47l-.2 1.2a.56.56 0 0 1-.11.24Z" fill="#027CCA"/><path d="M18.22 34.68c-1.15.26-4.15.63-4.37-1.05-.02-.15-.1-.23-.24-.25a8.7 8.7 0 0 1-2.7-.89c-.16-.07-.21-.19-.15-.35l.16-.52c.07-.2 0-.3-.22-.31-1-.03-1.78-.42-2.38-1.19-.11-.15 0-.38.19-.38 1.4-.06 2.73.15 4.01.63.25.1.41.35.39.6l-.06.6c-.01.1.03.18.14.21.47.16.99.24 1.55.24.3 0 .55.07.76.2.36.24.4.58.14 1.02-.1.18-.05.27.15.27l2.59.06c.14 0 .25.05.34.15.16.17.26.39.32.64.02.14.11.23.26.27.52.11 1.08.05 1.67-.2a2.3 2.3 0 0 1 1.4-.03c.16.04.29.12.38.25.27.4 0 .85-.43.97-.36.1-.57.36-.95.4-1.2.13-2.43.16-3.7.1a.23.23 0 0 1-.2-.3c.11-.42.46-.7 1.03-.88.1-.02.06-.3-.08-.26Z" fill="#027CCA"/><path d="M16.1 31.38c-.05.93.38 1.7.94 1.72.56.02 1.04-.71 1.08-1.64.04-.93-.39-1.7-.95-1.72-.55-.02-1.04.71-1.08 1.64ZM19.76 31.1l1.4 1.26c.17.15.24.4.16.61l-.31.9a.6.6 0 0 1-.93.26L19 33.27a.58.58 0 0 1-.2-.43l-.04-1.3c-.02-.5.6-.79.99-.45ZM22.4 32.48l2.96.78c.08.02.15.06.2.12l.8.74c.3.28.08.8-.34.8l-2.24-.02a.48.48 0 0 1-.33-.14l-1.5-1.51c-.33-.33 0-.89.45-.77ZM24.18 36.98c1.56-.1 2.8-.52 2.77-.94-.03-.42-1.31-.68-2.87-.58-1.55.1-2.8.52-2.76.94.02.42 1.3.68 2.86.58ZM39.96 21.62l-.51.04c-.2.01-.36.2-.33.4.02.06.04.12.09.17.7.8 1.63 1.3 2.12 2.22a4.27 4.27 0 0 0 2.65 2.16c.05.02.1.02.15.01a.34.34 0 0 0 .3-.29c.09-.8-1.07-1.72-1.68-2.01a.23.23 0 0 1-.03-.4c.18-.1.33-.24.45-.4.11-.15.1-.28-.05-.39l-1.39-1c-.2-.15-.18-.28.02-.4l.34-.21c.19-.12.22-.26.1-.44A4.7 4.7 0 0 0 38.46 19c-.21-.01-.3.08-.25.28.2 1.01 1.06 1.45 1.84 2 .29.2.25.31-.1.34ZM44.96 21.17c.1.95-.26 1.77-.82 1.83-.56.06-1.1-.66-1.2-1.61-.1-.95.26-1.77.82-1.83.56-.06 1.1.66 1.2 1.61ZM46.71 24.24c-.38.83-1.13 1.3-1.69 1.06-.55-.25-.7-1.11-.32-1.94.38-.83 1.13-1.3 1.69-1.05.55.24.7 1.1.32 1.93ZM47.52 24.81l-2.6 1.68a.55.55 0 0 0-.14.79l.3.41c.19.24.54.3.79.13l1.88-1.32a.56.56 0 0 0 .17-.2l.4-.78c.26-.49-.33-1-.8-.7ZM44.04 28.57c.18-.15.1-.35-.02-.5a8.82 8.82 0 0 0-1.65-1.55c-.51-.35-.9-.46-1.09-.3l-.13.1c-.18.15-.14.55.12 1.1.25.56.7 1.24 1.25 1.88.13.15.33.25.5.1l1.02-.83ZM46.67 29.2c-1.28.42-2.43.47-2.55.1-.12-.36.82-.99 2.1-1.41 1.3-.42 2.44-.47 2.56-.1.12.36-.82.99-2.1 1.4ZM40.4 30.52l.64.83c.2.27.62.3.86.05l.5-.5c.22-.2.23-.54.04-.76l-1.35-1.53c-.37-.42-1.1-.08-1 .47l.2 1.2c.02.08.06.17.11.24Z" fill="#027CCA"/><path d="M37.78 34.68c1.15.26 4.15.63 4.37-1.05.02-.15.1-.23.24-.25a8.7 8.7 0 0 0 2.7-.89c.16-.07.21-.19.15-.35l-.16-.52c-.07-.2 0-.3.22-.31 1-.03 1.78-.42 2.38-1.19.11-.15 0-.38-.19-.38-1.4-.06-2.73.15-4.01.63a.6.6 0 0 0-.39.6l.06.6c.01.1-.03.18-.14.21-.47.16-.99.24-1.55.24-.3 0-.55.07-.76.2-.36.24-.4.58-.14 1.02.1.18.05.27-.15.27l-2.59.06a.45.45 0 0 0-.34.15c-.16.17-.26.39-.32.64-.02.14-.11.23-.26.27-.52.11-1.08.05-1.67-.2a2.3 2.3 0 0 0-1.4-.03.63.63 0 0 0-.38.25c-.27.4 0 .85.43.97.36.1.57.36.95.4 1.2.13 2.43.16 3.7.1.15-.01.25-.16.2-.3-.11-.42-.46-.7-1.03-.88-.1-.02-.06-.3.08-.26Z" fill="#027CCA"/><path d="M39.9 31.38c.05.93-.38 1.7-.94 1.72-.56.02-1.04-.71-1.08-1.64-.04-.93.39-1.7.95-1.72.55-.02 1.04.71 1.08 1.64ZM36.24 31.1l-1.4 1.26a.58.58 0 0 0-.16.61l.31.9c.14.38.63.51.93.26l1.07-.86c.13-.1.2-.26.2-.43l.04-1.3c.02-.5-.6-.79-.99-.45ZM33.6 32.48l-2.96.78a.47.47 0 0 0-.2.12l-.8.74c-.3.28-.08.8.34.8l2.24-.02c.12 0 .24-.05.33-.14l1.5-1.51c.33-.33 0-.89-.45-.77ZM31.82 36.98c-1.56-.1-2.8-.52-2.77-.94.03-.42 1.31-.68 2.87-.58 1.55.1 2.8.52 2.76.94-.02.42-1.3.68-2.86.58Z" fill="#027CCA"/><circle cx="28" cy="35" r="1" fill="#027CCA"/><path d="M32 29.75c.2-.03.35-.1.43-.2.12-.14.21-.45.3-.93l1.07-6.78a46 46 0 0 0 .1-.91c0-.25-.05-.42-.15-.52-.1-.1-.27-.15-.53-.16V20h2.4v.25c-.23.03-.4.1-.5.2-.19.16-.31.47-.38.93l-1.08 6.78-.08.58-.01.1v.09c0 .12.02.22.07.3.04.07.12.12.21.16l.33.05h.42c.6 0 1.06-.13 1.37-.4.31-.29.6-.9.86-1.88l.17.1-.5 2.74H32v-.25ZM29 29.75c.24-.03.4-.1.5-.2.13-.14.25-.45.33-.93l1.25-6.78.1-.57.02-.34c0-.25-.05-.41-.16-.5-.1-.1-.3-.16-.56-.18V20H33v.25c-.27.05-.45.14-.56.26-.1.11-.19.4-.27.87l-1.25 6.78a12.38 12.38 0 0 0-.12.94c0 .25.06.42.17.5.12.09.3.14.52.15V30H29v-.25Z" fill="#027CCA"/><path d="M26.24 29.5c.83 0 1.53-.88 2.1-2.64.45-1.42.68-2.73.68-3.95 0-.75-.1-1.33-.3-1.75-.21-.43-.53-.64-.94-.64-.8 0-1.49.84-2.06 2.53a12.82 12.82 0 0 0-.71 4.1c0 .77.1 1.36.32 1.75.22.4.52.6.9.6ZM27.8 20c.66 0 1.19.33 1.6 1 .4.67.6 1.49.6 2.46 0 1.7-.4 3.23-1.21 4.57-.8 1.31-1.68 1.97-2.65 1.97-.62 0-1.13-.3-1.53-.9-.4-.6-.61-1.46-.61-2.57 0-1.58.4-3.06 1.2-4.45C26 20.7 26.87 20 27.8 20ZM20.24 29.5c.83 0 1.53-.88 2.1-2.64.45-1.42.68-2.73.68-3.95 0-.75-.1-1.33-.3-1.75-.21-.43-.53-.64-.94-.64-.8 0-1.49.84-2.06 2.53a12.82 12.82 0 0 0-.71 4.1c0 .77.1 1.36.32 1.75.22.4.52.6.9.6ZM21.8 20c.66 0 1.19.33 1.6 1 .4.67.6 1.49.6 2.46 0 1.7-.4 3.23-1.21 4.57-.8 1.31-1.68 1.97-2.65 1.97-.62 0-1.13-.3-1.53-.9-.4-.6-.61-1.46-.61-2.57 0-1.58.4-3.06 1.2-4.45C20 20.7 20.87 20 21.8 20Z" fill="#027CCA"/></svg>