<!-- by TradingView --><svg width="56" height="56" viewBox="0 0 56 56" xmlns="http://www.w3.org/2000/svg"><path fill="#F0F3FA" d="M0 0h56v56H0z"/><path d="M35 34.08c0 1.29-1.53 1.9-2.64 1.92-.63 0-1.16-.12-1.6-.37-.5-.3-.76-.71-.76-1.25 0-.26.09-.49.27-.67.18-.19.4-.28.68-.28.51 0 .78.24.8.71 0 .28-.12.48-.37.58.03.29.34.43.92.43.46 0 1.2-.2 1.2-.76 0-.68-.94-.88-1.45-1.07-.52-.2-.9-.4-1.12-.58-.36-.3-.53-.7-.53-1.19 0-.47.23-.84.69-1.1.38-.2.85-.31 1.4-.31.3 0 .57.03.82.1l-.02-.08c0-.1.13-.16.4-.16.26 0 .42.06.46.18l.47 1.25.02.1c0 .12-.1.2-.28.26-.16.03-.3.03-.45 0-.06 0-.15-.11-.27-.3a1.62 1.62 0 0 0-1.03-.5.72.72 0 0 0-.5.09.47.47 0 0 0-.24.38c-.03.22.13.4.47.56 1 .47 2.66.62 2.66 2.06ZM52 34.08c0 1.29-1.53 1.9-2.64 1.92-.63 0-1.16-.12-1.6-.37-.5-.3-.76-.71-.76-1.25 0-.26.09-.49.27-.67.18-.19.4-.28.68-.28.51 0 .78.24.8.71 0 .28-.12.48-.37.58.03.29.34.43.92.43.46 0 1.2-.2 1.2-.76 0-.68-.94-.88-1.45-1.07-.52-.2-.9-.4-1.12-.58-.36-.3-.53-.7-.53-1.19 0-.47.23-.84.69-1.1.38-.2.85-.31 1.4-.31.3 0 .57.03.82.1l-.02-.08c0-.1.13-.16.4-.16.26 0 .42.06.46.18l.47 1.25.02.1c0 .12-.1.2-.28.26-.16.03-.3.03-.45 0-.06 0-.15-.11-.27-.3a1.62 1.62 0 0 0-1.03-.5.72.72 0 0 0-.5.09.47.47 0 0 0-.24.38c-.03.22.13.4.47.56 1 .47 2.66.62 2.66 2.06ZM25 33.82c0 1.5-1.7 2.18-2.95 2.18a3 3 0 1 1 0-6c1.35 0 2.46.78 2.68 2.15l-4.2 1.5c.08.96 1.02 1.35 1.91 1.35.46 0 1.22-.16 1.22-.74 0-.16-.08-.25-.23-.25a.3.3 0 0 0-.11.04.41.41 0 0 1-.1.02c-.1 0-.15-.07-.15-.22 0-.54.48-.88.98-.88.51 0 .95.32.95.85Zm-1.9-2.16c-.09-.42-.66-.66-1.1-.66-.84 0-1.47.81-1.5 1.53l2.6-.87Z" fill="#14406E"/><path d="M41 33.82c0 1.5-1.7 2.18-2.95 2.18a3 3 0 1 1 0-6c1.35 0 2.46.78 2.68 2.15l-4.2 1.5c.08.96 1.02 1.35 1.91 1.35.46 0 1.22-.16 1.22-.74 0-.16-.08-.25-.23-.25a.3.3 0 0 0-.11.04.41.41 0 0 1-.1.02c-.1 0-.15-.07-.15-.22 0-.54.48-.88.98-.88.51 0 .95.32.95.85Zm-1.9-2.16c-.09-.42-.66-.66-1.1-.66-.84 0-1.47.81-1.5 1.53l2.6-.87ZM19 30.27c.03.23-.07.34-.3.34-.26-.04-.46.11-.6.47L16.23 36h-1.5l-1.84-4.92c-.14-.36-.33-.51-.6-.47-.2 0-.29-.1-.29-.3 0-.2.1-.31.3-.31h2.54c.19 0 .28.09.3.26a.4.4 0 0 1-.1.24.24.24 0 0 1-.2.11c-.12.03-.18.11-.18.25 0 .08.02.16.06.26l1.18 3.02 1.18-3.02c.04-.1.06-.2.06-.27 0-.14-.05-.22-.17-.24-.17 0-.28-.1-.3-.3-.03-.2.07-.31.3-.31h1.73c.17 0 .26.1.3.27ZM12 31.5c0 1.24-.4 2.3-1.18 3.18A3.7 3.7 0 0 1 7.96 36a3.66 3.66 0 0 1-2.83-1.3A4.58 4.58 0 0 1 4 31.5c0-1.25.4-2.32 1.15-3.19a3.7 3.7 0 0 1 5.67.01A4.57 4.57 0 0 1 12 31.5Zm-1.71-.02c0-1-.21-1.86-.62-2.57-.44-.77-1-1.15-1.7-1.15s-1.24.38-1.64 1.15a5.57 5.57 0 0 0-.53 2.57c0 1.03.18 1.9.54 2.6.4.77.94 1.16 1.63 1.16.7 0 1.27-.39 1.7-1.17.41-.71.62-1.58.62-2.59ZM47.5 22.43c0 .64-.39 1.26-1.09 1.26-.37 0-.91-.27-.91-.7 0-.3.1-.5.3-.6.03 0 .04-.02.04-.04 0-.6-1.01-.3-1.32-.16l-.02.01-.01 3.7c0 .3.16.46.49.5.2 0 .3.1.28.31 0 .2-.1.29-.28.29h-2.46c-.16 0-.25-.09-.27-.27 0-.09.01-.16.06-.23.05-.07.12-.1.21-.1.32-.04.48-.2.48-.48v-3.76c0-.28-.14-.52-.43-.55-.23 0-.34-.1-.33-.3 0-.2.12-.3.33-.3L44.5 21v.28a1.5 1.5 0 0 1 1-.28c.9 0 2 .37 2 1.43ZM30.5 31.43c0 .64-.39 1.26-1.09 1.26-.37 0-.91-.27-.91-.7 0-.3.1-.5.3-.6.03 0 .04-.02.04-.04 0-.6-1.01-.3-1.32-.16l-.02.01-.01 3.7c0 .3.16.46.49.5.2 0 .3.1.28.31 0 .2-.1.29-.28.29h-2.46c-.16 0-.25-.09-.27-.27 0-.09.01-.16.06-.23.05-.07.12-.1.21-.1.32-.04.48-.2.48-.48v-3.76c0-.28-.14-.52-.43-.55-.23 0-.34-.1-.33-.3 0-.2.12-.3.33-.3L27.5 30v.28a1.5 1.5 0 0 1 1-.28c.9 0 2 .37 2 1.43ZM41.75 26.63c0 .1-.03.18-.1.26a.31.31 0 0 1-.25.11h-1.34c-.31 0-.48-.1-.5-.32a2.2 2.2 0 0 0-.96.15c-.27.11-.52.17-.74.17-.82 0-1.86-.48-1.86-1.42 0-.52.29-.97.81-1.36.26-.19.76-.45 1.52-.8l1.17-.46c-.02-.71-.56-1.07-1.29-1.07-.55 0-.89.18-1 .52-.05.13-.04.24.02.34.06.09.17.1.3.05.06-.02.09.02.09.13 0 .17-.1.33-.29.46a.91.91 0 0 1-.56.18c-.54 0-.74-.44-.74-.95 0-1.34 1.64-1.63 2.66-1.62 1 .01 2.31.41 2.31 1.65v3.05c0 .33.16.68.48.69.18 0 .27.09.27.24Zm-2.25-1.25v-1.76l-1.5.95c-.31.23-.46.43-.43.62.06.32.27.5.65.52.24.01.79-.11 1.28-.33Z" fill="#14406E"/><path d="M46.75 35.63c0 .1-.03.18-.1.26a.31.31 0 0 1-.25.11h-1.34c-.31 0-.48-.1-.5-.32a2.2 2.2 0 0 0-.96.15c-.27.11-.52.17-.74.17-.82 0-1.86-.48-1.86-1.42 0-.52.29-.97.81-1.36.26-.19.76-.45 1.52-.8l1.17-.46c-.02-.71-.56-1.07-1.29-1.07-.55 0-.89.18-1 .52-.05.13-.04.24.02.34.06.09.17.1.3.05.06-.02.09.02.09.13 0 .17-.1.33-.29.46a.91.91 0 0 1-.56.18c-.54 0-.74-.44-.74-.95 0-1.34 1.64-1.63 2.66-1.62 1 .01 2.31.41 2.31 1.65v3.05c0 .33.16.68.48.69.18 0 .27.09.27.24Zm-2.25-1.25v-1.76l-1.5.95c-.31.23-.46.43-.43.62.06.32.27.5.65.52.24.01.79-.11 1.28-.33ZM35 26.68c0 .21-.1.32-.33.32h-2.72c-.19 0-.3-.09-.35-.26-.03-.21.1-.32.35-.33.21-.03.32-.1.32-.24 0-.09-.06-.2-.18-.33l-1.21-1.57-.38.21v1.47c0 .28.15.44.45.47.18 0 .27.1.26.31-.02.18-.1.27-.26.27h-2.39c-.16 0-.24-.1-.25-.29 0-.08.03-.15.07-.2.04-.06.1-.09.18-.08.3-.05.44-.2.44-.47v-5.95c0-.27-.13-.42-.4-.44-.21 0-.31-.1-.3-.3.02-.18.12-.27.3-.27h1.9v4.51l1.75-1.26c.12-.1.18-.17.18-.24 0-.08-.07-.13-.21-.16-.24 0-.34-.1-.3-.3.02-.18.11-.26.26-.26h2.32c.23 0 .34.1.32.29-.02.19-.14.28-.34.27-.2 0-.47.13-.84.39l-1.73 1.29 2.07 2.45c.3.34.53.48.7.43.2 0 .31.1.32.27ZM28.17 26.66c.02.23-.06.34-.26.34H25.6c-.15 0-.23-.1-.25-.28-.01-.08 0-.16.05-.22.04-.07.1-.1.2-.1.27-.04.41-.2.41-.48v-2.86c0-.6-.32-1-.9-1-.29 0-.75.15-1.1.45v3.38c0 .3.14.47.42.5.16 0 .25.1.26.29.02.21-.07.32-.26.32H22.1c-.14 0-.22-.08-.24-.25a.37.37 0 0 1 .04-.24c.04-.08.1-.11.2-.1.27-.05.41-.22.41-.5V23.1c0-.55-.48-1.03-1.06-1.03-.37 0-.68.16-.94.47l.01 3.38c0 .29.14.45.41.49.18 0 .26.1.25.3 0 .2-.09.3-.25.3H18.6c-.15 0-.23-.1-.24-.28-.01-.09 0-.16.05-.22.04-.07.1-.1.19-.1.27-.04.41-.2.41-.48v-3.77c0-.28-.12-.52-.37-.55-.2 0-.29-.1-.28-.3 0-.2.1-.3.28-.3h1.87v.78c.33-.51.84-.77 1.48-.78.88-.01 1.5.28 1.85.87A2.32 2.32 0 0 1 25.6 21c1.02-.03 1.9.45 1.9 1.71v3.2c0 .3.14.46.41.49.16 0 .24.09.26.26ZM18 22.5c0 1.24-.4 2.3-1.18 3.18A3.7 3.7 0 0 1 13.96 27a3.66 3.66 0 0 1-2.83-1.3A4.58 4.58 0 0 1 10 22.5c0-1.25.4-2.32 1.15-3.19a3.7 3.7 0 0 1 5.67.01A4.57 4.57 0 0 1 18 22.5Zm-1.71-.02c0-1-.21-1.86-.62-2.57-.44-.77-1-1.15-1.7-1.15s-1.24.38-1.64 1.15a5.57 5.57 0 0 0-.53 2.57c0 1.03.18 1.9.54 2.6.4.77.94 1.16 1.63 1.16.7 0 1.27-.39 1.7-1.17.41-.71.62-1.58.62-2.59Z" fill="#14406E"/></svg>