<!-- by TradingView --><svg width="56" height="56" viewBox="0 0 56 56" xmlns="http://www.w3.org/2000/svg"><path fill="#F0F3FA" d="M0 0h56v56H0z"/><path d="M40.44 18.33c1.73 4.3 2.04 8.52.92 12.69a19 19 0 0 1-2.62 5.72 14.31 14.31 0 0 1-9.81 6.28 30.3 30.3 0 0 1-5.09.36c-.26.07-.54 0-.86-.17a.05.05 0 0 1-.02-.06s0-.02.02-.02l.02-.02c7.28-.87 13.9-5.35 15.47-12.74.7-3.31.5-6.48-.64-9.5a11.13 11.13 0 0 0-10-7.42c-4.75-.15-8.5 2.77-10.85 6.64a14.98 14.98 0 0 1 2-3.7 37.8 37.8 0 0 0 1.48-2.08 14.64 14.64 0 0 1 14.62-.68 14.35 14.35 0 0 1 5.36 4.7Z" fill="#1D3887"/><path d="M20.46 14.31c-.35.54-.84 1.23-1.49 2.09a14.98 14.98 0 0 0-1.99 3.69c-1.76 4.4-.36 8.94 2.37 12.54a.06.06 0 0 1 0 .07.06.06 0 0 1-.08 0 9.79 9.79 0 0 1-3.52-14 12.3 12.3 0 0 1 4.7-4.39Z" fill="#73C4EF"/><path d="M23.84 43.38c2.02 0 3.72-.12 5.09-.36a14.31 14.31 0 0 0 9.81-6.28 19 19 0 0 0 2.62-5.72c1.12-4.17.81-8.4-.92-12.69 3.28 4.2 4.3 8.8 3.04 13.85-1.44 5.8-6.58 10.1-12.37 11.53a13.6 13.6 0 0 1-4.2.23 13.72 13.72 0 0 1-3.07-.56Z" fill="#007FC7"/><path d="M32.84 26.85a10.11 10.11 0 0 0 1.79-4.68.07.07 0 0 1 .1 0 6.9 6.9 0 0 1 2.01 5.52l-.02.01h-.02v-.02a8.26 8.26 0 0 0-1.4-3.6.23.23 0 0 0-.22 0 .23.23 0 0 0-.08.07l-2.09 2.8-.06-.03a.05.05 0 0 1-.01-.07Z" fill="#681462"/><path d="M32.42 34.45c-3.78 3.26-7.94 4.3-12.47 3.15-3.35-.84-5.8-2.79-7.37-5.84-.14-.27-.38-.83-.71-1.69-.22-.55-.46-1.1-.73-1.68a5.74 5.74 0 0 1-.05-2.18h.02v.02c1.5 7.25 8.08 12.74 15.96 10.12 3.77-1.25 6.52-4.89 7.57-8.59 0-.02.01-.03.03-.04h.04c.02 0 .03 0 .04.02l.01.04c-.21 2.6-1 4.81-2.34 6.67Z" fill="#F1A100"/><path d="M32.42 34.45c-2.22 3.35-5.16 5.18-8.83 5.5-4.72.4-8.84-1.53-10.95-5.73-.9-1.78-1.4-3.72-1.5-5.83.27.57.51 1.13.73 1.68.33.86.57 1.42.7 1.7 1.58 3.04 4.03 4.99 7.38 5.83 4.53 1.16 8.7.1 12.47-3.15Z" fill="#AF2928"/></svg>