<!-- by TradingView --><svg width="56" height="56" viewBox="0 0 56 56" xmlns="http://www.w3.org/2000/svg"><path fill="red" d="M0 0h56v56H0z"/><path d="M36.78 23c1.76 0 3.76 1.24 5.4 1.24.31 0 .57-.13.75-.39a2 2 0 0 0 .37-.85h.7v6h-.64a12.06 12.06 0 0 0-1.85-2.92 5.89 5.89 0 0 0-4.42-2.18c-4.24 0-4.59 5.42-4.59 8.57 0 3.28.64 8.22 4.9 8.22 2.48 0 4.3-1.52 5.85-3.29l.75.66C42.17 40.24 40 42 37 42c-5.3 0-9-4.17-9-9.38 0-5.06 3.46-9.62 8.78-9.62Z" fill="#fff"/><path d="M22.51 34c4.63 0 5.49-5.84 5.49-9.5 0-3.54-1-9.5-5.49-9.5C17.9 15 17 20.82 17 24.5c0 3.69.88 9.5 5.51 9.5Zm0-20A10.3 10.3 0 0 1 33 24.5 10.3 10.3 0 0 1 22.51 35C16.9 35 12 30.75 12 24.66 12 18.43 16.67 14 22.51 14Z" fill="#fff"/></svg>