<!-- by TradingView --><svg width="56" height="56" viewBox="0 0 56 56" xmlns="http://www.w3.org/2000/svg"><path fill="#F0F3FA" d="M0 0h56v56H0z"/><path d="M38 38V18h4v16h5v4h-9ZM29 26h.41c1.63 0 2.62-.65 2.62-2.41 0-1.76-.65-2.59-2.65-2.59H29v5Zm0 7.97.54.03c1.7 0 2.83-.72 2.83-2.5 0-1.88-1.1-2.5-2.9-2.5H29v4.97ZM25 38V18h3.77c3.75 0 6.94 1.1 6.94 5.33 0 1.88-.72 3.5-2.46 4.37 2 .74 2.75 2.56 2.75 4.57C36 36.8 32.49 38 28.58 38H25ZM15.99 34c2.04 0 3.01-1.82 3.01-6 0-4.21-.97-6-3.01-6-2.03 0-2.99 1.75-2.99 6 0 4.22.95 6 2.99 6ZM23 28.29c0 4.34-1.86 9.71-7.01 9.71C10.64 38 9 32.47 9 28.02 9 23.61 10.67 18 15.99 18 21.4 18 23 23.84 23 28.29Z" fill="#00A38F"/></svg>