<!-- by TradingView --><svg width="56" height="56" viewBox="0 0 56 56" xmlns="http://www.w3.org/2000/svg"><path fill="#F0F3FA" d="M0 0h56v56H0z"/><path d="M11.45 31.09a12.1 12.1 0 0 0 3.16 4.25 22.89 22.89 0 0 1-1.66-7.65c0-3.3 3.43-15.5 15.26-15.5 7.89 0 12.07 4.35 13.18 6.53-1.17-1.93-5.32-5.8-12.61-5.8-9.11 0-13.64 9.16-13.64 15.73 0 5.25 2.38 8.33 3.57 9.06l1.89-.1c-1.29-1.28-3.73-4.96-3.73-9.92 0-6.2 5.75-13.78 12.45-13.78 6.88 0 10.4 2.86 11.31 4.28-.8-1.1-3.75-3.29-9.22-3.29-6.85 0-12.7 6.23-12.7 13.51 0 2 .8 6.61 3.93 9a3.9 3.9 0 0 0 1.84-.53 13.31 13.31 0 0 1-3.88-9.2c0-5.65 5.18-11.87 11.54-11.87 5.3 0 7.68 1.85 8.2 2.78-.63-.68-2.86-2.05-6.73-2.05a11.49 11.49 0 0 0-10.97 11.5c0 4.25 2.22 7.17 3.33 8.1l1.5-.69a12.01 12.01 0 0 1-3.2-7.76c0-4.54 4.4-10.12 10.33-10.12 4.73 0 8.05 2.95 9.12 4.43-1.3-3.67-6.26-11-15.77-11C13.27 11 11 23.84 11 27.69c0 1.42.3 2.79.45 3.4Z" fill="url(#arj4bxtkf)"/><path d="M44.55 24.91a12.1 12.1 0 0 0-3.16-4.25 22.89 22.89 0 0 1 1.66 7.65c0 3.3-3.43 15.5-15.26 15.5-7.89 0-12.07-4.35-13.18-6.53 1.17 1.93 5.32 5.8 12.61 5.8 9.11 0 13.64-9.16 13.64-15.73 0-5.25-2.38-8.33-3.57-9.06l-1.89.1c1.29 1.28 3.73 4.96 3.73 9.92 0 6.2-5.75 13.78-12.45 13.78-6.88 0-10.4-2.86-11.31-4.28.8 1.1 3.75 3.29 9.22 3.29 6.85 0 12.7-6.23 12.7-13.51 0-2-.8-6.61-3.93-9a3.9 3.9 0 0 0-1.84.53 13.31 13.31 0 0 1 3.88 9.2c0 5.65-5.18 11.87-11.54 11.87-5.3 0-7.68-1.85-8.2-2.78.63.68 2.86 2.05 6.73 2.05 4.83 0 10.97-4.32 10.97-11.5 0-4.25-2.22-7.17-3.33-8.1l-1.5.69a12.01 12.01 0 0 1 3.2 7.76c0 4.54-4.4 10.12-10.33 10.12-4.73 0-8.05-2.95-9.12-4.43 1.3 3.67 6.26 11 15.77 11C42.73 45 45 31.62 45 28.31c0-1.54-.3-2.79-.45-3.4Z" fill="url(#brj4bxtkf)"/><defs><linearGradient id="arj4bxtkf" x1="43.72" y1="20.11" x2="28.22" y2="38.5" gradientUnits="userSpaceOnUse"><stop stop-color="#FAF5AC"/><stop offset=".26" stop-color="#EAAB28"/><stop offset="1" stop-color="#EB9621"/></linearGradient><linearGradient id="brj4bxtkf" x1="12.98" y1="35.69" x2="27.63" y2="17.63" gradientUnits="userSpaceOnUse"><stop stop-color="#ABC2D4"/><stop offset=".34" stop-color="#317EAC"/><stop offset="1" stop-color="#009FE1"/></linearGradient></defs></svg>