<!-- by TradingView --><svg width="56" height="56" viewBox="0 0 56 56" xmlns="http://www.w3.org/2000/svg"><path fill="#F0F3FA" d="M0 0h56v56H0z"/><path d="M9 19.5c0-1.93 1.46-3.5 3.26-3.5h31.48c1.8 0 3.26 1.57 3.26 3.5S45.54 23 43.74 23h-6.83a1.5 1.5 0 1 0-2.82 0H32v13.66A3.42 3.42 0 0 1 28.5 40c-1.93 0-3.5-1.5-3.5-3.34V23H12.26C10.46 23 9 21.43 9 19.5Z" fill="url(#awxgixquu)"/><circle cx="17.5" cy="31.5" r="8.5" fill="#0064C3"/><circle cx="17.5" cy="31.5" r="6.5" fill="#008DE5"/><circle cx="17.5" cy="31.5" r="3.5" fill="#00BDFF"/><path d="M16.16 30.16c-1.86 1.86-4.33 2.4-5.53 1.2-1.19-1.19-.65-3.66 1.21-5.52 1.86-1.86 4.33-2.4 5.53-1.2 1.19 1.19.65 3.66-1.21 5.52Z" fill="#90D4FF"/><path d="M36.61 23.5a1.5 1.5 0 0 1-2.47-.37A3.22 3.22 0 0 0 32 26.24v10.52a3.53 3.53 0 0 0 0 .24c0 .79.33 1.5.87 2.04a2.89 2.89 0 0 0 2.39.96h8.48c1.8 0 3.26-1.34 3.26-3s-1.46-3-3.26-3H38v-7.76a3.3 3.3 0 0 0-1.39-2.73Z" fill="#FF6313"/><path d="M37.85 25.21a6.5 6.5 0 1 0 7.48 9.17 3.46 3.46 0 0 0-1.59-.38H38v-7.76c0-.36-.05-.7-.15-1.03Z" fill="#FF9607"/><defs><linearGradient id="awxgixquu" x1="46.87" y1="28" x2="9" y2="28" gradientUnits="userSpaceOnUse"><stop stop-color="#65A328"/><stop offset=".13" stop-color="#90D82D"/><stop offset=".51" stop-color="#DAEF16"/><stop offset=".85" stop-color="#93D82E"/><stop offset="1" stop-color="#70B42A"/></linearGradient></defs></svg>