<!-- by TradingView --><svg width="56" height="56" viewBox="0 0 56 56" xmlns="http://www.w3.org/2000/svg"><path fill="#F0F3FA" d="M0 0h56v56H0z"/><path d="M52 28c0 1.2-.6 2.34-1.83 3.44a16.18 16.18 0 0 1-5.2 2.93C40.28 36.12 34.63 37 28 37c-6.63 0-12.28-.88-16.97-2.63a16.18 16.18 0 0 1-5.2-2.93C4.6 30.34 4 29.2 4 28c0-1.2.6-2.34 1.83-3.44a16.18 16.18 0 0 1 5.2-2.93C15.72 19.88 21.37 19 28 19c6.63 0 12.28.88 16.97 2.63 2.25.85 3.99 1.82 5.2 2.93C51.4 25.66 52 26.8 52 28Z" fill="#BF0311"/><path d="M13.44 32a3.17 3.17 0 0 1-2.46-1.21c-.67-.8-1-1.74-.98-2.85.02-1.1.37-2.04 1.07-2.8a3.18 3.18 0 0 1 4.95.07c.67.8 1 1.74.98 2.85a4.14 4.14 0 0 1-1.07 2.8 3.18 3.18 0 0 1-2.5 1.14ZM18.75 31.5l-.55.32c-.06.03-.1.02-.1-.05a6.65 6.65 0 0 1-.06-1.8c.04-.36.15-.38.33-.07l.2.36c.3.58.7 1 1.2 1.24.6.31 1.22.25 1.85-.17.65-.44.89-1 .7-1.7-.1-.4-.37-.7-.79-.9a5.76 5.76 0 0 0-1.28-.35l-.34-.06c-.83-.17-1.4-.57-1.7-1.18a2.04 2.04 0 0 1-.02-1.75c.26-.62.69-1.04 1.28-1.26.68-.24 1.4-.15 2.2.29.07.04.14.04.22 0l.5-.3c.07-.04.1-.02.11.06.05.61.07.99.06 1.12-.08 1.08-.28 1.1-.59.06-.09-.3-.42-.58-.99-.86-.82-.39-1.53-.2-2.15.59a.9.9 0 0 0-.18.78c.07.3.23.51.5.64.35.17.67.28.98.33.87.15 1.5.34 1.86.56.55.33.88.88.98 1.63.15 1.17-.23 2.03-1.13 2.58-.9.55-1.85.52-2.83-.1a.23.23 0 0 0-.26-.02ZM28.77 24.54c.06-.22.16-.37.28-.45.05-.03.1-.03.16 0 .05.04.08.08.08.15v1.98c0 .12-.06.16-.17.13a.5.5 0 0 1-.08-.03.34.34 0 0 1-.06-.13c-.36-1.41-1.12-2.03-2.28-1.85-.5.08-.83.52-1 1.33a13.66 13.66 0 0 0-.08 4.37c.08.67.34 1.15.8 1.46.46.31.97.3 1.51-.03.5-.3.83-.7 1-1.22.08-.25.15-.42.21-.51.28-.42.4-.38.37.15l-.11 1.8c-.02.28-.1.3-.26.08l-.22-.32c-.07-.1-.16-.13-.26-.1a.75.75 0 0 0-.29.21.62.62 0 0 1-.23.17c-1.34.56-2.41.25-3.22-.94a4.66 4.66 0 0 1-.3-5.12 2.97 2.97 0 0 1 1.75-1.57c.77-.23 1.51-.06 2.22.5.09.07.15.05.18-.06ZM31.4 31.66l1.15.04c.03 0 .05.02.05.06l.02.17c0 .04-.02.07-.06.07h-2.5c-.04 0-.06-.05-.05-.1l.04-.13c0-.03.02-.05.04-.05l.88-.08c.02 0 .04-.02.05-.04l2.66-7.56c.01-.03.03-.04.06-.04.02 0 .04.01.05.04l2.5 7.56c.02.03.03.04.06.04l.86.09c.04 0 .06.03.05.07l-.01.11c0 .04-.03.09-.06.09h-3.26c-.04 0-.06-.02-.06-.05l-.02-.15c0-.04.02-.07.05-.07l1.04-.1c.04 0 .06-.02.04-.07l-.63-1.9c0-.02-.02-.04-.05-.04h-2.23c-.03 0-.04.01-.05.04l-.68 1.92c-.02.05 0 .08.05.08Z" fill="#F0F3FA"/><path d="M13.62 24.52h-.24c-1.04-.01-1.89.78-1.9 1.77l-.03 3.42c0 .99.83 1.8 1.87 1.8l.24.01c1.04 0 1.89-.79 1.9-1.78l.02-3.41c.01-1-.82-1.8-1.86-1.81ZM32.2 28.89l.9-2.56c.01-.05.04-.07.1-.07.04 0 .07.02.09.07l.88 2.57c.03.09 0 .1-.1.1H32.3c-.1 0-.13-.02-.1-.11Z" fill="#BF0311"/><path fill-rule="evenodd" d="M42.4 27.62c.88.39 1.72 1.82 1.74 2.5.01.66.04 1.04.07 1.15.04.1.1.19.18.24.2.14.37.22.48.23.37.05.38.11.03.19-.96.2-1.64-.03-2.04-.72a3.01 3.01 0 0 1-.22-1.4c0-.33 0-.56-.02-.7-.07-.61-.38-.99-.93-1.13l-.6-.16c-.52-.13-.79.1-.79.68v3.03c0 .12.06.18.17.18h.85c.06 0 .08.03.08.1v.11c0 .06-.02.08-.08.08h-3.26c-.04 0-.06-.01-.06-.05v-.1c0-.04.01-.11.06-.12h.78c.15.01.16-.06.16-.22v-7c0-.12 0-.18-.11-.18h-.87c-.05 0-.08-.03-.08-.1v-.13c0-.07.03-.1.1-.1h4.72c1.44.06 2.02 1.97 1.12 2.96-.17.18-.38.32-.64.43-.15.06-.46.16-.84.23Zm-.92-.06c-.36.02-.7.03-.99.01-.12 0-.18-.07-.18-.2.01-1.16 0-1.94-.04-2.36-.04-.55.16-.68.7-.68h.95c.53.03.86.36.97.92.11.57.08 1.09-.1 1.55-.34.52-.96.72-1.31.76Z" fill="#F0F3FA"/></svg>