<!-- by TradingView --><svg width="56" height="56" viewBox="0 0 56 56" xmlns="http://www.w3.org/2000/svg"><path fill="#F0F3FA" d="M0 0h56v56H0z"/><path d="M18.76 28.04A82.08 82.08 0 0 1 10 21c.64.96 3.13 3.96 7.97 8.23C24 34.57 25.09 39.21 25.98 45c.33-9.23-3.51-14.57-7.22-16.96ZM39.98 24.98A56.79 56.79 0 0 0 46 20c-.44.68-2.15 2.8-5.48 5.83-4.15 3.78-4.9 7.07-5.5 11.17-.23-6.54 2.41-10.32 4.96-12.02ZM24 23.67c-3.14-1.89-8.01-5.83-10-7.67 1.56 2.02 5.74 6.86 10 10.07 4.25 3.22 6.36 11.3 6.89 14.93.74-7.2-2.22-14.5-6.9-17.33Z" fill="#271674"/><path d="M19.8 26.5 12 19c5.64 4.6 8.27 5.51 12.02 9.65C27.78 32.8 28.3 38.2 27.88 43c-.2-8.54-5.6-14.35-8.08-16.5Z" fill="#271674"/><circle cx="28" cy="19" r="4" fill="#DA251C"/><path d="M35.95 21.91A55.83 55.83 0 0 0 43 17a41.6 41.6 0 0 1-7.05 6.45c-3 2.05-4.5 7.22-4.87 9.55-.52-4.61 1.56-9.29 4.87-11.09Z" fill="#271674"/><path d="M38.64 24 44 19c-3.88 3.06-5.68 3.68-8.27 6.43C33.15 28.2 32.8 31.8 33.1 35c.12-5.7 3.84-9.57 5.55-11Z" fill="#271674"/></svg>