<!-- by TradingView --><svg width="56" height="56" viewBox="0 0 56 56" xmlns="http://www.w3.org/2000/svg"><path fill="#F0F3FA" d="M0 0h56v56H0z"/><path d="M17.33 23.46a5.49 5.49 0 0 1-.77-3.45c.8-3.75 4.94-5 8.4-5 4.04 0 7.56.86 11.23 2.3a25.17 25.17 0 0 0 10.92 1.62c1.06-.07 1.18.22.33.88-1.87 1.45-6.42 1.04-8.85.73-.76-.1-.8.04-.13.4 1.57.84 4.1.98 5.9.94.34 0 .38.11.15.35-1.3 1.28-4.57 1.12-6.25 1.15-.27 0-.29.07-.05.2.26.14.6.22.99.26 1 .08 2.07.14 3.21.18.55.01.58.14.08.37a29.62 29.62 0 0 1-11.98 2.81c-.03 0-.07.18 0 .18 5.25.6 10.15-.4 14.7-3 .24-.13.76-.23.87.13.03.11 0 .24-.08.32-1.8 1.88-3.88 2.86-6.27 3.8-.83.33-.8.43.08.32 2.46-.32 4.69-1.57 6.7-3.04.28-.2.73-.11.81.25.04.14 0 .3-.1.4a10.45 10.45 0 0 1-4.66 3.2c-.06.02.05.22.15.2 1.52-.37 2.99-.92 4.4-1.64.29-.15.86 0 .77.4-.33 1.64-4.26 2.57-5.6 2.96-.26.08-.25.15 0 .21a7 7 0 0 0 1.42.22c1.05.05 1.1.3.14.73-.7.32-1.52.57-2.47.76a.68.68 0 0 0-.35.18c-5.52 5.06-14.75 12.05-22.05 5.66-2.24-1.95-3.9-4.57-5.54-7.03a14 14 0 0 0-1.17-1.52c-.35-.4-.8-.69-1.32-.87-.89-.3-1.83-.91-2.83-1.83a.35.35 0 0 1 .1-.58c.61-.24 1.12-.98 1.53-1.53.84-1.13 2.02-2.04 3.41-2.08 1.35-.04 2.7.65 3.52 1.7.7.9 1.46 2.05 2.28 2.75.09.08.24.06.3-.03l.78-.92c.08-.1.07-.2-.02-.3a15.01 15.01 0 0 1-2.68-3.74Z" fill="#201D1D"/></svg>