<!-- by TradingView --><svg width="56" height="56" viewBox="0 0 56 56" xmlns="http://www.w3.org/2000/svg"><path fill="#F0F3FA" d="M0 0h56v56H0z"/><path fill-rule="evenodd" d="M30.25 13.73a.31.31 0 0 0-.37.08.3.3 0 0 0-.06.12c-.05.2-.13.37-.23.51a.24.24 0 0 1-.2.1c-.14 0-.26-.04-.33-.14-.05-.05-.05-.15-.02-.3.14-.63.25-1.29.3-1.96 0-.04.03-.07.05-.1a.16.16 0 0 1 .11-.04c.67 0 1.22.11 1.64.33a.53.53 0 0 1 .23.73c-.22.39-.26.82-.13 1.3.05.18 0 .32-.14.44a.17.17 0 0 1-.25-.04.16.16 0 0 1-.03-.08c-.03-.48-.22-.8-.57-.95Zm-.46-.76c0 .3.24.55.53.54.3 0 .52-.25.51-.56 0-.3-.24-.55-.53-.55-.29.01-.52.26-.51.57Zm-2.76.44a.22.22 0 0 0-.18.04.22.22 0 0 0-.09.17v.2c0 .07.03.14.09.19.05.05.12.08.2.08h.94c.1 0 .15.05.15.14v.1c0 .04-.02.07-.04.1a.14.14 0 0 1-.1.04h-1.52a.32.32 0 0 1-.23-.1.3.3 0 0 1-.1-.21v-2.02c0-.08.04-.12.12-.12h1.66a.13.13 0 0 1 .1.06.12.12 0 0 1 .02.12l-.04.08a.16.16 0 0 1-.15.1l-.9.05c-.16 0-.24.09-.24.24v.07c-.01.17.07.25.25.24.2-.02.37-.02.48 0 .45.12.45.27.02.44-.08.03-.22.03-.44-.01Zm-2.94.65a.13.13 0 0 0 .19-.03.12.12 0 0 0 .02-.07v-1.43c0-.14.07-.23.2-.27l.12-.03a.17.17 0 0 1 .16.03.17.17 0 0 1 .06.14l-.15 2.25a.4.4 0 0 1-.1.24.44.44 0 0 1-.68-.01c-.5-.66-.92-1.3-1.28-1.92-.01-.01 0-.11.03-.3 0-.04.03-.06.07-.07.15-.05.25-.03.3.06.38.67.73 1.14 1.06 1.4Zm9.37.93.06-.05c.16-.12.15-.24-.02-.38l-.88-.7a.38.38 0 0 1-.11-.17.36.36 0 0 1-.02-.2c.07-.39.32-.66.75-.8a.24.24 0 0 1 .2 0l.9.47c.12.07.17.2.14.4v.07a.15.15 0 0 1-.1.12.16.16 0 0 1-.16-.02l-.62-.47c-.14-.1-.26-.06-.35.14l-.01.15c0 .06 0 .13.04.18.03.06.07.1.13.13.38.22.6.37.69.45.52.54.04 1.06-.55 1.17-.56.1-1.03-.1-1.4-.63a.24.24 0 0 1-.03-.2.25.25 0 0 1 .15-.17c.05-.02.1 0 .18.07l.5.42c.17.14.34.15.51.02Zm2.8-.15c.03-.31.17-.37.42-.18l.56.43c.12.09.23.08.33-.01a.32.32 0 0 0 .08-.1c.04-.09.02-.15-.05-.2l-1.1-.72a.46.46 0 0 0-.62.11l-1.06 1.51a.33.33 0 0 0 .11.48l1.4.83c.39.23.45.17.2-.19-.14-.2-.44-.47-.9-.82-.12-.09-.14-.19-.05-.3a.55.55 0 0 1 .22-.17.3.3 0 0 1 .36.07c.14.14.33.25.57.33a.2.2 0 0 0 .13 0 .2.2 0 0 0 .1-.07l.05-.08c.04-.06.02-.1-.05-.13-.48-.2-.72-.46-.7-.8Zm-14.08-.13c-.03-.13-.1-.26-.18-.38l-.3-.37a1.1 1.1 0 0 0-.72-.42 1.14 1.14 0 0 0-.82.2l-.31.23a1.09 1.09 0 0 0-.43.71 1.05 1.05 0 0 0 .2.8l.3.37a1.1 1.1 0 0 0 .72.42 1.14 1.14 0 0 0 .82-.2l.31-.23a1.09 1.09 0 0 0 .44-.7c.02-.15 0-.29-.03-.43Zm-1.05.95c-.39.17-.85-.05-1.04-.47-.2-.43-.03-.91.35-1.07.4-.17.86.05 1.05.47.19.43.03.91-.36 1.07Zm-3.76 2.42a.2.2 0 0 1-.06-.05L16.3 16.8c-.12-.14-.27-.17-.46-.08l-.07.07c-.1.1-.1.21 0 .32l1.38 1.62a.22.22 0 0 0 .15.07.22.22 0 0 0 .15-.04c.24-.18.58-.48 1.05-.88.2-.17.2-.31.03-.43a.2.2 0 0 0-.11-.03.18.18 0 0 0-.1.05l-.73.58a.2.2 0 0 1-.07.03h-.08a.2.2 0 0 1-.07-.01Zm19.7-.63c.24.13.45.22.64.27.53.16.62.37.72.9.02.08.06.14.13.17.07.04.14.05.21.04a.17.17 0 0 0 .14-.1l.75-1.72c.07-.16.1-.33.07-.47a.47.47 0 0 0-.2-.34c-.21-.12-.45-.1-.73.07a15.06 15.06 0 0 1-1.78 1 .13.13 0 0 0 0 .13c0 .02.02.04.05.05Zm1.84-.64h-.02l-.89.6-.01.03v.03a.55.55 0 0 0 .76.14l.07-.05a.51.51 0 0 0 .13-.73.04.04 0 0 0-.03-.02h-.01Zm1.83 3.32-.04.05a.24.24 0 0 1-.15.08c-.07.01-.14 0-.2-.03a.94.94 0 0 1-.48-.72.3.3 0 0 0-.2-.23l-.12-.05c-.16-.07-.22-.02-.2.15.1.57.42 1.04.94 1.4.28.18.51.14.7-.13l.31-.45c.2-.27.14-.5-.15-.67-.3-.17-.38-.41-.25-.7a.25.25 0 0 1 .2-.15.26.26 0 0 1 .22.08l.55.65c.08.1.19.15.31.15h.07c.15 0 .19-.07.1-.2a8.2 8.2 0 0 0-.7-.9c-.92-1-1.78.48-.96 1.22.06.06.1.13.11.22a.34.34 0 0 1-.06.23Zm-25.95-.58c.14.3.38.55.72.74.07.03.1.09.12.16a.91.91 0 0 1-.18.74.17.17 0 0 1-.28-.02c-.29-.5-.66-1.07-1.11-1.68-.12-.17-.13-.38-.04-.65.03-.08.09-.12.17-.13.63-.04 1.13.06 1.5.32.33.21.65.26.95.25.02 0 .04 0 .06.02.03.01.04.03.05.05a.12.12 0 0 1-.01.13c-.25.3-.54.54-.87.7a.18.18 0 0 1-.2-.01.17.17 0 0 1-.07-.17c.1-.45-.12-.7-.62-.72-.21-.02-.28.07-.19.27Zm-1.87 3.44c.12.2.14.36.08.5-.02.03-.06.05-.1.04l-1.3-.24a.15.15 0 0 0-.12.03.14.14 0 0 0-.05.1v.12c0 .06.02.12.06.16.04.05.1.08.16.1l2.05.39a.3.3 0 0 0 .27-.09c.16-.17.2-.34.13-.53-.02-.06-.1-.12-.25-.18-.28-.11-.6-.3-.48-.62.04-.09.1-.13.2-.12l.96.06c.07 0 .12-.02.18-.06.1-.08.14-.21.13-.38 0-.06-.02-.1-.07-.14l-1.82-1.38a.2.2 0 0 0-.25 0 .15.15 0 0 0-.04.05c-.06.15-.04.28.08.38l.77.7c.28.45.16.58-.34.38l-.76-.3a.24.24 0 0 0-.3.11.22.22 0 0 0-.02.1v.1c0 .08.02.17.07.24.05.07.12.13.2.16.32.13.5.24.56.32Zm29.4.25a.2.2 0 0 0-.12.1.19.19 0 0 0 0 .15l.37.85c.01.04.02.07 0 .11 0 .04-.02.07-.05.1-.17.13-.31.08-.42-.16a35.25 35.25 0 0 1-.58-1.31.21.21 0 0 1 .07-.15.22.22 0 0 1 .07-.05l2-.82c.14-.05.24-.02.32.1l.05.08c.03.2-.04.34-.21.4l-1.5.6Zm2.92 2.83c-.15-.4-.23-.66-.26-.77a9.7 9.7 0 0 1-.11-.8.26.26 0 0 0-.06-.13.27.27 0 0 0-.1-.09c-.15-.05-.25 0-.33.15-.03.07-.08.27-.14.59a.19.19 0 0 1-.14.16c-.57.15-1 .25-1.3.28a.47.47 0 0 0-.27.1c-.07.06-.09.16-.05.3.03.15.1.23.19.26.07.02.16.01.28-.03.28-.1.71-.2 1.29-.3a.2.2 0 0 1 .2.07 3 3 0 0 0 .4.47c.14.1.25.1.35 0a.25.25 0 0 0 .05-.26Zm-32.15.09c-.2-.52-.41-.52-.64-.02-.13.31-.41.68-.83 1.1-.06.06-.12.07-.19.02-.57-.39-.72-.93-.44-1.62.09-.22.17-.35.24-.39.4-.19.49-.1.26.29-.14.23-.37.78-.08 1a.24.24 0 0 0 .2.03.25.25 0 0 0 .17-.13l.33-.7a.22.22 0 0 1 .08-.1l.52-.35a.28.28 0 0 1 .24-.04c.79.24.6 1.28.29 1.8-.1.17-.2.25-.27.26-.38 0-.44-.13-.17-.43.27-.29.36-.53.29-.72Zm32.07 1.36a.34.34 0 0 1 .24.09.32.32 0 0 1 .1.23v.6c0 .38-.13.75-.37 1.02-.25.28-.58.43-.92.43h-.12a1.2 1.2 0 0 1-.5-.1 1.3 1.3 0 0 1-.43-.31 1.58 1.58 0 0 1-.39-1.02v-.6a.31.31 0 0 1 .09-.23.33.33 0 0 1 .23-.1l2.07-.01Zm-.45.64a.25.25 0 0 1 .18.07.24.24 0 0 1 .07.17v.14c-.01.18-.1.35-.23.47a.77.77 0 0 1-.53.19h-.15a.76.76 0 0 1-.51-.22.65.65 0 0 1-.2-.48v-.13c0-.07.03-.13.07-.17.05-.04.11-.07.18-.06l1.12.02Zm-32.36 2.62c.13-.05.25-.13.34-.23l.32-.32a1.04 1.04 0 0 0 .3-.75 1.02 1.02 0 0 0-.33-.73l-.35-.32a1.08 1.08 0 0 0-.76-.3 1.1 1.1 0 0 0-.75.33l-.32.32a1.04 1.04 0 0 0-.3.74 1.02 1.02 0 0 0 .33.73l.35.33a1.08 1.08 0 0 0 .76.29c.14 0 .28-.03.4-.09Zm.55-1.32c.02.42-.4.79-.94.81-.53.02-.99-.3-1-.73-.02-.43.4-.8.93-.81.54-.03 1 .3 1.01.73Zm30.44 1.35c-.02.14-.22.22-.44.18-.21-.03-.37-.17-.35-.3.02-.14.22-.23.44-.2.21.04.37.18.35.32Z" fill="#2F79C2"/><path d="M28.05 43a13.5 13.5 0 1 1-.1-27 13.5 13.5 0 0 1 .1 27Z" fill="#558EC9"/><path d="M25.96 16.62c-.43.8-1.12 1.13-2 1.62-.4.21-.77.34-1.13.38-.32.03-.78.12-1.39.27-.13.04-.28.04-.45.02a.16.16 0 0 1-.1-.26c.56-.64 1.3-.94 2.24-1.34a9.9 9.9 0 0 1 1.84-.59c.3-.06.57-.3.87-.3a.14.14 0 0 1 .11.07.13.13 0 0 1 0 .13ZM29.03 19a.09.09 0 0 0 .05-.06.09.09 0 0 0-.01-.08c-.57-.67-1.34-1.26-.95-1.93a.28.28 0 0 1 .2-.13c.2-.02.39-.1.54-.2a.3.3 0 0 1 .23-.05c.66.1 1.25.41 1.77.94.02.02.04.06.04.1v1c0 .08.02.14.08.19.18.17.29.38.32.63a.14.14 0 0 1-.2.14l-.31-.13a.2.2 0 0 0-.2.02c-.46.34-1.04.34-1.76 0a.2.2 0 0 1-.12-.18.2.2 0 0 1 .13-.18l.19-.08ZM24.66 20.34c.02.16.08.18.18.05.49-.66 1-.78 1.56-.34.73.56.05 1-.15 1.52-.35.9-.66.88-.92-.06a4.55 4.55 0 0 0-.53-.63.16.16 0 0 0-.18-.04c-.34.12-.68.07-1.04-.14a.25.25 0 0 1-.12-.17c-.07-.37.1-.64.53-.8.07-.03.1-.08.08-.16-.08-.37.14-.58.67-.63a.28.28 0 0 0 .24-.2c.01-.04.02-.08 0-.11-.12-.73.56-.87.88-1.2.55-.55.66-.88 1.61-.82a.14.14 0 0 1 .12.1v.05c0 .14-.05.28-.13.42-.04.07-.1.1-.17.12-1 .12-1.6.68-1.78 1.68-.07.38-.17.49-.5.66-.31.18-.4.35-.35.7Z" fill="#F0F3FA"/><path d="m28.77 16.85-.05.04a.06.06 0 0 0 0 .09l1.55 1.84c.02.03.06.03.08.01l.05-.04a.06.06 0 0 0 .01-.09l-1.55-1.84a.06.06 0 0 0-.09-.01Z" fill="#558EC9"/><path d="M27.15 17.74c.33-.1.5.01.53.36l.1 1.17c.03.3-.11.45-.42.45h-1.39a.33.33 0 0 1-.32-.28c-.01-.05 0-.1.01-.15.3-.8.8-1.32 1.5-1.55ZM34.65 19.4c.36-.26.56-.6.45-.76-.12-.15-.5-.07-.86.19-.37.26-.57.6-.45.76.11.15.5.07.86-.19ZM30.58 22.39c.26-.5.03-.74-.43-.95-.4-.18-.77-.42-1.1-.72a.31.31 0 0 0-.22-.08h-.4c-.19 0-.28-.1-.28-.27v-.16c0-.24.12-.36.36-.36h1.86a1.1 1.1 0 0 1 .98.62c.2.43.48 1 .82 1.75a3.62 3.62 0 0 1 .19 2.24.2.2 0 0 1-.22.1 9.85 9.85 0 0 0-2.68-.14 2 2 0 0 1-.65-.21.2.2 0 0 1-.12-.16l-.25-1.4a.1.1 0 0 1 .07-.13h.05c.67.12 1.29.12 1.86 0a.25.25 0 0 0 .16-.13ZM33.61 20.85a.13.13 0 0 0 .17.08l.06-.04c.3-.37.74-.48 1.08-.06.27.35.66.83.4 1.25-.19.3-.4.62-.64.95a.25.25 0 0 0 .02.32c.25.25.37.52.37.8a.26.26 0 0 1-.28.27.27.27 0 0 1-.13-.05l-1.09-.73a.52.52 0 0 1-.14-.16c-.36-.56-.93-.9-1.11-1.46l-.84-1.74a.27.27 0 0 1 .22-.38c.5-.05 1.05.08 1.63.42.06.04.1.09.13.16l.15.37ZM17.82 21.75c.53.76.4 1.5.02 2.4a.47.47 0 0 1-.5.32l-1-.06c-.25-.02-.33-.14-.23-.37a8.3 8.3 0 0 1 1.51-2.35.17.17 0 0 1 .15 0l.05.06ZM24.7 27.93l-.2-.5a.56.56 0 0 1 .18-.65c.35-.27.76-.57 1.07-1 .5-.73.64-1 1.46-1.22.13-.03.22-.09.27-.16.04-.06.03-.17-.02-.34-.06-.16 0-.21.18-.15.05.02.07.08.07.18-.03.5.12.83.14 1.28.08 1.6.04 2.84-.13 3.69-.06.31-.05.63.05.94.05.19.09.51.1.97.03.82 0 1.66-.08 2.52a.24.24 0 0 1-.26.21.24.24 0 0 1-.12-.04 4.39 4.39 0 0 0-1.99-.9c-.43-.07-.72-.2-.88-.38-.07-.09-.12-.08-.16.02-.12.32-.31.56-.56.73a.17.17 0 0 1-.19 0c-.25-.14-.34-.35-.26-.64.21-.76.38-1.63-.32-2.09a.4.4 0 0 1-.09-.58c.2-.23.19-.45-.01-.67a.37.37 0 0 1-.1-.2c-.08-.6-.3-2.4.79-2 .07.03.14.08.19.14l.76.91a.07.07 0 0 0 .12-.07ZM33.48 26.86c.1-.25.22-.4.34-.45.26-.1.31-.04.16.19-.12.18-.27.26-.33.5l-.47 1.94a.45.45 0 0 1-.44.35h-4.25a.37.37 0 0 1-.34-.24.36.36 0 0 1-.02-.14l.05-3.99c0-.27.14-.45.43-.54a.34.34 0 0 1 .21 0c.8.25 1.82.1 2.51.19.63.07.76.93.67 1.4a.42.42 0 0 1-.08.2l-.37.46c-.08.1-.08.2 0 .3l.37.44c.05.05.1.07.16.04l1.24-.5a.27.27 0 0 0 .16-.15ZM15.53 29.42c-.05 0-.07.02-.05.06l.03.08c0 .02.03.03.06.03h2.75c.08 0 .12.04.12.12.01.6-.02 1.04.12 1.52a57.66 57.66 0 0 1 .77 2.99.17.17 0 0 1-.1.12 28.15 28.15 0 0 0-2.7-.1 1 1 0 0 0-.4.09.21.21 0 0 1-.28-.1 9.56 9.56 0 0 1-.9-4.2c0-.08.03-.18.07-.3a.35.35 0 0 1 .13-.15c.07-.06.07-.11 0-.17-.7-.67.36-3.91.73-4.7a.22.22 0 0 1 .22-.14l1.4.1c.1 0 .16.05.2.13l.9 2.25c.03.07.03.15.01.23a5.1 5.1 0 0 0-.12 1.7.4.4 0 0 1-.25.4.41.41 0 0 1-.16.04h-2.55ZM39.84 27.39c.21.46.6.73.88.6.27-.12.32-.6.1-1.06-.2-.46-.6-.73-.87-.6-.27.12-.32.6-.11 1.06ZM22.66 27.52l-.11 1.66a.38.38 0 0 1-.41.36c-.54-.04-1.54-.26-1.33-1.07.2-.73.6-1.21 1.2-1.43a.48.48 0 0 1 .6.25c.04.07.05.15.05.23ZM35.72 29.4h-1.8a.53.53 0 0 1-.52-.44.52.52 0 0 1 .02-.25c.22-.63.65-1.17 1.3-1.61a.29.29 0 0 1 .2-.06l1.65.23a.76.76 0 0 1 .52.32c.07.1.03.25-.1.43a22.06 22.06 0 0 1-1.2 1.37.17.17 0 0 1-.07.02Z" fill="#F0F3FA"/><path d="m18.95 29.48-.1-.05a.25.25 0 0 1-.13-.19 3.31 3.31 0 0 1 .14-1.78.16.16 0 0 1 .2-.1l.06.04c.32.3.93 1.09.8 1.57-.07.2-.12.33-.17.36-.27.2-.24.28.1.2.3-.05.53-.06.86.08.53.22 1.1.53 1.7.93.67.44.79 1.16.85 1.88.05.61.24.97.26 1.54a.3.3 0 0 1-.18.28.3.3 0 0 1-.12.03h-2.88a.97.97 0 0 1-.94-.7l-.66-2.4c-.13-.48-.16-.93-.1-1.32a.2.2 0 0 1 .13-.18l.17-.06c.09-.04.1-.08 0-.13Z" fill="#F0F3FA"/><path d="M26.34 30.06c-.26-.21-.28-.36-.74-.42-.58-.1-1.26-.11-2.05-.07-.03 0-.05-.01-.06-.04l-.03-.08c0-.01 0-.03.02-.03.23-.05.62-.1 1.16-.15.37-.03.77.18 1.23.19a46 46 0 0 1 1.15.04c.11 0 .12.04.04.12l-.54.44c-.06.05-.12.05-.18 0Z" fill="#558EC9"/><path d="M32.69 33.62c.37-1.45.59-2.45.62-3.53a.56.56 0 0 1 .65-.54 5 5 0 0 0 1.89-.03.32.32 0 0 1 .36.2c.02.04.03.09.02.14a7.5 7.5 0 0 1-.12.83c-.1.51.56 1.3.83 1.67a.48.48 0 0 1-.01.55c-.2.29-.33.63-.37 1.03a.34.34 0 0 1-.34.3h-3.04a.5.5 0 0 1-.5-.4.5.5 0 0 1 0-.22ZM32.03 34.23h-3.44a.47.47 0 0 1-.47-.46v-3.71a.46.46 0 0 1 .47-.47h4.17a.47.47 0 0 1 .45.35c.02.07.02.14 0 .2l-.72 3.72a.46.46 0 0 1-.46.37ZM39.38 30.5c-.02.09-.01.17.02.18.04 0 .08-.06.1-.16.03-.1.02-.17 0-.18-.04-.01-.1.06-.12.15ZM39.28 31.1v-.04a.48.48 0 0 0 .02-.06c.02.28-.03.55-.15.81-.01.03-.03.04-.06.03l-.06-.03a.07.07 0 0 1-.04-.08c.08-.23.17-.44.29-.64ZM37.06 32.9a.3.3 0 0 1 .17-.14c.57-.17 1.1-.25 1.62-.25.33.01.49.18.47.5l-.05.75c-.03.37-.22.55-.59.55h-1.54a.27.27 0 0 1-.27-.24c-.03-.49.03-.88.2-1.17ZM31.73 35.98c-.14.34-.4.43-.76.26l-1.45-.74c-.35-.18-.48-.46-.38-.84a.22.22 0 0 1 .15-.15c.84-.27 1.67-.1 2.53-.06a.23.23 0 0 1 .22.23c.01.34-.1.77-.3 1.3ZM30.87 40.82c-1.46 1.2-1.41 1.26.13.17.57-.4 1.1-.84 1.59-1.31.3-.29.62-.4.95-.58a.46.46 0 0 0 .17-.15l3.06-4.5c.04-.06.1-.08.18-.06.62.16 1.3.17 2.06.03a.2.2 0 0 1 .2.07c.19.24.2.52.03.84-.28.54-.46.94-.55 1.19-.19.55-.37.95-.52 1.2-.42.64-.96 1.1-1.62 1.38a.19.19 0 0 0-.12.16.91.91 0 0 1-.39.63 15.09 15.09 0 0 1-5.57 2.56c-.4.1-.8.1-1.22.02a.18.18 0 0 1-.13-.22c0-.03.02-.06.04-.08.2-.22.25-.47.14-.75a.25.25 0 0 1 .02-.22l1.03-1.79a.61.61 0 0 1 .6-.3c.46.05.8.08 1.03.09.67.01.73.21.2.61l-1.31 1ZM19.09 34.45c.2 0 .43.08.69.25a.28.28 0 0 1 .12.18c.1.45.36.99.8 1.62a63.79 63.79 0 0 0 1.69 2.31.14.14 0 0 1-.14.17c-.63.04-1.27.03-1.92-.05-.14-.02-.4.04-.76.17a.27.27 0 0 1-.22 0c-1.32-.66-2.28-2.31-3.13-3.76-.17-.29-.23-.53-.19-.74a.26.26 0 0 1 .27-.2 30 30 0 0 0 2.79.05Z" fill="#F0F3FA"/><path d="M23.69 39.17c-.48-.16-.8-.33-.98-.5A13.96 13.96 0 0 1 20 34.88a.3.3 0 0 1 .12-.4.3.3 0 0 1 .15-.03h2.55c.2 0 .3.1.26.3-.06.42-.11.74.08 1.13.18.39.38.76.57 1.13.2.36.45.55.78.84.38.32.57.67.22 1.07a.23.23 0 0 0-.06.2c.06.34.02.63-.13.85a.4.4 0 0 1-.49.15.4.4 0 0 1-.15-.1c-.2-.23-.25-.47-.15-.72.03-.07 0-.12-.06-.14ZM31.95 36.82l-.16-.41a.25.25 0 0 1 0-.23c.26-.45.4-.9.42-1.36a.29.29 0 0 1 .1-.2c.33-.3.84-.1 1.17-.12.38 0 1.15-.03 2.32-.07a.38.38 0 0 1 .34.19.37.37 0 0 1 0 .37 22.93 22.93 0 0 1-2.56 3.55c-.1.12-.31.26-.61.43a1 1 0 0 1-.7.1 10.6 10.6 0 0 0-1.27-.15.11.11 0 0 1-.05-.12c.13-.66.44-1.22.94-1.68a.27.27 0 0 0 .06-.3Z" fill="#F0F3FA"/><path d="M35.1 39.19c.6-.04 1.07-.12 1.06-.18 0-.06-.48-.08-1.07-.05-.59.04-1.06.12-1.06.18s.49.08 1.07.05Z" fill="#558EC9"/><path d="M22.4 39.07c.06 0 .11 0 .16.02.6.29 1.12.71 1.56 1.26.33.42.26.93.09 1.42a.29.29 0 0 1-.37.18 16.9 16.9 0 0 1-4.02-2.11.48.48 0 0 1-.2-.28.44.44 0 0 1 .04-.32c.05-.08.15-.12.32-.12.72 0 1.58.14 2.42-.05ZM28.59 42.2h-.01a.04.04 0 0 1-.03.02h-.02l-.17-.1c-.19-.12-.3-.34-.3-.64-.01-.3.09-.65.27-.97l.02-.05c.18-.31.43-.58.7-.72.25-.15.5-.18.7-.07l.17.1a.04.04 0 0 1 .02.05l-1.35 2.38ZM27.05 42.07c-.27.46-.76.57-1.47.33-.24-.08-.32-.24-.22-.48l.03-.06c.1-.28.27-.38.52-.3l.95.3a.15.15 0 0 0 .18-.07.14.14 0 0 0 .01-.07c0-.2.02-.37.07-.52a.27.27 0 0 1 .2-.18.28.28 0 0 1 .26.08c.15.16.2.37.18.63 0 .08-.06.13-.14.15l-.4.07a.23.23 0 0 0-.17.12Z" fill="#F0F3FA"/></svg>