<!-- by TradingView --><svg width="56" height="56" viewBox="0 0 56 56" xmlns="http://www.w3.org/2000/svg"><path fill="#F0F3FA" d="M0 0h56v56H0z"/><path d="m37.13 30.4.87.11-.4 2.53c-1.13.64-2.3.96-3.53.96-3.38 0-5.07-2.16-5.07-5.98 0-3.6 1.5-6.02 5.37-6.02 1.3 0 2.44.12 3.42.35l.18 3.03-.89.1-.88-1.78a1.2 1.2 0 0 0-.58-.54 3.02 3.02 0 0 0-1.16-.16c-2.64 0-2.96 2.99-2.96 5.02 0 1.83.27 5.02 2.76 5.02a2 2 0 0 0 1.75-.89l1.12-1.75ZM18.5 25.05l.17-3.05h9.17l.16 3.05-.8.1-.72-1.43a2.46 2.46 0 0 0-.39-.57c-.1-.1-.26-.15-.47-.15H24.5v9.55c0 .18.02.3.06.4.03.06.1.1.21.13l.73.19V34H21v-.73l.75-.19c.1-.03.17-.07.2-.14s.05-.2.05-.39V23h-1.12c-.2 0-.36.05-.47.15-.1.1-.23.29-.38.57l-.72 1.44-.81-.1ZM12 23c-2.49 0-2.48 3.14-2.48 5 0 1.84-.08 5 2.48 5 2.48 0 2.5-3.24 2.5-5 0-1.77-.08-5-2.5-5Zm.03-1c3.68 0 4.97 2.51 4.97 5.94 0 3.29-1.38 6.06-5 6.06-3.73 0-5-2.65-5-6.06C7 24.5 8.36 22 12.03 22ZM44 23c-2.49 0-2.48 3.14-2.48 5 0 1.84-.08 5 2.48 5 2.48 0 2.5-3.24 2.5-5 0-1.77-.08-5-2.5-5Zm.03-1c3.68 0 4.97 2.51 4.97 5.94 0 3.29-1.38 6.06-5 6.06-3.73 0-5-2.65-5-6.06C39 24.5 40.36 22 44.03 22Z" fill="#E36C0A"/></svg>