<!-- by TradingView --><svg width="56" height="56" viewBox="0 0 56 56" xmlns="http://www.w3.org/2000/svg"><path fill="#F0F3FA" d="M0 0h56v56H0z"/><circle cx="28" cy="28" r="16" fill="#050708"/><circle cx="28" cy="28" r="15" fill="#ED1F25"/><path d="m19.68 20.27 1.53-1.24h8.48c1.63 0 3.03 1 3.67 2.44A2.85 2.85 0 0 1 36.14 19c1.55 0 2.81 1.3 2.81 2.92 0 .82-.32 1.56-.85 2.09h.42l-.78 7.56c-.01.07.04.13.11.13H39l-.6 4.06L37.03 37h-8.7l.26-2.65c1.68-1.37 2.37-2.25 2.41-2.78.03-.33 0-.6 0-.7-.78-.01-2.83.98-4.15 2.77l-.23 2.12L25.34 37H18c.43-3.8 1.36-13.17 1.68-16.73Z"/><path d="M36.14 24.36a2.4 2.4 0 0 0 2.36-2.44 2.4 2.4 0 0 0-2.36-2.45 2.4 2.4 0 0 0-2.36 2.45 2.4 2.4 0 0 0 2.36 2.44ZM21.61 19.5l-.37 3.15h1.19c.37 0 .66.34.62.72l-.79 7.78a.92.92 0 0 1-.9.85h-1.51l-.43 3h6.8l.45-3h-.62c-.34 0-.6-.3-.56-.65l.16-1.35h4.04c1.45 0 2.7-1.08 3.26-2.37h.6c.36 0 .65.33.62.72l-.33 2.8a.92.92 0 0 1-.9.85h-1.3l-.42 3h6.8l.45-3h-.62c-.34 0-.6-.3-.57-.65l.74-6.87h-4.75v-1.27c0-2.05-1.6-3.7-3.58-3.7H21.6ZM26 27l.38-4h1.77c1.03 0 1.87.82 1.87 1.9 0 1.07-.84 2.1-1.87 2.1H26Z" fill="#fff"/></svg>