<!-- by TradingView --><svg width="56" height="56" viewBox="0 0 56 56" xmlns="http://www.w3.org/2000/svg"><path fill="#F0F3FA" d="M0 0h56v56H0z"/><path d="M44 33V23h4.17c2.68 0 3.83 2.64 3.83 4.96C52 30.5 50.84 33 47.98 33H44Zm3-1h.48c1.54 0 1.52-3.11 1.52-3.99 0-.86.01-4.01-1.52-4.01H47v8ZM43 23v1.5h-2V33h-3v-8.5h-2V23h7ZM33 23v8.5h3V33h-6V23h3ZM26 23l-2 6.32V33h-3v-3.68L19 23h3l1.45 4.5 1.4-4.5H26ZM17.78 28.8l1.2.37.02.8c0 1.88-1.38 3.03-3.22 3.03-2.74 0-3.78-2.39-3.78-4.78 0-2.35 1.08-5.22 3.83-5.22 1.14 0 1.94.43 2.4 1.3.16.33.27.66.32 1 .02.22.04.5.05.85l-1.2.65.02-.8c0-.63-.11-1.11-.34-1.47-.22-.35-.51-.53-.88-.53-1.2 0-1.2 3.74-1.2 4.6 0 .97 0 3.4 1.37 3.4 1.1 0 1.47-1.26 1.47-2.15 0-.28-.02-.63-.06-1.05ZM4 33V23h4.17c1.7 0 2.83 1.2 2.83 2.9C11 27.9 9.62 29 7.7 29H7v4H4Zm3-5h.08c.94 0 .92-1.38.92-2.03C8 25.32 8 24 7.08 24H7v4Z" fill="#6A6A6A"/></svg>