<!-- by TradingView --><svg width="56" height="56" viewBox="0 0 56 56" xmlns="http://www.w3.org/2000/svg"><path fill="#F0F3FA" d="M0 0h56v56H0z"/><path d="M31.7 43.15c-.48.05-.97.08-1.46.08-7.17 0-12.99-5.61-12.99-12.54 0-5.32 3.44-9.87 8.29-11.69-6.5.7-11.54 6.01-11.54 12.46C14 38.4 19.81 44 26.99 44c1.66 0 3.24-.3 4.7-.85ZM24.4 12.85c.48-.05.96-.08 1.45-.08 7.13 0 12.91 5.61 12.91 12.54 0 5.32-3.41 9.87-8.23 11.69C36.98 36.3 42 30.99 42 24.54 42 17.6 36.22 12 29.09 12c-1.65 0-3.23.3-4.68.85Z" fill="#2F85B4"/><path d="M26.49 23.47c.25-.02.5-.04.77-.04 3.8 0 6.87 3.15 6.87 7.02A7.02 7.02 0 0 1 29.75 37a6.97 6.97 0 0 0 6.1-6.98A6.95 6.95 0 0 0 28.99 23c-.88 0-1.72.17-2.5.47Z" fill="#1EAB5C"/></svg>