<!-- by TradingView --><svg width="56" height="56" viewBox="0 0 56 56" xmlns="http://www.w3.org/2000/svg"><path fill="#F0F3FA" d="M0 0h56v56H0z"/><path d="M9 23c4.53-.41 6.55-2.84 7-4a6.51 6.51 0 0 1-4.58 2.34c-1.14.07-2.1.94-2.42 1.66Z" fill="#133C87"/><path d="M9.15 24.6c2.7-.22 5.02-2.5 5.85-3.6-1.03.97-2.13 1.86-5.85 2.51C5.42 24.17 4.28 27.38 4 29c.53-.97 2.98-4.25 5.15-4.4Z" fill="#0073AB"/><path fill-rule="evenodd" d="M16.9 24h-2.98L12 33h3.22l.64-3H22c1.16 0 2.16-.62 2.4-1.65l.56-2.42c.23-1-.6-1.93-1.72-1.93H16.9Zm-.2 2-.42 2h5.4l.32-2h-5.3Z" fill="#0073AB"/><path d="M27.36 25.81A2.25 2.25 0 0 1 29.59 24h6.78c1.02 0 1.79.9 1.6 1.88l-.39 2.07h-2.47L35.5 26h-4.56a1 1 0 0 0-.98.8L28.7 33H26l1.36-7.19Zm7.38 3.94L34.08 33h2.55l.61-3.25h-2.5Z" fill="#0073AB"/><path d="M33.31 27H40l-.31 1H33l.31-1ZM32.31 29H39l-.31 1H32l.31-1Z" fill="#133C87"/><path d="M44.57 24H43c-.75 0-1.4.54-1.54 1.3L40 33h2.86l1.04-5.44L47.13 33h1.42c.94 0 1.75-.67 1.94-1.6L52 24.03h-2.86l-1.08 5.67-3.5-5.7Z" fill="#0073AB"/></svg>