<!-- by TradingView --><svg width="56" height="56" viewBox="0 0 56 56" xmlns="http://www.w3.org/2000/svg"><path fill="#F0F3FA" d="M0 0h56v56H0z"/><ellipse cx="28" cy="28" rx="23" ry="12" fill="url(#axcj0e1o3)"/><ellipse cx="28" cy="28" rx="20.79" ry="10.89" fill="#EE1C25"/><path d="M33 28a2.95 2.95 0 0 1 3-3c.78 0 1.46.25 2 .73A3 3 0 0 1 39 28a3 3 0 0 1-1 2.27 2.9 2.9 0 0 1-2 .73 2.9 2.9 0 0 1-2-.73A3 3 0 0 1 33 28Zm1.54 0c0 .95.64 1.6 1.46 1.6s1.46-.65 1.46-1.6c0-.95-.64-1.61-1.46-1.61-.8 0-1.46.66-1.46 1.61ZM30 29.46v-3.33h-.63V25h2.87v1.13h-.63v3.4c0 .79 0 1.36-.34 1.8-.33.47-.9.67-1.73.67h-.3v-1.35h.14c.22 0 .37-.01.47-.1.13-.12.15-.35.15-.72v-.37ZM23 31v-1.2h.59v-3.6H23V25h2.06L27 28.3v-2.1h-.67V25H29v1.2h-.58V31h-1.26L25 27.38v2.42h.67V31H23Z" fill="#fff"/><path d="M39 31v-1.2h.59v-3.6H39V25h2.06L43 28.3v-2.1h-.67V25H45v1.2h-.58V31h-1.26L41 27.38v2.42h.67V31H39ZM18.44 27.93h1.1l-.55-1.9-.55 1.9ZM16 31v-1.2h.48l1.07-3.6h-.57V25h4.03v1.2h-.56l1.06 3.6H22V31h-2.5v-1.2h.5l-.22-.8H18.2l-.21.8h.5V31H16ZM11 31v-1.2h.47v-3.6H11V25h3.01c1.24 0 1.99.74 1.99 1.9s-.75 1.9-1.99 1.9H13v1h.74V31H11Zm2-4.8v1.48h.53c.63 0 .94-.25.94-.75 0-.49-.31-.73-.94-.73H13Z" fill="#fff"/><path d="M49 28c0 6.08-9.4 11-21 11S7 34.08 7 28s9.4-11 21-11 21 4.92 21 11Zm-23.02 9.95c7.59-.49 11.77-3.55 13.4-4.94-1.35 1.86-4.29 3.64-6.33 4.67C41.65 36.56 48 32.65 48 28c0-5.52-8.95-10-20-10S8 22.48 8 28c0 5.18 7.88 9.44 17.98 9.95Z" fill="url(#bxcj0e1o3)"/><path d="M28 19c-5.07.05-15.8 1.51-19 7 1.16-1.51 6.05-6.17 19-6.18 12.95.01 17.84 4.67 19 6.18-3.2-5.49-13.93-6.95-19-7Z" fill="#FFF8F5"/><defs><linearGradient id="axcj0e1o3" x1="51" y1="28" x2="5" y2="28" gradientUnits="userSpaceOnUse"><stop stop-color="#BCBCC4"/><stop offset=".17" stop-color="#5B6269"/><stop offset=".82" stop-color="#4B535A"/><stop offset="1" stop-color="#C3C4C9"/></linearGradient><linearGradient id="bxcj0e1o3" x1="49" y1="24.84" x2="11.12" y2="31.48" gradientUnits="userSpaceOnUse"><stop offset=".31" stop-color="#C7C8CC"/><stop offset=".52" stop-color="#FDFFFF"/><stop offset=".7" stop-color="#B8B6B9"/></linearGradient></defs></svg>