<!-- by TradingView --><svg width="56" height="56" viewBox="0 0 56 56" xmlns="http://www.w3.org/2000/svg"><path fill="#1B5197" d="M0 0h56v56H0z"/><path d="M51 30.6c0 2.42-2.33 3.4-4.52 3.4a7.92 7.92 0 0 1-3.48-.7V31c1.17.47 2.39.96 3.68.96.82 0 1.65-.3 1.65-1.25 0-.65-.5-1.05-1.05-1.32-.35-.19-.76-.38-1.22-.59-.28-.13-.6-.28-.93-.46-1.18-.65-2.13-1.66-2.13-3.02 0-2.27 2.17-3.32 4.3-3.32 1.27 0 2.49.34 3.65.82l-.84 1.93a8.05 8.05 0 0 0-2.9-.69c-.75 0-1.54.37-1.54 1.2 0 .61.53.96 1.05 1.22l1.29.62c1.57.71 2.99 1.67 2.99 3.5ZM41 28c0 3.24-1.75 6-5.5 6-3.78 0-5.5-2.77-5.5-6.02 0-3.26 1.75-5.98 5.52-5.98 3.74 0 5.48 2.76 5.48 6Zm-8.25 0c0 1.8.43 3.93 2.75 3.93 2.33 0 2.75-2.11 2.75-3.94 0-1.82-.4-3.93-2.73-3.93s-2.77 2.1-2.77 3.93ZM24.93 34l-.98-2.57h-4.9L18.07 34H15l5.14-12h2.66L28 34h-3.07Zm-3.43-9.35c-.49 1.66-1.14 2.96-1.73 4.6h3.5c-.6-1.64-1.28-2.94-1.77-4.6ZM9.16 22C11.7 22 14 23.32 14 26c0 2.78-2.4 4-5.06 4H8v4H5V22h4.16Zm-.14 2H8v4h.67c1.25 0 2.33-.62 2.33-2 0-1.2-.49-2-1.98-2Z" fill="#fff"/></svg>