<!-- by TradingView --><svg width="56" height="56" viewBox="0 0 56 56" xmlns="http://www.w3.org/2000/svg"><path fill="#F0F3FA" d="M0 0h56v56H0z"/><path d="M31 44V16c5.68 0 11 5.14 11 11.5 0 6-4.76 10.97-10 11.5v5h-1Zm10-16.5c0-6.04-4.9-10.12-9-10.5v21c4.5-1 9-4.46 9-10.5Z" fill="#2360C5"/><path fill-rule="evenodd" d="m29.59 40.67-.65 4.08a.27.27 0 0 1-.13.2c-.15.08-.28.06-.4-.06a1.2 1.2 0 0 1-.3-.62c-.1-.64-.19-1.28-.25-1.94-.05-.63-.62-.97-1.1-.5-.43.4-.93.75-1.51 1.03-.53.26-.91.6-1.32.98l-.26.24c-.25.22-.5.32-.77.28-.36-.03-.08-.4.05-.53.3-.3.64-.65.52-1.06a.3.3 0 0 0-.32-.21c-.5.06-.92.24-1.28.54-.29.22-.74.24-1.02-.02a.2.2 0 0 1-.02-.25c.4-.57.92-.94 1.56-1.12.3-.08.43-.45.27-.7-.2-.32-.43-.6-.68-.83-.37-.34-1.1-.49-1.48-.03-.4.5-.9 1-1.5 1.23-.15.06-.3-.1-.26-.25l.24-.8a.32.32 0 0 0-.26-.41 2.3 2.3 0 0 0-1.78.43c-.17.11-.42 0-.4-.23.07-.7.93-.85 1.58-.97.56-.1 1.01-.44.39-.87-.42-.28-.94-.63-1.39-.25l-.28.26c-.46.42-1.08 1-1.55.88a.24.24 0 0 1-.16-.33c.2-.4.44-.79.72-1.16.96-1.26-1.16-2.27-2.13-2.25a2 2 0 0 1-.79-.14c-.1-.04-.13-.18-.04-.26.7-.6 1.49-.84 2.38-.73a.47.47 0 0 0 .48-.27c.33-.72.92-2.52.33-3.07-.38-.35-.79-.7-1.23-1.06-.17-.14-.28-.3-.4-.46-.13-.2-.28-.38-.55-.37-.96.03-1.8-.1-2.5-.4-.55-.23-.53-.42.04-.56l1.83-.45c.1-.03.16-.1.17-.2.08-.55-.62-1.06-1.09-1.4-.23-.16-.43-.52-.06-.68.34-.14.76-.03 1.17.09.56.15 1.1.3 1.41-.21.09-.14.21-.3.34-.45.27-.35.58-.73.57-1.09a60.4 60.4 0 0 1 0-3.57c.01-.45-.1-.88-.54-1.09-1.06-.5-1.06-1.78-.96-2.8.02-.17.24-.24.36-.11.38.45.86.84 1.43 1.18.46.27.99-.03 1.09-.53.07-.36.12-.72.16-1.1.06-.47.68-.4.78 0 .14.54.23 1.12.27 1.72.03.44.33.76.8.68.1-.01.17-.06.24-.13.61-.69 1.12-2 .69-2.95-.3-.67-.54-1.4-.72-2.2a.58.58 0 0 1 .3-.64c.19-.09.4.04.65.37l.06.1c.21.49.61.65 1.21.47a.25.25 0 0 0 .16-.14c.2-.44.27-.92.18-1.43-.03-.28-.01-.5.04-.64.1-.28.48-.32.65-.08.5.77.48 1.49.46 2.28 0 .17-.13.74.14.8.35.08.63-.02.82-.32.58-.88 1.18-1.79 1.18-2.87 0-.41-.22-.77-.34-1.16-.17-.58 0-.7.5-.39.91.59.84 1.4.77 2.23-.04.44-.08.89.02 1.32.05.2.31.29.47.16.96-.74.98-2.04.92-3.16-.01-.27.07-.3.24-.1.3.35.56.74.78 1.16.33.61.3 1.37.28 2.09l-.01.46c0 .39.08.75.25 1.08.23.44.67 1.18.89 1.59-2.54.47-4.2 1.88-6 3.5a13.88 13.88 0 0 0-2.56 3.03c-2.04 3.28-1.29 5.27.43 8.53 1.87 3.56 3.72 7.33 7.72 7.92v1.69Zm-7.72-24.29c-.01-.18.14-.27.3-.28.24-.01.47.06.65.2.18.15.29.35.3.56.04.5-.4.88-.86.9-.16.01-.32-.06-.33-.24l-.06-1.14Zm-2.51 4.58-.72-.83c-.24-.3-.73-.1-.71.29l.09 1.58c.02.45.8.6 1 .21l.4-.8a.42.42 0 0 0-.06-.45Zm-3.52 6.72c-.97-.83 1.73-2.08 1.92-.44.03.22.17.84-.09 1a.2.2 0 0 1-.06.02c-.6.1-1.2-.09-1.77-.58Zm3.43 5.77-.75.26a.35.35 0 0 0-.17.11l-.55.69c-.24.28.08.7.41.56l1.57-.65c.23-.1.3-.4.13-.58l-.27-.3a.36.36 0 0 0-.37-.09Zm1.18 3.87c-.31.47-.4.96-.2 1.1.2.13.63-.14.94-.61.3-.48.4-.97.19-1.1-.2-.14-.62.13-.93.6Zm4.88 3.39.37-1.04c.1-.3-.19-.59-.47-.49l-.66.22a.38.38 0 0 0-.25.3l-.12.7c-.03.2.09.38.27.44l.4.1c.2.06.4-.05.46-.23Z" fill="#FC1628"/><path d="m31 16.03-.78-.03C24.02 16 19 21.15 19 27.5S24.02 39 30.22 39c.26 0 .52 0 .78-.03V16.03Z" fill="#FFFF39"/></svg>