<!-- by TradingView --><svg width="56" height="56" viewBox="0 0 56 56" xmlns="http://www.w3.org/2000/svg"><path fill="#F0F3FA" d="M0 0h56v56H0z"/><path fill-rule="evenodd" d="M25.71 26.27a76.72 76.72 0 0 1-1.61 5c-.18.49-.5 1.14-1 1.96-.7 1.18-1.5 2.41-2.4 3.72a23.68 23.68 0 0 1-4.6 5c-.6.49-1.33.88-2.17 1.19-.29.1-.55.16-.8.16-.16 0-.17-.04-.04-.13a20.38 20.38 0 0 0 4.7-4.4c.48-.62 1.02-1.47 1.61-2.55.61-1.12 1.1-2 1.44-2.66A25.1 25.1 0 0 0 23.01 28c.31-1.22.51-1.98.6-2.28.03-.11-.01-.18-.13-.2a1.26 1.26 0 0 1-.71-.35.12.12 0 0 1-.03-.14.12.12 0 0 1 .1-.08l1.05-.1a.34.34 0 0 0 .3-.23c.32-.77.72-1.72 1.23-2.84 1.73-3.8 5.87-9.19 10.44-9.72.9-.1 1.84-.09 2.79.05.24.04.42.1.55.2 1.36 1 1.95 2.53 1.77 4.58-.06.61-.23 1.3-.5 2.07a14.37 14.37 0 0 1-3.5 5.24c-.69.69-1.44 1.2-2.24 1.54-.55.24-1.42.48-2.6.73-2.12.44-4.24.36-6.34-.26-.04 0-.06 0-.08.05ZM37.1 13.15c.25-.1.74-.13 1.46-.08.5.03.82.28.97.74.11.34.12.77.02 1.28-.47 2.47-1.18 4.33-2.12 5.58a11.68 11.68 0 0 1-3.9 3.47c-.73.38-1.4.69-2 .92a7.82 7.82 0 0 1-5.13.12c-.12-.04-.17-.12-.13-.24a8.2 8.2 0 0 1 1.3-2.44c.42-.58.8-1.14 1.17-1.68 2.23-3.27 4-5.84 8.36-7.67ZM25.85 34.37c.1.02.14.08.1.18-.21.46-.5.93-.87 1.42-.34.46-.95 1.32-1.82 2.6-.49.73-1 1.36-1.53 1.89a41.3 41.3 0 0 1-5.03 4.36.07.07 0 0 0-.03.09c0 .03.03.05.06.06a3.99 3.99 0 0 0 1.46-.09c1.2-.2 2.2-.72 3.02-1.55a56.93 56.93 0 0 0 7.69-9.72c.13-.2.27-.32.43-.35.27-.04.66-.12 1.18-.25a.34.34 0 0 0 .17-.1c.32-.36.6-.75.82-1.19a.17.17 0 0 0 0-.17.17.17 0 0 0-.17-.09h-1.1a.12.12 0 0 1-.1-.06.12.12 0 0 1 0-.13c.25-.47.61-.95 1.08-1.42 1.1-1.1 2.39-1.95 3.84-2.53.24-.1.36-.25.35-.47 0-.13-.07-.2-.2-.2-1.2 0-2.43.26-3.69.76-.64.26-1.21.66-1.72 1.2-.94 1-1.85 2.1-2.74 3.27a.58.58 0 0 1-.43.24l-1.4.13a.6.6 0 0 0-.55.44l-.37 1.16c-.09.28.02.41.31.4.42 0 .83.03 1.24.12Z" fill="#8D9CA3"/></svg>