<!-- by TradingView --><svg width="56" height="56" viewBox="0 0 56 56" xmlns="http://www.w3.org/2000/svg"><path fill="#F0F3FA" d="M0 0h56v56H0z"/><path d="M34.93 16.98a.96.96 0 0 1-.61-.14.68.68 0 0 0-.29-.08c-.1 0-.17-.02-.21-.03a50.45 50.45 0 0 0-2.73-.77 320.9 320.9 0 0 1-4.84-1.4.37.37 0 0 0-.3.04l-2.72 1.65h-.03l-.04-.05.01-.05 2.81-2.17a.3.3 0 0 0 .12-.2c.04-.2.04-.42 0-.65 0-.04 0-.08.04-.1a.1.1 0 0 1 .11-.02c2.55 1 5.2 2.1 7.95 3.27.36.15.74.34 1.14.55.06.04.09.09.1.15v.12c0 .08-.03.1-.1.05l-.2-.12a.35.35 0 0 0-.21-.05Z" fill="#32668A"/><path d="m35.42 19.35-9.35-2.23h-.02l-2.88 1.47h-.03l-.02-.04v-.04l2.98-2 .01-.03.02-.93c0-.02.01-.03.04-.02l9.15 3.42.02.02.12.34v.03h-.04Z" fill="#32668A"/><path d="M27.3 18.57c-.1.07-.24.1-.4.09a.27.27 0 0 0-.18.04c-.14.1-.25.22-.34.37-.04.06-.03.11.03.15l.88.6c-.4.01-.76-.04-1.09-.15a.26.26 0 0 0-.18 0l-2.95 1.3c-.01 0-.02 0-.03-.02l-.03-.04c0-.03 0-.04.02-.06l2.93-1.73a.34.34 0 0 0 .14-.16.32.32 0 0 0 .02-.2 1.14 1.14 0 0 1 0-.51c.02-.08.06-.1.14-.07l1.03.39Z" fill="#090E0F"/><path d="m27.3 18.57 8.03 2.71c.07.03.1.08.1.15l-.02.05c0 .04-.02.05-.06.04l-7.3-1.46a2.33 2.33 0 0 1-.76-.24l-.88-.6c-.06-.04-.07-.1-.03-.15.09-.15.2-.27.34-.37a.27.27 0 0 1 .18-.04c.16.01.3-.02.4-.1ZM25.97 21.64c.1-.06.16-.14.16-.26v-.6c0-.1.05-.13.14-.1a585 585 0 0 1 8.54 2.53c.2.06.4.16.57.3.17.13.14.19-.07.17-.46-.04-.92-.09-1.36-.16-2.68-.42-5.22-.84-7.6-1.27a1.31 1.31 0 0 0-.67.06 67.17 67.17 0 0 0-2.62.94l-.02-.05c-.01-.03 0-.05.02-.06l2.9-1.5Z" fill="#32668A"/><path d="m15.33 21.82-.05-.3c-.01-.08.02-.12.1-.12.33 0 .66.07.98.2.2.07.48.15.86.24.35.07.61.14.8.2.26.1.53.18.79.22.37.05.74.14 1.1.27 1.05.37 2 .66 2.84.87.08.02.13.07.14.14.02.09 0 .18-.05.28a.14.14 0 0 1-.14.07l-.56-.02c-.17 0-.34-.02-.51-.06a139.27 139.27 0 0 0-5.2-1.12c-.36-.1-.62-.15-.8-.16-.3-.03-.56.02-.8.14-.7.37-1.39.7-2.06.98h-.05a.05.05 0 0 1-.03-.05c.01-.1.04-.18.1-.26a.43.43 0 0 1 .24-.18c.62-.2 1.21-.47 1.77-.82a1 1 0 0 0 .2-.2c.1-.1.19-.18.26-.2.06-.02.08-.06.07-.12Z" fill="#D5901D"/><path d="m15.27 23.73.1-.52c.03-.1.09-.13.18-.08l.2.09c.22.1.4.17.54.2l4.3 1.07c.37.1.74.16 1.11.21.11.02.26.07.43.16.18.1.32.15.43.16.26.03.37.18.35.45 0 .07-.04.1-.1.1-.33 0-.64-.03-.92-.1a44.1 44.1 0 0 0-2.64-.5c-.93-.16-1.62-.29-2.08-.39-.97-.2-1.7-.26-2.17-.15-.19.04-.36.1-.54.18-.52.23-1.05.44-1.62.6-.03.01-.05 0-.06-.03l-.02-.04v-.01l1.3-.62a.21.21 0 0 0 .12-.16.72.72 0 0 1 .14-.31c.06-.07.12-.1.21-.1.21.02.4 0 .6-.06a.2.2 0 0 0 .14-.15Z" fill="#D5901D"/><path d="M34.41 25.79c-.4-.02-.8-.05-1.2-.1-2.24-.26-4.41-.54-6.5-.85a2.66 2.66 0 0 0-1.05.04 79.44 79.44 0 0 0-2.62.67c0-.02 0-.04.02-.05.87-.43 1.78-.83 2.75-1.2.2-.07.3-.21.3-.42l.03-.59c0-.1.05-.12.14-.08l.1.05.22.1c2.92.7 5.84 1.5 8.76 2.36.06.02.09.06.08.12 0 .03 0 .04.03.06.02.01.02.02 0 .02-.36.07-.68.03-.95-.1a.27.27 0 0 0-.1-.03Z" fill="#32668A"/><path d="M14.86 25.9c.33-.13.51-.37.53-.72 0-.04.03-.07.06-.1a.13.13 0 0 1 .12-.02c1.3.36 2.57.64 3.81.83.27.05.55.12.84.2.13.05.32.09.58.13a4 4 0 0 1 .6.13c.37.13.74.22 1.13.29.17.03.3.11.38.26a.2.2 0 0 1 0 .21.2.2 0 0 1-.18.1 3.7 3.7 0 0 1-1.12-.14c-.35-.1-.9-.2-1.63-.27-.54-.05-.94-.1-1.2-.16-.3-.06-.73-.12-1.31-.2a16.2 16.2 0 0 1-1.85-.32.38.38 0 0 0-.22 0 84 84 0 0 1-2.5.74c-.03 0-.05 0-.06-.02-.01-.03 0-.05.02-.06.66-.31 1.33-.6 2-.88Z" fill="#D5901D"/><path d="M35.27 28.12c-.51.02-1 0-1.43-.07-.38-.06-.75-.1-1.13-.1-.32 0-.64-.02-.95-.07-.33-.05-.64-.09-.95-.11a63.23 63.23 0 0 1-3.9-.4 4.6 4.6 0 0 0-1.39.03l-1.39.25c-1.33.25-1.35.17-.06-.25l.5-.15c.7-.2 1.2-.39 1.48-.56.06-.03.1-.09.1-.16l-.01-.6c0-.14.07-.2.2-.16l8.81 2.07c.04.01.07.03.1.07l.06.06c.16.09.15.14-.04.15Z" fill="#32668A"/><path d="M15.35 27.4v-.19c-.02-.25.1-.35.36-.3.83.17 1.64.32 2.42.45.08.01.19.05.33.11s.25.1.33.1l1.94.26c.34.04.7.12 1.08.23.36.1.73.16 1.1.17.12 0 .15.06.08.16-.06.1-.1.2-.1.3 0 .1-.05.14-.14.14a13 13 0 0 1-1.86-.18c-.63-.1-1.27-.18-1.92-.23a18.1 18.1 0 0 1-1.92-.21c-.52-.1-.98-.17-1.4-.2-.35-.03-.82.04-1.4.2-.39.1-.86.2-1.43.26-.11.01-.13-.02-.03-.09.07-.05.14-.09.23-.11.76-.2 1.5-.42 2.2-.68.1-.03.14-.1.13-.2Z" fill="#D5901D"/><path d="M27.32 28.53c-.14.07-.29.11-.44.13a.23.23 0 0 0-.16.09c-.17.21-.29.44-.36.68-.03.1 0 .15.1.17l.11.02c.17.03.18.08.01.14l-.36.14-3 .25c-.05 0-.08-.02-.08-.07l-.01-.05.02-.01 2.77-.67a.26.26 0 0 0 .2-.25v-.69c0-.1.05-.13.14-.1l1.06.22Z" fill="#090E0F"/><path d="m27.32 28.53 7.74 1.45c.08.02.14.05.19.1l.16.2c.08.09.06.15-.07.16a.48.48 0 0 1-.38-.1.2.2 0 0 0-.14-.05c-1.18.01-2.37 0-3.58-.06a.88.88 0 0 1-.23-.05.88.88 0 0 0-.22-.04 74.55 74.55 0 0 1-4.57-.24l.36-.14c.17-.06.16-.11 0-.14l-.12-.02c-.1-.02-.13-.08-.1-.17.07-.24.2-.47.36-.68.04-.05.1-.08.16-.09.15-.02.3-.06.44-.13Z" fill="#32668A"/><path d="m21.68 30.37-2.92-.2a.16.16 0 0 1-.1-.03.5.5 0 0 0-.26-.1 97 97 0 0 1-2.53-.15 6.51 6.51 0 0 0-1.9.17c-.34.11-.69.17-1.03.16-.11 0-.12-.02-.02-.07.4-.2.81-.35 1.25-.45.12-.03.3-.1.51-.19.19-.08.33-.14.44-.17.06-.02.1-.06.13-.12l.13-.37c.06-.17.17-.23.35-.18.7.19 1.43.31 2.2.36.06 0 .16.03.3.08l.23.07c.5.1 1.01.17 1.55.23.1 0 .17.04.23.1.06.06.12.09.2.1.84.02 1.64.16 2.38.44.08.03.11.09.08.18l-.04.15c-.04.1-.11.14-.22.09a.38.38 0 0 0-.23-.04.6.6 0 0 0-.17.08c-.1.06-.17.1-.24.1-.1 0-.16-.03-.18-.12-.02-.08-.07-.11-.14-.12Z" fill="#D5901D"/><path d="M37.04 29.9c-.12.03-.29.1-.51.18-.28.12-.5.2-.64.24-.24.06-.25.03-.04-.1.24-.14.52-.3.84-.45a.9.9 0 0 0 .27-.2.24.24 0 0 0 .07-.14c.01-.12.07-.16.19-.13l5.62 1.49c.05.01.07.04.06.1l-.02.05c0 .03-.02.04-.04.03l-5.61-1.1a.41.41 0 0 0-.2.02Z" fill="#090E0F"/><path d="m37 30.61.03-.2c.02-.09.07-.13.16-.13.03 0 .07.02.1.05.03.03.07.05.1.06l5.42 1.28c.06 0 .09.04.09.1v.06c0 .05-.03.07-.08.06-1.67-.3-3.48-.61-5.44-.92a1.42 1.42 0 0 0-.55.04l-.55.18a5.1 5.1 0 0 1-.52.17c-.16.04-.17.01-.03-.07.37-.21.75-.39 1.14-.53a.18.18 0 0 0 .13-.15Z" fill="#090E0F"/><path d="M16.11 31.64a3.09 3.09 0 0 0-1.61.05c-.18.06-.38.1-.6.12a7.4 7.4 0 0 1-.6.02c-.28 0-.5.02-.65.03-.03 0-.05 0-.05-.04 0-.02 0-.03.03-.03l.13-.02.7-.13c.26-.06.49-.13.7-.21.27-.12.57-.18.9-.2.14 0 .23-.07.25-.22l.04-.42a.1.1 0 0 1 .04-.07.11.11 0 0 1 .08-.02l.32.02c.5.03.89.09 1.15.18.22.08.46.12.72.12.17 0 .43.03.77.08.43.06.76.08.98.07.1 0 .17.03.24.1.04.06.1.1.18.1.59.04 1.14.12 1.64.23l1.3.25c.06 0 .1.04.11.09.03.1.03.2 0 .31a.14.14 0 0 1-.1.1 1.6 1.6 0 0 1-.98-.03 2.33 2.33 0 0 0-.66-.14c-1.5-.09-3.05-.15-4.66-.2a.38.38 0 0 1-.23-.07.35.35 0 0 0-.14-.07Z" fill="#D5901D"/><path d="M26.13 31.71v-.63c0-.04.01-.07.05-.1a.13.13 0 0 1 .1-.03c2.07.25 4.17.53 6.31.85.35.06.69.1 1.02.12.09 0 .16.03.2.08.04.03.08.04.12.05l1.06.08c.09 0 .16.03.23.1l.22.23c.06.09.04.13-.07.13-1.27.02-3.13 0-5.57-.07-2.72-.07-4.77-.08-6.16-.04-.18 0-.35-.01-.52-.04-.2-.03-.2-.06 0-.1.42-.08.89-.15 1.39-.2.52-.07 1.02-.15 1.49-.26.08-.03.13-.08.13-.17Z" fill="#32668A"/><path d="m37 31.57.03-.09c.03-.07.1-.1.17-.07 1.92.43 3.8.83 5.66 1.2.02 0 .03.02.03.04l-.01.06c-.01.06-.05.08-.11.07a3994 3994 0 0 0-5.42-.79c-.19-.02-.38 0-.56.06-.27.1-.52.17-.78.22-.36.07-.38.03-.04-.12l.92-.4c.09-.03.12-.1.12-.18Z" fill="#090E0F"/><path d="M15.31 32.96v-.47c0-.1.04-.15.14-.14l2.63.17c.07 0 .13.04.18.09.06.07.15.1.25.11.92.03 1.75.12 2.48.27.55.1 1.15.19 1.8.24.05 0 .08.03.07.07l-.01.37c0 .06-.04.09-.1.09-.94 0-1.88 0-2.82-.05a.2.2 0 0 1-.13-.05.27.27 0 0 0-.17-.07c-1.91-.1-3.7-.14-5.37-.12a6.66 6.66 0 0 1-1.32-.13l2.25-.24c.08-.01.12-.06.12-.14Z" fill="#D5901D"/><path d="M37.03 32.61v-.08c.01-.09.06-.12.14-.1l5.69 1.04c.02 0 .03.02.03.04v.06c0 .03 0 .05-.03.07a.1.1 0 0 1-.07.03l-5.26-.63a1.9 1.9 0 0 0-.49 0l-.45.1c-.3.06-.52.1-.68.1-.21 0-.22-.03-.02-.1l1-.35a.2.2 0 0 0 .14-.18ZM36.95 33.78a.48.48 0 0 0 .1-.2c.01-.07.06-.1.13-.09l5.69.94c.05 0 .07.03.07.08l-.01.07c0 .02-.02.03-.04.02l-5.33-.5c-.26-.03-.62 0-1.09.08-.28.05-.5.07-.64.09-.17 0-.18-.02-.02-.08.3-.14.62-.24.93-.29a.32.32 0 0 0 .2-.12Z" fill="#090E0F"/><path d="m32.95 34.23 1.62.05c.08 0 .15.03.21.07.15.1.31.13.5.08.1-.03.15 0 .14.1l.02.07c.04.1.01.15-.1.16l-.96.03a.34.34 0 0 0-.17.06.4.4 0 0 1-.21.06c-2.19.04-4.52.08-6.99.14-.63.01-1.26-.01-1.9-.09-.6-.06-1.26-.11-2.01-.15-.05 0-.08-.03-.09-.08v-.05l.01-.01c.92-.1 1.88-.16 2.9-.2.06 0 .1-.02.15-.06a.2.2 0 0 0 .06-.15v-.62c.01-.07.05-.1.12-.1l6.48.6c.04 0 .08.02.12.05l.1.04Z" fill="#32668A"/><path d="M15.31 34.66a.74.74 0 0 1 .09-.5.13.13 0 0 1 .13-.07l1.18.03c.05 0 .1.02.12.07l.03.05c.02.03.06.05.1.05 1.16.06 2.35.14 3.58.22.03 0 .07.03.13.07.04.04.1.06.16.07l1.89.16c.08 0 .13.05.14.13l.05.29c.01.1-.03.14-.12.14-.94 0-2.33 0-4.18-.02l-4.75-.02a8.62 8.62 0 0 1-1-.07.7.7 0 0 0 .58-.29c.05-.06.11-.1.2-.1l1.57-.09c.08 0 .11-.05.1-.12Z" fill="#D5901D"/><path d="M37.03 34.67c0-.12.05-.16.15-.15 1.8.28 3.68.53 5.62.77.04 0 .05.03.06.06v.07c0 .02 0 .03-.03.03l-.72-.04c-1.71-.1-3.26-.18-4.63-.28-.2-.01-.47 0-.82.04l-.6.04c-.06 0-.11.02-.16.05-.04.03-.09.04-.14 0-.07-.04-.07-.06.02-.05.08 0 .15-.02.2-.07a.4.4 0 0 1 .17-.1l.77-.21c.08-.02.12-.08.11-.16ZM37.02 35.76c0-.05.02-.1.04-.13a.12.12 0 0 1 .12-.05l5.67.65c.03 0 .04.02.04.05v.06c-.02.06-.05.08-.1.08-1.76-.08-3.47-.16-5.13-.22h-.76c-.47.02-.83.01-1.07-.01-.18-.02-.18-.04 0-.08l1.04-.19c.09-.02.14-.07.15-.16Z" fill="#090E0F"/><path d="m22.86 37-8.16.05a5.01 5.01 0 0 1-1.8-.27l2.23-.14c.1 0 .15-.05.16-.14l.07-.4c0-.07.05-.1.12-.1l2.56.07c.07 0 .13.02.19.06.1.07.23.1.36.1 1.43.03 2.8.09 4.1.19a.2.2 0 0 1 .18.25.69.69 0 0 0 0 .32Z" fill="#D5901D"/><path d="M35.38 37.13c-.4-.01-.68-.02-.84 0-2.45.16-4.99.3-7.61.43a7.6 7.6 0 0 1-1.72-.1c-.72-.13-1.43-.25-2.13-.35-.04 0-.07-.03-.1-.09.19-.06.34-.09.45-.08.84.06 1.68.09 2.53.07.08 0 .12-.04.13-.1a1.9 1.9 0 0 0 0-.7c0-.05 0-.1.04-.13a.16.16 0 0 1 .14-.06c2.06.17 4.14.3 6.25.41.2.01.37.05.53.1.06.02.11.03.17.03l2.1.1c.07 0 .1.03.1.1.02.13 0 .26-.04.37Z" fill="#32668A"/><path d="M42.93 37.2c-1.56.1-3.12.1-4.67.03-.27-.01-.68-.02-1.24 0-.58 0-1.02 0-1.3-.02l1.13-.23a.18.18 0 0 0 .15-.16l.02-.1c.02-.1.07-.13.16-.12l5.75.6Z" fill="#090E0F"/><path d="M12.9 36.78c.57.2 1.17.29 1.8.27.03.05.1.08.22.1.05 0 .07.02.04.07-.06.1-.03.19.1.28.2.17.44.26.69.3-.24-.02-.4.07-.48.25a.75.75 0 0 0-.03.54c.02.06.06.11.12.14.24.11.4.17.5.16 1.24-.06 2.48-.1 3.73-.11l-1.04.16c-.07.01-.07.03 0 .04 1.07.15 2.14.28 3.19.37.44.04.81.1 1.1.16.35.07.71.12 1.1.14 3.52.18 6.92.17 10.21-.04a.4.4 0 0 0 .2-.07.44.44 0 0 1 .17-.07l2.23-.3c.14.1.32.14.53.13 1.7-.1 3.41-.14 5.12-.1l-1.27.33a.47.47 0 0 0-.18.09c-.16.12-.35.2-.56.23l-2.03.29a.62.62 0 0 0-.2.07.36.36 0 0 1-.21.04c-.4-.03-.8 0-1.18.06-.4.07-.78.1-1.14.1-.38 0-.75.05-1.1.12a4.1 4.1 0 0 1-.76.08c-.17 0-.42 0-.76-.02l-.77-.01a325.08 325.08 0 0 1-6.88.13c-.18.02-.4 0-.62-.04-.37-.07-.74-.1-1.12-.08-.5.03-.87.04-1.1.04-1.31 0-2.65-.01-3.99-.04-.78-.04-1.58-.1-2.39-.19-.2-.02-.5-.08-.88-.18a5.54 5.54 0 0 0-.96-.19c-.14 0-.33-.07-.58-.17-.23-.1-.42-.16-.55-.17l-.8-.05a.2.2 0 0 1-.17-.1.28.28 0 0 0-.15-.12 7.24 7.24 0 0 1-1.65-.8.97.97 0 0 1-.4-.62.16.16 0 0 1 .06-.17l.57-.5a.4.4 0 0 1 .27-.1c.13 0 .25-.05.36-.12.1-.06.2-.09.31-.08.11 0 .2-.02.29-.1a.32.32 0 0 1 .18-.08l.85-.07Z" fill="#B1C3D4"/><path d="M44.97 37.38c-.15.26-.25.56-.28.9a.2.2 0 0 1-.1.15c-.47.34-1 .55-1.58.63.01-.11-.05-.17-.2-.17-1.83-.04-3.66-.08-5.48-.14-.19 0-.38.13-.58.42l-2.23.3a.44.44 0 0 0-.18.07.4.4 0 0 1-.19.07c-3.29.2-6.7.22-10.21.04a6.69 6.69 0 0 1-1.1-.14 9.33 9.33 0 0 0-1.1-.16c-1.05-.1-2.12-.22-3.19-.37-.07-.01-.07-.03 0-.04l1.04-.16a44.6 44.6 0 0 0 3.24-.45c.06-.01.1-.05.12-.12.03-.06 0-.1-.06-.12-.25-.06-.48-.1-.7-.1-2.15-.05-4.3-.12-6.44-.2a1.36 1.36 0 0 1-.7-.29c-.12-.1-.15-.19-.1-.28.04-.05.02-.07-.03-.08-.12-.01-.2-.04-.22-.1l8.17-.05c.04.03.07.04.1.03.04.06.07.09.1.1.7.1 1.42.2 2.14.33.59.1 1.16.14 1.72.11 2.62-.13 5.16-.27 7.6-.44l.85.01c.03.1.15.12.33.08.3.02.73.02 1.3.01l1.25.01c1.55.07 3.1.06 4.67-.03.14-.17.44-.22.88-.16.07.01.12-.02.14-.08.04-.12.12-.16.24-.13.07.02.13.06.17.11.07.08.14.16.22.22.04.04.1.07.17.07.1.01.18.06.22.15Z" fill="#E4ECF2"/><path d="M44.97 37.38c.16.15.33.22.51.22a.3.3 0 0 1 .23.08l.21.2c.1.08.1.18.01.28l-.1.13c-.15.17-.27.3-.36.37-.14.13-.29.23-.44.3-.37.16-.74.36-1.1.6a.34.34 0 0 1-.18.05c-.5.03-1 .11-1.47.26-.28.1-.52.14-.75.15-.19 0-.36.04-.52.1a2.6 2.6 0 0 1-.64.1c-.28.02-.49.05-.63.1-.2.07-.43.1-.64.1-.67.03-1.38.09-2.12.2-.1.01-.2.05-.3.1a.36.36 0 0 1-.18.06l-3.38.07a.14.14 0 0 0-.08.03l-.04.04a.16.16 0 0 1-.1.03c-3.2.06-6.38.07-9.57.02a.2.2 0 0 1-.15-.07.21.21 0 0 0-.17-.08c-1.22.02-2.51 0-3.87-.02-.28-.01-.49-.08-.6-.21a179 179 0 0 0 3.99.04c.22 0 .58-.01 1.1-.04.37-.02.74 0 1.11.08.23.05.44.06.62.04l.22-.01c2.03-.02 4.25-.06 6.66-.12l.77.01c.34.02.59.02.76.02.28 0 .54-.03.77-.08.34-.07.7-.11 1.09-.11a7 7 0 0 0 1.14-.11 5.1 5.1 0 0 1 1.18-.06c.07 0 .14-.01.2-.04a.62.62 0 0 1 .21-.07l2.03-.3c.21-.02.4-.1.56-.22a.47.47 0 0 1 .18-.09l1.27-.33.61-.14a3.6 3.6 0 0 0 1.59-.63.2.2 0 0 0 .09-.15c.03-.34.13-.64.28-.9Z" fill="#E5D496"/><path d="M37.8 38.26c-.67.01-1.34 0-2-.06-.18-.01-.18-.04 0-.08.1-.02.25-.04.45-.04.19-.01.33-.02.42-.05.16-.03.3-.1.41-.2.05-.05.1-.08.17-.09.24-.04.48-.05.73-.03 1.58.1 3.2.18 4.84.25.04 0 .06.02.06.06v.07c0 .03-.02.06-.05.09a.13.13 0 0 1-.1.03c-1.66 0-3.31.02-4.93.05Z" fill="#1C3F67"/><path d="m15.75 37.8 6.43.2c.23 0 .46.03.7.09.07.02.1.06.07.12-.02.07-.06.1-.12.12-.7.14-1.77.28-3.24.45-1.25 0-2.5.05-3.74.11a1.3 1.3 0 0 1-.5-.16.21.21 0 0 1-.11-.14.75.75 0 0 1 .03-.54c.08-.18.24-.27.48-.26Z" fill="#D5901D"/><path d="m43.01 39.06-.6.14c-1.72-.04-3.43 0-5.13.1a.83.83 0 0 1-.53-.13c.2-.29.4-.42.58-.42 1.82.06 3.65.1 5.48.14.15 0 .21.06.2.17Z" fill="#1C3F67"/></svg>