<!-- by TradingView --><svg width="56" height="56" viewBox="0 0 56 56" xmlns="http://www.w3.org/2000/svg"><path fill="#F0F3FA" d="M0 0h56v56H0z"/><path d="M24.75 12a1.25 1.25 0 1 0 0 2.5h6.5a1.25 1.25 0 1 0 0-2.5h-6.5ZM12 17.5h7.02c.12.57.63 1 1.23 1h15.5c.6 0 1.1-.43 1.23-1H44V17h-7.02c-.12-.57-.63-1-1.23-1h-15.5c-.6 0-1.1.43-1.23 1H12v.5Zm6.52 4H12V21h6.52c.12-.57.63-1 1.23-1h16.5c.6 0 1.1.43 1.23 1H44v.5h-6.52c-.12.57-.63 1-1.23 1h-16.5c-.6 0-1.1-.43-1.23-1ZM18 25.75c0-.09 0-.17.02-.25H12V25h6.25c.23-.3.6-.5 1-.5h17.5c.4 0 .77.2 1 .5H44v.5h-6.02a1.26 1.26 0 0 1-1.23 1.5h-17.5c-.69 0-1.25-.56-1.25-1.25ZM17.52 30H12v-.5h5.52c.12-.57.63-1 1.23-1h18.5c.6 0 1.1.43 1.23 1H44v.5h-5.52c-.12.57-.63 1-1.23 1h-18.5c-.6 0-1.1-.43-1.23-1ZM12 34.5h5.02c.12.57.63 1 1.23 1h19.5c.6 0 1.1-.43 1.23-1H44V34h-5.02c-.12-.57-.63-1-1.23-1h-19.5c-.6 0-1.1.43-1.23 1H12v.5Zm3.53 4H12V38h3.53c.11-.57.62-1 1.22-1h22.5c.6 0 1.1.43 1.23 1H44v.5h-3.52c-.12.57-.63 1-1.23 1h-22.5c-.6 0-1.1-.43-1.22-1ZM34 41H22v3h12v-3Z" fill="#EE2C34"/></svg>