<!-- by TradingView --><svg width="56" height="56" viewBox="0 0 56 56" xmlns="http://www.w3.org/2000/svg"><path fill="#F0F3FA" d="M0 0h56v56H0z"/><path d="M34.94 12h.62c1.56.5 2.57 1.2 3.01 2.12.87 1.78.42 2.97-1.33 3.55-.2.06-.23.17-.09.33 1.06 1.19 1.18 2.46.37 3.83a16.67 16.67 0 0 0-2.3 7.2c-.2 2.27.03 4.85.67 7.73.43 1.93.34 3.52-.27 4.77-.7 1.41-2 2.23-3.93 2.47h-1.45a27.49 27.49 0 0 1-16.05-9.29A9.93 9.93 0 0 1 12 30.17V29.1a5.43 5.43 0 0 1 4.26-4.15c5.66-1.34 9.8-4.08 12.42-8.2 1.02-1.61 2.34-2.2 3.98-1.76.23.07.33-.02.3-.27-.19-1.48.47-2.39 1.98-2.73Zm2.7 3.6a2.9 2.9 0 0 0-1.08-1.6c-.6-.46-1.21-.61-1.83-.46a.58.58 0 0 0-.4.31.6.6 0 0 0-.03.52c.53 1.37 1.57 1.89 3.14 1.55.18-.04.25-.15.2-.33Zm-1.07 5.02c.18-.35.18-.7 0-1.06a6.75 6.75 0 0 0-1.61-2.01 2.98 2.98 0 0 0-1.73-.58c-.46-.04-1.15-.03-2.07.03-.42.03-.71.04-.88.04-.22 0-.35.12-.4.34-.03.2.04.32.22.4a13.6 13.6 0 0 1 5.4 3.99c.2.23.36.2.5-.06l.57-1.1ZM33.9 33.16a17.32 17.32 0 0 1 1.16-9.37.46.46 0 0 0-.06-.5 13.27 13.27 0 0 0-5.81-4.4c-.17-.07-.31-.03-.43.11a18.63 18.63 0 0 1-8.08 5.96c-.43.16-.43.32 0 .49a41.54 41.54 0 0 1 12.95 7.87c.23.2.31.15.27-.16Zm-.2 2.1c-2-1.94-4.27-3.67-6.82-5.2a54.3 54.3 0 0 0-7.8-3.77 3.14 3.14 0 0 0-2.43 0c-.82.34-1.58.75-2.3 1.25-.63.44-.56.7.2.77 7.78.76 14.32 4.35 19.64 10.8.47.57.67.48.6-.27l-.2-1.78c-.08-.71-.38-1.31-.88-1.8Zm-20.34-5.38c.38 2 1.6 3.95 3.68 5.87a38.52 38.52 0 0 0 5.68 4.13c.32.2.4.12.27-.23a6.02 6.02 0 0 1-.42-1.69 2.6 2.6 0 0 1 .16-.98c.09-.27.14-.48.15-.63a.42.42 0 0 0-.2-.44 25.85 25.85 0 0 1-6.55-5.86.63.63 0 0 0-.46-.25l-2.04-.22a.23.23 0 0 0-.2.08.26.26 0 0 0-.07.22ZM26 33.58a29.46 29.46 0 0 0-7.43-3.2c-.4-.1-.45-.01-.16.28a33.28 33.28 0 0 0 5.09 4.17c.21.14.4.12.58-.07a2.86 2.86 0 0 1 1.87-.93c.06-.01.1-.05.1-.1.02-.07 0-.12-.05-.15Zm3.43 4.3c0-.76-.27-1.42-.8-1.96a2.62 2.62 0 0 0-1.93-.81 2.72 2.72 0 0 0-2.73 2.78c0 .76.26 1.42.8 1.97.53.54 1.18.81 1.93.81s1.4-.27 1.93-.81c.53-.55.8-1.2.8-1.97Zm1.43-.24a4.83 4.83 0 0 1-.77 2.6 3.64 3.64 0 0 1-2.12 1.53c-.3.08-.3.17-.02.28 2.1.76 3.96.75 5.57-.04.28-.14.46-.35.55-.65a.39.39 0 0 0-.08-.38l-2.94-3.4c-.03-.04-.07-.05-.12-.04-.05.02-.07.05-.07.1Z" fill="#16130F"/><path d="M28.16 25.49c-.43.46-.86.96-1.3 1.52-.03.04-.07.04-.1 0l-.95-.76c-.05-.04-.06-.1-.01-.15l4.07-4.6c.15-.17.32-.18.49-.01l.5.45c.77.65 1.3 1.17 1.6 1.56.52.69.68 1.29.47 1.81-.42 1.06-1.13 1.61-2.13 1.64-.4.02-.8-.14-1.22-.46a7.64 7.64 0 0 1-.98-1c-.15-.16-.3-.16-.44 0Zm3.5-.6c.09-.09.13-.2.12-.32a.43.43 0 0 0-.15-.32l-.98-.91a.44.44 0 0 0-.63.03l-.66.74c-.09.1-.12.2-.12.33 0 .12.06.23.15.31l.98.91c.1.09.2.13.32.12.13 0 .23-.05.31-.15l.66-.73Z" fill="#16130F"/></svg>