<!-- by TradingView --><svg width="56" height="56" viewBox="0 0 56 56" xmlns="http://www.w3.org/2000/svg"><path fill="#F0F3FA" d="M0 0h56v56H0z"/><path d="M32.1 11.55a.85.85 0 0 1-.44.4c-.15.06-.36.07-.61.02a12.84 12.84 0 0 0-6.2.31l-1.28.44h-.21a.6.6 0 0 0-.21.07c-.1.06-.24.12-.42.18-.37.11-.73.32-1.09.62l-1.4 1.04c-.15-.1-.37-.02-.65.22-.42.37-.83.73-1.21 1.1a.25.25 0 0 0-.08.15l-.02.1c0 .04-.03.07-.05.1-.53.6-1.02 1.23-1.48 1.9-.06.08-.14.23-.24.46-.09.2-.16.35-.22.44-.17.28-.3.57-.42.86a.35.35 0 0 1-.17.2.35.35 0 0 1-.25.03l-.34-.09a14.87 14.87 0 0 1 6.17-7.07l1.1-.6a15.35 15.35 0 0 1 5.7-1.42c.4-.02.82 0 1.3.04.53.06.99.12 1.36.19.48.08.93.19 1.37.31Z" fill="#FE9C9B"/><path d="M32.1 11.55c1.37.4 2.63.96 3.79 1.71.03.02.03.05 0 .1l-.34-.15a.11.11 0 0 0-.13.03.12.12 0 0 0-.03.12l.1.35c.01.06 0 .1-.05.14a.12.12 0 0 1-.14.02l-.85-.41a14.23 14.23 0 0 0-6.18-1.53c-.45 0-1.02.04-1.71.14-.57.08-1.13.16-1.7.22a12.84 12.84 0 0 1 6.19-.32c.25.05.46.04.61-.02.18-.06.33-.2.45-.4Z" fill="#FF3C38"/><path d="M35.9 13.35c.18.07.36.17.52.3l1.35 1.1 1.45 1.6c-.02.4.06.76.26 1.06l.13.18c.24.37.41.65.51.83.17.31.27.6.31.87.04.2.09.4.15.58.08.2.16.48.26.87.07.3.13.5.18.65a9.51 9.51 0 0 1 .3 1.34c.05.2.08.44.1.7.02.3.05.63.1.97.06.53.04 1.23-.07 2.12l-.02.6c0 .36-.02.63-.05.82a16.25 16.25 0 0 1-1.2 3.52c-.08.18-.22.44-.43.8-.16.26-.27.46-.34.6-.1.18-.21.35-.35.52l-.29.36c-.26.33-.47.58-.63.73l-.59.58c-.43.45-.95.9-1.55 1.38a12.85 12.85 0 0 1-3.42 1.83c-.68.21-1.48.4-2.4.55-.5.09-1.07.13-1.68.13-.47 0-1.04-.02-1.7-.07a6.65 6.65 0 0 1-1.05-.16 3.6 3.6 0 0 0-.44-.07c-.28-.03-.49-.07-.63-.12a105.62 105.62 0 0 1-2.7-1.12l-.35-.22a4.65 4.65 0 0 0-.43-.26 1.44 1.44 0 0 1-.3-.24 1 1 0 0 0-.28-.21c-.33-.13-.69-.25-1.07-.37a.16.16 0 0 1-.1-.09.16.16 0 0 1 0-.11l-.01-.08a.08.08 0 0 0-.06-.03h-.06a.1.1 0 0 0-.06.08c-.02.06-.05.1-.1.11l-.02-.38c.35.19.61.2.78.05a.15.15 0 0 0 .05-.1l.03-2.11c0-.1-.03-.16-.1-.2 0-.12-.02-.19-.04-.23a2 2 0 0 1-.32-1.13l1.57 1.76c.28.36.61.64 1 .84.1.05.14.12.16.21.01.05 0 .09-.03.12a.12.12 0 0 1-.12.04 1.97 1.97 0 0 1-1.03-.52.06.06 0 0 0-.04-.02.06.06 0 0 0-.05.03l-.02.03c-.04.06-.04.12.01.17a5 5 0 0 0 1.34 1.06c.58.3 1.18.62 1.8.92.33.16.7.3 1.12.4a10.99 10.99 0 0 0 3.12.43c.14 0 .3-.02.45-.06.15-.04.3-.06.45-.08.29 0 .57-.02.85-.07.72-.14 1.41-.32 2.08-.56.19-.07.39-.13.58-.17.27-.07.5-.18.68-.34.1-.09.21-.15.35-.2.12-.04.24-.1.35-.15a9.23 9.23 0 0 0 2.16-1.63c.2-.16.34-.3.43-.4l.94-1.17a8.6 8.6 0 0 0 1.7-3.7l.3-1.33a12.34 12.34 0 0 0-.1-4.9c-.04-.2-.1-.38-.19-.5-.1-.16-.16-.15-.2.03 0 .06 0 .12.02.18.18.53.2 1.04.07 1.55a.11.11 0 0 1-.07.08c-.1.03-.18.01-.26-.07a.82.82 0 0 1-.04-.06 5.21 5.21 0 0 1-.66-2.47c-.03-.2-.1-.4-.2-.58a2.27 2.27 0 0 0-.53-2.04 8.93 8.93 0 0 1-1.08-1.47c-.11-.15-.22-.28-.34-.38a7.93 7.93 0 0 1-.95-.86 1.95 1.95 0 0 0-.53-.44 2.71 2.71 0 0 1-.4-.25 1.5 1.5 0 0 0-.46-.26 4.51 4.51 0 0 1-.69-.3 8.91 8.91 0 0 0-3.62-1.1 17.47 17.47 0 0 0-3.62.25c-.1.04-.27.08-.5.12a11.59 11.59 0 0 0-3.38 1.45c-.27.18-.53.38-.76.61l-.53.43-.38.3a2.74 2.74 0 0 0-.5.53c-.47.57-.81 1.01-1.03 1.31-.35.5-.63.99-.84 1.45-.05.12-.13.29-.25.5a6.64 6.64 0 0 0-.77 2.16l-.13.45a2.2 2.2 0 0 0-.05.48V31.47a762.73 762.73 0 0 0-.04 7.4v.87a40.7 40.7 0 0 1-.01 3.34.3.3 0 0 1-.1.22.3.3 0 0 1-.22.09c-.57 0-1.12.06-1.65.2-.16.04-.5.04-.7.01l.01-.12.01-.05a.07.07 0 0 1 .06-.04l.78-.07c.05 0 .1-.03.13-.07a.2.2 0 0 0 .05-.13V23.84c.08-.73.22-1.45.4-2.16.07-.3.23-.72.48-1.27l.28-.66c.06-.16.17-.38.35-.67.13-.21.22-.38.27-.5a5.77 5.77 0 0 1 .36-.63 9.38 9.38 0 0 1 1.04-1.4c.4-.54 1.08-1.18 2.02-1.92l1.4-1.04c.38-.1.74-.24 1.08-.44.09-.05.23-.12.43-.19.16-.05.3-.13.42-.24l1.28-.43c.58-.06 1.14-.14 1.7-.22a11.74 11.74 0 0 1 5.55.44c.76.23 1.55.54 2.35.95l.85.41c.05.02.1.02.14-.02a.13.13 0 0 0 .05-.14l-.1-.35c-.02-.04 0-.09.03-.12a.11.11 0 0 1 .13-.03l.35.14Z" fill="#FD0600"/><path d="M23.57 12.72c-.12.1-.26.19-.42.24-.2.07-.34.14-.43.2-.34.2-.7.34-1.08.43.36-.3.72-.5 1.09-.62.18-.06.32-.12.42-.18a.6.6 0 0 1 .2-.07h.22Z" fill="#FF3C38"/><path d="M38.07 20.75A10.85 10.85 0 0 0 27.9 14.4a10.83 10.83 0 0 0-10.06 7.97c-.21.69-.32 1.34-.32 1.96v19.8c0 .04-.01.06-.04.09a.11.11 0 0 1-.08.03l-3.4-.06v-.58c.2.03.54.03.7-.02.53-.13 1.08-.2 1.65-.19a.3.3 0 0 0 .22-.09.3.3 0 0 0 .1-.22 40.7 40.7 0 0 0 0-3.34l.01-.87c.02-.27.02-.48.02-.62 0-2.16 0-4.42.02-6.78V23.69c0-.15.01-.31.05-.48l.13-.45c.08-.28.14-.5.16-.66.02-.13.06-.29.12-.45a7.43 7.43 0 0 1 .49-1.05c.12-.21.2-.38.25-.5.2-.46.49-.95.84-1.45a26.49 26.49 0 0 1 1.18-1.49c.1-.11.2-.23.35-.35l.38-.3c.24-.18.41-.32.53-.43.23-.23.5-.43.77-.61a11.59 11.59 0 0 1 4.3-1.66c1.36-.17 2.42-.22 3.2-.17 1.2.09 2.4.45 3.61 1.1.24.13.47.23.7.3.15.06.3.15.46.27.12.1.25.18.4.25.18.1.35.25.52.43a7.95 7.95 0 0 0 .95.87c.12.1.23.23.34.38l.55.81c.08.12.26.35.53.66a2.27 2.27 0 0 1 .54 2.04Z" fill="#BF0400"/><path d="M38.07 20.75c.1.18.16.37.19.58l-.24-.43a3.84 3.84 0 0 0-.26-.41c-.5-.7-1.1-1.4-1.81-2.1a10.94 10.94 0 0 0-5.3-3 .8.8 0 0 1-.16-.02 8.36 8.36 0 0 0-1.12-.22c-.3-.02-1-.02-2.11 0-.19 0-.36.03-.53.08l-.35.05c-.16 0-.27.03-.35.05-1 .25-1.93.6-2.81 1.04-.06.02-.14.08-.23.16-.1.1-.18.15-.24.18-.28.13-.54.3-.78.52l-.28.22c-.14.1-.24.19-.31.25a10.03 10.03 0 0 0-2.53 3.53c-.14.3-.24.54-.3.7-.1.25-.18.5-.24.71-.08.35-.16.7-.23 1.08-.06.33-.1.69-.1 1.08-.03 1 0 1.89.07 2.69.12 1.28.18 2.46.17 3.55 0 .06-.02.15-.05.25a.94.94 0 0 0-.05.27v4.78c0 .08.01.2.05.33.03.14.04.25.04.32v6.42c0 .37-.11.78-.33 1.23a.2.2 0 0 1-.1.1c-.02 0-.05.03-.1.06l-.28.14c-.1.04-.2.06-.29.06h-2.3a.27.27 0 0 1-.15-.05.49.49 0 0 0-.32-.07.2.2 0 0 1-.13-.04.56.56 0 0 1-.2-.24c-.02-.05 0-.1.04-.12l.05-.03c.05-.03.07-.07.04-.12-.03-.07-.03-.11-.01-.15l3.27.06c.03 0 .06 0 .08-.03a.11.11 0 0 0 .04-.09v-19.8c0-.62.1-1.27.32-1.97a10.83 10.83 0 0 1 14.28-7.24 10.85 10.85 0 0 1 5.95 5.64Z" fill="#C1BFBE"/><path d="M20.24 14.63a11.78 11.78 0 0 0-2.36 2.33 9.39 9.39 0 0 0-1.06 1.63c-.05.11-.14.28-.27.49-.18.29-.3.51-.35.67l-.28.66c-.25.55-.4.98-.48 1.27-.18.7-.32 1.43-.4 2.16l-.87-.13c.18-1.26.5-2.46.94-3.6l.34.08c.08.02.17 0 .25-.03.08-.05.14-.11.17-.2.11-.29.25-.58.42-.86.06-.09.13-.24.22-.44.1-.23.18-.38.24-.47.46-.66.95-1.29 1.48-1.88a.22.22 0 0 0 .05-.12l.02-.1c0-.05.03-.1.08-.14.38-.36.79-.73 1.21-1.1.28-.24.5-.31.65-.22Z" fill="#FE6863"/><path d="M37.77 14.76c.75.7 1.47 1.44 2.15 2.22.08.1.15.2.21.32.05.08.1.2.16.35.02.05.05.09.1.11a4.12 4.12 0 0 0 .26.16c.06.05.1.1.15.18.35.6.63 1.1.83 1.53.27.57.48 1.1.62 1.61.13.44.27.85.43 1.24.05.12.07.3.08.53 0 .2.01.33.03.43l.13.46c.05.18.07.34.07.5l.01 1.87c0 .6-.05 1.18-.16 1.76-.2.94-.45 1.87-.78 2.8-.38 1.06-.9 2.06-1.54 3a14.95 14.95 0 0 1-7 5.7 16.07 16.07 0 0 1-4.11.94 12.07 12.07 0 0 1-4.68-.45l-1.39-.43a4.77 4.77 0 0 1-.75-.3l-.07-.03a8 8 0 0 1-.88-.5c-.29-.19-.58-.36-.89-.52a1.32 1.32 0 0 1-.22-.15 1.32 1.32 0 0 0-.16-.1c-.09-.06-.16-.1-.2-.15-.18-.18-.4-.34-.62-.46a1.78 1.78 0 0 1-.63-.6.09.09 0 0 1 0-.1.69.69 0 0 0 .13-.39c0-1.19 0-2.42.02-3.7 0-.25.03-.44.1-.57.05-.1.06-.22.04-.34-.02-.09 0-.1.07-.04l.26.24c0 .41.1.79.32 1.13.02.04.04.12.04.22l-.06.2c0 .04-.02.06-.06.06-.03 0-.06 0-.07-.03a7 7 0 0 1-.4-.76c-.03-.06-.07-.07-.13-.03a.13.13 0 0 0-.05.1l.01 2.83.02.38a.8.8 0 0 0-.01.26c0 .08.05.16.11.21a13.65 13.65 0 0 0 11.36 3.1 13.94 13.94 0 0 0 9.65-6.67c.78-1.3 1.34-2.68 1.69-4.13a14.3 14.3 0 0 0-.55-8.52 14.93 14.93 0 0 0-2.19-3.87l-1.45-1.6Z" fill="#C1BFBE"/><path d="M29.92 16.37c-.2.3-.48.44-.84.42-2.1-.09-4 .43-5.72 1.55-.4.36-.8.7-1.2 1.02-.17.14-.49.48-.95 1.03-.08.1-.14.2-.2.3-.05.13-.12.24-.21.35-.12.13-.22.28-.31.46-.19.34-.36.7-.52 1.04-.17.26-.43.33-.79.2.27-.76.54-1.36.82-1.8a10.03 10.03 0 0 1 6.22-4.5 9.36 9.36 0 0 1 3.7-.07Z" fill="#FE9C9B"/><path d="M29.92 16.37c1.6.3 3.03 1 4.28 2.09-.03.02-.04.04-.03.07-.29-.29-.62-.5-1-.66-.12-.05-.17 0-.14.18l.03.06c.06.08.1.17.13.26.02.05 0 .1-.04.14a.12.12 0 0 1-.15.02l-.72-.4c-.29-.18-.5-.3-.66-.38-.25-.13-.5-.22-.73-.29-.99-.27-1.99-.4-3-.41-.48 0-.94.05-1.4.17a8.3 8.3 0 0 0-2.9 1.25.56.56 0 0 1-.23-.13 9.45 9.45 0 0 1 5.72-1.55c.36.02.64-.12.84-.42Z" fill="#FE6863"/><path d="M39.22 16.36a14.94 14.94 0 0 1 3.11 8.09 14.3 14.3 0 0 1-.37 4.3 14.88 14.88 0 0 1-4.26 7.3 13.95 13.95 0 0 1-18.44.4.33.33 0 0 1-.11-.21c-.01-.07 0-.15.01-.26.05 0 .08-.05.1-.11a.1.1 0 0 1 .06-.07l.06-.01.06.03c.01.03.02.05 0 .08a.16.16 0 0 0 .02.11c.02.04.05.07.1.09.37.12.73.24 1.06.37a1 1 0 0 1 .28.21c.13.12.23.2.3.24.1.05.24.13.43.26l.35.22c.13.08.25.13.37.16.1.03.25.1.44.19l.28.13 1.6.64c.15.05.36.1.64.12.2.02.35.05.44.07.32.08.67.13 1.04.16.67.05 1.24.07 1.71.07.61 0 1.17-.04 1.69-.13.91-.15 1.71-.34 2.39-.56a12.86 12.86 0 0 0 4.97-3.2l.59-.58c.16-.15.37-.4.63-.73l.29-.36c.14-.17.25-.34.35-.52.07-.14.18-.34.34-.6l.44-.8c.53-1.14.93-2.31 1.19-3.52.03-.19.05-.46.05-.81 0-.27 0-.47.02-.61.1-.89.13-1.6.06-2.12a23.3 23.3 0 0 1-.1-.98 5.1 5.1 0 0 0-.16-1.04 9.54 9.54 0 0 0-.23-1c-.05-.13-.1-.35-.18-.64-.1-.39-.18-.68-.26-.87a3 3 0 0 1-.15-.58 2.75 2.75 0 0 0-.3-.87 10.31 10.31 0 0 0-.65-1.01c-.2-.3-.28-.65-.26-1.05Z" fill="#BF0400"/><path d="M34.17 18.53a9.8 9.8 0 0 1 1.59 1.8c-.16.08-.2.18-.15.31.15.32.26.62.33.91.03.14.1.27.2.38a.1.1 0 0 1 .02.11.1.1 0 0 1-.08.08c-.24.05-.47.07-.71.07a17.57 17.57 0 0 0-1.57.07.52.52 0 0 1-.27-.06.53.53 0 0 1-.2-.19l-.41-.58c-.08-.1-.17-.26-.27-.47-.08-.18-.15-.3-.2-.38-.1-.13-.2-.24-.33-.33l-1.05-.68c-.1-.07-.25-.14-.47-.23-.19-.07-.33-.14-.42-.2a1.4 1.4 0 0 0-.6-.2l-.4-.1c-.24-.07-.43-.1-.56-.1-.46 0-.93.02-1.4.04-.4 0-.79.09-1.18.24-.73.27-1.35.57-1.86.9-.12.07-.23.16-.34.27a5.6 5.6 0 0 0-.29.33l-.34.38c-.34.33-.68.74-1.02 1.22-.23.34-.37.63-.44.88-.04.18-.1.34-.16.48-.06.16-.1.32-.11.47-.01.11-.04.28-.1.5l-.08.49c-.09.84-.02 1.65.18 2.4.04.13.1.32.22.55.09.2.15.34.18.44.03.08.07.15.13.2.06.07.12.11.2.15.23.1.48.37.73.8.12.22.31.33.57.33.43.49.93.91 1.48 1.28.04.02.05.05.06.09.01.03 0 .07-.01.1l-.15.24a.11.11 0 0 0 0 .13c.07.1.16.2.27.25.53.3 1.03.48 1.5.56.83.14 1.7.17 2.62.1a4.34 4.34 0 0 0 1.78-.57c.2-.13.4-.23.6-.32a.2.2 0 0 0 .12-.1l.08-.2.07-.02c.2.01.4-.12.57-.4l.8-.75c.25-.12.36-.29.3-.5-.07-.04-.08-.12-.01-.23.09-.16.33-.27.71-.34.31-.05.6-.06.86-.04.22.03.45-.03.68-.18.2-.12.37-.3.52-.51.26-.08.47-.08.63.01l-.06.19c-.16-.06-.28-.04-.36.06-.08.1-.2.22-.37.38-.13.1-.22.2-.27.26-.1.1-.18.21-.24.32-.3.53-.64 1.02-1 1.48l-.64.77c-.25.31-.57.6-.96.84a9.78 9.78 0 0 1-1.66.88.37.37 0 0 1-.17.09.84.84 0 0 0-.21.05L30 34.1c-.19.06-.39.1-.6.1-.09 0-.23.03-.43.08-.23.06-.4.09-.52.07-.2-.02-.5-.05-.93-.06l-.69-.04a4.1 4.1 0 0 1-.66-.11 11.72 11.72 0 0 1-2.08-.75c-1-.4-2.12-1.26-3.34-2.56a.2.2 0 0 0-.15-.07.41.41 0 0 1-.17-.03c-.08-.03-.15-.12-.22-.25-.1-.2-.22-.33-.37-.37l-.8-1.9a.6.6 0 0 1-.08-.3l.06-.75a.1.1 0 0 1 .06-.1.12.12 0 0 1 .1 0c.04.01.08.05.1.11l.38.93c.06.15.11.15.15-.02.02-.1.02-.2 0-.3-.1-.38-.13-.76-.08-1.12 0-.04 0-.09-.02-.13-.07-.17-.1-.36-.11-.56a7.4 7.4 0 0 1 .96-3.99c.3-.49.6-1 .96-1.52.4-.6 1.05-1.23 1.97-1.87a.24.24 0 0 0 .1-.12 8.31 8.31 0 0 1 4.3-1.42c1 0 2 .14 2.99.41.24.07.48.16.73.3.16.07.37.2.66.36.31.19.55.32.72.4.06.03.1.03.15-.01a.13.13 0 0 0 .04-.14.9.9 0 0 0-.13-.26.13.13 0 0 1-.03-.06c-.03-.17.02-.23.14-.18.38.15.71.37 1 .66Z" fill="#FD0600"/><path d="M23.36 18.34c.09.07.17.12.24.13a.24.24 0 0 1-.1.12 7.34 7.34 0 0 0-1.97 1.87 36.7 36.7 0 0 0-.96 1.52 7.4 7.4 0 0 0-.96 4c0 .2.04.38.11.55.02.04.03.09.02.13-.05.36-.02.74.08 1.12.02.1.02.2 0 .3-.04.17-.09.17-.15.02l-.38-.93c-.02-.06-.05-.1-.1-.11a.12.12 0 0 0-.1 0 .1.1 0 0 0-.06.1l-.06.75a10.03 10.03 0 0 1-.14-3.67h.46c.04 0 .08-.01.1-.05.12-.11.2-.26.28-.42a5.14 5.14 0 0 0 .23-.68c.07-.21.1-.4.07-.55.16-.35.33-.7.52-1.04.09-.18.2-.33.3-.46.1-.1.17-.22.23-.35.05-.1.11-.2.19-.3.46-.55.78-.89.95-1.03.4-.32.8-.66 1.2-1.02Z" fill="#FF3C38"/><path d="M34.2 18.46c.31.27.64.6.98.97a35.36 35.36 0 0 1 1.23 1.46 5.74 5.74 0 0 1 .96 1.55c.11.27.16.49.13.67a.2.2 0 0 1-.05.11l-.41.42a.2.2 0 0 1-.11.06l-.11.03c-.3.06-.52.1-.68.1h-1.71c-.07 0-.16-.02-.28-.06a.87.87 0 0 0-.3-.04c-.03 0-.06 0-.08-.02l-.33-.18a.2.2 0 0 1-.11-.17c-.01-.1-.07-.15-.17-.14-.05 0-.07-.02-.08-.07v-.18c0-.08-.04-.11-.11-.11h-.17a.07.07 0 0 0-.07.03.07.07 0 0 0 0 .08c.03.06.02.1-.03.13a.14.14 0 0 0-.07.14c0 .27-.04.54-.16.81a.17.17 0 0 1-.08.09c-.47.26-.81.35-1.03.28-.33-.1-.64-.17-.91-.21a.24.24 0 0 1-.15-.08l-.47-.52a.24.24 0 0 1-.06-.12 2.8 2.8 0 0 0-.15-.45.11.11 0 0 0-.08-.07c-.41-.1-.92-.13-1.52-.1a.9.9 0 0 0-.5.19 2.9 2.9 0 0 1-.6.34.2.2 0 0 0-.13.14c-.02.07-.01.13.02.21-.02.04-.04.05-.09.03-.18-.2-.23-.45-.13-.75.04-.13.1-.25.2-.36.08-.12.17-.21.28-.29a2.29 2.29 0 0 1 1.72-.3c.8.12 1.22.63 1.26 1.53 0 .04.03.07.07.07h1.84c.05 0 .07-.03.07-.08a2.98 2.98 0 0 0-1.13-2.52c-.05-.03-.04-.05.03-.07l.6.6c.04.04.1.05.15.04a.14.14 0 0 0 .1-.12.76.76 0 0 0-.1-.5.18.18 0 0 0-.1-.09c-.1-.04-.23-.13-.4-.28l-.25-.2a3.76 3.76 0 0 0-1.4-.55l-.51-.1a2.98 2.98 0 0 0-.53-.06c-.32 0-.61 0-.87.04a4.92 4.92 0 0 0-4.3 3.39l-.23.5c-.1.25-.2.53-.25.85-.03.19-.07.48-.1.87l-.07.69a2.3 2.3 0 0 0 0 .59c.01.13.05.32.1.58a8 8 0 0 1 .09.51c.01.09.05.2.12.37.06.14.1.25.11.32.02.12 0 .23-.05.34a.18.18 0 0 0-.02.11c.02.1.07.2.14.28l-.06.03a6.46 6.46 0 0 1-1.04-4.44 6.13 6.13 0 0 1 6.99-5.22 5.95 5.95 0 0 1 4.42 3.3c.04.09.12.14.22.14l3.2.02c.03 0 .06-.01.08-.04a.09.09 0 0 0 .01-.08 8.7 8.7 0 0 0-1.22-2.57 9.8 9.8 0 0 0-1.59-1.8c-.01-.03 0-.05.03-.07Z" fill="#C1BFBE"/><path d="M35.76 20.33c.55.8.96 1.65 1.22 2.57.01.03 0 .06-.01.08a.09.09 0 0 1-.08.04L33.7 23a.23.23 0 0 1-.22-.14 5.95 5.95 0 0 0-4.42-3.3 5.85 5.85 0 0 0-3.3.4 6.1 6.1 0 0 0-3.69 4.82 6.28 6.28 0 0 0 1.04 4.44l.41.6a.63.63 0 0 1-.57-.33c-.25-.44-.5-.71-.73-.81a.6.6 0 0 1-.33-.35c-.03-.1-.1-.25-.18-.44-.11-.23-.18-.42-.22-.55a6.67 6.67 0 0 1 0-3.39c.01-.15.05-.31.11-.47.07-.14.12-.3.16-.48.07-.25.21-.54.44-.88.34-.48.68-.9 1.02-1.22l.34-.38.29-.33c.11-.11.22-.2.34-.27.5-.33 1.13-.63 1.86-.9.39-.15.78-.23 1.17-.24l1.4-.04c.14 0 .33.03.57.1l.4.1c.22.02.41.09.6.2.09.06.23.13.42.2.22.09.37.16.47.23l1.05.68c.13.09.24.2.33.33.05.08.12.2.2.38.1.21.19.37.27.47l.4.58c.06.08.13.14.21.19.09.04.18.06.27.06l.5-.03c.47-.03.82-.04 1.07-.04.24 0 .47-.02.7-.07a.1.1 0 0 0 .09-.08.1.1 0 0 0-.02-.1.94.94 0 0 1-.2-.39c-.07-.29-.18-.59-.33-.9-.06-.14-.01-.24.15-.32Z" fill="#BF0400"/><path d="M30.93 21.01c-.07.02-.08.04-.03.07-.03 0-.05 0-.07-.02-.1-.16-.25-.22-.43-.17a.12.12 0 0 0-.1.09l-.07.24a.13.13 0 0 1-.09.1c-.17.04-.35.06-.53.03a4.4 4.4 0 0 0-2.86.14c-.2.03-.38.1-.55.21a.2.2 0 0 0-.08.1.52.52 0 0 1-.18.2l-.12.1c-.26.28-.46.57-.6.89a.13.13 0 0 1-.1.08.12.12 0 0 1-.12-.03c-.15-.14-.32-.17-.51-.08 0-.23.06-.45.17-.66.2.06.37.07.54.04a.2.2 0 0 0 .1-.07c.3-.34.64-.66 1.02-.96.23-.18.55-.35.96-.5.14-.06.22-.18.25-.36.26-.07.56-.1.88-.1.2 0 .48.03.87.06l.23.02c.13.01.32.06.57.16l.4.13c.08.02.24.12.45.3Z" fill="#FE6863"/><path d="M27.53 20.45c-.03.18-.11.3-.25.35-.4.16-.73.33-.96.51-.38.3-.71.62-1.01.96a.2.2 0 0 1-.11.07c-.17.03-.35.02-.54-.04.32-.56.82-1.03 1.5-1.4.5-.27.95-.42 1.37-.45Z" fill="#FE9C9B"/><path d="M30.83 21.06c-.03 0-.06 0-.07.03-.09.16-.14.33-.18.5 0 .04-.03.07-.08.07-.14.02-.3 0-.45-.07-.1-.03-.23-.1-.4-.22l-.04-.02c.18.03.36.01.53-.04a.13.13 0 0 0 .09-.09l.08-.24a.12.12 0 0 1 .09-.09c.18-.05.32 0 .43.17Z" fill="#FF3C38"/><path d="m30.83 21.06.07.02a2.98 2.98 0 0 1 1.13 2.52c0 .05-.02.08-.07.08h-1.84c-.04 0-.06-.03-.07-.07-.04-.9-.46-1.4-1.26-1.54-.68-.1-1.26 0-1.72.31a1.25 1.25 0 0 0-.48.65c-.1.3-.05.55.13.75l.4.33c.04.03.05.08.05.13-.01.05-.04.09-.08.11l-.16.08a.2.2 0 0 0-.13.2c0 .1.04.16.13.2.5.23 1.02.39 1.57.47.18.03.35.07.53.14.16.06.34.12.52.16.49.14.92.31 1.29.54.1.05.13.03.12-.08a2.43 2.43 0 0 0-.1-.49c-.02-.05 0-.1.03-.13a.1.1 0 0 1 .13-.01l.28.14.69.74a5 5 0 0 0-.28 1.1c-.04.27-.1.5-.17.7-.09.21-.16.43-.24.66a3.1 3.1 0 0 1-.7.84c-.08.1-.28.16-.6.21l-.23-.03a.7.7 0 0 1 .32-.13c.05-.01.08-.03.12-.05.16-.13.28-.23.34-.3.1-.13.14-.26.13-.41a.1.1 0 0 1 .05-.1c.06-.05.1-.1.1-.14.1-.27.12-.51.07-.73a.18.18 0 0 0-.1-.12.17.17 0 0 0-.15 0l-.24.09a.08.08 0 0 1-.07 0 .08.08 0 0 1-.04-.05 1.73 1.73 0 0 0-.34-.67c.12-.46-.03-.81-.44-1.06a6.18 6.18 0 0 0-2.1-.74c-.44-.1-.86-.25-1.26-.46-.4-.21-.82-.28-1.25-.2l-.36-.71a.92.92 0 0 1-.09-.46c.16-.12.4-.06.68.16.03.03.06.03.1.02a.09.09 0 0 0 .06-.08c.13-1 .61-1.73 1.45-2.16a4.4 4.4 0 0 1 2.86-.14l.03.02c.18.11.32.19.41.22.16.07.31.09.45.07.05 0 .08-.03.08-.08.04-.16.1-.33.18-.5l.07-.02Z" fill="#E10501"/><path d="M26.75 21.49a2.66 2.66 0 0 0-1.45 2.16c0 .04-.03.06-.06.08a.09.09 0 0 1-.1-.02c-.29-.22-.52-.28-.68-.16-.06-.14-.05-.34.03-.59.19-.09.36-.06.51.08.04.03.08.04.12.03a.13.13 0 0 0 .1-.08 3.03 3.03 0 0 1 .72-.99c.1-.07.16-.14.18-.2a.2.2 0 0 1 .08-.1c.17-.11.36-.18.55-.21ZM39.69 27.49a1.35 1.35 0 0 0-.78-.37l.14-1.38c.04-.37 0-.97-.13-1.8 0-.02.01-.05.04-.08.08.08.17.1.26.07a.11.11 0 0 0 .07-.08c.13-.5.1-1.02-.07-1.55a.36.36 0 0 1-.01-.18c.03-.18.1-.19.2-.04.08.13.14.3.19.51a12.34 12.34 0 0 1 .09 4.9Z" fill="#FF3C38"/><path d="M19.97 22.54c.02.15 0 .34-.07.55l-.06.2c-.07.21-.12.37-.17.48-.07.17-.17.3-.27.42a.15.15 0 0 1-.11.05h-.46l.35-1.5c.36.13.62.06.79-.2Z" fill="#FE6863"/><path d="m14 23.7 1.08.14v19.28c0 .05-.02.1-.06.13a.25.25 0 0 1-.16.07l-.78.07c-.03 0-.05.02-.06.04a.08.08 0 0 0-.02.05V23.71Z" fill="#FF3C38"/><path d="M26.8 23.75c.3.25.55.41.8.5.4.13 1.06.3 1.95.5a4.01 4.01 0 0 1 .55.18c.28.1.48.2.62.25.22.1.43.22.63.35a.12.12 0 0 0-.05.04l-.28-.14a.1.1 0 0 0-.13.01.11.11 0 0 0-.03.13c.05.16.08.32.1.49.01.1-.03.13-.12.08-.37-.23-.8-.4-1.3-.54-.17-.04-.35-.1-.51-.16a2.6 2.6 0 0 0-.53-.14 5.68 5.68 0 0 1-1.57-.47.2.2 0 0 1-.13-.2c0-.1.04-.16.13-.2l.16-.08a.14.14 0 0 0 .08-.11c0-.05-.01-.1-.05-.13l-.4-.33c.05.02.07 0 .09-.03Z" fill="#FE6863"/><path d="m24.55 24 .36.72c.5.6 1.08.99 1.72 1.16.93.25 1.59.44 1.97.56.48.14.93.39 1.36.74.16.19.27.41.34.67 0 .02.02.04.04.05.03 0 .05.01.07 0l.24-.1c.05-.02.1-.02.15 0 .05.03.08.07.1.13.05.22.03.46-.07.73a.97.97 0 0 1-.05-.36c0-.05 0-.1-.04-.15a.22.22 0 0 0-.13-.09l-.4-.1-.1-.4c-.02-.06-.06-.1-.14-.1l-.8-.02a.22.22 0 0 1-.16-.07l-.06-.06a.21.21 0 0 0-.12-.07.8.8 0 0 1-.3-.1.16.16 0 0 0-.12-.02.22.22 0 0 1-.23-.1c-.04-.04-.09-.05-.14-.03a.25.25 0 0 1-.1.02.26.26 0 0 1-.15-.05.46.46 0 0 0-.31-.1c-.05 0-.1 0-.14-.03a1.07 1.07 0 0 0-.25-.09c-.1-.02-.17-.05-.22-.07l-.52-.25c-.43-.2-.75-.36-.94-.49a2.49 2.49 0 0 1-.76-.8.18.18 0 0 1-.02-.11.26.26 0 0 0-.09-.25c-.03-.03-.03-.07 0-.1a.32.32 0 0 0 .08-.13.16.16 0 0 0 0-.13.56.56 0 0 1-.07-.4Z" fill="#C1BFBE"/><path d="M29.95 27.18c-.42-.35-.87-.6-1.35-.74-.38-.12-1.04-.3-1.97-.56a3.4 3.4 0 0 1-1.72-1.16c.43-.08.85-.01 1.25.2.4.2.82.36 1.25.46l.74.18c.58.17 1.04.36 1.37.56.41.25.56.6.43 1.06Z" fill="#BF0400"/><path d="M31.35 25.53c.16.12.32.24.46.39l.44.4c.23.2.4.44.55.72.1.19.1.37.04.57-.03.07-.06.17-.08.31-.03.17-.07.3-.11.38-.04.08-.1.2-.16.37-.1.24-.17.41-.24.52-.17.27-.36.51-.58.72a.76.76 0 0 0-.14.18 5.08 5.08 0 0 1-.92.62c0 .01 0 .02-.02.03-.7.34-1.49.55-2.38.6-.23.02-.45 0-.64-.04a2.13 2.13 0 0 0-.35-.06c-.18 0-.3-.02-.35-.04a7.32 7.32 0 0 1-1.69-.85.23.23 0 0 1-.1-.14.26.26 0 0 0-.19-.19.21.21 0 0 1-.13-.11 2.8 2.8 0 0 0-.22-.37 1.76 1.76 0 0 1-.32-1.06c.12.47.3.88.57 1.23a3.9 3.9 0 0 0 2.45 1.34c.88.14 1.72.1 2.53-.16.5-.15.94-.38 1.32-.68.37-.3.67-.66.88-1.07.2-.42.32-.87.33-1.34.01-.5-.1-1-.31-1.49l-.69-.74.05-.04Z" fill="#C1BFBE"/><path d="M31.99 26.31c.22.5.32 1 .3 1.49 0 .47-.11.92-.32 1.34-.21.4-.5.76-.88 1.07-.38.3-.82.53-1.32.68-.8.25-1.65.3-2.53.16a3.9 3.9 0 0 1-2.45-1.34l.74-.02c.04 0 .09.01.12.05.22.18.43.3.64.35 1.12.28 2.22.29 3.32.02a.61.61 0 0 0 .39-.29c.32-.05.52-.12.6-.2.42-.41.65-.7.7-.85.08-.23.15-.45.24-.67.07-.2.13-.42.17-.68a5 5 0 0 1 .28-1.1Z" fill="#BF0400"/><path d="M38.91 27.12c.34.06.6.18.78.37l-.3 1.34a.47.47 0 0 0-.16.21 13.83 13.83 0 0 1-1.4 3.06c-.16.24-.44.59-.85 1.04a.14.14 0 0 1-.1.05.1.1 0 0 1-.08-.04c.06-.15.15-.29.25-.42.12-.15.2-.29.25-.41l.31-.78c.05-.12.02-.25-.09-.4.7-1.26 1.16-2.6 1.4-4.02Z" fill="#FE6863"/><path d="M26.19 27.45c-.04.02-.05.04-.04.05-.16-.1-.31-.1-.45.02a.18.18 0 0 0-.06.1c-.12.72-.63.88-1.52.47l.03-.46c0-.06.03-.1.07-.14a.2.2 0 0 1 .14-.06c.54-.01 1.08-.05 1.63-.1.09-.01.15.03.2.12Z" fill="#FE9C9B"/><path d="m26.15 27.5.05.36c.02.21.05.37.08.47.06.16.16.3.32.44l.6.37c0 .2-.04.37-.1.49a.18.18 0 0 0 0 .15c.03.05.06.08.11.1.78.27 1.53.27 2.25-.02.13.01.23-.01.3-.07l.24.03a.61.61 0 0 1-.39.29c-1.1.27-2.2.26-3.32-.02a1.56 1.56 0 0 1-.64-.35.18.18 0 0 0-.12-.05l-.74.02a3.32 3.32 0 0 1-.57-1.23l-.1-.39c.89.4 1.4.25 1.52-.46.01-.05.03-.08.06-.11.14-.12.29-.13.45-.02Z" fill="#FD0600"/><path d="m26.19 27.45.07.16a.1.1 0 0 0 .09.07c.08 0 .15-.03.21-.1.03-.03.06-.03.09 0a.1.1 0 0 1 .03.11.42.42 0 0 0 .06.36c.02.03.02.07 0 .1-.06.12-.17.18-.32.18-.01 0-.03.01-.03.03v.04c.13.13.2.25.2.37a1.12 1.12 0 0 1-.3-.44c-.04-.1-.07-.26-.09-.47a4.78 4.78 0 0 0-.05-.36c-.01-.01 0-.03.04-.05Z" fill="#C1BFBE"/><path d="m30.2 27.96.41.1c.06.02.1.05.13.09.03.04.05.1.04.15 0 .12.01.24.05.36 0 .04-.04.09-.1.14a.1.1 0 0 0-.05.1c.01.15-.03.28-.13.4-.06.08-.18.18-.34.3a.23.23 0 0 1-.12.06.7.7 0 0 0-.32.13.42.42 0 0 1-.31.07c.18-.19.39-.35.62-.48a.5.5 0 0 0 .2-.22 1 1 0 0 0 .07-.26c0-.09.02-.16.04-.21a.16.16 0 0 0-.02-.13.91.91 0 0 0-.25-.27l.09-.33Z" fill="#FE6863"/><path d="m19.06 28.2.8 1.91a9.64 9.64 0 0 0 4.44 4.23 9.02 9.02 0 0 0 8.23-.35 9.38 9.38 0 0 0 4.4-5.39l.06-.19c.1.13.23.22.37.25.05.02.07.05.06.1l-.01.13a1.4 1.4 0 0 1-.07.34 10.23 10.23 0 0 1-3.54 4.59c-.55.4-1.16.74-1.82 1.02-.56.23-1.22.44-1.99.62-.38.1-.78.14-1.17.14-.61 0-1.2 0-1.74-.03a.4.4 0 0 1-.18-.06.22.22 0 0 0-.13-.03c-.22.01-.44-.01-.65-.07-.53-.14-1.08-.33-1.63-.55a8.8 8.8 0 0 1-4.61-4.23c-.05-.1-.11-.26-.17-.49a2.8 2.8 0 0 0-.13-.37c-.24-.5-.4-1.02-.52-1.56Z" fill="#C1BFBE"/><path d="M30.12 28.29c.1.07.19.16.25.27.02.04.03.08.02.13-.02.05-.03.12-.04.21a1 1 0 0 1-.06.26.5.5 0 0 1-.21.22c-.23.13-.44.3-.62.48-.72.29-1.47.3-2.25.02a.18.18 0 0 1-.1-.1.18.18 0 0 1 0-.15c.05-.12.08-.28.1-.5.3.1.6.16.87.2.38.04.67.02.88-.06.06-.03.16-.05.28-.06l.18-.03a.53.53 0 0 0 .2-.1c.25-.19.42-.46.5-.8ZM36.36 28.4c-.15.22-.32.39-.52.51-.23.15-.46.2-.68.18a3.07 3.07 0 0 0-.86.04c-.38.07-.62.18-.71.34-.07.11-.06.19.01.22-.03.08-.06.13-.1.15a.15.15 0 0 0-.1.08l-.1.28-.8.76a1 1 0 0 0-.57.39l-.07.02c-.18.11-.36.21-.55.29l-.57.26c-.45.23-.82.37-1.12.42-.68.12-1.4.07-2.18-.15-.33-.1-.49-.23-.47-.4l.65.03c.48.02.83.03 1.07.02a4.47 4.47 0 0 0 1.72-.36 3.18 3.18 0 0 0 .74-.37c.37-.22.64-.4.8-.54a7.5 7.5 0 0 0 1.57-2.03.1.1 0 0 1 .08-.06l2.76-.08Z" fill="#FE9C9B"/><path d="M36.93 28.6a9.28 9.28 0 0 1-4.4 5.39 9.3 9.3 0 0 1-5.3 1.13 9.02 9.02 0 0 1-5.47-2.5 9.64 9.64 0 0 1-1.9-2.5c.14.03.26.16.36.36.07.13.14.22.22.25.05.02.1.03.17.03.06 0 .1.02.15.07a10.08 10.08 0 0 0 5.42 3.3c.2.06.41.1.66.12l.7.04c.41.01.72.04.92.06.11.02.29 0 .52-.07.2-.05.34-.08.43-.08.21 0 .41-.04.6-.1l1.04-.37a.84.84 0 0 1 .21-.05c.05 0 .1-.03.17-.09a4.04 4.04 0 0 0 2.62-1.72l.64-.77c.36-.46.7-.95 1-1.48.06-.11.14-.22.24-.32.05-.06.14-.15.27-.26.17-.16.29-.28.37-.38.08-.1.2-.12.36-.06Z" fill="#BF0400"/><path d="M39.4 28.83a8.6 8.6 0 0 1-1.71 3.69l-.94 1.16c-.09.11-.23.25-.43.4a9.23 9.23 0 0 1-2.16 1.63c0-.09.07-.19.2-.29.19-.13.38-.24.58-.35a.27.27 0 0 0 .1-.09.8.8 0 0 1 .4-.33c.05-.02.1-.05.13-.1a.31.31 0 0 0 .06-.2c.45-.35.84-.75 1.17-1.2a.1.1 0 0 0 .07.04c.05 0 .09-.02.12-.05.4-.45.68-.8.83-1.04.57-.9 1.04-1.92 1.41-3.06a.47.47 0 0 1 .17-.21Z" fill="#FF3C38"/><path d="m23.1 29.22.06-.03c.24.33.44.58.6.76.23.27.46.48.7.63l.61.45c.03.03.07.04.11.05.07 0 .15.04.25.11l.15.1c.4.18.66.28.8.31.23.05.43.11.6.2-.03.16.13.3.46.39.77.22 1.5.27 2.18.15.3-.05.67-.2 1.12-.42l.57-.26c.19-.08.37-.18.55-.29l-.08.2a.2.2 0 0 1-.11.1c-.22.09-.42.2-.6.32a4.34 4.34 0 0 1-1.78.57c-.93.07-1.8.04-2.63-.1a4.87 4.87 0 0 1-1.5-.56.75.75 0 0 1-.27-.25.11.11 0 0 1 0-.13l.15-.24a.14.14 0 0 0 .01-.1.13.13 0 0 0-.06-.09 7.57 7.57 0 0 1-1.48-1.28l-.41-.6Z" fill="#FE6863"/><path d="M26.7 29.7c.1.06.2.15.29.26.04.06.03.07-.04.04l-.43-.2a.12.12 0 0 1-.08-.09l-.04-.22c-.01-.07.01-.1.07-.1h.2c.11-.01.13.03.06.12l-.06.06c-.04.05-.03.1.02.13ZM33.6 29.7c.06.21-.05.38-.3.5l.1-.28a.15.15 0 0 1 .1-.08c.04-.02.07-.07.1-.15Z" fill="#FF3C38"/><path d="M32.5 30.95c-.17.28-.36.41-.57.4a1 1 0 0 1 .57-.4Z" fill="#FE6863"/><path d="M37.52 31.14c.11.15.14.28.1.4l-.32.78a1.7 1.7 0 0 1-.25.4c-.1.14-.19.28-.25.43-.33.45-.72.85-1.17 1.2l-.27.2a.09.09 0 0 1-.08 0h-.04a.11.11 0 0 0-.1.02l-1.07.78c-.18.13-.48.28-.88.44-.34.14-.6.26-.76.36-.12.08-.25.13-.38.16l-.44.14c-.23.09-.41.14-.54.17a10 10 0 0 1-1.95.15.18.18 0 0 1-.17-.1c-.06-.13-.04-.21.06-.24.83-.07 1.65-.22 2.44-.45a9.83 9.83 0 0 0 3.49-1.83 11.23 11.23 0 0 0 2.58-3Z" fill="#FE9C9B"/><path d="M19.9 33.23c.07.05.1.12.1.2l-.03 2.11c0 .05-.02.08-.05.11-.17.15-.43.14-.78-.05v-2.82c0-.04.01-.08.04-.1.06-.05.1-.04.13.02.12.26.25.51.4.76.01.03.04.04.07.03.04 0 .06-.02.06-.05l.06-.2ZM23.81 35.42c-.07.35-.03.58.14.7.3.2.77.44 1.37.72.14.06.3.1.47.09.16 0 .31 0 .47.04l1.08.17c.3.04.75.06 1.36.07h.57c-.15.01-.3.04-.45.08-.16.04-.3.06-.45.06a11 11 0 0 1-3.12-.43c-.42-.1-.79-.24-1.12-.4a54.9 54.9 0 0 1-1.8-.92 5 5 0 0 1-1.34-1.06c-.05-.05-.05-.1 0-.17l.01-.03a.06.06 0 0 1 .05-.03c.01 0 .03 0 .04.02.35.3.7.48 1.03.52.05 0 .09 0 .12-.04a.13.13 0 0 0 .03-.12.29.29 0 0 0-.16-.2c-.39-.2-.72-.49-1-.85.46.32.91.65 1.35.99.2.15.42.3.66.43.17.1.4.22.7.36Z" fill="#FF3C38"/><path d="M35.63 34.35c0 .08-.02.14-.06.2a.28.28 0 0 1-.14.1.8.8 0 0 0-.4.34.26.26 0 0 1-.1.08c-.2.1-.38.23-.56.36-.14.1-.2.2-.21.3l-.35.14a1.1 1.1 0 0 0-.35.2c-.19.16-.41.27-.68.34-.2.04-.39.1-.58.17-.67.24-1.36.42-2.08.56-.28.05-.56.07-.85.07h-.57a10.82 10.82 0 0 1-2.44-.24 2.4 2.4 0 0 0-.47-.04c-.17 0-.33-.03-.47-.1-.6-.27-1.06-.51-1.37-.72-.17-.11-.21-.34-.14-.69a12 12 0 0 0 3.64.95 27.43 27.43 0 0 0 1.56.06c-.1.03-.12.1-.06.23.04.07.1.1.17.1a10 10 0 0 0 1.95-.14c.13-.03.3-.08.54-.17l.44-.14c.13-.03.26-.08.38-.16a6 6 0 0 1 .76-.36c.4-.16.7-.31.88-.44l1.07-.78a.11.11 0 0 1 .1-.02h.04c.03.02.06.01.08 0l.27-.2Z" fill="#FE6863"/></svg>