<!-- by TradingView --><svg width="56" height="56" viewBox="0 0 56 56" xmlns="http://www.w3.org/2000/svg"><path fill="#222" d="M0 0h56v56H0z"/><path fill-rule="evenodd" d="M8 20v14h2v-5h2.38c2.55 0 4.62-1.83 4.62-4.38A4.62 4.62 0 0 0 12.38 20H8Zm2 1.5h2.32c1.48 0 2.68 1.34 2.68 3s-1.2 3-2.68 3H10v-6ZM26.99 29h-7.15c0 2.46 1.45 3.5 3.06 3.5 1.3 0 2.2-.68 2.5-1.05l1.38.8c-.32.58-1.56 1.75-4 1.75-4.22 0-4.78-4.02-4.78-4.83 0-.8.25-5.17 4.78-5.17 3.62 0 4.32 3.28 4.21 5Zm-1.79-1.5h-5c0-.3.9-2 2.54-2 1.31 0 2.28 1.2 2.46 2Zm4.64 1.5H37c.1-1.72-.59-5-4.21-5-4.53 0-4.78 4.37-4.78 5.17 0 .8.56 4.83 4.78 4.83 2.44 0 3.68-1.17 4-1.75l-1.39-.8c-.29.37-1.2 1.05-2.49 1.05-1.61 0-3.06-1.04-3.06-3.5Zm.36-1.5h5c-.18-.8-1.15-2-2.46-2-1.65 0-2.54 1.7-2.54 2Zm9.8 4.6v-6.6h-2V24h2v-2.14l2-.86v3h2v1.5h-2v5.8c0 .76.67 1.08 1.06 1.15.76 0 1.34-.37 1.53-.55v1.73c-.3.12-1.11.37-1.96.37-1.87 0-2.53-1.27-2.63-1.9ZM47 22a1 1 0 1 0 0-2 1 1 0 0 0 0 2Zm-1 2h2v10h-2V24Z" fill="#fff"/></svg>