<!-- by TradingView --><svg width="56" height="56" viewBox="0 0 56 56" xmlns="http://www.w3.org/2000/svg"><path fill="#F0F3FA" d="M0 0h56v56H0z"/><path fill-rule="evenodd" d="M6 31v-9h4.24a2.76 2.76 0 1 1 0 5.52H7.7V31H6Zm3.98-7.68H7.73v2.7h2.25a1.35 1.35 0 1 0 0-2.7ZM19.96 28a3.5 3.5 0 1 0-.6 1.5l-1.53-.61a1.93 1.93 0 0 1-3.2-.89h5.33Zm-3.46-2.45c-.7 0-1.33.38-1.67.95h3.34a1.93 1.93 0 0 0-1.67-.95Zm28 1.95c0 .17-.01.34-.04.5h-5.33a1.94 1.94 0 0 0 3.23.88l1.54.58a3.5 3.5 0 1 1 .6-1.96Zm-5.16-1a1.93 1.93 0 0 1 3.32 0h-3.32ZM24 31a3.5 3.5 0 1 0 0-7 3.5 3.5 0 0 0 0 7Zm0-1.5a2 2 0 1 0 0-4 2 2 0 0 0 0 4Zm4-5.5h1.7v.82c.5-.51 1.14-.82 1.85-.82 1.57 0 2.85 1.54 2.85 3.43 0 1.9-1.28 3.43-2.85 3.43-.7 0-1.35-.3-1.85-.82V33H28v-9Zm3.35 5.5c.91 0 1.65-.9 1.65-2s-.74-2-1.65-2c-.9 0-1.65.9-1.65 2s.74 2 1.65 2ZM35 22h1.7v9H35v-9Zm10 6.78h1.61c.07.3.46.89 1.45.89 1.23 0 1.25-.47 1.25-.68 0-.2-.07-.8-1.38-1.03l-.44-.08c-1.15-.19-2.19-.36-2.19-1.7 0-1.5 1.31-2.18 2.52-2.18 1.2 0 2.8.72 2.8 2.19v.36h-1.31c-.1-.44-.53-1.32-1.5-1.32-1.12 0-1.1.72-1.09.93v.03c0 .13.6.39 1.5.52.88.14 2.78.95 2.78 2.28 0 1.34-1.14 2.01-2.94 2.01S45 29.88 45 28.78Z" fill="#0119FF"/></svg>