<!-- by TradingView --><svg width="56" height="56" viewBox="0 0 56 56" xmlns="http://www.w3.org/2000/svg"><path fill="#F0F3FA" d="M0 0h56v56H0z"/><path fill-rule="evenodd" d="M19 20H8v21h3v-7h8v3h29V17H19v3ZM9 21h28.5c1.06 0 2.66.26 4 1.07A4.92 4.92 0 0 1 44 26.5c0 2.66-1.07 4.31-2.46 5.28A7.25 7.25 0 0 1 37.5 33H10v7H9V21Zm1 11h27.5c.93 0 2.32-.24 3.46-1.03 1.11-.78 2.04-2.13 2.04-4.47 0-1.8-.88-2.9-2-3.57a7.18 7.18 0 0 0-3.5-.93H10v10Zm9-9v7h1v-5l3 4 3-4v5h1v-7h-1l-3 4-3-4h-1Zm12 0h-1v7h6v-1h-5v-6Z" fill="#E21C2A"/></svg>