<!-- by TradingView --><svg width="56" height="56" viewBox="0 0 56 56" xmlns="http://www.w3.org/2000/svg"><path fill="#F0F3FA" d="M0 0h56v56H0z"/><path d="M16.59 23.46c.04.11.13.2.28.29l.7.93c.03.04.02.07 0 .1l-.05.03h-.05l-.93-1.01a5.67 5.67 0 0 0-3.98-1.24 5.1 5.1 0 0 0-3.9 1.92 3.94 3.94 0 0 0-.89 2.66l.02.27c.2 1.24.79 2.23 1.78 2.97a3.98 3.98 0 0 0 1.13.71c1.71.68 3.4.63 5.07-.15.4-.19.41-.15.07.11-.32.23-.67.42-1.06.56-.3.1-.7.2-1.18.28a6.07 6.07 0 0 1-4.76-1.06l-.4-.38a5.24 5.24 0 0 1-1.56-2.33.65.65 0 0 0-.11-.48 3.87 3.87 0 0 1 .6-3.13 5.9 5.9 0 0 1 5.4-2.5c1.52.06 2.8.55 3.82 1.45Z" fill="#2A4FA1"/><path d="M16.88 23.75c-.16-.08-.25-.18-.3-.29 1.08-.26 2.09-.44 3.01-.53.47-.05.97 0 1.52.14.28.08.4.3.35.66-.03.27-.12.54-.27.78a3.8 3.8 0 0 1-2.07 1.54c-.03 0-.06 0-.09-.03-.05-.08-.04-.15.04-.21.25-.18.48-.37.7-.56.16-.14.27-.3.34-.46.08-.18.1-.34.08-.5a.64.64 0 0 0-.23-.42 1 1 0 0 0-.57-.2 8.3 8.3 0 0 0-1.71.02 3.3 3.3 0 0 1-.4.02c-.15 0-.28.01-.4.04ZM16.28 23.6c.09.03.17.1.26.2l-.68.17a35.38 35.38 0 0 0-8.07 3.44l-.02-.27c2.66-1.62 5.5-2.8 8.5-3.54ZM6.77 27.64c.1.13.13.29.11.48-.37.45-.73.88-1.1 1.3a1.1 1.1 0 0 0-.17.43c-.05.23 0 .43.15.58.14.14.33.22.58.23.67.02 1.35-.02 2.01-.12.06-.01.09-.04.09-.09l.4.38a8.54 8.54 0 0 1-3.09.63 2.7 2.7 0 0 1-.7-.1 1.98 1.98 0 0 1-.67-.28.84.84 0 0 1-.36-.5c-.05-.23 0-.48.18-.75.23-.37.55-.71.96-1.02.54-.41 1.07-.8 1.61-1.17ZM14.12 28.84c.08-.01.11.02.11.1.02.02 0 .04-.04.06-1.44.59-2.91 1.1-4.42 1.56a.44.44 0 0 1-.2-.18c.1-.1.2-.17.27-.2 1.4-.5 2.83-.95 4.28-1.34Z" fill="#E5B33D"/><path fill-rule="evenodd" d="M21.5 30h3v-1h-2v-3h-1v4ZM15 26v1h1.46c.2 0 .36.03.36.24 0 .2-.16.36-.36.36H15V30h1v-1.55h.83A1.2 1.2 0 0 0 18 27.22 1.2 1.2 0 0 0 16.83 26H15Zm6 0h-3v1h3v-1Zm-3 1.5h3v1h-2V30h-1v-2.5ZM31 26h3v1h-3v-1Zm3 1.5h-3V30h1v-1.5h2v-1Zm8-1.5h2.7v1H42v-1Zm2.7 1.5H42V30h2.7v-1H43v-.5h1.7v-1ZM25 26v4h1v-4h-1Zm2 4v-4h2.27c.4 0 .73.4.73.89V30h-.99v-2.5c0-.3-.2-.5-.44-.5H28v3h-1Zm9.5 0a2 2 0 1 0 0-4 2 2 0 0 0 0 4Zm0-1c.49 0 .88-.45.88-1s-.4-1-.88-1c-.49 0-.88.45-.88 1s.4 1 .88 1Zm2.5-3h2.5v1H39v-1Zm0 2.93v-1.47h1v1.1c0 .29.22.44.47.44H41v1h-1.09c-.5 0-.91-.48-.91-1.07ZM47.5 27v-1h-.7c-1 0-1.8.9-1.8 2s.8 2 1.8 2h.7v-1h-.52c-.56 0-.98-.42-.98-1.04 0-.62.42-.96.98-.96h.52Zm.5-1h1v1.5h1.46v1H49V30h-1v-4Zm3 1.5h1V30h-1v-2.5Zm1-1.5h-1v1h1v-1Z" fill="#D63955"/></svg>