<!-- by TradingView --><svg width="56" height="56" viewBox="0 0 56 56" xmlns="http://www.w3.org/2000/svg"><path fill="#F0F3FA" d="M0 0h56v56H0z"/><path d="M19.19 17.84c.17-1.32.6-2.59 1.26-3.8.02-.04.05-.05.08-.03.08.03.1.08.07.14a13.79 13.79 0 0 0 .54 12.04 9.23 9.23 0 0 0 1.88 2.5 8.07 8.07 0 0 0 2.54 1.65 6.14 6.14 0 0 0 5.86-.62c1.2-.81 2.18-1.85 2.95-3.1a12.03 12.03 0 0 0 1.52-3.93 16.44 16.44 0 0 0-.58-8.38c0-.05 0-.08.05-.1l.14-.05c.02-.01.04 0 .04.02 2.33 5.76 1.87 10.92-1.4 15.46a8.2 8.2 0 0 1-2.63 2.35 6.79 6.79 0 0 1-6.8.19A9.06 9.06 0 0 1 22.06 30c-.77-.9-1.38-1.92-1.84-3.05a17.64 17.64 0 0 1-1.03-9.12Z" fill="#FFC700"/><path d="M28.19 25.07a3 3 0 1 0 .14-6 3 3 0 0 0-.14 6Z" fill="#FB7808"/><path d="M13.52 32.83c.46.53 1 1 1.62 1.42 2.94 1.94 5.89 3.4 8.84 4.36.82.27.8.4-.06.39h-.89c-1.6 0-2.8-.09-3.6-.26-4.42-1-7.56-3.65-9.4-7.95a.33.33 0 0 1 .01-.3c.06-.1.14-.15.25-.17 7.13-1.27 12.36 1.22 15.7 7.46.04.07.04.14-.01.2a.16.16 0 0 1-.2.07 47.45 47.45 0 0 1-6.2-2.38 110.1 110.1 0 0 1-5.93-3c-.32-.17-.36-.11-.13.16ZM42.32 32.66a80.78 80.78 0 0 1-11.56 5.26.44.44 0 0 1-.2.03 1.55 1.55 0 0 0-.21-.02c-.35 0-.43-.15-.27-.45 3.4-6.04 8.64-8.42 15.7-7.15.08.02.14.06.19.13.04.08.04.15.01.23a13.41 13.41 0 0 1-2.34 3.88 12.87 12.87 0 0 1-7.4 4.21c-1.48.27-2.99.3-4.53.07-.28-.04-.28-.1-.02-.18a34.86 34.86 0 0 0 10.07-5.1c.28-.2.52-.45.7-.76.15-.23.1-.28-.14-.15Z" fill="#A4CB30"/><path d="M35.69 39.72a26.8 26.8 0 0 1 6.08 1.97c.36.17.35.2-.03.08a46.14 46.14 0 0 0-28.78.22.08.08 0 0 1-.07 0c-.04-.03-.04-.05 0-.07 7.4-3.05 15-3.78 22.8-2.2Z" fill="#A4CB30"/></svg>