<!-- by TradingView --><svg width="56" height="56" viewBox="0 0 56 56" xmlns="http://www.w3.org/2000/svg"><path fill="#F0F3FA" d="M0 0h56v56H0z"/><path fill-rule="evenodd" d="M20.34 38.9c.22.1.47.1.75-.01.3-.12.6-.13.9-.03.25.07.56.12.92.14a14 14 0 0 0 1.4 0l9.73-.01c1.37 0 2.5-.13 3.39-.38 1.38-.4 2.99-.96 4.83-1.7a12.01 12.01 0 0 0 3.1-1.8 11.63 11.63 0 0 0 2.55-2.68A7.9 7.9 0 0 0 49 28.08c0-.16-.05-.4-.14-.68a3 3 0 0 1-.13-.52 3.48 3.48 0 0 0-.23-.9 9.04 9.04 0 0 0-3.55-4.27 25 25 0 0 0-3.94-2c-.95-.38-2.42-.9-4.4-1.54a.56.56 0 0 0-.34 0c-.67.17-1.33.18-2 0a1.17 1.17 0 0 0-1.22.34.44.44 0 0 0-.1.44c.06.26.03.51-.1.75l-2.07 3.79a.44.44 0 0 1-.32.23.43.43 0 0 1-.4-.1c-.36-.32-.79-.58-1.3-.76a2.47 2.47 0 0 0-1.48-.13c-.36.1-.7.1-1.04.02-.4-.1-.84-.12-1.31-.08-.91.1-1.76.15-2.56.18a.49.49 0 0 0-.34.15c-.1.1-.14.21-.15.35a5.45 5.45 0 0 1-.77 2.43 12.58 12.58 0 0 1-3.36 5.91c-.32.47-.55.84-.68 1.1a.39.39 0 0 1-.22.2c-.75.26-1.48.2-2.21-.18l-2.25-1.18a2.33 2.33 0 0 1-.61-.52 15.42 15.42 0 0 0-.2-.22 5.82 5.82 0 0 1-1.12-2.53c-.2-.77-.13-1.62.19-2.53a5.6 5.6 0 0 1 1.32-2.13 12.8 12.8 0 0 1 3.98-2.6 27.26 27.26 0 0 1 6.17-1.71c.73-.1 1.42-.22 2.07-.37.7-.17 1.4-.28 2.08-.32 1.22-.1 2.43-.2 3.62-.33.13-.01.35 0 .66.01.35.03.61.03.78.01a.97.97 0 0 0 .63-.3c.1-.1.12-.23.08-.38a.37.37 0 0 0-.28-.27c-.6-.14-1.2-.22-1.8-.24-.16 0-.4-.04-.7-.1-.37-.07-.65-.1-.85-.1-.38.02-.94.04-1.68.05l-2 .06c-.75.05-1.43.13-2.04.25-.4.08-1.02.19-1.85.32a22.91 22.91 0 0 0-7.87 2.4 15.1 15.1 0 0 0-3.78 2.81c-.43.44-.8.97-1.12 1.57-.21.42-.46 1-.73 1.76-.13.36-.23.7-.3 1.05-.08.47-.05.86.08 1.2l.26.66c.35.9.63 1.56.85 1.98.36.69.79 1.27 1.28 1.75l.57.57c.34.35.6.61.78.77.3.28.58.5.85.66.7.43 1.43.82 2.22 1.16.39.17.82.3 1.3.37.29.05.72.1 1.3.13.65.04 1.15.1 1.49.16.25.04.46-.03.64-.22a.7.7 0 0 0 .18-.67c-.06-.25-.03-.5.08-.74.25-.57.46-1 .62-1.31.25-.5.5-.9.74-1.21a.36.36 0 0 1 .25-.15c1.49-.2 2.9-.5 4.2-.9.34-.1.65-.05.93.17.08.06.17.1.27.1 1.18.07 2.36.05 3.51-.04a.43.43 0 0 0 .33-.19c.08-.11.1-.23.07-.37-.06-.3.03-.73.28-1.29.17-.39.4-.8.68-1.22.32-.48.61-.98.87-1.5a6.84 6.84 0 0 1 1.1-1.45c.6-.6 1.1-.86 1.53-.8a.4.4 0 0 1 .33.28c.07.15.05.3-.05.43a3.55 3.55 0 0 1-.24.3c-.19.22-.32.4-.39.53a31.94 31.94 0 0 1-2.28 3.63 2.19 2.19 0 0 1-.6.57 2.9 2.9 0 0 0-.47.37c-.15.17-.22.34-.2.51 0 .09.04.16.1.22.07.06.14.09.23.09h.24c.7 0 1.23.04 1.58.12.57.13 1.14.16 1.73.1.11-.02.2-.07.28-.15a.47.47 0 0 0 .14-.28c.11-.81.38-1.6.81-2.34.86-1.47 1.67-2.9 2.45-4.27.2-.34.3-.7.32-1.08.03-.46-.08-.81-.34-1.07-.3-.28-.67-.46-1.14-.52a6.86 6.86 0 0 0-1.37.02.43.43 0 0 0-.24.1.5.5 0 0 1-.5.08c-.1-.03-.13-.1-.1-.2.14-.52.42-.83.84-.9.24-.05.65 0 1.22.14l.42.1c.37.06.74.17 1.11.3 1.3.48 2.25.86 2.87 1.13 1.3.57 2.51 1.46 3.66 2.67.8.84 1.21 1.7 1.24 2.58a7 7 0 0 1-.45 2.15c-.42 1.29-1.73 2.51-3.92 3.67-.43.23-.93.45-1.5.66a48.2 48.2 0 0 1-2 .7c-1.33.44-2.8.75-4.42.91-.68.07-1.39.16-2.11.26-.75.1-1.46.18-2.11.23-2.08.17-4.6.28-7.53.31-.52.01-1.04-.04-1.55-.15a3.77 3.77 0 0 0-1.8.08.29.29 0 0 0-.17.14.3.3 0 0 0-.05.2c.06.39.37.66.93.82.41.12.85.16 1.32.14.17-.01.2.04.07.17a.47.47 0 0 1-.3.13c-.19.01-.2.06-.02.13ZM23.8 30a4.52 4.52 0 0 0 1.7-1.6l.68-1.04c.25-.38.4-.86.47-1.42.02-.1-.03-.17-.12-.2a2.21 2.21 0 0 0-1.42 0c-.33.14-.7.43-1.12.88-.37.4-.84 1.05-1.43 1.98l-.74 1.12c-.04.05-.1.1-.16.11-.11.03-.18.1-.2.21 0 .1.03.15.11.18.73.25 1.47.18 2.23-.22Z" fill="#221E1F"/></svg>