<!-- by TradingView --><svg width="56" height="56" viewBox="0 0 56 56" xmlns="http://www.w3.org/2000/svg"><path fill="url(#ahs0n3buk)" d="M0 0h56v56H0z"/><path d="M45.14 29c.67-1.85.37-3.33-.9-4.45-2.05-1.82-6.78-5.9-14.19-12.2A6.68 6.68 0 0 0 28 11.03a2.97 2.97 0 0 0-2.28.17c-.54.26-1.13.75-1.76 1.5a590.9 590.9 0 0 1-9.15 10.46c-.81.91-1.97 2.25-3.46 4.03-.18.2-.35.44-.52.72-.2.31-.3.56-.34.73-.16.93 0 1.9.49 2.9a4.2 4.2 0 0 1-.97-2.36 3.15 3.15 0 0 1 .81-2.4c1.36-1.5 2.7-3.02 4.01-4.56 3.16-3.67 6.3-7.3 9.43-10.86a4.19 4.19 0 0 1 2.02-1.33 4.58 4.58 0 0 1 3.7 1.2c2.6 2.22 4.52 3.89 5.78 5 .59.54 1.1.97 1.53 1.32.52.42 1.04.85 1.55 1.3 1.98 1.73 3.94 3.43 5.88 5.09.4.34.72.81.97 1.42a3.3 3.3 0 0 1-.55 3.62Z" fill="#D04336"/><path d="M45.14 29c-.62.93-1.33 1.83-2.13 2.7l-1.9 2.07c-2.8 3.23-5.62 6.45-8.43 9.67l-.77.92c-.29.34-.58.66-.89.94-1.68 1.02-3.22.92-4.63-.27a653.44 653.44 0 0 1-7.86-6.82c-2.26-2-4.3-3.74-6.1-5.22-.64-.52-1.13-1-1.45-1.44-.49-1-.65-1.97-.49-2.9.03-.17.15-.42.34-.73.17-.28.34-.51.52-.72 1.5-1.78 2.65-3.12 3.46-4.03a529.54 529.54 0 0 0 9.15-10.47 5.63 5.63 0 0 1 1.76-1.49 2.97 2.97 0 0 1 2.28-.17c.57.19 1.26.62 2.05 1.3 7.4 6.32 12.14 10.39 14.2 12.2 1.26 1.13 1.56 2.6.9 4.45Z" fill="#D61203"/><path d="M25.86 27.55c-.03.13.06.14.29.04.34-.15.4-.27.17-.36-.18-.14-.25-.34-.21-.6.05-.32.09-.65.1-.98.01-.06.05-.1.12-.13a.39.39 0 0 1 .17 0c.1.15.2.12.3-.1.54-.5 1-.97 1.38-1.4a.69.69 0 0 0 .15-.3c.02-.08-.02-.11-.1-.09l-.18.06c.18-.54.1-.94-.22-1.2-.65-.53-1.47-.69-2.44-.46-.14.03-.21-.02-.2-.16l.01-.08c.02-.15.1-.24.26-.29a5.9 5.9 0 0 1 1.66-.18.4.4 0 0 0 .25-.08c.22-.15.4-.22.58-.22h2.93c.1 0 .14.04.11.13-.04.16-.17.26-.36.3a.17.17 0 0 0-.14.11.16.16 0 0 0 .03.17c.34.36.43.76.28 1.2-.17.52-.54 1.25-1.11 2.17-.18.29-.24.63-.18 1.04.05.42.22.72.5.9.13.1.36.16.67.17.29.02.53.07.71.16.65.12.8 0 .48-.4-.06-.34-.36-.74-.89-1.19-.28-.24-.33-.54-.15-.89.32-.04.48-.13.48-.25.06-.06.1-.12.1-.19l1-.98c.3-.29.62-.52.98-.69.84-.4 1.7-.78 2.55-1.15.1-.04.21-.17.32-.37.08-.08.21-.16.39-.24a.18.18 0 0 1 .16 0c.06.04.09.08.09.14v.77c0 .08-.02.16-.07.22a.42.42 0 0 1-.2.15l-3.28 1.13c-.15.05-.2.14-.18.28 0 .07.05.1.13.1.22.02.47 0 .75-.04l.75-.18.64-.15c.16-.03.33-.09.5-.17a6.1 6.1 0 0 0 .68-.4.18.18 0 0 1 .18 0c.07.03.1.08.1.14l.03.71c0 .1-.05.16-.15.18l-3.45.66c-.13.03-.18.1-.17.21l.01.06c.01.06.05.1.12.1 1.12-.05 2.23-.2 3.33-.44.08-.02.14 0 .2.04s.09.1.09.16v.61c0 .09-.05.14-.14.17-.25.07-.48.1-.69.1-.95.03-1.91.1-2.89.21a.09.09 0 0 0-.06.04.08.08 0 0 0-.02.07l.03.08c.02.1.1.14.2.14l3.35-.01c.14 0 .22.06.22.2v.67c0 .12-.07.18-.2.17h-.66c-.65-.01-1.14-.04-1.46-.08a9.9 9.9 0 0 0-1.3-.08c-.04 0-.09.02-.12.05a.16.16 0 0 0-.06.13c0 .1.07.17.2.19 1.1.14 2.26.27 3.45.38.04 0 .08.02.1.05.04.03.05.07.05.1l-.01.82c0 .08-.05.1-.13.09a42.99 42.99 0 0 0-3.52-.62c-.07 0-.1.02-.1.08l-.01.07a.2.2 0 0 0 .15.2l3.42.83c.14.03.2.11.2.24v.61c-.01.13-.08.18-.22.15l-3.25-.83c-.12-.03-.22 0-.28.1l-.05.06c-.04.06-.03.1.05.12l3.55 1.13c.07.02.12.06.16.12.03.06.05.12.04.18-.05.25-.02.52.09.77H19l.09-.84c0-.07.05-.1.12-.11.03 0 .07 0 .1.02-.1.15-.04.21.2.16.21-.04.43-.1.65-.17a5.8 5.8 0 0 0 1.7-.47l1.3-.38c.49-.12.57-.24.25-.36a.84.84 0 0 0-.25-.18c-.1-.09-.2-.12-.28-.1-1.23.32-2.46.61-3.7.86-.09.02-.13-.01-.13-.1l.02-.77c0-.06.04-.1.1-.13l.07-.03c-.02.05 0 .07.05.07l.02.1c0 .05.04.09.1.1.12.04.21 0 .28-.12.36-.17.74-.27 1.14-.32.1-.01.24-.08.42-.21.07-.06.13-.07.18-.04.52.13.84.05.96-.24.03-.07.1-.1.2-.1.07 0 .11.04.13.1.04.08.16.1.36.06.15 0 .27-.04.36-.11.05-.06.06-.1 0-.16-.03-.03-.07-.04-.12-.03-.02-.23-.15-.33-.38-.28l-3.72.6c-.07.01-.11-.01-.14-.08a1.1 1.1 0 0 1 .06-.81c.06 0 .11.02.15.06.05.04.11.05.18.03a.16.16 0 0 0 .09-.07c.03-.06.07-.1.14-.12l.28-.1c.39-.09.79-.14 1.19-.16.13-.01.47-.05 1-.13.35-.04.7-.02 1.02.07.56.06.64-.01.22-.21-.18-.2-.33-.3-.47-.28-1.27.11-2.54.15-3.83.12-.05 0-.07-.02-.06-.06l.04-.83c0-.04.02-.05.05-.05l4-.03c0 .07.01.13.05.17.03.04.08.06.14.06a.3.3 0 0 0 .23-.11.1.1 0 0 0 .02-.09.11.11 0 0 0-.04-.07.48.48 0 0 0-.3-.08l-.05-.16c-.02-.06-.06-.1-.13-.1l-3.84-.2c-.1-.01-.16-.06-.15-.16l.02-.8c0-.04.02-.08.05-.1a.15.15 0 0 1 .12-.03l3.87.5c.08.18.22.24.43.17.06-.02.1-.05.1-.11s-.02-.1-.08-.13a.68.68 0 0 0-.24-.06l-.2-.19a.3.3 0 0 0-.17-.08l-3.8-.63c-.05 0-.08-.04-.08-.09l-.02-.96c0-.02 0-.03.02-.04a.07.07 0 0 1 .06-.01l4.05 1.03c.02.15.13.2.33.13a.11.11 0 0 0 .07-.07.1.1 0 0 0-.02-.1.32.32 0 0 0-.22-.1c-.2-.18-.38-.29-.54-.34-1.27-.4-2.49-.81-3.67-1.24-.04-.01-.06-.04-.06-.08v-1.03c0-.03.02-.04.04-.03 1.2.28 2.22.58 3.04.9 1.04.38 1.96.85 2.75 1.4.42.28.64.67.66 1.16.02.47-.14.9-.47 1.27-.24.28-.42.58-.55.92a.23.23 0 0 0 0 .19c.16.36.45.55.85.56.24 0 .39.04.45.1Z"/><path d="M36.43 21.26c-.1.2-.22.33-.32.37-.87.37-1.73.75-2.58 1.15-.36.17-.7.4-.99.7l-1 .97c-.06.02-.12.01-.18-.04-.02-.01-.04-.06-.05-.15.41-.43.68-.68.8-.77a12.93 12.93 0 0 1 2.5-1.43l1.82-.8ZM28.76 21.66c-.16 0-.33-.02-.49-.07-.2-.07-.2-.14 0-.21.35-.12.62-.07.82.15.05.07.11.08.18.03l.19-.11c.1-.06.12-.04.07.05-.08.17-.19.3-.32.4a.24.24 0 0 1-.22.03c-.05-.02-.08-.05-.07-.1.01-.05 0-.09-.03-.12a.16.16 0 0 0-.13-.05ZM26.87 25.42c-.11-.01-.18-.05-.18-.12-.01-.1.03-.18.12-.27.49-.46.93-.9 1.33-1.34l.18-.06c.08-.02.12 0 .1.09a.69.69 0 0 1-.15.3c-.38.43-.85.9-1.4 1.4Z" fill="#FFFFFE"/><path d="M23.4 23.75c.1.01.17.05.23.1a.1.1 0 0 1 .02.1.11.11 0 0 1-.08.08c-.2.06-.3.02-.33-.13l.16-.15Z" fill="#7C9B9F"/><path d="M31.28 24.3c-.02.28.03.39.15.34 0 .12-.16.2-.48.25-.05-.28.06-.48.33-.6Z" fill="#3F433A"/><path d="M23.38 24.87c.11 0 .2.03.25.06.05.03.08.07.07.13 0 .06-.04.1-.1.11-.2.07-.35.01-.43-.17-.02-.03 0-.06.05-.1.05-.04.1-.05.16-.03ZM26.69 25.3c0 .07.07.1.18.12-.1.22-.2.25-.3.1l.12-.22ZM23.28 26.05c.13 0 .23.02.3.08a.1.1 0 0 1 .05.07.1.1 0 0 1-.03.09.31.31 0 0 1-.23.11.16.16 0 0 1-.14-.06.27.27 0 0 1-.06-.17l.11-.12Z" fill="#7C9B9F"/><path d="m31.52 27.37.48-.4c.33.4.16.52-.48.4ZM26.39 27.23c.23.1.18.21-.17.36-.23.1-.33.09-.29-.04l.46-.32Z" fill="#FFFFFE"/><path d="M23.46 27.3c.41.2.34.27-.23.2l.23-.2Z" fill="#7C9B9F"/><path d="m19.99 27.73-.29.1a.26.26 0 0 0-.14.12.16.16 0 0 1-.09.07.17.17 0 0 1-.17-.03.25.25 0 0 0-.16-.06c-.03-.04-.04-.07-.03-.1.01-.02.04-.03.08-.05.24-.08.5-.1.8-.05Z" fill="#3F433A"/><path d="M23.36 28.5c.05-.01.1 0 .13.03.05.05.05.1-.01.16a.54.54 0 0 1-.36.11c-.1-.04-.01-.14.24-.3Z" fill="#FFFFFE"/><path d="M22.43 28.74c-.13.3-.45.37-.98.24.29-.2.61-.29.98-.24ZM21.27 29.02c-.18.13-.33.2-.42.2-.4.06-.8.16-1.16.33.01-.09-.06-.14-.23-.15-.09 0-.14.02-.16.07-.06 0-.07-.02-.05-.07l2.02-.38Z" fill="#3F433A"/><path d="M19.7 29.55c-.07.11-.16.16-.29.13-.06-.02-.1-.06-.1-.12l-.01-.09c.02-.05.07-.08.16-.07.17.01.24.06.23.15Z" fill="#7C9B9F"/><path d="M23.2 29.67c.1.04.17.1.25.18-.12 0-.2.09-.24.28-.67 0-1.12.16-1.33.46a5.9 5.9 0 0 1-1.71.47c.14-.14-.02-.17-.5-.07.2-.19.44-.31.72-.37.49-.1.97-.23 1.45-.37a.64.64 0 0 1 .2-.02c.12 0 .22-.02.32-.06.22-.1.48-.15.77-.19.08 0 .11-.05.1-.12l-.03-.2Z" fill="#3F433A"/><path d="M23.45 29.85c.33.12.24.24-.25.36.02-.05.02-.08.01-.08.04-.19.12-.29.24-.28Z" fill="#FFFFFE"/><path d="m23.21 30.13-.01.08-1.32.38c.21-.3.66-.46 1.33-.46ZM20.17 31.06c-.22.07-.44.13-.66.17-.24.05-.3 0-.2-.16l.36-.08c.48-.1.64-.07.5.07Z" fill="#7C9B9F"/><path fill="#FFFFFE" d="M19 32h18v3H19z"/><path d="M19 35.5h18V35H19z"/><path d="m19.93 32.74-.01 1.22c0 .14.05.24.14.32.07.07.05.1-.04.1h-.7c-.1.01-.1-.02-.05-.1a.2.2 0 0 1 .08-.05c.02-.01.04-.03.04-.06l.03-1.39a.25.25 0 0 0-.06-.17l-.07-.1c-.05-.06-.04-.1.05-.1l1.27-.01c.21 0 .37.08.45.24.1.17.06.34-.09.51a.8.8 0 0 1-.73.3c-.13-.02-.13-.05-.01-.1.21-.1.33-.22.35-.4.02-.16-.08-.3-.3-.42a.23.23 0 0 0-.23 0 .23.23 0 0 0-.12.21ZM22.18 33.57c-.05.32 0 .55.14.7.07.08.06.12-.05.12l-.74-.01c-.12 0-.12-.03-.02-.1a.23.23 0 0 0 .08-.06.32.32 0 0 0 .06-.2V32.7c-.01-.08-.05-.13-.13-.15l-.05-.02c-.16-.04-.15-.08 0-.1.24-.03.5-.04.8-.03.08 0 .1.04.04.11a.7.7 0 0 0-.11.68c.02.07.06.1.14.1h.79c.09 0 .14-.05.13-.15v-.4a.17.17 0 0 0-.12-.17l-.06-.02c-.1-.04-.1-.07 0-.1a2 2 0 0 1 .8-.03c.1.02.11.06.03.13l-.06.04a.14.14 0 0 0-.05.12V34c0 .07.01.13.04.2l.04.03c.1.1.1.15-.04.15h-.75c-.08 0-.1-.03-.03-.08.2-.14.26-.37.2-.7-.01-.1-.07-.14-.17-.14h-.8c-.07 0-.1.03-.11.1ZM27.21 33.33c.01.29-.12.54-.4.76-.26.22-.6.33-1 .35-.39.01-.73-.08-1.02-.27-.29-.2-.44-.44-.45-.73 0-.3.12-.54.4-.76.27-.22.6-.33 1-.35.4-.01.73.08 1.02.27.29.2.44.44.45.73ZM28.3 32.69l.02.46c0 .1.05.14.14.15.2.01.39-.03.55-.15.08-.06.14-.03.16.07.02.1.02.2 0 .31a.1.1 0 0 1-.07.08.1.1 0 0 1-.1-.02.7.7 0 0 0-.54-.17c-.1 0-.15.06-.15.16v.48c0 .08.04.13.12.15.35.09.63.03.85-.18.09-.08.12-.07.12.05l-.01.14c-.01.1-.07.15-.17.16l-1.47.01c-.08 0-.11-.04-.09-.12a3.3 3.3 0 0 0 0-1.75c-.02-.09.02-.13.1-.13l1.54.01c.05 0 .08.03.1.08.02.1-.01.18-.1.23a.13.13 0 0 1-.16-.02.8.8 0 0 0-.73-.14c-.07.02-.1.07-.1.14ZM30.2 33.02l.05 1.16c0 .06.03.08.09.08.03 0 .06.02.06.06 0 .04-.02.06-.05.06h-.48c-.13 0-.13-.03.01-.09l.06-.03a.2.2 0 0 0 .08-.16v-1.36a.21.21 0 0 0-.07-.16l-.04-.04c-.08-.08-.07-.12.05-.12h.45c.05 0 .09 0 .12.04l1.36 1.3c0 .02.02.02.04.01.02 0 .03-.02.03-.03.06-.38.05-.78-.03-1.2-.02-.07.01-.1.08-.12.1-.03.19-.03.28-.01.14.03.14.07.03.14a.25.25 0 0 0-.05.04.16.16 0 0 0-.05.11v1.53a.2.2 0 0 1-.13.19.2.2 0 0 1-.22-.04l-1.52-1.43c-.1-.1-.15-.07-.15.07ZM33.63 32.68v1.4c0 .07.04.13.1.17l.05.04c.09.07.08.1-.04.1l-.74-.02c-.09 0-.1-.03-.03-.09l.08-.06a.14.14 0 0 0 .05-.1l.03-1.4a.15.15 0 0 0-.1-.15l-.1-.03c-.08-.04-.08-.07.01-.1.26-.06.53-.07.81-.04.14.01.14.05.03.12l-.08.04a.13.13 0 0 0-.07.12ZM35.59 32.95c.15-.25.36-.45.64-.58h.02l.06.06c.02.03.02.05 0 .07l-.63.63a.19.19 0 0 0-.06.13c0 .05 0 .09.04.13l.65.84c.11.15.08.21-.11.2l-.2-.03a.52.52 0 0 1-.36-.2l-.34-.46c-.06-.07-.12-.08-.18 0l-.52.6c0 .01-.01.02-.03.02-.1.03-.21.04-.32.03-.05 0-.06-.02-.02-.05l.79-.8c.05-.06.06-.1.02-.17-.2-.32-.42-.59-.66-.79-.12-.1-.1-.16.06-.18l.2-.01a.5.5 0 0 1 .44.18l.33.4a.1.1 0 0 0 .18-.02Z" fill="#D61203"/><path d="M25.78 34.29a.9.9 0 1 0 0-1.81.9.9 0 0 0 0 1.8Z" fill="#FFFFFE"/><defs><linearGradient id="ahs0n3buk" x1="28" y1="0" x2="28" y2="56" gradientUnits="userSpaceOnUse"><stop stop-color="#AC1910"/><stop offset="1" stop-color="#B82418"/></linearGradient></defs></svg>