<!-- by TradingView --><svg width="56" height="56" viewBox="0 0 56 56" xmlns="http://www.w3.org/2000/svg"><path fill="#F0F3FA" d="M0 0h56v56H0z"/><path d="M38.31 17.25a13.74 13.74 0 0 1 1.96 5.55 14.9 14.9 0 0 1-1.22 8.36 8.14 8.14 0 0 1-1.57 2.21c-.86.9-1.6 1.57-2.24 2-.54.38-1.15.68-1.84.9a8.7 8.7 0 0 1-4.2.3 6.53 6.53 0 0 1-1.9-.62 5.06 5.06 0 0 1-2.8-4.13.65.65 0 0 1 .14-.5.6.6 0 0 1 .46-.24c.35-.02.68.03 1 .15.12.04.31.1.56.2.72.28 1.27.46 1.64.54.63.13 1.19.12 1.68-.04 2.6-.8 4.14-2.6 4.64-5.4.21-1.24.2-2.52-.02-3.84-.18-1-.58-2.03-1.21-3.11a21.79 21.79 0 0 0-1.99-2.75 10.2 10.2 0 0 0-2.11-1.9 34.07 34.07 0 0 0-5.55-3.08c-.48-.2-.7-.6-.65-1.14 0-.1.05-.16.14-.19.08-.02.19-.03.34-.04.16-.01.28-.03.36-.06a8.56 8.56 0 0 1 4.35-.24c4.3.94 7.64 3.3 10.03 7.07Z" fill="#2D3A94"/><path d="M29.04 27.6a4.83 4.83 0 0 0-1.3-2.85 4.54 4.54 0 0 0-2.45-1.28 7.07 7.07 0 0 0-5.57 1.4c-1.27 1-2.28 2.25-3.04 3.73a16.1 16.1 0 0 0-1.7 6.87v2.28l-.01 2.1c0 .1-.04.17-.1.23a.26.26 0 0 1-.24.05c-.7-.15-1.34-.68-1.94-1.58a8.22 8.22 0 0 1-1.08-2.4 18.63 18.63 0 0 1-.35-7.74c.17-1.03.5-2.07.98-3.11.41-.9.96-1.83 1.64-2.81.85-1.23 2-2.3 3.46-3.22 1.36-.86 2.8-1.47 4.34-1.84.96-.24 2-.3 3.14-.19 1.03.1 2.05.34 3.05.7a8.46 8.46 0 0 1 4.51 4 6.96 6.96 0 0 1 .38 6.22 4.04 4.04 0 0 1-2.17 1.92c-.35.15-.67.16-.98.02-.27-.13-.45-.37-.52-.74a5.06 5.06 0 0 1-.04-1.05l-.01-.7Z" fill="#148C42"/><path d="M44.85 31.77c.23.88.2 1.8-.11 2.76a14.75 14.75 0 0 1-6.49 7.4 16.87 16.87 0 0 1-6.82 2.03c-.8.08-1.58.04-2.34-.1-2.98-.57-5.18-1.48-6.61-2.73a15.8 15.8 0 0 1-2.56-2.71c-.47-.69-.93-1.62-1.37-2.8a8.9 8.9 0 0 1 .42-7.53 6.58 6.58 0 0 1 3.55-3.2c.95-.37 1.8-.4 2.54-.07.57.24.8.64.71 1.2a.43.43 0 0 1-.13.24l-.1.1c-.7.62-1.21 1.13-1.52 1.5a3.85 3.85 0 0 0-.9 1.9c-.1.78-.14 1.43-.1 1.95.03.7.19 1.31.46 1.86a7.55 7.55 0 0 0 2.61 3.13c.72.46 1.46.83 2.24 1.12.86.31 1.68.5 2.46.54 1.72.09 3.43-.18 5.13-.8 1.61-.6 3.12-1.46 4.55-2.61A64.77 64.77 0 0 0 44 31.86c.14-.13.29-.22.45-.3a.26.26 0 0 1 .24.02c.08.04.13.1.15.19Z" fill="#EC2122"/></svg>