<!-- by TradingView --><svg width="56" height="56" viewBox="0 0 56 56" xmlns="http://www.w3.org/2000/svg"><path fill="#F0F3FA" d="M0 0h56v56H0z"/><path fill-rule="evenodd" d="M17 12.18c0-.65.53-1.18 1.18-1.18h19.64c.65 0 1.18.53 1.18 1.18v31.64c0 .65-.53 1.18-1.18 1.18H19.48V27.24A10 10 0 1 0 28 12a10 10 0 0 0-10 10v22.99c-.57-.09-1-.58-1-1.17V12.18Zm1.7 13.51V45h.3V26.36l-.3-.67ZM25 42h1.21v.27h-.8V44H25v-1.73h-.8v-.2l-.78.98V44H23v-.95L22.1 42h.5l.6.75.6-.75H25Zm6.55 0H32v.8h1V42h.45v2H33v-.92h-1V44h-.45v-2ZM20 42h.45v.8h1.1V42H22v2h-.45v-.92h-1.1V44H20v-2Zm8.6 1c0 .55-.52 1-1.18 1-.66 0-1.19-.45-1.19-1s.53-1 1.19-1c.66 0 1.19.45 1.19 1Zm-.41 0c0 .38-.35.7-.77.7-.43 0-.77-.32-.77-.7 0-.38.34-.7.77-.7.42 0 .77.32.77.7Zm2.77.69c-.2.19-.5.31-.82.31-.63 0-1.14-.45-1.14-1s.5-1 1.14-1c.34 0 .65.14.86.35l-.33.18a.75.75 0 0 0-.53-.22c-.41 0-.74.3-.74.69 0 .38.33.7.74.7.2 0 .4-.09.53-.22l.3.2ZM34 42.02v1.93h1.65v-.23H34.4v-.67h1.25v-.26H34.4v-.47h1.25v-.3H34Zm2-.02v1.95h.42v-1.23l.58.83.58-.94v1.34H38V42h-.42l-.58.92-.58-.92H36Zm1.74-20a9.74 9.74 0 1 1-19.48 0 9.74 9.74 0 1 1 19.48 0ZM28 31.37a9.37 9.37 0 1 0 0-18.74 9.37 9.37 0 0 0 0 18.74Zm8.52-7.25a8.78 8.78 0 1 1-.67-6.06L34.2 19.4a6.73 6.73 0 1 0 .34 4.13l1.97.58Zm-10.34-1.7c0 .72.16 1.27.4 1.7l-.16-.1c-1.28-.86-3.45-.85-4.37-.74a6 6 0 0 0 2.33 3.82c1.71 1.14 3.07.41 3.53-.09.3-.44.25-1.13-.26-1.85.18.08.34.13.47.15.12 0 .24-.02.35-.06-.45.69-.48 1.34-.2 1.76.47.5 1.82 1.23 3.54.09a6 6 0 0 0 2.32-3.82c-.92-.11-3.08-.12-4.37.73l-.39.29c.22-.47.36-1.1.36-1.88 0-1.54-1.15-3.34-1.73-4.05a6.11 6.11 0 0 0-1.82 4.05Z" fill="#176F02"/></svg>