<!-- by TradingView --><svg width="56" height="56" viewBox="0 0 56 56" xmlns="http://www.w3.org/2000/svg"><path fill="#F0F3FA" d="M0 0h56v56H0z"/><path d="M18.6 14.9c.27-.86.9-1.47 1.91-1.8.56-.19.64-.1.25.25-.54.48-1.03.76-.9 1.49.06.34.14.69.23 1.04.02.09 0 .18-.04.27-.22.4-.6.66-1.11.8-.53.14-.84 0-.93-.43-.1-.54.43-1.09.6-1.61ZM23.36 15.19c.1-.62-.42-1.3-.74-1.82-.23-.37-.16-.46.21-.28.65.32 1.28.63 1.48 1.43a9 9 0 0 0 .52 1.5c.24.52.23 1.02-.04 1.48-.27.46-.25.84-.23 1.35 0 .1-.14.23-.17.09-.1-.35-.3-.56-.61-.63-.13-.03-.22-.17-.2-.31.03-.32.15-.59.35-.8.1-.1.06-.27-.05-.33a.9.9 0 0 1-.54-.8c0-.16-.17-.27-.32-.2-.47.2-.97.36-1.48.47-.18.05-.36-.13-.33-.34.04-.35-.01-.72-.16-1.1-.11-.3-.04-.36.21-.19.21.15.2.6.52.54a3.8 3.8 0 0 1 1.42.06c.07.01.15-.04.16-.12ZM26.28 16.05c2.4.11 4.7-.66 6.62-2.02.16-.13.1.25.04.32-1.23 1.57-3.07 2.77-5.2 2.64-.45-.02-1.01-.22-1.68-.6-.04-.02-.07-.06-.06-.11a.27.27 0 0 1 .28-.23ZM33.56 16.95c-.85.2-1.72.51-2.6.92-1 .45-2.86 1.23-3.82.35-.22-.2-.18-.29.11-.27 1.8.12 2.92-.92 4.42-1.58.71-.32 2.38-.88 3.2-.55.33.13.73.28 1.08.14.52-.2 1-.44 1.54-.6a8.66 8.66 0 0 1 4.03-.21c1.05.24 1.88.56 2.46 1.5.04.07.03.13-.04.17-.05.04-.14.01-.19-.03-1.87-1.68-4.08-.84-5.92.43-1 .7-2 1.4-2.95 2.14-.52.4-1.07.75-1.64 1.04-.12.06-.5-.04-.29-.17 1.35-.85 2.6-1.82 3.78-2.9.07-.07.02-.32-.08-.26a72.56 72.56 0 0 0-4.14 2.4c-.6.37-1.25.62-1.94.74-.28.05-.29.12-.02.21 1.76.58 1.6 2.11.78 3.37-.2.3-.31.28-.33-.09-.04-.7-.07-1.5-.64-1.98-.9-.79-1.98-1.29-2.79-2.26a.23.23 0 0 1 .16-.37c.69-.07 1.44-.06 2.1-.26 1.36-.43 2.62-1 3.8-1.73.3-.18.27-.23-.07-.15ZM17.38 20.84c.2.1.34.24.44.42a.4.4 0 0 1 .04.27A8.31 8.31 0 0 1 16.23 25c-.01.02-.14 0-.13 0 .12-.38.23-.76.47-1.12.53-.84.54-1.78.11-2.68-.49.41-1.02.86-1.28 1.4-.3.6-.43.57-.4-.1.02-.3.1-.6.27-.9.73-1.43 1.18-2.7 2.7-3.53.8-.44 1.59-.78 2.38-1 .52-.16.73.02.63.53-.27 1.4-2.38 2.75-3.6 3.25ZM24.24 27.61c-.82.6-1.98 1.27-3 .72-.1-.05-.17-.04-.24.05a9.81 9.81 0 0 1-2.21 2.18.37.37 0 0 0-.15.23c-.16.79-.57 1.76-1.54 1.8-1.02.04-2.11-.28-2.4-1.28-.1-.36-.3-.68-.59-.95a.35.35 0 0 1-.11-.26c0-.3.07-.58.2-.84.23-.44.36-.42.4.09 0 .2.1.31.3.35.25.05.39.33.27.56-.14.28-.2.56-.17.84.02.28.17.38.45.32l.16-.05c.25-.06.34-.2.28-.45l-.2-.88a.25.25 0 0 1 .1-.28c.3-.22.43-.59.36-1.1-.01-.12.03-.14.13-.09.15.1.23.28.43.3.28.02.53-.26.42-.53-.19-.43-.29-1-.73-1.24-.1-.05-.12-.12-.05-.21.94-1.29 1.76-2.6 2.45-3.96.1-.2.23-.37.38-.53.2-.2.28-.17.23.11-.05.34-.16.65-.33.94-.06.12.13.27.19.17l.38-.7c.16-.29.61-.1.74-.36.16-.32.23-.68.22-1.06a.4.4 0 0 1 .5-.39c.4.1.78.1 1.15-.04.24-.09-.03-.53-.08-.69-.07-.2-.02-.24.16-.12.28.18.51.42.71.72.17.25.08.6-.2.74-.34.17-.58.42-.73.75-.05.1-.13.15-.24.13l-.47-.06c-.32-.05-.36.04-.13.26.16.14.32.27.5.39.08.06.12.14.11.24-.01.18-.27.11-.31.3-.14.68-.64 1.53-.35 2.18.24.54.58.95 1 1.2.7.42 1.36.1 2.12.19.12.01.22-.03.29-.14.59-.9.85-1.85.78-2.85-.08-1.2-.66-2.28-1.19-3.33a1.5 1.5 0 0 1-.15-.58c-.03-.3.33-.5.58-.34 1.53.99 2.3 2.45 2.85 4.2.03.11.1.21.21.27.25.15.49.26.64.52.64 1.08.66 2 .63 3.18-.08 3.05-1.77 6.08-3.34 8.63-.2.32-.31.3-.35-.08a15.9 15.9 0 0 1 .13-4.57c.15-.87 0-1.3-.49-2-.15-.2-.28-.2-.4.04a9.63 9.63 0 0 0-.96 4.42c.02 1.03.29 2.02.34 3.05.02.35-.05.37-.21.06a2.19 2.19 0 0 1-.18-.52c-.3-1.43-.57-2.9-.37-4.37.2-1.36.35-2.79.46-4.3.03-.4.35-.7.62-.98Z" fill="#313033"/><path d="M33.55 24.02c.86.22.95 1.02.82 1.8-.05.28.02.33.23.14.53-.5 1.57-1.23 2.27-.76.16.1.17.34.03.46-1.9 1.7-4 3.2-5.68 5.14-.37.42-.82.83-1.2 1.2 0-.09-.05-.26 0-.34.84-1.29 1.62-2.52 2.33-3.7.5-.8 1.17-1.9 1.16-2.9a.1.1 0 0 0-.12-.11.18.18 0 0 0-.16.14c-.22.79-.62 1.5-1.2 2.1-.14.17-.23-.07-.17-.2.66-1.38 1.3-3.44.84-4.91-.12-.38-.4-.6-.55-.95-.07-.13-.03-.16.09-.1.93.46 1.73 1.86 1.26 2.87-.03.06-.01.1.05.12ZM36.97 29.1c-.48.4-1.3 1.16-2.46 2.29-5.36 5.21-9.31 11.16-11.23 18.28-.12.44-.21.44-.27-.01-.02-.23 0-.47.05-.72a39.64 39.64 0 0 1 3.6-9.1 38.25 38.25 0 0 1 5.82-8.33c1.3-1.4 2.81-2.77 4.56-4.1.76-.57 1.58-1.03 2.47-1.38.2-.09.44.04.48.26.17.95-1.9 3.28-2.53 4.05-.45.55-.95 1.1-1.5 1.62a197.64 197.64 0 0 1-4.46 4.1c-.07.06-.23-.05-.2-.08l1.76-1.82c1.46-1.51 2.69-3.23 4.03-4.85.06-.08-.05-.29-.12-.22Z" fill="#313033"/></svg>