<!-- by TradingView --><svg width="56" height="56" viewBox="0 0 56 56" xmlns="http://www.w3.org/2000/svg"><path fill="#F0F3FA" d="M0 0h56v56H0z"/><path d="M23.17 12.58c.35-.13.61-.32.58-.41-.04-.1-.35-.06-.7.07s-.6.3-.57.4c.03.1.34.07.7-.06ZM32.81 12.67c.35.13.67.16.7.07.03-.1-.23-.28-.58-.4-.35-.14-.66-.17-.7-.07-.03.09.23.27.58.4ZM22.1 12.3h.01v.01l.03.65v.01l.6.11a.7.7 0 0 1-.34.19l-.19-.01a18.61 18.61 0 0 0-.37-.05l.01-.31c0-.15.01-.25.03-.3.05-.11.13-.25.23-.3ZM33.88 12.4c.1.05.18.19.23.3.02.05.03.15.03.3a30.78 30.78 0 0 0 0 .31 17.65 17.65 0 0 0-.55.05.7.7 0 0 1-.35-.18l.6-.1v-.01l.01-.01.02-.65h.01ZM22.13 13.62a.93.93 0 0 1-.49.25.8.8 0 0 1-.22 0l-.54-.07c0-.38.01-.6.02-.7 0-.18.13-.38.27-.51a.32.32 0 0 1 .08-.06v.01l.04.92.84.15ZM33.86 13.71l.84-.15.03-.92v-.01h.01l.08.05c.14.13.27.33.27.52a41.09 41.09 0 0 1 .02.7l-.54.06a.8.8 0 0 1-.22.01.93.93 0 0 1-.5-.26ZM21.22 14.26a.93.93 0 0 1-.49.25 596.86 596.86 0 0 0-.77-.08l.03-.69c0-.18.13-.38.27-.51a.32.32 0 0 1 .08-.06v.01l.04.92.84.15ZM34.77 14.35l.84-.15.04-.92v-.01c.04.01.06.03.09.05.13.13.26.33.27.52a43.69 43.69 0 0 1 .01.7 1473.37 1473.37 0 0 1-.76.07.93.93 0 0 1-.5-.26Z" fill="#00A859"/><path d="M20.55 14.92c-.16.16-.39.29-.61.32h-.26a81.84 81.84 0 0 0-.7-.1 2309.52 2309.52 0 0 0 .03-.95c.05-.24.2-.46.38-.6a.2.2 0 0 1 .05-.04v.01l.05 1.16v.01l1.06.18v.01ZM35.44 15.02V15l1.06-.18v-.01l.04-1.16h.01c0-.01 0-.01 0 0a.2.2 0 0 1 .06.02c.18.15.33.37.37.6l.02.2a661.65 661.65 0 0 0 .01.77 82.68 82.68 0 0 0-.95.09 1.18 1.18 0 0 1-.62-.32Z" fill="#00A859"/><path d="M19.57 15.63c-.13.18-.33.35-.55.42-.05.02-.13.03-.25.04a83.42 83.42 0 0 0-.71.03l-.11-.74a1.12 1.12 0 0 1-.02-.2c0-.24.11-.48.27-.67a.2.2 0 0 1 .05-.03l.24 1.14h1.08ZM36.42 15.72h1.08l.24-1.14c.02 0 .04.02.05.03.16.18.27.42.27.67l-.01.2-.11.74h-.01a85.47 85.47 0 0 0-.96-.07 1.19 1.19 0 0 1-.55-.43Z" fill="#00A859"/><path d="M18.74 16.62c-.13.18-.33.35-.55.42-.05.02-.13.03-.25.04a80.25 80.25 0 0 0-.71.04l-.11-.75a1.1 1.1 0 0 1-.02-.2c0-.24.11-.48.27-.66a.2.2 0 0 1 .04-.04h.01l.24 1.14h1.08ZM37.25 16.71h1.08l.24-1.14h.01a.2.2 0 0 1 .05.03c.15.18.26.42.27.67 0 .04 0 .11-.02.2l-.11.74-.01.01a85.48 85.48 0 0 0-.96-.08 1.19 1.19 0 0 1-.55-.43Z" fill="#00A859"/><path d="M17.98 17.54c-.13.18-.33.35-.55.42-.05.02-.13.03-.25.04a80.97 80.97 0 0 0-.71.03 966.97 966.97 0 0 0-.13-.94c0-.24.11-.48.27-.67a.2.2 0 0 1 .05-.03l.24 1.14h1.08ZM38.01 17.63h1.08l.24-1.14h.01a.2.2 0 0 1 .05.03c.15.18.26.42.27.67l-.02.2-.11.74h-.01a94.33 94.33 0 0 0-.96-.07 1.19 1.19 0 0 1-.55-.43Z" fill="#00A859"/><path d="M17.17 18.45c-.1.2-.27.4-.47.52l-.24.08a81.31 81.31 0 0 0-.7.16 378.95 378.95 0 0 0-.29-.9c-.03-.25.03-.5.15-.71a.2.2 0 0 1 .04-.05h.01l.43 1.09h.01l1.05-.2v.01ZM38.83 18.55v-.01l1.06.2.43-1.09h.01l.04.04c.13.21.19.47.15.7 0 .05-.02.12-.05.2l-.23.72h-.01a79.44 79.44 0 0 0-.93-.25 1.2 1.2 0 0 1-.47-.51Z" fill="#00A859"/><path d="M16.86 19.34c-.08.26-.24.54-.46.72-.05.04-.14.1-.27.15a99.56 99.56 0 0 0-.81.35 745.02 745.02 0 0 0-.54-1.03c-.09-.29-.06-.61.04-.89l.04-.06h.01l.74 1.21h.02l1.22-.46ZM39.14 19.43l1.23.46a.01.01 0 0 0 .02 0l.73-1.2v-.01h.01c.02 0 .04.04.05.06.1.28.13.6.03.88-.01.06-.05.13-.1.22a880.28 880.28 0 0 0-.44.82l-.8-.35c-.13-.06-.22-.11-.27-.15a1.48 1.48 0 0 1-.46-.73Z" fill="#00A859"/><path d="M16.3 20.7c-.07.26-.23.54-.46.72a102.36 102.36 0 0 0-1.08.5 688 688 0 0 0-.53-1.04c-.1-.29-.07-.6.04-.88l.03-.06h.01l.75 1.2h.01l1.22-.46h.01v.01ZM39.7 20.79v-.01l1.23.46h.01l.74-1.2v-.01h.01l.04.06c.1.28.13.6.04.89l-.1.21a487.08 487.08 0 0 0-.45.82l-.8-.35c-.12-.06-.21-.1-.27-.15a1.48 1.48 0 0 1-.46-.72Z" fill="#00A859"/><path d="M15.66 21.85a1.5 1.5 0 0 1-.33.79c-.04.05-.12.12-.24.2a95.02 95.02 0 0 0-.74.48 491.55 491.55 0 0 0-.7-.92 1.35 1.35 0 0 1-.11-.88l.02-.06h.01l.94 1.05a.01.01 0 0 0 .02 0l1.12-.67h.01ZM40.34 21.94l1.13.67h.01l.94-1.06a.01.01 0 0 1 .02 0l.02.07c.06.29.03.61-.11.87-.03.05-.07.12-.14.2a573.3 573.3 0 0 0-.58.73l-.72-.49c-.12-.08-.2-.14-.25-.2a1.5 1.5 0 0 1-.32-.79Z" fill="#00A859"/><path d="M15.25 23.07c.02.27-.03.6-.18.84-.04.06-.1.14-.2.23a105.03 105.03 0 0 0-.65.61 559.91 559.91 0 0 0-.85-.78 1.35 1.35 0 0 1-.26-.84l.01-.07h.01l1.1.87h.02l1-.87ZM40.74 23.17v-.01h.01l1 .87h.01l1.1-.88h.01l.02.07c0 .3-.08.61-.26.85l-.17.17a981.1 981.1 0 0 0-.7.6l-.62-.6c-.1-.1-.17-.18-.2-.23a1.5 1.5 0 0 1-.2-.84Z" fill="#00A859"/><path d="M15.23 24.58c.02.27-.03.6-.18.84l-.2.23a107.94 107.94 0 0 0-.65.61 789.83 789.83 0 0 0-.85-.78 1.35 1.35 0 0 1-.26-.84l.01-.07h.01l1.1.87h.02l1-.87ZM40.78 24.67l.99.86h.01l1.1-.87h.01l.02.07c.01.3-.08.6-.26.84-.03.05-.09.1-.17.17a537.5 537.5 0 0 0-.7.62l-.62-.61c-.1-.1-.17-.18-.2-.24a1.5 1.5 0 0 1-.2-.84h.01Z" fill="#00A859"/><path d="M15.1 25.94c.07.27.07.6-.04.86-.02.07-.08.16-.16.27a110.92 110.92 0 0 0-.53.71 428.17 428.17 0 0 0-.97-.62c-.22-.2-.35-.49-.4-.78v-.07h.01l1.24.66h.01l.83-1.03h.01ZM40.9 26.04l.83 1.02h.01l1.24-.66H43v.08c-.04.29-.17.58-.4.78l-.19.14a447.28 447.28 0 0 0-.79.48l-.51-.71c-.09-.12-.14-.2-.17-.27-.1-.27-.1-.6-.04-.86Z" fill="#00A859"/><path d="M15.09 27.26c.1.26.16.58.1.86-.01.06-.05.16-.11.29a108.22 108.22 0 0 0-.4.8 1121.6 1121.6 0 0 0-1.06-.45 1.33 1.33 0 0 1-.53-.7.25.25 0 0 1-.01-.06.01.01 0 0 1 0-.01h.01l1.33.44a.01.01 0 0 0 .01 0l.64-1.17h.01ZM40.91 27.36h.01l.65 1.16h.01l1.33-.44.01.01v.07c-.1.28-.29.54-.54.7a2249.02 2249.02 0 0 0-1.07.44l-.39-.8-.12-.29c-.05-.28 0-.6.11-.85Z" fill="#00A859"/><path d="M15.48 28.58h.01c.17.32.27.7.2 1.06a2776.41 2776.41 0 0 1-.48 1.27l-1.1-.34c-.4-.12-.71-.45-.87-.83a.24.24 0 0 1-.02-.09h.01l1.6.37h.01l.64-1.44ZM40.51 28.68l.64 1.44h.01l1.6-.38h.01a.01.01 0 0 1 .01.01c0 .03 0 .06-.02.09-.16.37-.47.71-.87.83a1896.2 1896.2 0 0 0-1.12.33 13043.52 13043.52 0 0 0-.47-1.26 1.7 1.7 0 0 1 .21-1.06Z" fill="#00A859"/><path d="M26.78 15.26c-.11-.1-.4-.34-.52-.24-.08.08-.09.27-.1.38v.6a9.21 9.21 0 0 1-2.23 5.84c-.66.79-1.26 1.56-1.76 2.42a8.11 8.11 0 0 0-1.04 5.59c.22 1.22.7 2.32 1.45 3.3.65.86 1.47 1.6 2.41 2.11a6.45 6.45 0 0 0 7.29-.88 7.94 7.94 0 0 0 2.63-4.79c.12-.84.13-1.67-.02-2.5-.15-.85-.42-1.67-.76-2.48-.2-.48-.43-.96-.68-1.44a25.03 25.03 0 0 0-3.8-5.29 778.6 778.6 0 0 1-2.87-2.62Zm7.08 13.34v.01l-1.86.27h-.01v-.01c0-.28.02-.57.06-.86l.04-.31c.06-.48.11-.83.12-1.26 0-.15 0-.34-.03-.56a44.33 44.33 0 0 1-.1-2.47l.03-.56c0-.06.02-.2.06-.23a.02.02 0 0 1 .03 0l.05.08.43 1 .36.89a6.98 6.98 0 0 1 .54 1.95l.28 2.06Zm.07.73v.01c0 .31-.02.6-.06.88-.03.23-.12.7-.36.8a1947.86 1947.86 0 0 0-1.66.1l.22-1.5v-.02l1.86-.27Z" fill="#FFF212"/><path d="M16.03 30.28c.2.3.33.68.3 1.04 0 .07-.03.16-.06.27l-.3 1.03h-.01l-1.13-.23c-.4-.08-.75-.4-.94-.75a.23.23 0 0 1-.03-.09.01.01 0 0 1 .01 0l1.63.23h.01l.52-1.5ZM39.97 30.38l.52 1.49 1.64-.23v.01c0 .03 0 .06-.02.08-.2.36-.54.67-.94.76a6875.35 6875.35 0 0 1-1.14.23 2742.7 2742.7 0 0 1-.36-1.3 1.69 1.69 0 0 1 .3-1.04Z" fill="#00A859"/><path d="M16.57 31.53c.3.3.52.7.55 1.13l-.01.32a3056.63 3056.63 0 0 0-.15 1.25l-1.35-.04c-.47-.01-.93-.3-1.22-.67a.27.27 0 0 1-.05-.1h.01l1.92-.07.3-1.82ZM39.42 31.63l.3 1.81 1.92.07a.01.01 0 0 1 .01.01.01.01 0 0 1 0 .01.27.27 0 0 1-.04.09c-.3.37-.75.66-1.23.67a13105.74 13105.74 0 0 1-1.35.03 3858.26 3858.26 0 0 1-.16-1.56 1.95 1.95 0 0 1 .55-1.13Z" fill="#00A859"/><path d="M17.47 33.02c.32.27.59.64.67 1.06l.02.32a387717.61 387717.61 0 0 0 0 1.26l-1.35.11c-.47.04-.96-.18-1.29-.52a.27.27 0 0 1-.06-.09.01.01 0 0 1 .01-.01l1.9-.29.1-1.84ZM38.53 33.11l.09 1.84 1.9.3h.01a.01.01 0 0 1 0 .01.27.27 0 0 1-.06.09c-.33.33-.8.56-1.29.52a2528.74 2528.74 0 0 0-1.34-.13 194276.72 194276.72 0 0 0 .02-1.57 1.94 1.94 0 0 1 .67-1.06Z" fill="#00A859"/><path d="M18.5 34.43c.34.25.63.6.73 1.02.02.07.04.18.04.31l.08 1.25-.01.01-1.33.2c-.47.07-.97-.13-1.32-.44a.27.27 0 0 1-.06-.09l1.88-.41v-.01l-.01-1.84ZM37.5 34.53l-.02 1.83v.01l1.88.4a.01.01 0 0 1 0 .01v.01a.27.27 0 0 1-.06.08c-.35.32-.84.52-1.32.45a3323.03 3323.03 0 0 0-1.34-.21 7620.93 7620.93 0 0 0 .12-1.57 1.94 1.94 0 0 1 .73-1.01Z" fill="#00A859"/><path d="M19.56 35.3c.38.2.77.5.98.9.05.1.1.2.12.29a376.77 376.77 0 0 1 .37 1.59 5237.74 5237.74 0 0 1-1.69.55c-.44.08-.9-.02-1.29-.23a.7.7 0 0 1-.17-.14v-.02l2.05-.84a.01.01 0 0 0 .01-.01l-.38-2.09ZM36.43 35.4l-.38 2.08v.01l2.06.85a.02.02 0 0 1 0 .03.7.7 0 0 1-.17.12c-.4.21-.85.32-1.29.24a1.94 1.94 0 0 1-.29-.09l-1.4-.47.38-1.59.11-.3c.21-.38.6-.7.98-.89Z" fill="#00A859"/><path d="M21.24 36.42c.4.16.8.44 1.04.8.07.11.12.2.15.3a371.5 371.5 0 0 1 .5 1.54l-1.35.6a2 2 0 0 1-1.59-.01.69.69 0 0 1-.18-.12.02.02 0 0 1 0-.03l1.98-1.02-.56-2.05ZM34.76 36.52l-.56 2.05a.01.01 0 0 0 0 .01l1.97 1.02.01.01v.02a.7.7 0 0 1-.18.11c-.42.18-.88.24-1.31.12a2404.93 2404.93 0 0 0-1.64-.71l.51-1.54c.03-.09.08-.18.15-.29a2.3 2.3 0 0 1 1.05-.8Z" fill="#00A859"/><path d="M22.74 37.02c.46.14.95.42 1.25.8.09.11.15.21.2.3a394.45 394.45 0 0 1 .7 1.7 2933.16 2933.16 0 0 1-1.75.95c-.48.17-1 .15-1.48 0a.78.78 0 0 1-.22-.12.02.02 0 0 1 0-.03l2.12-1.34a.01.01 0 0 0 0-.01l-.83-2.24h.01ZM33.25 37.12l-.82 2.24v.01l2.11 1.35.01.02a.02.02 0 0 1 0 .01.78.78 0 0 1-.22.1c-.48.17-1 .19-1.48.01a2.2 2.2 0 0 1-.3-.15l-1.46-.8.72-1.69c.03-.09.1-.2.18-.3.31-.39.8-.66 1.26-.8Z" fill="#00A859"/><path d="m31.37 37.44-.92 2.52v.01l2.37 1.5.01.01v.01a.02.02 0 0 1 0 .02.88.88 0 0 1-.34.15 2.5 2.5 0 0 1-1.58-.03 1679.41 1679.41 0 0 0-1.7-.9 9.04 9.04 0 0 1-.81.08c-.02.37-.06.74-.13 1.11-.01.09-.15.75-.35.56a.34.34 0 0 1-.08-.1 1.9 1.9 0 0 1-.13-.42 8.17 8.17 0 0 1-.15-1.16 9.62 9.62 0 0 1-1-.07l-1.1.61c-.2.12-.35.19-.46.23a2.63 2.63 0 0 1-1.73-.08.44.44 0 0 1-.12-.08v-.01a.02.02 0 0 1 .01-.02l2.37-1.5a.01.01 0 0 0 0-.02l-.92-2.51c.6.18 1.2.54 1.54 1.08l.15.3a478.04 478.04 0 0 0 .54 1.25l.72-.04a8.3 8.3 0 0 1 .17-1.57c.02-.1.15-.66.35-.44.03.03.06.1.08.15.05.12.09.25.11.4a8.39 8.39 0 0 1 .15 1.47 9.16 9.16 0 0 1 .76.06l.48-1.11c.08-.2.15-.34.2-.42.12-.18.25-.32.38-.43.34-.28.71-.48 1.13-.61ZM40.74 40.69h.01l.04.04v.01l-.58.6h-.01l-1.45-.26-.12.12v.01a133.67 133.67 0 0 0 .67.68c.14.11.29-.02.38-.12h.01l.04.04v.01l-.95.97h-.01l-.04-.04v-.01c.1-.1.22-.25.12-.38a1724.6 1724.6 0 0 0-1.49-1.53c-.15-.15-.3-.02-.4.1h-.01l-.05-.04v-.01l.95-.97c.12-.12.24-.23.37-.32.26-.2.6-.22.86 0 .31.25.32.62.12.95v.01l1.08.19c.18.03.33.06.46-.05Zm-3.04-.42.82.83.21-.21c.1-.1.15-.23.16-.36a.5.5 0 0 0-.15-.36l-.12-.13a.48.48 0 0 0-.54-.1.52.52 0 0 0-.17.11l-.2.21v.01ZM19.46 40.07l1.02.7c.2.14.39.32.48.54.14.33 0 .71-.32.87-.4.2-.84-.09-1.17-.32a.01.01 0 0 0-.01 0 83.1 83.1 0 0 0-.52.8c-.08.16.07.28.18.36l-.02.06h-.01l-1.11-.76v-.01l.03-.05h.01c.1.06.2.13.31.1.08-.03.16-.15.2-.22a359.8 359.8 0 0 0 1.07-1.63c.1-.18-.05-.3-.18-.38l.03-.06h.01Zm.72.7-.63.95v.01l.1.07c.1.07.23.1.35.07.12-.02.23-.1.3-.2l.11-.18a.5.5 0 0 0 .08-.36.46.46 0 0 0-.2-.3l-.1-.07h-.01ZM36.52 43.34a.93.93 0 0 0-.33-.32c-.15-.08-.3-.04-.44.05a.01.01 0 0 0 0 .01l.43.81c.07.12.17.15.3.08.15-.08.27-.15.4-.26.25-.23.32-.56.23-.9a.01.01 0 0 1 0-.01l.05-.03h.01l.3.8v.01l-2 1.13-.03-.06a.67.67 0 0 0 .17-.12c.1-.09.08-.2.01-.32a341 341 0 0 0-1-1.82c-.1-.15-.28-.06-.4.01l-.03-.05a.01.01 0 0 1 0-.02l1.93-1.09.38.7-.05.03h-.02c-.2-.23-.38-.38-.69-.3a15.7 15.7 0 0 0-.6.3v.01l.52.95h.01c.17-.08.3-.2.29-.42a1.13 1.13 0 0 0-.1-.4l.05-.04h.01l.67 1.23v.01l-.06.03ZM22.75 41.97a1312.62 1312.62 0 0 0 .63.29l-.02.05a.56.56 0 0 0-.23-.07c-.14 0-.18.1-.23.2a89.53 89.53 0 0 0-.78 1.79c-.05.11-.09.2 0 .3a.57.57 0 0 0 .21.13l-.02.06h-.01c-.2-.1-.42-.19-.63-.28-.2-.1-.41-.2-.62-.28v-.01l.02-.06c.1.05.18.07.23.07.14 0 .18-.09.23-.2a90.07 90.07 0 0 0 .78-1.79c.05-.1.08-.2 0-.3a.57.57 0 0 0-.21-.12v-.01l.02-.05h.01l.62.28ZM33.2 44.73l-.06.01h-.01a.95.95 0 0 0-.24-.4c-.13-.1-.3-.1-.45-.06a.01.01 0 0 0 0 .02l.23.9c.04.13.12.18.26.14.17-.04.31-.08.45-.15.3-.16.45-.47.44-.82l.01-.01.06-.02a.01.01 0 0 1 0 .01l.1.85-2.2.6s0 .01 0 0h-.01l-.02-.05v-.01h.01a.66.66 0 0 0 .19-.07c.12-.06.12-.18.09-.3a345.97 345.97 0 0 0-.53-2.02c-.07-.17-.27-.13-.4-.09l-.02-.06 2.13-.6.01.01.2.76v.01l-.06.02a.01.01 0 0 1-.01-.01c-.14-.27-.28-.46-.6-.46a14.84 14.84 0 0 0-.66.15l.28 1.05v.01c.2-.05.35-.14.39-.34a1.13 1.13 0 0 0 0-.43l.06-.01.36 1.36ZM25.59 42.86l.14.03a1.31 1.31 0 0 1 .98 1.24c.02.47-.17.93-.53 1.23-.34.28-.74.34-1.17.24-.43-.09-.77-.31-.97-.71-.21-.42-.2-.92.01-1.35a1.29 1.29 0 0 1 1.4-.71l.14.03Zm-.97 1.2c-.1.45-.21 1.25.4 1.4.62.14.86-.62.97-1.08.1-.45.21-1.24-.4-1.39-.62-.15-.87.62-.97 1.07ZM30.12 46h-.07l-1.82-2.21h-.01l.03 1.75c0 .26.17.37.4.35h.01v.07l-.93.02V45.9c.09 0 .16-.02.22-.05.13-.06.16-.21.16-.35l-.04-1.9v-.02c-.1-.15-.2-.25-.38-.24h-.01V43.26l.93-.01h.01l1.33 1.64-.02-1.22c0-.09-.02-.23-.1-.29a.4.4 0 0 0-.28-.08v-.07l.86-.02v.01l.01.06c-.16.03-.3.05-.33.23a572.14 572.14 0 0 1 .02 2.48Z" fill="#00A859"/></svg>