<!-- by TradingView --><svg width="56" height="56" viewBox="0 0 56 56" xmlns="http://www.w3.org/2000/svg"><path fill="#F0F3FA" d="M0 0h56v56H0z"/><path d="m15 28 6.5-11h13L41 28l-6.5 11h-13L15 28Z" fill="#EC1C25"/><path d="m23.45 26.28-.75-.14c-.14-.03-.16-.1-.06-.2a.57.57 0 0 0 .18-.4c0-.18-.09-.29-.26-.34-.25-.08-.46-.2-.62-.37a.23.23 0 0 1 0-.31l.19-.22c.05-.06.05-.12 0-.18a1.23 1.23 0 0 0-.49-.36.06.06 0 0 1-.03-.05l.01-.05c.18-.19.23-.39.17-.6a1.41 1.41 0 0 0-.35-.53c-.14-.14-.1-.2.09-.17.37.05.51-.1.45-.45a1.1 1.1 0 0 0-.38-.67c-.1-.08-.09-.12.05-.1l.3.02c.04 0 .08 0 .12-.03a.18.18 0 0 0 .08-.1c.07-.3-.07-.64-.4-.99a.12.12 0 0 1-.03-.13.12.12 0 0 1 .1-.08l.17-.02c.1-.01.18-.06.23-.15a.29.29 0 0 0 .02-.27 3.66 3.66 0 0 0-.55-.93c-.36-.44-.27-.58.28-.42l.43.12c.47.13.82.24 1.04.33.99.4 1.99.76 3 1.1 1.18.38 1.89.93 2.14 1.66.2.58.34 1.25.42 2.01 0 .1.05.16.13.2.34.19.73-.08 1.18-.79.24-.38.49-.87.74-1.46.6-1.43 1.65-1.97 3.15-1.61.45.1.8.37 1.06.81a.1.1 0 0 1 0 .1.11.11 0 0 1-.07.07.68.68 0 0 0-.33.21.23.23 0 0 0-.05.21c.05.25.04.49-.03.72-.04.14-.13.33-.27.58-.13.23-.22.41-.26.54-.07.22-.09.44-.05.66.13.72.24 1.46.34 2.22.04.3.02.6-.07.9a5.3 5.3 0 0 1-.32.8l-.21.46c-.06.14-.02.24.12.3.78.35 1.3.86 1.53 1.54.2.58.2 1.31 0 2.2-.06.3-.17.77-.33 1.39-.24.99-.41 1.73-.5 2.23-.15.83-.23 1.59-.21 2.26 0 .3-.07.33-.21.05l-.08-.14a3.55 3.55 0 0 0-.47-.76c-.22-.24-.47-.32-.74-.23a.2.2 0 0 0-.14.18l-.05.56c-.02.21-.07.23-.18.04a4.3 4.3 0 0 0-.52-.94c-.18-.23-.37-.35-.57-.35a.17.17 0 0 0-.16.1l-.17.33c-.01.04-.04.05-.09.05-.04 0-.06-.03-.07-.07l-.3-1.07c-.08-.28-.26-.4-.54-.37a.25.25 0 0 0-.19.1l-.22.29a.15.15 0 0 1-.16.06c-.07-.02-.1-.06-.12-.13 0-.04 0-.09-.02-.16a2.55 2.55 0 0 0-.14-.68c-.1-.23-.28-.35-.5-.36a.2.2 0 0 0-.2.1l-.15.25c-.12.18-.18.16-.18-.05 0-.44-.02-.87-.08-1.28-.04-.29-.22-.43-.55-.45-.1 0-.13-.05-.09-.15.11-.26.18-.56.2-.9a.3.3 0 0 0-.06-.21.3.3 0 0 0-.2-.11h-.08c-.27 0-.32-.11-.15-.32.29-.35.53-.7.73-1.07a.28.28 0 0 0-.02-.32.28.28 0 0 0-.3-.12 4.36 4.36 0 0 0-3.12 2.97c-.13.45-.3 1.13-.48 2.04-.18.94-.35 1.63-.49 2.09-.06.2-.14.2-.24.02-.3-.51-.69-.74-1.17-.67a.42.42 0 0 1-.47-.31c-.13-.51-.58-.77-1.35-.78-.1 0-.17-.05-.2-.15a1.2 1.2 0 0 0-.3-.5c-.09-.09-.23-.2-.42-.33-.24-.17-.4-.32-.49-.43-.14-.19-.2-.42-.17-.7 0-.1-.02-.18-.08-.25l-.15-.2c-.13-.17-.22-.3-.27-.4-.07-.16-.1-.33-.08-.53.02-.23.01-.46-.02-.68a.29.29 0 0 0-.12-.2l-.5-.37a.3.3 0 0 1-.14-.29l.02-.18c.02-.35.03-.6 0-.77a1.47 1.47 0 0 0-.28-.73.31.31 0 0 1-.05-.28c.04-.1.1-.18.2-.22.4-.15.84-.2 1.34-.13.3.03.74.14 1.33.3l.67.19c.6.14 1.31.17 2.14.08a3.04 3.04 0 0 0 1.94-.9c.04-.05.05-.1.04-.17a.16.16 0 0 0-.13-.12 3.5 3.5 0 0 0-1.04-.1c-.11.02-.16-.04-.16-.15l.02-.39c0-.08-.03-.13-.11-.15Z" fill="#F0F3FA"/><path d="M33.6 20.88c.3-.09.47-.37.4-.64-.08-.26-.38-.41-.68-.33-.3.08-.48.37-.4.63.08.27.38.42.67.34ZM32.97 24.2a.1.1 0 0 0 .1.01.1.1 0 0 0 .06-.09v-.63c.01-.13.06-.24.17-.32.05-.03.1-.05.16-.03.1.02.16.1.15.2l-.06 1.04c0 .07 0 .14.03.2l.26.65c.07.2 0 .29-.2.29a.18.18 0 0 1-.16-.1l-.3-.5a.49.49 0 0 0-.22-.2 5.15 5.15 0 0 1-.7-.38c-.18-.11-.25-.26-.2-.44.03-.06.08-.09.15-.07.27.06.53.19.76.37ZM31.3 25.32c.24-.18.5-.3.77-.38.05-.02.07 0 .1.04l.02.06a.2.2 0 0 1-.1.27l-.7.36c-.07.04-.08.1-.03.17l.2.3c.03.06.08.07.14.03.24-.2.49-.33.74-.42.34-.12.4-.03.17.25-.25.32-.62.56-1.1.7a.2.2 0 0 1-.2-.03c-.15-.13-.3-.32-.44-.58a7.63 7.63 0 0 1-.45-1.06c-.03-.07-.01-.13.05-.18.33-.3.75-.52 1.25-.68h.06c.02.02.04.04.04.06.02.15-.06.29-.23.41a2.8 2.8 0 0 1-.56.28c-.1.05-.13.12-.06.21l.1.15c.07.09.14.1.23.04ZM29.25 26.4l.15-.73c.03-.1.07-.21.12-.31.09-.15.2-.22.36-.2.03.01.07.03.09.06.02.03.03.06.03.1-.03.24-.1.46-.2.68-.05.1-.02.18.08.23l.94.46c.1.05.15.13.14.24a.2.2 0 0 1-.03.08c-.1.16-.23.2-.4.11l-.66-.33c-.3-.15-.41-.06-.34.26l.12.55c.03.13.03.2 0 .22a.24.24 0 0 1-.22.02.38.38 0 0 1-.2-.17c-.32-.53-.6-1.03-.82-1.51a.24.24 0 0 1-.01-.17c.03-.1.07-.15.12-.17.16-.04.27.01.35.15l.24.46c.07.12.12.12.14-.03ZM27.8 28.8c-.3.05-.56-.03-.8-.22-.25-.2-.4-.45-.45-.77-.04-.32.02-.6.2-.86.18-.26.41-.4.71-.45.3-.05.57.03.81.22.25.2.4.45.44.77.05.32-.02.61-.2.87-.17.25-.4.4-.7.45Z" fill="#1E1D1A"/><path d="M27.06 28.01c.24.38.7.52 1.02.31.32-.2.38-.67.13-1.05s-.7-.51-1.02-.3c-.32.2-.38.67-.13 1.04Z" fill="#fff"/><path d="M25.77 27.9a.1.1 0 0 0-.08.07.1.1 0 0 0 0 .1c.32.45.57.9.76 1.37.01.04 0 .08-.01.12a.14.14 0 0 1-.1.07c-.22.04-.41-.1-.57-.4a6.47 6.47 0 0 1-.38-.87.15.15 0 0 0-.07-.08.17.17 0 0 0-.11 0 1 1 0 0 0-.39.18.16.16 0 0 1-.18.02.16.16 0 0 1-.09-.15c0-.13.06-.22.18-.3a28.85 28.85 0 0 0 .8-.46c.18-.09.36-.15.54-.19.12-.02.17.02.14.14-.05.2-.2.33-.44.38ZM23.46 29.82l.16.26.25.44c.07.17.1.32.09.46-.02.08-.06.11-.14.09-.2-.06-.4-.27-.62-.63-.13-.23-.26-.5-.39-.81-.24-.62-.07-.77.52-.45.31.17.62.32.93.45.23.1.27.05.12-.15-.2-.25-.34-.5-.44-.76a.3.3 0 0 1 .01-.27c.04-.07.1-.1.2-.1a.1.1 0 0 1 .07.03c.56.75.88 1.37.95 1.87 0 .06-.02.1-.09.1-.2.02-.42-.02-.65-.11a4.56 4.56 0 0 1-.58-.3 11.3 11.3 0 0 0-.32-.2c-.1-.05-.13-.03-.07.08ZM21.76 30.68l.8-.42a.08.08 0 0 1 .07 0c.02 0 .04.02.04.05l.03.09c.04.1.01.2-.1.25l-.65.34c-.07.04-.08.1-.04.16l.14.25c.05.1.12.11.22.06l.18-.1c.33-.22.57-.32.71-.32.07 0 .11.03.14.1.02.05 0 .1-.04.15-.34.3-.75.53-1.24.7a.16.16 0 0 1-.2-.05 5.45 5.45 0 0 1-.86-1.57.15.15 0 0 1 .03-.16c.38-.36.8-.6 1.3-.68a.1.1 0 0 1 .08.02.1.1 0 0 1 .04.07c0 .11-.05.2-.14.26-.21.13-.44.26-.7.37-.07.04-.1.09-.07.16.03.1.07.17.14.25.03.04.07.05.12.02ZM20.23 32.34a2 2 0 0 1 .21.42c.04.1.02.19-.05.26-.06.05-.12.06-.18 0-.18-.12-.34-.3-.49-.53-.08-.14-.2-.35-.33-.65l-.2-.4a.19.19 0 0 1 .03-.2 2.02 2.02 0 0 1 .74-.52c.37-.15.65-.12.83.1.38.43.2.87-.52 1.3-.09.06-.1.13-.04.22Z" fill="#1E1D1A"/><path d="M19.64 31.45a.16.16 0 0 1-.03-.12c.01-.04.03-.08.07-.1l.15-.1a.71.71 0 0 1 .37-.13c.13 0 .22.03.27.11l.05.06c.05.08.05.18 0 .3a.7.7 0 0 1-.26.3l-.14.1a.16.16 0 0 1-.13.02.16.16 0 0 1-.1-.07l-.25-.37Z" fill="#fff"/><path fill-rule="evenodd" d="m19 13-9 15 9 15h18l9-15-9-15H19Zm1 2-8 13 8 13h16l8-13-8-13H20Z" fill="#EC1C25"/></svg>