<!-- by TradingView --><svg width="56" height="56" viewBox="0 0 56 56" xmlns="http://www.w3.org/2000/svg"><path fill="#C1926C" d="M0 0h56v56H0z"/><path d="M24.58 11.4c.35-.05.72-.12 1.1-.2.9-.16 1.8-.23 2.72-.2 1.13.05 2.3.2 3.5.44.9.19 1.67.42 2.3.7l1.37.65c.28.14.58.3.9.49l.85.54.1.06a15.95 15.95 0 0 1 4.19 4c.1.15.25.38.47.67a7.9 7.9 0 0 1 .86 1.38c.28.5.48.87.6 1.14a16.05 16.05 0 0 1 1.37 5.44c.38 3.7-.42 7.08-2.42 10.15-.33.52-.66 1.01-.99 1.48a12.37 12.37 0 0 1-3.24 3.2l-1.63 1.1c-.74.48-1.54.92-2.4 1.32-1.72.8-3.57 1.2-5.53 1.24-.86 0-1.75 0-2.7-.05a7.82 7.82 0 0 1-1.24-.16c-.91-.2-1.76-.45-2.55-.78a17.92 17.92 0 0 1-5.09-3.2l-.9-.81c-.4-.36-.8-.77-1.23-1.25-.37-.4-.72-.86-1.04-1.35a17.13 17.13 0 0 1-2.59-6.1 10.48 10.48 0 0 1-.36-2.7c0-.67 0-1.18.02-1.52.02-.56.09-1.06.18-1.51l.3-1.43a12.65 12.65 0 0 1 .38-1.39 14.02 14.02 0 0 1 1.97-4.08 18.58 18.58 0 0 1 3.76-4.08c.35-.3.7-.55 1.03-.75l.45-.3c.28-.19.5-.32.64-.4l1.1-.54c1.15-.57 2.4-.96 3.75-1.2Z" fill="#0B090F"/><path d="M40.6 17.72c.05.18-.05.23-.3.14a.6.6 0 0 1-.24-.16 5.06 5.06 0 0 1-.33-.4 1.97 1.97 0 0 0-.35-.37l-.48-.39c-.1-.08-.2-.18-.27-.29-.1-.13-.22-.25-.36-.33a2.52 2.52 0 0 1-.4-.3l-1-.95a.16.16 0 0 0-.08-.04.7.7 0 0 1-.24-.1 4.22 4.22 0 0 1-.51-.38.13.13 0 0 0-.08-.04l-.85-.09c-.35-.14-.69-.3-1.02-.47-.37-.2-.7-.34-1-.44-.84-.29-1.58-.49-2.22-.6-1.66-.28-3.43-.3-5.31-.07-.57.07-1.34.24-2.32.51-.43.12-.82.27-1.16.44l-.7.33-.63.29c-.23.11-.43.22-.6.34-.27.17-.53.33-.77.5-.98.65-1.78 1.31-2.38 1.98l-1 1.11c-.5.55-.9 1.04-1.22 1.47a6.42 6.42 0 0 0-.56.92c-.14.22-.26.46-.38.72l-.62 1.46c-.13.3-.23.6-.3.86-.07.29-.14.57-.23.86-.02.1-.05.26-.07.47a3.9 3.9 0 0 1-.06.36c-.2.97-.31 1.8-.33 2.5 0 .26.02.6.07 1.02l.02.38a36.02 36.02 0 0 1 .1 1.24l.07.34.08.4c.1.54.2 1.02.31 1.43.14.5.32.96.54 1.37.06.1.12.28.2.51.07.23.14.4.2.51a14.92 14.92 0 0 0 2.98 4.07c.13.15.23.25.3.31l.47.42c.3.28.54.48.71.6l.81.6c.34.26.73.52 1.18.78a34.09 34.09 0 0 0 1.5.8 7.89 7.89 0 0 0 1.67.67l.42.15c.12.03.23.08.33.13.1.06.27.11.5.16a4.79 4.79 0 0 1 .24.09c-.03 0-.03 0 0 0 .33.1.55.15.65.16 1.04.12 2.08.16 3.13.12a10.17 10.17 0 0 0 2.58-.44c.5-.16 1.01-.3 1.52-.44.17-.04.41-.14.73-.29.22-.1.38-.16.5-.2a10.8 10.8 0 0 0 2.32-1.2c.25-.18.52-.35.81-.53.1-.05.23-.15.4-.29.17-.15.32-.26.42-.32.22-.12.44-.27.65-.45a10.33 10.33 0 0 0 .69-.66 14.82 14.82 0 0 0 1.45-1.85l.74-1.12a10.56 10.56 0 0 0 1.3-2.62c.2-.63.36-1.1.45-1.42a10.3 10.3 0 0 0 .5-2.95c.04-1.14-.02-2.27-.17-3.4l.03-.44c0-.04.02-.06.06-.06.05-.01.1 0 .14.02.03 0 .04.03.03.05 0 .04 0 .08.03.12l.04.13c.02.16.08.44.16.84.07.37.1.88.1 1.53 0 .08.01.17.04.25.03.07.04.15.05.24 0 .36-.01.69-.04.98a24.8 24.8 0 0 1-.1.92c0 .08 0 .14-.02.17a.93.93 0 0 0-.07.33c0 .11-.02.2-.04.25-.07.25-.12.5-.14.75 0 .08-.03.19-.06.33l-.05.2-.06.22c-.03.1-.03.2 0 .3a5.1 5.1 0 0 1-.24.66c-.27.59-.47 1.1-.62 1.5-.08.23-.19.45-.34.68a52.32 52.32 0 0 0-1.3 2.07l-.18.22-.18.23c-.08.15-.18.28-.29.4l-.3.39c-.1.15-.22.3-.36.44a14.12 14.12 0 0 1-2.47 2.03l-.7.48c-.28.17-.54.3-.8.42a6.42 6.42 0 0 0-.77.41c-.1.06-.2.1-.31.14-.34.12-.68.27-1.04.44a6.9 6.9 0 0 1-1.28.47c-.42.13-.74.23-.96.27-.68.15-1.35.26-2.02.34-.34.04-.76.05-1.26.02l-1.32-.07a16.62 16.62 0 0 1-1.87-.23l-.74-.13c-.92-.2-1.83-.48-2.73-.84-.23-.09-.59-.26-1.07-.51l-.63-.33a5.32 5.32 0 0 1-1.22-.8l-.3-.24a9.31 9.31 0 0 1-1.18-1.04c-.21-.2-.37-.35-.46-.47l-.61-.64a15.27 15.27 0 0 1-1.95-2.4 9.27 9.27 0 0 0-.5-.73c-.1-.11-.18-.24-.26-.38a2.52 2.52 0 0 0-.27-.38.95.95 0 0 1-.15-.31l-.08-.21a.7.7 0 0 1-.06-.17 22.6 22.6 0 0 1-.37-.9c-.1-.23-.13-.47-.12-.72 0-.04 0-.07-.02-.1-.12-.2-.21-.41-.28-.63 0-.02-.01-.02-.03-.02h-.02l-.01-.02-.14-.84-.16-.83a4.8 4.8 0 0 1-.1-1.1c-.02 0-.02-.01-.02-.03-.04-1.05 0-2.08.09-3.1a12.62 12.62 0 0 1 .56-2.77 10.4 10.4 0 0 1 1.2-2.93l.1-.18.03-.09a12.25 12.25 0 0 1 .52-.86l.26-.38c.08-.13.17-.25.28-.36.1-.1.19-.21.28-.35.14-.22.39-.48.75-.79a.06.06 0 0 0 .02-.06c0-.01 0-.02.02-.03l.02-.02.8-.9c.13-.14.26-.28.41-.4l.44-.38.35-.28c.11-.09.22-.19.32-.3a.24.24 0 0 1 .07-.05 6.75 6.75 0 0 0 .48-.42c.1-.12.21-.21.32-.29.09-.05.16-.11.24-.17.08-.08.16-.14.25-.18.21-.13.43-.26.64-.41.2-.14.42-.26.65-.36l1.1-.44c.3-.12.63-.23.97-.31l1-.28c.03 0 .03-.02 0-.03h-.02a1.48 1.48 0 0 0-.01 0c.23-.04.38-.08.45-.1.38-.12.74-.2 1.07-.22.23 0 .45-.04.64-.09.2-.05.4-.08.58-.09.83-.05 1.76-.07 2.79-.05.45 0 .86.04 1.23.12a13.25 13.25 0 0 0 1.24.2V12l.03.01.37.1c.02 0 .04.01.04.03 0 .02.02.03.04.04.77.25 1.44.49 1.99.71.1.04.23.1.4.2l.38.2c.9.39 1.74.9 2.53 1.51a23 23 0 0 1 2.12 1.84c.23.23.55.59.96 1.09Z" fill="#DABB8B"/><path d="M21.85 41.97a13.05 13.05 0 0 0-1.1-.56 5.2 5.2 0 0 1-.49-.29l-.39-.25-.61-.42a20.6 20.6 0 0 1-2.05-1.7 4.97 4.97 0 0 1-.4-.42c-.08-.1-.2-.22-.37-.39a4.6 4.6 0 0 1-.45-.49l-1.05-1.46A9.55 9.55 0 0 1 14 34.3l-.6-1.36c-.12-.26-.2-.5-.24-.7-.27-1.2-.41-1.92-.43-2.18l-.12-1.46c-.06-.65-.03-1.44.09-2.37a22 22 0 0 1 .55-2.82 8 8 0 0 1 .36-1.07 18.72 18.72 0 0 1 1.54-2.9 5.17 5.17 0 0 1 .74-.9l.5-.57c.47-.6 1.03-1.2 1.68-1.82.24-.24.5-.44.78-.6l.51-.37c.3-.22.52-.37.68-.46.53-.29 1.14-.6 1.84-.92.6-.29 1.18-.5 1.77-.64.85-.2 1.57-.33 2.14-.38l1.62-.15c.28-.02.6-.03.96-.02.22 0 .54.01.96.04l.33.02c.39.02.82.09 1.29.2l1.6.4a16.49 16.49 0 0 1 4.78 2.57c.24.2.48.37.72.54.16.1.36.28.62.53l.38.36c.07.06.15.14.22.23l.18.25.23.33c.35.41.65.82.89 1.22.33.54.65 1.1.97 1.68a11.72 11.72 0 0 1 .79 1.74l.06.15c.45 1.09.74 2.27.88 3.55.1.92.14 1.6.13 2.02 0 .44-.03.92-.08 1.45-.03.37-.09.72-.17 1.04-.08.37-.17.72-.26 1.06a14.03 14.03 0 0 1-2.24 4.77c-.4.67-1.07 1.5-2 2.5-.15.15-.3.28-.48.38-.33.18-.63.4-.9.62-.1.1-.22.18-.36.27l-.38.23c-.28.16-.5.3-.62.4-.3.22-.64.41-1.01.55l-.84.36c-.3.14-.54.24-.7.3-.25.1-.5.19-.71.24l-1.48.42c-.52.16-1.17.27-1.98.33-.7.05-1.54.06-2.55.03a2.64 2.64 0 0 1-.76-.12l-.3-.07-.89-.16c-.19-.04-.37-.11-.56-.2a2.78 2.78 0 0 0-.57-.21 7.04 7.04 0 0 1-1.72-.67Z" fill="#C1926C"/><path d="M31.32 16.41c-.21.23-.35.47-.42.73l-.05.07a.38.38 0 0 1-.24.1h-.68c-.2 0-.37-.02-.52-.06-.33-.07-.67-.14-1-.19a.73.73 0 0 0-.27.02c-.06 0-.06 0-.01-.04.12-.07.2-.14.25-.2a.58.58 0 0 0 .14-.28c.17-.91.3-1.75.4-2.52.02-.08.06-.11.15-.11l.35.02c.08 0 .12.05.13.13v.47c-.02.16-.06.3-.12.43a1.8 1.8 0 0 0-.16.5 23.45 23.45 0 0 0-.17 1.24c-.04.24.06.37.3.4.36.04.7-.01 1.03-.16.14-.06.29-.14.45-.24a11.34 11.34 0 0 0 .44-.3Z" fill="#0B090F"/><path d="m35.11 14.02.85.1c.03 0 .06 0 .08.03l.5.38a.7.7 0 0 0 .25.1c.03 0 .06.02.08.04l1 .94c.12.12.26.22.4.3.14.1.26.2.36.34.08.11.17.21.27.3l.48.38c.12.1.24.22.35.37.1.14.21.27.33.4a.6.6 0 0 0 .24.16c.25.1.35.04.3-.14l.14.18.29.35c.2.21.38.44.52.68.06.12.17.29.31.5.18.27.3.47.38.62.46.86.86 1.71 1.19 2.54.06.16.14.4.23.73l.15.5a7.44 7.44 0 0 1 .41 1.9c.01.05.03.1.07.13a.1.1 0 0 1 .03.07v.28c0 .08.01.17.04.25.08.2.12.4.12.6 0 .54 0 1.07-.02 1.6 0 .34-.04.63-.1.9A44.7 44.7 0 0 0 44 31.5c-.08.43-.18.85-.3 1.27a.55.55 0 0 1 0-.3 8.76 8.76 0 0 0 .12-.42l.06-.33c.02-.25.07-.5.14-.75.02-.05.03-.14.04-.25a.93.93 0 0 1 .07-.33.38.38 0 0 0 .02-.17v-.1l.1-.82c.03-.3.04-.62.04-.98a.73.73 0 0 0-.05-.24.7.7 0 0 1-.04-.25c0-.65-.03-1.16-.1-1.53a20.5 20.5 0 0 1-.2-.97.2.2 0 0 1-.03-.12c0-.02 0-.04-.03-.05a.24.24 0 0 0-.14-.02c-.04 0-.06.02-.06.06l-.03.44-.32-1.39a3.54 3.54 0 0 0-.23-.72 6.6 6.6 0 0 1-.19-.48 27.64 27.64 0 0 0-1.01-2.19 14.4 14.4 0 0 0-1-1.61 8.19 8.19 0 0 1-.48-.75A8.3 8.3 0 0 0 38 15.93l-.4-.31a8.33 8.33 0 0 0-.71-.53l-1.78-1.07Z" fill="#C1926C"/><path d="M27.1 16.66c-.06.14-.2.27-.41.38a3.94 3.94 0 0 1-.56.23 1.57 1.57 0 0 1-1.44-.24c-.24-.2-.4-.45-.45-.75-.08-.4-.07-.77.03-1.09a1.21 1.21 0 0 1 .69-.78c.21-.1.38-.16.5-.2a1.5 1.5 0 0 1 1.2.13c.16.1.3.27.44.5.14.25.2.55.18.92 0 .31-.07.61-.19.9Z" fill="#0B090F"/><path d="M25.06 14.76a.74.74 0 0 1 .59-.39.85.85 0 0 1 .68.25c.17.18.3.46.35.83.05.3.06.62.02.93a.67.67 0 0 1-.2.37 2.43 2.43 0 0 1-.46.38c-.15.12-.32.12-.51.01a1.97 1.97 0 0 1-.45-.42 1.3 1.3 0 0 1-.31-.96c.01-.33.11-.66.3-1Z" fill="#C1926C"/><path d="m33.93 15.3.58.12c.04 0 .07.02.09.06l.06.17.06.17c.3.55.38 1.12.22 1.71a.94.94 0 0 1-.26.4 4.25 4.25 0 0 1-.48.4c-.11.1-.3.14-.55.14a4.6 4.6 0 0 1-.6-.05h-.03a.63.63 0 0 1-.22-.1 2.44 2.44 0 0 1-.2-.13 2.1 2.1 0 0 0-.22-.14.85.85 0 0 1-.44-.74 2.6 2.6 0 0 1 .22-1.25c.21-.43.52-.7.92-.83a.91.91 0 0 1 .42-.01l.43.08ZM21.92 15.77h-.14a.07.07 0 0 1-.06-.06.07.07 0 0 1 .01-.07c.1-.1.22-.17.37-.21a.56.56 0 0 1 .43.02l.12.06c.11.05.19.1.23.13.07.07.11.15.14.26.02.1.02.23 0 .41 0 .18-.06.3-.15.37a.71.71 0 0 1-.48.17c-.04 0-.05-.02-.02-.05l.04-.04a.11.11 0 0 0 .04-.06.67.67 0 0 0-.06-.5.91.91 0 0 0-.15-.18 4.28 4.28 0 0 0-.23-.2.16.16 0 0 0-.1-.05Z" fill="#0B090F"/><path d="M34.04 15.44c.12.03.21.07.29.13.11.1.17.35.17.73 0 .28-.04.55-.1.82a.75.75 0 0 1-.17.34c-.21.25-.4.43-.56.53-.24.15-.49.2-.74.17a.51.51 0 0 1-.42-.3.94.94 0 0 1-.05-.53c.07-.47.19-.89.36-1.26.04-.08.12-.17.24-.29l.16-.15c.17-.2.45-.27.82-.19Z" fill="#C1926C"/><path d="M22.11 17.6a2.91 2.91 0 0 0 .5.64c.15.15.26.27.32.36.02.03.02.06 0 .09a.08.08 0 0 1-.08.04c-.4-.04-.68-.13-.84-.28a.72.72 0 0 1-.18-.24l-.14-.29a2.07 2.07 0 0 1-.1-.22 1.02 1.02 0 0 0-.13-.2.16.16 0 0 1-.03-.08.68.68 0 0 0-.1-.33l-.22-.3c-.08-.11-.17-.27-.26-.5a5.8 5.8 0 0 0-.1-.24c-.06-.1-.02-.15.1-.15h.3a.28.28 0 0 1 .26.2c.12.4.3.73.52 1 .02.02.04.04.04.07.02.16.07.3.14.44ZM18.23 28.9c-.03-.54-.03-1.14.02-1.8a6.3 6.3 0 0 1 .3-1.56l.13-.49a25.29 25.29 0 0 1 .78-1.64 9.69 9.69 0 0 1 3.22-3.48 7.28 7.28 0 0 1 2.97-1.1c1.24-.18 2.37-.24 3.4-.16 1.24.1 2.3.37 3.2.83.69.35 1.36.8 2.02 1.33.27.22.5.46.7.7a44.25 44.25 0 0 0 .79.99 9.25 9.25 0 0 1 .69 1.07l.22.49.28.6c.11.21.2.43.26.66.18.66.3 1.23.34 1.72.06.77.05 1.59-.03 2.44a8.08 8.08 0 0 1-2.05 4.65c-.2.28-.37.47-.49.6l-.9.84c-.14.12-.36.27-.66.45-.25.16-.44.28-.55.37-.17.13-.37.25-.6.36a10.5 10.5 0 0 1-1 .4c-.3.13-.62.23-.96.3-.55.12-1.13.2-1.74.24-.5.03-1.1.03-1.75 0-.19-.01-.38-.03-.56-.07-.68-.15-1.42-.38-2.22-.7a5.67 5.67 0 0 1-1.16-.6 14 14 0 0 1-.7-.42 4.1 4.1 0 0 1-.65-.52c-.6-.6-1.14-1.18-1.6-1.73-.2-.24-.4-.55-.59-.93l-.47-1.03-.1-.24a4.99 4.99 0 0 1-.34-1.1c-.1-.6-.17-1.1-.2-1.47Z" fill="#0B090F"/><path d="M34.25 35a8.17 8.17 0 0 1-3.03 1.9c-1.4.48-2.84.65-4.35.5a8.3 8.3 0 0 1-2.4-.63c-.42-.19-.84-.4-1.28-.63-.5-.26-.95-.57-1.34-.92l-.57-.52c-.21-.2-.39-.38-.53-.55l-.7-.85c-.11-.14-.2-.28-.29-.43a14 14 0 0 1-.74-1.6 8.25 8.25 0 0 1-.46-2.42 8.64 8.64 0 0 1 .7-4.28 9.49 9.49 0 0 1 1.98-3c.53-.58 1.05-1 1.53-1.3.3-.19.63-.37.98-.56.29-.15.6-.28.93-.37 1.05-.28 2.17-.41 3.36-.39.87.02 1.63.09 2.28.2.52.08 1.08.28 1.67.6.46.23.98.56 1.56.97.4.29.75.59 1.03.9.38.41.75.86 1.1 1.35a8.37 8.37 0 0 1 1.5 3.85c.1.9.11 1.7.05 2.42a8.9 8.9 0 0 1-1.2 3.64c-.16.3-.37.59-.61.86-.22.24-.44.5-.67.8l-.31.3-.19.16Z" fill="#C1926C"/><path d="m29.98 32.24-.02.07a.48.48 0 0 1-.08.13c-.24.27-.36.58-.35.91 0 .1.04.16.12.22.04.04.03.05-.02.05-.14 0-.26-.01-.37-.05a.07.07 0 0 1-.04-.03.07.07 0 0 1 0-.05c.09-.3.12-.61.1-.92 0-.15.03-.33.12-.53a4.95 4.95 0 0 1 .29-.52.2.2 0 0 0 .02-.14.2.2 0 0 0-.08-.13.6.6 0 0 0-.37-.1 7.42 7.42 0 0 0-.82.06 1.9 1.9 0 0 1-.7-.1 3.1 3.1 0 0 0-.53-.11.74.74 0 0 0-.49.12c-.4.27-.68.68-.87 1.21-.05.14 0 .24.13.32.43.23.89.53 1.37.89.07.05.11.12.12.2 0 .02 0 .04-.03.06a.07.07 0 0 1-.06.02 1.43 1.43 0 0 1-.78-.35 9.31 9.31 0 0 0-.76-.6.28.28 0 0 0-.15-.06.47.47 0 0 0-.34.14.35.35 0 0 0-.1.23l.01.27.01.15c0 .1-.04.13-.14.1-.17-.08-.27-.2-.3-.35 0-.1-.03-.19-.07-.29a4.37 4.37 0 0 0-.15-.35.35.35 0 0 0-.23-.2c-.28-.08-.39-.28-.33-.6 0-.04.03-.08.06-.1.17-.14.3-.26.37-.36.1-.15.14-.3.13-.49-.01-.24-.09-.5-.22-.78a14.7 14.7 0 0 1-.48-1.09.42.42 0 0 1-.02-.14.12.12 0 0 0-.04-.08.08.08 0 0 0-.07-.03l-1.55.22c-.37.05-.74.01-1.1-.12a.28.28 0 0 1-.19-.25c0-.02 0-.03.03-.04a7.09 7.09 0 0 1 1.49.03c.32.05.76.04 1.3 0a.78.78 0 0 0 .36-.12c.23-.15.41-.25.56-.31.22-.1.43-.14.63-.15.45-.01.91-.02 1.4 0 .54 0 .86-.06.96-.21.07-.12.12-.25.16-.4.03-.1.05-.24.08-.43l.06-.33c.02-.1.06-.19.13-.27a.72.72 0 0 0 .16-.56l-.01-.02h-.04a.35.35 0 0 1-.18.06.29.29 0 0 1-.18-.05 4.08 4.08 0 0 0-.58-.33 5.55 5.55 0 0 1-.55-.3l-.44-.26a.07.07 0 0 1-.04-.06c0-.03.01-.05.03-.06l.6-.37c.17-.1.42-.22.75-.38l.63-.3c.23-.14.47-.25.73-.36.5-.2.99-.42 1.46-.66.15-.08.32-.11.5-.1.1 0 .15.05.18.14l.01.07c.03.1-.01.14-.11.15-.4.03-.73.11-1.01.24l-1.53.7a9.01 9.01 0 0 0-.93.52l-.29.13c-.17.07-.3.13-.38.18a.1.1 0 0 0-.04.07.1.1 0 0 0 0 .07c.06.1.2.2.42.3.16.08.31.13.45.16l.53.08c.06 0 .08.04.07.1-.02.05 0 .09.05.1.03.02.06.02.08 0 .13-.08.25-.17.36-.26a.15.15 0 0 0 .05-.1c.03-.24.18-.48.43-.7.1-.1.21-.1.33-.03.03.01.04.03.05.06.07.17.04.32-.08.43l-.34.3c-.12.12-.12.21.02.3l.2.14a.1.1 0 0 1 .04.1c-.02.17-.1.29-.21.35l-.41.23a.11.11 0 0 0-.06.09c-.02.31-.01.55.04.72.08.26.24.4.5.43.34.04.64 0 .9-.13.1-.04.25-.1.44-.15l.3-.1.3-.15.62-.4.4-.3c.22-.2.4-.33.54-.4.05-.02.07 0 .07.04 0 .12.06.2.16.26.26.12.55.24.89.34.27.08.47.2.61.37.04.04.05.1.04.15a.2.2 0 0 1-.08.14.64.64 0 0 1-.22.1c-.35.08-.67.11-.96.1-.2 0-.4.08-.6.26-.17.15-.3.33-.41.54-.35.67-.73 1.29-1.14 1.85-.14.2-.24.4-.3.64l.01.1c.14.24.22.48.24.72.02.3-.07.53-.26.68l-.35.24a.1.1 0 0 1-.1 0 .07.07 0 0 1-.04-.04v-.06c.16-.22.3-.44.42-.66a.68.68 0 0 0 .04-.65.13.13 0 0 0-.06-.07.14.14 0 0 0-.09-.01.7.7 0 0 0-.31.14 1.82 1.82 0 0 0-.32.32.46.46 0 0 0-.1.26 1.4 1.4 0 0 0-.01.28c0 .04-.01.05-.05.05Z" fill="#0B090F"/><path d="M29.63 26.29v-.04l.03-.03a.3.3 0 0 1 .25-.07c.1.01.19.06.26.14l.2.2a.4.4 0 0 1 .11.27c0 .1-.02.18-.09.24l-.03.03h-.04l-.7-.74ZM40.03 27.85c.17-.1.36-.11.57-.04.14.06.3.17.5.34.15.12.22.33.21.61 0 .12-.01.24-.04.36s-.07.21-.11.29a.79.79 0 0 1-.47.32c-.2.06-.4.08-.59.05a.45.45 0 0 1-.24-.14 2.12 2.12 0 0 1-.2-.24 3.2 3.2 0 0 0-.09-.12c-.21-.26-.26-.54-.14-.81.1-.24.3-.45.6-.62ZM15.14 27.9c.3-.13.63-.13.98-.01.3.1.48.31.56.61.06.25.04.54-.05.85a.68.68 0 0 1-.54.52c-.18.04-.44.03-.79-.03-.18-.03-.33-.15-.45-.35-.1-.17-.15-.36-.16-.56-.01-.27 0-.47.04-.6.07-.2.2-.35.4-.43Z" fill="#0B090F"/><path d="m40.37 28.82.1-.35a.17.17 0 0 1 .12-.13.1.1 0 0 1 .06 0c.08.02.1.07.07.15a.8.8 0 0 0-.06.53c0 .04 0 .07-.04.09a.94.94 0 0 1-.5.14c-.03 0-.04 0-.06-.02a.07.07 0 0 1-.02-.05c0-.05.02-.08.06-.1a.51.51 0 0 0 .17-.1c.05-.04.08-.1.1-.16ZM24.66 32.49a.57.57 0 0 1-.11-.4c.01-.14.05-.32.13-.51.01-.03.03-.04.06-.04.27.04.51.11.73.23.03.01.05.04.06.06.04.13.06.25.07.38 0 .17-.05.27-.14.32l-.42.17a.14.14 0 0 1-.1 0 .6.6 0 0 1-.28-.21Z" fill="#C1926C"/><path d="M35.69 37.22a.13.13 0 0 1-.07.06.12.12 0 0 1-.1.01c-.22-.07-.4-.22-.55-.43a.1.1 0 0 0-.06-.04.2.2 0 0 1-.05-.01.07.07 0 0 1-.03-.04.5.5 0 0 0-.11-.13.14.14 0 0 1-.05-.1c0-.04 0-.08.04-.1l.24-.27a.05.05 0 0 1 .05-.02.1.1 0 0 0 .03 0h.02c.22-.2.42-.35.6-.42.24-.1.47-.1.68-.01.12.05.12.1 0 .13-.18.06-.38.1-.6.15-.1.01-.2.04-.3.07a.55.55 0 0 0-.23.14c-.1.11-.14.24-.12.38.01.05.03.09.07.12.05.02.09.03.14.02.45-.09.88-.16 1.27-.22.28-.05.6 0 .96.16a.24.24 0 0 1 .15.22v.19c0 .1-.04.12-.13.08a2.33 2.33 0 0 0-1.8 0 .1.1 0 0 0-.05.06Z" fill="#0B090F"/><path d="M34.8 36.39c.02-.02.03-.02.03 0v.26c0 .04-.02.05-.05.02-.08-.08-.08-.17.02-.28Z" fill="#C1926C"/><path d="M20.24 38.47a.83.83 0 0 0-.12.35c0 .11-.07.14-.17.1l-.32-.15c-.1-.04-.14-.12-.1-.22.04-.12.1-.22.19-.31.24-.23.46-.49.67-.76l.55-.8c.04-.07.09-.13.15-.17.12-.1.31-.06.57.1.17.1.33.23.5.4.16.16.32.3.48.38.2.12.4.23.6.32.03.01.04.03.04.05 0 .02-.01.04-.03.05a2.2 2.2 0 0 0-1.02 1.08 2.5 2.5 0 0 1-.22.43c-.13.2-.21.4-.26.64 0 .01 0 .03-.02.03a.05.05 0 0 1-.05.01l-.52-.15a.13.13 0 0 1-.09-.1.3.3 0 0 1 .02-.24.65.65 0 0 1 .18-.18.14.14 0 0 0 .06-.11c0-.24.07-.47.2-.68.11-.16.27-.35.5-.55a.47.47 0 0 0 .15-.25c.04-.23.05-.4.03-.51-.04-.18-.15-.28-.34-.3a.55.55 0 0 0-.42.15c-.1.09-.2.21-.27.37-.07.15-.17.27-.28.38a13 13 0 0 1-.36.3c-.12.1-.21.2-.3.34ZM36.62 38c.44-.11.76-.27.95-.45.03-.04.05-.03.03.02a.24.24 0 0 1-.1.15c-.23.15-.48.3-.77.42a.26.26 0 0 0-.13.15.12.12 0 0 1-.1.08c-.04 0-.08 0-.1-.03a.84.84 0 0 1-.22-.35c-.04-.12 0-.14.1-.09l.05.03.14.07c.05.02.1.02.15 0ZM30.78 39.86c.05.19.1.19.17 0l.1-.22c.05-.09.1-.14.18-.17.12-.06.25-.1.37-.1.03 0 .05 0 .06.02.02.02.02.04.02.06-.1.38-.32.64-.66.78-.08.03-.12.1-.11.18l.02.42c.01.13.08.17.2.12l1.75-.68c.05-.02.07 0 .06.04v.03c-.01.05-.04.08-.08.1-.25.16-.41.24-.49.26-.4.11-.8.24-1.19.39-.06.02-.14.06-.24.13-.14.08-.26.14-.35.15-.04.01-.08 0-.11-.02a.13.13 0 0 1-.06-.1c0-.5-.03-.87-.07-1.13a3.7 3.7 0 0 0-.42-1.2.9.9 0 0 1-.05-.09c-.03-.04-.02-.06.03-.07.44-.1.94-.26 1.48-.48a8 8 0 0 1 1.15-.33c.1-.07.2-.12.33-.16.03-.01.05 0 .07.03a2 2 0 0 0 .17.27c.09.11.15.2.19.27.13.26.28.54.44.81.07.12.15.23.26.33.07.08.18.16.32.26.03.02.06.03.1.03.03 0 .06 0 .1-.03.24-.17.48-.45.7-.86.06-.1.15-.13.3-.12.03 0 .05.03.05.06 0 .12-.05.2-.13.26a3.6 3.6 0 0 1-.12.08 1.22 1.22 0 0 0-.33.27l-.23.25c-.1.1-.19.16-.27.2l-.2.1c-.16.1-.28.16-.36.18-.14.02-.24-.04-.32-.18a4.84 4.84 0 0 1-.32-.73 6.2 6.2 0 0 0-.65-1.2.2.2 0 0 0-.12-.02 1.8 1.8 0 0 0-.67.23 8.45 8.45 0 0 1-1.18.47.2.2 0 0 0-.11.1.2.2 0 0 0-.02.15l.24.86ZM24.72 38.3c.42.05.81.24 1.17.55.04.03.05.06.05.1-.01.16 0 .31.04.47.04.16.05.32.03.49a1.63 1.63 0 0 1-.45.9c-.12.13-.25.23-.4.3-.1.05-.2.07-.32.06h-.17l-.2-.02a.68.68 0 0 1-.2-.05c-.26-.12-.49-.26-.68-.41-.2-.17-.36-.35-.46-.54-.23-.45-.15-.91.25-1.4a13 13 0 0 1 .3-.32.68.68 0 0 1 .39-.15c.23-.01.45 0 .65.02Z" fill="#0B090F"/><path d="M23.7 39.67c.11-.16.21-.34.3-.52.05-.1.12-.2.22-.27s.17-.16.24-.25a.16.16 0 0 1 .07-.06l.05-.02c.06-.03.1-.04.13-.04a1.23 1.23 0 0 1 .6.12c.22.11.33.27.33.48 0 .26-.01.47-.04.64-.05.21-.13.4-.26.57-.14.2-.34.39-.6.58-.22.17-.44.12-.68-.14a3.03 3.03 0 0 1-.43-.68.19.19 0 0 1 0-.2.13.13 0 0 0 .03-.08l.01-.07.04-.06Z" fill="#C1926C"/><path d="M29.12 39.25a1.9 1.9 0 0 0-.76-.17.15.15 0 0 0-.1.04.14.14 0 0 0-.05.11c0 .77.03 1.53.1 2.3 0 .1-.04.14-.14.13l-.38-.04c-.1 0-.14-.06-.12-.15.06-.25.09-.49.1-.72.01-.51 0-.93-.02-1.26-.02-.15-.05-.3-.12-.45-.05-.1-.01-.15.1-.14.46.05.93.08 1.42.08.04 0 .06.01.08.04.05.08.05.15 0 .2-.03.04-.06.05-.1.03Z" fill="#0B090F"/></svg>