<!-- by TradingView --><svg width="56" height="56" viewBox="0 0 56 56" xmlns="http://www.w3.org/2000/svg"><path fill="#D55501" d="M0 0h56v56H0z"/><path fill-rule="evenodd" d="M7.94 22 6 32h1.77l.74-3.82h2.2c2.49 0 4.02-1.52 4.02-3.85 0-1.86-1.7-2.33-2.54-2.33H7.94Zm.97 4.52c.15-.92.45-2.78.48-2.9h2.38c.4.02 1.23.25 1.23 1.06 0 1.39-1.34 1.8-2.01 1.84H8.9Zm13.3 2.76c-.8 2.1-3 3.22-4.9 2.5-1.91-.7-2.82-2.97-2.02-5.06.8-2.1 3-3.22 4.9-2.5 1.91.7 2.82 2.97 2.02 5.06Zm-1.99-.24c-.52 1.2-1.6 1.7-2.41 1.13-.82-.58-1.05-2.01-.53-3.21.52-1.2 1.6-1.7 2.41-1.13.82.58 1.05 2.01.53 3.21Zm17.09 2.75c1.9.7 4.1-.42 4.9-2.51.8-2.1-.1-4.36-2.02-5.07-1.9-.7-4.1.42-4.9 2.51-.8 2.1.1 4.36 2.02 5.07Zm.5-1.62c.81.57 1.9.07 2.41-1.13.52-1.2.29-2.63-.53-3.2-.81-.58-1.9-.08-2.41 1.12-.52 1.2-.29 2.63.53 3.2ZM23.24 32h1.84l1.78-10h-1.78l-1.84 10Zm5.28-2.65-1.63.44c.31.74 1.4 2.21 3.29 2.21 2.35 0 3.34-1.66 3.34-2.65 0-1-1.14-1.85-2.79-2.36-1.65-.51-1.1-1.36.17-1.36 1 0 1.4.69 1.48 1.03a7.34 7.34 0 0 0 1.58-.56 3 3 0 0 0-2.93-2.1c-1.21 0-3.06.63-3.06 2.26 0 1.55 1.55 2.13 2.75 2.59l.18.06c1.2.47.73 1.43-.62 1.43-1.08 0-1.62-.66-1.76-1ZM44.62 32H42.8l1.4-8h1.6l-.25 1.7c.6-.75 1.62-1.7 2.58-1.7 1.46 0 2.06 1.24 1.82 2.94L49.07 32H47.3l.98-5.06c.06-.44-.06-1.33-.98-1.33-.67 0-1.4.6-1.9 1.13L44.6 32Z"/></svg>