<!-- by TradingView --><svg width="56" height="56" viewBox="0 0 56 56" xmlns="http://www.w3.org/2000/svg"><path fill="url(#ae43uclmk)" d="M0 0h56v56H0z"/><path fill-rule="evenodd" d="M4 32v-9h2.3c2.04 0 3.7 1.44 3.7 3.22 0 1.77-1.66 3.28-3.7 3.28H6V32H4Zm2.45-7.5H6V28h.45C7.31 28 8 27.22 8 26.25s-.7-1.75-1.55-1.75Zm12.55 3a4.5 4.5 0 1 1-9 0 4.5 4.5 0 0 1 9 0Zm-5 4.16v-2.34A1.89 1.89 0 0 1 12.68 28h-2.34A4.2 4.2 0 0 0 14 31.66Zm0-5.98A1.9 1.9 0 0 0 12.68 27h-2.34A4.2 4.2 0 0 1 14 23.34v2.34ZM16.32 27h2.34A4.2 4.2 0 0 0 15 23.34v2.34A1.9 1.9 0 0 1 16.32 27ZM15 31.66A4.2 4.2 0 0 0 18.66 28h-2.34A1.89 1.89 0 0 1 15 29.32v2.34Zm1-4.16a1.5 1.5 0 1 1-3 0 1.5 1.5 0 0 1 3 0Zm-.23 0a1.27 1.27 0 1 1-2.54 0 1.27 1.27 0 0 1 2.54 0Zm29.23 0a4.5 4.5 0 1 1-9 0 4.5 4.5 0 0 1 9 0Zm0 0V32h2v-4.42l3 1.73V32h2v-9h-2v3.52L45 23v4.5Zm-5 4.16v-2.34a1.9 1.9 0 0 1-1.3-1.28h-2.35A4.2 4.2 0 0 0 40 31.66Zm0-5.98c-.65.18-1.16.7-1.33 1.36h-2.33a4.2 4.2 0 0 1 3.66-3.7v2.34Zm2.33 1.36h2.33a4.2 4.2 0 0 0-3.66-3.7v2.34c.65.18 1.16.7 1.33 1.36ZM41 31.66a4.2 4.2 0 0 0 3.66-3.62H42.3A1.9 1.9 0 0 1 41 29.32v2.34Zm1-4.16a1.5 1.5 0 1 1-3 0 1.5 1.5 0 0 1 3 0Zm-.23 0a1.27 1.27 0 1 1-2.54 0 1.27 1.27 0 0 1 2.54 0ZM20 23v9h6l5-9h-2.23l-1.97 3.6-1.72-3.6h-2.1l2.83 5.4-1.15 2.1H22V23h-2Zm16 0v1.5h-1.23c-1.57 0-2.77 1.41-2.77 3 0 1.6 1.2 3 2.77 3H36V32h-1.73A4.31 4.31 0 0 1 30 27.64v-.28c0-2.4 1.91-4.36 4.27-4.36H36Z" fill="#fff"/><defs><linearGradient id="ae43uclmk" x1="28" y1="0" x2="28" y2="56" gradientUnits="userSpaceOnUse"><stop stop-color="#0CA697"/><stop offset="1" stop-color="#042B4F"/></linearGradient></defs></svg>