<!-- by TradingView --><svg width="56" height="56" viewBox="0 0 56 56" xmlns="http://www.w3.org/2000/svg"><path fill="#F0F3FA" d="M0 0h56v56H0z"/><path d="M12.4 27.7c-.12-.1-.16-.24-.14-.42a2 2 0 0 0 0-.5c-.04-.18-.1-.19-.17-.03-.18.34-.25.72-.19 1.13a7.42 7.42 0 0 1 .08 1.07H12l.04.06.04.46c0 .15.05.38.14.68l.12.54c.04.3.1.57.17.78.4 1.17.89 2.27 1.47 3.3.31.55.82 1.3 1.52 2.26a15.65 15.65 0 0 0 5.88 4.41c.35.16.87.32 1.56.5l.69.17c.56.16 1.14.26 1.72.29 1.03.05 2.07.06 3.13 0a15.1 15.1 0 0 0 3.35-.54c.2-.06.43-.11.65-.15.22-.04.44-.1.65-.18.77-.28 1.54-.54 2.29-.78.13-.04.32-.13.57-.25l.35-.17c.4-.17.44-.12.1.16-.8.65-1.66 1.18-2.56 1.6-.9.4-1.93.72-3.08.95-.68.13-1.38.25-2.1.35-.34.05-.84.08-1.48.1l-.86.04c-.4.03-.8.01-1.18-.04l-.51-.06a7.79 7.79 0 0 1-1.3-.22 3.03 3.03 0 0 0-.54-.1 4.55 4.55 0 0 1-1.84-.64c-.16-.1-.57-.2-1.24-.3a14.1 14.1 0 0 1-3.8-2.75c.12-.02.17-.04.16-.07-.12-.21-.26-.41-.43-.6l-.5-.56c-.17-.26-.36-.5-.56-.74-.2-.26-.4-.52-.56-.8-.28-.46-.54-.9-.78-1.34-1-1.85-1.5-3.86-1.51-6.02a3 3 0 0 0-.1-.78c-.06-.2-.1-.4-.14-.59a1.9 1.9 0 0 1-.02-.61.68.68 0 0 0-.17-.52c-.2-.25-.3-.22-.28.1.03.33 0 .69-.05 1.06-.05-1.38.1-2.75.44-4.1.6-2.34 1.58-4.43 2.93-6.27a16.78 16.78 0 0 1 2.7-2.85 15.37 15.37 0 0 1 4.5-2.73c.03 0 .04 0 .05.02 0 .02 0 .04-.02.05a15.3 15.3 0 0 0-8.72 9.63c-.26.83-.43 1.82-.49 2.95a30.48 30.48 0 0 0 0 3.06Z" fill="#9DCE6E"/><path d="M43.55 31.33c-.17.15-.31.17-.43.06-.16-.16-.3-.26-.43-.32-.08-.04-.13-.08-.14-.12a.79.79 0 0 1-.03-.21c.64-.65 1.19-1.36 1.66-2.16.38-.64.63-1.29.76-1.95.13-.73.09-1.4-.13-2.02a.33.33 0 0 0-.16-.19.33.33 0 0 0-.24-.04c-.2.05-.42.05-.64.01-.09-.01-.24 0-.45.03l-.14.02c-.07 0-.14 0-.2-.03a.5.5 0 0 0-.43.02.1.1 0 0 0-.06.08c-.05.38-.01.74.1 1.11.02.06.02.12.01.18a7 7 0 0 0-.13 1.51c0 .2.07.22.19.07.23-.3.48-.56.77-.79h.06c.02.03.02.05 0 .06-.1.1-.21.24-.36.43-.22.28-.4.47-.54.58a.19.19 0 0 0-.08.14l-.2 2.74c-.08.23-.25.28-.53.16a.16.16 0 0 1-.1-.11l-.06-.34a4.36 4.36 0 0 0-.58-1.43c-.3-.4-.71-.66-1.26-.76-.08-.02-.13.01-.17.08-.06.1-.11.21-.16.33-.08.2-.06.4.05.63.1.2.24.36.43.5a.3.3 0 0 1 .1.13c.11.26.3.46.57.6.03.01.03.03.02.05l-.04.06c-.02.03-.05.04-.08.01-.24-.2-.52-.3-.82-.27-.07 0-.09-.02-.04-.08a.15.15 0 0 1 .14-.05c.03 0 .06 0 .08-.02a.12.12 0 0 0 .05-.08.15.15 0 0 0-.07-.16 1.18 1.18 0 0 1-.53-.73.28.28 0 0 0-.19-.2.3.3 0 0 1-.17-.16.24.24 0 0 0-.22-.13c-.1 0-.17.03-.22.11-.07.1-.16.14-.28.1a.12.12 0 0 0-.11.03.12.12 0 0 0-.05.1 6 6 0 0 1 0 .68c-.02.19.03.35.12.5l.31.55a2 2 0 0 0 .6.64c.23.17.5.3.78.4l.48.31c.12.08.19.18.22.3.03.13 0 .23-.08.32-.11.13-.2.1-.23-.1a.44.44 0 0 0-.17-.12 3.55 3.55 0 0 1-2.47-2.21c-.08-.23-.14-.5-.17-.81a10.8 10.8 0 0 1-.02-.86l-.02-.75a2.59 2.59 0 0 0-.18-.68c-.02-.07 0-.1.08-.1.32.03.64.03.95-.02.04 0 .07-.02.1-.05a.13.13 0 0 0 .02-.1 6.7 6.7 0 0 1 .26-2.82c.1-.32.22-.6.38-.86.18-.28.34-.56.47-.82a.55.55 0 0 0-.03-.55l-1.02-1.6c-.37-.58-.91-1.25-1.63-2.02a12.8 12.8 0 0 0-6.36-3.8 12.8 12.8 0 0 0-3.03-.47c-.94-.04-1.96.01-3.07.16-.86.11-1.76.35-2.7.71-.87.34-1.72.75-2.56 1.26a11.9 11.9 0 0 0-2.19 1.7 16.28 16.28 0 0 0-1.84 2.1v-.02a15.33 15.33 0 0 1 7.69-6.12 13.9 13.9 0 0 1 4.9-.84 14.51 14.51 0 0 1 9.16 3.33 13.95 13.95 0 0 1 3.74 4.53c.03.05.07.08.13.08.05 0 .1-.02.13-.07l.4-.63a.49.49 0 0 1 .1-.12c.05-.05.1-.04.15 0 .06.08.13.1.2.04l.42-.23a.17.17 0 0 1 .13-.02c.1.02.18.06.25.12.77.6 1.39 1.19 1.86 1.79a7.79 7.79 0 0 1 1.5 3.03 5.55 5.55 0 0 1-.19 3.33 7.65 7.65 0 0 1-.96 1.9c-.39.5-.76.98-1.13 1.43Z" fill="#6DB63D"/><path d="M31.97 14.52c-.27-.1-.53-.21-.77-.32-.1-.04-.1-.07 0-.08h.17c1.31.3 2.58.76 3.8 1.39a11.4 11.4 0 0 1 5.14 5.38.5.5 0 0 1-.1.57l-.1.11c-.18.18-.3.15-.38-.1-.14-.5-.33-.93-.56-1.3a11.66 11.66 0 0 0-3.43-3.56 21.67 21.67 0 0 0-3.77-2.09Z" fill="#A5D38A"/><path d="M21.74 18.77c-.1-.15-.17-.29-.2-.4a.41.41 0 0 0-.17-.26.5.5 0 0 0-.32-.1.6.6 0 0 1-.17-.01.34.34 0 0 1-.15-.09l-.32-.3c.4-.26.66-.42.79-.48a16.16 16.16 0 0 1 3.6-1.27c3.3-.66 6.37-.06 9.22 1.8 2 1.32 3.57 3.17 4.7 5.58.03.04.02.07-.03.1l-.04.01h-.03a8.4 8.4 0 0 0-1.4-2.24l-1.3-1.49c-.26-.28-.54-.5-.86-.67a26 26 0 0 1-.8-.45 11.93 11.93 0 0 0-11-.7c-.23.1-.74.42-1.52.96Z" fill="#9DCE6E"/><path d="m20.41 17.61.32.3c.04.05.1.07.15.09a.6.6 0 0 0 .18.02.5.5 0 0 1 .31.09c.1.07.15.15.17.26.03.11.1.25.2.4-.63.43-1.47 1.09-2.54 1.96-.16.14-.26.26-.31.37a.58.58 0 0 1-.21.27c-.11.07-.21.16-.3.25l-.45.47c-.16.16-.27.36-.32.58l-.2.75c-.08.25-.14.5-.17.75-.04.26-.1.64-.22 1.14-.1.5-.18.88-.21 1.14l-.25 1.63c.03-.25-.17-.45-.58-.59a.32.32 0 0 1-.14-.09c-.31-.33-.68-.49-1.1-.5.1-1.6.56-3.04 1.4-4.33a38.2 38.2 0 0 0 1.46-2.37c.2-.32.43-.61.7-.87.68-.63 1.38-1.2 2.11-1.72Z" fill="#E9F3CD"/><path d="M23.3 30.23v-.74c0-.07.03-.12.1-.14.06-.02.12 0 .16.05.06.08.09.17.07.28-.01.06 0 .12.05.16.2.2.32.44.36.71 0 .05.03.1.07.13.18.18.26.4.23.66-.01.1 0 .2.05.27a3.17 3.17 0 0 0 2.18 1.63c.62.13 1.22.1 1.8-.1.5-.14.9-.37 1.22-.69.05-.05.12-.15.2-.3.07-.14.14-.25.2-.31.04-.04.06-.1.06-.16v-.96a.2.2 0 0 0-.07-.15.22.22 0 0 1-.05-.22.1.1 0 0 0-.03-.1 1.15 1.15 0 0 0-.56-.33c-.16-.04-.3-.1-.42-.2-.56-.4-.87-.96-.94-1.7.01-.46.16-.9.44-1.3l.44-.63a.32.32 0 0 0 .06-.2.32.32 0 0 0-.07-.2 1.27 1.27 0 0 1-.28-.55.17.17 0 0 0-.1-.12.3.3 0 0 0-.09-.03.25.25 0 0 1-.18-.14l-.18-.37c-.03-.07-.08-.09-.15-.07-.05.02-.1 0-.14-.03-.05-.05-.06-.1-.03-.15.08-.18.04-.3-.14-.35a.13.13 0 0 1-.1-.11l-.08-.62a.15.15 0 0 0-.12-.14.15.15 0 0 0-.17.05c-.18.2-.29.4-.33.6-.35.5-.66.94-.92 1.35a.1.1 0 0 1-.07.04l-.02.01c-.07.06-.1.04-.09-.05v-.11l.73-1.11c.15-.23.34-.58.59-1.05l.3-.58c.05-.07.09-.07.13 0 .53.98 1.15 1.99 1.87 3.04.03.04.07.06.11.06.05 0 .1-.03.11-.07l.52-.92a.08.08 0 0 1 .07-.04c.04 0 .06.01.08.04.37.72.77 1.36 1.2 1.95.42.57.67 1.08.74 1.53a1.9 1.9 0 0 1-.47 1.56c-.09.1-.15.23-.2.38-.02.09-.05.23-.07.42a4.18 4.18 0 0 1-3.16 3.43 4 4 0 0 1-3.16-.58 4 4 0 0 1-1.75-2.73Z" fill="#928932"/><path d="M27.98 28.03c.03-.19-.05-.32-.23-.4a.18.18 0 0 1-.12-.14.77.77 0 0 0-.45-.59.84.84 0 0 1-.45-.48c-.08-.2-.1-.43-.04-.67a.4.4 0 0 1 .06-.15c.06-.08.09-.2.09-.36 0-.74-.03-1.27-.08-1.59.04-.2.15-.4.33-.6.05-.04.1-.06.17-.04.07.02.1.07.12.14l.08.62c0 .06.04.1.1.11.18.06.22.17.14.35-.03.06-.02.1.03.15.04.03.09.05.14.03.07-.02.12 0 .15.07l.18.37c.04.07.1.12.18.14l.1.03c.04.03.07.07.09.12.04.2.14.38.28.55.05.05.07.12.07.2 0 .07-.01.14-.06.2l-.44.63c-.28.4-.43.84-.44 1.3Z" fill="#DBCB6A"/><path d="M26.76 23.65c.05.32.08.85.08 1.6 0 .15-.03.27-.09.35a.4.4 0 0 0-.06.15c-.06.24-.04.46.04.67.09.22.24.38.45.48.25.11.4.3.45.6.02.06.05.1.12.13.18.08.26.21.23.4.07.73.38 1.3.94 1.7.12.08.26.15.42.19.22.05.4.16.56.32a.1.1 0 0 1 .03.1c-.03.1-.01.17.05.23a.2.2 0 0 1 .06.15l.01.96c0 .06-.02.12-.06.16a1.5 1.5 0 0 0-.2.31c-.08.15-.15.25-.2.3-.32.32-.73.55-1.21.69-.54.05-1.08.06-1.62.03-.12-.01-.25-.04-.37-.09l-.43-.14a.3.3 0 0 1-.2-.16.3.3 0 0 1 0-.26c.1-.23.27-.4.52-.51.06-.03.1-.08.1-.15v-.18c0-.05.01-.1.04-.15.24-.37.23-.74-.03-1.09a.27.27 0 0 1-.06-.15.4.4 0 0 0-.03-.13.32.32 0 0 0-.1-.15.55.55 0 0 1-.25-.38 3.28 3.28 0 0 0-.37-1.17.87.87 0 0 0-.38-.37 12.3 12.3 0 0 0-.47-.22.23.23 0 0 1-.12-.12.14.14 0 0 0-.1-.08.32.32 0 0 1-.23-.19c-.03-.06-.07-.07-.12-.02-.12.1-.25.17-.4.22l1.9-2.78v.11c0 .1.02.11.1.05a.1.1 0 0 0 .08-.05l.92-1.36Z" fill="#F3ECB0"/><path d="M42.52 30.74c-.05.12-.1.14-.17.07-.03-.04-.04-.13-.04-.27l.2-2.74c.01-.06.04-.1.08-.14.15-.1.32-.3.54-.58.15-.2.27-.34.36-.43.02-.01.02-.03 0-.05-.02-.02-.04-.02-.06 0-.29.22-.54.49-.77.78-.12.15-.19.13-.19-.07a7 7 0 0 1 .13-1.5.38.38 0 0 0 0-.19 2.59 2.59 0 0 1-.11-1.1.1.1 0 0 1 .06-.09.5.5 0 0 1 .42-.02c.07.03.14.04.21.03l.14-.02c.2-.04.36-.04.45-.03.22.04.43.04.64 0a.33.33 0 0 1 .4.22c.22.61.26 1.29.13 2.02a5.9 5.9 0 0 1-.76 1.95c-.47.8-1.02 1.51-1.66 2.16ZM40.95 25.86l-.03.05c-.02.05 0 .08.04.1.45.24.85.5 1.2.76.07.05.1.12.1.2.03.52 0 1.06-.1 1.61 0 .03-.01.04-.03.05a.06.06 0 0 1-.06 0 6.02 6.02 0 0 1-1.45-.97.2.2 0 0 0-.16-.06.19.19 0 0 1-.15-.05.63.63 0 0 0-.59-.16c-.04.01-.1 0-.13-.03a.18.18 0 0 1-.08-.11c-.12-.6-.16-1.2-.12-1.82 0-.05.03-.08.08-.08.1-.01.2 0 .3.02a.4.4 0 0 0 .18 0l.53-.09c.16-.02.31-.05.47-.1.35-.13.74-.19 1.17-.19.05 0 .07.02.08.06.08.47.12.93.11 1.37 0 .08-.03.1-.1.06l-1.2-.64c-.03-.02-.05 0-.06.02Z" fill="#A5D38A"/><path d="M31.36 29.22c.04-.34-.1-.58-.43-.72a.12.12 0 0 1-.08-.12v-.73a.33.33 0 0 0-.04-.16.97.97 0 0 1-.13-.35.54.54 0 0 0-.14-.3.53.53 0 0 0-.29-.16 1.33 1.33 0 0 1-.5-.22.13.13 0 0 1-.06-.14c.03-.32 0-.63-.1-.92.02-.1.08-.19.19-.26.06-.04.1-.03.1.04l.07.4c0 .02 0 .02.02.02H30c.04 0 .05-.03.04-.06a.3.3 0 0 1 .05-.22c.04-.06.09-.07.14-.04.15.07.28.17.4.3l.3.36c.1.16.19.27.25.34a1 1 0 0 1 .19.3l.09.32.08.3c.04.12.07.26.07.41.02.56-.06 1.1-.26 1.61Z" fill="#CDB715"/><path d="M29.6 25.4c.1.3.12.6.09.92-.01.06 0 .1.05.14.15.1.32.18.51.22.11.03.21.08.29.16.08.09.13.19.14.3.02.13.06.24.13.35.03.05.04.1.04.16v.73c0 .06.03.1.08.12.32.14.47.38.43.72l-.21.32a.26.26 0 0 1-.13.1c-.37.13-.64.2-.83.22-.28.04-.57-.01-.87-.13-.5-.2-.7-.56-.62-1.06.03-.16.11-.3.25-.43a.3.3 0 0 0 .1-.25l-.04-.53a.14.14 0 0 0-.06-.1.77.77 0 0 1-.33-.58c0-.06.01-.12.05-.17l.92-1.21Z" fill="#DBCB6A"/><path d="M15.95 39.42a17.12 17.12 0 0 1-3.6-5.24 15.47 15.47 0 0 1-1.34-6.23c.06-.37.08-.73.05-1.06-.02-.32.07-.35.28-.1.13.16.19.34.17.52-.03.21-.02.41.02.61.03.2.08.39.14.59.06.25.1.5.1.78 0 2.16.5 4.17 1.51 6.02l.78 1.35c.17.27.35.53.56.79.2.24.39.48.57.74.06.09.23.28.5.57.16.18.3.38.42.59.01.03-.04.05-.16.07Z" fill="#7BBD2C"/><path d="M12.4 27.7a15.5 15.5 0 0 0 3.2 8.08 17.92 17.92 0 0 0 3.5 3.32c.98.72 1.93 1.27 2.87 1.65 2.7 1.1 5.48 1.46 8.33 1.09a7.26 7.26 0 0 0 2-.57 14.34 14.34 0 0 0 7.97-8.77c.04.2.12.24.23.11.08-.09.1-.2.08-.32a.47.47 0 0 0-.22-.3l-.48-.3.45.14.52.18c.06.02.1.06.1.12.02.13.07.25.15.35.06.06.08.14.06.22-.04.2-.06.41-.08.63-.02.17-.07.35-.15.53a14.13 14.13 0 0 1-4.33 5.4l.03.04c.01.02.03.02.05 0a16.85 16.85 0 0 0 4.92-5.52.52.52 0 0 1 .57-.26c.21.05.39 0 .53-.12.12-.12.2-.12.24 0a16.22 16.22 0 0 1-4.83 6.71 16.7 16.7 0 0 1-7.43 3.56c-1.34.27-2.82.37-4.45.31a15.39 15.39 0 0 1-6.48-1.8c.67.1 1.08.2 1.24.29.62.36 1.23.58 1.84.64.19.02.37.05.55.1.27.09.7.16 1.29.22l.51.06c.38.05.77.07 1.18.04l.86-.04c.64-.02 1.14-.05 1.47-.1.73-.1 1.43-.22 2.1-.35 1.16-.23 2.19-.54 3.1-.96.9-.4 1.74-.94 2.54-1.59.35-.28.31-.33-.1-.16l-.34.17-.57.25c-.75.24-1.52.5-2.3.78-.2.08-.42.14-.64.18-.22.04-.44.09-.65.15-1.13.31-2.25.5-3.35.55-1.06.05-2.1.04-3.13-.01a7.84 7.84 0 0 1-1.72-.29l-.69-.18c-.69-.17-1.21-.33-1.56-.49a14.46 14.46 0 0 1-3.7-2.23 15.65 15.65 0 0 1-2.18-2.18c-.7-.96-1.2-1.7-1.52-2.26a19.35 19.35 0 0 1-1.47-3.3 3.99 3.99 0 0 1-.17-.78l-.12-.54c-.09-.3-.13-.53-.14-.68 0-.16-.02-.32-.04-.46a.06.06 0 0 0-.04-.05h-.02l-.01-.02c0-.34-.02-.7-.07-1.06-.06-.41 0-.79.19-1.13.08-.16.13-.15.16.03a2 2 0 0 1 0 .5c-.01.18.03.33.14.43Z" fill="#7BBD2C"/><path d="m16.56 28.07.1 2.54-1.33-.49c-.06-.02-.1 0-.13.04l-.16.2c-.2-1.1-.3-2.25-.3-3.45.42 0 .79.16 1.1.5.04.03.08.06.14.08.41.14.6.34.58.58Z" fill="#BEDDA6"/><path d="M28.38 33.14c-.59.2-1.19.23-1.81.1a3.17 3.17 0 0 1-2.18-1.63.43.43 0 0 1-.05-.27.76.76 0 0 0-.23-.66.23.23 0 0 1-.07-.13 1.26 1.26 0 0 0-.36-.7.18.18 0 0 1-.05-.17c.02-.1 0-.2-.07-.28-.04-.06-.1-.07-.17-.05a.14.14 0 0 0-.1.14v.74c-.12-.87.03-1.72.47-2.55.15-.05.28-.12.4-.22.05-.05.09-.04.12.02.04.1.12.17.24.2.04 0 .07.03.1.07.02.06.06.1.11.12l.47.22c.16.09.3.2.38.37.2.36.32.75.37 1.17.02.15.1.28.24.38.05.04.09.09.11.15.02.04.03.09.03.13 0 .06.03.1.06.15.26.35.27.72.03 1.09a.27.27 0 0 0-.04.15v.18c0 .07-.04.12-.1.15a.93.93 0 0 0-.52.51.3.3 0 0 0 0 .26c.05.08.11.13.2.16l.43.14c.12.05.25.08.37.09a9.9 9.9 0 0 0 1.62-.03Z" fill="#DBCB6A"/><path d="M41.62 30.25v.15c-.01.06-.04.07-.09.03a.25.25 0 0 0-.3-.06c-.1.04-.2.06-.3.06a.16.16 0 0 0-.16.1.17.17 0 0 0 .02.19c.13.16.24.34.34.55.05.1.03.11-.04.04-.23-.2-.44-.22-.64-.05a.3.3 0 0 1-.15.06.5.5 0 0 1-.2 0c-.06-.01-.1.01-.12.08l-.02.1c-.01.06 0 .11.07.15l.3.18-.45-.14c-.29-.1-.55-.24-.78-.41a2 2 0 0 1-.6-.64l-.3-.54a.83.83 0 0 1-.13-.5 6 6 0 0 0 0-.68c0-.05.02-.08.05-.1a.12.12 0 0 1 .1-.03c.13.03.22 0 .29-.1a.24.24 0 0 1 .22-.12c.1 0 .17.05.22.13.04.08.1.13.17.15.1.04.17.1.2.21.07.3.24.54.52.73.06.04.09.1.07.16 0 .03-.02.06-.05.08a.11.11 0 0 1-.08.02c-.06 0-.1.01-.14.05-.05.06-.03.09.04.08.3-.03.58.06.82.27.03.03.06.02.08-.01l.04-.06c.01-.02 0-.04-.02-.05a1.11 1.11 0 0 1-.56-.6.3.3 0 0 0-.11-.14c-.19-.13-.33-.3-.43-.49-.11-.23-.13-.44-.05-.63l.16-.33c.04-.07.1-.1.17-.08.55.1.97.35 1.26.76.22.3.41.78.58 1.43Z" fill="#A5D38A"/><path d="M41.86 28.81s0-.02.02-.02h.01c.06-.01.13.02.19.1.05.06.1.16.11.27l.01.05a.6.6 0 0 1-.01.3c-.04.1-.08.15-.15.16-.02 0-.03 0-.03-.02l-.15-.84Z" fill="#BEDDA6"/><path d="M16.67 30.6c.13.53.26 1 .39 1.43.43 1.44 1.07 2.69 1.9 3.73.68.86 1.33 1.54 1.93 2.05a11.97 11.97 0 0 0 2.8 1.67 11.83 11.83 0 0 0 4.92.8v.03-.01l-1.53.06c-.47.02-.94 0-1.42-.1-1.04-.2-1.93-.43-2.66-.7-.85-.32-1.74-.77-2.66-1.35a11.42 11.42 0 0 1-2.98-2.76 13.47 13.47 0 0 1-1.95-3.6c-.17-.47-.3-.97-.37-1.48l.16-.2c.03-.05.07-.07.13-.05l1.34.49Z" fill="#9DCE6E"/><path d="m41.62 30.25.07.34c0 .05.04.1.1.11.27.12.44.07.52-.16 0 .14.01.23.04.27.07.07.12.05.17-.07 0 .08.01.15.03.2.01.05.06.1.14.13.13.06.27.16.43.32.12.11.26.1.43-.06a8.69 8.69 0 0 1-.61 2.06c-.04-.11-.12-.11-.24 0-.14.13-.32.18-.53.13a.52.52 0 0 0-.57.26 16.85 16.85 0 0 1-4.92 5.53c-.02.01-.04.01-.05-.01l-.03-.04v-.01a14.13 14.13 0 0 0 4.33-5.4c.08-.17.13-.35.15-.52.02-.22.04-.43.08-.63a.26.26 0 0 0-.06-.22.65.65 0 0 1-.14-.35c-.01-.06-.05-.1-.1-.12l-.53-.18-.3-.18c-.06-.04-.08-.09-.07-.16l.02-.09c.01-.07.06-.1.12-.08a.5.5 0 0 0 .2 0 .3.3 0 0 0 .15-.06c.2-.17.41-.16.64.05.07.07.09.06.04-.04-.1-.2-.21-.4-.34-.55a.17.17 0 0 1-.02-.19c.04-.06.09-.1.16-.1.1 0 .2-.02.3-.06a.25.25 0 0 1 .3.06c.05.04.08.03.1-.03a.37.37 0 0 0 0-.15Z" fill="#BEDDA6"/></svg>