<!-- by TradingView --><svg width="56" height="56" viewBox="0 0 56 56" xmlns="http://www.w3.org/2000/svg"><path fill="#71BF45" d="M0 0h56v56H0z"/><path fill-rule="evenodd" d="M33.69 13.28c-.08.73-.07 1.84.15 3.04h2.9l-3.05-3.04Zm.22 3.39c.08.36.17.73.3 1.09h3.96l-1.1-1.09h-3.16Zm.42 1.43c.13.34.28.68.46 1h4.72l-1-1h-4.18Zm.66 1.35a6.84 6.84 0 0 0 .77 1.04h5.14l-1.04-1.04h-4.87Zm1.08 1.38c.38.42.77.8 1.16 1.13h5.14l-1.13-1.13h-5.17Zm1.6 1.47c1.78 1.32 3.64 1.64 5.18.14l-.14-.14h-5.04Zm5.34-6.05c1.67 1.93 1.46 3.81.99 4.86v3.5l2.38-2.27.18-.17 1.38-1.3c-.13.67-.46 1.23-1.06 1.41L44 25.02V37H8v-9h2.89c.5 0 1.11.46 1.11.96v1.25c0 .5-.6.79-1.11.79H9v5h34V16.25Zm-.35-.38a12.87 12.87 0 0 0-.99-.9v5.6l1 .99v-5.69Zm-1.33-1.17a9 9 0 0 0-1.1-.7v5.13l1.1 1.1V14.7Zm-1.44-.88a7.6 7.6 0 0 0-1.09-.43v4.31l1.1 1.09v-4.97Zm-1.43-.52c-.36-.1-.72-.16-1.09-.2v3.17l1.09 1.09V13.3Zm-1.43-.24c-.92-.09-1.87-.06-2.9-.03l2.9 2.9v-2.87ZM11 29H9v1h2v-1Zm8-1v5h1v-2h2.15c.47 0 .85-.33.85-.84v-1.24c0-.51-.38-.92-.85-.92H19Zm3 1h-2v1h2v-1Zm-9 .08c0-.6.48-1.08 1.07-1.08h2.86c.59 0 1.07.48 1.07 1.08v2.84c0 .6-.48 1.08-1.07 1.08h-2.86c-.59 0-1.07-.48-1.07-1.08v-2.84Zm1-.08h3v3h-3v-3Zm10 3.18V28h1v4h2v-4h1v4.18c0 .45-.34.82-.76.82h-2.48c-.42 0-.76-.37-.76-.82Zm6-.18h2v1h-2.07c-.51 0-.93-.37-.93-.82V28h1v4Zm7 1v-4.18c0-.45-.34-.82-.76-.82h-2.48c-.42 0-.76.37-.76.82V33h1v-2h2v2h1Zm-1-4v1h-2v-1h2Zm2-1v5h1v-2h.33l1.5 2H42l-1.45-2h.6c.46 0 .84-.33.84-.84v-1.24c0-.51-.38-.92-.84-.92H38Zm3 1h-2v1h2v-1Zm4.7-10.39c.22-.26.45-.47.64-.61v1.2l-.63-.59Zm-.29.43.18-.27.75.71v.43l-.93-.87Zm-.2.45.11-.27 1.02.97v.37l-1.13-1.07Zm-.11.53c0-.1.02-.21.05-.32l1.19 1.13v.36l-1.24-1.17Zm0 .72a7.1 7.1 0 0 1-.01-.46l1.25 1.18v.44l-1.23-1.16Zm1.24 1.6c-.76-.04-1.09-.5-1.2-1.3l1.2 1.13v.17ZM48 20.19c0 .12 0 .24-.02.36l-1.38 1.3v-.43L48 20.1v.1Zm-.13-.6.09.28-1.36 1.28v-.37l1.27-1.19Zm-.23-.42.14.23-1.18 1.11v-.37l1.04-.97Zm-.31-.42.2.25-.93.87v-.43l.73-.69Zm-.73-.72c.18.15.4.35.6.57l-.6.57v-1.14Z" fill="#fff"/></svg>