<!-- by TradingView --><svg width="56" height="56" viewBox="0 0 56 56" xmlns="http://www.w3.org/2000/svg"><path fill="#253746" d="M0 0h56v56H0z"/><path d="M18.97 22.72c.4-4.56-1.97-5.94-1.97-5.94s.56 1.93.15 6.9c-.28 3.38 1 6 1.73 7.63.1.23.46.05.4-.19-.67-2.4-.65-4.62-.31-8.4ZM30.37 44.3c3.11-2.7 7.55-10.75 7.63-16.85-.72.2-2.15.93-2.68 3.18-.3 1.3-1.15 4.36-4.3 4.1-4.36-.37-3.73-8.2 3.1-7.5 3.23.34 3.75-1.87 3.75-2.16-.7.3-1.77.18-2.77.06-6.16-.7-9.11 2.65-9.11 6.47 0 2.3 1.57 4.22 3.34 5.3.94.57.26 1.12-.44.64-1.86-1.27-4.03-2.96-4.03-6.56 0-6 6.44-8.6 7.96-9.68 2.24-1.59 3.33-2.9 2.78-5.25-.89 1.56-3.07 2.92-4.7 3.74-4.4 2.22-7.85 5.46-7.85 10.22 0 3.74 1.72 5.8 3.8 7.38.47.36-.03.87-.63.4-3.3-2.52-4.4-5.33-4.4-8.93 0-6.8 9.03-12.96 4.97-17.86.06 5-6.75 9.38-6.75 17.65 0 3.72 1.57 7.41 5.95 10.33 2.58 1.72 2.94 3.69 2.57 5.47-.17.96 1.05.5 1.8-.15Z" fill="#FF4612"/></svg>