<!-- by TradingView --><svg width="56" height="56" viewBox="0 0 56 56" xmlns="http://www.w3.org/2000/svg"><path fill="#F0F3FA" d="M0 0h56v56H0z"/><path fill-rule="evenodd" d="M4 25v6h1v-2.03h1.05c.42 0 .78-.08 1.07-.25.29-.17.5-.4.66-.7.15-.3.22-.65.22-1.03s-.07-.72-.22-1.02c-.15-.3-.37-.54-.66-.71A2.03 2.03 0 0 0 6.06 25H4Zm1 3.08h.91c.25 0 .45-.05.61-.14.16-.1.27-.22.35-.39.08-.16.12-.35.12-.56 0-.22-.04-.4-.12-.57a.82.82 0 0 0-.35-.37 1.2 1.2 0 0 0-.61-.14H5v2.17ZM9 31v-6h2.13c.43 0 .8.08 1.1.24.29.16.51.39.66.67.16.3.23.63.23 1 0 .4-.07.73-.23 1.01a1.57 1.57 0 0 1-.79.7L13.33 31H12.2l-1.12-2.2h-1.04V31H9Zm1.97-3.1h-.94v-2h.94c.25 0 .46.05.63.13.16.08.28.2.36.34.08.15.12.34.12.55 0 .21-.04.4-.12.54a.76.76 0 0 1-.36.33c-.16.07-.37.11-.63.11Zm2.74 3.1h1.1l.47-1.48h2.13l.47 1.48h1.1l-2-6H15.7l-2 6Zm3.42-2.35-.76-2.42h-.05l-.76 2.42h1.57ZM20 31v-6h2.17c.4 0 .75.07 1.02.2.27.14.48.32.61.56.14.23.2.5.2.8 0 .24-.04.45-.13.62-.08.17-.2.31-.35.42-.15.1-.32.19-.5.23v.06a1.33 1.33 0 0 1 1.03.7c.12.21.18.47.18.78a1.48 1.48 0 0 1-.86 1.42c-.28.14-.64.21-1.08.21H20Zm1.03-.9h1.1c.37 0 .64-.08.8-.23a.76.76 0 0 0 .25-.59.94.94 0 0 0-.12-.48.88.88 0 0 0-.35-.34 1.12 1.12 0 0 0-.55-.13h-1.13v1.76Zm0-2.55h1.01c.18 0 .34-.03.48-.1a.82.82 0 0 0 .34-.3.83.83 0 0 0 .12-.45.77.77 0 0 0-.23-.58c-.16-.15-.38-.22-.69-.22h-1.03v1.65ZM25 25v6h1v-2.55h3V31h1v-6h-1v2.54h-3V25h-1Zm6 6v-6h1v2.54h3V25h1v6h-1v-2.55h-3V31h-1Zm5.07 0h1.1l.47-1.48h2.13l.47 1.48h1.1l-2-6h-1.27l-2 6Zm3.42-2.35-.77-2.42h-.04l-.77 2.42h1.58ZM47 25v6h-.98l-2.87-4.09H43V31h-1v-6h.99l2.86 4.09H46V25h1Zm3.93 1.68a.78.78 0 0 0-.32-.58c-.2-.14-.44-.2-.74-.2-.22 0-.4.03-.55.1a.82.82 0 0 0-.36.26.67.67 0 0 0-.04.71c.06.09.13.17.22.23a3.3 3.3 0 0 0 .66.26l.53.13c.22.06.42.12.62.21s.38.2.54.33c.15.14.28.3.37.48.1.2.14.41.14.66 0 .35-.08.65-.25.9a1.7 1.7 0 0 1-.74.61c-.32.15-.7.22-1.16.22-.44 0-.82-.07-1.15-.21a1.72 1.72 0 0 1-.76-.62c-.18-.27-.28-.6-.29-.98h1.01a.9.9 0 0 0 .6.8c.17.07.37.1.58.1.22 0 .42-.03.59-.1.17-.07.3-.16.4-.29.1-.12.14-.27.14-.43a.57.57 0 0 0-.13-.38.95.95 0 0 0-.35-.25 3.38 3.38 0 0 0-.53-.18l-.65-.17a2.57 2.57 0 0 1-1.1-.56c-.28-.26-.41-.6-.41-1.01 0-.34.09-.64.27-.9.18-.26.43-.46.74-.6.32-.15.67-.22 1.07-.22s.75.07 1.06.22c.3.14.54.34.71.6.18.24.27.53.27.86h-.99Z"/></svg>