<!-- by TradingView --><svg width="56" height="56" viewBox="0 0 56 56" xmlns="http://www.w3.org/2000/svg"><path fill="#F0F3FA" d="M0 0h56v56H0z"/><path d="M12.47 22h4.12l.75-4h3.15l-.72 4h3.33c.73 0 2.62-.67 2.62-2.8 0-1.71-.96-2.18-1.44-2.2h-6.76l.38-2h8.36c.91.05 2.74.78 2.74 3.32C29 21.5 26.91 24 23.23 24h-3.86l-1.3 6h-3.06l1.14-6H12l.47-2Z" fill="#396F58"/><path d="m20.16 25-.72 4h4.01l.08-.26c.5-1.31 1.88-2.04 3.1-1.62 1.21.41 1.8 1.82 1.3 3.14-.49 1.31-1.87 2.04-3.09 1.62a2.13 2.13 0 0 1-1.1-.88h-8.96l-.45 2h4.39l-1.26 7h8.15c3.3 0 5.3-2.98 5.3-5.12 0-1.71-1.02-2.63-1.53-2.87.75-.53 2.23-1.99 2.23-3.63 0-2.64-2.23-3.35-3.35-3.38h-8.1Zm1.66 8h4.16c.64 0 1.76.37 1.62 2.22-.2 2.45-1.77 2.78-2.7 2.78h-3.85l.77-5Z" fill="#FA4238"/><path d="M34.4 35h-3.33c-.44 3.04 1.19 5 5.57 5 4.39 0 7.65-1.97 7.65-5.37 0-3.4-3.42-3.78-6.83-4.4-3.4-.64-1.8-3.23 1.47-3.23 2.61 0 2.85 1.2 2.64 2h3.3c.68-3.09-1.49-5-5.17-5-3.69 0-7.25 2.66-7.25 5.66s5.22 3.87 6.32 4.16c1.1.3 2.24.65 2.24 1.53 0 .87-.8 2.21-4.02 2.21-2.57 0-2.8-1.71-2.58-2.56Z" fill="#396F58"/></svg>