<!-- by TradingView --><svg width="56" height="56" viewBox="0 0 56 56" xmlns="http://www.w3.org/2000/svg"><path fill="#F0F3FA" d="M0 0h56v56H0z"/><path d="M4 32v-8h3.7c1.27 0 2.3 1.07 2.3 2.39S8.97 29 7.7 29H6v3H4Zm3.1-6.5H6v2h1.1c.5 0 .9-.45.9-1s-.4-1-.9-1Z" fill="#D02023"/><path d="M12 24v8h2v-3h.94c.21.18.47.49.7.94.37.76.68 1.72.8 2.06h2.06l-1.17-2.62c-.07-.2-.26-.49-.55-.71a2.84 2.84 0 0 0 1.22-2.3c0-1.31-1.03-2.37-2.3-2.37H12Zm2 1.5h1.1c.5 0 .9.45.9 1s-.4 1-.9 1H14v-2Z" fill="#EA5D1E"/><path fill-rule="evenodd" d="M19.5 32h1.92l.56-1.5h3.43l.58 1.5H28l-3.32-8h-1.99l-3.19 8Zm5.32-3-1.16-2.97L22.54 29h2.28Z" fill="#E19F10"/><path d="m31.38 32-3.67-8h2.06l1.81 4.36h.31L33.55 24h2.16l-3.53 8h-.8Z" fill="#96A620"/><path d="M37 32v-8h6v1.5h-4V27h3v1.5h-3v2h4V32h-6Z" fill="#2A7469"/><path d="M52 24.63a5.03 5.03 0 0 0-2.55-.63C46.63 24 45 25.8 45 28s1.4 4 4.45 4c.95 0 1.83-.27 2.55-.72V28h-3v1.5h1.5v.89a2.9 2.9 0 0 1-.8.11c-1.85 0-2.7-1.12-2.7-2.5s1-2.5 2.7-2.5c1.07 0 1.86.44 2.3 1.1v-1.97Z" fill="#233476"/></svg>