<!-- by TradingView --><svg width="56" height="56" viewBox="0 0 56 56" xmlns="http://www.w3.org/2000/svg"><path fill="#F0F3FA" d="M0 0h56v56H0z"/><path opacity=".2" d="M28.94 35H4.66l.8-3.58c.62-1.3 2.95-4.5 7.25-6.84C17.02 22.24 24.02 21.22 27 21h24.5a29.37 29.37 0 0 1-3 6.42c-2.06 3.27-4.09 3.85-9.4 5.66A38.35 38.35 0 0 1 28.94 35Z" fill="#3B6BA6"/><path d="M4.74 35H4c2.72-12.08 15.24-13.54 23-14v.75c-3.38.53-19.17 0-22.26 13.25ZM51.26 21H52c-2.72 12.08-15.24 13.54-23 14v-.75c3.38-.53 19.17 0 22.26-13.25Z" fill="#376EBC"/><path fill-rule="evenodd" d="M28.67 25h.93l-.26 1.47h-.93l.26-1.47Zm.64 2h-.92l-.7 4h.92l.7-4ZM13 31l1.02-5h2.21c.37.03 1.11.35 1.11 1.36 0 1.27-1.19 1.67-1.71 1.67h-1.27L14.02 31H13Zm1.47-2.72.25-1.46h1.15c.18 0 .52.15.52.68 0 .65-.76.78-.96.78h-.96ZM17.45 31l.74-4h.8l-.13.8c.22-.33.63-.8 1.05-.8.23 0 .35.07.39.1l-.32.85c-.28-.1-.93 0-1.33 1.12L18.33 31h-.88Zm5.97-1.68h-2.26c0 .47.13.96.63.96.4 0 .68-.37.76-.55l.79.2c-.14.36-.62 1.07-1.5 1.07-1.1 0-1.56-.76-1.56-1.61 0-.85.38-2.39 1.81-2.39 1.41 0 1.41 1.35 1.41 1.66v.01c0 .24-.05.53-.08.65Zm-.75-.64h-1.43c.04-.33.25-.98.81-.98.59 0 .65.65.62.98Zm4.43.97-.88-.2c-.1.29-.35.75-.8.75-.45 0-.56-.7-.42-1.27.14-.57.35-1.2.9-1.2.45 0 .6.43.6.64l.86-.1c-.1-1-.81-1.27-1.34-1.27-.52 0-1.97.41-1.97 2.23 0 1.45.91 1.79 1.37 1.77 1.1 0 1.58-.9 1.68-1.35ZM35.25 25h-.93l-.26 1.47h.92l.27-1.47Zm-1.21 2h.93l-.7 4h-.93l.7-4Zm-1.08.96c-.05-.32-.4-.96-1.43-.96-1.3 0-1.59.79-1.59 1.26s.38.83.9 1.03l.32.1c.36.13.6.2.6.43 0 .29-.1.45-.67.45a.74.74 0 0 1-.72-.56l-.95.16c.1.37.57 1.13 1.67 1.13 1.37 0 1.6-.88 1.6-1.44 0-.55-.86-.9-1-.97a2.38 2.38 0 0 0-.12-.04c-.24-.08-.72-.25-.72-.48 0-.28.24-.38.58-.38.34 0 .58.23.69.5l.84-.23Zm3.23 2.84c.85.48 1.97.06 2.5-.94.54-1 .29-2.19-.56-2.66-.84-.48-1.96-.06-2.5.94-.53 1-.28 2.19.56 2.66Zm.39-.8c.38.34.95.15 1.27-.4.33-.56.28-1.28-.1-1.6-.38-.34-.95-.15-1.28.4-.32.56-.28 1.28.1 1.6Zm3.53-3-.7 4h.9l.42-2.36c.11-.3.46-.92.93-.92.46 0 .45.53.38.8L41.6 31h.9l.5-2.84c.04-.39-.08-1.16-.86-1.16-.54 0-1.03.4-1.2.6h-.08l.08-.6h-.82Z" fill="#E82329"/></svg>