<!-- by TradingView --><svg width="56" height="56" viewBox="0 0 56 56" xmlns="http://www.w3.org/2000/svg"><path fill="#F0F3FA" d="M0 0h56v56H0z"/><path d="m32.49 16.02.33 4.33c-.06 0-.1.02-.12.04-.22.2-.43.41-.64.63a.27.27 0 0 0-.07.12c-.38 1.34-.79 2.71-1.21 4.1l-.32 1.12c-.09.35-.11.64-.08.86.06.3.23.5.51.63a2.74 2.74 0 0 0 1.08.22c.43-.03.7-.23.8-.59.22-.75.42-1.48.6-2.2.02-.06.05-.06.07-.01l.14.22c.02.05.03.1.02.15l-.14.57c-.05.2-.05.4 0 .61.04.17.13.36.26.59.16.26.33.43.53.52.17.08.42.11.74.1.61 0 1.18 0 1.71.02.3 0 .52-.07.68-.24.12-.13.23-.34.32-.64.02-.07.04-.07.05 0l.36 1.55L20.3 30.4c.02-.18.06-.37.1-.54.07-.19.11-.37.15-.54.1-.44.28-.87.55-1.3h.78c.23 0 .39-.02.49-.07a.7.7 0 0 0 .28-.25 2 2 0 0 0 .15-.33l.09-.2c.13.35.36.57.7.66.27.07.52.1.76.07.31-.04.52-.16.64-.35.05-.09.1-.18.13-.27.03-.08.06-.08.08 0 .05.17.15.3.3.37a2.23 2.23 0 0 0 .89.26c.37.03.65-.07.83-.28.24-.27.45-.6.63-.99.07-.14.1-.13.08.02a4.64 4.64 0 0 1-.03.47c0 .09 0 .17.02.23.05.16.17.28.37.38a2.04 2.04 0 0 0 .97.18c.18-.02.35-.06.49-.13a.81.81 0 0 0 .36-.33c.07-.13.12-.27.14-.42l.64-5.1a.87.87 0 0 0-.12-.58c-.1-.15-.23-.27-.42-.36a2.55 2.55 0 0 0-1.18-.19c-.33.03-.6.2-.8.5-.35.57-.67 1.12-.95 1.67a.23.23 0 0 1-.09.09h-.03a19.6 19.6 0 0 0-.04-1.26.9.9 0 0 0-.34-.71 1.83 1.83 0 0 0-.78-.29 1.96 1.96 0 0 0-.88 0c-.3.1-.5.29-.6.6A85.72 85.72 0 0 0 23 26.44a1.7 1.7 0 0 1-.05-.17l-.08-.22a.43.43 0 0 0-.19-.18 1.6 1.6 0 0 0-.68-.15 6.07 6.07 0 0 0-.75.04c-.02 0-.03 0-.03-.03v-.03c0-.02 0-.03.03-.02.52.03.95.04 1.3.03.28-.01.48-.14.62-.38a3.28 3.28 0 0 0 .38-1.18c0-.24-.04-.42-.14-.55-.12-.16-.32-.24-.6-.23-.32 0-.61-.01-.87-.03-.03 0-.05-.03-.06-.06v-.05c-.01-.06.02-.08.07-.08.38 0 .77.02 1.15.05.36.03.63-.1.82-.4.07-.1.14-.25.19-.43a6.7 6.7 0 0 0 .17-.68c.09-.35.02-.62-.2-.8-.18-.15-.45-.22-.82-.22H20.62l-.4.01a.9.9 0 0 0-.35.1.99.99 0 0 0-.38.44 3.47 3.47 0 0 0-.26.79c-.02.06-.04.06-.06 0-.18-.38-.5-.7-.94-.94a.09.09 0 0 1-.05-.09c.02-.43.08-.86.18-1.28a3.9 3.9 0 0 1 .88-1.72c.45-.51 1-.86 1.63-1.04.25-.08.88-.15 1.9-.24 3.81-.3 6.84-.54 9.1-.7.15-.02.36-.01.62.01Z" fill="#FFE400"/><path d="M32.49 16.02a3.48 3.48 0 0 1 2.82 1.93c.19.36.34.78.45 1.26l.35 1.41c0 .04 0 .06-.05.06-.29 0-.6 0-.95.02a.83.83 0 0 0-.8.57c0 .02-.02.03-.04.03-.01 0-.03 0-.03-.02a1.05 1.05 0 0 0-.6-.43 2.38 2.38 0 0 0-.74-.12c-.05 0-.06-.02-.06-.06l.04-.26c0-.03 0-.04-.03-.05h-.03l-.33-4.34Z" fill="#FFD000"/><path d="m19.8 23.6.3-.93c0-.02 0-.04-.02-.06a.06.06 0 0 0-.06-.02.68.68 0 0 1-.33 0c-.12-.04-.16-.12-.12-.26l.27-.9c.09-.28.28-.43.58-.43h2.88c.14 0 .28.03.43.09.05.02.1.05.12.1.02.04.03.1.02.15v.06c-.06.33-.12.6-.19.77-.12.33-.27.5-.45.5a45.45 45.45 0 0 1-2.03-.1.12.12 0 0 0-.1.07.11.11 0 0 0 0 .12c.05.08.12.14.21.18a.22.22 0 0 1 .14.22l-.04.4c0 .03 0 .06.03.09.02.02.05.03.08.03l1.39.03c.04 0 .07 0 .1.03.04.02.06.05.07.09.05.14.04.34-.04.6-.07.2-.15.39-.25.57-.07.13-.18.2-.34.19-.5 0-1-.02-1.49-.04-.04 0-.07 0-.1.03a.14.14 0 0 0-.05.08l-.15.67c0 .05.01.07.07.07h1.48c.12 0 .2.13.26.2.05.07.07.16.05.28-.02.25-.07.45-.13.62-.1.26-.25.4-.42.4-1.06 0-1.79 0-2.17-.02a.52.52 0 0 1-.26-.08.62.62 0 0 1-.2-.2 2.79 2.79 0 0 1-.25-.48.94.94 0 0 1-.03-.55l.23-.86a.1.1 0 0 0-.02-.1.5.5 0 0 0-.13-.1.21.21 0 0 1-.12-.22c.03-.39.13-.75.31-1.07.04-.08.1-.12.19-.13l.22-.03c.03 0 .06-.03.07-.06ZM35.56 26h1.46c.09 0 .16.09.23.13.08.05.12.12.11.2 0 .4-.1.72-.25.97a.37.37 0 0 1-.18.15.57.57 0 0 1-.24.04c-.66-.02-1.3-.03-1.91-.01-.28 0-.48-.1-.6-.3a2.53 2.53 0 0 1-.26-.48.78.78 0 0 1-.04-.44l.24-.96v-.08a.13.13 0 0 0-.06-.07l-.12-.07a.16.16 0 0 1-.09-.15c.01-.3.08-.61.21-.94.1-.24.27-.35.51-.33.04 0 .07-.02.08-.05l.27-.89a.1.1 0 0 0-.02-.1.1.1 0 0 0-.1-.04l-.2.02a.18.18 0 0 1-.16-.07.17.17 0 0 1-.04-.16l.3-1.02c.07-.22.23-.35.46-.35h2.97c.15 0 .29.02.43.07a.22.22 0 0 1 .14.23c-.04.4-.13.78-.3 1.13a.36.36 0 0 1-.35.22 44.1 44.1 0 0 1-2.03-.08.08.08 0 0 0-.07.05c-.04.08-.02.15.04.2.04.04.1.08.2.13.06.03.1.08.1.16l-.03.47c0 .03 0 .05.02.07a.1.1 0 0 0 .07.03c.43 0 .87 0 1.32.02.22 0 .31.1.28.32-.04.26-.13.56-.27.9a.4.4 0 0 1-.4.25 82.77 82.77 0 0 1-1.6-.02.07.07 0 0 0-.02.05l-.15.8c-.01.04 0 0 .05 0ZM11.14 25.07a.17.17 0 0 0-.13.12 16 16 0 0 0-.55 2.17.16.16 0 0 1-.17.14 4.63 4.63 0 0 1-1-.16c-.16-.05-.23-.16-.19-.35.31-1.4.66-2.68 1.05-3.85a.13.13 0 0 0-.02-.12.13.13 0 0 0-.11-.06.73.73 0 0 0-.4.11.18.18 0 0 1-.17.02.18.18 0 0 1-.1-.12c-.06-.18-.04-.42.06-.74.08-.25.18-.47.3-.66.1-.17.25-.28.47-.34.58-.16 1.09-.23 1.52-.23.55 0 1.03.14 1.44.4.36.24.6.55.73.94.12.36.13.76.01 1.19a3.05 3.05 0 0 1-.82 1.4c-.42.41-.9.66-1.45.75-.1.01-.19 0-.26-.07a.12.12 0 0 1-.05-.08l-.05-.38a.1.1 0 0 0-.04-.06.1.1 0 0 0-.07-.02ZM28.6 24.62c.02-.1 0-.11-.06-.02l-1.32 2.34c-.08.14-.17.27-.29.4-.13.13-.33.18-.6.15a1.74 1.74 0 0 1-.62-.19c-.13-.07-.2-.19-.2-.36.04-.76.04-1.5.01-2.2 0-.17-.04-.18-.09-.01-.22.73-.44 1.5-.65 2.3a.83.83 0 0 1-.16.32c-.08.09-.24.13-.5.12-.18 0-.35-.03-.5-.07-.26-.08-.37-.24-.32-.5.09-.48.2-.96.35-1.44.4-1.33.85-2.68 1.34-4.04.1-.29.31-.43.62-.42.42.01.77.1 1.06.27.12.07.19.2.2.37l.09 2.7c0 .1.02.1.07.02l1.49-2.71c.1-.18.21-.34.33-.46.12-.12.32-.17.62-.15.22.01.43.05.62.12.18.07.3.16.35.28.05.1.07.25.04.44l-.59 4.98c-.04.39-.23.6-.57.63-.36.03-.68-.03-.95-.17a.21.21 0 0 1-.1-.1.22.22 0 0 1-.02-.13l.35-2.47ZM14.89 22.72a.98.98 0 0 0-.33.07.4.4 0 0 1-.27.02c-.1-.03-.14-.1-.13-.2.05-.33.11-.58.18-.77.12-.3.27-.48.46-.54.78-.2 1.42-.3 1.92-.3.75 0 1.33.23 1.76.66.25.26.4.57.45.94.04.33 0 .68-.13 1.04-.13.35-.32.66-.58.92-.26.27-.56.45-.88.54a.1.1 0 0 0-.08.07.1.1 0 0 0 .01.1c.42.67.77 1.26 1.07 1.77.17.3.1.52-.2.65l-.57.27c-.16.08-.3.04-.39-.12l-1.32-2.2a.14.14 0 0 0-.14-.08c-.04 0-.07.02-.08.06l-.35 1.65a.2.2 0 0 1-.07.12.2.2 0 0 1-.13.05c-.34 0-.68-.05-1.03-.13-.18-.05-.25-.15-.22-.32.3-1.37.67-2.76 1.12-4.18.01-.02 0-.05 0-.07a.07.07 0 0 0-.07-.02ZM30.81 26.64c.21-.8.55-1.97 1.01-3.52l.57-1.93a.2.2 0 0 1 .17-.15c.38-.08.75-.04 1.11.12.08.04.14.1.18.16.03.07.04.15.02.24-.37 1.36-.75 2.79-1.13 4.28-.11.44-.24.89-.38 1.34-.06.2-.2.3-.4.32a1.99 1.99 0 0 1-.65-.1c-.44-.11-.6-.36-.5-.76Z" fill="#E31E25"/><path fill-rule="evenodd" d="M39.31 22.8a.98.98 0 0 1 .37-.08c.02 0 .04 0 .06.03.01.02.02.04 0 .06a36.03 36.03 0 0 0-1.12 4.3c.01.06.06.11.16.14.32.1.67.16 1.05.16.14 0 .23-.06.25-.19l.35-1.6c.02-.07.07-.1.15-.08.02 0 .04.02.05.04l1.34 2.23c.03.06.08.1.14.12.06.02.13.02.19 0 .24-.1.49-.2.75-.34.12-.06.18-.17.15-.33-.01-.1-.06-.23-.14-.37l-1.02-1.65a.1.1 0 0 1 0-.09.1.1 0 0 1 .06-.06c.26-.07.5-.18.72-.36a2.6 2.6 0 0 0 .89-2.12c-.03-.3-.14-.58-.33-.8a1.9 1.9 0 0 0-.67-.52 3.17 3.17 0 0 0-1.72-.26c-.47.06-.93.15-1.4.28-.2.05-.36.24-.47.56a4.1 4.1 0 0 0-.18.77c0 .04 0 .07.03.1.03.04.09.07.15.09a.3.3 0 0 0 .19-.02Zm1.21-.18v.13l.14.06c.2.09.35.16.42.23.13.11.16.26.1.43-.06.21-.12.43-.2.65a.1.1 0 0 0 .03.1.1.1 0 0 0 .1.03 1.56 1.56 0 0 0 .75-.4c.24-.23.32-.49.27-.78a.56.56 0 0 0-.24-.36 1.06 1.06 0 0 0-.44-.16 1.98 1.98 0 0 0-.93.07Z" fill="#E31E25"/><path d="M16.42 23.49c.06-.22 0-.4-.19-.53-.12-.08-.3-.16-.57-.23-.08-.02-.08-.05 0-.07a2.34 2.34 0 0 1 .9-.1c.4.04.64.17.73.4.06.17.07.32.03.48a.89.89 0 0 1-.24.38 1.63 1.63 0 0 1-.84.42h-.04a14.42 14.42 0 0 0 .22-.75ZM11.62 23.58c.07-.19.06-.33-.05-.43a.62.62 0 0 0-.18-.11 2.93 2.93 0 0 0-.22-.08 1.89 1.89 0 0 1-.27-.1c-.02 0-.03-.02-.02-.03 0-.02 0-.03.03-.04.36-.1.72-.1 1.08 0 .15.05.26.14.33.27a.5.5 0 0 1 .02.41.99.99 0 0 1-.79.7c-.08 0-.1-.02-.08-.1.04-.17.1-.33.15-.5Z" fill="#FFFFFE"/><path d="M34.23 23.03c.1.04.13.11.1.21a.18.18 0 0 1-.1.12l-.35.15c-.03.02-.04 0-.03-.03l.15-.58c.02-.06.05-.07.08 0l.04.04c.02.05.06.08.1.1Z" fill="#FFD000"/><path d="M19.45 23.32c-.07.07-.1.05-.09-.04l.02-.17c0-.03.01-.04.03-.04h.05c.07.08.06.16-.01.25Z" fill="#FFE400"/><path d="m18.56 26.65-.67-1.1v-.03l.64-.46c.03-.02.04-.01.05.02.02.14.06.26.14.38.06.1.06.22 0 .39a2.58 2.58 0 0 0-.16.8ZM37.37 25.7l-1.28-.01a.03.03 0 0 0-.03.02v.02c0 .01.01.02.03.02l1.28.03.02-.03v-.01a.03.03 0 0 0-.02-.03ZM21.09 28.04c-.27.42-.46.85-.55 1.3l-.14.53c-.05.17-.1.36-.11.54l-2.88.3c-.02 0-.02 0 0 0l3.3-.18-.02.77c-.47.02-.87.19-1.2.5a.95.95 0 0 0-.17 1.13l.14.27c.03.05.01.08-.05.08-.3-.02-.48.09-.56.32-.1.3-.15.53-.13.7.03.26.19.42.48.46.23.03.49.02.77-.02-.13.42-.2.83-.22 1.22-.03.92.02 1.83.15 2.74l.11.4c.04.14.06.28.04.42a4.35 4.35 0 0 1-2.23-.6 3.04 3.04 0 0 1-.88-.75c-.25-.32-.4-.67-.45-1.05a3.2 3.2 0 0 1 .02-.75c.3-2.6.57-5.17.83-7.69 0-.04.03-.06.06-.07a9.9 9.9 0 0 0 1.09-.48c.25-.13.39-.35.39-.67l.01-.01h.02c.21.39.54.58.99.58h1.19Z" fill="#FFD000"/><path d="m38.25 29.5-15.27.9-.92.05-1.36.08-3.29.17c-.02 0-.02 0 0 0l2.88-.29 17.82-1.7c0 .1.1.12.28.08l.23-.04a1136.97 1136.97 0 0 0 6.99-.64 5.14 5.14 0 0 1-.03.89 497.36 497.36 0 0 1-6.86.38c-.24 0-.4.05-.47.12Z" fill="#3A3184"/><path d="M38.25 29.5c.13.07.19.25.19.53l-14.76.47-.64-.01c-.03 0-.05-.02-.06-.06v-.04l15.27-.89Z" fill="#FFE400"/><path d="M50 29.74v.87a149.21 149.21 0 0 1-2.3-.05h-8.84c-.13 0-.22.03-.25.08l-15.9-.06c.28-.09.6-.11.97-.08l14.76-.47c.1.08.25.11.43.09.24-.04.38-.05.42-.05a105.44 105.44 0 0 0 3.72-.1l1.91-.08 1.13-.03c.5 0 .86-.02 1.1-.03l2.85-.1Z" fill="#3A3184"/><path d="M22.98 30.4v.03c0 .04.03.05.06.06l.64.01c-.37-.03-.69 0-.97.08a1.1 1.1 0 0 1-.65-.13l.92-.06Z" fill="#FFD000"/><path d="M22.06 30.45c.17.1.38.14.65.13l15.9.06.18.63a.1.1 0 0 1-.01.08.1.1 0 0 1-.06.04c-.32.1-.56.28-.75.55-.05.07-.08.07-.1-.02a.77.77 0 0 0-.76-.66c-.28-.01-.52.04-.73.16-.15.09-.34.25-.55.49-.04.04-.06.03-.05-.03a.39.39 0 0 0-.15-.39.87.87 0 0 0-.42-.15.14.14 0 0 1-.09-.05.08.08 0 0 1-.01-.07c0-.04-.01-.06-.05-.07-.05 0-.09 0-.12.04a3.5 3.5 0 0 0-.26.25c-.03.03-.06.04-.1.02a.94.94 0 0 0-.49-.13c-.39 0-.78 0-1.17-.02a1 1 0 0 0-.52.1.1.1 0 0 1-.09 0l-.04-.02a.7.7 0 0 0-.3-.09H30.6c-.16 0-.3.06-.42.16-.03.02-.06.03-.09.01-.18-.1-.35-.14-.52-.14-.22 0-.36.1-.42.28-.02.04-.04.05-.07.01-.27-.29-.6-.36-.95-.21a.14.14 0 0 1-.1 0c-.16-.04-.3-.07-.43-.07-.41-.02-.87-.02-1.36-.02-.18 0-.32.06-.42.19-.02.02-.04.03-.08.01a1.82 1.82 0 0 0-.52-.15c-.24-.03-.4.08-.48.34-.03.07-.06.07-.1.02-.16-.24-.44-.36-.84-.36a.36.36 0 0 0-.3.15c-.03.02-.05.03-.07.01a1.07 1.07 0 0 0-.75-.15c-.06.01-.1.04-.15.08a.78.78 0 0 0-.1.14c-.06.12-.12.11-.17 0-.05-.12-.19-.2-.4-.22a1.52 1.52 0 0 0-.5.01.2.2 0 0 1-.1 0c-.19-.07-.38-.1-.57-.09l.01-.78 1.36-.07Z" fill="#FFE400"/><path d="M36.94 32.23c-.12-.05-.2-.02-.27.08-.24.38-.38.83-.43 1.33 0 .06.02.1.08.13.06.04.12.04.18 0a.27.27 0 0 0 .1-.13c.11-.25.3-.34.57-.29.05.01.08.04.1.08.03.04.04.09.03.13-.09.3-.22.54-.4.71a.83.83 0 0 1-.74.25.6.6 0 0 1-.4-.24.78.78 0 0 1-.16-.43c-.05-.77.13-1.4.56-1.88.28-.33.61-.47.99-.4.3.04.45.23.46.57 0 .36-.18.52-.55.49a.13.13 0 0 1-.1-.05.12.12 0 0 1-.02-.1l.04-.16v-.06a.07.07 0 0 0-.04-.03ZM19.65 33.76c0 .08.03.11.1.1h.1l.1-.05a.14.14 0 0 0 .04-.09.65.65 0 0 0-.13-.45c-.14-.2-.25-.4-.34-.61-.08-.2-.04-.39.12-.59a1.24 1.24 0 0 1 .51-.37c.33-.13.65-.14.97-.05a.1.1 0 0 1 .06.04.1.1 0 0 1 .01.08l-.01.11-.04.25c-.02.1-.06.16-.11.2-.1.07-.23.1-.38.06a.16.16 0 0 1-.09-.05.25.25 0 0 0-.22-.08.12.12 0 0 0-.1.06.24.24 0 0 0 0 .24l.16.3.13.22c.05.1.08.17.1.25.06.27.03.51-.1.72a.82.82 0 0 1-.6.4c-.29.06-.56.05-.8-.02a.18.18 0 0 1-.11-.07.18.18 0 0 1-.03-.13c.03-.18.07-.37.13-.56a.1.1 0 0 1 .05-.06.55.55 0 0 1 .25-.06c.17 0 .24.06.23.21ZM30.42 32.3a.3.3 0 0 0-.1-.01.1.1 0 0 1-.08-.04.1.1 0 0 1-.01-.09l.14-.43a.21.21 0 0 1 .2-.14h1.4c.15 0 .2.06.18.2l-.1.36c-.03.1-.1.16-.23.16-.28 0-.56-.02-.83-.05-.05 0-.08.01-.1.06-.01.04 0 .08.04.1.1.07.13.16.12.27 0 .03 0 .06.03.08a.1.1 0 0 0 .07.04l.48.01c.15 0 .2.08.16.21l-.06.22c-.04.13-.13.2-.27.2h-.6c-.06 0-.1.02-.11.09l-.05.28c0 .06.02.08.08.08h.58c.14 0 .2.07.17.21a2.1 2.1 0 0 1-.06.22c-.04.13-.13.19-.27.18a4.68 4.68 0 0 0-.68 0c-.11.02-.2 0-.29-.04a.44.44 0 0 1-.18-.19.56.56 0 0 1-.06-.25c0-.1.02-.19.05-.28.03-.05.04-.1.03-.16a.63.63 0 0 0-.03-.13.57.57 0 0 1-.04-.2c0-.25.1-.41.28-.48a.14.14 0 0 0 .09-.1l.09-.3c0-.04 0-.06-.04-.07ZM38.28 33.87c.08 0 .15 0 .22-.04a.08.08 0 0 0 .04-.05.58.58 0 0 0-.04-.41 2.3 2.3 0 0 0-.23-.37l-.02-.04a.8.8 0 0 1-.18-.55.74.74 0 0 1 .3-.49c.34-.27.75-.37 1.23-.3.06 0 .1.03.14.07.04.05.05.1.04.16l-.08.35c0 .04-.03.07-.06.1-.2.15-.39.15-.57-.02a.16.16 0 0 0-.15-.04.16.16 0 0 0-.12.1c-.04.08-.03.17.03.27l.09.14c.13.22.22.38.26.5.06.19.07.38.02.57a.82.82 0 0 1-.54.59c-.22.08-.5.1-.83.06-.17-.02-.25-.12-.26-.29 0-.1.03-.23.09-.41.07-.2.24-.26.52-.19.03.01.04.03.04.06v.18c.01.04.03.05.06.05ZM44.61 31.73a1.5 1.5 0 0 1 1.58.19c.1.07.18.18.23.33.15.4.13.8-.06 1.18a1.97 1.97 0 0 1-1.28 1.04c-.2.05-.34.03-.45-.05a.75.75 0 0 1-.29-.37.81.81 0 0 1 .01-.47c.12-.4.24-.78.37-1.13a.06.06 0 0 0-.02-.07.06.06 0 0 0-.07-.02.23.23 0 0 1-.2-.04.16.16 0 0 0-.09-.04l-.69-.02c-.03 0-.05.02-.06.05 0 .05.02.08.06.1l.13.1a.1.1 0 0 1 .03.1l-.5 1.77c-.04.12-.12.17-.26.15l-.3-.07c-.1-.02-.15-.09-.11-.2l.58-1.91-.01-.07a.08.08 0 0 0-.07-.04h-.47c-.13 0-.18-.06-.15-.18l.06-.24c.04-.13.12-.2.25-.2h1.43c.03 0 .06 0 .08.02l.17.09a.1.1 0 0 0 .1 0ZM26.58 32.24h-.52c-.12 0-.17-.07-.14-.19l.08-.27c.03-.11.1-.17.23-.17l1.46.01c.17 0 .24.09.2.25l-.06.2c-.05.17-.16.24-.33.22a2.1 2.1 0 0 0-.52-.01c-.04 0-.05.02-.01.05l.18.16c.05.04.07.1.05.16l-.49 1.72c-.03.13-.11.18-.24.15l-.33-.06c-.1-.02-.13-.08-.1-.17l.6-1.98c.01-.05 0-.07-.06-.07ZM28.93 33.43l.03-.1c.02-.03 0-.04-.03-.04-.05.02-.08.05-.1.12l-.22.06a.2.2 0 0 1-.1 0 .16.16 0 0 0-.13.02.08.08 0 0 0-.04.06c-.04.25-.1.5-.18.76-.04.13-.13.19-.28.16l-.2-.03c-.13-.02-.18-.1-.14-.23l.15-.61-.01-.1a.27.27 0 0 0-.07-.08.1.1 0 0 1-.03-.08c0-.16.05-.3.11-.45a.14.14 0 0 1 .1-.08c.11-.04.18-.1.2-.2.07-.28.15-.56.25-.84.05-.14.15-.19.3-.14l.14.04c.14.05.2.15.15.29l-.22.7c-.02.08 0 .13.1.13h.32c.06 0 .1-.03.11-.09l.26-.92c.04-.15.13-.2.28-.16l.18.06c.14.04.2.13.16.27l-.64 2.28c-.05.2-.18.29-.4.26h-.06c-.2-.02-.26-.12-.18-.3.1-.24.17-.5.19-.76ZM33.46 32.32l.2.18c.04.03.05.07.04.12l-.49 1.76c-.03.12-.1.17-.23.14l-.31-.05c-.13-.02-.17-.1-.13-.21l.58-1.91c.01-.03 0-.05-.01-.07a.08.08 0 0 0-.06-.03h-.48c-.14 0-.19-.07-.15-.2l.08-.27c.03-.11.11-.17.24-.17l1.47.02c.15 0 .21.07.18.22-.02.08-.04.16-.08.24-.05.13-.14.2-.28.19h-.56l-.02.01v.03ZM35.47 31.9l-.66 2.48a.2.2 0 0 1-.1.13.2.2 0 0 1-.17.02l-.28-.08a.2.2 0 0 1-.13-.1.2.2 0 0 1-.01-.16l.71-2.43a.2.2 0 0 1 .09-.11c.04-.03.1-.04.14-.04l.23.03a.2.2 0 0 1 .15.1.2.2 0 0 1 .03.17ZM22.12 32.38c.03.28.1.29.22.04l.28-.61c.07-.14.17-.19.32-.15l.18.04c.14.03.18.1.12.23l-1.22 2.46c-.07.13-.17.17-.32.13l-.2-.05c-.12-.04-.16-.11-.1-.23l.3-.62a.28.28 0 0 0 .03-.18l-.3-1.59c-.02-.16.05-.23.21-.21.06 0 .11 0 .17.02.15.02.24.1.26.26l.05.46ZM23.95 33.13c-.12.36-.23.74-.32 1.16-.03.14-.12.2-.27.19l-.21-.03c-.15-.02-.2-.1-.17-.24l.7-2.46.06-.07a.15.15 0 0 1 .09-.03c.26 0 .45.08.56.24.05.07.1.16.13.26a3.66 3.66 0 0 1 .11.47c.02.05.04.08.08.1.02.02.04.02.05.01.02 0 .03-.02.04-.04l.21-.92c.03-.12.1-.16.22-.12l.27.07c.12.04.16.11.14.22-.15.64-.34 1.33-.59 2.07-.03.1-.04.2-.04.31 0 .04 0 .08-.03.1a.14.14 0 0 1-.1.05.93.93 0 0 1-.52-.1.15.15 0 0 1-.08-.13 21.8 21.8 0 0 0-.19-1.1c-.03-.18-.08-.19-.14-.01ZM41.3 33.78c0 .03.02.04.06.04l.62-.03c.14 0 .2.06.15.2l-.12.33a.2.2 0 0 1-.19.14c-.28.02-.55.02-.8 0a.15.15 0 0 1-.1-.05c-.24-.23-.33-.45-.28-.65l.54-2.02c.02-.1.08-.13.17-.1l.35.07c.1.03.14.09.11.18a111.17 111.17 0 0 0-.52 1.89Z" fill="#E31E25"/><path d="m45.34 32.42-.2-.16c-.04-.03-.03-.04.02-.04.48.04.69.29.62.75-.06.38-.28.64-.67.78-.05.02-.07 0-.05-.05l.31-1.18a.09.09 0 0 0-.03-.1Z" fill="#FFFFFE"/><path d="m35.94 34.78.22 1.32c.11.71.16 1.43.15 2.16a6540.43 6540.43 0 0 1-5.92.47l-1.56.14a10448.6 10448.6 0 0 1-8.78.65c.02-.14 0-.28-.04-.42-.06-.2-.1-.34-.1-.4-.14-.9-.2-1.82-.16-2.74.02-.4.1-.8.22-1.22a1 1 0 0 0 .83-.55c.24-.46.2-.95-.14-1.46-.03-.05-.02-.07.04-.06.19.03.36 0 .51-.08.04-.03.07-.02.08.03l.16.84c0 .05 0 .09-.03.13-.14.19-.24.4-.31.63-.06.17-.03.31.1.41.08.07.22.13.42.17.31.07.54-.04.67-.34a22.96 22.96 0 0 1 .65-1.24h.02l.01.02c-.1.3-.2.59-.27.88-.08.3.03.49.32.59.14.05.28.07.43.06.2-.01.32-.08.37-.2l.08-.25c.04-.13.08-.13.1 0 .04.2.18.32.42.39a1.24 1.24 0 0 0 .58.02c.11-.02.19-.07.23-.14a.59.59 0 0 0 .04-.22c.01-.1.02-.17.04-.21.18-.58.34-1.12.48-1.64 0-.02.02-.03.04-.02l.39.07c.02 0 .03.01.02.03-.18.55-.34 1.1-.48 1.64-.03.11-.02.2.02.3a.4.4 0 0 0 .23.17c.23.08.43.11.59.09.21-.04.35-.17.4-.39a11.07 11.07 0 0 1 .28-.91c.02 0 .03 0 .04.02l.02.05c.02.05.03.1.02.14l-.04.14c-.06.2-.09.36-.09.46 0 .17.06.29.2.34.2.08.38.12.54.11.21 0 .36-.1.42-.28l.02-.02.02.01.06.11c.04.09.15.14.32.18.13.03.26.03.37.01.2-.02.35-.17.47-.44.04-.1.08-.1.12 0 .12.31.31.46.59.46h.97c.06 0 .12-.02.17-.04.06-.02.1-.05.13-.1.2-.31.23-.61.1-.9 0-.03 0-.06.03-.08.06-.04.11-.1.16-.2.06-.09.1-.18.12-.29a.88.88 0 0 0 .03-.31.44.44 0 0 0-.1-.26v-.02l.01-.02a.42.42 0 0 0 .2-.1.08.08 0 0 1 .1-.02c.12.05.26.08.4.09.05 0 .06.03.05.07l-.48 1.6a.4.4 0 0 0 .05.33c.06.1.15.17.27.2.2.05.38.07.52.06.2-.03.33-.12.37-.28.17-.64.35-1.27.54-1.9.01-.05.04-.07.1-.07h.13c.04 0 .06.03.04.07-.17.52-.3 1.01-.42 1.47-.05.22-.01.4.13.52.12.1.3.17.53.2.14.01.26 0 .36-.07.1-.06.18-.16.21-.29a60.48 60.48 0 0 1 .19-.66c.03-.02.05-.01.05.03.01.45.22.77.6.96Z" fill="#FFE400"/><path d="M36.8 32.83c.12.08.28.1.46.09a.7.7 0 0 0 .46-.2c.03-.04.06-.03.08.01l.22.43c.04.08.02.12-.08.11a.47.47 0 0 0-.3.08c-.05.03-.07.02-.09-.03-.04-.14-.17-.23-.38-.25-.17-.02-.34 0-.5.04h-.03a.03.03 0 0 1 0-.04l.08-.21c.02-.04.04-.05.07-.03ZM22.49 44h-.01c-.61 0-1.2-.06-1.8-.16-.69-.12-1.3-.33-1.83-.64a3.92 3.92 0 0 1-1.38-1.29 5.5 5.5 0 0 1-.55-1.22l-.87-2.57c-.2-.6-.42-1.1-.62-1.51a4.49 4.49 0 0 0-3.2-2.57c-.8-.19-1.57-.28-2.3-.29h-2.1c-.68 0-1.28-.24-1.79-.73A.13.13 0 0 1 6 32.9a.18.18 0 0 1 .1-.14c.05-.03.09-.02.12.02.5.46 1.1.68 1.8.66 1.27-.04 2.33 0 3.2.13 1.2.18 2.19.54 2.97 1.09.44.3.82.7 1.14 1.16.3.44.54.93.73 1.49.2.57.37 1.2.53 1.85.15.6.34 1.18.57 1.75.34.8.85 1.44 1.53 1.93a5.5 5.5 0 0 0 2.31.92 35.32 35.32 0 0 0 1.49.23ZM36.31 38.26c.01-.73-.04-1.45-.15-2.16l-.22-1.32c.57.12 1-.03 1.29-.45l.03-.02.03.03c.05.22.18.35.38.39.38.08.71.07 1.02-.02.35-.1.6-.32.74-.65 0-.02.02-.03.04-.05.04-.03.05-.02.03.03a.13.13 0 0 0 0 .08c.15.46.24.93.26 1.4 0 .03.02.05.06.03a9 9 0 0 1 1.01-.3 3.8 3.8 0 0 1 1.04-.12c.77.04 1.3.43 1.58 1.16.25.65.03 1.23-.64 1.76-.4.31-.8.56-1.22.75-.9.4-1.87.73-2.93 1-1.79.46-3.6.76-5.45.9-.74.05-1.6.4-2.58 1-.7.46-1.43.85-2.18 1.2a9.53 9.53 0 0 1-1.67.57l.01-.02c.68-.24 1.34-.52 1.99-.85a126.78 126.78 0 0 0 3.66-1.96c.12-.05.24-.08.36-.1 2.5-.17 4.98-.66 7.44-1.47.5-.16 1-.38 1.53-.64 1.1-.55 1.6-1.16 1.49-1.83-.13-.77-.61-1.16-1.47-1.15-.52 0-1.2.16-2.04.47a.23.23 0 0 0-.14.13 3.22 3.22 0 0 1-1.38 1.57 4.6 4.6 0 0 1-1.92.64Z" fill="#FFD000"/></svg>