<!-- by TradingView --><svg width="56" height="56" viewBox="0 0 56 56" xmlns="http://www.w3.org/2000/svg"><path fill="#F0F3FA" d="M0 0h56v56H0z"/><path d="M24.83 14.21c.16.38.46.63.9.72.3.07.72.07 1.22 0 .2-.03.35-.16.47-.38.1-.18.16-.38.18-.6 0-.06-.02-.09-.06-.1a1.4 1.4 0 0 1-.5-.3.3.3 0 0 1-.1-.2.3.3 0 0 1 .07-.22c.14-.18.33-.3.57-.38a.11.11 0 0 0 .07-.08c.05-.16.1-.28.15-.37.08-.15.17-.24.26-.28.2-.06.35 0 .49.16.1.13.18.29.22.49.01.08.07.13.15.15.24.04.38.19.43.43.03.2-.04.37-.24.5-.15.1-.34.15-.56.18a.07.07 0 0 0-.06.03.06.06 0 0 0 0 .06c.1.29.24.53.4.72.2.25.43.4.69.44a1.59 1.59 0 0 0 1.2-.25c.11-.08.2-.21.28-.4.04-.12.09-.28.14-.5 0-.02 0-.04-.02-.06a.07.07 0 0 0-.06-.02c-.17.02-.3-.03-.38-.15a.55.55 0 0 1-.1-.4c.01-.16.07-.29.18-.39a.57.57 0 0 1 .49-.12c.05 0 .1-.01.12-.06l.13-.33a.1.1 0 0 1 .04-.04c.26-.19.5-.2.72-.02.21.17.28.38.19.63-.02.05 0 .09.05.11.27.14.37.34.3.6-.06.3-.28.43-.65.39-.05 0-.09.01-.1.06-.1.26-.1.49-.03.7.26.63.8.86 1.62.7.11-.03.21-.07.3-.13a.16.16 0 0 0 .07-.14c0-.08-.02-.2-.06-.34a1.38 1.38 0 0 1-.04-.36.66.66 0 0 1 .16-.37.2.2 0 0 1 .12-.07l.43-.07c.05-.01.08-.03.11-.06a.19.19 0 0 0 .05-.1.7.7 0 0 1 .27-.48l.16-.08c.26-.08.53-.12.8-.1.12 0 .15.06.08.15-.51.72-.99 1.46-1.43 2.23a21 21 0 0 1-.91 1.4c-.08.1-.18.14-.3.1l-.95-.4c-.87-.37-1.9-.65-3.1-.85-1.24-.2-2.56-.18-3.95.08-1.3.24-2.55.66-3.75 1.25-.03.02-.06 0-.07-.02l-1.84-4.21c-.08-.19-.01-.3.19-.32l.33-.03c.29-.03.49.1.6.36l.14.32c.03.06.07.1.12.1.24.08.44.19.6.34.19.2.24.4.16.6l-.07.16a.87.87 0 0 0-.1.33c0 .12.08.22.23.3a1.48 1.48 0 0 0 1.57-.12c.1-.08.16-.16.2-.24.11-.21.06-.4-.16-.57a.2.2 0 0 0-.13-.05h-.24a.38.38 0 0 1-.31-.13.37.37 0 0 1-.1-.31c.04-.31.22-.54.54-.68.04-.02.05-.05.04-.09-.12-.4-.06-.66.19-.8a.6.6 0 0 1 .43-.05c.34.09.5.33.48.72 0 .06.03.1.1.1.17.01.33.07.47.17.13.1.22.2.26.33a.4.4 0 0 1-.06.37c-.09.12-.24.21-.46.26a.06.06 0 0 0-.04.03v.05Z" fill="#363731"/><path d="M32.12 19.78c-.53-.3-1-.53-1.4-.7-.49-.23-.95-.4-1.4-.52-1-.29-2-.34-3.01-.17-1.2.2-2.28.6-3.23 1.22-.04.03-.08.02-.1-.03L22 17.92c-.06-.1-.04-.18.07-.24a13.02 13.02 0 0 1 4.34-1.37c.65-.09 1.3-.1 1.95-.04a16 16 0 0 1 5.05 1.33c.05.02.06.06.04.1l-1.18 2.04a.1.1 0 0 1-.07.05.1.1 0 0 1-.08-.01ZM37.5 20.5a.4.4 0 0 1-.04.15.3.3 0 0 1-.11.12c-.19.11-.26.28-.22.48.01.03 0 .07-.02.1a.13.13 0 0 1-.09.05c-.21.04-.42.02-.62-.05a.17.17 0 0 0-.13 0l-.2.1a.19.19 0 0 1-.2-.02.18.18 0 0 1-.07-.18c.02-.2-.02-.4-.11-.6a.18.18 0 0 1 0-.17.18.18 0 0 1 .13-.1.5.5 0 0 0 .3-.22l1.62-2.25c.12-.17.17-.32.15-.45-.02-.15-.13-.27-.33-.36-.03-.01-.04-.04-.04-.07 0-.03.02-.05.05-.06.13-.05.26-.09.39-.1.05 0 .1 0 .14.02l.36.2c.06.04.12.04.17.02a.2.2 0 0 0 .13-.1c.09-.19.24-.3.46-.33.5-.08.94-.2 1.34-.38a.12.12 0 0 1 .15.05l.2.4c.02.05.06.06.12.03.22-.1.44-.17.68-.22.02 0 .04 0 .06.02.02.02.03.04.02.06l-.06.35a.3.3 0 0 0 .05.24.3.3 0 0 0 .22.13c.31.04.61.01.9-.08.04-.02.07 0 .09.04v.05c-.35.17-.48.39-.39.65.06.18.2.31.42.4.2.1.4.12.6.1.04-.01.06 0 .06.05v.04c-.01.05-.04.09-.1.1l-.4.13c-.06.02-.06.06 0 .1.08.06.14.14.17.24.1.28.22.53.4.77.03.05.07.07.13.08.05 0 .1.02.13.05.08.06.07.1-.03.1l-.5.06a.15.15 0 0 0-.14.1.15.15 0 0 0 .03.17l.34.35c.1.11.09.17-.07.17h-.4a.1.1 0 0 0-.1.08.1.1 0 0 0 .02.11l.4.42a.08.08 0 0 1-.01.13.18.18 0 0 1-.13.03 1.8 1.8 0 0 0-.47-.02.08.08 0 0 0-.07.05.08.08 0 0 0 .01.09l.34.4c.22.28.16.37-.19.29a4.24 4.24 0 0 0-.37-.08.16.16 0 0 0-.17.07.15.15 0 0 0-.01.18c.1.19.2.37.27.55.09.22.03.27-.17.15a.96.96 0 0 1-.21-.17.09.09 0 0 0-.1-.02.09.09 0 0 0-.07.08c-.03.28.07.48.32.6.1.05.1.1 0 .16a.45.45 0 0 1-.2.07.36.36 0 0 1-.29-.1l-.2-.2a.06.06 0 0 0-.06-.01.06.06 0 0 0-.04.04c-.06.35.04.62.29.82.02.02.03.05.02.08 0 .03-.03.05-.06.05a.84.84 0 0 1-.55-.11.1.1 0 0 0-.1 0 .1.1 0 0 0-.04.08c-.02.17-.01.36.01.55.04.35-.05.39-.29.12a1.9 1.9 0 0 1-.38-1.06c0-.06.01-.1.05-.14.44-.39.75-.89.96-1.5.15-.47.25-1.07.28-1.77.06-1.3-.4-2.33-1.4-3.09a1.88 1.88 0 0 0-1.04-.4c-.13-.01-.14.02-.03.09l.4.2c.2.1.34.18.43.24.15.09.27.19.36.29.65.7.98 1.44 1 2.2.01.49-.05 1-.18 1.54-.12.5-.3 1-.54 1.5-.11.24-.26.47-.44.69-.1.12-.22.12-.34 0a.11.11 0 0 0-.04-.03c-.06-.03-.11-.03-.15 0-.03.05-.07.05-.12.02a1.89 1.89 0 0 1-.37-.42c-.07-.1-.16-.27-.27-.48-.12-.23-.22-.4-.29-.5a1.66 1.66 0 0 0-.4-.42c-.21-.15-.43-.3-.65-.43-.06-.04-.07-.09-.05-.15.02-.06.07-.1.16-.13a.56.56 0 0 1 .22-.02c.1 0 .16-.04.18-.12a.4.4 0 0 1 .13-.21c.25-.2.43-.39.55-.53.17-.21.3-.44.35-.67a.1.1 0 0 0-.04-.11.1.1 0 0 0-.12-.02c-.2.11-.43.19-.7.23a7.64 7.64 0 0 1-.93.07.1.1 0 0 0-.08.04.1.1 0 0 0-.03.07ZM16.28 17.78c-.27.03-.53.11-.8.26a3.45 3.45 0 0 0-1.5 1.95c-.12.5-.16 1.05-.1 1.66.04.6.16 1.14.34 1.64.17.45.47.87.89 1.27.03.04.05.08.04.13a2 2 0 0 1-.47 1.16.17.17 0 0 1-.08.05.1.1 0 0 1-.1-.02.1.1 0 0 1-.03-.09l.04-.7a.1.1 0 0 0-.05-.1.1.1 0 0 0-.12 0 .9.9 0 0 1-.55.12.06.06 0 0 1-.05-.05c-.01-.02 0-.04.02-.06.25-.22.35-.5.31-.82a.08.08 0 0 0-.05-.07.07.07 0 0 0-.09.02l-.2.18a.38.38 0 0 1-.26.1.37.37 0 0 1-.22-.06c-.08-.06-.08-.1 0-.15.26-.13.37-.34.33-.63 0-.07-.04-.08-.1-.05l-.21.13c-.27.19-.34.13-.22-.16.07-.17.16-.33.25-.5a.14.14 0 0 0 0-.16.15.15 0 0 0-.14-.07c-.14 0-.28.03-.43.07-.3.08-.37 0-.19-.26.08-.11.18-.23.3-.35.13-.15.1-.22-.1-.22h-.37c-.2.01-.23-.06-.1-.2l.39-.4c.07-.07.05-.11-.05-.13a1.65 1.65 0 0 0-.37-.02c-.26.01-.3-.07-.1-.24.1-.08.18-.17.27-.26.05-.05.06-.1.04-.17a.16.16 0 0 0-.13-.1 3.52 3.52 0 0 0-.57-.08c-.03-.01-.04-.03-.03-.06 0-.02.01-.03.03-.03.28-.08.46-.27.55-.57.08-.27.19-.47.32-.61.05-.05.04-.07-.03-.08a.86.86 0 0 1-.4-.13c-.17-.12-.15-.18.07-.19.5 0 .8-.17.92-.5a.4.4 0 0 0 0-.28.4.4 0 0 0-.17-.22.82.82 0 0 1-.17-.14c-.08-.09-.06-.11.05-.08.31.08.6.1.87.07.18-.03.27-.11.3-.25a1.14 1.14 0 0 0-.07-.44c0-.03 0-.06.02-.08a.08.08 0 0 1 .08-.03c.24.05.47.12.67.23.04.02.07.02.09-.01.09-.11.15-.23.2-.37a.16.16 0 0 1 .08-.1.16.16 0 0 1 .14 0c.39.17.83.3 1.31.38.1.02.2.05.28.11a.2.2 0 0 1 .08.08c.13.26.33.3.59.11.1-.07.18-.11.25-.12a.6.6 0 0 1 .21.04l.2.05c.14.02.15.07.02.14a.58.58 0 0 0-.3.3c-.05.12-.03.25.06.38.56.81 1.16 1.64 1.78 2.5.02.03.05.05.1.06l.14.04c.05.02.1.05.11.1.03.05.03.1 0 .15-.07.16-.11.34-.11.52 0 .12-.01.2-.05.24-.06.09-.15.1-.27.04a1.58 1.58 0 0 0-.2-.08.19.19 0 0 0-.12 0c-.21.08-.42.1-.6.04-.07-.01-.1-.05-.1-.11l.01-.26a.14.14 0 0 0-.05-.11l-.25-.22a.15.15 0 0 1-.06-.14c0-.04 0-.07-.02-.1a.11.11 0 0 0-.1-.06h-.16a8.29 8.29 0 0 1-.75-.08c-.26-.04-.5-.11-.73-.21a.1.1 0 0 0-.12.01.1.1 0 0 0-.03.11 1.7 1.7 0 0 0 .57.9c.22.17.38.36.49.56.03.06.07.08.13.07.1 0 .2 0 .3.04.06.02.09.06.1.12 0 .06-.02.1-.07.14-.19.13-.37.26-.56.37-.3.2-.55.53-.77 1.01-.13.31-.33.6-.6.85a.1.1 0 0 1-.1.02.27.27 0 0 1-.1-.04.07.07 0 0 0-.05-.02.07.07 0 0 0-.05.03.4.4 0 0 1-.19.13.11.11 0 0 1-.12-.03c-.18-.18-.33-.39-.45-.63a7.37 7.37 0 0 1-.78-2.81c-.05-.79.18-1.51.69-2.19.25-.33.47-.54.65-.64l.83-.44c.15-.09.14-.12-.03-.1Z" fill="#363731"/><path d="M27.28 17.16c-.03.32.2.61.52.64.32.03.6-.22.63-.54a.58.58 0 0 0-.52-.65.59.59 0 0 0-.63.55ZM25.17 17.47c.01.33.28.6.6.59.31-.01.57-.28.56-.61a.59.59 0 0 0-.6-.58.59.59 0 0 0-.56.6ZM30 18.15c.33 0 .6-.26.6-.58a.59.59 0 0 0-.6-.59c-.32 0-.59.26-.59.59 0 .32.27.58.6.58ZM23.15 18.06c0 .33.27.6.58.6.32 0 .58-.27.58-.6 0-.33-.26-.6-.58-.6a.59.59 0 0 0-.58.6ZM31.3 18.25c.01.33.27.6.6.59.31 0 .57-.28.56-.6 0-.33-.26-.6-.58-.6a.59.59 0 0 0-.57.61ZM38.08 19.06c.15-.08.24-.21.2-.3-.05-.07-.2-.07-.36.01-.15.09-.24.22-.2.3.05.07.2.07.36-.01ZM17.72 19.28c.15.07.31.07.35 0 .04-.08-.05-.21-.2-.29-.15-.07-.31-.07-.35 0-.04.08.05.2.2.29Z" fill="#F0F3FA"/><path d="m41.2 37.74-.26.99-.04.04c-.02.01-.05 0-.07 0a1.33 1.33 0 0 0-.77-.16 21.43 21.43 0 0 0-.82.1c-.23.05-.44.11-.62.2-.23.1-.46.18-.69.26-1.79.56-3.83 1.05-6.12 1.47-2.08.38-3.98.46-5.69.24-.85-.1-1.77-.29-2.75-.54-.8-.21-1.7-.48-2.71-.82-.71-.24-1.65-.38-2.81-.43-.7-.03-1.22.06-1.54.26a.11.11 0 0 1-.12 0 .4.4 0 0 1-.21-.39c0-.06-.03-.1-.09-.13h-.03c-.05-.03-.08-.01-.08.04-.01.2.01.4.07.6a.2.2 0 0 0 .08.11c.34.26.7.34 1.1.25.04-.01.06-.04.06-.08 0-.07-.03-.1-.09-.13a4.32 4.32 0 0 0-.33-.1c-.08-.02-.08-.04 0-.07.7-.27 1.3-.16 1.78.33.16.16.18.32.08.48-.11.2-.43.33-.95.43-.38.07-.74.1-1.07.1-.25 0-.49-.06-.72-.17-.72-.35-1.46-.66-2.22-.95a1.34 1.34 0 0 0-.58-.07c-.2.01-.38.06-.58.13-.4.16-.83.3-1.27.44a.08.08 0 0 1-.08-.02.08.08 0 0 1-.03-.08l.57-2.41a.2.2 0 0 1 .13-.15c.61-.24 1.35-.32 2.23-.24.11.01.2-.02.29-.1a.32.32 0 0 0 .1-.3l-.29-1.92a.25.25 0 0 0-.05-.12l-.41-.53c-.15-.2-.15-.38 0-.55.04-.03.07-.04.12-.02l.24.12c.1.05.12.02.08-.08-.02-.06-.02-.12.02-.17.03-.04.07-.06.13-.04.36.11.62.03.78-.25.14-.24.15-.56.03-.96a4.2 4.2 0 0 0-.43-.93c-.02-.03-.05-.04-.08 0-.2.18-.43.31-.7.4-.24.08-.5.1-.77.09a2.41 2.41 0 0 1-1.44-.6 1.5 1.5 0 0 1-.49-.89c-.07-.37-.01-.7.17-1a.11.11 0 0 1 .13-.06c.05.01.09.05.1.1l.05.5c.02.32.06.57.12.73.01.06.05.08.11.07.06-.01.1-.05.09-.1-.05-.67 0-1.3.15-1.89.05-.22.04-.5-.05-.82-.12-.44-.4-.71-.83-.81a.17.17 0 0 1-.12-.1c-.02-.06 0-.09.06-.09.27 0 .52.1.72.3h.06c.02 0 .03-.02.03-.04.01-.1 0-.2-.06-.3a4.84 4.84 0 0 1-.35-.6c-.05-.12-.1-.24-.12-.35a3.79 3.79 0 0 1-.06-.72c0-.36.05-.58.15-.68a.08.08 0 0 1 .1-.01c.03.01.04.04.04.08-.02.44.07.85.26 1.24.27.55.45 1.09.54 1.61 0 .04.03.06.07.05l.04-.01c.05-.01.07-.04.05-.09-.17-.71-.4-1.35-.65-1.9-.2-.45-.26-.94-.17-1.47.03-.16.1-.28.23-.37.08-.06.12-.04.12.06-.01.47 0 .87.03 1.18.05.44.14.82.28 1.13 0 .02.03.04.06.04s.05 0 .07-.03a.24.24 0 0 0 .03-.2v-.03c-.08-.26-.13-.46-.16-.6a3.88 3.88 0 0 1-.08-.58c-.03-.42.05-.82.23-1.2a.1.1 0 0 1 .1-.05.1.1 0 0 1 .09.05c.03.08.04.16.02.24-.12.42-.12.84 0 1.26.06.17.13.36.23.58l.3.59c.08.13.15.35.2.63l.08.31c0 .02.02.03.04.03l.06-.01.01-.02a3.02 3.02 0 0 0-.27-1.07c-.14-.32-.16-.58-.06-.8.14-.29.23-.28.26.04.03.27.15.55.34.84.37.54.6 1.04.67 1.51.12.63-.04 1.13-.47 1.52l-.58.49c-.07.05-.06.07.03.08.15 0 .28.04.4.11.03.03.04.06.04.1-.01.03-.03.06-.07.07-.27.07-.49.2-.65.4-.12.15-.1.28.04.4l.22.18c.13.1.26.1.36-.04.13-.16.2-.33.25-.53.02-.12.03-.31.03-.56v-.17c0-.31.14-.6.41-.89l.31-.3c.24-.23.41-.41.52-.53.18-.2.32-.4.42-.59.1-.17.12-.42.08-.75a6 6 0 0 0-.2-.87.63.63 0 0 1 .01-.4.8.8 0 0 1 .28-.35c.32-.26.56-.44.74-.54.31-.16.6-.22.89-.18.45.07.85.07 1.2-.02.23-.06.46-.04.69.06.22.09.4.23.52.41.1.13.25.17.47.12l.92-.24a.23.23 0 0 0 .17-.16c.27-.84.66-1.62 1.18-2.33a7.21 7.21 0 0 1 1.84-1.79 5.59 5.59 0 0 1 5.03-.65c.96.34 1.82.93 2.58 1.76a8.1 8.1 0 0 1 1.62 2.71c.02.06.06.1.12.12.43.16.87.28 1.33.37.17.04.3-.02.4-.15.14-.2.32-.33.55-.4.23-.08.46-.1.7-.04.36.08.77.08 1.2 0 .26-.04.49 0 .7.13l.03.01c.38.22.64.4.8.55.3.27.41.54.34.8a13.18 13.18 0 0 1-.16.61 2.4 2.4 0 0 0-.06.5c0 .35.13.66.37.93l1.04 1.06c.14.14.24.32.3.52.02.12.04.3.05.56.01.24.03.42.06.54.04.2.13.37.27.52.06.06.12.07.2.03.17-.08.31-.2.43-.34a.1.1 0 0 0 .02-.09c-.02-.15-.12-.27-.28-.39-.1-.07-.25-.15-.44-.22-.04-.02-.07-.05-.07-.1 0-.04.02-.07.07-.09.12-.05.24-.08.36-.08.09 0 .1-.04.03-.1-.16-.12-.33-.25-.5-.4-.51-.42-.7-.97-.54-1.66.06-.27.18-.56.34-.89.1-.21.26-.49.47-.82.1-.17.17-.37.19-.6.02-.28.1-.3.24-.04.11.2.12.44 0 .68-.16.38-.27.78-.31 1.2 0 .05.01.07.06.06l.04-.01.03-.03c.05-.46.18-.87.4-1.23.21-.36.36-.7.43-1.03a2.3 2.3 0 0 0-.05-1.12c-.02-.1 0-.19.08-.26a.08.08 0 0 1 .07-.02c.03 0 .05.01.06.04.26.53.33 1.06.2 1.59-.1.32-.16.65-.22.98 0 .06.02.09.08.08.03 0 .05-.02.07-.04a.42.42 0 0 0 .14-.22c.16-.67.22-1.36.2-2.07-.01-.04 0-.07.04-.09a.08.08 0 0 1 .1.01c.17.15.25.42.25.82a2.67 2.67 0 0 1-.16.88c-.31.69-.55 1.38-.7 2.07-.01.02 0 .04.03.06h.03c.06.03.1.01.1-.05a6 6 0 0 1 .57-1.67c.17-.33.25-.74.23-1.22 0-.02 0-.04.02-.05a.06.06 0 0 1 .06 0 .2.2 0 0 1 .13.15c.18.79.06 1.47-.34 2.03-.08.11-.14.25-.18.41-.03.15 0 .18.13.08.19-.15.41-.24.66-.25.05 0 .08.01.1.06v.04c0 .02-.02.03-.04.04l-.2.08-.28.13a.67.67 0 0 0-.24.2c-.13.21-.22.44-.26.7-.03.25-.02.5.04.75a5.69 5.69 0 0 1 .15 1.81l.05.02c.03 0 .06-.02.08-.05a.48.48 0 0 0 .1-.23c.04-.32.07-.62.08-.92 0-.07.03-.12.07-.17a.11.11 0 0 1 .1-.04c.06 0 .1.03.12.08.22.53.21 1-.02 1.44-.21.4-.6.7-1.14.88-.8.27-1.5.16-2.09-.34a.07.07 0 0 0-.05-.01.07.07 0 0 0-.06.03c-.24.4-.4.78-.46 1.11-.1.5.03.83.37 1.02a.2.2 0 0 0 .12.03l.43-.05c.02 0 .04 0 .06.02l.04.06c0 .07 0 .13-.04.18v.04c.02.02.03.02.05.01l.26-.12a.15.15 0 0 1 .12-.01c.04.01.07.04.09.08.06.12.06.25 0 .39-.03.08-.11.2-.24.36a3 3 0 0 0-.22.29.71.71 0 0 0-.1.32c-.03.51-.1 1.01-.22 1.5-.06.24.02.45.22.64.04.03.09.04.13.01a4.5 4.5 0 0 1 2.08-.38c.28 0 .51.02.69.05.24.03.46.1.66.18.07.02.1.07.12.14l.64 2.43c0 .02 0 .04-.02.05a.05.05 0 0 1-.05.01c-.42-.1-.87-.24-1.34-.4a1.8 1.8 0 0 0-1.4.07l-.5.22c-.55.23-.95.43-1.21.58-.27.15-.52.24-.73.27-.69.09-1.36 0-2.03-.26-.25-.1-.34-.26-.26-.48a.77.77 0 0 1 .16-.26c.08-.08.15-.14.24-.2.46-.28.96-.31 1.52-.1.06.02.06.04 0 .06l-.39.1a.1.1 0 0 0-.07.08.1.1 0 0 0 .03.1c.11.09.3.1.55.04.2-.05.37-.12.53-.22.09-.06.14-.15.16-.27a6.81 6.81 0 0 0 .01-1.18Z" fill="#363731"/><path d="M27.8 35.03a5.3 5.3 0 0 1-2.41-.58 6.32 6.32 0 0 1-2.05-1.67 7.87 7.87 0 0 1-1.37-2.49 9.06 9.06 0 0 1 1.37-8.37 6.32 6.32 0 0 1 2.05-1.66 5.3 5.3 0 0 1 4.83 0c.77.39 1.45.94 2.04 1.66.6.72 1.05 1.55 1.37 2.5a9.06 9.06 0 0 1-1.37 8.36 6.32 6.32 0 0 1-2.04 1.67 5.3 5.3 0 0 1-2.42.58Z" fill="#FE701C"/><path d="M37.73 22.72c.3.1.58.23.83.4.35.21.53.42.55.63 0 .03 0 .06-.03.08a.08.08 0 0 1-.08 0 4 4 0 0 0-3.2.14.17.17 0 0 0-.08.1c-.02.1-.07.2-.13.29a.19.19 0 0 1-.13.08.19.19 0 0 1-.15-.05c-.1-.1-.1-.23 0-.42.07-.13.17-.25.3-.37.57-.53 1.2-1.03 1.88-1.5a.13.13 0 0 1 .1-.02c.09.01.12.06.1.13-.04.14-.06.27-.04.4 0 .06.03.1.08.11ZM18.01 22.96a.2.2 0 0 0 .1-.08.18.18 0 0 0 .04-.13l-.06-.35a.1.1 0 0 1 .05-.1.1.1 0 0 1 .12 0c.71.48 1.36 1 1.95 1.54.12.1.2.24.28.39.03.09.04.18.02.27-.03.19-.13.22-.3.1a.19.19 0 0 1-.06-.1c-.06-.24-.23-.4-.5-.49a4.62 4.62 0 0 0-2-.18c-.25.03-.51.1-.8.22a.13.13 0 0 1-.12 0 .12.12 0 0 1-.06-.1c-.01-.05 0-.09.03-.13.32-.39.76-.68 1.31-.86ZM27.87 31.23l.96.15c.04 0 .06.03.06.07l-.02.43c0 .06-.04.09-.1.08l-1.33-.09c-.68-.04-1.45 0-2.29.13-.06 0-.1-.02-.1-.08v-.33c0-.05.03-.09.08-.1.27-.1.45-.22.72-.35.15-.08.16-.2.16-.36l-.01-.04v-6.38c-.01-.28-.12-.46-.25-.57a.72.72 0 0 0-.23-.11 3.02 3.02 0 0 0-.28-.06 4.22 4.22 0 0 1-.36-.08c-.04-.02-.05-.04-.05-.08v-.4c0-.04.02-.06.06-.06 1.23.12 2.46.13 3.7.02.35-.03.74 0 1.16.07.72.12 1.23.51 1.54 1.17.42.91.4 1.81-.05 2.7a2.2 2.2 0 0 1-.57.7 2.05 2.05 0 0 1-1.63.45c-.3-.04-.6-.15-.88-.31a.13.13 0 0 1-.06-.11l-.02-.41c0-.06.03-.09.09-.08.42.08.77.03 1.04-.15.24-.16.41-.4.51-.74a3.06 3.06 0 0 0-.12-1.92 1.13 1.13 0 0 0-.73-.65c-.32-.11-.66-.12-1.02-.03a.29.29 0 0 0-.22.27l.01 1.33c.04 1.82.04 3.7.02 5.68 0 .14.07.22.21.24Z" fill="#363731"/><path d="M20.7 28.39a.6.6 0 0 0 .41.02c.03-.01.05 0 .07 0l.04.06c.23 1.86.9 3.43 2.03 4.72.51.6 1.1 1.08 1.77 1.45a5.55 5.55 0 0 0 5 .3 6.4 6.4 0 0 0 2.21-1.6 8.45 8.45 0 0 0 2.16-5.04c.02-.14.08-.18.2-.14.32.1.52.05.6-.14.06-.15.08-.3.04-.47a.73.73 0 0 0-.24-.42 1.37 1.37 0 0 0-.5-.28.08.08 0 0 1-.06-.07 4.38 4.38 0 0 1-.02-.64c0-.08-.02-.2-.07-.36a1.86 1.86 0 0 1-.05-.19c-.04-.17 0-.18.12-.05.26.3.5.63.74.98.1.15.22.18.38.1l1.14-.54a.83.83 0 0 1 .2-.07c.22-.04.33 0 .34.1 0 .07-.04.11-.1.14l-.85.24a.31.31 0 0 0-.23.31c0 .2.06.39.16.56.2.34.4.68.63 1.02.11.18.27.33.47.45a5.49 5.49 0 0 1 1.21 1.02c0 .02-.01.02-.03.02a2.27 2.27 0 0 0-.47 0 .72.72 0 0 1-.54-.18 1.34 1.34 0 0 1-.35-.47 4.43 4.43 0 0 0-.39-.78c-.13-.2-.29-.35-.47-.47a.13.13 0 0 0-.14 0c-1.25.69-1.84 1.7-1.77 3 .01.27.1.54.27.82a5.79 5.79 0 0 0 .68.83c.1.11.13.25.1.4a1.69 1.69 0 0 1-.16.4c-.24.46-.5.9-.8 1.31-.14.2-.37.36-.69.5-.2.09-.48.17-.82.25-.14.03-.27.15-.4.36-.24.41-.58.67-1.02.77-.66.15-1.13.57-1.42 1.24a.1.1 0 0 1-.08.06c-1.41.12-2.84.08-4.29-.11a.12.12 0 0 1-.1-.07c-.33-.64-.79-1.02-1.39-1.14a1.59 1.59 0 0 1-1-.74c-.08-.11-.14-.2-.2-.24a.62.62 0 0 0-.28-.17c-.71-.17-1.17-.38-1.37-.64a8.07 8.07 0 0 1-1-1.67.5.5 0 0 1 .09-.57l.65-.78c.18-.22.28-.54.29-.95 0-.32-.04-.65-.13-1-.1-.37-.31-.73-.62-1.07-.27-.3-.6-.57-.98-.79-.1-.06-.2-.04-.28.05-.01.02-.03.02-.04 0l-.03-.01V28c.24-.3.38-.6.43-.9a.34.34 0 0 0-.05-.26.36.36 0 0 0-.21-.15l-.8-.22a.1.1 0 0 1-.05-.02c-.05-.06-.07-.1-.06-.14.04-.09.1-.12.19-.1.18.03.4.1.62.2a11.46 11.46 0 0 1 .91.46.23.23 0 0 0 .3-.07l.59-.81c.04-.06.06-.06.05.02l-.1 1.03c0 .05-.02.09-.06.12l-.23.16a.67.67 0 0 0-.29.45.92.92 0 0 0 .06.53c.02.04.05.07.09.09ZM18.76 28.95c-.12.29-.28.51-.46.67-.23.21-.48.28-.75.22a.04.04 0 0 1-.03-.03 9.74 9.74 0 0 1 1.19-.9c.07-.05.09-.03.05.04ZM17.5 32.91c.24-.65.24-1.34 0-2.07-.01-.05 0-.07.05-.04a1.12 1.12 0 0 1 .55 1.05c-.01.2-.07.4-.17.59-.1.19-.23.35-.4.5h-.02v-.03ZM37.91 33.81l-.46-.12a.14.14 0 0 1-.11-.12c-.01-.06 0-.1.06-.14.07-.05.2-.07.4-.07a4.4 4.4 0 0 1 .5.07c.05 0 .09 0 .12-.02a.18.18 0 0 0 .08-.09c.06-.13.03-.22-.08-.26a.96.96 0 0 1-.45-.33c-.11-.15-.2-.3-.26-.48a1.46 1.46 0 0 1-.08-.52 1 1 0 0 1 .5-.87c.07-.04.09-.03.07.04-.1.46-.13.88-.06 1.26.07.43.26.8.55 1.12.45.48.95.83 1.5 1.06.18.08.32.24.4.5a3.26 3.26 0 0 1 .13.88c.01.06-.02.09-.08.08-.88-.09-1.79 0-2.7.29-1.27.39-2.6.8-4 1.25-.22.06-.24.02-.08-.12.43-.37.84-.84 1.2-1.42l1.03-1.52c.1-.14.2-.23.32-.27a.6.6 0 0 1 .42.02c.3.1.6.18.88.2.13.02.24-.03.31-.13a.17.17 0 0 0 .04-.07c.02-.11-.03-.19-.15-.22ZM18.07 34.21c.31-.05.65-.13 1-.24a.34.34 0 0 1 .38.1c.25.28.42.5.51.65.44.7.91 1.38 1.43 2.04.04.06.03.07-.04.06-.76-.2-1.43-.36-2.02-.47a10.43 10.43 0 0 0-1.92-.15c-.99.03-1.48.26-1.47.7l.02.25c0 .08-.03.1-.08.03-.2-.24-.4-.43-.57-.55-.16-.12-.25-.34-.25-.66a4.41 4.41 0 0 1 .13-.9c.04-.23.2-.41.46-.53a4.07 4.07 0 0 0 1.52-1.13.11.11 0 0 1 .1-.04c.23.02.47.02.73-.02.14-.02.25 0 .35.08.04.03.05.07.05.12-.01.05-.04.08-.1.1l-.52.16c-.1.03-.14.1-.12.2l.04.07c.1.11.22.16.37.13ZM22.09 36.98c-.12-.03-.16-.14-.1-.33.02-.09.08-.15.17-.18.25-.06.44-.03.57.12a1.57 1.57 0 0 1 .25.56l-.01.04a44.8 44.8 0 0 1-.88-.2ZM33.7 36.95c-.26.12-.38.27-.33.44.02.07-.01.1-.08.12l-.6.12c-.06 0-.08-.02-.07-.08l.04-.12.15-.48c.07-.18.14-.31.22-.4a.17.17 0 0 1 .12-.06l.38-.02c.06 0 .1.02.14.07.06.09.1.18.1.28.02.06 0 .1-.07.13ZM14.76 37.36l.13.06c.05.04.05.06-.02.06a.28.28 0 0 1-.17-.04v-.02c-.02-.02 0-.04.03-.06h.03ZM23.51 39.23l-.12.52c0 .03-.02.04-.05.03l-.44-.11c-.03-.01-.04-.03-.04-.06l.4-1.68c0-.04.04-.06.08-.05.29.07.57.15.85.24.3.1.43.28.4.56-.07.52-.38.67-.94.48-.07-.03-.12 0-.14.07ZM32.95 40.03a.86.86 0 0 1-.66-.28.97.97 0 0 1-.27-.68c0-.27.08-.5.26-.7.18-.19.4-.29.64-.29.26 0 .48.1.66.28.18.19.27.42.27.69 0 .27-.08.5-.26.69-.18.2-.4.29-.64.3ZM25.9 39.56c.14.24.24.5.3.8 0 .03 0 .03-.02.03l-.54-.1a10.32 10.32 0 0 1-.25-.68.17.17 0 0 0-.07-.1.14.14 0 0 0-.1-.01c-.04 0-.06.03-.07.06l-.06.55a.08.08 0 0 1-.09.07l-.38-.05c-.06 0-.09-.04-.08-.1l.25-1.66c0-.05.04-.08.1-.07l.88.15c.23.04.38.14.46.3.08.18.06.36-.06.56a.29.29 0 0 1-.22.15c-.07 0-.09.04-.05.1ZM31.17 38.79c-.21-.01-.33.09-.37.3-.03.14-.02.32.04.52a.3.3 0 0 0 .16.18.3.3 0 0 0 .25.02c.11-.05.18-.13.18-.26a.1.1 0 0 1 .04-.08.1.1 0 0 1 .09-.02l.3.06c.06 0 .09.04.08.1a.65.65 0 0 1-.32.51 1 1 0 0 1-.6.14.74.74 0 0 1-.6-.34 1.1 1.1 0 0 1-.18-.68c.02-.6.35-.9 1-.89.12 0 .24.04.35.12.1.07.19.17.24.29a.1.1 0 0 1-.06.14l-.3.08a.1.1 0 0 1-.11-.05l-.06-.07a.17.17 0 0 0-.13-.07Z" fill="#F0F3FA"/><path d="M23.7 38.44c0-.04.03-.05.07-.04l.11.02c.06.02.11.05.14.09.04.04.05.09.04.14l-.01.04a.16.16 0 0 1-.1.1.24.24 0 0 1-.16.02l-.12-.03c-.03 0-.05-.03-.04-.06l.07-.28Z" fill="#363731"/><path d="M29.55 39.24c-.09.36-.16.7-.22 1.06 0 .07-.05.1-.12.1l-.19.02c-.08 0-.14-.04-.16-.12l-.29-1.08c0-.02-.01-.02-.03-.01l.03 1.18c0 .03-.01.05-.05.05l-.35-.01c-.03 0-.04-.01-.04-.04l-.06-1.73c0-.02 0-.03.02-.05a.06.06 0 0 1 .05-.02l.57-.01c.05 0 .07.02.09.06l.22.82c.04.15.08.15.1 0l.16-.83c.01-.05.04-.07.1-.07l.56-.02c.05 0 .08.02.08.07l.05 1.72c0 .04-.01.05-.05.06h-.32c-.05 0-.07-.02-.07-.06l-.04-1.08c0-.1-.01-.1-.04 0Z" fill="#F0F3FA"/><path d="M32.57 39.1c.03.3.22.5.43.49.2-.03.34-.28.3-.57-.03-.29-.22-.5-.43-.48-.2.02-.34.27-.3.56Z" fill="#363731"/><path d="M26.96 39.7v.24c0 .04.02.06.06.06l.8.03c.04 0 .06.02.06.06l-.02.3c0 .05-.02.07-.06.06l-1.35-.05c-.04 0-.06-.02-.05-.06l.05-1.73c0-.04.02-.05.07-.05l1.3.05c.04 0 .06.02.06.06l.01.28c0 .02 0 .03-.02.05a.06.06 0 0 1-.04.01l-.79-.03-.04.01a.06.06 0 0 0-.02.05v.17c0 .04.02.06.06.06l.71.02c.04 0 .06.02.06.06v.26c-.01.04-.03.06-.07.06l-.71-.02c-.02 0-.04 0-.05.02a.05.05 0 0 0-.02.04Z" fill="#F0F3FA"/><path d="m25.64 38.82-.26-.05a.1.1 0 0 0-.12.09l-.03.14a.1.1 0 0 0 .09.12l.25.05a.1.1 0 0 0 .12-.08l.03-.15a.1.1 0 0 0-.08-.12Z" fill="#363731"/></svg>