<!-- by TradingView --><svg width="56" height="56" viewBox="0 0 56 56" xmlns="http://www.w3.org/2000/svg"><path fill="#F0F3FA" d="M0 0h56v56H0z"/><path fill-rule="evenodd" d="M43 13H13v30h30V13Zm-1 1H14v28h28V14Z"/><path d="M27.95 14.16 14.06 27.95l14 13.89 13.88-13.79-14-13.89Zm0 1.28-12.6 12.51 12.7 12.61 12.6-12.51-12.7-12.61Z"/><path fill="#EFBD06" d="m15.35 27.95 12.6-12.5 12.7 12.6-12.6 12.5z"/><path d="M21 25v6h1v-2.44h.28c.95 0 1.72-.8 1.72-1.78S23.23 25 22.28 25H21Zm1 .73h.27c.4 0 .73.45.73 1 0 .54-.33.98-.73.98H22v-1.98ZM28 31V29.9c-.66 0-2-.42-2-1.9 0-1.85 1.6-2 2-2v-1c-1-.04-3 .52-3 3.07s2 3 3 2.92Zm1.27-.27v-1c.33.35 1.8.44 1.8-.36 0-.36-.4-.65-.85-.98-.57-.42-1.22-.9-1.22-1.63 0-1.3 1-1.75 1.62-1.75.5 0 .82.25.9.38v.8s-.32-.28-.78-.28c-.47 0-.75.43-.75.78 0 .29.42.61.63.74.46.27 1.38 1.03 1.38 1.87A1.7 1.7 0 0 1 30.3 31c-.66 0-.96-.18-1.03-.28ZM32.92 25v6h2.58v-1H34v-5h-1.08Z"/></svg>