<!-- by TradingView --><svg width="56" height="56" viewBox="0 0 56 56" xmlns="http://www.w3.org/2000/svg"><path fill="#2D4995" d="M0 0h56v56H0z"/><path d="M29.66 32.7a.4.4 0 0 0 .24-.08.3.3 0 0 0 .1-.24v-7.8c0-.1-.03-.17-.1-.2a.4.4 0 0 0-.23-.07V24h3.42v.3a.41.41 0 0 0-.19.06.17.17 0 0 0-.08.15c0 .06.02.13.07.23l.15.29 2.1 4.45 1.92-4.4.17-.34c.04-.1.07-.18.07-.24 0-.13-.08-.2-.22-.2V24h3.25v.3a.4.4 0 0 0-.23.08c-.07.03-.1.1-.1.2v7.8c0 .1.03.19.1.24a.4.4 0 0 0 .23.07V33h-2.78v-.3c.3 0 .45-.11.45-.32V26.7h-.03L35.09 33h-.05l-3-6.31H32v5.7c0 .2.16.3.47.3V33h-2.8v-.3ZM19.98 28c.86 0 2.02-.14 2.02-1.26s-1.16-1.24-2.02-1.24H17V28h2.98Zm.45-4c1.76 0 3.57.6 3.57 2.67 0 1.5-1.02 2.28-2.4 2.53l2.31 3.25c.08.12.17.18.28.2.11.03.22.04.31.04V33h-3.24v-.3c.1 0 .19-.03.26-.06.08-.03.12-.08.12-.14a.34.34 0 0 0-.07-.18 3.57 3.57 0 0 0-.2-.31l-1.91-2.51H17v2.88c0 .1.03.19.1.24.08.05.2.07.4.07V33h-3v-.3c.34 0 .5-.11.5-.32v-7.76c0-.2-.16-.31-.5-.31V24h5.93Z" fill="#fff"/><path fill-rule="evenodd" d="M47 33c2.76 0 5-2.01 5-4.5S49.76 24 47 24s-5 2.01-5 4.5 2.24 4.5 5 4.5Zm3-6.25L47 25l-3 1.75v3.5L47 32l3-1.75v-3.5Z" fill="#fff"/><path d="M26 32.38c0 .2-.2.31-.5.31V33h3v-.3c-.3 0-.5-.11-.5-.32v-7.76c0-.2.2-.31.5-.31V24h-3v.3c.3 0 .5.11.5.32v.09L24.4 27H26v5.38ZM14.5 27l-2-4-.64 1.27a4.84 4.84 0 0 0-1.68-.27H4.5v.3c.4 0 .5.11.5.32v7.76c0 .2-.1.31-.5.31V33h3.02v-.3c-.35 0-.52-.11-.52-.32V29.5h3.18c1.67 0 3.14-.76 3.3-2.5h1.02Zm-3.35-1.3L10.5 27h1.12c-.13.6-.64 1-1.25 1H7v-2.5h3.37c.3 0 .57.07.78.2Z" fill="#fff"/></svg>