<!-- by TradingView --><svg width="56" height="56" viewBox="0 0 56 56" xmlns="http://www.w3.org/2000/svg"><path fill="#F0F3FA" d="M0 0h56v56H0z"/><rect x="10" y="28" width="36" height="8" rx="4" fill="#006634"/><path d="M44 37H12v1.44A3.51 3.51 0 0 0 15.46 42h25.08c1.9 0 3.46-1.6 3.46-3.56V37ZM12 27V17h1.68c6.1 0 11.31 4.23 12.32 10H12ZM44 27V17h-1.68c-6.1 0-11.31 4.23-12.32 10h14Z" fill="#ED1B24"/><path d="M27.5 22.94c0-5.2-6.5-6.6-7-6.69A8.58 8.58 0 0 1 27.88 12c4.1 0 6.8 2.84 7.62 4.25-5.57 1.03-6.86 4.9-7 6.7V26h-1v-3.06Z" fill="#006634"/></svg>