<!-- by TradingView --><svg width="56" height="56" viewBox="0 0 56 56" xmlns="http://www.w3.org/2000/svg"><path fill="#F0F3FA" d="M0 0h56v56H0z"/><path d="M13 14h29.61c.3.08.43.25.38.5v.57c-.05 8.63-.05 17.06 0 25.64 0 .18-.17.29-.35.29h-2.77a1.28 1.28 0 0 1-1-.58 77.64 77.64 0 0 1-4.67-6.92.26.26 0 0 1-.02-.23.25.25 0 0 1 .17-.16c.82-.3 1.66-.8 2.52-1.5a14.34 14.34 0 0 0 4-5.16 8 8 0 0 0 .75-2.81 7.74 7.74 0 0 0-1.52-5.08 11.24 11.24 0 0 0-4.28-3.46 6.97 6.97 0 0 0-2.87-.65c-2.17-.07-3.9-.01-5.2.18-1.24.18-2.5.57-3.76 1.16a110.19 110.19 0 0 0-9.7 5.12.37.37 0 0 0-.12.55c.28.39.54.8.78 1.25 3.36 6.13 6.82 12.39 10.38 18.78.15.26.07.5-.23.51H13.34c-.13.01-.21-.04-.26-.15l-.08-.19V14Z" fill="#0093DD"/><path d="m30.7 24.16-3.64 1.98a.22.22 0 0 1-.17.02.23.23 0 0 1-.14-.1l-2.42-3.75a.22.22 0 0 1-.03-.18.24.24 0 0 1 .1-.15l7.42-4.18c.12-.06.22-.05.3.06l4.92 6.28c.04.05.06.11.05.18a.23.23 0 0 1-.1.15l-3.6 2.49a.23.23 0 0 1-.18.04.2.2 0 0 1-.15-.1L31 24.23c-.09-.1-.19-.13-.3-.06Z" fill="#DA251C"/><path fill-rule="evenodd" d="M27.18 31.63a.78.78 0 0 0 .6-.33.8.8 0 0 1 .28-.24l1.13-.57c.1-.05.2-.07.31-.05.11.03.2.08.27.16l1.35 1.63c.09.1.2.17.34.18.13.02.26 0 .37-.08l2.82-1.94a.26.26 0 0 0 .07-.37l-3.7-5.1a.39.39 0 0 0-.24-.16.4.4 0 0 0-.3.05 52.93 52.93 0 0 1-4.28 2.4c-.47.25-.92.53-1.36.85-.2.15-.24.34-.1.56l.31.53c.35.6.62 1.03.81 1.31.34.49.66.84.96 1.07.1.08.23.11.36.1Zm6.56-1.79-2.92-4.14a.34.34 0 0 0-.45-.1l-4.67 2.67a.33.33 0 0 0-.11.46l1.3 2c.05.07.12.12.2.14.1.02.18.01.26-.03l2.22-1.22a.32.32 0 0 1 .24-.03c.08.02.15.06.2.13l1.22 1.7c.06.07.13.12.22.14.09.01.17 0 .25-.05l1.94-1.2a.32.32 0 0 0 .15-.2c.02-.1 0-.19-.05-.27Z" fill="#DA251C"/><path fill-rule="evenodd" d="m29.13 34.9 1.13 1.64a3.46 3.46 0 0 0 2-1.54.32.32 0 0 0 0-.37l-2.5-3.74a.3.3 0 0 0-.2-.13.3.3 0 0 0-.24.04 22.6 22.6 0 0 1-3.52 1.78c-.46.19-.61.52-.48.98.21.7.72 1.45 1.52 2.27l1.87-1.02a.32.32 0 0 1 .23-.03.3.3 0 0 1 .19.12Zm0-1a.5.5 0 0 1 .33.19l.93 1.23c.09.12.2.17.35.16.16 0 .28-.05.37-.14.29-.28.32-.6.11-.94l-1.62-2.64a.36.36 0 0 0-.23-.16.36.36 0 0 0-.28.03l-2.8 1.49a.38.38 0 0 0-.2.24c-.03.1-.01.21.05.3l.63 1.06a.43.43 0 0 0 .62.14l1.38-.9c.11-.07.24-.1.37-.07Z" fill="#DA251C"/><path fill-rule="evenodd" d="M30.98 37.45a1.62 1.62 0 0 1-.72-.91l-1.13-1.64a.3.3 0 0 0-.2-.12.32.32 0 0 0-.22.03l-2.8 1.51c-.16.05-.24.26-.31.42v.02a.52.52 0 0 0 .03.48l.82 1.4c.07.1.16.17.28.2.12.03.23.01.33-.06l.92-.57a.32.32 0 0 1 .38.01c.48.34.85.76 1.1 1.27.08.18.2.2.34.06l1.26-1.2c.36-.33.33-.63-.08-.9Zm-3.2.27c.23-.19.42-.3.6-.34.15-.03.27.02.37.14l.67.86c.17.22.38.27.62.13.15-.08.24-.23.29-.47a.38.38 0 0 0-.08-.32l-1.2-1.56a.64.64 0 0 0-.82-.17l-1.43.8a.62.62 0 0 0-.3.34.61.61 0 0 0 0 .43c.13.35.35.5.67.47.17-.02.38-.13.6-.31Z" fill="#0093DD"/><path d="m29.34 40.36-1.25.9a.43.43 0 0 1-.6-.09l-.88-1.16a.4.4 0 0 1-.08-.36.4.4 0 0 1 .24-.27l1.2-.57a.4.4 0 0 1 .47.07l.93.82c.1.1.15.2.15.34a.4.4 0 0 1-.18.32Z" fill="#0093DD"/></svg>