<!-- by TradingView --><svg width="56" height="56" viewBox="0 0 56 56" xmlns="http://www.w3.org/2000/svg"><path fill="#09C" d="M0 0h56v56H0z"/><path d="M15 23v10h2v-4h1.72a6.28 6.28 0 0 1 1.67 1.98l.83 2.02h2.57c-.41-1.18-1.45-3.45-2.6-4.3a2.98 2.98 0 0 0 1.91-2.73c0-1.73-1.5-2.97-3.37-2.97H15Zm2 1.5h2.27c1.13 0 1.7.67 1.7 1.5s-.57 1.5-1.7 1.5H17v-3ZM5 33v-9.97h4.73c1.86 0 3.37 1.4 3.37 3.11 0 1.72-1.5 2.86-3.37 2.86H7v4H5Zm4.07-8.5H7v3h2.07c1.06 0 1.93-.67 1.93-1.5s-.87-1.5-1.93-1.5ZM27 23h-2v10h2V23Zm2 9.46.45-1.5c2.48 1.17 5.06.4 5.06-.41 0-.82-1.18-1.44-2.19-1.87a20.8 20.8 0 0 0-.26-.1c-1.03-.42-2.56-1.04-2.56-2.94 0-2.06 2.24-2.64 3.83-2.64 1.27 0 2.38.18 2.67.28v1.52c-2.28-.74-4.5-.3-4.5.58 0 .7 1.55 1.3 2.3 1.52.9.34 2.7 1.45 2.7 3.1 0 2.44-1.95 3-4.28 3-1.87 0-2.93-.36-3.22-.54Zm9 .54 1.35-10h3.22l2.02 7.09L46.77 23H50l1 10h-2.38L48 25.3 45.5 33h-2.18l-2.21-7.7-.9 7.7H38Z" fill="#fff"/></svg>