<!-- by TradingView --><svg width="56" height="56" viewBox="0 0 56 56" xmlns="http://www.w3.org/2000/svg"><path fill="#F0F3FA" d="M0 0h56v56H0z"/><path d="M43 44h-9.42L35 33l8 11ZM17.78 21.52 13.07 15h9.31l2.74 3.15-7.34 3.37Z" fill="#343434"/><path d="M18.92 21.11c-.02-.09 15.45-7.97 23.18-11.9-2.6 1.9-7.8 5.74-7.88 5.84-.07.11-8.33 7.29-12.45 10.86-.94-1.56-2.83-4.71-2.85-4.8Z" fill="#FACF75"/><path d="m21.76 26.5-4.78-5.94L42.58 9 22.6 20.75l-3.46.4h3.46l-.83 5.35Z" fill="url(#awjzbzyh1)"/><path d="m22.86 21.27-1.1 5.19 20.69-17.4-19.6 12.21Z" fill="#EE6832"/><path d="m32.76 20.7-14.1 9.7-4.64 10.8 18.74-20.5Z" fill="#CFDA4D"/><path d="M18.66 30.47 14 41.2l6.17-9.73-1.5-.99Z" fill="#9EBD37"/><path d="m20.73 31.5-6.67 9.62 18.66-20.48-11.99 10.85Z" fill="url(#bwjzbzyh1)"/><path d="m19.78 38.62-6.76 5.28 8.94-.9L36.9 16.27 19.78 38.62Z" fill="#AAD3E7"/><path d="M22.3 44H13l7.46-4.51 1.42 3.3-.6-3.64L37.3 16 22.3 44Z" fill="url(#cwjzbzyh1)"/><path d="M37.08 16.07 13.07 43.95l7.3-4.98 16.7-22.9Z" fill="#7DA8D7"/><path d="m29.02 35.37 1.2-1.82c2.9-6.46 8.7-19.41 8.73-19.54l-5.72 28.15-4.21-6.8Z" fill="#BC80AF"/><path d="m33.58 44-5.3-7.87 10.7-22.15-6.72 19.35-2.7 1.5c.84-.28 2.57-.83 2.7-.83.13 0 .98 6.7 1.32 10Z" fill="#50314D"/><path d="m32.56 33.58 6.42-19.5L33.58 44l-1.02-10.42Z" fill="url(#dwjzbzyh1)"/><defs><linearGradient id="awjzbzyh1" x1="20.01" y1="22.74" x2="39.46" y2="10.81" gradientUnits="userSpaceOnUse"><stop stop-color="#ED6731"/><stop offset="1" stop-color="#EDD07D"/></linearGradient><linearGradient id="bwjzbzyh1" x1="31.27" y1="22.96" x2="19.12" y2="37.73" gradientUnits="userSpaceOnUse"><stop stop-color="#CFDA4D"/><stop offset="1" stop-color="#4D7C33"/></linearGradient><linearGradient id="cwjzbzyh1" x1="18.83" y1="43.73" x2="33.09" y2="16.84" gradientUnits="userSpaceOnUse"><stop stop-color="#4559AB"/><stop offset="1" stop-color="#A8D1DC"/></linearGradient><linearGradient id="dwjzbzyh1" x1="36.97" y1="31.38" x2="31.61" y2="32.54" gradientUnits="userSpaceOnUse"><stop stop-color="#B97BAE"/><stop offset=".75" stop-color="#5F3558"/></linearGradient></defs></svg>