<!-- by TradingView --><svg width="56" height="56" viewBox="0 0 56 56" xmlns="http://www.w3.org/2000/svg"><path fill="#F0F3FA" d="M0 0h56v56H0z"/><path d="M36.84 30.38c.43-1.4.54-2.8.34-4.2a9.2 9.2 0 0 0-1.5-3.9A7.7 7.7 0 0 0 33.22 20a9.87 9.87 0 0 0-6.2-1.34c-4.05.54-7.05 4.35-7.03 8.47V42.9c0 .03.06.05.05.07a.1.1 0 0 1-.07.03h-6.9c-.06 0-.08-.17-.08-.22.04-4.6.05-9.23.04-13.9 0-1.58.07-2.84.23-3.79.33-2.05.97-3.9 1.93-5.56 1-1.74 2.3-3.18 3.9-4.31 2.82-2 5.85-3.07 9.09-3.2 1.89-.09 3.76.24 5.63.97 3.9 1.53 6.8 4.17 8.73 7.92a13.05 13.05 0 0 1 1.42 5.32c.1 1.94-.09 3.81-.58 5.62-.5 1.8-1.25 3.44-2.28 4.9a14.16 14.16 0 0 1-9.01 5.86c-1.02.2-2.3.4-3.85.39-2.52-.03-4.82-.02-7.08 0a.15.15 0 0 1-.11-.05c-.03-.02-.06-.06-.06-.1v-6.78c0-.05.02-.07.08-.07h8.51c1.76.01 3.86-.9 5.1-2.1a8.05 8.05 0 0 0 2.15-3.52Z" fill="#373536"/><path fill-rule="evenodd" d="M33.77 33.25c.4-.68.57-1.48.5-2.4 0-.1.04-.16.11-.21.82-.5 1.4-1.08 1.77-1.76.42-.8.46-1.61.13-2.46-.18-.45-.49-.89-.92-1.3a5.97 5.97 0 0 0-1.32-.94.27.27 0 0 1-.15-.27c.03-.82-.17-1.6-.58-2.38A2.73 2.73 0 0 0 30.96 20a3.8 3.8 0 0 0-1.41.21 5 5 0 0 0-1.33.68.18.18 0 0 1-.2 0 5.2 5.2 0 0 0-1.7-.57 3.25 3.25 0 0 0-1.54.12c-.49.17-.9.46-1.23.86a4 4 0 0 0-.77 1.64 3.9 3.9 0 0 0-.06.77l-.02.5c-.01.07-.04.13-.1.17-1.26.82-1.95 1.73-2.08 2.74-.1.8.11 1.55.64 2.25.44.6 1.05 1.1 1.83 1.49.05.02.08.07.09.13 0 .17.02.33.03.5.03.52.14 1.02.32 1.47.19.47.44.86.76 1.18.33.34.71.58 1.14.72.46.15.96.18 1.49.1.69-.13 1.34-.4 1.95-.82a.17.17 0 0 1 .2-.02c.9.48 1.77.67 2.6.57.96-.1 1.7-.58 2.2-1.44Zm-2.44-12.22c-.53-.16-1.1-.1-1.7.17l-.16.06a.6.6 0 0 0-.3.15.12.12 0 0 0-.03.1c0 .04.02.07.05.1.59.42 1.12.9 1.6 1.42.06.06.12.1.2.1.66.12 1.28.3 1.86.54.02.01.05 0 .07-.01a.07.07 0 0 0 .03-.07c-.05-.49-.18-.95-.37-1.39-.28-.6-.7-1-1.25-1.17Zm-7.06.89c-.38.44-.58 1-.6 1.69-.02.16.05.2.2.15a8.66 8.66 0 0 1 1.73-.54c.1-.02.18-.06.25-.14l1.28-1.38c.1-.1.08-.18-.06-.22-.39-.13-.8-.2-1.22-.23-.66-.03-1.18.2-1.59.67Zm4.92 1-1.83.04c-.03 0-.05-.01-.06-.04a.07.07 0 0 1 .01-.08l.84-.76c.02-.02.05-.02.08 0l1 .7c.02.03.03.05.02.08 0 .04-.03.05-.06.05Zm-2.5 8.1c1.05.16 2.2.18 3.43.04.16-.01.31-.05.46-.1a.28.28 0 0 0 .16-.1c.73-1.08 1.3-2.23 1.72-3.48a.27.27 0 0 0-.01-.2 13.98 13.98 0 0 0-1.98-3.1.31.31 0 0 0-.21-.11 15.22 15.22 0 0 0-3.67.02.48.48 0 0 0-.36.22c-.71 1.05-1.28 2.2-1.71 3.46a.17.17 0 0 0 0 .13c.54 1.11 1.2 2.15 2 3.12.04.06.1.1.18.1Zm5.35-6.68.83.3c.07.03.1.08.1.16 0 .23-.02.45-.06.66-.05.32-.14.34-.29.06-.2-.36-.41-.72-.66-1.06-.1-.14-.07-.18.08-.12Zm-8.37.58.25 1.28c0 .03.02.05.06.05.03 0 .05 0 .07-.03l.88-1.75c.01-.03.01-.05-.01-.08a.06.06 0 0 0-.08-.02l-1.13.46c-.03.02-.04.05-.04.09Zm10.46 4.45a6.43 6.43 0 0 0-.22-.95 16.76 16.76 0 0 0-.4-1.1.18.18 0 0 1 0-.11l.4-1.96.04-.04H34c.6.42 1.03.87 1.3 1.35.34.6.36 1.2.06 1.78a3.4 3.4 0 0 1-.96 1.15.16.16 0 0 1-.17.02.17.17 0 0 1-.1-.14Zm-10.78-2v-.02a6.58 6.58 0 0 1-.49-1.77.12.12 0 0 0-.07-.1.11.11 0 0 0-.13 0c-.26.19-.48.4-.67.64-.2.26-.35.52-.44.8-.21.65-.1 1.24.31 1.78.34.44.71.79 1.13 1.05.02.02.05.02.07 0a.08.08 0 0 0 .05-.06c.07-.56.19-1.11.35-1.66a.65.65 0 0 0 0-.34 1.73 1.73 0 0 0-.1-.31Zm9.73 1.44.25 1.28c0 .04 0 .07-.04.08l-1.15.48c-.03.01-.05 0-.08-.02a.07.07 0 0 1 0-.08l.89-1.76c.01-.03.04-.04.07-.04.03 0 .05.03.06.06Zm-9 1.55.87.32c.03.01.06 0 .08-.02.02-.03.02-.06 0-.09l-.79-1.28c-.02-.03-.04-.04-.07-.03-.04 0-.06.03-.06.06l-.08.96c0 .04 0 .07.04.08Zm9.24.83c.03 0 .04 0 .04.03 0 .78-.23 1.42-.67 1.92-.6.7-1.54.83-2.8.39a.1.1 0 0 1-.08-.09.11.11 0 0 1 .03-.1l1.36-1.49a.22.22 0 0 1 .13-.07c.6-.08 1.27-.28 1.99-.59Zm-9.28.33c.3 1.75 1.08 2.6 2.35 2.53.23-.01.49-.06.75-.15.18-.05.42-.14.72-.27a.09.09 0 0 0 .06-.08c0-.04-.01-.06-.04-.09-.6-.43-1.16-.93-1.68-1.48a.22.22 0 0 0-.1-.07l-1.94-.5c-.03 0-.06 0-.09.02a.1.1 0 0 0-.03.1Zm3.78.53c.53.1 1.12.1 1.78-.02.13-.02.15.02.06.12-.24.28-.5.53-.77.74-.07.04-.13.04-.2 0-.3-.21-.6-.43-.87-.66a.17.17 0 0 1-.06-.11c-.02-.05 0-.07.06-.07Z" fill="#373536"/></svg>