<!-- by TradingView --><svg width="56" height="56" viewBox="0 0 56 56" xmlns="http://www.w3.org/2000/svg"><path fill="#F0F3FA" d="M0 0h56v56H0z"/><path d="m20.94 24.37-.02.05-2.76 15.67a.26.26 0 0 1-.12.2.2.2 0 0 1-.2 0 50.5 50.5 0 0 1-3.24-1.71 13.93 13.93 0 0 1-5.43-5.72 10.73 10.73 0 0 1-1.14-3.93c-.12-1.47.09-2.9.62-4.3a13.36 13.36 0 0 1 3.93-5.43 19.12 19.12 0 0 1 5.57-3.28 27.36 27.36 0 0 1 17.8-.81c2.17.61 4.14 1.49 5.89 2.61 1.99 1.28 3.58 2.83 4.78 4.63.36.55.66 1.14.9 1.78.03.07.02.14-.02.2-.03.07-.09.1-.15.1-2.14-.03-4.38-.04-6.73-.03-.5 0-.93-.13-1.3-.4-1.68-1.22-4.32-1.6-7.94-1.15-4.03.5-7.39.89-10.07 1.17-.15.01-.28.13-.37.35Z" fill="#64C935"/><path d="m30.3 28.29 2.79-.12a.2.2 0 0 1 .17.1c.04.06.06.13.04.21l-.32 1.24c-.02.1-.09.17-.19.17l-2.87.15c-.11 0-.18.07-.2.2l-.48 2.72c-.02.12-.08.19-.2.2l-2.52.11a.2.2 0 0 1-.16-.08.25.25 0 0 1-.05-.2l1.3-7.57c.03-.12.1-.19.2-.2l6.75-.34c.07 0 .12.02.17.08.04.07.05.14.04.21l-.28 1.32c-.02.12-.09.18-.19.18l-3.84.17c-.1 0-.17.06-.2.18l-.17.98c-.02.07 0 .14.04.2s.1.1.17.09ZM25.2 40.52l.82-5.22c.01-.1.05-.17.12-.23a.29.29 0 0 1 .22-.09c.49.03.96.01 1.42-.07 1.35-.22 2.92-.55 4.7-1 1.47-.36 2.76-.88 3.87-1.53a11.4 11.4 0 0 0 3.24-2.85c.41-.53.72-1.16.93-1.88.04-.15.13-.23.27-.23h7.02c.08 0 .13.05.14.14a9.67 9.67 0 0 1-.6 4.49 11.77 11.77 0 0 1-2.27 3.65c-.9 1-1.99 1.94-3.25 2.78a20.63 20.63 0 0 1-3.52 1.88 27.7 27.7 0 0 1-3.39 1.17c-1 .27-2.16.42-3.49.44-3.46.06-6.83.03-10.09-.11-.03 0-.05-.02-.06-.05a5.6 5.6 0 0 1-.09-1.12c0-.03.01-.04.04-.04 1.27.08 2.54.09 3.8.03.1 0 .14-.06.16-.16Z" fill="#026DFC"/></svg>