<!-- by TradingView --><svg width="56" height="56" viewBox="0 0 56 56" xmlns="http://www.w3.org/2000/svg"><path fill="#F0F3FA" d="M0 0h56v56H0z"/><path fill-rule="evenodd" d="M4 30v-5h1.61c.77 0 1.39.73 1.39 1.64 0 .9-.62 1.64-1.39 1.64H5V30H4Zm1.48-4H5v1.5h.48c.29 0 .52-.34.52-.75S5.77 26 5.48 26Zm2.97 1H7.5v3h.95v-1.75c.14-.29.4-.46.64-.46.22 0 .37.07.42.1v-.88c-.46-.08-.83.21-1.06.49V27Zm9.05 0h.95v.5c.22-.28.6-.57 1.05-.49v.88a.78.78 0 0 0-.42-.1c-.23 0-.5.17-.63.46V30h-.95v-3Zm30 0h-1v3h1v-1.83c.14-.24.37-.38.58-.38.22 0 .37.07.42.1v-.88c-.42-.07-.77.17-1 .43V27ZM13 28.5c0 .83-.5 1.5-1.5 1.5s-1.5-.67-1.5-1.5.49-1.5 1.5-1.5 1.5.67 1.5 1.5Zm-.92 0c0 .4-.2.73-.58.73-.38 0-.58-.32-.58-.73 0-.4.19-.73.58-.73.4 0 .58.32.58.73ZM44.5 30c1 0 1.5-.67 1.5-1.5s-.49-1.5-1.5-1.5-1.5.67-1.5 1.5.5 1.5 1.5 1.5Zm0-.77c.38 0 .58-.32.58-.73 0-.4-.19-.73-.58-.73-.4 0-.58.32-.58.73 0 .4.2.73.58.73ZM14.86 30c.3 0 .55-.07.75-.2v.6c-.07.28-.37.8-.98.8-.62 0-.89-.2-.94-.3v.85c.06.08.35.25 1.03.25.84 0 1.88-.7 1.88-1.75V27h-.99v.2c-.2-.13-.45-.2-.75-.2-.92 0-1.36.67-1.36 1.5s.46 1.5 1.36 1.5Zm.14-.77c.38 0 .58-.32.58-.73 0-.4-.19-.73-.58-.73-.4 0-.58.32-.58.73 0 .4.2.73.58.73Zm5.92-.6H23c.02-.54-.21-1.63-1.38-1.63-1.46 0-1.62 1.15-1.62 1.63 0 .3.18 1.37 1.68 1.37.5 0 .92-.17 1.07-.26V29c-.13.12-.49.37-.95.37-.57 0-.88-.39-.88-.74Zm0-.55h1.24c-.01-.16-.16-.46-.59-.46-.44 0-.62.3-.65.46Zm15.58.55h-2.08c0 .35.3.74.88.74.46 0 .82-.25.95-.37v.74c-.15.09-.56.26-1.07.26-1.5 0-1.68-1.08-1.68-1.37 0-.48.16-1.63 1.62-1.63 1.17 0 1.4 1.09 1.38 1.63Zm-.84-.63h-1.24c.03-.15.21-.38.65-.38.43 0 .58.23.6.38ZM23.1 29.76V29c.15.13.52.39.82.39h.03c.3 0 .59 0 .59-.25 0-.21-.17-.26-.38-.32a3.9 3.9 0 0 1-.23-.07c-.3-.09-.78-.24-.78-.85 0-.66.66-.91 1.26-.91.48 0 .74.1.8.16v.65c-.23-.29-1.2-.24-1.2-.03 0 .17.53.4.79.49.2.1.61.37.61.74 0 .65-.76 1-1.34 1-.47 0-.85-.17-.97-.25Zm2.69-.75v.75c.12.08.5.24.97.24.58 0 1.34-.34 1.34-.99 0-.37-.4-.65-.61-.74-.26-.1-.78-.32-.78-.49 0-.21.96-.26 1.2.03v-.65c-.07-.05-.33-.16-.8-.16-.6 0-1.27.25-1.27.91 0 .61.49.76.78.85a3.59 3.59 0 0 1 .23.07c.22.06.38.11.38.32 0 .25-.3.25-.59.25h-.03c-.3 0-.67-.26-.82-.39ZM29 26a.5.5 0 1 0 0-1 .5.5 0 0 0 0 1Zm.5 1h-1v3h1v-3Zm.48 0h1.04c.2.76.6 2.26.62 2.2l.72-2.2h.98l-1.16 3H31.1l-1.13-3Zm12.52-1.74v1.07c-.13-.14-.54-.33-1.15-.33-.75 0-1.33.66-1.33 1.54 0 .87.67 1.46 1.28 1.46.5 0 1-.19 1.2-.33v1.06c-.22.09-.77.27-1.2.27-1.86 0-2.3-1.64-2.3-2.46A2.37 2.37 0 0 1 41.35 25c.55 0 1 .17 1.15.26ZM49 27h1v.27c.2-.17.45-.27.77-.27.83 0 1.23.67 1.23 1.5s-.41 1.5-1.23 1.5c-.32 0-.57-.1-.77-.27V32h-1v-5Zm1 1.38c0 .38.17.68.5.68.33 0 .5-.3.5-.67 0-.38-.16-.68-.5-.68-.34 0-.5.3-.5.67Z" fill="#0389FF"/></svg>