<!-- by TradingView --><svg width="56" height="56" viewBox="0 0 56 56" xmlns="http://www.w3.org/2000/svg"><path fill="#F0F3FA" d="M0 0h56v56H0z"/><path fill-rule="evenodd" d="M5 32v-8h2.84c1.2 0 2.16 1.19 2.16 2.5S9.04 29 7.84 29H6v3H5Zm2.61-7H6v3h1.61C8.38 28 9 27.33 9 26.5S8.38 25 7.61 25ZM11 32h1v-3h1.2l1.54 3H16l-1.74-3.07A2.56 2.56 0 0 0 16 26.5c0-1.31-1.05-2.5-2.21-2.5H11v8Zm1-7h1.61c.77 0 1.39.67 1.39 1.5s-.62 1.5-1.39 1.5H12v-3Zm12 3c0 2.2-1.57 4-3.5 4S17 30.2 17 28s1.57-4 3.5-4 3.5 1.8 3.5 4Zm-1 0c0 1.66-1.12 3-2.5 3S18 29.66 18 28s1.12-3 2.5-3 2.5 1.34 2.5 3Zm23.53 2c-.6 1.2-1.73 2-3.03 2-1.93 0-3.5-1.8-3.5-4s1.57-4 3.5-4c1.3 0 2.43.8 3.03 2h-1.09a2.4 2.4 0 0 0-1.9-1c-1.4 0-2.54 1.34-2.54 3s1.14 3 2.55 3a2.4 2.4 0 0 0 1.9-1h1.08Zm-20.45-6H25v8h1v-5.45L28.12 32h.71L31 26.55V32h1v-8h-1.12l-2.35 6-2.45-6ZM47 25h2v7h1v-7h2v-1h-5v1Zm-9.91-1h-1.33l-2.26 8h1.12l.57-2h2.55l.59 2h1.17l-2.41-8Zm.35 5h-1.96l.96-3.37 1 3.37Z" fill="#2E2C2D"/></svg>