<!-- by TradingView --><svg width="56" height="56" viewBox="0 0 56 56" xmlns="http://www.w3.org/2000/svg"><path fill="#F0F3FA" d="M0 0h56v56H0z"/><path d="M17 27.54V44h12v-7h7.88c2.28 0 4.12-1.4 4.12-3.68v-12.2A4.12 4.12 0 0 0 36.88 17h-5.43c1.18.9 3.55 3.86 3.55 8.39a8.88 8.88 0 0 1-8.65 9.15c-4.2 0-7.77-3.5-8.48-7H17Zm0-3.67h.68A17.02 17.02 0 0 1 21.2 17H17v6.87Z" fill="#071B56"/><path d="M23.95 15h5.13a38.4 38.4 0 0 1-.85-2h-3.35a21 21 0 0 1-.93 2Zm1.31-3h2.58c-.6-1.62-1.1-3.16-1.36-4-.2.85-.63 2.4-1.22 4Zm4.33 4h-6.23c-.35.55-.75 1.09-1.16 1.64l-.26.36h9c-.49-.67-.96-1.33-1.35-2Zm2.06 3H21.23c-.43.63-.84 1.3-1.19 2h12.84c-.36-.7-.8-1.37-1.23-2Zm1.7 3H19.6a9.44 9.44 0 0 0-.52 2H33.9a9.02 9.02 0 0 0-.55-2Zm.64 3H19.01l-.01.33c0 .58.08 1.14.21 1.67h14.57a6.5 6.5 0 0 0 .21-2Zm-.56 3H19.56c.31.74.75 1.4 1.25 2h11.34c.52-.6.96-1.27 1.28-2Zm-2.3 3h-9.31c1.5 1.27 3.3 2 4.66 2 1.36 0 3.16-.73 4.66-2Z" fill="#46BBE6"/></svg>