<!-- by TradingView --><svg width="56" height="56" viewBox="0 0 56 56" xmlns="http://www.w3.org/2000/svg"><path fill="#F0F3FA" d="M0 0h56v56H0z"/><path d="m26.92 12 3.48 1.84 3.65 1.95.89.47 4.69 2.49a6.02 6.02 0 0 1 2.92 2.86c.24.48.39 1 .45 1.58v1.07c-.09.73-.3 1.44-.6 2.12-.02.03-.04.03-.06.02l-.48-.35c-.01-.02-.02-.03-.01-.05.53-1.43.41-2.8-.36-4.09a5.36 5.36 0 0 0-.93-1.12 8.49 8.49 0 0 0-2.09-1.43l-3.6-1.9-1.6-.83-7.78-4.08-.01-.02.01-.02 1.33-.51h.1Z" fill="url(#a)"/><path d="m22.94 13.72 1.55.81 4.99 2.64 1.2.64 2.33 1.22 2.19 1.17 1.64.87c.6.32 1.12.65 1.56 1.01a5.53 5.53 0 0 1 1.5 1.77c.37.7.54 1.44.54 2.23 0 .62-.13 1.24-.37 1.83 0 .02 0 .03.02.04l.6.38c.15-.33.28-.65.37-.97.54-1.74.3-3.36-.72-4.83a6.73 6.73 0 0 0-1.98-1.88l-5.27-2.82-2.42-1.3-1.16-.61-5.1-2.73c-.04-.03-.09-.04-.14-.01a79.84 79.84 0 0 1-1.34.52l.01.02Z" fill="url(#b)"/><path d="m20.44 14.88-.01-.01v-.01l1.36-.52a.12.12 0 0 1 .1 0l1.26.68 6.32 3.38 1.33.7 2 1.08 1.6.85.82.44.74.4a6.12 6.12 0 0 1 2.6 2.5 4.96 4.96 0 0 1 .5 3.63 7.1 7.1 0 0 1-.54 1.54l-.58-.36c-.02-.01-.02-.03-.01-.05a4.57 4.57 0 0 0 .04-3.62 5.11 5.11 0 0 0-1.35-1.8 8.29 8.29 0 0 0-1.43-1.02l-.89-.47-1.64-.88-1.9-1-1.34-.71-8.98-4.75Z" fill="url(#c)"/><path d="m17.93 16.3 2.85 1.48 2.38 1.23 2.07 1.08 4.12 2.13 1.74.91 1.96 1.03.96.64.68.6c.42.4.75.83.99 1.26a4.48 4.48 0 0 1 .28 3.84l.59.37.03-.01a7.56 7.56 0 0 0 .57-1.9c.2-1.5-.21-2.82-1.21-3.98a6.7 6.7 0 0 0-1.25-1.12l-.65-.4-10.83-5.69-2.43-1.28-1.26-.65-.2-.1h-.04l-1.35.52-.02.02s0 .02.02.02Z" fill="url(#d)"/><path d="M17 17.68V29.1c0 .02.01.03.03.01l1.32-.69.01-.02V18.38l-.01-.02-1.32-.7c-.02 0-.03 0-.03.02Z" fill="#FF0E20"/><path d="m20.01 27.74.53-.23.67-.3a.07.07 0 0 0 .04-.07v-7.8a.07.07 0 0 0-.04-.06l-.71-.34-.5-.22-.01.01v9c0 .01 0 .02.02.01Z" fill="url(#e)"/><path d="M23.9 20.6v5.33c0 .03-.02.05-.05.06l-1.13.35-.06-.01a.06.06 0 0 1-.03-.06v-6.03c0-.03 0-.04.03-.06a.06.06 0 0 1 .06 0l1.14.36c.03.01.04.03.04.06Z" fill="url(#f)"/><path d="M26.4 21.78v2.98c0 .02 0 .03-.02.04l-1.19.2c-.03 0-.04 0-.04-.03v-3.4c0-.03.01-.04.04-.03l1.19.2c.02 0 .03.02.03.04Z" fill="url(#g)"/><path d="M28.12 25.75c.14.01.27.04.37.1l1.57.74a239.65 239.65 0 0 1 3.13 1.57l1.18.65.59.4c.02 0 .03 0 .04-.02l.43-.74c0-.03 0-.04-.02-.06l-.92-.51-1.26-.72a371.91 371.91 0 0 0-1.96-1.12 8.1 8.1 0 0 0-1.15-.59 5.29 5.29 0 0 0-1.56-.45c-.5-.06-.93-.02-1.3.14-.41.18-.73.47-.96.88a.06.06 0 0 1-.05.03c-.52.06-1 .2-1.45.44-.5.27-.89.65-1.15 1.16-.01.03-.04.05-.07.04l-.51-.08c-.36 0-.7.05-1.02.17-.31.12-.58.29-.78.52-.25.28-.43.58-.53.9l-.03.03-.54.15-.63.22a5.4 5.4 0 0 0-2.5 1.76.2.2 0 0 0-.04.1v13.52l.01.02h.02l1.3-.69c.02 0 .03-.02.03-.03V32.03c0-.17.03-.32.08-.47.22-.57.6-1 1.13-1.25.25-.1.5-.15.75-.17a3.6 3.6 0 0 1 1.79.43l.73.38 1.73.93 3.9 2.1c.61.35 1.26.57 1.95.66.46.06.88-.01 1.28-.22a1.89 1.89 0 0 0 .38-.27c.04-.03.05-.07.03-.12l-.18-.35c-.01-.02-.04-.03-.07-.02-.32.09-.65.1-.98.04a16.9 16.9 0 0 0-.42-.07 8.1 8.1 0 0 1-1.96-.81l-5.58-3.07a180.16 180.16 0 0 0-1.1-.64.2.2 0 0 1-.03-.12c.01-.26.12-.43.32-.51l.25-.1c.13-.02.32-.02.55 0 .27 0 .48.05.64.13l1.3.69 4.19 2.19a87.44 87.44 0 0 0 2 1.01c.55.26 1.13.4 1.72.44.4.01.73-.1 1.02-.34a.11.11 0 0 0 .03-.11 1.39 1.39 0 0 0-.07-.24.04.04 0 0 0-.04-.03 3.94 3.94 0 0 1-.95-.14 8.46 8.46 0 0 1-1.64-.7l-6.23-3.37c-.22-.14-.22-.38-.02-.72.4-.18.79-.16 1.2.05l3.27 1.64 1.66.84 1.58.8.2.1c.35.18.62.3.8.37.26.08.51.13.76.14.28.01.53-.03.74-.13a.1.1 0 0 0 .06-.07l.13-.4c.01-.04 0-.06-.03-.06l-1.62-.5-.96-.4-1.57-.86-1.65-.9a231.38 231.38 0 0 0-1.92-1.07.43.43 0 0 1-.18-.15.99.99 0 0 1-.12-.32.48.48 0 0 1 .04-.33c.1-.18.39-.24.87-.2Z" fill="url(#h)"/><path d="m20 30.82.61.41.6.42c.03.02.04.04.04.07v11.23a.1.1 0 0 1-.05.1l-.53.33-.65.42H20l-.01-.02V30.83c0-.01 0-.02.02 0Z" fill="url(#i)"/><path d="M23.9 32.85v8.64c0 .02 0 .03-.03.04l-1.17.57h-.05a.04.04 0 0 1-.02-.05v-9.83l.02-.04h.05l1.18.62.02.05Z" fill="url(#j)"/><path d="M26.4 34.08v6.46l-.01.03-1.2.44c-.03 0-.04 0-.04-.03V33.6l.01-.03h.03l1.2.47.02.03Z" fill="url(#k)"/><defs><linearGradient id="a" x1="18.14" y1="25.28" x2="42.01" y2="25.28" gradientUnits="userSpaceOnUse"><stop offset=".21" stop-color="#EDFD2D"/><stop offset=".38" stop-color="#73FF24"/><stop offset=".58" stop-color="#67F6FF"/><stop offset=".72" stop-color="#264BFE"/><stop offset="1" stop-color="#C957FC"/></linearGradient><linearGradient id="b" x1="18.14" y1="25.28" x2="42.01" y2="25.28" gradientUnits="userSpaceOnUse"><stop offset=".21" stop-color="#EDFD2D"/><stop offset=".38" stop-color="#73FF24"/><stop offset=".58" stop-color="#67F6FF"/><stop offset=".72" stop-color="#264BFE"/><stop offset="1" stop-color="#C957FC"/></linearGradient><linearGradient id="c" x1="18.14" y1="25.28" x2="42.01" y2="25.28" gradientUnits="userSpaceOnUse"><stop stop-color="#FF0E20"/><stop offset=".21" stop-color="#EDFD2D"/><stop offset=".38" stop-color="#73FF24"/><stop offset=".58" stop-color="#67F6FF"/><stop offset=".72" stop-color="#264BFE"/><stop offset="1" stop-color="#C957FC"/></linearGradient><linearGradient id="d" x1="18.14" y1="25.28" x2="42.01" y2="25.28" gradientUnits="userSpaceOnUse"><stop stop-color="#FF0E20"/><stop offset=".21" stop-color="#EDFD2D"/><stop offset=".38" stop-color="#73FF24"/><stop offset=".58" stop-color="#67F6FF"/><stop offset=".72" stop-color="#264BFE"/><stop offset="1" stop-color="#C957FC"/></linearGradient><linearGradient id="e" x1="18.14" y1="25.28" x2="42.01" y2="25.28" gradientUnits="userSpaceOnUse"><stop stop-color="#FF0E20"/><stop offset=".21" stop-color="#EDFD2D"/></linearGradient><linearGradient id="f" x1="18.14" y1="25.28" x2="42.01" y2="25.28" gradientUnits="userSpaceOnUse"><stop stop-color="#FF0E20"/><stop offset=".21" stop-color="#EDFD2D"/><stop offset=".38" stop-color="#73FF24"/></linearGradient><linearGradient id="g" x1="18.14" y1="25.28" x2="42.01" y2="25.28" gradientUnits="userSpaceOnUse"><stop offset=".21" stop-color="#EDFD2D"/><stop offset=".38" stop-color="#73FF24"/></linearGradient><linearGradient id="h" x1="18.14" y1="25.28" x2="42.01" y2="25.28" gradientUnits="userSpaceOnUse"><stop stop-color="#FF0E20"/><stop offset=".21" stop-color="#EDFD2D"/><stop offset=".38" stop-color="#73FF24"/><stop offset=".58" stop-color="#67F6FF"/><stop offset=".72" stop-color="#264BFE"/></linearGradient><linearGradient id="i" x1="18.14" y1="25.28" x2="42.01" y2="25.28" gradientUnits="userSpaceOnUse"><stop stop-color="#FF0E20"/><stop offset=".21" stop-color="#EDFD2D"/></linearGradient><linearGradient id="j" x1="18.14" y1="25.28" x2="42.01" y2="25.28" gradientUnits="userSpaceOnUse"><stop stop-color="#FF0E20"/><stop offset=".21" stop-color="#EDFD2D"/><stop offset=".38" stop-color="#73FF24"/></linearGradient><linearGradient id="k" x1="18.14" y1="25.28" x2="42.01" y2="25.28" gradientUnits="userSpaceOnUse"><stop offset=".21" stop-color="#EDFD2D"/><stop offset=".38" stop-color="#73FF24"/></linearGradient></defs></svg>