<!-- by TradingView --><svg width="56" height="56" viewBox="0 0 56 56" xmlns="http://www.w3.org/2000/svg"><path fill="#F0F3FA" d="M0 0h56v56H0z"/><circle cx="28" cy="28" r="16" fill="url(#agzimrnvq)"/><path d="M43.97 29.02a16.28 16.28 0 0 0-1.1-6.92c.44 1.4.8 2.85 1.03 4.23-.5 1.06-1.42 1.72-2.9 1.72-9.97 0-18.42-8.56-21.4-12.84 2.83 11.08 18 15 21.03 15 1.38 0 2.51-.55 3.34-1.19Zm-.39 2.62c-.5 1.04-1.41 1.67-2.87 1.67-9.97 0-18.43-7.83-22.32-11.68 4.22 10.1 17.56 13.85 21.95 13.85.75 0 1.43-.16 2.02-.42.53-1.07.94-2.22 1.22-3.42Zm-3.06 6.32-.55.02c-9.98 0-18.44-6.78-22.33-10.12 3.99 8.26 16.1 11.62 21.13 11.97a16.1 16.1 0 0 0 1.75-1.87ZM38.5 15.93c.93.8 1.76 1.71 2.48 2.71-.1.6-.55 1.36-1.88 1.36-2.06 0-6.08-2.39-9.1-6 2.03 1.42 6.5 4.25 8.08 4.25.88 0 .47-1.57 0-2.25.1-.03.26-.05.42-.07Zm2.95 3.4c.48.74.9 1.52 1.25 2.34.17 1.43-.15 2.98-2.9 2.98-7.28 0-13.27-5.94-15.62-10.21 7.26 8.33 14.63 8.33 16.44 8.33h.02c1.33 0 1.12-2.18.8-3.44Zm-8.7 23.96c-3.26-.6-8.23-2.41-13.14-8.06a19.95 19.95 0 0 0 10.36 8.65c.96-.12 1.88-.32 2.77-.6Z" fill="#30466C"/><defs><linearGradient id="agzimrnvq" x1="41.09" y1="17.32" x2="16.65" y2="39.01" gradientUnits="userSpaceOnUse"><stop stop-color="#49A0D5"/><stop offset=".29" stop-color="#D2E3F4"/><stop offset=".64" stop-color="#0085C6"/><stop offset="1" stop-color="#283A60"/></linearGradient></defs></svg>