<!-- by TradingView --><svg width="56" height="56" viewBox="0 0 56 56" xmlns="http://www.w3.org/2000/svg"><path fill="#F0F3FA" d="M0 0h56v56H0z"/><path d="M26.6 12.18a.66.66 0 0 0-.54-.02.37.37 0 0 1-.16.03c-.2 0-.38.02-.56.04a15.46 15.46 0 0 0-12.79 11.48c-.03.12-.1.5-.21 1.17-.07.4-.17.77-.3 1.15a15.5 15.5 0 0 1 14.5-14c.04 0 .06.02.07.05l-.02.1Z" fill="#73201A"/><path d="M32.1 12.73a15.96 15.96 0 0 1 7.4 5.17 15.16 15.16 0 0 1 3.32 8.2c.03.25-.07.4-.32.43h-.04c-.25.04-.38-.06-.4-.32a14.56 14.56 0 0 0-2.92-7.58c-.17-.23-.4-.5-.68-.78l-.74-.74a13.17 13.17 0 0 0-7.06-3.82l-2.21-.28a.11.11 0 0 1-.1-.1v-.8c0-.07.03-.1.1-.1 1.29.05 2.5.28 3.65.72ZM26.6 12.18v.6c-.12.08-.2.14-.33.15A14.55 14.55 0 0 0 12.9 26.3c0 .06-.03.1-.06.14a.43.43 0 0 0-.08.13c-.23.04-.45.04-.68 0-.05 0-.08-.04-.08-.1l.04-.45c.12-.38.22-.76.29-1.15l.21-1.17a15.46 15.46 0 0 1 12.79-11.48c.18-.02.37-.04.56-.04.06 0 .11 0 .16-.03a.66.66 0 0 1 .53.02Z" fill="#D92329"/><path d="M30.66 13.29c2.72.52 5.08 1.8 7.06 3.82l.74.74c.28.29.5.55.68.78a14.57 14.57 0 0 1 2.91 7.58c.03.26.16.36.41.32h.04c.25-.04.35-.18.32-.44a15.16 15.16 0 0 0-3.32-8.2 15.96 15.96 0 0 0-7.4-5.16c2.77.82 5.12 2.32 7.03 4.52a15.4 15.4 0 0 1 3.84 9.35.05.05 0 0 1-.03.02h-.95c-.03 0-.04-.02-.04-.04a14.3 14.3 0 0 0-3.55-8.64 14.99 14.99 0 0 0-7.74-4.65Z" fill="#73201A"/><path d="M37.17 17.8a13.73 13.73 0 0 1 3.97 8.73.17.17 0 0 1-.09.1.17.17 0 0 1-.06.01h-.6a.24.24 0 0 1-.24-.21 12.69 12.69 0 0 0-11.57-11.58.24.24 0 0 1-.22-.24V14a.17.17 0 0 1 .18-.17c3.25.23 6.34 1.68 8.63 3.97ZM18.51 18.5a12.74 12.74 0 0 0-3.67 7.88.24.24 0 0 1-.25.22H14a.17.17 0 0 1-.16-.18A13.7 13.7 0 0 1 26.5 13.84a.17.17 0 0 1 .11.15v.6c0 .06-.02.12-.07.17a.24.24 0 0 1-.15.07c-3 .28-5.75 1.55-7.87 3.67Z" fill="#50461A"/><path d="M18.44 18.42a12.75 12.75 0 0 0-3.69 7.92.23.23 0 0 1-.23.21h-.37c-.15 0-.21-.07-.2-.21a13.65 13.65 0 0 1 12.38-12.4c.14-.02.22.05.21.19v.37a.23.23 0 0 1-.22.24 12.66 12.66 0 0 0-7.88 3.68ZM37.1 17.9a13.68 13.68 0 0 1 3.94 8.48c.01.15-.05.22-.2.22h-.37a.24.24 0 0 1-.24-.22 12.78 12.78 0 0 0-11.58-11.62.24.24 0 0 1-.22-.24v-.37c0-.14.07-.21.22-.2 3.17.26 6.2 1.68 8.45 3.94Z" fill="#FBEF14"/><path d="M26.6 15.82a.74.74 0 0 0-.44-.09 11.94 11.94 0 0 0-10.39 10.58.2.2 0 0 0 .05.15.19.19 0 0 0 .14.06h.38a.24.24 0 0 0 .23-.2c.12-.53.15-.96.28-1.47a10.84 10.84 0 0 1 9.75-8.3c.01.06-.03.1-.12.11a10.84 10.84 0 0 0-9.82 9.78c-.02.1-.07.16-.18.16h-.7a.15.15 0 0 1-.15-.11v-.06c.56-4.2 2.56-7.3 5.98-9.3a11.73 11.73 0 0 1 4.83-1.51c.07-.01.11 0 .14.03.03.04.04.1.02.17ZM39.06 26.61h-.09c-.07-.03-.06-.04.03-.06a.31.31 0 0 0 .15-.05c.04-.03.06-.08.05-.14 0-.08-.04-.33-.1-.74a11.46 11.46 0 0 0-4.79-7.7 11.59 11.59 0 0 0-5.56-2.14c-.21-.02-.32.07-.32.3v.16c0 .2.1.32.3.36a10.75 10.75 0 0 1 8.53 5.92c.6 1.18.99 2.47 1.15 3.88 0 .04.02.07.04.1.02.02.04.06.04.1l-.06.01c-.07.02-.1 0-.1-.07a10.81 10.81 0 0 0-5.28-8.38c-1.31-.8-2.85-1.3-4.6-1.5-.06 0-.08-.03-.08-.08v-.84c0-.07.03-.1.09-.09 2.41.23 4.51 1.05 6.31 2.45a11.8 11.8 0 0 1 4.6 8.39c0 .05-.02.1-.07.11a.41.41 0 0 1-.24.01Z" fill="#083D55"/><path d="M26.6 15.82v.72a10.84 10.84 0 0 0-9.75 8.3c-.13.52-.16.95-.28 1.49a.24.24 0 0 1-.23.2h-.38a.19.19 0 0 1-.14-.07.2.2 0 0 1-.05-.15 11.94 11.94 0 0 1 10.39-10.58c.17-.02.29.03.44.1ZM39.06 26.61c-.2.03-.39.02-.57-.01a.19.19 0 0 0-.04-.1.17.17 0 0 1-.04-.1 11.2 11.2 0 0 0-1.15-3.88 10.75 10.75 0 0 0-8.54-5.92c-.2-.04-.3-.15-.3-.36v-.17c0-.22.12-.31.33-.29 2.07.24 3.92.95 5.56 2.14a11.46 11.46 0 0 1 4.9 8.44c0 .06-.02.1-.06.14a.31.31 0 0 1-.15.05c-.1.02-.1.03-.03.05l.1.01Z" fill="#0A9DDC"/><path d="M20.4 20.37a10 10 0 0 1 6.14-2.89c.04 0 .06.02.06.05v.87c0 .03-.02.05-.05.06-2.19.29-4 1.16-5.46 2.61a9.25 9.25 0 0 0-2.63 5.47c0 .03-.02.05-.06.05h-.86c-.04 0-.05-.02-.05-.06a10.09 10.09 0 0 1 2.9-6.16ZM34.59 20.38a10.09 10.09 0 0 1 2.9 6.16c0 .04-.02.06-.05.06h-.87c-.03 0-.05-.01-.05-.05a9.25 9.25 0 0 0-2.63-5.46 9.19 9.19 0 0 0-5.46-2.62c-.03 0-.05-.02-.05-.05v-.87c0-.04.02-.05.06-.05 2.31.21 4.5 1.23 6.15 2.88Z"/><path fill-rule="evenodd" d="m23.76 28.92.37-.61.02-.03.04-.01h.46c.02 0 .04.01.05.03.02.02.03.04.03.07l.02.5c0 .04 0 .06.02.08l.06.03h.48l.03-.01.02-.03.02-.03v-.04l-.1-2.27v-.04a.1.1 0 0 0-.03-.03l-.02-.02-.03-.01-.66.05s-.02 0-.03.02a.09.09 0 0 0-.02.02l-1.33 2.24-.02.06v.05l.04.05.04.01.49-.04.03-.01.02-.03Zm1-1.55c-.03-.1-.06-.12-.12-.03l-.14.24a.16.16 0 0 0-.01.13l.04.05.05.02c.03 0 .07-.03.11-.06.07-.06.1-.18.06-.35ZM22 28.1c-.05.2.02.3.23.3.02.01.07-.01.14-.06a.5.5 0 0 0 .15-.15.67.67 0 0 0 .1-.2l.34-1.37c.02-.08.06-.12.13-.12h.41l.04.01.02.03.01.04v.05l-.37 1.45c-.24.9-1.05 1.09-1.63.78a.47.47 0 0 1-.2-.26.69.69 0 0 1-.02-.4l.39-1.53a.25.25 0 0 1 .07-.12.15.15 0 0 1 .1-.05h.36c.09 0 .12.06.09.16L22 28.1Zm6.9-.93a.42.42 0 0 0-.26-.06c-.05 0-.1.04-.11.12l-.42 1.66c-.02.07-.05.1-.1.1H27.54a.08.08 0 0 1-.03-.03.12.12 0 0 1 0-.08l.56-2.25c.02-.07.05-.11.1-.11.32-.02.64-.03.95 0 .22 0 .36.07.44.18.04.06.05.12.05.2 0 .44-.16.77-.49.98-.05.04-.07.09-.07.16l.04.84c0 .08-.03.12-.09.12h-.44c-.07 0-.1-.05-.1-.14V27.8c0-.04.01-.09.03-.12a.11.11 0 0 1 .1-.05c.18 0 .3-.1.36-.28.02-.08 0-.14-.06-.18Zm4.71 1.7a71.96 71.96 0 0 1 .54-2.06c-.01.1 0 .17.06.22.07.07.16.06.25.06h.14c.06 0 .08.05.06.13l-.42 1.66a.11.11 0 0 0 .01.08l.02.03h.48c.06 0 .1-.04.13-.12l.43-1.7c.01-.06.04-.1.1-.1h.33c.1 0 .17-.06.2-.19l.05-.2c.03-.12 0-.18-.1-.18h-2.15c-.06 0-.1.04-.12.12l-.28 1.13c-.04.14-.07.14-.1 0l-.2-1.13c-.02-.08-.06-.12-.12-.12h-.54c-.06 0-.1.04-.11.1l-.56 2.23c-.03.11 0 .17.09.17h.3c.08 0 .13-.05.16-.15l.23-.94c.06-.23.11-.23.16 0l.18.94c.01.1.06.15.13.15h.53c.06 0 .1-.05.12-.13Zm-12.79 0c.22-.03.4-.18.3-.5a.32.32 0 0 1 0-.2l.06-.15c.05-.12.1-.25.13-.38.1-.62-.1-.99-.59-1.09-.71-.14-1.25.21-1.63 1.08-.11.26-.12.57-.02.92.19.63 1.25.43 1.68.34l.07-.01Zm-.22-1.66c.16.22.1.64-.14.95-.24.31-.56.39-.72.17-.16-.22-.1-.64.14-.95.24-.31.56-.39.72-.17Zm4.94 1.61.55-2.16c.02-.07.06-.11.12-.12l.22-.01c.64-.06 1.62-.15 1.24 1.24-.34 1.3-1.04 1.26-1.86 1.22l-.2-.01c-.07 0-.1-.06-.07-.16Zm.74-.57.24-.96c.04-.16.13-.23.25-.2.1.01.18.04.24.09.04.03.07.08.09.14a.4.4 0 0 1 0 .17c-.1.66-.36.96-.75.91-.07 0-.1-.06-.07-.15Zm4.63.15c0-.08-.03-.12-.09-.12h-.43c-.03 0-.05 0-.07.02a.18.18 0 0 0-.06.06l-.26.48c-.06.1-.14.16-.24.16h-.36c-.1-.01-.12-.07-.06-.18l1.3-2.22a.2.2 0 0 1 .07-.06.14.14 0 0 1 .07-.02l.57-.02c.07 0 .1.04.1.13l.1 2.22a.2.2 0 0 1 0 .05c0 .02-.02.04-.03.05a.11.11 0 0 1-.03.04.08.08 0 0 1-.04 0h-.48a.11.11 0 0 1-.03-.04.16.16 0 0 1-.03-.05.2.2 0 0 1 0-.05v-.45Zm-.25-.8.15-.26c.06-.1.1-.09.13.04.01.11 0 .2-.04.28-.06.12-.13.14-.22.07-.04-.04-.05-.08-.02-.13Z"/><path d="M22.3 41.08a13.74 13.74 0 0 1-7.01-5.57 14.4 14.4 0 0 1-2.29-6c-.04-.34-.06-.6-.06-.8.01-.13-.05-.2-.18-.22l-.4-.04c-.13-.02-.2.04-.2.17 0 .82.13 1.72.4 2.7.27.92.45 1.51.56 1.78.58 1.42 1.32 2.7 2.21 3.86.68.88 1.43 1.66 2.26 2.34a17.34 17.34 0 0 0 5.6 3.05 14.7 14.7 0 0 1-7.3-4.55 15.58 15.58 0 0 1-3.87-9.42H12.96c.03 0 .05 0 .05.04.2 2.6.97 4.93 2.31 6.97a14.98 14.98 0 0 0 6.98 5.7Z" fill="#73201A"/><path d="M18.52 36.49a12.68 12.68 0 0 0 7.89 3.66c.06 0 .11.03.15.08.04.04.06.1.06.16v.6a.17.17 0 0 1-.1.16 13.62 13.62 0 0 1-8.7-3.95 13.72 13.72 0 0 1-3.98-8.72.17.17 0 0 1 .09-.1l.06-.01h.6a.24.24 0 0 1 .24.21 12.77 12.77 0 0 0 3.69 7.9Z" fill="#50461A"/><path d="M19.81 35.2a11 11 0 0 0 6.7 3.14c.07 0 .1.04.1.11v.81a.1.1 0 0 1-.06.09 11.82 11.82 0 0 1-7.46-3.44 11.9 11.9 0 0 1-3.44-7.47.1.1 0 0 1 .1-.07h.8c.06 0 .1.04.11.1a11.1 11.1 0 0 0 3.15 6.72Z" fill="#083D55"/><path d="M21.1 33.9a9.2 9.2 0 0 0 5.45 2.62c.04 0 .05.02.05.05v.87c0 .04-.02.05-.05.05a10.03 10.03 0 0 1-9.06-9.05c0-.04.01-.06.05-.06h.86c.04 0 .06.01.06.05a9.25 9.25 0 0 0 2.63 5.47ZM36.57 28.35h.89c.02 0 .03 0 .02.03a10.16 10.16 0 0 1-3.7 6.93c-.3.25-.5.4-.88.4h-1.33c-.18 0-.2-.05-.03-.14a9.17 9.17 0 0 0 4.96-7.17c.01-.04.03-.05.07-.05Z"/><path d="M39.29 28.5a11.97 11.97 0 0 1-3.08 7.02.56.56 0 0 1-.42.19h-.94c-.18 0-.2-.06-.07-.18a10.92 10.92 0 0 0 3.53-7.05c0-.08.05-.13.14-.13h.71c.1 0 .14.05.13.14Z" fill="#083D55"/><path d="M40.27 28.37v.07c-.03.02-.05.05-.06.08a12.82 12.82 0 0 1-2.77 6.95c-.07.1-.05.14.07.14h.66a.4.4 0 0 0 .34-.17 13.74 13.74 0 0 0 2.54-6.94.13.13 0 0 0-.09-.08H40.81v-.07l.25.04c.05 0 .08.03.07.09a13.69 13.69 0 0 1-2.57 7.05.44.44 0 0 1-.36.18h-.86c-.14 0-.17-.05-.08-.17a12.55 12.55 0 0 0 2.85-7.06c.01-.09.07-.12.16-.1Z"/><path d="M40.81 28.35v.08l-.54.01v-.07l.54-.02Z" fill="#858448"/><path d="M39.53 35.54a14.5 14.5 0 0 0 2.42-7.15c0-.03.02-.04.04-.04h.92c.04 0 .05.02.05.05a15.61 15.61 0 0 1-2.23 7.13.36.36 0 0 1-.32.19h-.78c-.14 0-.18-.06-.1-.18Z" fill="#73201A"/><path d="M17.89 37.12a13.62 13.62 0 0 1-3.94-8.46c0-.14.06-.21.2-.21h.37a.24.24 0 0 1 .24.21 12.73 12.73 0 0 0 11.56 11.57c.06 0 .11.03.15.07.04.05.07.1.07.16v.38c0 .14-.07.2-.22.2a13.53 13.53 0 0 1-8.43-3.92Z" fill="#FBEF14"/><path d="m19.74 35.25.03.03.01.03c1.82 1.76 4 2.8 6.55 3.1a.2.2 0 0 1 .18.2v.42c0 .12-.06.18-.17.18-.17.01-.4 0-.67-.05a11.83 11.83 0 0 1-9.9-10.52c.01-.11.07-.17.18-.17h.42a.2.2 0 0 1 .21.18 11.11 11.11 0 0 0 3.16 6.6ZM38.4 28.58c0-.1.07-.16.17-.16h.4c.15 0 .22.08.2.23a11.68 11.68 0 0 1-2.98 6.76.57.57 0 0 1-.44.2h-.64c-.17 0-.2-.06-.07-.18 1.88-1.82 3-4.1 3.36-6.85Z" fill="#0A9DDC"/><path d="m40.27 28.44.54-.01.1-.02a.13.13 0 0 1 .1.04.13.13 0 0 1 .04.1 13.74 13.74 0 0 1-2.55 6.89.4.4 0 0 1-.33.17h-.66c-.12 0-.14-.04-.07-.14 1.6-2 2.53-4.32 2.77-6.95 0-.03.03-.06.06-.08Z" fill="#FBEF14"/><path d="M42.8 28.9c.04.05.05.12.04.2l-.37 1.84a14.55 14.55 0 0 1-1.76 4.44.46.46 0 0 1-.42.24h-.4c-.2 0-.24-.08-.13-.24a14.53 14.53 0 0 0 2.08-5.2c.07-.4.15-.93.23-1.6.01-.06.05-.1.1-.12.2-.06.41-.05.63.05a.12.12 0 0 1 .07.12c0 .08-.01.14-.04.15-.04.02-.05.06-.02.11ZM22.3 41.08c1.42.46 2.82.75 4.2.88.07 0 .1.04.1.12v.78c0 .09-.04.13-.12.12l-1.2-.14c.01-.19-.14-.22-.46-.09a5.21 5.21 0 0 1-1.63-.4c-2.1-.69-3.96-1.7-5.6-3.05a14.21 14.21 0 0 1-2.25-2.34 16.64 16.64 0 0 1-2.22-3.86c-.1-.27-.29-.86-.55-1.79a9.84 9.84 0 0 1-.4-2.69c0-.13.06-.19.2-.17l.39.04c.13.02.2.1.19.22-.01.2 0 .46.05.8a14.4 14.4 0 0 0 2.3 6 13.74 13.74 0 0 0 7 5.57Z" fill="#D92329"/><path d="M42.89 36.53H28.43a.08.08 0 0 0-.08.08v.83c0 .04.04.08.08.08h14.46c.04 0 .08-.04.08-.08v-.83a.08.08 0 0 0-.08-.08Z"/><path d="M42.95 38.53a.22.22 0 0 1-.13-.06.14.14 0 0 0-.1-.03H28.63a.18.18 0 0 0-.18.14c-.06.25.01.5.22.74-.3.14-.4-.16-.31-.89a.1.1 0 0 1 .1-.1h14.42c.02 0 .04.01.05.03a.1.1 0 0 1 .04.05c0 .03 0 .07-.02.12Z" fill="#083D55"/><path d="M42.95 38.53c.06.25.06.5 0 .71-.01.06-.05.08-.1.08H28.67c-.2-.25-.28-.5-.22-.74a.19.19 0 0 1 .18-.14h14.1l.09.03c.04.04.09.06.13.06Z" fill="#0A9DDC"/><path d="M42.72 40.26h-14.1a.14.14 0 0 0-.14.14v.5c0 .08.07.14.15.14h14.09c.08 0 .14-.06.14-.14v-.5a.14.14 0 0 0-.14-.14Z" fill="#FBEF14"/><path d="M42.9 41.97H28.42a.09.09 0 0 0-.09.08v.86c0 .05.04.09.09.09H42.9c.05 0 .1-.04.1-.09v-.86a.09.09 0 0 0-.1-.08Z" fill="#D92329"/></svg>