<!-- by TradingView --><svg width="56" height="56" viewBox="0 0 56 56" xmlns="http://www.w3.org/2000/svg"><path fill="#3D507B" d="M0 0h56v56H0z"/><path d="M15.16 33.1a6 6 0 1 1 1.54-1.37L19 34h-2.93l-.91-.9Zm-.62-3.5a3 3 0 1 0-1.65 1.27L11 29h2.93l.6.6ZM28 23.08A5.52 5.52 0 0 0 24.72 22 5.87 5.87 0 0 0 19 28c0 3.31 2.56 6 5.72 6 1.22 0 2.35-.4 3.28-1.08V30.1a3.8 3.8 0 0 1-2.5.9c-1.93 0-3.5-1.34-3.5-3s1.57-3 3.5-3c.98 0 1.86.34 2.5.9v-2.82ZM45 22h-3v12h8v-3h-5v-9ZM30.58 22 35 28.74 39.42 22 41 34h-3l-.52-5.5L35 33.02l-2.48-4.52L32 34h-3l1.58-12Z" fill="#fff"/></svg>