<!-- by TradingView --><svg width="56" height="56" viewBox="0 0 56 56" xmlns="http://www.w3.org/2000/svg"><path fill="#F0F3FA" d="M0 0h56v56H0z"/><path fill-rule="evenodd" d="M16 10h24v29H16V10Zm10.43 9.2-.24-.43a.2.2 0 0 1 .01-.22c.88-1.31.8-2.46-.24-3.45a2.76 2.76 0 0 0-3.33-.21c-2.1 1.45-1 4.48 1.53 4.51.18 0 .23.08.14.23-.23.39-.4.81-.5 1.26-.05.16-.15.23-.32.2-.28-.04-.46.07-.54.34a.25.25 0 0 1-.05.1.26.26 0 0 1-.2.08c-.04 0-.08 0-.12-.02l-1.08-.48c-.1-.04-.12-.1-.1-.2l.1-.26c.1-.25-.05-.48-.29-.56a.3.3 0 0 0-.26.02l-.3.17a.23.23 0 0 1-.3-.05l-.68-.88c-.07-.08-.06-.17.02-.25l.26-.29c.28-.33-.02-.7-.42-.67-.26.03-.4-.08-.42-.32l-.1-.88c-.01-.12.04-.2.15-.26.1-.05.2-.09.32-.1.1-.02.18-.07.24-.15.09-.12.1-.25.05-.38a.34.34 0 0 0-.14-.18l-.31-.18a.2.2 0 0 1-.08-.25l.47-.99c.05-.1.14-.15.26-.12l.39.06c.24.02.4-.07.45-.27a.33.33 0 0 0-.03-.26l-.17-.33a.18.18 0 0 1-.01-.13.18.18 0 0 1 .07-.1l.93-.65a.22.22 0 0 1 .2-.02c.11.05.2.11.25.2l.1.11a.4.4 0 0 0 .15.06c.19.04.34 0 .47-.14a.22.22 0 0 0 .06-.12l.04-.42c0-.11.07-.17.18-.18L24.2 12c.15-.01.24.05.26.18l.05.29c.02.08.06.15.11.2.06.06.13.1.21.11.08.02.16.01.24-.01a.41.41 0 0 0 .19-.14l.24-.33a.21.21 0 0 1 .11-.08l.15.01 1.02.44c.1.05.15.13.14.25l-.03.15c-.06.27-.12.54.25.67.1.04.18.03.27-.02l.29-.16c.1-.07.2-.05.27.04l.74.88c.07.09.07.17 0 .26l-.27.36a.33.33 0 0 0 .08.47c.05.04.1.06.17.07l.48.06c.12.02.2.09.21.21l.14 1.04c0 .05 0 .1-.04.14a.23.23 0 0 1-.12.09l-.35.1a.4.4 0 0 0-.18.12.36.36 0 0 0-.06.4c.04.06.09.12.15.16l.35.21c.05.03.08.06.1.1.03.05.04.1.04.15-.1 1.25-.45 1.62-1.13 2.35l-.13.13a2.96 2.96 0 0 0-.39 3.55c1.29 2.19 4.66 2.02 5.76-.17 1.08-2.16-.51-4.4-2.98-4.44-.15 0-.19-.06-.11-.18.37-.59.6-1.2.7-1.86.02-.1.08-.14.19-.1.42.15.7 0 .86-.42a.25.25 0 0 1 .14-.15.27.27 0 0 1 .2 0l1.34.53c.15.06.2.17.15.31l-.15.53a.2.2 0 0 0 .04.18c.3.37.65.4 1.03.1.15-.12.29-.11.4.04l.87 1.11c.11.14.1.26-.06.36-.12.08-.23.17-.31.27a.49.49 0 0 0-.06.54c.03.09.1.16.19.21.08.05.18.08.28.08h.4c.06 0 .12.02.16.06a.2.2 0 0 1 .07.13l.14 1.43c.01.12-.05.2-.18.23l-.54.14a.28.28 0 0 0-.18.14c-.17.3-.08.65.26.8.1.04.2.1.3.18a.2.2 0 0 1 .06.11.2.2 0 0 1-.01.13L36.14 26c-.05.1-.13.15-.25.15a1.56 1.56 0 0 1-.53-.13.28.28 0 0 0-.28.03c-.12.1-.23.2-.31.3a.24.24 0 0 0-.02.27l.24.48c.03.06.04.12.02.18a.27.27 0 0 1-.1.15l-1.16.8a.28.28 0 0 1-.4-.07c-.25-.4-.57-.5-.97-.29a.29.29 0 0 0-.1.1.27.27 0 0 0-.05.13l-.04.54c-.01.13-.09.2-.23.22l-1.44.14a.27.27 0 0 1-.17-.05.24.24 0 0 1-.1-.14l-.1-.43a.47.47 0 0 0-.15-.25.53.53 0 0 0-.56-.08.5.5 0 0 0-.22.2l-.21.35c-.08.14-.2.18-.35.11l-1.25-.5c-.25-.11-.3-.28-.18-.5.2-.37.1-.65-.28-.84a.3.3 0 0 0-.27 0l-.52.22c-.12.05-.21.03-.29-.07L25.06 26c-.14-.17-.12-.33.04-.48l.23-.22a.47.47 0 0 0 .13-.51.5.5 0 0 0-.17-.23.54.54 0 0 0-.26-.1l-.47-.05c-.13-.02-.2-.08-.22-.2l-.17-1.31c0-.06 0-.11.04-.16a.26.26 0 0 1 .13-.1l.6-.2a.3.3 0 0 0 .18-.16c.14-.37 0-.63-.41-.78-.23-.09-.29-.23-.2-.45l.55-1.18a.32.32 0 0 1 .32-.18c.05 0 .09.02.13.04.41.23.72.13.93-.29a.23.23 0 0 0 0-.22Zm4.46 12.85c.48.08.67.36.73.77 0 .05.04.1.08.13s.09.05.14.05h1c.12 0 .17-.06.16-.17-.14-.84-.51-1.26-1.13-1.55-1.03-.48-2.54-.37-3.32.55-.55.66-.55 1.34-.55 2.09v.35c-.03 1.74.98 2.88 2.98 2.71 1.27-.1 1.93-.67 1.99-1.9 0-.04-.02-.08-.07-.08h-1.24c-.05 0-.08.02-.07.07.1 1.42-1.87 1.25-2.1-.04a6.4 6.4 0 0 1-.04-1.9c.1-.86.59-1.22 1.44-1.08ZM38 36.12v.75c0 .07-.06.13-.13.13h-3.74a.13.13 0 0 1-.1-.04.13.13 0 0 1-.03-.1v-5.73a.13.13 0 0 1 .08-.12l.05-.01 1.11.02a.13.13 0 0 1 .13.13v4.74c0 .07.06.11.13.11h2.35c.07 0 .15.06.15.12Zm-14.95-.1c-.06.2-.11.34-.15.4-.17.29-.26.27-.27-.06l-.02-.32c-.01-.7-.04-1.46-.85-1.77a.1.1 0 0 1-.06-.09.1.1 0 0 1 .04-.1c.4-.25.77-.63.78-1.15 0-1.14-.62-1.77-1.88-1.87-.75-.07-1.58-.08-2.49-.03-.1 0-.15.05-.15.16v5.73c0 .05.02.07.07.07h1.2a.08.08 0 0 0 .08-.08l-.02-1.75c0-.32.16-.47.47-.46l.68.02c.48.02.74.27.76.75l.08 1.3c0 .15.08.22.22.22h2.42c.1 0 .17-.04.2-.15l.19-.82c.02-.12.1-.18.23-.18h1.59c.1 0 .16.05.19.14l.25.88c.03.09.09.13.18.13l1.12.01c.08 0 .1-.04.08-.12l-1.84-5.71c-.03-.11-.1-.16-.22-.16H24.8a.23.23 0 0 0-.21.16l-1.54 4.84Zm-3.91-3.69a.18.18 0 0 1 .05-.12.18.18 0 0 1 .13-.05h.9a.93.93 0 0 1 .61.23c.08.07.15.16.19.26.04.1.06.2.06.3v.09c0 .1-.02.2-.06.3a.8.8 0 0 1-.2.25.93.93 0 0 1-.61.23h-.9a.19.19 0 0 1-.12-.05.18.18 0 0 1-.05-.13v-1.3Zm6.18.53-.56 1.8a.13.13 0 0 0 .06.16l.06.01 1.1.01a.13.13 0 0 0 .13-.1v-.07l-.53-1.81a.13.13 0 0 0-.13-.1.13.13 0 0 0-.13.1Z" fill="#3C489E"/><path d="M16 39h24v7H16v-7Z" fill="#F48320"/><path fill="#D9D9D9" d="M18 41h20v3H18z"/></svg>