<!-- by TradingView --><svg width="56" height="56" viewBox="0 0 56 56" xmlns="http://www.w3.org/2000/svg"><path fill="#F0F3FA" d="M0 0h56v56H0z"/><path fill-rule="evenodd" d="M28 45a17 17 0 1 0 0-34 17 17 0 0 0 0 34Zm0-1a16 16 0 1 0 0-32 16 16 0 0 0 0 32Z" fill="#67686B"/><path d="M22.43 24.5 16 19c0 1.67.56 2.48.83 2.68l4.8 4.01c.53.44.83 1.08.83 1.76V35H23v-9.27c0-.47-.2-.93-.57-1.23Z" fill="#67686B"/><path d="M21.43 26.7 16 22c0 1.7.56 2.51.85 2.71l3.77 3.2c.52.43.83 1.08.83 1.77V35H22v-7.06c0-.48-.21-.94-.57-1.25Z" fill="#67686B"/><path d="M20.39 28.68 16 25c0 1.74.6 2.58.9 2.79l2.63 2.13c.56.45.88 1.12.88 1.83V35H21v-5.04c0-.5-.22-.96-.61-1.28ZM33.57 24.5 40 19c0 1.67-.56 2.48-.83 2.68l-4.8 4.01a2.29 2.29 0 0 0-.83 1.76V35H33v-9.27c0-.47.2-.93.57-1.23Z" fill="#67686B"/><path d="M34.57 26.7 40 22c0 1.7-.56 2.51-.85 2.71l-3.77 3.2a2.31 2.31 0 0 0-.83 1.77V35H34v-7.06c0-.48.21-.94.57-1.25Z" fill="#67686B"/><path d="M35.61 28.68 40 25c0 1.74-.6 2.58-.9 2.79l-2.63 2.13a2.35 2.35 0 0 0-.88 1.83V35H35v-5.04c0-.5.22-.96.61-1.28Z" fill="#67686B"/><path fill="#952536" d="M24 28h1v5h-1zM26 28h1v5h-1zM27.5 28h1v5h-1v-5ZM32 34v1h-8v-1z"/><path fill-rule="evenodd" d="M28.06 24 24 25.84v1.1h8.13v-1.1L28.06 24Zm1.75 2-1.75-.8-1.74.8h3.49Z" fill="#952536"/><path d="M26.44 19 25 24l1.33-.32.97-3.83h1.89v.48l-.63.44.85 2.67 1.15.36-1-3.03.14-.32H31l-.63-.97h-.81l-.52-.48h-2.6Z" fill="#67686B"/><path fill="#952536" d="M29 28h1v5h-1zM31 28h1v5h-1zM34.4 37.85v-1.51c-.02-.14-.05-.2-.18-.23a.83.83 0 0 0-.15 0c-.05 0-.07-.02-.07-.04 0-.03.03-.04.09-.04h.32l.25.01h.99l.17-.02.06-.02c.02 0 .02.02.02.04l-.03.25c0 .04 0 .21-.02.26 0 .02 0 .04-.04.04-.02 0-.03-.02-.03-.05 0-.03 0-.1-.03-.14-.02-.08-.06-.12-.26-.15l-.56-.01c-.02 0-.03.01-.03.04v.99c0 .02 0 .04.03.04h.63c.1-.02.15-.03.2-.07.02-.03.03-.05.05-.05.02 0 .03.01.03.03l-.03.29-.02.26c0 .03 0 .08-.03.08s-.04-.02-.04-.04l-.01-.14c-.02-.08-.08-.14-.22-.15l-.57-.01c-.02 0-.02.01-.02.04V38.45c0 .27.07.33.47.33.1 0 .27 0 .38-.05.1-.05.15-.13.17-.29.01-.04.02-.06.05-.06.03 0 .03.03.03.07 0 .1-.03.36-.05.44-.03.1-.06.1-.22.1h-1.65c-.05 0-.08-.01-.08-.04 0-.02.02-.03.06-.03.06 0 .18 0 .22-.02.08-.01.1-.1.11-.21.02-.17.01-.49.01-.85ZM30.81 37.26h1.34c.01 0 .02 0 .02-.03V36.31c-.01-.14-.04-.2-.15-.23a.64.64 0 0 0-.14 0c-.04 0-.06-.02-.06-.04 0-.03.02-.04.07-.04h.95c.05 0 .07 0 .07.04 0 .02-.02.03-.06.03l-.1.01c-.1.02-.13.1-.13.23v2.39c.02.1.04.2.15.21l.17.02c.04 0 .06.01.06.03 0 .03-.03.04-.07.04h-.98c-.05 0-.08-.01-.08-.04 0-.02.02-.03.06-.03.05 0 .1 0 .12-.02.07-.01.1-.1.1-.22.02-.16.02-.48.02-.84v-.35c0-.02 0-.02-.02-.02h-1.34s-.02 0-.02.02v.35c0 .36 0 .68.02.85.01.1.03.2.14.21l.18.02c.03 0 .05.01.05.03 0 .03-.03.04-.07.04h-.99c-.04 0-.07-.01-.07-.04 0-.02.02-.03.06-.03.05 0 .1 0 .12-.02.07-.01.1-.1.1-.22.02-.16.02-.48.02-.84V36.3c-.01-.14-.04-.2-.15-.23a.64.64 0 0 0-.14 0c-.04 0-.06-.02-.06-.04 0-.03.02-.04.07-.04h.95c.05 0 .07 0 .07.04 0 .02-.02.03-.06.03l-.1.01c-.1.02-.12.1-.13.23V37.23l.01.03ZM26.54 37.83V36.3c-.01-.14-.04-.2-.16-.23a.7.7 0 0 0-.15 0c-.04 0-.06-.02-.06-.04 0-.03.03-.04.08-.04h1.1c.45 0 1.22 0 1.62.45.18.2.36.53.36 1 0 .49-.2.86-.4 1.09-.17.18-.7.46-1.39.46H26.3c-.05 0-.07-.01-.07-.04 0-.02.01-.03.05-.03.06 0 .1 0 .14-.02.07-.01.09-.1.1-.21.02-.17.02-.51.02-.87Zm.46-.76v1.33c.01.1.02.25.05.3.05.07.19.12.48.12.37 0 .78-.08 1-.29.23-.21.3-.57.3-.97 0-.5-.19-.82-.35-.98-.33-.35-.9-.4-1.2-.4l-.23.03c-.04.02-.05.04-.05.08v.78ZM24.79 38h-.81c-.02 0-.03 0-.04.02l-.2.56a.78.78 0 0 0-.05.23c0 .07.04.12.15.12h.05c.05 0 .06 0 .06.03s-.02.04-.06.04l-.4-.01-.42.01c-.05 0-.07 0-.07-.04 0-.02.01-.03.04-.03h.12c.16-.03.23-.16.3-.35l.92-2.43c.05-.1.07-.15.1-.15.04 0 .06.03.1.12l.9 2.37c.14.35.24.4.32.43l.15.01c.03 0 .05 0 .05.03s-.03.04-.17.04h-.69c-.06-.01-.1-.01-.1-.04 0-.02 0-.03.05-.03.02-.01.05-.05.03-.1l-.3-.8c0-.03-.01-.04-.03-.04Zm-.74-.2h.67c.02 0 .02-.01.02-.02l-.33-.95c0-.02 0-.04-.02-.04l-.02.04-.33.94.01.03ZM20.38 37.85V36.3c-.01-.14-.04-.2-.17-.23a.75.75 0 0 0-.15 0c-.04 0-.06-.02-.06-.04 0-.03.03-.04.08-.04h1.06c.24 0 .5.02.7.17.1.08.26.28.26.54 0 .3-.12.57-.5.9.34.44.6.8.82 1.04.21.23.37.25.43.27h.1c.03 0 .05.02.05.04 0 .03-.03.04-.07.04h-.36c-.22 0-.31-.02-.41-.08-.16-.09-.3-.27-.52-.58l-.38-.55c-.02-.02-.04-.02-.07-.02l-.33-.01c-.02 0-.03 0-.03.03v.06c0 .36 0 .68.02.84.01.12.04.2.15.22l.19.02c.03 0 .04.01.04.03 0 .03-.02.04-.07.04h-1.03c-.05 0-.07-.01-.07-.04 0-.02.01-.03.06-.03.05 0 .1 0 .13-.02.08-.01.1-.1.11-.22.02-.16.02-.48.02-.84Zm.45-1.6v1.21c0 .05.01.06.04.08.08.02.2.04.29.04.15 0 .2-.02.27-.07.11-.09.22-.27.22-.6 0-.56-.36-.72-.58-.72a.8.8 0 0 0-.2.01c-.03.01-.04.03-.04.06Z"/></svg>