<!-- by TradingView --><svg width="56" height="56" viewBox="0 0 56 56" xmlns="http://www.w3.org/2000/svg"><path fill="#EFEFE3" d="M0 0h56v56H0z"/><path d="M21.82 19H37V9h-9.08c-2.37 2.53-5.86 6.68-6.1 10Zm2.15-10H19v10h.58c.21-4.2 2.54-7.89 4.39-10Z" fill="#EB3D00"/><path d="M19.57 20H19v27h5.82c1.54-2.56 3.56-6.97 3.18-10.57-.23-2.14-1.66-3.7-3.29-5.48-2.3-2.5-4.96-5.4-5.14-10.95Zm9.28 27H37V20H21.86c.43 4.17 2.45 6.27 4.47 8.38 1.97 2.05 3.94 4.1 4.48 8.05.47 3.44-.77 7.77-1.96 10.57Z" fill="#030302"/><path d="M33 18v-5h1v4h2v1h-3ZM31.08 18c-.56 0-.96-.11-1.21-.33-.25-.23-.37-.58-.37-1.07V16h1.2v.73c0 .12.03.2.07.27.04.06.12.1.23.1.1 0 .18-.03.23-.08.04-.05.06-.14.06-.26 0-.15-.02-.28-.05-.38a.78.78 0 0 0-.2-.29c-.09-.09-.21-.2-.38-.32l-.55-.42c-.4-.3-.61-.66-.61-1.06 0-.42.12-.74.36-.96.24-.22.6-.33 1.05-.33.56 0 .96.12 1.2.36.23.24.35.6.35 1.1h-1.24v-.34a.19.19 0 0 0-.08-.16.3.3 0 0 0-.19-.06c-.1 0-.17.03-.21.07a.22.22 0 0 0-.07.17c0 .07.02.14.07.22.05.08.14.17.27.28l.7.54c.15.11.28.22.4.35.12.11.21.25.28.41.07.16.11.36.11.58 0 .47-.1.83-.32 1.09-.21.26-.58.39-1.1.39ZM26 18v-5h1.88c.88 0 1.12.62 1.12 1.4 0 .27-.04.5-.13.65-.08.17-.24.28-.48.34.2.03.33.11.4.24.09.12.13.28.13.48V18H28v-1.96c0-.14-.04-.23-.11-.27a6.35 6.35 0 0 0-.89-.05V18h-1Zm1-3.15h.55c.17 0 .25-.15.25-.45 0-.39-.06-.4-.27-.4h-.52v.85Z" fill="#FECE00"/></svg>