<!-- by TradingView --><svg width="56" height="56" viewBox="0 0 56 56" xmlns="http://www.w3.org/2000/svg"><path fill="#F0F3FA" d="M0 0h56v56H0z"/><path d="m30.1 12.19-.26 2.38c0 .07-.03.14-.07.2a.46.46 0 0 1-.17.15l-2.4 1.16c-.2.1-.3.04-.3-.17v-2.18c0-.22.09-.38.28-.5.73-.46 1.93-1.38 2.79-1.21.1.02.14.08.13.17ZM25.82 12.13l-1.2 2.64a.1.1 0 0 1-.08.06l-2.89.26a.1.1 0 0 1-.1-.13l.98-2.26a.1.1 0 0 1 .07-.05l3.11-.65a.1.1 0 0 1 .11.13ZM34.56 13.04l2.85 1.44a.1.1 0 0 1 .06.08l.12 2.5c0 .06-.09.11-.16.09l-2.58-.85c-.04-.01-.07-.05-.08-.08l-.39-3.08c-.01-.08.1-.14.18-.1ZM31.43 14.08l1.83 1.21c.04.02.06.06.05.1l-.34 1.68c-.02.07-.12.1-.2.07l-1.54-.76c-.04-.02-.06-.05-.06-.09l.06-2.13c0-.08.12-.13.2-.08ZM18.5 14.09l1.95 1.97c.02.02.04.06.03.1l-.21 2.95c0 .09-.09.14-.15.09l-1.73-1.42a.13.13 0 0 1-.04-.1v-3.5c0-.1.09-.15.15-.1ZM24.22 18.17l-1.54-.9c-.07-.04-.08-.15-.02-.2l1.2-.92a.1.1 0 0 1 .1-.01l1.8.87c.08.03.09.16.02.2l-1.46.96a.1.1 0 0 1-.1 0Z" fill="#7E1D54"/><path d="m39.69 21.75-3.4 2.6c-.06.05-.15.02-.16-.06l-.68-3.63a.1.1 0 0 1 .03-.08l3.67-3.4c.05-.05.16-.02.17.06l.4 4.43v.04a.1.1 0 0 1-.03.04ZM35.43 19.74l-.93 1.48c-.05.08-.2.08-.25 0l-.92-1.3a.1.1 0 0 1 0-.1l.89-1.57c.05-.08.2-.09.26 0l.95 1.39a.1.1 0 0 1 0 .1ZM31.44 18.62l.8 1.53c.02.05-.03.1-.09.1l-1.89-.1a.1.1 0 0 1-.04 0 .08.08 0 0 1-.03-.03l-1.15-1.83c-.03-.05.03-.11.1-.1l2.24.38a.1.1 0 0 1 .04.02c.01 0 .02.01.02.03Z" fill="#F65E2B"/><path d="m26.87 20.33-.87.94c-.04.04-.1 0-.1-.09l-.07-1.55c0-.03 0-.07.02-.09l.89-1.33c.04-.05.1 0 .1.08l.06 1.94c0 .04-.01.08-.03.1Z" fill="#87C439"/><path d="m16.47 18.2 1.78.72c.05.02.08.05.08.1l.02 1.11c0 .09-.14.14-.25.11l-1.62-.49c-.06-.02-.1-.05-.1-.1l-.17-1.34c-.01-.09.14-.15.26-.1Z" fill="#7E1D54"/><path d="m23.95 19.6.8 1.55c.03.06-.03.13-.1.13h-1.81l-.06-.01a.1.1 0 0 1-.05-.04l-1.17-1.87c-.04-.07.03-.15.12-.14l2.18.32.05.01a.1.1 0 0 1 .04.04ZM18.03 21.58l1.38 3.7c.02.07-.04.14-.12.13l-4.1-.57-.06-.02a.1.1 0 0 1-.03-.04l-2.1-4.4c-.03-.07.06-.15.14-.13l4.82 1.27.04.02a.1.1 0 0 1 .03.04ZM21.52 22.07l-.96 1.2c-.1.1-.3.1-.36-.02l-.76-1.29a.14.14 0 0 1 0-.16l1.06-1.47c.09-.12.32-.1.37.03l.67 1.56c.02.05.01.1-.02.15Z" fill="#87C439"/><path d="M28.53 22.16c-.52-.4-.9-.14-1.34.09a.23.23 0 0 1-.08.02H27a.2.2 0 0 1-.06-.04.09.09 0 0 1-.04-.05c-.12-.5.56-1.16 1.5-.8.45.18.65.4.62.7-.03.28-.2.31-.5.08Z" fill="#FEB43B"/><path d="m43.96 21.67-.94 1.56a.24.24 0 0 1-.21.11l-1.79-.07c-.17 0-.28-.2-.2-.36l.62-1.35a.25.25 0 0 1 .2-.14l2.1-.14c.2-.01.33.22.22.39Z" fill="#F65E2B"/><path d="M29.96 27.02c-.2.37-.34.78-.4 1.24 0 .05-.04.1-.08.14a.3.3 0 0 1-.18.06l-1.62.04c-.12 0-.2-.05-.25-.15a83.4 83.4 0 0 1-.75-1.73 9.9 9.9 0 0 0-2.72-3.72c-.43-.37-.35-.5.24-.39.34.07.61.2.83.42a5.92 5.92 0 0 0 3.25 1.72c1.14.19 2.16-.1 3.06-.86a702.1 702.1 0 0 0 1.76-1.47.13.13 0 0 1 .1.02.1.1 0 0 1 .04.03l.04.09c.06.14.03.27-.08.39a19.07 19.07 0 0 0-3.24 4.17Z" fill="#FEB43B"/><path d="M22.95 28.97c1.24-1.34-.48-3.46-1.13-4.66-.26-.46-.31-1.08-.17-1.86.01-.1.07-.14.17-.14l.39.02c.08 0 .12.04.12.12.04.55-.12 1.33.24 1.79a19.7 19.7 0 0 1 4.16 10.57c.16 1.8.2 3.74.13 5.8-.06 1.6-.2 2.97-.43 4.13-.05.25-.29.26-.5.26-.15 0-.21-.07-.18-.22.82-3.64.53-8.43-2.12-11.36-1.52-1.68-4.78-3.83-7.01-2.43a.18.18 0 0 1-.2 0c-.2-.11-.26-.28-.18-.49.36-.94 1.73-1.1 2.58-1 1.2.13 3.27.4 4.13-.53Z" fill="#003B87"/><path d="M33.13 24.57c.5-.38.5-1.34.41-1.98-.04-.27.26-.27.44-.28.17 0 .27.08.31.25.5 2.14-2.7 4.3-1.58 6.08.6.97 1.61 1 2.64.98 1.15-.02 3.7-.6 4.33.83.09.2.04.4-.14.56-.07.06-.14.07-.22.02-2.15-1.3-5.02.4-6.63 1.96-3.08 2.99-3.38 7.88-2.54 11.84.03.1-.02.16-.13.16l-.36.01c-.1 0-.15-.04-.17-.14a43.57 43.57 0 0 1-.36-9.41 19.97 19.97 0 0 1 3.59-10.43c.13-.18.26-.33.4-.45Z" fill="#DF1C2E"/><path d="m41.82 23.92-1.7 1.45a.16.16 0 0 1-.13.03l-2.3-.48c-.1-.02-.14-.13-.07-.2l1.16-1.33a.15.15 0 0 1 .14-.04l2.82.35c.12.02.16.15.08.22Z" fill="#F65E2B"/><path d="m20.93 27-.09 1.36c0 .1-.12.17-.21.12-1.19-.56-1.86-2.22-.32-2.89.85-.37 1.6-.18 2.25.57.13.15.03.37-.16.4l-1.22.18a.3.3 0 0 0-.17.09.27.27 0 0 0-.08.17Z" fill="#003B87"/><path d="m34.6 26.76-1.02-.14c-.24-.03-.35-.3-.2-.47.63-.75 1.4-.93 2.3-.54 1.34.59.89 2.03-.03 2.7-.45.33-.66.23-.62-.3.02-.33-.01-.64-.08-.95-.05-.18-.16-.28-.35-.3Z" fill="#DF1C2E"/><path d="m39.6 29.53-1.84-.82c-.04-.01-.06-.05-.06-.09l-.11-2.07c0-.07.06-.13.12-.1l1.5.6a.1.1 0 0 1 .05.08l.46 2.27c.02.08-.05.15-.12.13Z" fill="#F65E2B"/><path d="m15.18 27.91 1.3-1.43a.13.13 0 0 1 .05-.04h.06l1.64.31c.1.02.15.16.1.25l-.84 1.43a.14.14 0 0 1-.05.06.11.11 0 0 1-.07 0l-2.11-.3c-.12-.01-.16-.19-.08-.28Z" fill="#87C439"/><path d="M32.2 44.83c.08.1.04.16-.11.16l-1.13.01c-.16 0-.26-.07-.3-.2-.6-1.92-.72-3.9-.33-5.93.01-.08.15-.07.15 0a9.76 9.76 0 0 0 1.72 5.96Z" fill="#DF1C2E"/><path d="M23.7 44.93a10.66 10.66 0 0 0 1.83-6c0-.15.04-.16.1-.01.11.27.17.56.18.84.04 1.8.06 3.49-.6 5.18-.03.04-.06.06-.1.06l-1.38-.01c-.03 0-.05-.04-.03-.06Z" fill="#003B87"/></svg>