<!-- by TradingView --><svg width="56" height="56" viewBox="0 0 56 56" xmlns="http://www.w3.org/2000/svg"><path fill="#F0F3FA" d="M0 0h56v56H0z"/><path d="m28 19 24 5H4l24-5ZM28 37l24-5H4l24 5ZM44.62 28.52H43v1.26h3.7c.12 0 .15-.15.19-.28h.1V31h-6.32v-.1c.2 0 .26-.03.33-.12v-5.56c-.09-.09-.16-.1-.33-.13V25H47v1.5h-.11c-.06-.22-.09-.28-.16-.28H43v1.08h1.72c.08 0 .13-.09.17-.28h.1v1.78h-.1c-.04-.23-.09-.28-.27-.28ZM27.71 26.36H26v4.41c.1.1.16.12.35.14V31h-2.7v-.1c.22 0 .28-.02.35-.13v-4.41h-1.73a.46.46 0 0 0-.15.28H22V25h6v1.64h-.12a.47.47 0 0 0-.17-.28ZM34.71 26.36H33v4.41c.1.1.16.12.35.14V31h-2.7v-.1c.22 0 .28-.02.35-.13v-4.41h-1.73a.46.46 0 0 0-.15.28H29V25h6v1.64h-.12a.47.47 0 0 0-.17-.28ZM20.39 25v.1c-.22.01-.29.04-.39.13v5.54c.11.12.23.12.39.14V31H17.6v-.1c.15 0 .28-.01.39-.13v-5.53c-.07-.09-.17-.13-.39-.15V25h2.78ZM39.39 25v.1c-.22.01-.29.04-.39.13v5.54c.11.12.23.12.39.14V31H36.6v-.1c.15 0 .27-.01.39-.13v-5.53c-.07-.09-.17-.13-.39-.15V25h2.78ZM13.33 26.22H11v1.26h2.43c.42 0 .57-.2.57-.62 0-.36-.04-.64-.67-.64Zm-4.7-1.13V25h5.44c2.03 0 1.93.73 1.93 1.85 0 1.24-.32 1.85-1.68 1.85H11v2.07c.11.1.17.1.38.14V31H8.62v-.1c.21-.01.3-.03.38-.13v-5.54c-.1-.09-.18-.12-.38-.14Z" fill="#DA251C"/></svg>