<!-- by TradingView --><svg width="56" height="56" viewBox="0 0 56 56" xmlns="http://www.w3.org/2000/svg"><path fill="#F0F3FA" d="M0 0h56v56H0z"/><path d="M23 16h-4v14h4v-5.84c.74-2.13 2.91-4.16 5.48-4.16 2.39 0 4.2 2.06 4.8 3l1.05-1c.66-.65 1.38-1.33 1.67-1.67-.56-1.1-3.74-4.33-7.52-4.33A7.73 7.73 0 0 0 23 18.28V16Z" fill="#006E36"/><path d="M26 25.8c0-1.25.48-2.39.72-2.8.72 2.74 4.14 2.45 5.98 2.45 1.84 0 2.3 1.2 2.3 2.2 0 .98-.35 2.38-.9 3.35-.84-2.68-4.7-2.56-5.71-2.56-1.02 0-2.39-1.06-2.39-2.63Z" fill="#F70"/><path fill-rule="evenodd" d="M13 13h30v30H13V13Zm1 1h28v28H28.53A9.55 9.55 0 0 0 38 32H29v3h4.4a5.5 5.5 0 0 1-10.38-3h-4.01l-.01.4c0 5.3 4.24 9.58 9.47 9.6H14V14Z" fill="#FF3F00"/></svg>