<!-- by TradingView --><svg width="56" height="56" viewBox="0 0 56 56" xmlns="http://www.w3.org/2000/svg"><path fill="#F0F3FA" d="M0 0h56v56H0z"/><path d="M33.58 34c-.91 0-1.72-.19-2.41-.56-.7-.37-1.23-.9-1.6-1.57a4.79 4.79 0 0 1-.57-2.35 7 7 0 0 1 .8-3.39 5.77 5.77 0 0 1 2.24-2.3 6.58 6.58 0 0 1 3.33-.83c.94 0 1.75.19 2.45.56.7.36 1.24.88 1.61 1.56.38.66.57 1.44.57 2.31 0 1.27-.27 2.4-.81 3.4a5.7 5.7 0 0 1-2.26 2.34 6.6 6.6 0 0 1-3.35.83Zm.52-3.13c.53 0 1-.14 1.38-.41.4-.28.7-.65.9-1.1.2-.47.3-.97.3-1.5 0-.56-.15-.99-.45-1.29-.3-.31-.73-.47-1.29-.47-.53 0-.99.14-1.39.41-.4.27-.7.64-.91 1.1-.2.46-.3.95-.3 1.49 0 .55.14.99.43 1.3.3.31.75.47 1.33.47ZM44.58 34c-.91 0-1.72-.19-2.41-.56-.7-.37-1.23-.9-1.6-1.57a4.79 4.79 0 0 1-.57-2.35 7 7 0 0 1 .8-3.39 5.77 5.77 0 0 1 2.24-2.3 6.58 6.58 0 0 1 3.33-.83c.94 0 1.75.19 2.45.56.7.36 1.24.88 1.61 1.56.38.66.57 1.44.57 2.31 0 1.27-.27 2.4-.81 3.4a5.7 5.7 0 0 1-2.26 2.34 6.6 6.6 0 0 1-3.35.83Zm.52-3.13c.53 0 1-.14 1.38-.41.4-.28.7-.65.9-1.1.2-.47.3-.97.3-1.5 0-.56-.15-.99-.45-1.29-.3-.31-.73-.47-1.29-.47-.53 0-.99.14-1.39.41-.4.27-.7.64-.91 1.1-.2.46-.3.95-.3 1.49 0 .55.14.99.43 1.3.3.31.75.47 1.33.47Z" fill="#ED3237"/><path fill-rule="evenodd" d="M7.38 23 5 34h2.86l.86-4h1.52c.76 0 .95 1.33.95 2v2h3.33v-3.5c0-.8-.63-1.33-.95-1.5.63-.17 2-1 2.38-3 .38-2-1.43-3-3.33-3H7.38Zm2.42 2-.65 3h2.04c.63 0 1.9-.3 1.9-1.5S11.82 25 11.2 25H9.8Z" fill="#ED3237"/><path d="M30 22h-3l1-3h3l-1 3ZM30 23h-3.25L25 32.5c-.4 2-1.5 2.5-2 2.5h-1.5l-.5 3h3c2.5 0 3.5-3 4-5l2-10Z" fill="#ED3237"/><path d="M18 30h-3l4-7h3l2 11h-3l-.5-1H17l1-2.5h2.5L20 27l-2 3Z" fill="#ED3237"/></svg>