<!-- by TradingView --><svg width="56" height="56" viewBox="0 0 56 56" xmlns="http://www.w3.org/2000/svg"><path fill="#F0F3FA" d="M0 0h56v56H0z"/><path fill-rule="evenodd" d="M16 13c0-.55.49-1 1.09-1H38.9c.6 0 1.09.45 1.09 1s-.49 1-1.09 1H17.1c-.6 0-1.09-.45-1.09-1Zm3.43 2.72a1.72 1.72 0 1 0-3.43 0v24.56c0 .95.77 1.72 1.71 1.72h-.62c-.6 0-1.09.45-1.09 1s.49 1 1.09 1H38.9c.6 0 1.09-.45 1.09-1s-.49-1-1.09-1h-.57c.92 0 1.66-.74 1.66-1.66V15.66c0-.92-.74-1.66-1.66-1.66-.91 0-1.65.8-1.65 1.72A1.77 1.77 0 0 0 34.97 14c-.95 0-1.71.83-1.71 1.78-.26 0-.45-.21-.54-.45a1.32 1.32 0 0 0-2.47 0c-.09.24-.28.45-.54.45 0-.95-.76-1.78-1.71-1.78s-1.71.77-1.71 1.72a1.72 1.72 0 1 0-3.43 0 1.72 1.72 0 1 0-3.43 0Zm0 24.56c-.25 0-.45.21-.54.45a1.26 1.26 0 0 1-2.43-.45V15.72a1.26 1.26 0 0 1 2.43-.45c.09.24.29.45.54.45.25 0 .45-.21.54-.45a1.26 1.26 0 0 1 2.35 0c.09.24.28.45.54.45.25 0 .45-.21.54-.45a1.26 1.26 0 0 1 2.35 0c.09.24.28.45.54.45.25 0 .44-.21.53-.45.18-.47.64-.81 1.18-.81.54 0 1 .37 1.18.87.08.24.28.45.53.45.04-.96.82-1.78 1.78-1.78a1.83 1.83 0 0 1 1.77 1.78c.25 0 .45-.21.53-.45.18-.5.64-.87 1.18-.87.54 0 1 .34 1.18.81.09.24.28.45.54.45.25 0 .45-.21.54-.45.17-.46.6-.81 1.11-.81.67 0 1.2.54 1.2 1.2v24.68c0 .66-.53 1.2-1.2 1.2-.5 0-.94-.35-1.11-.81-.1-.24-.3-.45-.54-.45-.26 0-.45.21-.54.45-.18.47-.64.81-1.18.81-.54 0-1-.37-1.18-.87-.08-.24-.28-.45-.53-.45-.26 0-.45.21-.54.45a1.32 1.32 0 0 1-2.47 0c-.09-.24-.28-.45-.54-.45.04.96.82 1.78 1.78 1.78H28c.95 0 1.71-.83 1.71-1.78-.25 0-.45.21-.53.45-.18.5-.64.87-1.18.87-.54 0-1-.34-1.18-.81-.09-.24-.28-.45-.53-.45-.26 0-.45.21-.54.45a1.26 1.26 0 0 1-2.35 0c-.1-.24-.29-.45-.54-.45-.26 0-.45.21-.54.45a1.26 1.26 0 0 1-2.35 0c-.1-.24-.29-.45-.54-.45ZM21.14 42c.95 0 1.72-.77 1.72-1.72a1.72 1.72 0 1 0 3.43 0c0 .95.76 1.72 1.71 1.72m-6.86 0c-.94 0-1.71-.77-1.71-1.72 0 .95-.77 1.72-1.72 1.72h3.43Zm10.35 0c.95 0 1.74-.82 1.77-1.78 0 .95.76 1.78 1.71 1.78H31.5Zm3.48 0c.93 0 1.69-.8 1.72-1.72 0 .92.74 1.72 1.65 1.72h-3.37Z" fill="#358C9B"/><path fill-rule="evenodd" d="M25 17h-1v3h-4l1.92 2H24v3.6c-2.67.86-4 1.55-4 2.2 0 .66.74 1.2 1.1 1.4.72.53 1.77 1.29 2.9 2.09V37h1v-5l.7.48a176.7 176.7 0 0 1 3.72 2.67 18.21 18.21 0 0 0 2.97 1.83l.03.02h1.34c.15 0 .24-.1.24-.27 0-.2-.13-.48-.42-.77l-1.71-1.48C28.58 31.67 25 28.6 25 27.81c0-.84 1.87-1.25 3.57-1.62l.5-.12c1.8-.4 5.93-1.38 5.93-3.81 0-1.94-3.22-2.31-4.83-2.25H25V17Zm0 5v3.3l1.1-.32c4.07-1.16 4.9-1.94 4.9-2.46 0-.42-.66-.52-.99-.52H25Z" fill="#CF1D2D"/></svg>