<!-- by TradingView --><svg width="56" height="56" viewBox="0 0 56 56" xmlns="http://www.w3.org/2000/svg"><path fill="#F0F3FA" d="M0 0h56v56H0z"/><path d="m51.66 31.13.34.07-1.2 3.8H40v-.38c1.53 0 2-.57 2-2.1v-9.04c0-1.5-.57-2.1-2-2.1V21h6.32v.38c-1.82-.01-2.32.56-2.32 2.34v8.68c0 .57.05.96.16 1.18.09.14.21.25.39.32.17.07.69.1 1.58.1 1.07 0 2.26.13 3.28-.24.43-.16.82-.32 1.18-.72a7 7 0 0 0 1.07-1.91ZM38 21v4.63h-.37a5.65 5.65 0 0 0-.65-2.12 3.47 3.47 0 0 0-3-1.72c-1.14 0-1.98.8-1.98 2.05 0 1.59 1.84 2.5 2.96 3.1 1.77.93 4.04 2.03 4.04 4.34 0 2.3-2.14 3.72-4.27 3.72-.39 0-.76-.03-1.1-.09-.84-.13-1.8-.67-2.65-.67-.17 0-.3.05-.4.15-.1.1-.16.3-.21.61H30v-4.6h.37c.17.97.4 1.7.7 2.17.3.48.87.87 1.47 1.19.6.31 1.27.47 1.98.47 1.29 0 2.48-.75 2.48-2.2 0-1.7-1.78-2.5-3.03-3.18a21.47 21.47 0 0 1-2.48-1.54c-.97-.76-1.49-1.68-1.49-2.79C30 22.4 31.97 21 33.97 21c1.1 0 1.94.77 2.97.77a.6.6 0 0 0 .42-.15c.11-.1.2-.31.27-.62H38ZM22 28.44v4.08c0 1.05-.16 2.1 1.12 2.1h.5V35H18v-.38h.5c1.28 0 1.5-1.07 1.5-2.1v-9.04c0-1.06-.22-2.1-1.5-2.1H18V21h4.81c2.46 0 5.19.96 5.19 3.87 0 2.37-1.76 3.8-4.06 3.8-.67 0-1.29-.08-1.94-.23Zm0-.58c.45.09.86.14 1.32.14 1.59 0 2.47-1.5 2.47-2.92 0-1.67-.98-3.24-2.79-3.24-.32 0-.48.06-1 .2v5.82ZM17 35h-3.49L9.1 28.45l-.52.02c-.17 0-.36 0-.57-.02v4.07c0 1.04-.18 2.1 1.09 2.1h.5V35H4v-.38h.5c1.27 0 1.5-1.07 1.5-2.1v-9.04c0-1.05-.23-2.1-1.5-2.1H4V21h4.76c2.42 0 5.33.45 5.33 3.5 0 1.94-1.33 3.26-3.11 3.69l2.7 4.01a7 7 0 0 0 1.59 1.84c.44.3 1.02.5 1.73.58V35Zm-9-7.2.54.01c1.9 0 3.46-.95 3.46-3.07 0-1.63-1.09-2.96-2.77-2.96-.37 0-.6.07-1.23.2v5.82Z"/></svg>