<!-- by TradingView --><svg width="56" height="56" viewBox="0 0 56 56" xmlns="http://www.w3.org/2000/svg"><path fill="#F0F3FA" d="M0 0h56v56H0z"/><path fill-rule="evenodd" d="M28 44c11.05 0 20-7.16 20-16s-8.95-16-20-16S8 19.16 8 28s8.95 16 20 16Zm0-2c9.94 0 18-6.27 18-14s-8.06-14-18-14-18 6.27-18 14 8.06 14 18 14Z" fill="#FF2B1C"/><path d="M26.57 16.04c2.56.9 5.84 3 5.84 6.85 0 4.74-4.8 6.75-7.41 7.11 1.88 1.61 5.46 4.9 6.33 5.7 1.05.97 3.36 1.77 7.03 1.81C42.4 35.31 45 31.87 45 28c0-6.63-7.61-12-17-12-.48 0-.96.01-1.43.04Z" fill="#2A448E"/><path d="M24.33 16.28C16.71 17.46 11 22.26 11 28c0 6.63 7.61 12 17 12 2.88 0 5.59-.5 7.96-1.4-1.89.09-5.57-.17-7.89-1.87-2.49-1.81-7.01-6.15-8.97-8.1 3.22.14 9.9-.89 9.9-6.03 0-2.92-2.7-5.14-4.67-6.32Z" fill="#FF2B1C"/></svg>