<!-- by TradingView --><svg width="56" height="56" viewBox="0 0 56 56" xmlns="http://www.w3.org/2000/svg"><path fill="#F0F3FA" d="M0 0h56v56H0z"/><path fill-rule="evenodd" d="M10 34.9c-1.5-.56-4-2.43-4-6.32C6 23.38 11.77 17 28 17s22 6.38 22 11.58c0 4.16-.74 6.01-2.18 6.42l.04-.12.09-.27a2.06 2.06 0 0 1-1.2.39c-.9 0-1.6-.38-1.7-1.3-.7.86-1.59 1.3-2.7 1.3-.58 0-1.1-.18-1.45-.52V35H37v-.56c.86-.07 1-.21 1-1.1v-3.61c0-1.26-.73-1.73-1.5-1.73-.55 0-1.32 1.06-1.5 2v3.41c0 .75.16.97.9 1.04V35h-4.02v-.56c.86-.07 1.12-.21 1.12-1.1v-3.61c0-1.26-.5-1.73-1.28-1.73-1.1 0-1.55 1.06-1.72 2v3.33c0 .5.05.8.15.9.1.1.35.17.73.21V35h-3.85v-.02l-.29.02c-.89 0-1.58-.38-1.69-1.3-.7.86-1.59 1.3-2.7 1.3-.72 0-1.34-.29-1.69-.8-.34.54-.91.8-1.74.8-1.43 0-1.93-.82-1.93-2.16a14.74 14.74 0 0 1 .02-.82c0-1.8-1.03-2.38-2.72-2.38H13v3.52c0 .86 0 1.25 1 1.25V35h-4v-.1Zm0-.19v-.3c1 0 1-.24 1-1.27v-7.27c0-1.03 0-1.25-1-1.27v-.44a7.2 7.2 0 0 0-2.2 5.21c0 2.41 1.24 4.37 2.2 5.34ZM10.17 24h4.62c2.98 0 4.21.88 4.21 2.65 0 1.74-.9 2.62-3.36 2.75 1.65.1 3.01.58 3.26 2.4.03.2.06.51.08.9.05.88.3 1.32.73 1.32.33 0 .55-.14.7-.45a2.04 2.04 0 0 1-.03-.38c0-1.7 1.83-2.07 3.2-2.36l.23-.04c.13-.03.3-.07.51-.1.45-.09.68-.22.68-.4v-.86c0-1.03-.25-1.88-1.41-1.88-.49 0-.92.15-1.3.44a7.27 7.27 0 0 1 .07.78c0 .5-.3 1.04-.85 1.04-.46 0-.75-.3-.75-.78 0-.54.31-1.01.93-1.42a4 4 0 0 1 2.25-.61c1.7 0 3.06.85 3.06 2.61v.05l-.02 2.84v.41c0 .5 0 1.1.63 1.1.12 0 .24-.03.35-.1.03-.14.04-.33.04-.58v-4.56c0-.86-.2-.94-1-.95v-.57c.95-.03 2.1-.11 3-.25v1.83c.66-1.2 1.3-1.83 2.31-1.83 1.14 0 2.52.7 2.65 1.83.64-1.23 1.07-1.83 2.12-1.83 1.48 0 2.92.9 2.92 2.86v3.55c0 .74.16.95.87 1.04-.3-.3-.5-.73-.5-1.26 0-1.7 1.84-2.07 3.21-2.36l.23-.04c.13-.03.3-.07.51-.1.45-.09.68-.22.68-.4v-.86c0-1.03-.24-1.88-1.41-1.88-.49 0-.92.15-1.3.44a7.28 7.28 0 0 1 .07.78c0 .5-.3 1.04-.85 1.04-.46 0-.75-.3-.75-.78 0-.54.31-1.01.93-1.42a4 4 0 0 1 2.25-.61c1.7 0 3.06.85 3.06 2.61v.05l-.02 2.84v.41c0 .5 0 1.1.63 1.1a.73.73 0 0 0 .6-.3c.22-.9.39-1.98.39-3.73 0-8.5-13.87-11.1-20.6-10.97-4.99-.1-13.67.97-17.83 4.99Zm14.55 7.11.28-.05-.02 1.95c-.5.75-1.14 1.18-1.76 1.18-.72 0-1.22-.62-1.22-1.29 0-1.3 1.64-1.59 2.72-1.79ZM45 31.06l-.28.05c-1.08.2-2.72.5-2.72 1.8 0 .66.5 1.28 1.22 1.28.62 0 1.26-.43 1.76-1.18l.02-1.95Zm-31.57-2.05L13 29 13 24.62h.1c.41-.03 1.16-.04 1.35-.04 1.47 0 2.54.6 2.54 2.2 0 1.71-1.07 2.23-2.65 2.23H13.43Z" fill="#00813E"/></svg>