<!-- by TradingView --><svg width="56" height="56" viewBox="0 0 56 56" xmlns="http://www.w3.org/2000/svg"><path fill="#F0F3FA" d="M0 0h56v56H0z"/><path d="M48 22h4v3a2.48 2.48 0 0 0-.7-1.22V22.6H49.6A9.64 9.64 0 0 0 48 22Z" fill="#7DBF44"/><path d="M47 23h4v3a2.48 2.48 0 0 0-.7-1.22V23.6H48.6A9.64 9.64 0 0 0 47 23Z" fill="#FD772D"/><path d="M50 24h-4c2.96.97 3.9 2.73 4 3.5V24Z" fill="#00A5E9"/><path d="M43.5 28.5c0 .74.22 1.44 1 1.44s1-.7 1-1.44-.22-1.5-1-1.5-1 .76-1 1.5Zm-1.5 0a2.5 2.5 0 1 1 5 0 2.5 2.5 0 0 1-5 0ZM36 31v-5h4v1h-2.5v1h2.24v1H37.5v2H36ZM29 31v-5h.5l3 2.73V26H34v5h-.5l-3-2.73V31H29ZM26 31v-5h1.5v5H26ZM17 31l1.23-5h.1l2.23 3.05 2.1-3.05h.1L24 31h-1.34l-.5-2.3-1.59 2.3h-.09l-1.7-2.34-.52 2.34H17ZM12.2 29.46h1.53l-.76-1.52-.78 1.52ZM10 31l2.99-5h.09L16 31h-1.46l-.38-.7H11.8l-.38.7H10ZM5.68 27H5.5v1.39h.25c.75 0 1.15-.26 1.15-.71 0-.48-.36-.68-1.22-.68ZM4 31v-5h1.6c.96 0 2.66.17 2.66 1.47 0 .63-.4 1.11-1.15 1.38L9 31H7.3l-1.65-2H5.5v2H4Z" fill="#053E6F"/></svg>