<!-- by TradingView --><svg width="56" height="56" viewBox="0 0 56 56" xmlns="http://www.w3.org/2000/svg"><path fill="#F0F3FA" d="M0 0h56v56H0z"/><path d="M24.72 16.41V34H24V16.15l.08-.1c1.15-1.4 2.88-3.05 4.79-3.05 1.87 0 3.13 1.78 3.13 3.62 0 3.57-3.86 6.89-6.54 8.62v4.43l5.14 5.85-.54.48-5.32-6.05v-5.12c2.54-1.6 6.54-4.78 6.54-8.2 0-1.58-1.06-2.9-2.41-2.9-1.64 0-3.16 1.5-4.15 2.68Z" fill="#1689DD"/><path fill-rule="evenodd" d="M20.93 16.83 17 19.3V40.72l.01.05A4.67 4.67 0 0 0 21.63 44H34.5c2.54-.48 4.49-1.8 4.49-4.55 0-1.6-.29-3.69-1.43-4.82-.56-1.02-1.43-2.49-2.06-2.96-.17-.13-.4-.33-.7-.59-.47-.4-1.1-.94-1.8-1.48a2.54 2.54 0 0 1-.29-3.81l6.28-6.7L36.46 16l-.05.06c-.51-2.9-2.18-6.06-5.43-6.06-3.88 0-7.6 3.7-10.05 6.83Zm.07 1.1V34.5l2.42 2.63h11.23c.2-.09.59-.61.59-1.4 0-.98-.88-2.06-2.68-3.65-.63-.56-1.52-1.47-2.47-2.45l-1.2-1.23a3.12 3.12 0 0 1 0-4.4l6.89-7.28c-.34-2.68-1.74-6-4.8-6-3.9 0-7.69 4.16-9.98 7.2Zm16.46 17.75c-.83.95-2.1 2.3-2.75 2.32H19.18c-.55 0-1.06-.2-1.44-.54v3.17c.27.9 1.4 2.65 3.89 2.65H34.4c2.2-.43 3.86-1.44 3.86-3.83 0-1.26-.19-2.76-.8-3.77Z" fill="#629CBA"/><path fill="#1689DD" fill-opacity=".5" d="M23 39h11v3H23z"/></svg>