<!-- by TradingView --><svg width="56" height="56" viewBox="0 0 56 56" xmlns="http://www.w3.org/2000/svg"><path fill="#F0F3FA" d="M0 0h56v56H0z"/><path d="M7.02 36H5.07a.07.07 0 0 1-.05-.02.07.07 0 0 1-.02-.06l3.18-16.87.03-.04a.07.07 0 0 1 .04-.01h1.96a.07.07 0 0 1 .05.02.07.07 0 0 1 .01.06L7.1 35.95l-.02.03a.07.07 0 0 1-.05.02ZM48 34.14c0-.07 0-.14-.07-.14H16.6c-.6 0-.78-.38-1-.75-1.15-2.04-2.17-3.32-3.07-4.81a.86.86 0 0 0-.75-.44h-1.72c-.07 0-.13-.03-.15-.1v-.06l.21-1.13a.17.17 0 0 1 .17-.14c1.22 0 2.12 0 2.72-.03a5.15 5.15 0 0 0 2.6-.61c.17-.1.29-.22.36-.35v-.02a.05.05 0 0 0-.02-.05H12.96l-.06-.02a.14.14 0 0 1-.05-.03.12.12 0 0 1-.02-.1l.25-1.26c0-.03.02-.05.04-.07a.12.12 0 0 1 .08-.03h3.66c.11 0 .18-.05.2-.16l.03-.23c.02-.11-.03-.17-.15-.17h-3.67a.1.1 0 0 1-.07-.03.09.09 0 0 1-.02-.08l.22-1.18c.01-.04.03-.08.06-.1a.18.18 0 0 1 .11-.05h3.21a.11.11 0 0 0 .05-.1.1.1 0 0 0 0-.05c-.16-.36-.82-.9-1.15-1.01a6.43 6.43 0 0 0-1.88-.26h-2.37c-.12 0-.16-.05-.14-.17l.25-1.3a.1.1 0 0 1 .03-.06 37.88 37.88 0 0 1 3.31 0c1.8.1 3.92.9 4.34 2.87a.1.1 0 0 0 .1.08h1.97a.1.1 0 0 1 .1.11l-.24 1.25a.1.1 0 0 1-.03.06.1.1 0 0 1-.07.02h-1.69c-.13 0-.2.06-.23.19l-.02.2c-.02.11.03.17.14.17h1.72a.1.1 0 0 1 .09.07v.03l-.26 1.3a.13.13 0 0 1-.13.1h-2.24a.26.26 0 0 0-.2.1c-.98 1.14-2.26 1.68-3.8 2.02a.1.1 0 0 0-.09.07.1.1 0 0 0 .03.1c.2.18.35.35.44.5.7 1.15 1.49 2.02 2.39 3.58.01.03.03.05.06.07.03.01.06.06.1.06h30.57c.03 0 .06-.05.08-.07.02-.02-.01-.04-.01-.07v-1.61c0-.12.09-.15.2-.09l3.76 2.78A.09.09 0 0 1 52 33a.09.09 0 0 1-.04.08l-3.8 2.62c-.08.05-.16.02-.16-.07v-1.5Z" fill="#D35E95"/><path d="M36.78 31h-.73a.14.14 0 0 1-.1-.05.15.15 0 0 1-.04-.11l.81-7.71c0-.04.02-.07.05-.1a.14.14 0 0 1 .1-.03h.73a.14.14 0 0 1 .1.05l.03.05v.06l-.8 7.71-.05.1a.14.14 0 0 1-.1.03ZM30.09 28l.03-.01h.4c1.38.01 2.73.02 3.66-1.12.45-.54.64-1.2.58-1.95-.1-1.34-1.23-1.83-2.39-1.89a51.03 51.03 0 0 0-2.76 0 .09.09 0 0 0-.03.05l-.81 7.71c-.02.14.05.21.18.21h.63c.12 0 .19-.06.2-.18l.3-2.78V28Zm.09-.9.34-3.25.02-.04a9.86 9.86 0 0 1 1.96.03c.38.05.7.2.9.44.16.17.26.38.31.63.02.1.03.22.03.34 0 1.09-.75 1.8-1.78 1.92a12.83 12.83 0 0 1-1.77 0l-.01-.04v-.04ZM40.09 23.03a.08.08 0 0 0-.03.05l-.82 7.77a.13.13 0 0 0 .03.1.12.12 0 0 0 .09.04l2.3.01c.95 0 1.71-.1 2.28-.31 3.76-1.4 3.97-7.59-.75-7.68a117 117 0 0 0-3.1.02Zm1.11.76.13.02.62-.01c.8-.01 1.56-.03 2.15.18a2.23 2.23 0 0 1 1.45 1.55c.18.61.16 1.32.01 2.01-.35 1.65-1.5 2.65-3.21 2.67a130.36 130.36 0 0 1-1.92-.01.15.15 0 0 1-.08-.09v-.06l.65-6.17c.01-.07.04-.1.1-.1l.1.01ZM22.18 28.78h3.47c.04 0 .08.01.1.03.04.03.06.06.07.1l.55 1.81c.05.19.17.28.36.28h.47c.17 0 .23-.08.18-.25l-2.3-7.68c-.02-.05-.05-.07-.1-.07h-.92a.11.11 0 0 0-.1.07L20 30.75c-.08.17-.03.25.15.25h.43c.09 0 .18-.03.25-.07a.5.5 0 0 0 .19-.2l.92-1.8a.27.27 0 0 1 .1-.11.26.26 0 0 1 .14-.04Zm3.31-.78H22.45l-.02-.01a.05.05 0 0 1-.02-.04v-.02l1.97-3.82a.05.05 0 0 1 .02-.02m1.1 3.9h.01-.01Zm.02-.02v.01m0-.01Zm0 0v-.03.02Zm0-.03-1.06-3.82 1.06 3.82Zm-1.06-3.82-.01-.03.01.03Zm-.01-.03h-.03.03Zm-.03 0Zm0 0h-.02.02Z" fill="#4968A4"/></svg>