<!-- by TradingView --><svg width="56" height="56" viewBox="0 0 56 56" xmlns="http://www.w3.org/2000/svg"><path fill="#F0F3FA" d="M0 0h56v56H0z"/><path d="M13.24 15 12 20h11.03c.3 0 .85.52.85 1.27 0 1.6-3.21 4.71-4.88 6V21h-6v17h6V27.26L24.67 38H32l-5.3-8.06-1.38.73.65-.94-2.12.1 1.57-1.37-1.67-1.92 1.91.47-.78-1.92 1.67.94v-.65l.84 1.42A8.09 8.09 0 0 0 30 20.66c0-4.03-3.26-5.45-5.02-5.66H13.24ZM42.6 38h-8.9a50.6 50.6 0 0 1-4.7-7.18h.41l-.24-.57 1.47-.15L29 28.97l1.64-.64-.48-.38L42.5 23l-1.2 5.97H35V33h9l-1.4 5ZM32 20.48c0-2.8-2.07-4.82-3-5.48h12.8l1.2 5h-9v4h3.53L29 27v-.58c.93-.81 3-3.15 3-5.94ZM44 39H12v2h32v-2Z" fill="#FE0002"/></svg>