<!-- by TradingView --><svg width="56" height="56" viewBox="0 0 56 56" xmlns="http://www.w3.org/2000/svg"><path fill="#F0F3FA" d="M0 0h56v56H0z"/><path d="M18 19c2.71.09 8.1 1.6 8 7-3.24 0-6.35-1.35-8-7ZM21 14c1.02.04 3.04.69 3 3-1.22 0-2.38-.58-3-3ZM32.79 12c.42 1.32.5 4.17-2.54 5-.56-1.56-.35-3.27 2.54-5ZM31.86 17c.28.8.33 2.5-1.7 3-.37-.94-.22-1.96 1.7-3ZM23 18.07c.57-.2 1.77-.09 2 1.84-.68.26-1.4.03-2-1.84ZM35.75 17c.64 2.46.45 7.7-5.43 9-.87-2.91-.25-6.05 5.43-9ZM25.77 10c1.88 1.64 4.93 6.15 2.05 11-2.3-1.87-3.8-4.9-2.05-11ZM30.44 28.02a10.2 10.2 0 0 1-6.87 4.77c5.64 2.55 10.25-2.36 12.05-5.46.13-.2.18-.4-.01-.55-.26-.21-.76-.22-.92.07-.75 1.25-1.88 2.6-2.6 3.03.52-.53.98-1.23 1.27-1.74.16-.27.16-.55-.12-.7-.27-.14-.7-.07-.87.2-.8 1.3-1.53 1.99-2.22 2.24.25-.21.7-.85 1.03-1.35.17-.27.16-.6-.11-.75-.23-.12-.5.02-.63.24Z" fill="#005225"/><path d="M19 33.97c0 5.93 3.7 11.16 5.54 13.03-1.45-6.03 3.6-9.29 8.66-12.2a12.77 12.77 0 0 0 5.71-7.15c.18-.57.11-1.06-.37-1.42-.6-.45-1.6-.21-1.92.48-2.64 5.68-7.36 7.26-10.2 7.26-3.06 0-4.93-1.11-4.93-2.7 0-.77.35-1.5.73-2.07.31-.45.23-1.13-.25-1.4-.29-.17-.65-.15-.88.1A9.06 9.06 0 0 0 19 33.97Z" fill="#005225"/></svg>