<!-- by TradingView --><svg width="56" height="56" viewBox="0 0 56 56" xmlns="http://www.w3.org/2000/svg"><path fill="#F0F3FA" d="M0 0h56v56H0z"/><path d="M31.35 15.25a3.45 3.45 0 0 0-1.06 1.85.33.33 0 0 1-.09.16.3.3 0 0 1-.34.07.32.32 0 0 1-.14-.11c-.35-.53-.8-.93-1.35-1.22a.15.15 0 0 0-.16 0c-.05.04-.07.07-.07.12 0 .2-.09.29-.27.28-.17 0-.34-.05-.52-.13-.17-.36-.35-.71-.55-1.06a2.59 2.59 0 0 1-.36-1.1 9.63 9.63 0 0 1 0-1.29c.18-.9.6-1.79 1.24-2.68.14-.2.25-.18.32.05.52 1.7 1.8 3.3 3.35 5.06Z" fill="#E86A28"/><path d="M26.44 12.82c-.03.44-.03.87 0 1.29.03.35.15.72.36 1.1.2.35.38.7.55 1.06l2.89 4.55c1.55 2.45 2.39 3.8 2.28 6.59-.3.46-.49.92-.56 1.37-.01.2-.16.3-.47.33-.16.01-.25-.07-.27-.24-.06-.56.28-.91.32-1.45.16-2.27-.5-4.4-1.94-6.23-.62-.78-1.2-1.62-1.76-2.53-.92-1.5-1.39-2.5-1.4-2.96-.03-.95-.04-1.9 0-2.88Z" fill="#F7D97D"/><path d="m31.35 15.25.48.57.44 1.08c.1.22.23.4.37.51.38.33.62.73.7 1.22l.19.97a6.49 6.49 0 0 1-.46 3.76 8.77 8.77 0 0 1-.03-1.1c.03-.6-.17-1.04-.59-1.32a.81.81 0 0 1-.29-.32.95.95 0 0 0-.65-.54.42.42 0 0 0-.24.01.44.44 0 0 0-.2.15c-.13.18-.29.21-.46.08-.13-.1-.23-.06-.3.1-.04.1-.06.23-.07.4l-2.89-4.55c.18.08.35.12.52.13.18 0 .27-.09.27-.28 0-.05.02-.08.07-.11.06-.04.11-.04.16 0 .56.28 1 .68 1.35 1.2.04.06.09.1.14.12a.3.3 0 0 0 .34-.07c.05-.04.08-.1.1-.16.14-.7.5-1.32 1.05-1.85Z" fill="#F19029"/><path d="M31.83 15.82a9.54 9.54 0 0 1 2.82 4.26c.9 3.24 0 6.14-2.7 8.7.08-.45.27-.9.57-1.37.02-.4.1-.75.25-1.08.21-.47.33-.8.35-1.01.08-.66.06-1.32-.05-1.96.55-1.42.7-2.67.46-3.76l-.19-.97c-.08-.49-.32-.9-.7-1.22a1.47 1.47 0 0 1-.37-.51l-.44-1.08ZM28.8 23.49a.43.43 0 0 0 .01.32c.06.11.03.21-.07.28-.06.05-.11.05-.17 0-.4-.34-.73-.7-1-1.09a.78.78 0 0 0-.46-.3c-.92-.22-1.8-.5-2.63-.85a6.54 6.54 0 0 1-1.25-.69 3 3 0 0 0-2.36-.44.71.71 0 0 0-.3.14.76.76 0 0 0-.22.26c-.34.67-.18 1.18.47 1.52.6.31 1.23.65 1.9 1.03l-4.27 1.4c.4-.57-.12-1.01-1.57-1.32-.66-.14-1.1-.37-1.29-.67-.1-.17-.06-.3.11-.38a.19.19 0 0 0 .1-.1c.05-.15 0-.24-.15-.28a1.17 1.17 0 0 1-.5-.28c2.98-1.52 4.97-2.57 7.6-2.49.93.03 1.75.23 2.46.6a9.43 9.43 0 0 1 3.58 3.34Z" fill="#F2A628"/><path d="M33.07 23.36c.11.64.13 1.3.05 1.96-.02.2-.13.54-.35 1-.14.34-.23.7-.25 1.09.11-2.8-.73-4.14-2.28-6.6 0-.16.03-.3.07-.4.07-.15.17-.18.3-.09.17.13.33.1.47-.08a.44.44 0 0 1 .2-.15.42.42 0 0 1 .23-.01c.29.06.5.24.65.54.07.13.17.24.29.32.42.28.62.72.6 1.32-.02.37-.01.74.02 1.1ZM28.8 23.49c.36.49.62 1.03.8 1.62a.89.89 0 0 1-.05.17c-.06.16-.14.18-.25.04-.37-.48-.57-1-1.05-1.39a2.6 2.6 0 0 0-1.78-.51c-.1 0-.2-.02-.3-.08-.34-.19-.7-.21-1.1-.06-.31.11-.63.19-.96.22l-1.4.17a69.7 69.7 0 0 0-1.89-1.03c-.65-.34-.81-.85-.47-1.52.06-.1.13-.2.22-.26.09-.07.19-.12.3-.14a3 3 0 0 1 2.36.44c.4.28.81.51 1.25.7.83.33 1.71.62 2.63.84.18.04.34.15.45.3.28.39.62.75 1.01 1.08.06.06.11.06.17.01.1-.07.13-.17.07-.28a.42.42 0 0 1-.02-.32Z" fill="#FED211"/><path d="M15.15 22.04c.13.12.3.22.5.28.15.04.2.13.14.28a.19.19 0 0 1-.09.1c-.17.08-.2.2-.1.38.19.3.62.53 1.28.67 1.45.31 1.97.75 1.57 1.31l-3.51.92A6.06 6.06 0 0 1 11 23.15a.08.08 0 0 1 .03-.07l.04-.02a12.3 12.3 0 0 0 4.08-1.02Z" fill="#E86A28"/><path d="M39.68 30.59c-.12-.4-.38-.44-.8-.12a5.4 5.4 0 0 1-2.83 1.18c-.6.05-.68-.14-.24-.57.52-.5.99-1.1 1.36-1.73a32.09 32.09 0 0 1 3.6-4.98 4.85 4.85 0 0 1 2.15-1.4.28.28 0 0 0 .06-.5 1.8 1.8 0 0 0-1.24-.27 6.03 6.03 0 0 1 3.12.21l.09.06a.22.22 0 0 1 .04.22.2.2 0 0 1-.06.09c-2.36 2.03-3.66 5.18-5.25 7.8Z" fill="#BCD753"/><path d="M41.74 22.2c.45-.06.87.02 1.24.26.05.03.09.07.1.12a.28.28 0 0 1-.03.3.26.26 0 0 1-.13.09c-.84.27-1.56.74-2.14 1.4a32.09 32.09 0 0 0-3.6 4.98 8.51 8.51 0 0 1-1.37 1.73c-.44.43-.36.62.24.57a5.4 5.4 0 0 0 2.82-1.18c.43-.32.7-.28.81.12-2.07 2.73-4.75 3.7-8.02 2.87a8.1 8.1 0 0 1-2.7-1.17c-.62-.44-.55-.67.2-.68.75-.01 1.5.06 2.21-.26 2.94-1.38 4.26-4.01 6.07-6.5a5.86 5.86 0 0 1 1.83-1.63c.79-.46 1.61-.8 2.47-1.02Z" fill="#65B141"/><path d="M29.6 25.11c.12.08.17.2.14.35 0 .06-.02.11-.06.16a.31.31 0 0 1-.13.1.3.3 0 0 1-.3-.05c-2.3-1.93-4.97-1.7-7.6-.81-2.3.77-4.23 1.58-6.71 1.12l3.51-.92 4.27-1.4 1.39-.16c.33-.03.65-.1.96-.22.4-.15.76-.13 1.1.06.1.06.2.08.3.08a2.6 2.6 0 0 1 1.78.51c.48.38.68.91 1.05 1.4.1.13.19.11.25-.05l.04-.17Z" fill="#F7D97D"/><path d="M23.08 30.33c-.28.28-.41.63-.4 1.06.01.12-.04.17-.14.13-.03 0-.05 0-.07.03a.42.42 0 0 0-.1.27c-.03.94-.12 1.87-.28 2.8l-.04-1.63c0-.39-.09-.4-.23-.05a3.95 3.95 0 0 0 0 .24c-.08-.12-.18-.14-.3-.06a2.43 2.43 0 0 0-1.06 2l-.09 2.7c-.08 1.5-.53 4-1.65 5.06l-.36-.44a.46.46 0 0 1-.11-.4c.3-1.84.14-3.66-.48-5.44.02-.38-.04-.74-.17-1.05.03-.47.08-.95.17-1.44.03-.2.05-.2.04 0 0 .06 0 .1.03.15.08.16.14.15.2-.02.3-1.02.81-1.91 1.54-2.67.38-.4.74-.83 1.07-1.3l1-1.45c.65-.9 1.62-1.6 2.9-2.12.46-.2.45-.32-.04-.39a4.27 4.27 0 0 0-.77-.01 46.9 46.9 0 0 1 1.57-.22c.23-.03.38.06.46.26.07.15.03.27-.12.34-.78.4-1.35.9-1.7 1.48-.23.38-.52 1.1-.87 2.17Z" fill="#FED211"/><path d="M23.74 26.3c.33-.02.59-.01.77.01.49.07.5.2.04.39a6.35 6.35 0 0 0-2.9 2.12l-1 1.44c-.33.48-.69.92-1.07 1.3a6.37 6.37 0 0 0-1.55 2.68c-.05.17-.11.18-.2.02a.34.34 0 0 1-.02-.14c0-.2 0-.2-.04 0-.09.48-.14.96-.17 1.43-.3-4.75 1.75-7.83 6.14-9.25Z" fill="#F2A628"/><path d="M38.17 40.09a11.01 11.01 0 0 0-4.04-2.65l-2.1-.73a17.8 17.8 0 0 1-6.34-3.22l-.7-2.34c-.03-.1-.07-.1-.13-.03l-.11.15c-.08-.42-.04-.74.12-.98.04-.06.1-.1.17-.13a.37.37 0 0 1 .39.06c.05.05.1.11.11.18.32 1.06.81 1.97 1.47 2.74.6.72 1.75 1.4 3.43 2.02 1.44.54 2.87 1.07 4.31 1.58 1.45.5 2.59 1.62 3.42 3.35ZM23.08 30.33c-.19 1.1-.28 1.8-.28 2.13a50.7 50.7 0 0 1-.25 6.34 5.47 5.47 0 0 1-1.8 3.35c.68-1.46 1-2.94.97-4.45l.37-3.08c.16-.93.25-1.86.27-2.8 0-.1.04-.2.1-.27.03-.03.05-.04.08-.03.1.04.15 0 .15-.13-.02-.43.1-.78.4-1.06Z" fill="#F7D97D"/><path d="M25.69 33.49a6.6 6.6 0 0 0 1.8 3.07c.44.43 1.04.78 1.78 1.05.62.23 1.28.43 1.98.6.53.14.79-.08.78-.64v-.86l2.1.73-.34.45a.46.46 0 0 0-.09.2c-.02.08 0 .14.08.16.3.1.3.2.02.34-.4.18-1.2-.04-1.7.05a.42.42 0 0 0-.29.17c-.27.39-.23.72.14 1 .06.04.11.1.15.17.03.07.05.15.05.23 0 .44.2.66.64.66.16 0 .25.07.29.22.01.07.06.12.12.13.6.11 1.16.3 1.7.58l-4.12-.89a8 8 0 0 1-3.6-1.77 6.85 6.85 0 0 1-2.06-3.34 11.47 11.47 0 0 1-.37-4.53l.1-.15c.07-.08.11-.07.14.03l.7 2.34ZM22.1 34.62l-.38 3.08c.1-.79-.1-1.22-.62-1.29-.15-.02-.25.04-.33.17-.2.37-.34.78-.4 1.24l.09-2.7c.03-.86.39-1.52 1.07-2 .11-.08.21-.06.29.06a3.94 3.94 0 0 1 0-.24c.14-.36.22-.34.23.05l.04 1.63Z" fill="#F2A628"/><path d="M25.69 33.49a17.8 17.8 0 0 0 6.34 3.22v.86c0 .56-.25.78-.78.65-.7-.18-1.36-.38-1.98-.6a5.05 5.05 0 0 1-1.79-1.06 6.6 6.6 0 0 1-1.8-3.07Z" fill="#FED211"/><path d="M21.72 37.7c.03 1.5-.3 2.99-.97 4.45l-2.26 1.43a.29.29 0 0 1-.18-.08.18.18 0 0 1-.04-.12c0-.05.02-.09.06-.12l.4-.38c1.1-1.06 1.56-3.57 1.64-5.06.06-.46.2-.87.4-1.24.08-.13.18-.19.33-.17.51.07.72.5.62 1.3Z" fill="#E86A28"/><path d="M17.78 36.6c.61 1.78.77 3.6.47 5.45-.03.15 0 .28.1.4l.37.43-.4.38a.17.17 0 0 0-.05.12c0 .04.02.08.04.12.04.04.1.07.18.08-.24.46-.48.54-.7.25a.3.3 0 0 1-.07-.24c.11-1.24.25-2.28.14-3.57-.1-1.14-.13-2.28-.08-3.42Z" fill="#F7D97D"/><path d="M34.13 37.44c1.53.57 2.88 1.46 4.04 2.65a7.52 7.52 0 0 1 .7 3.35.14.14 0 0 1-.04.04.13.13 0 0 1-.14 0 13.25 13.25 0 0 0-3.8-1.68 6.12 6.12 0 0 0-1.69-.58c-.06-.01-.1-.06-.12-.13-.04-.15-.13-.23-.29-.22-.43 0-.65-.22-.64-.66a.52.52 0 0 0-.05-.23.49.49 0 0 0-.15-.18c-.37-.27-.41-.6-.14-.99a.43.43 0 0 1 .29-.17c.5-.1 1.3.13 1.7-.05.28-.13.27-.24-.02-.34-.07-.02-.1-.08-.08-.17a.46.46 0 0 1 .09-.2l.34-.44Z" fill="#E86A28"/></svg>