<!-- by TradingView --><svg width="56" height="56" viewBox="0 0 56 56" xmlns="http://www.w3.org/2000/svg"><path fill="#181B1E" d="M0 0h56v56H0z"/><path fill="#FD6E2E" d="M14 34h9v9h-9zM14 23h9v10h-9zM24 13h8v9h-8z"/><path fill="#fff" d="M33 34h9v9h-9z"/><path d="M14 22a9 9 0 0 1 9-9v9h-9Z" fill="#FD6E2E"/><path d="M24 31a8 8 0 0 1 8-8v10h-8v-2ZM24 35a8 8 0 0 0 8 8v-9h-8v1Z" fill="#fff"/><path d="M42 22a9 9 0 0 0-9-9v9h9Z" fill="#FD6E2E"/><path d="M42 24a9 9 0 0 1-9 9V23h9v1Z" fill="#fff"/></svg>