<!-- by TradingView --><svg width="56" height="56" viewBox="0 0 56 56" xmlns="http://www.w3.org/2000/svg"><path fill="#F0F3FA" d="M0 0h56v56H0z"/><path d="M22.34 14c3.1 1.89 8.27 7.14 4.1 13-2.8-.81-7.86-3.88-4.1-13Z" fill="#354A4D"/><path d="M12 20.42c3.42-.92 10.6-.92 12 6.47-2.44 1.5-8.01 3.01-12-6.47Z" fill="#9CC849"/><path d="M10 31.14c2.17-2.54 7.8-6.54 13-2.25-1.09 2.39-4.61 6.54-13 2.25Z" fill="#354A4D"/><path d="M15.03 42c-.25-3.6 1.1-10.85 8.49-11 .98 2.72 1.4 8.6-8.5 11Z" fill="#9CC849"/><path d="M29.43 44c1.72-3.1 3.48-10.05-3.26-13-2.02 2.04-4.85 7.1 3.26 13Z" fill="#354A4D"/><path d="M39 36.41c-1.38-3.56-5.72-9.83-12-6.43.38 3.07 2.63 8.88 12 6.43Z" fill="#9CC849"/><path d="M43 24.56c-2.12 3.08-7.9 8.12-14 3.7.96-2.8 4.41-7.82 14-3.7Z" fill="#354A4D"/><path d="M38 15.13c-.57 2.17-2.56 6.1-6 4.5.06-1.82.98-5.35 6-4.5Z" fill="#9CC849"/><path d="M45 19.49c-1.5.64-4.8 1.2-6-1.7 1-.8 3.45-1.85 6 1.7Z" fill="#354A4D"/><path d="M48 15.28c-.54.9-2.09 2.42-4 1.36.2-.8 1.07-2.25 4-1.36Z" fill="#9CC849"/></svg>