<!-- by TradingView --><svg width="56" height="56" viewBox="0 0 56 56" xmlns="http://www.w3.org/2000/svg"><path fill="#F0F3FA" d="M0 0h56v56H0z"/><path fill="#E9A828" d="M17 12h22v32H17z"/><path d="M35.5 36.4c-.42.13-1 .27-1 .6v1.42c0 .24.3.36.5.36s.5-.12.5-.36v-2.01Zm0 3.6v-.41c-.2.38-.86.41-1.25.41-.85 0-1.25-.3-1.25-1.23V37.2c0-1.26 1.27-1.5 2.05-2.13.16-.13.45-.23.45-.3V33.6c0-.26-.3-.38-.5-.38s-.5.12-.5.38V35H33v-1.41c0-1.06.74-1.59 2.1-1.59 1.3 0 1.9.52 1.9 1.66V40h-1.5ZM30.5 33.37c0-.25-.3-.37-.5-.37s-.5.12-.5.35v5.04c0 .24.3.37.5.37s.5-.13.5-.37v-5.02Zm-1-1.07c.22-.2.76-.3 1.2-.3.66 0 1.3.23 1.3.94v5.75c0 .84-.73 1.31-1.5 1.31a2.3 2.3 0 0 1-1.27-.38l-.15.38H28V30h1.5v2.3ZM25 40v-8h1.5v8H25Zm0-8.54V30h1.5v1.46H25ZM22.5 35v-1.37c0-.25-.3-.37-.5-.37s-.5.12-.5.35V40H20v-8h1.5v.32c.25-.21.8-.32 1.24-.32.66 0 1.26.44 1.26 1.13V35h-1.5Z" fill="#211D1D"/></svg>