<!-- by TradingView --><svg width="56" height="56" viewBox="0 0 56 56" xmlns="http://www.w3.org/2000/svg"><path fill="#181B1E" d="M0 0h56v56H0z"/><ellipse cx="27.97" cy="28" rx="1.88" ry="1.86" fill="#F7F6F5"/><path fill-rule="evenodd" d="M40 27.99a12 12 0 1 1-23.99-.02A12 12 0 0 1 40 28ZM29.17 38.94l-.68.05v-5.16c1.33.05 2.6.31 3.78.75-1 1.94-2.23 3.48-3.1 4.36Zm-1.73-5.11v5.16l-.61-.05a18.88 18.88 0 0 1-3.1-4.36c1.15-.43 2.4-.7 3.71-.75Zm5.2 0a13.16 13.16 0 0 0-4.15-.82v-4.53h5.57c-.11 1.92-.68 3.75-1.42 5.35Zm1.43-6.4h-5.58V23c1.55-.06 3.02-.38 4.36-.93a15.15 15.15 0 0 1 1.22 5.37Zm.92 0c-.06-2.1-.59-4.05-1.3-5.74.78-.39 1.5-.85 2.17-1.38A10.96 10.96 0 0 1 39 27.43h-4Zm0 1.05h4a10.96 10.96 0 0 1-3.09 7.17 12.18 12.18 0 0 0-2.42-1.47c.8-1.7 1.4-3.65 1.5-5.7Zm-7.55-1.05V23a12.84 12.84 0 0 1-4.3-.93 15.15 15.15 0 0 0-1.2 5.37h5.5Zm-6.43 0c.06-2.1.59-4.05 1.3-5.74-.78-.39-1.5-.85-2.17-1.38A10.96 10.96 0 0 0 17 27.43h4Zm-4 1.05h4c.12 2.05.72 4 1.51 5.7-.87.4-1.69.9-2.42 1.47A10.96 10.96 0 0 1 17 28.48Zm4.93 0h5.5V33c-1.44.06-2.81.35-4.08.82a14.78 14.78 0 0 1-1.42-5.35Zm10.56-7.2c-1.23.51-2.59.81-4 .87v-5.14c.43.02.86.06 1.28.13.78.85 1.85 2.3 2.72 4.15Zm-5.06.87V17c-.41.02-.82.07-1.22.13-.78.85-1.85 2.3-2.72 4.15 1.21.5 2.54.8 3.94.86Zm5.67 12.78a20.63 20.63 0 0 1-2.52 3.76 10.97 10.97 0 0 0 4.69-2.44c-.66-.51-1.39-.96-2.17-1.32Zm-12.39 1.32a10.97 10.97 0 0 0 4.7 2.44c-.8-.94-1.73-2.23-2.53-3.76-.78.36-1.5.8-2.17 1.32ZM33.33 20.9c.68-.34 1.31-.75 1.9-1.2-1.15-1-2.51-1.77-4-2.23.68.88 1.44 2.05 2.1 3.43Zm-12.55-1.2c.58.45 1.21.86 1.89 1.2a19.12 19.12 0 0 1 2.1-3.43c-1.49.46-2.85 1.22-4 2.22Z" fill="#9A9999"/><path fill-rule="evenodd" d="M31.52 40.53c.42-1.28.78-2.76 1.07-4.4-1.47-.55-3.01-1.22-4.59-2a51.94 51.94 0 0 1-4.59 2c.29 1.64.65 3.12 1.07 4.4.53 1.59 1.15 2.83 1.8 3.65.66.84 1.25 1.13 1.72 1.13s1.06-.29 1.72-1.13c.65-.82 1.27-2.06 1.8-3.65Zm-8.83-4.12c1 5.7 3 9.59 5.31 9.59 2.3 0 4.3-3.89 5.3-9.6 5.28 1.9 9.42 2.19 10.46.44 1.06-1.8-1.42-5.26-5.95-8.84 4.53-3.58 7-7.05 5.95-8.84-1.04-1.75-5.18-1.45-10.45.43-1-5.7-3-9.59-5.31-9.59-2.3 0-4.3 3.89-5.3 9.6-5.28-1.9-9.42-2.19-10.46-.44-1.06 1.8 1.42 5.26 5.95 8.84-4.53 3.58-7 7.05-5.95 8.84 1.04 1.75 5.18 1.45 10.45-.43Zm.61-.96a50.84 50.84 0 0 0 3.93-1.7 60.42 60.42 0 0 1-4.37-2.48c.09 1.47.24 2.87.44 4.18Zm5.47-1.7c1.35.65 2.67 1.22 3.93 1.7.2-1.31.35-2.71.44-4.18a60 60 0 0 1-4.37 2.48Zm4.42-3.32A58.78 58.78 0 0 1 28 33.37a59.3 59.3 0 0 1-5.19-2.94 53.45 53.45 0 0 1 0-4.86A58.78 58.78 0 0 1 28 22.63a59.3 59.3 0 0 1 5.19 2.94 53.45 53.45 0 0 1 0 4.86Zm.74.34c-.09 1.74-.26 3.4-.5 4.95 1.4.5 2.72.9 3.91 1.17 1.64.37 3 .5 4.03.4 1.04-.1 1.56-.43 1.78-.8.21-.35.24-.96-.2-1.88-.42-.91-1.21-2-2.36-3.2a32.57 32.57 0 0 0-3.34-2.97 51.05 51.05 0 0 1-3.32 2.33ZM36.69 28c-.85.64-1.76 1.29-2.72 1.92a54.34 54.34 0 0 0 0-3.84c.96.63 1.87 1.28 2.72 1.92Zm.56-.44a32.57 32.57 0 0 0 3.34-2.97 12.6 12.6 0 0 0 2.37-3.2c.43-.92.4-1.53.19-1.89-.22-.36-.74-.68-1.78-.78-1.02-.1-2.39.02-4.03.39-1.2.27-2.51.66-3.92 1.17.25 1.54.42 3.2.5 4.95 1.2.77 2.31 1.55 3.33 2.33Zm-4.66-7.7a30.22 30.22 0 0 0-1.07-4.39 12.32 12.32 0 0 0-1.8-3.65c-.66-.84-1.25-1.13-1.72-1.13s-1.06.29-1.72 1.13c-.65.82-1.27 2.06-1.8 3.65a30.22 30.22 0 0 0-1.07 4.4c1.47.55 3.01 1.22 4.59 2a51.94 51.94 0 0 1 4.59-2Zm-3.82 2.4a50.84 50.84 0 0 1 3.93-1.71c.2 1.31.35 2.71.44 4.18a60 60 0 0 0-4.37-2.48Zm-1.54 0a50.84 50.84 0 0 0-3.93-1.71c-.2 1.31-.35 2.71-.44 4.18a60 60 0 0 1 4.37-2.48Zm-5.16 2.97c.09-1.74.26-3.4.5-4.95-1.4-.5-2.72-.9-3.91-1.17-1.64-.37-3-.5-4.03-.4-1.04.1-1.56.43-1.78.8-.21.35-.24.96.2 1.88.42.91 1.21 2 2.36 3.2.92.95 2.04 1.96 3.34 2.97a51.05 51.05 0 0 1 3.32-2.33Zm-3.32 3.2c1.02.79 2.13 1.57 3.32 2.34.09 1.74.26 3.4.5 4.95-1.4.5-2.72.9-3.91 1.17-1.64.37-3 .5-4.03.4-1.04-.1-1.56-.43-1.78-.8-.21-.35-.24-.96.2-1.88.42-.91 1.21-2 2.36-3.2.92-.95 2.04-1.96 3.34-2.97Zm.56-.43c.85-.64 1.76-1.29 2.72-1.92a54.34 54.34 0 0 0 0 3.84A49.96 49.96 0 0 1 19.31 28Z" fill="#F7F6F5"/></svg>