<!-- by TradingView --><svg width="56" height="56" viewBox="0 0 56 56" xmlns="http://www.w3.org/2000/svg"><path fill="#F0F3FA" d="M0 0h56v56H0z"/><path d="M28.2 10.36c.1 0 .17-.08.17-.18 0-.1-.08-.18-.17-.18-.1 0-.17.08-.17.18 0 .1.08.18.17.18ZM27.09 11.49a.3.3 0 0 0 .3-.32.3.3 0 0 0-.3-.3.3.3 0 0 0-.3.3c0 .18.14.32.3.32ZM29.07 11.32c.1 0 .17-.08.17-.18 0-.1-.08-.17-.17-.17-.1 0-.17.08-.17.17 0 .1.08.18.17.18ZM27.98 12.36a.3.3 0 0 0 .3-.32.3.3 0 0 0-.3-.3.3.3 0 0 0-.3.3c0 .18.13.32.3.32ZM29.86 12.25c.13 0 .24-.1.24-.24 0-.13-.1-.24-.24-.24-.12 0-.23.1-.23.24 0 .14.1.24.23.24ZM26.67 13.24c.18 0 .33-.16.33-.36 0-.2-.15-.35-.33-.35a.35.35 0 0 0-.34.35c0 .2.15.36.34.36ZM28.92 13.48a.3.3 0 0 0 .3-.3.3.3 0 0 0-.3-.32.3.3 0 0 0-.3.31c0 .17.14.31.3.31ZM30.12 13.43c.12 0 .23-.1.23-.24 0-.13-.1-.24-.23-.24s-.23.1-.23.24c0 .14.1.24.23.24ZM27.69 13.67c.13 0 .23-.1.23-.24 0-.13-.1-.24-.23-.24s-.23.1-.23.24c0 .13.1.24.23.24ZM30.42 14.87a.3.3 0 0 0 .3-.31.3.3 0 0 0-.3-.31.3.3 0 0 0-.3.3c0 .18.13.32.3.32ZM25.75 15.06c0 .28.2.52.46.53.26 0 .48-.21.49-.5 0-.27-.2-.5-.46-.52-.26-.01-.48.2-.49.49ZM29.13 15.06c.12 0 .23-.11.23-.24 0-.14-.1-.25-.23-.25s-.23.11-.23.25c0 .13.1.24.23.24ZM27.81 15.22a.3.3 0 0 0 .3-.3.3.3 0 0 0-.3-.32.3.3 0 0 0-.3.31c0 .18.14.31.3.31ZM30.66 16.24a.3.3 0 0 0 .3-.3.3.3 0 0 0-.3-.32.3.3 0 0 0-.3.31c0 .17.14.31.3.31ZM27.22 16.34c-.03.24.13.45.36.48.22.02.42-.15.45-.39.02-.24-.14-.45-.36-.48-.22-.03-.43.15-.45.39ZM29.18 17.1c.19 0 .34-.16.34-.36 0-.2-.15-.35-.34-.35a.35.35 0 0 0-.34.35c0 .2.15.36.34.36ZM25.78 17.73a.5.5 0 0 0 .49-.5.5.5 0 0 0-.49-.51.5.5 0 0 0-.48.5c0 .28.22.51.48.51ZM30.86 17.7a.3.3 0 0 0 .3-.3.3.3 0 0 0-.3-.32.3.3 0 0 0-.3.31c0 .18.13.32.3.32ZM26.93 18.13c-.01.28.2.52.45.53.27 0 .49-.21.5-.5.01-.28-.2-.52-.46-.53-.26 0-.48.21-.5.5ZM28.9 18.18c-.02.24.14.45.36.48.23.02.43-.15.45-.4.03-.24-.14-.45-.36-.47-.22-.03-.42.15-.45.39ZM31.02 19.19c.22 0 .4-.2.4-.43a.42.42 0 0 0-.4-.44c-.23 0-.42.2-.42.44 0 .23.19.43.42.43ZM25.6 19.86c.3 0 .54-.25.54-.57a.56.56 0 0 0-.54-.57c-.3 0-.54.26-.54.57 0 .32.24.57.54.57ZM29.08 19.8c-.03.24.13.46.35.49.23.02.43-.15.45-.4.03-.23-.13-.45-.35-.47-.23-.03-.43.14-.45.38ZM26.97 20.24c0 .28.2.52.45.53.26.01.49-.2.5-.48.01-.28-.19-.52-.45-.54-.26-.01-.48.2-.5.49ZM31.1 20.57a.3.3 0 0 0 .3-.3.3.3 0 0 0-.3-.32.3.3 0 0 0-.29.31c0 .17.13.31.3.31ZM24.65 21.51c-.02.35.24.66.56.68.33.02.62-.25.64-.6.02-.36-.23-.66-.56-.68-.33-.02-.62.25-.64.6Z" fill="#FDBE15"/><path d="M38.16 32.7h-.28a40.46 40.46 0 0 0 4.71-4.86c.77-.99 1.5-2 2-3.15.13-.32.24-.66.31-1.03.18-.87-.08-1.77-.9-2.14-.23-.1-.46-.16-.68-.19a5.6 5.6 0 0 0-1.66.06c-.61.11-1.23.26-1.87.46-.76.24-1.49.51-2.2.8-1.04.45-2.1.97-3.21 1.59a48.76 48.76 0 0 0-6.2 4.06 41.22 41.22 0 0 0-7.79 7.35 12.77 12.77 0 0 0-2.13 3.57c-.1.27-.16.57-.18.9-.05.58.1 1.05.44 1.42.52.58 1.44.64 2.14.58.47-.04.95-.11 1.42-.23a19.3 19.3 0 0 0 2.62-.8 42.1 42.1 0 0 1-6.3 2.33c-1.17.3-2.34.55-3.52.58-1.12.02-2.55-.25-2.84-1.6-.13-.6.05-1.3.3-1.88.23-.48.47-.92.73-1.31.4-.61.88-1.23 1.38-1.8a38.54 38.54 0 0 1 3.82-3.82 60.68 60.68 0 0 1 7.27-5.36 64.72 64.72 0 0 1 7.85-4.36 42.16 42.16 0 0 1 6.13-2.29c1.15-.32 2.24-.52 3.28-.6.24-.01.57 0 .96.02.6.05 1.23.21 1.67.63.67.62.67 1.5.4 2.34-.16.5-.4 1.02-.74 1.55-.41.64-.86 1.25-1.35 1.84-1 1.2-2.1 2.3-3.26 3.36a44.4 44.4 0 0 1-2.32 1.98Z" fill="#127C35"/><path d="M29.5 22.18c.3 0 .55-.25.55-.57a.56.56 0 0 0-.54-.57c-.3 0-.55.26-.55.57 0 .32.25.57.55.57ZM31.29 22.22a.5.5 0 0 0 .48-.51.5.5 0 0 0-.48-.5.5.5 0 0 0-.49.5c0 .28.22.5.49.5ZM26.65 22.36c-.03.36.22.66.55.69.33.02.61-.25.64-.6.02-.36-.23-.66-.56-.69-.33-.02-.61.25-.63.6ZM31.39 23.9a.5.5 0 0 0 .48-.52.5.5 0 0 0-.48-.5.5.5 0 0 0-.48.5c0 .28.21.51.48.51ZM24.3 23.8c-.02.44.29.83.7.86.42.03.78-.3.81-.75.03-.45-.28-.84-.7-.87-.4-.03-.77.3-.8.75ZM29.59 24.52c.3 0 .54-.26.54-.57a.56.56 0 0 0-.54-.57c-.3 0-.55.25-.55.57 0 .31.25.57.55.57ZM27.3 25.67a.6.6 0 0 0 .58-.62.6.6 0 0 0-.58-.61.6.6 0 0 0-.59.61c0 .34.26.62.59.62ZM24.3 26.2c-.03.45.29.83.7.86.42.03.78-.3.8-.75.03-.45-.28-.83-.7-.86-.4-.03-.77.3-.8.75ZM31.25 27.42c-.02.36.22.66.55.68.33.03.62-.24.64-.6.02-.35-.23-.65-.56-.68-.32-.02-.6.25-.63.6ZM29.3 29.06c-.03.35.22.66.55.68.33.02.61-.24.64-.6.02-.35-.23-.66-.56-.68-.33-.02-.61.25-.64.6ZM31.51 29.75c0 .32.23.58.53.6.3 0 .54-.25.55-.57 0-.32-.23-.58-.53-.6-.3 0-.54.25-.55.57ZM27.21 31.4c-.02.45.3.84.71.86.42.03.77-.31.8-.76.03-.44-.3-.83-.7-.85-.42-.03-.78.31-.8.76ZM30.01 31.72a.5.5 0 0 0 .48-.5.5.5 0 0 0-.48-.51.5.5 0 0 0-.48.5c0 .29.21.51.48.51ZM32.04 32.35a.5.5 0 0 0 .48-.5.5.5 0 0 0-.48-.51.5.5 0 0 0-.49.5c0 .29.22.51.49.51ZM29.46 33.25c0 .32.23.58.52.6.3 0 .55-.25.56-.57 0-.32-.23-.58-.52-.6-.3 0-.55.25-.56.57ZM27.36 33.94c-.03.39.24.72.6.75.35.02.67-.26.7-.65.02-.38-.25-.71-.6-.74-.36-.03-.68.26-.7.64ZM24.69 34.35c-.03.51.33.95.8.98.48.03.89-.36.92-.87.03-.5-.34-.95-.81-.97-.48-.03-.88.35-.91.86ZM31.4 33.88c0 .23.15.42.37.44.21 0 .4-.17.4-.4.01-.23-.15-.42-.36-.43-.22-.01-.4.16-.4.4ZM29.86 35.83c.3 0 .54-.25.54-.57a.56.56 0 0 0-.54-.57c-.3 0-.54.26-.54.57 0 .32.24.57.54.57ZM28.14 36.54c.3 0 .54-.26.54-.57a.56.56 0 0 0-.54-.58c-.3 0-.54.26-.54.58 0 .31.24.57.54.57ZM31.37 36.53a.4.4 0 0 0 .4-.41.4.4 0 0 0-.4-.41.4.4 0 0 0-.39.4c0 .24.18.42.4.42ZM26.03 37.33c.3 0 .54-.26.54-.57a.56.56 0 0 0-.54-.57c-.3 0-.55.25-.55.57 0 .31.25.57.55.57ZM29.83 37.22a.4.4 0 0 0 .39-.41.4.4 0 0 0-.4-.41.4.4 0 0 0-.38.4c0 .23.17.42.39.42ZM28.46 38.26a.5.5 0 0 0 .48-.5.5.5 0 0 0-.48-.51.5.5 0 0 0-.49.5c0 .29.22.51.49.51ZM30.1 38.65a.4.4 0 0 0 .39-.41.4.4 0 0 0-.4-.41.4.4 0 0 0-.38.4c0 .24.17.42.39.42ZM26.9 39.13a.5.5 0 0 0 .49-.5.5.5 0 0 0-.49-.51.5.5 0 0 0-.48.5c0 .29.22.51.48.51ZM28 39.85c-.03.4.25.74.62.77.37.04.7-.26.72-.66.04-.4-.24-.74-.6-.77-.38-.03-.7.26-.74.66Z" fill="#FDBE15"/></svg>