<!-- by TradingView --><svg width="56" height="56" viewBox="0 0 56 56" xmlns="http://www.w3.org/2000/svg"><path fill="#F0F3FA" d="M0 0h56v56H0z"/><path fill-rule="evenodd" d="M15 12h26v5H15v-5Zm0 7h26v22.23A2.77 2.77 0 0 1 38.22 44H15V19Zm4.53 10.95L17 23.82c.17-.6.98-1.81 2.8-1.81 1.8 0 2.9 1.2 3.23 1.8L26 29.36v-5.8c-.41-.27-1.16-.97-.77-1.54 3.6-.12 4.78 1.3 4.77 2.03v5.31l2.86-1.73a3.5 3.5 0 0 1-1.23-2.45c0-1.43 1.12-2.17 2.9-2.17 1.79 0 3.47 1.72 3.47 3.6 0 1.5-.58 2.29-.82 2.49L35.6 30l2.76 3.9c.2.4.63 1.4.63 2.19 0 .98-1.6 2.67-2.75 2.9a90.77 90.77 0 0 1-2.98-4.07c.78-.42 2.34-1.36 2.34-2.94 0-.75-.4-1.2-.92-1.44L30 33.5v4.25c0 .3.1.58.3.8l1.08 1.6c.15.16.17.4.06.6a.5.5 0 0 1-.69.18l-3.34-1.9a2.84 2.84 0 0 1-1.41-2.5v-1.26L20.9 38 19 34.5l6.67-3c-.34-1.43-1.43-4.5-2.97-4.5-1.55 0-2.76 2.04-3.17 2.95Z" fill="url(#ar5wvrudr)"/><defs><linearGradient id="ar5wvrudr" x1="14.07" y1="12" x2="39.98" y2="42.6" gradientUnits="userSpaceOnUse"><stop stop-color="#FAC9CA"/><stop offset=".46" stop-color="#D9272F"/><stop offset=".96" stop-color="#911A20"/></linearGradient></defs></svg>