<!-- by TradingView --><svg width="56" height="56" viewBox="0 0 56 56" xmlns="http://www.w3.org/2000/svg"><path fill="#F0F3FA" d="M0 0h56v56H0z"/><path d="M15 10a1.25 1.25 0 0 1 1.09 1.37 1.35 1.35 0 0 1-1.84 1.09 1.3 1.3 0 0 1-.58-2.01C14 10 14.5 9.99 15 10ZM18.14 12.94c.54 0 .98-.43.98-.95a.97.97 0 0 0-.98-.95.97.97 0 0 0-.99.95c0 .52.44.95.99.95ZM11 26.43a5.92 5.92 0 0 1 .15-1.15l.54-1.93c.13-.48.25-.8.36-.97.38-.6 1-.95 1.74-.98l.94.07 1.66.16a.1.1 0 0 0 .1-.05 11.27 11.27 0 0 1 1.48-1.9 108.78 108.78 0 0 1-.91-2.4c-.05-.1-.07-.25-.08-.47l.83-.46a.05.05 0 0 1 .05 0l.02.03v.03c-.09.25-.08.51.02.78a257.53 257.53 0 0 0 1.03 2.68 12.4 12.4 0 0 0-1.98 2.54.1.1 0 0 1-.06.04.3.3 0 0 1-.13.02l-2.51-.23c-.6-.06-1.07 0-1.44.48-.1.14-.2.4-.3.78l-.58 2.08c-.18.57-.24 1.05.19 1.54.12.13.42.3.91.51.8.34 1.52.66 2.18.96.03.01.04.03.04.07a11.73 11.73 0 0 0 .45 3.18 1613.17 1613.17 0 0 1-2.2 1.76c-.38.3-.58.69-.51 1.18.02.17.14.44.36.8.42.68.81 1.34 1.18 1.97.27.48.62.81 1.2.83.18 0 .5-.08.96-.24a142.93 142.93 0 0 1 2.32-.83 12.57 12.57 0 0 0 2.61 1.93l.02.07c-.08.82-.16 1.62-.26 2.42-.04.37-.03.65.04.85.14.43.47.71 1 .85l2.72.7c.21.06.4.08.56.06.62-.08.91-.44 1.17-1 .34-.75.7-1.49 1.05-2.22.04-.07.1-.1.17-.1a13.56 13.56 0 0 0 3.22-.41 10219.63 10219.63 0 0 1 1.7 1.97c.42.49.71.71 1.37.65.18-.01.47-.14.87-.37.66-.39 1.34-.77 2.02-1.14.48-.26.77-.57.82-1.1.02-.17-.04-.43-.17-.76l-.93-2.4c0-.02 0-.04.02-.06a13.5 13.5 0 0 0 2.03-2.54 95.74 95.74 0 0 1 2.7.23c.29.03.53.02.72-.02.6-.16.82-.6.98-1.21l.65-2.37c.15-.52.08-.93-.21-1.24a2.52 2.52 0 0 0-.84-.5 84.6 84.6 0 0 1-2.28-1.03 12.4 12.4 0 0 0-.43-3.22c0-.03.02-.05.04-.07l1.94-1.53c.48-.4.82-.72.74-1.34a2.82 2.82 0 0 0-.42-.9c-.42-.67-.83-1.35-1.24-2.04-.24-.42-.59-.64-1.04-.67a2.1 2.1 0 0 0-.82.17l-2.47.89-.06-.01a13.37 13.37 0 0 0-2.7-2.02 3224.87 3224.87 0 0 1 .22-2.4c.03-.35.03-.6.01-.76-.08-.53-.53-.88-1.07-1.02-.82-.2-1.6-.4-2.33-.6a2.6 2.6 0 0 0-.98-.13c-.45.06-.78.32-1 .78a449.94 449.94 0 0 0-1.23 2.53 12.8 12.8 0 0 0-3.32.45 304.51 304.51 0 0 0-1.89-2.2c-.18-.2-.36-.33-.54-.36-.21-.04-.22-.1-.04-.2l.36-.19.32-.2a.07.07 0 0 1 .08.01c.18.14.35.28.5.46l1.48 1.77c.01.02.03.02.05.02a13.67 13.67 0 0 1 2.46-.35l.03-.02.85-1.8c.18-.4.37-.7.56-.9a2.18 2.18 0 0 1 2.2-.53l2.39.61c.5.13.85.26 1.02.37.49.33.8.75.91 1.28.06.24.06.57.01 1a108.75 108.75 0 0 0-.18 1.96l.03.03a11.96 11.96 0 0 1 2.02 1.48 64.21 64.21 0 0 0 2-.71c.34-.13.64-.2.9-.22.58-.03 1.1.13 1.54.5.2.17.42.47.67.91l1.23 2.07c.35.57.42 1.16.22 1.75-.16.47-.44.74-.86 1.08a572.2 572.2 0 0 1-1.67 1.35 12.88 12.88 0 0 1 .32 2.4l.03.02c.67.3 1.31.59 1.94.85.33.15.6.3.78.46.64.56.83 1.3.57 2.2l-.61 2.23c-.13.47-.25.8-.39 1-.32.5-.8.81-1.4.92-.24.05-.59.04-1.06-.01l-1.91-.18c-.03 0-.04 0-.06.02-.45.68-.95 1.3-1.49 1.88a.06.06 0 0 0-.01.07l.7 1.8c.16.43.25.75.26.96.04.57-.14 1.06-.53 1.5-.18.18-.45.38-.82.57-.7.38-1.37.75-2.01 1.13-.37.2-.68.34-.94.4-.54.1-1.06.01-1.57-.28-.2-.13-.43-.34-.68-.63a67.8 67.8 0 0 0-1.39-1.61h-.03c-.79.16-1.56.27-2.34.3a.17.17 0 0 0-.15.1l-.85 1.82c-.17.35-.34.62-.52.8-.4.4-.88.6-1.44.63-.26.01-.6-.04-1-.16l-2.38-.62c-.87-.21-1.51-.73-1.7-1.59-.07-.25-.07-.6-.02-1.03a53 53 0 0 0 .2-1.9.1.1 0 0 0-.05-.08 12.4 12.4 0 0 1-1.85-1.37.07.07 0 0 0-.08-.01l-2.28.82c-.75.26-1.54.1-2.14-.4-.18-.15-.43-.5-.73-1.02l-1.19-1.98a2 2 0 0 1 .49-2.64 99.1 99.1 0 0 1 1.85-1.48 10.32 10.32 0 0 1-.35-2.38 142.48 142.48 0 0 0-2.06-.93c-.62-.27-1.16-.7-1.29-1.38a9.84 9.84 0 0 1-.07-.42ZM22.7 12.88l.22.15a.1.1 0 0 1 .04.04.1.1 0 0 1-.04.13l-.66.36-5.57 3.1a.26.26 0 0 1-.14.06c-.03 0-.05 0-.06-.03a.28.28 0 0 1-.02-.11c-.03-.3.07-.5.29-.62a1493.72 1493.72 0 0 1 2.06-1.17v-.03l-.02-.02-.2-.17c-.16-.26-.17-.48-.04-.67a.64.64 0 0 1 .65-.28c.23.03.39.15.48.36l.05.28c0 .02.02.03.04.02l2.35-1.31c.17-.1.36-.12.57-.09Z" fill="#221F20"/><path d="m39.98 29.12 3.1 1.38c.32.15.28.38.2.67l-.68 2.47c-.08.29-.17.55-.56.52-1.06-.1-2.15-.2-3.27-.32-.1 0-.18 0-.23.08a14.62 14.62 0 0 1-2.5 3.19v.07c.42 1.04.8 2.04 1.18 3.02.1.26 0 .47-.22.6l-2.61 1.45c-.2.1-.4.06-.53-.1l-2.17-2.53a.16.16 0 0 0-.17-.05c-1.28.34-2.6.51-3.95.5-.1 0-.16.05-.2.13L26 43.08c-.12.27-.33.36-.61.29l-2.84-.74c-.27-.07-.4-.24-.37-.5l.33-3.21a.16.16 0 0 0-.09-.17 14.05 14.05 0 0 1-3.22-2.36h-.08l-2.98 1.08c-.34.12-.58.2-.8-.17l-1.48-2.5c-.13-.22-.03-.44.16-.58l2.53-1.99c.07-.05.1-.12.07-.18a12.62 12.62 0 0 1-.56-3.95 2442.45 2442.45 0 0 0-3.13-1.4c-.27-.12-.37-.31-.3-.58l.78-2.76c.07-.26.24-.37.51-.35l3.29.31c.08 0 .14-.02.18-.09.43-.69.85-1.35 1.4-1.98a54.42 54.42 0 0 1 1.26-1.37.05.05 0 0 1 .04.02l1.84 3.08a.8.8 0 0 1 .12.39c.1 3.84.21 7.79.34 11.83 0 .25.07.5.18.76.36.8 1.24.88 2 .64.5-.16.81-.35 1.4-.68 3.33-1.86 6.65-3.72 9.97-5.56.56-.32 1.16-.8 1.34-1.41.22-.73-.28-1.32-.9-1.68l-10.34-6.15a.73.73 0 0 1-.26-.26 548.4 548.4 0 0 0-1.86-3.14l.01-.01.02-.01c.46-.12.93-.25 1.4-.36.25-.07.5-.1.74-.15l.3-.05c.68-.05 1.35-.1 2.02-.11.05 0 .08-.02.1-.07l1.3-2.76c.13-.26.27-.59.64-.5l2.92.76c.24.06.38.25.36.48a484.5 484.5 0 0 0-.32 3.32l.03.03a13.23 13.23 0 0 1 3.32 2.44l.08.05.1-.01 3.14-1.14c.25-.09.44-.03.57.19l1.5 2.5c.16.27.04.48-.18.66a494.5 494.5 0 0 0-2.58 2.07v.08c.11.4.21.82.3 1.27.18.87.22 1.77.24 2.65 0 .04.02.06.05.07Z" fill="#221F20"/><path d="M25.2 35.4c-.42.24-.87.47-1.34.5-.51.03-.62-.54-.63-.92-.05-2.92-.1-5.88-.13-8.9 0-.08.02-.1.08-.02.7.91 1.69 1.88 2.96 1.44.59-.21 1.08-.58 1.52-1.02.42-.41.84-.84 1.28-1.3.24-.25.83-.77 1.22-.55 2 1.14 3.88 2.23 5.67 3.27.17.1.33.22.47.38.22.23.22.48 0 .73-.2.24-.42.42-.67.56L25.2 35.4Zm5.58-9a.46.46 0 0 0-.14-.33.5.5 0 0 0-.68 0 .46.46 0 0 0 .15.76.5.5 0 0 0 .53-.1.47.47 0 0 0 .14-.33Zm-3.66 1.9a.62.62 0 0 0-.2-.45.67.67 0 0 0-1.07.2.62.62 0 0 0 .14.7.66.66 0 0 0 .47.18c.17 0 .34-.06.46-.18.13-.12.2-.28.2-.45Zm-1.81.28a.23.23 0 0 0-.07-.17.25.25 0 0 0-.35 0 .23.23 0 0 0 0 .33.25.25 0 0 0 .35 0c.04-.04.07-.1.07-.16Zm8.34.43a.4.4 0 0 0-.13-.29.43.43 0 0 0-.6 0 .4.4 0 0 0 0 .58.43.43 0 0 0 .6 0 .4.4 0 0 0 .13-.29Zm-3.21.67a.67.67 0 0 0-.21-.5.72.72 0 0 0-.5-.2.74.74 0 0 0-.52.2.7.7 0 0 0-.2.5c0 .18.07.36.2.49a.73.73 0 0 0 1.02 0c.13-.13.2-.3.2-.5Zm-4.6 2.44a.45.45 0 0 0-.15-.33.49.49 0 0 0-.67 0 .45.45 0 0 0 0 .65.49.49 0 0 0 .67 0c.1-.08.14-.2.14-.32Zm2.1 1.14a.26.26 0 0 0 .15-.25.29.29 0 0 0-.19-.25.27.27 0 0 0-.2 0 .26.26 0 0 0-.15.27c0 .03 0 .07.02.1.04.06.1.12.16.14.07.03.15.02.21 0Z" fill="#4DAAE9"/></svg>