<!-- by TradingView --><svg width="56" height="56" viewBox="0 0 56 56" xmlns="http://www.w3.org/2000/svg"><path fill="#F0F3FA" d="M0 0h56v56H0z"/><path fill-rule="evenodd" d="M13 20a8 8 0 1 0 0 16h30a8 8 0 1 0 0-16H13Zm28.57 7.11c-.34 0-.7.02-1.07.04-.18.02-.24-.06-.2-.21l1.32-4.15a.16.16 0 0 1 .06-.08.17.17 0 0 1 .1-.03c.74 0 1.52 0 2.35.04.44.02.83.1 1.19.24.95.39 1.15 1.2 1.26 2.07 0 .04.02.07.06.1a.22.22 0 0 0 .28-.05.17.17 0 0 0 .03-.06l.79-2.86a.12.12 0 0 0-.03-.11.14.14 0 0 0-.04-.04.15.15 0 0 0-.07-.01H37.27c-.08 0-.13.07-.14.14v.11c0 .02.01.04.03.05l.04.04.06.02c.24.02.5.07.75.14.63.16.6.57.47 1.1L38 25.2c-.73 2.31-1.44 4.63-2.16 6.96-.1.34-.26.65-.47.96-.27.37-.57.42-.97.49a7.2 7.2 0 0 0-.52.12c-.33.18-.3.27.08.27h6.1c.03 0 .05-.01.07-.03h.02a.17.17 0 0 0 .06-.06.22.22 0 0 0 .04-.12c0-.07-.03-.1-.1-.1a6.5 6.5 0 0 1-.84-.1c-.86-.17-.74-.87-.57-1.45l1.27-4.2a.18.18 0 0 1 .07-.1.2.2 0 0 1 .12-.03c.56.01 1.09.04 1.58.1.77.08 1.22.6 1.2 1.3 0 .22 0 .45-.02.68 0 .04.01.08.04.12a.2.2 0 0 0 .12.06c.11.02.19-.03.22-.14l1.24-4.04a4.67 4.67 0 0 0 .11-.54.11.11 0 0 0-.03-.04.13.13 0 0 0-.12-.03.29.29 0 0 0-.17.12l-.06.08a4 4 0 0 1-.77.93c-.52.4-1.3.7-1.98.7Zm-15.5 5.6c-.07.37.24.56.58.58 2.25.15 4.5-.9 5.77-2.6a.33.33 0 0 1 .39-.1c.02 0 .04.02.05.04v.06a111 111 0 0 1-1.1 2.6c-.07.14-.11.3-.16.44l-.05.16c0 .03-.02.05-.05.07-.02.02-.05.04-.08.04H21.35a.34.34 0 0 1-.19-.06c-.04-.03-.06-.05-.04-.07a.6.6 0 0 1 .42-.2c.7-.04 1.16-.27 1.37-.69.2-.37.36-.77.5-1.2a313.1 313.1 0 0 0 1.65-5.46c.3-.94.6-1.88.84-2.8.24-.95-.48-1.1-1.25-1.2l-.05-.01a.1.1 0 0 1-.04-.04c-.02-.04-.03-.08-.01-.12a.25.25 0 0 1 .1-.1.28.28 0 0 1 .13-.05h5.88c.1 0 .14.04.13.13 0 .02 0 .04-.02.06a.26.26 0 0 1-.24.15c-1.05.04-1.55.67-1.82 1.53-.78 2.51-1.56 5.05-2.33 7.61-.11.38-.22.79-.3 1.23Zm-8.23-4.86a3.32 3.32 0 0 0 2.84-1.65c.47-.63.64-1.32.49-2.06-.16-.84-.69-1.42-1.57-1.76a5.64 5.64 0 0 0-2.04-.38h-5.68a.34.34 0 0 0-.29.14.1.1 0 0 0 .02.12 285.5 285.5 0 0 1 .84.2c.47.12.65.4.55.87-.06.3-.14.6-.23.9-.77 2.47-1.52 4.94-2.25 7.4l-.01.05c-.23.78-.56 1.87-1.57 1.93-.2.01-.41.06-.62.14-.06.02-.09.07-.09.15a.1.1 0 0 0 .04.07l.03.02.05.01h5.9c.11 0 .19-.05.23-.15a.2.2 0 0 0 0-.08c0-.07-.04-.11-.12-.11-.65-.01-1.51-.16-1.35-.97l.1-.43c.38-1.3.8-2.64 1.24-4.04.02-.06.07-.1.14-.11a.93.93 0 0 1 .46.04.2.2 0 0 1 .08.05.2.2 0 0 1 .04.08l1.73 5.58.07.08.02.02c.02.02.05.04.08.04h3.77c.1 0 .14-.05.13-.14l-.01-.06a.3.3 0 0 0-.28-.17c-1.04-.03-1.32-.94-1.56-1.72l-.05-.16a372.8 372.8 0 0 0-1.2-3.78c0-.03.01-.05.03-.07a.17.17 0 0 1 .04-.05Zm-1.06-5.16c1.68.2 1.66 2.06 1.15 3.12-.6 1.28-1.7 1.85-3.3 1.73a.1.1 0 0 1-.06-.04 8370.33 8370.33 0 0 1 1.4-4.58c.04-.16.12-.24.24-.25.18 0 .38 0 .57.02Z" fill="#6995F7"/></svg>