<!-- by TradingView --><svg width="56" height="56" viewBox="0 0 56 56" xmlns="http://www.w3.org/2000/svg"><path fill="#F0F3FA" d="M0 0h56v56H0z"/><path d="M7.24 31.89c1.06 5.05 11.23 7.22 22.7 4.85 11.48-2.37 19.93-8.38 18.87-13.43a5.05 5.05 0 0 0-1.95-2.91c1.66.95 2.74 2.18 3.05 3.65 1.09 5.19-7.84 11.42-19.94 13.92-12.1 2.5-22.8.31-23.88-4.88-.43-2.03.69-4.22 2.92-6.29-1.45 1.7-2.11 3.44-1.77 5.09Z" fill="url(#an0fzxazj)"/><path fill-rule="evenodd" d="M6.09 31.95c1.09 5.2 11.78 7.37 23.88 4.87S51 28.1 49.91 22.91c-1.09-5.2-11.78-7.37-23.88-4.88C13.93 20.54 5 26.77 6.09 31.95Zm1.32-.43c.97 4.62 10.96 6.47 22.31 4.13 11.36-2.35 19.78-8 18.81-12.62-.97-4.63-10.96-6.48-22.32-4.13-11.36 2.34-19.77 8-18.8 12.62Z" fill="url(#bn0fzxazj)"/><path d="M26.54 25.11v-2.83c0-.2.1-.34.3-.4l.1.01c.17.08.25.2.25.39v3.41c0 .07.02.14.06.2a3.2 3.2 0 0 1-.06 4.02 3.22 3.22 0 1 1-.76-4.74c.07.05.11.03.11-.06Zm.1 2.86a.32.32 0 0 1-.1-.23v-2.05a.2.2 0 0 0-.1-.17 2.94 2.94 0 0 0-3.18-.16 2.92 2.92 0 1 0 3.41 4.67c1-.95 1.23-2.07.71-3.37-.14-.35-.2-.33-.2.04.02.42.01.79-.01 1.1a.3.3 0 0 1-.22.28c-.1.03-.2 0-.31-.1Z" fill="#2D2E30"/><path d="M29.62 23.86a.52.52 0 0 1-.53.53.53.53 0 0 1-.53-.53.53.53 0 0 1 .53-.52.53.53 0 0 1 .53.52Zm-.28.02a.26.26 0 0 0-.51 0c0 .06.02.13.07.18a.26.26 0 0 0 .44-.18ZM21.17 27.87a3.18 3.18 0 0 1-1.99 2.95 3.24 3.24 0 0 1-4.21-1.73 3.18 3.18 0 0 1 .7-3.48 3.24 3.24 0 0 1 5.5 2.26Zm-.28 0a2.9 2.9 0 0 0-2.93-2.9 2.95 2.95 0 0 0-2.94 2.9 2.9 2.9 0 0 0 2.94 2.92 2.95 2.95 0 0 0 2.93-2.91Z" fill="#F7975A"/><path d="M29.35 30.68a.45.45 0 0 1-.45.44h-.02a.45.45 0 0 1-.45-.44v-5.54a.45.45 0 0 1 .45-.44h.02a.45.45 0 0 1 .45.44v5.54Zm-.25-5.51a.2.2 0 0 0-.2-.2.2.2 0 0 0-.2.2v5.5c0 .06.02.11.05.15a.2.2 0 0 0 .14.05h.01a.2.2 0 0 0 .2-.2v-5.5ZM35.66 25.36c.7-.72 1.67-.9 2.56-.45.15.08.28.24.43.3.05.03.1.03.15-.01.6-.5 1.24-.64 1.89-.46 1.02.29 1.55.99 1.58 2.1.04 1.3.05 2.62.03 3.94 0 .09-.05.14-.14.14h-.03c-.07 0-.1-.02-.1-.09-.02-1.14-.01-2.29 0-3.44.03-1.11-.22-2.07-1.42-2.36a1.73 1.73 0 0 0-1.6.38.2.2 0 0 0-.04.28c.27.33.34.79.35 1.2v3.95c0 .07-.04.1-.1.1l-.05-.01c-.09-.01-.13-.06-.13-.15 0-1.17-.02-2.36 0-3.54.02-.5-.06-.96-.24-1.36a.1.1 0 0 0-.15-.05.1.1 0 0 0-.04.04c-.15.3-.23.62-.23.96a307.98 307.98 0 0 0-.03 4.05.13.13 0 0 1-.05.05c-.04.03-.09.03-.13.02a.14.14 0 0 1-.1-.13l.01-3.4c0-.69 0-1.21.37-1.8.02-.03.03-.07.02-.12a.16.16 0 0 0-.06-.1c-.9-.63-1.75-.57-2.56.17-.2.18-.3.42-.3.68l.02 4.44c0 .07-.03.13-.07.18-.17.2-.35.2-.53-.02a.3.3 0 0 1-.06-.2V25.2a.4.4 0 0 1 .23-.37c.09-.04.2 0 .32.1a.2.2 0 0 1 .08.13l.02.27c0 .08.04.09.1.03ZM12.58 25.8c-.08.36 0 .4.22.09a2.89 2.89 0 0 1 1.68-1.08c.13.02.19.07.18.15a.17.17 0 0 1-.14.15c-.93.22-1.94 1.05-1.93 2.1.01 1.2.02 2.3.01 3.3 0 .14-.04.26-.12.38-.07.1-.15.15-.22.13-.2-.06-.31-.18-.31-.36v-5.48c0-.17.09-.3.25-.35a.27.27 0 0 1 .14-.01.27.27 0 0 1 .22.19c.07.25.07.51.02.78ZM33.95 30.2a.06.06 0 0 0-.1-.03c-.43.62-1.01.93-1.75.94-1.3 0-2.1-1.08-2.1-2.33v-3.83c0-.08.04-.12.13-.13a.3.3 0 0 1 .04 0 .14.14 0 0 1 .12.09l.01.05v3.98c.03 2.48 3.58 2.45 3.62 0 .03-1.34.03-2.68.02-4 0-.08.04-.11.1-.11h.06c.1 0 .15.04.15.14v5.86a.13.13 0 0 1-.05.1.13.13 0 0 1-.1.03c-.06 0-.1-.03-.14-.09a.13.13 0 0 1-.03-.08l.02-.58Z" fill="#2D2E30"/><defs><linearGradient id="an0fzxazj" x1="49.28" y1="23.02" x2="7.11" y2="34.14" gradientUnits="userSpaceOnUse"><stop stop-color="#E5E9EE"/><stop offset=".53" stop-color="#798084"/><stop offset="1" stop-color="#F0F0EF"/></linearGradient><linearGradient id="bn0fzxazj" x1="49.28" y1="21.87" x2="7.11" y2="33" gradientUnits="userSpaceOnUse"><stop stop-color="#F68B45"/><stop offset=".53" stop-color="#FADEC4"/><stop offset="1" stop-color="#F6873E"/></linearGradient></defs></svg>