<!-- by TradingView --><svg width="56" height="56" viewBox="0 0 56 56" xmlns="http://www.w3.org/2000/svg"><path fill="#F0F3FA" d="M0 0h56v56H0z"/><path d="M33.93 28.51c.58-1.03.8-2.1.67-3.2a4.25 4.25 0 0 0-4.8-3.66 6.07 6.07 0 0 0-3.93 2.62c-.12.17-.23.17-.33-.02l-.4-.79a.4.4 0 0 1 .03-.43 4.95 4.95 0 0 1 3.33-1.96c2.92-.36 5.01.7 6.29 3.16 1.75 3.39 0 7.46-3.95 7.75a5.75 5.75 0 0 1-5.24-2.21.17.17 0 0 1 0-.22l.04-.07a.1.1 0 0 1 .17 0c2.5 3.01 6.31 2.27 8.12-.97ZM37.73 21.5c-.08.01-.11.05-.11.13v9.67c0 .34.32.56.63.56a.02.02 0 0 1 .02 0v.08c0 .03-.02.05-.06.05l-2.17.01c-.35 0-.36-.07-.04-.22.25-.11.37-.32.37-.63l-.01-9.13c0-.42-.2-.7-.61-.86-.06-.02-.07-.06-.04-.1a.1.1 0 0 1 .1-.06c.44.06.81.14 1.27.1 2.59-.15 6.12-.09 5.23 3.68-.32 1.34-2 1.85-3.2 1.78-.03 0-.04-.02-.04-.04l.02-.08c0-.01 0-.03.02-.04a.08.08 0 0 1 .05-.02c1.13-.06 1.8-.6 2.01-1.65.27-1.3-.29-2.82-1.68-3.11a6.26 6.26 0 0 0-1.76-.12Z" fill="#074A78"/><path fill-rule="evenodd" d="M7.28 31.03V26.9c0-.1.05-.16.16-.16l1.64-.03c.2 0 .34.08.44.24.8 1.28 1.63 2.5 2.53 3.7 1.09 1.46 2.54 1.74 4.36.83.08-.04.11-.1.1-.2 0-.09-.05-.12-.13-.1-.12.02-.22.06-.33.1-.11.05-.23.1-.36.12-.9.15-1.66-.17-2.29-.96a38.93 38.93 0 0 1-2.78-3.99.19.19 0 0 1 .05-.25c1.08-.73 1.84-1.73 1.7-3.12-.2-1.97-2.26-2.08-3.8-2.08H5.86c-.26-.02-.28.04-.05.17.2.12.2.4.2.73v9.17c0 .37-.2.65-.64.75a.06.06 0 0 0-.05.05v.09a.08.08 0 0 0 .05.04h2.51c.02 0 .03-.01.03-.03v-.06a.07.07 0 0 0-.05-.07c-.39-.07-.57-.41-.57-.81Zm.05-9.6a.13.13 0 0 0-.04.1v4.75c0 .03.01.07.04.1.03.02.06.04.1.04h1.22c.69 0 1.35-.26 1.84-.72.48-.45.75-1.07.75-1.72v-.16a2.31 2.31 0 0 0-.75-1.72 2.6 2.6 0 0 0-1.84-.72H7.43a.15.15 0 0 0-.1.04Z" fill="#074A78"/><path d="M22.34 31.65a5.03 5.03 0 0 0 3.23-4.96 5.91 5.91 0 0 0-1.82-3.95A6.22 6.22 0 0 0 19.73 21c-.74-.02-1.46.1-2.12.35a5.03 5.03 0 0 0-3.22 4.96 5.91 5.91 0 0 0 1.8 3.95A6.22 6.22 0 0 0 20.23 32c.74.02 1.46-.1 2.12-.35Zm-5.61-1.28c-1.95-1.57-2.08-4.58-.3-6.71 1.78-2.14 4.8-2.6 6.75-1.02 1.95 1.57 2.08 4.58.3 6.71-1.78 2.14-4.8 2.6-6.75 1.02Z" fill="#074A78"/><path fill-rule="evenodd" d="m43.3 27.02 2.69-.01c.12 0 .21.06.26.17l1.63 4.02c.04.1.06.21.05.32 0 .1-.03.18-.07.26-.06.12-.03.22.11.22h1.83c.23 0 .25-.05.06-.17a1.9 1.9 0 0 1-.78-.92 767.62 767.62 0 0 1-3.84-9.64c-.14-.36-.28-.36-.42 0-1.39 3.51-2.7 6.86-3.97 10.03-.08.22-.28.4-.59.53-.14.06-.13.1.01.12.37.05.73.05 1.08 0 .19-.03.2-.1.05-.2-.1-.08-.14-.18-.09-.31l1.67-4.2a.31.31 0 0 1 .31-.22Zm1.23-3.78-1.3 3.3a.08.08 0 0 0 .02.07.08.08 0 0 0 .06.04l2.6-.01a.08.08 0 0 0 .08-.07v-.04l-1.32-3.3a.08.08 0 0 0-.07-.04.08.08 0 0 0-.07.05Z" fill="#074A78"/><path d="M50.74 33.26c-.53.34-1.1.55-1.7.62-2.56.3-5.21.4-7.98.32-5.53-.18-11.06-.51-16.58-1.02.85.05 1.91.02 3.19-.1 1.58-.13 3.82-.15 6.73-.04 4.02.14 7.87.14 11.56 0 .96-.04 1.88-.16 2.77-.35.24-.05.47-.08.72-.08.33 0 .65-.12.93-.36.17-.15.35-.19.53-.12.73.26.48.7-.17 1.13Z" fill="#DFEBA8"/><path d="M24.48 33.18c5.52.5 11.05.84 16.58 1.02 2.77.09 5.42-.02 7.97-.32.61-.07 1.18-.28 1.7-.62l.6-.55a.25.25 0 0 1 .3-.03l.07.06c.78 1.04-.1 1.71-1.05 1.89-1.2.21-2.5.33-3.9.35-4.46.06-8.57-.02-12.31-.25-6.08-.37-12.22-.72-18.42-1.05-2.3-.12-4.98-.16-8.05-.1a7.53 7.53 0 0 0-3.86 1.06h-.04a.08.08 0 0 1-.04-.06L4 34.53c-.03-.12 0-.21.09-.29a4.4 4.4 0 0 1 1.7-.97c1.37-.4 2.73-.55 4.3-.57 4.8-.05 9.6.11 14.38.48Z" fill="#8CBD41"/></svg>