<!-- by TradingView --><svg width="56" height="56" viewBox="0 0 56 56" xmlns="http://www.w3.org/2000/svg"><path fill="#F0F3FA" d="M0 0h56v56H0z"/><path d="M44 28a16.06 16.06 0 0 1-14.97 15.98.06.06 0 0 1-.02-.04v-3.32l.01-.05A12.48 12.48 0 0 0 40.55 28c0-3.06-1.1-6.01-3.16-8.33a12.46 12.46 0 0 0-8.37-4.23.07.07 0 0 1-.02-.05v-3.32a.06.06 0 0 1 .02-.04.07.07 0 0 1 .05-.02A16.06 16.06 0 0 1 44 28ZM15.44 28c0 3.06 1.1 6.01 3.16 8.33a12.45 12.45 0 0 0 8.36 4.24l.02.05v3.31a.06.06 0 0 1-.04.06h-.03A16.06 16.06 0 0 1 12 28a16.06 16.06 0 0 1 14.98-15.97.06.06 0 0 1 .02.05v3.31c0 .02 0 .04-.02.05a12.49 12.49 0 0 0-11.53 12.56Z" fill="#00ADEE"/><path d="m36.95 32.52-.08-.13a9.78 9.78 0 0 0-.15-9.04c-.01-.03-.04-.04-.07-.03-.92.3-1.92.54-2.98.73-.04 0-.05.03-.04.07a11.94 11.94 0 0 1 .7 3.82l.04.02h3.48l.01.05c.01.02 0 .04-.03.04h-3.46c-.03 0-.05.02-.05.05a11.93 11.93 0 0 1-.58 3.8.08.08 0 0 0 .06.07l1.97.43.02.17-2.07-.47c-.03 0-.06 0-.07.03a10.75 10.75 0 0 1-1.57 3 .04.04 0 0 0 .03.02c.71.18 1.35.38 1.9.61.04.01.07.02.1 0a.59.59 0 0 0 .2-.13c.58-.56 1.03-1 1.35-1.33.06.07.05.14-.04.2l-1.12 1.13c-.02.05-.07.08-.14.1a.62.62 0 0 0-.16.03l-.25.11-1.93-.62a.07.07 0 0 0-.08.02l-.49.55c0-.02-.03-.04-.08-.08l.4-.46a.05.05 0 0 0 0-.07l-.02-.01a9.7 9.7 0 0 0-1.9-.31 2.4 2.4 0 0 1-.37-.04.7.7 0 0 1-.2-.16l.42.02a.13.13 0 0 0 .12-.08 19.05 19.05 0 0 0 .9-2.98l-.05-.01a.21.21 0 0 0-.03-.08c.03.01.06.02.08.01.03 0 .05-.02.06-.05l.12-.7c0 .09.02.16.05.23l-.07.44a.07.07 0 0 0 .01.05.06.06 0 0 0 .05.03c.94.08 1.81.2 2.61.36.03 0 .05 0 .06-.03.39-1.25.59-2.5.6-3.78 0-.04-.01-.06-.05-.06l-.11-.02h.06c.02-.02.03-.04 0-.05l-.01-.03c.08.02.12-.03.11-.14a12.03 12.03 0 0 0-.7-3.69c-.02-.02-.03-.03-.06-.02l-2.62.35c-.03 0-.05.02-.06.06 0 .02 0 .05.02.08-.03.01-.05.06-.05.14-.02-.17-.06-.27-.12-.28.02-.08 0-.1-.02-.09l.01-.03a18.83 18.83 0 0 0-.93-3 .06.06 0 0 0-.07-.03l-1.51.08-.17-.21v-2.62c0-.2-.04-.2-.14-.05-.36.57-.68 1.17-.96 1.8l-.15-.09 1.08-1.92.03-.03h.41l.03.03c.57.86 1.07 1.8 1.5 2.82.02.04.05.06.09.05l1.73-.3c.03-.01.04-.03.02-.05-.61-.7-1.3-1.31-2.08-1.84a27.6 27.6 0 0 0-1.2-.74.59.59 0 0 0-.63.02c-.25.16-.53.34-.85.52-.28.16-.71.48-1.3.96l-.11-.03c0-.03.03-.06.06-.09.61-.53 1.28-.99 2-1.36.09-.04.09-.07 0-.1l-.2.01a10.9 10.9 0 0 0-4.09 1.25v.01l.04.02-.2-.08a9.31 9.31 0 0 1 4.25-1.3c.14 0 .38-.03.74-.07l.33.04a9.96 9.96 0 0 1 9.66 9.6 10 10 0 0 1-1.04 4.88Z" fill="#828786"/><path d="M25.4 19.7c-.06.04-.1.05-.14.04a14.18 14.18 0 0 0-2.08-.31.02.02 0 0 1 0-.03 10.9 10.9 0 0 1 4.29-1.23c.08.02.08.05 0 .09a10.43 10.43 0 0 0-2.07 1.45ZM26.68 20.22a6.48 6.48 0 0 0-1.2-.45s0-.02.03-.03c.59-.48 1.03-.8 1.3-.96.32-.18.6-.36.85-.52a.59.59 0 0 1 .63-.02c.54.32.94.57 1.2.74.78.53 1.47 1.14 2.08 1.84.02.02.01.04-.02.04l-1.73.31c-.04 0-.07 0-.1-.05a17.3 17.3 0 0 0-1.52-2.85.09.09 0 0 0-.04 0h-.33a.08.08 0 0 0-.06.03l-1.09 1.92Z" fill="#ECEFF6"/><path d="M31.73 20.8a11.41 11.41 0 0 0-3.2-2.57.1.1 0 0 1-.01-.06 20.56 20.56 0 0 1 1.22.15c1.55.27 2.94.87 4.17 1.79.05.03.05.06-.01.08l-2.08.63a.08.08 0 0 1-.09-.03ZM28.2 18.43l1.4 2.65a.07.07 0 0 1 0 .07.07.07 0 0 1-.06.04l-1.4.07a.07.07 0 0 1-.06-.05V18.47a.07.07 0 0 1 .05-.07h.04c.02 0 .03.02.04.03ZM27.93 21.18c-.3-.37-.67-.66-1.1-.88a14 14 0 0 1 .96-1.79c.1-.16.15-.14.15.05l-.01 2.62Z" fill="#ECEFF6"/><path d="m23.02 19.37.2.08c.68.05 1.37.15 2.04.3.03 0 .08-.01.14-.04l.1.03a.22.22 0 0 0-.03.03 6.47 6.47 0 0 1 1.21.45l.15.08c.44.22.8.51 1.1.88l.17.2c.48.89.62 1.82.41 2.82l-.03.21c0 .03 0 .05.04.05l2.08-.09c.03-.01.04.01.03.09l-2.16.12a.08.08 0 0 0-.06.04l-.34.7a.16.16 0 0 0-.02.07v.15-.02l-.03.01-.05.06c.02-.05.03-.08.01-.1a.04.04 0 0 0-.03-.03.04.04 0 0 0-.03.02 4.96 4.96 0 0 1-2.9 1.6c-.06 0-.09.05-.08.13a.1.1 0 0 1-.08-.03c0-.02-.01-.04-.04-.05a6.12 6.12 0 0 1-1.3.13l-.01.01v.02c.09.26.2.48.35.68l.02.08.97 1.63.02.02h.01c.03 0 .03-.02.02-.05a.2.2 0 0 1 .08 0c-.02.11-.01.2.03.27.27.48.62.98 1.05 1.51.04.05.1.07.15.11 0 .07.03.15.1.24a29.44 29.44 0 0 0 1.62 1.8c.05.02.09.04.12.08.35.39.75.73 1.22 1.03a13.33 13.33 0 0 0 .83.55c.38.21.77.4 1.18.54.05.02.08 0 .09-.04.05.04.08.06.08.08a3.68 3.68 0 0 0 2.9-.1c.08 0 .13-.04.15-.1.51-.23.88-.6 1.12-1.11.1-.07.1-.14.04-.21.3-.5.34-1.08.13-1.73l-.02-.17a4.21 4.21 0 0 0-1.3-1.7c-.09-.06-.07-.1.03-.09.94.04 1.64.47 2.1 1.31l.28.47.07.13c0 .16.02.34.05.54.04.24.06.42.06.54-.04 2.9-2.91 4.05-5.4 3.73-.06 0-.12.01-.2.06-.1-.06-.12-.09-.07-.1l-1.29-.32c-.06 0-.1-.02-.11-.05l-.93-.45c-.02.02-.06 0-.1-.05l-.9-.51a.28.28 0 0 0-.12-.01c.04-.05.02-.1-.07-.16-.37-.27-.73-.56-1.07-.87a.4.4 0 0 0-.18-.08l-.05-.11-.58-.57a.02.02 0 0 0-.04.01c0 .03 0 .04.02.05l-.1.01c-.04-.2-.11-.34-.2-.44-.54-.6-1.04-1.23-1.52-1.88a.15.15 0 0 0-.07-.05.26.26 0 0 1-.06-.11c0-.02 0-.04-.02-.06a26.13 26.13 0 0 1-1.94-3.27 2.1 2.1 0 0 0-.25-.4 1 1 0 0 1-.13-.32 2.1 2.1 0 0 0-.19-.49c-.01-.03 0-.05.03-.07.04-.03.1-.03.18-.01.07-.04.13-.05.16-.02.74.02 1.44-.04 2.12-.17.32-.07.61-.17.86-.3.05-.03.07-.06.06-.1.05-.07.09-.08.11-.04.02.05.08.04.19-.04.64-.45.99-1.07 1.04-1.87v-.13l.03-.15a5.6 5.6 0 0 0-.2-1.75.85.85 0 0 0-.1-.25.3.3 0 0 0-.07-.1c0-.05 0-.09-.02-.13-.18-.4-.43-.71-.75-.92l-.13-.15c-.15-.15-.3-.25-.48-.3a.17.17 0 0 1-.08-.04c-.23-.23-.83-.4-1.38-.6-.3-.12-.58-.13-.82-.04-.06 0-.11-.01-.14-.04l-.92-.02a.08.08 0 0 1-.08-.08v-.4a.1.1 0 0 1 .1-.1l1.82.03Z" fill="#00ADEE"/><path d="m22.24 19.98-.05.02a.11.11 0 0 0-.07.11.11.11 0 0 0 .08.1l1.96.6c.02.01.05 0 .07 0l.14-.08c.03-.01.05-.01.07.01l.02.05.02.04a.1.1 0 0 0 .04.03c.15.07.31.1.47.1l.14.15c-.27 0-.53-.05-.76-.13a.06.06 0 0 0-.08.02 10.72 10.72 0 0 0-1.7 2.95.07.07 0 0 0 .05.04l2.55.36c.03 0 .05-.01.06-.04.13-.59.33-1.27.58-2.05.02-.05.04-.06.07-.1a.3.3 0 0 1 .06.1l-.57 2.03v.02a.04.04 0 0 0 .04.04l.8.06v.13l-.83-.03c-.03 0-.05.02-.05.05l-.34 1.9c-.02-.05-.06-.04-.1.03l.3-1.98a.01.01 0 0 0-.02-.01l-2.62-.38c-.04 0-.06.01-.08.05-.33.93-.55 1.89-.63 2.89-.03-.03-.09-.02-.16.02l.1-.6a11.39 11.39 0 0 1 .55-2.4.07.07 0 0 0-.05-.03 25.26 25.26 0 0 1-2.98-.71 30.9 30.9 0 0 1 2.9 8.62.08.08 0 0 0 .04-.1 11.56 11.56 0 0 1-.6-3.72.13.13 0 0 0-.06-.07.13.13 0 0 0-.05 0h-3.34c-.03 0-.05-.03-.05-.06v-.04a.02.02 0 0 1 .02-.02h3.4c.14 0 .2.07.21.2.07 1.29.21 2.53.62 3.73 0 .03.03.04.06.04l1.55-.22c.01.04.03.08.06.1l-1.56.26c-.03 0-.04.02-.03.05.38 1.06.9 2.04 1.56 2.92.02.02.04.03.07.03l1.93-.34c.02 0 .03-.02.02-.04l-.2-.5h.1l.25.45.07.05c.09.02.18.02.28 0l.05.1-.3.06c-.02 0-.03.02-.02.05.43.95.93 1.85 1.5 2.67.1.13.14.12.14-.04V35.9h.12a9.62 9.62 0 0 1 0 1.65c0 .1-.05.18-.16.22a.08.08 0 0 1-.09-.02 2.95 2.95 0 0 1-.41-.53 15.61 15.61 0 0 1-1.28-2.35.08.08 0 0 0-.05-.01l-1.83.32c-.04.01-.05.03-.02.06.67.81 1.46 1.48 2.36 2 .16.1.55.3 1.16.6.03.01.07.02.1.01.34-.03.66.07.99.03.85-.1 1.7-.33 2.56-.59-.05.01-.03.04.07.1a8.8 8.8 0 0 1-1.92.48 9.95 9.95 0 0 1-10.32-5.05 10.1 10.1 0 0 1-.1-9.44c.71-1.36 1.7-2.5 2.98-3.44.03.03.08.04.14.04Z" fill="#828786"/><path d="M33.84 20.3a.3.3 0 0 1 .36.04 10.4 10.4 0 0 1 2.44 2.88v.02h-.02l-2.98.71c-.03.01-.05 0-.07-.03a10.98 10.98 0 0 0-1.7-2.98v-.01l.02-.01c.59-.15 1.18-.32 1.76-.52l.2-.1ZM22.36 20.4a20.33 20.33 0 0 0 1.77.54.03.03 0 0 1 0 .03c-.72.9-1.29 1.88-1.7 2.94 0 .04-.03.05-.07.04l-2.96-.7-.02-.01a.04.04 0 0 1 0-.05c.63-1.1 1.44-2.04 2.43-2.84a.3.3 0 0 1 .35-.04l.2.1Z" fill="#ECEFF6"/><path d="M25.13 21.1c.32.22.57.53.75.93.02.04.03.08.02.12l-.07.1c-.25.8-.45 1.47-.58 2.06-.01.03-.03.04-.06.04l-2.55-.36a.07.07 0 0 1-.05-.04.07.07 0 0 1 0-.05c.42-1.07.98-2.03 1.7-2.9.02-.03.04-.03.08-.02.23.08.49.13.76.13ZM33.4 23.83l.07.1c.03.04.02.07-.03.07l-2.62.36c-.04 0-.07-.02-.08-.06a17.4 17.4 0 0 0-.9-2.97.05.05 0 0 1 .03-.03l1.8-.32c.02 0 .04 0 .06.02.68.83 1.24 1.77 1.67 2.83ZM30.6 24.37l-2.08.09c-.03 0-.05-.02-.04-.05l.03-.21c.21-1 .07-1.93-.41-2.81l1.51-.08c.03 0 .06.01.07.04a18.82 18.82 0 0 1 .93 3v.02ZM36.87 32.4l-.27-.48a2.37 2.37 0 0 0-2.1-1.3c-.1-.01-.12.02-.03.08.55.42.98.98 1.3 1.7l-1.97-.43a.08.08 0 0 1-.06-.1c.4-1.23.6-2.49.58-3.77 0-.03.02-.05.05-.05h3.46c.03 0 .04-.02.03-.04v-.04l-.01-.01h-3.48a.06.06 0 0 1-.06-.06c-.02-1.3-.25-2.56-.68-3.78-.01-.04 0-.06.04-.07 1.06-.2 2.06-.44 2.98-.73.03-.01.06 0 .07.03a9.7 9.7 0 0 1 .15 9.04ZM21.7 27.08c-.08-.02-.14-.02-.19 0-.03.03-.03.05-.02.08.09.16.15.32.2.49a1 1 0 0 0 .12.32c.1.13.16.22.25.4a26.13 26.13 0 0 0 1.96 3.33l-1.55.22c-.03 0-.05-.01-.06-.04-.4-1.2-.55-2.44-.62-3.73 0-.13-.07-.2-.21-.2H18.17a.02.02 0 0 0 0 .02v.04c0 .03.01.05.05.05h3.33a.13.13 0 0 1 .13.13c-.01 1.22.18 2.44.58 3.67v.04a.08.08 0 0 1-.06.07 30.9 30.9 0 0 0-2.9.7l-.01-.02a9.6 9.6 0 0 1 .03-9.3 25.22 25.22 0 0 0 3.03.75.07.07 0 0 1 0 .04 11.4 11.4 0 0 0-.65 2.94Z" fill="#ECEFF6"/><path d="M34.1 27.96h-2.87c-.04 0-.06-.02-.06-.06a19.3 19.3 0 0 0-.4-3.38c0-.04.03-.06.06-.06l2.62-.35c.03 0 .04 0 .05.02l.14.33c.35 1.06.54 2.18.57 3.36 0 .11-.03.16-.11.14ZM24.9 26.5c.01.03 0 .06-.06.09-.25.13-.54.23-.86.3-.68.13-1.38.19-2.12.17.09-1 .3-1.96.63-2.9.02-.03.04-.04.08-.04l2.62.38a.01.01 0 0 1 .01 0v.01l-.3 1.98ZM30.62 24.46c.06.01.1.1.12.28a18.68 18.68 0 0 1 .33 3.2.08.08 0 0 1-.05.02h-2.95a.03.03 0 0 1-.03-.03l.02-2.39-.01-.15.01-.08.35-.69a.08.08 0 0 1 .06-.04l2.15-.12Z" fill="#ECEFF6"/><path d="M30.8 24.6c.21 1.1.34 2.2.37 3.3 0 .04.02.06.06.06h2.87l.02.03c.02.01.01.03 0 .04-.02.01-.05.01-.07 0h-2.83c-.03 0-.05.01-.05.04 0 1-.07 1.99-.22 2.98a.55.55 0 0 1-.05-.22c.13-.91.2-1.82.2-2.74 0-.03-.02-.05-.05-.05h-2.96c-.03 0-.05.02-.05.05v3.31c0 .03.02.04.04.04l2.56.12.03.08-2.57-.13c-.05 0-.07.02-.07.06l.01 2.09a.24.24 0 0 0-.11-.08l.03-.06v-1.95c0-.04-.01-.06-.05-.06a28.49 28.49 0 0 0-1.63.05.6.6 0 0 0-.07-.02c.02-.03.05-.05.07-.05.38-.02.92-.04 1.64-.05.03 0 .05-.02.05-.05v-3.3c0-.03-.02-.04-.05-.04h-2.93c-.05 0-.07.02-.07.07l.06 1.54a.2.2 0 0 0-.08-.01l-.07-1.54c0-.03-.02-.05-.05-.05h-.9l-.02-.1.91-.01c.04 0 .05-.02.06-.05l.03-.72a.1.1 0 0 0 .08.03l-.02.66a.08.08 0 0 0 .02.06.09.09 0 0 0 .06.03h2.9a.08.08 0 0 0 .07-.07v-2.3l.05-.06h.02l.02.01-.02 2.39a.03.03 0 0 0 .03.03h2.95a.08.08 0 0 0 .07-.05v-.03a18.69 18.69 0 0 0-.35-3.14c0-.08.02-.13.05-.14Z" fill="#272B2C"/><path d="M27.97 25.59v2.3a.08.08 0 0 1-.07.07H25a.08.08 0 0 1-.08-.05v-.04l.02-.66c0-.08.02-.12.09-.14a4.96 4.96 0 0 0 2.92-1.6.04.04 0 0 1 .03.01c.02.03.01.06-.01.1ZM30.9 30.83l-.12.69c0 .03-.03.05-.06.05h-.08l-2.56-.13c-.02 0-.04-.01-.04-.04v-3.31c0-.03.02-.05.05-.05h2.96c.03 0 .04.02.05.05 0 .92-.06 1.83-.2 2.74Z" fill="#ECEFF6"/><path d="m34.05 28.04.11.02c.04 0 .06.02.06.06a13.2 13.2 0 0 1-.6 3.78c-.02.03-.04.04-.07.03a25.06 25.06 0 0 0-2.66-.39.06.06 0 0 1 0-.05l.06-.44c.15-.99.22-1.98.22-2.98 0-.03.02-.04.05-.04h2.83ZM24.9 29.65c.01.03 0 .04-.02.05h-.01l-.02-.02-.97-1.63.9.01c.03 0 .05.02.05.05l.07 1.54ZM26.2 31.54c-.04-.04-.1-.06-.14-.11-.43-.53-.78-1.03-1.05-1.51a.39.39 0 0 1-.03-.26l-.06-1.54c0-.05.02-.07.07-.07h2.93c.03 0 .05.01.05.04v3.3c0 .03-.02.05-.05.05-.72.01-1.26.03-1.64.05-.02 0-.05.02-.07.05ZM27.93 33.58a29.4 29.4 0 0 1-1.61-1.8c-.08-.09-.12-.17-.11-.24a.6.6 0 0 1 .07.02l.06.01a28.5 28.5 0 0 1 1.57-.06c.04 0 .06.02.06.06v1.95c0 .02-.02.04-.04.06ZM30.67 31.64h.04a.04.04 0 0 1 .03.02.04.04 0 0 1 0 .03 19.06 19.06 0 0 1-.97 3 .12.12 0 0 1-.07.02l-.43-.02c-.47-.3-.88-.64-1.22-1.03l-.02-2.09c0-.04.02-.06.07-.06l2.57.13ZM33.54 32.09c-.38 1.08-.9 2.06-1.59 2.95a.09.09 0 0 1-.09.03l-1.9-.35a.05.05 0 0 1-.03-.07 16.3 16.3 0 0 0 .93-2.97l.05-.02 2.6.37.02.01a.04.04 0 0 1 .01.03v.02ZM24.08 31.8l.07.06c.47.65.98 1.28 1.52 1.88.09.1.16.25.2.44l.2.5c0 .02 0 .03-.02.04l-1.93.34c-.03 0-.05 0-.07-.03a11.16 11.16 0 0 1-1.56-2.92c-.01-.03 0-.05.03-.05l1.56-.25Z" fill="#ECEFF6"/><path d="M35.79 32.57c.2.65.16 1.23-.13 1.73l-1.34 1.33a.6.6 0 0 1-.2.13.12.12 0 0 1-.1 0 13.8 13.8 0 0 0-1.94-.64v-.03c.68-.9 1.2-1.88 1.57-2.96.02-.03.04-.04.07-.03l2.07.47ZM19.4 32.79c.98-.3 1.92-.52 2.84-.68a.1.1 0 0 1 .12.07c.38 1.08.9 2.05 1.56 2.9.02.03.02.04-.01.05l-2 .6c-.03.01-.05 0-.07 0a9.96 9.96 0 0 1-2.46-2.92l.01-.02h.01ZM26.57 34.68c-.1.02-.2.02-.28 0a.11.11 0 0 1-.07-.05l-.25-.46c-.02 0-.03-.02-.02-.05v-.01h.02a.02.02 0 0 1 .02 0l.58.57ZM35.62 34.5c-.24.51-.61.89-1.12 1.13l1.12-1.12ZM26.62 34.79a.4.4 0 0 1 .18.08c.34.3.7.6 1.07.87.09.06.1.11.07.16v1.62c0 .16-.04.17-.13.04a16.24 16.24 0 0 1-1.5-2.67c-.02-.03-.01-.05.02-.05l.3-.05Z" fill="#ECEFF6"/><path d="m28.06 35.9.9.52-.81 1.25a.03.03 0 0 0 .01.04h.06a.08.08 0 0 0 .07-.03l.77-1.21.93.45-.78.47c-.2.12-.42.2-.64.3-.02 0-.02 0-.01.02l.02.05h.03c.54-.18 1.04-.45 1.5-.79l1.28.32c-.86.26-1.7.49-2.56.59-.33.04-.65-.06-.99-.03l-.1-.01c-.61-.3-1-.5-1.16-.6-.9-.52-1.7-1.19-2.36-2-.03-.03-.02-.05.02-.06l1.83-.32h.05l.03.04c.35.81.77 1.59 1.25 2.32.15.24.3.42.41.53.03.02.06.03.09.02.1-.04.16-.12.16-.22v-.12c.04-.51.04-1.02 0-1.52Z" fill="#ECEFF6"/><path d="M27.34 37.88c-1.91-.2-3.6-.81-5.09-1.84a.7.7 0 0 1-.15-.14c-.04-.04-.03-.07.03-.09l1.86-.56c.03 0 .06 0 .08.03a8.47 8.47 0 0 0 2.35 2.05c.33.19.66.3.95.47a.04.04 0 0 1 .02.05.05.05 0 0 1-.05.03ZM33.95 35.87c-.8.28-1.63.26-2.5-.05l.5-.55a.07.07 0 0 1 .07-.02l1.93.62Z" fill="#ECEFF6"/><path d="m29.06 36.47-.77 1.2-.03.04a.08.08 0 0 1-.04 0h-.04a.03.03 0 0 1-.03-.01v-.03l.81-1.25c.04.05.08.07.1.05Z" fill="#828786"/></svg>