<!-- by TradingView --><svg xmlns="http://www.w3.org/2000/svg" width="56" height="56" viewBox="0 0 56 56"><path fill="url(#aszd20zjk)" d="M0 0h56v56H0z"/><path d="M22 19h6.8c2.88 0 5.2 2.7 5.2 5.5 0 1.44-.6 2.58-1.57 3.35A5.8 5.8 0 0 1 28.8 29h-2.46l5.5 5.13a4.03 4.03 0 0 0 2.49 1.16c.74 0 1.39-.19 1.8-.63.83-.88 1.82-3.33 2.57-5.66H36v-1h2.74c.6-7.14-5.22-12-11.69-12-6.5 0-11.75 4.99-11.75 12 0 6.95 6.2 12.5 13.2 12.5 7.16 0 11.63-4.87 13.9-11.5h-2.7c-.78 2.58-1.86 5.3-2.84 6.34-.68.73-1.66.95-2.53.95a5 5 0 0 1-3.16-1.42h-.01L23.8 28h5a4.8 4.8 0 0 0 3-.93A3.15 3.15 0 0 0 33 24.5c0-2.33-1.95-4.5-4.2-4.5H23v16h-1V19Zm21.5 9c0 .21-.04.56-.13 1-.7 3.3-4.72 12.5-14.87 12.5-7.48 0-14.2-5.93-14.2-13.5S20 15 27.05 15c6.76 0 13.03 4.98 12.73 12.5 0 .17-.02.33-.03.5h3.75Z" fill="#fff"/><path d="M27 12c-9.74 0-16 7.74-16 16 0 9.19 8.3 16.5 17.5 16.5 4.37 0 8.08-1.12 11.03-3.19A17.55 17.55 0 0 0 45.79 33H40v-1h7.2l-.23.66a18.76 18.76 0 0 1-6.87 9.47c-3.13 2.2-7.05 3.37-11.6 3.37C18.82 45.5 10 37.82 10 28c0-8.74 6.64-17 17-17 4.3 0 7.91 1.28 10.78 3.68 2.86 2.39 4.93 5.86 6.2 10.18l-.96.28c-1.23-4.18-3.21-7.46-5.88-9.7C34.47 13.23 31.09 12 27 12Z" fill="#fff"/><defs><linearGradient id="aszd20zjk" x1="10.42" y1="9.71" x2="68.15" y2="76.02" gradientUnits="userSpaceOnUse"><stop stop-color="#1A1E21"/><stop offset="1" stop-color="#06060A"/></linearGradient></defs></svg>