<!-- by TradingView --><svg width="56" height="56" viewBox="0 0 56 56" xmlns="http://www.w3.org/2000/svg"><path fill="#F0F3FA" d="M0 0h56v56H0z"/><circle cx="28" cy="28" r="17" fill="url(#a)"/><path fill-rule="evenodd" d="M28 42.26a14.26 14.26 0 1 0 0-28.52 14.26 14.26 0 0 0 0 28.52Zm0 .3a14.56 14.56 0 1 0 0-29.12 14.56 14.56 0 0 0 0 29.12Z" fill="#fff"/><path d="M28.7 19H22v18h2V21h4.7a3.96 3.96 0 0 1 3.94 3h-3.7l1.16 2h2.5a4.06 4.06 0 0 1-3.9 3h-3.6l7.36 8h2.71l-5.72-6.17A5.61 5.61 0 0 0 34.46 26h2.76l-1.37-2h-1.37a5.88 5.88 0 0 0-5.79-5Z" fill="#fff"/><defs><linearGradient id="a" x1="38.77" y1="14.59" x2="15.66" y2="39.73" gradientUnits="userSpaceOnUse"><stop stop-color="#D92F76"/><stop offset="1" stop-color="#651264"/></linearGradient></defs></svg>