<!-- by TradingView --><svg width="56" height="56" viewBox="0 0 56 56" xmlns="http://www.w3.org/2000/svg"><path fill="#F0F3FA" d="M0 0h56v56H0z"/><path d="M39 22h2v12h-2V22ZM17 34V22h3.84c2.57 0 4.16 2.06 4.16 4.6 0 1.61-.64 2.95-1.77 3.72L25.5 34h-2.42l-1.9-3.01-.34.01H19v3h-2Zm3.65-10H19v5h1.65c1.3 0 2.35-1.12 2.35-2.5S21.95 24 20.65 24ZM28 34V22h3.84c2.57 0 4.16 2.06 4.16 4.6 0 1.61-.64 2.95-1.77 3.72L36.5 34h-2.42l-1.9-3.01-.34.01H30v3h-2Zm3.65-10H30v5h1.65c1.3 0 2.35-1.12 2.35-2.5S32.95 24 31.65 24ZM44 22h2v10h4v2h-6V22ZM6 29.87v-2.59l6-6.13v2.69l-6 6.03Z" fill="#2C4B7A"/><path d="M9 29.35v-2.59L15 21v2.49l-6 5.86Z" fill="#FFB22A"/><path d="M6 35v-2.59l6-6.08v2.68L6 35Z" fill="#2C4B7A"/><path d="M9 34.48v-2.6l6-5.75v2.49l-6 5.86Z" fill="#FFB22A"/></svg>