<!-- by TradingView --><svg width="56" height="56" viewBox="0 0 56 56" xmlns="http://www.w3.org/2000/svg"><path fill="#F0F3FA" d="M0 0h56v56H0z"/><path d="M31.4 11h1.14c1.3.04 2.61.22 3.92.52 4.83 1.15 8.84 4.43 9.54 9.43V21h-5.51a10.75 10.75 0 0 0-2.36-4.87c-1.8-2.04-4.41-3.2-7.13-3.64a22.67 22.67 0 0 0-7.4.12A24.09 24.09 0 0 1 31.4 11Z" fill="#00A0E3"/><path d="M33.7 14.1a12.1 12.1 0 0 1 4.25 3.13c.04.04.03.05-.03.03-1.6-.76-3.2-1.31-4.83-1.66-3.32-.7-6.62-.35-9.66 1.18a21.13 21.13 0 0 0-5.58 4.21.1.1 0 0 1-.04.01h-5.38c-.03 0-.04-.01-.02-.04 2.2-2.78 5.2-4.96 8.48-6.36 4.07-1.74 8.78-2.28 12.81-.5ZM18.96 24h-.65c-.03 0-.05-.01-.05-.05v-.9c0-.03.02-.05.05-.05H23c1.76.01 4.02.68 4.4 2.62.3 1.58-.54 2.87-2.02 3.45h-.01v.03c.2.17.35.36.47.57l1.2 2.18c.02.02.04.04.07.04h.54c.04 0 .05.01.05.04v1.03c0 .03-.01.04-.04.04h-3.52l-.03-.01-.01-.02c-.08-.42-.2-.82-.38-1.2a406.14 406.14 0 0 1-1.01-2.13h-.67c-.03 0-.05.01-.05.05v2.26c0 .03.02.05.05.05h.72c.03 0 .04.01.04.04v.91c0 .03-.01.05-.05.05H18.3l-.03-.01-.01-.03v-.92c0-.03.01-.04.04-.04h.65l.04-.01.01-.04v-7.9c0-.03-.01-.05-.04-.05Zm3.04.14v4.32c0 .05.52.03.52.03.51 0 1-.2 1.37-.58a2 2 0 0 0 .57-1.4v-.29c0-1.46-1.12-2.16-2.46-2.08Z" fill="#393185"/><path d="M28.96 24h-.65c-.03 0-.05-.01-.05-.05v-.9c0-.03.02-.05.05-.05H33c1.76.01 4.02.68 4.4 2.62.3 1.58-.54 2.87-2.02 3.45h-.01v.03c.2.17.35.36.47.57l1.2 2.18c.02.02.04.04.07.04h.54c.04 0 .05.01.05.04v1.03c0 .03-.01.04-.04.04h-3.52l-.03-.01-.01-.02c-.08-.42-.2-.82-.38-1.2a390.22 390.22 0 0 1-1.01-2.13h-.67c-.03 0-.05.01-.05.05v2.26c0 .03.02.05.05.05h.72c.03 0 .04.01.04.04v.91c0 .03-.01.05-.05.05H28.3l-.03-.01-.01-.03v-.92c0-.03.01-.04.04-.04h.65l.04-.01.01-.04v-7.9c0-.03-.01-.05-.04-.05Zm3.04.14v4.32c0 .05.51.03.52.03.51 0 1-.2 1.37-.58a2 2 0 0 0 .57-1.4v-.29c0-1.46-1.12-2.16-2.46-2.08Z" fill="#00A0E3"/><path d="M10 35h4.1l.04.11.04.04c.4.75.9 1.46 1.48 2.12a9.23 9.23 0 0 0 4.8 2.8c2.23.54 4.67.5 6.96.2.12-.01.13 0 .01.04a19.3 19.3 0 0 1-5.64 1.15c-3.81.2-8.21-.88-10.56-3.87A6.56 6.56 0 0 1 10 35.03V35Z" fill="#393185"/><path d="M23.79 45h-1.01c-.32-.02-.64-.03-.95-.06a15.22 15.22 0 0 1-10.23-4.68c-.05-.05-.04-.06.02-.02 2.6 1.64 5.7 2.45 8.85 2.52a19.38 19.38 0 0 0 16.04-7.73.08.08 0 0 1 .06-.03h6.03c.02-.03.03 0 0 0a23.84 23.84 0 0 1-10.43 8.19A24.5 24.5 0 0 1 23.8 45Z" fill="#00A0E3"/></svg>