<!-- by TradingView --><svg width="56" height="56" viewBox="0 0 56 56" xmlns="http://www.w3.org/2000/svg"><path fill="#F0F3FA" d="M0 0h56v56H0z"/><path fill-rule="evenodd" d="M20.18 34H15v9h2v-3.61h2.14c.98.28 1.3 1.03 1.34 1.4v1.06c.1.68.43 1.05.58 1.15H23c-.36-.34-.52-1.05-.55-1.36V40.4a1.9 1.9 0 0 0-.81-1.44A2.7 2.7 0 0 0 20.18 34Zm-.56 1.63H17V38h2.62a1.19 1.19 0 0 0 0-2.37ZM39.18 34H34v9h2v-3.61h2.14c.98.28 1.3 1.03 1.34 1.4v1.06c.1.68.43 1.05.58 1.15H42c-.36-.34-.52-1.05-.55-1.36V40.4a1.9 1.9 0 0 0-.81-1.44A2.7 2.7 0 0 0 39.18 34Zm-.56 1.63H36V38h2.62a1.19 1.19 0 0 0 0-2.37Z" fill="#192648"/><path d="M12 12h6v6h-6v-6Zm13 0h6v6h-6v-6Zm-.48 0h-6v6h6v-6Zm7.04 0h6v6h-6v-6ZM44 12h-6v6h6v-6Zm-32 6.52h6v6h-6v-6Zm19 0h-6v6h6v-6Zm-6 13.04h6v6h-6v-6Zm-.48-13.04h-6v6h6v-6Zm7.04 0h6v6h-6v-6Zm12.44 0h-6v6h6v-6ZM12 25h6v6h-6v-6Zm19 0h-6v6h6v-6Zm-6 13h6v6h-6v-6Zm-.5-13h-6v6h6v-6Zm7.06 0h6v6h-6v-6ZM44 25h-6v6h6v-6Z" fill="#F0BC44"/><path d="m42.21 14.05.65-1.65-1.75.26.3.4-9.36 7.23-1.4-1.78-7.38 6.31-1.3-1.68-8.8 6.5.39.52 8.29-6.12 1.32 1.71 7.4-6.31 1.37 1.76 9.88-7.64.4.5Z" fill="#F0F3FA"/></svg>