<!-- by TradingView --><svg width="56" height="56" viewBox="0 0 56 56" xmlns="http://www.w3.org/2000/svg"><path fill="#F0F3FA" d="M0 0h56v56H0z"/><path d="M35.14 16.13c1.1 2.38 1.26 4.91.48 7.6-.02.08 0 .1.08.06 2.28-1.4 4.91-.5 6.9 1.17.05.04.05.08.01.13l-1.5 2.07a.12.12 0 0 1-.17.03c-.3-.25-.62-.43-.95-.56-.25-.09-.29-.03-.12.18.13.15.28.3.44.42a.13.13 0 0 1 .04.1.13.13 0 0 1-.05.11l-.75.5a.1.1 0 0 0-.05.1c0 .06.02.1.04.1a368.52 368.52 0 0 1 5.45-.01l.01.03v3.13c0 .02 0 .04-.02.05a.06.06 0 0 1-.04.02l-1.5-.01a.07.07 0 0 0-.06.02.08.08 0 0 0-.02.05l-.01 9.56c0 .03-.02.05-.05.05H34.4a.05.05 0 0 1-.04-.02.06.06 0 0 1-.02-.04v-1.55l-.01-.02h-.04c-.37.16-.75.26-1.14.31-2.36.3-4.35-.97-5.84-2.75-.1-.13-.16-.1-.16.06v3.63c0 .11.03.22.09.31.62 1.02.8 2.06.53 3.11-.59 2.35-3.02 3.33-5.16 2.78-2.26-.57-3.87-2-5.05-4-.04-.05-.02-.1.03-.12l1.8-.92a.1.1 0 0 0 .05-.08.1.1 0 0 0-.02-.09c-1.3-1.2-2.56-2.4-3.77-3.6a4.15 4.15 0 0 0-2.29-1.18c-.2-.04-.3-.17-.3-.39a309 309 0 0 1 .04-3.06.2.2 0 0 1 .12-.1 1.37 1.37 0 0 0 2.53-.05c.05-.04.1-.09.12-.15a.27.27 0 0 0 0-.2.4.4 0 0 0-.42-.27l-2.14.08a.28.28 0 0 1-.23-.1.3.3 0 0 1-.06-.27 736.1 736.1 0 0 0 2.08-4.6 7 7 0 0 1 2.75.26c.29.1.33.04.11-.2a10.64 10.64 0 0 1 1.68-16.01c5.05-3.62 12.77-1.6 15.5 4.33Z" fill="#020201"/><path d="M20 29.4a.27.27 0 0 0-.01-.14.49.49 0 0 0-.19-.27 10.3 10.3 0 0 1-.03-16.9c5.91-4.23 14.6-.62 15.87 6.76.35 2.02.08 3.99-.79 5.92-.02.04 0 .07.04.08a.2.2 0 0 0 .05 0c.01 0 .03 0 .04-.02.6-.74 1.37-1.19 2.31-1.33 1.81-.28 3.47.39 4.89 1.5a.1.1 0 0 1 .03.07.1.1 0 0 1-.02.07l-1.16 1.6c-.04.06-.1.07-.15.03-.44-.32-1.16-.7-1.7-.56a.17.17 0 0 0-.12.12.17.17 0 0 0 .04.17l.76.76a.07.07 0 0 1 .02.06.07.07 0 0 1-.03.05l-1.4.93c-.15.1-.14.16.05.16l6.1-.03a.1.1 0 0 1 .07.03.1.1 0 0 1 .03.07v2.4a.1.1 0 0 1-.03.07.1.1 0 0 1-.07.03l-1.48-.01c-.06 0-.09.03-.09.09.03 2.1.02 4.34-.01 6.72-.02.9.02 1.85.03 2.76 0 .03-.01.06-.03.08a.1.1 0 0 1-.08.03h-8.2a.08.08 0 0 1-.07-.02.1.1 0 0 1-.03-.06l.01-1.63v-.03l-.02-.02a.06.06 0 0 0-.06 0c-1.9.85-3.75.61-5.53-.73A8.34 8.34 0 0 1 27 35.94c-.13-.2-.19-.19-.19.06.02 1.48.02 2.99 0 4.53 0 .15 0 .34.08.47.89 1.46.95 3-.1 4.3-1.42 1.79-3.91 1.62-5.78.6a7.82 7.82 0 0 1-2.97-2.89c-.05-.07-.03-.13.04-.17l1.91-.97.02-.02a.06.06 0 0 0 .01-.05c0-.01 0-.02-.02-.02l-4.4-4.19a4.53 4.53 0 0 0-2.12-1.05c-.07-.01-.1-.06-.1-.14v-2.66a.13.13 0 0 1 .04-.1.12.12 0 0 1 .1-.02c.73.16 1.38.19 1.96.1.92-.17.92-1.4-.03-1.4a20.82 20.82 0 0 0-2 .06.1.1 0 0 1-.05-.04.11.11 0 0 1 0-.1l1.85-4.08c.04-.09.1-.13.2-.14 1.6-.05 3.07.43 4.42 1.44.07.05.11.03.13-.05Z" fill="#F0F3FA"/><path d="M21.56 11.9a9.36 9.36 0 0 1 6.09-.67 9.52 9.52 0 0 1 7.17 11.23 9.64 9.64 0 0 1-3.68 5.78c-.34.26-.58.19-.97.19-3.3 0-6.54 0-9.7.02a.54.54 0 0 1-.34-.12 9.6 9.6 0 0 1 1.43-16.43Z" fill="#020201"/><path d="M33.26 25.5c-.1-.12-.1-.25 0-.39.12-.19.2-.36.25-.5.01-.06 0-.1-.04-.15a.44.44 0 0 1-.13-.24c-.01-.08.02-.1.09-.06.08.05.13.16.22.2.09.06.11.03.08-.07-.07-.2-.16-.35-.26-.47l-.25-.56a.15.15 0 0 0-.1-.1c-.13-.02-.23.02-.28.16-.03.06-.05.06-.07-.01-.1-.4-.38-.58-.87-.56-.19 0-.2.07-.06.2.2.15.36.37.5.64.17.33.13.64.27.96.12.3.16.6.14.92 0 .02-.01.03-.03.03h-.05c-.01 0-.03 0-.03-.02l-.02-.03c-.02-.34-.1-.65-.23-.94-.12-.25-.1-.52-.25-.76a7.7 7.7 0 0 1-.4-.77.17.17 0 0 0-.12-.1.65.65 0 0 1-.34-.2c-.13-.14-.27-.2-.41-.16l-.25-.05.05-.03c.02-.01.02-.03 0-.05-.16-.12-.35-.13-.56-.03-.17-.07-.34-.1-.53-.1a.36.36 0 0 1-.14-.04l-.38-.16c-.1.07-.18.07-.24 0a4.07 4.07 0 0 0 0-3.53c-.1-.22-.16-.4-.17-.54 0-.21.03-.4.11-.57l1.45-1.16a.26.26 0 0 0 .1-.18c.09-.96-.67-1.46-1.37-1.87-.08-.04-.25-.1-.51-.16-.34-.1-.6-.36-.77-.81l-.53-.24a1.7 1.7 0 0 0-.85-.28c-.1-.17-.26-.26-.48-.27-.5-.14-.96-.09-1.38.16-.18.1-.34.15-.54.09a.25.25 0 0 0-.18.02.26.26 0 0 0-.12.12c-.11.23-.15.63-.46.66-.06 0-.08.03-.07.1l.14.52v.15c-.13.41-.1.83.1 1.26.1.6.18 1.23.26 1.85.04.25.16.46.34.62.07.05.09.13.06.2-.16.4-.27.81-.35 1.25 0 .05-.03.1-.07.13l-.13.12a.17.17 0 0 0-.06.15c.08.69.33 1.31.73 1.88-.24.1-.38.33-.41.65 0 .05-.03.1-.07.12a.16.16 0 0 1-.18.01.12.12 0 0 1-.06-.05.1.1 0 0 1-.01-.05c0-.04-.03-.06-.07-.07-.17 0-.26.07-.27.22-.37-.04-.72-.42-1.07-.1-.13.12-.29.27-.45.33-.16.05-.3.14-.4.25a.1.1 0 0 1-.13.02 1 1 0 0 1-.32-.33c.06-.47.03-.9-.09-1.28.04-.34.05-.66.03-.99a1.65 1.65 0 0 0-.16-.6.1.1 0 0 0-.04-.05h-.05c-.06.06-.08.05-.09-.03v-.22c0 .07.02.11.06.13a.05.05 0 0 0 .05 0 .06.06 0 0 0 .03-.05c.02-.67-.02-1.33-.12-1.98-.09-.56-.1-1.1-.16-1.65-.03-.33.02-.64.16-.92.24-.03.25.21.5.21.05 0 .06-.02.02-.06-.12-.11-.21-.24-.28-.37l-.01-.09c-.02-.36.12-.67.43-.93.06-.06.1-.15.1-.25-.01-.06-.03-.07-.08-.02l-.7.7-.37.06c-.06.01-.1.04-.12.1-.1.24-.07.46.1.65a.2.2 0 0 1 .06.13l.05 1.01-.12-.94c0-.01 0-.02-.02-.02l-.04.01a.12.12 0 0 0-.04.09c-.01.62-.01 1.03.01 1.23.14 1.18.06 2.38.22 3.6a11.68 11.68 0 0 1 0 3.04.22.22 0 0 1-.16.1h-.1a1.73 1.73 0 0 1-.6-.31c-.1-.07-.12-.05-.08.05.13.35.38.53.77.55-.25.04-.37.16-.34.37-.12-.08-.23-.07-.32.02-.03.04-.03.08.01.11.13.1.13.2.01.32a2.66 2.66 0 0 0-.8 1.71 9.3 9.3 0 0 1 0-11.27c.42-.54.85-.99 1.3-1.34C23 11 27.7 10.42 31.3 13.3a9.24 9.24 0 0 1 1.97 12.2Z" fill="#DD6518"/><path d="M25.8 12.45c-.1.01-.13.15-.09.4a.2.2 0 0 0 .1.15.2.2 0 0 0 .18 0c.15-.07.25-.17.29-.28.31.02.6.11.85.28-.17-.04-.28-.02-.35.08l-.11.15c-.14.13-.3.26-.4.42a9.7 9.7 0 0 0-.95 2.09c-.17.3-.23.53-.18.7a.74.74 0 0 0-.38.44l-.18.43c0-.18-.06-.18-.2 0-.09.12-.08.27-.17.4a.22.22 0 0 1-.35.03.24.24 0 0 1-.06-.12 7 7 0 0 1-.19-1.5c0-.25-.12-.49-.17-.72-.01-.04-.04-.06-.07-.06-.06 0-.09.02-.09.08v.1a1.77 1.77 0 0 1-.1-1.25.28.28 0 0 0 .01-.15l-.14-.53c-.01-.06.01-.09.07-.1.31-.02.35-.42.46-.65.02-.05.07-.1.12-.12a.25.25 0 0 1 .18-.02c.2.06.36.01.54-.1.42-.24.88-.3 1.38-.15Z" fill="#983025"/><path d="M25.8 12.45c.22.01.38.1.48.27-.04.11-.14.2-.3.28a.2.2 0 0 1-.27-.15c-.04-.25-.02-.39.09-.4Z" fill="#643932"/><path d="m27.13 13 .53.24c-.1.11-.16.29-.15.53 0 .06-.02.1-.06.15l-.8.74a.19.19 0 0 1-.12.05.24.24 0 0 0-.17.07c-.2.2-.54.51-1.04.96a9.7 9.7 0 0 1 .95-2.09c.1-.16.26-.29.4-.42l.1-.15c.08-.1.2-.12.36-.08Z" fill="#66782F"/><path d="M27.66 13.24c.17.45.43.72.77.8.27.07.43.13.5.17.7.41 1.47.91 1.37 1.87a.26.26 0 0 1-.1.18l-1.44 1.16c.03-.24-.05-.4-.22-.49-.06-.03-.1-.01-.13.06-.14.4-.05.83-.1 1.25-.01.06-.02.06-.02 0l-.03-.43.02-.7a.35.35 0 0 0-.05-.17 4.03 4.03 0 0 0-1.68-1.51.13.13 0 0 0-.15.02l-1.26 1c-.05-.18.01-.42.18-.71l1.04-.96c.04-.05.1-.07.17-.07.05 0 .1-.02.13-.05l.79-.74a.19.19 0 0 0 .06-.15c-.01-.24.04-.42.15-.53Z" fill="#643932"/><path d="m20.48 14.78-.24-.5.7-.7c.04-.05.06-.04.06.02 0 .1-.03.19-.1.25-.3.26-.44.57-.42.93Z" fill="#FCCB36"/><path d="m20.24 14.28.24.5.01.09-.01.1c0 .05-.04.08-.1.1l-.13.02c-.14.28-.2.6-.16.92.06.56.07 1.1.16 1.65a10.77 10.77 0 0 1 .1 2.01.06.06 0 0 1-.04.03h-.02c-.04-.03-.06-.07-.06-.14l-.16-1.24a8.1 8.1 0 0 1-.06-1.04c0-.36-.02-.7-.06-1.05l-.05-1.01a.2.2 0 0 0-.05-.13c-.18-.19-.21-.4-.1-.65a.14.14 0 0 1 .1-.1l.39-.06Z" fill="#DAEBD4"/><path d="M20.5 14.87c.06.13.15.26.27.37.04.04.03.06-.03.06-.24 0-.25-.24-.5-.21l.15-.03c.05 0 .08-.04.09-.1l.01-.1Z" fill="#FCCB36"/><path d="M19.95 16.23c.04.35.06.7.06 1.05 0 .41.02.76.06 1.04a74.54 74.54 0 0 1 .16 1.46c0 .08.03.1.1.03h.04a.1.1 0 0 1 .04.05c.1.19.15.4.16.6.02.33.01.66-.03 1-.12-.12-.17-.3-.17-.53 0-.03 0-.06-.03-.09-.05-.07-.08-.06-.09.03l-.02.1a.35.35 0 0 0-.02.16c.08.68.13 1.38.13 2.08 0 .05.02.1.06.13.05.03.1.03.15.01a.2.2 0 0 0 .13-.15c.02-.11 0-.27-.05-.47a1 1 0 0 0 .32.33c.04.03.09.02.13-.02.1-.11.24-.2.4-.25.16-.06.32-.2.45-.33.35-.32.7.06 1.07.1.16.12.31.25.46.4.08.06.1.16.07.27 0 .02 0 .03-.02.04a.07.07 0 0 1-.1-.02c-.18-.32-.4-.8-.85-.41-.24.2-.36.49-.35.83-.16.05-.24.26-.25.64a.87.87 0 0 1-.52-.53c-.04-.1-.11-.16-.22-.16H19.8c-.39-.01-.64-.2-.77-.54-.04-.1-.01-.12.07-.05.18.14.38.24.61.31a.22.22 0 0 0 .25-.1 11.68 11.68 0 0 0 .01-3.04c-.16-1.21-.08-2.42-.22-3.6-.02-.2-.02-.61 0-1.23 0-.04 0-.07.03-.09a.05.05 0 0 1 .04-.01l.02.02.12.94Z" fill="#3D331B"/><path d="M24.58 17.31c-.1.32-.24.6-.2.94.04.5.1 1 .18 1.5 0 .07.04.14.08.19.03.03.07.06.11.07.04.02.06 0 .06-.05l-.04-.43c0-.12.05-.17.16-.15.06.01.1.05.1.11.02.04.04.08.08.1.03.03.08.03.12.02l.6-.13a.11.11 0 0 0 .1-.1 2.58 2.58 0 0 1 .13-.36.1.1 0 0 1 .05 0l.03.04c.01.12.04.23.1.32 0 .03.03.05.05.07.03.01.06.02.09.01.35-.07.68-.08 1-.02.08.01.14 0 .2-.05.1-.08.21-.1.34-.1.07.01.11-.02.13-.1l.21-1.38.03.43c0 .06 0 .06.01 0 .06-.42-.03-.85.11-1.25.03-.07.07-.09.13-.06.17.09.25.25.22.5-.08.16-.12.35-.1.56 0 .14.05.32.15.54a4.07 4.07 0 0 1 .01 3.53l-.54.21a.55.55 0 0 0-.23 0 .83.83 0 0 0-.4.25c-.28 0-.55-.05-.8-.15-.13-.06-.21-.18-.34-.26-.05-.03-.1-.02-.14.02l-.54.5c-.1.09-.2.13-.3.13a3.5 3.5 0 0 1-1-.65l-.05-.05c-.05-.03-.08-.02-.1.04l-.08.28c-.18.39-.25.86-.2 1.4a.88.88 0 0 0-.1.51c-.01.19-.1.29-.29.3a21.4 21.4 0 0 1 .36-2.86 3.96 3.96 0 0 1-.73-1.88c0-.06.01-.1.06-.15l.13-.12a.23.23 0 0 0 .07-.13c.08-.44.2-.85.35-1.24a.18.18 0 0 0-.05-.21.98.98 0 0 1-.35-.62c-.08-.62-.17-1.24-.27-1.85v-.1c0-.07.03-.1.09-.1.03.01.06.03.07.07.05.23.17.47.17.72a7 7 0 0 0 .19 1.5c0 .04.03.08.06.11.03.04.07.06.12.07a.22.22 0 0 0 .23-.1c.09-.12.08-.27.17-.39.14-.18.2-.18.2 0Z" fill="#23231E"/><path d="m28.26 17.81-.21 1.38c-.02.08-.06.11-.13.1a.44.44 0 0 0-.34.1.24.24 0 0 1-.2.05 2.65 2.65 0 0 0-1 .02l-.09-.01a.14.14 0 0 1-.06-.07c-.05-.1-.08-.2-.1-.32 0-.02 0-.03-.02-.04h-.05l-.02.02a2.6 2.6 0 0 0-.11.35.11.11 0 0 1-.1.09l-.6.13c-.04.01-.09 0-.12-.02a.16.16 0 0 1-.07-.1c-.02-.06-.05-.1-.11-.1-.12-.03-.17.02-.16.14l.04.43c0 .05-.02.07-.06.05a.27.27 0 0 1-.11-.07.35.35 0 0 1-.08-.18c-.08-.5-.14-1.01-.19-1.5-.03-.35.11-.63.2-.95l.19-.43c.08-.21.2-.36.38-.44l1.26-1c.05-.03.1-.04.15-.01.72.36 1.28.86 1.68 1.51.03.05.05.12.05.18l-.02.7Z" fill="#FCCB36"/><path d="M26.85 17.91a.67.67 0 0 0-.11.25c-.05.21-.1.21-.14 0-.03-.17-.01-.36.06-.56a.24.24 0 0 0-.02-.2.23.23 0 0 0-.17-.12c-.42-.03-.23-.83-.16-1.06l.03-.03.03-.02a.06.06 0 0 1 .06.04c.14.25.2.55.19.88a.1.1 0 0 0 .04.09.1.1 0 0 0 .1 0c.24-.13.52-.15.84-.04.11.04.11.07 0 .08l-.34.03a.35.35 0 0 0-.26.17l-.06.08c-.06.1-.03.15.08.13.27-.02.52.03.75.15.06.04.06.07 0 .1l-.39.24a.21.21 0 0 1-.15.02.22.22 0 0 1-.14-.1l-.1-.13c-.04-.07-.09-.07-.14 0ZM25.89 17.72c.03.05.06.05.1 0l.03-.03a.02.02 0 0 0 0-.03c-.24-.18-.5-.32-.8-.39-.14-.03-.14-.08-.02-.14a.67.67 0 0 1 .3-.06c.87.01.7.83.57 1.4a.2.2 0 0 1-.09.14.86.86 0 0 0-.34.47.27.27 0 0 1-.12.15l-.06.03a.05.05 0 0 1-.06-.01l-.02-.03.02-.04c.22-.28.4-.58.54-.9a.17.17 0 0 0-.02-.17.15.15 0 0 0-.15-.06c-.25.05-.5.03-.73-.07-.16-.07-.16-.14 0-.2l.44-.21a.26.26 0 0 1 .19-.02c.1.03.16.09.22.17Z" fill="#23231E"/><path d="M26.49 20.15c-.13-.07-.19-.17-.17-.33a.1.1 0 0 1 .07-.08.1.1 0 0 1 .04 0c.06 0 .1.04.13.1.08.24.24.32.47.26.12-.03.2 0 .24.12v.1c0 .02-.02.05-.04.06a.13.13 0 0 1-.08.03c-.23 0-.44.05-.63.16a.17.17 0 0 1-.14.01c-.32-.1-.67-.15-1.07-.13-.01 0-.02 0-.02-.02v-.06c-.01-.02 0-.03.02-.04.32-.08.73-.25 1.04-.1a.2.2 0 0 0 .12.02c.1-.03.1-.06.02-.1Z" fill="#BE8854"/><path d="M20.54 21.45c.12.38.15.8.09 1.28.05.2.07.36.05.47a.2.2 0 0 1-.13.15.14.14 0 0 1-.15-.01.15.15 0 0 1-.06-.13c0-.7-.05-1.4-.13-2.08 0-.05 0-.1.02-.15a.53.53 0 0 0 .02-.11c.01-.09.04-.1.1-.03l.02.1c0 .23.05.4.17.51Z" fill="#B2C09B"/><path d="M26.37 21.55c-.02.12-.02.23.01.24.03 0 .08-.1.1-.22.02-.13.02-.24-.01-.25-.03 0-.07.1-.1.23Z" fill="#BE8854"/><path d="M24.07 21.73a21.4 21.4 0 0 0-.36 2.87.35.35 0 0 1-.05.1c-.28.25-.45.57-.5.96-.01.05 0 .1.03.14.12.17.27.27.47.3.05 0 .1.03.13.07.18.21.38.23.6.05a.19.19 0 0 0 .06-.13 2.1 2.1 0 0 0-.31-1.32.7.7 0 0 1-.15-.48.88.88 0 0 1 .11-.51c.07.04.12.03.17-.03a4.2 4.2 0 0 0 1.68.98c-.1.37-.08.74.04 1.12.03.07.07.13.13.16a.3.3 0 0 0 .2.05l1.35-.2c.34.02.62.16.85.42.07.07.13.08.22.1.14.09.17.23.1.43-.08.26-.09.6-.03 1.02.01.04.03.06.07.05h.04c.06-.01.09-.05.08-.11a4 4 0 0 1 .04-1.23.24.24 0 0 0-.03-.16.6.6 0 0 1-.09-.21c0-.06-.04-.09-.1-.09a.27.27 0 0 0-.12.04l-.98-.45a.2.2 0 0 1-.13-.17c-.04-.44-.18-.8-.41-1.07-.2-.04-.36-.01-.45.09-.2-.1-.2-.2 0-.32.3-.17.57-.35.84-.52l.78.36c.03.04.07.08.14.13.04.03.06.02.07-.03l.02-.13c.22-.4.48-.75.8-1.08.1.27.23.5.37.69.23.3.37.5.42.6l.63 1.24c0 .07 0 .13-.02.17-.02.06-.05.07-.1.03-.06-.06-.13-.07-.2-.04-.06.03-.08.08-.06.15.04.16.02.33-.04.5-.06.17-.09.34-.09.53l-.01 1.31h-7.5l-.22-1.14c-.01-.06.01-.08.07-.06.15.08.37.32.65.75.03.05.07.05.1 0l.05-.1a.14.14 0 0 0-.02-.16c-.4-.44-.7-.91-.9-1.42a.32.32 0 0 1-.02-.18c.03-.17.03-.34 0-.5a.24.24 0 0 0-.07-.12.21.21 0 0 1-.05-.2.2.2 0 0 0-.01-.12 1.08 1.08 0 0 1-.06-.52.4.4 0 0 0-.02-.17 1.58 1.58 0 0 1-.07-.5c0-.34.11-.62.35-.83.44-.4.67.1.85.41l.03.03a.07.07 0 0 0 .07-.01l.02-.04c.03-.11 0-.2-.07-.28-.15-.14-.3-.27-.46-.39.01-.15.1-.23.27-.22.04 0 .07.03.07.07l.01.05c.02.02.03.04.06.05.06.04.12.03.18 0a.16.16 0 0 0 .07-.13c.03-.32.17-.54.41-.65Z" fill="#F0F3FA"/><path d="M24.54 22.1c-.04 0-.07 0-.08.02v.06a3.08 3.08 0 0 0 1.95 1.88c.05.01.1 0 .15-.01.24-.1.45-.24.63-.42l.06-.12c.43-.17.56-.75.82-1.11a.07.07 0 0 0 0-.08l-.02-.05a.55.55 0 0 1 .23 0l-.06.04a.12.12 0 0 0-.06.13c0 .14-.03.29-.1.44l-.5.8c-.26.17-.54.35-.84.52-.2.12-.19.22 0 .32.01.17-.13.38-.43.62-.22.17-.3.12-.26-.16a.29.29 0 0 0-.08-.25 4.2 4.2 0 0 1-1.68-.98c0-.02.02-.03.06-.04.05 0 .1 0 .13.03a5.97 5.97 0 0 0 1.67.81c.03 0 .05 0 .07-.02.1-.07.13-.16.06-.27a.16.16 0 0 0-.1-.07c-.5-.13-.9-.39-1.19-.78-.22-.3-.45-.65-.67-1.03l.08-.28c.02-.06.05-.07.1-.04l.06.05Z" fill="#3D331B"/><path d="M27.66 22.52c-.24.24-.4.47-.48.7-.05.13-.03.22.07.29l-.06.12v-.08c-.01-.03-.03-.04-.06-.03-.02 0-.04 0-.05-.02.1-.09.11-.18.04-.27a.1.1 0 0 0-.12-.04c-.23.06-.44 0-.64-.17a.91.91 0 0 0-.43-.22.1.1 0 0 1-.08-.09l-.02-.08.54-.5c.04-.04.1-.05.14-.02.13.08.2.2.34.26.25.1.52.15.8.15Z" fill="#FCCB36"/><path d="M28.82 22.06c.06.07.14.07.24 0a2.5 2.5 0 0 0-.04.05.1.1 0 0 0-.01.1l.36.72c-.3.33-.57.69-.79 1.08a.34.34 0 0 0-.02.13c0 .05-.03.06-.07.03a.52.52 0 0 1-.14-.13c.13-.13.24-.31.32-.55a.2.2 0 0 1 .07-.1.17.17 0 0 0 .06-.09l-.01-.09a.13.13 0 0 0-.07-.07l-.25-.1a.14.14 0 0 1-.08-.13.15.15 0 0 0-.03-.07c-.03-.05-.07-.07-.12-.04l-.18.08c.07-.15.1-.3.1-.44 0-.06.01-.1.06-.13l.06-.04.54-.2Z" fill="#B2C09B"/><path d="m29.06 22.06.38.16c.04.02.1.03.14.03.19 0 .36.04.53.1-.03.2 0 .35.11.45.14.14.16.23.06.3.04-.09.03-.15-.03-.18-.07-.04-.13-.04-.19 0a.13.13 0 0 1-.1.03l-.17-.03c-.06-.01-.09.02-.07.08.03.15.12.26.25.34.05.03.08 0 .1-.07.04.08.1.12.2.12.09.28.24.53.44.76.34.4.7.77.87 1.27.15.44.22.89.21 1.36 0 .07-.02.17-.06.29-.05.12-.05.23-.02.3-.06.18-.2.24-.4.2-.01-.58-.14-1.1-.4-1.55.06-.15.02-.34-.11-.56l-.63-1.24c-.05-.1-.2-.3-.42-.6a2.92 2.92 0 0 1-.38-.69l-.36-.71a.1.1 0 0 1 .01-.11l.04-.05Z" fill="#643932"/><path d="M24.54 22.1c.29.28.62.5.99.66.53.35.8.68 1.55.74 0 .02.03.03.05.02.03-.01.05 0 .06.03v.08a1.9 1.9 0 0 1-.63.42.23.23 0 0 1-.15 0 3.08 3.08 0 0 1-1.95-1.87v-.06c.01-.02.04-.03.08-.01ZM28.05 22.27l.02.05c.02.02.02.05 0 .08-.26.36-.4.95-.82 1.1-.1-.06-.12-.15-.07-.28.08-.23.24-.46.48-.7.1-.12.24-.2.39-.25Z" fill="#DAEBD4"/><path d="M30.62 22.47c-.14.04-.19.13-.14.27.03.07.08.14.17.19.1.03.13.1.1.2a.12.12 0 0 1-.1.08.49.49 0 0 0-.28.14c.06 0 .02.02-.1.04a.19.19 0 0 1-.2-.12.66.66 0 0 1 .21-.17c.1-.07.08-.16-.06-.3-.1-.1-.14-.24-.11-.44.21-.1.4-.09.56.03.02.02.02.04 0 .05l-.05.03Z" fill="#23231E"/><path d="M22.17 22.88a.41.41 0 0 0-.16 0l-.06-.01a.12.12 0 0 1-.05-.05c-.02-.04-.03-.09-.01-.15.17-.2.36-.27.57-.18l.03.02a.08.08 0 0 1 0 .11l-.32.26Z" fill="#DD6518"/><path d="M24.3 22.38c.22.38.45.72.67 1.03.3.4.7.65 1.2.78.03 0 .07.03.09.07.07.1.05.2-.06.27a.16.16 0 0 1-.14.02 5.97 5.97 0 0 1-1.6-.8.17.17 0 0 0-.13-.04c-.04.01-.06.02-.06.04-.05.06-.1.07-.17.03-.05-.54.02-1.01.2-1.4Z" fill="#DAEBD4"/><path d="m30.62 22.47.25.05c.06.16.03.29-.07.37a.2.2 0 0 1-.15.03.37.37 0 0 1-.17-.18c-.05-.14 0-.23.14-.27Z" fill="#BE8854"/><path d="M33.47 23.82c-.02.12-.16.06-.42-.16-.07-.06-.1-.05-.08.04.02.1.05.2.09.29v.1a.96.96 0 0 0 .01.86c.02.03.03.07.03.12l-.02.4c0 .1-.05.17-.14.2a.25.25 0 0 0-.12.08c-.18.21-.25.43-.2.66-.12.2-.3.38-.55.55a4.5 4.5 0 0 0-.9-2.49 5.3 5.3 0 0 1-.63-1.06c0-.03-.07-.05-.17-.06a.49.49 0 0 1 .28-.14c.05 0 .09-.04.1-.09.03-.1 0-.16-.1-.2.06.01.1 0 .15-.03.1-.08.13-.2.07-.37.14-.03.28.02.41.16.1.1.2.16.34.2.05.01.09.05.11.1.12.27.26.52.4.77.15.24.14.51.26.76.13.29.21.6.23.94 0 .01 0 .02.02.03l.03.02h.05c.02 0 .03-.01.03-.03a2 2 0 0 0-.14-.92c-.14-.32-.1-.63-.27-.96-.14-.27-.3-.49-.5-.65-.15-.12-.13-.18.06-.19.49-.02.78.17.87.56.02.07.04.07.07 0 .05-.13.15-.17.28-.14.04.01.08.04.1.09l.25.56Z" fill="#6D2126"/><path d="m25.83 22.63.02.08c0 .05.03.08.08.1.16.03.3.1.43.2.2.19.41.24.64.18a.1.1 0 0 1 .12.04c.07.1.06.18-.04.27-.74-.06-1.02-.39-1.55-.74.1 0 .2-.04.3-.13ZM21.89 22.67c-.02.06-.01.11 0 .15l.06.05a.1.1 0 0 0 .06 0l.16.01c-.24.1-.4.26-.48.46a.16.16 0 0 1-.13.1.57.57 0 0 1-.34-.03c-.09-.03-.09-.08 0-.13.26-.15.48-.36.67-.6Z" fill="#66782F"/><path d="m28.35 24.04-.78-.36.49-.8.18-.08c.05-.03.1-.01.12.04.02.02.02.04.03.07 0 .06.03.1.08.13l.25.1c.03.02.06.04.07.07.01.03.02.06 0 .1 0 .03-.02.06-.05.09a.2.2 0 0 0-.07.09c-.08.24-.2.42-.32.55Z" fill="#DAEBD4"/><path d="M30.28 23.1a.66.66 0 0 0-.2.17c-.03.07-.06.1-.1.07a.53.53 0 0 1-.26-.34c-.02-.06 0-.09.07-.08l.17.03a.13.13 0 0 0 .1-.03c.06-.04.12-.04.2 0 .05.03.06.1.02.18ZM30.26 23.39c.13-.02.17-.03.11-.04.1.01.16.03.17.06l.28.55c.06.11.18.28.35.51.55.73.85 1.56.9 2.5-.08.14-.2.28-.36.4-.03-.07-.03-.18.02-.3a.98.98 0 0 0 .06-.3c0-.46-.06-.91-.2-1.35-.17-.5-.54-.88-.88-1.27-.2-.23-.35-.48-.45-.76Z" fill="#BE8854"/><path d="M21.96 24.3c-.24-.03-.36.03-.36.18 0 .05.01.1.04.13.06.08.06.17 0 .3-.02-.3-.08-.55-.16-.73a.21.21 0 0 1-.02-.13c.01-.07-.01-.12-.07-.15a.1.1 0 0 0-.06 0 .1.1 0 0 0-.05.03.1.1 0 0 1-.04.02 5.72 5.72 0 0 1-1.48.04.07.07 0 0 0-.02.05v.08c0 .08.04.12.12.11l1.32-.1a.17.17 0 0 1 .14.07.18.18 0 0 1 .04.15c-.06.35-.09.7-.08 1.04 0 .25-.08.44-.24.56-.22-.04-.43-.07-.62.05l-.4.26c-.27.19-.25.29.1.3h.2-.35c-.03.01-.04.03-.03.05v.05l.01.03.03.01c.1 0 .2.02.27.07-.1-.04-.16-.05-.2-.04a.06.06 0 0 0-.04.04.06.06 0 0 0 0 .06c.29.35.49.76.61 1.21a.13.13 0 0 0-.03.06c-.05.02-.1.02-.15 0a5.6 5.6 0 0 1-1.58-1.4.5.5 0 0 0 .33-.33.16.16 0 0 1 .07-.08l.03-.02a.13.13 0 0 0 .07-.1l.1-.43a.12.12 0 0 0-.02-.1c-.13-.17-.13-.33.02-.48.06-.07.05-.11-.04-.13-.09-.02-.16 0-.22.05-.04.05-.07.14-.06.25 0 .46-.14.88-.42 1.26l-.24-.32c.12-.17.2-.42.23-.74.03-.33.21-.61.55-.83a.25.25 0 0 0 .1-.12c.07-.18.1-.37.09-.58-.03-.2.09-.33.34-.37h1.43c.1 0 .18.04.22.15.1.25.27.43.52.53Z" fill="#FCCB36"/><path d="M33.47 23.82c.1.12.19.28.26.47.03.1 0 .13-.08.08-.1-.05-.14-.16-.22-.21-.07-.04-.1-.02-.09.06.02.1.06.17.13.24.04.04.05.09.04.14-.04.15-.13.32-.25.51-.1.14-.1.27 0 .39l-.65.9c-.04-.22.03-.44.21-.65a.25.25 0 0 1 .12-.08c.1-.03.14-.1.14-.2l.02-.4c0-.05-.01-.09-.03-.12a.96.96 0 0 1-.01-.86.12.12 0 0 0 0-.1c-.04-.1-.07-.19-.09-.29-.02-.09.01-.1.08-.04.26.22.4.28.42.16Z" fill="#983025"/><path d="M22.21 23.67c0 .19.02.35.07.5.02.06.02.11.02.17-.02.19 0 .36.06.52a.2.2 0 0 1 .01.12c-.01.08 0 .14.05.2.04.03.06.07.07.12.03.16.03.33 0 .5 0 .06 0 .12.02.18.2.5.5.98.9 1.42a.14.14 0 0 1 .02.17l-.05.08c-.03.06-.07.06-.1 0a2.3 2.3 0 0 0-.65-.74c-.06-.02-.08 0-.07.06l.22 1.14-1.34.01c-.05 0-.08-.03-.08-.08l-.05-1.6c.02-.5.14-1.02.34-1.53.05-.13.05-.22 0-.3a.22.22 0 0 1-.05-.13c0-.15.12-.21.36-.17 0-.38.1-.59.25-.64Z" fill="#DAEBD4"/><path d="M21.65 24.9c-.2.52-.32 1.03-.34 1.54v.05a.43.43 0 0 0-.2-.15.1.1 0 0 1-.07-.1v-.29c.16-.12.24-.3.24-.56a5.14 5.14 0 0 1 .08-1.12.18.18 0 0 0-.1-.12.17.17 0 0 0-.08-.01l-1.32.09c-.08 0-.12-.03-.12-.11v-.08a.07.07 0 0 1 .02-.05.07.07 0 0 1 .05-.02 5.72 5.72 0 0 0 1.43-.02.1.1 0 0 0 .04-.02.1.1 0 0 1 .05-.03.1.1 0 0 1 .06 0c.06.03.08.08.07.15 0 .05 0 .1.02.13.08.18.14.43.17.73Z" fill="#BE8854"/><path d="M37.04 29h7.16c.02 0 .04.03.04.06v1.26c0 .03-.01.05-.04.05h-1.53c-.07 0-.1.04-.1.1v9.42a.1.1 0 0 1-.03.08.1.1 0 0 1-.07.03h-2.76a.12.12 0 0 1-.09-.04.12.12 0 0 1-.03-.09l.03-9.48-.02-.02a4.38 4.38 0 0 0-.96-.02c-.02 0-.03 0-.03.02l-.03 9.46c0 .04-.01.08-.04.1-.03.03-.06.07-.1.07H35.7c-.03 0-.06-.04-.08-.06a.12.12 0 0 1-.04-.09v-1.87a.06.06 0 0 0-.02-.05.06.06 0 0 0-.06 0 4.8 4.8 0 0 1-5.49-.02 8.24 8.24 0 0 1-1.94-1.71c-.29-.35-.6-.69-.92-1.02-.08-.08-.1-.17-.04-.26l.52-1a.18.18 0 0 1 .17-.1c.78.03 1.55-.1 2.01-.77.6-.86.01-1.74-.61-2.35-.24-.22-.47-.39-.81-.39a109.1 109.1 0 0 1-2.05.02.05.05 0 0 0-.01.04v9.57a.11.11 0 0 1-.04.07.1.1 0 0 1-.08.03c-.3-.02-.6-.03-.9-.02-.17 0-.18.06-.04.16 1.24.83 2.12 2.19 1.68 3.72-.49 1.71-2.07 2.36-3.71 2.04a6.17 6.17 0 0 1-4-2.66.17.17 0 0 1 .04-.13.16.16 0 0 1 .05-.04l1.23-.68a.13.13 0 0 1 .18.06c.35.63.8 1.1 1.32 1.4.56.33 1.39.34 1.6-.4.14-.48-.28-.78-.61-1a.13.13 0 0 1-.06-.09.13.13 0 0 1 .02-.1l1.43-2.16a.09.09 0 0 0-.02-.12.08.08 0 0 0-.05-.01l-.83.01c-.14 0-.2-.07-.2-.2v-3.74a.1.1 0 0 0-.03-.07c-.01-.02-.04-.01-.06-.01h-2.64c-.07 0-.1-.04-.1-.1v-1.47c0-.08.03-.12.11-.12h2.68c.07 0 .11-.04.11-.12V30.36a.08.08 0 0 0-.04-.04h-2.53c-.02 0-.03 0-.04-.02l-.01-.03v-1.18c0-.02.02-.09.04-.09h15.63c.15 0 .17-.03.05-.12-1.55-1.12-1.75-3.16-.08-4.28 1.58-1.07 3.57-.6 5 .57a.1.1 0 0 1 .04.07.1.1 0 0 1-.03.08l-.38.44a.2.2 0 0 1-.25.05 2.09 2.09 0 0 0-1.6-.22c-.87.23-.7 1.1-.17 1.6a.11.11 0 0 1 .03.09.11.11 0 0 1-.04.08l-2.03 1.53c-.1.08-.1.11.03.11Z" fill="#D8261C"/><path d="M24 24.3c-.02.17.03.32.14.47a1.2 1.2 0 0 1-.48-.08.34.34 0 0 0 .05-.1c.18-.01.28-.11.28-.3Z" fill="#BE8854"/><path d="M27.18 24.43c-.12.03-.13.13-.01.28.2.26.25.66.18.97-.02.06 0 .1.07.12l.25.05-1.35.2a.3.3 0 0 1-.2-.04.31.31 0 0 1-.13-.16 1.94 1.94 0 0 1-.04-1.12c.07.08.1.16.08.25-.04.28.04.33.26.16.3-.24.44-.45.44-.62.1-.1.24-.13.45-.09Z" fill="#B2C09B"/><path d="M19.89 24.77c.08.06.18.06.2.01.03-.04-.02-.12-.1-.18-.09-.05-.18-.06-.2 0-.03.04.01.12.1.17Z" fill="#643932"/><path d="M20.94 24.73c.1.02.17 0 .18-.04 0-.03-.07-.07-.16-.08-.1-.01-.18 0-.18.04 0 .03.07.07.16.08Z" fill="#983025"/><path d="M20.68 25.35a1.1 1.1 0 0 1-.14.12.15.15 0 0 1-.14.03l-.34-.1c-.14-.05-.15-.1-.01-.17.27-.14.15-.48.49-.5.06-.01.08.01.06.07-.07.21-.03.36.14.44l.01.02a.04.04 0 0 1 0 .04l-.01.01a.12.12 0 0 1-.04.02s-.02 0-.02.02Z" fill="#23231E"/><path d="M23.66 24.7c.16.05.32.08.48.07.24.39.35.83.31 1.32 0 .05-.02.1-.06.13-.22.18-.42.16-.6-.05a.2.2 0 0 0-.13-.07.66.66 0 0 1-.47-.3.19.19 0 0 1-.04-.14c.06-.4.23-.71.5-.96Z" fill="#643932"/><path d="m18.86 26.7-.14-.11c.28-.38.42-.8.42-1.26 0-.11.02-.2.06-.24.06-.06.13-.08.22-.06.09.02.1.06.04.13-.15.15-.15.31-.02.48a.12.12 0 0 1 .02.1l-.1.43c0 .05-.03.08-.07.1 0 0-.02 0-.03.02a.16.16 0 0 0-.07.08.5.5 0 0 1-.33.32Z" fill="#23231E"/><path d="M30.8 25.46c.13.22.17.41.11.56-.15-.11-.22 0-.23.33l-.13 1.24c-.06.2-.09.38-.07.53h-.2l.01-1.32c0-.19.03-.36.1-.52a.88.88 0 0 0 .03-.51c-.02-.07 0-.12.07-.15s.13-.02.19.04c.05.04.08.03.1-.03l.02-.17Z" fill="#526261"/><path d="M21.04 25.95v.3c0 .04.03.07.07.1.08.02.14.07.2.14l-.15-.05c-.05-.01-.08 0-.08.06l-.03.62-.02-.54a.2.2 0 0 0-.08-.15.19.19 0 0 0-.16-.02l-.46.14h-.22c-.34 0-.36-.1-.08-.3l.39-.25c.2-.12.4-.09.62-.05Z" fill="#23231E"/><path d="M30.91 26.02c.26.45.39.97.4 1.55a.98.98 0 0 1-.83.55c-.02-.15 0-.32.07-.53.13-.38.17-.8.13-1.24 0-.33.08-.44.23-.33Z" fill="#F0F3FA"/><path d="M28.7 26.12a.27.27 0 0 1 .12-.04c.06 0 .1.03.1.09a.6.6 0 0 0 .09.2c.03.06.04.12.03.17a4 4 0 0 0-.04 1.23c0 .06-.02.1-.08.1l-.04.01c-.04 0-.06 0-.07-.05a2.3 2.3 0 0 1 .03-1.02c.07-.2.04-.34-.1-.42.16-.03.15-.12-.04-.27Z" fill="#B2C09B"/><path d="m21.05 27.12.05.76c0 .05.01.09.03.13l.04.06c.05.03.04.05-.01.06-.19.03-.38.02-.57-.03l.03-.06c.05.02.09.02.12 0 .06-.01.09-.05.08-.12l-.08-.78c0-.07-.04-.11-.1-.13a.9.9 0 0 1-.39-.24.49.49 0 0 0-.27-.07l-.03-.01-.01-.03v-.05c0-.02 0-.04.03-.04l.36-.02.46-.14a.18.18 0 0 1 .16.02.2.2 0 0 1 .08.15l.02.54Z" fill="#BE8854"/><path d="M18.1 35.04c.98 1.06 1.99 2.1 3.02 3.1a7.45 7.45 0 0 0 1.79 1.27.1.1 0 0 1 .01.1.1.1 0 0 1-.02.03l-1.84 1.8a.24.24 0 0 1-.3.03c-1.12-.76-2.02-1.78-2.92-2.76-.2-.2-.63-.6-1.3-1.18a8.5 8.5 0 0 0-2.14-1.36.1.1 0 0 1-.07-.11v-1.47a.1.1 0 0 1 .04-.07.09.09 0 0 1 .07-.02c.95.13 1.97-.01 2.47-.95.45-.85-.37-1.45-1.1-1.62a5.03 5.03 0 0 0-1.07-.14.07.07 0 0 1-.03-.09l1.16-2.67a.17.17 0 0 1 .06-.07.17.17 0 0 1 .09-.03c1.73-.05 4.13.7 4.23 2.86.06 1.58-.64 2.64-2.1 3.18-.1.03-.11.09-.04.17Z" fill="#D8261C"/><path d="M31.9 34.67c1.59-.9 1.84-2.72.88-4.22-.05-.08-.03-.12.06-.12h2.7c.06 0 .09.03.09.08v3.6c0 .23-.11.34-.27.48-1.48 1.27-3.97 2.58-5.68 1.12-.12-.1-.1-.17.05-.2.76-.1 1.48-.35 2.17-.74Z" fill="#F0F3FA"/></svg>