<!-- by TradingView --><svg width="56" height="56" viewBox="0 0 56 56" xmlns="http://www.w3.org/2000/svg"><path fill="#F0F3FA" d="M0 0h56v56H0z"/><path d="M7 34v-7.14C9.3 23.9 16.72 18 28 18s18.7 5.9 21 8.86V34H7Z" fill="#373435"/><path d="M8 33v-5.8c2.19-2.59 9.26-8.2 20-8.2s17.81 5.61 20 8.2V33H8Z" fill="#ED3237"/><path fill-rule="evenodd" d="M27.57 23H25.5v.28c.34 0 .47.3.5.45v7.44c0 .3-.32.46-.49.5V32h2.53v-.32c-.24 0-.41-.34-.47-.5v-3.54c.12-.39.37-.83.8-.83.57 0 .6.44.63.66v3.8c0 .28-.22.41-.4.45V32h2.5v-.28c-.3 0-.46-.3-.5-.44v-3.52c0-.5-.26-1.76-1.54-1.76-.7 0-1.2.47-1.5.92V23Zm-12.71 3h-.5c0 .12-.05.37-.25.37-.1 0-.14-.04-.21-.1-.13-.11-.31-.27-.91-.27-1.44 0-1.99 1-1.99 1.74s.54 1.47 1.75 2c1.22.53 1.7 1.77.2 1.77-1.2 0-1.56-1.08-1.59-1.63H11V32h.29c0-.44.33-.57.5-.58.18.2.68.58 1.2.58.64 0 2.01-.47 2.01-1.85 0-1.36-1.32-1.85-2-2.1H13c-.67-.26-1.26-1.68 0-1.68 1.01 0 1.33.97 1.37 1.46h.5V26Zm.82 1.67c0-.56.4-1.67 2-1.67 2 0 2.32 1.35 2.32 2v2.73c.01.18.05.52.5.52v.27c-.18.16-.65.48-1.12.48-.58 0-.84-.28-.84-.75v-.06c-.58.58-1.32.81-1.81.81-.58 0-1.23-.67-1.23-1.28 0-.6.54-1.18 1.07-1.46.4-.2 1.39-.63 1.97-.88v-.93c0-.34-.18-1-.95-1-.97 0-.68.7-.63.74.05.05.27.3.27.58 0 .28-.23.66-.81.66-.58 0-.74-.42-.74-.76Zm2.86 1.19c-1.52.48-1.5 1.3-1.5 1.54v.03c0 .2.13.78.66.78.36 0 .67-.36.84-.63v-1.72ZM42.18 26c-1.6 0-2 1.11-2 1.67 0 .34.16.76.74.76s.81-.38.81-.66c0-.29-.22-.53-.27-.58-.05-.05-.34-.75.63-.75.77 0 .91.67.91 1v.96c-.59.25-1.55.66-1.93.86-.53.28-1.07.86-1.07 1.46S40.65 32 41.23 32c.48 0 1.2-.22 1.77-.77v.02c0 .47.3.75.88.75.47 0 .94-.32 1.12-.48v-.27a.56.56 0 0 1-.6-.52V28c0-.64-.22-1.99-2.22-1.99Zm-.64 4.4c0-.24-.02-1.04 1.46-1.53v1.77c-.17.26-.46.57-.8.57-.53 0-.66-.58-.66-.78v-.03ZM25 30.8l-.26-.23c-.04.24-.32.72-1.09.72-.96 0-1.31-1.47-1.31-2.94s.48-1.98.85-1.98c.36 0 .46.2.46.97 0 .62.34.8.5.81.23 0 .67-.13.67-.63 0-.64-.42-1.53-1.63-1.53-1.22 0-2.19 1.11-2.19 2.84 0 1.72.45 3.16 2 3.16 1.24 0 1.85-.8 2-1.19Zm11-2.05c-.02-.92-.48-2.76-2.19-2.76-2.14 0-2.31 2.74-2.31 3.27 0 .53.47 2.73 2.31 2.73 1.47 0 2.07-.94 2.19-1.41l-.36-.2c-.13.3-.55.9-1.2.9-.8 0-1.52-1.08-1.52-2.53H36Zm-3.1-.4h1.88c.02-.66-.15-2-.97-2-.81 0-.95 1.34-.92 2ZM36.34 26c.35-.15 1.18-.55 1.73-2h.37v2h1.1v.51h-1.1v4.12c0 .18.09.53.37.53.29 0 .6-.42.73-.63l.32.28c-.23.4-.89 1.19-1.67 1.19-.98 0-1.2-.75-1.2-1.37v-4.12h-.65V26Z" fill="#F0F3FA"/></svg>