<!-- by TradingView --><svg width="56" height="56" viewBox="0 0 56 56" xmlns="http://www.w3.org/2000/svg"><path fill="#F0F3FA" d="M0 0h56v56H0z"/><path d="M28.74 16h.6c.76.26 1.23.79 1.4 1.58.08.36.13.68.14.98.01.15-.04.17-.15.06l-.15-.19a.08.08 0 0 0-.08-.03l-.04.02a.08.08 0 0 0-.02.04c-.04.13.03.3-.02.4-.01.02-.03.03-.05.03a.1.1 0 0 1-.1-.04c-.05-.07-.07-.17-.16-.2a.15.15 0 0 0-.06-.02c-.07 0-.1.04-.09.1.1.65.04 1.32-.2 2-.11.34-.2.68-.26 1.01a54.05 54.05 0 0 0-.2 1.08l-.02-.03c.04-.67.1-1.4-.04-2.06-.07-.3-.04-.6.1-.9.07-.16.32-.28.5-.37.1-.05.1-.11 0-.17a.15.15 0 0 0-.15-.01c-.06.03-.1.02-.15-.03l-.09-.13c-.04-.06-.08-.05-.11 0a.17.17 0 0 0-.02.14c.01.04 0 .09-.01.13-.03.04-.06.05-.1 0a.5.5 0 0 0-.21-.13c-.08-.03-.11 0-.1.08l.02.13c0 .07-.02.09-.09.06a.07.07 0 0 1-.04-.05.06.06 0 0 0-.04-.05.06.06 0 0 0-.06.01c-.06.06-.08.11-.05.17.15.32.36.85.27 1.2-.03.1-.04.2-.03.32l.14 1.77c.02.25 0 .26-.09.02a4.4 4.4 0 0 1-.21-1.66c0-.03 0-.06-.03-.09a.13.13 0 0 0-.08-.04c-.17-.04-.28-.13-.33-.3-.18-.65-.36-1.34-.15-2 .01-.03 0-.05-.04-.06h-.04c-.03-.01-.06 0-.07.02l-.14.24a.07.07 0 0 1-.1.02.07.07 0 0 1-.03-.03.52.52 0 0 1-.04-.24.14.14 0 0 0-.09-.15.12.12 0 0 0-.1 0 .11.11 0 0 0-.07.08.85.85 0 0 0-.02.18.1.1 0 0 1-.03.07l-.04.01c-.02 0-.03 0-.03-.03-.09-1.4.4-2.39 1.45-2.94Z" fill="#79026C"/><path d="M32.28 22.35c-.39.13-.4.11 0 .06 1.2-.13 1.87-.34 3.2-.73.2-.05.41-.08.62-.09.02 0 .04 0 .06.02l.03.05a.8.8 0 0 1-.1.46c-.92 1.76-3.05 2.75-4.87 2-.05 0-.09 0-.11.05-.27.54-1.12.66-1.66.68-.06 0-.08.03-.08.08l-.01.85a.76.76 0 0 1-.43 0l-.03-.85a.1.1 0 0 0-.02-.06.1.1 0 0 0-.06-.03c-.67-.09-1.25-.25-1.64-.84a.13.13 0 0 0-.14-.05 8.05 8.05 0 0 1-4.77-.4c-.56-.3-1.16-.54-1.6-1a.24.24 0 0 1-.08-.2.17.17 0 0 1 .15-.15c.4-.04.78-.05 1.14-.01l1.98.2 2.07.2c.32.03.33-.01.03-.12a7.38 7.38 0 0 1-3.33-2.37c-.29-.44-.46-.78-.5-1.02a.33.33 0 0 1 .13-.33c.32-.26 1.19.03 1.44.2l4.1 2.5c.06.04.08.02.05-.05a7.88 7.88 0 0 1-.45-1.5c-.1-.5-.04-.52.16-.06l.54 1.22c.1.23.17.46.2.69.05.58.25 1.08.59 1.5a.24.24 0 0 0 .18.08.25.25 0 0 0 .19-.08c.55-.63.8-1.32.76-2.06a1.6 1.6 0 0 1 .08-.6c.15-.47.35-.9.58-1.3.14-.22.2-.2.16.06-.07.6-.23 1.22-.49 1.85-.05.11-.03.13.07.04.26-.23.5-.48.8-.7 1-.75 2.08-1.52 3.2-2.3.38-.25.9-.44 1.35-.3.07.02.12.07.15.13.9 1.88-2.13 3.77-3.64 4.28Z" fill="#79026C"/><path d="M22.63 20.1a7.99 7.99 0 0 0 1.62 1.5l-.39.79-1.98-.2a5.35 5.35 0 0 0-1.14.02.17.17 0 0 0-.1.04.17.17 0 0 0-.05.1c0 .08.02.15.07.2.45.46 1.05.7 1.61 1 .14.07.3.12.45.17l.46.13c-.1.03-.15.1-.14.19a.08.08 0 0 1-.04.07.08.08 0 0 1-.1 0 5.96 5.96 0 0 0-3.77-.94c-.29.02-.68.16-.81.42-.23.44.3.72.61.78 1.59.29 2.65.5 3.2.63a4.3 4.3 0 0 1 2.4 1.54c.5.76.68 1.57.56 2.41-.34 2.54-2.92 3.82-5.29 4.1a15.4 15.4 0 0 1-8.03-1.15c-.06-.02-.07-.06-.05-.11l1.77-3.47a.08.08 0 0 1 .06-.04.08.08 0 0 1 .07.01 6.68 6.68 0 0 0 4.24 1.3c.35-.03.85-.1 1.06-.41.47-.7-.39-1.06-.94-1.09a12.46 12.46 0 0 1-3.6-.74c-1.68-.83-2.56-2.53-1.93-4.25.24-.69.74-1.33 1.47-1.93a6.15 6.15 0 0 1 2.41-1.15c2.07-.52 4.17-.5 6.3.08ZM39 27.26v1.47c0 .01-.02.03 0 .04l.04.02h4.88l.06.01.02.06v4.09c0 .01 0 .03-.02.03a.05.05 0 0 1-.03.02h-10.9c-.03 0-.04-.02-.04-.05v-8.64c.38-.09.7-.19.92-.3a3.97 3.97 0 0 0 1.75-1.72c.08-.16.11-.31.1-.46a.08.08 0 0 0-.03-.05.08.08 0 0 0-.06-.02c-.21 0-.42.03-.62.08-.62.18-1.25.36-1.9.53a.1.1 0 0 1-.1-.03.4.4 0 0 1-.07-.13l.01-.15c.08-.06.13-.14.22-.18a3.36 3.36 0 0 0 1.67-1.74c.01-.04.06-.08.14-.14h3.9c.04 0 .06.01.06.04v7.22ZM31.9 26c.06 0 .1.04.1.1v7.82a.08.08 0 0 1-.02.06.07.07 0 0 1-.05.02h-5.87c-.01 0-.03 0-.04-.02a.07.07 0 0 1-.02-.05V26.1c0-.06.03-.1.08-.1h5.83Z"/><path d="M26 26.48V33c-.01-.01 0 .02 0 0a1159.54 1159.54 0 0 1 6 0v-6.48c.47-.04.57 0 1 .11V33c-.03 0 0 .03 0 0h11s.01 0 0 0c0 .01 0 0 0 0v-4c0-.02.01.01 0 0s.02 0 0 0h-5c-.02 0 .01.01 0 0s0 .02 0 0v-2.02a45.65 45.65 0 0 1 9.3 1.9c.8.25 1.6.63 2.44 1.13.61.36 1.03.83 1.26 1.4v.57c-.13.49-.37.86-.71 1.1-1.07.78-2.4 1.38-4.02 1.8-2.04.54-3.76.92-5.17 1.13-2.8.42-5.54.7-8.23.83l-3.99.16h-4.07l-3.16-.14c-1.52-.05-3.02-.2-4.53-.33a62.02 62.02 0 0 1-5.1-.67c-1.41-.25-2.8-.56-4.16-.94-1-.28-1.92-.62-2.76-1-.83-.4-1.83-1.03-2.1-1.96v-.42c.12-.4.33-.75.63-1.03.34-.31.77-.6 1.32-.87 2.44-1.2 4.99-1.64 7.53-2.13l.46-.05c.16 0 .3-.05.44-.11 1.14.42 2.34.67 3.6.74.55.03 1.4.39.94 1.09-.21.3-.7.38-1.06.4a6.68 6.68 0 0 1-4.28-1.3.08.08 0 0 0-.06.01l-.03.03-1.77 3.47c-.02.05-.01.09.05.11a15.4 15.4 0 0 0 8.03 1.15c2.37-.28 4.95-1.56 5.3-4.1a3.5 3.5 0 0 0-.56-2.41 3.1 3.1 0 0 1 1.46-.06Z" fill="#CED1D6"/></svg>