<!-- by TradingView --><svg width="56" height="56" viewBox="0 0 56 56" xmlns="http://www.w3.org/2000/svg"><path fill="#F0F3FA" d="M0 0h56v56H0z"/><path fill-rule="evenodd" d="M44.78 19h-3.56c-.12 0-.22.1-.22.21V36.8c0 .11.1.21.22.21h3.56c.12 0 .22-.1.22-.21V19.2c0-.11-.1-.21-.22-.21ZM15 22.12c-2.1-.03-2.9 2.32-1 3.35.42.23.9.46 1.4.7 2.19 1.06 4.78 2.3 5.14 4.77.46 3.07-1.31 5.3-4.34 5.85-2.43.44-4.8.18-7.1-.78a.18.18 0 0 1-.08-.06.17.17 0 0 1-.03-.1v-3.26a.07.07 0 0 1 .04-.06.07.07 0 0 1 .06 0c2.72 1.15 4.74 1.61 6.06 1.36 2.1-.39 2.36-2.65.49-3.57l-.73-.35c-2.72-1.3-5.8-2.79-5.68-6.14.12-3.52 3.1-5 6.32-4.82 1.7.1 3.33.5 4.87 1.18.08.04.1.1.07.18l-1.13 2.68c-.03.06-.07.07-.12.05a10.57 10.57 0 0 0-4.24-.98ZM33.41 33H27.1c-.03 0-.06.02-.08.03a.14.14 0 0 0-.05.07l-1.22 3.8a.14.14 0 0 1-.13.1h-3.79a.14.14 0 0 1-.14-.12l.01-.06 6.21-17.73a.14.14 0 0 1 .13-.09h4.45a.14.14 0 0 1 .13.1l6.23 17.72a.14.14 0 0 1-.06.16.14.14 0 0 1-.07.02h-3.8a.14.14 0 0 1-.12-.1l-1.24-3.83c-.03-.07-.06-.07-.11-.07h-.02Zm-5.36-3.7 2.12-7.04c.07-.24.14-.24.21 0l2.16 7.05c.05.16-.01.25-.18.25h-4.13a.2.2 0 0 1-.18-.25Z" fill="#3E8CE1"/></svg>