<!-- by TradingView --><svg width="56" height="56" viewBox="0 0 56 56" xmlns="http://www.w3.org/2000/svg"><path fill="#F0F3FA" d="M0 0h56v56H0z"/><path d="M8.75 30.91c.2-.18.1-.5-.06-.68a3.93 3.93 0 0 0-1.58-1.05l-1.58-.6A2.3 2.3 0 0 1 4.03 26a2.28 2.28 0 0 1 2.99-1.88c.4.14.74.48 1.13.67.37.17.82.05.87-.44l.02-.24c0-.05.03-.08.07-.08h.11c.04 0 .06.02.06.06.13 1.13-.14 2.45-1.26 2.76-1.1.3-1.72-.58-2.31-1.46-.19-.28-.5-.64-.84-.45-.68.39 0 1.05.36 1.3.42.27.87.49 1.34.64 1.4.44 3.55 1.37 2.78 3.51a2.32 2.32 0 0 1-2.56 1.56c-.5-.1-.97-.4-1.41-.68-.37-.23-.89-.3-1.06.23-.03.1-.03.23-.03.33a.1.1 0 0 1-.03.06.08.08 0 0 1-.06.03h-.08c-.05 0-.07-.02-.08-.08-.12-1.12.15-2.42 1.27-2.72 1.3-.36 1.89.91 2.65 1.74.27.28.53.3.8.04ZM16.9 31.67c-1.48.93-2.9-.24-3.39-1.8a.11.11 0 0 0-.03-.06.09.09 0 0 0-.06-.02H12c-.05 0-.06.03-.05.07.21.75.54 1.42.98 2l-.02.14H9.94c-.04 0-.06-.1-.06-.14.02-.56.1-1.11.28-1.67a14.5 14.5 0 0 1 2.21-4.41v-.07c-.1-.49-.34-1.36-.87-1.42-.02 0-.03 0-.03-.03v-.24l.01-.02c1.4.02 2.45.6 3.14 1.72.24.4.45.95.63 1.67.26 1.06.5 2.24.9 3.27.15.37.4.54.75.5l.04-.03c.01-.01.06-.03.06-.05V24.1c0-.04.06-.1.1-.1h1.82c.03 0 .08.06.08.1v7.84c0 .03 0 .06-.04.06h-1.92c-.04 0-.07-.02-.08-.07a.54.54 0 0 1 0-.2c.03-.08.01-.1-.06-.06Zm-4.37-5.45a.1.1 0 0 0-.03-.05.08.08 0 0 0-.1-.01.1.1 0 0 0-.03.04l-.65 1.36a.1.1 0 0 0 0 .06l.08 1.8c0 .02 0 .04.03.06.01.02.03.03.05.03l1.4.02.04-.01.03-.03a.1.1 0 0 0 .01-.09l-.83-3.18ZM27.08 25.57c.06 1.3.32 2.79 1.12 3.79.6.76.88 1.45.85 2.56 0 .05-.03.08-.08.08h-2.11c-.07 0-.1-.04-.1-.1l.02-.2c0-.06-.01-.07-.05-.05-1.5.96-2.92-.21-3.42-1.79a.11.11 0 0 0-.03-.05.1.1 0 0 0-.06-.02H21.8c-.05 0-.06.03-.05.07a6.23 6.23 0 0 0 .99 2.12l-.01.01-.02.01h-2.96c-.05 0-.07-.03-.07-.08.02-.87.29-1.9.62-2.73.5-1.23 1.11-2.35 1.85-3.35.03-.05.04-.1.03-.15-.13-.5-.33-1.31-.87-1.4h-.02v-.02a.7.7 0 0 1-.02-.26l.01-.01c1.43.02 2.48.6 3.16 1.76.25.42.47 1.04.66 1.85.25 1.03.48 2.15.89 3.11.14.33.37.47.7.44.03 0 .05-.02.06-.04a.1.1 0 0 0 .03-.06v-6.93c0-.05.02-.08.07-.08.27 0 .54 0 .83.03.9.07 1.59.56 2.07 1.48.8 1.48 1.53 2.97 2.22 4.47.03.06.04.06.04-.01a6.07 6.07 0 0 0-1.27-3.67c-.49-.6-.7-1.34-.64-2.22 0-.06.03-.13.08-.13h2.07c.06 0 .12.08.12.14v7.72c0 .04-.02.06-.06.06h-.16c-.04 0-.06-.03-.06-.08 0-.5-.21-.85-.64-1.04-.94-.41-1.86-.48-2.41-1.55l-1.9-3.7c-.04-.09-.06-.08-.06.02Zm-4.75.65a.1.1 0 0 0-.03-.05.08.08 0 0 0-.1-.01.1.1 0 0 0-.03.04l-.65 1.36a.1.1 0 0 0 0 .05l.08 1.8c0 .03.01.05.03.07.01.02.03.03.06.03l1.39.02.04-.01.03-.03a.1.1 0 0 0 .01-.09l-.83-3.18ZM40.32 25.57c.05 1.3.31 2.79 1.11 3.79.6.76.88 1.45.85 2.56 0 .05-.03.08-.07.08h-2.12c-.07 0-.1-.04-.09-.1l.01-.2c0-.06-.01-.07-.05-.05-1.5.96-2.92-.21-3.41-1.79a.11.11 0 0 0-.04-.05.1.1 0 0 0-.06-.02h-1.42c-.04 0-.06.03-.05.07a6.23 6.23 0 0 0 .99 2.12l-.01.01-.02.01h-2.96c-.04 0-.07-.03-.07-.08.02-.87.3-1.9.63-2.73.49-1.23 1.1-2.35 1.84-3.35.03-.05.04-.1.03-.15-.13-.5-.33-1.31-.87-1.4h-.02v-.02a.7.7 0 0 1-.02-.26l.01-.01c1.43.02 2.49.6 3.16 1.76.25.42.47 1.04.66 1.85.25 1.03.48 2.15.89 3.11.14.33.38.47.7.44.03 0 .05-.02.06-.04.02-.02.02-.04.02-.06v-6.93c0-.05.03-.08.08-.08.27 0 .55 0 .83.03.9.07 1.59.56 2.07 1.48a86.6 86.6 0 0 1 2.22 4.47c.03.06.05.06.04-.01a6.07 6.07 0 0 0-1.27-3.67c-.48-.6-.7-1.34-.64-2.22 0-.06.03-.13.08-.13h2.08c.05 0 .1.08.1.14v7.72c0 .04 0 .06-.05.06h-.15c-.04 0-.06-.03-.06-.08 0-.5-.22-.85-.65-1.04-.94-.41-1.86-.48-2.41-1.55l-1.9-3.7c-.04-.09-.06-.08-.05.02Zm-4.76.65a.1.1 0 0 0-.03-.05.08.08 0 0 0-.1-.01.1.1 0 0 0-.03.04l-.64 1.36a.1.1 0 0 0-.01.05l.08 1.8c0 .03.01.05.03.07.01.02.04.03.06.03l1.4.02.03-.01.03-.03a.1.1 0 0 0 .01-.09l-.83-3.18ZM51.64 29.75a3.65 3.65 0 0 1-3.5 2.25h-2.08c-.05 0-.06-.1-.06-.15v-5.23c0-1 .3-1.72.92-2.16.88-.63 2.16-.58 3.1-.05 1.76 1 2.48 3.4 1.62 5.34Zm-4.58-3.94c.7.5.95.77.94 1.83v2.4c0 .05.03.08.06.12.35.41 1.15.94 1.66 1.05.9.2.87-1 .73-1.61a8.7 8.7 0 0 0-2.12-4c-.28-.3-.98-.92-1.36-.8-.18.06-.26.2-.23.44.02.24.12.43.32.57Z"/></svg>