<!-- by TradingView --><svg width="56" height="56" viewBox="0 0 56 56" xmlns="http://www.w3.org/2000/svg"><path fill="#F0F3FA" d="M0 0h56v56H0z"/><path d="M27.34 14.19 28 9l.66 5.19 2.25 6.66L29 25.7v7.85c.46.4 1.86 1.45 3 1.45 2.5 0 3-2.75 3-4.46 0-2.04-.4-3.93-1.1-5.77-.66-1.75-1.3-3.46-1.3-5.22a6.6 6.6 0 0 1 1.7-4.54c0 1.43.16 2.46.67 4.13.7 1.96 1.62 3.38 2.48 4.7C38.8 25.91 40 27.76 40 31.1c0 5.46-5.85 6.91-8 6.91-1.72 0-2.78-.16-3-.25V47h-2v-9.25c-.22.09-1.28.25-3 .25-2.15 0-8-1.45-8-6.91 0-3.33 1.2-5.18 2.55-7.25a21.67 21.67 0 0 0 2.48-4.7c.51-1.67.67-2.7.67-4.13a6.6 6.6 0 0 1 1.7 4.54c0 1.76-.64 3.47-1.3 5.22-.7 1.84-1.1 3.73-1.1 5.77 0 1.71.5 4.46 3 4.46 1.14 0 2.54-1.04 3-1.45V25.7l-1.91-4.85 2.25-6.66Z" fill="#EF402A"/></svg>