<!-- by TradingView --><svg width="56" height="56" viewBox="0 0 56 56" xmlns="http://www.w3.org/2000/svg"><path fill="#F0F3FA" d="M0 0h56v56H0z"/><path d="M17.96 15h-3.92l-.04.02v.96l.04.02h3.92l.04-.02v-.96l-.04-.02ZM29.97 15h-3.94c-.02 0-.03 0-.03.02v.96c0 .01.01.02.03.02h3.94c.02 0 .03 0 .03-.02v-.96c0-.01-.01-.02-.03-.02ZM40.96 15h-3.92c-.02 0-.04.01-.04.03v.94c0 .02.02.03.04.03h3.92c.02 0 .04-.01.04-.03v-.94c0-.02-.02-.03-.04-.03ZM25.9 18.06l-5.46 18.9-.01.03h-.03l-.85.01a.04.04 0 0 1-.03-.02.04.04 0 0 1 0-.03L25 18.03l.02-.02.02-.01h.82a.04.04 0 0 1 .03.02.04.04 0 0 1 0 .04ZM5 36.94l5.49-18.9.01-.03h.03l.8-.01a.05.05 0 0 1 .04.02.05.05 0 0 1 .01.04l-5.45 18.9-.02.03h-.03l-.83.01h-.02a.05.05 0 0 1-.03-.04v-.02ZM6.53 36.94l5.49-18.9c0-.01 0-.02.02-.03h.02l.81-.01h.02a.05.05 0 0 1 .02.06l-5.45 18.9-.01.03h-.03l-.85.01h-.02a.04.04 0 0 1-.02-.04v-.02ZM14.45 18.04 9 36.97l-.01.02h-.02l-.87.01a.03.03 0 0 1-.03-.03v-.02l5.5-18.92v-.01l.03-.01.83-.01a.03.03 0 0 1 .03.01v.03ZM24.36 18.05l-5.45 18.92-.02.02h-.02l-.85.01a.04.04 0 0 1-.04-.02.04.04 0 0 1 0-.03l5.49-18.92.01-.02h.03l.82-.01h.01l.02.02a.04.04 0 0 1 0 .03ZM35.81 18.05l-5.45 18.92-.02.02h-.02l-.86.01h-.01a.04.04 0 0 1-.02-.03v-.02l5.49-18.92.01-.02h.03l.81-.01h.02l.02.02a.04.04 0 0 1 0 .03ZM37.35 18.04l-5.46 18.94-.02.01-.01.01h-.89l-.01-.01a.03.03 0 0 1 0-.03l5.49-18.93a.03.03 0 0 1 .03-.03h.85l.01.01a.03.03 0 0 1 0 .03Z" fill="#192B69"/><path fill-rule="evenodd" d="m38.12 18.03-5.5 18.92a.04.04 0 0 0 0 .04h.01l.02.01h17.33a.04.04 0 0 0 .02-.05l-6.16-18.92-.02-.02-.02-.01H38.14l-.02.03Zm1.93 5.03-1.01 3.03c-.03.07-.05.07-.08 0l-1.23-2.85c-.04-.1-.1-.11-.17-.03l-.01.01-3.75 12.73c-.01.03 0 .05.03.05h1.87l.02-.03.91-3.06c.29-.97.57-1.94.86-2.87l.01-.02c.02-.01.04 0 .05.03a.16.16 0 0 1 .01.02l1.18 5.52c.03.12.06.12.1 0l.72-2.66c.27-1 .54-2.02.84-3.05.02-.09.05-.09.08 0l.23.7 1.73 5.38c0 .03.02.04.05.04h1.72c.05 0 .07-.02.05-.07l-4.13-12.87c-.02-.08-.05-.08-.08 0ZM18.32 30.5c-.04.12-.08.12-.11 0-.04-.16-.1-.31-.15-.47a.25.25 0 0 1-.01-.16l3.24-11.77c.01-.05 0-.1-.05-.1h-5.67c-.04 0-.07.05-.08.09L9.64 36.94a.03.03 0 0 0 .01.03v.01l.01.02h7.68l.03-.01.01-.03 1.49-5.16a962.26 962.26 0 0 1 4.02-13.77l-.02-.02-.03-.01h-.87l-.03.05-3.62 12.44Zm-3.48.33.35-1.37v-.01a.03.03 0 0 1 .04 0l2.36 3.1a.04.04 0 0 0 .06-.01l.12-.54a.38.38 0 0 0 0-.2l-3-8.78a.02.02 0 0 0-.02-.02.02.02 0 0 0-.02.02l-2.33 7.64a.16.16 0 0 0 .03.14c.42.58.87 1.14 1.32 1.7a76.86 76.86 0 0 1 1.12 1.48.03.03 0 0 1-.02.02H11.38a.09.09 0 0 0-.08.07l-.52 1.9a.03.03 0 0 0 0 .02h.02l5.8.01c.01 0 .03 0 .04-.02a.08.08 0 0 0 .03-.04l.43-1.83a.14.14 0 0 0-.03-.12c-.3-.39-.6-.8-.89-1.23a50.41 50.41 0 0 0-1.34-1.86v-.07ZM30 29.67c-.1.33-.18.64-.25.93-.01.04-.02.04-.04 0l-.2-.57a.31.31 0 0 1 0-.19l3.24-11.78c0-.02 0-.06-.02-.06h-5.74l-.02.02v.02c-.02 0-.03.01-.03.03L21.1 36.9v.05l.02.01.01.01.02.02h7.63c.02 0 .02 0 .03-.02.33-1.07.74-2.47 1.23-4.2a912.02 912.02 0 0 1 4.3-14.76l-.02-.01-.03-.01h-.82l-.06.03A14484.3 14484.3 0 0 1 30 29.67ZM26.3 30.8l.33-1.26c.02-.08.06-.1.11-.02l2.3 3.03.03.01a.04.04 0 0 0 .04 0v-.03l.14-.59-.01-.1-3-8.8c-.02-.06-.05-.06-.07.01l-2.3 7.58a.18.18 0 0 0 .02.16l2.44 3.17c.02.03-.01.04-.05.04h-3.42l-.04.03-.02.02a35.31 35.31 0 0 0-.54 1.82.42.42 0 0 0 0 .1.02.02 0 0 0 0 .02l.01.01h5.8c.02 0 .04-.02.05-.04l.43-1.84a.18.18 0 0 0-.03-.16c-.27-.34-.5-.66-.7-.94a50.14 50.14 0 0 0-1.49-2.06.19.19 0 0 1-.03-.16Z" fill="#192B69"/><path d="M17.97 38h-3.94a.03.03 0 0 0-.03.03v.94c0 .02.01.03.03.03h3.94c.02 0 .03-.01.03-.03v-.94a.03.03 0 0 0-.03-.03ZM29.97 38h-3.94a.03.03 0 0 0-.03.03v.94c0 .02.01.03.03.03h3.94c.02 0 .03-.01.03-.03v-.94a.03.03 0 0 0-.03-.03ZM40.98 38h-3.96a.02.02 0 0 0-.02.02v.96l.02.02h3.96l.02-.02v-.96a.02.02 0 0 0-.02-.02Z" fill="#192B69"/></svg>