<!-- by TradingView --><svg width="56" height="56" viewBox="0 0 56 56" xmlns="http://www.w3.org/2000/svg"><path fill="url(#afg0jsamy)" d="M0 0h56v56H0z"/><path d="M33.06 37H31v-7h2.1c1.97 0 2.9 1.7 2.9 3.5 0 1.82-.95 3.5-2.94 3.5ZM32 36h1c1.4 0 2-1.26 2-2.5 0-1.23-.58-2.5-1.97-2.5H32v5ZM13 31v-1h5v1h-2v6h-1v-6h-2ZM11 30h1v4.5c0 1.45-1.06 2.5-2.5 2.5A2.41 2.41 0 0 1 7 34.5V30h1v4.4c0 .82.66 1.6 1.5 1.6.85 0 1.5-.78 1.5-1.6V30ZM43 20v7h-.98l-2.87-4.77H39V27h-1v-7h.99l2.86 4.77H42V20h1ZM49 20v7h-.98l-2.87-4.77H45V27h-1v-7h.99l2.86 4.77H48V20h1ZM49 30v7h-.98l-2.87-4.77H45V37h-1v-7h.99l2.86 4.77H48V30h1ZM26 27v-7h2.39c.48 0 .9.1 1.22.3.34.2.59.48.76.83.17.35.26.74.26 1.19 0 .45-.09.84-.26 1.2-.17.34-.43.62-.76.82-.34.2-.75.3-1.24.3h-1.58v-1.05h1.42c.77 0 1.4-.52 1.4-1.27 0-.72-.65-1.32-1.4-1.32H27v6h-1ZM19 37v-7h2.39c.48 0 .9.1 1.22.3.34.2.59.48.76.83.17.35.26.74.26 1.19 0 .45-.09.84-.26 1.2-.17.34-.43.62-.76.82-.34.2-.75.3-1.24.3h-1.58v-1.05h1.42c.77 0 1.4-.52 1.4-1.27 0-.72-.65-1.32-1.4-1.32H20v6h-1ZM18 20h1.48l1.98 5.07h.08L23.52 20H25v7h-1v-4.8h-.22L21.93 27h-.86l-1.85-4.82H19V27h-1v-7ZM12.77 27h-1.25l2.29-7h1.45l2.3 7H16.3l-1.74-5.56h-.05L12.77 27Zm.05-3h3.43v1h-3.43v-1ZM32.05 27h-1.26l2.29-7h1.45l2.3 7h-1.26l-1.74-5.56h-.05L32.05 27Zm.04-3h3.43v1h-3.43v-1ZM25.14 37h-1.26l2.3-7h1.45l2.3 7h-1.26l-1.74-5.56h-.05L25.14 37Zm.04-3h3.43v1h-3.43v-1ZM38.09 37h-1.26l2.29-7h1.45l2.3 7H41.6l-1.74-5.56h-.05L38.09 37Zm.04-3h3.43v1h-3.43v-1ZM9.78 22a1 1 0 0 0-.38-.71 1.4 1.4 0 0 0-.85-.25c-.25 0-.46.04-.64.12a.94.94 0 0 0-.4.32.8.8 0 0 0-.05.82c.06.1.15.2.26.26.1.08.23.14.36.18.13.05.26.1.4.13l.6.16c.25.06.49.14.71.24.23.1.44.23.62.38A1.7 1.7 0 0 1 11 25c0 .4-.1.75-.3 1.05-.19.3-.47.54-.84.7-.37.18-.81.26-1.33.26-.5 0-.95-.08-1.32-.25A2 2 0 0 1 6 25h1.16c.03.38.35.7.7.83.19.08.41.12.66.12.26 0 .48-.04.67-.12.2-.08.35-.2.46-.34a.84.84 0 0 0 .17-.51.67.67 0 0 0-.15-.44 1.1 1.1 0 0 0-.41-.3 3.84 3.84 0 0 0-.61-.2l-.74-.2a2.94 2.94 0 0 1-1.27-.66c-.31-.3-.47-.69-.47-1.17 0-.4.1-.76.31-1.06.21-.3.5-.53.86-.7.36-.17.77-.25 1.22-.25.47 0 .87.08 1.22.25a2 2 0 0 1 .82.7c.2.3.3.67.31 1.05H9.78Z" fill="#fff"/><defs><linearGradient id="afg0jsamy" x1="10.42" y1="9.71" x2="68.15" y2="76.02" gradientUnits="userSpaceOnUse"><stop stop-color="#1A1E21"/><stop offset="1" stop-color="#06060A"/></linearGradient></defs></svg>