<!-- by TradingView --><svg width="56" height="56" viewBox="0 0 56 56" xmlns="http://www.w3.org/2000/svg"><path fill="#F0F3FA" d="M0 0h56v56H0z"/><path d="M20.96 17.56c-2.57 2.66-2.78 5.64-1.35 8.75.03.05.03.12.01.17a.27.27 0 0 1-.12.14l-.13.08c-.16.1-.3.18-.49.25a5.6 5.6 0 0 1-5.3-.71C8.94 22.97 10.74 14.69 17.4 15a5.7 5.7 0 0 1 2.78.93c.51.32 1.34 1.03.78 1.62Zm14.08.14c2.57 2.67 2.78 5.64 1.35 8.75a.23.23 0 0 0-.01.18c.02.05.06.1.12.14l.13.08c.16.09.3.18.49.24a5.6 5.6 0 0 0 5.3-.7c4.63-3.28 2.83-11.56-3.82-11.24a5.7 5.7 0 0 0-2.78.93c-.51.33-1.34 1.04-.78 1.62ZM29.7 41.6v-7.33a5.36 5.36 0 0 1 1.39-3.76 42.01 42.01 0 0 1 3.47-3.42 6.11 6.11 0 0 0 1.98-3.86c.08-.49.06-1.01-.06-1.56-.79-3.64-4.44-5.98-8.2-6.16-3.11-.16-6.95 1.72-8.22 4.54a6.7 6.7 0 0 0-.6 2.22 6.61 6.61 0 0 0 2.65 5.67c.43.35.93.62 1.43.89l.24.13a5.41 5.41 0 0 1 2.76 3.14c.15.46.23 1.19.23 2.17v7.12c0 .36.31.62.72.61h1.8c.1 0 .21-.07.29-.14a.35.35 0 0 0 .12-.26Zm-5.48-5.41a.16.16 0 0 0-.06-.08.2.2 0 0 0-.2-.01.17.17 0 0 0-.07.07c-.11.2-.26.34-.4.5-.14.13-.28.27-.39.44-1.19 1.92-3.74 4.32-6.32 2.4-2.47-1.83-3.85-5-2.74-7.74 1.1-2.71 5.17-4.03 8.19-2.87 2.92 1.12 3.81 3.07 3.78 5.7v6.91c0 .32-.2.49-.57.49h-.61c-.34 0-.5-.15-.5-.44 0-1.43 0-2.85.02-4.27 0-.4.01-.75-.13-1.1Zm8.01-.08a.16.16 0 0 0-.06.07c-.14.35-.17.72-.16 1.1v4.28c0 .3-.11.44-.45.44h-.61c-.37 0-.55-.17-.56-.5 0-2.38-.02-4.69-.04-6.9-.03-2.63.89-4.58 3.81-5.7 3.02-1.16 7.09.16 8.2 2.87 1.1 2.74-.28 5.91-2.75 7.74-2.58 1.92-5.13-.49-6.32-2.4-.11-.17-.25-.31-.38-.45-.15-.15-.3-.3-.4-.5a.17.17 0 0 0-.08-.06.2.2 0 0 0-.2.01Z" fill="#E3000F"/></svg>