<!-- by TradingView --><svg width="56" height="56" viewBox="0 0 56 56" xmlns="http://www.w3.org/2000/svg"><path fill="#F0F3FA" d="M0 0h56v56H0z"/><path fill-rule="evenodd" d="M38.57 45.59c.28-.26.43-.62.43-.99V11.4c0-.37-.15-.73-.43-.99a1.5 1.5 0 0 0-1.03-.41H18.46c-.39 0-.76.15-1.03.41-.28.26-.43.62-.43.99v33.2c0 .37.15.73.43.99.27.26.64.41 1.03.41h19.08c.39 0 .76-.15 1.03-.41Zm-.69-.7a.37.37 0 0 0 .12-.27V11.38c0-.1-.04-.2-.12-.27a.4.4 0 0 0-.28-.11H18.4a.41.41 0 0 0-.28.11.37.37 0 0 0-.12.27v33.24a.36.36 0 0 0 .12.27.4.4 0 0 0 .28.11h19.2c.1 0 .21-.04.28-.11Z" fill="#1E974F"/><path d="M22 31v9.12c-.02 1.55 2.2 1.87 3.41 1.84 1.9-.07 3.6-.7 5.1-1.93 2.96-2.38 3.88-5.4 2.77-9.04-.13-.44-.65-1.3-1.53-2.62a66.8 66.8 0 0 0-7.39-9.03 7.6 7.6 0 0 1-1.17-1.83c-.62-1.26-.6-2.8.66-3.66a6.3 6.3 0 0 1 3.43-.85h6.48c.1 0 .2.02.3.08.09.05.16.13.2.22.12.25.04.63-.16.84a5.6 5.6 0 0 1-5.15 1.78 13.17 13.17 0 0 0-4.3.04.5.5 0 0 0-.2.08c-.06.04-.1.1-.14.15a.44.44 0 0 0-.02.4c.1.21.22.42.36.62 1.92 2.7 4.13 4.63 6.3 6.86a28.61 28.61 0 0 1 4.7 6.73 9.24 9.24 0 0 1-.2 8.1 9.42 9.42 0 0 1-6.43 4.82c-2.62.61-5.2.23-7.46-1.27-1.78-1.18-1.56-2.27-1.56-4.01v-8.58c0-.45.29-.86.76-.86h7.14c2.51 0 4.05 1.3 4.62 3.6.56 2.28.06 4.93-2 6.41a4.82 4.82 0 0 1-6.5-.85c-.52-.65-.36-.89.49-.7 1.7.35 3 .57 4.41-.56.9-.72 1.08-2.62.92-3.61-.25-1.58-1.21-2.26-2.9-2.29H22Z" fill="#D82620"/></svg>