<!-- by TradingView --><svg width="56" height="56" viewBox="0 0 56 56" xmlns="http://www.w3.org/2000/svg"><path fill="#F0F3FA" d="M0 0h56v56H0z"/><path d="M27.43 27.73h-.01l-.02-.01v-.04c.02-.21.06-.4.11-.56a18.85 18.85 0 0 0 .49-1.75l.01-.03h.02a.4.4 0 0 1 .13-.02c.53.06.78.38.75.94-.03.5-.2.9-.53 1.17-.27.24-.62.35-.95.3ZM48.44 26.79l-1.3 1.8a.07.07 0 0 0-.01.07c0 .01 0 .02.02.03h1.23l.05-.01a.07.07 0 0 0 .01-.04l.1-1.8v-.04a.06.06 0 0 0-.04-.03h-.03a.06.06 0 0 0-.03.02ZM13.68 28.63l1.3-1.8c0-.02.02-.02.03-.03h.03l.03.03v.03l-.08 1.8-.02.04a.05.05 0 0 1-.04.02H13.7l-.02-.03a.06.06 0 0 1 0-.06Z" fill="#D12A1A"/><path fill-rule="evenodd" d="M51 23H5v10h46V23ZM9.03 27.45c-.3-.34-.6-.67-.7-1.2-.06-.3.17-.65.4-.79a.8.8 0 0 1 .8.04c.34.22.6.57.67.99l.06.3c.02.07.05.08.08.01l.01-.06.38-1.67c0-.04 0-.06-.04-.06-.06 0-.14.07-.2.13l-.05.04c-.1.1-.33.07-.46.04l-.59-.15a1.67 1.67 0 0 0-1.68.4 1.4 1.4 0 0 0-.42 1.2c.03.2.06.4.16.6.21.4.52.83.91 1.26.17.2.31.43.42.7.27.7-.1 1.4-.8 1.42-.35 0-.66-.15-.92-.46a.98.98 0 0 1-.18-.3 5.06 5.06 0 0 1-.26-1.1.03.03 0 0 0-.04.01.17.17 0 0 0-.05.09 7.9 7.9 0 0 0-.15.66l-.15.71a23.45 23.45 0 0 0-.14.72l.02.02c.03 0 .06 0 .09-.02.2-.18.41-.22.7-.17l.47.1c.83.16 1.67.13 2.24-.6.24-.3.36-.73.32-1.15v-.03a1.6 1.6 0 0 0-.18-.7c-.12-.2-.23-.37-.35-.53l-.37-.45Zm32.2.09.02.02c.3 0 .6-.03.91-.1.36-.1.62-.46.8-.8a.07.07 0 0 1 .05-.05c.05 0 .06.01.05.06a18.07 18.07 0 0 0-.43 1.67 5.93 5.93 0 0 0-.17.62h-.02v-.2c.01-.37-.17-.68-.47-.8a2.09 2.09 0 0 0-.82-.06l-.04.02a30.33 30.33 0 0 0-.57 2.3c-.04.2.01.32.16.37.11.04.25.05.42.05.88-.03 1.6-.42 2.15-1.19a.23.23 0 0 1 .13-.09h.01l.02.01v.04a18.15 18.15 0 0 1-.5 1.54l-.03.01-.11.02-.12.02h-3.74a7.03 7.03 0 0 0-.36-.03v-.01c0-.04.03-.06.06-.07.15-.03.3-.09.45-.16.24-.12.35-.55.42-.82l.43-1.67.07-.32c.04-.18.08-.37.14-.55a57.4 57.4 0 0 0 .43-1.71c.05-.4-.23-.47-.49-.49-.03 0-.04-.01-.04-.04 0-.04.02-.06.07-.09h.03l.3-.02.33-.02h2.35a14.4 14.4 0 0 1 .97.03.05.05 0 0 1 .01.04c-.09.45-.19.87-.3 1.28-.01.05-.03.05-.05 0a.75.75 0 0 1-.05-.17.99.99 0 0 0-.8-.8 3.94 3.94 0 0 0-1.13-.04.08.08 0 0 0-.02.04c-.09.44-.2.88-.33 1.31a29.83 29.83 0 0 0-.2.85Zm-7.42.53h1.83a.02.02 0 0 1 .02.02v.07l-.1.42c-.11.38-.22.8-.32 1.26-.06.24-.14.46-.22.65-.13.25-.39.34-.63.4a.1.1 0 0 0-.08.06c0 .03 0 .04.02.04a54.46 54.46 0 0 0 2.4-.02c.02 0 .03-.01.03-.03 0-.02 0-.04-.03-.06h-.02c-.3-.06-.56-.21-.46-.61.07-.27.12-.53.16-.76.05-.27.12-.55.2-.82l.16-.65c.13-.61.3-1.23.47-1.83l.07-.24c.03-.13.1-.28.18-.45.11-.22.34-.36.7-.4v-.02l.01-.01v-.02c0-.03-.01-.04-.04-.04L36.5 25a5.7 5.7 0 0 0-.76.06.06.06 0 0 0-.01.04v.04h.02l.29.07c.34.1.23.54.16.81v.03a40.65 40.65 0 0 1-.46 1.62.07.07 0 0 1-.04.02h-1.8l-.02-.01-.01-.02a.06.06 0 0 1-.01-.04c.04-.2.1-.37.15-.55l.15-.54c.07-.3.17-.6.28-.9.14-.37.37-.46.69-.5.02 0 .04-.02.04-.05v-.02c0-.02 0-.03-.03-.03a29.89 29.89 0 0 0-2.36.01c-.06.02-.09.05-.09.08s.02.04.04.05c.2 0 .49.06.52.32.01.12 0 .27-.05.44l-.06.27-.16.59c-.11.38-.2.78-.3 1.17-.05.23-.1.47-.17.7l-.33 1.3c-.06.23-.13.43-.22.6-.12.2-.4.29-.6.33-.03 0-.05.03-.06.07a.03.03 0 0 0 0 .02.03.03 0 0 0 0 .02h2.41c.05-.03.05-.06.02-.1a.05.05 0 0 0-.04-.03c-.18-.02-.53-.16-.5-.41.05-.3.12-.6.2-.92a67.61 67.61 0 0 0 .38-1.45.06.06 0 0 1 .04-.02Zm-12.06-1.33a73.8 73.8 0 0 0 .87 2.15l.02-.01.01-.02c.1-.3.17-.6.23-.91l.16-.65.34-1.24c.05-.18.06-.37.02-.55-.05-.24-.26-.33-.45-.36l-.02-.01-.01-.02v-.02l.01-.02c.05-.04.1-.07.17-.07l1.32-.01c.03 0 .07.01.1.03v.02a.04.04 0 0 1 0 .04l-.01.01c-.25.1-.52.2-.66.43-.08.14-.15.3-.2.52l-.2.76c-.1.32-.19.63-.26.96-.07.33-.16.66-.25.98l-.19.7-.13.5a453.17 453.17 0 0 1-.3 1.04.04.04 0 0 1-.04 0h-.02a445.15 445.15 0 0 0-.85-2.07l-.1-.28c-.26-.65-.52-1.31-.77-2a6.82 6.82 0 0 0-.33-.68h-.04v.02l-.18.62-.23.86-.06.25-.31 1.24c-.1.3-.18.66-.26 1.06-.05.25-.05.49.12.65.1.09.2.15.33.18l.02.02.01.02c.02.04 0 .07-.05.07a33.42 33.42 0 0 1-1.56-.02v-.01c0-.03.03-.06.06-.06.49-.14.7-.48.83-.98a51.63 51.63 0 0 0 .7-2.73c.11-.46.24-.92.37-1.4.1-.36-.44-.55-.66-.6l-.01-.01-.01-.02a.04.04 0 0 1 0-.04.1.1 0 0 1 .08-.03 15.45 15.45 0 0 1 1.62 0l.04.06.52 1.13.2.5Zm6.99 1.1a.08.08 0 0 0-.05.03.1.1 0 0 0-.01.06c0 .12.02.23.05.34l.14.56c.1.46.2.87.3 1.25.06.2.16.55.34.66a1.17 1.17 0 0 0 .35.14v.02l.01.01v.02c0 .02-.02.04-.04.04a32.51 32.51 0 0 1-1.52 0l-.01-.02a252.2 252.2 0 0 1-.46-1.92l-.07-.35a9.62 9.62 0 0 1-.18-.66.1.1 0 0 0-.06-.03.33.33 0 0 0-.15.01c-.01 0-.02 0-.03.02l-.01.02a27.84 27.84 0 0 0-.54 2.07c-.07.3-.13.55.17.7l.2.03.1.02.04.01.01.04c0 .03 0 .05-.03.06a48.18 48.18 0 0 1-2.41 0 .03.03 0 0 1 0-.02.2.2 0 0 1 .1-.07c.39-.06.64-.3.75-.74l.46-1.78.1-.46c.05-.23.1-.46.17-.68a6.23 6.23 0 0 0 .24-1l.1-.43c.12-.44-.1-.59-.45-.64l-.02-.01-.01-.02a.04.04 0 0 1 0-.03.15.15 0 0 1 .11-.06c.48-.03 1.16-.04 2.05-.03.3 0 .56.04.75.1.47.16.75.5.83 1.01.04.25 0 .5-.14.77-.27.51-.69.79-1.18.95Zm18.14 1.2h1.51l.02.01a.06.06 0 0 1 .01.04c0 .32-.02.63-.05.93 0 .14-.03.28-.07.42-.1.3-.24.34-.45.4l-.13.05a.08.08 0 0 0-.05.05.03.03 0 0 0 0 .03h.02V31h2.11c.02 0 .03-.02.03-.03l.02-.03a.06.06 0 0 0-.01-.05l-.02-.02c-.18-.1-.36-.24-.36-.49-.01-.43 0-.86.03-1.3a47.55 47.55 0 0 0 .07-1.62c.04-.8.08-1.6.08-2.4v-.03l-.02-.02-.02-.01h-.03a.33.33 0 0 0-.14.11l-.23.3c-.15.21-.3.42-.48.63a19.6 19.6 0 0 0-1.02 1.32c-.16.21-.32.43-.46.66-.17.27-.35.5-.54.74l-.03.05c-.11.13-.22.3-.34.5-.23.38-.57.82-.87 1.14a2.33 2.33 0 0 1-.58.46v.01a.05.05 0 0 0 0 .04c.03.04.07.04.12.04h1.27c.02 0 .04-.02.04-.05 0-.03-.01-.06-.04-.07a6 6 0 0 1-.13-.07c-.15-.09-.25-.29-.17-.46l.1-.2.11-.17c.11-.18.22-.36.35-.53.08-.1.15-.2.21-.31.04-.06.08-.1.14-.1Zm-31.93.08-.02-.02H13.55a.86.86 0 0 0-.22.02 822.11 822.11 0 0 0-.84 1.24c-.1.34.12.45.35.54l.01.01.01.02a.04.04 0 0 1 0 .03c0 .02-.02.03-.04.03H11.4c-.03 0-.04-.02-.03-.05 0-.02.01-.04.03-.04.24-.13.42-.27.55-.42l.08-.1c.16-.18.32-.36.46-.55a114.83 114.83 0 0 1 1.01-1.4c.13-.16.25-.34.36-.52.13-.2.26-.4.41-.58a79.64 79.64 0 0 0 1.02-1.31 24.21 24.21 0 0 0 .79-1l.02-.02h.03l.02.02.01.03c.02.08.02.15.02.22l-.08 2.04-.04.93-.08 2c0 .1 0 .22.04.35.05.16.2.23.33.29l.03.01.01.01.01.02v.02l-.02.02a26.43 26.43 0 0 1-2.18 0 .04.04 0 0 1 0-.04l.02-.01a.85.85 0 0 1 .26-.1c.33-.06.41-.55.43-.85a106.6 106.6 0 0 1 .03-.84Z" fill="#D12A1A"/></svg>