<!-- by TradingView --><svg width="56" height="56" viewBox="0 0 56 56" xmlns="http://www.w3.org/2000/svg"><path fill="#F0F3FA" d="M0 0h56v56H0z"/><path d="M32 12.06V24h-6s.07-8.6 0-11.66c1.96-.32 4-.41 6-.28Z" fill="#BBBFC2"/><path d="M32 12.06c1.92.13 3.79.54 5.6 1.21.93.35 1.78.82 2.7 1.2a.34.34 0 0 1 .19.19.35.35 0 0 1 0 .26l-3.14 7.37c-.03.06-.07.08-.14.05a5.5 5.5 0 0 1-.83-.42A9.95 9.95 0 0 0 32 20.14v-8.08Z" fill="#2F3293"/><path d="M26 12.34V24h6.38a10.73 10.73 0 0 1 6.23 2.66c.44.4.9.96 1.4 1.72 1.13 1.67 1.1 4.2.83 6.21-.4 2.94-2.29 5.4-4.84 7.07l-.25-2.39c0-.08-.04-.12-.13-.12h-3.58a.25.25 0 0 1-.17-.07.23.23 0 0 1-.07-.17v-7.26c0-.02 0-.03-.02-.05a.08.08 0 0 0-.06-.02h-5.7c-.53-.08-1.05-.17-1.56-.28-1.96-.4-4.32-1.3-5.62-2.67a7.22 7.22 0 0 1-1.96-3.46 11.7 11.7 0 0 1 .22-5.46 9.47 9.47 0 0 1 3.07-4.56c1.56-1.28 3.8-2.51 5.83-2.81Z" fill="#2F3293"/><path d="M36 41.67c-.82.62-1.98 1.25-3.06 1.56-1.22.35-2.47.69-3.72.75-1.07.05-2.18.01-3.22-.12V31.58h6v7.19c0 .06.03.12.07.16.05.05.1.07.17.07h3.63c.09 0 .13.04.13.13v2.54Z" fill="#BBBFC2"/><path d="M26 35.28v8.58a28.14 28.14 0 0 1-10.7-3.12c-.33-.17-.4-.47-.18-.9.82-1.63 1.49-3.47 2.3-5.18a20.92 20.92 0 0 0 .96-2.31.22.22 0 0 1 .18-.06c.04 0 .07.01.1.03 1.38.92 2.9 1.7 4.55 2.36a9.2 9.2 0 0 0 2.79.6Z" fill="#2F3293"/></svg>