<!-- by TradingView --><svg width="56" height="56" viewBox="0 0 56 56" xmlns="http://www.w3.org/2000/svg"><path fill="#F0F3FA" d="M0 0h56v56H0z"/><path d="M46 25v-1h6v1h-2.32v7h-1.36v-7H46ZM41.3 32h-1.38l2.51-8h1.6l2.51 8h-1.38l-1.9-6.36h-.06L41.3 32Zm.04-3h3.77v1h-3.77v-1ZM32.68 32l-2.02-8h1.4l1.28 5.88h.06L34.78 24h1.26l1.38 5.88h.06L38.77 24h1.39l-2.02 8h-1.27l-1.43-5.61h-.06L33.95 32h-1.27ZM24 32v-8h1.32v3.39h3.36V24H30v8h-1.32v-3.4h-3.36V32H24ZM21.38 26.24a1.06 1.06 0 0 0-.41-.77 1.48 1.48 0 0 0-.94-.28c-.27 0-.5.05-.69.14-.2.08-.34.2-.44.36a.93.93 0 0 0-.06.94c.07.12.17.22.28.3a3.97 3.97 0 0 0 .83.35l.67.18c.27.07.53.16.78.28.25.11.47.26.67.44a1.93 1.93 0 0 1 .65 1.52c0 .45-.1.86-.32 1.2-.21.35-.52.62-.93.81-.4.2-.89.29-1.46.29-.55 0-1.03-.1-1.44-.28a2.2 2.2 0 0 1-.96-.82c-.23-.36-.35-.8-.37-1.31h1.27c.02.27.1.5.23.67.14.18.31.31.53.4.22.1.46.14.73.14.28 0 .53-.05.74-.14.21-.1.38-.22.5-.39a.99.99 0 0 0 .19-.58c0-.2-.06-.37-.17-.5a1.2 1.2 0 0 0-.45-.34 4.1 4.1 0 0 0-.67-.24l-.8-.23a3.17 3.17 0 0 1-1.4-.75 1.8 1.8 0 0 1-.5-1.34 2.13 2.13 0 0 1 1.27-2c.4-.2.84-.29 1.34-.29.5 0 .95.1 1.33.29a2.15 2.15 0 0 1 1.24 1.96h-1.24ZM11.43 32h-1.38l2.51-8h1.6l2.52 8H15.3l-1.91-6.36h-.06L11.43 32Zm.05-3h3.76v1h-3.76v-1ZM8.14 26.24a1.06 1.06 0 0 0-.42-.77 1.48 1.48 0 0 0-.93-.28c-.27 0-.5.05-.7.14-.19.08-.33.2-.43.36a.93.93 0 0 0-.06.94c.07.12.16.22.28.3a3.98 3.98 0 0 0 .83.35l.67.18c.27.07.53.16.78.28.25.11.47.26.67.44a1.93 1.93 0 0 1 .65 1.52c0 .45-.1.86-.32 1.2-.22.35-.53.62-.93.81-.4.2-.89.29-1.46.29-.56 0-1.04-.1-1.45-.28a2.2 2.2 0 0 1-.95-.82c-.23-.36-.35-.8-.37-1.31h1.27c.02.27.1.5.23.67.14.18.31.31.53.4.22.1.46.14.73.14.28 0 .53-.05.74-.14.21-.1.38-.22.5-.39a.99.99 0 0 0 .18-.58c0-.2-.05-.37-.16-.5a1.2 1.2 0 0 0-.45-.34 4.1 4.1 0 0 0-.67-.24l-.8-.23a3.17 3.17 0 0 1-1.4-.75 1.8 1.8 0 0 1-.51-1.34 2.13 2.13 0 0 1 1.28-2c.4-.2.84-.29 1.34-.29.5 0 .95.1 1.33.29a2.15 2.15 0 0 1 1.24 1.96H8.14Z"/></svg>