<!-- by TradingView --><svg width="56" height="56" viewBox="0 0 56 56" xmlns="http://www.w3.org/2000/svg"><path fill="#F0F3FA" d="M0 0h56v56H0z"/><path fill-rule="evenodd" d="M40 13.5H16a3.5 3.5 0 0 0-3.5 3.5v22a3.5 3.5 0 0 0 3.5 3.5h24a3.5 3.5 0 0 0 3.5-3.5V17a3.5 3.5 0 0 0-3.5-3.5ZM16 13a4 4 0 0 0-4 4v22a4 4 0 0 0 4 4h24a4 4 0 0 0 4-4V17a4 4 0 0 0-4-4H16Z" fill="#3F3F41"/><path d="M40.32 15.5a3.51 3.51 0 0 0-1.82-.5h-21a3.48 3.48 0 0 0-3.5 3.47v4.88l26.32-7.85ZM14 31.03v6.5c0 .2.02.38.04.56 3.8-1.16 10.34-3.57 9.96-5.09-.34-1.35-5.96-1.85-10-1.97Zm1.27 9.18c.61.5 1.38.79 2.23.79h21c1.93 0 3.5-1.55 3.5-3.47v-3.42l-26.73 6.1ZM42 28c-4.47-.05-12.61-.69-13-3-.39-2.31 8.19-5.44 12.99-6.85l.01.32V28Z" fill="#337D16"/></svg>