<!-- by TradingView --><svg width="56" height="56" viewBox="0 0 56 56" xmlns="http://www.w3.org/2000/svg"><path fill="#F0F3FA" d="M0 0h56v56H0z"/><path d="M21.53 39.87c2.99-.94 5.62-.25 9.88-5.63 1.6-2.8 2.28-5.69 1.56-8.95-1.15-5.3-4.84-7.72-10.72-9.28L45.89 16a.1.1 0 0 1 .08.03c.02.03.03.05.03.08v4.81c0 .09-.05.08-.1.08h-7.75c-.04 0-.08.04-.1.07a.15.15 0 0 0-.05.1V26c0 .03.02.01.05.01h6.83c.04 0 .07.05.1.08.02.03.02.06.02.1v4.69c0 .03-.01.06-.04.08a.11.11 0 0 1-.08.04L38.1 31c-.06 0-.1.03-.1.1v8.71c0 .05-.01.08-.04.12a.14.14 0 0 1-.1.04c-3.94 0-10.8 0-14.7.03-.37 0-.91-.04-1.63-.13Z" fill="#999967"/><path fill-rule="evenodd" d="M32.14 23c.06-.1.07-.2.03-.27a11.58 11.58 0 0 0-14.62-5.98 11.1 11.1 0 0 0-4.92 3.62A12.36 12.36 0 0 0 10.2 30.4c0 .04.03.08.06.1.03.03.07.05.11.05h19.19c.02 0 .04.02.06.04.01.02.02.04 0 .06a8.24 8.24 0 0 1-2.35 3.77l-.26.24a8.5 8.5 0 0 1-2.49 1.48 7.94 7.94 0 0 1-5.45.08 9.03 9.03 0 0 1-2.58-1.37l-.35-.3-1.33-1.44a.3.3 0 0 0-.23-.11h-3.42c-.03 0-.06.02-.08.05a.1.1 0 0 0 0 .1 12.22 12.22 0 0 0 5.7 5.76 11.17 11.17 0 0 0 8.06.63c2.99-.92 5.26-2.72 6.82-5.4a11.3 11.3 0 0 0 1.36-8.64H13.77c-.06 0-.1-.1-.08-.15a9.2 9.2 0 0 1 3.58-4.76 8.12 8.12 0 0 1 6.05-1.09c1.03.21 1.98.61 2.86 1.2.91.6 1.68 1.27 2.3 2.18.05.06.1.12.18.12h3.48Zm-19.2 2.96a.08.08 0 0 1-.02-.08 9.93 9.93 0 0 1 2.67-4.71 8.96 8.96 0 0 1 6.67-2.42c.82.05 1.62.22 2.39.5a9.14 9.14 0 0 1 4.19 3.18c.02.02.04.04.08.04a73.8 73.8 0 0 0 2.43-.02c-1.95-3.34-4.71-5.26-8.3-5.77a10.44 10.44 0 0 0-5.72.8 10.98 10.98 0 0 0-4.57 3.69 11.71 11.71 0 0 0-2.07 8.66c.01.09.06.17.14.17h19.54l.02-.01c.01-.01.02-.02.03 0v.05a9.57 9.57 0 0 1-2.6 4.68 8.94 8.94 0 0 1-6.7 2.52 8.54 8.54 0 0 1-2.4-.5 9.16 9.16 0 0 1-4.25-3.16.08.08 0 0 0-.05-.03 30.72 30.72 0 0 0-2.46.01 11.33 11.33 0 0 0 5.66 5.07 10.7 10.7 0 0 0 8.82-.36 11.43 11.43 0 0 0 5.78-6.9c.5-1.69.62-3.34.34-5.22a.18.18 0 0 0-.06-.1.17.17 0 0 0-.11-.05l-19.4-.01a.08.08 0 0 1-.06-.03Z" fill="#010101"/><path d="m28.18 25.24-1.04-.02a6.4 6.4 0 0 0-3.67-.88c-1.73.1-3.46.09-5.2-.02a5.95 5.95 0 0 0-3.33.91c-.1.05-.27.04-.51-.02a7.12 7.12 0 0 1 2.6-1.69c.08-.03.14-.1.16-.2.01-.09-.01-.17-.08-.23l-.26-.27c-.07-.07-.06-.11.04-.12.47-.06.77.05.91.34.04.07.1.1.18.09 2.25-.36 4.32-.4 6.2-.12.28.04.38-.08.33-.35-.1-.49-.24-.93-.42-1.34a.21.21 0 0 0-.13-.12 4.01 4.01 0 0 1-.49-.2.15.15 0 0 1-.09-.14c0-.04.01-.08.04-.1a.13.13 0 0 1 .1-.05c.34.03.67.01 1-.04.45-.06.95.05 1.5.35.16.09.15.15-.02.2a2 2 0 0 0-.71.39.26.26 0 0 0-.09.3c.34 1 .96 1.81 1.87 2.46.36.26.73.55 1.11.87Z" fill="#999967"/><path fill-rule="evenodd" d="M14.2 27.53a6.46 6.46 0 0 1-.33-.1c-.15-.04-.18-.14-.1-.27a.2.2 0 0 1 .12-.09c.23-.06.4.02.52.22.05.08.11.11.2.11h.49c.04 0 .08-.02.1-.06a.14.14 0 0 0 .03-.12c-.09-.36-.33-.6-.73-.68a1.83 1.83 0 0 0-1.03.08.78.78 0 0 0-.5.55.7.7 0 0 0 .2.72c.1.1.23.17.41.24a5.16 5.16 0 0 0 .76.25c.1.04.15.1.16.2.02.1 0 .17-.08.24-.17.14-.36.15-.56.03a.27.27 0 0 1-.11-.12l-.07-.16a.19.19 0 0 0-.2-.12l-.5.01c-.08 0-.12.05-.1.14.03.41.25.69.65.82.33.1.7.1 1.12 0a.88.88 0 0 0 .4-.24c.1-.11.19-.24.24-.4.05-.15.07-.3.04-.45a.76.76 0 0 0-.23-.41c-.1-.1-.24-.18-.42-.25-.1-.04-.26-.09-.48-.14Zm15.92-1.03h.76c.07 0 .12.05.12.12v2.76c0 .07-.06.12-.12.12h-.77a.12.12 0 0 1-.11-.12v-2.76c0-.07.05-.12.12-.12Zm-9.38 1.94.54-1.88c.01-.04.03-.05.07-.05h.7c.03 0 .05 0 .06.02.02.03.02.05.01.07l-.97 2.85c-.01.03-.03.05-.06.05l-.83-.02c-.04 0-.06-.02-.07-.05l-.98-2.83.01-.07a.06.06 0 0 1 .06-.03l.75.02c.04 0 .06.02.07.05l.51 1.87c.01.03.03.05.07.05.03 0 .05-.02.06-.05Zm7.35-1.87v1.38c0 .03-.02.05-.06.06-.03.01-.06 0-.08-.03l-1-1.43c-.02-.02-.04-.05-.06-.05h-.81c-.05 0-.08.02-.08.07v2.86c0 .04.03.07.08.07h.76c.05 0 .07-.03.07-.07v-1.38c0-.03 0-.05.04-.06.04-.01.06 0 .08.03l1.02 1.44.06.03.82.01c.05 0 .07-.02.07-.07v-2.85c0-.05-.03-.08-.08-.08h-.75c-.05 0-.08.02-.08.07Zm-11.21 2.82a.58.58 0 0 0 .04-.2c.01-.12.08-.18.2-.18l.7-.01c.08 0 .13.04.16.12l.06.22c.03.1.1.16.19.16h.6a.1.1 0 0 0 .08-.05.11.11 0 0 0 .01-.1l-.94-2.71c-.03-.1-.09-.14-.18-.14h-.66c-.09 0-.15.05-.18.14l-.93 2.72a.1.1 0 0 0 0 .1c.03.03.05.04.09.04h.6c.07 0 .13-.04.16-.11Zm.63-1.85c-.06-.12-.1-.11-.14.01l-.17.7c-.02.06 0 .1.07.1h.4c.05 0 .07-.03.06-.09-.04-.26-.11-.5-.22-.72Zm5.9 1.55-.08.3c-.01.06-.05.09-.11.09l-.62.02a.11.11 0 0 1-.1-.06.13.13 0 0 1-.01-.12l.95-2.73c.02-.06.06-.09.11-.09h.76c.06 0 .1.03.12.09l.94 2.73c.01.04 0 .08-.02.12a.1.1 0 0 1-.1.06l-.62-.02c-.06 0-.1-.03-.11-.1l-.1-.3c-.03-.07-.06-.1-.12-.1l-.78.01c-.06 0-.1.04-.11.1Zm.43-1.57c.04-.15.1-.16.15 0 .08.21.14.45.19.7.02.09-.02.13-.1.13h-.33c-.09 0-.12-.05-.1-.13l.2-.7Z" fill="#010101"/><path d="m18.86 30.56.47-.01c-.1.1-.07.18.08.27.18.1.32.15.42.13.27-.02.29.04.07.2-.06.05-.17.1-.31.15a.22.22 0 0 0-.14.15l-.33 1.15c-.02.06-.01.12.03.17.05.06.1.08.17.07 1.67-.22 3.4-.2 5.18.07.1.02.17-.01.24-.09.18-.2.42-.3.74-.28.02 0 .04.02.05.05v.06l-.25.3a.17.17 0 0 0-.04.16c.02.06.05.1.1.12a5.7 5.7 0 0 1 1.93 1.19l-.26.24a.2.2 0 0 0-.12-.16c-.47-.21-.95-.36-1.45-.45-.46-.08-1-.12-1.59-.11-.93.01-2.3 0-4.1-.02-1.12-.02-2.2.3-3.26.93l-.35-.3a4.9 4.9 0 0 0 2.4-2.58.27.27 0 0 0-.12-.33l-.5-.27c-.2-.12-.2-.2.04-.25.37-.08.67-.27.9-.56Z" fill="#999967"/></svg>