<!-- by TradingView --><svg width="56" height="56" viewBox="0 0 56 56" xmlns="http://www.w3.org/2000/svg"><path fill="#F0F3FA" d="M0 0h56v56H0z"/><path fill-rule="evenodd" d="m12.94 24.25.11 1.3a3.19 3.19 0 0 0-1.27-.27c-.76 0-1.82.44-1.82 1.9 0 1.47 1.36 2 2.98 1.37l-.23 1.2a4 4 0 0 1-1.55.25c-1.04 0-2.83-.44-2.83-2.82 0-2.37 2-3.18 3.2-3.18.73 0 1.24.16 1.41.25ZM4 28.55l.16 1.2c.17.09.7.25 1.5.25.98 0 2.1-.43 2.1-1.67 0-.57-.5-1.16-.75-1.38l-.64-.58c-.14-.13-.43-.45-.43-.68 0-.3.2-.51.83-.51.51 0 .85.18.96.27v-1.07c-.13-.12-.6-.38-1.36-.38-.94 0-2.07.31-2.07 1.63 0 .25.13.83.59 1.23.1.1.2.18.3.26.47.4.91.77.91 1.21 0 .54-1.14.63-2.1.23ZM15.03 30h1.79l.67-1.7h2l.43 1.7h1.8l-1.9-6h-1.99l-2.8 6Zm4.13-3-.44-1.75-.7 1.75h1.14Zm7.07 3.46.21-5.27c-.2-.06-.85-.19-1.77-.19-1.65 0-2.73 1.3-2.73 2.91s.74 2.18 1.65 2.18c.74 0 1.19-.46 1.32-.7l-.1.63c0 .02 0 .05-.02.07-.08.34-.2.8-1.01.8-.7 0-1.24-.19-1.42-.28v1.12c.23.1.92.27 1.86.27 1.55 0 1.98-1.03 2-1.54Zm-1.26-3.07v-1c-1.17 0-1.54.34-1.54 1.35 0 .8.43 1.01.64 1.01.7 0 .89-.9.9-1.36ZM27 30l.24-5h1.41l-.05.68c.7-.61 1.22-.7 1.4-.68v1.59c-.99 0-1.35.57-1.4.85L28.53 30H27Zm8-2.5a2.5 2.5 0 1 1-5 0 2.5 2.5 0 0 1 5 0Zm-1.67 0c0 .65-.37 1.18-.83 1.18-.46 0-.83-.53-.83-1.18 0-.65.37-1.18.83-1.18.46 0 .83.53.83 1.18Zm2.74-1.5-.18 2.7c-.04.43.14 1.3 1.2 1.3.52 0 .9-.15 1.04-.23l.25-1.34c-.03.1-.18.27-.57.27-.48 0-.46-.39-.43-1.23v-.03l.09-1.44h.91v-1h-.85l.06-1-1.4.37-.05.63h-.73v1h.66Zm6.75 2h-2.7c0 .73.3.9 1.21.9.73 0 1.14-.17 1.25-.26l-.27 1.18c-.2.06-.74.18-1.26.18-1.88 0-2.35-1.53-2.35-2.3 0-.9.43-2.7 2.27-2.7 1.83 0 2 2.1 1.85 3Zm-1.3-1h-1.31c.04-.26.25-.81.71-.81.47 0 .6.55.6.81Zm5.48-.3v-1.42c-.15-.1-.6-.28-1.18-.28-1 0-2.32.58-2.32 2.63S44.79 30 45.53 30c.6 0 1.06-.18 1.22-.28l.25-1.3c-.1.09-.44.26-.93.26-.6 0-.97-.48-.97-1.05 0-.58.2-1.25.97-1.25.63 0 .88.2.93.31Zm1.88 3.3h-1.53l.32-6h1.57l-.1 1.83c.24-.4.69-.83 1.4-.83 1.26 0 1.48 1.1 1.46 1.67L51.8 30h-1.5l.23-2.54c.05-.31 0-.93-.62-.93-.36 0-.66.32-.86.67l-.17 2.8Z" fill="#0D9AC9"/></svg>