<!-- by TradingView --><svg width="56" height="56" viewBox="0 0 56 56" xmlns="http://www.w3.org/2000/svg"><path fill="#F0F3FA" d="M0 0h56v56H0z"/><path d="M42 25h-5.58c-.66-1.88-3.27-6-8.43-6-6.14 0-8.44 5.06-8.82 7.39-2.06-.2-6.17-1.8-6.17-6.61 0-4.93 3.72-5.78 5.58-5.78H42v11Zm-28 6h5.58c.66 1.88 3.27 6 8.43 6 6.14 0 8.44-5.06 8.82-7.39 2.06.2 6.17 1.8 6.17 6.61 0 4.93-3.72 5.78-5.58 5.78H14V31Zm14 5a8 8 0 0 0 8-8h-4v1h2.93a7 7 0 1 1-.22-3h1.04A8 8 0 1 0 28 36Zm4.58-6a5 5 0 1 1 0-4h-1.17a3.95 3.95 0 1 0 0 4h1.17Z" fill="#0065B3"/></svg>