<!-- by TradingView --><svg width="56" height="56" viewBox="0 0 56 56" xmlns="http://www.w3.org/2000/svg"><path fill="#F0F3FA" d="M0 0h56v56H0z"/><path d="M28 45a17 17 0 0 0 17-17h-2a15 15 0 0 1-29.15 5h7.4c.18 3.1 3.04 5 6.56 5 3.51 0 7.17-1.53 7.17-5.4 0-3.86-2.95-5.91-6.94-6.3-3.19-.3-3.83-1.65-3.75-2.29-.03-1 .68-3 3.75-3 3.08 0 3.94 2.73 3.98 3.99H44.74A17 17 0 0 0 11 28h2a15 15 0 0 1 29.15-5h-7.17c-1.03-3.63-3.28-5-6.94-5-3.66 0-7.04 2.32-7.04 6s3.52 5.55 7.04 5.55c2.81 0 3.61 1.62 3.66 2.44-.02 1-.82 3-3.9 3-3.07 0-3.84-2.65-3.84-3.99H11.26A17 17 0 0 0 28 45Z" fill="#EB1E22"/></svg>