<!-- by TradingView --><svg width="56" height="56" viewBox="0 0 56 56" xmlns="http://www.w3.org/2000/svg"><path fill="#F0F3FA" d="M0 0h56v56H0z"/><path d="M36.6 34.17a6.03 6.03 0 0 1 2.37-1.83c.11-.06.19-.16.22-.3.07-.28-.03-.36-.29-.24l-.5.25a.41.41 0 0 1-.22.04.26.26 0 0 1-.18-.1c-.08-.09-.08-.2-.01-.3a2.94 2.94 0 0 1 1.9-1.27c.49-.1.8-.38.93-.82.07-.27 0-.33-.24-.19-.37.23-.75.43-1.15.62-.32.14-.47.04-.45-.31l.01-.16c.05-.35.22-.64.49-.87l1.65-1.35a.13.13 0 0 0 .04-.14l-.06-.23c-.02-.1-.07-.12-.15-.06l-.89.64c-.18.13-.34.1-.5-.06a3.99 3.99 0 0 1-.93-2.05c-.01-.04-.04-.06-.08-.06h-.16c-.16 0-.24.08-.22.24.07.8.33 1.52.79 2.15.13.19.18.4.14.63a1.6 1.6 0 0 1-.35.73.3.3 0 0 1-.31.11.3.3 0 0 1-.24-.23l-.33-1.37c-.03-.1-.1-.14-.2-.1l-.16.07c-.14.06-.2.17-.17.33.14.71.42 1.42.85 2.12.1.16.13.33.08.51a.67.67 0 0 1-.3.43c-.36.22-.59.2-.68-.08-.16-.5-.33-.5-.5 0a.23.23 0 0 0 .02.2c.6 1.18.38 2.16-.68 2.92.08.1 0 .17-.22.2-.17-.15-.2-.22-.11-.2a2.9 2.9 0 0 0-.15-1.72.65.65 0 0 1 .02-.5c.26-.61.4-1.32.4-2.12 0-.06-.02-.1-.08-.1l-.24-.04a.16.16 0 0 0-.15.05.16.16 0 0 0-.06.14c.06.69-.12 1.14-.55 1.37a.45.45 0 0 1-.5-.04l-.98-.7a.87.87 0 0 1-.35-.54.92.92 0 0 0-.48-.65c-.24-.13-.32-.07-.25.2l.49 1.76c.03.12 0 .22-.1.3-.1.07-.21.08-.32.02-.8-.47-1.23-1.06-1.28-1.79a6.32 6.32 0 0 0-.37-1.66 26.84 26.84 0 0 0-.8-1.96c-.07-.17-.19-.2-.35-.13l-.12.06c-.02.01-.03.03-.02.05.5 1.08.88 2.2 1.17 3.37.05.18 0 .31-.17.4a.4.4 0 0 1-.3.02l-1.7-1.65a.65.65 0 0 1-.2-.37 12.7 12.7 0 0 0-1.8-4.79c-.08-.1-.17-.13-.28-.06l-.12.08c-.02.01-.02.02-.01.04a15.75 15.75 0 0 1 1.68 3.93c.15.58-.01.68-.48.31l-1.58-1.23a.57.57 0 0 1-.23-.41c-.24-2.17-1-4.15-2.28-5.96-.02-.02-.04-.03-.06 0l-.11.07c-.1.07-.12.15-.05.25 1.02 1.52 1.7 3.2 2.02 5.07a.2.2 0 0 1-.1.23.2.2 0 0 1-.24 0l-2.06-1.35a1.33 1.33 0 0 1-.6-.93 14.12 14.12 0 0 0-2.13-5.36c-.06-.1-.14-.11-.24-.05l-.11.07c-.05.03-.05.06-.03.1a15.2 15.2 0 0 1 1.95 4.42c.12.42.12.8.02 1.12-.12.38-.37.63-.76.78a6.6 6.6 0 0 1-4.67 0c-.05-.01-.09 0-.12.05l-.09.12a.15.15 0 0 0-.02.13c.02.05.05.08.1.1 2.08.76 4 .6 5.77-.44a.36.36 0 0 1 .4-.01l2.17 1.26c.68.4.63.67-.13.81l-.7.14c-.95.2-1.66.3-2.13.33-.78.04-1.5-.05-2.16-.3-.07-.02-.12 0-.16.08l-.05.15c-.03.07 0 .11.06.13.82.33 1.84.43 3.08.29.81-.1 1.84-.31 3.1-.66.19-.05.37-.01.52.11.6.48 1.21.93 1.85 1.33.46.3.44.56-.04.8-.55.28-1.14.47-1.78.57-.39.07-.97.11-1.76.14-.58.02-1.02.05-1.33.08-.1 0-.15.06-.17.15-.02.1.02.15.12.16 2.26.24 4.1-.1 5.5-.99.16-.1.32-.1.47.02l1.47 1.11c.07.06.1.13.08.22 0 .05-.02.1-.03.14-1.58.5-3.18.66-4.81.52-.07 0-.1.02-.1.08l-.01.15c0 .13.05.2.19.22 1.82.16 3.52-.03 5.08-.57a.5.5 0 0 1 .54.1l1.16 1.08c.32.3.26.44-.17.45l-1.9.04c-.16 0-.23.09-.2.26.02.12.1.19.21.2.85.11 1.6.08 2.28-.1.37-.1.7-.03 1 .22l1.91 1.62c.1.18.12.4.06.68a6.8 6.8 0 0 1-1.34 1.73c-.2.2-.41.32-.64.38a3.2 3.2 0 0 1-.68.05h-.39c-.22.02-.28-.08-.17-.28.55-1 1.46-1.5 2.73-1.5.09 0 .14-.05.14-.14v-.28c0-.1-.06-.15-.16-.13l-1.4.26a.42.42 0 0 1-.44-.16c-.3-.35-.65-.68-1.04-.99a.69.69 0 0 0-.65-.13c-.28.09-.3.2-.04.36l.8.47c.14.09.23.21.27.37a.6.6 0 0 1-.06.47c-.27.45-.46.93-.57 1.45a.38.38 0 0 1-.22.28l-1.1.52c-.04.02-.05.04-.04.09l.05.16c.03.1.1.13.19.1l1.98-.5c.1-.04.18 0 .23.1.05.08.04.17-.03.24l-.56.57c-.2.2-.44.29-.71.28-1.28-.01-2.56.21-3.83.69-.13.05-.18.15-.13.28l.04.14c.05.14.14.18.27.14.9-.34 1.88-.57 2.92-.69.3-.03.54.06.73.28.2.21.27.46.22.75l-.2 1.08c-.04.28.06.36.32.25a.36.36 0 0 0 .19-.16c.4-.72.46-1.48.16-2.3-.07-.19-.02-.34.13-.46.25-.18.46-.4.63-.66.32-.48.52-.44.61.13.04.24.02.47-.06.7-.05.14 0 .21.14.22l.16.02c.02 0 .03-.01.04-.03.13-.55.18-1.08.13-1.6a.61.61 0 0 1 .16-.5l1.32-1.4c.27 0 .4.15.39.49l-.1 1.44a.54.54 0 0 1-.23.4c-.1.08-.19.08-.28 0-.22-.15-.35-.1-.38.17a6.47 6.47 0 0 1-1.3 3.16c-.08.1-.19.16-.32.16h-.36c-.2-.01-.36.08-.45.26a6.5 6.5 0 0 1-1.5 1.81.48.48 0 0 1-.48.1l-.29-.08a.38.38 0 0 0-.43.13c-.5.56-1.09.9-1.78.98a.62.62 0 0 1-.52-.15.48.48 0 0 0-.58-.05c-.65.34-1.23.76-1.74 1.26-.28.26-.38.2-.3-.18.12-.58.21-1.17.27-1.75.03-.31.13-.64.29-1a12 12 0 0 1 .51-.93c.28-.47.48-.82.58-1.07.36-.85.2-.97-.48-.34-.4.36-.88.66-1.47.9-.73.3-1.28.32-1.67.1a.55.55 0 0 0-.45-.07c-.67.2-1.42.25-2.25.18-.2-.02-.27-.12-.2-.32.03-.08.07-.2.1-.34.09-.3.21-.53.37-.69.84-.8 1.5-1.73 2-2.82.3-.34.75-.52 1.36-.54.21 0 .24-.08.08-.22-.15-.14-.36-.16-.65-.05-.36.13-.72.26-1.1.37-.87-.8-2.28-1.44-4.23-1.9-.42-.1-.44-.04-.08.18.55.33 1.3.6 2.22.79.24.05.44.15.62.31l1.08 1c.13.1.16.24.08.4-.4.83-.92 1.54-1.59 2.13a.7.7 0 0 0-.23.39c-.07.36-.32.58-.75.64-.68.1-1.22.1-1.62-.02-.84-.23-.86-.52-.06-.87a4.3 4.3 0 0 0 2.23-2.6c.51.1.85.06 1.03-.1.13-.14.1-.2-.08-.17l-1.03.08-3.16-.94c-.12-.04-.18 0-.17.14v.2c.01.1.06.14.15.15.85.06 1.63.3 2.32.72.32.2.36.44.14.73-.46.6-1.01 1.1-1.66 1.52-.42.27-.85.28-1.28.03a6.2 6.2 0 0 0-1.8-.67c-.22-.05-.25-.15-.09-.32.3-.3.58-.66.83-1.1.3-.55.41-.98.32-1.3a1.34 1.34 0 0 1 .39-1.42 8.2 8.2 0 0 0 1.53-1.96c.35-.64.95-1.18 1.8-1.62.7-.36 1.48-.62 2.35-.78.05 0 .08-.03.08-.08l.03-.18c.03-.2-.06-.31-.27-.32a11.18 11.18 0 0 1-3.9-.74.76.76 0 0 1-.42-.4c-.13-.26-.3-.47-.51-.61a2.65 2.65 0 0 0-.6-.27 1.88 1.88 0 0 1-.9-.56c-.14-.18-.16-.38-.05-.6a.42.42 0 0 0-.04-.48 15.41 15.41 0 0 1-1.92-3.34c-.08-.2-.04-.38.13-.52.23-.17.25-.37.06-.59-.41-.47-.74-1-.99-1.57a.68.68 0 0 1 .04-.65c.38-.63.46-1.3.26-2a.23.23 0 0 1 .04-.21c.06-.07.13-.1.21-.1.4.03.79-.02 1.17-.15.24-.08.56-.23.98-.46.5-.26.88-.44 1.16-.52.47-.13.96-.13 1.48-.02l.11.01c.45.02.7-.1.73-.32.03-.21.15-.3.37-.27.39.07.77-.02 1.14-.26.17-.12.34-.1.5.04l1.3 1.2c.17.15.34.15.5 0l.28-.24a.43.43 0 0 1 .5-.07 9.85 9.85 0 0 1 3.31 2.63c.3.36.65.51 1.07.47.17-.01.23-.1.2-.27a4.19 4.19 0 0 1 .7-3.5c.1-.13.16-.29.17-.46.02-.43.05-.87.1-1.33.06-.58.36-.88.89-.9.16 0 .28-.07.36-.22l.9-1.7c.1-.18.21-.2.36-.06.76.7 1.44 1.44 2.05 2.23.1.13.23.2.4.18l.36-.04c.17-.01.29.06.36.22.16.38.26.8.28 1.25.02.22.1.24.24.08.05-.05.11-.08.18-.1.3-.05.51.05.65.32a10.36 10.36 0 0 1 1.16 3.93c.01.2.11.33.3.4l.13.06c.2.08.3.23.27.46l-.44 3.37c0 .02 0 .03.02.04l.15.03a.3.3 0 0 0 .37-.22c.24-.96.77-1.82 1.6-2.57.1-.1.2-.09.28.02.07.08.15.15.24.2.08.04.17.05.26.03.1-.02.17-.08.22-.16.3-.47.7-.78 1.19-.94.2-.07.33 0 .39.21.18.72.38 1.39.59 2.02.19.57-.02.92-.64 1.05a.39.39 0 0 1-.4-.16.97.97 0 0 1-.2-.46.45.45 0 0 0-.28-.38.37.37 0 0 0-.16-.04.3.3 0 0 0-.3.2.31.31 0 0 0 .06.37c.52.56.6 1.14.2 1.74-.14.22-.1.26.12.1a3 3 0 0 0 .82-.84c.09-.13.2-.2.37-.18l1 .07c.24.02.31.14.25.35a9.77 9.77 0 0 1-.96 2.19c-.14.22-.2.44-.18.67.01.26.13.45.34.58.14.08.16.2.06.32-.4.55-.7 1.15-.88 1.8-.06.23 0 .41.18.56.07.06.11.13.12.23.01.1-.01.17-.07.25a13.12 13.12 0 0 1-4.56 3.67.48.48 0 0 1-.22.06c-.16 0-.23-.03-.2-.1Z" fill="#1E1A1B"/><path d="M31.7 15.33c.35-.4.61-.88.79-1.44.01-.05.05-.07.1-.07h.17c.17 0 .22.07.16.23a5.66 5.66 0 0 1-1.13 1.8.62.62 0 0 0-.17.5l.08.7c.03.33-.03.35-.2.07a1.8 1.8 0 0 1-.25-.84.52.52 0 0 0-.24-.42c-.95-.63-1.44-1.38-1.48-2.24-.03-.5.04-.5.2-.04.3.87.77 1.49 1.42 1.84.2.12.39.09.55-.1Z" fill="#F0F3FA"/><path d="M32.42 17.41c.3-.62.6-1.21.93-1.76.2-.33.26-.31.2.07-.1.67-.4 1.3-.87 1.88-.3.36-.47.71-.53 1.07-.08.55.04 1.1.37 1.63.02.02.01.04 0 .05l-.14.05c-.12.06-.2.02-.26-.1-.16-.38-.26-.8-.3-1.26a.71.71 0 0 0-.3-.56 8.6 8.6 0 0 1-2.31-2.59c-.04-.06-.03-.12.01-.18l.1-.12c.03-.02.05-.02.07 0l1.56 2c.2.25.47.36.79.32.32-.04.54-.2.68-.5ZM16.52 19.95a8.3 8.3 0 0 0-1.26-2.38c-.06-.07-.05-.14.03-.2l.15-.1c.1-.08.18-.06.24.05l1.6 3.18c.1.2.04.3-.2.3-.36 0-.71.05-1.07.18-.99.34-1.95.28-2.9-.18-.04-.02-.06-.06-.04-.1l.05-.13c.04-.11.12-.14.23-.1 1.06.46 2.07.43 3-.09.19-.1.24-.24.17-.43Z" fill="#F0F3FA"/><path d="M19.15 22.13a6.84 6.84 0 0 0-.61-2.38 18.28 18.28 0 0 0-1.28-2.18c-.03-.04-.02-.09.03-.12l.12-.08c.06-.04.1-.03.15.02a10.02 10.02 0 0 1 1.93 3.85c.18.85.67 1.43 1.48 1.74.06.02.08.07.05.13-.03.07-.08.09-.14.05a6 6 0 0 0-.88-.43.67.67 0 0 0-.4-.02c-1.75.43-3.55.41-5.4-.06-.05 0-.07-.04-.05-.1l.03-.17c.03-.1.1-.15.2-.12 1.39.4 2.9.45 4.56.14.15-.03.22-.12.2-.27ZM32.56 23.42c.28.09.37-.01.28-.29l-.4-1.22a.86.86 0 0 0-.43-.5 8.87 8.87 0 0 1-3.2-2.82c-.02-.04-.02-.08.02-.1l.11-.08c.09-.06.16-.05.23.03a11.2 11.2 0 0 0 2.48 2.32c.56.4 1.04.32 1.44-.2a17.76 17.76 0 0 0 1.9-3.14.08.08 0 0 1 .08-.05c.03 0 .06 0 .08.03l.13.16a.1.1 0 0 1 .01.1 12.55 12.55 0 0 1-2.31 3.61.8.8 0 0 0-.17.92c.1.25.14.51.14.78 0 .53.18.62.57.26.9-.85 1.67-1.83 2.31-2.95.05-.08.1-.1.18-.05l.13.08c.07.04.08.1.04.17a14.19 14.19 0 0 1-2.6 3.28.41.41 0 0 0-.13.42c.08.33.11.67.1 1 0 .07-.03.1-.1.1-.06 0-.1-.03-.1-.1 0-.4-.12-.77-.35-1.1a.62.62 0 0 0-.38-.26 7.3 7.3 0 0 1-4.07-2.73c-.04-.05-.03-.1.01-.13l.11-.08c.07-.06.13-.05.19.01a8.03 8.03 0 0 0 3.7 2.53ZM14.37 18.83c.14.05.25.14.34.25.12.14.09.18-.09.12a4.26 4.26 0 0 1-1.16-.63c-.36-.28-.32-.37.12-.26.14.04.32.15.53.35.08.08.17.13.26.17Z" fill="#F0F3FA"/><path d="M33.43 26.09a5.65 5.65 0 0 1-3.33-1.94c-.03-.03-.03-.06-.02-.1l.07-.18c.03-.11.09-.12.17-.04 1 1.12 2.08 1.7 3.26 1.76.25.01.45-.07.62-.25.8-.85 1.4-1.76 1.8-2.73.05-.14.14-.16.25-.05l.1.11c.02.01.02.02.02.04a8.9 8.9 0 0 1-2.14 3.17c-.13.13-.2.29-.2.48-.02.32.03.62.16.92.01.04 0 .06-.05.06l-.15.01c-.2-.01-.23-.12-.12-.34.1-.19.11-.38.01-.58a.6.6 0 0 0-.45-.34ZM41.3 24.95c.09-.1.2-.18.31-.24.2-.1.27-.04.21.18a.92.92 0 0 1-.41.56c-.54.34-1.01.73-1.42 1.17-.25.28-.29.25-.13-.09l.1-.2a.48.48 0 0 0 0-.47l-.15-.28c-.3-.54-.5-.96-.61-1.26-.2-.52-.23-.93-.1-1.25.08-.23.18-.24.29-.01.2.46.36.95.47 1.48.08.36.28.58.62.67.34.1.61.01.83-.26Z" fill="#F0F3FA"/><path d="M33.8 28.54c-.44-.1-.81-.3-1.13-.58-.17-.15-.14-.23.09-.25.22-.01.42.06.6.2.14.12.3.17.48.17.7-.01 1.11-.46 1.22-1.33.04-.3.12-.31.26-.05.2.38.14.77-.2 1.16-.22.27-.35.6-.38.97-.01.22.02.56.1 1.02l.1.65c.02.29-.04.3-.17.04a3.22 3.22 0 0 1-.23-.8 2.4 2.4 0 0 0-.35-.93.66.66 0 0 0-.4-.27Z" fill="#F0F3FA"/><path d="M35.8 34.04a.99.99 0 0 1-.28.05.34.34 0 0 1-.25-.1 34.9 34.9 0 0 1-1.65-1.6.61.61 0 0 1-.18-.4l-.06-.84c-.02-.25.06-.29.25-.11.4.4.86.71 1.34.95.18.08.29.21.34.4l.5 1.65Z" fill="#1E1A1B"/><path d="M28.02 36.36v-.29c.6-.09 1.07-.13 1.4-.14 1 0 1.1-.31.29-.91-.89-.66-1.9-1.29-3.03-1.9-.13-.06-.14-.15-.04-.25l.12-.12a.09.09 0 0 1 .1-.02c1.56.7 2.93 1.6 4.1 2.68.13.13.3.18.47.14l.27-.04c.37-.02.4.07.09.26-.24.15-.5.26-.76.32a.62.62 0 0 0-.41.27c-.4.57-.86 1.1-1.4 1.61a.26.26 0 0 1-.27.07.22.22 0 0 1-.14-.14.21.21 0 0 1 .04-.2c.2-.28.42-.54.65-.79.6-.65.47-.86-.38-.62-.16.05-.52.07-1.1.07Z" fill="#F0F3FA"/><path d="m28.01 36.07.01.3c-.6 1.26-1.4 2.4-2.4 3.4-.05.05-.1.05-.17 0l-.14-.12c-.03-.02-.04-.05 0-.08a15.3 15.3 0 0 0 1.83-2.42c.24-.44.26-.8.07-1.11a3.1 3.1 0 0 0-.91-.73l-.19-.12c-1.1-.71-2.3-1.23-3.57-1.55-.04 0-.06-.03-.05-.08l.05-.14c.03-.13.12-.18.25-.14A13.5 13.5 0 0 1 28 36.07Z" fill="#F0F3FA"/><path d="M24.84 37.24a7.86 7.86 0 0 1-2.07 2.9c-.07.05-.14.05-.2-.01l-.1-.1c-.04-.03-.04-.06 0-.1a8.9 8.9 0 0 0 1.96-2.69c.08-.19.1-.38.05-.58a.87.87 0 0 0-.32-.5 11.22 11.22 0 0 0-4.67-2.07c-.05 0-.08-.03-.07-.08l.01-.18c0-.05.03-.08.08-.07a8.91 8.91 0 0 1 5.29 2.53c.12.12.26.2.42.23.44.09.9.04 1.37-.14.03-.01.05 0 .06.02l.04.13c.01.05 0 .07-.05.07-.56.01-1.05.12-1.48.3a.6.6 0 0 0-.32.34ZM16.31 38.48c.72-.15 1.3-.35 1.28-.43-.02-.08-.62-.02-1.34.13-.72.16-1.3.35-1.28.43.02.08.62.02 1.34-.13ZM30.22 41.03l.3 1.75c0 .13-.04.2-.17.2h-.21c-.15 0-.2-.07-.17-.21.08-.37.05-.72-.11-1.06a.5.5 0 0 0-.43-.3 3.35 3.35 0 0 0-2.22.62c-.08.05-.14.04-.2-.03l-.07-.1c-.02-.02-.01-.04 0-.05a4.43 4.43 0 0 1 2.84-1.18c.25-.01.4.1.44.36Z" fill="#F0F3FA"/><path d="M27.92 43.1c.52-.43.9-.82.86-.87-.04-.06-.5.25-1.01.67-.52.43-.9.82-.86.88.04.05.5-.25 1.01-.68Z" fill="#F0F3FA"/></svg>