<!-- by TradingView --><svg width="56" height="56" viewBox="0 0 56 56" xmlns="http://www.w3.org/2000/svg"><path fill="url(#accuo3n1a)" d="M0 0h56v56H0z"/><path d="M19.37 23.55c.03.23.13.4.3.52l12.81 8.22c.03.01.03.03 0 .05a90.23 90.23 0 0 1-4.4 2.94.17.17 0 0 1-.18 0c-4.37-2.8-8.57-5.52-12.62-8.14a5.37 5.37 0 0 1-1.81-1.82 3.37 3.37 0 0 1-.46-2c.06-.67.31-1.32.76-1.95a6.27 6.27 0 0 1 1.79-1.65c3.85-2.44 7.73-4.94 11.65-7.5.24-.14.49-.22.77-.22.27 0 .53.07.76.22 4.04 2.59 8.12 5.22 12.23 7.9.7.44 1.2.97 1.55 1.58.33.58.49 1.19.47 1.84-.02.63-.2 1.24-.55 1.85-.35.6-.84 1.15-1.47 1.63-.17.13-.34.14-.52.02l-3.52-2.28a.9.9 0 0 1-.4-.57l-.22-.87a.8.8 0 0 0-.34-.5l-7.74-5a.47.47 0 0 0-.55 0l-8.13 5.34c-.14.09-.2.22-.18.39Z" fill="#E00244"/><path d="M36.3 32.85a.6.6 0 0 0 .3-.55c0-.25-.1-.43-.3-.56l-12.35-7.93a.36.36 0 0 1-.17-.32c0-.14.05-.25.16-.32l3.58-2.35c.29-.19.58-.19.88 0 4.1 2.63 8.2 5.26 12.28 7.9.68.44 1.22.97 1.63 1.57.4.6.62 1.21.68 1.86.05.66-.07 1.29-.39 1.89a4.49 4.49 0 0 1-1.57 1.65c-3.98 2.6-8.25 5.35-12.84 8.24a.34.34 0 0 1-.4 0l-12.14-7.78c-1.5-.95-2.35-2.03-2.58-3.22-.24-1.29.3-2.59 1.62-3.9.21-.22.46-.26.74-.12 1.2.6 2.35 1.33 3.43 2.17.25.2.47.55.66 1.06.2.52.43.87.7 1.05 2.44 1.62 4.93 3.23 7.46 4.83.22.14.45.13.67 0l7.95-5.17Z" fill="#2D257B"/><defs><linearGradient id="accuo3n1a" x1="10.42" y1="9.71" x2="68.15" y2="76.02" gradientUnits="userSpaceOnUse"><stop stop-color="#1A1E21"/><stop offset="1" stop-color="#06060A"/></linearGradient></defs></svg>