<!-- by TradingView --><svg width="56" height="56" viewBox="0 0 56 56" xmlns="http://www.w3.org/2000/svg"><path fill="#F0F3FA" d="M0 0h56v56H0z"/><path fill-rule="evenodd" d="M30 10c-1.38 1.65-3.77 5.4-3.77 7.16 0 1.76.49 4.26.73 5.29-.96-.11-3.15-.04-4.19 1.08l-.14.15C21.25 25.17 18.2 28.45 17 29h4.92c1.25-.22 4.18-1.33 5.9-5.47a5.86 5.86 0 0 0 3.43 3.6c.45.2 1.11.38 1.85.58 1.7.46 3.82 1.03 4.73 2.29-.45-2.87-2.96-8.05-6.97-8.05-.53 0-1.87.15-2.48.23.66-.92 1.62-3.2 1.62-5.02V10Zm-.5 2c-.85 1.6-2.13 5.75-1.86 10.29-2.4 1-6.35 3.72-7.42 4.93-.1.2-.22.49-.22.66l.01.1c.03.02.08.02.21.02.73-.78 3.3-2.84 7.42-4.99l.35.41c.86 1.02 2.34 2.78 7.01 3.58-1.6-.78-5.5-2.7-6.72-4.71-.2-1.76.61-7.54 1.22-10.29Z" fill="#40A32E"/><path d="m41.2 36.65 1.8.54c-.55 1.9-1.84 2.81-3.82 2.81-2.54 0-4.18-1.96-4.18-4.42C35 33 36.63 31 39.3 31c1.73 0 3.17.87 3.67 2.55l-1.83.41a1.92 1.92 0 0 0-1.94-1.46c-1.68 0-2.2 1.47-2.2 2.95 0 1.47.44 3.05 2.17 3.05.98 0 1.72-.57 2.03-1.85ZM28 40v-9h2.54c1.7 0 3.46.3 3.46 2.77 0 2.37-1.7 2.83-3.39 2.83H30V40h-2Zm2-7.48V35h.45c.79 0 1.55.02 1.55-1.2 0-1.3-.85-1.28-1.65-1.28H30ZM21 40v-9h6v1.5h-4v1.98h3.55V36H23v2.5h4V40h-6ZM13 37.02l1.7-.17c.2 1.15.82 1.67 1.87 1.67.73 0 1.45-.32 1.45-1.2 0-.98-1.28-1.11-1.95-1.28-1.35-.34-3.07-1.02-3.07-2.61 0-1.71 1.97-2.43 3.45-2.43 1.68 0 3.24.8 3.3 2.63l-1.73.08c-.15-.87-.73-1.26-1.58-1.26-.54 0-1.44.16-1.44.86 0 .8 1.28.98 1.83 1.1 1.6.39 3.17 1.01 3.17 2.9 0 1.92-1.78 2.69-3.45 2.69-2.18 0-3.32-1.04-3.55-2.98Z" fill="#7A2336"/></svg>