<!-- by TradingView --><svg width="56" height="56" viewBox="0 0 56 56" xmlns="http://www.w3.org/2000/svg"><path fill="#F0F3FA" d="M0 0h56v56H0z"/><path d="M7.53 25c.7 0 1.16.34 1.22 1h1.13c-.02-1.31-1.04-2-2.33-2-1.32 0-2.27.9-2.27 2.24 0 1.47 1.12 1.82 2.3 2.18l.07.02C9.03 28.87 9.2 31 7.5 31c-.73 0-1.3-.66-1.35-1.41H5C5.05 31.05 6.05 32 7.51 32c2.95 0 3.23-3.8.56-4.54l-.25-.07c-.65-.18-1.46-.4-1.46-1.18 0-.66.56-1.21 1.17-1.21ZM11 32v-8h4v1h-3v2.5h3v1h-3V31h3v1h-4Zm7.97-1.7L17.29 24H16l2.28 8h1.44L22 24h-1.29l-1.68 6.3h-.06ZM23 32v-8h3.98v1H24v2.5h2.77v1H24V31h3v1h-4Zm10 0v-8h-1v5.45h-.15L28.99 24H28v8h1v-5.45h.15L32.02 32H33Zm1 0v-8h1v3.5h3V24h1v8h-1v-3.5h-3V32h-1Zm7 0v-8h-1v8h1Zm1 0v-8h1v7h3v1h-4Zm5 0v-8h1v7h3v1h-4Z"/></svg>