<!-- by TradingView --><svg width="56" height="56" viewBox="0 0 56 56" xmlns="http://www.w3.org/2000/svg"><path fill="#F0F3FA" d="M0 0h56v56H0z"/><path d="M36.73 15.07c-.04 0-.04.03 0 .06.03.03.06.05.1.05l.34.02-.59.02a.35.35 0 0 1-.34-.21c-.1-.25-.2-.44-.29-.58a1.2 1.2 0 0 0-.5-.42c-.26-.12-.49-.3-.7-.52-.24-.27-.35-.54-.31-.8.12.02.15-.03.1-.13a.1.1 0 0 0-.07-.06c-.03 0-.05 0-.08.03-.24.2-.56.36-.93.46l-1.32-.22c-.43.03-.78.13-1.07.3-.06.03-.07.08-.03.14.03.05.08.09.16.11 1.9.4 3.67 1.16 5.27 2.29l1.14.91a9.82 9.82 0 0 1 2.2 2.4l.26.3c.16.15.26.29.3.4.08.18.17.35.27.52a12.66 12.66 0 0 1 1.77 4.51c.03.2.14.3.34.28.07 0 .12-.04.14-.1.11-.27.28-.5.52-.7.03.08.03.17 0 .27a.4.4 0 0 1-.16.22.23.23 0 0 0-.1.12.17.17 0 0 0 .04.16c.05.07.13.15.25.25.15.14.26.25.31.36.15.29.2.6.15.95a2.17 2.17 0 0 0-1.17-1.28.1.1 0 0 0-.1 0 .09.09 0 0 0-.04.09c.03.6.1 1.24.18 1.89.03.23.01.46-.06.67a.47.47 0 0 0 .03.4c.04.06.05.13.05.2l-.06 1.25c-.12.38-.18.77-.16 1.15.03.07.02.15-.03.23a.8.8 0 0 0-.14.35c-.14.25-.2.53-.2.83a17.06 17.06 0 0 1-2.68 5.15 14.63 14.63 0 0 1-8.29 5.13c-.35.08-1.03.2-2.04.37-.45-.03-.9-.04-1.36-.04-.54.01-1 0-1.35-.05-.52-.07-1.04-.14-1.56-.23a14.17 14.17 0 0 1-5-2.03c-1.52-1.01-2.88-2.34-4.08-3.99a14.62 14.62 0 0 1-2.12-4.5c-.07-.3-.14-.53-.2-.69l-.07-.2-.23-1.61c.24-.24.36-.16.36.24 0 .13.01.26.03.38.3 1.81.9 3.54 1.78 5.16a19.11 19.11 0 0 0 2.31 3.08c.93.95 2.21 1.85 3.84 2.7a13.1 13.1 0 0 0 5.97 1.51c.07 0 .11-.03.11-.1v-.08c0-.06-.04-.1-.1-.1a14.07 14.07 0 0 1-9.13-3.66.91.91 0 0 1-.2-.26.18.18 0 0 0-.17-.1c-.18 0-.28-.09-.31-.25a.44.44 0 0 0-.14-.24c-.36-.34-.68-.7-.98-1.11a17.12 17.12 0 0 1-2.49-5.1c-.1-.31-.15-.62-.18-.92a8.87 8.87 0 0 0-.15-.99 8.77 8.77 0 0 1-.15-1.01c0-.06.01-.1.06-.14.04-.04.1-.06.15-.05.15.03.29.1.41.18.1.07.11.05.07-.04a1.05 1.05 0 0 0-.24-.34v-.01c.03 0 .05-.02.06-.04.02-.05.05-.06.1-.04.29.14.57.4.83.8l.16.68c.05.19.07.42.07.7 0 .65.18 1.18.55 1.6.36.38.59.69.69.91l.03.23a2 2 0 0 0 .4 1.79c.37.46.65.83.85 1.12.1.15.2.33.24.54.04.12.07.31.1.57l.05.4c-.17.1-.23.22-.16.35.03.06.08.08.15.06.77-.26 1.49-.1 2.14.5.46.4.98.74 1.55.98.07.03.17.04.3.01.1-.02.19-.03.26-.01.58.13 1.05.4 1.41.83.1.12.3.25.6.38.29.12.53.19.72.18 1-.01 1.82.32 2.44 1 .01.13.04.21.08.26.05.05.1.05.13-.02a2.23 2.23 0 0 1 1.89-1.23 4.26 4.26 0 0 0 1.8-.42c.4.02.32.2-.26.53-.05.03-.06.06-.03.1.04.04.08.05.13.03a2.4 2.4 0 0 0 1.2-1.18l1.2-.5c.26.1.43.04.53-.14.15-.05.29-.12.4-.21.47-.34.87-.66 1.2-.95l1.61-.27.14.16c.04.06.09.06.14.02a.17.17 0 0 0 .05-.07c.13-.04.23-.1.3-.17.04-.04.06-.1.05-.16-.08-.52.03-1 .34-1.44.08-.12.21-.29.4-.5.31-.37.52-.67.62-.9a3 3 0 0 0 .15-1.96c-.02-.06 0-.1.06-.14l.28-.11a2 2 0 0 0 .47-.24c.14-.1.25-.27.33-.48.2-.55.32-1.1.35-1.65.02-.37.08-.67.18-.9.27-.59.59-.76.95-.53a15.08 15.08 0 0 1-3.68 8.84l-.17.16a.9.9 0 0 0-.22.22c-.07.11-.15.21-.25.3a14.6 14.6 0 0 1-9.55 4.1c-.07 0-.12-.03-.17-.1a2.8 2.8 0 0 1 1.26-.91c.04-.02.06-.05.05-.1l-.02-.05c0-.03-.03-.04-.06-.03-.65.12-1.1.46-1.37 1.01-.13.13-.18.24-.13.34.03.06.08.09.15.09a14.5 14.5 0 0 0 10.14-4.27 14.9 14.9 0 0 0 3.96-7.33c.16-.76.3-1.68.4-2.76 0-.07-.06-.1-.2-.1.13-.05.2-.11.23-.2.02-.06 0-.1-.06-.14a.42.42 0 0 0-.18-.07c.07.01.12 0 .16-.02.03-.02.05-.06.04-.11a14.28 14.28 0 0 0-.62-3.73c-.07-.3-.16-.6-.26-.87a16.39 16.39 0 0 0-2.76-4.78c-.36-.43-.8-.88-1.33-1.34-.56-.5-1.05-.9-1.46-1.2a3.2 3.2 0 0 0-.94-.44c-.13-.05-.15-.02-.04.06.05.04.14.1.26.16.13.08.23.14.28.19.43.35.9.7 1.39 1.06.13.09.37.31.71.66 0 .07-.02.13-.1.18l-.5.26a6.01 6.01 0 0 0-.5-.22 3.1 3.1 0 0 1-.6-.32 10.61 10.61 0 0 1-.91-.68 3 3 0 0 0-1.1-.52 2.22 2.22 0 0 0-1.16.06.25.25 0 0 1-.18-.01.24.24 0 0 1-.12-.12c-.1-.22-.26-.41-.46-.58a4.9 4.9 0 0 0-.7-.45c-.17-.1-.36-.15-.57-.17-.5-.05-1.01-.13-1.54-.26-.55-.12-.86-.38-.93-.77-.03-.11-.1-.16-.2-.14-.22.04-.37-.02-.47-.2a.12.12 0 0 0-.1-.06.12.12 0 0 0-.11.05c-.05.07-.04.1.01.1l-.22.29c-.12.17-.23.3-.3.38-.13.12-.29.23-.47.32-.27.13-.56.2-.86.23-.67.05-1.2.18-1.61.38-.5.25-.87.64-1.1 1.16a.2.2 0 0 1-.12.11.2.2 0 0 1-.17-.02c-.29-.17-.52-.15-.72.07a.23.23 0 0 1-.16.08c-.1 0-.16.03-.18.09-.63.32-1.19.7-1.65 1.13-.2.19-.7.37-1.51.55a.17.17 0 0 1-.18-.06.65.65 0 0 0-.14-.12c-.22-.14-.3-.09-.22.15.13.48.12.93-.05 1.35a2.9 2.9 0 0 1-.29.54l-.37.5c-.3.4-.51.7-.63.94-.3.56-.27 1.14.05 1.75-.06-.06-.11.01-.15.22a2.33 2.33 0 0 0-1.25 1.88c-.07.68-.11 1.05-.13 1.1-.17.55-.47 1.01-.9 1.4-.16.05-.26.13-.3.24a.16.16 0 0 1-.11.11l-.42.13c-.09.02-.15 0-.18-.09a.55.55 0 0 1-.02-.24l.08-.33a.27.27 0 0 0-.02-.18c-.07-.15-.1-.32-.08-.5.05-.91.15-1.72.28-2.44.25-1.14.6-2.18 1.04-3.12 2.11-4.46 5.68-7.24 10.7-8.34l.06.03c1.76-.27 3.57-.28 5.4-.03.09.01.15-.02.2-.1.02-.03 0-.06-.03-.09a.62.62 0 0 1-.3-.33.37.37 0 0 0-.12-.17c-.4-.33-.9-.49-1.46-.46a.3.3 0 0 1-.18-.05l-.63-.44a.7.7 0 0 0-.1-.24.13.13 0 0 0-.13-.06c-.06 0-.1.04-.12.08-.24.51-.6.76-1.11.74a1.6 1.6 0 0 0-.93.29c-.28.18-.51.4-.7.68-.07.03-.13.01-.17-.07a.16.16 0 0 0-.14-.09c-.1 0-.23-.03-.4-.07a1.7 1.7 0 0 0-.54-.07c-.32.02-.64.06-.96.1-.36.05-.7.02-1.01-.07-.55-.55-.71-.6-.5-.15-.09.01-.14-.1-.15-.34.2-.28.41-.32.66-.13.06.04.09.1.09.16 0 .1.07.16.19.16l2.06-.06c.12 0 .22.02.32.07.27.14.48.08.62-.2.05-.09.13-.15.24-.18l.39-.13c.34-.13.61-.2.81-.22.36-.03.67-.23.92-.58.09-.13.21-.2.37-.2s.29.05.39.16c.4.44.92.68 1.58.73a.2.2 0 0 1 .17.12c.05.1.13.13.25.1.09-.02.15.01.19.09.16.33.44.44.85.34.5-.13.96-.12 1.4.01.26.08.53.1.8.03.33-.08.6-.23.84-.45a.2.2 0 0 1 .21-.04c.08.03.13.09.13.17.04.6.29 1.03.75 1.31.36.22.59.39.68.5.23.28.42.61.58 1Z" fill="#FBEC06"/><path d="m28.2 11.58-.85.66a.26.26 0 0 1-.18.06 2.3 2.3 0 0 0-1.04.18c-.14.06-.29.17-.43.35a4.6 4.6 0 0 1-.38.42 2.45 2.45 0 0 1-.06-.03c-.05.02-.1.01-.13-.02-.05-.04-.05-.09-.02-.13.19-.28.42-.5.7-.68.32-.2.63-.3.93-.3.5.03.87-.22 1.11-.73a.13.13 0 0 1 .12-.08c.05 0 .1.02.13.06.04.07.08.15.1.24Z" fill="#952505"/><path d="m28.2 11.58.63.44a.3.3 0 0 0 .18.05c.56-.03 1.05.13 1.46.46.06.05.1.1.12.17.06.15.16.26.3.33.04.03.05.06.02.1-.04.07-.1.1-.19.09a19.18 19.18 0 0 0-5.4.03c.14-.14.27-.28.38-.42.14-.18.29-.3.43-.35.33-.14.67-.2 1.04-.18.06 0 .13-.01.18-.06l.85-.66Z" fill="#E44C09"/><path d="M21.24 12.3c0 .25.06.36.16.35.18.32.05.66-.38 1l-.07.04c-.4.24-.68.42-.82.54-.22.2-.37.45-.46.76a.2.2 0 0 1-.14.13c-.18.07-.38.12-.59.16-.22.03-.41.1-.56.18l-1.13.7c-.12.09-.27.15-.43.2a.54.54 0 0 1-.41-.05c-.35-.18-.45-.1-.31.26.12.31.09.61-.11.88l-.67.97c-.16.24-.16.56 0 .97-.27.16-.55.3-.83.45a1.32 1.32 0 0 0-.48.54c-.21.46-.55.84-1.02 1.12-.12.07-.2.05-.26-.07a.15.15 0 0 0-.09-.08.16.16 0 0 0-.11 0l-.07.01a.1.1 0 0 0-.06.05.09.09 0 0 0 0 .08c.04.07.1.17.2.3.09.13.15.23.18.3.06.11.1.22.1.33.02.36-.03.74-.15 1.12-.07.23-.1.42-.06.57.03.15.12.32.28.51.11.13.2.28.25.45.02.07 0 .11-.05.14-.48.23-.83.6-1.04 1.09-.01-.45.19-.82.6-1.08a.2.2 0 0 0 .1-.15.59.59 0 0 0-.18-.55.34.34 0 0 1-.1-.17c-.09-.4-.1-.75-.01-1.04.1-.36.12-.66.07-.9a1.3 1.3 0 0 0-.5-.75c-.15-.13-.17-.27-.05-.42a.22.22 0 0 1 .2-.09c.32.02.6-.07.83-.25.14-.11.31-.32.51-.62.14-.2.25-.36.33-.45.14-.16.29-.27.44-.35.22-.1.44-.23.66-.35a.25.25 0 0 0 .12-.29.83.83 0 0 1 .13-.71l.31-.52.3-.52c.08-.11.12-.24.12-.38 0-.12-.06-.25-.18-.4a.72.72 0 0 1-.16-.28c-.02-.12.02-.26.12-.42.04-.06.09-.08.16-.05l.81.36c.09.04.16.03.24-.02.3-.22.6-.42.9-.6.14-.1.28-.16.42-.19.13-.02.28-.03.47-.02a.69.69 0 0 0 .7-.47c.07-.24.18-.43.34-.6.1-.1.25-.21.46-.36.29-.2.5-.37.62-.53.2-.25.32-.53.35-.82Z" fill="#E1D852"/><path d="M21.89 12.8c-.14.37-.32.67-.54.9-.1.1-.21.09-.33-.05.43-.34.56-.68.38-1-.22-.45-.06-.4.49.15ZM34.44 12.7c-.25.27-.53.43-.85.48-.06 0-.1 0-.12-.04-.03-.03-.03-.08-.01-.15.37-.1.69-.25.93-.46a.09.09 0 0 1 .08-.03.1.1 0 0 1 .07.06c.05.1.02.15-.1.14Z" fill="#952505"/><path d="M34.44 12.7c-.04.25.07.52.32.8.2.22.44.39.7.5.19.1.35.23.49.43.1.14.2.33.3.58.02.06.06.12.13.15.06.04.13.06.2.06l.6-.02c.36.16.78.4 1.24.75.31.23.69.32 1.13.25.07 0 .1.02.12.1 0 .02 0 .05-.02.09-.39.13-.73.13-1.03-.02a5.68 5.68 0 0 1-1.04-.7.23.23 0 0 0-.2-.05.5.5 0 0 1-.33-.05c-.06-.03-.09-.01-.08.06 0 .01 0 .03-.03.04-.04.02-.07 0-.08-.03-.15-.3-.28-.32-.39-.03a14.01 14.01 0 0 0-5.27-2.29c.15.03.27 0 .35-.1a.26.26 0 0 1 .12-.08c.25-.1.41-.21.47-.37l1.32.22c-.02.07-.02.12 0 .15.03.03.07.04.13.04.32-.05.6-.2.85-.48ZM25.11 13.07c-.03.04-.03.09.02.13.04.03.08.04.13.02-5.02 1.1-8.59 3.88-10.7 8.34-.44.94-.8 1.98-1.04 3.12-.2-.02-.33-.07-.38-.15-.02-.03-.02-.05.02-.06l.05-.02a.1.1 0 0 0 .08-.07c.39-1.37.88-2.65 1.47-3.83.11-.23.24-.45.37-.66a.5.5 0 0 1 .14-.14c.11-.07.13-.2.05-.36-.16-.4-.16-.73 0-.97l.67-.97c.2-.27.23-.57.1-.88-.13-.36-.03-.44.32-.26.12.07.26.08.41.04.16-.04.3-.1.43-.18.4-.25.77-.49 1.13-.7.15-.1.34-.16.56-.2.21-.03.41-.08.6-.15a.2.2 0 0 0 .13-.13c.09-.3.24-.56.46-.76a5.16 5.16 0 0 1 .9-.58c.1.13.22.15.32.05.22-.23.4-.53.54-.9.3.1.65.12 1 .07.33-.04.65-.08.97-.1.12-.02.3 0 .53.07.18.04.31.07.4.07.07 0 .12.04.15.1.04.07.1.1.17.06Z" fill="#E44C09"/><path d="M32.14 12.77c-.06.16-.22.28-.47.37a.26.26 0 0 0-.12.08c-.08.1-.2.13-.35.1a.27.27 0 0 1-.16-.1c-.04-.07-.03-.12.03-.15.29-.17.64-.27 1.07-.3Z" fill="#952505"/><path d="M37.26 17.85c.24.1.44.04.59-.19.02-.03.01-.06-.02-.07-.03-.02-.05-.02-.07 0 .08-.05.1-.1.1-.18l.96 1c-.47.21-.56.6-.28 1.2.12.23.47.67 1.06 1.3l.09.18c.12.6.19 1.21.2 1.83 0 .05.01.1.05.15.11.15.24.3.4.41a2 2 0 0 1 .6 1.04c.08.27.15.7.21 1.28l.1.7c.05.3.37.67.95 1.1-.01-.07-.03-.05-.05.04-.41-.09-.74-.37-.97-.84-.04-.07-.09-.08-.15-.06-.07.03-.1.07-.09.12-.16-.25-.24-.44-.24-.57 0-.53-.06-1.05-.19-1.54a1.64 1.64 0 0 0-.22-.49c-.06-.1-.17-.23-.32-.4a5.47 5.47 0 0 1-.32-.42.1.1 0 0 0-.09-.05.1.1 0 0 0-.09.06l-.02.05c-.05.1-.04.2.03.28.22.27.37.58.45.93.07.33.15.67.25 1 .09.28.12.55.1.84-.03.27-.03.58-.02.9.03.86.02 1.76-.02 2.7 0 .1-.03.25-.09.45-.05.17-.07.3-.08.4-.03.2-.08.41-.17.61l-.24.67c-.14.4-.25.68-.34.86-.28.55-.57 1.08-.86 1.62-.13.23-.5.71-1.13 1.46-.54.62-.98 1.06-1.3 1.34a12.56 12.56 0 0 1-6.78 2.9c-.66 0-1.3-.01-1.94-.05-1.94-.09-3.74-.63-5.4-1.6a12.2 12.2 0 0 1-3.13-2.67 15.9 15.9 0 0 1-2.16-3.45 2.66 2.66 0 0 0-.19-.7 5.44 5.44 0 0 1-.24-.66 12.65 12.65 0 0 1-.37-3.87c.08-1.07.33-2.35.75-3.86.04-.2.1-.28.15-.22.31-.68.7-1.37 1.17-2.07a12.02 12.02 0 0 1 4.8-4.26c1.43-.7 2.86-1.08 4.31-1.15l1.27-.05c.42-.01.83 0 1.22.05 1.07.13 2.04.33 2.91.6.15.05.36.15.6.3l.45.25c.28.11.53.23.75.37a13.12 13.12 0 0 1 5.07 5.6c.03.05.06.06.11.04.07-.03.1-.13.07-.29.13-.81-.1-1.5-.69-2.09a2.72 2.72 0 0 1-.86-2.28c.15-.1.2-.21.13-.34a.12.12 0 0 0-.11-.07.11.11 0 0 0-.11.06.24.24 0 0 1-.2.13 2.44 2.44 0 0 1-1.93-.62 5.67 5.67 0 0 0-.9-.67c-.36-.2-.72-.3-1.07-.29-.74.03-1.28-.16-1.64-.57a2.4 2.4 0 0 0-.7-.56 1.87 1.87 0 0 0-.85-.23 4.3 4.3 0 0 1-1.58-.3c-.35-.15-.68-.49-.98-1.01.3.17.18.04-.34-.37-.05 0-.06-.03-.01-.1a.12.12 0 0 1 .1-.05c.05 0 .09.02.11.06.1.18.25.24.46.2.12-.02.18.03.2.14.08.4.4.65.94.77.53.13 1.04.21 1.54.26a1.4 1.4 0 0 1 .65.22c.3.17.5.3.62.4.2.17.35.36.46.58.02.06.07.1.12.12.06.02.12.03.18 0 .4-.12.78-.14 1.16-.05a3 3 0 0 1 1.1.52l.37.28c.24.18.42.32.55.4.2.14.4.25.59.32a6 6 0 0 1 .5.22Z" fill="#FCD203"/><path d="M27.62 13.56c.52.41.63.54.34.37-.4.69-.94 1.1-1.62 1.23a5.9 5.9 0 0 1-.64.07c-.34.02-.6.05-.77.1-.28.06-.53.17-.75.33l-.54.57c-.45.46-1.09.6-1.93.42.02-.06.08-.09.18-.1.07 0 .12-.03.16-.07.2-.22.43-.24.72-.07a.2.2 0 0 0 .17.02.2.2 0 0 0 .13-.11c.22-.52.59-.9 1.09-1.16.4-.2.94-.33 1.6-.38.31-.03.6-.1.87-.23.18-.09.34-.2.47-.32.07-.08.18-.2.3-.38l.22-.3Z" fill="#EDD107"/><path d="M27.96 13.93c.3.52.63.86.98 1 .47.2 1 .3 1.58.31.3 0 .58.08.86.23.25.14.48.32.69.56.36.41.9.6 1.64.58.35-.02.7.08 1.07.28.24.14.54.36.9.67.56.49 1.2.7 1.93.62.09 0 .15-.05.2-.13a.11.11 0 0 1 .1-.06c.06 0 .1.02.12.07.07.13.02.24-.13.34a.86.86 0 0 1-.9.13c-.35-.12-.68-.26-1-.41-.12-.06-.17-.03-.14.1.03.1.09.2.17.25a7.97 7.97 0 0 1 1.96 2.1c.06.08.13.16.21.23a.9.9 0 0 1 .2.23l.62 1.05c.06.1.13.16.23.2a.3.3 0 0 1 .14.13.5.5 0 0 1 .06.36c.03.16 0 .26-.07.3-.05.01-.08 0-.1-.05a13.12 13.12 0 0 0-5.08-5.6 5.89 5.89 0 0 0-.75-.37c-.1-.05-.25-.13-.44-.25a2.97 2.97 0 0 0-.6-.3c-.88-.27-1.85-.47-2.92-.6-.4-.04-.8-.06-1.22-.05L27 15.9c-1.45.07-2.88.46-4.3 1.15a12.03 12.03 0 0 0-4.81 4.26c-.47.7-.86 1.39-1.17 2.07a1.78 1.78 0 0 1-.05-1.75c.12-.23.33-.54.63-.93l.37-.51A2.03 2.03 0 0 0 18 18.3c-.06-.25.01-.3.23-.16.05.03.1.07.14.12.04.05.1.07.18.06a3.8 3.8 0 0 0 1.5-.55 7 7 0 0 1 1.66-1.13c.84.18 1.48.04 1.93-.42l.54-.57c.22-.16.47-.27.75-.34.17-.04.43-.07.77-.1.29-.01.5-.03.64-.06a2.36 2.36 0 0 0 1.62-1.23Z" fill="#E44C09"/><path d="M36.73 15.07c.9-.01 1.66.28 2.26.87.07.07.16.1.26.12.1 0 .2-.01.28-.07l.28-.2c.11-.08.23-.1.35-.07.12.04.2.12.23.25.02.08 0 .15-.04.21a.95.95 0 0 0-.2.53c0 .17.05.35.17.56l.53 1.02c.11.2.15.36.12.48-.02.1 0 .2.04.28.06.09.13.15.24.17.36.1.64.33.84.7.25.44.61.85 1.08 1.21-.16.18-.38.17-.65-.03-.1-.08-.2-.19-.3-.33a5.09 5.09 0 0 1-.35-.57c-.08-.13-.24-.3-.48-.5-.02 0-.04-.02-.05-.03a.23.23 0 0 0-.1-.05l-.68-.12c-.07-.02-.1-.06-.08-.12.02-.1 0-.18-.1-.24-.08-.06-.07-.07.03-.06.06.01.12 0 .18-.02.13-.05.18-.15.15-.29-.1-.42-.3-.78-.59-1.07-.32-.32-.42-.73-.29-1.23a.14.14 0 0 0-.02-.13.14.14 0 0 0-.12-.06l-.07.1a.17.17 0 0 0 .02-.09c-.01-.07-.05-.1-.12-.09-.44.07-.82-.02-1.13-.25a6.65 6.65 0 0 0-1.25-.75l-.34-.02a.15.15 0 0 1-.1-.05c-.04-.03-.04-.05 0-.06Z" fill="#E1D852"/><path d="M42.43 27.77c-.14 0-.23-.04-.28-.13.02-.09.04-.1.05-.05.09-.21.12-.47.1-.77a15.2 15.2 0 0 0-3.48-8.4l-.96-1.01a6.8 6.8 0 0 0-.71-.66c-.5-.35-.96-.7-1.39-1.06-.05-.05-.15-.11-.28-.19-.12-.06-.2-.12-.26-.16-.1-.08-.1-.1.04-.06.4.12.7.27.94.44.41.3.9.7 1.46 1.2.53.46.97.9 1.33 1.34a16.38 16.38 0 0 1 2.76 4.78c.1.27.19.56.26.87l.23.89c.2.78.34 1.73.4 2.84 0 .05-.02.09-.05.11-.04.03-.09.03-.16.02Z" fill="#9B5507"/><path d="m39.65 16.39.07-.1c.05 0 .09.01.12.05s.03.08.02.13c-.13.5-.03.9.29 1.23.3.3.5.65.6 1.07.02.14-.03.24-.16.3a.31.31 0 0 1-.18.01c-.1-.01-.1 0-.03.06.1.06.12.14.1.24-.02.06 0 .1.08.12l.67.12c.05.01.08.03.11.05l.04.04a2.19 2.19 0 0 1 .59.66c.1.19.19.32.25.4.1.14.2.25.3.33.27.2.49.2.65.03l.51.02c.06 0 .11.03.15.07.06.06.05.1-.03.1-.15.08-.3.18-.43.3a.78.78 0 0 0-.23.45c-.1.53-.01 1.03.25 1.5.07.18.08.36.02.56-.24.2-.4.43-.52.7a.15.15 0 0 1-.14.1c-.2.02-.31-.08-.34-.28a12.66 12.66 0 0 0-1.77-4.51 3.4 3.4 0 0 1-.26-.53c-.05-.1-.15-.24-.3-.4-.13-.12-.21-.22-.26-.3a9.82 9.82 0 0 0-2.21-2.39l-1.14-.91c.1-.29.24-.28.39.03.01.04.04.05.08.03.03-.01.04-.03.03-.04 0-.07.02-.09.08-.06.11.06.22.07.34.05.07-.01.13 0 .19.05.42.33.76.57 1.04.7.3.15.64.15 1.03.02Z" fill="#FF5705"/><path d="m29.6 18.95 1.6 2.7c.07.09.08.16.01.22-.04.03-.1.05-.17.05-2.03-.02-4.05-.02-6.06.01-.1.06-.16 0-.16-.2l.1-.1 5.71-.03c.06 0 .1-.02.12-.07a.12.12 0 0 0 0-.13l-2.88-4.92c-.03.04-.03.02 0-.06.01-.05.05-.07.1-.08.06 0 .1.02.12.06l1.5 2.55Z" fill="#952505"/><path d="m27.87 16.48 2.88 4.92c.03.05.03.09 0 .13a.13.13 0 0 1-.12.07l-5.71.02 2.95-5.14Z" fill="#FF5705"/><path d="M28.99 17.25c.18.3.36.51.39.5.03-.02-.1-.27-.29-.56-.18-.3-.36-.51-.38-.5-.03.02.1.27.28.56Z" fill="#CBAA0B"/><path d="M17.89 17.59c-.06.09-.14.17-.22.24a.26.26 0 0 0-.1.2c-.01.08.02.15.07.2.08.08.1.16.1.26 0 .13-.03.14-.1.03l-.3-.46c-.06-.07-.05-.14 0-.21.12-.15.28-.26.48-.34.1-.04.13-.02.07.08ZM37.76 17.59c.02-.02.04-.02.07 0 .03.01.04.04.02.07-.15.23-.35.3-.6.19l.51-.27Z" fill="#9B5507"/><path d="M37.84 34.63c.02-.12.09-.24.22-.34l.09-.08a.26.26 0 0 0 .07-.1c.3-.63.54-1.22.73-1.75a12.14 12.14 0 0 0-.14-8.93l-.6-1.42a.42.42 0 0 0-.24-.16.25.25 0 0 1-.13-.08c-.07-.08-.05-.11.06-.09a12.57 12.57 0 0 0-3.8-3.8l.02-.05c.02-.02.04-.02.06 0a12.55 12.55 0 0 1 4.18 4.19c.6 1.04 1.08 2.3 1.43 3.8.06.29.1.58.12.88 0 .12.02.29.07.51.04.26.07.45.07.59a12.13 12.13 0 0 1-7.7 11.6 11.23 11.23 0 0 1-4.23.74l.01-.04a.75.75 0 0 1 .4-.21c.1-.02.23-.03.42-.02h.31a11.7 11.7 0 0 0 8.58-5.24Z" fill="#7E3A0B"/><path d="M37.9 18.4c-.08.88.2 1.64.86 2.28.6.59.82 1.28.69 2.09a.5.5 0 0 0-.06-.36.3.3 0 0 0-.14-.13.52.52 0 0 1-.23-.2l-.62-1.05a.9.9 0 0 0-.2-.23 1.02 1.02 0 0 1-.2-.23 7.97 7.97 0 0 0-1.97-2.1.43.43 0 0 1-.17-.25c-.03-.13.02-.16.14-.1.32.15.65.29 1 .41.34.13.64.08.9-.13Z" fill="#FF5705"/><path d="M30.81 20.23c-.4-.43-.75-.98-1.04-1.64a.73.73 0 0 1-.22-.3.15.15 0 0 1-.01-.06c0-.04.01-.06.04-.06l.02.01 1.21 2.05Z" fill="#CBAA0B"/><path d="M38.82 18.42a15.2 15.2 0 0 1 3.47 8.4c.03.3 0 .56-.09.77-.58-.42-.9-.78-.96-1.08l-.09-.71c-.06-.58-.13-1-.2-1.28a2 2 0 0 0-.62-1.04 2.38 2.38 0 0 1-.39-.4.26.26 0 0 1-.06-.16 9.95 9.95 0 0 0-.2-1.83.36.36 0 0 0-.08-.17 7.27 7.27 0 0 1-1.06-1.32c-.28-.58-.19-.98.28-1.18ZM29.77 18.59c.29.66.64 1.21 1.04 1.64.36.37.64.84.83 1.4-.1-.05-.26-.04-.45.03l-1.6-2.7c-.06-.23 0-.35.18-.37Z" fill="#FBEC06"/><path d="M15.32 19.39c.08.17.06.29-.05.36a.5.5 0 0 0-.14.14c-.13.21-.26.43-.37.66a22.36 22.36 0 0 0-1.47 3.83.1.1 0 0 1-.08.07l-.05.02c-.04.01-.04.03-.02.06.05.08.18.13.38.15-.13.72-.23 1.53-.28 2.43-.01.2.01.36.08.5.03.07.04.13.02.19l-.08.33-.04 1.42.22 1.6-.18-.08c.03-.1-.02-.17-.16-.21a.7.7 0 0 1-.22-.1c-.37-.3-.63-.69-.79-1.18a3.61 3.61 0 0 0-1-1.26.23.23 0 0 1-.09-.23.24.24 0 0 1 .15-.19l.48-.23a.3.3 0 0 0 .14-.15c.2-.4.31-.8.34-1.22.21-.5.56-.86 1.04-1.09.06-.03.07-.07.05-.14a1.47 1.47 0 0 0-.25-.45 1.21 1.21 0 0 1-.28-.5c-.04-.16-.01-.35.06-.58.12-.38.17-.76.15-1.12 0-.1-.04-.22-.1-.33-.03-.07-.1-.17-.19-.3-.09-.13-.15-.23-.18-.3a.09.09 0 0 1 0-.08.1.1 0 0 1 .05-.05l.07-.01c.04-.02.08-.01.11 0 .04.02.07.05.09.08.06.12.14.14.26.07.47-.28.8-.66 1.02-1.12a1.31 1.31 0 0 1 .48-.54c.28-.14.56-.3.83-.45Z" fill="#FF5705"/><path d="M43.8 21.33c.03.16 0 .3-.1.4-.2.2-.32.43-.36.66-.03.14-.02.35.01.63.03.24.04.42.04.55a2.27 2.27 0 0 1-.25-1.5c.03-.18.1-.32.23-.44.13-.13.28-.23.43-.3ZM31.64 21.63l6.26.05c-.11-.02-.13 0-.06.1.04.03.08.06.13.07.1.03.19.09.24.16-.06.07-.1.18-.11.34-.06-.1-.15-.12-.27-.06a1.52 1.52 0 0 0-.91-.15c-.47.06-.77.09-.89.08-1.46-.04-2.91-.06-4.35-.05a53.58 53.58 0 0 0 3.17 5.66c.04.06.07.06.1 0l2.24-3.95c.4.13.4.42 0 .9a.36.36 0 0 0-.08.16.76.76 0 0 1-.13.37c-.12.14-.24.36-.37.65-.1.24-.19.42-.26.53-.32.47-.63.97-.93 1.52-.06.1-.06.2 0 .3a4.18 4.18 0 0 1 .43.9l.06.02c.03.02.06.04.07.07.34.59.69 1.16 1.06 1.73a10.08 10.08 0 0 1 .8 1.62c-.06.1 0 .28.18.53.03.1.02.19-.02.28-.02.05-.09.07-.19.05l-2.85-5.04c-.03-.06-.08-.08-.15-.06a.27.27 0 0 0-.11.08l-3 5.2c-.02.04-.07.1-.17.16-.1.07-.1.13.01.19.07.03.13.08.17.14.03.05.05.05.07 0 .02-.1.08-.14.17-.15l5.96-.09c0 .27.06.38.15.35-.13.1-.2.22-.22.34a8.42 8.42 0 0 0-.13-.06l-6.54.02c.1-.08.13-.13.07-.17.03-.07-.02-.13-.16-.18a.7.7 0 0 0-.22-.03 780.35 780.35 0 0 0-5.84.08c.02.02-.03.04-.15.04a.26.26 0 0 1-.05-.14c0-.05-.04-.08-.1-.07l-.15.06c-.05.02-.07.06-.06.12l.03.28c.01.06-.01.08-.07.05-.05-.01-.1-.06-.13-.15.13-.13.1-.3-.1-.48.05.02.08.03.11.02.07 0 .1-.05.06-.11l-1.18-2.16c.14 0 .24.04.32.15l.14.14.22.17c.06.04.1.1.13.15.1.22.21.44.35.64.04.06.12.14.24.23.12.1.2.18.24.24.07.11.17.17.3.18 1.91.16 3.78.16 5.61 0 .27-.02.46-.13.57-.33.17-.31.4-.62.66-.92a.2.2 0 0 0 0-.26.22.22 0 0 0-.11-.07.22.22 0 0 0-.14.01l-.26.11c.07-.07.1-.11.1-.13.03-.16-.02-.18-.15-.09-.45.35-.97.67-1.56.98-.03.01-.05.04-.04.08.01.04.04.06.08.06h.18l-.31.13c-.3.14-.55.21-.73.22-.24.02-.46.05-.68.1-.2.04-.4.05-.59.04a5.2 5.2 0 0 1-3.23-1.3l-.69-.57a2.82 2.82 0 0 1-.97-1.77c-.05-.41-.1-.71-.15-.9-.03-.13-.05-.13-.05 0 0 .03 0 .05.02.08l.02.09v.57c0 .06-.04.1-.1.1h-.07c-.07 0-.12-.04-.13-.11a2.14 2.14 0 0 0-.4-.86.94.94 0 0 1-.48-.86c0-.06-.02-.1-.07-.14-.06-.04-.1-.13-.14-.27l3.02-5.22c.26.02.43-.06.53-.25.01-.03 0-.04-.03-.05l-.05-.01c-.08 0-.07-.02.04-.05.06-.01.1-.06.1-.13 2.02-.03 4.04-.03 6.07-.01.08 0 .13-.02.17-.05.07-.06.06-.13-.02-.21.2-.07.34-.08.45-.03Z" fill="#EDD107"/><path d="M24.82 21.74c0 .19.05.25.16.19-.02.07-.05.12-.11.13-.1.03-.12.04-.04.05h.05c.03.02.04.03.03.06-.1.19-.27.27-.53.25l.09-.05c.01-.06-.04-.1-.17-.15a.71.71 0 0 0-.22-.04 1679.45 1679.45 0 0 0-5.46.07l-.32.14c-.12-.13-.23-.17-.32-.12-.15-.26-.12-.46.1-.6a.1.1 0 0 1 .11-.01c.02 0 .03.02.04.04.02.02.04.03.07.03h6.52Z" fill="#B6B207"/><path d="M37.83 22.29 34.9 27.2c-.03.06-.07.06-.1 0l-3.13-5.04c1.44-.01 2.89 0 4.35.05.12 0 .42-.02.89-.08.34-.04.64 0 .9.15ZM24.47 22.37l-.17-.06c-.08-.02-.13 0-.17.06l-2.9 4.94c-.05.04-.09.03-.11-.01-.28-.53-.57-1.05-.89-1.57a67.73 67.73 0 0 1-1.93-3.34l.32-.14a1650.25 1650.25 0 0 1 5.46-.07c.08 0 .15.02.22.04.13.04.18.1.17.15Z" fill="#FF5705"/><path d="M18.3 22.4a67.73 67.73 0 0 0 1.93 3.33c.32.52.61 1.04.89 1.57.02.04.06.05.12.01-.03.13-.08.26-.15.38l-3.11-5.42c.1-.05.2-.01.32.12Z" fill="#952505"/><path d="m31.68 22.17 3.13 5.04c.03.06.07.06.1 0l2.92-4.92c.12-.06.21-.04.27.06l-.91 1.53-2.24 3.95c-.03.06-.06.06-.1 0a53.56 53.56 0 0 1-3.17-5.66Z" fill="#6E1609"/><path d="m24.47 22.37-.09.05-3.02 5.22a.38.38 0 0 1-.11.15c-.06.05-.1.04-.14-.03a.26.26 0 0 1-.02-.07c.07-.12.12-.25.15-.38l2.9-4.94c.03-.06.08-.08.16-.06l.17.06Z" fill="#440E04"/><path d="M40.94 26.86c.17.46.44.78.83.96.27.13.27.24-.02.32-.2.07-.46.36-.76.88-.11.19-.2.42-.25.7a8 8 0 0 0-.16 1.16c-.03.21-.12.45-.25.72a9.97 9.97 0 0 1-.61.98c-.01.02 0 .05.02.1-.06.04-.08.08-.06.14-.17.47-.35.95-.54 1.42-.08.23-.2.45-.34.66-.08.13-.22.32-.4.56l-.36.48c-.3.44-.44.96-.4 1.58 0 .06.03.11.07.16.08.1.12.18.11.27a.17.17 0 0 1-.05.07c-.05.04-.1.04-.14-.02l-.14-.16c-.06-.01-.1-.04-.12-.08-.13-.43-.07-.86.18-1.27-.03-.11-.1-.2-.22-.27.63-.75 1-1.23 1.13-1.46.29-.54.58-1.07.86-1.62.1-.18.2-.46.34-.86l.24-.67c.09-.2.14-.4.17-.62 0-.09.03-.22.08-.4.06-.19.09-.34.1-.45.03-.93.04-1.83.01-2.69-.01-.32 0-.63.01-.9.03-.29 0-.56-.09-.84-.1-.33-.18-.67-.25-1a2.19 2.19 0 0 0-.45-.93.24.24 0 0 1-.03-.28l.02-.05a.1.1 0 0 1 .09-.06.1.1 0 0 1 .1.05c.06.1.17.23.31.41l.32.41c.1.17.18.33.22.49.13.5.2 1 .2 1.54 0 .13.07.32.23.57Z" fill="#D03908"/><path d="m32.6 29.74-.35.75a5.17 5.17 0 0 1-2.32 2.11 4.41 4.41 0 0 1-3.53.14 4.87 4.87 0 0 1-2.92-2.76.66.66 0 0 0 .01-.2.2.2 0 0 0-.08-.15.2.2 0 0 1-.07-.18c.01-.1.04-.1.08-.02s.1.15.18.2c.06.05.1.11.14.18.2.46.37.81.54 1.06.2.28.52.6.98.95 2.17 1.24 4.04 1.16 5.61-.23.8-.7 1.29-1.48 1.48-2.33.23-1 .18-1.96-.16-2.87a.86.86 0 0 0-.1-.17.66.66 0 0 1-.1-.16c-.17-.49-.41-.9-.73-1.22a8.53 8.53 0 0 0-1.47-1.17.56.56 0 0 0-.19-.08l-.11-.02c-.12-.02-.12-.05-.01-.09a.32.32 0 0 1 .25.01c.82.37 1.5.88 2.01 1.53a4.79 4.79 0 0 1 .85 4.72Z" fill="#9B5507"/><path d="M16.57 23.6c-.42 1.5-.67 2.8-.75 3.86-.08 1.23.04 2.52.37 3.87.03.12.1.35.24.67.1.22.16.45.19.69-.07.08-.1.16-.1.22-.1-.22-.32-.53-.68-.92-.37-.4-.55-.94-.55-1.6 0-.27-.02-.5-.07-.69l-.16-.69c.05-.38-.2-.73-.77-1.03.43-.39.73-.85.9-1.4.02-.05.06-.42.13-1.1.08-.82.5-1.45 1.25-1.88Z" fill="#E44C09"/><path d="M31.58 26.21c-.23-.06-.46.1-.68.5l-2.92 5.12c-.01.03-.04.05-.08.04-.03 0-.06-.02-.07-.05-.1-.34-.26-.64-.49-.9a2.95 2.95 0 0 1-.4-.79l-.07-.16c-.1-.25-.24-.48-.42-.7a2.8 2.8 0 0 1-.45-.8c-.04-.1-.12-.22-.25-.38-.1-.12-.17-.22-.2-.3a17.96 17.96 0 0 0-.9-1.51c-.09-.04-.14 0-.16.1l-.16-.04a.14.14 0 0 0-.15.04.13.13 0 0 0-.03.14 2.74 2.74 0 0 0 .35.66l-.05.03c-.03.02-.05.01-.07-.02a.78.78 0 0 0-.23-.23.17.17 0 0 0-.16-.02.16.16 0 0 0-.1.12c-.04.12-.07.31-.08.56-.01.21-.03.37-.05.48-.14.74-.05 1.35.28 1.81.04.06.06.12.07.19.03.2.15.36.34.48a.3.3 0 0 1 .12.12l.03.09c.04.09.1.16.15.2.27.2.44.48.5.83a4.7 4.7 0 0 1-.97-.95c-.17-.25-.35-.6-.54-1.06a.39.39 0 0 0-.14-.17.6.6 0 0 1-.18-.2c-.04-.09-.07-.08-.08 0 0 .08.02.14.07.19a.2.2 0 0 1 .08.14v.21c-.2-.4-.33-.84-.36-1.3-.06-.76 0-1.5.2-2.23.06-.24.18-.46.34-.68.16-.2.3-.44.4-.68.03-.07.08-.11.14-.14.14-.07.27-.16.36-.26.06-.07.1-.06.1.03.01.05 0 .08-.04.09-.11.03-.16.1-.15.2.01.06-.01.11-.07.14a.27.27 0 0 0-.14.26c0 .07.04.11.12.12a6.14 6.14 0 0 0 1.21.05v.01a1.9 1.9 0 0 0-.65.02c-.08.02-.1.06-.08.14.03.13.1.2.22.2.76.06 1.5.07 2.23.04.33-.02.82 0 1.47.03.75.03 1.31.04 1.69 0 .16 0 .24-.09.23-.24 0-.09.04-.12.13-.12.15.02.3 0 .44-.04.1-.03.17 0 .2.1.07.18.1.34.1.5ZM43.9 26.46l.04.07c-.14.63.06 1.1.59 1.42l.07.02.02-.01c.04-.05.09-.05.14 0 .01 0 .02.02.02.05 0 .02-.01.04-.04.06-.59.35-.86.9-.83 1.62-.12.6-.47.97-1.07 1.13.09-.48.05-.86-.1-1.14l.05-1.26a.38.38 0 0 0-.05-.2.46.46 0 0 1-.03-.4c.07-.2.1-.43.06-.66-.09-.65-.15-1.28-.18-1.9 0-.03.02-.06.05-.08a.1.1 0 0 1 .1 0c.6.3.98.72 1.16 1.28Z" fill="#FF5705"/><path d="M31.58 26.21 28 32.31l-.04.02-.04-.02-3.44-5.93c.02-.1.07-.14.15-.1a17.97 17.97 0 0 1 .9 1.52c.04.07.1.17.21.3.13.15.21.27.25.37.1.28.25.55.45.8a2.85 2.85 0 0 1 .48.86c.15.37.28.63.41.79.23.26.4.56.5.9 0 .03.03.05.06.05.04 0 .07 0 .08-.04l2.92-5.12c.22-.4.45-.56.68-.5Z" fill="#6E1609"/><path d="m33.89 27.25.17.27c.16.24.27.43.31.56.04.11.01.2-.07.26a.37.37 0 0 0-.1.13c-.26.5-.58.98-.95 1.47-.04.05-.09.06-.14.02-.07-.04-.08-.1-.05-.16.13-.32.21-.69.24-1.1a10.81 10.81 0 0 0-.05-1.27c0-.09-.03-.22-.07-.4-.05-.22-.08-.37-.08-.47 0-.45.11-.48.34-.08l.45.77Z" fill="#FBEC06"/><path d="M43.94 26.53c.14.54.42.93.85 1.17.14.08.2.19.21.34 0 .14-.06.26-.18.34l-.58.39a.22.22 0 0 0-.1.16c-.05.25-.08.5-.1.77a.5.5 0 0 1-.12.3.57.57 0 0 1 0-.3c-.04-.74.23-1.28.82-1.63a.07.07 0 0 0 .04-.06c0-.03 0-.04-.02-.06-.05-.04-.1-.04-.14.01l-.02.01c-.03 0-.05 0-.07-.02-.53-.32-.73-.8-.59-1.42Z" fill="#E1D852"/><path d="M27.91 29.58a1.46 1.46 0 0 1-1.41-1.47c0-.4.13-.75.4-1.04.28-.3.6-.44 1-.44.39 0 .72.14 1 .43.27.28.4.63.41 1.04 0 .4-.13.75-.4 1.04-.28.29-.6.44-1 .44Z" fill="#D03908"/><path d="M42.15 27.64c.05.1.14.14.28.13.08.01.13.03.18.07.06.03.08.08.06.14-.02.09-.1.15-.23.2-.15.02-.2.1-.15.24.08.18.08.3.01.35-.36-.23-.68-.06-.95.54-.1.22-.16.52-.18.89-.03.55-.14 1.1-.35 1.65-.08.21-.19.38-.33.48a2 2 0 0 1-.47.24l-.28.1c-.03-.04-.03-.07-.02-.1l.18-.28c.2-.3.34-.54.43-.7.13-.26.22-.5.25-.71l.05-.42.1-.75a2.33 2.33 0 0 1 .26-.7c.3-.51.55-.8.76-.87.29-.08.3-.19.02-.32-.39-.18-.66-.5-.83-.96 0-.05.02-.09.09-.12.06-.02.11 0 .15.06.23.47.56.75.97.84Z" fill="#EDD107"/><path d="M26.83 28a1.1 1.1 0 0 0 .95 1.24c.6.06 1.13-.4 1.2-1.03a1.1 1.1 0 0 0-.95-1.24c-.6-.06-1.13.4-1.2 1.03ZM25.9 29.87c.18.25.32.51.42.77l.26.61c.14.26.06.34-.22.23a2.6 2.6 0 0 1-.81-.52l-.88-.84a.6.6 0 0 1-.19-.57c.02-.1 0-.22-.06-.37a1.05 1.05 0 0 1-.07-.2c-.1-.51-.18-1-.25-1.5-.03-.2.04-.24.23-.16.1.05.15.12.16.22 0 .07.03.13.07.18.26.3.43.54.53.74.24.54.5 1 .8 1.4Z" fill="#FBEC06"/><path d="M11.52 28.24c-.07-.04-.1-.1-.1-.17V28c.01-.03.03-.06.06-.07a.1.1 0 0 1 .1 0c.5.25.74.59.73 1.02 0 .12-.04.13-.11.03a3 3 0 0 0-.34-.48c-.1-.11-.22-.2-.34-.27Z" fill="#952505"/><path d="M14.3 27.98c.55.3.81.65.76 1.03a2.26 2.26 0 0 0-.83-.79c-.05-.02-.08 0-.1.04l-.05.04v.01c.1.1.18.22.23.34.04.1.02.1-.07.04a.97.97 0 0 0-.41-.18.17.17 0 0 0-.15.05.16.16 0 0 0-.06.14c.03.34.08.68.15 1.01.07.34.12.67.15.99.03.3.09.6.18.92.57 1.87 1.4 3.57 2.5 5.1.29.4.61.77.97 1.1.07.07.12.15.14.25.03.16.13.25.31.25.08 0 .13.04.16.1.05.1.12.18.21.26a14.07 14.07 0 0 0 9.12 3.66c.07 0 .1.04.1.1l.01.07c0 .08-.04.11-.11.11a13.1 13.1 0 0 1-5.97-1.5 15.58 15.58 0 0 1-3.84-2.7 19.11 19.11 0 0 1-2.31-3.09 16.36 16.36 0 0 1-1.78-5.16 2.32 2.32 0 0 1-.03-.38c0-.4-.12-.48-.36-.24l.04-1.42c-.01.1 0 .18.02.24.03.08.09.11.18.09l.42-.13c.06-.02.1-.05.11-.1.04-.12.14-.2.3-.25Z" fill="#9B5507"/><path d="M42.44 28.18c.14 0 .2.03.2.1-.1 1.08-.24 2-.4 2.76a14.9 14.9 0 0 1-3.96 7.33c-.21.22-.44.42-.68.6-.1.1-.26.22-.47.4a14.5 14.5 0 0 1-9 3.27.15.15 0 0 1-.14-.1c-.05-.09 0-.2.13-.33.06 0 .1.03.14.07.05.08.1.12.17.11a14.6 14.6 0 0 0 9.55-4.1c.1-.09.18-.19.25-.3a.9.9 0 0 1 .22-.22l.17-.16a15.08 15.08 0 0 0 3.68-8.84c.07-.05.07-.17 0-.35-.06-.14-.01-.22.14-.24Z" fill="#7E3A0B"/><path d="M21.28 28.43c-.12.07-.16.14-.12.22.36.67.74 1.33 1.16 1.97.16.25.38.65.66 1.19.4.75.72 1.3.98 1.65.03.04.03.09 0 .13a.13.13 0 0 1-.1.07l-5.18.05c-.07 0-.1.04-.1.1v.06c0 .04.02.06.06.05l.5-.02-.95.11a.1.1 0 0 1-.09-.03.25.25 0 0 1-.03-.04c0-.06.02-.12.05-.18a86.87 86.87 0 0 1 2.98-5.34c.02-.04.06-.05.11-.02l.07.03Z" fill="#FF5705"/><path d="M37.81 33.51c.13.18.16.32.1.44l-5.96.08c-.1 0-.15.05-.17.14-.02.06-.04.06-.07.01a.38.38 0 0 0-.17-.14c-.11-.06-.12-.12-.01-.2.1-.06.15-.1.17-.14l2.48-.06c.42-.01 1.03 0 1.85.05.63.03 1.1.05 1.43.05.05 0 .09-.02.11-.06a.12.12 0 0 0 0-.13l-2.83-4.87a.12.12 0 0 1-.01-.1.08.08 0 0 1 .07-.06c.12-.02.12-.03 0-.03h-.1a.27.27 0 0 1 .11-.08c.07-.02.12 0 .15.06l2.85 5.04ZM21.28 28.43l.96 1.65.99 1.67 1.18 2.16c.03.06.01.1-.06.11a.2.2 0 0 1-.1-.02l-5.1-.1-.51.02c-.04 0-.06-.01-.06-.05v-.06c0-.06.03-.1.1-.1l5.17-.05c.06 0 .1-.02.12-.07a.11.11 0 0 0-.01-.13c-.26-.35-.59-.9-.98-1.65-.28-.54-.5-.94-.66-1.19-.42-.64-.8-1.3-1.16-1.97-.04-.08 0-.15.12-.22Z" fill="#952505"/><path d="M34.7 28.49h.1c.12 0 .12.01 0 .03-.04 0-.06.02-.07.05a.12.12 0 0 0 0 .11l2.85 4.87c.02.04.02.08 0 .13a.13.13 0 0 1-.12.06c-.32 0-.8-.02-1.43-.05-.82-.04-1.43-.06-1.85-.05-.8 0-1.64.03-2.48.06l3-5.21Z" fill="#FF5705"/><path d="m30.11 33.1 1.39-.9.26-.12c.04-.02.09-.02.14-.01.05.01.09.04.12.07a.2.2 0 0 1-.01.26c-.27.3-.49.6-.66.92-.1.2-.3.31-.57.34-1.83.15-3.7.15-5.6 0a.37.37 0 0 1-.3-.19 1.12 1.12 0 0 0-.25-.24c-.12-.1-.2-.17-.24-.23-.14-.2-.25-.42-.35-.64a.38.38 0 0 0-.13-.15l-.22-.17a.7.7 0 0 1-.14-.14.34.34 0 0 0-.32-.15l-.99-1.67a.5.5 0 0 0-.07-.4.38.38 0 0 1-.06-.18l-.05-.59c.22.33.36.61.4.86 0 .07.05.1.12.1h.06c.07 0 .1-.03.1-.1v-.56l-.01-.1a.14.14 0 0 1-.02-.07c0-.13.02-.13.05 0 .06.19.1.49.15.9a2.82 2.82 0 0 0 .97 1.77l.7.57a5.2 5.2 0 0 0 3.22 1.3c.2.01.4 0 .59-.04.22-.05.44-.08.68-.1.18-.01.42-.08.73-.22l.31-.12Z" fill="#FBEC06"/><path d="M13.26 31.07c-.23.28-.41.6-.53.97a.3.3 0 0 0 0 .19l.23.8c-.07.25-.07.49 0 .71-.12.25-.24.48-.38.7-.11.19-.25.21-.43.07l.59-.7a.3.3 0 0 0 .05-.34 2.7 2.7 0 0 1 0-2.16l.06.02.02-.01c0-.02.02-.04.04-.05a2.75 2.75 0 0 0-.75-.83c-.12-.2-.15-.5-.07-.86.16.5.42.89.8 1.18a.7.7 0 0 0 .21.1c.14.04.19.11.16.2Z" fill="#E1D852"/><path d="M42.73 29.68c.16.28.2.66.1 1.14 0 .05-.04.08-.11.1-.04 0-.07-.01-.08-.05a.1.1 0 0 0-.07-.04c-.02-.38.04-.77.16-1.15Z" fill="#952505"/><path d="M43.91 29.7c-.02.1-.02.2.01.3-.1.4-.33.73-.68 1.01a.24.24 0 0 0-.1.16c-.03.28 0 .58.12.88-.09 0-.17-.1-.25-.25l-.37-.73c-.02-.04-.05-.04-.1 0 .05-.1.06-.17.03-.24a.1.1 0 0 1 .07.04c.01.04.04.05.08.04.07-.01.11-.04.12-.09.6-.16.95-.53 1.07-1.13Z" fill="#EDD107"/><path d="M32.6 29.74c.02 0 .03.01.04.05 0 .04 0 .04.02 0 .01-.01.04 0 .09.06.03.04.03.07 0 .11l-.5.53.34-.75Z" fill="#CBAA0B"/><path d="M12.8 31.3a2.89 2.89 0 0 1-.64-.86 2.75 2.75 0 0 1 .75.83.07.07 0 0 0-.04.05h-.02l-.06-.01Z" fill="#B6B207"/><path d="M17.6 33.98c-.02 0-.03 0-.04-.02l-.02-.04c-.3-.77-.55-1.43-.74-1.98-.2-.55-.28-.84-.25-.85a3 3 0 0 1 .4.79c.24.54.51 1.2.82 1.96l.01.04c.01.02 0 .03-.02.04l-.16.06Z" fill="#9B5507"/><path d="M42.54 31.06c.05-.03.08-.03.1 0l.37.74c.06.1.08.21.05.32-.02.07-.05.08-.1.02l-.56-.73a.8.8 0 0 1 .14-.35Z" fill="#952505"/><path d="m13.26 31.07.19.09.07.2c-.02.07-.1.11-.24.13-.25.3-.31.64-.2 1 .16.46.22.88.18 1.26-.02.24-.15.48-.38.73-.1.03-.17.1-.18.2 0 .07-.04.1-.1.12l-.14.01a1.32 1.32 0 0 1-.26-.07c-.08-.02-.1-.1-.05-.23.18.14.32.12.43-.06.14-.23.26-.46.38-.7a1.3 1.3 0 0 0 0-.72l-.24-.8a.3.3 0 0 1 0-.19c.13-.37.3-.7.54-.97Z" fill="#440E04"/><path d="M13.52 31.36c.06.16.13.38.2.69a14.62 14.62 0 0 0 2.12 4.5 16.07 16.07 0 0 0 4.08 3.99c1.46.96 3.12 1.64 5 2.03.11.07.15.17.11.3-.5.47-1.1.57-1.8.32-.55-.2-1.04-.08-1.47.38-.17 0-.17-.15 0-.46.7-.27 1.36-.27 1.98 0 .2.09.38.08.55-.02l.23-.12c.19-.1.18-.18-.03-.23a16.2 16.2 0 0 1-4.84-2.1.42.42 0 0 0-.33.06 1 1 0 0 1-.42.15c-.39-.1-.82-.33-1.29-.7-.3-.22-.66-.3-1.1-.21a.56.56 0 0 1-.2 0c-.1-.02-.12-.06-.05-.13.13-.12.33-.18.61-.17a1.15 1.15 0 0 1 .7.22c.3.21.52.36.68.45.26.14.51.24.77.3.11.01.18-.02.2-.12.03-.09 0-.16-.07-.21a16.05 16.05 0 0 1-2.9-2.76c-.07-.1-.2-.24-.4-.43a2.1 2.1 0 0 1-.37-.46c.08-.1.02-.2-.18-.3-.14-.26-.28-.52-.44-.78-.17-.28-.3-.55-.4-.8l-.9-2.38a1.54 1.54 0 0 1-.03-.63.18.18 0 0 0-.07-.16.41.41 0 0 0-.18-.1c.14 0 .22-.05.24-.12Z" fill="#952505"/><path d="m42.4 31.4.56.74c.05.06.08.05.1-.02a.4.4 0 0 0-.05-.32c.08.16.16.24.25.25l-.03.33h-.05a.05.05 0 0 0-.04.03c-.13.31-.21.65-.26 1-.03.2.02.41.14.65a4.13 4.13 0 0 0 .44.62c.05.05.04.09-.03.1l-.29.08c-.37.14-.68.38-.93.73.05-.43.33-.7.86-.8l.05-.05a.07.07 0 0 0 0-.06l-.03-.07c-.03-.05-.07-.07-.13-.06-.33.06-.6.23-.79.5l-.49.72c-.28.45-.66.66-1.12.63.7-1.12 1.17-1.97 1.4-2.53.2-.52.36-1.09.48-1.71a.1.1 0 0 0-.04-.1.1.1 0 0 0-.11-.02c-.06.02-.08.09-.09.2 0-.3.06-.58.2-.83ZM13.28 31.49c.08.02.14.05.18.09.05.04.07.1.07.16-.03.28-.02.49.03.63.3.8.59 1.59.9 2.38.1.25.23.52.4.8.16.26.3.52.44.79-.2.05-.46.03-.76-.06.17-.05.24-.1.21-.14l-.28-.43c-.2-.33-.38-.57-.5-.72a1.87 1.87 0 0 0-.7-.52.12.12 0 0 0-.13.02c-.04.03-.04.06 0 .1l-.26-.1c.23-.26.36-.5.38-.74.04-.38-.02-.8-.17-1.27-.12-.35-.06-.68.2-1Z" fill="#FF5705"/><path d="m31.5 32.2-1.39.9-.18-.01c-.04 0-.07-.02-.08-.06 0-.04 0-.07.04-.08.6-.3 1.11-.63 1.56-.98.13-.1.18-.07.16.09 0 .02-.04.06-.11.13Z" fill="#B6B207"/><path d="M40.56 36.4c-.06.2-.01.53.14.95-.08.28-.18.47-.3.58-.59.45-.83.98-.75 1.58.07.46-.02.48-.26.08-.11-.18-.09-.46.06-.83.13-.3.28-.55.46-.74.3-.33.4-.7.3-1.12.1.22.17.2.24-.03.07-.26 0-.41-.23-.46a17.05 17.05 0 0 0 2.07-4.37.1.1 0 0 1 .1.02.1.1 0 0 1 .05.1c-.12.62-.28 1.2-.48 1.7-.23.57-.7 1.42-1.4 2.54Z" fill="#D03908"/><path d="m43.23 32.38-.1 1.25c0 .07.02.12.06.17l.48.56c.1.11.1.23.04.35a.31.31 0 0 1-.33.17l-.24-.02.29-.07c.07-.02.08-.06.03-.11l-.04-.06c-.2-.24-.33-.43-.4-.56a1.05 1.05 0 0 1-.14-.65c.05-.35.13-.69.26-1 0-.02.02-.03.04-.03h.05Z" fill="#E1D852"/><path d="M16.62 32.69a15.9 15.9 0 0 0 2.16 3.45 12.2 12.2 0 0 0 3.14 2.67c1.65.97 3.45 1.51 5.4 1.6.62.04 1.27.05 1.93.04-.13.13-.44.36-.95.7-.15.1-.38.33-.69.7a3.06 3.06 0 0 0-2.44-1c-.19 0-.43-.07-.72-.2a1.68 1.68 0 0 1-.6-.37c-.36-.43-.83-.7-1.41-.83a.61.61 0 0 0-.27.01.48.48 0 0 1-.29 0 5.73 5.73 0 0 1-1.55-1c-.65-.58-1.37-.75-2.14-.49-.07.02-.12 0-.15-.06-.07-.13-.01-.25.16-.35.62-.14 1.2-.03 1.74.3.02.02.03.02.05 0v-.01a.1.1 0 0 0-.03-.1c-.97-.9-1.8-1.91-2.49-3.06l-.9-1.55-.04-.23c0-.06.02-.14.09-.22Z" fill="#D03908"/><path d="M37.85 32.65c.23.3.38.5.43.61.03.06.03.1 0 .15-.03.07-.08.08-.14.02a.45.45 0 0 1-.12-.25c-.18-.25-.24-.43-.17-.53Z" fill="#CBAA0B"/><path d="M39.68 32.82a3 3 0 0 1-.15 1.96c-.1.23-.3.53-.62.9-.19.21-.32.38-.4.5-.3.44-.42.92-.34 1.44.01.06 0 .12-.05.16a.68.68 0 0 1-.3.17c0-.09-.03-.17-.11-.27a.27.27 0 0 1-.07-.16c-.04-.62.1-1.14.4-1.58l.36-.48c.18-.24.32-.43.4-.56.14-.21.26-.43.34-.66.19-.47.37-.95.54-1.42Z" fill="#EDD107"/><path d="m16.56 33.14.91 1.55a13.64 13.64 0 0 0 2.5 3.07.1.1 0 0 1 .03.09v.01c-.03.02-.04.02-.06 0a2.24 2.24 0 0 0-1.74-.3l-.05-.4a4.91 4.91 0 0 0-.1-.57c-.05-.2-.13-.39-.24-.54-.2-.29-.48-.66-.84-1.12a2 2 0 0 1-.4-1.79Z" fill="#FF5705"/><path d="m19.15 33.9 5.1.1c.2.19.22.35.1.48l-6.1.08a1.23 1.23 0 0 0-.3-.36c.06-.06.1-.15.12-.26l.03.04a.1.1 0 0 0 .09.03l.96-.11Z" fill="#CBAA0B"/><path d="M17.95 34.2c.13.1.23.23.3.36.37.6.87 1.22 1.49 1.85a11.33 11.33 0 0 0 7.36 3.47l.27-.01a.91.91 0 0 1 .28 0c.1.02.18.08.26.18.02.03.02.05 0 .08a.08.08 0 0 1-.07.04A11.7 11.7 0 0 1 19 35.92c-.33-.4-.72-.93-1.18-1.6a.07.07 0 0 1 0-.08.08.08 0 0 1 .06-.05l.07.01Z" fill="#7E3A0B"/><path d="M31.24 34.42c-.1-.09-.2-.08-.27.01l-.14.18c-.14.17-.23.3-.27.4a67.63 67.63 0 0 1-2.52 4.39l-3.02-5.11c.53-.02 1.05-.04 1.57-.04l4.27-.04c.09 0 .16 0 .22.03.14.05.19.1.16.18Z" fill="#FF5705"/><path d="M24.87 34.33c.12 0 .17-.02.15-.04l3.02 5.1c-.06.02-.1.07-.14.18l-3.04-5.17v-.03l.01-.04Z" fill="#952505"/><path d="M31.24 34.42c.06.04.04.1-.07.17l-3 5.13a.1.1 0 0 1-.11.05.1.1 0 0 1-.1-.06l-.06-.14c.03-.1.08-.16.14-.17.9-1.45 1.74-2.91 2.52-4.4.04-.09.13-.22.27-.39l.14-.18c.07-.1.16-.1.27 0Z" fill="#440E04"/><path d="m12.88 34.48.26.1c.54.45 1 1.02 1.4 1.7.3.1.55.11.76.06.2.1.26.19.18.3l-.42.35c-.12-.31-.31-.46-.58-.45a.42.42 0 0 1-.4-.22 5.19 5.19 0 0 0-.66-.96 1.99 1.99 0 0 0-.96-.55l.13-.01c.07-.01.11-.05.12-.12 0-.1.06-.17.17-.2Z" fill="#E1D852"/><path d="M14.54 36.28a6.28 6.28 0 0 0-1.4-1.7c-.04-.03-.04-.06 0-.09a.12.12 0 0 1 .12-.02c.26.1.49.28.7.52.13.15.3.39.51.72l.28.43c.03.04-.04.09-.21.14Z" fill="#6E1609"/><path d="M42.2 35.6a2.26 2.26 0 0 1-1.36 1.29.18.18 0 0 0-.12.13.83.83 0 0 0-.02.33c-.15-.42-.2-.74-.14-.95.46.03.84-.18 1.12-.63.16-.25.32-.48.5-.72.19-.27.45-.44.78-.5.06-.01.1 0 .13.06l.03.07v.06a.07.07 0 0 1-.05.04c-.53.1-.81.38-.86.81Z" fill="#E1D852"/><path d="M37.33 36.22c.12.07.2.16.22.27l-.05-.04c-.05-.04-.1-.03-.14.01l-1.49 1.65c-.32.3-.72.6-1.18.95-.12.09-.26.16-.41.2a.53.53 0 0 0-.53.15l-1.2.5c-.37.04-.72.21-1.04.52-.43.24-1.03.38-1.8.42-.82.05-1.44.46-1.89 1.23-.03.07-.08.07-.13.02-.04-.05-.07-.13-.08-.26.31-.36.54-.6.7-.7.5-.33.81-.56.94-.69 2.56-.3 4.82-1.26 6.77-2.9.33-.27.77-.71 1.31-1.33Z" fill="#952505"/><path d="M37.55 36.49c-.25.41-.3.84-.18 1.27.02.04.06.07.12.08l-1.62.27 1.49-1.65c.04-.04.09-.05.14-.01l.05.04Z" fill="#FF5705"/><path d="M40.22 36.41c.22.05.3.2.23.46-.07.24-.15.25-.24.03a16.47 16.47 0 0 1-4.34 4.03c-.8.47-1.73.93-2.78 1.37-.29.12-.57.18-.85.17a.43.43 0 0 0-.18.03c-.2.09-.42.14-.65.16-.02 0-.04.02-.05.05 0 .02 0 .04.02.06.3.3.84.33 1.6.07.34-.1.69-.05 1.05.17.03.02.07.03.11.02a.12.12 0 0 0 .08-.08c.1-.24.27-.48.51-.7.15-.13.38-.32.72-.55l.36-.25c.05-.04.1-.05.16-.02.06.04.09.08.07.13-.28.31-.61.57-1 .76-.13.06-.33.3-.63.72a.22.22 0 0 0-.03.21c.03.07.04.15.04.22 0 .1-.04.12-.12.05a1.6 1.6 0 0 0-1.7-.29c-.58.23-1.13.1-1.64-.4a.1.1 0 0 0-.1-.02.1.1 0 0 0-.07.06 1.78 1.78 0 0 1-1.54.92c-.2.02-.36.04-.46.07a.97.97 0 0 0-.42.28c-.22.24-.36.53-.4.86-.15.01-.33-.13-.51-.42.02-.2-.05-.33-.23-.4-.21-.1-.38-.12-.51-.06a5.77 5.77 0 0 1-.98-.2 2.08 2.08 0 0 1-.6-.37l-.25-.19c.16-.1.37.02.64.35.13.16.33.16.6 0 .54.08 1.04.25 1.5.49.06.03.1.08.12.14.02.08.06.14.12.2.07.07.1.05.09-.05l-.01-.08a.27.27 0 0 1 .03-.18c.13-.23.32-.41.57-.54.25-.12.5-.17.78-.15.33.01.62-.11.89-.38.2-.2.16-.26-.13-.19a1.2 1.2 0 0 1-.9-.08c1-.17 1.69-.3 2.04-.37a14.63 14.63 0 0 0 9-6.1Z" fill="#952505"/><path d="M15.48 36.63c.1.17.22.32.37.46.2.2.33.33.4.43a16.06 16.06 0 0 0 2.9 2.76c.07.05.1.13.08.21-.03.1-.1.13-.21.11a2.77 2.77 0 0 1-.77-.3 8.32 8.32 0 0 1-.75-.49c-.15-.1-.36-.16-.63-.17-.28 0-.48.05-.6.17-.08.07-.07.11.03.13h.2c-.15.08-.27.1-.37.06a.2.2 0 0 1-.13-.24c.23-.77-.04-1.46-.81-2.07l-.13-.7.42-.36ZM40.21 36.9c.1.41 0 .79-.3 1.12-.18.19-.33.44-.46.74-.15.37-.17.65-.06.83.24.4.33.38.26-.08-.08-.6.16-1.13.74-1.58.01.26-.12.53-.39.8-.29.29-.32.63-.08 1.03-.26.14-.59.17-1 .1a.37.37 0 0 0-.25.05c-.35.19-.7.42-1.07.7a.74.74 0 0 1-.5.15.29.29 0 0 0-.2.06c-.13.1-.28.2-.45.25a.32.32 0 0 0-.16.12l-.25.37c.02-.05 0-.1-.07-.13a.14.14 0 0 0-.16.02l-.36.25a7.1 7.1 0 0 0-.72.55c-.24.22-.4.46-.5.7a.12.12 0 0 1-.09.08.13.13 0 0 1-.11-.02c-.36-.22-.71-.28-1.05-.17-.76.26-1.3.23-1.6-.07a.06.06 0 0 1-.02-.06c0-.03.03-.04.05-.05.23-.02.44-.07.65-.16a.43.43 0 0 1 .18-.03c.28 0 .56-.05.85-.17 1.05-.44 1.98-.9 2.78-1.37.43-.25.87-.57 1.34-.95a16.48 16.48 0 0 0 3-3.08Z" fill="#FF5705"/><path d="M29.7 37.72c-.1.16-.18.3-.15.33.03.02.14-.1.26-.26.11-.17.18-.31.16-.33-.03-.02-.15.1-.26.26Z" fill="#B6B207"/><path d="M15.19 37.7c.77.6 1.04 1.29.8 2.06a.2.2 0 0 0 .13.24c.1.04.23.02.38-.06.45-.09.82-.01 1.11.22.47.36.9.6 1.29.7.19-.03.3 0 .31.1l-.66.07c-.07.01-.13 0-.18-.03-.32-.18-.63-.4-.9-.63a1.16 1.16 0 0 0-.55-.28c-.21-.04-.4 0-.58.11-.15.1-.33.17-.54.2a.1.1 0 0 1-.09-.03.1.1 0 0 1-.04-.07.94.94 0 0 1 .2-.66.4.4 0 0 0 .08-.18c.03-.22 0-.38-.06-.49-.26-.42-.5-.84-.7-1.28Z" fill="#E1D852"/><path d="M18.28 38.24c.01-.04.04-.06.07-.07a1.86 1.86 0 0 1 1.63.36c.02.02.02.04 0 .06l-.03.04c-.02.04-.05.04-.09.02-.48-.3-.99-.39-1.53-.26-.06.02-.08 0-.07-.06l.02-.1ZM21.66 39.64l-.82-.43a.09.09 0 0 0-.11.04l-.02.02c-.02.04 0 .09.04.1l.82.43c.04.02.1 0 .11-.03l.02-.02a.08.08 0 0 0-.04-.11Z" fill="#B6B207"/><path d="M34.28 39.27c-.1.18-.27.23-.53.14.14-.14.32-.2.53-.14Z" fill="#FF5705"/><path d="M39.92 39.76c.18.14.24.34.18.58a.15.15 0 0 1-.1.1.16.16 0 0 1-.15 0c-.57-.35-1.13-.29-1.67.2-.18.16-.38.28-.6.36a4.72 4.72 0 0 1-.82.21.23.23 0 0 0-.18.15c-.05.14-.11.27-.19.4-.06.1-.15.22-.26.32l-.33.25-.3.24c-.07-.13-.22-.11-.46.05-.34.24-.42.46-.25.66l-.15.8c0 .03-.02.05-.06.06-.03 0-.06 0-.08-.03-.39-.5-.9-.68-1.56-.56a.5.5 0 0 0-.18.1.48.48 0 0 1-.04.02.19.19 0 0 1-.08.03c-.36.04-.71.03-1.07-.06a.36.36 0 0 1-.15-.08.69.69 0 0 0-.35-.17.26.26 0 0 0-.2.05l-.86.62a.24.24 0 0 1-.17.04c-.28-.03-.58.01-.89.13-.35.13-.58.32-.68.56-.03.08-.07.13-.1.15a.41.41 0 0 1-.2.06c.04-.33.18-.62.4-.86a.97.97 0 0 1 .42-.28c.1-.03.26-.05.46-.07a1.78 1.78 0 0 0 1.53-.92.1.1 0 0 1 .09-.06.1.1 0 0 1 .09.03c.51.49 1.06.62 1.65.4a1.6 1.6 0 0 1 1.69.28c.08.07.12.05.12-.05a.65.65 0 0 0-.04-.22.22.22 0 0 1 .03-.21c.3-.42.5-.66.62-.72.4-.2.73-.45 1.01-.76l.25-.37c.04-.05.1-.1.16-.12.17-.06.32-.14.45-.25a.29.29 0 0 1 .2-.06c.19 0 .35-.04.5-.15.36-.28.72-.51 1.07-.7a.37.37 0 0 1 .25-.05c.41.07.74.04 1-.1Z" fill="#E1D852"/><path d="M32.55 39.91a2.4 2.4 0 0 1-1.2 1.18c-.05.02-.1 0-.13-.04-.03-.03-.02-.06.03-.1.57-.32.66-.5.26-.52.32-.3.67-.48 1.04-.52Z" fill="#CBAA0B"/><path d="m21.77 43.11-1.92-1.63c-.06-.05-.1-.04-.1.04 0 .19.08.33.25.45.46.32.87.64 1.23.97.06.05.08.11.08.18l-.03.34a.92.92 0 0 0-.35-.63c-.29-.25-.58-.48-.87-.7a1.56 1.56 0 0 1-.38-.43 4.5 4.5 0 0 1-.27-.58c-.04-.1-.1-.15-.2-.16-.02-.1-.12-.13-.31-.1a1 1 0 0 0 .42-.16.42.42 0 0 1 .33-.06c.06.02.15.07.27.15l.12.08c1.41.85 2.9 1.47 4.45 1.87.2.05.22.13.03.23l-.23.12c-.17.1-.36.1-.55.02a2.52 2.52 0 0 0-1.97 0Z" fill="#FF5705"/><path d="M28.26 42.28a.17.17 0 0 0-.14-.07c.27-.55.72-.89 1.37-1.01.03 0 .05 0 .06.03l.02.05c.01.05 0 .08-.05.1-.51.19-.93.49-1.26.9Z" fill="#B6B207"/><path d="M21.77 43.11c-.18.3-.18.46-.01.46l-.17.3c-.03.07-.07.12-.12.14-.07.03-.12.01-.16-.05-.08-.12-.08-.29-.03-.5l.03-.34a.22.22 0 0 0-.08-.18c-.36-.33-.77-.65-1.23-.97-.17-.12-.25-.26-.24-.45 0-.08.03-.09.1-.04l1.9 1.63Z" fill="#EDD107"/><path d="M35.5 42.57c-.32.17-.55.4-.7.7-.18-.2-.1-.41.24-.65.24-.16.4-.18.45-.05Z" fill="#B6B207"/><path d="M24.92 42.57c.52.09 1.04.16 1.56.23.36.04.81.06 1.35.05.46 0 .91 0 1.36.04.28.14.58.17.9.08.29-.07.33-.01.13.2-.27.26-.56.38-.89.37-.27-.02-.53.03-.78.15-.25.13-.44.3-.57.54a.27.27 0 0 0-.03.18v.08c.02.1 0 .12-.08.04a.42.42 0 0 1-.12-.19.23.23 0 0 0-.12-.14c-.46-.24-.96-.4-1.5-.49a1.53 1.53 0 0 1-.83-.71c-.05-.08-.13-.12-.27-.12.04-.14 0-.24-.11-.3Z" fill="#FF5705"/><path d="M25.03 42.88c.14 0 .22.04.27.12.19.34.46.58.83.71-.27.16-.47.16-.6 0-.27-.33-.48-.44-.64-.35-.61.36-1.38.38-2.32.09-.18-.06-.31-.01-.41.14-.1.16-.3.25-.57.27l.17-.3c.43-.45.92-.58 1.47-.37.7.25 1.3.15 1.8-.31Z" fill="#E1D852"/><path d="m27.46 44.58-.74-.46c.13-.06.3-.04.51.05.18.08.25.21.23.41Z" fill="#B6B207"/></svg>