<!-- by TradingView --><svg width="56" height="56" viewBox="0 0 56 56" xmlns="http://www.w3.org/2000/svg"><path fill="#F0F3FA" d="M0 0h56v56H0z"/><path fill-rule="evenodd" d="M32.9 42.77a7.96 7.96 0 0 0 2.99-3.55c.2-.44.32-.88.39-1.32 1.26-8.64 2.5-17.2 3.72-25.72 0-.05 0-.09-.04-.12a.15.15 0 0 0-.12-.05c-3.75.01-7.84.01-12.24-.01-1.44 0-2.56.1-3.35.32a7.89 7.89 0 0 0-5.12 4.49c-.27.66-.49 1.55-.64 2.67-1.17 8.3-2.34 16.4-3.49 24.3-.02.14.04.21.18.21 4.4-.02 8.8-.02 13.18.01 1.71 0 3.22-.4 4.53-1.23ZM30.9 13.93c.13-.05.2-.19.15-.3-.05-.1-.19-.15-.32-.1-.12.06-.19.19-.14.3.04.1.18.15.31.1Zm-3.12.47c-.06.19-.18.28-.37.28-.08 0-.12-.03-.13-.1 0-.07 0-.14.03-.2a.18.18 0 0 1 .15-.14c.1-.01.2 0 .28.05.04.03.06.06.04.11Zm3.24-.1h.13c.1 0 .17.09.17.18l-.06 1.86c0 .1-.08.16-.18.16h-.13a.17.17 0 0 1-.16-.18l.05-1.86c0-.09.09-.16.18-.16Zm-1.53.05h-.01a.24.24 0 0 0-.17.3l.48 1.61c.03.13.17.2.3.16h.02c.13-.04.2-.17.17-.3l-.48-1.6a.25.25 0 0 0-.3-.17Zm4.6.66c.06 0 .1-.04.09-.1l-.02-.29c0-.06-.04-.09-.1-.08h-.06c-.1 0-.2.04-.26.08-.07.05-.1.1-.1.16v.04c0 .06.05.1.12.15.08.03.17.05.27.04h.06Zm-2.43 1.64a9.2 9.2 0 0 0 .59-1.86c.03-.15.12-.2.26-.16l.09.03c.07.03.1.07.09.15a6.4 6.4 0 0 1-.54 1.82.32.32 0 0 1-.3.2c-.04 0-.08 0-.12-.02-.08-.03-.1-.09-.07-.16ZM27.9 14.8l.07-.04c.1-.06.23-.03.3.06l.96 1.45c.07.1.04.23-.06.3l-.06.03a.22.22 0 0 1-.3-.06l-.97-1.44a.2.2 0 0 1 .06-.3Zm5.95.55h-.02a.22.22 0 0 0-.3.06l-1.06 1.67c-.06.1-.03.23.07.3h.01c.1.06.24.03.3-.07l1.06-1.67a.21.21 0 0 0-.06-.29Zm-7.01.2 1.33 1.07c.1.08.11.23.03.33l-.02.02a.24.24 0 0 1-.33.03l-1.33-1.07a.23.23 0 0 1-.03-.32l.02-.03c.08-.1.23-.1.33-.03Zm7.98.8h-.01a.21.21 0 0 0-.3 0l-1.46 1.43a.2.2 0 0 0 0 .3c.09.09.22.09.3 0l1.47-1.43a.2.2 0 0 0 0-.3Zm-10.23.46c-.1-.07-.1-.22-.02-.33.09-.11.24-.15.33-.08.1.07.1.22.02.33-.09.12-.24.15-.33.08Zm2.66.4-1.67-.64a.22.22 0 0 0-.28.12l-.02.05c-.05.11 0 .24.12.28l1.67.64c.11.05.24 0 .28-.12l.02-.04a.21.21 0 0 0-.12-.29Zm8.63-.08c0 .13-.1.24-.24.24a.24.24 0 0 1-.24-.24c0-.13.1-.24.24-.24.13 0 .24.1.24.24Zm-2.28 4.01a.53.53 0 0 1-.18-.11c-.03-.03-.03-.06-.02-.1.01-.02.04-.04.08-.04a5.7 5.7 0 0 0 1.84-.22c.07-.02.1-.06.11-.13l-.01-.08c-.06-.13-.16-.19-.3-.16-.57.1-1.15.15-1.73.12-.15 0-.28.06-.4.2a.26.26 0 0 1-.25.1l-.16-.03a.1.1 0 0 1-.08-.07.1.1 0 0 1 .02-.1c.3-.42.47-.84.49-1.28.01-.4-.1-.78-.33-1.14a2.67 2.67 0 0 0-.9-.85c-.4-.23-.82-.37-1.28-.43a2.88 2.88 0 0 0-2.81 1.2.5.5 0 0 1-.4.2c-1.02.04-1.9.22-2.61.54-.83.36-1.5.92-2.01 1.68-.25.36-.4.71-.43 1.05-.05.41.05.77.3 1.08.03.03.04.07.03.12a.12.12 0 0 1-.09.08c-.74.24-1.28.68-1.6 1.34-.17.36-.25.71-.22 1.05.03.32.14.59.35.81.2.22.46.37.78.44.34.07.7.05 1.09-.06a.68.68 0 0 0 .16-.08c.29-.18.36-.35.21-.5 0-.02 0-.02-.01-.01-.96.46-1.59.4-1.87-.21a1.49 1.49 0 0 1 .3-1.81c.58-.6 1.36-.85 2.33-.73.21.02.4.11.56.26.18.18.22.36.11.55a.11.11 0 0 1-.11.07.11.11 0 0 1-.1-.08.75.75 0 0 0-.16-.24.23.23 0 0 0-.25-.06c-.22.06-.35.18-.41.34a.52.52 0 0 0 .05.44c.08.15.2.26.35.31.17.07.34.05.5-.04.45-.26.68-.62.68-1.07 0-.25-.16-.48-.51-.67a2.12 2.12 0 0 0-1.05-.28c-.16 0-.27-.02-.35-.03a.6.6 0 0 1-.3-.16c-.31-.32-.4-.7-.25-1.13a3.7 3.7 0 0 1 2.32-2.16 7.72 7.72 0 0 1 2.65-.34c1.1.07 1.84.42 2.25 1.04.16.25.25.5.27.77.01.26-.04.5-.16.72-.12.22-.3.4-.52.55-.23.15-.5.24-.8.27-.19.02-.33-.03-.44-.15-.1-.12-.13-.27-.06-.44a.23.23 0 0 1 .14-.14l.25-.1a.15.15 0 0 0 .1-.1c0-.06 0-.1-.04-.15-.2-.23-.43-.34-.67-.3a.8.8 0 0 0-.55.34.9.9 0 0 0-.2.64c.03.25.17.45.42.58.78.42 1.5.38 2.15-.12.1-.08.24-.22.4-.42.1-.15.2-.26.27-.32.12-.11.25-.19.4-.23a3 3 0 0 1 1.82.04c.65.2 1 .7 1.07 1.52.07.82-.13 1.45-.61 1.9-.25.24-.54.4-.86.46-.33.07-.65.04-.96-.08a.15.15 0 0 1-.1-.13.15.15 0 0 1 .06-.15c.24-.18.5-.32.78-.41.1-.04.15-.1.16-.21a.22.22 0 0 0-.11-.24c-.49-.29-.92-.24-1.31.15-.34.34-.42.68-.23 1.03.03.05.08.1.13.13.99.5 1.89.46 2.7-.12.19-.14.39-.14.6-.01.32.18.5.42.55.72.05.3-.03.58-.25.86-.32.43-.79.61-1.39.56a.13.13 0 0 1-.1-.06.13.13 0 0 1-.01-.13l.12-.26a.14.14 0 0 0-.03-.17.62.62 0 0 0-.46-.2c-.2 0-.35.06-.46.2-.16.21-.2.42-.12.63.08.21.25.35.5.42a2.45 2.45 0 0 0 1.66-.2c.26-.15.48-.32.65-.53.18-.22.3-.47.35-.74.15-.77-.2-1.3-1.03-1.61a.1.1 0 0 1-.05-.06.1.1 0 0 1 0-.08c.34-.7.43-1.45.26-2.24-.04-.2-.12-.39-.23-.58-.13-.22-.28-.37-.44-.43Zm-3.64-2.17c.52.44.76.99.75 1.66 0 .1.04.12.13.09.3-.11.63-.18.96-.2.1 0 .18-.05.24-.12.3-.35.45-.71.48-1.07a1.5 1.5 0 0 0-.26-.95 2.3 2.3 0 0 0-.79-.71c-.33-.2-.7-.32-1.09-.38a2.4 2.4 0 0 0-2.25.86.08.08 0 0 0-.01.09c.01.03.03.05.07.05.71.05 1.3.28 1.77.68Zm3.4-.35 1.78-1.06c.1-.06.23-.03.29.07v.01a.2.2 0 0 1-.06.28L33.59 19a.21.21 0 0 1-.29-.06v-.02a.2.2 0 0 1 .07-.28Zm1.97.3-1.9.6a.22.22 0 0 0-.14.27v.01c.04.11.17.18.28.14l1.9-.6a.22.22 0 0 0 .14-.26v-.01a.22.22 0 0 0-.28-.14Zm.57 1.2.11.01c.1.02.17.11.15.2l-.01.13c-.02.1-.11.17-.21.15l-.11-.01a.18.18 0 0 1-.16-.21l.02-.12c.02-.1.11-.17.21-.15Zm-10.2 9.05-.96-.12a.18.18 0 0 1-.16-.12.18.18 0 0 1 .03-.2 18.32 18.32 0 0 0 1.71-2.46l-.03-.02-2.2-.15c-.08-.01-.12-.05-.14-.13-.02-.08.01-.15.09-.22a.2.2 0 0 1 .16-.06c1.04.1 2 .14 2.86.1a14.31 14.31 0 0 0 2.96-.44c.18.03.28.08.3.17.02.12-.04.2-.16.22l-.32.05c-.34.06-.6.12-.77.17-.28.1-.5.22-.65.39-.45.49-.91.94-1.39 1.36-.22.2-.18.27.11.23l.32-.03a.2.2 0 0 1 .18.11c.04.07.04.14 0 .2a52.33 52.33 0 0 1-4.69 6.07c-.54.57-.77.65-.7.24.02-.09.06-.17.12-.24a34.35 34.35 0 0 0 3.4-5 .08.08 0 0 0 0-.08.08.08 0 0 0-.06-.04Zm1.45.7c-.12.6.03 1.05.46 1.36.07.06.1.13.06.21-.38.96-.1 1.66.86 2.1.77.37 1.54.36 2.32-.01a.83.83 0 0 0 .33-.3.82.82 0 0 0 .15-.4.47.47 0 0 0-.12-.37c-.1-.1-.24-.17-.44-.18-.12 0-.2.04-.27.14l-.03.06c-.07.12-.03.2.1.25.07.03.14.09.18.17a.2.2 0 0 1-.02.21c-.16.21-.43.33-.83.35-.3.01-.61-.02-.93-.1a1.39 1.39 0 0 1-1.03-.93c-.17-.52-.04-.9.4-1.13.21-.12.21-.23-.01-.33a1.81 1.81 0 0 1-.63-.44.7.7 0 0 1-.16-.7c.28-.9.89-1.3 1.82-1.2.05.01.08 0 .1-.03a.1.1 0 0 0 .03-.1c-.07-.23-.1-.46-.07-.68 0-.07.04-.13.1-.17.1-.08.23-.14.39-.18.16-.05.32-.07.46-.07.38.02.58.18.62.48 0 .06.03.11.08.15.07.04.14.05.22.01a.13.13 0 0 0 .08-.1c.07-.35-.07-.6-.41-.73a1.73 1.73 0 0 0-1.69.18c-.26.17-.35.41-.28.73.02.09-.01.14-.1.15-.99.14-1.57.67-1.74 1.6Zm-5.52-1.86c.12 0 .22-.1.22-.22s-.1-.21-.22-.21-.22.1-.22.21c0 .12.1.22.22.22Zm1.57.11c-.1.07-.22.04-.3-.06-.08-.1-.07-.23.02-.3.08-.06.22-.03.3.07.07.1.06.23-.02.3Zm-2.39.13c.1-.08.13-.21.07-.3-.07-.08-.21-.1-.31-.02s-.13.21-.07.3c.07.09.2.1.31.02Zm3.7-.37c-.14-.02-.21.04-.24.17a.8.8 0 0 1-.02.1l-.03.09c0 .03 0 .05.03.07a.1.1 0 0 0 .07.03c.12 0 .22-.04.3-.11a.19.19 0 0 0 .05-.22.2.2 0 0 0-.17-.13Zm-2.53.56c.12.06.26.03.32-.08.06-.1 0-.23-.12-.3-.12-.06-.26-.03-.32.08-.05.1 0 .24.12.3Zm1.59.22c-.12.03-.23-.06-.26-.2-.03-.12.04-.25.16-.27.11-.02.23.06.26.2.02.13-.05.25-.16.27Zm7.47.08c-.05-.02-.09 0-.1.05l-.02.08c-.02.09 0 .15.09.19.18.09.39.13.62.14.14 0 .35 0 .64-.04l.41-.03c.2-.01.24.05.1.2-.16.15-.44.23-.84.24-.31 0-.6-.03-.88-.1a.75.75 0 0 1-.3-.14.71.71 0 0 1-.21-.24c-.1-.23-.05-.42.16-.58a.7.7 0 0 1 .68-.13.31.31 0 0 1 .22.3v.07c0 .18-.08.23-.25.15l-.32-.16Zm-9.66.16c-.08.05-.2 0-.28-.11-.07-.11-.07-.24.02-.3.08-.05.2 0 .28.12.07.1.06.24-.02.3Zm1.29.17c.12 0 .22-.1.22-.22s-.1-.22-.22-.22c-.13 0-.23.1-.23.22s.1.22.23.22Zm1.64-.06c0 .12-.1.22-.23.22a.23.23 0 0 1-.23-.22c0-.13.1-.23.23-.23.12 0 .23.1.23.23Zm-2.67.4c-.02.02-.05.02-.08 0a.08.08 0 0 1-.04-.05c-.05-.18-.02-.31.11-.38a.2.2 0 0 1 .2 0c.06.04.1.1.1.17.02.13-.06.2-.22.22a.11.11 0 0 0-.07.03Zm1.74-.1c0 .14-.11.24-.25.24a.24.24 0 0 1-.24-.23c0-.14.11-.24.24-.24.14 0 .25.1.25.24Zm-2.66.36c.05.11.17.17.27.14.09-.04.13-.17.08-.28-.05-.12-.17-.18-.26-.14-.1.04-.13.17-.09.28Zm7.64 1c.02 0 .03-.02.03-.04l-.04-1.12c0-.03-.01-.04-.03-.04h-.01c-.11 0-.2.05-.28.15-.07.1-.1.2-.1.33v.26c.01.13.05.24.13.33.09.09.18.13.3.12Zm-5.89-1.02c.04.09.04.17 0 .25-.03.05-.07.07-.13.08-.07 0-.13 0-.2-.02-.1-.03-.14-.1-.1-.2.07-.16.17-.24.31-.2.06 0 .1.03.12.09Zm1.25.02c-.05-.03-.08-.02-.11.02l-.2.3c-.02.03-.01.07.03.1l.03.02c.07.04.15.06.22.06.08 0 .13-.04.17-.09l.02-.04c.04-.05.04-.11.02-.18a.35.35 0 0 0-.15-.18l-.03-.01Zm-2.48.6c.12.07.26.04.33-.06.06-.1.01-.23-.1-.3-.12-.07-.26-.05-.33.05-.06.1-.01.24.1.3Zm9.22 1.32-.15-.02c-.17-.03-.26-.12-.3-.28-.05-.23.02-.41.2-.55.3-.23.68-.38 1.11-.43.4-.05.8-.03 1.23.07.04.01.07 0 .1-.01a.12.12 0 0 0 .05-.08v-.06c.01-.04 0-.09-.02-.12a.18.18 0 0 0-.11-.08 3.02 3.02 0 0 0-2.35.27c-.32.2-.52.42-.59.68a.68.68 0 0 0 .12.64c.15.18.36.29.63.3.3.03.61-.07.93-.29a.32.32 0 0 0 .15-.33c-.03-.32-.22-.45-.57-.37-.26.05-.34.2-.25.43.08.18.02.25-.18.23Zm-7.7-1.1c.13 0 .23-.11.23-.24s-.1-.23-.23-.23-.24.1-.24.23.1.23.24.23Zm-1 .37c.03.02.06.03.1.03l.18-.04c.05 0 .08-.04.08-.09.02-.1-.03-.2-.13-.28a.16.16 0 0 0-.19-.02.16.16 0 0 0-.1.16v.14c0 .04.02.07.05.1Zm1.66.18c.12-.08.16-.23.09-.33s-.23-.13-.35-.05c-.12.08-.16.23-.08.33.07.1.22.13.34.05Zm-2.4.2c-.11.03-.24-.05-.29-.17-.04-.13.02-.27.14-.3.11-.04.24.03.29.16.04.13-.02.26-.14.3Zm1.14-.16c-.04.13 0 .27.1.3.11.05.24-.03.29-.17.05-.13 0-.27-.1-.31-.11-.04-.24.04-.29.18Zm-.75.74c-.1-.05-.13-.2-.06-.33s.2-.2.3-.15c.1.05.13.2.06.33-.06.13-.2.2-.3.15Zm1.35-.2c-.09.12-.08.27.01.33.1.07.24.04.33-.08.09-.11.08-.26-.02-.33-.1-.06-.24-.03-.32.09Zm-1.96.3c0 .12-.1.22-.24.22a.23.23 0 0 1-.23-.23.23.23 0 0 1 .47 0Zm.99.15c-.01.14.07.25.18.26.11 0 .2-.1.22-.23 0-.14-.07-.26-.18-.26-.12-.01-.21.1-.22.23Zm-.77.65c-.11-.05-.14-.2-.08-.32.07-.12.2-.17.31-.12.1.05.14.2.07.32-.06.12-.2.17-.3.12Zm1.3-.13c-.05.12 0 .26.1.31.11.05.25 0 .3-.13.06-.12.02-.26-.09-.31-.1-.05-.24 0-.3.13Zm-.6.17a.16.16 0 0 0-.13 0 .31.31 0 0 0-.2.26c-.02.05 0 .1.05.13.06.05.13.07.2.07.08 0 .12-.03.15-.1a.47.47 0 0 0 .01-.26.15.15 0 0 0-.08-.1Zm-.84.43c.05.08.09.17.11.27.02.08-.01.13-.1.15l-.17.03c-.08.02-.13-.02-.15-.1-.05-.17 0-.3.14-.38a.13.13 0 0 1 .1-.02c.03 0 .05.03.07.05Zm1.51.38c0 .12-.1.22-.22.22a.22.22 0 0 1-.22-.22c0-.12.1-.21.22-.21s.22.1.22.21Zm-1.4.35c0 .14.1.25.23.24.11 0 .2-.12.2-.26-.02-.14-.12-.25-.23-.24-.12 0-.2.12-.2.26Zm1 .59c0 .12-.1.22-.23.22a.23.23 0 0 1-.23-.22c0-.13.1-.23.23-.23s.23.1.23.23Zm-1.36.37c.03.13.15.2.26.18.12-.03.18-.16.14-.3-.04-.12-.16-.2-.27-.17-.1.03-.17.16-.13.29Zm1 .53c0 .13-.1.23-.24.23a.24.24 0 0 1-.24-.23c0-.13.11-.24.24-.24.14 0 .24.1.24.24Zm-.62 2.08c.02.38.17.7.45.97.08.08.07.12-.05.12a3.9 3.9 0 0 1-3-1.2 1.06 1.06 0 0 1-.02-1.5c.1-.11.16-.2.2-.28a.09.09 0 0 0 0-.07.09.09 0 0 0-.05-.04l-.06-.03c-.11-.04-.2-.01-.28.08-.5.63-.55 1.25-.16 1.88.18.3.42.55.7.75.83.6 1.83.84 3 .72.48-.05 1-.16 1.56-.33.41-.13.92-.3 1.51-.53.3-.12.64-.22 1.02-.3a20.25 20.25 0 0 1 1.37-.23 3.35 3.35 0 0 1 1.85.28c.56.22 1 .36 1.28.4.49.07.91-.03 1.28-.28.02-.02.05-.02.07 0 .22.19.5.3.81.36a5.38 5.38 0 0 0 1 .04c.07 0 .14-.02.2-.07.62-.44.82-1.03.64-1.78-.03-.11-.1-.25-.2-.42a2.02 2.02 0 0 1-.16-.29.87.87 0 0 1-.07-.35c.01-.53-.06-1.03-.23-1.5a1.1 1.1 0 0 1-.03-.41c.02-.14.01-.25 0-.32 0-.05-.04-.07-.09-.06h-.05c-.1.03-.15.08-.16.18-.04.3-.16.55-.36.78-.16.16-.2.14-.16-.08.13-.68.38-1.07.75-1.2a.24.24 0 0 0 .11-.08c.03-.04.04-.09.01-.15-.02-.05-.06-.07-.12-.07-.34.04-.65.18-.91.4-.26.23-.44.5-.55.82l-.5 1.4c-.1.26-.18.26-.26 0-.16-.52-.15-1 .03-1.44.15-.37.09-.41-.2-.12-.18.2-.3.45-.38.75a4.08 4.08 0 0 0 .47 3.2.2.2 0 0 1 .01.22.2.2 0 0 1-.18.1l-.87.05c-.03 0-.05-.01-.06-.04a.06.06 0 0 1 0-.07c.1-.14.16-.28.2-.43a.21.21 0 0 0-.05-.19.67.67 0 0 0-.58-.27c-.16 0-.25.09-.29.24v.12c0 .18.09.22.24.13.08-.05.16-.05.22 0 .08.06.07.11-.02.14-.48.13-.69-.03-.63-.48.04-.27.22-.45.55-.52.07-.02.14 0 .2.04l.5.43.06.02.06-.04.03-.06a.22.22 0 0 0-.02-.25 11.3 11.3 0 0 0-1.36-1.6 1.6 1.6 0 0 0-1.31-.5c-.38.03-.83.22-1.33.57-.09.05-.17.05-.25-.02l-.1-.1c-.45-.37-.8-.63-1.07-.75-.47-.22-.87-.19-1.2.09l-.76.6-1 .8c-.35.32-.65.62-.88.91a1.3 1.3 0 0 1-.74.51 1.54 1.54 0 0 1-1.23-.25.83.83 0 0 1-.3-.48c-.05-.2-.01-.42.1-.66.06-.1.13-.17.23-.22.32-.14.5-.1.53.14.01.06 0 .12-.03.18l-.12.19c-.12.2-.07.28.17.26a.56.56 0 0 0 .27-.11.73.73 0 0 0 .2-.22c.12-.2.11-.4-.02-.56a.78.78 0 0 0-.7-.33c-.27.02-.5.14-.7.35a1.1 1.1 0 0 0-.34.76c0 .32.13.61.4.88.5.48 1.11.6 1.84.37H21c.02.02.02.03.02.05Zm12.09-2.45c-.19-.36-.12-.7.22-1.02a.1.1 0 0 1 .1-.02.1.1 0 0 1 .06.07c.21.7.24 1.43.09 2.17-.01.03-.03.05-.06.05h-.02c-.03 0-.04-.02-.04-.04.02-.58-.27-.84-.88-.8a.16.16 0 0 1-.16-.08c-.22-.36-.3-.7-.25-1a3 3 0 0 1 .5-1.13c.02-.02.03-.03.06-.02l.04.02v.02a1.95 1.95 0 0 0 .01 1.72c.03.07.1.12.17.14l.08.01c.1.03.13 0 .08-.1Zm-1.12-.12c.14.34.23.68.26 1 .05.43-.03.74-.24.92-.13.1-.25.1-.37-.02l-.11-.12c-.09-.1-.07-.16.05-.2.2-.07.33-.24.37-.51.03-.16.02-.41-.02-.76a5.15 5.15 0 0 1-.03-.3c0-.17.02-.18.1-.01Zm2.06 1.93c-.11.32-.32.57-.63.75-.06.04-.1.02-.13-.04a.97.97 0 0 0-.45-.5.13.13 0 0 0-.16.03.8.8 0 0 0-.3.46c-.04.2.06.34.28.44.06.03.11.02.15-.04.03-.05.05-.1.06-.16a.1.1 0 0 1 .05-.07.1.1 0 0 1 .1-.01c.07.03.14.04.22.03.06-.01.1.01.1.07.02.07.06.13.1.19.06.06.12.06.18 0 .35-.36.54-.74.56-1.13a.06.06 0 0 0-.04-.07h-.01c-.04 0-.07.02-.08.05Zm-7.9.17c-.51-.25-.92-.58-1.23-.99-.36-.48-.5-.97-.38-1.46a.1.1 0 0 1 .05-.06.11.11 0 0 1 .08-.02c.39.09.73.25 1.01.5.7.6 1.44 1.27 2.23 2 .08.07.06.1-.05.11l-1.15.05c-.18 0-.37-.04-.57-.13Zm3.45-.82a.78.78 0 0 0-.45.27c-.08.1-.15.26-.22.48-.02.09-.07.1-.14.03-.24-.25-.45-.5-.66-.73-.07-.1-.14-.2-.18-.33a1.04 1.04 0 0 1-.07-.38c0-.3.15-.5.42-.58a.48.48 0 0 1 .27 0c.09.01.17.06.23.12l.88.86c.13.13.1.22-.08.26Zm-7.14.97c-.13.08-.12.15.02.2.23.1.27.23.12.4a.4.4 0 0 1-.28.16.4.4 0 0 1-.31-.1.49.49 0 0 1-.18-.43.6.6 0 0 1 .24-.44c.14-.1.3-.17.5-.19.2-.01.38.02.54.1.17.1.28.23.33.4.07.29.02.53-.15.72-.17.2-.13.25.1.16l1.56-.54c.1-.04.1-.08.01-.13-.99-.48-1.45-1.24-1.39-2.28 0-.02 0-.04-.02-.05h-.06c-.77.62-1.4 1.2-1.89 1.78a.8.8 0 0 0-.14.85c.08.22.2.38.35.47.14.08.3.1.47.07a1.09 1.09 0 0 0 .76-.72c.06-.19 0-.34-.17-.45a.3.3 0 0 0-.14-.04c-.1-.01-.19.01-.27.06Zm1.8 1.82c.47-.19.82-.32 1.06-.4a6.66 6.66 0 0 1 3.17-.28c1.1.2 1.98.74 2.61 1.62.08.1.17.14.3.1l.05-.02a.13.13 0 0 0 .05-.09c0-.03 0-.07-.02-.1a4.27 4.27 0 0 0-3.01-1.88c-.58-.1-1.2-.1-1.84-.01a8.21 8.21 0 0 0-2.47.7c-.7.29-1.23.47-1.58.55-1.8.4-3.36-.11-4.68-1.53a.13.13 0 0 0-.1-.04.12.12 0 0 0-.1.06.18.18 0 0 0-.03.06c-.03.12 0 .21.08.3a5.08 5.08 0 0 0 5 1.47c.33-.07.83-.24 1.5-.51Zm1.1.44a8.9 8.9 0 0 1-2.76.88c-.94.1-1.9-.04-2.9-.44a.1.1 0 0 1-.04-.13l.02-.05c.05-.1.12-.13.22-.09 1.51.54 2.94.52 4.3-.04.39-.17.77-.34 1.13-.53a5.54 5.54 0 0 1 3-.47c.57.08 1.04.24 1.43.5.43.29.71.68.85 1.17.02.1 0 .17-.1.22l-.06.03a.09.09 0 0 1-.08 0 .09.09 0 0 1-.06-.06 2.1 2.1 0 0 0-.84-1.1c-.36-.22-.8-.37-1.3-.42a5.7 5.7 0 0 0-2.8.52Zm-7.74 1.52a.17.17 0 0 1-.12.06c-.37.05-.63-.05-.75-.31-.1-.22-.11-.5-.01-.85.14-.49.47-.72.98-.7.4.02.8.17 1.25.44.09.06.18.06.27.02l.06-.03a.06.06 0 0 0 .04-.05c0-.03 0-.05-.03-.07a3.7 3.7 0 0 0-.7-.43 2.56 2.56 0 0 0-.78-.24c-.6-.08-1.05.15-1.33.67a1.7 1.7 0 0 0-.18 1.06c.07.42.29.69.65.8.3.1.58.1.83-.01.3-.12.42-.34.4-.67a.27.27 0 0 0-.12-.2 1 1 0 0 0-.86-.17c-.16.04-.24.14-.24.3 0 .06.03.1.08.11.12.03.24.03.37-.02.1-.04.16-.01.2.08l.02.1c0 .04 0 .08-.03.11Zm9.84-.37c-.09.1-.09.2 0 .27.08.06.09.13.02.2-.1.12-.27.08-.5-.12a.25.25 0 0 1-.07-.29c.06-.18.17-.3.35-.39a.8.8 0 0 1 .51-.05c.19.04.33.13.43.27.1.16.13.36.08.59-.09.36-.3.6-.65.7-.31.08-.63.05-.97-.12-.34-.16-.57-.4-.66-.7-.12-.36-.02-.73.27-1.12.36-.47.94-.7 1.74-.67.12 0 .2.06.24.17l.02.05v.06a.06.06 0 0 1-.05.03c-.54.05-.93.12-1.18.23-.41.17-.64.46-.7.88-.03.19.03.36.16.51.13.14.3.24.5.3.2.07.39.07.56.01.18-.05.3-.18.36-.36.07-.22-.01-.39-.24-.5-.09-.04-.16-.03-.22.05Z" fill="#818285"/></svg>