<!-- by TradingView --><svg width="56" height="56" viewBox="0 0 56 56" xmlns="http://www.w3.org/2000/svg"><path fill="#FF4C33" d="M0 0h56v56H0z"/><path d="M24.32 11.43c.92-.17 1.7-.28 2.34-.35.86-.09 1.63-.1 2.3-.05 1.64.14 3.3.52 4.98 1.14 2.1.76 3.96 1.89 5.61 3.37a15.76 15.76 0 0 1 4.84 7.89c.3.9.47 1.88.55 2.94.07 1.12.08 2.12.02 3a13.47 13.47 0 0 1-.48 2.93l-.44 1.4a14.54 14.54 0 0 1-.71 1.76l-.34.73c-.13.26-.27.49-.4.68l-.42.6-.77 1.08c-.3.39-.59.72-.87 1l-1.26 1.23c-.2.2-.41.37-.64.52l-.44.34a16.17 16.17 0 0 1-6.34 2.95 18.57 18.57 0 0 1-7.5.04 14.37 14.37 0 0 1-3.71-1.27c-.85-.44-1.62-.88-2.29-1.31a17.96 17.96 0 0 1-4.4-4.37c-.32-.47-.72-1.19-1.2-2.15-.4-.8-.72-1.54-.93-2.23a18.3 18.3 0 0 1-.74-7.03 16.57 16.57 0 0 1 2.46-7.3c.25-.47.46-.82.62-1.04.6-.8 1.17-1.45 1.7-1.94.43-.4.98-.87 1.66-1.4a12.9 12.9 0 0 1 1.82-1.2 22.91 22.91 0 0 1 3.18-1.43c.7-.26 1.3-.43 1.8-.53Z" fill="#fff"/><path d="M26.36 19.73c.32.22.62.59.9 1.1.21.4.29.87.22 1.42-.04.25-.1.49-.19.72-.1.23-.21.43-.35.6a32.79 32.79 0 0 0-3.1 4.53c-.78 1.35-.94 2.44-.48 3.27.46.83 1.17 1.2 2.13 1.1.27-.03.5-.13.72-.3a3.9 3.9 0 0 0 .65-.76c.39-.48.57-1 .56-1.57 0-.19.04-.37.11-.57.09-.22.2-.37.35-.45a.6.6 0 0 1 .7.07c.2.15.33.37.4.65l.33 1.17c.27.9.44 1.58.53 2.03.04.24.13.6.26 1.06.14.5.23.87.28 1.13a16 16 0 0 0 .49 2.03c.06.2.15.38.27.55a.1.1 0 0 0 .11.05c.27-.04.4-.2.42-.47l.02-1.11c-.02-2.64-.07-5.28-.14-7.9a34.9 34.9 0 0 1 0-2.22c.01-.27.1-.54.26-.8.17-.29.38-.49.64-.59.24-.1.52-.1.84.02.3.11.53.27.72.49a8.55 8.55 0 0 1 1.46 8.96c-.16.37-.39.78-.68 1.21a8.01 8.01 0 0 1-3.65 3.24c-.92.46-1.97.73-3.15.81-.69.05-1.29.05-1.8-.02a5.78 5.78 0 0 1-1.7-.47c-.55-.26-.97-.46-1.24-.62a5.9 5.9 0 0 1-1.06-.79c-.63-.59-1.2-1.23-1.7-1.93-.23-.3-.42-.67-.6-1.1a17.1 17.1 0 0 1-.44-1.34c-.14-.46-.23-.99-.26-1.57-.02-.43 0-.96.04-1.59a6.88 6.88 0 0 1 .73-2.51 9.85 9.85 0 0 1 2.25-2.96.4.4 0 0 0 .08-.56c-.2-.3-.35-.54-.43-.71a1.97 1.97 0 0 1-.18-.81c0-.49.05-.9.17-1.24.14-.42.37-.76.7-1.02l.58-.41c.17-.12.4-.21.67-.27a7.06 7.06 0 0 1 .89-.11c.21-.02.43 0 .64.08.44.15.79.31 1.03.48Z" fill="#3A67DF"/><path d="M29.87 21.86c.19-.01.43.03.73.14.33.13.53.26.6.41a6.88 6.88 0 0 1 .44.97c.1.36.08.68-.06.96-.13.26-.33.53-.62.82-.36.37-.83.5-1.4.42-.52-.08-.9-.32-1.17-.73-.18-.28-.3-.6-.35-.97-.05-.38-.02-.73.1-1.06.08-.25.34-.48.76-.67a3.37 3.37 0 0 1 .97-.29Z" fill="#3A67DF"/><path d="M35.24 27.95c.62 1.58.67 3.22.15 4.9-.3 1-.94 2.05-1.9 3.17-.34.4-.74.67-1.2.84a.1.1 0 0 1-.1-.02.1.1 0 0 1-.05-.1c.08-2.22.09-4.42.02-6.6a128.13 128.13 0 0 1-.05-4.23c0-.13.05-.26.15-.39.1-.11.2-.2.34-.26.45-.18.85-.07 1.2.33a8.23 8.23 0 0 1 1.44 2.36ZM30.1 35.95l.02.08c.08.37.14.66.2.85.1.33.2.59.34.76.03.04.03.08 0 .12-.24.24-.51.4-.83.48l-.35.1-.79.19c-.3.05-.55.07-.76.04a.25.25 0 0 1-.16-.08.24.24 0 0 1-.07-.16c0-.13 0-.33.02-.6l.03-.45c0-1.42 0-2.8-.03-4.14-.01-.35 0-.88.03-1.6l.03-1.19v-.1c0-.21 0-.37.03-.45a.66.66 0 0 1 .24-.36.24.24 0 0 1 .2-.05c.08.01.13.05.17.12.22.38.38.8.46 1.25a42 42 0 0 0 .9 3.85c.14.5.25.94.33 1.34Z" fill="#fff"/><path d="M42.18 33.16a.73.73 0 0 0-.42.11c-.27.17-.5.26-.71.27a1 1 0 0 1-.7-.24.22.22 0 0 1-.09-.12 2.06 2.06 0 0 1 .23-1.52.14.14 0 0 1 .14-.08c.2.01.39.06.57.14.04.02.07.05.09.09.02.04.02.08.01.12l-.1.38c-.07.31.02.38.3.2l.1-.08c.24-.17.43-.28.56-.32a.75.75 0 0 1 .64.08c.48.29.49.94.03 1.96-.07.14-.17.18-.32.12l-.42-.18c-.15-.06-.18-.16-.1-.3.12-.17.2-.35.24-.55.01-.05 0-.07-.05-.08ZM13.91 33.27a.54.54 0 0 0-.04.25c0 .05.02.13.05.23l.04.18a.3.3 0 0 1-.03.2.3.3 0 0 1-.16.13c-.26.12-.44.06-.52-.17a2 2 0 0 1-.1-1.05c.07-.39.26-.67.59-.84.24-.13.49-.2.74-.22a1.49 1.49 0 0 1 1.25.53c.16.2.28.43.34.7a.21.21 0 0 1-.13.24l-.37.14a.2.2 0 0 1-.19-.02.36.36 0 0 1-.16-.23.32.32 0 0 0-.09-.16.92.92 0 0 0-.65-.27.64.64 0 0 0-.33.09.55.55 0 0 0-.24.27ZM40.83 35.35c.1.01.22-.02.32-.12a1.74 1.74 0 0 0 .29-.35.2.2 0 0 1 .12-.08c.22-.05.41.02.56.2.06.07.07.14.03.22-.11.21-.25.41-.41.6-.22.26-.42.4-.6.4-.56.06-.96 0-1.17-.17-.44-.32-.69-.68-.75-1.08-.05-.36.05-.8.3-1.3.05-.1.14-.13.24-.07l.39.2c.09.04.12.11.08.21l-.21.58a.13.13 0 0 0 0 .11c.03.04.06.06.1.07.08 0 .14-.02.19-.1.08-.1.14-.22.2-.34a.2.2 0 0 1 .1-.1.2.2 0 0 1 .16 0l.26.1c.12.04.15.12.1.23-.1.25-.2.49-.34.7a.06.06 0 0 0 0 .05c0 .02.02.03.04.04ZM16.2 35.03a.17.17 0 0 0-.11-.07c-.05 0-.09 0-.13.03l-1.49.93c-.16.1-.28.07-.37-.1l-.18-.33c-.09-.17-.05-.3.12-.4.38-.22.77-.46 1.15-.72.25-.17.47-.28.67-.3.18-.04.4-.01.63.06.27.08.45.2.54.36.2.36.23.72.07 1.08-.14.32-.4.58-.78.8-.42.24-.82.48-1.2.74-.07.04-.13.03-.17-.05l-.3-.6c-.02-.04-.01-.09.04-.12l.12-.08c.13-.08.22-.15.28-.2a.6.6 0 0 0 .18-.27c.1-.33.34-.47.74-.41.06 0 .12-.01.17-.05.1-.09.1-.19.02-.3ZM39.69 37.33a.67.67 0 0 0 .2-.28.16.16 0 0 1 .1-.1c.05-.01.1 0 .14.02l.53.33c.04.03.06.06.07.11 0 .05-.01.1-.05.13-.23.21-.45.44-.66.67-.14.15-.34.2-.6.16a1.25 1.25 0 0 1-.59-.28l-1.48-1.25c-.1-.08-.1-.15 0-.23l.48-.41a.2.2 0 0 1 .15-.06c.05 0 .1.03.14.07.38.4.8.78 1.28 1.13.1.07.2.07.3-.01ZM17.2 38.07c.04-.11.01-.13-.08-.06a7 7 0 0 0-.56.53c-.13.14-.26.14-.4.02l-.29-.25c-.17-.14-.17-.29 0-.43.47-.44.93-.9 1.39-1.37.12-.13.25-.22.39-.28.17-.08.32-.1.47-.05.2.05.29.19.28.4 0 .13-.06.32-.16.59a2.3 2.3 0 0 0-.1.26c-.07.34.02.38.25.13.12-.12.23-.26.33-.4.13-.2.27-.2.43-.04l.28.28c.14.15.13.29-.02.42-.18.16-.43.42-.76.78l-.52.56-.5.52a.1.1 0 0 1-.13.03c-.32-.11-.5-.31-.53-.6 0-.1 0-.23.04-.39a5.85 5.85 0 0 1 .2-.65ZM37.61 38.37l.6.26c.04.02.07.04.1.09.17.4.18.73.02 1a1.4 1.4 0 0 1-.28.35l-.38.3c-.24.18-.41.33-.52.44a.18.18 0 0 1-.14.05.18.18 0 0 1-.13-.06l-1.17-1.42a1.07 1.07 0 0 1-.25-.73c0-.26.1-.5.3-.7.32-.35.72-.44 1.2-.28a.7.7 0 0 1 .35.22 1.56 1.56 0 0 1 .18.36c.03.06.06.1.12.12ZM19.61 40.42c-.08.12-.14.26-.19.42-.04.13-.12.17-.25.1l-.54-.32c-.1-.05-.13-.14-.09-.25.06-.15.18-.34.37-.57l.24-.32.68-1.1c.09-.14.22-.21.4-.21.15 0 .3.04.47.13.05.03.08.08.08.14l-.03.9c0 .28.07.3.24.08l.35-.55c.06-.1.13-.1.22-.03l.42.36c.1.09.11.18.04.29-.39.6-.75 1.2-1.09 1.8-.16.29-.4.41-.7.38a.25.25 0 0 1-.22-.17c-.12-.3-.16-.62-.12-.99.04-.43-.05-.46-.28-.1Z" fill="#FF4C33"/><path d="M36.62 38.52c.02.25.06.42.13.52.1.15.26.21.48.18.04 0 .08 0 .1.03.1.07.14.18.1.3-.06.19-.17.21-.3.09a1.6 1.6 0 0 1-.35-.45 1.64 1.64 0 0 0-.22-.3l-.12-.13c-.08-.1-.08-.2 0-.3a.09.09 0 0 1 .11-.02c.04.02.06.04.07.08Z" fill="#fff"/><path d="m34.86 41.18-.39-.14c-.02 0-.04 0-.05.02-.02.01-.02.03-.01.05l.39.85c.02.04.02.08 0 .13a.15.15 0 0 1-.08.08l-.56.25c-.1.04-.16.02-.2-.06a25.1 25.1 0 0 1-.8-1.6 1.6 1.6 0 0 1-.08-.79c.05-.34.2-.55.44-.64l.2-.08.28-.12c.1-.02.2-.03.3 0 .6.14.99.48 1.15 1.02.05.16.15.39.3.68.13.23.21.42.26.55.05.14 0 .23-.13.28l-.46.15c-.18.06-.3 0-.34-.18l-.1-.31a.2.2 0 0 0-.12-.14ZM25.12 41.37a1.52 1.52 0 0 1-.46 1.09 1.56 1.56 0 0 1-1.7.33 1.56 1.56 0 0 1-.84-.83 1.52 1.52 0 0 1 .33-1.69 1.56 1.56 0 0 1 1.7-.33 1.56 1.56 0 0 1 .85.83c.08.2.12.4.12.6ZM32.02 40.88a.51.51 0 0 0-.33.18.46.46 0 0 0-.09.31c0 .11.04.23.1.34.07.11.14.2.24.28.07.05.16.08.27.1h.53c.04 0 .08.01.11.04s.05.07.06.11l.05.5c.01.1-.03.14-.12.15-.4.05-.78.06-1.14.04a.32.32 0 0 1-.18-.07 2.4 2.4 0 0 1-.74-.84c-.13-.3-.15-.7-.06-1.17.06-.33.45-.62 1.17-.86a.32.32 0 0 1 .23.01c.08.03.13.09.17.16.08.15.12.32.13.5 0 .07-.03.12-.09.14l-.3.08Z" fill="#FF4C33"/><path d="M34.04 40.35c.07.13.2.2.3.14.1-.05.1-.2.03-.33s-.2-.2-.3-.14c-.09.05-.1.2-.03.33Z" fill="#fff"/><path d="m27.37 41.44.09-.63c0-.07.04-.12.09-.17.04-.04.1-.07.17-.07l.48-.02c.1 0 .15.04.15.14-.03.68-.07 1.4-.14 2.14-.02.14-.05.28-.1.42a.58.58 0 0 1-.44.38c-.1.01-.2 0-.28-.05a.46.46 0 0 1-.2-.23 6.1 6.1 0 0 1-.3-.8.1.1 0 0 0-.09-.08.08.08 0 0 0-.1.06l-.14.78c-.01.09-.06.13-.15.13h-.6c-.1.01-.15-.04-.14-.14l.22-2.6c0-.1.05-.17.14-.22.21-.1.41-.12.6-.03.18.08.3.23.36.46.05.2.13.39.25.56.02.02.05.03.08.03.03-.01.05-.03.05-.06Z" fill="#FF4C33"/><path d="M22.95 41.25a.26.26 0 0 1 0-.21.26.26 0 0 1 .16-.14l.16-.06c.2-.07.38-.07.56-.02.17.06.29.16.34.31v.01a.5.5 0 0 1-.06.46.83.83 0 0 1-.44.34l-.16.05a.27.27 0 0 1-.2 0 .26.26 0 0 1-.15-.16l-.21-.58Z" fill="#fff"/></svg>