<!-- by TradingView --><svg width="56" height="56" viewBox="0 0 56 56" xmlns="http://www.w3.org/2000/svg"><path fill="#F0F3FA" d="M0 0h56v56H0z"/><path d="m15.9 34.17-.9.85c2.5 2.07 4.88 7.52 5.74 9.98h.72l-.72-3.37C23.44 44.8 25.98 45 28.8 45 31.59 45 39 43.32 39 34.87c0-8.44-7.15-9.29-10.84-10.61-3.7-1.32-6.56-4.05-6.56-6.11 0-2.07 1.08-5.7 5.95-5.7 3.9 0 6.41 3.16 7.19 4.75l.93-.48-2.72-3.82-1.3-3.9h-.77l.57 3.06a6.81 6.81 0 0 0-3.46-.83c-2.2 0-8.06.6-8.06 7.14 0 5.24 5.7 8.22 8.55 9.05 2.64.73 7.9 3.41 7.9 8.3 0 6.11-4.28 8.18-7.6 8.18-3.3 0-4.15-.66-6.67-2.58l-.02-.02c-2.03-1.56-4.98-5.4-6.2-7.13Z" fill="#343434"/><path d="M35 35.91a6.94 6.94 0 0 1-2 4.98 6.95 6.95 0 0 1-7.6 1.61A6.94 6.94 0 0 1 21 36.1a6.94 6.94 0 0 1 2-4.98 6.95 6.95 0 0 1 7.6-1.61 6.94 6.94 0 0 1 4.4 6.41Z" fill="#020305"/><path d="M29.72 29.5c.6.05 1.16.27 1.67.66.02.01.03.03.03.05 0 .02-.02.04-.03.05-.3.14-.6.32-.87.52a.2.2 0 0 1-.15.04.2.2 0 0 1-.14-.08c-.34-.42-.68-.8-1.01-1.17a.3.3 0 0 1-.07-.13l.01-.06a.06.06 0 0 1 .06-.02l.19.06c.13.04.24.07.31.07ZM26.27 29.5c.22-.03.41-.07.6-.12h.04l.02.05a.3.3 0 0 1-.1.19c-.4.36-.8.75-1.22 1.15-.02.02-.04.02-.06 0l-.98-.55v-.02c.5-.37 1.06-.6 1.7-.7ZM27.99 29.71v1.4a.2.2 0 0 1-.07.15.18.18 0 0 1-.15.04l-1.18-.15a.18.18 0 0 1-.16-.13.2.2 0 0 1 .05-.2l1.18-1.25a.19.19 0 0 1 .21-.04.2.2 0 0 1 .09.07.2.2 0 0 1 .03.11ZM28.4 31l.07-.98c0-.05.02-.09.05-.13a.24.24 0 0 1 .1-.08c.05-.02.1-.02.14 0 .05 0 .09.03.12.07l.72.85c.06.07.07.15.04.24a.22.22 0 0 1-.18.16l-.79.13a.22.22 0 0 1-.2-.06.24.24 0 0 1-.07-.2ZM24.52 30.5a5 5 0 0 0 .74.56c.03.02.05.05.06.08l-.01.1a7.4 7.4 0 0 0-.39 1.03 9.65 9.65 0 0 1-.37.96h-.05c-.67-.31-1.3-.67-1.89-1.07a.15.15 0 0 1-.06-.09.16.16 0 0 1 0-.1c.1-.2.24-.4.47-.64a9.77 9.77 0 0 1 .6-.57c.17-.15.31-.25.43-.3.19-.09.35-.07.47.04ZM32.64 32.67c-.17.02-.3-.03-.39-.14a.5.5 0 0 1-.1-.24l-.02-.14a.12.12 0 0 0-.1-.08c-.06-.01-.1 0-.13.05a.92.92 0 0 1-.26.26.35.35 0 0 1-.35 0l-.64-.95a.15.15 0 0 1 0-.17c.03-.07.09-.11.16-.14.34-.14.64-.31.91-.52.16-.12.32-.12.49 0a4 4 0 0 1 1.2 1.22c.05.08.07.17.05.26a.37.37 0 0 1-.13.24c-.17.15-.4.26-.7.35Z" fill="#8EA5C4"/><path d="M26.29 31.47c-.03 0-.06.03-.07.08v.08c.04.28.15.52.33.71.1.13.19.27.25.45.13.37.25.75.34 1.13-.25.04-.53.02-.84-.07l-1.13-.36a.12.12 0 0 1-.08-.07.13.13 0 0 1 0-.11l.79-1.74a.3.3 0 0 1 .3-.17c.08 0 .12.03.1.07Z" fill="#354E67"/><path d="M26.29 31.47c.19.13.4.21.65.26a4.96 4.96 0 0 0 .95.05l.06.03c.02.02.02.04.02.06l.03 1.99c0 .03-.02.05-.05.05l-.81.01c-.1-.38-.2-.76-.34-1.13a1.35 1.35 0 0 0-.25-.45c-.18-.2-.29-.43-.34-.71l.01-.08c.01-.05.04-.08.07-.08ZM29.89 31.46h.05c.2.1.34.21.43.36.3.47.52.96.66 1.47.03.12 0 .2-.12.23-.52.17-.92.28-1.2.34-.44.09-.85.11-1.23.07-.03 0-.04-.02-.04-.05V31.9c0-.03 0-.06.02-.08a.13.13 0 0 1 .08-.05c.47-.07.92-.17 1.35-.31Z" fill="#8EA5C4"/><path d="m32.64 32.67-.96.5a.07.07 0 0 1-.06 0 .07.07 0 0 1-.04-.05c-.05-.26-.15-.5-.3-.73.13.06.25.06.36-.01a.92.92 0 0 0 .26-.26.12.12 0 0 1 .12-.05c.06 0 .09.03.1.08l.04.14c.02.12.05.2.1.24.09.11.21.16.38.14Z" fill="#354E67"/><path d="M24.2 33.92c-.15.07-.25.18-.27.3-.02.1 0 .2.07.3.12.17.18.4.2.7 0 .2-.01.45-.06.75 0 .05-.02.08-.05.11a.16.16 0 0 1-.11.04l-2.55.01a.13.13 0 0 1-.13-.1c-.1-.4-.09-.89.02-1.45.1-.45.24-.93.46-1.43.21-.5.41-.7.6-.56.61.44 1.22.8 1.82 1.08.17.08.17.16 0 .25ZM34.8 36.14v-.23c0-.02 0-.03-.02-.04-.02 0-.04 0-.05.02l-.11.17a.09.09 0 0 1-.09.04c-.54-.03-.92-.3-1.16-.83a.68.68 0 0 1-.06-.3 2.03 2.03 0 0 1 .06-.35c.11-.52.17-1.12.17-1.8.07-.14.16-.22.25-.24.04-.01.07 0 .1.03 0 .02.03.05.07.09l.13.16c.18.37.31.74.4 1.11 0 .03.02.04.04.05a.1.1 0 0 0 .05 0h.02a22.43 22.43 0 0 1 .17 1.06c.06.31.07.66.03 1.06Z" fill="#8EA5C4"/><path d="M33.54 32.83a8.46 8.46 0 0 1-.23 2.14c0 .1.02.2.06.3.24.53.62.8 1.16.83.04 0 .06-.01.09-.04l.11-.17c.01-.02.03-.02.05-.02l.02.04v.23a1.6 1.6 0 0 1-.84.03 1.7 1.7 0 0 0-.52-.05c-.49.04-.97.03-1.46-.05a.14.14 0 0 1-.1-.06.14.14 0 0 1-.01-.11c.08-.4.1-.75.03-1.07-.05-.28-.1-.56-.13-.84a.27.27 0 0 1 .13-.27c.31-.19.64-.35 1-.49.1-.04.22-.1.33-.19.1-.08.2-.15.31-.21ZM27.07 34.42c.24.04.5.03.8-.03.03 0 .07 0 .1.03.03.02.04.06.04.1L28 35.88a.2.2 0 0 1-.06.14.2.2 0 0 1-.14.06c-.64.01-1.29 0-1.93-.01-.32-.01-.68.02-1.08.09-.06 0-.1 0-.15-.05a.17.17 0 0 1-.05-.15l.23-1.78c.02-.14.1-.2.23-.16.67.15 1.34.29 2.02.4Z" fill="#354E67"/><path d="M30.48 35.98c-.28-.15-.45-.27-.5-.37-.21-.36-.3-.74-.3-1.17l1.47-.42c.04-.01.08 0 .12.02.04.02.06.06.06.1.09.57.13 1.13.12 1.68 0 .17-.08.25-.23.24h-.13a3.62 3.62 0 0 1-.6-.08Z" fill="#8EA5C4"/><path d="M29.68 34.45c0 .42.09.8.3 1.16.05.1.22.22.5.37a6.6 6.6 0 0 1-1.84.07.19.19 0 0 1-.12-.06.2.2 0 0 1-.05-.14l.02-1.32c0-.02.01-.04.03-.05a.06.06 0 0 1 .05-.01c.39.06.76.06 1.11-.02ZM34.15 38.9a.98.98 0 0 1-.34.47.23.23 0 0 1-.26.02 6.56 6.56 0 0 1-.2-.14c-.23-.15-.4-.25-.54-.3l-1-.42a.3.3 0 0 1-.17-.34c.11-.43.16-.87.17-1.33 0-.2.1-.29.29-.28l2.52.08c.04 0 .06.01.09.04.02.02.03.06.03.1a9.3 9.3 0 0 1-.08.57c-.03.19-.09.37-.18.55a2.5 2.5 0 0 0-.27.9c0 .04-.02.07-.06.07Z" fill="#354E67"/><path d="M24.1 38.7a.88.88 0 0 1-.52-.1 3.25 3.25 0 0 1-.39-.3 2.12 2.12 0 0 1-.34-.4c-.13-.18-.3-.36-.51-.52-.11-.09-.2-.19-.28-.3-.17-.26-.14-.41.08-.46l1.92-.01a.13.13 0 0 1 .13.14c0 .23.03.46.09.7.08.36.13.7.13 1.06a.1.1 0 0 1-.04.09.76.76 0 0 1-.26.1Z" fill="#8EA5C4"/><path d="M31.4 36.73c.05.13.05.3-.01.51-.09.31-.14.62-.17.94 0 .04-.02.07-.05.09a.1.1 0 0 1-.1 0 6.68 6.68 0 0 0-2.33-.37c-.15 0-.23-.07-.24-.23l-.09-.79c-.02-.18.06-.27.23-.27.85-.02 1.72 0 2.63.03.06 0 .1.04.13.09ZM22.14 36.62c-.22.05-.25.2-.08.46.07.11.17.21.28.3.2.16.38.34.5.53a3.25 3.25 0 0 0 .74.7c.13.07.3.1.53.1l-.55.07a.09.09 0 0 0-.08.06.44.44 0 0 1-.24.28c-.29.14-.55.3-.79.47a.14.14 0 0 1-.1.02.14.14 0 0 1-.12-.11.1.1 0 0 0-.07-.08l-.06-.02c-.05-.02-.07-.05-.06-.1 0-.04 0-.06-.04-.08a.14.14 0 0 1-.09-.08l-.13-.36a.17.17 0 0 1 0-.08c.03-.3-.04-.55-.2-.73a.85.85 0 0 1-.2-.34 2.2 2.2 0 0 1-.07-.77.24.24 0 0 1 .23-.23h.6ZM27.97 37.73c0-.23 0-.42-.05-.58a.11.11 0 0 0-.09-.08.1.1 0 0 0-.1.02c-.3.27-.48.51-.56.73l-1.18.12a.55.55 0 0 0-.36.2.5.5 0 0 1-.87-.14 1.72 1.72 0 0 1-.17-.94v-.3c0-.04.02-.07.05-.1a.13.13 0 0 1 .1-.04l2.85.01c.11 0 .2.04.28.1.08.08.12.17.13.29.02.24.01.47-.03.7Z" fill="#354E67"/><path d="M27.97 37.73c-.02.1-.1.14-.24.14a3 3 0 0 1-.56-.05c.08-.22.26-.46.55-.73a.1.1 0 0 1 .11-.02c.05.01.07.04.09.08.04.16.06.35.05.58Z" fill="#8EA5C4"/><path d="M28.46 39.64c.05.11.13.2.25.25.05.02.1.02.15 0a.16.16 0 0 0 .08-.14c.03-.47-.1-.9-.37-1.26a.07.07 0 0 0-.05-.03.1.1 0 0 1-.04-.01c-.01-.03 0-.05.03-.07a8.23 8.23 0 0 0 .3-.02c.27-.01.47 0 .6.05l.4.06c.2.03.37.06.47.1.2.08.38.15.56.2.05.02.09.05.11.1a.2.2 0 0 1 0 .15 7.06 7.06 0 0 1-1 1.83.18.18 0 0 1-.19.07 5.4 5.4 0 0 0-1-.1.28.28 0 0 1-.21-.1.3.3 0 0 1-.09-.2v-.88Z" fill="#354E67"/><path d="M27.89 39.68a5.42 5.42 0 0 0-.65-.32 1.5 1.5 0 0 0-.63-.13c-.34 0-.66-.04-.96-.15a.3.3 0 0 1-.15-.1.17.17 0 0 1-.02-.16c.01-.05.05-.1.1-.11a.72.72 0 0 0 .24-.16 7.57 7.57 0 0 1 2.07-.12.1.1 0 0 1 .07.03.1.1 0 0 1 .03.08l-.1 1.14ZM28.48 38.45a.1.1 0 0 0 .04.01c.02 0 .04.01.05.03.28.37.4.79.37 1.26 0 .05-.03.1-.08.13a.15.15 0 0 1-.15.01.49.49 0 0 1-.25-.25l.02-1.19Z" fill="#8EA5C4"/><path d="M25.82 38.55a.73.73 0 0 1-.24.16.16.16 0 0 0-.1.11c-.02.06 0 .1.02.15a.3.3 0 0 0 .15.11c.3.1.62.16.96.15.2-.01.41.03.63.13.21.08.42.2.65.32l.1.98c0 .06-.01.11-.06.15a.15.15 0 0 1-.16.03 1.64 1.64 0 0 0-.71-.1.17.17 0 0 0-.1.04.6.6 0 0 1-.27.15c-.1.03-.2 0-.28-.08a5.9 5.9 0 0 1-1.07-1.6c-.04-.1-.1-.18-.15-.25a.15.15 0 0 1-.03-.14.14.14 0 0 1 .1-.1l.56-.21ZM32.24 41.13l.02.01-.01.02a.75.75 0 0 1-.42.14.08.08 0 0 1-.07-.05c-.02-.03-.04-.03-.05 0a.14.14 0 0 1-.13.08c-.02 0-.05 0-.06-.03-.07-.07-.15-.1-.25-.07a.07.07 0 0 0-.05.03c-.03.06-.08.07-.13.04l-.36-.16c-.15-.06-.2-.18-.15-.34.03-.1.1-.24.23-.42l.1-.15c.2-.38.38-.78.52-1.2a.13.13 0 0 1 .07-.08.13.13 0 0 1 .11 0c.53.23 1.07.52 1.61.87.07.04.1.1.12.17.02.08 0 .15-.04.21-.08.13-.2.24-.34.33a.2.2 0 0 0-.08.08l-.09.17a.1.1 0 0 1-.09.05.12.12 0 0 0-.1.05c-.08.1-.17.13-.28.1l-.05.01a.18.18 0 0 0-.05.13l.02.01ZM24 41.38c-.1-.12-.2-.21-.27-.26-.12-.1-.24-.12-.34-.08a.08.08 0 0 1-.09-.02 6.43 6.43 0 0 1-.42-.48 1.16 1.16 0 0 1-.2-.32c-.05-.13-.01-.25.1-.35.12-.1.34-.23.64-.37l.27-.13.47-.2.48-.12a.2.2 0 0 1 .15.02c.05.03.08.07.1.13.13.52.38.99.75 1.38.2.21.17.38-.07.52-.23.13-.48.25-.72.37-.21.1-.41.13-.6.1a.23.23 0 0 1-.14-.07 4.16 4.16 0 0 1-.11-.12ZM27.1 41.8l-.06-.16a.32.32 0 0 1 .03-.3.3.3 0 0 1 .26-.16h.3a.33.33 0 0 1 .32.29l.07.5a.33.33 0 0 1-.18.35.31.31 0 0 1-.37-.08l-.3-.34a.33.33 0 0 1-.06-.1ZM29.16 41.27c.05 0 .08.03.1.08.03.04.03.08.02.12v.03a1.4 1.4 0 0 1-.27.55c-.11.14-.22.2-.33.17-.1-.03-.17-.13-.2-.31-.04-.19-.03-.4.03-.62v-.02a.16.16 0 0 1 .2-.13l.45.13ZM25.61 42.26l-.19-.06a1.49 1.49 0 0 1-.27-.1.13.13 0 0 1-.07-.1c0-.05.01-.1.05-.12.14-.12.3-.23.48-.33.16-.1.3-.14.41-.12.13.02.24.12.32.28l.02.02.75.68a.1.1 0 0 1 .04.1.1.1 0 0 1-.06.08c-.1.05-.2.07-.3.06a.73.73 0 0 1-.28-.07l-.45-.2a.95.95 0 0 0-.23-.06 1.02 1.02 0 0 1-.22-.06ZM30.02 42.46c-.06.01-.13.04-.23.08l-.27.09c-.1.01-.2 0-.3-.05a.08.08 0 0 1-.06-.07c0-.04.02-.07.05-.08a1 1 0 0 0 .46-.56.7.7 0 0 1 .22-.31c.09-.07.2-.11.3-.12.12 0 .22.02.33.08.11.06.2.15.28.27.04.07.05.15.02.24a.25.25 0 0 1-.18.17 1.5 1.5 0 0 0-.34.13.91.91 0 0 1-.28.13Z" fill="#354E67"/></svg>