<!-- by TradingView --><svg width="56" height="56" viewBox="0 0 56 56" xmlns="http://www.w3.org/2000/svg"><path fill="#F0F3FA" d="M0 0h56v56H0z"/><path d="M13 15.9c0-1.6 1.34-2.9 3-2.9h24c1.66 0 3 1.3 3 2.9v24.2c0 1.6-1.34 2.9-3 2.9H16c-1.66 0-3-1.3-3-2.9V15.9Z" fill="#F89A78"/><path d="M14 16.71c0-1.5 1.25-2.71 2.8-2.71h22.4c1.55 0 2.8 1.21 2.8 2.71v22.58c0 1.5-1.25 2.71-2.8 2.71H16.8a2.76 2.76 0 0 1-2.8-2.71V16.71Z" fill="#D30300"/><path d="m28.89 22.41-.08 2.33c-2.35-1.2-4.59-2.31-6.71-3.31a3.63 3.63 0 0 1-1.89-1.86A2.51 2.51 0 0 1 20.5 17c.33-.48.8-.86 1.38-1.14a9.1 9.1 0 0 1 3.24-.68c.7-.02 1.35.02 1.93.11 1.57.27 2.3.9 2.22 1.9a1.25 1.25 0 0 1-.81 1.06c-.26.1-.54.15-.84.17-.4.02-.51-.15-.33-.5.58-1.12.31-1.84-.82-2.18a5.34 5.34 0 0 0-3.88.38c-.28.14-.52.32-.72.56-.18.22-.3.47-.35.75-.12.6.07 1.13.59 1.56.6.5 1.42.96 2.47 1.39a48.7 48.7 0 0 1 4.32 2.02Z" fill="#FBD788"/><path d="M28.23 35.01c-.2-.37-.27-.75-.2-1.15.36-.2.55-.47.56-.79.07-2.52.03-5.32-.11-8.4l.07-2.3c.08-.38.1-.72.07-1.04a.27.27 0 0 1 .07-.22.3.3 0 0 1 .22-.11h9.76c.21 0 .32.1.32.32l.01 2.36c0 .25-.13.32-.38.32h-6.36c-.27 0-.39.2-.35.45l.47 3.18c.04.24.18.37.43.37h5.97c.14 0 .2.05.2.2v2.48c0 .07-.02.13-.07.18-.04.04-.1.14-.17.14h-5.8c-.6 0-.92.22-.92.82v5.94c0 .07-.03.12-.08.17a.25.25 0 0 1-.18.07l-2.94-.04a.2.2 0 0 1-.16-.07.2.2 0 0 1-.06-.15v-2.66c0-.06-.02-.1-.06-.14-.1-.09-.2-.06-.3.07Z" fill="#EFEFEE"/><path d="M29.82 23c.3.5.91.66 1.36.39.46-.28.57-.9.27-1.38-.3-.48-.92-.65-1.37-.38-.45.28-.57.9-.26 1.38ZM32.96 23.58c.57 0 1.03-.46 1.03-1.02s-.46-1.02-1.03-1.02c-.58 0-1.04.46-1.04 1.02s.46 1.02 1.04 1.02ZM35.3 23.57c.58 0 1.04-.45 1.04-1.02 0-.56-.46-1.01-1.03-1.01-.57 0-1.04.45-1.04 1.01 0 .57.47 1.02 1.04 1.02ZM37.7 23.6c.59 0 1.05-.46 1.05-1.03 0-.56-.46-1.02-1.04-1.02-.58 0-1.05.46-1.05 1.02 0 .57.47 1.03 1.05 1.03Z" fill="#D30300"/><path d="M31.05 27.18c-.2-.55-.53-.83-1.03-.84l-.45-1.72c-.05-.21.03-.35.24-.4l1.01-.31a.57.57 0 0 1 .5.07c.17.1.25.25.27.44.04.56-.18 1.01-.66 1.35-.12.09-.15.2-.07.33.17.32.24.68.2 1.08ZM28.36 33.75c-.07.39 0 .76.21 1.13a10.55 10.55 0 0 1-5.24.75 8.99 8.99 0 0 1-2.61-.7 6.65 6.65 0 0 1-2.16-1.49 4.77 4.77 0 0 1-1.18-2.07 4.08 4.08 0 0 1 0-2.16c.2-.7.57-1.34 1.1-1.9a5.5 5.5 0 0 1 2.09-1.34c.47-.17 1.03-.29 1.68-.35a8.54 8.54 0 0 1 2 .06c1.58.23 2.64.82 3.19 1.78.25.43.36.87.35 1.31 0 .41-.13.8-.36 1.17-.23.35-.53.65-.92.9-.4.24-.83.41-1.3.5a5.33 5.33 0 0 1-2.3-.11c-.97-.26-1.48-.73-1.55-1.41-.07-.69.31-1.18 1.15-1.5.23-.08.35 0 .35.24v.15c0 .48.03.8.11.97.13.27.43.45.9.54.57.1 1.07.04 1.51-.2.4-.23.68-.55.83-.98.15-.42.13-.83-.07-1.23-.2-.44-.6-.77-1.16-1a6.25 6.25 0 0 0-3.55-.35 4.54 4.54 0 0 0-2.96 1.82 3.12 3.12 0 0 0-.48 2.41c.07.44.2.84.4 1.2.21.4.47.7.77.94 2.67 2.05 5.74 2.36 9.2.92Z" fill="#FBD788"/><path d="M30.02 26.34c.5 0 .84.29 1.03.84.14.3.2.49.19.53a.7.7 0 0 1-.55.51.72.72 0 0 1-.73-.22c-.53-.55-.51-1.1.06-1.66ZM35.32 30.52c.57 0 1.03-.45 1.03-1 0-.57-.46-1.02-1.03-1.02-.56 0-1.02.45-1.02 1.01s.46 1.01 1.02 1.01ZM37.7 30.52c.59 0 1.06-.46 1.06-1.03 0-.57-.47-1.03-1.05-1.03-.58 0-1.05.46-1.05 1.03 0 .57.47 1.03 1.05 1.03ZM29.62 29.38c-.08.55.27 1.05.77 1.11.5.07.98-.32 1.05-.87.07-.55-.28-1.05-.78-1.11-.5-.07-.97.32-1.04.87ZM32.83 28.76c0-.05.03-.1.07-.14.05-.04.1-.06.15-.06h.1c.23.02.43.1.58.28.16.18.23.39.22.63v.21c-.01.24-.1.44-.27.6a.77.77 0 0 1-.59.25H33a.2.2 0 0 1-.2-.22l.04-1.55ZM30.2 32.58c-.03.04-.06.05-.1.02l-.03-.01a.91.91 0 0 1-.44-.55.86.86 0 0 1 .08-.7l.07-.1a.87.87 0 0 1 .56-.42.91.91 0 0 1 .7.1l.03.01c.05.02.06.06.03.1l-.9 1.55ZM31.15 33.45c.06-.05.12-.05.17.02l.1.12a.9.9 0 0 1-.16 1.3l-.09.06a.9.9 0 0 1-.69.19.93.93 0 0 1-.62-.36l-.1-.12c-.05-.06-.05-.12.02-.17l1.37-1.04ZM30.58 37.48c.57 0 1.03-.45 1.03-1.01s-.46-1.01-1.03-1.01c-.57 0-1.03.45-1.03 1.01s.46 1.01 1.03 1.01Z" fill="#D30300"/></svg>