<!-- by TradingView --><svg width="56" height="56" viewBox="0 0 56 56" xmlns="http://www.w3.org/2000/svg"><path fill="url(#aisxekb4g)" d="M0 0h56v56H0z"/><ellipse cx="28" cy="28" rx="22" ry="10" fill="#FE0000"/><path fill-rule="evenodd" d="M12 29.34h2.08v1.77c0 .26.2.46.46.46.25 0 .46-.2.46-.46V30.1a2.04 2.04 0 0 0-.92-1.25c-.82-.54-2.08-1.38-2.08-2.36v-1.73c.01-.58.54-1.76 2.56-1.76 2.01 0 2.46 1.06 2.44 1.59v1.4h-2v-1.05c0-.24-.2-.44-.43-.44-.24 0-.43.2-.43.44v.68a1.41 1.41 0 0 0 .77 1.07c.66.4 2.09 1.3 2.09 2.38v2.23c.01.56-.37 1.7-2 1.7h-1.2c-.6-.05-1.8-.46-1.8-1.7v-1.96ZM24 23h-2.5v4h-1v-4H18v10h2.5v-4h1v4h4.87l.1-1.7h1.02l.16 1.7h2.29l-1.37-10h-3.34L24 33V23Zm17 0h-5.5v2H37v7.84h2.5V25H41v-2Zm3 0h-2.5v10H44V23Zm-16.68 6.46-.44-4.74-.3 4.74h.74ZM30 23h2.5v2.81l.8-2.8h2.17l-1.32 4.44L35.61 33h-2.3l-.81-2.87V33H30V23Z" fill="#fff"/><defs><linearGradient id="aisxekb4g" x1="10.42" y1="9.71" x2="68.15" y2="76.02" gradientUnits="userSpaceOnUse"><stop stop-color="#1A1E21"/><stop offset="1" stop-color="#06060A"/></linearGradient></defs></svg>