<!-- by TradingView --><svg width="56" height="56" viewBox="0 0 56 56" xmlns="http://www.w3.org/2000/svg"><path fill="#F0F3FA" d="M0 0h56v56H0z"/><path d="M33.7 18.75a.59.59 0 0 0-.24-.03l.23-.86c.09-.31-.03-.47-.36-.47l-11.6.09c-.08-.08-.1-.2-.07-.34 0-.04.02-.07.05-.1a.16.16 0 0 1 .11-.04c4.1.01 8.18.02 12.28.01.07 0 .11.03.14.1l-.01.1c-.16.52-.34 1.03-.53 1.54Z" fill="#02317A"/><path d="m33.46 18.72-1.43 3.47c-.13.31-.21.6-.27.84-.05.28-.15.54-.3.79a.3.3 0 0 0-.05.17c0 .24-.1.4-.3.5-.06.01-.1 0-.13-.05a10.57 10.57 0 0 0-1.73-2.1.09.09 0 0 1-.03-.1.09.09 0 0 1 .09-.06c.15 0 .25-.03.32-.08.09-.06.13-.16.13-.3l-.1-3.18c0-.05-.02-.06-.06-.06l-.23.04c.02-.06 0-.11-.04-.13-.03-.02-.07-.02-.11 0l-.2.06c-.18-.1-.41-.17-.7-.17-.85-.03-1.46.26-1.8.86-.22.4-.33.87-.31 1.42.02.5.13.98.34 1.44.04.1.1.19.19.26.02.02.03.05.02.09a.09.09 0 0 1-.06.06c-.46.1-.83.29-1.12.56-.26.24-.48.59-.68 1.04l-.05.04c-.02 0-.04 0-.06-.02a3.04 3.04 0 0 1-.63-.77.09.09 0 0 0-.06-.04c-.03 0-.06 0-.08.02l-.1.1-2.2-5.94 11.61-.09c.33 0 .45.16.36.47l-.23.86Z" fill="#1A539A"/><path d="M29.02 18.53a.56.56 0 0 1-.25.17c-.1.04-.2.04-.3 0a1.22 1.22 0 0 0-1.13.15c-.4.27-.64.78-.72 1.52-.05.48.02.92.22 1.31.18.36.47.7.87 1l.27.2c.38.3.66.51.84.67.3.26.56.51.74.75.48.62.66 1.28.53 1.98a3.27 3.27 0 0 1-1.05 1.8c-.3.24-.6.4-.91.48-.35.09-.7.06-1.03-.08-.38-.16-.7-.39-.95-.68-.26-.3-.44-.64-.53-1.03a4.18 4.18 0 0 1-.07-1.64c.1-.6.31-1.08.65-1.45.19-.2.41-.32.67-.35.28-.03.51.06.7.26.25.29.34.62.26 1-.05.25-.2.57-.45.98-.08.13-.04.2.1.22h.37a.3.3 0 0 0 .25-.16c.18-.32.28-.64.32-.96.05-.37 0-.7-.16-.98a1.52 1.52 0 0 0-2.5-.32 2.2 2.2 0 0 0-.6 1.12c-.04.25-.06.87-.05 1.85l-1.19-2.92.1-.1a.08.08 0 0 1 .08-.02c.03 0 .05.01.06.04.17.3.38.55.63.77.02.02.04.02.06.02.02 0 .04-.02.05-.04.2-.45.42-.8.68-1.04a2.3 2.3 0 0 1 1.12-.56c.03 0 .05-.03.06-.06.01-.04 0-.07-.02-.1a.78.78 0 0 1-.2-.25c-.2-.46-.31-.94-.33-1.44-.02-.55.09-1.02.31-1.42.34-.6.95-.89 1.8-.86.29 0 .52.06.7.17Z" fill="#061634"/><path d="m29.37 18.6.03 3.2c0 .15-.07.24-.23.25l-.14.02c-.17.02-.26-.06-.25-.24.04-.75.03-1.5-.02-2.28a.15.15 0 0 0-.05-.1c-.28-.25-.6-.33-.96-.25-.23.05-.38.18-.43.38-.1.33-.14.65-.15.97 0 .42.08.74.24.95.14.19.33.37.57.56l.68.47a7 7 0 0 1 .88.63 3.3 3.3 0 0 1 1.01 3.56 3.38 3.38 0 0 1-1.18 1.87c-.6.43-1.3.6-2.14.48-.43-.06-.72-.2-.89-.42-.23-.3-.5-.61-.81-.92-.25-.4-.4-.87-.42-1.39-.01-.98 0-1.6.05-1.85.05-.36.26-.73.6-1.12a1.52 1.52 0 0 1 2-.24c.21.14.38.33.5.56.15.29.2.61.16.98a2.6 2.6 0 0 1-.32.96.3.3 0 0 1-.25.16 1.8 1.8 0 0 1-.36 0c-.15-.02-.19-.1-.11-.22.25-.4.4-.73.45-.98.08-.38 0-.71-.26-1a.77.77 0 0 0-.7-.26c-.26.03-.48.14-.67.35-.34.37-.55.86-.65 1.45-.08.54-.06 1.09.07 1.64.1.4.27.74.53 1.03.25.29.57.52.95.68.34.14.68.17 1.03.08.32-.07.62-.24.9-.49a3.27 3.27 0 0 0 1.06-1.79 2.4 2.4 0 0 0-.53-1.98c-.18-.24-.43-.49-.74-.75a19.3 19.3 0 0 0-1.11-.87c-.4-.3-.7-.64-.87-1a2.3 2.3 0 0 1-.22-1.31c.08-.74.32-1.25.72-1.52.34-.23.72-.29 1.13-.15.1.04.2.04.3 0 .1-.03.18-.09.25-.17l.2-.06c.04-.02.08-.02.11 0 .05.02.06.07.04.13Z" fill="#F3D69E"/><path d="M33.46 18.72c.09-.01.17 0 .24.03l-2.01 5.8-.55 1.5-1.14 3c-.72.2-1.42.32-2.1.4-.25.03-.55.02-.9-.03-.3-.05-.61-.08-.93-.09l-.54-1.6c.3.31.58.62.81.92.17.22.46.36.89.42a2.8 2.8 0 0 0 2.14-.48c.55-.42.95-1.04 1.18-1.87a3.3 3.3 0 0 0-1.01-3.56 7 7 0 0 0-.88-.63 11 11 0 0 1-.68-.47 3.1 3.1 0 0 1-.57-.56 1.52 1.52 0 0 1-.24-.95c0-.32.05-.64.15-.97.05-.2.2-.33.43-.38.36-.08.68 0 .96.25.03.03.05.06.05.1.05.77.06 1.53.02 2.28 0 .18.08.26.25.24l.14-.02c.16-.01.23-.1.23-.26l-.03-3.19.23-.04c.04 0 .06.01.07.06l.09 3.17c0 .15-.04.25-.13.31a.58.58 0 0 1-.32.08.09.09 0 0 0-.09.06c-.01.04 0 .08.03.1.68.64 1.25 1.34 1.73 2.1.03.05.07.06.12.04.21-.08.32-.25.31-.5a.3.3 0 0 1 .05-.16c.15-.25.25-.52.3-.79.05-.25.14-.53.27-.84l1.43-3.47Z" fill="#061634"/><path d="M27.98 21.5a1.1 1.1 0 0 1-.38-.72c-.09-.77.1-1.11.54-1.04.06 0 .1.04.15.08.04.05.06.1.06.17l.07 1.52c.01.26-.08.3-.28.13l-.16-.14Z" fill="#02317A"/><path d="M22.92 22.15c-.25.05-.32.18-.24.41.03.06.02.11 0 .16a.21.21 0 0 1-.1.12l-.48.23a.72.72 0 0 0-.69 0l-.06.06v.1a.37.37 0 0 0-.1.12l-.15-.1-1.3-2.08c-.04-.04-.03-.08 0-.12a.16.16 0 0 1 .12-.05c.86.02 1.67.02 2.42.02.06 0 .12.01.16.05.05.04.09.08.1.14l.32.94ZM35.35 22.42a.34.34 0 0 1-.22-.15.05.05 0 0 0-.05-.03.05.05 0 0 0-.04.03c-.08.17-.18.31-.31.43a.14.14 0 0 1-.1.03c-.03 0-.06 0-.08-.03a.44.44 0 0 0-.5-.04.46.46 0 0 0-.14.13.5.5 0 0 1-.08.1.22.22 0 0 1-.14.04.44.44 0 0 1-.38-.19.18.18 0 0 0-.1-.07.84.84 0 0 0-.38-.01l.52-1.5a.16.16 0 0 1 .16-.12l2.48-.03c.06 0 .1.03.13.09.02.04.01.1-.03.16-.24.4-.49.79-.74 1.16Z" fill="#AC1313"/><path d="m22.92 22.15.3.94-.01.07a.06.06 0 0 0 0 .05c-.03-.04-.06-.05-.1-.05a4.2 4.2 0 0 0-1.58.53.1.1 0 0 1-.1 0 .1.1 0 0 1-.05-.06.91.91 0 0 0-.13-.28c.02-.05.06-.1.1-.13.06.1.14.13.24.1.21-.06.38-.15.51-.25l.48-.23a.21.21 0 0 0 .1-.12.21.21 0 0 0 0-.16c-.08-.23 0-.36.24-.41ZM35.35 22.42c-.12.3-.27.56-.47.78l-.28.51a.1.1 0 0 1-.07.06.1.1 0 0 1-.09-.02c-.35-.21-.73-.4-1.14-.54-.27-.1-.47 0-.6.26-.02.05-.02.12.02.2l-.06.02-.13-.11.3-.92a.84.84 0 0 1 .38.01l.1.07c.1.13.22.2.38.19.05 0 .1-.02.14-.05a.5.5 0 0 0 .08-.1.44.44 0 0 1 .63-.08c.03.02.06.03.1.03l.09-.03c.13-.12.23-.26.31-.43.01-.02.02-.03.04-.03.03 0 .04 0 .05.03.05.07.12.12.22.15Z" fill="#6F0706"/><path d="M22.1 23.07c-.13.1-.3.19-.5.25-.1.03-.19 0-.24-.1a.16.16 0 0 1 0-.09c0-.02.02-.04.05-.06a.72.72 0 0 1 .69 0ZM34.57 23.3c-.01.04-.03.05-.07.04l-.08-.02a1.15 1.15 0 0 1-.31-.13c-.09-.05-.12-.1-.11-.14v-.02c.01-.03.07-.06.16-.06.1 0 .21.01.34.05l.08.02c.04 0 .05.03.04.06l-.05.2Z" fill="#C2AC7A"/><path d="M23.2 23.2c-.1.16-.04.3.15.43a1 1 0 0 0-.25.05.95.95 0 0 0-.25.11c-.17.12-.22.26-.12.4.05.09.13.13.22.13.29.01.45-.14.5-.45.15.19.26.39.32.6l-.4.2a.15.15 0 0 0-.1.12c0 .09.01.18.06.27.03.06.08.08.13.06l.44-.15c.06.07.1.2.11.35-.18-.01-.3.04-.38.16a.14.14 0 0 0-.01.12l.12.38c-.04.19-.02.38.03.56 0 .02.01.03.03.02.02 0 .03-.01.02-.03-.04-.16.02-.26.17-.29-.04.23.02.38.2.46.12.05.15.14.08.25-.11.2-.12.34-.02.44.04.04.09.05.14.03.1-.04.16-.04.2 0l-.33 1.57c-.21.1-.32.17-.31.24a.4.4 0 0 0 .15.3l-.79 1.15a6.14 6.14 0 0 1-3.5 1.2 2.1 2.1 0 0 1-.87-.14c-.27-.12-.48-.3-.64-.56l-.34-.52c0-.33-.09-.65-.24-.96a11.36 11.36 0 0 0-.08-3.27 1.65 1.65 0 0 1-.05-.53c.01-.06.04-.1.1-.13.05-.02.1-.02.14 0 .48.27.82.65 1.02 1.13.08.2.15.42.21.7a15.08 15.08 0 0 1 .17 1 3 3 0 0 0 .64 1.43c.32.4.73.73 1.22 1 .16.08.33.08.49 0 .14-.07.27-.2.4-.37a2.66 2.66 0 0 0 .43-1c.01-.07-.03-.13-.13-.17.21-.5.23-1.02.06-1.55-.05-.18-.11-.35-.18-.52.15-.04.24-.1.27-.16h.2c.04 0 .06-.02.07-.07.05-.18.01-.3-.11-.34.14-.76-.08-1.24-.64-1.45a.5.5 0 0 0-.48-.16c-.07.01-.1.05-.12.12a.8.8 0 0 0 .04.38c.01.04.04.07.08.09.1.03.22.03.34.01 0 .01.01.04.06.07-.11.21-.07.38.11.5a.89.89 0 0 0-.24.3 4.58 4.58 0 0 0-1.04-1.47 2.06 2.06 0 0 0-1.48-.64c-.45 0-.9-.02-1.33-.07-.09-.04-.12-.1-.1-.19a.1.1 0 0 1 .04-.06.1.1 0 0 1 .07-.02l.37.08c.06.02.1 0 .13-.07a.62.62 0 0 0 0-.41.15.15 0 0 1 0-.14.15.15 0 0 1 .13-.07c.87-.05 1.73-.19 2.57-.4l.15.1c.06.1.1.2.13.28 0 .03.03.06.06.07a.1.1 0 0 0 .09 0 4.2 4.2 0 0 1 1.59-.54c.03 0 .06.01.08.05Z" fill="#C2AC7A"/><path d="M34.88 23.2c.04.02.07.07.1.14a.34.34 0 0 0-.07.12c-.02.04 0 .07.02.1.25.24.52.37.84.39.5.03 1.03.11 1.58.24.05.01.1 0 .14-.03a.15.15 0 0 0 .06-.13c0-.05.02-.08.06-.1.16.23.36.4.61.51l.02.06-1.26.08c-.97.02-1.69.44-2.16 1.26-.38.65-.72 1.32-1.03 2-.06.02-.11.01-.15 0 0-.17-.16-.28-.47-.33-.04-.01-.07 0-.1.02a.16.16 0 0 0-.08.08l-.02.08c-.04.1 0 .13.09.12.16-.01.35 0 .55.06.06.2 0 .38-.2.54-.08-.16-.17-.23-.27-.21-.14.02-.21.1-.2.25.02.31.13.45.34.4.1.06.18.14.2.22.02.06 0 .11-.03.16a.15.15 0 0 1-.15.05c-.3-.05-.5-.2-.57-.44-.21-.7-.11-1.37.29-1.98a1.7 1.7 0 0 0 .26-.63l.12-.41a.9.9 0 0 1 .24-.35.15.15 0 0 0 .05-.12v-.13c0-.06.03-.1.08-.11a.76.76 0 0 0 .24-.12c.11-.07.19-.18.22-.31a.29.29 0 0 0 .01-.14c-.02-.12-.09-.15-.2-.09l-1.29.8a.2.2 0 0 0-.08.24.3.3 0 0 1-.02.22 1 1 0 0 1-.13.2.71.71 0 0 0-.17.33c-.1.63-.16 1.1-.2 1.41-.04.53-.03 1 .02 1.42a.2.2 0 0 1-.02.12l-.15.28c0 .02-.03.03-.08.03.01-.25-.05-.37-.18-.36.06-.1.07-.18.04-.26a3.58 3.58 0 0 1-.24-1.11c0-.05.01-.09.04-.13l.2-.24a.15.15 0 0 0 .03-.13l-.06-.34c0-.04 0-.08.03-.11l.17-.2c.12-.12.13-.25 0-.38-.19-.21-.37-.2-.53.05a.68.68 0 0 0-.28-.24l.55-1.5.1.39c0 .05.04.07.08.07.1 0 .18-.09.25-.24.1.26.24.38.45.36a.2.2 0 0 0 .17-.12.21.21 0 0 0 0-.2.54.54 0 0 0-.51-.3c-.02-.32.07-.62.26-.9.01-.03.03-.04.04-.03l.13.11.02.39c0 .04.02.08.05.12.1.1.23.15.4.14.04 0 .09-.02.13-.05a.22.22 0 0 0 .07-.13c.03-.15 0-.27-.13-.35-.07-.05-.2-.09-.38-.12a5.61 5.61 0 0 1-.1-.03c-.04-.07-.04-.14-.01-.2.12-.26.32-.34.6-.25.4.15.78.33 1.13.54a.1.1 0 0 0 .09.02.1.1 0 0 0 .07-.06l.28-.5Z" fill="#F3D69E"/><path d="m34.98 23.34 2.52.38c.04.01.07.04.08.08l.03.13c-.04.02-.06.05-.06.1s-.02.1-.06.13a.16.16 0 0 1-.14.03 9.84 9.84 0 0 0-1.58-.24 1.29 1.29 0 0 1-.84-.4.09.09 0 0 1-.02-.09.34.34 0 0 1 .07-.12Z" fill="#937B50"/><path d="M23.35 23.63c.07.05.1.13.1.24-.05.31-.21.46-.5.45a.26.26 0 0 1-.22-.13c-.1-.14-.05-.28.12-.4a.95.95 0 0 1 .25-.11 1 1 0 0 1 .25-.05ZM32.72 23.66l.1.03c.18.03.31.07.38.12.12.08.16.2.13.35a.22.22 0 0 1-.07.13.22.22 0 0 1-.14.05.45.45 0 0 1-.39-.14.19.19 0 0 1-.05-.12l-.02-.39.06-.03Z" fill="#000001"/><path d="M27.41 26.27c.2.06.4.03.58-.07.1-.06.25-.2.43-.39l.11-.12c.28-.29.4-.62.35-1 0-.03 0-.06.04-.08.15-.1.28-.07.4.11.08.12.14.28.18.47.16.71.08 1.4-.22 2.03-.14.3-.4.53-.76.7-.17.07-.34.12-.51.15a1.75 1.75 0 0 1-2-1.46 4.3 4.3 0 0 1 .21-2.23c.12-.3.35-.46.68-.45h.09c.33.01.44.18.32.5l-.35.95a.15.15 0 0 0 .04.18l.11.08c.13.1.22.18.26.23.07.1.07.2 0 .3a.06.06 0 0 0 .04.1Z" fill="#1A539A"/><path d="M20.01 24.49c.29-.05.5-.2.48-.33-.02-.13-.27-.2-.55-.16-.28.04-.5.19-.48.32.02.14.27.21.55.17Z" fill="#F9FCF7"/><path d="M14.97 24.77c-.08-.14-.2-.26-.37-.36.47-.2.92-.28 1.36-.26.71.04 1.3.35 1.75.92a.1.1 0 0 1 .02.07c0 .03 0 .05-.03.06a.06.06 0 0 1-.06 0 3.86 3.86 0 0 0-2.67-.43ZM42.85 25.08a5.77 5.77 0 0 1-.72-.29 1.16 1.16 0 0 0-.38-.12c-.23-.02-.36.05-.4.2l-.7-.12a2.09 2.09 0 0 0-.72-.04 6.69 6.69 0 0 0-1.57.42h-.07c-.07 0-.08-.03-.03-.08.28-.26.56-.46.84-.59.32-.14.65-.22 1.01-.23a4.7 4.7 0 0 1 2.7.75c.03.01.04.03.04.06a.6.6 0 0 1 0 .04Z" fill="#937B50"/><path d="M20.78 24.4a.14.14 0 0 1 .1-.04c.03 0 .06 0 .1.03.12.1.2.2.24.3.04.12.04.2-.01.27l-.02.02c-.05.06-.13.08-.24.06a.73.73 0 0 1-.34-.16l-.02-.01a.13.13 0 0 1-.05-.1c0-.04 0-.07.03-.1l.2-.26ZM35.4 24.59c.05.1.06.18.04.25a.24.24 0 0 1-.13.16.46.46 0 0 1-.23.04.55.55 0 0 1-.24-.06.15.15 0 0 1-.08-.14c0-.1.02-.18.06-.26.05-.08.1-.13.17-.17a.25.25 0 0 1 .21-.02c.08.03.15.1.2.2Z" fill="#000001"/><path d="M14.6 24.4c.17.11.29.23.37.37-1 .25-1.9.7-2.7 1.33-.47.37-1.14.95-2 1.76a.18.18 0 0 1-.2.03.16.16 0 0 1-.08-.05c-.03-.05-.03-.1 0-.14A10.24 10.24 0 0 1 14 24.57c.2-.08.4-.13.6-.16Z" fill="#57492B"/><path d="M33.28 28.85a.9.9 0 0 0 .12-.44c.2-.16.27-.34.2-.54l.04-.04c.04.02.09.03.15.01-.1.3-.16.57-.19.84-.03.36.01.64.14.83a.25.25 0 0 0-.1.12c-.02.04-.02.1 0 .14l.46.86c.1.2.22.34.36.43.18.11.36.1.53-.03a28.6 28.6 0 0 0 .67-.54c.19-.17.35-.32.48-.47.31-.37.5-.77.56-1.2l.03-.27.12-.82c.06-.28.12-.53.2-.73.2-.5.56-.9 1.06-1.2a.2.2 0 0 1 .19-.02c.07.03.1.09.12.16a1 1 0 0 1-.01.33 7.23 7.23 0 0 0 .03 3.44c-.16.26-.2.57-.11.95l.12.55-.4-.3a.16.16 0 0 0-.15-.03.16.16 0 0 0-.1.1c-.14.32-.33.55-.58.7-.25.16-.56.22-.9.18-.55-.05-1.06-.1-1.52-.18a4.3 4.3 0 0 1-2.16-1c.06-.01.08-.05.06-.1a.2.2 0 0 0-.06-.1h-.01a2.9 2.9 0 0 1-.37-.39.94.94 0 0 1-.18-.49c0-.04-.03-.08-.08-.13l.15-.28a.2.2 0 0 0 .02-.12c-.05-.42-.06-.9-.01-1.42a22.19 22.19 0 0 1 .2-1.44.71.71 0 0 1 .16-.3 1 1 0 0 0 .13-.2.3.3 0 0 0 .02-.22.2.2 0 0 1 .09-.23l1.29-.8c.1-.07.17-.04.19.08v.14a.55.55 0 0 1-.23.31.76.76 0 0 1-.24.12c-.05.01-.08.05-.08.1v.14c0 .05-.02.09-.05.12a.9.9 0 0 0-.24.35 2.98 2.98 0 0 0-.15.53 1.7 1.7 0 0 1-.23.51c-.4.61-.5 1.27-.29 1.98.07.25.26.4.57.44.06 0 .11 0 .15-.05.04-.05.05-.1.03-.16-.02-.08-.1-.16-.2-.22Z" fill="#C2AC7A"/><path d="M23.77 24.47c.15.12.2.29.13.5l-.44.15c-.05.02-.1 0-.13-.06a.44.44 0 0 1-.05-.27c0-.05.03-.1.08-.12l.4-.2Z" fill="#000001"/><path d="M38.24 24.5c0-.02 0-.02.02.01v.04l-1.2 1.27a.58.58 0 0 1-.15-.43c0-.05.03-.08.07-.11.12-.08.22-.17.3-.27a.1.1 0 0 0 .02-.1.1.1 0 0 0-.09-.06c-.83-.06-1.52.29-2.07 1.04-.4.55-.73 1.3-.96 2.27-.02.07 0 .1.07.11.05 0 .08 0 .12-.04l1.12-1.13c.08-.09.2-.08.35.03l-2.1 2.38c-.13-.19-.17-.47-.14-.83.03-.27.09-.55.19-.84.3-.68.65-1.35 1.03-2a2.42 2.42 0 0 1 2.16-1.26c.19 0 .6-.03 1.26-.08ZM17.89 24.53c.43.05.88.07 1.33.07.55 0 1.05.21 1.49.65.17.17.34.39.52.65a16.79 16.79 0 0 1 .51.81l.1.2.2.96c0 .05-.01.08-.06.1l-.05.02c-.04.01-.07 0-.09-.05l-.3-.78a7.1 7.1 0 0 0-.36-.73c-.29-.52-.64-.93-1.06-1.22-.2-.14-.4-.23-.63-.28a1.02 1.02 0 0 0-.67.04c-.05.02-.06.05-.03.1l.1.13c.1.17.18.29.2.38.06.14.06.29 0 .43l-1.2-1.48Z" fill="#061634"/><path d="M32.23 24.5c.23 0 .4.1.5.3.04.07.04.14 0 .21a.2.2 0 0 1-.16.12c-.2.02-.35-.1-.45-.36.01-.11.05-.2.1-.27Z" fill="#000001"/><path d="M42.85 25.08c.08 0 .15.03.22.06 1.07.65 2.02 1.47 2.86 2.48.07.08.06.16-.02.24l-.04.04c-.06.06-.13.07-.2 0-.54-.46-1.1-.97-1.65-1.51a5.42 5.42 0 0 0-1.12-.86c-.48-.27-1-.49-1.54-.66.03-.15.16-.22.39-.2.1 0 .22.05.38.12.24.12.48.21.72.29Z" fill="#57492B"/><path d="m37.06 25.82-1.22 1.3c-.15-.1-.27-.1-.35-.02l-1.12 1.13a.14.14 0 0 1-.12.04c-.07 0-.1-.04-.07-.1.23-.97.56-1.73.96-2.28.55-.75 1.24-1.1 2.07-1.04a.1.1 0 0 1 .09.06.1.1 0 0 1-.02.1c-.08.1-.18.2-.3.27a.14.14 0 0 0-.07.11c-.01.15.03.29.15.43ZM21.85 26.91a.9.9 0 0 1 .31.51c.07.17.13.34.18.52.17.53.15 1.04-.06 1.55a.08.08 0 0 0-.04-.03.17.17 0 0 1-.07-.04l-3.07-3.4a.63.63 0 0 0 0-.44c-.03-.09-.1-.21-.22-.38a5.2 5.2 0 0 1-.09-.13c-.03-.05-.02-.08.03-.1.19-.09.41-.1.67-.04.23.05.44.14.63.28.42.3.77.7 1.06 1.22.12.2.24.45.36.73l.3.78c.02.05.05.06.1.05l.04-.02c.05-.02.06-.05.05-.1l-.18-.96Z" fill="#1A539A"/><path d="M9.12 32.62 9 32.8c-.03.04-.06.05-.1.03a.65.65 0 0 1-.21-.15c.16-1.03.48-2 .96-2.9.37-.67.83-1.3 1.4-1.87a13.3 13.3 0 0 1 2.15-1.82c.81-.52 1.66-.89 2.55-1.09.07-.02.13 0 .16.07.02.03.02.06 0 .1a.11.11 0 0 1-.05.06 7.3 7.3 0 0 1-.63.25c-.4.14-.67.26-.85.36-1.19.72-2.2 1.53-3 2.44a9.35 9.35 0 0 0-2.25 4.34ZM47.42 32.68c-.13.24-.31.26-.55.09a8.96 8.96 0 0 0-2.13-4.36c-.92-1.03-2-1.91-3.27-2.64-.18-.1-.6-.25-1.28-.46-.06-.02-.1-.06-.1-.13 0-.05.02-.1.06-.13a.12.12 0 0 1 .12-.03c1.3.32 2.47.93 3.5 1.83.94.82 1.62 1.53 2.05 2.13.38.52.7 1.11.97 1.77.24.56.45 1.2.63 1.93Z" fill="#57492B"/><path d="M34.12 25.75c0-.19.06-.36.15-.52a.14.14 0 0 1 .19-.05c.22.12.28.3.17.55a.13.13 0 0 1-.1.08.67.67 0 0 0-.25.1.16.16 0 0 0-.07.14v.3c0 .13-.06.18-.17.16l-.13-.02a.2.2 0 0 1-.13-.07.21.21 0 0 1-.06-.14c-.01-.23.1-.37.32-.43.05 0 .08-.04.08-.1ZM21.95 25.4l-.14.44a.68.68 0 0 1-.34-.01.13.13 0 0 1-.08-.09.8.8 0 0 1-.04-.38c.01-.07.05-.1.12-.12a.5.5 0 0 1 .48.16ZM31.93 25.72c.08.15.24.22.36.15.12-.06.15-.24.07-.39-.08-.15-.24-.22-.36-.15-.12.06-.15.24-.07.39ZM24.01 25.32c.14.07.2.2.17.38-.01.04-.03.07-.07.1l-.37.18-.12-.38a.14.14 0 0 1 .01-.12c.07-.12.2-.17.38-.16Z" fill="#000001"/><path d="M21.95 25.4c.56.2.78.7.64 1.45-.13 0-.24.04-.3.13a.16.16 0 0 0-.04.14c.02.06.05.1.1.11l.08.03c-.03.07-.12.12-.27.16a.9.9 0 0 0-.31-.5l-.1-.2a.89.89 0 0 1 .23-.3c.08.04.16.05.22.03.06-.02.11-.07.14-.15a.3.3 0 0 0-.11-.35.34.34 0 0 0-.17-.07.3.3 0 0 0-.2.03c-.04-.03-.06-.06-.05-.07l.14-.44Z" fill="#F3D69E"/><path d="m17.01 26.84-.09.86a.2.2 0 0 1-.11.16c-.2.1-.3.24-.34.42l-2.1.88a.24.24 0 0 1-.2 0 .24.24 0 0 1-.13-.18l-.43-2.02a.21.21 0 0 1 .07-.22c.37-.3.75-.54 1.15-.71.47-.21.91-.29 1.3-.24.65.09.94.44.88 1.05Z" fill="#C2AC7A"/><path d="M21.98 26.42c-.18-.13-.22-.3-.11-.5a.3.3 0 0 1 .19-.04c.06 0 .12.03.17.07.05.04.09.09.1.15a.3.3 0 0 1 0 .2c-.02.08-.07.13-.13.15a.31.31 0 0 1-.22-.03Z" fill="#000001"/><path d="M38.73 27.79c.01-.14.05-.34.1-.6.06-.25.09-.43.1-.55.04-.2.11-.37.23-.5a.76.76 0 0 1 .47-.25 3.3 3.3 0 0 1 1 .02c.38.06.7.18.96.36l.73.48a.2.2 0 0 1 .08.11c.02.05.02.1 0 .15a4.42 4.42 0 0 0-.33 1.68c0 .17-.06.32-.18.45a.1.1 0 0 1-.12.03l-2.86-1.07a.28.28 0 0 1-.14-.12.29.29 0 0 1-.04-.2Z" fill="#C2AC7A"/><path d="M31.14 26.05c.09.04.18.12.28.25 0 .15 0 .33.03.53.04.26-.03.47-.2.61a.57.57 0 0 0-.17.3 52.85 52.85 0 0 1-1.71 5.08c-.23.04-.41-.07-.54-.32a.34.34 0 0 1 .02-.22L30 29.06l1.14-3Z" fill="#F9FCF7"/><path d="M31.74 29.14a.57.57 0 0 0-.37.3c-.6 1.1-1.19 2.2-1.74 3.3-.06.16-.14.18-.26.08a52.88 52.88 0 0 0 1.7-5.09c.04-.12.1-.22.18-.29.17-.14.24-.35.2-.61l-.03-.53c.16-.25.34-.27.54-.06.12.13.11.26-.01.39l-.17.19a.15.15 0 0 0-.03.11l.06.34c0 .05 0 .1-.03.13l-.2.24a.17.17 0 0 0-.04.13c.02.4.1.77.24 1.11.03.08.02.17-.04.26Z" fill="#6F0706"/><path d="M24.64 27.38a.15.15 0 0 0-.04.03c-.05-.03-.12-.03-.2 0a.12.12 0 0 1-.15-.02c-.1-.1-.1-.24.02-.44.07-.11.04-.2-.09-.25-.17-.07-.23-.23-.19-.46.15-.1.3-.12.43-.07a.1.1 0 0 1 .07.08l.15 1.13ZM33.51 27.3c.19.04.36-.02.4-.14.03-.11-.1-.25-.28-.3-.18-.05-.36 0-.39.12-.03.12.1.26.27.31Z" fill="#57492B"/><path d="M22.59 26.85c.12.05.16.16.11.34 0 .05-.03.07-.08.07h-.19l-.08-.03a.15.15 0 0 1-.1-.1c-.01-.06 0-.11.03-.15.07-.09.18-.13.31-.13Z" fill="#000001"/><path d="M17.01 26.84c.11.25.17.5.2.76.02.23-.04.4-.17.5a.95.95 0 0 1-.57.18c.03-.18.14-.31.34-.42a.2.2 0 0 0 .11-.16l.1-.86Z" fill="#57492B"/><path d="M12.99 29.37c.06.22-.02.4-.23.52-.08.05-.18.09-.27.12l-2.24 1.21a.07.07 0 0 1-.08 0 .07.07 0 0 1-.03-.08c.08-.31.2-.56.37-.75a3.96 3.96 0 0 0 1.85-.67.5.5 0 0 0 .15-.27c.12-.5.1-1.07-.06-1.72.1-.22.26-.35.48-.4a.2.2 0 0 1 .18.05c.05.05.07.11.06.18l-.18 1.8Z" fill="#937B50"/><path d="M43.47 27.8c-.15.63-.14 1.23.02 1.8.03.1.09.16.17.2l1.99.84c.15.13.2.27.13.43a.15.15 0 0 1-.1.08.14.14 0 0 1-.11 0l-2.05-1.13c-.18-.14-.31-.3-.4-.49a.85.85 0 0 1-.08-.46c.05-.69.06-1.13.02-1.32-.02-.1-.08-.14-.18-.12-.02-.07-.02-.12 0-.15a.25.25 0 0 1 .2-.12c.08-.01.15.01.21.07.1.1.16.22.18.38Z" fill="#57492B"/><path d="M24.64 27.38c.05.1.1.18.17.27.06.1.1.19.13.28.48 1.38.94 2.75 1.39 4.13a.7.7 0 0 1-.23.19 19.4 19.4 0 0 0-1.84-3.26l.34-1.58a.15.15 0 0 1 .04-.03Z" fill="#6F0706"/><path d="M22.82 27.87c.11 0 .21-.08.21-.18 0-.1-.09-.18-.2-.18-.12 0-.22.07-.22.17s.09.19.2.19Z" fill="#000001"/><path d="m33.64 27.83-.03.04a1.6 1.6 0 0 0-.55-.06c-.1.01-.13-.03-.1-.12l.03-.08a.16.16 0 0 1 .07-.08c.04-.02.07-.03.11-.02.3.05.46.16.47.32Z" fill="#6F0706"/><path d="M42.88 27.63c.1-.02.16.02.18.12.04.2.03.63-.02 1.32-.03.03-.04.03-.04.01.07-.3.05-.56-.06-.76-.13-.25-.15-.48-.06-.69ZM12.45 27.73c.15.65.18 1.22.06 1.72a.5.5 0 0 1-.15.27 1.63 1.63 0 0 1-.37.22c-.47.25-.97.4-1.48.45a8.14 8.14 0 0 1 1.94-2.66ZM43.47 27.8c.19.06.35.16.5.3a3 3 0 0 1 .32.42c.15.22.27.38.37.48a4 4 0 0 1 .62.74c.17.28.3.58.37.9l-1.99-.85a.29.29 0 0 1-.17-.19 3.51 3.51 0 0 1-.02-1.8Z" fill="#C2AC7A"/><path d="m22.79 28.8-.09.04a.54.54 0 0 1-.02-.48c.05-.13.13-.18.25-.13.04.01.06.04.08.08.06.22-.01.38-.22.49ZM33.4 28.4a.9.9 0 0 1-.12.45c-.2.05-.32-.09-.34-.4-.01-.15.06-.23.2-.25.1-.01.19.05.26.2Z" fill="#57492B"/><path d="M14.27 32.6c-.17.1-.32.11-.47.05.02-.08.03-.09.02-.03a4.99 4.99 0 0 0 2.59-3.56c.12-.2.26-.28.4-.23a.1.1 0 0 1 .06.05.1.1 0 0 1 0 .09c-.3.79-.63 1.52-1.02 2.2a3.73 3.73 0 0 1-1.58 1.44Z" fill="#937B50"/><path d="M22.79 28.8c.1-.01.18.04.23.15.05.1.03.19-.04.27-.1.1-.18.1-.26 0-.12-.14-.12-.26-.02-.38l.09-.04Z" fill="#F3D69E"/><path d="M39.52 29.08c.12.6.35 1.12.7 1.58a.71.71 0 0 0-.27.1l-.83-1.8a.08.08 0 0 1 0-.09.08.08 0 0 1 .07-.04c.16-.01.26.07.33.25Z" fill="#000001"/><path d="M16.4 29.05a4.99 4.99 0 0 1-2.58 3.57c-.03-.78.01-1.45.12-2a.8.8 0 0 1 .41-.55c.66-.4 1.34-.74 2.06-1.02ZM42.11 32.52c-.54-.22-.92-.5-1.12-.8-.25-.36-.5-.71-.77-1.06a3.85 3.85 0 0 1-.7-1.58c.22-.04.39-.02.52.06.48.32 1.05.64 1.7.96.19.09.29.23.3.43l.07 2Z" fill="#C2AC7A"/><path d="M43 29.08c0 .02.01.02.04 0-.01.17.01.32.08.45.09.2.22.35.4.5l-.06.08c-.07.1-.12.17-.17.2-.07.06-.14.09-.2.08a1.3 1.3 0 0 1-.46-.37.66.66 0 0 1-.13-.55c.27.01.44-.12.5-.39Z" fill="#F3D69E"/><path d="m30 29.06-1.15 3.22a.34.34 0 0 0-.02.22.2.2 0 0 0-.11.11 9.8 9.8 0 0 0-.56 1.87c0 .04-.03.07-.08.07-.04 0-.07-.02-.09-.06l-.73-1.98-1.19-3.18c.32.02.62.04.93.09.35.05.65.06.9.03.68-.08 1.38-.2 2.1-.4Z" fill="#1A539A"/><path d="M13.47 29.4a.73.73 0 0 0-.02.4.1.1 0 0 1-.03.09c-.17.15-.3.32-.4.51-.07.06-.15.06-.25-.01a.92.92 0 0 1-.28-.38c.1-.03.19-.07.27-.12.21-.13.29-.3.23-.52l.48.02Z" fill="#F3D69E"/><path d="M13.47 29.4c.2-.02.34.06.43.22.08.13.08.27.02.42a.87.87 0 0 1-.28.33c-.21.17-.42.17-.62.03.1-.2.23-.36.4-.51a.1.1 0 0 0 .03-.1.73.73 0 0 1 .02-.4Z" fill="#937B50"/><path d="M42.5 29.47c-.04.2 0 .38.13.55.1.14.25.26.45.37-.46.2-.78.1-.95-.32a.8.8 0 0 1-.07-.44c0-.04.03-.07.07-.1a.55.55 0 0 1 .37-.06Z" fill="#57492B"/><path d="M32 29.47c.05.05.08.09.08.13.01.18.07.34.18.5a2.91 2.91 0 0 0 .38.39.2.2 0 0 1 .06.09c.02.05 0 .09-.06.1l-1.86 2-1.3 1.61c-.04.06-.1.07-.17.04l-.07-.05c-.06-.03-.07-.07-.04-.13l.76-1.28 1.96-3.37c.05 0 .08-.01.08-.03Z" fill="#02317A"/><path d="M38.84 29.78c-.28.04-.41.18-.39.44.06.46.2.93.43 1.39.18.36.46.78.82 1.26 0 .03-.02.05-.05.07l-.31-.3-.9-1.43-.11-.55c-.1-.38-.05-.7.11-.95l.23-.16c.04-.02.07-.02.1.01.04.05.07.12.07.22Z" fill="#000001"/><path d="M17.72 29.7c.15.3.23.63.24.96l-.09.08-.28.1a.12.12 0 0 1-.11-.02.12.12 0 0 1-.05-.1c0-.36-.08-.73-.25-1.1.08-.12.26-.1.54.08Z" fill="#937B50"/><path d="m24.1 29.53 1.84 3.26a4 4 0 0 0 .76 1.17c.06.07.04.1-.04.12l-.12.01a.23.23 0 0 1-.21-.09l-1.11-1.38-1.9-1.94.78-1.15Z" fill="#02317A"/><path d="M17.18 29.63c.17.36.26.73.25 1.09 0 .04.02.07.05.1.03.03.07.03.11.02l.28-.1v.17a5.7 5.7 0 0 1-1.15 1.73l-2.93 2.24c-.63.18-1.32.35-2.07.52-.08.02-.13.06-.15.11-.03-.05-.05-.08-.08-.08l-.13-.12a.16.16 0 0 1-.05-.17.16.16 0 0 1 .13-.13 6.84 6.84 0 0 0 3.9-2.26l.23-.25c.56-.63.95-1.21 1.15-1.73l.46-1.14ZM38.84 29.78c.03 0 .05.02.07.06a6.39 6.39 0 0 0 1.98 2.92c-.01.43.14.74.44.92.26.15.8.4 1.6.72l1.54.62c.04.01.07.04.08.08.02.06 0 .11-.04.15a.15.15 0 0 1-.11.05l-1.26-.05a2.12 2.12 0 0 1-.71-.24c-.1-.06-.28-.08-.52-.05.03-.26-.05-.41-.22-.46l-1.99-1.63c-.36-.48-.64-.9-.82-1.26a4.04 4.04 0 0 1-.43-1.4c-.02-.25.1-.4.4-.43Z" fill="#C2AC7A"/><path d="m17.96 30.66.34.52c.16.26.37.44.64.56.23.1.52.14.87.13a6.14 6.14 0 0 0 3.5-1.19l1.9 1.94c-.16.05-.35.08-.57.08-.13 0-.32 0-.58-.02a15.08 15.08 0 0 0-6.44.05c-.3.02-.6-.01-.9-.09.5-.52.87-1.1 1.14-1.73.02-.04.02-.1.01-.17l.09-.08Z" fill="#F9FCF7"/><path d="M40.22 30.66c.27.35.52.7.77 1.06.2.3.58.58 1.12.8.08.05.11.1.1.16a2.04 2.04 0 0 1-.68-.2c-.7-.42-1.22-1-1.58-1.73.1-.05.18-.08.27-.09Z" fill="#57492B"/><path d="M32.64 30.69a4.3 4.3 0 0 0 2.16 1c.46.06.97.13 1.51.18.35.03.66-.03.91-.19.25-.15.44-.38.57-.7a.16.16 0 0 1 .11-.1c.06-.01.1 0 .15.03l.4.3.89 1.44c-.17.08-.28.11-.35.1l-.16-.02c-.34-.05-.6-.07-.77-.07-1.83.04-3.63.04-5.4.01-.16 0-.44.02-.85.07-.36.04-.7.02-1.03-.06l1.86-2Z" fill="#F9FCF7"/><path d="M13.38 32.84c.1.1.12.22.06.34a.72.72 0 0 1-.25.27l-.7-2.3.22-.14a.1.1 0 0 1 .1 0c.04 0 .07.04.08.07a74.85 74.85 0 0 1 .44 1.7l.05.06Z" fill="#937B50"/><path d="M46.33 32.64c-.01.4-.1.73-.28 1a1 1 0 0 1-.8.51 4.75 4.75 0 0 1-1.69-.19 1.49 1.49 0 0 1-.48-.36c-.16-.2-.22-.37-.17-.54l.47-1.6a.42.42 0 0 0-.05-.33c.07-.1.19-.1.36-.03 1.2.59 2.01.96 2.4 1.14.1.04.16.09.19.15.03.07.05.16.05.25Z" fill="#C2AC7A"/><path d="M43.33 31.13c.06.1.08.22.05.32-.07.26-.22.8-.47 1.61-.05.17 0 .35.17.54.14.15.3.27.48.36a1.31 1.31 0 0 1-.68-.35.76.76 0 0 1-.21-.72c.28-.52.43-1.08.45-1.7 0-.04.02-.06.06-.06h.15Z" fill="#000001"/><path d="m12.5 31.16.7 2.29c-.37.27-.78.48-1.22.64a2.3 2.3 0 0 1-1.32.12c-.37-.1-.6-.29-.7-.58-.1-.31-.23-.62-.37-.92.1-.08.16-.18.18-.3a.23.23 0 0 1 .14-.17l2.58-1.08Z" fill="#C2AC7A"/><path d="M26.33 32.06c.06.06.12.16.2.3.05.12.1.2.15.26.07.07.18.12.31.12.04 0 .08-.01.1-.04l.17-.19.73 1.98c.02.04.05.06.1.06.04 0 .06-.03.07-.07.13-.67.32-1.3.56-1.87a.2.2 0 0 1 .11-.11c.13.25.3.36.54.32.12.1.2.08.26-.07.1.1.22.14.33.12l-.76 1.28c-.03.06-.02.1.04.13l.07.05c.07.03.13.02.18-.04l1.29-1.6c.33.07.67.1 1.03.05.41-.05.7-.07.85-.07 1.77.03 3.57.03 5.4 0a5.28 5.28 0 0 1 .93.08c.07.01.18-.02.35-.1l.31.29c.01.05.05.1.1.18a3.74 3.74 0 0 0 1.94 1.38c.17.05.25.2.22.46h-.13c-.23-.02-.4-.03-.5-.02-.19.02-.34.06-.47.13-.1.07-.1.11.03.13.7.13 1.4.29 2.1.48a3.4 3.4 0 0 0 1.22.04l.02-.03c0-.05-.01-.08-.05-.1l-.99-.34 1.26.05c.04 0 .08-.01.11-.05.04-.04.06-.09.04-.15a.13.13 0 0 0-.08-.08l-1.54-.62c.8.14 1.56.3 2.31.5.15.04.47.01.96-.1.14-.02.24.03.29.18l.01.04c.06.16 0 .25-.16.27l-1.02.1c-.06 0-.1.04-.12.1l-.2.4c-.08.15-.04.2.11.12a.7.7 0 0 1 .69.02.1.1 0 0 1 .05.1v.1c0 .07.02.1.09.12l.59.14h-34.8c.36-.05.27-.1-.28-.15a.15.15 0 0 1-.09-.03c-.02-.02-.03-.05-.01-.08a.16.16 0 0 0 0-.15.83.83 0 0 0-.04-.09.42.42 0 0 1-.08-.23c0-.16.1-.27.26-.33.03 0 .05.03.08.08-.06.1-.07.18-.04.27.02.04.06.06.1.05l1.37-.22c.2-.03.52-.04.96-.05.47 0 .82-.03 1.04-.06.38-.06.69-.17.93-.34.23-.16.2-.26-.07-.28-.6-.06-1.3-.05-2.07 0l2.93-2.24c.3.08.6.1.9.09.35-.03.65-.04.9-.04a4758.6 4758.6 0 0 0 5.54-.01c.26.02.45.02.58.02.22 0 .4-.03.58-.08l1.1 1.38c.06.07.14.1.22.1l.11-.02c.1-.01.1-.05.05-.12a4 4 0 0 1-.76-1.17c.14-.02.23-.08.27-.2.05-.14.01-.26-.1-.34a.7.7 0 0 0 .22-.19Z" fill="#7399C2"/><path d="M41.53 32.49c.22.1.44.16.68.19.12.1.28.18.46.2-.06.29.01.53.21.73.17.17.4.29.68.35.61.17 1.18.24 1.7.2a1 1 0 0 0 .8-.51c.17-.28.26-.61.27-1 .19.07.37.12.54.12.24.17.42.15.55-.09 1.16-.03 2.33 0 3.5.1.05 0 .08.03.08.08v3.52c0 .04-.02.07-.06.07l-4.41.04-.6-.14c-.06-.01-.09-.05-.08-.12v-.1a.1.1 0 0 0-.05-.1.7.7 0 0 0-.69-.02c-.15.08-.2.03-.12-.12l.2-.4a.15.15 0 0 1 .13-.1l1.02-.1c.16-.02.22-.1.16-.27l-.01-.04c-.05-.15-.15-.2-.3-.17-.48.1-.8.13-.95.1-.75-.2-1.52-.37-2.3-.5-.82-.34-1.35-.58-1.6-.73-.31-.18-.46-.49-.45-.92a.44.44 0 0 1 .27-.03c.19.03.31-.05.37-.24ZM8.68 32.68c.08.08.15.13.2.15.05.02.08 0 .1-.03l.14-.18c.04.2.19.23.47.1.14.29.27.6.37.91.1.3.33.49.7.58.36.1.8.05 1.32-.12.44-.16.85-.37 1.21-.64.13-.09.2-.18.25-.27.06-.12.04-.23-.06-.34.2-.03.34-.1.42-.19.15.06.3.05.47-.04.3.12.66.17 1.06.14a6.85 6.85 0 0 1-3.89 2.26.16.16 0 0 0-.13.13c-.02.07 0 .13.05.17l.13.12c-.17.06-.26.17-.26.33 0 .07.02.14.08.23l.05.09c.02.05.02.1-.01.15-.02.03-.01.06.01.08.03.02.05.03.09.03.55.05.64.1.28.15l-6.7.01c-.02 0-.03-.01-.03-.03v-3.73c0-.03.02-.05.06-.06.62-.07 1.17-.1 1.65-.07a107 107 0 0 0 1.97.07Z" fill="#86A9D4"/><path d="m39.7 32.87 2 1.63a3.74 3.74 0 0 1-1.95-1.38.55.55 0 0 1-.1-.18c.03-.02.05-.04.05-.07Z" fill="#937B50"/><path d="M11.57 35.51c.02-.05.07-.1.15-.11a46.5 46.5 0 0 0 2.07-.52c.77-.05 1.46-.06 2.07 0 .27.02.3.12.07.28-.24.17-.55.28-.93.34-.22.03-.57.05-1.04.06-.44 0-.76.02-.96.05l-1.37.22c-.04.01-.08 0-.1-.05-.03-.09-.02-.17.04-.27Z" fill="#1A539A"/><path d="M41.91 34.96c.24-.03.41-.01.52.05.25.13.48.21.71.25l.99.34c.04.01.06.04.05.09l-.02.03a21.77 21.77 0 0 0-3.32-.51c-.13-.03-.14-.07-.03-.14.13-.07.28-.12.47-.13a4.15 4.15 0 0 1 .63.02Z" fill="#000001"/><path d="M50.97 37.06H5.04a.03.03 0 0 0-.03.03v.88c0 .02.01.03.03.03h45.93c.01 0 .03-.01.03-.03v-.88a.03.03 0 0 0-.03-.03Z" fill="#7399C2"/></svg>