<!-- by TradingView --><svg width="56" height="56" viewBox="0 0 56 56" xmlns="http://www.w3.org/2000/svg"><path fill="url(#amlqodfdf)" d="M0 0h56v56H0z"/><path d="M27.37 44c-6.28 0-9.53-1.33-10.37-2v-6.54h.81c1.35 4.5 4.28 7.63 8.61 7.63 4.33 0 6.5-2.73 6.5-5.2 0-2.48-1.18-4.34-3.66-5.6C26.78 31.04 17 29 17 21.41 17 13.82 23.54 12 28.9 12c4.3 0 7.62 1.5 8.75 2.25l-.4 5.99-3.89-5.99a6.68 6.68 0 0 0-4.1-1.3c-2.61 0-6.08 1.17-6.08 4.95 0 3.77 3.65 6.07 6.08 6.76 2.44.7 9.74 3.56 9.74 9.63S35.21 44 27.37 44Z" fill="#F2D979"/><defs><linearGradient id="amlqodfdf" x1="10.42" y1="9.71" x2="68.15" y2="76.02" gradientUnits="userSpaceOnUse"><stop stop-color="#1A1E21"/><stop offset="1" stop-color="#06060A"/></linearGradient></defs></svg>