<!-- by TradingView --><svg width="56" height="56" viewBox="0 0 56 56" xmlns="http://www.w3.org/2000/svg"><path fill="#0E1B27" d="M0 0h56v56H0z"/><path d="M23.33 12.08c.03.08-.05.12-.23.11-.06 0-.14-.02-.25-.05a1.2 1.2 0 0 0-.19-.04c-.07-.01-.14 0-.2.03-.1.05-.22.09-.35.1-.9.16-1.73.25-2.5.29a7.9 7.9 0 0 1-1.34-.1c-.1 0-.26 0-.46.02-.24.02-.43.02-.55-.01-.3-.07-.65-.06-1.03.04-.06.01-.09.05-.08.1.01.06.04.08.1.07.54-.05.9.07 1.07.36-.44 0-.8.02-1.1.08-.07.01-.1.03-.12.06-.01.04 0 .09.03.15l-.06 2.16c0 .04-.03.06-.07.06h-.04c-.03 0-.05 0-.07-.02a.1.1 0 0 1-.03-.06c-.05-.43-.1-.87-.17-1.32-.06-.36-.01-.72.14-1.06.08-.17.02-.22-.16-.14a.23.23 0 0 0-.15.22c-.05.91-.02 1.8.08 2.64.05.44.06.89.03 1.36a27.9 27.9 0 0 0 .02 3.38c-.09.56-.1 1.1-.05 1.64 0 .07.04.09.11.06l.07-.02c.06-.02.1 0 .1.06v.3c0 .05.03.08.07.1.05.05.09.1.1.14-.02.05-.03.08-.01.1 0 .03.03.04.08.04a296.45 296.45 0 0 1 6.55.04c.05.02.07.06.06.12-.04.2-.13.48-.26.86-.12.32-.2.57-.24.74a3.3 3.3 0 0 1-.24.66c-.05.1-.1.27-.14.5-.04.22-.08.4-.14.5-.21.43-.39.88-.52 1.35-.02.08-.07.12-.15.14-.33.06-.68.07-1.04.03a.55.55 0 0 0-.33.07c-.1.05-.1.09.02.1.43.05.9.04 1.39-.04.1-.02.18-.08.22-.17.28-.67.54-1.37.77-2.1a20.17 20.17 0 0 1 .86-2.18c.05.3.1.55.17.79l.12.3c.05.09.09.16.1.21.03.09.04.17.04.26-.03.28.06.31.25.1a15.5 15.5 0 0 0 1.78-2.35c.04-.07.08-.18.13-.34 0-.05.04-.07.09-.09.05 0 .1 0 .13.05l-2.51 7.35c-.52-.04-.93-.06-1.23-.06-1.95.03-3.88.03-5.8.02a.06.06 0 0 0-.06.03l-.2.33v.02l.02.01c1.98-.04 3.9-.04 5.75 0a12.21 12.21 0 0 0 1.54-.1c.15.08.25.06.3-.05.18-.48.36-.97.52-1.46.1.04.12.13.07.27-.03.06-.05.15-.08.28l-.06.25a.56.56 0 0 1-.15.22.2.2 0 0 0-.07.14.7.7 0 0 1-.2.44.2.2 0 0 1-.14.06c-.14.01-.27.05-.4.1a.16.16 0 0 0-.09.13c-.03.18-.14.28-.34.28-.5 0-.99.03-1.46.07-.05 0-.11 0-.2-.02a.66.66 0 0 0-.27 0c-.32.09-.65.1-.99.02a1.12 1.12 0 0 0-.53.01.33.33 0 0 1-.13 0 3.89 3.89 0 0 0-1.3.02.42.42 0 0 1-.2 0c-.38-.12-.74-.1-1.07.05a.46.46 0 0 1-.3.03.44.44 0 0 1-.24-.14 3.94 3.94 0 0 0-.24-.26 2 2 0 0 1-.32-.37.88.88 0 0 1-.11-.52c.04-.64.07-1.29.08-1.96l-.02-.44c-.03-.5-.03-.88.02-1.12.08-.42.28-.67.6-.77a5.29 5.29 0 0 1 1.94-.19c.65 0 1.14.02 1.46.05.12.01.23 0 .35-.02.04 0 .08 0 .1.04a.1.1 0 0 1 .04.1.41.41 0 0 0-.01.18c0 .05.04.07.1.07.2-.04.28.03.27.22-.02.2.06.24.24.12a.5.5 0 0 1 .38-.1c.24.04.35-.05.35-.28-.02-.34.05-.63.2-.86.1-.15.15-.33.17-.55v-.58c0-.06-.03-.1-.09-.1-.32-.07-.59-.1-.82-.09-.83.04-1.61.1-2.35.16-.32.04-.63.03-.93-.02a3.5 3.5 0 0 0-.9-.02c-.1.02-.2 0-.28-.05a2.29 2.29 0 0 0-.7-.26c-.09-.02-.12-.06-.12-.14.03-.27-.01-.52-.13-.77a.23.23 0 0 1-.02-.15l.01-.07a.5.5 0 0 0 .01-.28c-.07-.2-.13-.4-.18-.62a.47.47 0 0 1 0-.25c.01-.05.04-.12.1-.2.06-.13.1-.23.1-.3 0-.41.03-.81.06-1.2.02-.36.03-.88.03-1.57l.01-.92c0-.06.02-.13.05-.23l.04-.2a9.39 9.39 0 0 0-.12-1.77 2.86 2.86 0 0 1-.02-.75c.03-.27.04-.57.04-.88 0-.29.16-.46.47-.5.68-.1 1.37-.14 2.07-.1.3.03.6.01.88-.04a6 6 0 0 1 1.76-.06c.21.03.43.02.67-.02.44-.07.79-.12 1.04-.13.36-.02.74 0 1.13.07Z" fill="#0B2037"/><path d="m23.33 12.08 1.06.17c-.06.12 0 .2.2.25.08.03.18.04.27.04 1.7.03 3.37.02 5-.02a236.45 236.45 0 0 0 2.5.05.18.18 0 0 0-.04.06c0 .02 0 .03.02.03.35.08.7.1 1.04.08.13 0 .31.01.56.06.2.04.36.06.47.06.39 0 .73-.09 1.04-.27.3-.06.67-.06 1.07 0 .03 0 .05 0 .06.02.02.04 0 .05-.03.05-.34 0-.64.08-.9.22l-.57.09c-.13.02-.23.1-.29.26a.56.56 0 0 0-.2 0 .11.11 0 0 0-.08.06.1.1 0 0 0 0 .1c.17.29.18.6.05.92-.14.35-.28.7-.4 1.06-.02.08-.11.14-.26.17-.03-.1-.1-.14-.2-.14-.72 0-1.41-.02-2.09-.05l-.59-1.19c.1-.13.14-.28.1-.45 0-.04 0-.08.03-.12a.7.7 0 0 1 .2-.2c.06-.04.08-.07.07-.1l.08-.01c.8-.03 1.6-.04 2.39-.02.02 0 .04-.01.05-.04a.15.15 0 0 0-.13-.1c-.3-.02-.62-.01-.94.02-.4.04-.8 0-1.2-.12a3.2 3.2 0 0 0-.95-.14c-.5 0-1 .07-1.5.2-.32-.09-.68-.13-1.08-.13-1.4 0-2.82 0-4.28-.04-.12 0-.28-.03-.48-.08a2.5 2.5 0 0 0-.36-.07c-.13-.01-.27 0-.41.04-.24.06-.43.1-.58.1-1.2.03-2.4.07-3.58.13L17.32 13c-.17-.3-.53-.41-1.07-.36-.06 0-.09-.01-.1-.06 0-.06.02-.1.08-.11.38-.1.73-.11 1.03-.04.12.03.3.03.55 0 .2-.01.35-.02.46 0 .57.07 1.02.1 1.35.09.75-.04 1.58-.13 2.49-.28.13-.02.24-.06.35-.11a.39.39 0 0 1 .2-.03l.2.04c.1.03.18.05.24.05.18.01.26-.03.23-.11Z" fill="#1D3B53"/><path d="m39.53 21.92.02.64c0 .05-.02.09-.06.12a.15.15 0 0 1-.13.02c-.16-.04-.4-.07-.7-.07h-.32c-1.07-.07-1.8-.1-2.19-.08-1.13.05-2.26.08-3.4.09a.2.2 0 0 0-.16.07.16.16 0 0 0-.02.17l1.8 5c.01.03.04.05.09.08.04.02.07.02.12.02l1.74-.06c.06 0 .1-.03.1-.08l.03-1.23c.13-.07.2-.12.22-.16.05-.12.14-.18.27-.18l1.85-.02c.11 0 .2-.04.27-.12a.19.19 0 0 1 .11-.06.4.4 0 0 0 .17-.07.18.18 0 0 1 .1-.04c.05 0 .08.01.1.04.04.04.05.08.02.12l-.02 3.66c0 .03-.01.05-.03.06a.09.09 0 0 1-.06.03l-6.97-.06c-.04-.16-.09-.25-.14-.29a.82.82 0 0 0 0-.34 106.8 106.8 0 0 0-2.24-5.85l-.8-2.39a.11.11 0 0 1 .02-.1.13.13 0 0 1 .1-.06c.87-.05 1.74-.1 2.62-.17l.67-.02c.59 0 1.02-.03 1.3-.1.31-.06.44-.23.37-.51-.01-.06 0-.1.05-.15.05-.04.1-.05.16-.04a3.64 3.64 0 0 1 .66.2l.01-.02c.01-.02 0-.03-.01-.04-.3-.13-.58-.28-.82-.46a.14.14 0 0 0-.15-.02c-.05.03-.08.06-.08.12l-.04.57c0 .06-.03.1-.07.14a.66.66 0 0 1-.5.15c-.44-.04-.91-.06-1.4-.05H29.1a.4.4 0 0 0-.16.03c-.08.03-.1.09-.08.16l1.07 2.81.07.34v.04a.05.05 0 0 1-.04.02h-.04c-.07 0-.11-.02-.13-.08l-.18-.34c-.2-.4-.34-.69-.4-.9-.16-.4-.3-.82-.43-1.24a1.84 1.84 0 0 0-.13-.29 1.16 1.16 0 0 1-.12-.31.58.58 0 0 1 .09-.38.21.21 0 0 1 .1-.1c.05-.01.1-.02.14-.01.25.04.5.06.73.06 1.3-.02 2.65-.05 4.07-.1.06 0 .1-.02.13-.07.05-.1.07-.21.06-.36-.02-.24-.1-.25-.21-.04a.31.31 0 0 1-.27.18 11.36 11.36 0 0 1-1.77-.08.05.05 0 0 1 0-.04c0-.01.01-.02.05-.02l1.45-.2a.2.2 0 0 0 .12-.07.34.34 0 0 0 .07-.12.22.22 0 0 1 .07-.1.71.71 0 0 0 .25-.44c0-.04.02-.08.05-.1a.2.2 0 0 1 .1-.05c.28-.03.55-.03.83.01.09.01.16.04.23.08.05.02.1.07.19.13l.08.06c.08.06.16.07.25.03.1-.03.15-.1.16-.18a2 2 0 0 0-.02-.71c-.02-.1.02-.16.13-.18.05-.01.07-.04.06-.09-.1-.41-.33-.64-.7-.7-.05 0-.07-.03-.07-.07 0-.12.04-.21.13-.28.05-.04.15-.08.29-.12l.15-.06c.18-.06.22-.17.14-.3.16-.04.3-.1.4-.18.09-.05.12-.12.1-.2-.02-.04-.06-.06-.11-.05l-.6.11-1.4.16c-.05 0-.08.03-.08.08a.55.55 0 0 1-.39.52c-.06.02-.11 0-.15-.04a.71.71 0 0 0-.37-.27 1.57 1.57 0 0 0-.42-.02h-.32l-.04-.01-.52-.06a2.3 2.3 0 0 1-.5-.13.95.95 0 0 1-.64-.71 1.9 1.9 0 0 0-.3-.67c-.18-.27-.37-.43-.58-.5a1.32 1.32 0 0 0-.76 0 1.5 1.5 0 0 1-.38.06 3.42 3.42 0 0 1-.6-.03c-.06 0-.1.02-.14.06a.78.78 0 0 1-.24.14.93.93 0 0 0-.16.08.4.4 0 0 0-.13.16c-.09.2-.16.26-.22.19.37-.85 1.09-1.29 2.14-1.31.18.1.34.1.47.04.04 0 .06.01.06.04l-.01.05c-.01.04 0 .06.02.09.57.44.97.92 1.2 1.45.05.1.07.1.07-.02a.96.96 0 0 0-.25-.65c-.24-.3-.49-.57-.74-.85-.04-.05-.05-.1-.02-.15.4.06.74.25 1.01.58l.6 1.2c-.17.05-.25.15-.24.31 0 .05.02.07.07.07l2.07-.01c.23 0 .36-.07.38-.2.15-.02.24-.08.26-.16.12-.36.26-.7.4-1.06.13-.32.12-.63-.05-.92a.1.1 0 0 1 0-.1.11.11 0 0 1 .08-.06.56.56 0 0 1 .2 0c.74.09 1.42.08 2.05-.02.23-.04.24-.08 0-.13-.32-.07-.72-.14-1.2-.2.27-.14.57-.22.9-.22.05 0 .06-.01.04-.05l-.06-.03c-.4-.05-.76-.05-1.07.01l-3.08-.02a236.45 236.45 0 0 1-2.51-.05c-1.63.04-3.3.05-5 .02-.1 0-.19-.01-.27-.04-.2-.05-.26-.13-.2-.25l2.36-.09c.13 0 .31 0 .56.02.29.02.5.02.65.01a19.7 19.7 0 0 1 3.2.06c.44.05.86.03 1.26-.05.3-.06.6-.09.9-.07.89.04 1.8.04 2.76.02a1.81 1.81 0 0 1 .75.13c.59.26 1.18.5 1.77.7.05.03.09.07.09.13 0 0 0 .02-.02.03-.03.01-.06.01-.08-.01a.99.99 0 0 0-.62-.24c-.06 0-.07.01-.03.06l.06.04c.05.02.09.06.1.1.35.57.53 1.02.56 1.33l.09 1.05c.01.16 0 .33-.02.52l-.08.5c-.08.4-.11.68-.1.86.07 1.08.04 2.2-.1 3.39-.04.39.09.76.38 1.1.14.16.2.33.18.51-.02.1.03.16.14.18l.16.03a.1.1 0 0 0 .09-.03.1.1 0 0 0 .03-.09.78.78 0 0 1 .1-.52Z" fill="#0B2037"/><path d="M35.45 12.6c-.3.17-.65.26-1.04.26-.11 0-.27-.02-.47-.06a2.44 2.44 0 0 0-.56-.06c-.34.02-.69 0-1.04-.08-.01 0-.02-.01-.02-.03l.05-.06 3.08.02Z" fill="#476278"/><path d="M29.22 13.08c.6.03 1.31.03 2.14 0 .13 0 .17.07.14.2l-.08.02a4.4 4.4 0 0 0-2.2.28c-1.06.02-1.78.46-2.15 1.3l-.2.75c-.01.03-.03.04-.06.02l-.04-.01a.04.04 0 0 1-.03-.04c-.03-.23-.02-.46.03-.7.04-.22-.02-.46-.2-.72a1.8 1.8 0 0 0-.55-.52 1.2 1.2 0 0 0-.6-.13 6.5 6.5 0 0 0-.94.07c-.59.04-1.06.25-1.42.62-.35.35-.57.81-.66 1.39-.01.06-.05.09-.11.09l-2.6-.03c-.06 0-.09.03-.09.08v4.09c-.01.18-.06.36-.13.54a.1.1 0 0 0-.04.03c-.02.02-.05.03-.08.01-.1-.05-.14-.1-.14-.17.01-1.2 0-2.4-.04-3.61v-.65c0-.2.02-.35.06-.44.06-.15.18-.22.37-.2l.86-.06h1.5c.05 0 .08-.02.1-.07.05-.3.2-.6.4-.9.23-.32.48-.54.76-.67.05-.02.08-.06.08-.11 0-.04-.02-.06-.06-.07-.32 0-.8-.04-1.42-.1-.5-.05-.88-.08-1.13-.09-.42-.02-.8-.03-1.15-.01H18.3c-.1.01-.16-.02-.17-.1 0-.05.02-.08.07-.1l.25-.04c1.19-.06 2.38-.1 3.58-.13.15 0 .34-.04.58-.1.14-.04.28-.05.41-.04.09 0 .2.03.36.07.2.05.36.08.48.08 1.46.03 2.88.05 4.28.04.4 0 .76.04 1.08.13Z" fill="#EFFAFB"/><path d="M16.13 13.29c.21-.04.42-.05.61-.02.11.4.13.83.04 1.27a1 1 0 0 0 .02.36l.03.2c.05.91.1 1.8.17 2.66.03.46.16 1.08.4 1.86.03.12.1.28.2.49.1.21.17.37.2.5.02.07.09.18.18.3.09.11.14.2.16.26.06.14.17.3.33.47a7.04 7.04 0 0 0 .68.6c.04.03.08.05.14.04.53-.06.93.02 1.2.26-1.45 0-2.83.04-4.16.11-.12.01-.2.05-.28.14-.01-.05-.05-.1-.1-.13a.13.13 0 0 1-.06-.1l-.01-.3c0-.07-.04-.09-.1-.07l-.07.02c-.07.03-.1 0-.11-.06a6.58 6.58 0 0 1 .05-1.64c0-.07 0-.19-.02-.33a27.93 27.93 0 0 1 0-3.06c.03-.46.02-.91-.03-1.35a15.8 15.8 0 0 1-.08-2.64c0-.1.06-.18.15-.22.18-.08.24-.03.16.14-.15.34-.2.7-.14 1.06l.17 1.32.03.06c.02.02.04.02.07.02H16c.04 0 .07-.02.07-.06l.06-2.16Z" fill="#1D3B53"/><path d="M31.5 13.28c.03-.13-.01-.2-.14-.2-.83.03-1.54.03-2.14 0 .5-.13 1-.2 1.5-.2.33 0 .65.05.96.14.4.12.8.16 1.2.12.31-.03.63-.04.93-.01.06 0 .1.03.13.08v.01c-.01.03-.03.04-.05.04a40.3 40.3 0 0 0-2.39.02Z" fill="#476278"/><path d="M35.64 12.88c.48.06.88.13 1.2.2.24.05.23.1 0 .13-.63.1-1.3.1-2.05.02.06-.16.16-.24.3-.26l.55-.09Z" fill="#597387"/><path d="m17.32 13 1.13.03-.25.05c-.05 0-.07.04-.07.09.01.08.07.11.17.1h1.24c.13 0 .21.05.25.15.05.15.07.28.05.4 0 .03 0 .06.03.08l.43.55c.03.03.04.07.05.11l.11.73c-.44.04-.73.06-.86.05-.19 0-.31.06-.37.21-.04.09-.06.23-.05.44v.05a.93.93 0 0 0-.56.06c-.12.07-.26.18-.4.36-.09.1-.16.26-.22.49l-.08.25c-.1.24-.18.24-.23-.02a3.6 3.6 0 0 0-.07-.26.45.45 0 0 1 0-.25c.07-.25.08-.5.04-.73-.03-.2-.03-.39.02-.57l.34-1.26c.06-.22.01-.47-.13-.75a.16.16 0 0 0-.1-.09.67.67 0 0 0-.43.02 2.06 2.06 0 0 0-.62-.02c-.2-.03-.4-.02-.61.02-.03-.06-.04-.11-.03-.15.01-.03.05-.05.11-.06.3-.06.67-.09 1.11-.08Z" fill="#648FA7"/><path d="M17.36 13.3c.18.27.22.6.11.98a5.6 5.6 0 0 0-.13 1.35c0 .07.03.18.09.32.06.15.1.26.1.34.01.54 0 1.06-.06 1.56-.04.45.09.83.4 1.13.03.03.06.04.09.03.03-.01.06-.04.06-.07.13-.82.45-1.57.94-2.26a.12.12 0 0 1 .09-.05.3.3 0 0 1 .12.01c.04 1.2.05 2.4.04 3.6 0 .07.05.13.14.18.03.02.06.01.08 0a.1.1 0 0 1 .04-.04c.08.03.15.06.2.1-.11-.02-.2 0-.25.06-.06.06-.08.14-.04.23.09.24.23.45.44.62l.83.7c.08.07.17.1.28.11l1.46.06c.04 0 .07.03.08.07.01.06 0 .1-.03.14-.04.04-.08.04-.12.02a.6.6 0 0 0-.66.09l-1.18-.04c-.26-.24-.66-.32-1.2-.26-.05 0-.1 0-.13-.04l-.21-.18a7.04 7.04 0 0 1-.47-.42 1.54 1.54 0 0 1-.33-.47 1.18 1.18 0 0 0-.16-.25c-.1-.13-.16-.24-.18-.32-.03-.12-.1-.28-.2-.5a8.9 8.9 0 0 1-.6-2.35 247.91 247.91 0 0 1-.2-2.85 1 1 0 0 1-.02-.36c.09-.44.07-.86-.04-1.27.16-.02.37-.01.62.02Z" fill="#335775"/><path d="M19.18 16.04v.6a.3.3 0 0 0-.13-.01.12.12 0 0 0-.1.05c-.48.69-.8 1.44-.93 2.26 0 .03-.03.06-.06.07a.09.09 0 0 1-.09-.03c-.31-.3-.44-.68-.4-1.13.05-.5.07-1.02.05-1.56 0-.08-.03-.2-.09-.34a.9.9 0 0 1-.09-.32c0-.61.05-1.06.13-1.35.11-.38.07-.7-.1-.99a.67.67 0 0 1 .41-.02c.05.02.08.04.1.09.15.28.2.53.14.75l-.34 1.26c-.05.18-.05.37-.02.57.04.24.03.48-.04.73a.45.45 0 0 0 0 .25l.07.26c.05.26.13.26.23.02l.08-.25c.06-.23.13-.39.22-.49.14-.18.28-.3.4-.36.15-.07.34-.09.56-.06Z" fill="#476278"/><path d="M19.54 13.27c.34-.02.73-.01 1.15.01.25.01.63.04 1.13.09.63.06 1.1.1 1.42.1.04 0 .06.03.06.07 0 .05-.03.09-.08.11-.28.13-.53.35-.76.67-.2.3-.35.6-.4.9-.02.05-.05.08-.1.08h-1.5l-.1-.74a.24.24 0 0 0-.06-.11l-.43-.55a.1.1 0 0 1-.03-.08.82.82 0 0 0-.05-.4c-.04-.1-.12-.15-.25-.15Z" fill="#92B2C2"/><path d="M31.42 13.3c.01.02-.01.05-.06.08a.7.7 0 0 0-.21.21.16.16 0 0 0-.03.12c.04.17 0 .32-.1.45a1.62 1.62 0 0 0-1-.58.7.7 0 0 0-.34.04c-.13.07-.29.05-.47-.04a4.4 4.4 0 0 1 2.2-.28Z" fill="#476278"/><path d="m26.78 13.45.04-.03c.05-.04.1-.05.16-.04.1.03.2.04.3.03.07 0 .16-.02.27-.04.19-.04.34-.05.45-.04.1 0 .1.03.02.07-.4.2-.73.46-1.01.8a.08.08 0 0 1-.07.03.07.07 0 0 1-.06-.04c-.12-.25-.3-.48-.55-.69a.14.14 0 0 1-.05-.1c0-.02 0-.03.02-.04a.05.05 0 0 1 .04 0l.3.12c.06.02.1 0 .14-.03Z" fill="#648FA7"/><path d="M27.1 13.69a.14.14 0 0 1-.08.09.1.1 0 0 1-.09 0 .1.1 0 0 1-.05-.07c-.01-.07.02-.11.07-.14a.12.12 0 0 1 .11 0c.05.03.06.07.05.12ZM39.87 15.4c-.08 1.82-.08 3.66.01 5.49l.02 1.9c-.02.04-.04.05-.07.05-.99-.02-1.98 0-2.98.04-1.07.04-2.21.04-3.44.01-.1 0-.2-.02-.29-.04a.15.15 0 0 0-.15.04c-.05.04-.06.09-.04.14l1.66 4.5-.21.35-1.81-5a.16.16 0 0 1 .02-.17.2.2 0 0 1 .16-.07c1.14-.01 2.27-.04 3.4-.09a26.38 26.38 0 0 1 2.5.08c.31 0 .55.03.7.07.05.01.1 0 .14-.02a.13.13 0 0 0 .06-.12l-.02-.64.05-5.78c0-.44-.07-.86-.23-1.28-.12-.32-.33-.7-.6-1.17-.1-.14-.07-.16.07-.06.55.41.9 1 1.05 1.76Z" fill="#EFFAFB"/><path d="M30.01 13.58c-.03.05-.02.1.02.15l.74.85c.18.2.26.42.25.65 0 .11-.02.12-.07.02-.23-.53-.63-1.01-1.2-1.45-.03-.03-.03-.05-.02-.09v-.05c0-.03-.01-.04-.05-.04a.7.7 0 0 1 .33-.04Z" fill="#1D3B53"/><path d="M31.61 15.35c.68.03 1.37.05 2.1.05.1 0 .16.05.19.14-.02.12-.15.19-.38.19l-2.07.01c-.05 0-.07-.02-.07-.07 0-.16.07-.26.23-.32Z" fill="#92B2C2"/><path d="M39.87 15.4c.14 1.57.17 3.15.09 4.74-.02.25-.04.5-.08.75a59.7 59.7 0 0 1-.01-5.5Z" fill="#648FA7"/><path d="m35.62 16.2-1.5.64c-.07.03-.12 0-.12-.08 0-.12.08-.21.23-.3.34-.16.73-.35 1.17-.58l.6-.1c.06-.02.1 0 .11.05.03.07 0 .14-.08.19-.12.08-.25.14-.4.18Z" fill="#EFFAFB"/><path d="M19.92 19.44c.05.13.05.24-.01.3a.11.11 0 0 1-.12.04c-.11-.03-.17-.01-.2.06v-3.02c.15.08.21.28.21.57v2c0 .03.02.06.06.06a.1.1 0 0 0 .06-.01Z" fill="#335775"/><path d="m26.21 20.49-.38-.03c-.88-.1-1.76-.1-2.63-.02l-1.94.02-1.6.01a.57.57 0 0 0-.2-.09c.08-.18.13-.36.14-.54.02-.07.08-.1.19-.06.05 0 .09 0 .12-.04.06-.06.06-.16 0-.3.02-.07.03-.1.06-.12.04-.03.07-.02.08.02.05.17.17.28.36.33.1.03.28.04.54.03h.33c.2.03.48.03.87.02.25 0 .44-.01.56 0 .2 0 .38.02.54.05.06.01.15 0 .26-.01l.17-.02c.74 0 1.47-.03 2.19-.06.05 0 .09-.02.12-.05l.08-.08c.06-.06.1-.06.15.01.06.12.17.17.32.15.07-.02.11.01.13.07.01.06 0 .11-.04.16-.08.1-.17.19-.29.26-.04.02-.06.06-.04.11.03.1 0 .17-.09.18Z" fill="#1D3B53"/><path d="M30.1 23.33a.06.06 0 0 0-.03.03l-.04.02h-.09l-1.07-2.8c-.03-.08 0-.14.08-.17a.4.4 0 0 1 .16-.03h3.07c.5-.01.97 0 1.4.05.2.01.37-.04.5-.15a.18.18 0 0 0 .08-.14l.04-.57c0-.06.03-.1.08-.12.05-.02.1-.01.15.02.24.18.52.33.82.46.02 0 .02.02.01.04l-.01.03h-.01c-.2-.09-.42-.16-.65-.2a.17.17 0 0 0-.16.03.14.14 0 0 0-.05.15c.07.28-.06.45-.37.52-.28.06-.71.09-1.3.09-.31 0-.53 0-.67.02-.88.07-1.75.12-2.62.17a.13.13 0 0 0-.1.05.11.11 0 0 0-.02.11l.8 2.39Z" fill="#476278"/><path d="M29.94 23.38h.09c.02 0 .03 0 .04-.02 0-.02.02-.03.03-.03.8 1.93 1.55 3.88 2.23 5.85.03.07.03.18 0 .34l-.47-1.04c-.04-.1-.1-.26-.16-.47l-.14-.4a1.68 1.68 0 0 0-.2-.38c-.11-.15-.14-.14-.1.04 0 .04.03.1.06.19.05.13.07.23.08.3.02.2.06.4.14.58a5.23 5.23 0 0 1 .28 1.02c.06.21.08.44.05.68 0 .05-.03.07-.08.03a.21.21 0 0 1-.1-.13c-.13-.62-.31-1.2-.54-1.76a.2.2 0 0 0-.1-.1l-.08-.04a.22.22 0 0 1-.1-.12.7.7 0 0 0-.32-.4.15.15 0 0 1-.08-.1c-.06-.3-.2-.56-.41-.77a.2.2 0 0 1-.06-.12l-.02-.12a4.35 4.35 0 0 0-.21-.98.9.9 0 0 1-.07-.39.2.2 0 0 0-.04-.13c-.26-.36-.4-.75-.45-1.17a1.47 1.47 0 0 0-.13-.48 1.66 1.66 0 0 1-.09-.31 1.21 1.21 0 0 0-.14-.4c-.19-.29-.32-.6-.4-.95a1.25 1.25 0 0 0-.35-.62.37.37 0 0 1-.1-.37l.13-.6a.13.13 0 0 1 .08-.1c.37-.16.76-.24 1.16-.23a25.03 25.03 0 0 0 2.29-.02c-.04 0-.06 0-.06.02l.01.04.04.03c.64.06 1.22.07 1.73.05.12-.01.2-.07.27-.18.12-.21.19-.2.2.04.02.15 0 .26-.05.36a.14.14 0 0 1-.13.08l-4.07.09a3.9 3.9 0 0 1-.73-.06c-.05-.01-.1 0-.14.02a.21.21 0 0 0-.1.09.58.58 0 0 0-.09.38c.01.07.05.17.12.31.07.12.11.22.13.29.13.42.27.83.42 1.25a8.06 8.06 0 0 0 .59 1.23c.02.06.06.08.13.08h.04c.01 0 .02 0 .03-.02a.04.04 0 0 0 .01-.04l-.07-.34Z" fill="#1D3B53"/><path d="M24.07 28.57c-.16.5-.34.98-.53 1.46-.04.11-.14.13-.3.06l-.01-.26 2.51-7.35.44-1.33.2-.63c.09-.13.18-.2.29-.2.04 0 .07.01.1.04a.1.1 0 0 1 .03.09c-.01.14-.04.29-.09.44a6.9 6.9 0 0 1-.28.75c-.8 2.31-1.58 4.62-2.36 6.93Z" fill="#EFFAFB"/><path d="M25.83 20.46c-.88.14-1.76.13-2.63-.02.87-.08 1.75-.07 2.63.02Z" fill="#648FA7"/><path d="M23.2 20.44c.87.15 1.75.15 2.63.02l.38.03c.04.12-.02.2-.16.25-.07.03-.2.06-.37.1-.44-.06-.87-.1-1.29-.1-.64 0-1.07-.02-1.28-.03-.47-.02-1-.03-1.59-.02-.2 0-.29-.06-.3-.18l.04-.04 1.94-.03Z" fill="#92B2C2"/><path d="M21.26 20.47a.09.09 0 0 0-.04.04c-.07 0-.12.03-.13.1a.1.1 0 0 0 .03.11l.05.05a.2.2 0 0 1 .07.14c.01.22.1.4.27.52.46.33 1.02.57 1.68.72.2.05.37.02.5-.07.08-.05.18-.16.3-.34.07-.12.13-.2.18-.26a.66.66 0 0 1 .28-.18c.1-.04.19-.08.28-.14.22-.15.54-.25.95-.32.17-.04.3-.07.37-.1.14-.04.2-.13.16-.25.03-.04.09-.03.18.03l-.2.63c-.13 0-.26.07-.39.22a.27.27 0 0 1-.1.08c-.24.1-.49.23-.74.38a.64.64 0 0 0-.26.27c-.08.15-.17.3-.28.43-.07.08-.14.21-.22.4a2.1 2.1 0 0 1-.18.33.19.19 0 0 1-.11.08.55.55 0 0 1-.36-.03.56.56 0 0 1-.27-.24c-.04-.06-.08-.06-.13-.01-.17.18-.24.34-.22.5l-.19.43c-.32.76-.55 1.34-.67 1.74-.23.73-.49 1.43-.77 2.1a.27.27 0 0 1-.22.17c-.5.08-.96.1-1.39.04-.11-.01-.12-.05-.02-.1a.55.55 0 0 1 .33-.07c.36.04.7.03 1.04-.03.08-.02.13-.06.15-.14.13-.47.3-.92.52-1.35.06-.1.1-.28.14-.5.04-.23.09-.4.14-.5.1-.22.18-.44.24-.66.04-.17.12-.42.24-.74.13-.38.22-.66.26-.86.01-.06 0-.1-.06-.12a.35.35 0 0 0-.2-.01c.22-.32-.05-.45-.81-.38a.6.6 0 0 1 .66-.09c.04.02.08.02.12-.02.03-.03.04-.08.03-.14 0-.04-.04-.07-.08-.07l-1.46-.06c-.1 0-.2-.04-.28-.1l-.83-.7c-.2-.18-.35-.39-.44-.63-.04-.1-.02-.17.04-.23s.14-.08.24-.07h1.6Z" fill="#476278"/><path d="M21.22 20.51c.01.12.1.18.3.18.6 0 1.12 0 1.6.02l1.27.03c.42 0 .85.04 1.29.1-.41.07-.73.17-.95.32l-.28.14c-.1.03-.2.1-.28.18-.05.05-.11.14-.19.26-.11.18-.2.29-.29.34-.13.1-.3.12-.5.07a4.63 4.63 0 0 1-1.68-.72.66.66 0 0 1-.27-.52.2.2 0 0 0-.07-.14l-.05-.05a.1.1 0 0 1-.03-.11c.01-.07.06-.1.13-.1Z" fill="#648FA7"/><path d="m26.18 21.15-.44 1.33c-.04-.04-.08-.06-.13-.05-.05.02-.08.04-.1.09-.04.16-.08.27-.12.34-.52.85-1.12 1.63-1.78 2.35-.2.21-.28.18-.25-.1 0-.09 0-.17-.04-.26a1.73 1.73 0 0 0-.1-.22c-.06-.12-.1-.22-.12-.3-.07-.23-.12-.49-.17-.78-.02-.15.05-.31.22-.5.05-.04.1-.04.13.02.06.11.15.19.27.24.12.05.24.06.36.03a.19.19 0 0 0 .11-.08c.05-.07.11-.18.18-.34.08-.18.15-.3.22-.39.11-.14.2-.28.28-.43a.64.64 0 0 1 .26-.27c.25-.15.5-.28.74-.38a.27.27 0 0 0 .1-.08c.13-.15.26-.23.38-.22Z" fill="#1D3B53"/><path d="m20.48 22.54 1.18.04c.76-.07 1.03.06.8.38-2.1-.04-4.22-.04-6.34-.03-.05 0-.08-.01-.08-.03-.02-.03-.01-.06 0-.11a.38.38 0 0 1 .29-.14 79.3 79.3 0 0 1 4.15-.11Z" fill="#EFFAFB"/><path d="M39.9 22.8h.03c.02.01.02.02.02.03a.61.61 0 0 1-.33.32.13.13 0 0 1-.15-.02l-.07-.07c-.04-.04-.08-.04-.13 0a.85.85 0 0 1-.28.12l-.33.08-.36.08c-.19.07-.38.1-.56.1-.09 0-.22.02-.39.06-.12.03-.21.05-.28.05-.1.02-.2.01-.28 0-.19-.05-.4-.07-.65-.08-.14 0-.36 0-.65.02-.32.02-.55.02-.71.02-.36 0-.7-.05-1.05-.13a.1.1 0 0 0-.08.01.08.08 0 0 0-.04.07c0 .06.02.12.07.17.3.3.5.64.57 1.01.02.12.07.24.14.36a4 4 0 0 0 .2.32c.19.25.3.45.34.6.06.2.16.38.3.53.06.07.11.06.14-.02l.18-.43.03-.06c.16-.14.2-.3.16-.5-.06-.18.01-.24.2-.16.1.04.17 0 .23-.1a.13.13 0 0 0 .02-.07c0-.05.02-.09.06-.11a.2.2 0 0 1 .11-.03c.56 0 1.1.04 1.66.1a1.83 1.83 0 0 0 .47 0c.2-.02.34-.03.43-.02.16.02.28.08.37.2.04.05.1.07.16.06l.28-.04c.06 0 .1.01.13.06.04.08.02.14-.06.19-.24.12-.5.2-.8.2-.98.02-1.88.02-2.72-.02-.05 0-.1.01-.13.04a.16.16 0 0 0-.06.13c-.01.5.01 1.02.07 1.54.02.12-.04.19-.17.2-.46.06-.93.03-1.4-.08l-1.66-4.5c-.02-.05 0-.1.04-.14.04-.05.1-.06.15-.04.1.02.2.04.3.04 1.22.03 2.36.03 3.43-.01 1-.04 2-.06 2.98-.04.03 0 .05-.01.07-.04Z" fill="#0B2037"/><path d="m32.48 29.8 6.97.07.06-.03a.08.08 0 0 0 .03-.06l.02-3.66c.05-.16.13-.26.24-.32a.07.07 0 0 1 .07 0l.03.06-.02 4.16c0 .03-.01.05-.05.05a2282.5 2282.5 0 0 1-4.9.03h-1.28c-.47 0-.89.02-1.27.06-.02 0-.04 0-.06-.02a.07.07 0 0 1-.03-.06c0-.15.06-.24.2-.27ZM19.59 27.43c0 .12-.06.23-.15.33a.21.21 0 0 1-.09.05c-.08.03-.13 0-.13-.08-.02-.53-.01-1.06.03-1.58a.49.49 0 0 1 .14-.3.14.14 0 0 1 .06-.04.1.1 0 0 1 .1.01.1.1 0 0 1 .04.08c.02.55.02 1.06 0 1.53Z" fill="#EFFAFB"/><path d="M39.34 26a.4.4 0 0 1-.17.07.19.19 0 0 0-.1.06.35.35 0 0 1-.28.12c-.6 0-1.22 0-1.85.02-.13 0-.22.06-.27.18-.02.04-.09.09-.22.16l-.02-.34c0-.08.02-.14.07-.2a.28.28 0 0 1 .2-.08h2.64Z" fill="#1D3B53"/><path d="m23.23 29.83.02.26-.33.03c-.53.04-.94.07-1.21.06a136.5 136.5 0 0 0-5.76 0v-.03l.2-.33a.06.06 0 0 1 .05-.03c1.92.01 3.85 0 5.8-.02.3 0 .7.02 1.23.06Z" fill="#92B2C2"/><path d="M21.04 32.92c-.18.34-.36.63-.54.88-.15.2-.26.43-.33.67a.13.13 0 0 1-.1.1c-.05.01-.1 0-.13-.04a.17.17 0 0 1-.06-.14 2.4 2.4 0 0 0-.3-1.25.07.07 0 0 0-.06-.04c-.03 0-.05.01-.07.04-.08.17-.14.43-.2.78l-.1.54c-.1.32-.2.67-.27 1.03-.01.05-.04.06-.08.04l-.12-.05.8-4.24a.2.2 0 0 1 .09-.14c.04-.03.1-.05.15-.05l.84.02c.04 0 .07 0 .1.03.03.02.04.05.05.08l.33 1.74ZM23.89 33.38c-.12.18-.19.37-.2.57a1.4 1.4 0 0 1-.09.45 1 1 0 0 1-.26.34c-.07.06-.15.16-.23.3a1.9 1.9 0 0 1-.12.2c-.03.03-.07.05-.11.03-.05-.01-.07-.04-.07-.09l.01-.32-.01-.04a.05.05 0 0 0-.05 0h-.05a.15.15 0 0 0-.11.13l-.03.33a1.8 1.8 0 0 1-.12.62c-.09.19-.14.4-.17.64-.01.14-.06.14-.13.03a.23.23 0 0 0-.08-.08.7.7 0 0 1 0-.44l.13-.36c.27-1.48.54-2.98.83-4.49a.2.2 0 0 1 .08-.12.22.22 0 0 1 .14-.04l.84.02c.11 0 .16.05.14.16l-.34 2.16Z" fill="#476278"/><path d="m32.87 31.3-.76-.03c-.12 0-.18.05-.18.16l.02 3.25-.03.2a.23.23 0 0 1-.04.02c-.04 0-.07-.02-.07-.05a5.84 5.84 0 0 1-.07-1c.01-.87.01-1.77-.01-2.7 0-.04.02-.06.07-.06l.95-.03c.04 0 .07.01.1.04s.04.06.03.1l-.01.1ZM17.18 31.46a2.36 2.36 0 0 0-1.15-.17c-.07 0-.07-.06 0-.17a.1.1 0 0 1 .09-.05l.86.02c.05 0 .09.03.1.08l.1.3Z" fill="#648FA7"/><path d="m25.84 32.38-.09.07a.75.75 0 0 1-.15.1c-.22.1-.45.27-.7.5-.1.09-.18.08-.27 0v-1.83c0-.04.02-.07.05-.1a.15.15 0 0 1 .1-.04h2.88c.06 0 .1.03.1.09l-.02.93c0 .03-.02.06-.04.08a.13.13 0 0 1-.1.03c-.73-.02-1.24-.02-1.54 0-.14 0-.21.06-.22.17Z" fill="#597387"/><path d="m31.26 31.32-3.1-.03c-.02-.06-.02-.1-.01-.13s.04-.05.07-.05l2.97-.02c.02 0 .05 0 .07.02a.1.1 0 0 1 .03.06c.01.1 0 .15-.03.15ZM35.54 31.32l-1.05-.03c-.1 0-.18.04-.23.13l-1.15 2.22c.24-.86.6-1.68 1.08-2.45a.2.2 0 0 1 .17-.1h1.21c.02 0 .04 0 .06.02l.02.06c-.01.05-.05.1-.11.15ZM39.05 31.52a1.67 1.67 0 0 1-.4-.1 1.6 1.6 0 0 0-.39-.12c-.94-.1-1.7.3-2.26 1.2.2-.84.78-1.3 1.73-1.4.49-.06.93.08 1.33.42Z" fill="#648FA7"/><path d="M16.03 31.3c.34-.06.72 0 1.15.17l.6 3.24c-.32 0-.54-.1-.68-.31-.25-.41-.5-.73-.74-.96L16 31.38l.01-.05.02-.04Z" fill="#476278"/><path d="m28.16 31.29 3.1.03.03.75c0 .04-.02.08-.05.1a.16.16 0 0 1-.11.05l-1.67-.04c-.03 0-.06.01-.08.03a.1.1 0 0 0-.04.08l-.03.85c-.36.08-.75 0-1.17-.25l.02-1.6Z" fill="#597387"/><path d="m32.87 31.3.01 2c0 .04.02.08.05.11l.18.23 1.15-2.22c.05-.09.12-.13.23-.13l1.05.03-1.1 2.18c-.4.02-.66.1-.8.26-.22.21-.47.62-.76 1.23a.31.31 0 0 1-.32.2c-.08-.01-.14-.05-.15-.13-.04-.15-.12-.3-.23-.44a.11.11 0 0 0-.12-.05c-.04.01-.08.05-.11.11l-.02-3.25c0-.1.06-.16.18-.16l.76.03ZM39.05 31.52c.32.14.53.39.62.75.1.4.13.86.1 1.4 0 .1-.06.15-.17.15l-.83.03c-.12 0-.17-.05-.17-.16l.01-.18c.02-.27.02-.47.01-.6-.02-.24-.06-.4-.15-.5a.7.7 0 0 0-.57-.23.79.79 0 0 0-.56.23c-.13.13-.2.35-.23.64a5.27 5.27 0 0 0 .04 1c-.07.38-.48.32-1.2-.16l.05-1.38c.56-.9 1.32-1.3 2.26-1.2.1 0 .22.04.4.1.12.06.26.1.4.1Z" fill="#476278"/><path d="m25.84 32.38-.07 3.03c0 .03.01.05.03.08a29.8 29.8 0 0 0 1.64.1c.27 0 .38.07.32.2-.67-.02-1.35-.01-2.03.02-.06 0-.2-.04-.4-.14a2.31 2.31 0 0 0-.82-.22l.06-2.37c0-.02 0-.03.03-.03h.03c.09.08.18.09.26 0 .26-.23.5-.4.71-.5a.76.76 0 0 0 .15-.1l.09-.07ZM28.14 32.89c.42.25.8.33 1.17.25l-.03 2.21c0 .07.02.12.06.16.05.04.1.07.17.07l1.75.02a.1.1 0 0 1 .09.06c.03.07 0 .12-.12.14-.53-.03-1.08-.03-1.64 0-.07 0-.16-.01-.27-.04l-.25-.03a.76.76 0 0 1-.35-.1 2.14 2.14 0 0 1-.6-.46l.02-2.28Z" fill="#335775"/><path d="m21.04 32.92.6 3.34a.7.7 0 0 1-.25.09l-.24.01-.2.01-.35.06c-.05 0-.09 0-.13-.03a.15.15 0 0 1-.07-.11c-.07-.41-.14-.84-.23-1.28a.16.16 0 0 0-.05-.1.08.08 0 0 0-.09-.01c-.03 0-.05.03-.05.06-.05.39-.08.73-.1 1.04-.02.16-.09.32-.2.48-.04.06-.08.06-.14.03a1.26 1.26 0 0 0-.54-.22c-.05 0-.1.01-.12.06-.08.15-.15.38-.2.69-.04.24-.09.43-.13.55-.04.1-.1.12-.2.07l-.05-.03c-.04-.02-.05-.05-.04-.1a.5.5 0 0 0 .05-.3l.37-1.75.12.05c.04.02.07.01.08-.04.08-.36.17-.7.26-1.03.04-.12.07-.3.11-.54.06-.35.12-.61.2-.78.02-.03.04-.04.07-.04.02 0 .05.01.06.04.22.4.32.81.3 1.25 0 .06.02.1.06.14.03.04.08.05.13.04a.13.13 0 0 0 .1-.1c.07-.24.18-.47.33-.67.18-.25.36-.54.54-.88Z" fill="#1D3B53"/><path d="M23.89 33.38c-.01.46-.09.9-.23 1.34-.08.24-.12.44-.11.6 0 .18-.03.4-.1.7-.05.14-.07.25-.09.33a22.9 22.9 0 0 1-.46 1.94c-.05.18-.16.41-.34.7l-.2.33c-.07.16-.13.3-.15.44-.07.33-.05.7.03 1.1.04.18-.04.29-.24.31l-.58.08c-.2.03-.3-.05-.28-.24 0-.24-.03-.5-.1-.79l-.1-.45c-.05-.29-.1-.5-.15-.64a1.3 1.3 0 0 1-.1-.42 4.63 4.63 0 0 0-.28-1.4 3.6 3.6 0 0 1-.16-.78l-.04-.29c0-.04-.03-.07-.08-.09a.12.12 0 0 0-.12.03.9.9 0 0 0-.26.5c-.05.34-.11.68-.18 1-.02.11-.07.23-.13.34-.04.07-.1.17-.2.3-.14.2-.23.36-.27.48-.11.27-.25.52-.41.76a.11.11 0 0 1-.08.05c-.04 0-.07 0-.1-.02a.43.43 0 0 1-.16-.41c.03-.27 0-.52-.09-.75a1.65 1.65 0 0 0-.3-.43 1.68 1.68 0 0 1-.3-.44c-.02-.05-.05-.07-.1-.06-.3.04-.47-.1-.53-.41-.1-.58-.17-1.09-.19-1.51.2.13.39.27.53.42l.3.26c.16.1.24.21.25.32.04.34.15.54.33.61.02-.02.08 0 .2.04a.5.5 0 0 1-.06.3c-.02.05 0 .08.04.1l.05.03c.1.05.16.03.2-.07.04-.12.09-.3.13-.55.05-.31.12-.54.2-.7.03-.04.07-.06.12-.05.2.03.38.1.54.22.06.03.1.03.14-.03.11-.16.18-.32.2-.48.02-.3.05-.65.1-1.04 0-.03.02-.05.05-.06.03-.01.06 0 .09.01l.05.1c.09.44.16.87.23 1.28 0 .04.03.08.07.1.04.03.08.04.13.04a15.03 15.03 0 0 0 .55-.07l.24-.01a.7.7 0 0 0 .25-.1c0 .26.04.49.13.7.02.04.05.04.09.01.1-.09.18-.25.2-.47.04.02.07.05.09.08.07.12.12.1.13-.03.03-.24.08-.45.17-.64.06-.13.1-.34.12-.62 0-.15.02-.25.03-.33.01-.06.05-.1.1-.12l.06-.02h.05c0 .02.02.03.01.05l-.01.32c0 .05.02.08.07.1.04 0 .08 0 .11-.04l.12-.2c.08-.14.16-.24.23-.3a1 1 0 0 0 .26-.34c.05-.11.08-.26.09-.45.01-.2.08-.4.2-.57Z" fill="#0B2037"/><path d="M16.36 33.44c.24.23.49.55.74.96.14.21.36.31.68.31.13.43.22.86.26 1.31l.1.56c.04.19.03.4-.02.61-.18-.07-.29-.27-.33-.61 0-.11-.09-.22-.24-.32a2.14 2.14 0 0 1-.3-.26c-.15-.15-.33-.3-.54-.42l-.35-2.14ZM34.43 33.5l-1.08 2.15c-.22.09-.36.28-.41.57a.23.23 0 0 1-.08.13l-.3.28a.27.27 0 0 1-.22.07l-.28-.02c-.08-.01-.12.02-.12.09a.82.82 0 0 1-.25.54l.01-.9c0-.06.03-.08.08-.08.02 0 .04.01.04.03.04.08.06.07.06-.01.03-.49.05-.98.04-1.47l.03-.2c.03-.06.07-.1.11-.1.05-.02.09 0 .12.04.11.14.19.29.23.44.01.08.07.12.15.13.15 0 .26-.06.32-.2.3-.6.54-1.02.75-1.23.15-.15.42-.24.8-.26ZM35.94 33.9c.73.47 1.14.53 1.21.16.06.36.23.7.51 1.02.68.77 1.28 1.52 1.8 2.23.1.14.16.32.17.55a4.53 4.53 0 0 1-.04.84c-.01.21-.08.23-.22.06-.09-.12-.19-.23-.3-.32a.14.14 0 0 0-.15-.02c-.05.03-.08.06-.08.12-.01.28-.05.55-.1.81a.62.62 0 0 0 .01.3l.03.09c0 .04 0 .08-.03.11-.29.38-.7.5-1.22.36-.03 0-.05-.02-.05-.05-.02-.04 0-.06.05-.06.43.02.72-.07.88-.27.06-.09.1-.2.13-.34l.06-.42a6.12 6.12 0 0 1 .14-.8c0-.08 0-.17-.03-.24a3.12 3.12 0 0 0-.84-1.22c-.57-.52-1.04-1-1.43-1.44a2 2 0 0 1-.5-1.48ZM28.12 35.17c.18.2.38.36.6.47.12.06.24.09.35.09l.25.03c.11.03.2.04.27.04.56-.03 1.1-.03 1.64 0 .08.28.09.56.04.85 0 .03-.02.05-.04.07a.13.13 0 0 1-.09.03l-.53-.03-.6-.04c-.22 0-.42.02-.59.05-.06.02-.09.05-.08.11.04.57-.05 1.16-.3 1.77-.04.11-.07.23-.08.36l-.02.36a4.2 4.2 0 0 1-.02.42l-.08.07c-.03.03-.04.03-.05-.01l-.31-1.35c0-.03-.03-.05-.05-.05-.03-.01-.06 0-.08.02a.18.18 0 0 0-.05.12c-.03.83-.01 1.63.06 2.37 0 .08-.03.1-.11.07a.26.26 0 0 1-.13-.1.11.11 0 0 1 0-.13.58.58 0 0 0 .08-.29c0-.06-.01-.16-.04-.29a1.9 1.9 0 0 1-.03-.28c-.02-1.56-.02-3.14-.01-4.73ZM24.51 35.45l.42.07c.07.01.2.06.4.15.2.1.34.14.4.14.68-.03 1.36-.04 2.03-.02v.67c0 .12-.06.18-.18.2-.45.08-.92.08-1.4-.01a.5.5 0 0 0-.31.02c-.1.05-.14.14-.13.26a.3.3 0 0 1-.06.21c-.05.06-.11.1-.19.13a2.1 2.1 0 0 1-.25.05.97.97 0 0 0-.35.1c-.1.06-.16.17-.17.34l-.06.98c0 .02-.02.03-.04.03s-.03 0-.04-.03a6.05 6.05 0 0 1-.03-.53c0-.92-.01-1.84-.04-2.76Z" fill="#1D3B53"/><path d="M33.35 35.65c-.16.22-.25.44-.27.66 0 .04 0 .09.03.13.28.43.34.86.2 1.27-.1.31-.07.61.1.9.02.03.01.06-.02.1-.07.07-.15.08-.25.03-.37-.2-.66-.46-.87-.77-.25-.36-.37-.32-.36.1 0 .13 0 .32-.02.57-.02.39-.02.69 0 .9.05.45.07.9.05 1.36 0 .07-.04.11-.1.13l-.06.02a.1.1 0 0 1-.09-.01.08.08 0 0 1-.04-.07l.04-.28c.04-.16.05-.28.04-.37a12.58 12.58 0 0 1-.04-3c.14-.13.22-.3.25-.55 0-.07.04-.1.12-.1l.28.03c.08 0 .15-.02.21-.07l.31-.28a.23.23 0 0 0 .08-.13c.05-.3.19-.48.41-.57Z" fill="#0B2037"/><path d="m31.16 40.05-1.71.01c-.06 0-.1.04-.1.1 0 .05.04.09.1.09l1.71-.01c.06 0 .1-.05.1-.1s-.04-.1-.1-.1Z" fill="#1D3B53"/><path d="m29.52 43.12-.06.75c0 .05-.02.07-.07.07h-.03c-.07 0-.1-.04-.1-.1l.05-2.13.02-.02h.04c.05 0 .07.02.07.06-.01.38.09.75.3 1.13.03.05 0 .09-.06.1l-.06.02c-.06.02-.1.05-.1.12Z" fill="#EFFAFB"/><path d="M37.92 41.69c.02 0 .03 0 .03.02v.02c0 .05-.02.1-.07.14a.33.33 0 0 1-.2.06h-.23a.33.33 0 0 1-.2-.04c-.05-.04-.08-.08-.08-.13v-.02c0-.01 0-.02.03-.02l.72-.03ZM18.16 42.7c.1-.02.19 0 .27.05.08.06.07.1-.03.11l-.23.04c-.06.01-.1.04-.12.1-.04.18-.06.36-.03.54 0 .04.03.07.08.08l.31.1a.1.1 0 0 1 .07.04v.08c-.06.12-.26.15-.61.1a.19.19 0 0 1-.12-.06.16.16 0 0 1-.04-.12l.11-1.9c0-.05.04-.08.1-.1.16-.04.33-.05.49-.05.1 0 .1.03.01.06-.12.06-.26.1-.42.11a.14.14 0 0 0-.1.06c-.02.03-.03.06-.02.1l.12.57c0 .03.03.06.06.08.03.02.06.02.1.01ZM19.15 41.72c.01.27.07.53.16.78.03.06.03.13 0 .2-.1.25-.1.53-.02.82.02.08.03.16 0 .24-.02.09-.06.15-.14.18a.16.16 0 0 1-.15 0 .13.13 0 0 1-.07-.13l.11-2.07c0-.03.02-.04.04-.04h.04c.02 0 .03 0 .03.02ZM19.41 42.8c.1-.1.15-.26.18-.48.03-.16.03-.34.02-.54 0-.04.02-.06.06-.06.04 0 .06.01.06.05.02.7.07 1.36.12 1.96.01.1-.03.19-.14.24a.2.2 0 0 1-.05.01c-.03 0-.06 0-.09-.02a.1.1 0 0 1-.04-.08c-.04-.3-.1-.59-.17-.87a.22.22 0 0 1 .05-.22Z" fill="#648FA7"/><path d="M21.05 41.74c.03-.01.05 0 .06.03v.06c-.22.07-.43.07-.64.02-.02-.01-.03-.03-.03-.05l.02-.05c.02-.04.04-.05.08-.03a.9.9 0 0 0 .51.02Z" fill="#92B2C2"/><path d="m21.98 43.63.26.05c.1.03.17.09.2.18 0 .06-.02.1-.09.09l-.52-.03c-.07 0-.1-.04-.1-.1l.02-1.84c0-.13.07-.22.22-.25.09-.02.2-.03.32-.02.08.01.1.04.03.1a.17.17 0 0 1-.14.03.3.3 0 0 0-.25.07.24.24 0 0 0-.09.22l.05.46c.01.08.06.12.13.13.1 0 .2.03.3.05.12.04.12.07.01.12a.58.58 0 0 1-.35.01c-.08-.02-.1.01-.1.08.06.2.07.38.04.56l.01.06c.01.02.03.02.05.03Z" fill="#EFFAFB"/><path d="M27.1 43.97c-.02 0-.03 0-.03-.03v-.02c0-.61 0-1.14.03-1.58.02-.43.05-.65.08-.65h.03c.03 0 .06.22.08.65.02.44.04.97.04 1.58v.02c0 .02-.02.03-.04.03h-.19ZM27.9 43.96c-.02 0-.03-.01-.03-.03v-.33c0-.52 0-.97.03-1.34.02-.37.05-.56.08-.56h.03c.03 0 .05.19.08.56.02.37.03.82.03 1.34v.33c0 .02-.01.03-.03.03h-.2ZM28.63 41.77l.06 2.07c0 .08-.04.12-.12.1h-.05c-.05 0-.08-.03-.09-.07a33.2 33.2 0 0 1-.13-.82.35.35 0 0 1 .03-.2 1 1 0 0 1 .14-.2c.03-.05.05-.1.05-.15l-.02-.73c0-.02.01-.04.04-.04h.04c.03 0 .05 0 .05.04Z" fill="#92B2C2"/><path d="M30.58 41.77a3.6 3.6 0 0 0-.04.84 13.17 13.17 0 0 0 .14 1.2.1.1 0 0 1-.03.09.12.12 0 0 1-.08.04h-.05c-.08.01-.11-.02-.1-.1a.9.9 0 0 0-.18-.7.37.37 0 0 1-.06-.31l.24-1.05c.01-.03.03-.04.05-.04l.07-.01.03.01.01.03Z" fill="#EFFAFB"/><path d="m31.46 42.99-.03.55c0 .05.02.08.08.09l.3.05c.07 0 .1.05.08.12l-.01.05c-.02.08-.07.11-.15.11l-.4-.02a.14.14 0 0 1-.1-.04.12.12 0 0 1-.04-.1l.05-1.92c0-.12.07-.17.2-.17h.36c.11 0 .13.03.04.1a.26.26 0 0 1-.23.05.2.2 0 0 0-.18.04.17.17 0 0 0-.07.16l.05.56c.01.05.04.08.1.1l.3.02c.03 0 .04.02.05.04l.02.04c.01.04 0 .06-.05.07h-.27c-.06.01-.1.04-.1.1ZM32.74 42.58a.3.3 0 0 1-.07.24.18.18 0 0 0-.03.14c.04.32.04.64-.01.97 0 .02-.01.03-.03.04a.07.07 0 0 1-.06 0h-.03a.2.2 0 0 1-.1-.07.17.17 0 0 1-.03-.1l.08-2.04c0-.04.02-.06.05-.06h.05c.03 0 .04 0 .05.03l.13.85Z" fill="#92B2C2"/><path d="m36.47 43.59.28.1c.07.03.1.08.1.15-.01.08-.05.12-.13.13-.44.09-.66-.02-.64-.33a244.95 244.95 0 0 0 .12-1.92h.08l.01.03.11 1.75c0 .04.03.07.07.09Z" fill="#648FA7"/><path d="M23 42.04c.16.11.2.28.1.5a.1.1 0 0 0 .02.09.1.1 0 0 0 .08.04l.15.01c.1 0 .15-.03.18-.11.06-.16.08-.31.08-.48 0-.05-.02-.09-.05-.13-.14-.14-.31-.15-.53-.03-.05-.02-.08-.03-.08-.05 0-.08.03-.12.11-.14.32-.04.53.03.6.22.04.07.06.17.06.29a3.78 3.78 0 0 1-.03.39c-.02.15 0 .3.03.44.06.26.08.52.07.78 0 .07-.05.1-.12.12h-.04c-.02 0-.04 0-.06-.02a.07.07 0 0 1-.03-.05l-.02-.88a.1.1 0 0 0-.04-.07.12.12 0 0 0-.09-.03h-.14c-.1 0-.15.05-.12.15.06.21.1.44.1.68 0 .1-.04.16-.13.2l-.07.02c-.08.03-.11 0-.11-.07l.08-1.87ZM24.6 41.86a.41.41 0 0 1-.17-.05c-.07-.04-.06-.06.02-.06H25c.11.01.11.03 0 .07l-.14.04c-.05.02-.08.05-.07.1l.07 1.92c0 .03 0 .05-.03.07a.08.08 0 0 1-.07 0l-.05-.01c-.08-.03-.12-.08-.12-.16-.02-.62.02-1.23.1-1.82 0-.06-.03-.1-.1-.1Z" fill="#92B2C2"/><path d="m25.83 43.42-.05.37c-.01.06-.05.1-.12.1l-.04.01c-.07.01-.1-.02-.09-.08.06-.37.15-.75.26-1.12.08-.3.13-.6.14-.9 0-.1.03-.1.07-.02a.4.4 0 0 1 .03.25c0 .05 0 .1.02.14a5.5 5.5 0 0 1 .41 1.72.1.1 0 0 1-.06.04l-.04.01c-.02 0-.04 0-.05-.02l-.02-.16a.98.98 0 0 0-.08-.31c-.06-.1-.15-.14-.28-.13-.06.01-.09.05-.1.1Z" fill="#EFFAFB"/><path d="M23 42.04c0-.04 0-.08.03-.11.22-.12.4-.1.53.03.03.04.05.08.05.13 0 .17-.02.32-.08.48-.03.08-.09.11-.18.11h-.15a.1.1 0 0 1-.08-.05.1.1 0 0 1-.02-.1c.1-.21.06-.38-.1-.49Z" fill="#0B2037"/><path d="M38.76 43.48c0 .04.02.08.05.1.03.03.06.04.1.04h.07c.08 0 .13-.03.13-.11l.06-1.44c0-.05.03-.07.08-.05l.04.02.02.03.08 1.39c.01.23-.1.4-.33.48a.57.57 0 0 1-.16.04c-.25.01-.37-.1-.37-.32 0-.4.01-.78.06-1.16 0-.03.02-.05.06-.05h.03l.02.01c.04.36.06.7.06 1.02Z" fill="#92B2C2"/><path d="M34.08 43.96c-.02 0-.03 0-.03-.02v-.07c0-.5 0-.92.02-1.26.02-.35.05-.53.08-.53h.04c.04 0 .07.17.1.52.04.35.06.77.07 1.26v.07c0 .02 0 .02-.02.02h-.26Z" fill="#648FA7"/><path d="M20.68 43.9c-.02 0-.03 0-.03-.03v-.01c0-.47 0-.87.03-1.2.02-.34.04-.51.07-.51h.02c.03 0 .05.17.08.5.02.33.03.74.03 1.21v.01c0 .02-.01.03-.03.03h-.17Z" fill="#EFFAFB"/><path d="M37.43 43.94c-.02 0-.02 0-.02-.02v-.01c-.01-.5 0-.9.01-1.25.02-.35.04-.52.07-.52h.1c.04 0 .06.17.1.51.02.35.04.76.04 1.25v.02s0 .02-.02.02h-.28Z" fill="#648FA7"/><path d="M26.09 42.63c.07.1.11.21.1.33 0 .13-.07.2-.2.22-.06 0-.1-.02-.1-.08a.95.95 0 0 1 .02-.44c.03-.13.1-.14.18-.03Z" fill="#0B2037"/><path d="M33 42.75h-.03c-.09.01-.15.09-.14.17l.12.9c.01.08.1.13.18.12h.03c.1-.01.15-.09.14-.17l-.12-.9c0-.07-.09-.13-.18-.12Z" fill="#92B2C2"/><path d="M29.96 43.12h-.02c-.08 0-.14.06-.14.14v.53c0 .08.07.14.15.14h.01c.08 0 .15-.06.15-.14v-.53c0-.08-.07-.14-.15-.14Z" fill="#EFFAFB"/><path d="M39.56 43.69c0-.04.02-.07.07-.07h.06c.07 0 .12.02.17.05.05.02.07.06.07.1v.07c0 .04-.02.08-.07.1a.32.32 0 0 1-.17.05h-.06c-.04 0-.07-.02-.07-.06v-.24Z" fill="#92B2C2"/></svg>