<!-- by TradingView --><svg width="56" height="56" viewBox="0 0 56 56" xmlns="http://www.w3.org/2000/svg"><path fill="#F0F3FA" d="M0 0h56v56H0z"/><path fill-rule="evenodd" d="M45.91 27.58 28.66 10.1a.3.3 0 0 0-.43 0L10.1 27.02a.3.3 0 0 0-.08.33.3.3 0 0 0 .06.1L27.32 45.9a.3.3 0 0 0 .44.01l18.15-17.9a.3.3 0 0 0 0-.43Zm-17-12.99c-.84-.38-1.67.76-1.8 1.48-.24 1.4-.2 2.3.78 3.4 1.24 1.36 2.62 2.87 4.14 4.5.29.32.43.71.42 1.17-.1 3.9-.13 7.9-.11 12v.11c0 .61.03 2.37-.52 2.92l-1.44 1.46c-.28.28-.58.37-.93.25a.36.36 0 0 1-.2-.15c-.14-.23-.21-.58-.21-1.05.07-8.75.1-13.86.1-15.31 0-1.12-.62-2.02-1.5-2.79-1.43-1.25-2.97-2.64-3.73-4.24a3.22 3.22 0 0 1-.1-2.08c.1-.43.5-.93 1.19-1.48.37-.3 1.02-.91 1.96-1.85.44-.44.82-.67 1.13-.7.71-.1 1.22.08 1.74.66.28.32 1.1 1.14 2.48 2.48.3.3.64.82.71 1.25.24 1.39.9 2.58 1.99 3.56a68.23 68.23 0 0 1 4.39 4.3c.47.52.59 1.2.54 1.92-.14 1.87-.23 3.72-.28 5.57-.02.78-.72 1.46-1.45 2.16l-.45.44c-.32.32-.7.56-1.15.73a.46.46 0 0 1-.6-.29c-.08-.27-.12-.56-.11-.87.1-2.65.13-5.42.06-8.31-.03-1.35-.59-1.95-1.7-3.07-1.17-1.18-2.32-2.3-3.44-3.36-.7-.66-.67-1.76-.64-2.7v-.14a2.2 2.2 0 0 0-1.27-1.97Zm-8.48 17.9 2.09 2.12c.07.07.08.15 0 .23-.13.16-.36.31-.6.48-.38.25-.8.53-1.07.95a.25.25 0 0 0-.02.24c.34.8 1.77 2.33 2.67 2.27.19 0 .42-.15.69-.43a33.1 33.1 0 0 1 2.94-2.47c.54-.42.35-1.1-.13-1.55a154.46 154.46 0 0 1-4.17-4.1.46.46 0 0 1 .03-.67l4.05-3.38a.71.71 0 0 0 .06-1.03c-.6-.65-1.78-1.86-3.54-3.63-.43-.42-.76-.8-1-1.11-.5-.7-1.5-1.9-2.33-1.1l-2.06 2.06c-.22.23-.49.47-.77.71-.39.35-.8.72-1.15 1.1-.6.67-1 1.02-1.72 1.59a.7.7 0 0 0-.2.84c.2.44.51.86.94 1.26.93.88 1.86 1.74 2.78 2.58a.35.35 0 0 1-.05.55l-.06.04c-.76.46-1.46.88-1.9 1.52a.28.28 0 0 0 .03.35l1.9 1.93a.83.83 0 0 0 1.24-.07l1-1.27a.23.23 0 0 1 .35-.01Zm-1.68-7.5 1.74-1.6c.2-.18.5-.17.68.02l1.35 1.46c.18.2.17.5-.03.67l-1.74 1.62c-.2.17-.5.16-.67-.03l-1.35-1.46a.48.48 0 0 1 .02-.67Z" fill="#1F1E1F"/></svg>