<!-- by TradingView --><svg width="56" height="56" viewBox="0 0 56 56" xmlns="http://www.w3.org/2000/svg"><path fill="#F0F3FA" d="M0 0h56v56H0z"/><path fill-rule="evenodd" d="M28 8v13.5a6.5 6.5 0 0 1 6.5 6.5H48c-6.01-.9-18.42-6.17-20-20ZM12 27h9.58A6.5 6.5 0 0 1 27 21.58V13c-.68 4.2-4.63 12.9-15 14Zm16 7.5a6.5 6.5 0 0 1-6.5-6.5H8c6.01.9 18.42 6.17 20 20V34.5Zm1 8.5v-8.58A6.5 6.5 0 0 0 34.42 29H44c-10.37 1.1-14.32 9.8-15 14Zm4.5-15a5.5 5.5 0 1 1-11 0 5.5 5.5 0 0 1 11 0Zm-3.5-.75c-.02-.42-.38-1.25-1.68-1.25-1.63 0-1.82 1.53-1.82 2.1 0 .56.14 1.9 1.82 1.9H30v-1.98h-1.68v.8H29s.15.32-.78.32c-.33 0-.72-.39-.72-1.05 0-.47.08-1.09.92-1.09.68 0 .77.26.85.55l.73-.3ZM23 26v4h1v-2.28s.53 1.52.9 2.28H26v-4h-1v2.35L24 26h-1Zm8 4v-4h1v3.24h1V30h-2Z" fill="#FC010C"/></svg>