<!-- by TradingView --><svg width="56" height="56" viewBox="0 0 56 56" xmlns="http://www.w3.org/2000/svg"><path fill="#F0F3FA" d="M0 0h56v56H0z"/><path d="m18.16 29.62-1.78.74 1.46 4.57 2.5-.74 1.3.1 2.58.2 1.92-.43 1.16.57 1.13.15 2.64-1.04-6.98-4.12-1.72.52c-.1.04-.91-.33-1.3-.52l-1.45.36c-.07.01-1-.24-1.46-.36Z" fill="#C1C1C0"/><path d="M17 30.52c.19-.18.71-.55 1.3-.55.2 0 .3.02.35.04.05.01.07.03.13.06a1 1 0 0 0 .3.15c.15.03.32.05.57.05a1.73 1.73 0 0 0 1-.23l.08-.04a.54.54 0 0 1 .2-.03c.09 0 .19.03.32.07l.2.08.22.1c.33.12.74.22 1.24.03a3.95 3.95 0 0 1 1.1-.28v-.58c-.18 0-.65.07-1.31.31-.3.12-.55.07-.82-.03a6.11 6.11 0 0 1-.2-.09l-.23-.09c-.15-.05-.33-.1-.52-.1a1.11 1.11 0 0 0-.61.17l-.03.01c-.08.05-.21.12-.64.12-.22 0-.34-.02-.4-.04a.41.41 0 0 1-.15-.07c-.06-.04-.15-.1-.28-.14-.13-.04-.3-.05-.53-.05-.8 0-1.46.47-1.7.71l.42.42Zm2.6 4.43c.08-.09.26-.24.5-.37.24-.12.51-.22.8-.22.32 0 .46.07.66.17l.1.04c.3.14.66.26 1.43.26h1.24c.23-.02.34-.07.52-.14l.07-.03c.46-.2.7-.3 1.25-.3l.1.02h.02l.04.05.06.09c.07.1.17.2.34.29.16.08.37.13.65.16.45.03 1.06-.05 1.62-.15.56-.1 1.1-.24 1.43-.33l-.16-.57c-.31.1-.84.22-1.38.32-.55.1-1.1.17-1.46.14a1.13 1.13 0 0 1-.43-.1.36.36 0 0 1-.15-.13c-.04-.06-.1-.16-.2-.23a.75.75 0 0 0-.48-.14c-.66 0-1 .14-1.47.34l-.08.03a.8.8 0 0 1-.32.1h-1.21c-.68 0-.97-.11-1.19-.21l-.09-.04c-.22-.1-.46-.22-.9-.22a2.69 2.69 0 0 0-1.74.77l.42.4Z" fill="#A1A1A1"/><path d="M39 42v-8h9v-2.5L42.37 28H23v2.04l6.6 4.72h2.05c-.44.76-2.2 2.3-5.67 2.3-5.92 0-8.83-5.78-8.83-8.8 0-3.03 1.89-9.37 8.97-9.37 5.66 0 8.1 4.18 8.62 6.11h4.14V13H14v29h25Z" fill="#3E3E3E"/><path d="M38 14v10h-2.73c-.58-1.95-3.2-6-8.96-6-7.2 0-9.98 6.72-9.98 9.61 0 2.9 2 10.39 9.1 10.39 5.7 0 7.62-2.57 7.87-4H30v-2h16.95l.55.6v.9H38V41H15V14h23Z" fill="url(#acodanhzg)"/><path d="m29.67 32.06-5.92-3.69v1.22l5.92 4.28v-1.8ZM42.2 28.5H25.4l4.25 3h16.8l-4.24-3Z" fill="#4A4645"/><defs><linearGradient id="acodanhzg" x1="30.99" y1="13.66" x2="30.99" y2="41.14" gradientUnits="userSpaceOnUse"><stop stop-color="#F7F7F5"/><stop offset=".72" stop-color="#4D4948"/></linearGradient></defs></svg>