<!-- by TradingView --><svg width="56" height="56" viewBox="0 0 56 56" xmlns="http://www.w3.org/2000/svg"><path fill="#F0F3FA" d="M0 0h56v56H0z"/><path d="M44 28c0 9.39-7.16 17-16 17s-16-7.61-16-17 7.16-17 16-17 16 7.61 16 17Zm-5 10.1A16.08 16.08 0 0 0 42.5 28c0-8.56-6.5-15.5-14.5-15.5S13.5 19.44 13.5 28c0 4.14 1.52 7.9 4 10.69V27.9C17.55 21.87 22.23 17 28 17c5.8 0 10.5 4.92 10.5 11l-.01.57.51-1.07v10.6Zm-6-2.17A9.64 9.64 0 0 0 37.05 28c0-5.26-4.07-9.53-9.1-9.53-5.01 0-9.08 4.27-9.08 9.53A9.64 9.64 0 0 0 23 35.99v-7.6l.01.03L23 28c0-3.04 2.24-5.5 5-5.5s5 2.46 5 5.5l-.01.4.01-.02v7.55Zm-5-4c2 0 3.6-1.77 3.6-3.96C31.6 25.77 30 24 28 24s-3.6 1.78-3.6 3.97c0 2.19 1.6 3.96 3.6 3.96Z" fill="#034EA2"/></svg>