<!-- by TradingView --><svg width="56" height="56" viewBox="0 0 56 56" xmlns="http://www.w3.org/2000/svg"><path fill="#F0F3FA" d="M0 0h56v56H0z"/><path fill-rule="evenodd" d="M28.94 28v-.7H31v1.94c-.17.25-.83.76-2.06.76-1.54 0-2.44-1.3-2.44-2.51 0-1.2.9-2.49 2.44-2.49 1.23 0 1.89.93 2.06 1.4l-.92.22c-.13-.26-.53-.77-1.14-.77-.77 0-1.54.5-1.54 1.64s.8 1.66 1.54 1.66c.58 0 1-.3 1.14-.46V28h-1.14ZM11 25h-1v5h1v-2.94c.14-.18.33-.33.58-.33.44 0 .43.36.42.6V30h1v-2.82c0-.49-.41-1.18-1.18-1.18-.34 0-.62.17-.82.37V25Zm-2 1.55h-.98c0-.44-.24-.73-.93-.73-.69 0-.93.31-.93.5 0 .17.04.44 1.03.63.98.19 1.81.69 1.81 1.46 0 .78-.34 1.6-1.9 1.6A2.27 2.27 0 0 1 5 28.53l.99-.21c.08.28.4.85 1.1.85.87 0 1.13-.39 1.13-.64s-.28-.6-1.53-.83c-1-.17-1.33-.96-1.37-1.33-.01-.46.32-1.38 1.77-1.38S8.97 26.04 9 26.55ZM48 25h.87v1.5c.2-.24.53-.5.95-.5.77 0 1.18.7 1.18 1.18V30h-.8v-2.59c0-.23-.13-.68-.62-.68-.33 0-.57.27-.71.54V30H48v-5Zm-3.07 3.83-.93.34c.64.61 1.3.83 1.77.83.46 0 1.73-.22 1.73-1.17s-1.09-1.09-1.6-1.15c-.53-.07-.8-.3-.8-.52 0-.23.23-.4.73-.4.4 0 .7.26.8.4l.8-.32c-.09-.28-.56-.84-1.66-.84-1.2 0-1.52.72-1.53 1.08 0 1.17 1.33 1.3 1.77 1.34.45.04.62.26.62.41 0 .15-.23.43-.8.43-.46 0-.8-.28-.9-.43ZM36 26h.87v.5c.21-.24.54-.5.96-.5.77 0 1.18.7 1.18 1.18V30h-.8v-2.59c0-.23-.13-.68-.62-.68-.34 0-.58.27-.72.54V30H36v-4Zm-21 0h-1v4h1v-2.53c.13-.32.36-.51.75-.51.47 0 .48-.3.48-.43v-.02c0-.15 0-.51-.48-.51-.35 0-.61.4-.75.69V26Zm5.49 2.28h-3c0 .82.57 1 1.18 1 .48 0 .66-.28.7-.41l1 .23a2 2 0 0 1-1.7.9c-1.58 0-2.1-1.15-2.15-1.72-.1-.76.16-2.28 1.97-2.28 1.8 0 2.08 1.52 2 2.28Zm-1-.6h-1.91c0-.31.18-.93.9-.93.73 0 .98.62 1 .93Zm21 .6h3c.08-.76-.2-2.28-2-2.28s-2.07 1.52-1.97 2.28c.06.57.57 1.72 2.15 1.72a2 2 0 0 0 1.7-.9l-1-.23c-.03.13-.22.4-.7.4-.6 0-1.18-.17-1.18-.99Zm.09-.6h1.9c-.02-.31-.27-.93-1-.93-.72 0-.9.62-.9.93Zm-15.6.6h-3c0 .82.58 1 1.19 1 .48 0 .66-.28.7-.41l1 .23a2 2 0 0 1-1.7.9c-1.58 0-2.1-1.15-2.15-1.72-.1-.76.16-2.28 1.97-2.28 1.8 0 2.08 1.52 2 2.28Zm-1-.6h-1.9c0-.31.18-.93.9-.93.73 0 .98.62 1 .93Zm8.66-.39-.85-.24c.09-.35.51-1.05 1.57-1.05s1.46.74 1.53 1.12v2.03c0 .38.2.72.3.85h-.88c-.11-.13-.19-.35-.24-.56-.33.26-.78.56-1.13.56-.62 0-1.14-.42-1.14-1.07 0-.66.6-.98.92-1.06l1.28-.25v-.33c0-.2-.1-.55-.64-.55-.43 0-.66.37-.72.55Zm1.36.76v.8c-.17.19-.45.41-.79.41-.56 0-.64-.28-.64-.52s.46-.43.8-.51l.38-.1.25-.08Z"/></svg>