<!-- by TradingView --><svg width="56" height="56" viewBox="0 0 56 56" xmlns="http://www.w3.org/2000/svg"><path fill="#F0F3FA" d="M0 0h56v56H0z"/><path fill="url(#acvh4yfqi)" d="M11 21h34v14H11z"/><path d="M14.23 35a13.58 13.58 0 0 0 6.38-5.6c2.09-3.77 4.1-6.96 6.53-8.4h6.26c-1.53.64-4.13 1.87-5.67 4.72C26 28.9 23.08 33.39 19.66 35h-5.43Z" fill="#EE1C25"/><path d="M22.13 35a13.58 13.58 0 0 0 6.38-5.6c2.09-3.77 4.1-6.96 6.53-8.4h6.26c-1.53.64-4.13 1.87-5.67 4.72-1.73 3.18-4.65 7.67-8.07 9.28h-5.43Z" fill="#2D3291"/><path d="M9.9 25H8v6h1.9v-6ZM7 27H4v2h3v-2ZM46 25h2v6h-2v-6Zm3 2h3v2h-3v-2Z" fill="#BCBDC1"/><defs><linearGradient id="acvh4yfqi" x1="28" y1="21" x2="28" y2="35" gradientUnits="userSpaceOnUse"><stop stop-color="#AFB0B2"/><stop offset=".24" stop-color="#FCFCFC"/><stop offset=".41" stop-color="#C2C3C5"/><stop offset=".62" stop-color="#FEFEFE"/><stop offset="1" stop-color="#B7B8BA"/></linearGradient></defs></svg>