<!-- by TradingView --><svg width="56" height="56" viewBox="0 0 56 56" xmlns="http://www.w3.org/2000/svg"><path fill="#F0F3FA" d="M0 0h56v56H0z"/><path d="M40 12H26.65A10.64 10.64 0 0 0 16 22.63V32h3v-9.23c0-4.48 3.3-7.77 7.79-7.77H40v-3Z" fill="#373435"/><path d="M40 16H26.72C23 16 20 19 20 22.72V32h3v-9c0-2.45 1.75-4 4.2-4H40v-3Z" fill="#373435"/><path d="M40 20H26.77A2.75 2.75 0 0 0 24 22.72V32h3v-9h13v-3Z" fill="#373435"/><path d="M16 44h13.35C35.23 44 40 39.24 40 33.37V24h-3v9.23c0 4.48-3.3 7.77-7.79 7.77H16v3Z" fill="#373435"/><path d="M16 40h13.28C33 40 36 37 36 33.28V24h-3v9c0 2.45-1.75 4-4.2 4H16v3Z" fill="#373435"/><path d="M16 36h13.23A2.75 2.75 0 0 0 32 33.28V24h-3v9H16v3Z" fill="#373435"/></svg>