<!-- by TradingView --><svg width="56" height="56" viewBox="0 0 56 56" xmlns="http://www.w3.org/2000/svg"><path fill="#F0F3FA" d="M0 0h56v56H0z"/><path d="M24.3 35.14a305.75 305.75 0 0 1-3.57 6.88c-.09.17-.04.3.14.37l2.93 1.1c.31.12.55.03.71-.27 1.91-3.58 3.66-6.68 5.25-9.28a1.6 1.6 0 0 0 .12-1.62 7.42 7.42 0 0 0-.86-1.47c-2-2.29-3.94-4.59-5.8-6.9A4.93 4.93 0 0 1 22 20.52c.04-.7.43-1.65 1.17-2.84.69-1.08 1.46-2.36 2.32-3.83.15-.26.41-.63.77-1.11l.4-.54a.11.11 0 0 0 .01-.14.12.12 0 0 0-.12-.06 16.54 16.54 0 0 0-4.62 1.13c-.38.19-.68.44-.91.76a65.84 65.84 0 0 0-3.62 6.06c-.46.86-.42 1.62.14 2.29 4 4.76 6.24 7.44 6.72 8.04.59.74.86 1.52.82 2.34-.03.68-.3 1.52-.8 2.52Zm9.2-6.05-.14-.13c-.22-.23-.24-.48-.05-.74l.9-1.2c.07-.1.1-.2.07-.32-.06-.24-.2-.5-.42-.76l-.7-.8c-1.01-1.1-1.64-1.91-1.9-2.44-.66-1.3-.52-2.8.4-4.51.7-1.3 1.63-2.84 2.77-4.59.11-.17.07-.3-.11-.37a18 18 0 0 0-4.1-1.15.63.63 0 0 0-.7.33 82.51 82.51 0 0 1-3.34 5.25c-.27.39-.69 1.1-1.25 2.14-.45.81-.4 1.55.16 2.2 2.07 2.49 4.23 5.14 6.48 7.96.38.48.7 1.15.98 2 .31.99.34 1.7.09 2.12a202.9 202.9 0 0 0-5.33 9.58.22.22 0 0 0 0 .22c.05.08.12.11.2.11 1.77.05 3.45-.17 5.06-.64a.65.65 0 0 0 .4-.32c.66-1.24 2.35-4.37 5.08-9.4.3-.56.46-1 .47-1.33.02-.39-.14-.8-.47-1.23-.77-1.01-1.59-2.02-2.45-3.03-.15-.17-.3-.17-.46 0l-.89 1.02c-.24.28-.49.3-.75.03Zm6.22-7.8-.03-.03c-.36-.33-.69-.3-.97.1l-2.12 2.92a.4.4 0 0 1-.33.18.4.4 0 0 1-.33-.14 35.4 35.4 0 0 1-2.2-2.67c-.4-.55-.4-1.18.02-1.87 1.04-1.72 2.03-3.38 2.98-4.99.08-.12.18-.14.3-.06a16.3 16.3 0 0 1 4.9 5.37 15.76 15.76 0 0 1 2.03 6.95 16 16 0 0 1-1.5 7.78 15.45 15.45 0 0 1-5.02 6.12c-.4.28-.48.2-.24-.22l3.02-5.58a5.55 5.55 0 0 0-.36-6.14 22.43 22.43 0 0 0-2.49-3.05c-.12-.13-.13-.26-.03-.4l2.46-3.28c.27-.37.24-.7-.09-.99Zm-25.26.59c-.2-.93.03-2.01.67-3.23.02-.05.01-.08-.03-.1-.04-.03-.08-.02-.1.02a16.92 16.92 0 0 0-2.56 5.7 15.93 15.93 0 0 0 5.7 16.34c.15.12.28.1.37-.07 1.25-2.27 2.46-4.58 3.64-6.93.23-.46.35-.8.36-1.01 0-.28-.12-.57-.39-.88-2.53-2.93-4.52-5.25-5.95-6.94a7.22 7.22 0 0 1-1.7-2.9Z" fill="#154272"/></svg>