<!-- by TradingView --><svg width="56" height="56" viewBox="0 0 56 56" xmlns="http://www.w3.org/2000/svg"><path fill="#F0F3FA" d="M0 0h56v56H0z"/><path d="m19.25 32.98 8.53.12c.03 0 .05-.01.05-.04a.1.1 0 0 0 0-.07c.03-.01.08 0 .16.01.46.3.97.41 1.53.33.33-.05.7-.17 1.08-.35a.38.38 0 0 1 .24-.02c.36.07.94.1 1.72.08.51 0 .9 0 1.15.02.78.05 1.57.06 2.38.04.94-.03 1.83-.04 2.65-.04.51.03.9-.16 1.13-.59 1.27-2.25 1.9-4.4 1.9-6.47 0-.98-.09-2.1-.24-3.4-.02-.16.01-.17.1-.04.15.22.26.47.33.75.81 3.27.56 6.44-.74 9.52-.06.14-.01.2.14.2l.48-.02a21.8 21.8 0 0 1 1.73-.02 4.5 4.5 0 0 1 1.55.29c.75.33 1.27.88 1.58 1.67.28.7.37 2.37.25 3.25-.13.96-.5 1.8-1.15 2.29-.6.45-1.39.52-2.37.51h-8.47c-2.13 1.08-4.47 2-6.97 2-2.54 0-5.18-.8-7.04-2-2.6-.06-5.35-.05-8.26 0-1.38.02-2.37-.16-2.96-.86-.56-.67-.8-2.7-.71-4.1.06-1.05.4-1.82 1.02-2.33.59-.48 1.4-.72 2.44-.7l2.11.02a.1.1 0 0 0 .08-.04.1.1 0 0 0 .01-.1 14.94 14.94 0 0 1-1.14-6.53c.11-2.3.72-4.44 1.83-6.4 1.98-3.48 4.92-6.46 8.79-7.63.66-.2 1.34-.34 2.05-.33.1 0 .2.04.29.05.04 0 .04 0 0 .02-.7.22-1.39.46-2.08.7-1.89.65-3.53 2.38-4.93 3.88a12.79 12.79 0 0 0-2.93 5.15c-1.06 3.58-.62 7.12 1.32 10.62.3.55.76.74 1.37.56Z" fill="#0480C2"/><path d="M38.74 33.06c-.82 0-1.7.01-2.65.04-.8.02-1.6.01-2.38-.04-.25-.02-.64-.02-1.15-.02a9.42 9.42 0 0 1-1.72-.08.38.38 0 0 0-.24.02c-.39.18-.75.3-1.08.35a2.14 2.14 0 0 1-1.53-.33l1.8.01c.04 0 .08-.01.11-.04a.15.15 0 0 0 .05-.11v-3.07c0-.07.02-.12.08-.16a.98.98 0 0 1 .45 0c.4.22.81.42 1.22.6a3.4 3.4 0 0 0 2.46.04 2.52 2.52 0 0 0 1.57-1.83c.1-.41.14-.84.14-1.28 0-.07.03-.14.1-.19a.22.22 0 0 1 .2-.03l1.06.31h.12c.03-.01.04-.05.02-.12a.31.31 0 0 0-.11-.16 7.64 7.64 0 0 1-2.82-5.7c0-.76.15-1.46.43-2.12.02-.03.01-.06-.02-.08l-.07-.05c-.05-.03-.1-.02-.13.03-.5.8-.78 1.68-.82 2.63-.04.74.06 1.66.3 2.77.02.07 0 .12-.04.17a.17.17 0 0 1-.18.04l-.43-.14c-.4-.13-.48-.02-.25.33.41.61.62 1.2.64 1.77.01.68-.29 1.2-.9 1.52-.43.23-.85.3-1.26.2-.37-.08-.7-.29-1-.61-.27-.31-.47-.68-.59-1.1a2.53 2.53 0 0 1-.06-1.24c.2-.94.7-1.6 1.51-1.97.34-.15.33-.28-.03-.38a1.17 1.17 0 0 0-.24-.04.26.26 0 0 1-.23-.16.27.27 0 0 1 .03-.3c.04-.05.1-.08.16-.08l.47-.04a.2.2 0 0 0 .18-.13.2.2 0 0 0-.04-.22 12.4 12.4 0 0 1-2.74-4.69.17.17 0 0 0-.1-.11.11.11 0 0 0-.1 0 .12.12 0 0 0-.07.08 12.45 12.45 0 0 1-2.72 4.74.2.2 0 0 0-.04.2.2.2 0 0 0 .18.14l.5.05c.08 0 .13.04.16.1.09.19.04.31-.15.4a.77.77 0 0 1-.35.05c-.1 0-.17.04-.2.13-.05.1-.02.19.1.23.43.19.79.45 1.07.8.26.32.43.69.52 1.1.08.4.06.82-.05 1.24-.11.44-.32.84-.61 1.2-.3.38-.69.6-1.16.65-.49.05-.9-.07-1.27-.38-.48-.4-.73-.89-.73-1.45 0-.53.2-1.07.6-1.63.34-.47.24-.6-.3-.4l-.28.1a.2.2 0 0 1-.22-.06.21.21 0 0 1-.06-.23 6.15 6.15 0 0 0-.58-5.36c-.01-.03-.03-.03-.06-.02l-.06.04c-.07.04-.09.1-.05.17.3.64.46 1.32.47 2.07 0 .68-.1 1.38-.34 2.1a8.18 8.18 0 0 1-2.28 3.5c-.47.42-.41.54.19.35l.72-.22a.2.2 0 0 1 .18.04c.06.04.08.1.08.17-.08 1.4.36 2.37 1.32 2.91a3 3 0 0 0 2.1.35c.5-.1 1.35-.36 2.18-.79a.17.17 0 0 1 .18 0c.06.04.1.1.1.16V33c.01.02.03.04.02.06 0 .03-.03.04-.05.04l-8.72-.12a16 16 0 0 1-1.53-2.73 12.22 12.22 0 0 1 3.2-13.89A11.55 11.55 0 0 1 24.86 14c1.51-.56 3.02-.8 4.53-.74 1.73.08 3.36.48 4.88 1.2a12.23 12.23 0 0 1 6.23 7.06 12.41 12.41 0 0 1-1.75 11.54Z" fill="#1C7BC3"/><path d="M28.12 32.99c-.07-.02-.09-.03-.12-.01v-3.24c0-.07-.1-.12-.15-.16a.16.16 0 0 0-.18 0c-.83.43-1.5.7-2 .8-.74.14-1.44.02-2.1-.36-.95-.55-1.4-1.54-1.32-2.95a.2.2 0 0 0-.07-.18.2.2 0 0 0-.19-.04l-.72.22c-.6.2-.66.08-.2-.35a8.36 8.36 0 0 0 2.28-3.56c.25-.73.36-1.44.35-2.13a5.04 5.04 0 0 0-.47-2.1c-.04-.07-.02-.14.06-.18l.06-.03c.02-.01.04 0 .05.01 1.01 1.62 1.2 3.43.58 5.45-.02.1 0 .17.06.23a.2.2 0 0 0 .23.06l.27-.1c.54-.2.64-.06.3.41a2.8 2.8 0 0 0-.6 1.65c0 .58.25 1.07.73 1.48.36.31.79.44 1.27.38s.86-.27 1.16-.65c.3-.38.5-.78.61-1.22.11-.43.13-.85.05-1.27-.08-.42-.26-.79-.52-1.12a2.77 2.77 0 0 0-1.08-.8c-.1-.05-.14-.13-.1-.24.05-.1.11-.13.2-.13.13.01.25 0 .37-.06.18-.08.23-.2.15-.39a.18.18 0 0 0-.16-.11l-.51-.05a.2.2 0 0 1-.17-.13.2.2 0 0 1 .04-.22A12.7 12.7 0 0 0 29 17.1a.12.12 0 0 1 .06-.07.11.11 0 0 1 .1-.01c.05.02.08.05.1.11A12.63 12.63 0 0 0 32 21.88a.2.2 0 0 1 .04.22.2.2 0 0 1-.17.14l-.48.04a.21.21 0 0 0-.15.09c-.08.1-.1.2-.04.3.05.1.13.16.24.16.08 0 .16.02.24.04.35.1.36.24.02.4-.8.37-1.3 1.03-1.5 2-.09.4-.07.81.06 1.25.12.43.31.8.59 1.1.29.34.62.55.99.63.41.1.83.03 1.26-.2.61-.33.92-.85.9-1.55a3.46 3.46 0 0 0-.63-1.79c-.23-.35-.15-.46.24-.34l.44.14c.06.02.12.01.17-.04.05-.04.07-.1.05-.17a10.9 10.9 0 0 1-.31-2.81c.05-.97.32-1.86.82-2.67.04-.06.08-.07.13-.03l.07.04c.03.03.04.06.03.1a5.56 5.56 0 0 0-.43 2.14c0 .72.11 1.45.35 2.19a7.8 7.8 0 0 0 2.46 3.6c.06.05.1.1.11.17.02.06.02.1-.02.11a.19.19 0 0 1-.11 0c-.38-.1-.74-.2-1.07-.31a.22.22 0 0 0-.2.04.23.23 0 0 0-.1.19c0 .44-.04.88-.13 1.3a2.56 2.56 0 0 1-1.57 1.86 3.36 3.36 0 0 1-2.46-.05c-.42-.18-1.21-.38-1.61-.6a.16.16 0 0 0-.18 0c-.06.03-.05.08-.05.15v3.12c0 .04-.05.08-.08.11a.16.16 0 0 1-.12.05l-1.68-.01ZM38.91 36.28c-.21.41-.23.84-.05 1.28.22.51.57.79 1.05.82.44.04.87-.12 1.3-.45a.16.16 0 0 1 .23.03l.04.06c.09.13.07.24-.04.34-.24.21-.5.38-.79.5a2 2 0 0 1-.83.14c-.6-.04-1.06-.36-1.36-.98a2.47 2.47 0 0 1-.22-1.18c.01-.46.14-.83.36-1.12.6-.79 1.48-.93 2.62-.43.16.07.22.2.18.38a.2.2 0 0 1-.03.06c-.08.16-.2.2-.36.12-.97-.53-1.67-.39-2.1.43ZM10.92 36.27c.06.11.14.17.25.19.45.06.89.14 1.32.26.34.08.57.28.7.6a1 1 0 0 1-.08.93c-.27.46-.68.7-1.23.74-.49.04-.97-.1-1.44-.38-.12-.08-.15-.19-.08-.32l.05-.1c.08-.18.2-.21.36-.1.63.42 1.2.45 1.7.1a.4.4 0 0 0 .19-.42.4.4 0 0 0-.3-.35 3.94 3.94 0 0 0-.62-.1 3.04 3.04 0 0 1-.92-.2c-.29-.15-.44-.4-.46-.75-.02-.38.05-.69.22-.92.15-.2.37-.34.65-.4.26-.07.55-.06.86 0 .3.06.58.17.84.32.15.09.2.22.19.4l-.02.09c-.03.18-.11.22-.26.1-.29-.22-.6-.36-.95-.42-.4-.07-.72.02-.93.27-.1.14-.12.3-.04.46ZM14.97 37.55v1.19c0 .06-.01.11-.05.16a.22.22 0 0 1-.15.08h-.1a.21.21 0 0 1-.17-.05.22.22 0 0 1-.07-.17v-3.51c0-.17.08-.25.24-.25h.09c.19 0 .27.1.25.3-.03.36-.04.7-.03 1 0 .25.13.36.37.34.47-.03.91-.04 1.33-.03.05 0 .09-.01.13-.05a.18.18 0 0 0 .05-.13V35.2c0-.13.07-.2.2-.2h.19c.13 0 .2.07.2.2l-.02 3.56c0 .15-.07.23-.21.23h-.1c-.17.02-.25-.07-.25-.25v-1.26c0-.18-.1-.28-.27-.27h-1.32c-.21 0-.32.12-.31.34ZM19.37 35h-.18a.2.2 0 0 0-.19.2v3.6c0 .11.09.2.2.2h.17c.11 0 .2-.09.2-.2v-3.6a.2.2 0 0 0-.2-.2ZM22.29 37.64l.8-2.43c.05-.14.15-.2.29-.2l.12-.01c.16 0 .21.08.15.23-.42 1.07-.78 2.1-1.08 3.07-.3.93-.6.93-.92.01a62.9 62.9 0 0 0-1.14-3.1c-.06-.13-.01-.2.13-.2h.21c.14 0 .24.07.28.2l.85 2.43c.02.07.08.11.16.11.07 0 .12-.04.15-.11ZM30.68 37.46c-.18-.05-.4-.04-.67.02-.04 0-.08 0-.11-.02a.13.13 0 0 1-.06-.1l-.03-.1c-.03-.16.04-.24.2-.23l1.1.03c.14 0 .2.08.2.21v1.03c0 .1-.03.17-.11.22-.64.45-1.27.58-1.88.4a1.7 1.7 0 0 1-1.15-1.04c-.2-.49-.22-1-.06-1.54.16-.55.48-.94.94-1.16.53-.26 1.17-.24 1.9.07.21.09.27.24.15.44l-.04.09c-.06.12-.15.14-.27.07-.45-.29-.87-.38-1.27-.29-.35.09-.63.3-.82.64-.19.33-.24.69-.17 1.06.09.4.32.72.7.96.2.14.47.2.77.17.28-.02.54-.1.77-.24.14-.09.2-.2.18-.37a.35.35 0 0 0-.27-.32ZM37.35 35h-.17c-.1 0-.18.08-.18.19l.02 3.62c0 .1.08.19.18.19h.18c.1 0 .17-.09.17-.19l-.02-3.63c0-.1-.08-.18-.18-.18ZM43.74 39c-.48 0-.9-.2-1.23-.59-.34-.4-.51-.86-.51-1.42 0-.55.17-1.02.52-1.4.34-.4.75-.6 1.24-.59.48 0 .9.2 1.23.59.34.4.51.86.51 1.42 0 .55-.17 1.02-.52 1.4-.34.4-.75.6-1.24.59Z" fill="#F0F3FA"/><path d="M42.51 36.94c-.01.78.53 1.43 1.21 1.44.68.02 1.25-.6 1.27-1.38.01-.79-.53-1.43-1.21-1.44-.68-.02-1.25.6-1.27 1.38Z" fill="#0480C2"/><path d="m33.52 37.47.02 1.31a.2.2 0 0 1-.05.13.18.18 0 0 1-.12.07l-.09.01a.2.2 0 0 1-.18-.04.23.23 0 0 1-.09-.18L33 35.16c0-.11.05-.16.16-.16.53.03 1.07.03 1.6 0 .33 0 .6.07.8.24.2.16.32.37.37.63.05.25.02.5-.09.75-.12.26-.3.47-.57.62-.11.06-.14.15-.07.26l.69 1.25c.03.05.03.1 0 .15a.13.13 0 0 1-.12.07h-.1a.43.43 0 0 1-.42-.26c-.17-.36-.37-.74-.58-1.13-.14-.28-.46-.4-.95-.34a.2.2 0 0 0-.14.07.23.23 0 0 0-.06.16Z" fill="#F0F3FA"/><path d="M33.53 35.82c0-.07.03-.13.08-.18a.24.24 0 0 1 .18-.07h.89c.21 0 .4.06.54.18.15.12.23.26.23.42v.08c0 .16-.08.3-.23.41a.87.87 0 0 1-.55.17h-.9a.25.25 0 0 1-.17-.08.25.25 0 0 1-.07-.19v-.74Z" fill="#1C7BC3"/><path d="m24.72 38.12-.26.7c-.05.13-.14.19-.27.17h-.08a.12.12 0 0 1-.1-.07.13.13 0 0 1 0-.1l1.33-3.7c.02-.07.06-.1.13-.12.1 0 .19 0 .27.05.06.03.1.08.13.14l1.3 3.51c.07.2 0 .3-.2.3h-.08c-.16 0-.27-.09-.32-.25l-.2-.64c-.03-.11-.1-.17-.22-.17l-1.16-.01c-.13 0-.22.06-.27.19Z" fill="#F0F3FA"/><path d="m25.04 37.23.34-1.01c.03-.09.09-.13.18-.13s.14.04.17.13l.34 1.01c.02.07 0 .13-.03.18a.17.17 0 0 1-.15.08h-.67a.18.18 0 0 1-.15-.08.19.19 0 0 1-.03-.18Z" fill="#0480C2"/></svg>