<!-- by TradingView --><svg width="56" height="56" viewBox="0 0 56 56" xmlns="http://www.w3.org/2000/svg"><path fill="#F0F3FA" d="M0 0h56v56H0z"/><path d="M18.5 34.74c-1.54-4.21-1.28-8.19.78-11.93a12.95 12.95 0 0 1 6.82-5.91 13.09 13.09 0 0 1 16.3 6.2 13.86 13.86 0 0 1 1.34 9.18 13.63 13.63 0 0 1-8.23 9.95c-.5.21-.88.38-1.13.5-1.6.8-3.29 1.22-5.04 1.26-4.14.1-7.87-1.07-11.2-3.54-1.49-1.1-2.73-2.49-3.72-4.15a17.71 17.71 0 0 1-2.05-5.3 14.19 14.19 0 0 1 1.38-10.09c.54-1 1.16-1.93 1.87-2.79.74-.9 1.54-1.69 2.38-2.35a18.13 18.13 0 0 1 5.77-3c2.19-.69 4.34-.91 6.47-.68 1.19.12 2.31.46 3.37 1.02.07.03.1.09.12.16 0 .02 0 .05-.03.07a.07.07 0 0 1-.06.01 15.46 15.46 0 0 0-9.63.8 13.45 13.45 0 0 0-4.04 2.65 12.3 12.3 0 0 0-2.83 4.07 17.68 17.68 0 0 0-1.25 4.06c-.24 1.44-.22 2.83.07 4.18a15.24 15.24 0 0 0 2.52 5.64c.05.08.06.08.03-.01Z" fill="#ED1C24"/></svg>