<!-- by TradingView --><svg width="56" height="56" viewBox="0 0 56 56" xmlns="http://www.w3.org/2000/svg"><path fill="url(#arptksdza)" d="M0 0h56v56H0z"/><path fill-rule="evenodd" d="M43.4 35.22a16.7 16.7 0 0 1-4.33 5.67 17.17 17.17 0 0 1-6.13 3.38 16.45 16.45 0 0 1-3.43.66c-1.31.13-2.66.09-4.05-.12A16.76 16.76 0 0 1 14.25 38a16.87 16.87 0 0 1-3-13.05 17.06 17.06 0 0 1 15.11-13.9c1.22-.07 2.23-.08 3.03-.02a16.72 16.72 0 0 1 12.67 7.39 16.94 16.94 0 0 1 1.34 16.8ZM44.52 28a16.5 16.5 0 0 1-13.31 16.2 16.5 16.5 0 0 1-16.98-7.02 16.44 16.44 0 0 1-2.47-12.4 16.51 16.51 0 0 1 19.45-12.99 16.43 16.43 0 0 1 10.52 7.03A16.43 16.43 0 0 1 44.52 28Zm-.6 0a15.88 15.88 0 0 1-9.84 14.71 15.94 15.94 0 0 1-19.35-23.55 15.87 15.87 0 0 1 13.25-7.08A15.93 15.93 0 0 1 43.92 28ZM27.1 14.08a82.82 82.82 0 0 0 .65-1.58c.04-.05.06-.04.06.03l-.02 6.28c0 .03-.02.04-.04.04-.63.07-1.24.15-1.82.26a7.44 7.44 0 0 0-1.04.29c-.03 0-.04 0-.02-.03a232.5 232.5 0 0 1 2.23-5.29Zm3.05 2.78a170.34 170.34 0 0 1 1.09 2.5c.08.09.06.11-.05.08a9.53 9.53 0 0 0-1.77-.44l-1.17-.14a.1.1 0 0 1-.1-.11v-6.1c0-.17.04-.17.1-.03l.33.72 1.57 3.52Zm-5.32 2.2c.07-.24.15-.44.22-.58.11-.24.21-.49.3-.74a.12.12 0 0 0-.03-.12 34.35 34.35 0 0 0-1.71-1.79c-.06-.06-.08-.04-.06.04l.09.3c.3.76.59 1.54.88 2.32.07.2.16.4.26.58.02.05.04.04.05 0ZM23 18.2v-.3l.01-.72c.04-.43.05-.85.05-1.26 0-.08.02-.08.05-.01l1.3 3.43c0 .01 0 .03-.02.04h-.03l-1.27-.49c-.1-.04-.14-.11-.13-.23l.04-.46Zm8.78 1.16 1.3-3.18v-.04h-.03l-2.14 2.03v.03l.58 1.28c.01.01.02.02.04 0l.23-.1.02-.02Zm1.74-2.98v2.3l-.02.04-1.13.43h-.03v-.04l1.13-2.74c0-.02.02-.02.03-.02.02 0 .02.01.02.03Zm-9.19 3.19L17 16.64c-.1-.04-.11-.03-.03.05l.46.42a506.81 506.81 0 0 1 4.2 4.14c.05.05.1.05.15 0 .37-.34.77-.64 1.22-.92.4-.25.84-.49 1.33-.71.04-.02.04-.04 0-.05Zm7.48 0a33.37 33.37 0 0 0 1.01-.4 2694.95 2694.95 0 0 1 5.96-2.35c.07-.02.08 0 .03.05l-4.43 4.4a.1.1 0 0 1-.07.02c-.02 0-.04 0-.06-.02-.34-.3-.71-.59-1.12-.87a6.7 6.7 0 0 0-.6-.34 7.08 7.08 0 0 1-.53-.3.46.46 0 0 0-.18-.07c-.15-.03-.15-.07-.01-.12Zm4.63 4.52a343.5 343.5 0 0 1 2.7-6.76c.13-.27.08-.3-.12-.1l-4.35 4.35c-.03.03-.04.06 0 .1a10.16 10.16 0 0 1 1.5 2.07c.04.06.08.14.11.25l.04.1c.01.02.03.03.06.03s.05-.01.06-.04Zm-16.4-.76c-.11.17-.2.37-.28.58 0 .02-.02.03-.04.03s-.03 0-.04-.02l-2.7-6.61c-.02-.07-.01-.08.04-.03.95.93 1.9 1.88 2.84 2.84.5.5.98.99 1.47 1.45.02.02.02.05 0 .07-.45.48-.88 1.04-1.29 1.69ZM36.89 28a8.57 8.57 0 0 1-2.62 6.2 8.8 8.8 0 0 1-6.29 2.56 8.93 8.93 0 0 1-8.2-5.43 8.59 8.59 0 0 1 0-6.71 8.69 8.69 0 0 1 4.82-4.74 8.93 8.93 0 0 1 6.81.01A8.81 8.81 0 0 1 36.9 28Zm-1.01-.03a7.62 7.62 0 0 1-2.3 5.5 7.8 7.8 0 0 1-5.58 2.3 7.9 7.9 0 0 1-7.29-4.8 7.62 7.62 0 0 1 0-5.95 7.71 7.71 0 0 1 4.25-4.22 7.9 7.9 0 0 1 6.04-.01 7.82 7.82 0 0 1 4.88 7.18Zm-.34.03a7.3 7.3 0 0 1-2.21 5.27 7.49 7.49 0 0 1-5.34 2.18 7.57 7.57 0 0 1-6.98-4.6 7.3 7.3 0 0 1 0-5.7 7.36 7.36 0 0 1 4.09-4.04 7.57 7.57 0 0 1 5.78 0A7.49 7.49 0 0 1 35.54 28ZM30.4 22.4l-.02.04c-.03.05-.06.06-.1.04l-.48-.25c-.38-.2-.66-.34-.86-.42-.32-.13-.63-.2-.92-.23a4.04 4.04 0 0 0-2.59.74 3.75 3.75 0 0 0-1.35 2.5 3.52 3.52 0 0 0 .86 2.48c.38.42.83.72 1.36.9.54.18 1.22.34 2.06.5.49.09.91.23 1.26.42.42.22.75.51 1 .88.12.18.2.37.25.6a2.83 2.83 0 0 1-2.41 3.23c-.21.04-.4.04-.58 0a4.37 4.37 0 0 1-2.78-1.9c-.18-.27-.33-.6-.45-1.01-.07-.23-.2-.35-.4-.37-.08-.01-.12.03-.12.12v3.11c0 .02 0 .04.02.06l.05.03c.15.02.27-.02.38-.12.16-.16.34-.3.51-.45a.16.16 0 0 1 .2-.02c.43.23.86.46 1.29.67.2.11.4.18.62.2a5.6 5.6 0 0 0 1.82-.07 3.83 3.83 0 0 0 .82-.3 2.98 2.98 0 0 0 1.44-1.3 5.4 5.4 0 0 0 .69-1.91 4.05 4.05 0 0 0-.63-2.67c-.38-.55-.9-.96-1.57-1.25a4.87 4.87 0 0 0-.88-.3c-.4-.08-.83-.17-1.33-.24-.4-.07-.74-.15-1-.24a2.66 2.66 0 0 1-.87-.49c-.7-.61-.8-1.35-.27-2.2.21-.35.47-.64.79-.85.33-.22.69-.35 1.07-.38A2.88 2.88 0 0 1 30 23.31c.08.11.16.25.24.42a10.06 10.06 0 0 1 .3.69c.1.23.25.41.45.53h.05l.02-.04c.04-1.01.02-2.03-.05-3.04 0-.04-.02-.05-.06-.04a.68.68 0 0 0-.33.23c-.06.06-.13.18-.22.35Zm6.43 1.13.35-.92c.01-.03.04-.05.07-.05h.23c.31 0 .55 0 .7-.02.3-.04.57-.05.85-.05.07 0 .17-.01.3-.04a2.9 2.9 0 0 1 .17-.02v.03c0 .02 0 .03-.02.03a.68.68 0 0 0-.2.07l-.5.21c-.22.1-.4.17-.5.23-.08.04-.19.09-.34.14l-.28.11c-.26.12-.53.23-.8.32-.04.01-.05 0-.03-.04Zm-17.3.43-.5-1.24a.18.18 0 0 0-.07-.09.16.16 0 0 0-.1-.02c-.43.03-.82.02-1.2-.02-.43-.04-.94-.05-1.54-.03-.14 0-.14.03-.01.08l3.36 1.37c.06.02.08 0 .05-.05Zm17.57.86a2.04 2.04 0 0 0-.33-.11.34.34 0 0 1-.18-.1.3.3 0 0 1-.08-.17c0-.07 0-.13.04-.18.03-.07.1-.11.17-.15l2.9-1.22a.87.87 0 0 0 .24-.13l.02-.01h.03v.04l-1.8 2.4c-.02.03-.05.03-.08.02l-.93-.4ZM15.73 23l2.02 2.2h.03l1.65-.7.01-.02-.01-.03-3.68-1.5s-.02 0-.03.02V23Zm-3.15 4.63 6.7-2.88c.03-.02.05 0 .06.03v.05a9.05 9.05 0 0 0-.6 2.87.05.05 0 0 1-.04.01h-6.1c-.14 0-.14-.02-.02-.08Zm28.41-1.01a85.3 85.3 0 0 0-1.51-.63c-.93-.38-1.85-.75-2.75-1.14-.06-.02-.08 0-.06.06.33.86.5 1.75.52 2.69 0 .08.04.11.11.11h6.08c.14 0 .15-.02.02-.08l-1.18-.5c-.27-.1-.68-.28-1.23-.51Zm-21.9 4.34-1.92-.8a121.15 121.15 0 0 1-3.41-1.44c-.1-.03-.23-.09-.4-.17-.2-.1-.36-.16-.46-.2a7.8 7.8 0 0 1-.41-.13.15.15 0 0 1-.1-.1c0-.03 0-.04.03-.04h6.29l.04.03c.02.01.02.03.02.05 0 .4.01.73.06.98.05.28.1.56.17.86a6.56 6.56 0 0 0 .29.98l-.01.05h-.04l-.15-.07Zm17.66.08c.05-.01.1-.04.14-.07a96.6 96.6 0 0 1 6.56-2.77c.19-.08.18-.11-.02-.11h-6.2c-.02 0-.03 0-.03.02 0 .97-.17 1.92-.5 2.88-.02.05 0 .07.05.05Zm-17.73.12-3.28 1.37h-.03v-.04l2-1.92h.02l1.29.54.01.02-.01.03Zm19.72.67c.19.06.32.12.4.17.08.05.2.1.36.15.2.06.34.12.43.2l.03-.01v-.03l-1.88-1.57a.19.19 0 0 0-.2-.02 5.74 5.74 0 0 1-.9.4l.02.01c.34.15.67.29 1 .4a7.36 7.36 0 0 1 .74.3Zm-22.02 1.29-.41-.04a3.67 3.67 0 0 0-.29-.04l-.28.01-.02-.01v-.03l.02-.02c.05-.03.14-.06.26-.1l.22-.08a16.06 16.06 0 0 1 1.02-.44c.76-.34 1.49-.65 2.19-.93.02 0 .04 0 .06.03.06.1.06.22.02.34l-.52 1.3a.07.07 0 0 1-.06.05 6.33 6.33 0 0 1-1.3-.01c-.4-.03-.71-.04-.91-.03Zm23.24-.18c.2-.02.2-.07.02-.14l-3.34-1.36h-.02l-.01.04.66 1.78c.02.03.04.04.07.03.12-.04.23-.07.36-.08.8-.1 1.55-.2 2.26-.27Zm-3.76-.79.09-.2c.05-.17.11-.27.16-.34a.04.04 0 0 1 .05-.01 6 6 0 0 0 .2.58l2.27 6.2c.09.23.06.25-.1.05a1.1 1.1 0 0 0-.15-.15 37.75 37.75 0 0 0-2.9-2.89c-.09-.1-.16-.19-.22-.24-.3-.28-.6-.57-.87-.85a.08.08 0 0 1-.03-.06l.03-.06a9.18 9.18 0 0 0 1.47-2.03Zm-16.56-.24-2.58 6.44c-.06.15-.04.17.08.06 1.47-1.45 2.85-2.83 4.13-4.13.02-.02.02-.04 0-.06a7.1 7.1 0 0 1-1.61-2.32l-.02.01Zm4.41 4.34a8.8 8.8 0 0 0-1.3.5c-.6.22-1.17.45-1.73.67-1.18.47-2.38.95-3.6 1.42-.13.05-.14.03-.05-.06l4.2-4.18c.03-.02.05-.02.08 0a8.5 8.5 0 0 0 2.4 1.64Zm10.26-1.64A9.83 9.83 0 0 1 32 36.25l2.2.87a164.01 164.01 0 0 0 3.44 1.36c.13.06.22.1.3.12a2.98 2.98 0 0 1 .72.28l.01-.02v-.03c-.24-.26-.6-.63-1.1-1.1l-.59-.58c-.87-.88-1.72-1.72-2.55-2.53-.04-.03-.07-.03-.1 0ZM24.61 37c-.55 1.27-1 2.36-1.35 3.28-.1.23-.14.22-.15-.03a52.56 52.56 0 0 0-.26-3.27c0-.04.01-.07.05-.08l1.38-.55a.1.1 0 0 1 .09 0l.34.2c.01 0 .02.01.02.03v.03c-.02.05-.05.12-.07.22l-.06.17Zm7.14-.64a.26.26 0 0 0-.22.06c-.1.08-.14.18-.11.3.05.2.11.4.2.62l1.14 3.02c0 .03.03.04.06.02a.05.05 0 0 0 .03-.05c.03-.9.08-1.65.15-2.23.05-.36.07-.73.08-1.12 0-.06-.02-.1-.07-.12a7.03 7.03 0 0 0-1.04-.4.92.92 0 0 0-.22-.1Zm-.58.29a1927.27 1927.27 0 0 0-2.97 6.94s-.02 0-.03-.02a.06.06 0 0 1-.01-.03v-6.35c0-.03 0-.05.02-.07a.09.09 0 0 1 .06-.03 14.34 14.34 0 0 0 1.96-.24 16.2 16.2 0 0 0 .92-.27c.02 0 .03 0 .05.02v.05Zm-6.1.09 2.65 6.73c.07.17.1.16.1-.02V37.2a.1.1 0 0 0-.03-.08.1.1 0 0 0-.07-.03c-.42-.03-.74-.05-.95-.08-.35-.03-.66-.09-.92-.16-.23-.06-.47-.12-.72-.2-.02 0-.03 0-.05.02a.05.05 0 0 0 0 .06Zm-.46 1.33.37-.88c.01-.02.02-.03.04-.03s.04 0 .05.02c.04.04.07.1.08.15.1.32.23.64.37.95 0 .03 0 .06-.02.08l-1.76 2c-.06.08-.08.07-.04-.02.3-.83.61-1.58.9-2.27Zm6.47-.83c-.03.12-.06.22-.1.3l-.48 1.07c-.01.03 0 .05.01.07l1.72 1.77c.12.12.15.1.09-.06l-1.2-3.15c-.01-.05-.03-.05-.04 0Z" fill="#BF9B47"/><defs><linearGradient id="arptksdza" x1="10.42" y1="9.71" x2="68.15" y2="76.02" gradientUnits="userSpaceOnUse"><stop stop-color="#1A1E21"/><stop offset="1" stop-color="#06060A"/></linearGradient></defs></svg>