<!-- by TradingView --><svg width="56" height="56" viewBox="0 0 56 56" xmlns="http://www.w3.org/2000/svg"><path fill="#F0F3FA" d="M0 0h56v56H0z"/><path fill-rule="evenodd" d="M45.17 24c-.1 0-.17.09-.17.2v.6c0 .11.08.2.17.2h.66c.1 0 .17-.09.17-.2v-.6c0-.11-.08-.2-.17-.2h-.66Zm0 2c-.1 0-.17.1-.17.21v2.58c0 .11.08.21.17.21h.66c.1 0 .17-.1.17-.21V26.2c0-.11-.08-.21-.17-.21h-.66ZM4 24.24V29h1.5v-1.99h4.25c.14 0 .25-.1.25-.24v-2.53a.25.25 0 0 0-.25-.24h-5.5c-.14 0-.25.1-.25.24Zm1.5 1.03c0-.12.11-.21.25-.21h2.5c.14 0 .25.1.25.21v.57c0 .12-.11.22-.25.22h-2.5c-.14 0-.25-.1-.25-.22v-.57Zm5.5.95v.35c0 .12.1.22.2.22H14v.4h-2.8c-.1 0-.2.1-.2.22v1.37c0 .12.1.22.2.22h3.6c.1 0 .2-.1.2-.22v-2.56c0-.12-.1-.22-.2-.22h-3.6c-.1 0-.2.1-.2.22Zm1 1.68c0-.1.06-.18.14-.18h1.72c.08 0 .14.08.14.18v.38c0 .1-.06.18-.14.18h-1.72c-.08 0-.14-.08-.14-.18v-.38Zm13 .53v.35c0 .12-.1.22-.2.22h-3.6c-.1 0-.2-.1-.2-.22v-2.56c0-.12.1-.22.2-.22h3.6c.1 0 .2.1.2.22v1.37c0 .12-.1.21-.2.21H22v.4h2.8c.1 0 .2.1.2.23Zm-1.14-1.15c.08 0 .14-.08.14-.18v-.38c0-.1-.06-.18-.14-.18h-1.72c-.08 0-.14.08-.14.18v.38c0 .1.06.18.14.18h1.72ZM20 26.21c0-.11-.11-.21-.25-.21h-3.5c-.14 0-.25.1-.25.21v2.58c0 .11.11.21.25.21h3.5c.14 0 .25-.1.25-.21v-.61c0-.12-.11-.18-.25-.18h-2.51c-.14 0-.24-.07-.24-.19v-.62c0-.12.1-.19.24-.19h2.51c.14 0 .25-.12.25-.24v-.55Zm15 1c0-.11.12-.21.25-.21h2.5c.13 0 .25.07.25.2v.58c0 .12-.12.22-.25.22H35.2c-.11-.02-.2-.1-.2-.2v-.58Zm.1 1.79h-.86c-.13 0-.24-.1-.24-.21V26.2c0-.11.1-.21.24-.21h4.52c.13 0 .24.1.24.21v2.58c0 .11-.1.21-.24.21h-3.67Zm-9.1-.22v-3.56c0-.12.1-.22.24-.22h.56c.14 0 .2.1.2.22V26h1.76c.13 0 .24.1.24.22v.3c0 .13-.1.23-.24.23H27V28h1.74c.14 0 .26.15.26.28v.5c0 .12-.12.22-.26.22h-2.5c-.13 0-.24-.1-.24-.22Zm4-2.57v2.58c0 .11.12.21.28.21h.44c.16 0 .28-.1.28-.21v-1.6c0-.11.12-.19.28-.19h1.44c.16 0 .28-.11.28-.23v-.56c0-.11-.12-.21-.28-.21h-2.44c-.16 0-.28.1-.28.21Zm10 2.58V26.2c0-.11.1-.21.21-.21h3.58c.12 0 .21.1.21.21v2.58c0 .11-.1.21-.21.21h-.54c-.12 0-.25-.1-.25-.21v-1.62c0-.11-.06-.17-.17-.17h-1.65c-.12 0-.18.06-.18.17v1.62c0 .11-.13.21-.25.21h-.54a.21.21 0 0 1-.21-.21Zm7-2.05v-.53c0-.12.12-.21.26-.21h.8c.58 0 1.1.22 1.44.55.33-.33.86-.55 1.44-.55h.8c.14 0 .26.1.26.2v.54c0 .11-.12.26-.26.26H50.3c-.15 0-.3.04-.3.15v.67c0 .11.15.18.3.18h1.44c.14 0 .26.12.26.23v.56c0 .12-.12.21-.26.21h-.8c-.58 0-1.1-.22-1.44-.55-.33.33-.86.55-1.44.55h-.8c-.14 0-.26-.1-.26-.2v-.57c0-.11.12-.23.26-.23h1.44c.15 0 .3-.07.3-.18v-.67c0-.11-.15-.15-.3-.15h-1.44c-.14 0-.26-.15-.26-.26Z" fill="#2F6A8C"/></svg>