<!-- by TradingView --><svg width="56" height="56" viewBox="0 0 56 56" xmlns="http://www.w3.org/2000/svg"><path fill="#F0F3FA" d="M0 0h56v56H0z"/><path d="m39.98 29.04.62 1.17c.12.23.47.78.92 1.57 1.16 2.06 2.3 4.09 3.46 6.1.05.1-.02.12-.12.12h-12.7c-.52 0-1 .18-1.45.33-1.87.6-3.78.72-5.73.36-.24-.04-.36-.2-.35-.44 0-.08-.04-.13-.12-.15a1.6 1.6 0 0 0-.6.02c-.8-.03-1.64-.46-2.5-1.3a31.82 31.82 0 0 1-4.4-5.69l11.95-21.07a.1.1 0 0 1 .1-.06.1.1 0 0 1 .1.06L34.81 20c.08.14.2.2.36.2a9.9 9.9 0 0 1 3.11.38c.07.01.11.05.14.11a.2.2 0 0 1 0 .17 9.69 9.69 0 0 0-1.02 3.4c0 .12.03.26.12.43.77 1.4 1.59 2.85 2.45 4.35ZM14.11 19a2 2 0 1 0-.22-4 2 2 0 0 0 .22 4Z" fill="#0886CA"/><path d="M26.68 26.49c-.15.16-.25.36-.31.58-.16.6-.26 1.26-.3 2a31.22 31.22 0 0 0 0 2.63c0 .22-.05.43-.16.62a42.44 42.44 0 0 0-2.6 5.2.21.21 0 0 1-.18.14.21.21 0 0 1-.2-.08 8.27 8.27 0 0 1-1.85-4.56c-.3-3.42.38-6 2.01-7.76.17-.18.24-.15.23.1l-.01.09c-.02.32-.03.56-.02.73.03.3.09.51.2.64.02.03.05.04.09.03.03 0 .05-.02.07-.06a10.7 10.7 0 0 1 4.43-5.21c.06-.03.1-.03.15 0 .06.04.07.09.06.14-.06.3-.1.58-.09.88.01.35.14.4.38.15.28-.29.6-.52.96-.72 2.67-1.43 5.5-1.89 8.5-1.36.05 0 .08.04.1.08.03.05.03.1.01.15a11.47 11.47 0 0 0-1.08 5.6c0 .13.08.2.21.18.22-.01.42-.08.6-.2a.1.1 0 0 1 .1 0 .1.1 0 0 1 .06.09c0 1.1-.19 2.26-.58 3.44a7.11 7.11 0 0 1-1.8 3.05c-.58.54-1.21 1.06-1.88 1.55a.12.12 0 0 0-.05.12c.01.06.05.09.1.1l1.5.3c.05.01.09.04.1.09.01.05 0 .09-.03.12a12.18 12.18 0 0 1-10.35 3.17.2.2 0 0 1-.15-.1.19.19 0 0 1-.01-.17l.82-2.08a.45.45 0 0 1 .48-.28c.93.14 1.74.2 2.41.2a5.51 5.51 0 0 0 2.33-.48c.54-.27.51-.38-.09-.33-.83.07-1.56.07-2.2 0a7.74 7.74 0 0 1-2.12-.55c-.09-.03-.11-.1-.09-.18.06-.2.14-.4.23-.58.89-1.76 1.9-3.47 3.03-5.13a.36.36 0 0 1 .31-.17c1.28 0 2.46-.15 3.54-.45.2-.06.38-.13.56-.23.4-.21.38-.32-.08-.31-1.01 0-2.04.05-3.09.14a.18.18 0 0 1-.17-.08.18.18 0 0 1-.02-.19c.08-.17.18-.35.31-.52 1.01-1.32 2.1-2.48 3.3-3.5a.11.11 0 0 0 .03-.1.12.12 0 0 0-.07-.1.18.18 0 0 0-.16.02c-.67.35-1.27.74-1.8 1.18a28.15 28.15 0 0 0-5.07 5.69.15.15 0 0 1-.14.07c-.05 0-.09-.03-.1-.08a9.6 9.6 0 0 1-.18-3.63c.03-.22-.03-.25-.18-.08Z" fill="#F0F3FA"/><path d="M30.6 40.24A8.86 8.86 0 0 0 35.66 38H39a13.44 13.44 0 0 1-4.96 4.77c-1.96 1-4.08 1.39-6.37 1.17-1.91-.17-3.76-.78-5.54-1.82-2.91-1.69-5.73-4.6-6.92-7.72-1.24-3.28-2.45-6.9-2.04-10.9.1-.98.3-1.85.58-2.63.14-.38.22-.37.24.04.17 3.3 1 6.42 2.5 9.39 3.28 5.29 7.75 10.4 14.1 9.94ZM41.14 30.1c-.1.12.01.76-.12.78l-.42-.67-.62-1.17a20.56 20.56 0 0 0-.31-6.4l.06-.02c.05-.01.08 0 .1.05.9 2.4 1.33 4.87 1.31 7.44Z" fill="#58B02A"/><path d="M15.07 34.48c.14-.08.25-.02.33.17.21.5 2.19 3.28 1.98 3.35h-4.26c-.05 0-.08-.08-.1-.12a.1.1 0 0 1 0-.1l2.05-3.3Z" fill="#0886CA"/></svg>