<!-- by TradingView --><svg width="56" height="56" viewBox="0 0 56 56" xmlns="http://www.w3.org/2000/svg"><path fill="url(#acrti4o3m)" d="M0 0h56v56H0z"/><circle cx="16.75" cy="22.5" r="1.5" fill="#DB261F"/><circle cx="16.75" cy="21.98" fill="#F8DAD8" r=".98"/><path fill-rule="evenodd" d="M11 15h2.5v20H11v-1.1c-.42.6-1.02 1.1-1.75 1.1-1.3 0-2.04-1.25-2.25-1.88V28.5C7 27.36 7.78 26 9.25 26c.91 0 1.48.66 1.75 1.2V15Zm0 13.53v3.97a.83.83 0 0 1-.78.5c-.4 0-.72-.2-.72-.59v-3.7c0-.38.33-.71.72-.71.22 0 .58.12.78.53ZM18 26h-2.5v9H18v-9Zm27-11h-2.5v20H45v-6.5a.9.9 0 0 1 .75-.46c.4 0 .75.33.75.73V35H49v-6.46c0-1.16-.79-2.54-2.27-2.54-.88 0-1.44.6-1.73 1.15V15ZM19.5 26H22v9h-2.5v-9Zm2.52 1.64c.15-.55.75-1.64 1.92-1.64C25.4 26 26 27.38 26 28.52V35h-2.5v-6.25c0-.4-.14-.72-.54-.72-.31 0-.94.26-.94 1.31v-1.7ZM30.5 26c-1.93 0-3.5 1.4-3.5 3.13v2.74C27 33.6 28.57 35 30.5 35c1.88 0 3.42-1.33 3.5-3h-2.5v.12c0 .48-.45.88-1 .88s-1-.4-1-.88V31H34v-1.87C34 27.4 32.43 26 30.5 26Zm0 2c-.55 0-1 .4-1 .88v.62h2v-.62c0-.48-.45-.88-1-.88Zm4.51 4.16h2.06c0 .4.18 1.22.9 1.22.9 0 1.44-1.3-.18-1.8-1.63-.52-2.64-1.79-2.64-3.2 0-1.4 1.3-2.38 2.93-2.38 1.62 0 2.78.73 2.8 2.6h-1.92c-.03-.38-.27-1.14-1-1.14-.9 0-1.1 1.24.12 1.67 1.2.44 2.92 1.2 2.92 3.32 0 2.11-1.77 2.55-3.21 2.55-1.45 0-2.92-.55-2.78-2.84Z" fill="#DB261F"/><defs><linearGradient id="acrti4o3m" x1="10.42" y1="9.71" x2="68.15" y2="76.02" gradientUnits="userSpaceOnUse"><stop stop-color="#1A1E21"/><stop offset="1" stop-color="#06060A"/></linearGradient></defs></svg>