<!-- by TradingView --><svg width="56" height="56" viewBox="0 0 56 56" xmlns="http://www.w3.org/2000/svg"><path fill="#F0F3FA" d="M0 0h56v56H0z"/><path fill-rule="evenodd" d="M28 43c11.05 0 20-6.46 20-14.44C48 20.6 39.05 14 28 14S8 20.59 8 28.56C8 36.54 16.95 43 28 43Zm0-1c10.5 0 19-6.04 19-13.5S38.5 15 28 15 9 21.04 9 28.5 17.5 42 28 42Z" fill="#ED1C24"/><path d="M35 28.5c0 2.77-.37 5.36-1.03 7.56 1.22.08 2.5.18 3.72.4A14.6 14.6 0 0 0 40 28h-5l.01.5Zm-3.23 12.23a13.7 13.7 0 0 0 1.89-3.69c1.09.08 2.23.18 3.35.37a12.43 12.43 0 0 1-3.25 2.94c-.65.15-1.32.28-2 .38Zm-1.38.16C32.5 38.82 34 34.05 34 28.5c0-5.55-1.49-10.32-3.61-12.4a26.04 26.04 0 0 0-4.78 0C23.5 18.19 22 22.96 22 28.5c0 5.55 1.49 10.32 3.61 12.4a26.04 26.04 0 0 0 4.78 0Zm-6.16-.16a13.7 13.7 0 0 1-1.89-3.69c-1.09.08-2.23.18-3.35.37a12.43 12.43 0 0 0 3.25 2.94c.65.15 1.32.28 2 .38Zm-4.64-1.18a13.98 13.98 0 0 1-1.69-1.92c-.5.12-1 .26-1.49.44a19.9 19.9 0 0 0 3.18 1.48Zm16.82 0a19.9 19.9 0 0 0 3.18-1.48 13.6 13.6 0 0 0-1.5-.44c-.5.7-1.06 1.34-1.68 1.92Zm4.33-2.22C43.99 35.07 46 31.95 46 28.5l-.01-.5h-5l.01.5c0 3.03-.83 5.85-2.26 8.17.69.17 1.36.38 2 .66ZM45.87 27c-.49-2.85-2.36-5.4-5.13-7.33-.64.28-1.31.49-2 .65a15.48 15.48 0 0 1 2.2 6.68h4.93Zm-6.28-8.07a19.9 19.9 0 0 0-3.18-1.48c.62.58 1.18 1.22 1.69 1.92.5-.12 1-.26 1.49-.44Zm-7.83-2.66c.68.1 1.35.23 2 .38 1.23.76 2.33 1.76 3.25 2.94-1.12.19-2.26.29-3.35.37a13.7 13.7 0 0 0-1.9-3.69ZM19.6 17.45c-1.14.41-2.2.91-3.18 1.48.48.18.98.32 1.5.44.5-.7 1.06-1.34 1.68-1.92Zm-4.33 2.22c-2.77 1.93-4.64 4.48-5.13 7.33h4.94c.23-2.46 1-4.74 2.2-6.68-.7-.16-1.37-.37-2-.65ZM10.01 28h5l-.01.5c0 3.03.83 5.85 2.26 8.17-.69.17-1.36.38-2 .66C12.01 35.07 10 31.95 10 28.5l.01-.5Zm12.23-11.35a24.3 24.3 0 0 1 2-.38 13.7 13.7 0 0 0-1.9 3.69c-1.09-.08-2.23-.18-3.35-.37a12.43 12.43 0 0 1 3.25-2.94Zm11.73 4.3c.54 1.79.88 3.85 1 6.05h4.96c-.24-2.4-1.03-4.6-2.24-6.46-1.23.22-2.5.32-3.72.4ZM16 28.5c0 2.98.86 5.73 2.3 7.96 1.24-.22 2.5-.32 3.73-.4A26.98 26.98 0 0 1 21 28.5c0-2.77.37-5.36 1.03-7.56a34.92 34.92 0 0 1-3.72-.4c-1.2 1.85-2 4.06-2.24 6.46H21v1h-5v.5Z" fill="#034EA2"/><path d="M27.52 24.37c.17-.5.86-.5 1.03 0l.92 2.63h3.04c.54 0 .76.72.31 1.02l-2.42 1.63.92 2.61c.17.5-.39.94-.82.64l-2.47-1.65-2.46 1.65c-.44.3-1-.14-.82-.64l.92-2.6-2.42-1.64c-.46-.3-.25-1.02.3-1.02h3.03l.94-2.63Z" fill="#fff"/><path d="m28.03 24.74 1.01 2.88h3.28l-2.65 1.79 1.01 2.88-2.65-1.78-2.64 1.78 1-2.88-2.64-1.79h3.27l1.01-2.88Z" fill="#ED1C24"/></svg>