<!-- by TradingView --><svg width="56" height="56" viewBox="0 0 56 56" xmlns="http://www.w3.org/2000/svg"><path fill="#F0F3FA" d="M0 0h56v56H0z"/><path d="M40.8 18c2.93 0 5.35 1.38 6.2 2-4.82.26-6.37 3.32-6.85 7.84a20.66 20.66 0 0 1-2.36 7.66 87.6 87.6 0 0 0-7.67 4.56C26.55 42.49 17.51 41.67 16 41.5c1.9-.38 8-1.48 11.02-11.5 3.02-10 10.12-12 13.78-12Z" fill="url(#avphiwtks)"/><path d="M24.52 19C15.83 19 9.22 25.36 7 28.54 8.99 27.44 14.17 25 18.98 25 25 25 29 28.13 29 33.2c0 6.17-8.72 8.08-13 8.3.99.14 3.91.5 6.76.5 10.14 0 16.11-4.96 16.11-10.5S35.4 19 24.52 19Z" fill="url(#bvphiwtks)"/><defs><linearGradient id="avphiwtks" x1="45.28" y1="29.46" x2="20.96" y2="26.54" gradientUnits="userSpaceOnUse"><stop stop-color="#AA3DCE"/><stop offset=".45" stop-color="#8B5DD5"/><stop offset=".85" stop-color="#3BAEE9"/></linearGradient><linearGradient id="bvphiwtks" x1="7" y1="28.13" x2="36.22" y2="38.64" gradientUnits="userSpaceOnUse"><stop stop-color="#39B5E0"/><stop offset=".51" stop-color="#13D4F7"/><stop offset=".81" stop-color="#94A2F4"/><stop offset="1" stop-color="#FA7BF0"/></linearGradient></defs></svg>