<!-- by TradingView --><svg width="56" height="56" viewBox="0 0 56 56" xmlns="http://www.w3.org/2000/svg"><path fill="#F0F3FA" d="M0 0h56v56H0z"/><path d="M48 31v-6h.72v5.36H52V31h-4ZM29 31v-6h.73v2.98L32.15 25H33l-2.27 2.7L33 31h-.8l-1.87-2.79-.6.84V31H29ZM23 25h.74l1.73 4.98h.06L27.26 25H28v6h-.65v-4.24L25.78 31h-.56l-1.53-4.24V31H23v-6ZM38 25h.74l1.73 4.98h.06L42.26 25H43v6h-.65v-4.24L40.78 31h-.56l-1.53-4.24V31H38v-6ZM17.74 31H17l2.14-6h.72L22 31h-.74l-1.74-5.05h-.04L17.74 31Zm.27-2.34H21v.64H18v-.64ZM33.74 31H33l2.14-6h.72L38 31h-.74l-1.74-5.05h-.04L33.74 31Zm.27-2.34H37v.64H34v-.64ZM43.74 31H43l2.14-6h.72L48 31h-.74l-1.74-5.05h-.04L43.74 31Zm.27-2.34H47v.64H44v-.64ZM13 25h.82l1.65 2.8h.06l1.65-2.8H18l-2.14 3.53V31h-.72v-2.47L13 25ZM9 31v-6h.7v2.67h2.65V25H13v6h-.65v-2.68H9.7V31H9ZM7.27 26.53c-.07-.62-.67-.9-1.24-.9-.58 0-1.23.3-1.23.96 0 .59.6.83 1.08.97l.56.16c.8.22 1.56.68 1.56 1.6C8 30.42 7 31 6 31s-1.93-.54-2-1.6h.7c.05.67.69.96 1.3.96.62 0 1.35-.34 1.35-1.05 0-.6-.62-.83-1.1-.97-.9-.27-2.1-.56-2.1-1.71 0-1.03.95-1.63 1.9-1.63.9 0 1.84.55 1.87 1.53h-.65Z" fill="#CF1E2A"/></svg>