<!-- by TradingView --><svg width="56" height="56" viewBox="0 0 56 56" xmlns="http://www.w3.org/2000/svg"><path fill="#F6C32D" d="M0 0h56v56H0z"/><path d="M47 34.46A4.46 4.46 0 0 1 42.5 39a4.49 4.49 0 0 1-4.5-4.45A4.41 4.41 0 0 1 42.5 30c2.8 0 4.5 2.42 4.5 4.46Zm-1.5.57c0-2.1-1.34-4.35-3.26-4.35-1.87 0-2.74 1.66-2.74 3.47 0 2.16 1.44 4.17 3.26 4.17 2.1 0 2.74-1.97 2.74-3.29ZM36.5 32.54l-.16.06a2.58 2.58 0 0 0-1.15-1.44 4.54 4.54 0 0 0-1.68-.55l.03 7.33c0 .5.3.86.8.93V39h-3.18v-.13c.5-.02.84-.44.84-.93v-7.33s-.93.06-1.73.55c-.6.37-.88.76-1.12 1.4l-.15-.05.67-2.66c.04.06.09.08.15.1.08.03.14.05.23.05h5.47c.07 0 .12-.01.17-.04.07-.02.1-.05.16-.09l.65 2.67ZM27.84 30l-.01.16c-.62.26-.83.77-.83 1.41V36c0 1.67-1 2.94-3.34 3-4.05.13-3.66-2.54-3.66-2.54v-4.89c0-.67-.26-1.24-1-1.4V30h3.3v.18c-.74.08-.8.71-.8 1.37v4.54c0 1.46.71 2.14 2.16 2.14 1.58 0 2.34-.72 2.34-2.12v-4.55c0-.67-.09-1.24-.83-1.4V30h2.67ZM18 39h-2.99v-.13c.1 0 .15-.03.25-.07.32-.16.38-.47.38-.84 0-1.27-1.26-2.35-2.36-2.74-.6-.2-1.26-.21-1.3-.21l-.9 2.56c-.1.35-.07.8 0 .93.16.24.36.33.64.34V39H9v-.17c.22-.03.37-.07.54-.22.23-.24.38-.47.51-.83l2.55-6.88c.05-.18.1-.33.02-.5a.43.43 0 0 0-.39-.27V30h3v.13a.49.49 0 0 0-.38.29c-.08.18-.03.32.03.51l2.47 7.35s.12.28.26.4c.12.14.23.15.39.19V39Zm-3.14-3.65-1.45-4.31-1.21 3.24s.62.01 1.32.24c.36.12.88.42 1.34.83ZM48 27h-3.03v-.17c.7-.12.6-.83.3-1.32 0-.02-.32-.76-.85-1.5-.5-.7-1.13-1.77-1.15-1.77l-1.77.54v3.1c0 .5.4.9.88.95V27h-3.27v-.17a.9.9 0 0 0 .89-.94v-6.3c0-.68-.09-1.27-.85-1.42V18h5.55c.92 0 1.92.32 1.95 1.28.07 1.55-2.07 2.37-2.1 2.37a25.6 25.6 0 0 1 1.55 2.23c.47.81 1.01 2.15 1.03 2.16 0 .42.52.74.87.8V27Zm-3-7.17c0-1.23-2.03-1.2-2.03-1.2-.57-.05-1.47.09-1.47.8v2.7s3.47-.9 3.5-2.3ZM39 27h-3.32v-.13c.1 0 .17-.03.27-.07.37-.16.43-.47.43-.84 0-1.27-1.4-2.35-2.62-2.74-.66-.2-1.4-.21-1.45-.21l-.99 2.56c-.13.35-.09.8 0 .93.17.24.4.33.7.34V27H29v-.17c.25-.03.41-.07.6-.22.26-.24.42-.47.57-.83l2.82-6.88c.07-.18.12-.33.03-.5-.06-.15-.22-.26-.43-.27V18h3.32v.13a.54.54 0 0 0-.41.29c-.1.18-.03.32.04.51l2.73 7.35s.15.28.3.4c.13.14.25.15.43.19V27Zm-3.49-3.65-1.6-4.31-1.36 3.24s.7.01 1.47.24c.4.12.99.42 1.5.83ZM25.18 27h-5.02v-.13a.94.94 0 0 0 .84-.98v-6.73c0-.48-.12-1-.71-1V18h4.94c.02 0 1.77.06 1.77 1.28s-1.39 1.74-1.4 1.77l-.42.21c.01 0 2.8.94 2.82 3.13.02 1.64-1.28 2.61-2.82 2.61Zm.38-7.5c-.04-.9-1.52-.88-1.52-.88-.56.03-1.48.08-1.48.81v2.2l1.26-.41c.02 0 1.75-.64 1.74-1.73Zm.9 4.75c.02-1.9-1.82-2.7-1.86-2.7l-2.04.75v3.5c0 .39.19.58.58.58h1.11c1.23 0 2.2-.72 2.2-2.13ZM15 24.09c-.07 1.6-1.68 2.8-3.48 2.9-.9.06-2-.5-2.34-.46-.37.03-.45.27-.46.28L8 23.48l.14-.04s.38 1.62 1.67 2.34c1.86 1.04 3.71.01 3.69-1.4-.03-1.24-1.23-1.56-1.23-1.56l-2.23-.73s-1.75-.47-1.65-2.01c.04-.47.26-2 2.8-2.08.67-.02 1.56.3 1.98.3.2 0 .24-.07.48-.22l.51 2.61-.13.04s-.58-1.9-2.61-2.04c-1.05-.06-1.61.44-1.72.82-.21.89.95 1.13.96 1.13l2.58.82s1.85.52 1.76 2.63ZM19.28 27H16.2v-.17c.51-.02.79-.47.79-.94v-6.3c0-.65-.06-1.25-.79-1.42V18h3.07v.18c-.7.1-.78.81-.78 1.4v6.3c0 .48.3.88.78.95V27Z" fill="#FF001B"/></svg>