<!-- by TradingView --><svg width="56" height="56" viewBox="0 0 56 56" xmlns="http://www.w3.org/2000/svg"><path fill="#F0F3FA" d="M0 0h56v56H0z"/><path d="m33.8 26.15-.8.61a3.83 3.83 0 0 0-1.55-1.78v4.27c0 .27.04.54.56.54.78 0 .9-.34.9-.98 0-.34-.2-.51-.43-.6-.18-.05-.34-.2-.34-.38v-.13c0-.18.16-.33.35-.33h1.16c.2 0 .35.14.35.33v2.09c0 .28-.66.92-1 1.21h-2.35a.64.64 0 0 1-.65-.63V23c2.11.42 3.42 2.28 3.8 3.15Z" fill="#2F328E"/><path fill-rule="evenodd" d="m28 11 13.63 6.54L45 32.22 35.57 44H20.43L11 32.22l3.37-14.68L28 11Zm8.2 28.35a14 14 0 1 0-16.37.03c2.44-1.07 2.85-3.06 3.11-4.37l.03-.12c.86-.92 3.77-1.47 5.12-1.63 1.34.16 4.22.7 5.07 1.63l.03.12c.26 1.3.65 3.27 3.01 4.34ZM29.7 34h-2.22v1.68h2.23V34Zm-2.22 2h.8v3.14l-2.64 2.5-.64-.62 2.48-2.38V36Zm1.28 0h.8v2.82h-.8V36Zm.41 4.45-.74-.71-2.18 2.09.75.71 2.17-2.09Zm.08-1.44.75.71-.45.43-.74-.71.44-.43Z" fill="#2F328E"/><path d="M27 23.37v1.42c0 .21-.18.38-.4.38h-.12c-.45 0-.9.12-1.29.33l-.6.33a.49.49 0 0 0-.03.85l1.6 1.04c.35.22.55.59.55.97v1.43c0 .48-.42.88-.94.88h-2.54c-.62 0-1.23-.76-1.23-1.3 0-.55.38-.87.58-.87.2.49.72 1.16 1.28 1.16s1.6.1 1.6-.42c0-.53-2.07-1.58-2.52-1.73-.45-.14-.45-.56-.45-1.49 0-1.6 2.4-2.78 4-3.33.25-.08.51.1.51.35ZM29.01 26H28v7h3v-.87h-1.99V26ZM21 36.06c.1-.09.14-.18.16-.27.04-.17-.04-.34-.22-.51a.94.94 0 0 0-.25-.18c-.17-.08-.32-.06-.43.05-.09.08-.12.17-.1.25.01.09.07.2.16.34l.16.25c.11.16.18.3.2.39.03.16-.02.3-.15.42-.14.14-.3.2-.5.2a.85.85 0 0 1-.55-.27.98.98 0 0 1-.3-.52c-.04-.19.03-.37.2-.54l.2.2a.53.53 0 0 0-.12.25c-.01.14.06.29.21.44.13.12.25.18.35.18.11 0 .2-.03.27-.1.08-.07.1-.16.08-.25a1.9 1.9 0 0 0-.2-.36l-.18-.26a.91.91 0 0 1-.15-.34c-.02-.16.03-.31.17-.45.18-.17.37-.23.57-.18.2.05.39.16.56.32.2.19.3.38.31.59.01.2-.07.38-.24.55l-.2-.2Zm-2.6-.6-.19-.24 1.8-1.29.18.24-1.8 1.28Zm.66-2.56a.8.8 0 0 0-.14-.2.56.56 0 0 0-.33-.16.96.96 0 0 0-.37.04l-.22.07c-.25.12-.42.26-.5.42-.1.16-.1.34.01.55l.24.47 1.55-.72-.24-.47Zm-1.41 1.56-.4-.78a.8.8 0 0 1-.01-.76c.1-.21.3-.38.58-.51.21-.1.43-.15.64-.15.37-.01.64.15.8.48l.4.79-2.01.93Zm.6-3.65a.79.79 0 0 0-.09-.23.55.55 0 0 0-.3-.22.96.96 0 0 0-.36-.03c-.09 0-.16.01-.23.03a1.1 1.1 0 0 0-.59.31c-.12.14-.15.32-.09.55l.14.5 1.66-.41-.13-.5Zm-1.7 1.26-.23-.85a.8.8 0 0 1 .14-.74c.16-.19.38-.32.68-.4.23-.05.45-.06.66-.02.36.06.6.27.7.63l.22.84-2.17.54ZM16 29.39v-.3h.93v-1.11H16v-.3h2.24v.3h-1.05v1.12h1.05v.3H16Zm.13-2.64.33-1.53.27.05-.27 1.26.67.13.24-1.16.26.05-.25 1.16.74.14.28-1.27.26.05-.33 1.55-2.2-.43Zm2.13-1.98c.12.05.22.06.32.05.18-.03.32-.15.43-.37.05-.1.08-.2.09-.29.02-.18-.04-.3-.19-.37-.1-.05-.2-.06-.28-.01-.08.04-.17.13-.28.26l-.2.23c-.12.15-.22.25-.3.3a.48.48 0 0 1-.48.01.63.63 0 0 1-.35-.38c-.06-.18-.03-.37.08-.6a1 1 0 0 1 .41-.44c.17-.1.37-.1.6.01l-.13.25a.58.58 0 0 0-.29-.03c-.14.03-.26.14-.36.33-.08.16-.1.28-.06.38.03.1.1.17.18.21.1.05.2.04.28-.02.05-.03.15-.13.28-.3l.2-.24c.1-.11.2-.2.28-.24a.55.55 0 0 1 .5 0c.23.1.35.26.37.46.02.2-.03.4-.13.6a.92.92 0 0 1-.47.48c-.2.08-.4.07-.62-.03l.12-.25Zm-.13-2.83 1.67.8-1.08-1.48.2-.25 1.74.74-1.14-1.43.21-.24 1.35 1.8-.2.23-1.76-.74 1.1 1.51-.2.24-2.1-.93.21-.25Zm3.93-1.91-.87-.57.3.97.57-.4Zm-1.2-.73.28-.2 2 1.25-.27.2-.59-.4-.7.52.2.65-.25.18-.66-2.2Zm3.05-.52a.59.59 0 0 0 .28-.2c.06-.08.05-.19 0-.32-.07-.14-.16-.21-.29-.22a.6.6 0 0 0-.25.05l-.68.28.3.67.64-.26Zm-1.32-.53.95-.39c.16-.06.3-.09.42-.09.23 0 .4.12.5.35.05.12.07.23.05.32a.57.57 0 0 1-.13.27c.1 0 .17.02.23.05.07.04.13.11.18.22l.13.26a.9.9 0 0 0 .1.16c.04.06.08.09.14.09l.01.04-.34.14a.27.27 0 0 1-.05-.05 1.25 1.25 0 0 1-.08-.15l-.16-.33c-.07-.12-.16-.19-.27-.2a.7.7 0 0 0-.27.07l-.63.26.37.85-.28.1-.87-1.97Zm2.49-.86.3-.07.55 2.08-.3.07-.55-2.08Zm3.31-.39c.21.01.39.06.54.14.22.13.34.33.38.61l-.3-.01a.52.52 0 0 0-.21-.35.8.8 0 0 0-.43-.13.7.7 0 0 0-.53.2c-.15.14-.24.36-.25.65-.02.26.03.47.14.63.1.17.3.26.56.27.2 0 .37-.04.5-.15.15-.1.22-.28.24-.53l-.7-.03.01-.25.98.05-.06 1.15h-.2l-.05-.29c-.1.1-.2.17-.28.21-.14.07-.31.1-.52.09a1 1 0 0 1-.67-.28c-.2-.22-.28-.5-.26-.87.02-.36.13-.64.35-.84a1 1 0 0 1 .76-.27Zm2.7 1.75-.07-1-.6.84.68.16Zm-.14-1.34.33.08.23 2.27-.32-.08-.06-.67-.86-.21-.4.56-.3-.07 1.38-1.88Zm2.33 1.94c.13.06.24.09.34.08.1-.01.19-.08.26-.2.07-.14.07-.26 0-.36a.57.57 0 0 0-.2-.15l-.65-.34-.36.65.61.32Zm-.4-1.33.92.48c.15.07.26.16.34.25.13.18.14.38.02.6a.58.58 0 0 1-.23.23.63.63 0 0 1-.3.07c.06.07.1.14.1.2.02.08 0 .17-.06.28l-.14.26a.9.9 0 0 0-.07.17c-.02.07-.01.12.02.16l-.02.04-.33-.17.01-.07.08-.16.16-.32c.06-.13.06-.24 0-.33a.68.68 0 0 0-.23-.15l-.6-.32-.46.8-.27-.13 1.07-1.89Zm2.4 1.36.32.28-.8 1.76 1.75-.93.32.27-1.5 1.6-.22-.2.89-.93a14.03 14.03 0 0 1 .38-.4l-1.74.93-.22-.2.8-1.75-.05.05a12.55 12.55 0 0 0-.33.36l-.89.94-.21-.19 1.5-1.59Zm2.24 2.19.92 1.3-.23.14-.75-1.06-.56.36.7.99-.22.13-.7-.98-.62.41.76 1.08-.22.14-.93-1.31 1.85-1.2Zm1.38 2.15.12.32-1.31 1.62 1.7-.6.1.26-2.1.74-.12-.31 1.3-1.63-1.7.6-.1-.26 2.1-.74Zm1.08 4.04-.27.03-.11-.71-1.95.28-.05-.29 1.95-.28-.11-.72.26-.04.28 1.73Zm-1.52.84a.63.63 0 0 0-.32.08c-.15.09-.23.25-.24.5-.01.1 0 .2.03.3.05.17.16.26.32.27.12 0 .21-.03.27-.1.05-.07.1-.18.15-.34l.08-.28c.06-.2.11-.32.17-.4.1-.13.25-.2.43-.18.2 0 .36.08.48.22.13.14.18.33.17.58a.96.96 0 0 1-.2.56c-.12.15-.3.22-.56.21l.02-.27c.12-.01.21-.04.28-.08.12-.09.19-.23.2-.45 0-.17-.02-.3-.1-.37a.36.36 0 0 0-.25-.13c-.11 0-.2.04-.25.12-.03.06-.08.19-.14.39l-.09.3a.92.92 0 0 1-.16.32.54.54 0 0 1-.46.19c-.25-.02-.42-.11-.52-.29-.1-.18-.14-.38-.13-.6.02-.27.1-.48.25-.62.15-.15.34-.21.58-.2l-.01.27Zm.99 3.34-.1.28-1.86-.65-.39 1.02-.25-.09.5-1.3 2.1.74Zm-1.47 3.04-.23-.13.36-.63-1.74-.9.15-.26 1.73.9.36-.64.24.12-.87 1.54Zm-2.55-.02a.8.8 0 0 0-.15.2.51.51 0 0 0-.03.36 1.26 1.26 0 0 0 .33.48c.2.18.4.28.6.3.18.02.36-.06.52-.23l.36-.38-1.27-1.11-.36.38Zm2.03.68-.6.64a.87.87 0 0 1-.73.3 1.23 1.23 0 0 1-.72-.33c-.17-.15-.3-.32-.38-.5-.15-.34-.1-.64.17-.91l.6-.65 1.66 1.45Z" fill="#2F328E"/></svg>