<!-- by TradingView --><svg width="56" height="56" viewBox="0 0 56 56" xmlns="http://www.w3.org/2000/svg"><path fill="#F0F3FA" d="M0 0h56v56H0z"/><path d="M41.93 16.54c-.91-.52-4.12-1.54-9.66-1.54-6.92 0-20.4 5.38-22.27 13.6 1.83 2.88 6.67 3.54 10.65 4.09 2.93.4 5.39.73 5.85 1.84.13.63-2.36 2.17-13.3 3.29C14.87 39.05 17.6 41 23.94 41c4.39 0 10.85-1.1 16.4-4.8L25 37.5l17.23-2.7c.3-.25.6-.5.89-.77L29 35l15.36-2.18.34-.37L29 33.5l16.8-2.35.11-.15L28 32l18.95-2.47.05-.08a1.44 1.44 0 0 0-.05-.1L24 31l21.08-3.02-.68-.3-23.08 1.7L41 26.52l-1.02-.28-20.08 1.48 16.41-2.38-1.34-.3-16.68 1.25 12.96-2.06-1.52-.33L16 25l10.91-1.78a7.87 7.87 0 0 1-2.29-.87c-.6-.48 2-2.33 17.3-5.81Z" fill="#D4AB65"/></svg>