<!-- by TradingView --><svg width="56" height="56" viewBox="0 0 56 56" xmlns="http://www.w3.org/2000/svg"><path fill="#F0F3FA" d="M0 0h56v56H0z"/><path d="M47.47 22H12l37-4-1.53 4Z" fill="#F01616"/><path d="M8.56 34H45l-.56 2H8l.56-2Z" fill="#9B9998"/><path d="M34.5 23H38l-5.73 5.54L35 33h-3.33l-1.8-2.93L29 33h-3l3-10h3l-.94 3.13L34.5 23ZM28 23h-6.36L21 25h1.9l-1.8 6h-1.46L19 33h6.36l.64-2h-1.9l1.8-6h1.46l.64-2ZM12.47 24.02c.24-.62.82-1.02 1.47-1.02H21l-1.12 3h-5l2.93 2.15c.55.42.75 1.18.5 1.84L17.5 32c-.23.6-.8.99-1.42.99H9l1.12-3h4.48l-2.5-2a1.66 1.66 0 0 1-.46-1.86l.83-2.12Z" fill="#003292"/><path fill-rule="evenodd" d="M40.6 23c-.97 0-1.83.66-2.11 1.62L36 33h2.97l1.2-4.03h2.6L41.55 33h2.97l2.4-8.1c.29-.95-.39-1.9-1.33-1.9h-5Zm2.75 4 .6-2h-2.6l-.6 2h2.6Z" fill="#003292"/></svg>