<!-- by TradingView --><svg width="56" height="56" viewBox="0 0 56 56" xmlns="http://www.w3.org/2000/svg"><path fill="#181B1E" d="M0 0h56v56H0z"/><path d="M41.67 41.17c.23-.19.44-.43.64-.7.2-.29.39-.63.57-1.05l.23-.48a50.99 50.99 0 0 0-2.08-4.59c-.4-.69-.74-1.06-1.03-1.1.1-.4.22-.7.4-.92.16-.22.35-.33.55-.33.14 0 .26.04.35.1.1.07.18.2.27.38l.72 1.79a65.8 65.8 0 0 0 1.46 3.32 50.6 50.6 0 0 0 1.42-3.3c.32-.84.48-1.41.48-1.73 0-.06-.01-.12-.03-.17 0-.06-.02-.11-.03-.16l.15-.05c.34-.12.58-.18.72-.18.17 0 .3.05.4.14.1.1.14.22.14.38 0 .2-.33.99-.98 2.37a71.04 71.04 0 0 0-2.2 5.16c-.49 1.3-.88 1.95-1.17 1.95-.15 0-.31-.07-.48-.22a2.53 2.53 0 0 1-.5-.6ZM33.43 35.2a13.74 13.74 0 0 0 2.56.16c.68 0 1.13-.06 1.36-.18.22-.12.34-.34.34-.65 0-1.07-.95-1.53-1.9-1.53-1.32 0-2.16.94-2.36 2.2Zm4.71 3.08c.12.14.2.27.26.4a.8.8 0 0 1 .09.35c0 .29-.22.52-.66.7-.43.18-1 .27-1.7.27-2.35 0-4.13-1.43-4.13-3.86 0-2.28 1.6-4.14 3.95-4.14 1.53 0 3.05.96 3.05 2.62 0 .6-.24 1.04-.71 1.3-.48.25-1.29.38-2.43.38a20.88 20.88 0 0 1-2.53-.17v.1a2.7 2.7 0 0 0 2.77 2.8c.8 0 1.48-.34 2.04-.75ZM31 39.66c-.21.12-.4.2-.6.26-.17.05-.34.08-.5.08-.25 0-.41-.07-.5-.2-.1-.14-.14-.4-.14-.78 0-.47.03-1.37.09-2.7.05-1.33.08-2.43.08-3.3 0-1.06-.03-1.87-.1-2.42a3.66 3.66 0 0 0-.33-1.26c.2-.12.4-.2.58-.26.18-.05.36-.08.53-.08.25 0 .42.06.5.19.1.12.14.38.14.76a91 91 0 0 1-.08 2.51 89.41 89.41 0 0 0-.08 3.59c0 1.1.03 1.91.09 2.42s.17.9.32 1.2ZM28 39.66c-.21.12-.4.2-.6.26-.17.05-.34.08-.5.08-.25 0-.41-.07-.5-.2-.1-.14-.14-.4-.14-.78 0-.47.03-1.37.09-2.7.05-1.33.08-2.43.08-3.3 0-1.06-.03-1.87-.1-2.42a3.66 3.66 0 0 0-.33-1.26c.2-.12.4-.2.58-.26.18-.05.36-.08.53-.08.25 0 .42.06.5.19.1.12.14.38.14.76a91 91 0 0 1-.08 2.51 89.41 89.41 0 0 0-.08 3.59c0 1.1.03 1.91.09 2.42s.17.9.32 1.2ZM24.78 39.5c-.35.2-.6.5-1.05.5-.48 0-.67-.25-.7-.87a3.2 3.2 0 0 1-2.26.87c-1.43 0-2.77-.84-2.77-2.39 0-2.05 2.21-2.61 3.87-2.61.37 0 .74.04 1.1.08.03-.1.03-.2.03-.32 0-1.09-.45-1.76-1.67-1.76-1.01 0-1.65.33-2.06 1a.87.87 0 0 1-.46-.24.66.66 0 0 1-.15-.44c0-1.17 1.98-1.32 2.77-1.32 2.03 0 2.82.93 2.82 2.76 0 .18 0 .48-.02.9l-.03 1.04c0 .72.05 1.3.14 1.73.09.44.24.8.44 1.06ZM23 36.11c-.34-.05-.68-.12-1.03-.12-1.07 0-2.6.1-2.6 1.5 0 .96.87 1.5 1.72 1.5.82 0 1.33-.3 1.91-.86v-2.02ZM9 29.6c.15-.2.31-.36.47-.45.16-.1.34-.15.52-.15.46 0 .92.77 1.4 2.3a9.12 9.12 0 0 1 .13.43c1.29 4.1 2.02 6.14 2.2 6.14.07 0 .19-.12.37-.36s.37-.55.57-.92c.7-1.35 1.21-2.5 1.51-3.48.3-.97.46-1.9.46-2.77a4.27 4.27 0 0 0-.16-1.15c.15-.07.29-.12.41-.15.13-.03.24-.04.35-.04.29 0 .49.07.6.22.11.15.17.41.17.79 0 .97-.23 2.09-.7 3.35a30.35 30.35 0 0 1-2.23 4.56c-.48.83-.82 1.39-1.04 1.67-.2.27-.38.41-.5.41-.17 0-.36-.17-.56-.52-.21-.34-.44-.87-.7-1.56-.38-1.03-.86-2.4-1.42-4.07-.82-2.5-1.44-3.9-1.85-4.25ZM41.57 20.9a149.9 149.9 0 0 1-.06 3.01c0 .7.03 1.25.09 1.68.06.43.15.78.28 1.07-.2.12-.4.2-.57.26-.18.05-.35.08-.52.08-.23 0-.38-.07-.47-.2-.08-.14-.13-.43-.13-.87l.08-1.47c.05-.89.08-1.73.08-2.52 0-.74-.03-1.32-.08-1.73-.06-.4-.15-.77-.27-1.1a2.52 2.52 0 0 1 .66-.11c.26 0 .47.08.62.24a1 1 0 0 1 .26.66c.38-.29.77-.5 1.2-.66.4-.16.82-.24 1.23-.24.5 0 .94.12 1.34.35.4.23.7.54.9.95.15.28.25.61.31.99a10.8 10.8 0 0 1 .08 2.26v.77c0 .54.03 1.01.1 1.4.06.4.17.7.3.92-.23.12-.44.21-.61.27-.17.06-.33.09-.46.09-.24 0-.4-.06-.5-.2-.09-.12-.13-.37-.13-.73l.04-1.4c.04-.72.06-1.33.06-1.83a4 4 0 0 0-.41-2.08c-.28-.43-.72-.65-1.33-.65-.3 0-.64.07-1 .2-.35.14-.72.34-1.09.6ZM34.98 26c1.66 0 2.74-1.47 2.74-3.07 0-1.57-1.09-2.93-2.7-2.93-1.72 0-2.74 1.47-2.74 3.1 0 1.54 1.13 2.9 2.7 2.9Zm-.09 1A3.8 3.8 0 0 1 31 23.1c0-2.39 1.8-4.1 4.17-4.1A3.76 3.76 0 0 1 39 22.81 4.2 4.2 0 0 1 34.9 27ZM29.39 20.6a2.3 2.3 0 0 0-1.24-.35c-1.66 0-2.78 1.4-2.78 3 0 1.53 1.08 2.54 2.6 2.54a3 3 0 0 0 .95-.14c.28-.09.54-.23.79-.43.1.13.16.25.21.37.05.12.08.23.08.34 0 .33-.2.59-.57.78-.39.2-.9.29-1.56.29C25.8 27 24 25.66 24 23.48c0-2.47 2-4.48 4.47-4.48.45 0 .8.06 1.01.2.23.12.34.32.34.59 0 .13-.03.26-.1.4-.07.12-.18.25-.33.4ZM20 26.66c-.21.12-.4.2-.6.26-.17.05-.34.08-.5.08-.25 0-.41-.07-.5-.2-.1-.14-.14-.4-.14-.78 0-.47.03-1.37.09-2.7.05-1.33.08-2.43.08-3.3 0-1.06-.03-1.87-.1-2.42a3.66 3.66 0 0 0-.33-1.26c.2-.12.4-.2.58-.26.18-.05.36-.08.53-.08.25 0 .42.06.5.19.1.12.14.38.14.76a91 91 0 0 1-.08 2.51 89.41 89.41 0 0 0-.08 3.59c0 1.1.03 1.91.09 2.42s.17.9.32 1.2ZM16.94 16.88a1.01 1.01 0 0 1-1.04 1.04.83.83 0 0 1-.63-.24.86.86 0 0 1-.23-.63c0-.29.1-.54.3-.74.2-.2.44-.31.72-.31.26 0 .47.08.63.25.17.17.25.38.25.63ZM16.4 26.91c.2-.06.4-.15.6-.27a4.4 4.4 0 0 1-.31-1.17c-.07-.47-.1-1.06-.1-1.78 0-.77.02-1.58.07-2.43l.07-1.4c0-.33-.05-.56-.13-.68s-.24-.18-.47-.18a2.25 2.25 0 0 0-1.13.36c.13.3.23.65.29 1.07.06.42.09.96.09 1.63 0 .62-.02 1.36-.07 2.21-.04.86-.07 1.41-.07 1.66 0 .43.05.72.13.86.09.14.25.21.5.21.17 0 .35-.03.54-.09ZM22.94 16.88a1.01 1.01 0 0 1-1.04 1.04.83.83 0 0 1-.63-.24.86.86 0 0 1-.23-.63c0-.29.1-.54.3-.74.2-.2.44-.31.72-.31.26 0 .47.08.63.25.17.17.25.38.25.63ZM9.3 25.24c.4.23.82.34 1.28.34.91 0 1.8-.48 1.8-1.5 0-.82-.76-1.36-1.27-1.9-.82-.6-1.88-1.71-1.88-2.8 0-.36.08-.72.23-1.08A4 4 0 0 1 12.9 16c.73 0 1.09.26 1.09.78 0 .18-.12.47-.36.87a2.81 2.81 0 0 0-1.13-.24c-1 0-1.92.52-1.92 1.6 0 .85.64 1.4 1.23 1.91 1.27 1.14 1.9 2.1 1.9 2.9 0 .3-.04.59-.15.88a3.45 3.45 0 0 1-1.72 1.93c-.5.25-1.05.37-1.64.37-.8 0-1.21-.3-1.21-.87 0-.13.02-.26.07-.41.05-.15.13-.3.23-.48ZM22.4 26.91c.2-.06.4-.15.6-.27a4.4 4.4 0 0 1-.31-1.17c-.07-.47-.1-1.06-.1-1.78 0-.77.02-1.58.07-2.43l.07-1.4c0-.33-.05-.56-.13-.68s-.24-.18-.47-.18a2.25 2.25 0 0 0-1.13.36c.13.3.23.65.29 1.07.06.42.09.96.09 1.63 0 .62-.02 1.36-.07 2.21-.04.86-.07 1.41-.07 1.66 0 .43.05.72.13.86.09.14.25.21.5.21.17 0 .35-.03.54-.09Z" fill="#fff"/></svg>