<!-- by TradingView --><svg width="56" height="56" viewBox="0 0 56 56" xmlns="http://www.w3.org/2000/svg"><path fill="#022658" d="M0 0h56v56H0z"/><path d="m29.93 12.33-1.73 1.74c-.1.1-.18.1-.27 0l-1.75-1.72a.18.18 0 0 1-.04-.2.18.18 0 0 1 .17-.13L29.8 12c.08 0 .14.04.17.12.04.08.02.15-.03.2Zm-7.43 2.84-2.04-.84a.26.26 0 0 1-.18-.26c0-.13.06-.22.18-.27l2.94-1.2c.35-.15.45-.05.31.3l-.88 2.13c-.07.16-.17.2-.33.14Zm11.06-.02 2.14-.87c.1-.04.15-.12.15-.23a.22.22 0 0 0-.15-.23l-3.05-1.24a.23.23 0 0 0-.27.05.23.23 0 0 0-.05.28l.9 2.1c.07.16.18.2.33.14Zm-15.29.51-.04 2.32c0 .16-.08.24-.23.24l-2.33.06a.23.23 0 0 1-.23-.15.22.22 0 0 1 .05-.26l2.37-2.38c.08-.08.17-.1.27-.06.1.05.15.12.14.23Zm19.78 2.56 2.4.05c.09 0 .15-.04.18-.12a.17.17 0 0 0-.04-.2l-2.43-2.45a.18.18 0 0 0-.21-.04.18.18 0 0 0-.12.18l.04 2.39c0 .12.06.18.18.19Zm-23.73 2.2.89 2.05c.06.16.02.27-.14.33l-2.15.93c-.36.15-.46.05-.32-.3l1.18-3a.27.27 0 0 1 .27-.19c.13 0 .22.06.27.17Zm10.97 5.02c-.49-.42-.68-.86-.56-1.31.18-.65.54-1.15 1.1-1.51.52-.33 1.13-.5 1.84-.53a6.01 6.01 0 0 1 4.43 1.58c.24.21.44.2.62-.06l.71-1.01c.19-.27.16-.5-.08-.7a8.03 8.03 0 0 0-6.94-1.72c-.9.19-1.7.54-2.37 1.06a3.95 3.95 0 0 0-1.49 4.23c.36 1.34 1.37 2.26 3.02 2.76l3.83 1.05c.68.18 1.22.45 1.61.8.42.37.62.84.62 1.43 0 .58-.21 1.08-.62 1.48-.48.48-1 .76-1.59.87a6.36 6.36 0 0 1-5.93-1.8c-.21-.22-.4-.2-.58.05l-.8 1.12c-.18.26-.14.5.1.72a7.66 7.66 0 0 0 4.24 1.96c1.18.13 2.3.12 3.39-.02a5.1 5.1 0 0 0 2.37-.98 4.11 4.11 0 0 0 1.55-2.05c.3-.92.32-1.83.04-2.71A3.79 3.79 0 0 0 32.16 28a7 7 0 0 0-1.85-.86l-3.62-.98a3.53 3.53 0 0 1-1.4-.73Zm17.92-1.67-2.25-1c-.12-.06-.15-.14-.1-.27l.92-2.26a.2.2 0 0 1 .2-.13c.09 0 .15.04.19.13l1.31 3.26c.04.09.02.16-.05.22a.2.2 0 0 1-.22.05Zm-29.15 4.08-1.64-1.7a.23.23 0 0 0-.27-.06.22.22 0 0 0-.15.23l.01 3.41c0 .11.05.18.15.22.1.04.2.03.27-.06l1.63-1.7c.1-.12.1-.23 0-.34Zm29.62 2.02-1.7-1.76c-.08-.08-.08-.17 0-.26l1.69-1.76a.18.18 0 0 1 .2-.04c.08.03.12.09.12.17l.01 3.52c0 .08-.04.14-.12.17a.17.17 0 0 1-.2-.04Zm-28.64 3.36-2.14-.96a.22.22 0 0 0-.26.04.2.2 0 0 0-.05.25l1.25 3.14c.03.1.1.14.2.14.11 0 .18-.05.22-.14l.9-2.17c.05-.14.02-.23-.12-.3Zm26.74 2.46-.92-2.14c-.06-.14-.02-.24.12-.3l2.14-.93a.2.2 0 0 1 .25.05c.07.07.1.15.05.24L42.2 35.7c-.04.1-.1.14-.2.14a.21.21 0 0 1-.22-.14Zm-1.52 2.1-2.2-.02c-.15 0-.23.08-.23.25l-.01 2.28c0 .37.13.43.4.16l2.24-2.2c.08-.08.1-.18.06-.3a.26.26 0 0 0-.26-.18Zm-24.6.01 2.37.02c.15 0 .23.08.23.23v2.35c0 .1-.05.18-.14.22a.22.22 0 0 1-.25-.05l-2.37-2.38a.2.2 0 0 1-.04-.25c.03-.09.1-.14.2-.14Zm17.56 3.16-.92 2.17c-.04.1-.02.2.05.27.08.08.17.1.28.06l3.09-1.25c.1-.04.15-.12.15-.23a.23.23 0 0 0-.15-.23l-2.17-.92c-.15-.07-.26-.03-.33.13Zm-12.92.81 2.23-.92c.13-.05.23-.01.3.13l.94 2.2c.04.1.03.18-.04.25a.21.21 0 0 1-.25.05L20.3 42.2a.22.22 0 0 1-.14-.21c0-.1.05-.18.14-.22Zm7.54.22-1.68 1.62a.2.2 0 0 0-.05.25c.04.1.1.14.21.14l3.38-.02a.2.2 0 0 0 .21-.14.21.21 0 0 0-.05-.25l-1.7-1.6c-.1-.1-.21-.1-.32 0Z" fill="#E7DCE0"/></svg>