<!-- by TradingView --><svg width="56" height="56" viewBox="0 0 56 56" xmlns="http://www.w3.org/2000/svg"><path fill="#F0F3FA" d="M0 0h56v56H0z"/><path d="m51.17 31-2.33-3.54-1.15 1.29V31H47v-7h.69v3.81L51.06 24h.87l-2.62 2.94L52 31h-.83ZM45.25 31l-.74-2.02h-3.07L40.73 31H40l2.52-7h.87L46 31h-.75Zm-3.56-2.72h2.57l-.6-1.62-.7-2.02c-.14.42-.43 1.26-.7 2l-.57 1.64ZM40 27.47C40 29.7 38.6 31 36.95 31 35.33 31 34 29.78 34 27.5c0-2.23 1.4-3.5 3.03-3.5S40 25.25 40 27.47Zm-.69.04c0-1.9-1.1-2.82-2.32-2.82-1.21 0-2.3.89-2.3 2.8 0 1.9 1.09 2.82 2.3 2.82 1.22 0 2.32-.89 2.32-2.8ZM32.67 30.02c.08.35.2.65.33.9V31h-.69c-.16-.26-.26-.6-.31-.85l-.25-1.17c-.18-.83-.68-1.02-1.33-1.02h-1.75V31H28v-7h2.64c1.41 0 2.06.66 2.06 1.92 0 .84-.46 1.43-1.12 1.7.36.16.68.55.87 1.4l.22 1Zm-4-2.77h1.96c.82 0 1.39-.39 1.39-1.3 0-.88-.45-1.25-1.45-1.25h-1.9v2.55ZM22.78 30.29H27V31h-5v-7h4.96v.71h-4.18v2.3h3.7v.7h-3.7v2.58ZM17.6 31 15 24h.78l1.55 4.28c.29.8.58 1.66.73 2.1l.7-2.09 1.5-4.29H21l-2.51 7h-.9ZM12.64 30.29H16V31h-4v-7h.64v6.29ZM10 31v-7h.67v7H10ZM7.19 27.19c1.3.25 1.81.87 1.81 1.92C9 30.23 8.17 31 6.51 31 4.83 31 4 30.13 4 28.8h.66c0 .92.6 1.52 1.87 1.52 1.2 0 1.79-.43 1.79-1.2s-.55-1.08-1.4-1.24l-.96-.18c-1.06-.19-1.72-.69-1.72-1.82 0-1.05.73-1.88 2.28-1.88 1.58 0 2.36.93 2.36 2.23H8.2c0-1-.6-1.58-1.73-1.55-1.01.03-1.56.43-1.56 1.16 0 .76.46 1 1.28 1.16l.99.19Z" fill="#959595"/></svg>