<!-- by TradingView --><svg width="56" height="56" viewBox="0 0 56 56" xmlns="http://www.w3.org/2000/svg"><path fill="#F0F3FA" d="M0 0h56v56H0z"/><path d="M17.6 24.66c0-.03-.1-.13-.3-.32l-2.69-2.49a1.66 1.66 0 0 1-.54-1.2l-.02-1.67c0-.62.18-.68.54-.17 1.73 2.4 3.1 3.79 4.14 4.19.09.03.16.1.2.17l.35.62c.59 1.08 1 1.02 1.2-.2.33-1.88.83-3.95 1.53-6.2.2-.67.54-1.23 1-1.7.8-.78 1.53-1.66 2.22-2.65.11-.15.38.18.3.35-2.07 3.75-2.58 7.87-1.52 12.34.55 2.32 2.62 4.47.56 6.77-.4.44-.3.6.29.5.35-.06.69-.18 1.02-.37.35-.2.6.41.37.64-.26.28-.83.67-.94 1.04-.14.46.58.36.8.24.35-.2.55-.58.91-.8.23-.14.38-.08.45.18.06.2.07.4.06.6-.04.58.17.68.63.33.64-.5 1.4-1.1 2.2-.44 1.58 1.3 2.97 2.98 4.95 3.7 1.45.52 2.93.73 4.45.62.2-.02.36.3.12.36-2.2.61-4.36 1.45-6.65 1.68-3.42.35-6.69.28-9.81-.21-1.45-.23-3.2-.7-5.25-1.38a48.68 48.68 0 0 1-5.06-1.9 7.45 7.45 0 0 1-2.7-2.16c-.75-1.02-.58-1.2.52-.54 1.46.88 3.9.77 5.62.65.34-.02.43-.18.26-.47a1.44 1.44 0 0 0-1.08-.61c-1.06-.07-2.12.1-3.05-.52-.8-.54-1.67-1-2.35-1.72-.8-.85-1.82-1.23-2.4-2.28l-.9-1.68c-.14-.24.28-.88.49-.56.55.83 1.2 1.43 1.91 1.83 2.35 1.29 4.36 2.17 6.99 2.08.16 0 .42-.16.3-.34a.24.24 0 0 0-.11-.1 97.98 97.98 0 0 0-3.27-1.22 4.59 4.59 0 0 1-1.77-1.17c-1.32-1.37-1.66-2.64-2.24-4.3-.02-.08 0-.15.07-.2.18-.16.32-.13.42.08.64 1.27 2.44 2.63 3.71 3.12.8.3 1.59.5 2.35.6.79.1.84-.05.14-.42-1.07-.58-2.56-1-3.33-1.96-.8-1-1.13-2.2-1.46-3.4-.1-.37-.12-.73-.06-1.09.08-.45.23-.47.45-.06.45.86.76 1.82 1.7 2.3 1.3.65 2.56 1.27 3.8 1.84.37.18.53.07.48-.33Z" fill="#CC9D60"/><path d="M20.23 19h-.05c-1.08-.08-1.24-1.31-1.16-1.92l.3-2.36c.08-.61.56-1.8 1.64-1.72.02 0 .04 0 .04.02L20.23 19ZM17.52 16.17l1.43 3.77.03.11.02 1.66c0 .28-.35.4-.5.17l-1.35-2.09a.31.31 0 0 1-.05-.16L17 16.3c0-.31.4-.4.52-.12ZM38.6 31.09c.4-1.6-1.7-1.8-2.74-1.92-1.14-.14-2.02-.91-3.17-.92-.95-.01-1.98.11-3.07.38-1.48.36-2.45-.12-2.92-1.44a12.23 12.23 0 0 1-.13-7.77.34.34 0 0 1 .3-.26c1.35-.19 2.74-.21 4.16-.06 5.06.53 9.53 1.86 13.56 5.09a6.37 6.37 0 0 1 2.35 4.74c.23 3.1-.08 6.11-3.39 7.22-2.96 1-5.78 1.12-8.46.35-1.06-.3-1.69-1.03-1.9-2.17-.1-.55.06-1.1.47-1.66.86-1.18 3.34-1.4 4.63-1.35.17 0 .27-.07.31-.23Z" fill="#CC9D60"/></svg>