<!-- by TradingView --><svg width="56" height="56" viewBox="0 0 56 56" xmlns="http://www.w3.org/2000/svg"><path fill="#F0F3FA" d="M0 0h56v56H0z"/><path d="M47.88 19 50 27.65 8.12 37 6 28.35 47.88 19ZM7.01 28.97l1.73 7.05 40.25-9-1.73-7.04-40.25 9Z" fill="#8A132D"/><path d="m43.99 28.6-3.05.69a13 13 0 0 1-24.08 5.4l-3.06.7A16 16 0 0 0 44 28.6Zm-25.8-2.52 2.19-.51a8 8 0 0 1 13.36-3.14l2.2-.51a9.99 9.99 0 0 0-17.76 4.16Zm20.88-4.9 3.05-.71A16 16 0 0 0 12 27.53l3.04-.71a13 13 0 0 1 24.02-5.64ZM19.98 34a10 10 0 0 0 17.84-4.01l-2.21.5a8 8 0 0 1-13.42 3.01l-2.2.5ZM40.77 27.8l1.78-3.29-1.74-2.15 1.51-.34.98 1.25.86-1.65 1.63-.37-1.65 3.08 1.86 2.3-1.52.34-1.1-1.41-.96 1.87-1.65.37ZM36.23 28.8l.12-5.46 4.05-.9-.02 1.1-2.58.57-.03 1 2.37-.53-.02 1.08-2.37.53-.02 1.2 2.72-.61-.02 1.1-4.2.92ZM31.35 29.88l.15-5.46 1.47-.33-.1 4.3 2.82-.62-.03 1.16-4.3.95ZM27.32 27.76l.6-.13c.48-.11.81-.25.99-.4.17-.17.23-.4.17-.66-.04-.2-.14-.33-.3-.38a2.13 2.13 0 0 0-.92.07l-.5.12-.04 1.38Zm-1.55 3.36.15-5.46 1.9-.43c.86-.18 1.5-.2 1.91-.04.42.16.7.5.8 1.04a1.78 1.78 0 0 1-.4 1.55c-.18.2-.41.36-.7.5-.3.12-.72.25-1.27.37l-.86.2-.05 1.94-1.48.33ZM18.3 32.78l.11-5.46 2.02-.45 1 3.64 1.26-4.14 2.03-.45-.12 5.46-1.34.3.1-4.1-1.26 4.35-1.35.3-1.02-3.85-.1 4.1-1.34.3ZM15.6 33.38l.14-5.47 1.48-.32-.12 5.45-1.5.34ZM10 32.88l1.4-.3c.06.26.2.45.39.54.2.1.46.1.8.02.29-.06.5-.16.66-.3.15-.15.21-.3.18-.47-.05-.2-.4-.35-1.06-.46l-.56-.1c-.5-.09-.88-.23-1.14-.42-.26-.19-.43-.44-.5-.76-.1-.47.02-.89.34-1.25.33-.37.82-.62 1.48-.77a3 3 0 0 1 1.8.04c.47.2.77.56.92 1.1l-1.36.3v-.02c-.05-.22-.17-.37-.36-.45a1.2 1.2 0 0 0-.74-.02c-.25.05-.44.14-.57.27-.14.13-.19.27-.16.42.04.18.37.33 1 .43.23.03.41.07.55.1.55.1.96.24 1.21.42.26.19.43.44.5.77.11.52 0 .97-.36 1.35-.35.4-.88.66-1.6.82-.76.17-1.38.15-1.86-.07-.48-.22-.8-.61-.96-1.19Z" fill="#8A132D"/></svg>