<!-- by TradingView --><svg width="56" height="56" viewBox="0 0 56 56" xmlns="http://www.w3.org/2000/svg"><path fill="#F0F3FA" d="M0 0h56v56H0z"/><path d="M17.07 21.43c.24 0 .47 0 .7-.03.64-.07.74.13.31.6-.1.1-.34.29-.7.53a.21.21 0 0 0-.03.32c.51.51 1.77.08 1.85 1.1.15 2.03.24 4.02.25 5.97 0 .06-.07.1-.12.07a12.2 12.2 0 0 1-2.5-1.65c-5.3-4.58-2.56-11.97 3.21-14.6a19.2 19.2 0 0 1 9.47-1.69c6.03.43 12.45 4.08 12.49 10.78 0 .11-.06.17-.18.17H33.8a.28.28 0 0 1-.24-.12c-1.05-1.37-2.1-2.96-3.16-4.22a7.42 7.42 0 0 0-3.73-2.36 8.38 8.38 0 0 0-2.15-.3c-2.02 0-4.49 1.03-5.08 3.47a.3.3 0 0 1-.1.16.31.31 0 0 1-.19.07c-1.15.03-1.89.55-2.2 1.57-.04.1 0 .16.12.16Z" fill="#DE2223"/><path d="M20.5 21a.5.5 0 1 0 0-1 .5.5 0 0 0 0 1ZM21.34 39c1.25-.13 2.56-.43 3.77-.08.65.2.73.8 1.23 1.15.4.28.82.3 1.27.08.09-.04.1-.17.01-.23-.43-.3-.8-.68-1.1-1.14a.12.12 0 0 1 .03-.17c.43-.3 1 .39 1.28.67.29.29.43.23.43-.18l-.03-.32c-.01-.12.04-.18.16-.18l2.03.03c.65.01.91.94.9 1.45 0 .86-.44 1.85-.8 2.47-.11.18-.06.25.14.21l1.57-.26c.1-.02.17-.13.14-.23-.58-1.7-.72-3.9 1.34-4.67 2.28-.85 4.13-2.36 4.9-4.58.25-.7.38-1.4.39-2.11.03-2.78-1.74-5.32-4-6.91 1.41.57 2.9 1.01 4.2 1.9 3.2 2.2 4.8 5.57 3.12 9.31-1.78 3.96-5 6.03-9.12 7.1-.2.06-.3.2-.3.4 0 .03.02.06.04.1.16.17.39.25.7.2 1.73-.24 2.99-.14 3.75.32.2.12.19.18-.05.18-.5-.01-1.05.08-1.64.28a4.12 4.12 0 0 1-3.12-.07.5.5 0 0 0-.53.1c-.43.38-.96.6-1.6.67a.45.45 0 0 0-.2.07l-2.1 1.39c-.15.1-.23.06-.23-.12 0-.23.05-.45.18-.66.12-.2.3-.36.5-.47.32-.18.48-.3.49-.35.03-.16-.12-.3-.28-.28-.88.1-1.84.19-2.88.28-.26.03-.34-.08-.25-.32.17-.43.61-.7 1.08-.67.77.06 2.55.48 3.14-.18.07-.06 0-.17-.08-.17-7.32 0-17.74-2.36-16.76-11.86a.17.17 0 0 1 .17-.15h6.27c.07 0 .11.04.12.1a9.84 9.84 0 0 0 3.87 6.4c.09.07.06.21-.05.24-.78.2-1.5.57-2.16 1.14-.11.1-.1.15.06.13Z" fill="#DE2223"/><path d="M22.08 23.68c-.25.01-.37.28-.21.45.52.53 1.61 1.14 1.42 1.92-.46 1.84-3.78.72-3.23-1 .03-.09.1-.13.22-.13.28.03.6.17.57.46-.07.59.71 1.13 1.33.86.26-.11.32-.43.12-.6-.6-.53-2.05-1.48-1.05-2.32.4-.34.88-.4 1.45-.22.98.33 1.4.86 1.28 1.6-.02.1-.11.16-.21.15-.4-.02-.62-.2-.65-.54a.47.47 0 0 0-.15-.3 1.17 1.17 0 0 0-.9-.33ZM24.66 24.94c.24 0 .43-.18.43-.4 0-.23-.2-.42-.43-.42a.41.41 0 0 0-.42.41c0 .23.2.41.43.41ZM24.51 25.23l-.21-.08a.28.28 0 0 0-.36.16l-.84 2.15c-.05.14.02.3.16.35l.21.08c.15.05.3-.02.36-.16l.84-2.16a.27.27 0 0 0-.16-.34ZM27.42 26.26c.4-.2.82-.18 1.23.04.12.06.21.18.24.3.17.7-.14 1.62-.32 2.3-.03.16-.13.22-.3.19l-.27-.05a.23.23 0 0 1-.18-.27l.37-1.72c.08-.34-.06-.48-.41-.4-.26.05-.49.16-.55.43l-.33 1.41c-.04.2-.16.27-.36.23l-.2-.05c-.17-.04-.23-.14-.2-.3l.37-1.7c.04-.18-.03-.29-.22-.32l-.23-.04c-.28-.04-.45.07-.51.34l-.34 1.56c-.03.15-.13.2-.28.17l-.28-.06c-.16-.05-.23-.15-.2-.31l.5-2.25c.05-.22.34-.3.5-.13a.9.9 0 0 0 .27.19c.08.03.16.04.24.02.53-.16.95-.03 1.26.38.05.07.12.08.2.04ZM34.84 26.41c.58-.65 1.65-.53 1.82.38.11.56.22 1.07.33 1.52.03.13-.02.21-.17.24l-.3.04c-.15.03-.24-.03-.27-.18l-.31-1.46c-.06-.26-.23-.37-.5-.32l-.16.03c-.3.05-.41.21-.36.49l.29 1.47c.03.17-.04.28-.22.32l-.2.05c-.13.04-.27-.05-.3-.18L34 26.58a.22.22 0 0 1 .16-.25.5.5 0 0 1 .47.1c.07.06.14.05.2-.02ZM33.62 27.28c0-1.3-1.6-1.08-2.24-.6-.06.04-.11.03-.16-.03-.22-.3-.5-.36-.83-.19a.38.38 0 0 1-.37 0 .8.8 0 0 0-.4-.12c-.15 0-.22.07-.23.2l-.15 2.37c-.01.15.06.23.22.24l.28.02c.18 0 .27-.07.28-.24l.01-.36c.02-.48.03-1.03.2-1.42.04-.1.11-.15.22-.16.3-.02.6.03.86.16a.6.6 0 0 0 .63-.08.8.8 0 0 1 .76-.16c.35.1.1.48-.15.52-.3.05-.6.13-.86.25-.4.17-.56.47-.52.9.01.07.03.13.06.18.28.5.73.61 1.34.35.3-.13.49-.08.67-.04.15.04.29.07.47.03.09-.02.13-.08.1-.16a7.77 7.77 0 0 1-.19-1.66Zm-.65.74c.08.17-.07.42-.36.56-.28.14-.58.1-.67-.06-.09-.18.07-.43.35-.56.29-.14.59-.11.68.06ZM24.22 31.42a.43.43 0 0 0-.3-.15c-.22-.03-.3-.15-.27-.35.02-.15.16-.26.32-.2l1.06.33c.04.01.08.04.1.08.02.04.02.08.01.12-.1.32-.21.63-.35.93-.23.5-1.23.3-1.64.18-1.13-.34-1.42-1.47-.9-2.44.48-.9 1.24-1.14 2.28-.72.5.2.8.56.86 1.06.03.22-.22.37-.41.26-.37-.21-.34-.58-.7-.77-1.5-.83-2.59 2.37-.24 2.1.2-.03.3-.27.18-.43ZM26.23 31.44c-.17.41-.28.86-.33 1.36-.02.17-.12.25-.3.23l-.12-.01c-.2-.03-.3-.14-.26-.34l.37-1.93c.03-.13.1-.19.24-.17a.7.7 0 0 1 .37.16c.08.08.18.1.3.05a.71.71 0 0 1 .49-.04c.12.04.17.12.16.24a.32.32 0 0 1-.16.26c-.16.1-.4-.02-.6.05a.26.26 0 0 0-.16.14ZM31.38 33.2c-.91.33-1.44.27-1.5-.78l-.1-1.14c-.01-.2.07-.29.27-.3.17 0 .37.02.4.22l.14 1.4c.03.31.2.4.49.29l.1-.04c.2-.09.3-.24.29-.46l-.07-1.28c0-.14.06-.22.2-.23l.2-.03c.15-.03.23.04.25.18l.2 2.06c0 .1-.04.16-.14.18a.57.57 0 0 1-.39-.06.44.44 0 0 0-.34-.02ZM33.7 33.63l-.23-.69c-.04-.14 0-.18.15-.13 1.26.42 1.7-1.01 1.15-1.85-.44-.66-.98-.74-1.65-.26a.32.32 0 0 1-.27.04.65.65 0 0 0-.4 0c-.1.04-.14.1-.11.2l.68 2.81c.05.22.18.3.4.23.17-.05.34-.15.28-.35Zm.27-1.22c-.3.08-.64-.18-.75-.58-.12-.4.04-.8.35-.87.3-.08.64.18.75.58.11.4-.05.8-.35.87ZM29.52 32.15c0-.33-.13-.65-.38-.89a1.33 1.33 0 0 0-.92-.37c-.71 0-1.31.58-1.31 1.26 0 .33.14.65.38.9.25.23.58.36.93.36.7 0 1.3-.57 1.3-1.26Zm-1.37.74c-.34-.03-.59-.38-.55-.78.03-.4.33-.72.67-.69.34.03.6.38.56.78-.03.4-.34.72-.68.7Z" fill="#13110D"/></svg>