<!-- by TradingView --><svg width="56" height="56" viewBox="0 0 56 56" xmlns="http://www.w3.org/2000/svg"><path fill="#F0F3FA" d="M0 0h56v56H0z"/><path fill="#A8A8A8" d="M8 19h14v18H8z"/><path d="M20.16 25.17c-.02.33-1.34 1.1-2 1.45.4-.35.5-1-.71-.96-1.21.05-3.21.96-2.93 1.6.27.64 2.42.76 3.64 1.37 1.21.62.76.84.5 1.58-.25.73-3.56 1.84-4.42 1.79-.86-.05-3.14-.12-3.06-.74.06-.49.81-1.09 1.19-1.33-.03.1-.03.35.17.67.26.4 4.76-.1 4.91-1.13.15-1.03-4.07-1.23-4.48-1.7-.32-.37 0-1.23.2-1.62 1.4-2.45 5.04-2.32 6.68-1.94a2 2 0 0 1 .3.96Z" fill="#E30713"/><path d="M22.69 26.11c.16.46 1.55.6 2.22.62-.54-.1-.9-.6-1-.84 1.79-1.03 5.4-1.03 5.66-.74.25.3-2.23 2.71-3.09 4.05-.86 1.33-1.06 1.75-.68 2.48.38.74.73-.12 1.36-.61.64-.5-.07-.45.18-1.11.25-.67 2.99-4.17 3.06-4.8.08-.65-.83-1.78-1.09-1.86-.25-.07-2.8.03-3.9.47-1.08.45-2.93 1.78-2.72 2.34Z" fill="#010101"/><path d="M31.77 29.74c-1.58-.22-2.45 1.07-2.68 1.75.07.04.33.1.76-.08.52-.22 1.4-.55 4.12.14 2.18.56 2.13.43 1.82.3.4-.49 1.2-1.46 1.24-1.49.07-.03-1.08.14-2.02-.22a6.9 6.9 0 0 0-2.28-.31c.04-.08.4-.63 1.52-2.21 1.39-1.97 2.22-2.76 2.32-2.52.1.25-1.74 3.06-1.34 3.1.4.06 1.98-.95 1.52-1.12-.36-.14-.15-.46 0-.6 1.15-1.42 1.09-2.51.91-2.88-1.58-.55-4.59 3.86-5.9 6.14ZM39.46 29.74c-1.58-.22-2.45 1.07-2.68 1.75.07.04.33.1.76-.08.52-.22 1.4-.55 4.12.14 2.18.56 2.13.43 1.82.3.4-.49 1.2-1.46 1.24-1.49.07-.03-1.08.14-2.02-.22a6.9 6.9 0 0 0-2.28-.31c.04-.08.4-.63 1.52-2.21 1.39-1.97 2.22-2.76 2.32-2.52.1.25-1.74 3.06-1.34 3.1.4.06 1.98-.95 1.52-1.12-.36-.14-.15-.46 0-.6 1.15-1.42 1.09-2.51.91-2.88-1.58-.55-4.59 3.86-5.9 6.14Z"/><path fill-rule="evenodd" d="M21 20H9v16h12V20ZM8 19v18h14V19H8Z" fill="#010101"/><path fill-rule="evenodd" d="M47 20H22v16h25V20Zm-26-1v18h27V19H21Z" fill="#010101"/><path fill="#E30713" d="M11 33h10v1H11z"/><path d="M21.5 33H46v1H21.5z"/></svg>