<!-- by TradingView --><svg width="56" height="56" viewBox="0 0 56 56" xmlns="http://www.w3.org/2000/svg"><path fill="#F0F3FA" d="M0 0h56v56H0z"/><path d="M40 28.7c0 .85.23 1.3 1.2 1.3 2.03 0 4.03-.74 6.08-1.18.38-.08.6.08.67.47.19 1.1-.11 3-1.36 3.4-.38.12-.77.2-1.18.23-1.28.09-2.51.2-3.7.35a9.22 9.22 0 0 0-4.88 2.27c-3.18 2.59-6.78 3.75-10.85 4.45-.3.05-.48-.07-.55-.37l-.03-.1c-.07-.27.04-.44.32-.5.82-.15 1.6-.31 2.37-.5 4.06-.95 9.35-4.94 8.02-9.9-.92-3.42-6.62-2.5-9.04-2.2-1.44.18-2.1-.6-2.07-1.56.02-.57.3-1.2.8-1.72a6.27 6.27 0 0 1 3.64-1.88c1-.14 1.74.42 2.43 1.07.86.81 1.5.05 1.9-.7.54-1.04.7-2.26.45-3.24a.31.31 0 0 1 .3-.39c4.44 0 8.7-.17 13.07-1 .12-.02.22.1.17.22l-1.32 3a.84.84 0 0 1-.74.5c-1.2.02-6.7.28-6.7 1.88 0 2.9 6.68.9 7.93.63.89-.2 1.17.14.85 1l-.37 1a1.95 1.95 0 0 1-1.93 1.39c-1.42.02-5.49-.22-5.48 2.09ZM29.87 18.42c-2.13.5-4.23 1.46-5.97 2.55-.22.13-.42-.2-.45-.34-.18-.73-.33-1.71-.45-2.4-.02-.13.05-.2.2-.21 2.37 0 4.61-.07 6.55.07.2 0 .38.27.12.33ZM12.2 22.15A21.48 21.48 0 0 1 21.93 18c.25-.04.5.12.55.37l.52 2.7c.04.21-.04.43-.2.57a6.58 6.58 0 0 0-1.95 3 .52.52 0 0 1-.58.34 38.1 38.1 0 0 1-7.98-2.3c-.35-.14-.37-.32-.07-.54ZM11.38 23.23a37.2 37.2 0 0 0 8.65 2.72c.24.05.47.05.95.37l.12 1.02c.01.11.06.22.14.3l.36.38a.28.28 0 0 1-.21.47c-4.4-.12-9.39.45-13.12 1.01a.27.27 0 0 1-.27-.26 6.9 6.9 0 0 1 3.07-5.98.3.3 0 0 1 .3-.03ZM8.01 30.45c.23-1.04 14.7-1.58 16.35-1.42.26.02.47.24.49.51l.15 1.87a.47.47 0 0 1-.37.51c-3.95.75-7.5 2.65-10.65 5.7-.44.42-.99.51-1.51.17-2.22-1.42-4.67-4.43-4.46-7.34Z" fill="#053779"/><path d="m31.56 32-5.13-.1c-.24-.01-.43-.3-.43-.62l.03-1.7c0-.33.2-.6.45-.58l4.54.27c.15.01.3.14.37.33l.56 1.53c.15.4-.07.88-.39.87ZM29.7 35.18l-2.74.8a.59.59 0 0 1-.74-.5l-.22-2.4a.58.58 0 0 1 .58-.62l4.85.01c.52 0 .77.67.37 1l-1.88 1.6a.58.58 0 0 1-.22.11ZM20.93 38.71c.98.37 2.7.23 3.73.18.25 0 .36.11.34.36-.02.25-.01.6-.34.62-1.57.09-3.03.13-4.37.13-1.92 0-4.46-.36-6.17-1.39-.15-.09-.16-.19-.02-.3.78-.63 1.55-1.25 2.33-1.84A18.17 18.17 0 0 1 24.28 33c.26-.05.5.17.49.45-.05.85 0 1.65.15 2.4.2.95-2.64-1.1-2.75-1.2-.35-.31-.81-.22-1 .23a7.86 7.86 0 0 0-.57 3.36c0 .2.14.4.33.46ZM29 45.6c-.26-6.55 10.92-9.72 16.09-10.59.31-.05.61.08.91.16-.35.03-.7.1-1.04.2-4.02 1.35-11.26 3.98-12.47 8.2-.37 1.3-1.56 1.94-2.87 2.4a.44.44 0 0 1-.31 0c-.2-.09-.3-.2-.3-.37Z" fill="#053779"/></svg>