<!-- by TradingView --><svg width="56" height="56" viewBox="0 0 56 56" xmlns="http://www.w3.org/2000/svg"><path fill="#F0F3FA" d="M0 0h56v56H0z"/><path d="M13.76 20.77h-.09A5.6 5.6 0 0 0 8.05 27H9.2a4.46 4.46 0 0 1 3.98-5.09l.57-1.14Zm1.16 1.28-.11-1.17a5.57 5.57 0 0 1 4.5 6.12h-1.17a4.43 4.43 0 0 0-3.23-4.95Z" fill="#0095C2"/><path fill-rule="evenodd" d="m14.16 21-1.14 5.88c-.12.58.36 1.12.98 1.12.6 0 1.07-.5 1-1.07L14.15 21ZM14 27.4c.32 0 .58-.25.58-.54 0-.3-.26-.53-.58-.53-.32 0-.58.23-.58.53 0 .3.26.53.58.53Z"/><path d="M8.94 35H48l-.94 1H8l.94-1Z"/><path d="M31.89 20.76a453.94 453.94 0 0 0-2.89.38c.08.22.41.37.57.44h.01c.04-.1.46-.21.94-.34.52-.13 1.12-.29 1.37-.48Z" fill="url(#an4htejd4)"/><path d="M29.06 20.9c.2-.2.8-.36 1.34-.5.51-.14.98-.27.98-.4.19.1.56.31.62.51a476.14 476.14 0 0 0-2.94.4Z" fill="url(#bn4htejd4)"/><path d="M31.89 22.04a454.17 454.17 0 0 0-2.89.39c.08.2.41.36.57.43h.01c.04-.1.46-.2.94-.33.52-.14 1.12-.3 1.37-.5Z" fill="url(#cn4htejd4)"/><path d="M29.06 22.19c.2-.2.8-.36 1.34-.5.51-.15.98-.27.98-.4.19.09.56.3.62.5a476.14 476.14 0 0 0-2.94.4Z" fill="url(#dn4htejd4)"/><path d="M31.89 23.32a453.94 453.94 0 0 0-2.89.39c.08.21.41.36.57.43l.01.01c.04-.1.46-.22.94-.34.52-.14 1.12-.3 1.37-.49Z" fill="url(#en4htejd4)"/><path d="M29.06 23.47c.2-.2.8-.36 1.34-.5.51-.15.98-.27.98-.4.19.09.56.31.62.5a476.14 476.14 0 0 0-2.94.4Z" fill="url(#fn4htejd4)"/><path d="M31.89 24.6A432.43 432.43 0 0 0 29 25c.08.2.41.36.57.43h.01c.04-.1.46-.21.94-.34.52-.13 1.12-.29 1.37-.49Z" fill="url(#gn4htejd4)"/><path d="M29.06 24.76c.2-.2.8-.37 1.34-.51.51-.14.98-.27.98-.4.19.1.56.31.62.51a476.14 476.14 0 0 0-2.94.4Z" fill="url(#hn4htejd4)"/><path d="M31.89 25.89a454.17 454.17 0 0 0-2.89.39c.08.2.41.36.57.43h.01c.04-.1.46-.21.94-.33.52-.14 1.12-.3 1.37-.5Z" fill="url(#in4htejd4)"/><path d="M29.06 26.04c.2-.2.8-.36 1.34-.5.51-.15.98-.28.98-.4.19.08.56.3.62.5a476.14 476.14 0 0 0-2.94.4Z" fill="url(#jn4htejd4)"/><path d="M31.89 27.17a453.94 453.94 0 0 0-2.89.39c.08.21.41.36.57.43l.01.01c.04-.1.46-.22.94-.34.52-.14 1.12-.3 1.37-.49Z" fill="url(#kn4htejd4)"/><path d="M29.06 27.32c.2-.2.8-.36 1.34-.5.51-.15.98-.27.98-.4.19.09.56.3.62.5a476.14 476.14 0 0 0-2.94.4Z" fill="url(#ln4htejd4)"/><path d="M41 28v-7h7v1.56h-4.54v1.21h4.31v1.35h-4.3v1.32H48V28h-7ZM33 28v-1.64l4.1-3.73h-3.84V21H40v1.67l-4 3.7h4V28h-7ZM20 25.8h2.46v.07c0 .25.09.42.27.52.19.1.51.15.98.15h.64c.39 0 .66-.04.81-.11.16-.08.24-.21.24-.4v-.3c0-.16-.06-.28-.18-.35a2.5 2.5 0 0 0-.84-.16l-2.08-.16a3.15 3.15 0 0 1-1.7-.52c-.36-.29-.54-.71-.54-1.28v-.42a1.65 1.65 0 0 1 .83-1.46c.23-.14.51-.24.84-.3a9.2 9.2 0 0 1 1.48-.08h1.53c.95 0 1.68.14 2.19.41.5.28.76.68.76 1.2v.46h-2.46V23c0-.2-.07-.35-.2-.43a1.54 1.54 0 0 0-.73-.11h-.6c-.4 0-.68.03-.83.1a.36.36 0 0 0-.23.35v.29c0 .25.35.4 1.04.46l1.89.15c.82.07 1.42.24 1.83.51.4.28.6.66.6 1.16v.65c0 .57-.25 1.02-.74 1.36-.49.34-1.15.51-1.98.51h-2.09a5.38 5.38 0 0 1-2.43-.41c-.5-.28-.76-.72-.76-1.32v-.47Z"/><path d="M38.66 31.41h.93c.41 0 .72-.09.72-.55v-.19c0-.45-.31-.67-.72-.67h-.93v1.41ZM37 34v-5h2.5c.96 0 1.61.1 1.97.3.35.2.53.56.53 1.07v.4c0 .34-.1.6-.3.8-.2.19-.5.3-.9.34.42.06.72.17.91.34.2.17.29.4.29.72V34h-1.7v-.9c0-.21-.05-.36-.15-.44-.1-.08-.3-.12-.57-.12h-.92V34H37ZM32 34v-5h4v1h-2.6v1h2.47v1h-2.46v1H36v1h-4ZM28.31 34v-4H27v-1h4v1h-1.3v4H28.3ZM21 32.43h1.54v.05c0 .35.2.52.78.52h.4c.5 0 .66-.14.66-.41v-.21c0-.12-.04-.2-.12-.25a1.4 1.4 0 0 0-.53-.12l-1.3-.11c-.48-.05-.83-.17-1.06-.37-.22-.2-.33-.51-.33-.91v-.3c0-1.14 1.05-1.32 1.96-1.32h.96c1.2 0 1.84.4 1.84 1.15v.33h-1.53v-.05c0-.29-.14-.43-.58-.43h-.37c-.5 0-.67.12-.67.37v.2c0 .18.22.29.65.33l1.18.1c.51.05.9.18 1.14.37.25.2.38.47.38.83v.47c0 .4-.15.72-.46.97-.3.24-.72.36-1.24.36H23a3 3 0 0 1-1.53-.3c-.31-.2-.47-.5-.47-.93v-.34ZM43 32.43h1.54v.05c0 .35.2.52.78.52h.4c.5 0 .66-.14.66-.41v-.21c0-.12-.04-.2-.12-.25a1.4 1.4 0 0 0-.53-.12l-1.3-.11c-.48-.05-.83-.17-1.06-.37-.22-.2-.33-.51-.33-.91v-.3c0-1.14 1.05-1.32 1.96-1.32h.96c1.2 0 1.84.4 1.84 1.15v.33h-1.53v-.05c0-.29-.14-.43-.58-.43h-.37c-.5 0-.67.12-.67.37v.2c0 .18.22.29.65.33l1.18.1c.51.05.9.18 1.14.37.25.2.38.47.38.83v.47c0 .4-.15.72-.46.97-.3.24-.72.36-1.24.36H45a3 3 0 0 1-1.53-.3c-.31-.2-.47-.5-.47-.93v-.34ZM17.95 32h1.12l-.51-2h-.1l-.51 2ZM16 34l1.47-5h2.1L21 34h-1.47l-.23-1h-1.6l-.23 1H16ZM12.7 29H15v5h-1.53v-3.67L12.29 34h-1.57l-1.19-3.71V34H8v-5h2.3l1.2 3.62L12.7 29Z" fill="#0095C2"/><defs><linearGradient id="an4htejd4" x1="30.5" y1="20" x2="30.5" y2="21.58" gradientUnits="userSpaceOnUse"><stop stop-color="#0299CA"/><stop offset="1" stop-color="#454D53"/></linearGradient><linearGradient id="bn4htejd4" x1="30.5" y1="20" x2="30.5" y2="21.58" gradientUnits="userSpaceOnUse"><stop stop-color="#0299CA"/><stop offset="1" stop-color="#454D53"/></linearGradient><linearGradient id="cn4htejd4" x1="30.5" y1="21.28" x2="30.5" y2="22.87" gradientUnits="userSpaceOnUse"><stop stop-color="#0299CA"/><stop offset="1" stop-color="#454D53"/></linearGradient><linearGradient id="dn4htejd4" x1="30.5" y1="21.28" x2="30.5" y2="22.87" gradientUnits="userSpaceOnUse"><stop stop-color="#0299CA"/><stop offset="1" stop-color="#454D53"/></linearGradient><linearGradient id="en4htejd4" x1="30.5" y1="22.57" x2="30.5" y2="24.15" gradientUnits="userSpaceOnUse"><stop stop-color="#0299CA"/><stop offset="1" stop-color="#454D53"/></linearGradient><linearGradient id="fn4htejd4" x1="30.5" y1="22.57" x2="30.5" y2="24.15" gradientUnits="userSpaceOnUse"><stop stop-color="#0299CA"/><stop offset="1" stop-color="#454D53"/></linearGradient><linearGradient id="gn4htejd4" x1="30.5" y1="23.85" x2="30.5" y2="25.43" gradientUnits="userSpaceOnUse"><stop stop-color="#0299CA"/><stop offset="1" stop-color="#454D53"/></linearGradient><linearGradient id="hn4htejd4" x1="30.5" y1="23.85" x2="30.5" y2="25.43" gradientUnits="userSpaceOnUse"><stop stop-color="#0299CA"/><stop offset="1" stop-color="#454D53"/></linearGradient><linearGradient id="in4htejd4" x1="30.5" y1="25.13" x2="30.5" y2="26.72" gradientUnits="userSpaceOnUse"><stop stop-color="#0299CA"/><stop offset="1" stop-color="#454D53"/></linearGradient><linearGradient id="jn4htejd4" x1="30.5" y1="25.13" x2="30.5" y2="26.72" gradientUnits="userSpaceOnUse"><stop stop-color="#0299CA"/><stop offset="1" stop-color="#454D53"/></linearGradient><linearGradient id="kn4htejd4" x1="30.5" y1="26.42" x2="30.5" y2="28" gradientUnits="userSpaceOnUse"><stop stop-color="#0299CA"/><stop offset="1" stop-color="#454D53"/></linearGradient><linearGradient id="ln4htejd4" x1="30.5" y1="26.42" x2="30.5" y2="28" gradientUnits="userSpaceOnUse"><stop stop-color="#0299CA"/><stop offset="1" stop-color="#454D53"/></linearGradient></defs></svg>