<!-- by TradingView --><svg width="56" height="56" viewBox="0 0 56 56" xmlns="http://www.w3.org/2000/svg"><path fill="#F0F3FA" d="M0 0h56v56H0z"/><path fill="#095B7E" d="M13 13h30v30H13z"/><path fill-rule="evenodd" d="M33 26h-1v10h1v-4h4.58c1.1 0 1.42-.8 1.42-1.78v-2.44c0-.98-.32-1.78-1.42-1.78H33Zm0 5h4.18c.45 0 .82-.41.82-.93v-2.14c0-.52-.37-.93-.82-.93H33v4Z" fill="#fff"/><path d="M24 27.92v1.4h-1v-1.63c0-.38-.33-.69-.74-.69h-3.52c-.4 0-.74.3-.74.7v2.12c0 .38.34.7.75.7l3.24-.02c1.12 0 2.01.65 2.01 1.7v1.88c0 1.06-.92 1.92-2.06 1.92h-2.88c-1.14 0-2.06-.86-2.06-1.92v-1.46h1v1.69c0 .38.33.69.74.69h3.52c.4 0 .74-.3.74-.7v-2.1c0-.4-.33-.7-.74-.7h-3.2c-1.14 0-2.06-.86-2.06-1.92v-1.66c0-1.06.92-1.92 2.06-1.92h2.88c1.14 0 2.06.86 2.06 1.92ZM25 26h1v4.57L30.5 26H32l-4.92 5L32 36h-1.5L26 31.43V36h-1V26Z" fill="#fff"/></svg>