<!-- by TradingView --><svg width="56" height="56" viewBox="0 0 56 56" xmlns="http://www.w3.org/2000/svg"><path fill="#F0F3FA" d="M0 0h56v56H0z"/><path d="M25.3 20h4.36l-3.3 1.98L25.3 20Z" fill="url(#aifdwysz2)"/><path d="M20 26.56 25.3 20l1.06 1.98-4.97 6.03 4.94 6.02-1.02 1.86L20 29.36v-2.8Z" fill="url(#bifdwysz2)"/><path d="M26.48 22.17 30 20.12l-6.41 7.89 6.34 7.68-3.45-1.85-4.76-5.83 4.76-5.84Z" fill="url(#cifdwysz2)"/><path d="m25.3 35.9 1.03-1.87 3.43 1.86h-4.45Z" fill="url(#difdwysz2)"/><path d="M35.42 22 32 20.1 37.69 27l-.22-2.45L35.42 22Z" fill="url(#eifdwysz2)"/><path d="M36.46 20H32.3l3.26 1.84.9-1.84Z" fill="url(#fifdwysz2)"/><path d="M40 24.36 36.46 20l-.9 1.84 2.14 2.63 2.3-.11Z" fill="url(#gifdwysz2)"/><path d="m40 24.36-2.3.11.21 2.5L40 24.35Z" fill="url(#hifdwysz2)"/><path d="M46.46 22.01 45.44 20h4.4l-3.38 2.01Z" fill="url(#iifdwysz2)"/><path d="m37.05 34.04.48 1.96H33l4.05-1.96Z" fill="url(#jifdwysz2)"/><path d="M45.44 20 33 36l4.05-1.96 9.41-12.03L45.44 20Z" fill="url(#kifdwysz2)"/><path d="m37.35 34.06.4 1.82L50 20.2l-3.4 2.03-9.25 11.83Z" fill="url(#lifdwysz2)"/><path d="M17.67 21.44 19 20v2.85l-1.33-1.4Z" fill="url(#mifdwysz2)"/><path d="M9.63 34.3 8 32.65v3.28l1.63-1.63Z" fill="url(#nifdwysz2)"/><path d="m17.33 21.71 1.31 1.3-4.4.05c-.8 0-1.73.44-1.73 1 0 .43.26.79.4.9 1.62 1.39 4.93 4.22 5.16 4.46.28.31.93 1.25.93 2.37 0 3.01-2.86 4.06-4.3 4.21H8.26l1.48-1.47 4.18-.12c2.41-.08 3.09-1.77 3.09-2.62 0-.68-.57-1.43-.85-1.72l-4.6-4.37c-.32-.3-.84-.77-.84-1.73 0-1.66 1.54-2.2 2.32-2.26h4.3Z" fill="url(#oifdwysz2)"/><path d="M12.17 20H19l-1.33 1.44h-4.4c-1.55 0-2.79 1.13-2.79 2.38 0 1 .49 1.7.73 1.93.91.88 2.98 2.85 3.94 3.73 1.2 1.1 1.6 1.66 1.6 2.32 0 1.7-1.65 2.28-2.47 2.35l-4.65.15L8 32.65h4.9c1 0 1.5-.34 1.5-.85 0-.41-.3-.85-.45-1.03l-3.6-3.18c-.67-.58-2.11-1.54-2.11-3.77 0-2.6 2.62-3.63 3.93-3.82Z" fill="url(#pifdwysz2)"/><defs><linearGradient id="aifdwysz2" x1="25.31" y1="19.99" x2="29.68" y2="19.99" gradientUnits="userSpaceOnUse"><stop stop-color="#707B80"/><stop offset="1" stop-color="#A4A8AA"/></linearGradient><linearGradient id="bifdwysz2" x1="20" y1="19.89" x2="26.38" y2="19.89" gradientUnits="userSpaceOnUse"><stop stop-color="#707B80"/><stop offset="1" stop-color="#A4A8AA"/></linearGradient><linearGradient id="cifdwysz2" x1="29.61" y1="20.12" x2="29.61" y2="35.68" gradientUnits="userSpaceOnUse"><stop offset=".1" stop-color="#707B80"/><stop offset=".48" stop-color="#CFD0D2"/><stop offset=".95" stop-color="#707B80"/></linearGradient><linearGradient id="difdwysz2" x1="25.31" y1="34.02" x2="29.78" y2="34.02" gradientUnits="userSpaceOnUse"><stop stop-color="#707B80"/><stop offset="1" stop-color="#A4A8AA"/></linearGradient><linearGradient id="eifdwysz2" x1="34.84" y1="20.09" x2="34.84" y2="27" gradientUnits="userSpaceOnUse"><stop stop-color="#707B80"/><stop offset="1" stop-color="#B9BBBC"/></linearGradient><linearGradient id="fifdwysz2" x1="32.3" y1="19.99" x2="36.48" y2="19.99" gradientUnits="userSpaceOnUse"><stop stop-color="#A4A8AA"/><stop offset="1" stop-color="#707B80"/></linearGradient><linearGradient id="gifdwysz2" x1="40" y1="24.46" x2="35.56" y2="24.46" gradientUnits="userSpaceOnUse"><stop stop-color="#8A9295"/><stop offset="1" stop-color="#BFC0C1"/></linearGradient><linearGradient id="hifdwysz2" x1="37.98" y1="26.96" x2="39.89" y2="24.26" gradientUnits="userSpaceOnUse"><stop stop-color="#707B80"/><stop offset="1" stop-color="#A4A8AA"/></linearGradient><linearGradient id="iifdwysz2" x1="45.44" y1="20.03" x2="49.86" y2="20.03" gradientUnits="userSpaceOnUse"><stop stop-color="#707B80"/><stop offset="1" stop-color="#A4A8AA"/></linearGradient><linearGradient id="jifdwysz2" x1="37.53" y1="36.01" x2="32.99" y2="36.01" gradientUnits="userSpaceOnUse"><stop stop-color="#707B80"/><stop offset="1" stop-color="#A4A8AA"/></linearGradient><linearGradient id="kifdwysz2" x1="46.46" y1="21.79" x2="33" y2="21.79" gradientUnits="userSpaceOnUse"><stop offset=".07" stop-color="#C9CACB"/><stop offset=".93" stop-color="#707B80"/></linearGradient><linearGradient id="lifdwysz2" x1="38.4" y1="35.88" x2="38.4" y2="20.2" gradientUnits="userSpaceOnUse"><stop offset=".07" stop-color="#C9CACB"/><stop offset=".85" stop-color="#707B80"/></linearGradient><linearGradient id="mifdwysz2" x1="18.81" y1="21.42" x2="17.48" y2="21.42" gradientUnits="userSpaceOnUse"><stop stop-color="#717C80"/><stop offset="1" stop-color="#BBBDBE"/></linearGradient><linearGradient id="nifdwysz2" x1="9.64" y1="34.28" x2="8.02" y2="34.28" gradientUnits="userSpaceOnUse"><stop stop-color="#BBBDBE"/><stop offset="1" stop-color="#717C80"/></linearGradient><linearGradient id="oifdwysz2" x1="19" y1="32.44" x2="8.25" y2="32.44" gradientUnits="userSpaceOnUse"><stop stop-color="#CBCCCD"/><stop offset="1" stop-color="#707B80"/></linearGradient><linearGradient id="pifdwysz2" x1="18.91" y1="27.12" x2="8.11" y2="27.12" gradientUnits="userSpaceOnUse"><stop stop-color="#707B80"/><stop offset="1" stop-color="#CECFD0"/></linearGradient></defs></svg>