<!-- by TradingView --><svg width="56" height="56" viewBox="0 0 56 56" xmlns="http://www.w3.org/2000/svg"><path fill="#F0F3FA" d="M0 0h56v56H0z"/><path d="M25.7 26.5c8.86 0 16.87-5.56 20-8.5H13.64A5.75 5.75 0 0 0 8 23.84v9.6c2.4-3.1 7.75-6.94 17.7-6.94Zm21.11-7.34.65-1.16H48v14.16A5.75 5.75 0 0 1 42.35 38H20.27c1.19-2.09 7.08-5.28 9.73-6-10.26.03-15.34 3.83-16.56 6h-1c.7-2.01 4.8-6.3 15.83-7 12.5-.78 16.15-7.47 18.54-11.83Z" fill="url(#a1l1cmtd1)"/><defs><linearGradient id="a1l1cmtd1" x1="47.34" y1="20.1" x2="7.71" y2="33.59" gradientUnits="userSpaceOnUse"><stop stop-color="#21B2E5"/><stop offset="1" stop-color="#234983"/></linearGradient></defs></svg>