<!-- by TradingView --><svg width="56" height="56" viewBox="0 0 56 56" xmlns="http://www.w3.org/2000/svg"><path fill="#F0F3FA" d="M0 0h56v56H0z"/><path fill-rule="evenodd" d="M42 21h-1.6L36 36h-1.2c-.74 2.83-3.92 9-11.57 9C15.46 45 14 38.5 14 35h1.25L20 19h1.25c.66-2.75 3.74-8 11.5-8C40.54 11 42 17.5 42 21ZM17 34h5.59l1.45-3.17 2.11 2.87 4.31-2.87-.92 3.17h5.68L39 21h-6.03l-5.01 3.43L25.7 21h-4.84L17 34Zm1.33 2c.44.6 1.24 1 2.17 1 .93 0 1.73-.4 2.17-1h-4.34ZM35.5 18c1.09 0 2.03.4 2.5 1h-5c.47-.6 1.41-1 2.5-1Z" fill="#FF001B"/><path d="M34.51 26.84a.4.4 0 0 0-.15-.29.53.53 0 0 0-.34-.1c-.1 0-.18.01-.25.05a.35.35 0 0 0-.22.33c0 .06 0 .11.03.16.03.04.06.08.1.1l.15.09.16.05.24.07c.1.02.2.06.29.1.09.04.17.1.24.17a.72.72 0 0 1 .24.57.8.8 0 0 1-.46.75c-.14.07-.32.11-.53.11-.2 0-.38-.04-.53-.1a.8.8 0 0 1-.35-.31.99.99 0 0 1-.13-.5h.46c.01.1.04.2.09.26.05.07.11.12.19.15s.17.05.27.05.19-.02.27-.05a.44.44 0 0 0 .18-.15.38.38 0 0 0 .07-.22.3.3 0 0 0-.06-.19.44.44 0 0 0-.17-.12 1.48 1.48 0 0 0-.24-.1l-.3-.08a1.15 1.15 0 0 1-.5-.28.69.69 0 0 1-.2-.5.81.81 0 0 1 .47-.75c.15-.07.31-.11.5-.11.18 0 .34.04.48.1a.82.82 0 0 1 .45.74h-.45ZM30 29v-3h2v.46h-1.44v.81h1.3v.46h-1.3V29H30ZM29.53 26v3H29v-3h.53ZM25 26h.63l.85 2.17h.04l.85-2.17H28v3h-.5v-2.06h-.02l-.8 2.05h-.37l-.79-2.06h-.02V29H25v-3ZM23.51 26.84a.4.4 0 0 0-.15-.29.53.53 0 0 0-.34-.1c-.1 0-.18.01-.25.05a.36.36 0 0 0-.18.49c.02.04.05.08.1.1.04.04.09.07.14.09l.16.05.24.07c.1.02.2.06.29.1.09.04.17.1.24.17a.72.72 0 0 1 .24.57.8.8 0 0 1-.46.75c-.14.07-.32.11-.53.11-.2 0-.38-.04-.53-.1a.8.8 0 0 1-.35-.31.99.99 0 0 1-.13-.5h.46c.01.1.04.2.09.26.05.07.11.12.2.15.07.03.16.05.26.05s.2-.02.27-.05a.44.44 0 0 0 .18-.15.38.38 0 0 0 .07-.22.3.3 0 0 0-.06-.19.44.44 0 0 0-.17-.12 1.48 1.48 0 0 0-.24-.1l-.3-.08a1.15 1.15 0 0 1-.5-.28.69.69 0 0 1-.2-.5.81.81 0 0 1 .48-.75c.14-.07.3-.11.49-.11.18 0 .34.04.48.1a.82.82 0 0 1 .46.74h-.46Z" fill="#FF001B"/></svg>