<!-- by TradingView --><svg width="56" height="56" viewBox="0 0 56 56" xmlns="http://www.w3.org/2000/svg"><path fill="#F0F3FA" d="M0 0h56v56H0z"/><path d="M32.23 12.12a8.53 8.53 0 0 0-8.46 0l-7.55 4.32A8.35 8.35 0 0 0 12 23.68V29h5.69c10.4 0 10.92-3.66 10.92-7.36 0-2.75 4.14-6.14 6.64-7.8l-3.02-1.72Z" fill="#FF8725"/><path d="M38.36 15.62c-4.3 1.64-8.84 4.99-8.84 10.5 0 4.85-7.89 5.9-11.83 5.88H12v.32c0 .67.08 1.32.23 1.95h7.11c10.4 0 10.93-3.38 10.93-7.4 0-3.76 6.76-7.95 10.36-9.87-.27-.2-.56-.4-.85-.56l-1.42-.82Z" fill="#FF8725"/><path d="M42.85 19.47C38.21 20.99 31 25.42 31 31.35c0 4.85-7.71 6-11.66 5.98h-5.66a8.4 8.4 0 0 0 2.3 2.09h4.89c10.4 0 11.13-3.4 11.13-7.4s6.81-8.49 11.73-10.43c-.2-.75-.49-1.46-.88-2.12Z" fill="#FF8725"/><path d="M44 25.09c-8.6 3.79-11 5.48-11 11.4 0 4.68-7.61 5.92-11.7 5.98l2.47 1.4a8.53 8.53 0 0 0 8.46 0l7.55-4.3A8.35 8.35 0 0 0 44 32.31V25.1Z" fill="#FF8725"/></svg>