<!-- by TradingView --><svg width="56" height="56" viewBox="0 0 56 56" xmlns="http://www.w3.org/2000/svg"><path fill="url(#ak0nz5blr)" d="M0 0h56v56H0z"/><path fill="#fff" d="M13 12h30v32H13z"/><path d="M27.95 14c6.53 0 8.04 3.9 7.97 6h-3.38c-.29-3.21-3.38-3.32-4.59-3.32-1.2 0-4.44.8-4.44 2.69 0 1.51 3.6 2.8 5.49 3.26L23.9 25c-2.76-1.26-3.82-4.16-3.82-4.68 0-.53-.29-6.32 7.87-6.32Z" fill="#242021"/><path d="M28.05 42c-7.18 0-8.83-4.6-8.76-6.89H23c.32 3.5 3.72 3.89 5.04 3.89 1.33 0 4.9-.79 4.9-2.86 0-1.65-4.15-3.06-6.22-3.56L32.52 30c3.03 1.38 4.2 4.54 4.2 5.11 0 .57.31 6.89-8.67 6.89Z" fill="#A9AAAF"/><path fill-rule="evenodd" d="M28 33.66c4.42 0 8-2.68 8-6 0-3.31-3.58-6-8-6s-8 2.69-8 6c0 3.32 3.58 6 8 6Zm0-2.79c2.36 0 4.28-1.44 4.28-3.2 0-1.78-1.92-3.22-4.28-3.22-2.36 0-4.28 1.44-4.28 3.21s1.92 3.21 4.28 3.21Z" fill="#A2A3A7"/><path d="M35.99 28c-.24 3.16-3.72 5.66-7.99 5.66s-7.75-2.5-7.99-5.66h3.74c.22 1.61 2.04 2.87 4.25 2.87s4.03-1.26 4.25-2.87H36Z" fill="#242021"/><defs><linearGradient id="ak0nz5blr" x1="10.42" y1="9.71" x2="68.15" y2="76.02" gradientUnits="userSpaceOnUse"><stop stop-color="#1A1E21"/><stop offset="1" stop-color="#06060A"/></linearGradient></defs></svg>