<!-- by TradingView --><svg width="56" height="56" viewBox="0 0 56 56" xmlns="http://www.w3.org/2000/svg"><path fill="#F0F3FA" d="M0 0h56v56H0z"/><path d="M49.83 20h-1.16c-.1 0-.17.08-.17.18v11.64c0 .1.08.18.17.18h1.16c.1 0 .17-.08.17-.18V20.18c0-.1-.08-.18-.17-.18ZM9.2 27.96c-.54-.14-1.09-.3-1.62-.48a2.1 2.1 0 0 1-1.29-2.8 2.4 2.4 0 0 1 1.58-1.45c.49-.14 1-.22 1.51-.23.55 0 1.05.06 1.51.21.5.17.91.42 1.23.75.34.37.56.83.65 1.37.03.17-.05.26-.23.25h-.85a.33.33 0 0 1-.23-.08.32.32 0 0 1-.11-.21c-.09-.54-.48-.88-1.18-1.04a3.5 3.5 0 0 0-1.71.05c-.74.23-1.02.7-.86 1.42.02.08.07.15.14.2.34.29.77.48 1.28.58 1.2.23 2.13.49 2.8.78.85.36 1.24 1.05 1.17 2.08-.09 1.35-.87 2.18-2.34 2.5a5.8 5.8 0 0 1-1.59.13 4.2 4.2 0 0 1-1.48-.34c-.47-.21-.84-.5-1.11-.89-.3-.42-.45-.93-.47-1.52 0-.18.08-.26.27-.22.24.06.5.07.77.04.18-.03.28.05.3.23.04.64.41 1.07 1.12 1.31 1 .34 1.88.26 2.65-.24.49-.31.64-.77.48-1.37a.83.83 0 0 0-.33-.41c-.16-.13-.32-.2-.48-.25l-1.57-.37ZM44.8 30.76a.13.13 0 0 0-.1-.07c-.04 0-.08 0-.11.04A3.98 3.98 0 0 1 41.56 32a2.74 2.74 0 0 1-1.77-.61c-.47-.4-.73-.96-.78-1.67-.05-.66.1-1.23.42-1.71.84-1.28 3-1.2 4.31-1.33.8-.08 1.1-.54.93-1.4-.16-.73-.85-1.08-2.09-1.06-.5.01-.92.13-1.28.35-.44.26-.64.85-.59 1.3 0 .1-.04.13-.13.13h-1.12c-.08 0-.12-.02-.11-.1.14-1.37.9-2.43 2.27-2.75a4.8 4.8 0 0 1 3.47.4c.8.43.92 1.47.91 2.3-.02 1.45 0 2.88 0 4.32 0 .45.28.77.74.72.18-.01.27.07.26.25l-.03.62c0 .06-.03.1-.07.15a.22.22 0 0 1-.14.07c-.25.03-.47.02-.65.02-.45 0-.87-.14-1.14-.52a.34.34 0 0 1-.06-.22c0-.14-.03-.39-.1-.5Zm-4.4-1.58c-.07.58.06 1 .42 1.28.4.32.93.43 1.58.35a3.32 3.32 0 0 0 1.53-.59c.35-.24.57-.59.68-1.04a5.68 5.68 0 0 0 .08-1.59c0-.1-.05-.14-.15-.11-.94.28-1.9.47-2.87.57-.74.08-1.16.45-1.26 1.13ZM30.8 24.22a3.36 3.36 0 0 1 2.34-1.19 4.69 4.69 0 0 1 2.63.47c.42.21.74.55.95 1.02.2.4.28.86.28 1.35-.02 2.05-.02 4.02-.01 5.93 0 .12-.07.19-.22.2h-1.12a.27.27 0 0 1-.18-.07.22.22 0 0 1-.08-.16v-5.9c0-.54-.2-.95-.59-1.24-.38-.28-.87-.4-1.49-.37-1.84.09-2.78 1.02-2.8 2.8a204.9 204.9 0 0 0-.02 4.73c0 .05-.03.1-.07.14a.22.22 0 0 1-.15.05l-1.07-.01c-.13 0-.2-.06-.2-.18v-8.55c0-.14.08-.24.24-.24h.99c.14 0 .2.1.2.22v.89c-.01.39.11.43.37.11Z" fill="#1D1916"/><path d="M17.7 26.37c-.72-.17-1.18-.65-1.4-1.44 0-.07-.05-.1-.12-.07l-.13.05c-.02 0-.03.03-.03.05.16.65.45 1.17.88 1.58.3.28.72.49 1.23.63.44.12.9.17 1.39.18a6.95 6.95 0 0 0 3.21-.83 4.45 4.45 0 0 0 2.25-2.46c.3-.9.11-1.63-.58-2.2a3.37 3.37 0 0 0-1.07-.6 6.31 6.31 0 0 0-4.49.32 4.06 4.06 0 0 0-2.16 2.35.74.74 0 0 0 .01.55c.2.47.51.8.95 1 .39.17.84.23 1.37.17a4.76 4.76 0 0 0 2.57-1.15c.24-.22.43-.45.55-.69.16-.31.18-.59.06-.82a.86.86 0 0 0-.94-.5c-.1.02-.11.06-.02.12l.28.2c.1.07.15.16.17.27a.38.38 0 0 1-.08.3 4.04 4.04 0 0 1-3.12 1.59c-.63.03-1.06-.17-1.27-.6a.4.4 0 0 1-.03-.25 2 2 0 0 1 .57-1.1 4.85 4.85 0 0 1 4.53-1.43c.63.12 1.07.45 1.3 1.01.18.44.16.92-.07 1.43-.2.43-.5.83-.92 1.19a5.24 5.24 0 0 1-4.89 1.15Zm-2 .65a1.78 1.78 0 0 1-.04-1c.04-.18.09-.18.13 0a4.02 4.02 0 0 0 2.72 3.06c2.34.8 4.55.42 6.64-1.13a4.05 4.05 0 0 0 1.66-2.83 2.79 2.79 0 0 0-.43-1.76c-.06-.1-.1-.09-.13.02-.02.13-.03.32-.02.57 0 .3 0 .52-.05.67a4.14 4.14 0 0 1-1 1.74c-.45.47-1 .87-1.66 1.2a8.06 8.06 0 0 1-3.94.86c-1.9-.08-3.14-1-3.69-2.78a.55.55 0 0 1-.01-.28l.05-.26c.02-.1-.02-.15-.12-.13a.41.41 0 0 0-.32.26c-.7 1.71-.65 3.4.17 5.05a6.25 6.25 0 0 0 5.4 3.7c1 .08 2-.06 2.98-.43a4.88 4.88 0 0 0 2.4-1.76c.13-.2.1-.22-.09-.09-.8.56-1.66.96-2.58 1.18a7.12 7.12 0 0 1-5.24-.74 7.09 7.09 0 0 1-2.1-1.9 5.02 5.02 0 0 1-.65-1.17c-.22-.55-.27-.97-.17-1.27.02-.03.04-.04.07-.04.04 0 .06.01.07.05.27.88.75 1.65 1.47 2.3.69.64 1.5 1.08 2.43 1.33a7.3 7.3 0 0 0 6.13-.87c.8-.53 1.4-1.15 1.77-1.86.4-.78.54-1.61.4-2.51-.06-.32-.12-.32-.18 0-.15.83-.5 1.57-1.04 2.21-.5.6-1.12 1.08-1.9 1.47a8.32 8.32 0 0 1-4.83.72 5.07 5.07 0 0 1-4.3-3.58Z" fill="#CA271E"/></svg>