<!-- by TradingView --><svg width="56" height="56" viewBox="0 0 56 56" xmlns="http://www.w3.org/2000/svg"><path fill="#F0F3FA" d="M0 0h56v56H0z"/><path fill-rule="evenodd" d="M5.86 26.21v.6c-.12-.1-.43-.28-.71-.28-.27 0-.43.1-.52.29-.11.22 0 .58.13.63.3.11 1.24.58 1.24 1.4C6 29.7 5.64 30 4.93 30c-.57 0-.86-.16-.93-.24v-.74c.2.42 1.53.7 1.53 0 0-.32-.32-.54-.67-.77-.41-.28-.86-.58-.86-1.11 0-.99.75-1.14 1.1-1.14.28 0 .64.14.76.21ZM22.5 30h-2v-4h2v.5H21v1.23h1.28v.58H21v1.19h1.5v.5ZM10 28c0 1.1-.78 2-1.75 2s-1.75-.9-1.75-2 .78-2 1.75-2 1.75.9 1.75 2Zm-.5.02c0 .83-.56 1.51-1.25 1.51S7 28.85 7 28.02c0-.84.56-1.52 1.25-1.52s1.25.68 1.25 1.52Zm1 .46V26h.5v2.58c0 .47.5.92 1 .92s1-.45 1-.92V26h.5v2.48c0 .84-.63 1.52-1.5 1.52s-1.5-.68-1.5-1.52Zm3.5 1.5V26h1.43c.6 0 1.07.53 1.07 1.18 0 .55-.33 1.1-.79 1.27.44.4.8 1.15.96 1.55h-.63a6.12 6.12 0 0 0-.92-1.5h-.52v1.48H14Zm1.32-3.48h-.82V28h.82c.43 0 .68-.34.68-.75s-.25-.75-.68-.75Zm4.18-.45A2.02 2.02 0 0 0 17 28a2.02 2.02 0 0 0 2.5 1.95v-.54a1.5 1.5 0 1 1 0-2.82v-.54ZM25 26h-.5v4h.5v-4Zm8.5 2.48V26h.5v2.49c0 .47.53 1.01 1 1.01s1-.54 1-1.01V26h.5v2.48A1.5 1.5 0 0 1 35 30a1.5 1.5 0 0 1-1.5-1.52Zm5.36-2.27v.6c-.12-.1-.43-.28-.71-.28-.27 0-.43.1-.52.29-.11.22 0 .58.13.63.3.11 1.24.58 1.24 1.4 0 .84-.36 1.15-1.07 1.15-.57 0-.86-.16-.93-.24v-.74c.2.42 1.53.7 1.53 0 0-.32-.32-.54-.67-.77-.41-.28-.86-.58-.86-1.11 0-.99.75-1.14 1.1-1.14.28 0 .64.14.76.21ZM47.5 26h2v.5H48v1.23h1.28v.58H48v1.19h1.5v.5h-2v-4Zm4.34.82v-.6a2.18 2.18 0 0 0-.82-.22c-.38 0-1.2.15-1.2 1.14 0 .48.42.7.83.93.42.22.84.44.84.95 0 .7-1.44.42-1.66 0v.74c.07.08.38.24 1 .24.78 0 1.17-.31 1.17-1.14 0-.65-.63-1.02-1.08-1.29a3.45 3.45 0 0 1-.32-.2c-.12-.09-.27-.4-.15-.63.1-.2.34-.21.62-.21.32 0 .65.19.77.29ZM42 26h-2.5v.5h1V30h.5v-3.5h1V26Zm4.5 0H46v4h.5v-4ZM26 26v4h.5v-3.11L28.34 30H29v-4h-.5v3.04L26.69 26H26Zm4 0h1.42c.87 0 1.58.79 1.58 1.76v.48c0 .97-.7 1.76-1.58 1.76H30v-4Zm.5.5h.95c.58 0 1.05.6 1.05 1.32v.36c0 .73-.47 1.32-1.05 1.32h-.95v-3Zm12-.5v4h.5v-1.5h.6c.3.45.77 1.15.9 1.5h.7a4.91 4.91 0 0 0-1-1.55c.46-.15.8-.69.8-1.25 0-.66-.48-1.2-1.08-1.2H42.5Zm.5.5h.7c.45 0 .8.34.8.75s-.35.75-.8.75H43v-1.5Z" fill="red"/></svg>