<!-- by TradingView --><svg width="56" height="56" viewBox="0 0 56 56" xmlns="http://www.w3.org/2000/svg"><path fill="url(#ajtsekluq)" d="M0 0h56v56H0z"/><path fill-rule="evenodd" d="m9.6 22.71.4-1.9c-.03-.27-.35-.81-1.39-.81C7.31 20 7 21.6 7 22.57c0 .97.8 2.33 1.07 2.62.27.3.72 1.05.21 1.05-.41 0-.88-.76-1.07-1.14L7 27.54c.18.15.68.46 1.28.46.75 0 1.72-.32 1.72-2.53 0-1.52-.76-2.17-1.24-2.58-.22-.19-.38-.33-.38-.47 0-.46.04-.87.38-.6.28.21.67.68.83.9ZM26 22h1v1.24c.12-.42.62-1.24.87-1.24.32 0 .64.74.64 1.75s-.27 1.3-.64 1.3c-.29 0-.76-.46-.87-.69V28h-1v-6Zm-14.25 6c.69 0 1.25-1.34 1.25-3s-.56-3-1.25-3-1.25 1.34-1.25 3 .56 3 1.25 3Zm0-2.46c.2 0 .36-.24.36-.54 0-.3-.16-.54-.36-.54-.2 0-.36.24-.36.54 0 .3.16.54.36.54Zm1.75 1.3V22h1v3.68c0 .42.23.54.32.55.06 0 .12-.02.18-.05V22h1v6h-1v-.53c-.21.29-.47.53-.73.53-.5 0-.72-.77-.77-1.16ZM29 28h1v-3.9c.18-.2.43-.36.62-.36.1 0 .3.13.3.55V28H32v-4.88c-.05-.39-.29-1.17-.8-1.17-.38 0-.9.48-1.2.9v-.9h-1V28Zm-9 0h-1v-8h1v2.72c.36-.36.86-.72 1.2-.72.51 0 .75.77.8 1.16V28h-1v-3.68c0-.42-.18-.54-.27-.55-.23 0-.55.23-.73.44V28Zm-3-4.5v2.87c.02.55.24 1.63.94 1.63.5 0 .68-.3.71-.44v-2.08h-.18c-.24 0-.47-.2-.47-.45V23.5h.65V22H18v-2l-1.74 3.5H17Zm7.79 2.04h-1.14c0 .81.9.78 1.35.66-.07.6-.44 1.8-1.35 1.8-.91 0-1.15-2.02-1.15-3.02 0-2.35.77-2.96 1.15-2.98 1.19 0 1.25 2.36 1.14 3.54Zm-.58-1.28h-.66c.03-.26.15-.78.38-.78.22 0 .28.52.28.78ZM35 20v8h2.44v-2H36v-6h-1Zm6.67 3.5v2.87c.02.55.23 1.63.93 1.63.5 0 .68-.3.71-.44v-2.08h-.18a.45.45 0 0 1-.45-.45V23.5h.63V22h-.63v-2l-1.76 3.5h.75Zm3.54 2.04h1.2c.13-1.18.06-3.54-1.2-3.54-.4.02-1.21.63-1.21 2.98 0 1 .25 3.02 1.21 3.02.97 0 1.36-1.2 1.43-1.8-.48.12-1.43.15-1.43-.66Zm-.1-1.28h.7c0-.26-.07-.78-.3-.78-.24 0-.37.52-.4.78Zm-7.11.2v-1.7c.11-.26.5-.76 1.13-.76.8 0 1.37.87 1.37 1.43V28h-1v-.38c-.06.13-.46.38-.84.38-.47 0-.66-.46-.66-1.7 0-1.25.99-1.77 1.5-1.37v-.67c0-.15-.27-.46-.65-.46-.37 0-.72.44-.85.66Zm1.04 2.45c.2 0 .37-.23.37-.51 0-.29-.17-.52-.37-.52-.2 0-.38.23-.38.52 0 .28.17.51.38.51ZM48 22h-1.4l1.02 2.95L46.6 28h1.34l.36-1.05.36 1.05H50l-1.01-3.05L50 22h-1.4l-.3.9-.3-.9ZM18 37v-8h1v6h1.5v2H18Zm12-4.5v2.89c.02.53.26 1.61.96 1.61.5 0 .67-.29.7-.43V34.5h-.18c-.24 0-.48-.2-.48-.45V32.5h.66V31H31v-1.94l-1.7 3.44h.7Zm-4.41.38V37h-.94v-3.68c0-.42-.17-.54-.25-.55-.16 0-.3.17-.4.35V37h-1v-6h1v.96c.2-.43.55-.96.9-.96.32 0 .5.4.6.77.22-.38.51-.77.81-.77.44 0 .64.77.69 1.16V37h-.94v-3.68c0-.42-.16-.54-.25-.55-.08 0-.16.04-.22.1Zm9.16 1.66h-1.37c0 .81 1.08.78 1.62.66-.08.6-.53 1.8-1.62 1.8-1.1 0-1.38-2.02-1.38-3.02 0-2.35.92-2.96 1.38-2.98 1.42 0 1.5 2.36 1.37 3.54Zm-.7-1.28h-.8c.05-.26.2-.78.46-.78.27 0 .34.52.34.78Zm-12.26-3.39c0 .49-.13.88-.29.88-.16 0-.29-.4-.29-.88s.13-.87.29-.87c.16 0 .29.4.29.87ZM21 31h1v6h-1v-6Zm7.5-.25c.16 0 .29-.4.29-.88s-.13-.87-.29-.87c-.16 0-.29.4-.29.87 0 .49.13.88.29.88Zm.5.25h-1v6h1v-6Zm8-2h1v8h-1v-.54c-.2.34-.46.54-.73.54-.7 0-1.27-1.34-1.27-3s.57-3 1.27-3c.27 0 .52.2.73.54V29Zm-.73 5.43c.2 0 .37-.25.37-.56 0-.3-.16-.56-.37-.56-.2 0-.37.25-.37.56 0 .3.17.56.37.56Z" fill="#fff"/><defs><linearGradient id="ajtsekluq" x1="10.42" y1="9.71" x2="68.15" y2="76.02" gradientUnits="userSpaceOnUse"><stop stop-color="#1A1E21"/><stop offset="1" stop-color="#06060A"/></linearGradient></defs></svg>