<!-- by TradingView --><svg width="56" height="56" viewBox="0 0 56 56" xmlns="http://www.w3.org/2000/svg"><path fill="#F0F3FA" d="M0 0h56v56H0z"/><path d="M17.88 22.8c.5 3.32 2.6 6.11 5.48 7.58.56-.86 1.44-2.02 2.63-3.27a6.2 6.2 0 1 1 7.2-9.3c-3.33.49-6.13 2.58-7.6 5.47.86.55 2.01 1.44 3.27 2.63a6.21 6.21 0 1 1 9.2 7.27 10.26 10.26 0 0 0-5.4-7.52c-.56.86-1.46 2-2.66 3.25a6.2 6.2 0 1 1-7.3 9.24 10.28 10.28 0 0 0 7.67-5.4c-.86-.57-2-1.46-3.25-2.66a6.21 6.21 0 1 1-9.24-7.29Zm.34-4.59a10.26 10.26 0 0 0-.14 19.54 10.27 10.27 0 0 0 19.65-.01 10.26 10.26 0 0 0 .1-19.58 10.27 10.27 0 0 0-19.61.05Z" fill="#1E1916"/></svg>