<!-- by TradingView --><svg width="56" height="56" viewBox="0 0 56 56" xmlns="http://www.w3.org/2000/svg"><path fill="#F0F3FA" d="M0 0h56v56H0z"/><path fill-rule="evenodd" d="m22.1 25.2-.53 1.59c-.11-.1-.42-.29-.79-.29-.45 0-.78.44-.78 1.06 0 .63.46.9.86.9.32 0 .65-.24.77-.37l.51 1.38c-.25.18-.92.53-1.6.53-.87 0-2.05-.79-2.05-2.7 0-1.57 1.06-2.33 1.92-2.34.18 0 .35.03.5.09l.17-.4 1.02.56ZM5.06 29.53l.29-1.37c.8.67 1.32.48 1.32.21 0-.21-.2-.32-.31-.35C5.9 27.92 5 27.5 5 26.49 5 25.23 6.02 25 6.23 25a2.06 2.06 0 0 1 .49.09l.09-.32 1 .4-.32 1.3c-.73-.39-1.21-.22-1.21.03 0 .2.31.3.47.32.39.15 1.16.64 1.16 1.49 0 1.06-.78 1.65-1.51 1.65-.59 0-1.14-.3-1.34-.44Zm2.83-3.07L8.16 25h1.56c.87 0 1.57.84 1.57 1.88v.06c0 1.03-.7 1.88-1.57 1.88h-.17V30H8.38v-3.55h-.5Zm1.73.12h-.07v1.02h.07c.27 0 .49-.21.49-.48v-.06a.49.49 0 0 0-.5-.48Zm1.94-.17c-.07-.83-.55-1.28-.78-1.4h2.91l1.12 5h-1.24l-.18-1h-1.04l-.2 1H10.9l.82-3.6h-.16Zm1.32-.07L13.2 28h-.65l.33-1.67ZM16.86 25h-1.81l-.34 1.75h.27V30H16v-1.4h.06l.67 1.4h1.5l-.75-1.55c.53-.29.9-.92.9-1.65 0-1-.68-1.8-1.52-1.8ZM16 26.55h.61c.16 0 .3.15.3.35 0 .19-.14.35-.3.35H16v-.7Z" fill="#EF1923"/><path fill-rule="evenodd" d="M47.42 25h-1.18l.8 2.74-1.8 3.85h.56L43.96 35l4.56-5h-.91l.43-1.05.64 1.05h1.43l-1.19-2.26 1.77-3.62h-.58L52 21l-4.58 4Zm2.75-.7-.42.7h-1.63l2.36-2.03-.94 1.33h.63Zm-2.1 1.72-.38-.73h.72l-.35.73Zm-.28 4.3h-1.62l-.44.93h.65l-.94 1.65 2.35-2.57ZM24 26.6l-.35-.34L24 25h1.53l.34-.35h1.2l-.33 1.87h-1.36V27h1.58l-.22 1h-1.36v.46h1.54L26.46 30H24v-3.41Zm12.32-1.37-.53 1.58c-.1-.1-.42-.29-.78-.29-.46 0-.78.43-.78 1.06 0 .63.45.9.85.9.32 0 .65-.25.77-.37l.52 1.38c-.25.17-.93.52-1.61.52-.84 0-1.98-.74-2.05-2.52l-.1.52h-1.37v.46h1.54L32.33 30H30v-3.41l-.48-.34.34-1.25h1.53l.34-.35h1.2l-.33 1.87h-1.36V27h1.48c.14-1.35 1.11-2 1.92-2 .18 0 .35 0 .5.06l.16-.39 1.02.55Zm3.25-.22h1.81c.63 0 1.17.46 1.4 1.11l.3-1.11h1.52l.35-.33h1.19l-.32 1.86h-1.36v.27h1.58l-.22 1.07h-1.36v.6H46L45.55 30H43v-3.4l-.14-.19c.02.13.04.26.04.4 0 .72-.37 1.34-.89 1.63l.74 1.56h-1.5l-.6-1.26V30H39.5v-3.25h-.27l.34-1.75Zm1.56 1.55h-.45v.7h.45c.16 0 .3-.16.3-.35 0-.2-.14-.35-.3-.35Zm-13.89-.06h.33V30h1.8l.38-1.47H29V25h-1.43l-.33 1.49Zm9.78.51h-.73l.54-2h1.47l.21-.27h.85L38.93 27h-.54v3h-1.37v-3Z" fill="#00A650"/></svg>