<!-- by TradingView --><svg width="56" height="56" viewBox="0 0 56 56" xmlns="http://www.w3.org/2000/svg"><path fill="#F0F3FA" d="M0 0h56v56H0z"/><path d="M28.84 11A16.87 16.87 0 0 1 44.63 23.2c.29.94.4 2.23.36 3.87v1.53l-.01 1.87a9.6 9.6 0 0 1-.24 1.79c-1.51 6.17-5.6 10.22-12.27 12.15-2.52.74-6.45.84-9 .05-6.1-1.9-10.1-5.85-11.98-11.82-.3-1-.47-2.17-.47-3.5v-1.08c-.03-.87-.02-1.52 0-1.94.03-.72.12-1.34.26-1.88a17.93 17.93 0 0 1 2.85-6.29c3.7-4.79 8.6-7.1 14.71-6.93Z" fill="#010101"/><path d="m18.79 26.8 3.32 3.93c.04.05.04.1.02.16-.03.05-.08.11-.14.11H12c-.09 0 .01-.06-.06-.11a.34.34 0 0 1-.12-.22 14.9 14.9 0 0 1 .21-7.13 16.37 16.37 0 0 1 9.15-10.6 17.83 17.83 0 0 1 7.44-1.53c.06 0 .1.02.12.07.03.05.03.1 0 .15l-9.95 14.79c-.09.13-.09.25 0 .38Z" fill="#FF8F40"/><path d="m29.75 11.56-.08-.06a.2.2 0 0 0-.28.06l-6.7 10.24a.2.2 0 0 0 .05.29l.08.05c.1.07.22.04.28-.05l6.7-10.24a.2.2 0 0 0-.05-.29Z" fill="#FF8F40"/><path d="M31.2 11.63h-.01a.22.22 0 0 0-.31.06l-7.22 10.98c-.07.1-.04.25.06.32h.01c.1.07.24.05.31-.06l7.22-10.98a.24.24 0 0 0-.06-.32ZM32.4 11.9h-.02a.22.22 0 0 0-.3.07l-7.46 11.37c-.07.1-.04.25.07.32.1.08.25.05.32-.05l7.44-11.38a.24.24 0 0 0-.06-.32ZM33.5 12.21a.22.22 0 0 0-.32.06l-7.7 11.76c-.07.1-.04.25.06.32h.01c.1.08.25.05.32-.06l7.7-11.76a.24.24 0 0 0-.06-.32Z" fill="#fff"/><path d="M34.6 21h-5.15c-.06 0-.1 0-.13-.05a.15.15 0 0 1 0-.16l5-7.9c.1-.16.24-.2.4-.13a16.45 16.45 0 0 1 9.23 10.02c.41 1.16.65 2.55.72 4.18.06 1.33 0 2.73-.17 4.18A12.52 12.52 0 0 1 43.32 35c-.02.05-.06.07-.1.07a.12.12 0 0 1-.12-.06l-8.05-13.73c-.1-.18-.26-.29-.46-.28ZM22.8 30.8l5.6-8.66a.13.13 0 0 1 .12-.07c.05 0 .09.03.11.07l5.63 8.63c.04.05.04.1 0 .14-.02.06-.06.09-.12.09H22.91c-.05 0-.09-.01-.12-.06a.14.14 0 0 1 0-.15Z" fill="#FF8F40"/><path d="M36.96 26.26h-.01a.25.25 0 0 0-.08.35l5.59 9.36c.07.12.22.16.33.09l.02-.01a.25.25 0 0 0 .08-.35l-5.6-9.36a.24.24 0 0 0-.33-.08Z" fill="#FF8F40"/><path d="m35.67 26.62-.01.01c-.1.07-.14.2-.07.31l6.2 10.34c.06.1.2.14.3.08l.01-.01c.1-.07.14-.2.08-.32l-6.2-10.33a.22.22 0 0 0-.3-.08ZM34.56 27.05c-.11.07-.14.21-.08.32l6.54 10.9c.07.12.2.15.3.08h.01c.1-.07.14-.2.08-.31l-6.54-10.92a.22.22 0 0 0-.31-.07ZM33.48 27.38a.24.24 0 0 0-.08.32l6.86 11.46c.07.1.2.14.32.07.1-.07.14-.21.08-.32l-6.87-11.46a.22.22 0 0 0-.31-.07Z" fill="#fff"/><path d="m32.3 36.71 2.36-4.5c.1-.18.2-.18.3-.02l4.74 7.65c.07.13.06.23-.05.33a16.13 16.13 0 0 1-6.17 3.47 17.4 17.4 0 0 1-7.15.74c-5.15-.49-9.01-2.59-12.14-7.19-.06-.08 0-.19.1-.19h17.67c.15 0 .27-.15.35-.29Z" fill="#FF8F40"/><path d="m26.34 32.37-14.1.02a.16.16 0 0 0-.16.16v.13c0 .09.07.16.15.16l14.11-.03c.09 0 .16-.07.16-.16v-.13a.16.16 0 0 0-.16-.15Z" fill="#fff"/><path d="M26.2 33.45H12.5a.13.13 0 0 0-.14.13v.2c0 .08.06.14.13.14H26.2c.07 0 .13-.06.13-.14v-.2a.13.13 0 0 0-.13-.13ZM26 34.52l-13.04.05a.16.16 0 0 0-.15.16v.12c0 .1.07.16.16.16l13.02-.04c.1 0 .16-.08.16-.17v-.12a.16.16 0 0 0-.16-.16Z" fill="#FBEBE2"/><path d="m25.63 35.74-12.03.02c-.13 0-.23.1-.23.23v.03c0 .13.1.23.23.23l12.03-.02c.12 0 .22-.1.22-.23v-.03c0-.13-.1-.23-.22-.23Z" fill="#FF8F40"/></svg>