<!-- by TradingView --><svg width="56" height="56" viewBox="0 0 56 56" xmlns="http://www.w3.org/2000/svg"><path fill="#F0F3FA" d="M0 0h56v56H0z"/><path d="M52 23.6C19.42 28.2 4.25 35.24 4 35.44c6.93-2.14 23.98-4.82 36.76 1.56-2.58-2.87-3.94-9.56 11.24-13.4Z" fill="#84D3E2"/><path d="M21 23v-1h-3.58c-1.33 0-2.42.99-2.42 2.42 0 .4.13 1.34 1 1.9.85.56 2.2 1.31 2.87 1.69.2.1.33.18.38.22.24.14.75.76.75 1.33 0 .57-.52 1.44-1.19 1.44H15v1h3.84A2.27 2.27 0 0 0 21 29.56c.04-.56-.3-1.75-1.7-2.54l-.95-.52c-1.32-.7-2.35-1.25-2.35-2.08C16 23.4 17 23 17.62 23H21Zm1 9v-7.12c.13-.96.97-2.88 3.27-2.88 2.87 0 3.23 2.27 3.23 3.15 0 1.51-1.09 2.85-2.61 2.85H24v-1.02h1.61c1.36 0 1.89-.96 1.89-1.82v-.31c-.05-.6-.8-1.85-2.23-1.85-1.79 0-2.27 1.57-2.27 2.66V32h-1Zm13-9v-1h-1.22A4.82 4.82 0 0 0 29 26.87v.26A4.82 4.82 0 0 0 33.78 32H35v-1h-1.14c-1.99 0-3.85-1.97-3.86-4h5v-1h-4.88c.44-1.66 2.04-3 3.74-3H35Zm1-1v7.2c0 1.55 1.23 2.8 2.75 2.8H41v-1h-2.25c-.87 0-1.75-1-1.75-1.88V22h-1Z" fill="#1B15B3"/></svg>