<!-- by TradingView --><svg width="56" height="56" viewBox="0 0 56 56" xmlns="http://www.w3.org/2000/svg"><path fill="#F0F3FA" d="M0 0h56v56H0z"/><path d="M39.5 37H8.14c-.11 0-.16-.06-.13-.18l2.56-13.22a7.52 7.52 0 0 1 1.33-3.05c.8-1.05 1.71-1.55 2.74-1.55h33.2c.13 0 .18.1.15.23-.74 3.71-1.5 7.7-2.3 11.99a9.04 9.04 0 0 1-.89 2.86A5.88 5.88 0 0 1 39.5 37ZM11.01 23.92l-1.26 6.5c-.53 2.67-.91 4.64-1.15 5.93-.02.1.01.14.1.14 1.05.02 2.1.04 3.13.04 9.2.04 18.33.04 27.37 0 1.52 0 2.78-.38 3.79-1.12A5.29 5.29 0 0 0 45.03 32c.8-4.22 1.6-8.33 2.38-12.33a.15.15 0 0 0-.04-.13.14.14 0 0 0-.11-.05l-26.52.01h-5.67c-.45 0-.83.04-1.13.12-.39.1-.72.27-1 .52A6.46 6.46 0 0 0 11 23.92Z" fill="#676174" fill-opacity=".89"/><path d="M42 21.14v.6c.01.11-.08.26-.19.26-1.4.03-3.27.01-4.75 0-2.98-.03-6.48 4.75-8.13 6.46-.91.94-1.84 1.68-2.8 2.22-.37.2-.88.31-1.55.32H13.1c-.1 0-.1-.08-.1-.18v-.7c0-.11.03-.12.13-.12h.59c.1 0 .2-.15.28-.2a4.62 4.62 0 0 1 2.62-.8c.59 0 1.17.07 1.74.3.46.2.93.7 1.44.7h2.49c.15 0 .28-.26.4-.37a254 254 0 0 1 5.95-5.7 29.7 29.7 0 0 1 3.09-2.52c.4-.28.79-.41 1.18-.41 2.77.02 6.02.02 8.9 0 .1 0 .18.04.19.14Z" fill="#EE1D23"/><path d="M23.1 33.48c.44.2.83.52 1.2.52h2.08c.3 0 .56-.31.77-.54l5.53-5.88c.96-1.01 2-1.98 3.11-2.92.27-.23.52-.4.76-.49.26-.1.57-.16.91-.16h8.4c.08 0 .14.03.14.12v.75c0 .07-.06.12-.13.12-1.56.02-3.1.02-4.33 0-1.08-.02-2.48.6-4.2 2.54a3505.6 3505.6 0 0 1-4.26 4.78c-.67.75-1.24 1.31-1.73 1.7-.79.62-1.5.94-2.13.96L17.28 35c-.18 0-.28-.1-.28-.28v-.5c0-.2.12-.22.3-.22.33 0 .45 0 .67-.07.14-.04.5-.25.76-.4a5 5 0 0 1 4.38-.06Z" fill="#808285"/></svg>