<!-- by TradingView --><svg width="56" height="56" viewBox="0 0 56 56" xmlns="http://www.w3.org/2000/svg"><path fill="#C5DA7E" d="M0 0h56v56H0z"/><path fill-rule="evenodd" d="M4 26.9V29h.24c.01-.15.09-.44.29-.44.08 0 .14.05.21.12.15.13.36.32 1 .32.97 0 1.78-.61 1.78-1.82 0-.96-1.25-1.59-1.87-1.78-.3-.1-.9-.46-.9-1.18 0-.71.64-.89.96-.88.44.01 1.33.4 1.33 1.78h.27V23H7.1c0 .15-.04.45-.29.45-.12 0-.2-.07-.3-.15-.17-.13-.38-.3-.86-.3a1.5 1.5 0 0 0-1.51 1.57c0 .98.49 1.4 1.4 1.74.9.34 1.33.58 1.33 1.39 0 .8-.66.96-1.17.96-.5 0-1.39-.72-1.42-1.77H4Zm4.15-.91c0 .37.23.48.35.48.32 0 .46-.12.46-.31 0-.15-.1-.34-.14-.41-.02-.16.07-.47.61-.47.55 0 .58.47.57.7v.5a11.67 11.67 0 0 1-.97.46C8.5 27.17 8 27.38 8 28.1c0 .76.64.91.95.91.27 0 .73-.1 1.13-.54.09.27.28.54.65.54.5 0 .62-.24.63-.37-.39.16-.58-.15-.63-.33v-2.14c0-.76-.44-1.16-1.15-1.16-.72 0-1.43.52-1.43.99Zm1.58.86.27-.12V28l.01.18a.88.88 0 0 1-.72.34c-.66 0-.73-.65-.5-.95.23-.3.6-.57.94-.72Zm9.77-.38c-.12 0-.35-.11-.35-.48 0-.47.71-.99 1.43-.99.71 0 1.15.4 1.15 1.16v2.14c.05.18.24.49.63.33 0 .13-.13.37-.63.37-.37 0-.56-.27-.65-.54-.4.44-.86.54-1.13.54-.31 0-.95-.15-.95-.9 0-.72.5-.93 1.03-1.16a17.11 17.11 0 0 0 .97-.45v-.5c0-.24-.02-.71-.57-.71-.54 0-.63.31-.61.47.04.07.14.26.14.41 0 .19-.14.31-.46.31Zm1.5.26-.27.12c-.33.15-.7.42-.94.72-.23.3-.16.95.5.95.37 0 .6-.18.72-.34L21 28v-1.27ZM13.73 29H11.9v-.3h.35c.14 0 .26-.14.26-.3v-2.53c0-.33-.4-.46-.6-.5v-.26L13 25v.74c.3-.32.77-.74 1.16-.74.47 0 .54.43.51.65-.03.17-.16.53-.43.53-.34 0-.46-.53-.3-.74-.2 0-.64.16-.94.68v2.28c0 .16.13.3.27.3h.46v.3Zm2.88-5.59v-.25L18 23v5.35c.02.08.18.24.56.24v.22l-1.11.19v-.64c-.28.27-.75.64-1.09.64-.5 0-1.57-.5-1.57-1.91 0-1.43.84-2.09 1.67-2.09.47 0 .8.2.99.38v-1.46c0-.17-.11-.5-.5-.5h-.34Zm.84 2.49c-.2-.27-.52-.6-.9-.6-.6 0-1.1.6-1.1 1.58 0 .97.34 1.67 1.1 1.67.44 0 .74-.25.9-.48V25.9Zm7.13-2.9v.32h.39c.21 0 .4.2.4.45v4.48c0 .24-.19.45-.4.45h-.39v.3h2.22v-.3h-.36a.46.46 0 0 1-.44-.45v-1.89h1.22c.73 0 1.32-.67 1.32-1.5v-.36c0-.83-.6-1.5-1.32-1.5h-2.64Zm1.42.3h.59c.66 0 1.19.6 1.19 1.35 0 .74-.53 1.35-1.2 1.35H26v-2.7Zm3.4 5.7h1.83v-.3h-.46c-.14 0-.26-.14-.26-.3v-2.3c.3-.5.73-.65.92-.66-.15.2-.03.74.3.74.28 0 .41-.36.44-.53.03-.22-.04-.65-.51-.65-.38 0-.86.41-1.15.73V25l-1.11.11v.27c.2.03.6.16.6.49v2.53c0 .16-.12.3-.26.3h-.35v.3Zm20.09 0v-1.4h.2c.02.7.65 1.17 1.02 1.17.36 0 .83-.1.83-.64s-.3-.7-.96-.93c-.65-.23-1-.5-1-1.16 0-.65.53-1.04 1.09-1.04.34 0 .49.11.6.2.08.05.14.1.23.1.18 0 .2-.2.2-.3h.15v1.41h-.19c0-.92-.64-1.17-.95-1.19-.23 0-.68.12-.68.6 0 .47.42.72.64.78.44.13 1.33.55 1.33 1.19 0 .8-.57 1.21-1.27 1.21-.46 0-.61-.13-.71-.22-.06-.04-.1-.07-.16-.07-.14 0-.2.2-.2.29h-.17ZM34 29a2 2 0 1 0 0-4 2 2 0 0 0 0 4Zm.18-.29c.64 0 1.16-.76 1.16-1.71s-.52-1.71-1.16-1.71c-.65 0-1.18.76-1.18 1.71s.53 1.71 1.18 1.71ZM42.1 27h-2.48c0 .85.36 1.59 1.19 1.59.66 0 1.03-.49 1.14-.73l.23.16c-.17.33-.72.98-1.54.98C39 29 39 27.39 39 27.06v-.02c0-.27.14-2.04 1.64-2.04 1.2 0 1.48 1.35 1.46 2Zm-.6-.46h-1.85c0-.17.18-1.24.96-1.24.62 0 .85.83.88 1.24ZM43.6 24c.22 0 .4-.22.4-.5s-.18-.5-.4-.5c-.22 0-.4.22-.4.5s.18.5.4.5Zm-.68 5h1.84v-.3h-.46c-.14 0-.3-.14-.3-.3V25l-1.07.11v.27c.2.03.6.16.6.49v2.53c0 .16-.12.3-.26.3h-.35v.3Zm4.68-4c-.6 0-1.38.62-1.6.92v-.91l-1.1.1v.27c.2.03.6.17.6.5v2.52c0 .16-.11.3-.26.3h-.34v.3h1.84v-.3h-.46c-.15 0-.28-.14-.28-.3v-2.12c.16-.27.77-.81 1.19-.81.6 0 .8.46.81.7v2.12c0 .25-.2.45-.42.45h-.2v.24h1.66v-.24h-.18c-.22 0-.4-.2-.4-.45v-2.2c0-.41-.12-1.09-.86-1.09Zm-10.6.32v2.95c.03.24.24.73.86.73.5 0 .77-.22.84-.33v-.28c-.05.06-.23.18-.53.18-.37 0-.6-.22-.6-.7v-2.55h1.06V25h-1.06v-1H37v1h-.63v.32H37Z" fill="#111"/></svg>