<!-- by TradingView --><svg width="56" height="56" viewBox="0 0 56 56" xmlns="http://www.w3.org/2000/svg"><path fill="#F0F3FA" d="M0 0h56v56H0z"/><path d="M42.68 23.26c0-.04.03-.08.08-.1.04-.03.07-.02.1 0a5.66 5.66 0 0 1 1.52 2.27c.74 1.9.82 3.57.23 5-.1.27-.16.54-.16.81 0 .3-.1.53-.33.7a.42.42 0 0 0-.18.47c.06.27-.03.47-.28.6a.35.35 0 0 0-.2.31v.16c-.02.12-.06.21-.14.3a4.8 4.8 0 0 0-.84 1.05c-.24.42-.48.75-.73.98a57.3 57.3 0 0 0-2.2 2.25c-.13.13-.25.13-.37.02-.08-.08-.19-.08-.32-.03s-.16.14-.1.27l.07.16c.1.22.04.3-.19.2l-.23-.08a.43.43 0 0 0-.46.08 16.2 16.2 0 0 0-1.77 1.72c-.27.32-.63.42-1.06.3-.2-.06-.33.02-.38.22l-.07.23c-.01.05-.05.07-.1.06-1.63-.17-3.2-.15-4.71.09a.8.8 0 0 0-.54.32.8.8 0 0 0-.16.6.43.43 0 0 1-.14.39.63.63 0 0 1-.42.18c-.38.02-.69.2-.92.54-.14.2-.29.54-.45 1.04l-.15.44c-.07.17-.19.23-.36.17a.41.41 0 0 1-.12-.06.37.37 0 0 1-.16-.28l-.18-1.57c-.02-.19-.13-.29-.31-.3a.5.5 0 0 0-.23.04.6.6 0 0 1-.42.02c-.11-.05-.16-.13-.14-.26.04-.23-.06-.33-.28-.3l-.22.04c-.2.03-.35-.05-.45-.23a2.8 2.8 0 0 0-.55-.75.43.43 0 0 0-.38-.12 2.24 2.24 0 0 1-1.64-.36.73.73 0 0 0-.49-.12 2.32 2.32 0 0 1-1.64-.43.56.56 0 0 0-.4-.1c-.22.02-.37-.07-.46-.28a.34.34 0 0 0-.31-.23l-.23-.02a.68.68 0 0 1-.46-.23l-2.11-2.27a.41.41 0 0 0-.39-.14l-.13.05c-.15.09-.28.07-.4-.07a23.12 23.12 0 0 0-2.77-2.92 1.15 1.15 0 0 1-.4-.81c-.02-.22-.1-.53-.23-.93-.14-.39-.21-.69-.22-.89-.01-.32.1-.63.32-.92a.62.62 0 0 0 .1-.57c-.06-.23.02-.37.25-.43.27-.06.35-.21.25-.47a.34.34 0 0 1-.02-.12c-.02-.26.1-.4.35-.45.21-.03.28-.15.22-.35-.09-.25-.02-.46.2-.62a.6.6 0 0 1 .51-.1.5.5 0 0 0 .36-.05c.12-.06.2-.15.25-.27.26-.63.26-1.25-.02-1.85a3.9 3.9 0 0 1-.33-1.32c-.07-1-.05-1.95.06-2.82.02-.16.1-.29.25-.37.24-.12.3-.31.2-.56-.06-.14-.03-.26.1-.34.59-.41 1.1-.9 1.52-1.5a.7.7 0 0 1 .67-.3c.15.01.26-.05.33-.19.1-.21.28-.3.53-.26.17.02.33-.03.46-.14.32-.29.7-.4 1.16-.37.2.02.36-.05.5-.2.21-.23.33-.5.35-.8 0-.25.09-.28.25-.09.06.08.13.09.22.04.07-.04.09-.1.06-.17-.05-.12-.13-.14-.24-.09-.05.03-.06.02-.02-.03a7.38 7.38 0 0 1 2.03-1.85c1.61-1.02 2.97-1.54 4.06-1.55.14 0 .25-.06.33-.18a.5.5 0 0 1 .1-.1c.04-.04.1-.07.16-.07h3.04c.17 0 .32.06.44.17.2.19.54.29 1.02.3.32.01.57.04.73.1.26.09.5.27.7.53.1.15.25.23.43.24.45.01.79.24 1 .67.08.15.14.14.17-.02l.01-.05c.02-.05.06-.06.1-.03.64.5 1.17 1.11 1.58 1.83.09.15.21.22.38.22.57 0 1.16.02 1.76.04.65.02 1.22.16 1.72.41 2.2 1.1 3.11 3.06 2.76 5.9-.04.35 0 .68.16.98.09.18.14.17.16-.03Z" fill="#4F4F4E"/><path d="M43.2 32.16c-.3-.07-.54-.43-.72-1.09-.02-.04-.04-.05-.08-.04a9.49 9.49 0 0 1-3.78.25c-.81-.1-1.63-.22-2.45-.34a7.5 7.5 0 0 1-.64-.15c-.8-.21-1.4-.28-1.8-.2l-2.64-3.17c-.26-.3-.51-.3-.77 0l-.18.2c-.2.24-.2.47-.01.7l1.64 1.97c.07.3.04.5-.08.63-.09.1-.2.13-.34.1l-1.94-2.34a.36.36 0 0 0-.25-.13c-.1 0-.2.02-.27.09l-.46.39c-.2.17-.22.36-.04.56l1.13 1.24c.03.5-.12.74-.46.7l-1.16-1.42a.58.58 0 0 0-.42-.22.78.78 0 0 0-.69.3.61.61 0 0 0-.16.45c.02.18.08.33.21.45.11.1.25.15.43.14-.06.62-.14 1-.22 1.17a18.52 18.52 0 0 0-1.18 2.67c-.1.33-.17.32-.2-.03 0-.16.02-.32.08-.47a.49.49 0 0 0-.09-.52l-1.33-1.62a.19.19 0 0 0-.2-.07.7.7 0 0 0-.16.05c-.02-.09-.01-.22.02-.39L32.84 25c.16-.13.22-.29.18-.5l-.14-.76a.2.2 0 0 0-.14-.15.2.2 0 0 0-.2.03l-9.98 7.92a.58.58 0 0 1-.23 0c-.18-.04-.22-.15-.13-.3l.36-.68c3.2-2.53 6.39-5.08 9.58-7.64.55-.44.69-.94.42-1.5-.12-.24-.28-.27-.5-.1l-10.62 8.4c-1.19-.3-2.5-.3-3.95.02a.51.51 0 0 1-.45-.1 3.04 3.04 0 0 0-2.72-.58.64.64 0 0 0-.44.39c-.34.77-.73 1.05-1.18.84a8.02 8.02 0 0 1 2.53-3.55c.14-.12.17-.26.07-.42a6.24 6.24 0 0 1-.65-4.63 4.92 4.92 0 0 1 3.1-3.4c.2-.07.52-.12.94-.14.34-.01.59-.04.75-.08a.46.46 0 0 0 .33-.29 6.76 6.76 0 0 1 3.39-3.63c4.59-2.2 8.68-1.46 12.27 2.24.16.16.35.23.57.2.8-.1 1.6-.03 2.4.22 2.7.85 3.68 2.74 2.92 5.68a.67.67 0 0 0 .04.48c.08.16.28.35.6.58.23.15.37.27.46.36 2.2 2.39 2.45 5.14.79 8.25Z" fill="#F0F3FA"/><path d="M26.11 18.02c-.15 0-.31 0-.48-.04a.61.61 0 0 1-.46-.4.48.48 0 0 1-.03-.23c.02-.2.13-.3.33-.3l3.96.03c.17 0 .28.08.34.23.07.14.1.3.07.47-.01.08 0 .15.06.2.06.07.12.1.2.09l.74-.06c.53-.04.58.1.17.44l-8.79 7.01c-.07.06-.15.07-.23.02-.08-.05-.1-.12-.09-.21l.03-.13c.08-.49.17-.82.26-1.02.14-.3.37-.58.7-.85 2.25-1.83 4.48-3.55 6.7-5.18.04-.03.04-.04-.02-.05l-1.1-.12a.41.41 0 0 0-.3.08l-5.4 4.35c-.3.24-.42.17-.36-.2l.05-.34c.03-.3.07-.53.12-.66.07-.23.2-.42.38-.6.97-.94 2.04-1.72 3.2-2.32.29-.15.27-.22-.05-.2Z" fill="#4F4F4E"/><path d="M23.09 19.43c-.02.01-.04 0-.05-.01a.85.85 0 0 1-.18-.68.94.94 0 0 1 .36-.62l.02-.02a.9.9 0 0 1 .68-.2c.25.02.45.13.6.33h.01v.06l-1.44 1.14ZM21.7 26.95l10.15-8.09a.19.19 0 0 1 .2-.03c.07.03.1.08.12.16l.12 1a.18.18 0 0 1-.07.17l-10.48 8.39c-.07.05-.15.06-.22.01a.18.18 0 0 1-.1-.2l.2-1.28c0-.05.03-.1.07-.13ZM33.31 28.8l-1.73-2.03c-.07-.09-.06-.17.03-.24l.67-.55c.07-.06.14-.05.21 0l.63.56c.03.02.05.05.05.09l.43 2.02c.02.08-.01.15-.1.19-.07.04-.13.02-.19-.04Z" fill="#4F4F4E"/><path d="M21.44 29.71c-.44.66-.61 1.24-.52 1.75a.2.2 0 0 0 .13.16.2.2 0 0 0 .2-.03l1.3-1.03-.35.67c-.1.16-.05.27.13.3.06.02.14.03.23.01L20.76 33a.6.6 0 0 0-.21.4l-.33 2.18c0 .09.01.17.07.24.05.06.12.1.2.1l.71.04c.32.02.38-.1.18-.35l-.51-.64c-.14-.18-.13-.33.05-.47l3.07-2.47c-.03.17-.04.3-.02.4-.32.16-.54.35-.65.59-.08.15-.06.3.06.42l2.05 2.3a.5.5 0 0 1 .1.5c-.25.8-.24 1.6.04 2.38.03.08.01.14-.06.19-.06.04-.12.04-.18-.02a6 6 0 0 0-4.81-1.57 7.86 7.86 0 0 1-4.49-.73 6.39 6.39 0 0 1-3.26-3.18c-.44-1-.46-2-.07-3.01.45.21.84-.07 1.18-.84.08-.2.23-.34.44-.4a3.04 3.04 0 0 1 2.72.6c.14.1.29.12.45.09a8.62 8.62 0 0 1 3.95-.03ZM31.77 30.3l2.14 2.4c.25.28.33.23.25-.14l-.44-1.96a4.21 4.21 0 0 1 1.81.19c.3.08.51.13.64.15l2.45.34c1.3.17 2.56.08 3.78-.25.04-.01.06 0 .08.04.18.66.42 1.02.73 1.1a13.75 13.75 0 0 1-3.22 4.2c-.55.49-1.13.8-1.73.91a201 201 0 0 0-2.43.5c-.51.1-1.24.14-2.2.1a8 8 0 0 0-1.91.08c-.69.15-1.3.5-1.82 1.07-.18.2-.27.16-.25-.1.05-.75.08-1.49.1-2.22 0-.25.09-.29.26-.11.05.04.1.04.17-.01.16-.11.18-.25.06-.4a.52.52 0 0 0-.38-.22c-.2-.02-.34-.12-.4-.32a28.18 28.18 0 0 0-1.52-4.06.48.48 0 0 0-.36-.3l-.31-.06c.06-.24.18-.36.35-.37.17 0 .28.07.34.22a14.26 14.26 0 0 0 2.94 4.61c.19.2.41.29.67.3l.84.02c.28 0 .33-.1.15-.32l-3.5-4.16c.34.04.49-.2.46-.7a439 439 0 0 0 4.1 4.83c.25.3.52.4.81.33.2-.05.26-.17.2-.37-.04-.1-.09-.24-.14-.43-.15-.5-.33-.87-.54-1.1-.9-1-1.77-2.03-2.6-3.07.14.03.25 0 .34-.1.12-.13.15-.33.08-.63Z" fill="#F0F3FA"/><path d="m25.89 33.11-.85-.96a.38.38 0 0 1-.1-.3c.01-.12.06-.21.16-.29l.44-.34c.18-.14.35-.13.51.03l.55.52c.1.1.14.23.12.37l-.15.78a.37.37 0 0 1-.28.31.37.37 0 0 1-.4-.12ZM23.99 35.91l-.78.01a.9.9 0 0 1-.54-.16c-.43-.3-.8-.7-1.1-1.18-.11-.17-.08-.3.09-.42l.62-.4a.32.32 0 0 1 .44.1l.13.22c.36.55.65.95.89 1.2.4.42.8.65 1.22.68.17.01.29.1.36.25.07.16.06.31-.04.45-.12.18-.28.25-.48.19a.39.39 0 0 1-.3-.32l-.06-.24a.46.46 0 0 0-.45-.38Z" fill="#4F4F4E"/></svg>