<!-- by TradingView --><svg width="56" height="56" viewBox="0 0 56 56" xmlns="http://www.w3.org/2000/svg"><path fill="#F0F3FA" d="M0 0h56v56H0z"/><path d="M27.94 10h.04c.05 0 .1.04.1.1v3.67a.1.1 0 0 1-.1.1h-.04a.1.1 0 0 1-.1-.1V10.1c0-.06.05-.1.1-.1ZM24.22 10.4a.1.1 0 0 1 .14.08l1.27 5.9a.1.1 0 1 1-.22.05l-1.27-5.9a.11.11 0 0 1 .08-.13ZM31.66 10.39h-.02a.1.1 0 0 0-.12.07l-1.23 5.91a.1.1 0 0 0 .08.12h.02a.1.1 0 0 0 .12-.07l1.23-5.9a.1.1 0 0 0-.08-.13ZM26.77 11.15a.1.1 0 0 1 .12.1l.22 3.07c0 .06-.04.11-.1.12H27a.1.1 0 0 1-.12-.1l-.22-3.08a.1.1 0 0 1 .1-.11ZM29.02 11.16a.04.04 0 0 1 .02.01.04.04 0 0 1 .02.03l-.02.53a87.64 87.64 0 0 1-.13 2.49c-.01.13-.03.2-.04.2h-.1a71.14 71.14 0 0 1 .01-2.69l.03-.54v-.01a.04.04 0 0 1 .02-.02h.19ZM35.19 11.52l.02.01a.1.1 0 0 1 .05.14l-2.4 5.52a.1.1 0 0 1-.14.06l-.02-.01a.1.1 0 0 1-.06-.14l2.42-5.52a.1.1 0 0 1 .13-.06ZM20.67 11.57a.11.11 0 0 0-.06.15l2.47 5.51a.1.1 0 0 0 .15.06.11.11 0 0 0 .06-.15l-2.48-5.51a.1.1 0 0 0-.14-.06ZM30.14 12.18h.02c.06.01.1.06.09.12l-.54 3.98a.1.1 0 0 1-.12.09h-.02a.1.1 0 0 1-.09-.12l.54-3.98c.01-.06.06-.1.12-.09ZM25.62 12.21h-.03a.1.1 0 0 0-.08.12l.66 3.97c0 .05.06.09.1.08h.04a.1.1 0 0 0 .08-.11l-.66-3.98a.1.1 0 0 0-.11-.08ZM32.17 12.57h.02a.1.1 0 0 1 .07.13l-1 3.91a.1.1 0 0 1-.12.07h-.02a.1.1 0 0 1-.07-.13l1-3.9a.1.1 0 0 1 .12-.08ZM23.59 12.68h-.02a.1.1 0 0 0-.07.13l1.12 3.84a.1.1 0 0 0 .12.07h.02a.1.1 0 0 0 .07-.13l-1.11-3.85a.1.1 0 0 0-.13-.06ZM33.37 12.95a.1.1 0 0 1 .07.14l-1.36 3.8a.1.1 0 0 1-.14.07.1.1 0 0 1-.07-.14l1.36-3.8a.1.1 0 0 1 .14-.07ZM22.41 13.07l-.02.01a.1.1 0 0 0-.06.14l1.47 3.72a.1.1 0 0 0 .13.06h.02a.1.1 0 0 0 .06-.14l-1.46-3.73a.1.1 0 0 0-.14-.06ZM38.45 13.38c.06.04.07.1.03.16l-3.51 4.9a.1.1 0 0 1-.15.03h-.01a.11.11 0 0 1-.02-.16l3.51-4.9a.1.1 0 0 1 .15-.03ZM17.45 13.47a.1.1 0 0 0-.03.16l3.56 4.88c.03.05.1.06.15.02a.1.1 0 0 0 .03-.15l-3.56-4.89a.1.1 0 0 0-.15-.02ZM35.26 13.81a.1.1 0 0 1 .05.15l-1.77 3.58a.1.1 0 0 1-.14.05.1.1 0 0 1-.05-.15l1.76-3.58a.1.1 0 0 1 .15-.05ZM20.52 13.94a.11.11 0 0 0-.04.15l1.86 3.51c.03.06.1.08.15.05.06-.03.08-.1.05-.15l-1.87-3.52a.1.1 0 0 0-.15-.04ZM27.01 16.04l.1.08-.06.09-.17.19c-.19.2-.14.3.13.3h1.89a.2.2 0 0 0 .13-.04.14.14 0 0 0 .05-.15c-.01-.04-.05-.09-.12-.13a3.16 3.16 0 0 1-.19-.15c-.06-.06-.06-.11 0-.14l.24-.12a.11.11 0 0 0 .07-.12c-.01-.14-.12-.2-.33-.19-.07 0-.11-.02-.12-.1l-.03-.2c-.07-.59-.15-1.31-.95-.95a.33.33 0 0 0-.2.25l-.12.9c-.01.08-.05.1-.12.1l-.12-.02a.2.2 0 0 0-.17.06c-.05.05-.07.11-.04.19.02.05.06.1.13.15ZM36.35 14.42a.1.1 0 0 0-.15.03l-2.1 3.42a.1.1 0 0 0 .03.15.1.1 0 0 0 .16-.03l2.1-3.42a.1.1 0 0 0-.04-.15ZM19.43 14.58h.02a.1.1 0 0 1 .14.02l2.21 3.33a.1.1 0 0 1-.03.15h-.01a.1.1 0 0 1-.14-.02l-2.21-3.33a.1.1 0 0 1 .02-.15ZM38.04 15.63a.1.1 0 0 0-.16.02l-2.47 3.13a.1.1 0 0 0 .02.15.1.1 0 0 0 .16 0l2.47-3.15a.1.1 0 0 0-.02-.15ZM17.8 15.82a.1.1 0 0 1 .15 0l2.55 3.06a.1.1 0 0 1-.01.15.1.1 0 0 1-.16 0l-2.55-3.06a.1.1 0 0 1 .01-.15ZM41.08 15.88l-4.45 4.06a.11.11 0 0 0 0 .16c.04.05.1.05.15.01l4.45-4.06a.11.11 0 0 0 .01-.15v-.01a.1.1 0 0 0-.16 0ZM14.85 16l4.45 4a.1.1 0 0 1 0 .15v.01a.1.1 0 0 1-.15 0l-4.45-4a.1.1 0 0 1 0-.14V16a.1.1 0 0 1 .15 0ZM38.98 16.44a.1.1 0 0 0-.16 0l-2.78 2.94a.11.11 0 0 0 0 .15h.01a.1.1 0 0 0 .16 0l2.78-2.94a.11.11 0 0 0 0-.15ZM17 16.65l2.85 2.8c.05.05.05.12 0 .16a.1.1 0 0 1-.15 0l-2.85-2.8a.11.11 0 0 1 0-.15v-.01a.1.1 0 0 1 .16 0ZM40.21 17.98l-3.07 2.56a.1.1 0 0 0-.02.15c.04.05.11.06.16.02l3.07-2.56a.1.1 0 0 0 .02-.15.1.1 0 0 0-.16-.02ZM15.65 18.2l3.16 2.46c.04.04.05.1.02.15v.01a.1.1 0 0 1-.16.02l-3.16-2.47a.11.11 0 0 1-.02-.15.1.1 0 0 1 .16-.03ZM43.3 18.88l-5.21 3.06a.1.1 0 0 0-.04.15c.03.05.1.07.15.04l5.2-3.06a.1.1 0 0 0 .05-.15.1.1 0 0 0-.15-.04ZM37.67 21.23l3.29-2.26a.1.1 0 0 1 .15.03.1.1 0 0 1-.03.15l-3.29 2.26a.1.1 0 0 1-.15-.03.1.1 0 0 1 .03-.15ZM17.87 22.01 12.64 19a.1.1 0 0 0-.15.04.1.1 0 0 0 .04.15l5.23 3.02a.1.1 0 0 0 .15-.04.1.1 0 0 0-.04-.16ZM14.92 19.2l3.36 2.14c.05.04.06.1.03.15v.01a.1.1 0 0 1-.15.04l-3.36-2.15a.1.1 0 0 1-.03-.14v-.02a.1.1 0 0 1 .15-.03ZM42 20.76l-3.53 1.85a.1.1 0 0 0-.04.15c.03.06.1.08.14.05l3.53-1.86a.1.1 0 0 0 .04-.14.1.1 0 0 0-.14-.05ZM13.89 21l3.59 1.73a.1.1 0 0 1 .05.15.1.1 0 0 1-.15.05l-3.59-1.73a.1.1 0 0 1-.05-.15.1.1 0 0 1 .15-.05ZM42.52 21.89l-3.68 1.5a.1.1 0 0 0-.06.15.1.1 0 0 0 .15.06l3.67-1.5a.1.1 0 0 0 .06-.15.1.1 0 0 0-.14-.06ZM13.39 22.14l3.73 1.38a.1.1 0 0 1 .06.14.1.1 0 0 1-.14.07l-3.73-1.39a.1.1 0 0 1-.06-.13v-.01a.1.1 0 0 1 .14-.06ZM44.86 22.27l-5.7 1.9a.1.1 0 0 0-.08.13.1.1 0 0 0 .14.07l5.7-1.88a.1.1 0 0 0 .07-.14.1.1 0 0 0-.13-.08ZM11.14 22.42l5.7 1.84a.1.1 0 0 1 .07.13l-.01.02a.1.1 0 0 1-.13.07l-5.7-1.85a.1.1 0 0 1-.07-.12l.01-.02a.1.1 0 0 1 .13-.07Z" fill="#EE1C25"/><path fill-rule="evenodd" d="m39 28.22.25-.03c.08-.01.1.01.05.08a2.81 2.81 0 0 0-.2 2.8c.04.07.07.07.11 0a.63.63 0 0 0 .1-.21.18.18 0 0 1 .12-.14.18.18 0 0 1 .18.04c.06.07.12.1.17.1a.06.06 0 0 0 .05 0 .06.06 0 0 0 .02-.06c-.07-.58-.04-1.54.38-2a.1.1 0 0 1 .1-.03.1.1 0 0 1 .08.07c.2.56.18 1.2-.06 1.95-.02.09 0 .13.1.13.05 0 .2-.13.45-.37.09-.09.15-.07.19.04l.12.3c.06.16.12.17.2.02.36-.77.44-1.52.21-2.23-.03-.12.01-.18.14-.17.72.02 1.17-.25 1.35-.8.09-.28 0-.6-.27-.72-.36-.15-.75-.09-1.15.2-.08.05-.11.03-.1-.06l.12-.72c.25-1.37-.8-1.74-1.9-1.64-.98.1-.77 1.9-.66 2.49.02.06 0 .1-.07.12l-.05.01a.14.14 0 0 1-.16-.06 10.98 10.98 0 0 0-5.74-8.99 10.47 10.47 0 0 0-7-1.12c-5.01.87-8.55 4.86-9 10 0 .11-.06.17-.18.17h-.06c-.1.01-.15-.04-.12-.15.18-.68.26-1.6-.17-2.22-.26-.38-1.16-.28-1.53-.18-1.02.28-.98 1.55-.66 2.31.08.2.04.23-.12.08-.35-.32-.75-.4-1.18-.23a.49.49 0 0 0-.3.51c.1.77.73 1.06 1.47 1.01.07 0 .1.03.07.1-.25.78-.17 1.56.24 2.32.04.09.08.09.12 0l.14-.37a.1.1 0 0 1 .08-.07.1.1 0 0 1 .1.04 2 2 0 0 0 .44.37c.14.08.18.05.12-.1a3.39 3.39 0 0 1-.07-2.02.1.1 0 0 1 .1-.04.1.1 0 0 1 .04.02c.5.38.5 1.4.43 1.93-.02.19.04.23.2.11l.16-.12a.1.1 0 0 1 .13 0 .1.1 0 0 1 .03.05l.11.37c.04.12.08.12.12 0 .33-.9.45-2.06-.22-2.81a.07.07 0 0 1 .06-.12l.33.05c.06 0 .1.04.1.1a10.94 10.94 0 0 0 2.68 6.87 10.83 10.83 0 0 0 17.25-1.15 9.64 9.64 0 0 0 1.56-3.73c.03-.15.13-.81.28-1.98 0-.03.02-.06.04-.08a.13.13 0 0 1 .08-.04ZM27.88 23.9c.05.08.09.12.12.12.04 0 .09-.04.14-.12.6-1 .9-2 .9-3.04a5.8 5.8 0 0 0-.9-3.04c-.05-.08-.1-.12-.14-.12-.03 0-.07.04-.12.12-.6 1-.9 2-.9 3.04 0 1.03.3 2.05.9 3.04Zm-2 .6c.08.05.13.07.16.05.04-.02.06-.08.06-.17a5.86 5.86 0 0 0-.73-3.1 5.8 5.8 0 0 0-2.3-2.19c-.08-.04-.14-.05-.18-.03-.03.01-.04.07-.04.16-.03 1.17.22 2.2.73 3.1a5.8 5.8 0 0 0 2.3 2.19Zm4.1.07c-.04-.02-.06-.08-.06-.17a5.8 5.8 0 0 1 .74-3.08 5.76 5.76 0 0 1 2.29-2.18c.08-.04.14-.06.18-.03.02.01.04.06.04.16a5.82 5.82 0 0 1-.74 3.08 5.77 5.77 0 0 1-2.29 2.18c-.08.04-.13.06-.16.04Zm-5.43 1.22a5.8 5.8 0 0 0-2.18-2.31 5.77 5.77 0 0 0-3.08-.74c-.1 0-.15.02-.16.04-.02.04-.01.1.03.18a5.8 5.8 0 0 0 2.18 2.32c.9.52 1.92.76 3.08.74.1 0 .15-.03.18-.06.01-.03 0-.08-.05-.17Zm6.85.24c-.01-.03 0-.08.05-.16a5.8 5.8 0 0 1 2.16-2.32c.9-.52 1.92-.76 3.07-.74.1 0 .15.02.17.04.02.04 0 .1-.04.18a5.8 5.8 0 0 1-2.16 2.31c-.9.52-1.92.77-3.07.75-.1 0-.16-.02-.18-.06Zm-3.84.68c-.79-.23.07-1.5.86-.63.05.05.1.2.17.42.03.1.1.15.2.15h1.2c.12 0 .17-.06.15-.18-.13-1.17-.78-1.79-1.92-1.85-.63-.04-1.07 0-1.33.13-.81.4-1.19 1.03-1.13 1.9.09 1.27 1.17 1.66 2.18 2.02l.36.13c.93.36.03 1.85-.86 1.1-.24-.2-.36-.49-.37-.88 0-.03-.02-.04-.04-.04h-1.44c-.05 0-.08.03-.08.08.03 1 .47 1.94 1.54 2.2 1.25.3 2.64.05 3.06-1.3.42-1.33 0-2.25-1.26-2.75l-1.3-.5Zm-11.9.73c-.05.07-.1.06-.14-.01-.22-.38-.62-1.56.1-1.72a.34.34 0 0 1 .36.16c.26.43.15.96-.31 1.57Zm24.98-1.5c-.1-.17-.23-.25-.38-.24-.15 0-.26.1-.35.26-.2.39.03.95.25 1.28.08.14.14.2.18.2.03 0 .09-.07.16-.21.19-.36.36-.93.14-1.3Zm-22.9 2.01c0-.04.04-.09.12-.14.99-.6 2-.9 3.03-.9 1.03 0 2.04.3 3.03.9.08.05.12.1.12.14 0 .03-.04.07-.12.11-.99.6-2 .91-3.03.91-1.03 0-2.04-.3-3.03-.9-.08-.05-.12-.09-.12-.12Zm14.29-.06c-.08.05-.12.1-.12.14 0 .03.04.07.11.12 1 .6 2 .9 3.03.9 1.03 0 2.03-.3 3.02-.9.08-.05.12-.09.12-.12 0-.04-.04-.1-.12-.14-.99-.6-2-.9-3.02-.9-1.03 0-2.04.3-3.02.9Zm-17.6.15c.14.1.12.16-.05.14a1.73 1.73 0 0 1-1.03-.41.12.12 0 0 1-.02-.18l.06-.07c.04-.05.1-.08.17-.1.07 0 .13.02.19.06l.68.56Zm28.24-.31v-.03l-.18-.31v-.01a.04.04 0 0 0-.05 0l-.1.06a5.06 5.06 0 0 0-.62.43c-.08.06-.14.12-.17.17-.03.05-.04.08-.03.1l.01.02c.01.02.05.03.1.03a3.15 3.15 0 0 0 .91-.38l.12-.06.01-.02Zm-18.12 2.17c.03.04.02.1-.03.18a5.81 5.81 0 0 1-2.17 2.32c-.9.52-1.92.77-3.08.74-.1 0-.16-.02-.18-.06-.01-.02 0-.08.05-.16a5.8 5.8 0 0 1 2.17-2.32c.9-.52 1.92-.77 3.08-.74.1 0 .15.01.16.04Zm12.1 3.32c.09 0 .14-.02.15-.05.03-.03.01-.1-.03-.18a5.8 5.8 0 0 0-2.17-2.3 5.74 5.74 0 0 0-3.08-.75c-.09 0-.15.02-.17.06-.02.03 0 .08.04.16a5.8 5.8 0 0 0 2.18 2.31c.89.52 1.91.77 3.07.75Zm-13.83 3.63c-.03-.02-.04-.07-.04-.17a5.82 5.82 0 0 1 .74-3.08 5.77 5.77 0 0 1 2.3-2.18c.08-.04.13-.06.15-.05.04.03.06.09.06.18a5.82 5.82 0 0 1-.74 3.09A5.76 5.76 0 0 1 23 36.8c-.07.05-.13.06-.17.04Zm10.07.03c.08.05.14.06.16.05.04-.02.06-.08.06-.18a5.84 5.84 0 0 0-.74-3.1 5.8 5.8 0 0 0-2.3-2.18c-.08-.04-.14-.05-.18-.03-.02.01-.04.07-.04.16-.02 1.17.22 2.2.74 3.1.52.9 1.29 1.62 2.3 2.18Zm-4.97 1.38c-.03 0-.07-.04-.12-.12-.6-1-.9-2-.9-3.05 0-1.03.3-2.05.9-3.04.05-.09.09-.13.12-.13.04 0 .09.04.14.13.6 1 .9 2 .9 3.04s-.3 2.06-.9 3.05c-.05.08-.1.12-.14.12ZM38.57 36.93c-.15-.05-.36.04-.63.26-.06.05-.09.03-.1-.04-.02-.3-.13-.52-.31-.65a.35.35 0 0 0-.43 0c-.26.2-.3.52.02.7.18.1.39.13.61.08.07-.01.1.01.06.08-.2.42-.18.82.07 1.22.37.58 1.3 1.24 2.03.96.43-.17.64-.51.62-1.03 0-.07.03-.1.1-.12.74-.16 1.17-.89.79-1.59-.58-1.05-1.9-1.45-2.71-.42h-.02l-.01.01-.08-.01a.11.11 0 0 1-.09-.07.12.12 0 0 1 .02-.11l.53-.67c.07-.1.08-.18 0-.27a.27.27 0 0 0-.05-.06c-.1-.06-.17-.05-.24.03l-.5.64-.04.02h-.03l-.12-.02c-.12-.01-.14-.07-.07-.17l1.06-1.32a.38.38 0 0 0 .09-.2.2.2 0 0 0-.08-.19c-.17-.17-.32-.17-.45-.02-.44.54-.78.95-1 1.24-.4.52-.23 1.16.46 1.18a.12.12 0 0 1 .11.14v.06c-.02.06.01.1.08.13.36.11.61.08.75-.1 1.12-1.41 2.69.56 1.22 1.16a.2.2 0 0 1-.16 0l-.19-.08c-.2-.08-.24-.03-.14.16l.13.23c.03.05.04.1.02.17-.09.36-.3.6-.62.7a.67.67 0 0 1-.62-.13l-.31-.26c-.18-.14-.16-.2.07-.17.3.03.51-.1.64-.37.25-.55.09-.92-.48-1.1Zm-.48 1.04c-.12-.11-.11-.32.02-.47.14-.15.34-.18.46-.07.12.1.1.32-.03.46-.13.15-.33.18-.45.08ZM15.46 35.4a1.03 1.03 0 0 0-.57-.44.26.26 0 0 0-.28.09l-.24.3a.34.34 0 0 1-.5.03c-.19-.18-.23-.37-.13-.57.25-.49 1.08-.42 1.42-.14.4.32.66.6.75.83.16.4.55 1.09 1.04.93a.37.37 0 0 0 .26-.3c.02-.08 0-.1-.07-.05-.28.18-.55.13-.8-.14-.35-.38-.7-1.1.03-1.3.26-.08.52.04.78.36a.05.05 0 0 0 .08-.01c.08-.18.21-.31.42-.4.82-.36 1.67 1.4.35 1.56-.08.01-.14-.02-.16-.11-.03-.09 0-.14.08-.17l.14-.04c.08-.03.12-.08.1-.17-.04-.37-.19-.56-.45-.56a.27.27 0 0 0-.28.25c0 .04 0 .09.02.13.3.67 0 1.5-.84 1.32-.07-.01-.1.01-.1.09.02.8-.66 1.27-1.37 1.1-1.48-.36-1.52-2.94.27-2.52.07.01.08 0 .05-.07Zm1.53.4c-.12.07-.3 0-.42-.18s-.12-.39 0-.46c.11-.08.3 0 .42.18.11.17.11.38 0 .46Zm-1.1 1.52c-.27.19-.72.03-.97-.36-.26-.38-.24-.85.04-1.05.28-.19.72-.03.98.36s.24.86-.04 1.05Zm-1.05 1.14a1.56 1.56 0 0 1-1.18-.78c-.28-.44-.39-.89-.23-1.4a.7.7 0 0 1 .23-.3l.11-.12c.2-.24.15-.3-.13-.17-.96.44-1.1 1.5-.54 2.36.55.86 1.57 1.16 2.37.45.23-.2.2-.27-.1-.19l-.16.06c-.1.05-.23.1-.37.09Zm5.76 1.07-.04-.06c-.04-.06-.02-.09.05-.1h.34c.46.02.97.03 1.2-.28.03-.04.05-.1.04-.16-.04-.4-.38-.5-.75-.35l-.14.07c-.42.18-1.1.5-1.36.32a.17.17 0 0 1-.08-.18l.08-.59a.36.36 0 0 0-.26-.4c-.18-.05-.33.02-.44.19-.36.55.39 1.2.78 1.54l.01.01c.53.46.66 1.06.08 1.55-.4.36-.8.3-1.15-.2a.18.18 0 0 1-.02-.2l.14-.29v-.06l-.05-.05a.13.13 0 0 0-.2.02c-.32.47-.97-.06-1.06-.43a.34.34 0 0 1 .48-.39l.31.16a.26.26 0 0 0 .22 0c.05-.02.09-.04.1-.07a.28.28 0 0 0 .05-.17.21.21 0 0 0-.08-.15l-1.07-.8c-.1-.08-.2-.07-.28.03l-.08.1a.19.19 0 0 0-.04.14.2.2 0 0 0 .07.13l.32.25a.07.07 0 0 1-.02.12c-1.2.47-.62 1.91.52 1.9.07 0 .1.04.12.1.04.29.19.51.43.67.48.3 1.08.09 1.45-.32.37-.42.57-.9.59-1.45 0-.22-.13-.42-.26-.6Zm17.7.36a1.49 1.49 0 0 0-1.28-1.11 1.58 1.58 0 0 0-1.16.33 1.65 1.65 0 0 0-.62 1.05 1.54 1.54 0 0 0 .3 1.14 1.48 1.48 0 0 0 1.02.57 1.58 1.58 0 0 0 1.16-.33 1.65 1.65 0 0 0 .62-1.04c.03-.2.02-.41-.03-.6Zm-.84-.4c.32.4.24 1.02-.2 1.37-.43.35-1.04.31-1.36-.1-.33-.4-.24-1 .19-1.36.43-.35 1.04-.3 1.37.1Zm-15.58.86c.03.08 0 .11-.08.12-.8.02-1.02 1.12-.26 1.47l.35.15c.38.16.69.3.86.6a.32.32 0 0 1-.1.4c-.57.43-1.22-.25-1.29-.82-.07-.5-.87-.51-.78.17.02.13.09.25.2.37.47.48 1.04.73 1.71.75.42.01.71-.06.87-.24.4-.42.42-.81.05-1.16-.24-.22-.52-.34-.8-.45-.25-.1-.5-.2-.72-.38a.28.28 0 0 1-.1-.28.28.28 0 0 1 .2-.22c.43-.1.84.17 1.03.58.06.13.13.24.2.34.07.1.2.15.39.16l.09-.03c.2-.07.25-.2.16-.38-.1-.2-.24-.4-.45-.56a.08.08 0 0 1-.03-.09.08.08 0 0 1 .06-.06l1.19-.36a.35.35 0 0 0 .25-.35c0-.06-.02-.1-.04-.15l-.04-.09a.42.42 0 0 0-.6-.16c-.1.06-.21.16-.33.26-.3.25-.66.54-1.05.64a.24.24 0 0 1-.27-.13.24.24 0 0 1-.02-.1v-.52a.33.33 0 0 0-.25-.31.32.32 0 0 0-.14 0c-.38.05-.47.33-.26.83Zm4.61.96c.33-.04.53-.2.62-.49.02-.05.05-.06.08 0l.07.11a.02.02 0 0 1 0 .02c-.28.72-1.08.77-1.69.44-.06-.04-.12-.03-.18.02l-.06.06c-.03.12 0 .2.1.25.5.26 1.02.29 1.56.08.82-.32.73-1.3-.04-1.59-.45-.16-1.6-.2-1.55.59.03.46.77.56 1.09.51Zm.28-.6c0 .15-.16.26-.36.26-.19 0-.34-.13-.34-.27s.16-.25.36-.25c.19 0 .34.13.34.27Zm1.9 2.68a.52.52 0 0 1-.13.24c-.25.28-.57.34-.95.17a.2.2 0 0 1-.1-.1c-.06-.15-.08-.3-.1-.44-.02-.15-.03-.3-.1-.43-.38-.81-1.7-.62-2 .25-.18.55-.13 1.5.67 1.48a.34.34 0 0 0 .33-.34.34.34 0 0 0-.05-.16 2.4 2.4 0 0 0-.14-.22c-.12-.17-.24-.35-.23-.54.04-.6.5-.78.97-.41a.2.2 0 0 1 .08.14c.02.16-.01.3-.05.46-.04.19-.08.37-.01.55.11.33.33.52.64.57 2.17.37 1.91-3.05.39-2.97-.11.01-.18.09-.21.24v.05c-.02.18.06.28.24.3.65.09.9.47.74 1.16Zm4.7.1.07-.19c.03-.08.07-.09.14-.03.64.57 1.55.06 1.63-.73.1-.97-.25-1.63-1.07-2-.17-.07-.4-.05-.71.06a.2.2 0 0 0-.13.25l.03.1c.03.09.09.13.18.1l.14-.02c.25-.05.45-.1.65.02.88.49.5 1.95-.64 1.65a.14.14 0 0 1-.11-.11l-.02-.05c-.17-.63-.3-1.1-.96-1.39-.05-.02-.07-.06-.05-.11.2-.43.18-.76-.02-1-.22-.26-.47-.35-.75-.26l-2.06.64c-.2.06-.27.2-.2.4 0 .04 0 .08.02.1.02.04.05.07.08.09.04.02.08.03.13.03l.13-.01 2.07-.63a.24.24 0 0 1 .3.16l.04.13c.02.06.01.13-.02.2-.04.05-.1.1-.17.12l-1.36.42a.17.17 0 0 0-.12.16l.01.07c.04.11.12.15.24.13l.42-.13a2.5 2.5 0 0 1 1-.18c.67.1 1.07 1.1.51 1.56-.45.37-.73.03-1.01-.32a1.55 1.55 0 0 0-.5-.46 1.1 1.1 0 0 0-1.17.16c-1.03.78-.1 2.54 1.2 1.98.19-.08.35-.25.48-.52.03-.06.07-.07.13-.03l.25.15a.1.1 0 0 0 .05.02c.42.05.78-.08 1.07-.39a.44.44 0 0 0 .1-.13Zm-1.98-.37c.02.33-.25.61-.6.63-.36.02-.66-.24-.68-.57-.02-.33.26-.61.61-.63.36-.02.66.24.67.57Zm-8.18 1.08c-.46.45-1.13.23-1.67.01s-1.17-.54-1.18-1.18c0-.07-.04-.1-.1-.12-.08-.02-.13.01-.16.1-.33.81.53 1.51 1.2 1.79.68.28 1.77.38 2.11-.44.03-.08.02-.14-.05-.18-.05-.03-.1-.03-.15.02Z" fill="#EE1C25"/></svg>