<!-- by TradingView --><svg width="56" height="56" viewBox="0 0 56 56" xmlns="http://www.w3.org/2000/svg"><path fill="#F0F3FA" d="M0 0h56v56H0z"/><path d="M45.77 22.44c-1.82 5.17-3.66 10.34-5.5 15.5-1.5 4.22-4.31 5.8-8.42 4.74-1.5-.39-2.69-1.44-3.55-3.15-.24-.5-.48-.49-.7 0a5.58 5.58 0 0 1-4.23 3.26 6.41 6.41 0 0 1-5.15-1.03c-1.13-.79-2.22-2.66-3.28-5.6-1.7-4.7-3.3-9.4-4.8-14.15-.79-2.5 1.88-6.87 5.69-7 1.12-.04 2.2.26 3.23.9 1.07.68 2 1.66 2.75 2.95.35.6.61.55.8-.11a5.17 5.17 0 0 1 5.14-3.73c2.84-.01 4.62 1.37 5.77 3.91.2.44.4.44.62.01a7.25 7.25 0 0 1 2.71-3.1 5.61 5.61 0 0 1 3.41-.82c3.97.3 6.54 4.5 5.51 7.42ZM22.6 29.87c-.34 1.09-.66 1.09-.98 0L19 21c-.5-1.7-1.58-2.37-3.24-2.01l-.4.1c-.6.2-1.03.58-1.31 1.16a2.32 2.32 0 0 0-.13 1.8c1.68 5.1 3.38 9.99 5.1 14.63.8 2.14 2.2 2.87 4.21 2.2a2.82 2.82 0 0 0 1.86-1.93l2.56-8.21c.18-.58.37-.59.56-.01.83 2.5 1.62 5.05 2.38 7.69.24.83.65 1.49 1.23 1.98a3.02 3.02 0 0 0 3.7.23 3.65 3.65 0 0 0 1.35-1.84c1.85-5.14 3.57-10.1 5.17-14.85.26-.8.12-1.49-.43-2.09a2.87 2.87 0 0 0-1.53-.87c-1.63-.34-2.69.32-3.17 1.98l-2.49 8.49c-.42 1.46-.85 1.46-1.28 0-.82-2.82-1.67-5.64-2.53-8.46-.45-1.43-1.4-2.1-2.86-2.04-.54.03-1.04.21-1.48.56-.43.35-.74.8-.91 1.34l-2.76 9.02Z" fill="#323B43"/></svg>