<!-- by TradingView --><svg width="56" height="56" viewBox="0 0 56 56" xmlns="http://www.w3.org/2000/svg"><path fill="#FAF5C3" d="M0 0h56v56H0z"/><path d="M36.94 36.45c-.16.07-.16.13.01.18a70.7 70.7 0 0 1 2.27.75c.66.24 1.23.51 1.73.8l.03.06c0 .02 0 .04-.02.06a.16.16 0 0 1-.14.04 13.02 13.02 0 0 0-4.77-.08c-1.86.32-3.49.52-4.9.58-1 .04-2.1-.03-3.3-.23a9.22 9.22 0 0 1-4.22-1.76.13.13 0 0 0-.12-.02.12.12 0 0 0-.09.08 16 16 0 0 1-4.83 6.98.45.45 0 0 1-.48.07 2.55 2.55 0 0 1-.95-.79 4.16 4.16 0 0 1-.6-1.08.36.36 0 0 1-.01-.26.36.36 0 0 1 .17-.2 12 12 0 0 0 5.18-5.66c.03-.07.01-.12-.05-.17-.94-.68-1.63-1.2-2.08-1.56a19.75 19.75 0 0 1-4.5-5.1c-1.25-2.05-2-4.16-2.27-6.33 0-.08.03-.13.1-.17.05-.02.1-.02.15.01.07.04.11.09.14.15.23.57.52 1.09.88 1.56.05.08.12.1.21.09a.2.2 0 0 0 .17-.15c.32-1 .94-1.74 1.87-2.24.08-.04.1-.1.1-.18a5.66 5.66 0 0 1 1.1-4.51 5.12 5.12 0 0 1 2.42-1.72c1-.35 1.99-.42 2.98-.2.1.02.18-.01.25-.1a8 8 0 0 1 4.96-3.22 6.93 6.93 0 0 1 2.47-.04 6.65 6.65 0 0 1 3.93 2.3 7.7 7.7 0 0 1 1.23 2.12c.03.06.07.1.14.13.08.04.22.07.42.1l.26.04a4.17 4.17 0 0 1 3.38 3.88 10.76 10.76 0 0 1-.01 1.13c0 .07.03.13.08.18a4.7 4.7 0 0 1 1.73 3.1 3.9 3.9 0 0 1-.4 2.38c-.31.57-.85 1.18-1.6 1.82a.18.18 0 0 0-.06.22 5.37 5.37 0 0 1-2.95 6.96Z" fill="#070709"/><path d="M21.56 20.51c-.37.4-.67.98-.92 1.75a8.5 8.5 0 0 0-.39 1.9c-.2 2.34.17 4.6 1.08 6.76.13.3.09.33-.14.09-.45-.5-.93-.97-1.45-1.42a5 5 0 0 1-1.2-1.76 20.42 20.42 0 0 1-.9-2.64c-.01-.03-.03-.04-.05-.04h-.1c-.04 0-.05.03-.04.06.18 1.04.46 1.97.84 2.81.14.31.08.36-.2.15-1-.77-1.9-1.62-2.72-2.54a.78.78 0 0 1-.2-.67 3.3 3.3 0 0 1 1.39-2.28.11.11 0 0 1 .1-.02c.03 0 .06.03.07.06l.38.7c.02.04.04.06.08.08.03.02.07.02.1 0 .08-.02.11-.07.1-.15a8.5 8.5 0 0 1 .04-4.16 4.65 4.65 0 0 1 4.63-3.23c.6.01 1.23.11 1.86.3.22.06.23.14.03.25-.69.36-1.26.93-1.7 1.7a.25.25 0 0 0-.03.16c0 .06.04.1.1.12.05.03.1.02.15-.02.16-.12.38-.32.65-.61.3-.31.54-.54.72-.67a7.54 7.54 0 0 1 3.24-1.26c.04 0 .06-.02.07-.06a.08.08 0 0 0-.01-.09l-.05-.05a.2.2 0 0 0-.17-.08c-.56.02-1.13.11-1.7.28-.15.04-.32.05-.49.02-.1-.02-.25-.07-.45-.15a7.2 7.2 0 0 0-.28-.1c-.1-.03-.12-.1-.05-.18a8 8 0 0 1 3.36-2.55 6.03 6.03 0 0 1 4.12-.13 6.18 6.18 0 0 1 3.96 3.67c.04.09.01.14-.09.16l-.49.07c-.05.01-.09.04-.11.1l-.03.05v.06c.01.02.03.03.05.03 1.48.05 2.65.4 3.5 1.05.96.74 1.43 1.8 1.42 3.21 0 .27-.04.58-.11.91l-.24.9.01.1.08.04c.05 0 .1-.01.14-.07a.54.54 0 0 0 .08-.1l.25-.4a.13.13 0 0 1 .2-.03 4.37 4.37 0 0 1 1.27 2.32c.09.45.09.89.02 1.31-.08.45-.24.86-.48 1.24a5.13 5.13 0 0 1-2.48 2.07c-.68.33-.64.43.1.3l.55-.15c.17-.05.28 0 .33.18.23.7.32 1.41.26 2.1a4.56 4.56 0 0 1-1.87 3.33c-.57.42-1.22.71-1.95.89-.25.06-.52.05-.81-.04-1.14-.32-2.37-.5-3.67-.55-.27-.01-.53-.04-.78-.09-.12-.02-.13-.06-.02-.12.09-.05.23-.08.43-.1.13 0 .22-.02.29-.04 1.17-.33 2.12-.64 2.86-.95 1.01-.42 1.87-.91 2.58-1.47.04-.03.05-.07.04-.12a.09.09 0 0 0-.06-.06.09.09 0 0 0-.08 0 25.56 25.56 0 0 1-5.51 2.22c-.14.05-.25.06-.33.04a.05.05 0 0 1-.04-.06c0-.02 0-.04.03-.05a13.83 13.83 0 0 0 3.16-2.8c.4-.49.85-1.05 1.32-1.69a99.1 99.1 0 0 0 1.62-2.31c.15-.2.39-.5.72-.86l.49-.55c.03-.03.03-.07 0-.1-.01-.04-.04-.06-.09-.05a1.35 1.35 0 0 0-.42.12c-1.15.52-2 .92-2.55 1.2-.9.48-1.71.98-2.43 1.5a60.3 60.3 0 0 0-3.56 2.8l-.04-.05c-.05-.05-.04-.1 0-.14a31.85 31.85 0 0 0 2.18-2.24c.7-.86 1.36-1.84 1.95-2.94.06-.1.03-.13-.08-.1a.32.32 0 0 0-.17.13 33.33 33.33 0 0 1-4.78 5.48c-.23.21-.27.18-.1-.09a13.6 13.6 0 0 0 1.8-5.94c.08-.95.11-1.68.1-2.19 0-.8-.08-1.5-.23-2.09a.3.3 0 0 0-.18-.2.18.18 0 0 0-.16 0 .2.2 0 0 0-.12.15 8.57 8.57 0 0 1-1.27 3.22 72.81 72.81 0 0 1-2.1 3.02c-1.1 1.5-2 3.16-2.7 4.97a.07.07 0 0 1-.06.05c-.03 0-.06-.01-.07-.04-.6-.87-1.07-1.83-1.43-2.89-.71-2.06-1-4.07-.87-6.01a8.9 8.9 0 0 1 1.03-3.55c.18-.34.14-.37-.13-.09Z" fill="#fff"/><path d="M28.5 27.32a25.48 25.48 0 0 1-2.22 4.4 35.22 35.22 0 0 1-2.98 4.02.95.95 0 0 0-.18.34c-.03.07-.05.2-.07.35-.03.22-.07.38-.11.49a17.85 17.85 0 0 1-4.57 6.33c-.27.24-.52.22-.74-.07l-.44-.57c-.23-.28-.19-.52.12-.72 1.98-1.3 3.51-3 4.59-5.12.1-.22.3-.52.56-.92.14-.2.24-.36.3-.47.12-.17.2-.36.24-.55.25-1.12.65-2.2 1.18-3.28.35-.7.8-1.48 1.36-2.33.33-.51.84-1.27 1.54-2.28.55-.79.95-1.38 1.2-1.77.36-.54.68-1.12.97-1.75.16-.35.23-.33.21.05a52.1 52.1 0 0 1-.15 2.03l-.06 1c-.06 1.25-.5 2.78-1.32 4.58a11.08 11.08 0 0 1-3.85 4.5l-.02-.04c0-.11.05-.2.12-.29 1.37-1.6 2.6-3.49 3.7-5.65.36-.72.63-1.47.82-2.25 0-.03 0-.04-.03-.05l-.09-.03c-.04-.01-.07 0-.09.05Z" fill="#42B250"/><path d="M15.03 26.9a14.6 14.6 0 0 0 1.98 3.26 30.14 30.14 0 0 0 3.88 4.08c.08.06.1.14.06.24l-.02.05c-.01.02-.03.04-.05.04h-.06a22.27 22.27 0 0 1-5.76-6.54 10.3 10.3 0 0 1-.82-1.8l-.6-1.8c-.14-.48-.07-.51.21-.1a17.4 17.4 0 0 0 2.1 2.45c.63.62 1.47 1.36 2.5 2.23a40.48 40.48 0 0 1 2.74 2.6c.53.52 1.02 1.13 1.46 1.81.11.17.16.4.15.7-.01.17-.05.44-.13.8l-.1.47a.1.1 0 0 1-.06.08.1.1 0 0 1-.1-.02c-.23-.22-.56-.56-.98-1.01-.46-.5-.8-.86-1.06-1.1-1.04-.98-2.01-2-2.91-3.09a21.61 21.61 0 0 1-2.35-3.4c-.01-.02-.03-.02-.05-.01-.03.01-.04.04-.03.07ZM34.26 29.67a.35.35 0 0 0-.1.15 16.4 16.4 0 0 1-4.06 3.4c-1.2.73-2.78 1.5-4.72 2.3-.63.26-.68.18-.14-.24.39-.3.75-.65 1.06-1.03.26-.3.54-.53.86-.7a18.51 18.51 0 0 0 2.79-1.8 62 62 0 0 1 3.7-2.8c.85-.58 1.78-1.09 2.8-1.5.04-.03.08-.01.1.04.02.06.01.12-.02.17l-.4.49c-.32.4-.55.7-.69.91a18.37 18.37 0 0 1-5.03 5.5 9.03 9.03 0 0 1-4.99 1.66.1.1 0 0 0-.08.04l-.18.27c-.02.02-.02.04.02.04 1.15.02 2.2-.15 3.15-.51.44-.17.8-.24 1.06-.23 3.2.22 6.25.8 9.16 1.74.41.14.4.2-.03.18h-.08c-.48-.02-.83-.03-1.07-.02-.4 0-.75.04-1.08.1-1.83.33-3.6.52-5.34.57-2 .05-3.91-.25-5.7-.91a.08.08 0 0 1-.06-.05v-.06l.04-.06c.05-.09.12-.12.22-.1.9.22 1.81.35 2.75.4 1.46.09 2.9.14 4.33.17.58.01 1.14-.03 1.7-.12.7-.13.69-.2-.02-.2-1.43-.02-2.8-.06-4.14-.1a48.23 48.23 0 0 1-4.57-.46.48.48 0 0 1-.31-.16.22.22 0 0 0-.18-.08c-.43.03-.78-.08-1.07-.3a.09.09 0 0 1-.04-.1.09.09 0 0 1 .08-.07 12.4 12.4 0 0 0 1.78-.44c3.37-1.11 6.2-3 8.47-5.65.1-.1.14-.24.15-.39 0-.1-.03-.12-.12-.05Z" fill="#42B250"/></svg>