<!-- by TradingView --><svg width="56" height="56" viewBox="0 0 56 56" xmlns="http://www.w3.org/2000/svg"><path fill="url(#a)" d="M0 0h56v56H0z"/><path d="M28.7 16.59a8.31 8.31 0 0 0-4.13 3.23c-.67 1.05-.63 1.96.1 2.72.53.54 1.57.94 3.13 1.21 1.6.28 2.88.55 3.84.81.94.26 1.64.66 2.11 1.2.56.64.69 1.4.39 2.28a7.06 7.06 0 0 1-2.42 3.04 28.89 28.89 0 0 1-7.14 4.16 81.06 81.06 0 0 1-3.7 1.47l-5.33 1.67A79.5 79.5 0 0 1 7.62 40c-.04 0-.05-.01-.04-.05l.02-.06c1.86-.35 3.88-.82 6.07-1.42 3.58-1 6.91-2.3 10.02-3.95a19.41 19.41 0 0 0 4.74-3.45c.4-.4.74-.82 1-1.27.67-1.18.62-2.15-.15-2.92a5.83 5.83 0 0 0-2.9-1.3 30.43 30.43 0 0 1-3.16-.8c-1.73-.6-2.36-1.56-1.89-2.88.23-.64.56-1.2 1-1.64.99-.99 2.24-1.9 3.77-2.74L31.96 15c.02 0 .02-.01 0 0a.12.12 0 0 0-.1.05.23.23 0 0 1-.1.08l-3.05 1.45Z" fill="#fff"/><path d="M28.7 16.59c-.14.27-.2.5-.14.7-.52.03-.92.26-1.21.7-.51.77-.82 1.26-.93 1.45-.49.91-.48 1.7.01 2.36.29.4.89.73 1.8 1.02.84.26 1.75.47 2.74.64.94.15 1.57.27 1.88.36 1.03.3 1.8.63 2.3 1 .71.51 1.08 1.2 1.1 2.05.02.33-.1.75-.36 1.27-.22.44-.48.83-.76 1.15a16.5 16.5 0 0 1-4.12 3.37 31.39 31.39 0 0 1-4.65 2.28c-.16.06-.15.2.04.42a2.3 2.3 0 0 0-1.09.08c-2.07.9-4.26 1.69-6.56 2.34-.24.07-.44.11-.59.13a.44.44 0 0 0-.22.1.5.5 0 0 1-.45.1.4.4 0 0 0-.25 0c-.55.21-1.12.3-1.7.27l5.34-1.67c.41-.13 1.64-.62 3.7-1.47a28.88 28.88 0 0 0 7.14-4.16 7.06 7.06 0 0 0 2.42-3.04c.3-.88.17-1.64-.39-2.28a4.12 4.12 0 0 0-2.1-1.2c-.98-.26-2.26-.53-3.85-.8-1.56-.28-2.6-.68-3.12-1.22-.74-.76-.78-1.67-.1-2.72a8.31 8.31 0 0 1 4.13-3.23Z" fill="#921D78"/><path d="M28.56 17.3c3.36.22 5.94 1.57 7.72 4.06a8.31 8.31 0 0 1 1.58 5.5 8.35 8.35 0 0 1-2.25 5.28 10.19 10.19 0 0 1-6.03 3.18 14 14 0 0 1-3.18.04c-.18-.22-.2-.36-.04-.42a31.37 31.37 0 0 0 4.65-2.28 16.5 16.5 0 0 0 4.13-3.37c.28-.32.53-.7.75-1.15.26-.52.38-.94.37-1.27a2.51 2.51 0 0 0-1.11-2.06c-.5-.36-1.27-.69-2.3-.99-.31-.09-.94-.2-1.88-.36-.99-.17-1.9-.38-2.74-.64-.91-.3-1.51-.63-1.8-1.02-.5-.66-.5-1.45 0-2.36.1-.2.4-.68.92-1.46.29-.43.69-.66 1.2-.68Z" fill="#CF2D79"/><path d="M26.1 17.52a16.18 16.18 0 0 0-3.76 2.74c-.45.45-.78 1-1 1.64-.48 1.32.15 2.28 1.88 2.88.63.22 1.68.48 3.16.8 1.34.29 2.31.72 2.9 1.3.77.77.82 1.74.14 2.92-.25.45-.58.87-.99 1.27a19.41 19.41 0 0 1-4.74 3.45 9.3 9.3 0 0 1-4.38-3.8 8.48 8.48 0 0 1 1.36-10.46 9 9 0 0 1 5.43-2.74Z" fill="#921D78"/><path d="M32.68 35.57c.84-.5 1.71-1.13 2.6-1.93.53-.47 1.26-1.2 2.2-2.16l.04-.04c1.73-1.78 3.6-2.72 5.58-2.83.93-.05 1.87.03 2.82.23.1.03.1.05 0 .08a6.66 6.66 0 0 0-3.28 2.14c-.77.88-1.62 1.72-2.56 2.54-1.77 1.55-4.23 2.27-7.37 2.15-.06 0-.09-.03-.09-.08 0-.04.02-.08.06-.1Z" fill="#A5CD46"/><path d="m7.22 31.32 1.86-.49a8.91 8.91 0 0 1 6.8 1.05c2.19 1.27 3.3 1.9 3.33 1.93.88.5 1.82.77 2.82.81.3.02.3.08.03.2-.98.37-1.9.63-2.76.77a7.9 7.9 0 0 1-3.88-.34 24.1 24.1 0 0 1-4.04-2 13.59 13.59 0 0 0-2.77-1.28c-.6-.15-1.07-.28-1.4-.4-.28-.09-.28-.17 0-.25ZM38.78 35.18c-2.74 2.11-5.57 2.98-8.49 2.6l-.86-.12c-1.49-.2-2.6-.31-3.32-.32a9.13 9.13 0 0 0-4.34.96c-.03.01-.05 0-.07-.02-.01-.02 0-.05.02-.06a11.04 11.04 0 0 1 8.25-2.31l.61.07c1.64.18 2.85.26 3.61.25a9.14 9.14 0 0 0 3.35-.62l1.18-.53c.33-.15.36-.12.06.1Z" fill="#2E6882"/><defs><linearGradient id="a" x1="10.42" y1="9.71" x2="68.15" y2="76.02" gradientUnits="userSpaceOnUse"><stop stop-color="#1A1E21"/><stop offset="1" stop-color="#06060A"/></linearGradient></defs></svg>