<!-- by TradingView --><svg width="56" height="56" viewBox="0 0 56 56" xmlns="http://www.w3.org/2000/svg"><path fill="#F0F3FA" d="M0 0h56v56H0z"/><path d="M27.64 18c-1.44.05-2.81.29-4.11.71-.17.06-.17.11 0 .17 1.3.43 2.7.67 4.17.7.04 0 .06-.01.06-.04V18.1a.1.1 0 0 0-.03-.07.11.11 0 0 0-.09-.03Zm4.8.91c.24-.07.24-.15 0-.22-1.4-.43-2.77-.66-4.14-.69-.03 0-.05.02-.05.05v1.46c0 .02 0 .04.03.06a.1.1 0 0 0 .07.02c1.4-.05 2.76-.27 4.09-.68Zm-4.75 2.55c-1.22-.02-2.4-.15-3.53-.36a15.5 15.5 0 0 1-3.3-1 .08.08 0 0 1-.05-.07c0-.04.01-.06.04-.08l1.66-.87c.1-.05.2-.06.3-.02a14.47 14.47 0 0 0 4.92.98c.02.01.03.03.03.05v1.32c0 .04-.03.06-.07.05Zm5.58-2.41-.68.23c-1.27.44-2.68.68-4.24.73-.07 0-.1.04-.1.1v1.26c0 .06.03.09.1.09a18.6 18.6 0 0 0 6.82-1.36c.03-.01.04-.03.05-.05 0-.03-.01-.05-.04-.07-.58-.34-1.16-.66-1.77-.93a.18.18 0 0 0-.14 0Zm-12.83 1.34a19.2 19.2 0 0 0 7.28 1.5c.02 0 .04 0 .04.03v1.05c0 .02-.02.03-.04.03a33597.7 33597.7 0 0 1-9.68-.02.06.06 0 0 1-.04-.04v-.05a9 9 0 0 1 2.22-2.47.2.2 0 0 1 .22-.03Zm15.01.03a4 4 0 0 1-.52.24 19.51 19.51 0 0 1-6.63 1.22c-.03 0-.05.02-.05.05v1.04c0 .02.01.03.03.03h9.62a.1.1 0 0 0 .08-.04.07.07 0 0 0 0-.09 8.69 8.69 0 0 0-2.08-2.37.58.58 0 0 0-.2-.12.32.32 0 0 0-.25.04Z"/><path fill-rule="evenodd" d="M21.68 26.8c-.04-.2-.2-.34-.5-.4-.5-.08-.87-.18-1.13-.28-.43-.17-.7-.4-.81-.66a.83.83 0 0 1 .07-.8c.16-.25.4-.42.71-.5a3.77 3.77 0 0 1 1.7-.1c.32.06.56.17.75.33.22.17.35.4.4.68 0 .02 0 .04-.02.07a.1.1 0 0 1-.07.03l-1.07.04c-.07 0-.12-.03-.14-.09-.13-.32-.4-.44-.84-.37-.12.02-.2.08-.25.17a.2.2 0 0 0 0 .2c.04.07.1.12.19.13l.26.05c.33.07.58.12.75.17.3.07.54.16.74.26.5.27.7.64.6 1.12-.13.5-.46.83-1.01 1-.43.12-.97.14-1.61.07-.81-.1-1.28-.51-1.4-1.25 0-.02 0-.03.04-.04l1.22-.07c.03 0 .05.01.05.03.11.49.45.68 1.02.59.1-.02.19-.06.26-.13.08-.07.1-.16.1-.24Zm2.53.42c.08 0 .14 0 .2-.05.06-.04.1-.09.12-.15.06-.17.04-.32-.06-.43-.09-.1-.23-.17-.42-.19a2.9 2.9 0 0 1-.93-.24.25.25 0 0 1-.14-.16.22.22 0 0 1 .03-.21l.04-.05c.13-.19.22-.33.26-.43a.6.6 0 0 0-.04-.6.93.93 0 0 1-.1-.19.27.27 0 0 1 .02-.2c.06-.11.17-.19.32-.22.65-.12 1.2-.13 1.65-.03.58.13.95.44 1.09.93.03.12-.02.18-.16.19l-.95.02c-.1 0-.17-.04-.21-.13-.11-.26-.35-.38-.71-.35-.17.02-.28.08-.35.2a.2.2 0 0 0 0 .2c.03.07.1.11.18.13.42.08.82.17 1.21.28.45.11.77.3.98.57.23.3.25.64.08 1.02-.2.4-.56.67-1.09.8-.42.09-.91.1-1.48.01a.44.44 0 0 1-.28-.15.36.36 0 0 1-.1-.27l.01-.07c0-.07.04-.14.1-.18a.32.32 0 0 1 .23-.07l.5.02ZM28 24.68l-.14.15c-.05.05-.1.04-.14-.01a3.92 3.92 0 0 1-.37-.57.46.46 0 0 0-.34-.24c-.1-.01-.24 0-.44.01h-.03a.07.07 0 0 0-.05.03 195.5 195.5 0 0 1 .2 1.61c.02.1.05.18.1.27a2.4 2.4 0 0 0 .16.24c.17.25.2.54.05.9a.91.91 0 0 0-.05.38c0 .1.02.22.05.38.01.04.03.07.06.09l.1.04.79.03c.07 0 .11-.03.14-.09l.34-.75c.06-.13.16-.19.3-.18.12 0 .2.05.25.15l.33.74c.05.1.12.14.23.14h.89c.07 0 .1-.04.12-.1l.8-3.78c0-.07-.02-.1-.1-.1L31.2 24h-.38a.55.55 0 0 0-.32.18 66.65 66.65 0 0 0-.65.68l-.05-.01-.59-.48c-.15-.13-.36-.17-.64-.12-.1.01-.2.06-.31.15l-.27.27Zm9.1 1.92.76-.01c.1 0 .14.04.14.14l.01 1.08c0 .11-.05.17-.15.17l-1.28.02a.28.28 0 0 1-.24-.12l-.78-1.04a.2.2 0 0 1-.02-.23c.2-.37.3-.73.32-1.08l.08-1.43a.1.1 0 0 1 .03-.07.1.1 0 0 1 .06-.03h.88c.03 0 .05 0 .07.03a.1.1 0 0 1 .03.07v2.38c0 .08.02.12.1.12Zm-4.26.32-.3.9a.25.25 0 0 1-.1.13.27.27 0 0 1-.16.05h-.88c-.07 0-.1-.03-.1-.1-.04-.57-.01-1.12.06-1.67.03-.23.11-.5.24-.78.08-.17.2-.42.4-.76.14-.26.25-.45.3-.58a.14.14 0 0 1 .14-.09h.24c.62-.03 1.1-.02 1.42.02.58.08.92.27 1.03.57.14.36.12.7-.03 1.02-.16.31-.42.55-.79.71-.06.03-.09.08-.07.14.06.24.18.46.37.67.12.14.33.32.6.52.15.12.13.18-.07.18l-.96.02a.37.37 0 0 1-.33-.17 3.17 3.17 0 0 0-.44-.6.77.77 0 0 0-.45-.25c-.06-.01-.1.01-.12.07Zm-.06-1.83c0-.04.03-.06.08-.06h.56c.16 0 .3.03.4.09.12.06.18.14.18.22v.12c0 .09-.06.17-.17.23a.82.82 0 0 1-.4.1h-.57c-.05 0-.07-.02-.07-.06v-.64Z" fill="#ED161C"/><path d="M23.94 30.51c1.23-.24 2.48-.38 3.77-.4.02 0 .03-.01.03-.03l.01-1.05c0-.02 0-.03-.03-.03h-9.63a.09.09 0 0 0-.08.04.07.07 0 0 0 0 .08 8.48 8.48 0 0 0 2.22 2.48c.05.03.1.04.16.01 1.09-.47 2.27-.84 3.55-1.1Zm4.35-.4c2.66.05 5.1.55 7.32 1.5.05.03.1.03.14 0A8.14 8.14 0 0 0 38 29.1a.06.06 0 0 0 0-.07.08.08 0 0 0-.07-.04h-9.64c-.02 0-.04.01-.04.04v1.03c0 .03.02.04.05.04Zm-5.37 2.78a.67.67 0 0 1-.56-.03c-.54-.26-1.02-.53-1.44-.79-.14-.08-.14-.16.02-.22a19 19 0 0 1 6.7-1.3c.08 0 .11.02.11.09v1.23c0 .07-.04.1-.12.11-1.82.1-3.39.4-4.7.91Zm12.15-1.03a19.11 19.11 0 0 0-6.76-1.32c-.04 0-.07.02-.07.06v1.28c0 .03.01.05.04.07.02.02.05.04.08.04 1.66.04 3.25.34 4.77.91.1.04.2.05.31.02a47.96 47.96 0 0 0 1.64-.83c.15-.08.15-.16 0-.23Zm-6.7.55a13.29 13.29 0 0 1 4.23.79v.04a.17.17 0 0 1-.13.07 14.98 14.98 0 0 1-4.2.67.06.06 0 0 1-.03-.05v-1.42a.1.1 0 0 1 .04-.07.12.12 0 0 1 .09-.03Zm-2.82 1.39c.7.12 1.4.18 2.12.2.05 0 .08-.02.08-.07v-1.47c0-.03-.02-.04-.05-.04-1.49.03-2.9.27-4.25.74-.1.03-.1.07 0 .1a12 12 0 0 0 2.1.54Z"/><path fill-rule="evenodd" d="M19.36 15.77c.13-.54.41-.88.85-1.04.34-.12.82-.14 1.46-.06.06 0 .11 0 .16-.04.1-.08.19-.17.27-.27.21-.3.5-.49.86-.59.33-.09.68-.1 1.06-.01l.95.18c.11.01.2-.02.28-.1.24-.27.52-.45.85-.55.35-.1.7-.1 1.03.02l.62.23c.1.04.2.03.3-.02 1.43-.77 2.5-.68 3.23.27.05.06.1.08.17.05l.23-.1.35-.13c.14-.05.26-.07.37-.07.42-.01.78.08 1.1.28.31.2.57.47.77.84.05.1.12.16.23.2.1.03.2.03.3 0 .31-.12.65-.16 1.02-.13.42.03.73.17.92.4.24.29.47.58.7.9.07.09.16.15.27.18a4.2 4.2 0 0 1 1.47.61 2.44 2.44 0 0 1 .91 1.46c.02.2.08.38.17.55a.2.2 0 0 0 .11.09c.57.23.95.48 1.13.76a3.95 3.95 0 0 1 .64 2.55c0 .12.04.22.15.3.55.4.91.84 1.08 1.33.08.22.13.48.15.78v.95c-.01.13 0 .26.06.38.02.08.08.19.16.33.1.19.17.34.2.46.09.34.08.68-.03 1.02-.08.26-.24.56-.47.93-.1.15-.12.3-.07.45a2 2 0 0 1-.04 1.7c-.2.4-.61.83-1.21 1.3a.66.66 0 0 0-.26.46c-.12.98-.57 1.66-1.38 2.03-.13.06-.33.12-.6.19l-.3.08a.2.2 0 0 0-.1.06c-.13.18-.26.36-.37.54-.22.35-.55.6-1 .74-.38.13-.8.17-1.27.12-.09 0-.18.01-.26.06a.52.52 0 0 0-.2.19c-.24.37-.49.62-.74.75-.7.34-1.45.43-2.28.25a.33.33 0 0 0-.2.02.32.32 0 0 0-.14.12c-.23.35-.55.65-.95.92a.2.2 0 0 0-.1.16c0 .07.02.12.07.17.06.05.13.07.2.05.34-.05.66-.05.98-.02.15.01.31.06.48.16a4 4 0 0 1 .42.29c.18.14.31.23.41.29.16.09.32.14.48.16l.73.07c.14.02.3.08.46.2.1.06.23.19.4.36.24.22.42.37.55.43l.3.16c1.3.56 2.51 1.1 3.66 1.63.09.03.13.1.13.18 0 .17-.04.33-.1.5-.2.45-.4.92-.63 1.38a.25.25 0 0 1-.32.12c-1.31-.54-2.64-1.06-3.99-1.58a1.76 1.76 0 0 1-1.09-1.02.19.19 0 0 0-.1-.11.2.2 0 0 0-.16 0c-.94.45-1.74.24-2.41-.63a.32.32 0 0 0-.23-.13 8.23 8.23 0 0 0-.65-.03c-.38 0-.71-.12-1-.36-.18-.14-.42-.4-.7-.79a.2.2 0 0 0-.17-.08 5.6 5.6 0 0 1-1.88-.36.64.64 0 0 0-.34-.02.73.73 0 0 0-.31.13c-.44.34-.83.55-1.16.62-.38.09-.81.04-1.3-.15a.23.23 0 0 0-.17 0 .23.23 0 0 0-.12.1c-.39.64-.96.94-1.73.92a.46.46 0 0 0-.36.15l-.11.12a3.9 3.9 0 0 1-.3.3c-.12.1-.24.18-.37.23-.43.16-.77.29-1.02.36-1.75.56-3.39 1.11-4.91 1.66-.23.08-.38 0-.45-.22l-.63-2a.3.3 0 0 1 .02-.24c.04-.08.1-.13.19-.16 1.8-.66 3.62-1.34 5.46-2.04.16-.05.36-.15.62-.28.32-.17.57-.27.75-.31.28-.08.6-.08.92 0 .1.02.22.02.33 0 .05-.01.1-.04.12-.08l.41-.51a.17.17 0 0 0 .03-.19.99.99 0 0 0-.3-.4.24.24 0 0 0-.19-.05c-.29.04-.5.06-.65.04-.22-.01-.43-.09-.62-.22-.22-.14-.43-.3-.63-.45a.56.56 0 0 0-.39-.12l-.79.03a.9.9 0 0 1-.57-.23 3.49 3.49 0 0 1-.44-.45l-.02-.02a.32.32 0 0 0-.26-.12c-.34 0-.64-.04-.9-.13-.33-.1-.58-.27-.75-.5a6.74 6.74 0 0 1-.36-.52.2.2 0 0 0-.12-.08 2.64 2.64 0 0 1-1.15-.6c-.35-.32-.55-.7-.58-1.1a1.02 1.02 0 0 0-.11-.4.21.21 0 0 0-.17-.11 1.35 1.35 0 0 1-1.14-.87c-.17-.4-.2-.9-.11-1.49a.26.26 0 0 0-.12-.27 7.73 7.73 0 0 0-.42-.31c-.12-.1-.22-.21-.29-.32a1.54 1.54 0 0 1-.17-1.21c.05-.18.12-.39.21-.6l.28-.59.01-.01c.03-.06.04-.12.03-.19a.3.3 0 0 0-.08-.17c-.7-.72-.76-1.5-.22-2.35.07-.1.19-.24.36-.42.1-.1.18-.18.22-.24a.17.17 0 0 0 .03-.2 3.73 3.73 0 0 1-.3-.53 1.04 1.04 0 0 1-.1-.34c-.03-.4.04-.78.21-1.16.18-.41.44-.72.78-.91.18-.11.38-.22.59-.32a.34.34 0 0 0 .2-.31 2.1 2.1 0 0 1 .6-1.63c.4-.39.94-.63 1.62-.74a.27.27 0 0 0 .16-.08c.05-.05.07-.1.08-.16.05-.67.41-1.1 1.07-1.33.44-.14.88-.21 1.33-.21.03 0 .07-.01.1-.03a.14.14 0 0 0 .05-.09Zm11.48-.7a.3.3 0 0 1 .1.06c.06.05.05.08-.02.09-.19 0-.36-.01-.53-.06a1.01 1.01 0 0 1-.45-.25 1.38 1.38 0 0 0-.5-.32.24.24 0 0 1-.16-.16 1.8 1.8 0 0 0-.36-.63c-.1-.1-.07-.17.07-.2.3-.06.6-.06.91-.02.17.02.3.1.37.26.1.21.22.4.38.57.06.06.09.12.09.2v.3c0 .08.03.13.1.15Zm-4.54-.73c.1.1.14.23.12.37 0 .05.01.09.05.13.34.36.77.48 1.29.34.08-.02.1-.06.04-.13l-.11-.12a.17.17 0 0 1-.05-.12c0-.14-.04-.24-.15-.3-.3-.17-.48-.4-.55-.7-.02-.05-.05-.07-.11-.07-.32 0-.62.03-.9.12a.1.1 0 0 0-.07.08c0 .04 0 .08.04.1l.09.06c.15.1.26.18.31.24Zm7.39 1.55.02.1c.04.09 0 .11-.09.07a5 5 0 0 1-.88-.55.17.17 0 0 1-.08-.12c0-.14 0-.28.03-.44a.42.42 0 0 0-.09-.35 1.42 1.42 0 0 0-.28-.24 7.08 7.08 0 0 1-.1-.08c-.17-.12-.14-.19.05-.21.38-.05.76.06 1.14.3.05.03.08.08.08.14 0 .35.08.66.26.94.04.05.04.1.01.15l-.06.13a.2.2 0 0 0-.01.16Zm-9.1-.92h-.17c-.03 0-.06 0-.08-.03a.1.1 0 0 1-.04-.06l-.03-.21c0-.06-.03-.09-.09-.1a.61.61 0 0 1-.38-.29.2.2 0 0 0-.23-.1c-.32.05-.55.11-.68.19-.22.13-.28.33-.19.61a.1.1 0 0 0 .1.08c.35.02.72.14 1.1.37.43.25.85.23 1.26-.07.07-.05.06-.08-.03-.08a.56.56 0 0 1-.43-.26.13.13 0 0 0-.12-.05Zm-4.22.72a.31.31 0 0 0-.19-.05.16.16 0 0 1-.14-.07.11.11 0 0 1-.01-.12.16.16 0 0 1 .08-.09c.19-.08.38-.12.6-.13.06 0 .13.02.18.06.24.18.51.27.83.26.06 0 .1.02.1.08l-.01.1a.2.2 0 0 0 .07.23c.08.07.16.08.24.03.25-.11.45-.15.6-.1.15.04.16.11.05.21-.32.26-.71.43-1.18.5-.16.03-.28-.04-.36-.21-.04-.07-.1-.1-.18-.06a.32.32 0 0 1-.14.02c-.1 0-.12-.05-.06-.12a.3.3 0 0 0 .06-.23.12.12 0 0 0-.09-.1.12.12 0 0 0-.13.03c-.1.09-.22.16-.36.21-.07.03-.09 0-.06-.06a.55.55 0 0 1 .12-.18.13.13 0 0 0 .04-.11.13.13 0 0 0-.06-.1Zm-5.15 8.7c-.06.34-.18.69-.35 1.06a1 1 0 0 0-.1.37 1 1 0 0 0 .06.38c.17.5.21 1 .13 1.53-.03.21-.02.42.03.62.03.12.1.29.21.51.13.28.21.5.25.66.08.35.15.68.2 1.01.02.1.08.19.18.24.26.14.5.33.7.58a7.2 7.2 0 0 1 .54.78c.04.06.09.1.15.13.42.17.75.44 1 .8.04.08.11.13.2.17.08.03.17.04.26.03.29-.05.6.02.9.22a4.93 4.93 0 0 1 .9.8c.1.1.2.13.34.11.27-.03.58.02.9.17.2.09.46.25.8.48a.6.6 0 0 0 .28.1l.28-.01c.39-.05.73.02 1.03.2.28.17.5.43.69.78.06.12.17.17.3.14a1.53 1.53 0 0 1 1.5.37c.14.13.26.22.34.26.13.09.25.12.36.1.4-.09.8-.08 1.2.02.06.01.11 0 .16-.02.16-.07.3-.16.43-.27a2.3 2.3 0 0 1 1-.44c.36-.07.73-.08 1.13-.03.12.02.23-.01.31-.1l.36-.38c.3-.32.74-.53 1.34-.61.38-.06.89-.06 1.52-.02.22.01.4-.05.51-.2a2.84 2.84 0 0 1 1.83-.96c.18-.02.3-.05.39-.08a.49.49 0 0 0 .28-.25 2.5 2.5 0 0 1 1.84-1.38.31.31 0 0 0 .16-.1c.05-.04.07-.09.09-.15.07-.38.15-.66.22-.85.1-.3.26-.56.45-.77.21-.23.42-.46.6-.7.1-.1.14-.22.15-.36a12.81 12.81 0 0 1 .15-1.24c.1-.35.3-.66.58-.92a.34.34 0 0 0 .12-.25c0-.1-.03-.19-.1-.26a2.15 2.15 0 0 1-.55-.96 7.08 7.08 0 0 1-.21-1.48.38.38 0 0 0-.18-.3 2.53 2.53 0 0 1-1.19-1.63l-.37-1.66a.43.43 0 0 0-.28-.3c-.9-.37-1.5-.94-1.77-1.71a.33.33 0 0 0-.12-.16.33.33 0 0 0-.18-.07 22.54 22.54 0 0 0-.5-.05 1.1 1.1 0 0 1-.36-.12 4.81 4.81 0 0 1-.83-.64c-.2-.19-.44-.44-.72-.76a.29.29 0 0 0-.16-.1 5.3 5.3 0 0 0-.87-.1c-.32 0-.65-.1-.96-.29a4.53 4.53 0 0 1-.81-.64.23.23 0 0 0-.25-.06c-.97.32-1.87.2-2.7-.36a.24.24 0 0 0-.28 0c-.21.15-.42.28-.62.38-.2.1-.45.17-.74.2-.29.02-.55 0-.78-.08L26 15.6a.2.2 0 0 0-.13.01c-.1.04-.24.13-.41.25-.21.15-.38.24-.52.28-.4.11-.82.16-1.25.13a.72.72 0 0 0-.44.16c-.3.24-.6.43-.93.56a2 2 0 0 1-.52.13 6.83 6.83 0 0 1-.75.05.38.38 0 0 0-.34.22 2.2 2.2 0 0 1-1.54 1.23c-.18.03-.35.07-.53.12a.43.43 0 0 0-.29.24c-.16.34-.39.64-.67.9-.23.2-.54.42-.93.63a.18.18 0 0 0-.1.12l-.03.22c-.03.45-.17.87-.41 1.26-.2.3-.5.64-.9 1a.18.18 0 0 0-.06.17c.04.39.02.76-.04 1.11Zm21.4-7.58a.14.14 0 0 0-.11.06.14.14 0 0 0-.02.12l.17.62c.02.06 0 .08-.07.06a1.14 1.14 0 0 1-.58-.44c-.2-.3-.35-.55-.45-.78-.16-.37-.18-.64-.06-.8a.26.26 0 0 0 .06-.18l-.01-.14c0-.02 0-.04.02-.05a.06.06 0 0 1 .06-.02h.02c.3.06.5.13.64.19.22.1.36.25.42.45.02.06.02.12 0 .17-.1.26-.07.47.07.63.05.06.04.1-.04.1h-.12Zm-17 .21a.44.44 0 0 1-.24.04c-.06-.01-.1-.04-.1-.1l-.05-.21a.1.1 0 0 0-.05-.07.1.1 0 0 0-.08 0l-.19.07a.34.34 0 0 1-.35-.06c-.2-.16-.43-.14-.7.04a1.43 1.43 0 0 0-.49.58c-.01.03 0 .06.01.09.03.02.05.03.09.02l.36-.09c.06-.01.1 0 .12.06.05.1.08.21.1.34 0 .06.03.1.08.11.08.03.16.03.23.01h.14l.18.08a.9.9 0 0 0 .15.07.5.5 0 0 0 .2.01c.35-.04.64-.2.86-.46a.08.08 0 0 0 .02-.07.08.08 0 0 0-.04-.06c-.12-.07-.17-.17-.14-.3.03-.1-.01-.14-.11-.1Zm19.53 1.9c.03.17.07.35.13.54.02.05.02.11 0 .17-.02.06-.07.08-.13.06-.3-.1-.54-.27-.75-.48-.24-.26-.35-.52-.32-.79.02-.15 0-.3-.04-.44a.2.2 0 0 1 .02-.14c.14-.28.17-.58.08-.9 0-.03 0-.06.03-.08a.08.08 0 0 1 .08-.02c.3.12.57.29.8.51.27.27.4.54.37.82-.02.2 0 .39.05.57.03.07 0 .1-.08.1l-.13-.03c-.09-.02-.12.02-.1.1Zm-21.91.1a.72.72 0 0 0-.44-.14c-.1 0-.13-.05-.1-.14v-.07c-.02-.07-.06-.1-.13-.08-.24.03-.47.02-.7-.04a.26.26 0 0 0-.2.04c-.44.26-.7.64-.79 1.15-.01.08.02.1.1.07.05-.02.1-.05.15-.1.07-.06.15-.1.25-.1s.18.03.25.1l.18.14c.06.05.12.06.2.03.22-.1.46-.17.71-.2.48-.05.84-.32 1.07-.82v-.06a.07.07 0 0 0-.03-.03.07.07 0 0 0-.08 0l-.29.25c-.05.05-.1.05-.15 0Zm24.03 2.94c-.1.06-.14.15-.11.27.01.07 0 .14-.02.2a.9.9 0 0 0-.07.58c.07.3 0 .33-.2.1a2.52 2.52 0 0 1-.65-1.42c-.05-.44-.02-.98.1-1.6a.33.33 0 0 1 .09-.19.84.84 0 0 1 .16-.1l.12-.08c.05-.03.1-.03.15 0 .23.22.39.39.47.52.14.2.2.43.19.68a19 19 0 0 0-.01 1c0 .07-.03.1-.1.07a.1.1 0 0 1-.03-.02c-.03-.02-.06-.02-.09 0Zm-26.82.68.13-.18a.14.14 0 0 1 .14-.06c.06 0 .12.03.18.05a.2.2 0 0 0 .18 0c.21-.1.42-.31.61-.62.17-.27.28-.53.33-.77.03-.13-.01-.16-.12-.08a.46.46 0 0 0-.17.21.18.18 0 0 1-.12.11.19.19 0 0 1-.17-.03.34.34 0 0 0-.15-.06.15.15 0 0 0-.15.06c-.09.12-.2.15-.34.1a.26.26 0 0 0-.21-.01c-.15.06-.26.02-.33-.11a.29.29 0 0 0-.19-.14.28.28 0 0 0-.23.05c-.51.34-.77.8-.77 1.39 0 .14.07.26.2.35.07.06.2.12.38.2a.2.2 0 0 0 .16-.01.19.19 0 0 0 .1-.13c.07-.23.21-.33.43-.28a.1.1 0 0 0 .1-.04Zm27.97 2.63-.05.6c0 .05-.03.08-.08.1-.08.01-.14-.02-.2-.1-.13-.22-.19-.47-.17-.75.02-.24.1-.5.23-.76.16-.32.26-.65.31-.97 0-.04.03-.06.06-.07.03 0 .06 0 .08.03.23.3.4.7.52 1.2.03.15-.03.29-.2.42-.12.1-.27.18-.43.22-.04.01-.07.04-.07.08Zm-28.53-.15a.17.17 0 0 1 .18-.03c.07.02.14.04.21.04.07 0 .1-.03.12-.1.1-.31.18-.63.27-.96a.38.38 0 0 0-.02-.22.2.2 0 0 0-.08-.1c-.04-.03-.08-.02-.1.03-.06.16-.08.33-.08.5 0 .06-.02.1-.06.13a.25.25 0 0 1-.18.04c-.05 0-.1 0-.13.05l-.16.18a.17.17 0 0 1-.14.05.16.16 0 0 1-.13-.07l-.07-.1c-.07-.1-.11-.1-.14.02l-.01.08a.16.16 0 0 1-.12.12l-.43.14a.19.19 0 0 0-.1.09c-.16.26-.2.58-.1.98.03.14.11.18.25.1.2-.11.38-.24.56-.38.08-.06.16-.1.25-.14.13-.04.18-.14.15-.29a.16.16 0 0 1 .06-.16Zm.12 2.14-.03-.52a.2.2 0 0 1 .08-.18c.06-.05.12-.05.18-.02a.2.2 0 0 1 .1.13c.07.33.08.66.01.99a.19.19 0 0 1-.1.14c-.27.12-.5.37-.7.74-.14.23-.27.56-.42.98a.1.1 0 0 1-.08.07.1.1 0 0 1-.1-.04 1.71 1.71 0 0 1-.29-.58c-.07-.26-.03-.46.13-.58.36-.31.73-.6 1.1-.86a.3.3 0 0 0 .12-.27Zm28.19 1.38.9-.45c.06-.03.1-.08.12-.14l.23-.61a.23.23 0 0 0 0-.15.24.24 0 0 0-.09-.13.25.25 0 0 0-.3 0l-.88.66a.25.25 0 0 0-.06.07l-.25.42a.23.23 0 0 0 .04.28c.03.04.08.07.13.08.06 0 .1 0 .16-.03Zm-27.62.77a.57.57 0 0 1-.04-.23c0-.13.05-.14.12-.03.38.6.4 1.22.04 1.87-.2.36-.28.73-.25 1.11 0 .07-.02.1-.08.09-.24-.02-.44-.16-.58-.4a1.4 1.4 0 0 1-.18-.71c0-.05.03-.1.07-.12l.3-.18c.04-.03.06-.07.05-.13l-.07-.31c0-.05.01-.08.05-.1.24-.12.42-.3.55-.54.06-.1.07-.21.02-.32Zm27.1.92-.2.33a.15.15 0 0 1-.1.07.15.15 0 0 1-.1 0l-.22-.1a.13.13 0 0 0-.15.04c-.27.27-.45.6-.54 1-.01.03 0 .06.03.08.03.02.06.02.1 0 .29-.15.67-.2 1.14-.15.2.03.37-.02.54-.12.55-.38.86-.87.91-1.48.03-.3-.07-.34-.29-.13a.58.58 0 0 1-.3.12.78.78 0 0 0-.23.07c-.15.08-.3.14-.46.18a.2.2 0 0 0-.13.1Zm-25.59 2.13a.1.1 0 0 0-.1.03.1.1 0 0 0-.01.1c.04.13.11.25.2.35.08.09.06.13-.06.14-.18 0-.26.09-.24.25.03.35.19.65.47.89.04.03.06.07.06.12a.1.1 0 0 1-.06.09.18.18 0 0 1-.13.01 1.47 1.47 0 0 1-.72-.46c-.21-.27-.23-.53-.04-.8.18-.26.25-.52.2-.79a.44.44 0 0 1 .04-.25.7.7 0 0 0-.02-.61.1.1 0 0 1 .02-.13H15.76c.3.31.54.65.7 1.03 0 .03 0 .05-.02.07a.06.06 0 0 1-.06.02l-.29-.06Zm25.06.44a.3.3 0 0 1-.2.18c-.31.09-.57.02-.77-.21a.28.28 0 0 0-.16-.1c-.14-.02-.32 0-.53.06a2.59 2.59 0 0 0-1.09.69c-.14.15-.2.3-.2.42-.01.06.01.1.07.12.05.02.1.01.13-.03.26-.25.47-.35.63-.32.07.02.13.05.2.11l.15.2c.09.11.16.2.21.24.1.07.2.08.32.05a2 2 0 0 0 .8-.37c.16-.14.34-.37.53-.68.11-.18.15-.41.11-.7 0-.03-.01-.04-.04-.03h-.04c-.04.02-.06.04-.07.09v.01c-.01.13-.03.22-.05.27Zm-23.36 1.96c.14.1.2.23.2.4-.02.08.02.14.09.19.05.03.08.07.1.13.07.13.03.17-.11.14a1.7 1.7 0 0 1-.78-.46.44.44 0 0 1-.13-.35c0-.1.03-.22.08-.37.01-.02.02-.04.05-.05a.1.1 0 0 1 .07 0c.05.01.1 0 .15-.03a.13.13 0 0 0 .04-.14 2.7 2.7 0 0 0-.45-1.03c-.09-.12-.07-.23.05-.33a.2.2 0 0 1 .13-.04c.05 0 .1 0 .13.04.47.34.62.76.46 1.24a.21.21 0 0 0 0 .15c.05.14.02.26-.09.37-.05.05-.05.1.01.14Zm1.33.06c.06.04.1.08.14.14.04.07.03.13-.03.18l-.08.07c-.05.04-.06.08-.03.13l.1.14a.9.9 0 0 1 .14.2c.03.07.04.15.02.23-.07.26.04.44.31.54a1.16 1.16 0 0 0 .7.02.09.09 0 0 0 .06-.07c.01-.04 0-.07-.03-.09a.86.86 0 0 1-.27-.47c-.03-.12-.05-.3-.06-.56l-.01-.24a1.4 1.4 0 0 0-.37-.89 1.42 1.42 0 0 0-.88-.42.1.1 0 0 0-.12.1c0 .08.02.15.09.2.03.03.1.07.2.12l.12.06c.23.13.23.27 0 .41a.1.1 0 0 0-.06.1c0 .04.02.08.06.1Zm18.07-.4.22-.05c.02-.01.05-.01.07 0 .03.02.04.04.04.07v.28c0 .06.02.1.06.15.1.11.26.17.46.18.09 0 .18-.01.27-.05.06-.01.14-.05.24-.1l.18-.09c.06-.02.1 0 .11.07a.4.4 0 0 1-.12.36c-.45.45-1.03.64-1.76.56a.21.21 0 0 1-.16-.1 1.44 1.44 0 0 0-.78-.62.15.15 0 0 1-.12-.14c0-.07.02-.12.09-.16.36-.2.76-.32 1.2-.37Zm-15.74 1.8a.4.4 0 0 1 .19.13c.05.06.05.13-.02.18-.08.08-.12.16-.1.26 0 .05.04.1.09.12.27.19.54.3.78.36.11.02.2-.01.27-.1a.24.24 0 0 0 .05-.12c.01-.13-.05-.21-.18-.25l-.2-.06a.3.3 0 0 1-.18-.14c-.15-.25-.1-.47.12-.64.05-.04.05-.08.01-.12a1.5 1.5 0 0 1-.32-.6.2.2 0 0 0-.11-.13c-.24-.12-.5-.2-.79-.23-.06 0-.1.02-.13.07a.15.15 0 0 0 0 .13c.01.06.1.11.24.18.12.04.2.09.23.12.22.24.23.48.02.73-.05.06-.04.1.03.12Zm13.11-.23.26.07a1.04 1.04 0 0 1 .6.3c.05.05.1.05.15.03l.22-.09c.09-.03.11 0 .08.08a.26.26 0 0 1-.09.11c-.49.38-1.1.59-1.81.63-.16 0-.22-.06-.19-.21.01-.06 0-.11-.02-.16a.16.16 0 0 0-.13-.1.79.79 0 0 1-.37-.18.18.18 0 0 0-.16-.03.43.43 0 0 0-.14.05c-.17.1-.23.06-.2-.13l.03-.2a.14.14 0 0 0-.06-.12.15.15 0 0 0-.14-.03l-.19.06c-.07.02-.1 0-.06-.08.1-.2.42-.33.94-.42.4-.06.77-.08 1.13-.05a.1.1 0 0 1 .08.05.1.1 0 0 1 0 .1.26.26 0 0 0-.03.21c.02.05.05.09.1.11Zm-10.53-.11c-.25-.18-.45-.28-.58-.3-.33-.01-.38.09-.15.32.08.08.13.18.15.3.01.06.05.1.11.13.08.03.14.07.19.14.03.04.04.1.03.15a.6.6 0 0 0 .04.34c.04.09.06.18.07.29a2.27 2.27 0 0 1-.01.42c0 .07.02.12.07.16.3.24.6.32.9.24.24-.07.25-.15.03-.25l-.25-.12a.2.2 0 0 1-.1-.13l-.14-.53a.3.3 0 0 1 0-.15c.03-.13-.02-.23-.15-.28-.23-.1-.28-.25-.16-.47a.2.2 0 0 0-.06-.26Zm2.37 1.67c.14.1.24.24.31.46a3.45 3.45 0 0 1 .13.6c0 .07.04.1.1.13l.28.13c.07.04.1.1.1.18v.03c0 .03-.01.05-.04.06a.08.08 0 0 1-.07.01c-.36-.11-.68-.3-.95-.55a.25.25 0 0 1-.08-.14c-.03-.2-.11-.38-.24-.53a.26.26 0 0 1-.07-.17v-.07c0-.21-.02-.37-.06-.47a.46.46 0 0 0-.32-.32.18.18 0 0 1-.1-.07.1.1 0 0 1-.02-.07c.02-.06.05-.09.11-.09.35.02.62.13.82.32.04.05.06.1.06.16l-.02.29c0 .05.02.09.06.11Zm4.95-.22c-.08-.12-.11-.27-.07-.47 0-.06-.02-.1-.08-.1-.55-.04-1.05 0-1.48.1-.48.12-.64.42-.47.91.05.16.16.21.32.16.17-.06.36-.08.57-.05.13.02.32.06.57.14.34.1.6.15.76.14.28 0 .52-.13.73-.35.05-.06.04-.09-.03-.1-.04 0-.08 0-.11.02a.18.18 0 0 1-.17-.02l-.19-.12c-.18-.1-.3-.19-.35-.26Zm-3.32.45-.31-.05a.13.13 0 0 1-.07-.03c-.1-.1-.1-.18-.01-.27.04-.03.09-.04.14-.03l.69.17c.06.01.1.04.14.09.04.05.05.1.05.16-.02.2.02.38.11.57.03.04.04.1.04.15 0 .22.05.44.15.67.03.06.07.1.13.14.03.03.09.06.17.1h.03c.05.03.07.07.05.13l-.01.05c-.01.04-.04.05-.08.04l-.85-.2c-.05-.02-.07-.05-.07-.1v-.32c0-.05 0-.1-.04-.13a.5.5 0 0 0-.16-.15.2.2 0 0 1-.09-.1.7.7 0 0 1-.03-.32 2.6 2.6 0 0 1 .1-.46c0-.06-.02-.1-.08-.1Zm3.3 3.07c.21.13.29.07.23-.15-.09-.37-.08-.65.03-.83a.1.1 0 0 0 0-.12c-.06-.1-.1-.19-.12-.25a.62.62 0 0 1-.03-.28c.02-.18-.06-.3-.25-.4a9.41 9.41 0 0 0-.95-.37c-.22-.07-.26-.02-.11.15.08.1.12.2.13.34 0 .07.03.14.09.19l.12.12c.06.05.08.12.08.2l-.04.5c-.02.25.07.44.29.57l.54.33Zm-7-1.81a.3.3 0 0 0-.24-.07.87.87 0 0 0-.22.08c-.14.06-.25.08-.32.07a.1.1 0 0 1-.08-.06.1.1 0 0 1 .02-.1c.15-.2.4-.3.75-.35.23-.03.53-.03.9 0 .2.03.36.1.5.22.28.24.58.49.9.73.13.1.12.18-.03.24-.24.1-.5.18-.77.22a.44.44 0 0 1-.23-.02.42.42 0 0 1-.19-.14v-.01h-.01a1.75 1.75 0 0 0-.46-.45c-.18-.1-.36-.23-.53-.36Zm-2.9.86c.11.01.23.09.35.22.04.04.08.07.13.09.3.1.55.28.76.51.03.04.07.06.12.07.21.04.42.02.63-.06.07-.03.1-.07.1-.14a.15.15 0 0 0-.08-.16l-.2-.1a2.9 2.9 0 0 1-.48-.23c-.17-.12-.24-.24-.24-.36 0-.15-.06-.22-.2-.23-.28-.02-.54-.01-.79.04-.33.06-.54.17-.62.33-.07.14-.03.17.1.12.2-.07.33-.1.42-.1Zm11.72.5a.37.37 0 0 0-.23-.04.1.1 0 0 1-.12-.05.09.09 0 0 1 0-.06c0-.03.02-.06.04-.07a.65.65 0 0 0 .18-.1c.12-.1.11-.19-.03-.25a.6.6 0 0 0-.3-.06c-.12 0-.16-.05-.13-.15l.05-.07a.4.4 0 0 1 .3-.09c.5.05.91.3 1.23.78.03.04.03.08-.01.11-.15.12-.2.27-.15.47.02.11.1.28.24.5l.1.2a.2.2 0 0 1 0 .2.21.21 0 0 1-.16.12c-.33.06-.63-.03-.89-.25a.56.56 0 0 1-.15-.22 1.68 1.68 0 0 1-.07-.25 1.62 1.62 0 0 0-.1-.3c-.02-.04-.01-.07.03-.1.07-.04.14-.09.2-.15a.1.1 0 0 0-.03-.17Zm-13.21.47a.17.17 0 0 1 0-.13l.1-.3a.09.09 0 0 0-.03-.1.1.1 0 0 0-.09-.03c-.31.05-.6.15-.85.31-.03.02-.05.05-.04.09 0 .03.02.06.06.07.7.21.94.65.7 1.31-.01.03 0 .05.02.07.02.02.04.03.07.02l.95-.35c.06-.02.09-.06.07-.13l-.06-.27a.16.16 0 0 0-.09-.11l-.73-.37a.17.17 0 0 1-.08-.08Zm15.2-.47c.44.04.8.18 1.06.4.4.33.8.6 1.22.8.05.03.06.06.04.1l-.03.03a.14.14 0 0 1-.08.03c-.4.02-.58.24-.55.66.01.09.04.17.1.26.2.29.14.37-.2.26a3.2 3.2 0 0 1-.66-.28c-.28-.18-.4-.36-.35-.54.1-.37.13-.76.08-1.18a.16.16 0 0 0-.06-.1.16.16 0 0 0-.1-.04h-.45c-.15-.01-.2-.08-.19-.22l.01-.07c0-.03.02-.06.05-.09a.14.14 0 0 1 .1-.02Zm-16.8.5h.02c.09-.02.18.03.2.11l.4 1.25a.17.17 0 0 1-.12.2l-.02.01a.17.17 0 0 1-.2-.1l-.39-1.26a.16.16 0 0 1 .11-.2Zm-.73.24h-.02a.2.2 0 0 0-.13.25l.38 1.26c.03.1.14.17.25.14h.01a.2.2 0 0 0 .14-.25l-.38-1.27a.2.2 0 0 0-.25-.13Zm-.67.3h.01c.07-.01.14.02.16.1l.37 1.25a.13.13 0 0 1-.09.16.13.13 0 0 1-.17-.09l-.37-1.26a.13.13 0 0 1 .1-.15Zm-.68.19h-.03a.16.16 0 0 0-.1.21l.42 1.25c.03.09.12.13.21.1h.03a.16.16 0 0 0 .1-.21l-.42-1.25a.17.17 0 0 0-.21-.1Zm-.9.25.15-.04c.12-.04.25.03.29.15l.37 1.18a.22.22 0 0 1-.15.28l-.16.05a.23.23 0 0 1-.28-.15l-.37-1.19a.22.22 0 0 1 .15-.28Zm22.26.63c-.16.38-.19.73-.08.77.12.05.33-.23.49-.62.15-.38.18-.73.07-.77-.11-.04-.33.23-.48.62Zm1.05.67c.04 0 .08 0 .11.04.04.03.05.08.04.12l-.07.21c-.02.05-.01.1.02.13.03.04.08.06.13.05.19-.03.34.04.44.19.04.05.08.09.14.1l.64.2c.13.03.22 0 .27-.13l.32-.79c.07-.16.01-.25-.17-.26-.2-.01-.37-.08-.54-.19a.16.16 0 0 0-.15-.02.16.16 0 0 0-.1.1l-.12.27c-.06.1-.14.12-.24.05a.12.12 0 0 1-.06-.13l.07-.45c0-.05 0-.09-.03-.12a.14.14 0 0 0-.11-.05.76.76 0 0 1-.5-.19.16.16 0 0 0-.15-.03.16.16 0 0 0-.12.1l-.33.93c-.02.07 0 .12.08.14.14.03.25-.02.3-.16.03-.06.07-.1.13-.1Z"/></svg>