<!-- by TradingView --><svg width="56" height="56" viewBox="0 0 56 56" xmlns="http://www.w3.org/2000/svg"><path fill="#F0F3FA" d="M0 0h56v56H0z"/><path d="M28.16 45a16.91 16.91 0 0 1-15.8-10.36 16.82 16.82 0 0 1-1.36-6.5 16.87 16.87 0 0 1 10.35-15.8 16.83 16.83 0 0 1 6.5-1.34 16.91 16.91 0 0 1 15.8 10.36 16.82 16.82 0 0 1 1.35 6.5 16.87 16.87 0 0 1-10.35 15.8 16.83 16.83 0 0 1-6.5 1.34Zm-.18-.3a16.56 16.56 0 0 0 11.8-4.88 16.56 16.56 0 0 0 4.91-11.79 16.56 16.56 0 0 0-4.86-11.8 16.5 16.5 0 0 0-5.4-3.63 16.56 16.56 0 0 0-18.2 3.59 16.56 16.56 0 0 0-4.9 11.78 16.56 16.56 0 0 0 4.86 11.81 16.5 16.5 0 0 0 5.4 3.63c2.05.85 4.17 1.28 6.39 1.28Z" fill="#040707"/><path d="m22.67 15.63.03.9c.28-.33.51-.45.7-.38.15.05.21.15.18.3a5.97 5.97 0 0 0 1.75 5.9c.08.08.12.06.12-.05v-1.89c0-.03 0-.05.02-.07.14-.17.25-.21.34-.13.1.08.14.13.14.14l.1.4c.74 2.88 1.57 4.24 2.5 4.07.38-.07.74-.36 1.09-.86.07-.1.11-.1.14.02l.13.58c.04.19.14.23.3.13.57-.33.88-.92.95-1.79.02-.17.1-.22.27-.15.06.02.1.06.15.12.18.27.24.59.17.95-.04.21.04.26.23.14l1.38-.85c.1-.06.18-.05.26.03.1.1.14.19.1.26-.21.4-.33.61-.35.63a9.1 9.1 0 0 1-4.13 2.04c-1.14.18-1.15.54-.03 1.1.64.3 1.17.71 1.6 1.2.32.39.75.72 1.27 1.01.88.5 1.55 1.05 2 1.66.33.45.44.87.34 1.26-.1.4-.42.68-.95.84a5.6 5.6 0 0 1-2.65.1c-.61-.1-.61-.2 0-.28a6 6 0 0 0 2.17-.62c.16-.1.25-.23.28-.42a.52.52 0 0 0-.17-.46A5.37 5.37 0 0 0 30.44 30a.76.76 0 0 1-.36-.18 3.58 3.58 0 0 0-2.51-.96c-.29 0-.46-.13-.52-.4-.26-1.15-1.04-1.86-2.34-2.13-.17-.04-.24.03-.2.2a3.18 3.18 0 0 0 1.97 2.4c.22.08.26.23.14.42l-.71 1.14c-.2-.43-.27-.26-.23.51a17.3 17.3 0 0 0-.72 5.98c.08 1.6.29 3.18.61 4.74.05.23-.03.29-.24.18l-.2-.1a.72.72 0 0 1-.38-.49 25.5 25.5 0 0 1-.56-3.14 47.76 47.76 0 0 1-.1-10.07.5.5 0 0 0-.1-.35l-1.52-1.9a.42.42 0 0 1-.07-.44c.07-.16.2-.26.37-.28a5.18 5.18 0 0 1 3.4.67.25.25 0 0 0 .06-.1c0-.02 0-.05-.03-.07a13.58 13.58 0 0 1-3.62-5.12 9.24 9.24 0 0 1-.39-6.11.2.2 0 0 1 .18-.15.2.2 0 0 1 .2.1c.21.36.25.79.1 1.29Z" fill="#EA2026"/><path d="M25.9 30.48a.86.86 0 0 1-.22.51c-.04-.77.03-.94.23-.51Z" fill="#EA2026"/></svg>