<!-- by TradingView --><svg width="56" height="56" viewBox="0 0 56 56" xmlns="http://www.w3.org/2000/svg"><path fill="url(#atd5gq13z)" d="M0 0h56v56H0z"/><path d="M12.81 30.96a5.33 5.33 0 0 1 1.81-7.41L32.48 12.8a5.55 5.55 0 0 1 7.55 1.77 5.33 5.33 0 0 1-1.8 7.41L20.35 32.73a5.55 5.55 0 0 1-7.55-1.77Z" fill="url(#btd5gq13z)"/><path d="M18.81 23h18.91v11h-18.9V23Z" fill="url(#ctd5gq13z)"/><path d="M15.97 41.43a5.33 5.33 0 0 1 1.8-7.41l17.87-10.75a5.55 5.55 0 0 1 7.55 1.77 5.33 5.33 0 0 1-1.81 7.41L23.52 43.2a5.55 5.55 0 0 1-7.55-1.77Z" fill="url(#dtd5gq13z)"/><defs><linearGradient id="atd5gq13z" x1="10.42" y1="9.71" x2="68.15" y2="76.02" gradientUnits="userSpaceOnUse"><stop stop-color="#1A1E21"/><stop offset="1" stop-color="#06060A"/></linearGradient><linearGradient id="btd5gq13z" x1="14.69" y1="29.22" x2="38.3" y2="15.28" gradientUnits="userSpaceOnUse"><stop stop-color="#EEFA04"/><stop offset=".74" stop-color="#4FA13D"/><stop offset="1" stop-color="#59A539"/></linearGradient><linearGradient id="ctd5gq13z" x1="37.11" y1="26.22" x2="19.95" y2="26.22" gradientUnits="userSpaceOnUse"><stop stop-color="#83C45C"/><stop offset="1" stop-color="#82C55B" stop-opacity="0"/></linearGradient><linearGradient id="dtd5gq13z" x1="17.84" y1="39.69" x2="30.1" y2="23.97" gradientUnits="userSpaceOnUse"><stop stop-color="#E1F16D"/><stop offset=".66" stop-color="#49BC5D"/><stop offset="1" stop-color="#43B74A"/></linearGradient></defs></svg>