<!-- by TradingView --><svg width="56" height="56" viewBox="0 0 56 56" xmlns="http://www.w3.org/2000/svg"><path fill="#F0F3FA" d="M0 0h56v56H0z"/><path d="m39.2 22.98-5.52 2.6c-.26.13-.29.09-.08-.11.94-.91 1.7-1.77 2.28-2.57a8.7 8.7 0 0 0 1.5-3.05c.16-.67.28-1.33.37-1.98 0-.02-.01-.04-.04-.05-.03 0-.05.01-.05.04-.2.82-.41 1.58-.63 2.29a7.22 7.22 0 0 1-1.08 2 24.9 24.9 0 0 1-2.12 2.57c-.23.25-.27.22-.12-.08.63-1.23.77-2.57.4-4 0-.04-.03-.05-.07-.05l-.06.01a7.7 7.7 0 0 1-.36 3.25 6.81 6.81 0 0 1-1.68 2.72 7.28 7.28 0 0 0-2.35 5.01c0 .2-.06.22-.15.03a41.6 41.6 0 0 0-1.86-3.39c-.25-.4-.44-.87-.57-1.4-.45-1.83-.65-3.4-.62-4.69.03-1.57.41-3.06 1.13-4.48 0-.02 0-.04-.02-.05-.02-.01-.04-.01-.05.01a8.93 8.93 0 0 0-1.46 4.23c-.11 1.4.07 2.88.56 4.45.1.3.05.32-.12.06a99.65 99.65 0 0 1-7.28-12.61c-.02-.04-.04-.04-.08-.03l-.07.04c-.04 0-.05.03-.03.07a75.86 75.86 0 0 0 5.97 11.64c.17.26.13.29-.1.09a15.4 15.4 0 0 0-2.28-1.69c-.83-.48-1.74-.85-2.72-1.1-1.17-.3-2.34-.49-3.53-.57-.05 0-.08.02-.08.07v.08l.02.02c1.27.19 2.46.44 3.57.75 1.33.38 2.55.99 3.66 1.82 1 .75 1.95 1.72 2.86 2.92a31.4 31.4 0 0 1 2.5 3.82c.1.18.05.21-.12.11a4.87 4.87 0 0 0-2.07-.67 7.29 7.29 0 0 0-3.34.46c-.4.15-.7.24-.9.3a3.36 3.36 0 0 1-2.44-.27c-.02-.01-.03 0-.04.01l-.02.06c0 .02 0 .03.02.04a2.8 2.8 0 0 0 1.63.54c.24 0 .25.06.04.16a12.55 12.55 0 0 1-7 1.3c-.25-.03-.25-.01 0 .06.41.1.85.18 1.31.2 2.28.16 4.46-.38 6.54-1.6.33-.2.68-.35 1.03-.46a20.45 20.45 0 0 1 1.34-.36l.02.07c0 .03 0 .05-.03.06a3.31 3.31 0 0 0-2.11 2.47c-.07.3-.04.31.09.03.82-1.78 2.13-2.6 3.94-2.44.52.04 1.04.16 1.57.37.66.26 1.09.58 1.3.96l.9 1.59c.05.08.11.1.2.07l.17-.08a.25.25 0 0 1 .2 0c.06.02.1.06.14.12 1.76 3.38 2.61 6.63 2.54 9.74 0 .12-.04.23-.11.32l-.87 1.1c-.08.1-.1.09-.1-.03a18.5 18.5 0 0 0-2-10.92.3.3 0 0 0-.09-.1.1.1 0 0 0-.1-.03.1.1 0 0 0-.08.09c-.1.57-.3 1.12-.6 1.65-.22.4-.35.8-.39 1.22-.04.5-.22 1.05-.55 1.67a.08.08 0 0 1-.07.04c-.03 0-.05 0-.07-.03l-.42-.5a.34.34 0 0 0-.27-.14c-.11 0-.2.05-.27.13a5.62 5.62 0 0 0-1.1 2.04 5.2 5.2 0 0 1-.86 1.69.12.12 0 0 1-.1.05.12.12 0 0 1-.1-.05l-.18-.25a.2.2 0 0 0-.18-.08.2.2 0 0 0-.17.1l-.13.21c-.21.37-.39.63-.52.8-.23.3-.45.49-.65.56a.47.47 0 0 0-.19.11c-.23.23-.48.45-.75.64-.15.12-.2.08-.16-.1.1-.36.22-.72.36-1.08.05-.12.08-.25.08-.37 0-.09 0-.22-.04-.38a.36.36 0 0 1 .03-.22l.27-.63c.02-.05.01-.1-.04-.14l-.55-.4c-.07-.06-.08-.12-.04-.2.43-.63.74-1.16.94-1.6.29-.64.44-1.23.44-1.78 0-.38-.19-.55-.6-.5-.25.03-.53.1-.82.2l-.8.35a7.3 7.3 0 0 1-1.38.51c-.36.08-.72.24-1.07.47-.29.19-.6.44-.92.76a.45.45 0 0 1-.32.14.44.44 0 0 1-.32-.13l-.2-.19a.22.22 0 0 0-.22-.05c-.24.07-.45.2-.63.39-.07.08-.15.09-.24.03l-.25-.14a.3.3 0 0 0-.21-.04c-.5.09-1.04.1-1.6.03-.08 0-.09-.04-.03-.1.64-.63 1.23-1.42 1.76-2.38a.42.42 0 0 0-.05-.5c-.2-.24-.46-.39-.8-.45a4.83 4.83 0 0 0-1.27-.04.13.13 0 0 1-.12-.06.13.13 0 0 1-.01-.12l.04-.12a.17.17 0 0 0-.03-.17.18.18 0 0 0-.16-.08c-.68 0-1.3-.1-1.84-.3a.17.17 0 0 1-.12-.13.17.17 0 0 1 .06-.17c.12-.1.2-.21.25-.34a.18.18 0 0 0-.01-.17.18.18 0 0 0-.14-.09l-.21-.01a4.24 4.24 0 0 1-.92-.14c-.33-.1-.53-.3-.6-.55a.23.23 0 0 0-.14-.16 4 4 0 0 0-1.08-.33.2.2 0 0 1-.1-.04C9 33.26 9 33.24 9 33.2a.12.12 0 0 1 .1-.1c.52-.08 1-.26 1.41-.53.17-.1.37-.2.6-.27a8.73 8.73 0 0 1 .95-.25.2.2 0 0 0 .14-.11.2.2 0 0 0 0-.18l-.13-.27c-.07-.13-.03-.2.12-.23a14 14 0 0 1 1.87-.2c.41-.02.84-.14 1.3-.38.07-.04.09-.1.04-.17a5.15 5.15 0 0 1-.63-2.06c-.01-.1.04-.15.14-.14.47.03.93.13 1.37.29.08.03.16.01.23-.04l.16-.12c.05-.04.1-.05.17-.02l1.2.61c.07.04.13.03.2-.02l.03-.03c.07-.06.15-.06.22-.02.74.5 1.62.76 2.66.81.2.01.49-.02.88-.09.33-.06.59-.1.76-.1.13 0 .15-.05.07-.15-.17-.2-.29-.42-.36-.68-.1-.33-.36-.63-.79-.9-.33-.21-.72-.38-1.15-.5a4.5 4.5 0 0 1-1.44-.67c-.08-.05-.1-.12-.05-.2a.3.3 0 0 1 .2-.15c.21-.07.23-.17.06-.31a.98.98 0 0 0-.5-.21 5.33 5.33 0 0 1-2.56-1.1.05.05 0 0 1-.02-.05c0-.02.02-.04.04-.04l.32-.11c.06-.02.08-.06.08-.13 0-.06-.02-.1-.08-.12l-.1-.03a9.29 9.29 0 0 1-.84-.31 1.83 1.83 0 0 1-.7-.5 4.24 4.24 0 0 0-.67-.63l-.52-.45c-.14-.15-.1-.22.1-.2.73.05 1.53 0 2.42-.13.1-.01.18-.07.2-.18.04-.1.1-.2.18-.27a.24.24 0 0 1 .2-.08 8.57 8.57 0 0 0 1.62.04c.15-.03.3-.1.42-.22a.4.4 0 0 0 .13-.27.4.4 0 0 0-.09-.29l-.73-.93a.24.24 0 0 1-.05-.2.25.25 0 0 1 .1-.16.97.97 0 0 0 .31-.44.19.19 0 0 0-.03-.19c-.35-.45-.6-.96-.74-1.53a1.13 1.13 0 0 0-.23-.45.1.1 0 0 1-.02-.12.11.11 0 0 1 .1-.07L19 16.4a.21.21 0 0 0 .16-.12.21.21 0 0 0 0-.2 9 9 0 0 1-.49-1.3.9.9 0 0 1 0-.49 2.56 2.56 0 0 1 .23-.55.28.28 0 0 0 0-.26 7.43 7.43 0 0 1-.52-1.35.1.1 0 0 1 .04-.11.1.1 0 0 1 .11 0l1.01.7c.1.07.16.16.18.27.04.22.14.4.32.55.06.06.13.08.2.06.14-.03.26-.09.36-.2a.23.23 0 0 1 .2-.06c.08 0 .14.04.18.11l.16.28c.2.33.35.57.47.72.2.24.42.43.67.56.07.04.13.03.2-.02.26-.2.48-.44.68-.71.11-.17.25-.26.42-.27.19-.01.32.07.42.26.26.5.42 1.04.48 1.6.02.17.12.28.28.33.4.12.63.39.67.8.05.48.22.94.51 1.37.05.07.11.1.2.11.08 0 .15-.03.2-.1l.92-1.09c.04-.05.1-.08.17-.08l.37-.01c.08 0 .14-.03.2-.09l.38-.43c.72-.8 1.27-1.38 1.67-1.73.07-.06.13-.05.17.04.06.15.1.3.1.47-.02.51.04 1 .15 1.45.02.08.05.15.11.2.2.22.25.46.13.73-.22.5-.33 1.07-.33 1.68 0 .08.04.14.1.2l.57.42c.06.05.1.1.11.18.02.08.01.15-.02.22-.3.6-.6 1.19-.9 1.75-.15.27-.16.72-.04 1.34.1.46.23.9.42 1.35.06.14.16.21.31.22.15.01.27-.05.34-.18.27-.45.6-1.14.97-2.07.24-.59.43-1.02.57-1.32.15-.31.22-.6.2-.86-.04-.72.12-1.49.5-2.3.11-.24.3-.42.58-.54.09-.03.15-.02.2.06.23.29.43.5.61.65.25.2.52.3.8.3a.2.2 0 0 0 .17-.07c.4-.5.67-1.05.8-1.68a.24.24 0 0 1 .11-.16c.14-.1.28-.07.42.06.1.09.18.07.22-.06.13-.43.31-.85.53-1.27.03-.06.08-.09.15-.09.22 0 .43.06.62.18.1.05.16.03.21-.06l.47-.86c.04-.08.11-.1.2-.08.13.04.23.1.32.2.06.05.14.08.22.06a.23.23 0 0 0 .18-.14c.2-.42.5-.77.91-1.03.16-.1.21-.07.16.11v.05a2.45 2.45 0 0 0-.1 1.02c.01.83 0 1.45-.02 1.86a7.55 7.55 0 0 1-.33 1.84c-.02.04 0 .09.03.12.03.04.08.05.13.04.16-.05.33-.08.5-.1.16-.03.27.02.34.14.03.06.03.12 0 .18-.35.6-.6 1.09-.75 1.45a4.94 4.94 0 0 0-.37 1.59c0 .08.03.15.1.18.22.11.45.19.7.22.16.03.38.04.68.04.47 0 .82.04 1.07.12.36.12.73.12 1.08.02.28-.09.32-.03.11.18l-.63.63c-.1.1-.26.2-.46.32-.3.18-.5.35-.62.52-.08.12-.07.23.03.33.04.04.06.09.05.15a.16.16 0 0 1-.1.12c-.66.3-1.24.7-1.74 1.2-.12.12-.1.18.07.18.04 0 .08.01.11.04.08.05.08.1 0 .16l-.3.27c-.2.19-.37.32-.48.4-.88.53-1.7 1.05-2.46 1.55-.32.2-.62.48-.88.82a.22.22 0 0 0-.04.2c.01.06.05.11.12.15.77.35 1.48.46 2.14.33a2.9 2.9 0 0 1 1.67.12c.06.02.1.07.1.13.01.06-.01.11-.07.15a.35.35 0 0 0-.14.2c-.01.04 0 .08.01.12.02.03.05.05.09.06.2.06.38.08.58.07.34-.03.71.03 1.12.18.07.03.08.07.04.14l-.15.2a.12.12 0 0 0-.01.14c.03.05.07.07.13.06.8-.08 1.54.1 2.18.53.12.08.1.13-.03.15l-3.3.48c-.08 0-.12.06-.1.14v.1c.01.03 0 .07-.02.1a.14.14 0 0 1-.1.05c-.07 0-.17.02-.3.05-.15.04-.26.05-.33.05-.63 0-1.26.1-1.88.28a.14.14 0 0 0-.1.12c0 .05 0 .1.05.13l.21.2c.17.18.13.26-.11.23l-3.07-.4a1.4 1.4 0 0 0-.6.04c-.07.03-.1.08-.09.16.03.19.03.36-.02.52a.55.55 0 0 1-.34.37c-.81.3-1.56.23-2.25-.23a3.18 3.18 0 0 0-1.35-.53.19.19 0 0 1-.14-.1l-1-1.75a.86.86 0 0 1-.11-.43 6.97 6.97 0 0 1 3.61-6.17c1.04-.51 2.1-1.01 3.2-1.5a19.34 19.34 0 0 0 2.45-1.55Z" fill="#1E6C40"/></svg>