<!-- by TradingView --><svg width="56" height="56" viewBox="0 0 56 56" xmlns="http://www.w3.org/2000/svg"><path fill="#F0F3FA" d="M0 0h56v56H0z"/><path d="M33.63 38.06c-1.36-.5-.2-2.27.26-3.07 1.66-2.85 4.07-5.27 4.6-8.68a5.5 5.5 0 0 0-.3-3.32c-1.02-2.03-3.75-1.4-5.25-.33a93.2 93.2 0 0 0-4.4 3.38c-.97.77-2.4 1.96-4.29 3.56-1.7 1.45-3 2.52-3.86 3.23-.32.26-.66.43-1.02.53a.66.66 0 0 1-.63-.14.66.66 0 0 1-.25-.59c.08-1.17.91-2.65 2.49-4.43a39.03 39.03 0 0 1 12.05-9.28c.57-.28 1.41-.53 2.53-.76a2.67 2.67 0 0 1 2.68.84c.1.1.2.15.34.16.23 0 .4-.1.5-.33a.52.52 0 0 0 0-.4c-.48-1.15-.86-2-1.17-2.55a8.24 8.24 0 0 0-1.68-2.2c-.53-.48-1.28-.7-2.24-.68-.82.03-1.6.21-2.32.55a48.32 48.32 0 0 0-15.25 11.19 25.57 25.57 0 0 0-4.88 7.83 6.73 6.73 0 0 0-.34 4.23 6.18 6.18 0 0 0 2.4 3.49c.66.5 1.37.73 2.13.7.77 0 1.47-.29 2.09-.83a28.95 28.95 0 0 0 3.21-3.22c1.94-2.29 3.93-4.62 5.99-6.99.74-.85 1.53-1.64 2.37-2.36.36-.31 3.9-2.66 2.69-.77a18.6 18.6 0 0 0-2.83 7.45 5.69 5.69 0 0 0 1.46 4.62c.6.57 1.27.86 2 .87.83 0 1.67-.37 2.51-1.1a95.67 95.67 0 0 0 10.12-10.1c.19-.21.37-.47.53-.77.25-.45.14-.68-.34-.68a.5.5 0 0 0-.4.18c-3.6 3.96-7.23 7.47-10.9 10.52-.1.08-.3.17-.6.25Z" fill="#FE001B"/></svg>