<!-- by TradingView --><svg width="56" height="56" viewBox="0 0 56 56" xmlns="http://www.w3.org/2000/svg"><path fill="#F0F3FA" d="M0 0h56v56H0z"/><path d="M4 23v6c2.66 0 6.38-.62 12.22-1.54 4.67-.74 11.36-1.09 14.13-1.17l1.4-3.29H4Z" fill="#D2232A"/><path d="M4 33v-2.28c1.88-.26 7.22-1.04 13.53-1.99 6.3-.94 10.94-1.1 12.47-1.05L28.03 33H4Z" fill="#0D034C"/><path fill-rule="evenodd" d="m39.82 26 1.14-3h6.1c.21.08.53.43.16 1.22l-1.04 2.74C46 27.3 45.55 28 45.14 28c.13.2.32.84 0 1.81-.4 1.21-1.05 3.18-2.59 3.18h-5.33l2.33-6h4.02c.46-.07 1.37-.3 1.37-1.4 0-.3-.26-.6-1.3-.6-1.02 0-1.46.2-1.54.28l-.34.72h-1.94Zm.17 5 .67-1.84c.18-.06.73-.16 1.45-.16.92 0 1.49.44.97 1.24-.42.64-.94.77-1.16.76H40Zm-8.12-5c.24-1.18 1.1-3 2.78-3h5.23l-.7 2H35.1l-.23.04c-.35.04-.79.09-.87.96h-2.13ZM30 33h5.15c.4-.1 1.34-.64 1.88-1.95L38.61 27h-6.94L31 29h4.42c-.04.73-.41 2-1.57 2h-3.43c-.38 0-.42.6-.42.95V33Zm19.54-7h-2.03l1.12-3h2.02l-1.1 3Zm-4.43 7 2.08-6h2.12l-1.53 4H52l-.66 2h-6.23Z" fill="#0D034C"/></svg>