<!-- by TradingView --><svg width="56" height="56" viewBox="0 0 56 56" xmlns="http://www.w3.org/2000/svg"><path fill="#F0F3FA" d="M0 0h56v56H0z"/><path d="M5.08 33h.37c.33-.04.66-.12.98-.24.3-.11.6-.26.9-.45a9.98 9.98 0 0 0 1.9-1.53 18.37 18.37 0 0 0 .58-.58c.32.15.65.33.97.54.28.2.58.42.9.69a11.38 11.38 0 0 0 2.17-1c.33-.2.64-.44.92-.69.37-.33.64-.67.8-1.01.21-.44.24-.85.1-1.26-.1-.29-.29-.55-.56-.78-.2-.17-.48-.35-.83-.52-.25-.13-.52-.25-.8-.36-.02 0-.03-.02-.01-.03.4-.39.8-.7 1.17-.96A5.94 5.94 0 0 1 16 24.1l-.13-.2h-.03a6.13 6.13 0 0 0-2.53 1.62 27.92 27.92 0 0 1-.2.17l-.06-.01-1.36-.36a7.26 7.26 0 0 1-1.92-.68c-.2-.1-.36-.22-.5-.35a1.3 1.3 0 0 1-.35-.5.78.78 0 0 1 .2-.9 1.77 1.77 0 0 1 .98-.47h.22c.67.05 1.25.32 1.75.8a5.72 5.72 0 0 1 .73.85h.03l2.4-1.34v-.03l-.15-.24h-.01l-1.24.7h-.02c-.39-.35-.8-.62-1.24-.81A4 4 0 0 0 10.6 22c-.5.03-.98.17-1.42.42a2.05 2.05 0 0 0-.69.65 1.69 1.69 0 0 0-.25 1.06c.02.12.05.24.1.35.15.34.45.64.89.9.25.15.52.28.8.39.36.14.77.27 1.22.4a62.7 62.7 0 0 1 1.15.34v.01c0 .02-.02.03-.03.05l-.48.57a.07.07 0 0 1-.09.02l-.24-.07a89.81 89.81 0 0 1-1.99-.62c-.27-.1-.5-.2-.7-.3a4 4 0 0 1-.66-.38c-.18-.14-.33-.3-.42-.47-.1-.19-.16-.39-.15-.6a6.1 6.1 0 0 1 0-.23c-.07 0-.12 0-.18-.03-.02 0-.04 0-.06.03-.18.28-.29.62-.32 1-.04.41.15.78.58 1.1.23.18.48.33.77.46.37.17.72.3 1.04.4a63.58 63.58 0 0 0 1.71.52V28l-1.07 1.27a.06.06 0 0 1-.06.03c-.3-.06-.6-.12-.93-.17A6.2 6.2 0 0 0 8 29.1a5.8 5.8 0 0 0-2.73.96c-.33.22-.6.47-.82.74-.26.33-.4.66-.44 1-.03.22 0 .42.1.6.1.19.24.33.43.44.17.1.35.15.54.17Zm8.25-3.35a.04.04 0 0 0 0 .04c0 .03.02.06.05.08.04.03.07.03.1.02a2 2 0 0 0 .64-.48.81.81 0 0 0 .2-.7.96.96 0 0 0-.15-.34 1.1 1.1 0 0 0-.26-.28 2.55 2.55 0 0 0-.56-.3 5.5 5.5 0 0 0-.62-.21 13.5 13.5 0 0 1-.59-.2l.56-.66a.06.06 0 0 1 .06-.02c.4.1.78.24 1.12.4.28.14.52.3.7.48.22.22.36.46.42.73.06.26.05.5-.01.7-.07.21-.2.42-.4.62a3.1 3.1 0 0 1-.58.48c-.34.22-.74.43-1.18.63h-.05a6.94 6.94 0 0 0-2.36-1.25l1.05-1.32a.03.03 0 0 1 .04 0 2.07 2.07 0 0 1 .2.07l.87.3c.27.09.5.2.7.33.13.08.23.19.31.33.06.1.05.18-.01.26l-.25.29Zm-4.69 1.31-.2.18c-.5.44-.99.79-1.44 1.04-.35.2-.72.34-1.1.45-.21.05-.43.08-.65.08a1 1 0 0 1-.45-.08.79.79 0 0 1-.34-.28.8.8 0 0 1-.12-.43c0-.15.01-.29.05-.42.1-.29.28-.55.53-.79.3-.27.66-.5 1.09-.68a4.7 4.7 0 0 1 1.82-.35c.39.02.77.08 1.15.19a17.05 17.05 0 0 1 .57.2l-.91.9Zm22.05-4.16a1.36 1.36 0 0 1 .32.04l-.01.01v2.94l-.8.5v.03l.07.16c.01.02.02.02.04.01l.52-.26a.06.06 0 0 1 .06 0l1.42.76h.05c.34-.2.66-.37.96-.5.67-.3 1.38-.4 2.11-.28l.02-.01c0-.1 0-.2-.03-.28l-.01-.01h-.06c-.04 0-.1 0-.15-.02a1.1 1.1 0 0 0-.18 0c-.02 0-.02-.01-.02-.03v-2.8l.01-.04.78-.56c.02-.02.02-.04 0-.06l-.09-.1c-.02-.02-.04-.03-.06-.01l-.53.36h-.05L31.28 23h-.02l-.57.59v.03L33 25.9H33v.02c-.17.14-.37.26-.59.36a2.5 2.5 0 0 1-1.12.27 404.32 404.32 0 0 0-.63 0 .04.04 0 0 0-.01.03c0 .04 0 .09-.02.13v.05c0 .03.02.04.06.04Zm1.4-.08a2.95 2.95 0 0 0 1.15-.6l.06.06c.14.13.26.26.37.39.1.12.2.23.33.35V29.9l-.01.02c-.2.04-.34.1-.5.17l-.13.06a.26.26 0 0 1-.19 0 75.14 75.14 0 0 0-1.16-.43L32 29.7v-2.95l.03-.02h.06Zm17.93 3.16.37.01a4.8 4.8 0 0 0 .23.03c.02.09.03.18.02.28v.02l-.05-.01-.02-.01c-.32-.04-.9-.05-1.18-.02-.25.02-.5.07-.77.16-.24.07-.48.18-.74.32a16.2 16.2 0 0 0-.65.33l-1.42-.75a.08.08 0 0 0-.07 0l-.52.25c-.01.01-.03 0-.03-.01l-.08-.16.01-.04.8-.49h.03l.05-.03v-2.9l-.06-.02h-.01c-.1-.03-.21-.04-.32-.03-.03 0-.04-.01-.06-.03-.01-.01-.02-.03 0-.06a.3.3 0 0 0 .01-.14l.01-.04.04-.01h.04a2.5 2.5 0 0 0 1.46-.16 3 3 0 0 0 .8-.46v-.02l-2.3-2.27v-.03l.56-.58a.02.02 0 0 1 .03 0l3.77 3.63.03.01h.02l.81-.36c.02-.02.04-.01.06 0l.1.12.01.02c0 .01 0 .02-.02.03l-.96.56-.02.03v2.81c0 .02.01.02.02.02Zm-1.89-3.75a2.52 2.52 0 0 1-1.1.62h-.01l-.02.02v2.92l.02.02v.01l.03.02.52.2.54.21c.05.02.1.02.16 0a4.9 4.9 0 0 1 .74-.25l-.01-.02V26.92l-.84-.8a.02.02 0 0 0-.03 0ZM17 24.68v1.31l-.02.01h-.67l-.01.02-.4.84v.02l.16.03h.01l.25-.29H17v3.29h.01l-.86.54v.02l.1.15h.02l.42-.22h.02l.86.6h.02l1.35-.84v-.02l-.14-.15h-.02l-.37.2h-.01l-.39-.26V26.62h.64l.02-.02.4-.85v-.01l-.18-.05h-.02l-.23.31H18v-1.98L18 24h-.02l-.98.66v.01Zm3.35 2.29.02-.01a4.35 4.35 0 0 0 1.85-.88l.06-.05h.03l.93.66c.02.02.03.02.05 0l.5-.27h.03l.1.14-.01.03-.87.5h-.01l-.03.02v2.74l.03.03.01.01.4.37h.02l.34-.23h.04l.1.15a2530.83 2530.83 0 0 0-1.12.81h-.06c-.2-.14-.35-.3-.46-.51a2.1 2.1 0 0 1-.23-.68 1222.65 1222.65 0 0 1-1.94 1.2h-.04a2.42 2.42 0 0 1-.49-.24c-.16-.1-.28-.22-.38-.34a1.17 1.17 0 0 1-.2-1.04c.04-.14.11-.29.23-.45.15-.2.35-.38.6-.54a4.52 4.52 0 0 1 .76-.39l-.79-.73-.01-.02a5.3 5.3 0 0 1-.25-.25.9.9 0 0 1-.18-.3.44.44 0 0 1 .07-.44c.14-.16.3-.25.5-.26.12 0 .24.04.35.13.11.09.18.2.21.35.02.06 0 .14-.03.22a1.31 1.31 0 0 1-.13.23l-.01.02v.02Zm1.1 1.52-.15.14h-.04l-.44-.4c-.02-.02-.04-.03-.06-.01-.17.09-.32.2-.45.3-.16.14-.27.28-.34.43-.1.24-.1.49.03.74.07.13.18.25.32.36.14.1.28.17.43.23h.02l1.23-.79v-2.25L22 27.2a2.1 2.1 0 0 1-.23-.16l-.2-.14h-.05c-.2.1-.42.17-.67.21a4.54 4.54 0 0 1-.7.1l1.32 1.26v.02Zm15.72-1.53h-.03c0 .01-.01 0 0 0a.5.5 0 0 1 .05-.1.9.9 0 0 0 .1-.18.36.36 0 0 0 .03-.2.54.54 0 0 0-.07-.2.64.64 0 0 0-.32-.25.53.53 0 0 0-.2-.03.7.7 0 0 0-.54.28.4.4 0 0 0-.09.21c0 .08 0 .15.04.23.02.07.06.14.12.22a559.92 559.92 0 0 0 1.18 1.1 4.36 4.36 0 0 0-1.2.62c-.18.16-.32.33-.41.51-.1.2-.14.43-.12.66.03.31.18.58.45.79.2.16.44.28.72.37a.1.1 0 0 0 .09 0l2-1.2h.01v.01a3.8 3.8 0 0 0 .08.34c.12.36.33.64.65.85.02.01.04.01.07 0l1.18-.78v-.03l-.1-.14c-.02-.02-.03-.02-.05 0l-.36.22h-.03l-.43-.38v-.01l.01-.01V27.09l.92-.5c.02 0 .02-.02 0-.03l-.09-.13-.02-.01h-.02l-.53.28h-.04l-1-.67h-.03c-.22.17-.43.31-.63.44a3.11 3.11 0 0 1-1.4.49Zm.99 1.67.17-.15-1.4-1.28c.2-.01.4-.03.58-.06.3-.04.59-.12.86-.23a.08.08 0 0 1 .07 0l.54.3c.02 0 .02.02.02.04v2.24l-1.4.78h-.02a1.59 1.59 0 0 1-.5-.25 1.12 1.12 0 0 1-.34-.42.75.75 0 0 1-.06-.31c0-.12.02-.22.06-.31.07-.16.2-.31.36-.45a3.1 3.1 0 0 1 .52-.32 18.25 18.25 0 0 0 .54.42ZM26 27.47c0 .03 0 .03.02.02l2-1.45a.05.05 0 0 1 .06 0l1.1.76h.05l.71-.4c.02-.01.04 0 .05.02l.08.1-.01.05-1.05.64a.04.04 0 0 0-.01.03v2.61c0 .03 0 .05.02.07l.37.34a.03.03 0 0 0 .04 0l.38-.23a1.74 1.74 0 0 1 .16.16l-1.18.8-.03.01-.02-.01-.8-.67-.01-.02.01-.08a5 5 0 0 0 .05-.31v-.05l.01-.42v-1.37a37.97 37.97 0 0 0-.02-.9l-.54-.36h-.06l-1.35.97-.03.03v2.04l.03.03h.01l.38.28h.02l.4-.23h.01l.02.01.11.15v.03l-1.3.86a.07.07 0 0 1-.09 0l-.88-.62h-.04l-.35.24h-.03a.04.04 0 0 1-.02-.02l-.07-.12v-.03l.01-.02.77-.57c.02-.01.02-.03.02-.05v-2.67l-.37-.3a.04.04 0 0 0-.05 0l-.45.24c-.02.02-.04.01-.05-.01l-.08-.1c-.02-.03-.01-.05.01-.06l1.2-.86a.12.12 0 0 1 .05-.03l.04.02.03.02c.2.14.37.3.52.5.1.13.15.27.15.44v.5Zm17.34-.42-.3.27H43a21.28 21.28 0 0 1 0-.42c0-.08 0-.16-.05-.24-.13-.21-.34-.43-.64-.65h-.04l-1.24.9c-.02 0-.03.03 0 .05l.06.09c.03.03.05.03.08.01l.3-.2h.02c.32.22.51.46.51.87v2.09c0 .03-.01.05-.04.07l-.73.53c-.01.01-.02.03 0 .04l.06.14.02.01h.02l.37-.2a.07.07 0 0 1 .08 0l.83.58.03.01h.02l1.33-.88c.02-.01.02-.02.01-.04l-.09-.13c0-.02-.02-.03-.04-.02l-.38.23a.05.05 0 0 1-.06 0l-.39-.26c-.02 0-.04-.03-.04-.05v-2.07c0-.03.02-.06.04-.08l.6-.6h.04c.23.2.49.29.77.27a1.25 1.25 0 0 0 .65-.23 1.07 1.07 0 0 0 .4-.57c0-.01 0-.02-.02-.03h-.03a.7.7 0 0 1-.43.07.56.56 0 0 1-.36-.23c-.08-.1-.14-.2-.2-.34l-.02-.01h-.03l-1.07 1.02Z" fill="#055294"/></svg>