<!-- by TradingView --><svg width="56" height="56" viewBox="0 0 56 56" xmlns="http://www.w3.org/2000/svg"><path fill="#F0F3FA" d="M0 0h56v56H0z"/><path fill-rule="evenodd" d="M6.72 25.92c.18.11.28.28.3.48h.9c0-.27-.08-.51-.24-.72a1.57 1.57 0 0 0-.66-.5c-.28-.12-.6-.18-.97-.18-.36 0-.69.06-.98.18-.29.12-.52.29-.68.5a1.2 1.2 0 0 0-.25.75c0 .35.12.63.37.84.25.21.59.37 1.02.47l.59.14.49.15c.14.06.25.13.33.21.07.08.11.19.12.31 0 .14-.05.27-.14.37a.88.88 0 0 1-.37.24 1.62 1.62 0 0 1-1.07 0 .9.9 0 0 1-.38-.25.7.7 0 0 1-.17-.42H4c.01.32.1.6.27.82.17.23.4.4.7.51.3.12.65.18 1.05.18.42 0 .78-.06 1.07-.18.3-.12.52-.3.68-.5.15-.22.23-.47.23-.76a1.14 1.14 0 0 0-.47-.95c-.15-.11-.31-.2-.5-.27a3.55 3.55 0 0 0-.56-.18l-.49-.11a3.26 3.26 0 0 1-.6-.22.65.65 0 0 1-.21-.19.47.47 0 0 1-.08-.26c0-.12.04-.23.12-.33.07-.1.18-.17.32-.22.14-.06.31-.08.5-.08.29 0 .52.05.69.17Zm1.7-.16V25h3.97v.76H11V30h-1v-4.24H8.41ZM13 25v5h3.26v-.76H14v-1.47h2V27h-2v-1.24h2.24V25H13Zm4 5v-5h1.87c.38 0 .7.07.96.21.26.15.46.34.6.6.13.24.2.53.2.85 0 .32-.07.6-.2.85-.14.25-.34.44-.6.59-.27.14-.59.21-.97.21H18V30h-1Zm1.74-2.43H18v-1.81h.73c.23 0 .41.04.55.11.15.08.25.18.32.32.07.13.1.29.1.47 0 .17-.03.33-.1.47a.74.74 0 0 1-.32.32c-.14.08-.32.12-.54.12ZM21 25v5h1v-2.12h2V30h1v-5h-1v2.12h-2V25h-1Zm6.15 5h-.96l1.75-5h1.12l1.75 5h-.96l-.41-1.23h-1.88l-.4 1.23Zm1.37-3.97.66 1.97h-1.36l.66-1.97h.04ZM36 30v-5h-1v3.29L32.79 25H32v5h1v-3.29L35.22 30H36Zm5.58-2.5c0 .52-.1.97-.3 1.35-.2.37-.47.65-.82.85-.34.2-.73.3-1.17.3a2.14 2.14 0 0 1-2-1.15c-.19-.38-.29-.83-.29-1.35 0-.52.1-.97.3-1.35.2-.37.47-.65.82-.85.34-.2.73-.3 1.17-.3.44 0 .83.1 1.17.3.35.2.62.48.82.85.2.38.3.83.3 1.35Zm-.9 0c0-.37-.07-.68-.19-.93a1.3 1.3 0 0 0-.48-.58c-.21-.13-.45-.2-.72-.2-.27 0-.51.07-.72.2-.2.13-.37.32-.49.58-.11.25-.17.56-.17.93s.06.68.17.94c.12.25.28.44.5.57.2.13.44.2.71.2.27 0 .51-.07.72-.2.2-.13.37-.32.48-.57.12-.26.18-.57.18-.94Zm.9-2.5v.8H43V30h1v-4.2h1.56V25H41.6ZM47 25v5h-1v-5h1Zm4.02 1.4a.64.64 0 0 0-.3-.48c-.17-.12-.4-.17-.68-.17-.2 0-.37.02-.5.08a.75.75 0 0 0-.33.22c-.08.1-.11.2-.12.33 0 .1.03.19.08.26.05.08.12.14.2.2.1.04.19.09.3.12l.31.09.49.11c.2.04.38.1.57.18.18.07.34.16.49.27a1.14 1.14 0 0 1 .47.95c0 .29-.08.54-.23.75-.16.22-.39.39-.68.51-.3.12-.65.18-1.07.18-.4 0-.75-.06-1.05-.18-.3-.11-.53-.28-.7-.5-.17-.23-.26-.5-.27-.83h.93a.7.7 0 0 0 .17.42c.1.12.22.2.38.25.16.06.34.09.54.09s.38-.03.53-.09a.88.88 0 0 0 .37-.24c.09-.1.13-.23.14-.37a.45.45 0 0 0-.12-.3.88.88 0 0 0-.33-.22l-.49-.15-.6-.14c-.42-.1-.76-.26-1.01-.47a1.04 1.04 0 0 1-.37-.84c0-.28.08-.53.25-.75.16-.21.4-.38.68-.5.29-.12.62-.18.98-.18.37 0 .7.06.97.18.28.12.5.28.66.5.16.2.24.45.25.72h-.91Z"/></svg>