<!-- by TradingView --><svg width="56" height="56" viewBox="0 0 56 56" xmlns="http://www.w3.org/2000/svg"><path fill="#233D84" d="M0 0h56v56H0z"/><path d="M46 28c0 2.39-.46 4.68-1.37 6.89a17.77 17.77 0 0 1-3.9 5.84 17.77 17.77 0 0 1-5.84 3.9c-2.2.91-4.5 1.37-6.89 1.37-2.39 0-4.68-.46-6.89-1.37a17.77 17.77 0 0 1-5.84-3.9 17.77 17.77 0 0 1-3.9-5.84C10.46 32.69 10 30.39 10 28c0-2.39.46-4.68 1.37-6.89.91-2.2 2.21-4.15 3.9-5.84a17.77 17.77 0 0 1 5.84-3.9c2.2-.91 4.5-1.37 6.89-1.37 2.39 0 4.68.46 6.89 1.37 2.2.91 4.15 2.21 5.84 3.9a17.77 17.77 0 0 1 3.9 5.84c.91 2.2 1.37 4.5 1.37 6.89Z" fill="#F3F9FE"/><path d="M38.2 33a.97.97 0 0 1-.38-.14 1 1 0 0 0 0-.93.36.36 0 0 0-.3-.21l-.47-.05c-.23-.03-.26-.12-.08-.27a2 2 0 0 1 .62-.34.79.79 0 0 0 .38-.27l.1-.13c.54-.7.9-1.23 1.09-1.63.33-.68.4-1.27.21-1.8-.26-.7-.5-1.4-.73-2.11-.32-1-1.02-1.46-2.1-1.37l-4.03.3a4.37 4.37 0 0 1-2.3-.67.27.27 0 0 0-.33.04c-.3.26-.65.46-1.04.59-.08.03-.13 0-.15-.08l-.03-.1c-.03-.11 0-.19.11-.23.42-.18.73-.43.93-.75.22-.37.22-.75.02-1.14-.22-.43-.61-.6-1.16-.5-.31.04-.78.22-1.41.52l-.44.2a.57.57 0 0 0-.33.34c-.2.54-.42.95-.64 1.23-.32.4-.7.62-1.17.69a.26.26 0 0 1-.18-.04.25.25 0 0 1-.1-.16l-.02-.1c-.02-.1.02-.17.12-.2.3-.08.56-.22.8-.42.05-.05.07-.1.05-.17a.16.16 0 0 0-.14-.13 2.43 2.43 0 0 1-.7-.23c-.12-.06-.18-.16-.18-.28 0-.17.09-.26.26-.27l.76-.02a.4.4 0 0 0 .36-.22l.08-.15c.1-.16.04-.24-.15-.24l-1.14-.01a.26.26 0 0 1-.2-.09.25.25 0 0 1-.07-.2v-.1c0-.08.05-.12.13-.12l.9-.06c.25-.02.3-.12.12-.3-.61-.67-1.27-.9-1.98-.69-.09.03-.16 0-.2-.07-.05-.08-.05-.15.02-.21.14-.16.26-.35.34-.56.03-.08 0-.14-.06-.18-.46-.3-.84-.68-1.14-1.15a.6.6 0 0 0-.32-.25.6.6 0 0 0-.42.01c-.69.28-1.23.65-1.62 1.12-.73.88-1.58 1.65-2.54 2.31a.35.35 0 0 0-.16.27c-.02.12.02.22.1.3.37.35.5.78.43 1.28-.03.17.02.33.15.46.12.13.28.19.46.17l.94-.09a.47.47 0 0 0 .33-.17l.24-.29c.09-.1.2-.17.34-.2.75-.13 1.48-.4 2.18-.79.03-.02.06-.01.09 0l.08.08c.04.03.07.07.07.13 0 .05-.02.1-.06.13a4.3 4.3 0 0 1-2.18 1.13c-.34.06-.47.26-.4.59l.09.37c.06.31.23.38.5.21.38-.24.75-.52 1.1-.86.1-.09.23-.12.36-.1l.12.04c.05 0 .08.04.1.09.01.04 0 .09-.03.12-.6.6-1.28 1.1-2 1.5-.44.25-.4.4.1.42.11.01.37-.1.77-.33.36-.2.6-.32.74-.35.38-.08.43.02.17.29-.61.62-1.3.95-2.06.99a.67.67 0 0 0-.39.14c-.16.12-.16.28 0 .5.05.08.12.14.22.16.1.03.19.02.28-.03l1.19-.6c.13-.07.2-.03.2.11v.15c0 .15-.07.26-.21.33-.39.2-.8.32-1.24.35-.5.04-.68.3-.55.76.04.14.13.23.27.29.13.05.27.05.4-.02l1.93-1.05a.1.1 0 0 1 .08 0c.03 0 .05.03.06.05l.04.13c.03.14-.01.24-.14.3l-1.87 1.04a.3.3 0 0 0-.17.3c0 .14.04.29.14.42a.49.49 0 0 1-.17.05c-.09.01-.14.06-.14.15l-.02.26-.12-.81a.44.44 0 0 0-.16-.28l-.6-.5a.39.39 0 0 1-.14-.29c-.09-1.24.13-2.2.66-2.9.26-.33.26-.78 0-1.34a.28.28 0 0 0-.3-.17l-.66.08c-.39.07-.8.01-1.2-.16-.4-.17-.72-.41-.96-.73a1.45 1.45 0 0 1-.34-1.03c.03-.4.25-.76.66-1.09 1.15-.91 2.2-1.9 3.16-2.96a3.46 3.46 0 0 1 1.94-1.05c.7-.14 1.39-.44 2.05-.9.13-.1.23-.07.29.08.04.1.04.19 0 .29-.07.15-.02.24.14.27.13.03.26.04.4.02.12-.02.22.02.3.11.08.09.08.21-.01.36a.34.34 0 0 1-.1.1c-.6.4-.77 1.02-.5 1.86.05.13.13.23.27.29.84.37 1.47.87 1.89 1.5.07.11.17.18.3.21a.5.5 0 0 0 .38-.05c.34-.2.62-.33.82-.4.34-.13.64-.16.9-.1 1.15.25 1.66.95 1.52 2.1-.02.2.06.33.24.4.53.23 1.17.35 1.91.36.45.01 1.13-.03 2.04-.12a12.9 12.9 0 0 1 2.6-.09c.94.11 1.58.68 1.92 1.7l.25.7c.35.95.55 1.67.6 2.14.08.79-.09 1.53-.5 2.24-.3.5-.64.99-1 1.45a.5.5 0 0 0-.1.38c.05.4 0 .79-.18 1.14Z" fill="#0A5F85"/><path d="M38.15 32.58c-.26.4-.7.6-1.33.63a7.6 7.6 0 0 1-1.7-.2c-.39-.08-.83-.12-1.32-.12-.3 0-.73.02-1.32.06-.66.05-1.16.06-1.5.06-.15 0-.34.07-.56.2-.13.1-.25.07-.33-.07a.52.52 0 0 1-.03-.51.55.55 0 0 1 .4-.34 5.82 5.82 0 0 1 1.69-.14c.2 0 .48-.03.84-.1.43-.1.78-.13 1.05-.08a9.9 9.9 0 0 0 1.72.17c.12 0 .17-.06.14-.17l-.02-.1c-.03-.15-.11-.23-.26-.24l-.29-.02a4.85 4.85 0 0 1-1.45-.26c-.48-.22-.73-.61-.74-1.17-.02-.91.16-1.77.55-2.57.04-.07.02-.12-.06-.15l-.12-.04a.15.15 0 0 0-.13.01.16.16 0 0 0-.09.1 5.24 5.24 0 0 1-1.04 1.94.25.25 0 0 0-.05.27l.53 1.44c.05.13.03.26-.06.37a.36.36 0 0 1-.35.15 4.3 4.3 0 0 0-2.01.2.51.51 0 0 1-.34.02c-.16-.05-.3-.12-.44-.23a.62.62 0 0 0-.45-.14.61.61 0 0 0-.42.21l-.67.76a.5.5 0 0 1-.28.16.48.48 0 0 1-.33-.04c-.27-.14-.39-.33-.36-.58a1.6 1.6 0 0 1 .9-1.33.26.26 0 0 0 .15-.21c0-.1-.03-.18-.11-.23l-.94-.7a.2.2 0 0 0-.18-.03.2.2 0 0 0-.14.12c-.2.45-.39.8-.57 1.04-.19.25-.4.44-.64.56-.22.1-.5.18-.83.21-.26.03-.66.03-1.17.02-.23 0-.48.04-.76.13-.17.05-.42.14-.74.28l-.5.2c-.1.04-.14.1-.13.2v.11c.01.06.04.08.1.08.33-.03.66-.12.97-.26.23-.11.5-.18.82-.22a8.05 8.05 0 0 1 1.12-.03c.12 0 .23.03.31.1.13.13.17.28.1.46a.4.4 0 0 1-.22.26 6.3 6.3 0 0 1-3.77.56.75.75 0 0 1-.55-.42.74.74 0 0 1-.02-.68c.14-.3.33-.55.57-.77l.57-.48a18 18 0 0 0 1.55-1.44c.53-.58.9-1.16 1.08-1.74.33-.99.81-1.73 1.45-2.23a.18.18 0 0 0 .08-.15c0-.05-.03-.1-.07-.14l-.08-.05a.31.31 0 0 0-.22-.07.3.3 0 0 0-.21.11c-.66.82-1.18 1.72-1.58 2.72-.33.85-.9 1.5-1.69 1.94-.1.05-.2.05-.3-.01a1.9 1.9 0 0 1-.54-.53.8.8 0 0 1-.14-.43.3.3 0 0 1 .17-.3l1.84-1.03c.12-.07.16-.17.13-.3l-.04-.13a.09.09 0 0 0-.05-.06.1.1 0 0 0-.09 0l-1.9 1.05a.44.44 0 0 1-.38.03.42.42 0 0 1-.26-.3c-.14-.46.04-.72.54-.75.43-.04.83-.15 1.21-.35.13-.08.2-.19.2-.34v-.15c0-.14-.06-.18-.19-.11l-1.17.6a.36.36 0 0 1-.27.03.37.37 0 0 1-.23-.16c-.14-.21-.14-.38.01-.5a.65.65 0 0 1 .38-.14 2.98 2.98 0 0 0 2.02-1c.26-.27.21-.36-.16-.29a3 3 0 0 0-.72.35c-.4.24-.65.35-.77.34-.5-.03-.52-.17-.1-.42a9.22 9.22 0 0 0 1.97-1.5.12.12 0 0 0 .03-.13.12.12 0 0 0-.1-.1l-.11-.02a.37.37 0 0 0-.35.1c-.35.33-.71.62-1.08.86-.27.17-.43.1-.5-.21l-.08-.38c-.08-.33.05-.53.39-.6.8-.15 1.52-.52 2.14-1.12a.17.17 0 0 0 .05-.14c0-.05-.02-.1-.06-.13l-.09-.07c-.02-.02-.05-.02-.08 0-.69.4-1.4.66-2.14.8a.53.53 0 0 0-.33.2l-.24.28c-.08.1-.19.16-.32.17l-.92.09a.52.52 0 0 1-.46-.17.53.53 0 0 1-.14-.47 1.4 1.4 0 0 0-.42-1.27.35.35 0 0 1-.1-.3c0-.12.06-.2.15-.28.95-.66 1.78-1.43 2.5-2.31.38-.47.91-.85 1.58-1.13a.58.58 0 0 1 .42-.01c.13.04.24.13.32.25.28.48.65.86 1.1 1.15.08.05.1.1.07.18-.08.22-.2.4-.34.56-.06.07-.07.14-.02.22.05.07.11.1.2.07.7-.21 1.34.02 1.95.7.16.17.12.27-.12.3l-.88.05c-.08 0-.13.05-.13.13v.1c0 .08.02.14.07.2.05.05.11.08.19.08l1.12.01c.19 0 .24.08.15.25l-.09.15a.39.39 0 0 1-.34.21l-.75.03c-.17 0-.26.1-.26.26 0 .13.06.22.18.29.22.1.44.19.68.23.08.01.12.05.14.12.02.07 0 .13-.05.18-.23.2-.5.35-.78.43-.1.03-.14.09-.12.18l.02.1a.25.25 0 0 0 .28.21c.45-.07.83-.3 1.14-.69.22-.28.43-.7.63-1.23a.56.56 0 0 1 .32-.35l.44-.2c.61-.3 1.07-.48 1.38-.53.54-.08.92.09 1.14.52.2.39.2.77-.03 1.14-.18.32-.49.57-.9.75-.1.05-.14.12-.11.23l.03.1c.02.08.07.1.15.08.38-.13.72-.33 1.01-.6.1-.08.22-.1.34-.03.88.5 1.63.72 2.24.67l3.96-.3c1.06-.1 1.75.37 2.06 1.37.22.71.46 1.42.72 2.13.18.52.11 1.12-.21 1.8a10.28 10.28 0 0 1-1.17 1.77.77.77 0 0 1-.37.26c-.22.08-.42.2-.6.35-.19.15-.16.24.07.26l.45.06c.14.01.24.08.3.2.15.31.15.62 0 .94Z" fill="#F3F9FE"/><path d="M21.26 19.81c.33-.11.52-.38.45-.6-.08-.2-.4-.28-.73-.16-.32.11-.52.38-.44.6.08.2.4.28.72.16Z" fill="#0A5F85"/><path d="M18.1 22.32c.08.2.01.3-.2.25a1.06 1.06 0 0 1-.5-.24.43.43 0 0 1-.14-.5.24.24 0 0 1 .14-.14.23.23 0 0 1 .2.01c.23.12.4.33.5.62Z" fill="#F3F9FE"/><path d="M38.64 32.58c.13.08.26.13.38.14a1.2 1.2 0 0 0-.02.55c.02.12.07.29.14.5.07.2.12.35.13.45l.24 1.36c.03.16.1.38.24.64.14.27.22.48.24.65a.7.7 0 0 1-.17.56.71.71 0 0 1-.54.26c-1.98.06-3.97.08-5.99.07-4.33-.03-9.25.03-14.75.16a.5.5 0 0 1-.39-.16.5.5 0 0 1-.15-.4c.04-.69.15-1.37.35-2.05.04-.12.07-.34.09-.64.03-.4.08-.7.15-.86.12-.28.35-.45.68-.5.08-.01.15.02.2.08.04.07.04.13 0 .2l-.47.87a.33.33 0 0 0 .02.35c.07.12.17.17.3.17 6.07-.16 12.1-.2 18.12-.16.26 0 .6-.05 1.01-.17.22-.06.3-.2.24-.42l-.07-.24c-.06-.23-.2-.32-.43-.28-.43.07-.74.1-.9.07l-.27-.05c-.69-.12-1.2-.2-1.55-.24a8.56 8.56 0 0 0-1.56-.05c-1.1.08-2.14.12-3.15.11a.9.9 0 0 0-.4.1c-.3.14-.6.19-.92.13-.3-.05-.58-.19-.82-.41-.46-.43-1.02-.45-1.7-.08a.72.72 0 0 1-.37.1l-.48-.04a2.73 2.73 0 0 0-1 .04 10.2 10.2 0 0 1-4.12.42c-.47-.05-.78-.3-.94-.72-.15-.43-.08-.83.2-1.2.35-.45.68-.85 1-1.22.08-.1.08-.2 0-.3l-.4-.47.03-.26c0-.09.06-.14.15-.15.05 0 .1-.02.16-.05.15.22.33.4.54.53.1.06.2.06.31 0a3.73 3.73 0 0 0 1.7-1.93c.4-1 .94-1.9 1.6-2.72a.3.3 0 0 1 .2-.11c.1-.01.17.01.24.07l.07.05c.05.04.07.09.07.14 0 .06-.02.11-.07.15a4.52 4.52 0 0 0-1.47 2.23c-.19.58-.55 1.16-1.09 1.74-.31.35-.84.83-1.57 1.44l-.57.48c-.24.22-.44.47-.58.77-.1.23-.1.46.02.68.12.23.3.37.56.42 1.15.22 2.42.04 3.8-.56a.4.4 0 0 0 .23-.26c.06-.18.03-.33-.1-.45a.44.44 0 0 0-.31-.11 16.28 16.28 0 0 0-1.14.03c-.31.04-.59.1-.82.22-.32.14-.65.23-.99.26-.05 0-.08-.02-.09-.08v-.11c-.01-.1.03-.16.12-.2.1-.03.28-.1.5-.2.34-.14.59-.23.75-.28.29-.1.54-.13.77-.13.53.01.92 0 1.19-.02.34-.03.62-.1.84-.21.24-.12.45-.3.64-.56.19-.24.38-.59.57-1.04a.2.2 0 0 1 .15-.12c.06-.01.13 0 .18.04l.95.69c.08.05.12.13.11.23a.26.26 0 0 1-.15.21c-.53.27-.83.71-.9 1.33-.04.25.08.44.36.58.1.05.21.07.33.04a.5.5 0 0 0 .28-.16l.67-.76c.12-.12.26-.2.43-.2.17-.02.32.02.46.13.13.1.28.18.44.23.12.03.23.03.34-.01a4.39 4.39 0 0 1 2.04-.21c.14.02.26-.03.35-.15.09-.11.1-.24.06-.37l-.54-1.44a.25.25 0 0 1 .05-.27c.48-.55.83-1.2 1.05-1.93a.16.16 0 0 1 .1-.1.16.16 0 0 1 .13-.02l.12.04c.08.03.1.08.06.15a5.5 5.5 0 0 0-.56 2.57c.01.56.26.95.75 1.17a4.94 4.94 0 0 0 1.76.28c.14.01.23.1.26.24l.02.1c.03.11-.02.17-.14.17-.57 0-1.15-.06-1.74-.17a2.74 2.74 0 0 0-1.06.07c-.36.08-.64.12-.85.1a5.94 5.94 0 0 0-1.71.15.56.56 0 0 0-.4.34.51.51 0 0 0 .03.51c.09.14.2.16.34.08.22-.14.4-.21.56-.21.34 0 .84-.01 1.51-.06.6-.04 1.04-.06 1.34-.06a7.08 7.08 0 0 1 1.44.13c.7.14 1.25.2 1.61.19.63-.03 1.08-.23 1.34-.63Z" fill="#064D80"/><path d="M28.55 32.44c-.2.34-.14.76.14.92.28.17.67.02.87-.32.2-.34.14-.76-.14-.92-.28-.17-.67-.02-.87.32Z" fill="#F3F9FE"/><path d="M25.96 32.9c.33.04.63-.12.65-.36.03-.23-.22-.45-.56-.5-.34-.03-.63.13-.66.37-.03.23.23.45.57.49ZM38.15 35.29l-19.5.2a.25.25 0 0 0-.25.25v.16c0 .14.12.25.25.25l19.51-.2c.14 0 .25-.12.25-.26v-.16a.25.25 0 0 0-.26-.24ZM18.38 36.74l20.04-.19c.14 0 .23.07.27.2l.03.11c.02.1-.02.15-.12.16-1.52.1-3.03.1-4.52-.01a19.9 19.9 0 0 0-1.91-.05h-1.2c-.61-.02-1.07-.02-1.37 0-3.8.2-7.54.29-11.24.28-.1 0-.15-.06-.14-.15v-.19c0-.1.05-.16.16-.16Z" fill="#D4FDFC"/></svg>