<!-- by TradingView --><svg width="56" height="56" viewBox="0 0 56 56" xmlns="http://www.w3.org/2000/svg"><path fill="#F0F3FA" d="M0 0h56v56H0z"/><path d="M16.68 31a1.3 1.3 0 0 1-.56.93c-.41.17-.81.02-.82-.44a364.42 364.42 0 0 1 0-5.87.1.1 0 0 0-.1-.06h-2.58c-.52 0-.72-.25-.58-.76l.03-.07c.18-.44.45-.72.93-.73h6.49c.5.01.58.3.46.78l-.02.06c-.2.47-.53.72-.99.72h-2.13c-.08 0-.12.04-.12.13L16.68 31ZM43.3 28.04c-.14.46-.45.71-.93.71H38.1c-.32 0-.47.1-.48.4v.8c0 .3.15.55.46.55h5.27c.53 0 .73.13.62.63a.81.81 0 0 1-.18.35c-.29.34-.84.52-1.29.52H38c-1.5 0-2-.5-2-2v-2.79c.03-.87.14-1.27.5-2.02C36.96 24.28 38 24 39 24h4.35c.5 0 .73.28.6.74l-.03.13c-.11.47-.42.63-.92.63h-3.77c-.54 0-.96.32-1.24.8a.56.56 0 0 0-.05.11c-.18.54.03.84.6.84h4.21c.48 0 .68.2.58.65 0 .05-.02.1-.03.14ZM46.82 30.5h4.63c.47 0 .64.12.51.62l-.02.08a.9.9 0 0 1-.3.55c-.17.14-.42.25-.64.25-2 0-3.48-.02-4.5 0-1.12 0-1.51-1-1.5-1.94.02-1.04.02-2.06.02-3.05 0-1.7.82-3.02 2.5-3.01 1.32 0 2.67.02 4.05.04.35 0 .48.2.4.57a5.2 5.2 0 0 1-.08.33c-.12.42-.38.56-.78.56h-3.38c-.64.01-1.23.67-1.23 1.36v3.31c0 .14.2.33.32.33ZM4.65 32c-.51 0-.72-.26-.63-.78l.02-.06c.2-.48.53-.66.98-.66 1.41.01 2.84.06 4.27 0 .39-.02.68-.33.88-.67.06-.1.1-.2.11-.3.1-.54-.14-.77-.7-.78a96.8 96.8 0 0 0-3.9 0c-1.58.04-1.87-1.8-1.14-2.91.67-1.01 1.11-1.77 2.41-1.8C8.5 24 9.57 24 11 24c.47.02.7.29.57.75l-.03.08c-.15.48-.47.67-.97.67H6.95c-.52 0-.85.32-1 .83l-.03.09c-.15.53.04.83.57.83h4.06c1.18 0 1.62 1 1.4 2.05-.4 1.84-.95 2.7-3.73 2.7H4.65ZM32.1 30.53c1.01-.3 1.44-1.52 1.4-2.56-.03-.93-.03-1.86 0-2.77.02-.59.4-1.33 1.07-1.18.26.06.43.26.43.58 0 1.37-.02 2.76 0 3.9.04 1.87-.79 2.88-2.48 3.33-.83.22-1.72.23-2.65.01-.83-.19-.88-1.12-.87-1.83.02-1.59.03-3.23.03-4.93 0-.48.2-.75.6-1a.34.34 0 0 1 .1-.04c.46-.1.77.09.77.56V30c0 .57 1.26.63 1.6.53Z" fill="#2CA9E0"/><path fill-rule="evenodd" d="M25.5 32c1.5 0 2.45-1.02 2.5-2.5v-4c0-1-.72-1.5-1.6-1.5h-2.9c-1.88 0-3.5.5-3.5 2.72 0 .97 0 1.96.02 3.28 0 1.02.5 2 1.5 2h3.98Zm-2.78-6.5c-.64 0-1.2.67-1.2 1.3v3.1c0 .25.26.6.51.6.9.02 1.83.01 2.76 0 .86-.01 1.7-.32 1.71-1.29.02-.81 0-1.64 0-2.5.01-.7-.05-1.2-.84-1.21-.92 0-1.9-.02-2.94 0Z" fill="#2CA9E0"/></svg>