<!-- by TradingView --><svg width="56" height="56" viewBox="0 0 56 56" xmlns="http://www.w3.org/2000/svg"><path fill="#023F8C" d="M0 0h56v56H0z"/><path d="M47.24 26v-1H52v1h-2v5h-1v-5h-1.76ZM47 25v6h-.98l-2.87-4.09H43V31h-1v-6h.99l2.86 4.09H46V25h1ZM41.52 28c0 .63-.12 1.17-.36 1.62-.24.44-.57.79-.98 1.02-.41.24-.88.36-1.4.36a2.57 2.57 0 0 1-2.38-1.39 3.4 3.4 0 0 1-.36-1.61c0-.63.12-1.17.36-1.61A2.55 2.55 0 0 1 38.78 25c.52 0 .99.12 1.4.36.41.23.74.58.98 1.03.24.44.36.98.36 1.61Zm-1.09 0c0-.44-.07-.82-.21-1.12-.14-.3-.33-.54-.58-.7a1.57 1.57 0 0 0-.86-.23c-.33 0-.61.08-.86.24-.25.15-.45.38-.59.69-.14.3-.2.68-.2 1.12 0 .44.06.82.2 1.12.15.3.34.54.59.7.25.15.53.23.86.23.32 0 .6-.08.86-.23.25-.16.44-.4.58-.7.14-.3.21-.68.21-1.12ZM29.52 25h1.27l1.7 4.35h.06l1.7-4.35h1.27v6h-1v-4.12h-.05l-1.58 4.1h-.74l-1.58-4.11h-.05V31h-1v-6ZM20.32 31h-1.15l2.1-6h1.33l2.1 6h-1.15l-1.6-4.77h-.04L20.32 31Zm.04-2.35h3.14v.87h-3.14v-.87ZM14.6 31v-6h2.25c.45 0 .84.08 1.15.24.31.16.55.39.7.67.17.3.25.63.25 1 0 1.1-1 2.09-2.12 2.09h-1.6v-1h1.46c.64 0 1.16-.38 1.16-1.08 0-.7-.52-.92-1.17-.92h-1.07v5h-1Zm3.1-2.72L19.16 31h-1.2l-1.46-2.72h1.18ZM9 26v-1h5v1h-2v5h-1v-5H9ZM24 26v-1h5v1h-2v5h-1v-5h-2ZM7.46 26.68a.77.77 0 0 0-.35-.58c-.2-.14-.46-.2-.78-.2-.22 0-.42.03-.58.1a.86.86 0 0 0-.37.26.65.65 0 0 0-.04.71c.06.09.13.17.23.23s.21.11.33.15c.12.04.24.08.37.1l.56.14c.22.06.44.12.64.21.21.09.4.2.57.33.16.14.3.3.4.48.09.2.14.41.14.66 0 .35-.1.65-.27.9-.18.27-.44.47-.77.61-.34.15-.75.22-1.22.22s-.87-.07-1.21-.21a1.8 1.8 0 0 1-.8-.62A1.8 1.8 0 0 1 4 29.2h1.06c.02.2.08.37.2.5.1.14.25.24.44.3.18.07.38.1.6.1.24 0 .45-.03.62-.1a1 1 0 0 0 .42-.29.7.7 0 0 0 .16-.43.55.55 0 0 0-.14-.38 1 1 0 0 0-.37-.25 3.69 3.69 0 0 0-.56-.18l-.68-.17c-.5-.13-.88-.31-1.17-.56a1.28 1.28 0 0 1-.42-1.01c0-.34.1-.64.28-.9.2-.26.46-.46.79-.6.33-.15.7-.22 1.12-.22.42 0 .8.07 1.11.22.32.14.57.34.75.6.19.24.28.53.29.86H7.46Z" fill="#fff"/></svg>