<!-- by TradingView --><svg width="56" height="56" viewBox="0 0 56 56" xmlns="http://www.w3.org/2000/svg"><path fill="#F0F3FA" d="M0 0h56v56H0z"/><path fill-rule="evenodd" d="m26.9 10.43-.3.56c-.18.33-.28.66-.33 1-.22 1.71 1.68 2.77 2.9 1.67.89-.8.74-1.98.18-2.93-.52-.87-.92-1.72-1.2-2.54-.09-.25-.17-.25-.24 0-.23.8-.62 1.52-1.01 2.24Zm2.07.86c.18.88-.02 1.6-.6 2.2-.14.17-.12.21.1.15.62-.21 1.05-.87.89-1.58a3.1 3.1 0 0 0-.3-.8c-.1-.18-.13-.17-.09.03Z" fill="#009845"/><path d="M24.4 17.47c-2.6-.86-3.46-3.18-3.46-5.9a.03.03 0 0 1 .01-.02.03.03 0 0 1 .04 0l.03.03.04.05c1.33 3.13 5.7 1.87 6.41 5.61.14.72.18 1.46.13 2.2 0 .08-.03.08-.06.02-.51-.99-2.16-1.66-3.14-1.99ZM32.12 17.3c-1.08.42-2.17.8-3.1 1.55-.19.15-.3.36-.44.56-.07.1-.1.1-.1-.04-.07-1.32.08-3.02 1.04-3.95 1.72-1.65 4.4-1.32 5.5-3.75.08-.17.11-.16.12.02.02 2.35-.76 4.73-3.02 5.6ZM35.68 20.36c-.78 1.81-2.07 2.65-3.8 3.25-1.09.37-2.5 1-3.22 1.99a.19.19 0 0 0-.04.07.3.3 0 0 1-.05.11c-.06.08-.1.07-.1-.03-.06-1.72.1-3.76 1.4-4.89 2-1.74 5.24-1.53 6.38-4.4.06-.15.1-.14.1.02a9.09 9.09 0 0 1-.67 3.88ZM23.65 23.38c-2.9-1.03-3.97-3.76-3.91-6.78 0-.24.05-.25.14-.03 1.07 2.47 3.72 2.59 5.7 3.8 1.85 1.15 2.12 3.2 2.02 5.39 0 .09-.03.1-.07.02-.28-.5-.73-.92-1.34-1.26-.72-.4-1.57-.79-2.54-1.14ZM19.97 24.96c.16 0 .17-.06.04-.15-.68-.5-1.34-.98-1.97-1.46-.39-.3-.7-.6-.95-.95-.4-.54-.01-1.17.6-.93.45.17.86.39 1.21.64.76.54 1.6 1.16 2.53 1.86 1.29.97 2.52 1.63 3.89 2.56a4.91 4.91 0 0 1 2.07 2.73c.18.62.26 1.5.25 2.66a229.3 229.3 0 0 0-.01 5.02c-.01.01-.03.06-.05.06h-3.06a.1.1 0 0 1-.05 0 .1.1 0 0 1-.03-.03.12.12 0 0 1-.03-.08l-.03-4.83a.54.54 0 0 0-.12-.35c-.1-.11-.21-.2-.36-.28-1.49-.73-2.81-1.37-3.97-1.9-.75-.36-1.33-.67-1.74-.94-1.08-.71-1.91-2.25-2.44-3.51-.53-1.3-1-2.67-1.4-4.12a6.93 6.93 0 0 1-.32-2.51c.07-.5.55-.58.83-.25.31.36.58.85.81 1.47.87 2.3 1.29 5.38 4.3 5.29Z" fill="#009845"/><path d="M35.93 24.87v.02a.05.05 0 0 0 .02.04h.02c1.91.14 2.96-1.15 3.55-2.94l.8-2.35c.2-.55.8-1.95 1.48-1.58.05.03.09.07.1.13.23.65 0 1.78-.16 2.4a26.97 26.97 0 0 1-2.13 5.81c-.4.78-.9 1.42-1.47 1.93-.37.33-.96.67-1.76 1.03-.7.31-1.42.66-2.17 1.05-.76.4-1.54.7-2.28 1.12a.62.62 0 0 0-.23.23.7.7 0 0 0-.08.34l-.03 4.83c0 .02 0 .03-.02.05a.07.07 0 0 1-.05.02h-3.08l-.03-.05c-.01 0-.02 0-.03-.02l-.01-.02a4.8 4.8 0 0 1 2.37-10.41c1.09-.78 2.27-1.4 3.32-2.17L37 22.18c.45-.34.9-.58 1.33-.73.36-.13.62 0 .76.36.02.05.02.1 0 .16-.11.36-.3.64-.53.86-.7.62-1.55 1.26-2.54 1.93a.24.24 0 0 0-.09.11ZM19.81 38.7c-.34.12-.34.53 0 .65.28.1.56.19.84.26.83.2 1.24.75.98 1.6a1 1 0 0 1-.7.68c-1.03.3-2.06.04-2.24-1.13 0-.06.02-.09.07-.1l.53-.05c.03 0 .06 0 .09.02.03.01.05.04.06.07.09.26.2.5.5.59.34.1.95.04 1-.4.03-.24-.09-.4-.36-.48-.36-.1-.69-.21-1-.32-.61-.2-.92-.82-.67-1.4.3-.7 1.1-.77 1.75-.64.52.1.83.44.94.99.02.1-.03.16-.14.16H21a.22.22 0 0 1-.13-.04.21.21 0 0 1-.08-.11c-.12-.44-.6-.47-.98-.35ZM23.3 40.7c.02.78 1.42.86 1.43.04l.02-2.68c0-.04.02-.06.06-.06h.62c.03 0 .05.02.05.06.03 1.03.03 1.96-.01 2.78-.05.94-.8 1.2-1.64 1.15-.84-.05-1.26-.52-1.28-1.38-.02-.86-.02-1.7 0-2.53 0-.05.02-.07.07-.07h.57a.1.1 0 0 1 .08.02.1.1 0 0 1 .03.07c-.02.9-.02 1.77 0 2.6ZM30.85 41.3l1.9.02.06.03.02.06v.5a.1.1 0 0 1-.09.09H30.1a.1.1 0 0 1-.09-.09v-3.82a.1.1 0 0 1 .1-.09h2.57a.09.09 0 0 1 .09.1v.48a.09.09 0 0 1-.09.09h-1.82a.09.09 0 0 0-.1.1l.01.7a.1.1 0 0 0 .1.1l1.66-.01a.09.09 0 0 1 .1.09v.5a.1.1 0 0 1-.05.08h-1.73a.1.1 0 0 0-.06.02.1.1 0 0 0-.02.07v.9c0 .02 0 .05.03.06.01.02.03.03.06.03Z" fill="#009845"/><path d="M38.83 45H17.59l-3.45-5.93a.05.05 0 0 1 0-.04c0-.02.01-.03.03-.03h.02l5.48 5h17.89c-.06.03.06 0 0 0-.05.05.06-.03 0 0 1.38-1.63 2.74-3.61 4.06-5.2a.1.1 0 0 1 .05-.03c.04-.02.05 0 .03.04L38.83 45Z" fill="#009845"/><path fill-rule="evenodd" d="M27.27 40.51h.15c.71.01 1.56.03 1.83-.8.26-.78-.07-1.66-1-1.7h-1.7c-.05 0-.07.02-.07.07v3.78c0 .1.04.14.13.14h.52c.07 0 .1-.05.1-.12v-1.3a.07.07 0 0 1 .04-.07Zm-.01-1.81a.08.08 0 0 0-.03.05v.97a.08.08 0 0 0 .07.07l.67.01a.6.6 0 0 0 .4-.15c.05-.04.1-.1.12-.16a.48.48 0 0 0 .05-.2v-.09a.5.5 0 0 0-.17-.36.59.59 0 0 0-.39-.16h-.67c-.02 0-.04 0-.05.02ZM36.2 40.24l.03-.02c.64-.2.9-.65.8-1.31-.12-.88-.76-.9-1.54-.9h-1.44c-.03 0-.05 0-.05.04v3.8c0 .1.05.15.14.15h.5c.09 0 .14-.05.14-.15v-1.42c-.01-.06.02-.1.09-.1.32-.05.58.07.77.36.26.39.5.78.73 1.17.05.1.13.14.24.14h.59c.11 0 .14-.07.09-.17-.24-.4-.48-.79-.72-1.15-.1-.14-.2-.25-.35-.34a.07.07 0 0 1-.03-.07l.01-.03ZM34.8 38.7a.07.07 0 0 0-.02.04v.89a.07.07 0 0 0 .07.06h.94c.13 0 .26-.05.36-.13a.4.4 0 0 0 .14-.3v-.16a.37.37 0 0 0-.04-.16.43.43 0 0 0-.1-.14.52.52 0 0 0-.17-.1.59.59 0 0 0-.2-.02h-.94c-.01 0-.03 0-.04.02Z" fill="#009845"/></svg>