<!-- by TradingView --><svg width="56" height="56" viewBox="0 0 56 56" xmlns="http://www.w3.org/2000/svg"><path fill="#F0F3FA" d="M0 0h56v56H0z"/><path d="M12.5 36.43c1.36-.12 2.58-.42 3.67-.9 2.93-1.31 5.11-3.8 7.03-6.31l3.64-4.73c1.22-1.58 2.53-3.46 3.47-4.66a18.82 18.82 0 0 1 2.95-3.06 11.88 11.88 0 0 1 4.64-2.32c1.19-.3 2.42-.44 3.68-.45.09 0 .1.02.02.07l-.18.1c-.9.4-1.87.82-2.87 1.23a15.13 15.13 0 0 0-6.2 4.74c-.56.68-1.13 1.37-1.64 2.05l-4.04 5.36c-.73.96-1.49 1.89-2.27 2.84-.77.93-1.62 1.86-2.56 2.8a15.41 15.41 0 0 1-4.74 3.4c-1.19.5-2.42.62-3.69.38a4 4 0 0 1-1.11-.4c-.19-.1-.17-.14.03-.14h.18Z" fill="#090909"/><path d="M42.88 15.68c-.61.26-1.16.55-1.63.86-1.2.78-2.48 1.82-3.68 2.93-.41.39-.82.78-1.22 1.2a68.65 68.65 0 0 0-4.25 4.72l-4.44 5.44a52.54 52.54 0 0 1-3.41 3.81 17.75 17.75 0 0 1-3.64 2.9c-.92.54-1.88.89-2.9 1.06-.32.05-.72.03-1.18-.06a3.6 3.6 0 0 1-1.75-.71c-.06-.06-.05-.09.04-.08 3.65.34 6.3-2.08 8.47-4.62.38-.46.74-.9 1.06-1.33 1.44-1.92 2.83-3.81 4.18-5.67a54.57 54.57 0 0 1 3.09-3.86 25.24 25.24 0 0 1 7.75-6.18 19.64 19.64 0 0 1 6.34-1.86c.06 0 .07.01.02.05l-.3.2c-.9.45-1.75.85-2.55 1.2Z" fill="#090909"/><path d="M26.96 35.55a14.16 14.16 0 0 1-5.65 3.8c-.24.08-.5.11-.75.11-.48 0-1 0-1.37-.31a.06.06 0 0 1-.02-.06l.01-.03.03-.02c3.46-1.58 6.28-4.21 8.76-7.05.62-.7 1.5-1.75 2.21-2.67l4.1-5.2c.25-.3.8-.96 1.67-1.95a35.6 35.6 0 0 1 2.19-2.3 20.64 20.64 0 0 1 3.6-2.79 13.61 13.61 0 0 1 7.25-2 .02.02 0 0 1 .01.03l-.01.02c-2.3 1.24-4.64 2.43-6.83 3.79-.58.36-1.13.82-1.7 1.2a17.17 17.17 0 0 0-3.07 2.62 44.8 44.8 0 0 0-3.08 3.64l-3.67 4.84a46.7 46.7 0 0 1-3.68 4.33Z" fill="#090909"/><path d="M15.5 20.7c4.7-1.75 9.76-2.24 14.75-1.98a.06.06 0 0 1 .04.1 35.72 35.72 0 0 0-3.14 3.81c-1.27 1.73-2.5 3.39-3.7 4.96a37.38 37.38 0 0 1-4.32 4.84c-.97.89-1.97 1.64-3.02 2.24a9.83 9.83 0 0 1-4.57 1.34.53.53 0 0 1-.35-.1c-1.67-1.27-3.28-2.88-3.92-4.92-1.06-3.36 1.2-6.26 3.84-8.06 1.31-.89 2.78-1.64 4.4-2.24ZM47.94 29.36c-.37 2.19-2.08 4.02-3.88 5.32-1.2.88-2.49 1.63-3.85 2.26A33.37 33.37 0 0 1 28.9 39.9c-2.13.17-4.22.1-6.27-.22-.1-.02-.1-.05-.02-.1.9-.54 1.78-1.12 2.66-1.74 1.95-1.4 3.7-3 5.2-4.8 1.54-1.83 2.85-3.8 4.22-5.77.59-.85 1.2-1.65 1.85-2.42a24.7 24.7 0 0 1 4.1-3.85 23.29 23.29 0 0 1 3.65 2.02c2.06 1.42 4.12 3.63 3.65 6.33Z" fill="#ACE0E7"/></svg>