<!-- by TradingView --><svg width="56" height="56" viewBox="0 0 56 56" xmlns="http://www.w3.org/2000/svg"><path fill="#F0F3FA" d="M0 0h56v56H0z"/><path d="M51.98 25v.02a.02.02 0 0 1 .02.02l-.58 1.8h-.02l-1.4-.06H50l-.01.01-1.25 5.2a.02.02 0 0 1-.03.01h-3.04a.02.02 0 0 1 0-.03L48 23.02l.01-.01h.02l3.38-.01a.02.02 0 0 1 .01 0v.02L50.75 25h1.24ZM8.22 24.73c-.1.5-.18.98-.25 1.41-.06.38.1.58.48.58.52.01 1.04.01 1.57 0a2 2 0 0 1 .77.1c.5.22.62.78.52 1.28l-.57 3.13c-.11.61-.61.77-1.16.77H4.85c-.7 0-.93-.44-.83-1.1.1-.67.22-1.17.31-1.85 0-.03.02-.05.05-.05h2.96c.02 0 .03 0 .03.03-.03.27-.1.43-.18.84-.04.27.1.44.38.46.23.02.34-.1.37-.32.08-.57.2-1.18.25-1.62.04-.26-.07-.39-.33-.39h-2.8c-.45 0-.55-.29-.46-.67l.8-3.64c.1-.46.4-.69.89-.69h5.02c.65 0 1.12.24.96.99a333.76 333.76 0 0 0-.42 2l-.03.01H8.76l-.03-.06.2-1.18c.07-.38-.65-.4-.71-.03ZM14.9 29.84c-.1.4.48.52.58.12A8070.15 8070.15 0 0 0 16.62 25h3.32a.02.02 0 0 1 .01.03l-1.67 6.94-.02.02h-.02l-5.78.01c-.3 0-.77-.02-.93-.3a.63.63 0 0 1-.07-.45l1.22-6.21c0-.03.02-.04.04-.04h3.25c.03 0 .04.01.03.04l-1.1 4.8ZM27.26 25.85l.36-.8c0-.02.02-.05.04-.05h2.4c.23 0 .4.02.55.08.35.13.64.46.68.84.01.12 0 .27-.05.44a939.82 939.82 0 0 0-1.54 5.6l-.02.04h-3.1l-.02-.03-.01-.01a.04.04 0 0 1-.01-.03l1.26-4.6c.05-.17-.03-.29-.24-.33h-.02c-.21 0-.35.1-.4.3a6684.88 6684.88 0 0 0-1.32 4.7h-3.08l-.01-.02a.03.03 0 0 1 0-.02l1.1-4.75c.1-.4-.48-.53-.58-.13l-1.1 4.84-.02.03-.04.05h-2.96c-.03 0-.04-.05-.04-.07l1.34-6.89.01-.01.02-.03h5.82c.04 0 .08.04.11.07l.82.8c.02.01.04.01.05-.02ZM35.12 29.43a.03.03 0 0 1-.02-.01.04.04 0 0 1 0-.03c.15-.66.3-1.33.48-2.03.1-.45-.47-.7-.57-.22l-.54 2.4c-.08.35 0 .68.44.68a318.82 318.82 0 0 0 2.96-.02v.01l-.45 1.76-.01.02-.03.01H31.6c-.94 0-.9-.88-.75-1.53l1.09-4.72c.08-.34.24-.57.5-.67.13-.06.34-.08.63-.08 1.7.02 3.36.02 4.96 0 .24 0 .44.03.6.1.42.17.38.57.28.95a344.67 344.67 0 0 0-.92 3.5l-2.87-.12ZM43.14 27.3c.1-.4-.48-.6-.57-.2l-.55 2.53a.76.76 0 0 0-.01.22c.02.28.2.37.5.36a278.22 278.22 0 0 0 2.93-.01L45 31.97l-.01.03-.03.01h-5.4c-.32 0-.55-.02-.7-.05-.66-.18-.55-1.06-.43-1.6.29-1.2.63-2.69 1.03-4.46.13-.57.37-.9 1-.89h5.28c.57 0 .95.3.8.91a1364.97 1364.97 0 0 0-.98 3.64l-2.88-.12c-.03 0-.04-.02-.03-.04.16-.64.33-1.34.5-2.1Z" fill="#001452"/></svg>