<!-- by TradingView --><svg width="56" height="56" viewBox="0 0 56 56" xmlns="http://www.w3.org/2000/svg"><path fill="#F0F3FA" d="M0 0h56v56H0z"/><path d="M38.64 19.74c-.04-.05-.08-.05-.12 0l-7.9 8.66a.36.36 0 0 1-.12.09c-.04.02-.1.04-.14.04h-3.1l-.05-.01a.07.07 0 0 1-.02-.04.19.19 0 0 1 .03-.17c.13-.18.3-.37.47-.56A1867.08 1867.08 0 0 0 38.52 15.9a.13.13 0 0 1 .1 0c.02 0 .03.01.04.03l11.3 12.4a.12.12 0 0 1 .03.13.13.13 0 0 1-.05.05c-.02.02-.05.03-.07.03h-3.13c-.03 0-.07-.01-.1-.03a.24.24 0 0 1-.08-.05l-7.92-8.71ZM9.87 19.27l-.16-.15c-.08-.09.01-.13.11-.12H12v1.97c0 .1-.16.15-.26.18-.3.1-.68.1-1 .04a.73.73 0 0 0-.3 0c-.07.01-.08.05-.04.11.34.5.8.8 1.39.94.06.02.21.06.21.13v1.15c-.01.17-.02.31.1.44l.23.23c.13.15.25.28.4.39.18.13.27.09.27-.13v-5.37c0-.06.02-.08.08-.08h1.83c.04 0 .09-.01.09.02v1.92c0 .08-.05.11-.13.1-.27-.01-.36 0-.64.05a.32.32 0 0 0-.23.18.3.3 0 0 0 .02.28c.4.66.96 1.19 1.66 1.58.3.18.64-.04.67-.38.02-.21.02-.42.02-.61 0-.06.05-.14.1-.14h1.43c.06 0 .1.09.1.14v1.3c0 .17.09.3.2.46l.04.06.47.65c.2.19.29.15.29-.12V19h2.51c.04 0 .07.02.07.07v1.72a.26.26 0 0 1-.14.23.27.27 0 0 1-.28-.01c-.28-.17-.7-.43-1.01-.28a.31.31 0 0 0-.16.16.3.3 0 0 0 0 .22c.07.21.2.4.35.56l2.99 2.96c.17.17.33.17.5.01a.31.31 0 0 0 .06-.06c.1-.16.08-.3-.06-.42l-2.1-1.84a.08.08 0 0 1 .03-.14c.45-.08.6-.29.78-.54.08-.1.16-.22.27-.33.44-.46 1.44-.93 1.78-.04.25.67-.61 1-1.13 1.09a.1.1 0 0 0-.07.05.09.09 0 0 0 .01.1c.2.24.45.49.74.72.2.15.38.06.56-.03.56-.28.92-.88.77-1.5-.3-1.2-1.45-1.99-2.7-1.6a.1.1 0 0 1-.08-.02.1.1 0 0 1-.03-.08c0-.3-.12-.55-.36-.73-.3-.24-.26-.28.13-.27h3.38c.13 0 .19-.08.19-.2v-.58c0-.11-.06-.22-.18-.22h-7.06a8.28 8.28 0 0 0-1.5-2.47c-.41-.48-1.22-.57-1.81-.52a.17.17 0 0 0-.13.08.16.16 0 0 0-.01.15c.11.27.27.52.48.74.05.05.1.07.17.06.52-.06.95-.07 1.33.35.36.4.66.86.9 1.49.02.08 0 .12-.1.12H7.2c-.12 0-.2.11-.19.24v.5c0 .16.08.26.23.26H9v1.92c0 .2-.18.3-.34.2l-.15-.1c-.25-.18-.54-.4-.82-.38a.4.4 0 0 0-.36.25.38.38 0 0 0-.02.16c.02.26.14.5.37.74 1.03 1 2 1.98 2.92 2.9.09.1.18.1.29.03l.23-.18a.21.21 0 0 0 .09-.16.2.2 0 0 0-.08-.17l-2.1-1.8a.1.1 0 0 1-.03-.09.1.1 0 0 1 .08-.06c.65-.1 1.04-.48 1.17-1.11.03-.18.03-.61-.03-1.29-.02-.3-.17-.43-.35-.59ZM16.4 19h1.5c.06 0 .1.03.1.07v1.84c0 .04-.03.08-.08.08H16.4c-.05 0-.1-.03-.1-.07v-1.84c0-.05.04-.08.1-.08Z" fill="#C83A2B"/><path d="m32.22 28.82 6.28-7.28a.1.1 0 0 1 .08-.03.1.1 0 0 1 .08.03l6.27 7.28a.1.1 0 0 1-.02.16.1.1 0 0 1-.06.02H32.3a.1.1 0 0 1-.1-.06.1.1 0 0 1 .02-.12Z" fill="#1F1B17"/><path d="M12.56 26.94c.46-.15.82-.45.7-.94-.15-.54-.92-.37-1.22-.13-.13.11-.26.1-.38-.01l-.56-.55a.14.14 0 0 1-.04-.1.14.14 0 0 1 .04-.1c.17-.15.37-.24.6-.27.74-.09 1.33.08 1.79.5.52.48.74 1.31.32 1.91-.22.32-.58.5-1.07.58-1.36.2-2.5-.58-3.33-1.57a.2.2 0 0 1-.05-.16c.02-.1.06-.16.12-.2.1-.04.2-.03.28.05.26.25.53.49.82.7.6.44 1.27.53 1.98.3ZM18.54 38.03a.09.09 0 0 0 .1-.02l7.88-8.9c.06-.08.14-.11.23-.11h3.12a.11.11 0 0 1 .1.07.11.11 0 0 1-.02.12L18.67 41.93c-.08.1-.16.1-.24 0A11463.8 11463.8 0 0 1 7.11 29.11a.08.08 0 0 1 .03-.1h.04l3.05-.01a.6.6 0 0 1 .25.06.6.6 0 0 1 .2.15c2.55 2.9 5.13 5.8 7.72 8.71.04.05.1.09.14.1Z" fill="#C83A2B"/><path d="m24.93 29.13-6.32 7.04a.08.08 0 0 1-.1.02.08.08 0 0 1-.02-.02l-6.32-7.05a.07.07 0 0 1-.01-.08l.02-.03.05-.01h12.64a.08.08 0 0 1 .07.04.07.07 0 0 1-.01.09Z" fill="#1F1B17"/></svg>