<!-- by TradingView --><svg width="56" height="56" viewBox="0 0 56 56" xmlns="http://www.w3.org/2000/svg"><path fill="#F0F3FA" d="M0 0h56v56H0z"/><path d="m28.26 16.17-1.87.18c.03-.13-.07-.29-.3-.46.03-1.42.94-1.73 1.35-2.85.06-.16.01-.29-.14-.37l-1.04-.54a.3.3 0 0 1-.12-.13c-.52-1.01.55-2.09 1.03-2.94a.12.12 0 0 1 .14-.06l.05.03.1.1c.12.1.15.21.08.35l-.46 1a.25.25 0 0 0 .05.28l.08.05c.44.18.92.23 1.2.66.33.52.3 1-.08 1.44-.37.4-.7.82-1 1.24a.23.23 0 0 0 .03.29c.2.22.45.38.74.48.1.04.2.12.26.22.18.3.14.64-.1 1.03ZM33.23 17.38l-1.83-.64a.39.39 0 0 1-.22-.18.5.5 0 0 0-.12-.14c.22-.4.44-.76.87-.95.53-.22 1-.51 1.43-.86a.45.45 0 0 0 .05-.64l-.67-.78a.4.4 0 0 1-.09-.35c.2-.95 1.34-1.4 2.06-1.93.44-.34.55-.25.32.25-.14.31-.38.56-.7.76a.4.4 0 0 0-.18.3.4.4 0 0 0 .12.34c.31.28.76.53.76 1-.02 1.13-1.2 1.38-2.02 1.84a.46.46 0 0 0-.22.5c.01.07.04.13.09.18.29.36.86.82.35 1.3Z" fill="#FEA910"/><path d="M26.09 15.89c.23.17.33.33.3.46l-.67.11-.17-.07c-.12-.05-.22-.02-.3.08l-.16.24a7.86 7.86 0 0 0-2.83 1l-.45-.6a.31.31 0 0 1 0-.38l.54-.7a.38.38 0 0 0-.06-.53c-.38-.3-.8-.53-1.25-.68-.94-.32-1.2-1.57-.27-2.1a.51.51 0 0 0 .2-.7.51.51 0 0 0-.2-.19 1.33 1.33 0 0 1-.63-.72c-.15-.42-.04-.5.31-.22.76.58 1.6.8 2.04 1.74.07.16.06.31-.01.47-.14.28-.33.52-.57.73a.58.58 0 0 0 .09.94l1.54.87c.11.07.21.16.3.27l.37.53c.13.2.22.18.26-.05.12-.59-.13-.95-.76-1.07a.67.67 0 0 1-.52-.82c.03-.12.1-.23.18-.31.18-.18.26-.4.25-.65a.51.51 0 0 0-.17-.36c-.3-.27-.52-.57-.67-.9-.1-.2-.05-.23.13-.11l1.32.87c.15.1.23.06.23-.12a.65.65 0 0 1 .21-.47c.32-.26.53-.58.63-.96.03-.11.1-.16.22-.12l.1.02c.01 0 .02.01.02.03-.05.41-.16.8-.32 1.17a.36.36 0 0 0 .03.36c.17.25.39.44.65.56a.57.57 0 0 1 .3.69.57.57 0 0 1-.14.23l-.61.6a.34.34 0 0 0-.03.45c.22.28.41.42.57.4Zm-1.32-1.02a.2.2 0 0 0 .1-.04.29.29 0 0 0 .08-.09.42.42 0 0 0 .04-.13v-.15a.48.48 0 0 0-.1-.26c-.06-.07-.13-.1-.2-.1a.2.2 0 0 0-.1.04.29.29 0 0 0-.08.1.43.43 0 0 0-.05.13.53.53 0 0 0 .1.41c.07.07.14.1.21.1Z" fill="#FFEA0A"/><path d="M30.7 16.42c-.32.08-.61.05-.88-.1a.49.49 0 0 0-.33-.05c-.34.06-.7.05-1.07-.03l.6-.66a.36.36 0 0 0 .06-.44c-.1-.2-.26-.37-.48-.5a.56.56 0 0 1-.05-.94l.8-.6a.44.44 0 0 0 .14-.48.43.43 0 0 0-.08-.16 1.5 1.5 0 0 1-.37-1.04c0-.24.07-.26.19-.05l.27.46c.07.11.16.2.28.28.4.26.67.58.8.97.04.13.12.15.21.05.46-.46 1-.48 1.45-.95.18-.19.23-.16.15.1-.1.34-.31.64-.62.89a.49.49 0 0 0-.17.4c0 .27.1.5.3.71a.6.6 0 0 1-.03.86.63.63 0 0 1-.27.15c-.73.2-1.03.57-.9 1.13ZM30.06 15c.1.02.22-.02.32-.13a1 1 0 0 0 .22-.45 1 1 0 0 0 0-.5c-.05-.14-.13-.24-.23-.26-.1-.02-.22.03-.32.14a1 1 0 0 0-.22.45 1 1 0 0 0 0 .5c.05.14.13.23.23.25ZM35.27 18.68l-1.65-1.12c.52-.34.56-.75.12-1.23-.12-.12-.13-.26-.03-.4a.93.93 0 0 1 .94-.44.68.68 0 0 0 .75-.72c-.03-.4.05-.76.26-1.08.11-.17.16-.15.16.05-.01.56.15 1.11.5 1.67a.2.2 0 0 0 .2.09c.43-.06.81-.25 1.14-.57h.03l.07.07c.03.02.03.05.01.09-.18.35-.44.62-.77.83-.45.28-.48.77-.16 1.16.08.11.1.23.06.37-.37.99-1.3.18-1.63 1.23Zm-.35-1.26c.07.04.17.02.28-.06a1.27 1.27 0 0 0 .4-.56.87.87 0 0 0 .03-.2l-.01-.17a.17.17 0 0 0-.08-.1c-.07-.04-.16-.02-.27.06-.1.07-.21.2-.3.34l-.1.22a.87.87 0 0 0-.04.2c0 .07 0 .13.02.17.02.05.04.08.07.1Z" fill="#FEA910"/><path d="M21.99 17.88a1.6 1.6 0 0 1-.91.4.33.33 0 0 0-.27.17c-.17.32-.4.57-.69.73a.72.72 0 0 0-.3-.1c.13-.35.08-.63-.13-.82-.47-.43-1.07-.06-1.43-.85a.16.16 0 0 1 .02-.18c.22-.28.31-.59.26-.92a.41.41 0 0 0-.2-.31 2.17 2.17 0 0 1-.6-.51c-.49-.62-.4-.7.23-.25.18.12.38.21.6.26.12.04.22 0 .3-.1.35-.5.51-1.03.48-1.6-.01-.16.04-.19.16-.08.32.3.4.64.25 1.05-.07.16-.03.3.1.41.49.4.93.2 1.4.47.16.1.25.24.24.43 0 .39-.28.53-.37.85-.04.12 0 .23.1.31l.76.64Zm-1.7-.48c.06-.04.1-.13.08-.26a1.18 1.18 0 0 0-.3-.6.83.83 0 0 0-.16-.12.4.4 0 0 0-.15-.07c-.05 0-.09 0-.12.03-.07.04-.1.13-.09.26a1.18 1.18 0 0 0 .3.6c.05.05.1.1.16.13l.15.06c.05 0 .1 0 .13-.03Z" fill="#FED915"/><path d="M19.83 19.08c.1.01.19.04.29.1l-1.8 1.92c-.66.04-.85.3-.58.75a11.64 11.64 0 0 0-1.72 4.97c-.1-.35-.35-.5-.72-.44a.43.43 0 0 0-.3.18c-.23.34-.54.47-.93.38a.5.5 0 0 1-.35-.3c-.32-.8-.92-.98-1.79-.53a.2.2 0 0 1-.16 0c-.1-.04-.16-.1-.16-.18 0-.05.02-.08.07-.08.53-.03.72-.3.58-.8-.15-.5-.4-.9-.76-1.22-.07-.05-.08-.12-.04-.2l.03-.02a.13.13 0 0 1 .13 0c.42.23.79.55 1.1.96.04.05.1.1.17.1a.3.3 0 0 0 .2-.03l.92-.53a.56.56 0 0 1 .83.37c.13.62.71 1.04 1.29.56.15-.13.13-.2-.07-.24-.54-.09-.78-.43-.72-1.03a.5.5 0 0 0-.38-.54.52.52 0 0 0-.24 0c-.7.13-1.6.66-2.28.26-.61-.35-.79-.83-.53-1.41a.33.33 0 0 0 .02-.2.34.34 0 0 0-.09-.17c-.16-.18-.4-.23-.68-.15a.95.95 0 0 1-.63-.04 1.29 1.29 0 0 1-.37-.24c-.14-.12-.12-.19.06-.21.46-.07.94-.15 1.43-.26.9-.2 2.05.02 1.82 1.24a.67.67 0 0 0 .47.76c.1.03.21.04.32.02.6-.11 1.2-.23 1.79-.36.26-.05.5-.01.73.12a.16.16 0 0 0 .24-.07.16.16 0 0 0 0-.1c-.1-.47-.6-.67-1-.39-.38.26-.73.22-1.06-.1a.5.5 0 0 1-.14-.3c-.07-.69-.45-.99-1.12-.9a.63.63 0 0 1-.6-.26c-.1-.12-.08-.18.08-.17 1.03.08 1.82-.92 2.5.45.05.08.1.12.2.13a.14.14 0 0 0 .16-.17c-.09-.7-.5-1.07-1.26-1.09a.6.6 0 0 1-.58-.55c-.01-.1 0-.2.05-.28.15-.35.23-.71.25-1.1a.42.42 0 0 0-.13-.32c-.04-.05-.06-.1-.04-.18.03-.12.09-.14.17-.05.34.29.5.64.52 1.05a.6.6 0 0 0 .67.57c.26-.03.53-.03.81 0a.52.52 0 0 1 .4.77c-.3.53-.12.95.56 1.25.13.06.22.03.3-.09l.06-.1c.03-.06.02-.11-.04-.15-.52-.33-.58-.72-.16-1.16a.57.57 0 0 0-.2-.9c-.8-.36-2.53-.44-2.24-1.82a.3.3 0 0 1 .06-.13l.57-.73c.1-.13.07-.24-.06-.32-.41-.27-.83-.59-1.25-.95-.03-.02-.03-.05-.01-.07l.06-.1c.08-.13.19-.16.32-.08.89.51 2.2.67 2.51 1.77a.28.28 0 0 1-.03.22l-.53.9a.3.3 0 0 0 .02.35c.43.56 1.18.66 1.83.84.15.05.28.13.38.25.22.25.48.44.78.57Z" fill="#FEA910"/><path d="m37.3 20.62-1.7-1.73c.63-.5 1.37-.83 2.25-1a.67.67 0 0 0 .43-1.03l-.42-.62a.36.36 0 0 1-.04-.35c.42-1.13 1.44-1.07 2.33-1.62.5-.3.6-.2.3.3-.2.31-.47.54-.84.68a.36.36 0 0 0-.22.41c0 .06.04.1.07.15l.46.54c.1.1.14.23.13.36-.05 1.27-1.23 1.3-2.15 1.58a.67.67 0 0 0-.46.74c.02.1.06.2.13.29l.26.36c.1.13.1.25-.01.37l-.52.57Z" fill="#FED915"/><path d="m28.26 16.17.16.07c.37.08.73.09 1.07.03.12-.03.23-.01.33.05.27.15.56.18.89.1.09.11.2.11.35 0a.5.5 0 0 1 .12.14c.05.09.13.15.22.18l1.83.64a.24.24 0 0 0-.04.12c0 .1.04.15.14.14a.83.83 0 0 0 .3-.08l1.64 1.12c.04 0 .06.06.06.2 0 .08.04.12.13.1.05 0 .1-.03.15-.09l1.69 1.73.25.27c-.02.26.06.45.24.56.02.39.22.6.6.63-.02.17.03.35.15.55l1.07 2.43c0 .6.1 1.17.32 1.71.07.14.06.19-.03.16l-.08 2.63-.21 1.2-1.18 3.13a.49.49 0 0 0 0 .33l.02.1a.11.11 0 0 1-.01.1.12.12 0 0 1-.09.05c-.4.04-.63.29-.68.75l-.26.15-1.64 1.78c-.28-.05-.42.09-.43.4l-1.42.96c-.3 0-.46.12-.49.35l-2.3.8c-.11-.06-.28-.04-.49.07-.6.2-1.24.28-1.93.25-.02.03-.1.05-.24.04l-1.84.04c-.29 0-.64-.07-1.04-.22-.34-.12-.7-.2-1.07-.22-.1-.13-.21-.15-.37-.05l-2.13-1.04c.05-.13-.04-.23-.26-.29l-1.8-1.06-.16-.34c-.08-.23-.26-.33-.54-.33l-1.53-1.8a.42.42 0 0 1-.1-.21 2.4 2.4 0 0 0-.55-1.26l-.89-2.28c-.01-.13-.04-.2-.07-.22L16 29.4l-.02-.1.01-2.4.03-.08c.2-1.78.77-3.43 1.72-4.97.38-.23.58-.48.58-.75l1.8-1.92c.3-.16.52-.4.7-.73.05-.1.14-.16.26-.18.35-.03.65-.16.9-.39.15 0 .24-.06.28-.18a7.86 7.86 0 0 1 2.83-1c.23.06.44-.02.63-.24l.67-.11 1.87-.18Z" fill="#FA6102"/><path d="M35.76 20.39a14.04 14.04 0 0 0-3.97-2.34 9.01 9.01 0 0 0-3.28-.49 8.86 8.86 0 0 0-5.09.79c-1.09.52-1.78.9-2.07 1.12a18.5 18.5 0 0 0-4.12 4.97 6 6 0 0 1 .82-2.14c.29-.34.48-.64.58-.9a.82.82 0 0 1 .2-.3c.42-.4.82-.81 1.2-1.21.48-.48.95-.87 1.44-1.18a11.01 11.01 0 0 1 3.78-1.41c1.73-.32 3.3-.39 4.75-.19.3.04.61.12.92.23.37.14.67.24.89.29.55.14 1.09.31 1.62.52a4.54 4.54 0 0 1 2.33 2.24Z" fill="#FEA910"/><path d="M39.04 22.37c-.17 0-.34.1-.5.26-.12-.2-.17-.38-.16-.55.11-.34.06-.55-.16-.66-.12-.06-.27-.05-.43.03-.18-.11-.26-.3-.24-.56.78-.33 1.04-.8.79-1.42a.47.47 0 0 1-.01-.34c.14-.4.45-.52.93-.36a.7.7 0 0 0 .83-.32c.05-.1.08-.2.09-.31.01-.42.19-.76.53-1 .19-.14.23-.1.13.1-.2.4-.18.85.05 1.33.23.5.04 1.15-.6 1.12-.58-.03-1.12.4-1.07 1a.46.46 0 0 0 .3.4.46.46 0 0 0 .49-.1l.8-.81a.75.75 0 0 1 .83-.16c.42.18.84.28 1.25.3.13 0 .17.06.1.17a.35.35 0 0 1-.22.17c-.27.07-.54.1-.82.08a.42.42 0 0 0-.31.1c-.23.19-.36.44-.38.75a.5.5 0 0 1-.15.33c-.32.34-.68.37-1.06.1-.4-.28-.82-.08-1 .35ZM28.5 17.56a8.4 8.4 0 0 0-2.69.18c-.64.25-1.3.49-1.97.71a7.8 7.8 0 0 0-1.97.97c-.96.67-1.83 1.49-2.62 2.46-.36.44-.64.96-.83 1.54-.08.21-.17.4-.3.55-.15.19-.25.37-.3.54-1.38 4.64-.39 8.63 2.96 11.95.2.2.48.37.84.53.06.03.1.06.12.1l.03.1c.02.1.07.16.16.19 1.04.37 1.98.89 2.82 1.56-3.71-1.14-6.2-3.4-7.45-6.75a10.44 10.44 0 0 1-.6-3.84c.02-1.42.2-2.72.53-3.9a18.5 18.5 0 0 1 4.12-4.98c.29-.23.98-.6 2.07-1.12a8.86 8.86 0 0 1 5.09-.79Z" fill="#FFEA0A"/><path d="M28.5 17.56a9.01 9.01 0 0 1 3.29.5c1.3.46 2.62 1.24 3.97 2.33.73.9 1.43 1.86 2.07 2.86.64 1 1.04 1.98 1.21 2.96.33 1.88.22 3.72-.33 5.5-.21.7-.62 1.5-1.21 2.42l-1.87 1.66a.45.45 0 0 1-.17.1.45.45 0 0 0-.33.32.47.47 0 0 1-.11.18c-.44.43-.86 1.03-1.48 1.18a11.67 11.67 0 0 0-2.94 1.24.18.18 0 0 0-.02.17l.05.07.22-.02c-2.06.46-4.1.43-6.1-.09a9.76 9.76 0 0 0-2.82-1.56.24.24 0 0 1-.16-.19.56.56 0 0 0-.03-.1.22.22 0 0 0-.12-.1 2.73 2.73 0 0 1-.84-.53c-3.35-3.32-4.34-7.3-2.96-11.95.05-.17.15-.35.3-.54.13-.15.22-.34.3-.55.2-.58.47-1.1.83-1.54.79-.97 1.66-1.8 2.62-2.46a7.8 7.8 0 0 1 1.97-.97c.67-.22 1.33-.46 1.97-.7a8.4 8.4 0 0 1 2.7-.19Z" fill="#FEFE4F"/><path d="M27.77 37.88a9.34 9.34 0 0 1-6.57-2.98 9.63 9.63 0 0 1 .38-13.51 9.35 9.35 0 0 1 13.3.37 9.63 9.63 0 0 1-.37 13.5 9.35 9.35 0 0 1-6.74 2.62Z"/><path d="M33.39 21.56c-.55 1-1.37 1.17-2.45.5a.67.67 0 0 0-.33-.1 3.2 3.2 0 0 1-1.17-.27.22.22 0 0 0-.24.04c-.1.1-.24.16-.4.14-.08 0-.16 0-.23.03-.32.11-.49.05-.5-.18l1.44-.98c.12-.09.1-.13-.04-.13-.58 0-1.14-.01-1.68-.03a8.55 8.55 0 0 0-4.56 1.14c-.06-.11-.03-.32.08-.6 3.4-2.24 6.75-2.1 10.08.44Z" fill="#FA6102"/><path d="m27.28 22.35-.01.24c-.22-.18-.44.1-.65.88-.16.36-.12.78.11 1.27.35.7.94 1.28 1.67 1.74a42.1 42.1 0 0 1 4.33 3.2c.03.16.2.42.5.78 1.32.85-2.86 3.76-4.39 4.23-.38.37-.63.37-.75 0 .47-.31.72-.67.75-1.08.1.34.25.08.45-.8a4.13 4.13 0 0 0-2.03-2.76 29.33 29.33 0 0 1-4.02-2.94l-.73-.63c-.06-.21-.74-1.67-.63-1.74-.25-.58-.5-.66 1.36-1.98.4-.29 1.56.28 1.86-.17l1.64-.4c.08 0 .2-.02.36-.06.1-.03.17.05.18.22Z" fill="#FFFDF4"/><path d="m28.07 21.72-.79.63c-.01-.17-.07-.25-.18-.22-.16.04-.28.06-.36.06-1.4.41-2.3.84-2.68 1.3-.4.46-.78.88-1.14 1.23-.21.22-.33.17-.36-.12-.03-.23.08-.51.33-.85.12-.16.07-.24-.13-.25h-.2a.43.43 0 0 0-.41.25c-.28.65-.27 1.21.05 1.7-.15-.08-.25-.06-.28.06-.98 3.2-.36 5.95 1.84 8.25.27.28.65.58 1.16.91.4.26.8.54 1.23.85a6.3 6.3 0 0 1-4.83-2.77 8.02 8.02 0 0 1 1.9-11.03 8.55 8.55 0 0 1 4.57-1.14c.54.02 1.1.03 1.68.03.15 0 .16.04.04.13l-1.44.98Z" fill="#FEFE4F"/><path d="M39.85 24.84a.87.87 0 0 1-.24.22l-1.07-2.43c.16-.17.33-.26.5-.26 0 .11.03.18.1.22.04.02.1.02.19-.02.63-.3 1.8.13 2.53.28a.64.64 0 0 0 .72-.38.63.63 0 0 0 .05-.28l-.04-.61c0-.13.03-.24.1-.34.7-.86 2.2-.35 3.14-.18.19.04.2.12.05.24l-.16.14a.8.8 0 0 1-.7.15c-.68-.18-.94.05-.78.68.14.59-.1 1-.72 1.27-.66.28-1.56-.2-2.24-.33a.42.42 0 0 0-.5.37l-.07.64a.53.53 0 0 1-.2.35c-.16.15-.39.24-.66.27Z" fill="#FABE0E"/><path d="M23.31 21.11c-.11.3-.14.5-.08.6a8.02 8.02 0 0 0-1.9 11.04 6.3 6.3 0 0 0 4.82 2.77c-.1.02-.12.14-.07.37l-1.38.53c-3.45-1.5-5.7-4.72-5.35-8.49.1-1.12.4-2.25.87-3.37a7 7 0 0 1 3.1-3.45Z" fill="#AD1F01"/><path d="M33.39 21.56a8.58 8.58 0 0 1 2.63 3.69c-.64.5-1.2.46-1.66-.1a.3.3 0 0 0-.16-.1.16.16 0 0 0-.1 0c-.13.03-.16.1-.1.23.56 1.23.76 2.66.6 4.31-.11 1.07-.64 1.8-.02 2.88.06.12.07.24 0 .36-.27.5-.4.96-.37 1.39-.26.34-.54.6-.83.78-.93.57-1.85 1.27-2.84 1.6a8 8 0 0 1-5.84-.18l1.38-.53a.4.4 0 0 0 .05.1.14.14 0 0 0 .14.05c.55-.1 1.08-.12 1.58-.05.64.1 1.31-.23 1.96-.3.39-.04.77-.16 1.14-.35.43-.21.9-.42 1.43-.6.37-.13.66-.34.88-.62.73-.95.78-2.08.14-3.4l-.06-.16a.33.33 0 0 1 0-.15c.02-.06.06-.1.12-.11a.27.27 0 0 1 .1-.01c.13.02.21-.04.23-.17a8 8 0 0 0-.43-4.51 5.27 5.27 0 0 0-1.16-1.79c-.26-.26-.6-.48-1.04-.68-.56-.25-.95-.4-1.16-.47a5.87 5.87 0 0 0-2.73-.08l.01-.24.79-.63c.01.23.18.3.5.18a.52.52 0 0 1 .23-.03c.16.02.3-.03.4-.14a.22.22 0 0 1 .24-.04c.38.16.77.25 1.17.26.11 0 .23.04.33.1 1.08.68 1.9.52 2.45-.5Z" fill="#F88A0D"/><path d="M27.27 22.59a5.87 5.87 0 0 1 2.73.08c.21.06.6.22 1.16.47.44.2.78.42 1.04.68.5.51.9 1.1 1.16 1.79a8 8 0 0 1 .43 4.51c-.02.13-.1.19-.22.17h-.11a.14.14 0 0 0-.11.12.33.33 0 0 0-.01.15c-.06-.02-.1-.05-.1-.1-.31-.36-.48-.62-.5-.78.5-.68.54-1.66.08-2.93a4.73 4.73 0 0 0-1.25-1.81 4.72 4.72 0 0 0-3.61-1.45.4.4 0 0 1-.3-.1c-.17-.15-.52-.13-1.04.08.21-.77.43-1.06.65-.88Z" fill="#FABE0E"/><path d="M32.73 29.68a42.1 42.1 0 0 0-4.33-3.2 4.46 4.46 0 0 1-1.67-1.74c-.23-.49-.27-.91-.11-1.27.52-.2.87-.23 1.04-.08a.4.4 0 0 0 .3.1 4.72 4.72 0 0 1 3.6 1.45 4.73 4.73 0 0 1 1.26 1.8c.46 1.28.43 2.26-.09 2.94Z" fill="#FFEA0A"/><path d="M39.93 26.77a4.8 4.8 0 0 1-.32-1.7c.1-.07.17-.14.24-.23.07.22.23.35.48.4.53.07.85-.36.91-.82a.52.52 0 0 1 .58-.46c.09.01.18.05.25.1l.7.5c.1.06.22.1.35.08a.5.5 0 0 0 .31-.18c.27-.33.59-.6.96-.83a.2.2 0 0 1 .18-.02c.05.02.07.06.06.1 0 .05-.03.1-.07.13-.44.4-.71.94-.82 1.6-.02.1.01.19.1.25.11.1.25.15.41.16.05 0 .07.03.07.08l-.02.16c0 .02 0 .02-.03.02l-.94-.22a.77.77 0 0 0-.82.33l-.4.6a.32.32 0 0 1-.2.13c-.77.2-.78-.51-1.34-.6-.26-.03-.48.1-.64.42Z" fill="#FEA910"/><path d="M36.02 25.25a8.5 8.5 0 0 1-1.81 8.97c-.03-.43.1-.9.37-1.4a.35.35 0 0 0 0-.35c-.62-1.09-.09-1.8.02-2.88a8.27 8.27 0 0 0-.6-4.31c-.06-.13-.03-.2.1-.24a.16.16 0 0 1 .1 0 .3.3 0 0 1 .16.1c.46.57 1.02.6 1.66.1Z" fill="#FABE0E"/><path d="m22.2 25.44.41.94c-.18.2-.35.36-.39.63-.5 2.97.41 5.32 2.75 7.04.42.31 1 .45 1.48.7.11.06.23.05.34 0l2.05-1.14c-.03.4-.28.77-.75 1.08l-2 1.2c-.06-.23-.04-.35.06-.37-.42-.31-.84-.6-1.23-.85-.5-.33-.9-.63-1.16-.91-2.2-2.3-2.82-5.05-1.84-8.25.03-.12.13-.14.28-.07Z" fill="#F88A0D"/><path d="M15.99 26.9v2.4c-.66.15-1.07-.1-1.24-.76a.61.61 0 0 0-.7-.45c-.1.01-.2.06-.28.12-.3.24-.64.47-1 .68a1.2 1.2 0 0 1-1.82-1.06.44.44 0 0 0-.2-.38.45.45 0 0 0-.43-.03c-.34.15-.87.34-1.2.13-.16-.1-.16-.18.01-.26.7-.34 2.24-1.34 2.96-.74.49.41.27 1.18.93 1.4.13.05.26.03.38-.05a6.86 6.86 0 0 1 2.59-1Z" fill="#FEA910"/><path d="m22.61 26.38.15.09.48.64c-.14.1-.25.23-.34.38a.45.45 0 0 0-.05.35c.13.48.02.95.11 1.44a4.8 4.8 0 0 0 2.45 3.45c.12.07.26.1.4.1.25-.02.5.03.73.13a4 4 0 0 0 1.71.35.4.4 0 0 0 .3-.13c.11-.13.36-.25.74-.37-.2.88-.36 1.14-.45.8l-2.05 1.13a.34.34 0 0 1-.34 0c-.49-.24-1.06-.38-1.48-.69-2.34-1.72-3.25-4.07-2.75-7.04.04-.27.21-.44.4-.63ZM40.15 29.58c-.09-.07-.2-.08-.33-.02l.08-2.63c1.13.07 1.73.5 2.62.97a.62.62 0 0 0 .9-.45c.34-2.17 2.45-.5 3.42-.16.2.07.21.16.03.27-.36.21-.97-.02-1.32-.16a.4.4 0 0 0-.5.2.4.4 0 0 0-.04.18c.02.61-.26 1.01-.86 1.21-.73.25-1.45-.41-2.02-.8a.62.62 0 0 0-.95.37c-.13.56-.46.8-.97.75a.12.12 0 0 0-.13.14c0 .04.03.08.07.13Z" fill="#FABE0E"/><path d="M23.24 27.1c1.12 1 2.46 2 4.02 2.95a4.13 4.13 0 0 1 2.03 2.76 1.8 1.8 0 0 0-.75.37.4.4 0 0 1-.29.13 4 4 0 0 1-1.7-.35c-.25-.1-.49-.15-.74-.13a.7.7 0 0 1-.4-.1 4.8 4.8 0 0 1-2.45-3.45c-.1-.49.02-.96-.11-1.44a.45.45 0 0 1 .05-.35c.09-.15.2-.28.34-.38Z" fill="#FFEA0A"/><path d="m16 29.4.12 1.34c-.78.03-1.25.31-1.4.83a.46.46 0 0 1-.32.3.47.47 0 0 1-.43-.09 3 3 0 0 0-.94-.55.27.27 0 0 0-.32.11c-.23.34-.5.6-.82.8-.58.33-.65.25-.2-.25.16-.19.3-.39.44-.6.07-.12.1-.24.08-.38-.1-.6-.46-1.02-1.09-1.24-.15-.06-.15-.12 0-.19.39-.19.96.2 1.25.45a.3.3 0 0 0 .18.08c.07 0 .14-.01.2-.05.31-.2.58-.47.81-.8a.46.46 0 0 1 .8.05c.3.6.86.67 1.64.19Z" fill="#FABE0E"/><path d="m39.8 30.82-.19-.05.2-1.21c.14-.06.25-.05.34.02.27.08.54.1.82.05a.6.6 0 0 0 .33-.16l.54-.5c.12-.12.24-.11.35 0l.76.82a.55.55 0 0 0 .72.08c.33-.23.68-.4 1.08-.53.02 0 .04 0 .05.03l.1.16c.04.08.02.13-.07.16-.43.12-.75.4-.97.84-.05.1-.06.2-.03.3.14.54.41.98.83 1.34.02.02.02.04 0 .06l-.09.07c-.02.01-.05.01-.07 0-.4-.2-.73-.46-.98-.76-.32-.4-.66-.4-1.02-.04-.22.22-.45.35-.7.37-.23.02-.38-.08-.45-.3-.2-.59-.71-.84-1.54-.75Z" fill="#FED915"/><path d="M33.4 30.71c.64 1.33.6 2.46-.14 3.4-.22.3-.51.5-.88.63-.52.18-1 .39-1.43.6-.37.2-.75.3-1.14.35-.65.07-1.32.4-1.96.3a4.66 4.66 0 0 0-1.66.04.14.14 0 0 1-.06-.04.4.4 0 0 1-.05-.1l2-1.2c.13.37.38.37.76 0 .34-.34.61-.7.81-1.06.66-.03 1.2-.21 1.64-.53a7.96 7.96 0 0 0 2.1-2.39Z" fill="#FEFE4F"/><path d="m39.61 30.77.2.05c.4.31 1.07.61.94 1.2a.55.55 0 0 0 .4.66c.1.02.19.02.28 0l.85-.21c.06.21.05.4 0 .56-.56.02-1.09.12-1.6.29-.25.09-.5.12-.73.1-.25-.03-.5-.07-.73-.12-.23-.05-.28.02-.14.21l.28.4c.11.17.26.2.43.12l.6-.3a.47.47 0 0 1 .4-.02.7.7 0 0 1 .49.69.77.77 0 0 0 .75.76c.42.01.78.13 1.07.34.17.14.15.18-.06.14-.47-.1-.9-.03-1.3.2a.75.75 0 0 1-.88-.1l-.86-.8a.47.47 0 0 0-.72.1.47.47 0 0 0-.07.26c0 .24.12.45.32.63.18.16.4.23.64.22.36-.02.6.13.74.44.3.7-.54 1.25-.02 2.12.1.15.07.18-.08.08a1.25 1.25 0 0 1-.63-1.23c0-.11-.04-.2-.13-.26-.29-.19-.63-.23-1.01-.14a.6.6 0 0 1-.74-.43.6.6 0 0 1 0-.31l.13-.44a.4.4 0 0 0-.06-.35 1.04 1.04 0 0 0-.7-.41c.05-.46.27-.71.68-.75a.12.12 0 0 0 .09-.06l.02-.05v-.05l-.03-.09a.48.48 0 0 1 0-.33l1.18-3.12Z" fill="#FFEA0A"/><path d="m16.2 30.96.88 2.28a.2.2 0 0 1 0 .04c-.9.23-1.77.15-2.63-.21a.69.69 0 0 0-.94.47c-.05.22-.05.43 0 .65.04.18 0 .34-.14.47-.42.44-.95.58-1.56.42a6.98 6.98 0 0 0-1.71-.21c-.16 0-.18-.05-.06-.15.39-.35.86-.47 1.42-.38a.38.38 0 0 0 .43-.28.37.37 0 0 0 0-.18c-.08-.33-.17-.6-.02-.91.64-1.27 1.77-.5 2.68-.29a.65.65 0 0 0 .67-.25.63.63 0 0 0 .1-.23c.06-.26-.03-.44.12-.7.16-.3.4-.47.75-.54Z" fill="#FABE0E"/><path d="M42.27 33.03a.92.92 0 0 0 .01-.56c1.05-.55 2.34.1 1.92 1.35a.4.4 0 0 0 .46.52c.53-.1.97.02 1.33.35.2.17.16.24-.1.2-.97-.12-1.66.38-2.7.15a.73.73 0 0 1-.46-.32.72.72 0 0 1-.1-.54c.1-.42-.03-.8-.36-1.15Z" fill="#FEA910"/><path d="M17.08 33.24c.32.39.5.8.55 1.26.01.08.05.15.1.22l1.53 1.8-1.74-.75c.28-.9.04-.89-.73.05-.1.12-.09.24.03.34.23.22.2.5-.08.83a.66.66 0 0 1-.67.2c-.66-.2-1.01 0-1.06.6-.04.42-.23.75-.6 1.02-.14.11-.18.08-.09-.08.24-.48.23-1-.04-1.53a.73.73 0 0 1 .72-1.06c.53.04.85-.18.97-.66.12-.47 0-.53-.33-.18-.97 1.02-1.54.16-2.64.34-.2.03-.22-.01-.05-.13.32-.23.7-.35 1.1-.35a.75.75 0 0 0 .74-.73c.01-.4.2-.65.57-.75a.45.45 0 0 1 .35.05l.45.25a.4.4 0 0 0 .37.03c.29-.12.47-.36.55-.73a.2.2 0 0 0 0-.04Z" fill="#FED915"/><path d="M37.5 34.13c-.4.71-.89 1.38-1.45 2-.2.21-.42.38-.68.5-.4.17-.5.54-.88.76-.23.14-.47.26-.7.37-.24.11-.46.23-.67.37a6.08 6.08 0 0 1-2.5.92.18.18 0 0 1-.05-.16.19.19 0 0 1 .1-.14c.97-.55 1.93-.95 2.87-1.18.62-.15 1.04-.75 1.48-1.18a.47.47 0 0 0 .1-.18.45.45 0 0 1 .34-.33.45.45 0 0 0 .17-.09l1.86-1.66Z" fill="#FFEA0A"/><path d="m37.4 35.37.43.53c.04.04.06.1.06.16s-.02.12-.06.16c-.17.2-.3.42-.38.67a.44.44 0 0 0 .21.54c.42.22.85.36 1.29.43 1 .16 1.53 1.4.57 2.13a.36.36 0 0 0 .07.62c.49.23.84.55 1.04.97.13.26.07.33-.2.19-.27-.15-.5-.38-.82-.44a2.95 2.95 0 0 1-1.66-.99.63.63 0 0 1-.04-.77l.34-.5a.7.7 0 0 0-.3-1.03l-2.18-.9 1.64-1.77Z" fill="#FABE0E"/><path d="m17.52 35.77 1.74.74c.28 0 .46.1.54.33-.73.56-1.55.96-2.46 1.2a.6.6 0 0 0-.3.18c-.35.41-.28.83.22 1.24a.37.37 0 0 1 .13.34c-.09.6-.45 1.02-1.08 1.25-.55.2-1.08.44-1.6.72-.2.11-.25.06-.16-.15.23-.57.8-.82 1.25-1.18.12-.1.12-.2 0-.3a2.38 2.38 0 0 1-.6-.78.57.57 0 0 1-.04-.42c.4-1.35 1.45-.92 2.37-1.5.27-.18.32-.4.15-.68-.3-.5-.36-.83-.16-1Z" fill="#FEA910"/><path d="m19.97 37.18 1.79 1.06c-.26.12-.47.29-.61.51-.07.11-.07.22 0 .32l.2.27c.35.48.24.8-.32.97-.35.12-.87.09-1.14.35-.14.14-.18.31-.12.52.13.37.03.81-.3 1.04-.12.07-.16.05-.14-.08a2.07 2.07 0 0 0-.5-1.66c-.1-.12-.21-.14-.35-.07l-.9.44c-.16.08-.2.04-.11-.12.19-.34.47-.62.85-.84.14-.08.22-.2.23-.35.03-.25-.03-.5-.18-.75a.59.59 0 0 1 .55-.9c.46.04.8-.2 1.05-.71Zm-.32 2.31c.07.05.17.04.27-.03a1.04 1.04 0 0 0 .4-.5.74.74 0 0 0 .04-.19c0-.06 0-.11-.02-.16a.19.19 0 0 0-.07-.1c-.07-.04-.17-.03-.28.03a1.04 1.04 0 0 0-.4.5.74.74 0 0 0-.03.2c0 .06 0 .11.02.15.01.05.04.08.07.1ZM35.34 37.55c.22.16.53.26.93.3a.68.68 0 0 1 .6.6c0 .1 0 .2-.04.3l-.22.63a.3.3 0 0 0 .1.33c.28.23.56.48.83.76.1.09.16.2.2.32.04.16 0 .2-.15.1l-.7-.44c-.27-.16-.48-.11-.65.15-.3.5-.43.98-.37 1.44.04.38-.04.4-.25.09-.2-.32-.27-.72-.19-1.22.04-.22-.05-.34-.27-.39l-1.07-.2a.51.51 0 0 1-.4-.6.5.5 0 0 1 .12-.24c.29-.31.32-.63.1-.97l1.43-.96Zm.19 2.02c.06-.04.1-.13.09-.26-.01-.13-.06-.29-.14-.43a1.14 1.14 0 0 0-.28-.36c-.1-.08-.2-.1-.27-.07-.06.03-.1.12-.09.25.01.13.06.29.14.44.08.15.18.27.28.36.1.08.2.1.27.07Z" fill="#FEA910"/><path d="m22.02 38.53 2.14 1.04a4.21 4.21 0 0 1-1.93 1.37.72.72 0 0 0-.46.49.7.7 0 0 0 .16.65l.34.39a.97.97 0 0 1-.2 1.45l-1.8 1.18c-.18.13-.25.08-.19-.14.12-.43.38-.77.8-1.01a.39.39 0 0 0 .19-.33.38.38 0 0 0-.18-.33c-.17-.1-.33-.22-.46-.36-.53-.54-.11-1.51.43-1.76.39-.18.78-.37 1.2-.6.4-.21.47-.5.18-.88l-.38-.48a.4.4 0 0 1-.08-.34.46.46 0 0 1 .24-.34Z" fill="#FABE0E"/><path d="M33.43 38.86c-.1.38-.26.67-.47.87a.51.51 0 0 0-.15.44.5.5 0 0 0 .28.38c.84.4 2.03.72 1.92 1.88-.05.46-.51.68-.82.98a.27.27 0 0 0-.08.2.26.26 0 0 0 .09.19c.3.27.57.55.82.85.1.11.14.24.14.38 0 .2-.08.24-.24.11-.79-.66-2.03-1.02-2.28-2.12a.38.38 0 0 1 .1-.36l.59-.67a.63.63 0 0 0-.3-1.03 3.93 3.93 0 0 1-1.9-1.3l2.3-.8Z" fill="#FEA910"/><path d="M24.52 39.62c.37.03.73.1 1.07.22.4.15.75.22 1.04.22l1.84-.04c.07.62-.21 1.02-.84 1.2a.4.4 0 0 0-.3.45.4.4 0 0 0 .08.18l1.15 1.46c.1.11.13.24.1.38-.12.77-.54 1.19-1.24 1.25a.37.37 0 0 0-.34.33c0 .05 0 .11.02.16.2.52.62.85.3 1.43-.1.2-.2.19-.27-.02-.12-.3-.2-.61-.43-.85-.35-.4-.59-.83-.71-1.31a.91.91 0 0 1 .53-1.08l.63-.27a.52.52 0 0 0 .22-.78l-1.09-1.5a.6.6 0 0 1-.1-.38.77.77 0 0 0-.13-.46c-.08-.12-.18-.14-.3-.06a.56.56 0 0 0-.28.45c-.01.17.06.3.2.38.4.24.6.57.63.98 0 .17-.07.3-.24.37-.72.32-.91.81-.56 1.48.08.15.12.3.12.47 0 .07-.02.13-.05.2-.07.16-.15.16-.22 0-.2-.47-.52-.94-.95-1.42-.08-.1-.18-.12-.3-.07-.47.18-.85.45-1.15.82-.06.07-.13.08-.2.02l-.09-.05v-.04c.23-.4.5-.75.81-1.06a.46.46 0 0 0 .14-.32c0-.27-.1-.5-.28-.7a.64.64 0 0 1 .04-.91.64.64 0 0 1 .3-.15c.6-.11.88-.44.85-.98Zm.06 1.85a.35.35 0 0 0-.03.36c.06.15.15.17.28.08.07-.06.1-.13.1-.22-.02-.17-.1-.26-.26-.26a.11.11 0 0 0-.1.04Z" fill="#F88A0D"/><path d="M30.64 39.73c.04.44.34.72.9.83a.63.63 0 0 1 .33 1.06c-.36.37-.37.86.02 1.22.24.22.41.48.52.78.05.13.01.16-.11.09l-1.4-.84c-.14-.08-.25-.06-.34.09-.2.33-.47.6-.82.83-.28.18-.37.46-.5.74-.12.28-.2.27-.22-.04-.03-.34.1-.7.38-1.03a.5.5 0 0 0-.1-.75l-.8-.53a.52.52 0 0 1-.18-.63.52.52 0 0 1 .14-.2l.54-.46c.1-.09.15-.2.14-.33-.01-.21-.16-.4-.43-.58a5.4 5.4 0 0 0 1.93-.25Zm-.24 2.53c.1-.02.17-.12.2-.27.04-.15.03-.34-.02-.53a1.3 1.3 0 0 0-.1-.26.93.93 0 0 0-.14-.2.49.49 0 0 0-.17-.12.24.24 0 0 0-.15-.01c-.1.02-.18.12-.21.27a1.29 1.29 0 0 0 .13.78c.04.09.09.16.14.21.05.06.1.1.16.12.06.02.11.03.16.01Z" fill="#FABE0E"/></svg>