<!-- by TradingView --><svg width="56" height="56" viewBox="0 0 56 56" xmlns="http://www.w3.org/2000/svg"><path fill="#F0F3FA" d="M0 0h56v56H0z"/><path d="M29.08 12.17a27.71 27.71 0 0 1 .14 3.6.13.13 0 0 1-.08.06h-.05c-.72-.09-1.42-.15-2.1-.18a.16.16 0 0 1-.1-.05.18.18 0 0 1-.05-.12c0-1.03-.03-2.1-.1-3.21-.01-.12.03-.23.11-.31l.9-.89c.04-.04.1-.07.16-.07s.12.02.17.06c.29.24.96.72 1 1.11ZM30.62 12.42l2.19 1.24a.16.16 0 0 1 .07.12l.3 3.02a.17.17 0 0 1-.05.14.15.15 0 0 1-.14.03l-2.43-.87a.15.15 0 0 1-.07-.06.16.16 0 0 1-.03-.09l-.07-3.39.02-.08a.16.16 0 0 1 .06-.06.15.15 0 0 1 .15 0ZM25.7 15.73l-2.44.81a.05.05 0 0 1-.05 0l-.01-.03v-.02l-.1-2.8a.05.05 0 0 1 .03-.05l2.48-1.26a.05.05 0 0 1 .05 0l.01.03.01.02.06 3.25-.01.03-.03.02ZM15.53 31.39l1.46-.2c.08-.02.16 0 .24.02.08.03.14.09.2.15l.63.8a.2.2 0 0 1 .04.17.2.2 0 0 1-.04.08.18.18 0 0 1-.07.05L9.53 36a.19.19 0 0 1-.1.02.2.2 0 0 1-.1-.05l-1.28-1.14a.14.14 0 0 1 0-.21c6.07-4.82 11.12-11.11 11.67-19.38 0-.07.03-.13.07-.18.03-.05.08-.1.14-.12l1.93-.82c.11-.04.17 0 .18.12.1.87.1 1.77.03 2.7-.03.34-.05.48-.3.72-1.1 1.03-1.33 2.28-.72 3.75.05.11.05.23.01.34a27.09 27.09 0 0 1-2.52 5.28c-.08.14-.2.2-.36.2a196.87 196.87 0 0 0-2.36 0 .16.16 0 0 0-.05.05.17.17 0 0 0-.02.15l.72 2.13c.07.23.03.43-.12.61l-.9 1.04c-.13.14-.1.2.08.17ZM36.84 21.08c-.2-.41-.4-.82-.53-1.26-.3-1.07-.58-2.13-.84-3.2-.04-.17-.14-.25-.3-.25l-1 .02a.2.2 0 0 1-.14-.07.21.21 0 0 1-.06-.15v-1.7l.02-.05a.12.12 0 0 1 .05-.04.11.11 0 0 1 .11 0l1.54.9c.22.12.3.17.33.45a33.2 33.2 0 0 0 1.08 5.25 20.6 20.6 0 0 0 3.7 7.22c2 2.5 4.52 4.53 7.13 6.43l.05.06a.18.18 0 0 1 .01.14l-.03.06-1.38 1.54a.09.09 0 0 1-.12.01 52.4 52.4 0 0 1-7.5-7.62c-.24-.31-.44-.67-.53-1.06a6.52 6.52 0 0 0-2.3-3.76c-.5-.42-.73-1.16-.95-1.76-.03-.07 0-.13.06-.16l1.52-.74a.19.19 0 0 0 .1-.11.2.2 0 0 0-.02-.15Z" fill="#1C4485"/><path d="m33.8 17.9.01-.7c0-.15.08-.23.23-.24h.57c.07 0 .15.02.2.07.06.04.1.1.12.18.3 1.23.65 2.45 1.05 3.66.03.08 0 .15-.06.2-.22.16-.46.28-.71.35a.2.2 0 0 1-.12 0 .21.21 0 0 1-.1-.07 9.07 9.07 0 0 0-3.63-2.5 6.79 6.79 0 0 0-3.85-.54c-.45.08-1.2.31-.83.96.42.76 1.26 1.22 2.09 1.6 1.02.47 2.06.94 3.13 1.41 2.57 1.13 5.38 2.58 5.91 5.77.46 2.77-2.2 4.91-4.34 5.85-.75.33-1.42.57-2.01.73-2.62.69-5.16.8-7.62.33a8.98 8.98 0 0 1-4.28-2.12 10.44 10.44 0 0 1-2.94-4.93.1.1 0 0 1 .05-.07 323.85 323.85 0 0 0 8.17-.06c.36 0 .69.06.97.32 1.28 1.2 3.36 1.78 4.6.26.77-.94.17-2.11-.75-2.6-2.5-1.3-5.03-1.98-7.21-3.7-1.61-1.27-1.25-3.35.3-4.44 3.33-2.33 7.6-1.32 10.93.36.08.04.13.01.13-.09Z" fill="#C7392B"/><path d="m28.43 20.04-1-.73a.24.24 0 0 1-.09-.11.25.25 0 0 1 .07-.27.23.23 0 0 1 .13-.06l1.14-.12a.23.23 0 0 1 .2.08.25.25 0 0 1 .05.2l-.14.85c0 .04-.02.07-.04.1a.24.24 0 0 1-.1.08.22.22 0 0 1-.22-.02ZM31.01 19.29l2.49 1.36c.02 0 .04.02.05.05l.03.07.26 1.46a.18.18 0 0 1-.06.16.16.16 0 0 1-.17.03l-2.48-1.14a.16.16 0 0 1-.06-.05.17.17 0 0 1-.03-.08l-.26-1.69a.18.18 0 0 1 .06-.16.16.16 0 0 1 .17-.01ZM19.56 27.15l2.25-4.67.02-.02a.05.05 0 0 1 .04 0h.02l1.98 1.32.02.03v.04l-1.32 3.34c0 .01 0 .02-.02.03H19.58a.05.05 0 0 1-.02-.04v-.03ZM27.1 25.39l-.87 1.98a.14.14 0 0 1-.08.07.13.13 0 0 1-.1 0l-.34-.21a.13.13 0 0 0-.07-.02l-1.98.04-.06-.01a.13.13 0 0 1-.05-.05.14.14 0 0 1 0-.14l1.43-2.62a.13.13 0 0 1 .07-.07h.1l1.88.85a.13.13 0 0 1 .07.07.14.14 0 0 1 0 .1ZM37.31 32.46l1.19-1.84a.08.08 0 0 1 .1-.03l.03.02a58.86 58.86 0 0 0 7.15 6.69.23.23 0 0 1-.01.25l-1.08 1.41-.02.02-.03.01a.07.07 0 0 1-.05-.01l-7.25-6.33a.15.15 0 0 1-.03-.2ZM36.28 36.4l-.48-.95a.46.46 0 0 0-.37-.26l-2.37-.31-.03-.02a.07.07 0 0 1-.01-.08 15.06 15.06 0 0 1 .92-.46 9.63 9.63 0 0 0 2.12-1.28.3.3 0 0 1 .4.03c2.29 2.3 4.78 4.44 7.46 6.44.04.02.06.06.07.1.01.04 0 .09-.01.13l-.58 1.15a.2.2 0 0 1-.1.1.19.19 0 0 1-.14 0 46.45 46.45 0 0 0-8.1-2.33 41.27 41.27 0 0 0-21.42 1.65 1 1 0 0 1-.38.06l-.07-.02a.17.17 0 0 1-.05-.05l-1.05-1.35a.1.1 0 0 1-.02-.1.1.1 0 0 1 .07-.07c1.4-.43 2.82-.85 4.3-1.24a47.65 47.65 0 0 1 11.31-1.64 45.7 45.7 0 0 1 8.4.68c.17.03.2-.03.13-.19ZM20.97 34.73l-9.6 3.53h-.03l-.03-.01-1.46-1.53-.02-.02a.06.06 0 0 1 .02-.06l.02-.01 9.1-3.37a.05.05 0 0 1 .04.01l1.97 1.36.02.03a.06.06 0 0 1 0 .06l-.03.01Z" fill="#1C4485"/></svg>