<!-- by TradingView --><svg width="56" height="56" viewBox="0 0 56 56" xmlns="http://www.w3.org/2000/svg"><path fill="#F0F3FA" d="M0 0h56v56H0z"/><path d="M14 14h28v28H14v-4h1v3h26V15H15v3h-1v-4Z"/><path d="M26.5 34c-.35 0-.69-.06-1-.19A2.4 2.4 0 0 1 24 31.5a2.42 2.42 0 0 1 2.5-2.5c.36 0 .7.06 1 .19A2.42 2.42 0 0 1 29 31.5a2.42 2.42 0 0 1-2.5 2.5Zm0-.95a1.4 1.4 0 0 0 1.02-.43 1.7 1.7 0 0 0 .41-1.12c0-.23-.04-.44-.11-.63a1.42 1.42 0 0 0-.75-.8 1.44 1.44 0 0 0-.57-.12 1.36 1.36 0 0 0-1.02.43 1.5 1.5 0 0 0-.41 1.12c0 .23.04.44.1.63a1.34 1.34 0 0 0 1.33.92ZM20 34v-5h1.85c.39 0 .72.07 1 .22.27.14.49.35.64.62.15.27.23.6.23.97 0 .38-.08.7-.23.97-.15.27-.37.47-.64.61-.28.15-.61.22-1 .22h-1.3l.44-.51L21 34h-1Zm2.72 0-1.07-1.81h1.06L23.8 34h-1.08ZM21 32.23l-.44-.54h1.25c.3 0 .53-.08.69-.23a.89.89 0 0 0 .22-.65c0-.27-.07-.49-.22-.64-.16-.15-.38-.23-.69-.23h-1.25l.45-.55v2.84ZM17.42 34a2.55 2.55 0 0 1-1.88-.7 2.46 2.46 0 0 1-.73-1.8 2.41 2.41 0 0 1 1.58-2.31 2.9 2.9 0 0 1 1.05-.19c.43 0 .81.07 1.15.21.34.15.63.35.86.63l-.7.66a1.7 1.7 0 0 0-2.39-.12 1.5 1.5 0 0 0-.43 1.12c0 .23.04.43.1.62.09.19.2.36.33.5.14.14.3.24.5.32a2 2 0 0 0 1.27 0c.2-.07.4-.2.6-.36l.63.8c-.26.2-.56.36-.9.46-.35.1-.7.16-1.04.16Zm.93-.76v-1.82h1.01v1.97l-1.01-.15ZM10 34l1.91-5h.98l1.92 5h-1.05l-1.56-4.41h.39L11.02 34H10Zm.95-1 .27-1h2.2l.27 1h-2.74ZM26 27v-5h1v4h2v1h-3ZM24 27v-5h1v5h-1ZM19 27v-5h.83l2.58 3.6H22V22H23v5h-.83l-2.58-3.6h.4V27H19ZM16.37 27c-.6 0-1.08-.2-1.43-.58a2.44 2.44 0 0 1-.51-1.67V22h1v2.71c0 .47.08.8.24 1.01.17.2.4.31.7.31.3 0 .54-.1.71-.3.17-.21.25-.55.25-1.02V22h.98v2.75c0 .72-.17 1.28-.51 1.67a1.8 1.8 0 0 1-1.43.58ZM11.97 27a3.2 3.2 0 0 1-.98-.15c-.32-.1-.57-.24-.76-.4l.33-.85c.19.15.4.27.65.36.26.1.51.14.77.14.2 0 .35-.02.47-.06.12-.05.21-.1.27-.19a.45.45 0 0 0 .08-.27.37.37 0 0 0-.13-.3.98.98 0 0 0-.36-.19 6.34 6.34 0 0 1-1.02-.3 2.16 2.16 0 0 1-.48-.25 1.2 1.2 0 0 1-.36-.4 1.33 1.33 0 0 1-.14-.63 1.4 1.4 0 0 1 .8-1.3c.27-.14.6-.21 1-.21.28 0 .54.04.8.11.27.07.5.18.7.32l-.31.85a2.36 2.36 0 0 0-1.19-.38c-.19 0-.35.02-.47.07a.55.55 0 0 0-.26.2.48.48 0 0 0-.08.28c0 .12.04.23.13.3.1.08.21.14.36.18.14.05.3.1.48.14l.53.16c.18.06.35.14.5.24.14.1.26.24.35.4.1.17.14.38.14.63 0 .27-.07.52-.2.75-.14.22-.34.4-.6.54-.27.14-.61.21-1.02.21Z"/></svg>