<!-- by TradingView --><svg width="56" height="56" viewBox="0 0 56 56" xmlns="http://www.w3.org/2000/svg"><path fill="#F0F3FA" d="M0 0h56v56H0z"/><path d="M10.97 18.37c.62 1.1 1.16 2.05 2.1 2.93a14.52 14.52 0 0 0 9.97 3.94c1.58.03 3.4-.25 5.19-.63 1.86-.4 3.76-.8 5.7-1.18 1.87-.37 3.77-.34 5.7.09.2.04.22.13.07.27-.07.07-.19.1-.34.1-1.4-.08-2.76-.07-4.17.3-1.66.43-3.3.95-4.91 1.56-1.5.57-3.14 1.13-4.7 1.4-.6.1-1.26.1-2 .01a33.43 33.43 0 0 1-4.05-.76c-4.02-1.02-7.47-3.45-8.8-7.38a2.52 2.52 0 0 1-.13-1.09c.02-.17.06-.17.13-.02l.24.46Z" fill="url(#avbfmpyjl)"/><path d="M7.44 19.65a.1.1 0 0 1 .06.07c1.56 5.29 6.17 9.18 11.55 10.33 1.1.23 2.17.33 3.27.18 1.93-.26 3.76-.75 5.48-1.48 2.12-.9 4.14-1.72 6.08-2.48a11.79 11.79 0 0 1 8.9-.04c.44.17.8.39 1.06.66.23.24.18.32-.14.25-.64-.13-1.08-.44-1.78-.5-1.44-.13-2.5-.13-3.2.02-3.37.68-6.23 2.62-9.47 4.6-1.62 1-4 2.06-5.91 2.26-1.56.16-2.99.08-4.29-.22-6.67-1.55-10.95-7.07-12.03-13.65a1.2 1.2 0 0 1 .03-.54c.04-.14.08-.14.12 0l.14.4a.2.2 0 0 0 .13.14Z" fill="#30B2EA"/><path d="M21.72 39.06c-.3.07-.6.1-.9.08-.95-.03-1.87-.1-2.77-.22-1.28-.16-3.97-.8-4.44-2.05a.13.13 0 0 1 .02-.12.12.12 0 0 1 .12-.04c1 .2 1.92.6 2.93.73 3.8.5 7.12-.26 10.34-2.14 3.23-1.9 6.02-4.47 9.4-6.17a9.12 9.12 0 0 1 3.18-.87.15.15 0 0 1 .07.22.3.3 0 0 1-.16.13c-1.88.7-3.62 1.74-5.22 3.1-1.72 1.48-3.32 3.18-5.15 4.4a18.45 18.45 0 0 1-4.18 2.04c-1.1.37-2.18.68-3.24.91Z" fill="url(#bvbfmpyjl)"/><path d="M22.73 39.33c-.97-.04-.98-.12-.01-.26a15.52 15.52 0 0 0 8.9-4.33c.64-.6 1.49-1.36 2.53-2.28a19.5 19.5 0 0 1 5.2-3.35c.22-.1.59-.21 1.11-.34.34-.08.76-.23 1.26-.44.29-.13.4-.04.35.27-.03.16-.15.27-.34.33a17.21 17.21 0 0 0-6.96 3.88c-3.26 2.98-7.27 6.69-12.04 6.52Z" fill="#CAC3C3"/><path d="M44.22 36.69a11.52 11.52 0 0 0 3.53-6.44c2.03-10.64-8.73-17.16-16.57-12.96a.22.22 0 0 0-.16.23c.02.2.15.3.4.26.21-.02.4-.06.6-.12 5.91-1.7 11 .8 13.03 6.8.57 1.68.64 3.5.2 5.47a11.07 11.07 0 0 1-15.71 7.77c-.2-.1-.27-.25-.22-.46-.23.18-.46.29-.68.33.94.7 1.72 1.19 2.35 1.44 4.54 1.84 9.72 1.13 13.23-2.32Z" fill="url(#cvbfmpyjl)"/><defs><linearGradient id="avbfmpyjl" x1="10.59" y1="22.52" x2="39.8" y2="22.52" gradientUnits="userSpaceOnUse"><stop stop-color="#494D85"/><stop offset="1" stop-color="#C0C1D0"/></linearGradient><linearGradient id="bvbfmpyjl" x1="37.39" y1="28.98" x2="15.51" y2="37.86" gradientUnits="userSpaceOnUse"><stop stop-color="#4B4F87"/><stop offset="1" stop-color="#CDCEDC"/></linearGradient><linearGradient id="cvbfmpyjl" x1="38.32" y1="16" x2="38.32" y2="40" gradientUnits="userSpaceOnUse"><stop stop-color="#D5D5E1"/><stop offset="1" stop-color="#565B8E"/></linearGradient></defs></svg>