<!-- by TradingView --><svg width="56" height="56" viewBox="0 0 56 56" xmlns="http://www.w3.org/2000/svg"><path fill="#F0F3FA" d="M0 0h56v56H0z"/><path d="m31.4 16.18.1.04c.03.01.04.03.05.05v.03c0 .03 0 .04-.04.05l-.13.01c-1.82-.15-3.54.29-5.22 1.04a7.36 7.36 0 0 0-2.65 2.03c-1.37 1.64-1.6 3.78-.28 5.54.15.2.34.39.58.56.93.66 2 1.15 3.03 1.56 1.53.6 3.09 1.1 4.68 1.48a17.8 17.8 0 0 1 5.97 2.46c1.45 1.01 2.86 2.67 2.11 4.62a4.98 4.98 0 0 1-1.91 2.3l-1.5.84c-.47.18-.99.33-1.55.47a29.28 29.28 0 0 1-10.1.51c-.04-.03-.05-.05-.04-.08.02-.07.08-.1.18-.07 1.04.09 2.06 0 3.07-.27.65-.18 1.28-.39 1.9-.64 2.7-1.1 5.24-4.1 3.51-7.25a4.34 4.34 0 0 0-1.94-1.82c-.82-.4-1.67-.75-2.54-1.03-1.29-.41-2.6-.78-3.92-1.12-.88-.22-1.74-.48-2.6-.77a14.62 14.62 0 0 1-3.62-1.78 5.93 5.93 0 0 1-2.05-2.25c-.55-1.16-.3-2.4.5-3.36.33-.4.63-.68.9-.86.23-.15.46-.32.7-.5.8-.41 1.63-.78 2.49-1.1 3.37-.89 6.86-1.05 10.32-.69Z" fill="#3E3F8F"/><path d="M31.4 16.18c1 .12 2 .3 2.99.52 3.06.69 6.1 1.95 8.52 3.89a10.93 10.93 0 0 1 3.74 5.13c1.29 4.24-1.13 8.01-4.46 10.32a19.74 19.74 0 0 1-5.22 2.58c-.26.08-.52.14-.79.17l1.5-.85A17.6 17.6 0 0 0 41.22 36c2.61-1.85 4.71-4.75 4.2-8.2-.49-3.26-3.17-5.76-5.82-7.3a24.5 24.5 0 0 0-8.38-2.9.05.05 0 0 1 0-.04l.32-1.08c0-.02 0-.05-.02-.07a.18.18 0 0 0-.13-.05l.13-.01c.03 0 .05-.02.05-.05v-.03a.07.07 0 0 0-.06-.05.26.26 0 0 1-.1-.04ZM21.08 16.87c-.86.32-1.69.69-2.49 1.1a17.54 17.54 0 0 0-4.79 2.82 9.24 9.24 0 0 0-3.06 4.61c-1 3.9 1.46 7.17 4.4 9.24 2.1 1.5 4.55 2.51 7.05 3.16a28.66 28.66 0 0 0 2.61.57.06.06 0 0 1 0 .05l-.32 1.07c-.01.03 0 .06.02.08.05.04.1.06.18.05-.1-.02-.17 0-.18.07-.01.03 0 .05.04.08a27.18 27.18 0 0 1-6.28-1.5c-1.1-.42-2.2-.95-3.28-1.58-3.22-1.9-6.28-5.2-5.96-9.33a9.46 9.46 0 0 1 3.2-6.1c.46-.43.97-.84 1.52-1.22a19.7 19.7 0 0 1 7.34-3.17Z" fill="#969A9B"/></svg>