<!-- by TradingView --><svg width="56" height="56" viewBox="0 0 56 56" xmlns="http://www.w3.org/2000/svg"><path fill="#F0F3FA" d="M0 0h56v56H0z"/><path d="M35.88 14.48c.68.6 1.34 1.25 1.8 2.03.46.77.55 1.62.27 2.54-.15.53-.35 1.04-.58 1.52a229.53 229.53 0 0 1-1.11 2.32.1.1 0 0 0 .03.08 7.23 7.23 0 0 1 7.66 9 6.95 6.95 0 0 1-2.66 4.86c-1.24 1-2.7 1.6-4.27 1.92-3.77.78-7.48 2.04-11.18 3.06-.55.15-1.11.23-1.69.17-4.3-.45-8.7-.93-13.2-1.44a2.07 2.07 0 0 1-.92-.36c-.05-.03-.04-.05.02-.06a1909.58 1909.58 0 0 1 7.3-2.14.05.05 0 0 0 .02-.05l-.02-.02-.82-.57a4.57 4.57 0 0 1-2.03-3.04 4.16 4.16 0 0 1 2.17-4.33c.37-.2.87-.43 1.5-.67 1.12-.41 2.31-.83 3.57-1.25.12-.05.12-.09 0-.14L17 26.13c-1.35-.51-2.32-1.41-2.37-2.94-.02-.4 0-.74.06-1.04.24-1.2 1.25-1.96 2.38-2.37l22.87-8.36c.4-.15.9-.41 1.31-.42a2.14 2.14 0 0 1 1 .25.07.07 0 0 1 0 .07c-.1.18-.18.36-.26.55a.65.65 0 0 1-.38.36c-1.65.66-3.55 1.37-5.71 2.14-.07.03-.07.06-.02.11Z"/><path d="M30.92 17.3a2.6 2.6 0 0 1 1.66-1.43c.38-.13.76-.17 1.12-.14 1.24.1 2.09.72 2.56 1.84.1.22.14.46.14.7 0 .4.03.79-.1 1.18a2.87 2.87 0 0 1-2.38 1.93 4.4 4.4 0 0 1-.96 0c-.3-.04-.6-.15-.93-.33-.58-.32-.98-.8-1.22-1.44-.18-.48-.14-1.03-.12-1.52 0-.27.12-.54.23-.78Z" fill="#EFCF51"/><path d="M33.94 17.47c.18-.1.52-.31.73-.19.3.18.9.68.89 1.07 0 .2-.09.39-.24.57-.36.43-.76.88-1.2 1.35-.06.06-.11.06-.16 0-.04-.08-.1-.14-.15-.2-.4-.4-.79-.82-1.18-1.26a1.6 1.6 0 0 0-.22-.22.03.03 0 0 1 0-.02l.01-.02c.5-.37.98-.77 1.52-1.08Z"/><path d="M19.57 20.45c3.2-1.2 6.05-2.24 8.55-3.11.15-.05.34-.06.59-.02.02 0 .04.02.04.04-.04.73-.02 1.39.06 2 .1.77.43 1.44.98 2.02.33.35.82.71 1.26.98a30.2 30.2 0 0 0 2.39 1.39.04.04 0 0 1-.02.03c-.43.26-.88.47-1.37.64l-4.1 1.4c-1.1.36-1.99.62-2.9.77a6.5 6.5 0 0 1-2.64-.1c-.58-.15-1.18-.34-1.8-.57-1.03-.4-1.99-.79-2.88-1.17-.2-.08-.4-.2-.56-.35-.62-.55-1.18-1.3-.66-2.12.4-.62.84-.98 1.56-1.26l1.5-.57ZM41.93 31.17c0 1.47-.6 2.89-1.66 3.93a5.72 5.72 0 0 1-8.02 0 5.51 5.51 0 0 1 0-7.87 5.72 5.72 0 0 1 8.02 0 5.51 5.51 0 0 1 1.66 3.94Z" fill="#EFCF51"/><path d="M39.1 28.44c.66.34 1.11.87 1.35 1.58.15.45.15.9.02 1.37-.28 1-.93 1.6-1.93 1.83-.2.05-.49.06-.84.05l-1.38-.03c-.31 0-.63-.11-.87-.32l-.4-.32a3.1 3.1 0 0 1-.83-1.04c-.15-.35-.1-.8.08-1.16a3 3 0 0 1 1.69-1.53 11.4 11.4 0 0 1 2.05-.6c.34-.07.69-.01 1.05.17Z"/><path d="M17.42 39.52a11.23 11.23 0 0 1 4.05-1.11c.35-.02.68-.08 1.03-.08h1.41c.42 0 .82.07 1.22.07 1 .02 2.08.16 3.04.18.7.01 1.41.02 2.12 0 .09 0 .1.03.03.08a12.71 12.71 0 0 1-5.46 1.62 9.9 9.9 0 0 1-1.53.05 34.22 34.22 0 0 1-3.22-.28c-.32-.04-.63-.11-.95-.14a5.45 5.45 0 0 1-.7-.1c-.34-.07-.73-.05-1.04-.19a.05.05 0 0 1-.03-.05.06.06 0 0 1 .03-.05Z" fill="#EFCF51"/></svg>