<!-- by TradingView --><svg width="56" height="56" viewBox="0 0 56 56" xmlns="http://www.w3.org/2000/svg"><path fill="#F0F3FA" d="M0 0h56v56H0z"/><path d="M45.07 25.62a.5.5 0 0 1-.18.08c-1.58-.15-3.56.26-4.26 1.9a.06.06 0 0 1-.04.03.05.05 0 0 1-.05-.02c-.62-.76-1.76-1.1-2.68-1.13a7.94 7.94 0 0 0-1.81.17 8.8 8.8 0 0 0-3.54 1.48c-.05.04-.1.03-.13-.03a2.49 2.49 0 0 0-2-1.26 5.12 5.12 0 0 0-2.02.26.18.18 0 0 1-.07-.03c-.29-.19-.48-.28-.84-.27-.77 0-1.51.01-2.24.03-.2 0-.4.06-.6.17-.4.21-.9.17-1.31.21-.07 0-.1-.02-.08-.08a.76.76 0 0 1 .09-.23c.04-.06.02-.1-.06-.1-.51.02-1.07.02-1.67 0-.4-.02-.73.04-1 .17a.1.1 0 0 1-.1 0 1.68 1.68 0 0 0-1.2-.21c-.1.01-.12-.02-.08-.1.58-1.37.68-2.68-.56-3.73a4.58 4.58 0 0 0-2.29-1.08c-.17-.1-.4-.15-.7-.12.17-.02.33-.07.5-.05.55.08.92.13 1.12.18.17.04.36.1.58.2.16.07.29.17.38.29.2.27.55.37 1.05.3.06 0 .08-.04.08-.1-.01-.16-.05-.3-.02-.47.17-1.04.4-2.06.66-3.05.1-.38.25-.72.45-1.02 1.06-1.83 3.66-4.38 6.06-4.42-4.09 1.3-6.93 4.98-6.7 9.38.01.1.04.18.1.25.54.68.88 1.48.86 2.33a13.14 13.14 0 0 0 .01.67.09.09 0 0 0 .09.05c1.12-.07 2.22-.26 3.3.08.29.09.5.03.77-.02a.32.32 0 0 0 .26-.22.33.33 0 0 0-.08-.33c-1.29-1.33-1.12-2.91-.18-4.38.02-.03.02-.07-.02-.1a4.68 4.68 0 0 1-1.21-1.67l.01-.09c.1-.24.23-.47.4-.68.28-.36.5.16.65.32a.1.1 0 0 0 .09.03c.39-.12.75.22 1.06.43.16.1.22.26.17.45a3.31 3.31 0 0 1-.25.69.05.05 0 0 0 .02.04l.02.01c.29.07.56.25.82.55.33.38.72.7.94 1.15.22.46.35.92.39 1.4 0 .05.03.07.08.04l.46-.21a.13.13 0 0 0 .06-.08.13.13 0 0 0 0-.1 9.42 9.42 0 0 0-1.1-1.7c-.14-.18-.17-.43-.36-.59a.82.82 0 0 0-.36-.2c-.38-.08-.72-.43-.46-.83.12-.2.11-.4.2-.6a.17.17 0 0 0-.08-.22.17.17 0 0 0-.08-.02c-.5.01-.86-.21-1.08-.68-.1-.19-.04-.42-.12-.61-.2-.49-.18-.95.07-1.38.13-.23.12-.46.18-.71.13-.58.48-.84 1.05-.8a.2.2 0 0 0 .14-.05c.3-.25.64-.37 1.03-.35.32.02.58-.22.91-.22.5 0 .77.27.83.8 0 .05.04.07.08.08.27.03.47.15.6.37.36.66.4 1.59-.22 2.09a.3.3 0 0 0-.06.4l.38.49c.13.15.3.2.47.26a.1.1 0 0 1 .06.04c.01.02.02.05.01.07l-.09.68c0 .06-.04.11-.08.15a.4.4 0 0 1-.23.1.14.14 0 0 0-.08.04.14.14 0 0 0-.04.09l-.05.4c-.01.06.01.1.07.1.56.1 1 .1 1.3.03.84-.2 1.66-.32 2.45-.37.35-.02.67-.14.96-.36a.23.23 0 0 1 .12-.04c.76-.06 1.44-.48 2.15-.78.27-.12.48-.05.6.22a.23.23 0 0 1-.05.27 2.31 2.31 0 0 1-.64.42v.02a.06.06 0 0 0 0 .05l.31.46c.02.02.03.05.02.08a.54.54 0 0 1-.22.4c-.43.33-.92.58-1.3.98-.35.35-.66.65-.9 1.1a1.7 1.7 0 0 1-1.06.87.92.92 0 0 0-.38.23.1.1 0 0 0-.02.13c.29.62.52 1.27.72 1.95.01.05.05.07.1.05a9.66 9.66 0 0 1 4.04-.5c.08.01.14-.02.18-.1 3.26-7.17-3.95-13.7-10.9-12.52l-1.14.22c-.05-.04-.98.17-.97.13 1.22-.72 4.09-.73 4.66-.72 3.87.1 7.12 2.73 8.92 5.95.1.19.19.4.24.63a8.26 8.26 0 0 1-.01 5.16c-.1.33-.24.62-.42.86-.3.41-.08.91.4 1.03.2.05.34.23.57.26.6.08 1.06-.36 1.54-.67.5-.32 1.03-.41 1.6-.58.16-.05.32-.08.48-.08.26-.01.46-.08.72-.06l.68.06c.04 0 .07.02.1.06Z" fill="#3F4092"/><path d="M26.7 15.63c.06-.06.1-.16.17-.21.23-.19.48-.27.76-.24.5.05.87-.48 1.34-.07a.2.2 0 0 1 .07.12l.08.42c0 .04.02.07.04.09l.08.05.35.08c.06 0 .1.04.14.09.44.6.43 1.48-.28 1.86a.11.11 0 0 0-.07.11c0 .14.04.27.09.4.02.05 0 .07-.05.07-.23 0-.46.03-.69.1a11.8 11.8 0 0 0-1.76.75l-.09.09c-.04.04-.07.03-.09-.02-.08-.21-.25-.29-.51-.24-.05.02-.1.01-.14 0-.32-.12-.58-.36-.59-.73 0-.19-.05-.37-.13-.56-.26-.57.28-.9.29-1.41 0-.5.32-1.02.9-.73.03.02.06.02.1-.02Z" fill="#F0F3FA"/><path d="M29.36 17.16c.04.13.06.25.06.39 0 .07-.02.13-.09.16a.14.14 0 0 1-.14.01.14.14 0 0 1-.05-.05.14.14 0 0 1-.03-.06c-.03-.38-.17-.65-.58-.7-.45-.05-1.05.05-1.38.38-.4.4-.5.88-.31 1.44a.14.14 0 0 1-.04.15.14.14 0 0 1-.15.03.3.3 0 0 1-.17-.24c-.03-.14-.1-.18-.22-.12-.11.05-.22.08-.34.1-.12 0-.2-.1-.19-.21.01-.06.05-.1.1-.11l.15-.04c.12-.03.12-.06 0-.1-.15-.03-.23-.1-.25-.21a.15.15 0 0 1 .06-.15.15.15 0 0 1 .16 0c.26.15.45.1.58-.14a.1.1 0 0 0-.02-.11.1.1 0 0 0-.11-.03c-.19.1-.38.13-.59.1a.19.19 0 0 1-.11-.04.2.2 0 0 1-.06-.12v-.06c0-.07.04-.1.1-.1.32.02.56-.12.88-.06.2.04.24-.02.1-.18a.87.87 0 0 0-.4-.22.22.22 0 0 1-.15-.17v-.03c0-.08.05-.12.13-.11.3.04.55.16.74.36a.05.05 0 0 0 .08-.01l.03-.06a.15.15 0 0 0-.04-.17l-.44-.41c-.05-.06-.07-.12-.03-.19a.2.2 0 0 1 .04-.05.12.12 0 0 1 .14-.02c.25.16.45.35.6.57a.26.26 0 0 0 .25.1.26.26 0 0 0 .2-.16c.1-.22.1-.47.01-.74a.16.16 0 0 1 .08-.19.16.16 0 0 1 .06-.02c.08 0 .13.03.16.1.13.27.15.54.04.79-.03.06 0 .1.06.1.05 0 .11-.01.15-.06.1-.11.24-.17.4-.18a.1.1 0 0 0 .1-.06.63.63 0 0 0 .06-.2.13.13 0 0 1 .11-.11c.1 0 .17.04.18.14.04.23-.06.42-.3.57a.05.05 0 0 0-.01.04.05.05 0 0 0 .02.04l.05.02c.04.03.08.03.12 0 .21-.12.45-.1.7.08.05.03.06.08.03.13-.08.13-.22.16-.44.1-.1-.04-.13 0-.1.1Z" fill="#3F4092"/><path d="M28.59 17.66c-.27.04-.5.14-.7.3a.25.25 0 0 1-.13.06l-.48.07a.1.1 0 0 1-.1-.06.1.1 0 0 1-.01-.05c.01-.25.16-.67.5-.46.03.02.06.03.1.02.27-.06.5-.16.72-.3.03-.03.07-.02.1.02l.1.19a.14.14 0 0 1-.04.19.14.14 0 0 1-.06.02Z" fill="#B38CA6"/><path d="M28.56 19.8c-.05-.25-.18-.2-.34-.32-.03-.02-.04-.05-.02-.08l.1-.23c.03-.05.07-.07.12-.04l.1.07c.05.02.09.01.11-.03.07-.12.03-.26-.11-.3l-.03-.02c-.04-.02-.04-.04 0-.05.26-.08.52-.14.77-.18.16-.02.26.04.3.2.1.3.22.59.35.86.06.1.03.15-.1.14-.3-.04-.56.05-.81.27a.26.26 0 0 1-.2.06.83.83 0 0 0-.63.18.24.24 0 0 1-.34-.04 1.82 1.82 0 0 1-.33-.77.31.31 0 0 1 .1-.29c.12-.1.27-.2.46-.28.06-.02.08 0 .07.06-.04.28-.24.17-.38.32a.14.14 0 0 0-.04.08c-.01.06.01.1.08.1h.08c.06 0 .08.02.06.09a.73.73 0 0 0-.05.34c.02.24.1.26.23.06.1-.15.22-.2.36-.13.07.03.1 0 .09-.07Z" fill="#F0F3FA"/><path d="M29.18 19.06c.16-.05.27-.14.25-.21-.02-.07-.16-.09-.32-.04-.15.04-.26.14-.24.2.02.07.16.1.31.05Z" fill="#3F4092"/><path d="M24.25 18.97v-.03H24.33l.1.07.09.1.1.15v.03c.06.1.1.2.13.3.01.08 0 .14-.03.16h-.01a.02.02 0 0 1-.02 0l-.43-.78Z" fill="#F0F3FA"/><path d="M29.5 19.48a.18.18 0 0 0-.14 0 .2.2 0 0 0-.1.08.47.47 0 0 1-.12.14.07.07 0 0 1-.1 0l-.02-.04a.6.6 0 0 1 .07-.48.14.14 0 0 1 .11-.07c.2-.02.36.07.5.25a.08.08 0 0 1-.01.09c-.05.06-.12.07-.2.03Z" fill="#3F4092"/><path d="m24.49 20.13.04-.02c.02 0 .02-.02.01-.04l-.47-.76a.1.1 0 0 1 .01-.12l.03-.04c.04-.04.07-.04.1.01l.46.75c.04.06.08.06.12 0 .07-.1.1-.2.06-.31a.18.18 0 0 1 .09-.21.17.17 0 0 1 .07-.02c.13 0 .24.05.35.14.02.03.02.05-.01.06l-.05.02a.16.16 0 0 1-.13 0l-.06-.02a.05.05 0 0 0-.05.02v.05l.23.4.02.08c0 .03 0 .04.02.06.03.02.06.01.08-.02a.28.28 0 0 1 .15-.14c.14-.05.15-.12.02-.2a.35.35 0 0 1-.14-.2c-.02-.05 0-.07.05-.04.15.07.28.16.4.27a.17.17 0 0 1 .03.17l-.28.81a.2.2 0 0 1-.1.11c-.14.07-.26.15-.38.25-.04.04-.07.04-.11 0a5.23 5.23 0 0 1-1.16-1.54c-.04-.08-.02-.14.07-.17l.03-.02h.05l.03.03.35.62.03.02h.04ZM37.44 19.41h.01c.03.06-.01.15-.12.26-.12.1-.28.22-.47.31l-.1.05c-.19.1-.37.16-.52.2-.15.02-.25 0-.28-.06v-.01l1.48-.75ZM27.8 20.86c-.2-.18-.51-.07-.62-.38v-.03c0-.01 0-.02.02-.03a.05.05 0 0 1 .05 0c.17.17.34.24.53.22.25-.02.44.1.7.06.05 0 .09 0 .12.04.16.14.34.2.55.19.07 0 .13-.03.18-.08.05-.04.1-.1.11-.16l.1-.28a.18.18 0 0 1 .09-.11.61.61 0 0 0 .32-.36c.03-.09.05-.09.05 0 .02.48-.08.83-.29 1.07-.52.6-1.42.25-1.9-.15Z" fill="#F0F3FA"/><path d="m29.04 20.37-.02-.01-.01-.03a.04.04 0 0 1 .02-.04l.14-.03a.1.1 0 0 1 .11.05c.02.02.03.04.03.07 0 .07-.02.09-.08.05a.45.45 0 0 0-.19-.06Z" fill="#B38CA6"/><path d="M36.64 20.5c.05-.04.08-.1.05-.13-.02-.03-.08-.02-.13.02-.05.05-.07.1-.05.13.02.03.08.02.13-.02ZM36.19 20.64c-.23-.1-.37.02-.58.08a.1.1 0 0 1-.1-.03.24.24 0 0 1-.06-.23l.02-.04a.07.07 0 0 1 .05-.02l.69.05c.04 0 .05.02.05.07v.08a.05.05 0 0 1-.05.04h-.02Z" fill="#F0F3FA"/><path d="M31.93 22.04c.07 0 .08-.03.03-.08l-.47-.44c-.18-.16-.38-.21-.58-.34-.07-.04-.07-.07.02-.08.39-.05.77-.12 1.16-.22.35-.08.74-.14 1.16-.18a9.6 9.6 0 0 0 1.6-.26.19.19 0 0 1 .21.1c.19.43.42.8.7 1.1a.32.32 0 0 1 0 .44l-.54.55c-.21.21-.35.49-.5.75-.1.18-.5.5-.77.56-.12.03-.23.08-.34.16a.18.18 0 0 1-.14.02.17.17 0 0 1-.12-.09l-.4-.73c-.12-.22-.32-.21-.45-.39a5 5 0 0 0-.63-.7.15.15 0 0 1-.05-.14c0-.04.02-.05.06-.04h.05Z" fill="#EB353A"/><path d="M28.92 20.71c.11.05.21.06.22.03.02-.03-.06-.09-.17-.13-.11-.05-.21-.07-.22-.04-.01.03.06.1.17.14Z" fill="#B38CA6"/><path d="M36.54 20.97a.07.07 0 0 1-.1-.03l-.01-.03v-.04l.3-.23c.08-.06.11-.04.1.05 0 .1-.1.2-.3.28ZM36 20.85l.41.4a.05.05 0 0 1 .02.04.05.05 0 0 1-.02.04l-.23.14a.05.05 0 0 1-.07 0l-.43-.51a.05.05 0 0 1-.01-.05.05.05 0 0 1 .04-.03l.24-.05a.05.05 0 0 1 .05.02ZM36.88 21.08c.07-.06.12-.14.1-.17-.03-.03-.12 0-.2.06-.07.06-.11.14-.09.17.03.03.11 0 .19-.06Z" fill="#F0F3FA"/><path d="M26.98 25.7a.9.9 0 0 1-.56.24c-.7.06-1.23-.2-1.58-.8-.21-.35-.35-.7-.41-1.03a3.6 3.6 0 0 1 .67-2.61c.13-.2.4-.35.78-.42.18-.04.35.1.47.22l.91.93a3.58 3.58 0 0 1 .55 1.64c.03.35-.02.64-.16.9-.21.39-.43.7-.67.93Z" fill="#EB353A"/><path d="M29.4 21.49c.17-.03.31-.15.45-.25a.06.06 0 0 1 .08.01l.01.03c.06.21.06.43.03.65a.1.1 0 0 1-.16.05l-.42-.4c-.05-.05-.04-.08.02-.1ZM28.82 22.12l-.82-.73a.03.03 0 0 1 0-.04v-.02h.03c.36.14.7.22 1.02.24.05 0 .07.04.05.09l-.11.4a.11.11 0 0 1-.07.08.1.1 0 0 1-.1-.02Z" fill="#F0F3FA"/><path d="M29.86 22.3c.44.06.44-.46.42-.77-.01-.13.02-.14.1-.03.1.18.19.37.24.57 0 .06 0 .1-.05.13-.55.38-1.57.74-2.1.22a6.86 6.86 0 0 1-.7-.8v-.05h.04c.27.29.8.89 1.17.84.19-.03.3-.15.32-.37.01-.13.05-.14.12-.03a.6.6 0 0 0 .44.3Z" fill="#F0F3FA"/><path d="m30.67 21.39-.04.03a.03.03 0 0 0 0 .04l1.08 1.59h.04l.04-.02a.03.03 0 0 0 0-.05l-1.07-1.58a.03.03 0 0 0-.05-.01ZM31.36 21.8c.1.12.22.19.25.16s-.04-.14-.15-.25c-.11-.12-.23-.18-.25-.16-.03.03.04.14.15.26Z" fill="#B38CA6"/><path d="M30.79 22.41h-.04c-.02-.02-.03-.04-.02-.06l.08-.23c.02-.08.06-.09.1-.02l.72 1.15a.2.2 0 0 1 .02.2.57.57 0 0 0-.06.25c0 .08-.04.12-.12.13-.8.06-1.57.17-2.3.35a.29.29 0 0 1-.26-.07.3.3 0 0 1-.09-.27c.05-.3-.28-.8-.4-1.06-.02-.06-.01-.08.04-.04.58.4 1.55.06 2.1-.25a.13.13 0 0 1 .13 0 .1.1 0 0 0 .12-.01c.04-.04.04-.06-.02-.07Z" fill="#EB353A"/><path d="m33.83 23.65.36-.8c.08-.18.07-.39.16-.57a.04.04 0 0 1 .04-.02l.02.01v.03c.01.52-.15.98-.49 1.4h-.04l-.05-.03v-.02Z" fill="#B38CA6"/><path d="M12.05 22.32c.02.03.03.07.01.1a6.9 6.9 0 0 0-2.38 2.01 4.1 4.1 0 0 0-.47 4.28.05.05 0 0 1-.03.04h-.03c-.7-.2-1.39-.27-2.04-.2-.38.04-.78.36-1.02.66-.72.88-1.4 2.24-1.24 3.37.23 1.6 1.64 2.24 3.07 2.48 1.93.31 4.05.15 5.73-.95h.04a.05.05 0 0 1 .03.02c.72 1.36 2.52 1.23 3.66.5a.12.12 0 0 1 .09-.01c.02 0 .05.01.07.04.3.35.7.57 1.16.65a.09.09 0 0 1 .07.1l-.01.04c-.3.43-.28.9.04 1.39.22.34.49.51.82.52.96.03 1.85.03 2.67 0 .69-.02 1.1-.39 1.44-.97a45.42 45.42 0 0 1 1.18-1.88.06.06 0 0 1 .04 0c.37.28.8.45 1.28.53a5.18 5.18 0 0 0 3.4-.65l.05.02c.5.36.97.25 1.55.19.15-.02.29.01.43.07.4.2.82.32 1.25.4 2.02.33 4.02.01 6-.97a19.66 19.66 0 0 0 2.5-1.48.07.07 0 0 1 .07.07c0 .87.3 1.56.89 2.06 1.14.95 3.15.65 4.49.48a6.58 6.58 0 0 0 3.51-1.65c.76-.7 1.24-1.9.51-2.8-.4-.48-.92-.69-1.56-.62-.13.02-.15-.02-.07-.13.87-1.14.34-2.54-1-2.92-.1-.01-.15-.04-.17-.08a.7.7 0 0 0 .37-.11c.04-.02.07-.02.1 0 .08.07.16.12.26.17.6.31 1.05.6 1.35.87.13.13.27.32.4.58.22.4.26.83.14 1.25-.2.73.46.77.76 1.22.17.24.33.52.48.86.06.13.07.27.05.42a5.66 5.66 0 0 1-1.57 2.98c-.17.19-.36.33-.57.42-1.5.64-2.93.95-4.28.93a7.41 7.41 0 0 1-3.2-.83 5.28 5.28 0 0 1-.98-.7c-.41-.34-.9-.45-1.25.05-.56.18-1.1.52-1.58.7-.4.17-.79.36-1.21.46-.53.11-1.05.3-1.6.36-1.2.15-2.39.1-3.57-.17-.38-.09-.65-.3-1.06-.3-.42.02-.84 0-1.25-.05-.2-.02-.4 0-.58.05-.5.15-.97.3-1.5.37-.76.1-1.54.07-2.32-.09a.44.44 0 0 0-.45.15c-.17.19-.3.44-.42.73-.45.95-1.1 1.59-2.18 1.65l-3.28-.07c-.46-.25-.9-.6-1.32-1.04a.57.57 0 0 1-.15-.3 1.63 1.63 0 0 0-.24-.73c-.01-.15-.05-.25-.12-.31-.05-.05-.15-.05-.28-.01-.32.09-.64.16-.97.2-.8-.08-1.4-.15-1.75-.2a1.64 1.64 0 0 1-.4-.14c-.24-.3-.53-.39-.85-.24-.14.04-.32.04-.45.11-.55.29-1.06.45-1.53.5-1.4.14-2.69-.05-4.24-.3-1.07-.15-2-1.14-2.55-2.07-.26-.42-.28-1-.28-1.5v-1.08c.02-.43.16-.94.44-1.3l.87-1.09c.43-.51.97-.87 1.62-1.06.13-.03.2-.01.3.07.04.04.08.05.13.05.28 0 .44-.12.47-.37.06-.52.09-1.04.1-1.58.01-.9.67-1.52 1.16-2.2.14-.2.32-.37.53-.51.2-.13.4-.3.6-.5.18-.17.41-.33.7-.47l1.12-.54Z" fill="#3F4092"/><path d="m32.18 23.1-.01.01h-.01l-.01-.02a4.57 4.57 0 0 1-.32-.55c-.01-.04-.01-.06 0-.07.02-.01.04 0 .07.01l.11.1a2.74 2.74 0 0 1 .31.39l.01.01a.01.01 0 0 1 0 .02l-.15.1Z" fill="#B38CA6"/><path d="M14.66 22.94c1.3-.08 2.39.04 3.39 1.02.5.5.5 1.13.25 1.76-.24.61-.48 1.14-.7 1.58-.12.2-.3.28-.55.22a103.87 103.87 0 0 1-1.97-.51.11.11 0 0 1-.01-.16c.42-.5 1.75-2.25.66-2.72a2.02 2.02 0 0 0-2.02.33c-.9.74-1.65 1.97-.66 3 .52.53 1.14 1 1.55 1.65.54.87.32 1.79-.2 2.6-1.5 2.32-4.55 2.73-7.05 2-2.13-.62-1.32-2.42-.45-3.65.23-.33.53-.45.9-.37a22.72 22.72 0 0 0 1.5.28.04.04 0 0 1-.02.04 4.47 4.47 0 0 0-.93 1.66c-.25.82.43 1.3 1.13 1.26a2.84 2.84 0 0 0 2-1c1.02-1.12.08-2.44-.8-3.25a2.09 2.09 0 0 1-.7-1.9c.09-.72.36-1.35.82-1.89a5.37 5.37 0 0 1 3.86-1.95Z" fill="#EB353A"/><path d="M28.52 24.74c.24.05.4-.03.49-.25a.12.12 0 0 1 .1-.08c.78-.16 1.6-.3 2.48-.42.14-.02.27-.02.4 0 .33.06.58-.36.32-.61a.04.04 0 0 1-.01-.04.04.04 0 0 1 .03-.03c.35-.12.51.26.63.52a22.77 22.77 0 0 1 1.06 2.76l-.03.03-1.29.57a.12.12 0 0 1-.12-.01c-.2-.15-.4-.3-.62-.42-1-.51-2.06-.55-3.16-.33-.26.05-.52.02-.77-.1-.04-.02-.06-.05-.04-.1a5.6 5.6 0 0 0 .16-2l.05-.02c.04-.02.06-.01.06.04 0 .2.03.43.26.49Z" fill="#F0F3FA"/><path d="M32.01 23.82c.12 0 .22-.1.22-.21 0-.12-.1-.22-.22-.22-.11 0-.2.1-.2.22s.09.21.2.21Z" fill="#F0F3FA"/><path d="M26.45 25.04a2.56 2.56 0 0 1-.96-1.14l.03-.02.03.01a5.57 5.57 0 0 0 1 1.11l-.03.03c-.02.03-.04.03-.07.01Z" fill="#B38CA6"/><path d="M28.65 24.57c.11 0 .2-.09.2-.2 0-.12-.09-.22-.2-.22-.12 0-.21.1-.21.21 0 .12.1.21.2.21Z" fill="#F0F3FA"/><path d="m30.81 25.36.03-.03v-.03c-.03-.14.03-.24.17-.28l.38-.08c.34-.05.55-.27.89-.21.06.01.09-.02.08-.08 0-.03 0-.07.02-.1.04-.04.07-.04.1.02.07.14.16.27.27.38a.26.26 0 0 1 .08.19.26.26 0 0 1-.09.18c-.19.18-.4.24-.64.17a.15.15 0 0 0-.13.02.76.76 0 0 1-.34.14c-.3.02-.55.12-.75.3a.25.25 0 0 1-.16.07.4.4 0 0 1-.24-.07.18.18 0 0 0-.13-.03c-.26.04-.6.25-.81 0-.2-.25.2-.85.34-1a.17.17 0 0 1 .1-.06c.44-.1.7.07.8.5 0 .02.02.02.03 0Z" fill="#B38CA6"/><path d="M25.54 26.05c.76.22 1.6.07 2-.67l.24-.43c.05-.1.07-.1.07.02-.02.42-.09.82-.2 1.19 0 .05-.04.07-.09.07l-2.04.06c-.05 0-.09-.03-.1-.09 0-.05 0-.1.04-.13a.07.07 0 0 1 .07-.02Z" fill="#F0F3FA"/><path fill-rule="evenodd" d="M41.7 28.22c-.07.52.12.77.57.76a.04.04 0 0 1 .03.02v.04c-.32.4-.66.76-1.02 1.06-.46.38-1.04.8-1.75 1.25-1.04.67-2.04 1.3-3.3 1.34-.46.02-.79-.09-1.1-.43l-.01-.02a.04.04 0 0 1 .02-.04c1.65-.33 4.22-1.24 4.58-3.17.08-.41-.06-.73-.4-.94-.8-.48-1.83-.46-2.74-.32a6.93 6.93 0 0 0-4.5 2.41c-.61.78-.63 1.51-.53 2.43 0 .06-.01.12-.05.17a.22.22 0 0 1-.15.08l-.67.09a.34.34 0 0 0-.29.22l-.03.09c-.06.14-.01.2.14.2l1.1-.08c.1-.01.2.01.29.07.83.52 2.15.61 3.05.55 2.51-.18 4.87-1.58 6.86-3.15.53-.42 1-.9 1.44-1.42a.5.5 0 0 1 .33-.17 12.6 12.6 0 0 1 1.7-.03.2.2 0 0 1 .11.15.2.2 0 0 1-.01.1.56.56 0 0 1-.21.27l-.33.23c-.95.64-1.9 1.27-2.14 2.54-.15.82.32 1.5 1.12 1.62.25.03.5.06.73.06 1.67.03 3.34-.21 4.7-1.22.25-.19.46-.4.63-.66.23-.32.31-.92-.22-.97a.54.54 0 0 0-.39.13l-.1.08c-.26.2-.52.4-.8.55-.55.26-2.77.9-2.45-.53.1-.39.28-.67.58-.85l1.03-.66c.46-.31 1.49-1.26.64-1.73-.37-.2-1.31-.09-1.84-.02l-.1.01c-.32.04-.64.04-.93-.02a.14.14 0 0 1-.11-.1.14.14 0 0 1 .03-.14c.24-.23.58-.9.11-1.08-.88-.35-3.46-.04-3.63 1.23Zm-6.6 3.25c.81-.31 1.58-.61 2.12-1.31.15-.2.25-.4.3-.6a.3.3 0 0 0-.1-.3.29.29 0 0 0-.1-.06c-.93-.23-1.9.25-2.52.98-.3.37-.37.93-.13 1.33.04.07.1.09.17.06l.26-.1ZM21.78 32.81l.22-.05c.1-.02.12 0 .06.09l-2.32 3.23a.1.1 0 0 0-.01.08.06.06 0 0 0 .05.05l2.44-.01a.42.42 0 0 0 .36-.2l2.04-3.29a.07.07 0 0 1 .1 0c.22.3.5.57.8.8 1 .71 2.79.38 3.73-.33a6.18 6.18 0 0 0 2.06-2.53c.28-.65.37-1.6-.1-2.19-.42-.52-1.35-.47-1.95-.34-.63.13-1.27.37-1.92.73-.11.06-.14.03-.08-.08l.36-.72a.05.05 0 0 0 0-.04.04.04 0 0 0-.04-.02c-.77-.02-1.54-.01-2.32.04a.47.47 0 0 0-.4.24 294.5 294.5 0 0 1-2.01 3.27c-.34.53-.94.68-1.51.66a.16.16 0 0 1-.12-.07.16.16 0 0 1-.03-.12c.03-.16.08-.3.15-.43a50.66 50.66 0 0 1 2.19-3.5v-.04a318.98 318.98 0 0 1-2.07-.07.66.66 0 0 0-.58.35 49.3 49.3 0 0 1-2.2 3.35c-.26.37-.82.75-1.15.27-.21-.3.26-1.03.44-1.31v-.01a47.01 47.01 0 0 1 1.8-2.63.08.08 0 0 0-.04-.07 197.63 197.63 0 0 1-1.67.06c-.25 0-.53.09-.68.3a35.65 35.65 0 0 0-2.47 4.02c-.3.57-.48 1.52.42 1.67.49.08.98-.05 1.47-.37a133.17 133.17 0 0 1 1.33-.86.06.06 0 0 1 .05.03v.03c-.09.57.07 1.26.72 1.34.73.1 1.15-.3 1.62-.81.27-.3.8-.41 1.26-.52Zm3.88-.96c.7.56 1.88.12 2.52-.33.51-.36.94-1.06.85-1.73-.11-.8-1.39-.5-1.8-.32a.85.85 0 0 0-.3.23c-.47.55-.86 1.06-1.18 1.55a.9.9 0 0 0-.15.46c0 .06.02.1.06.14Z" fill="#EB353A"/><path d="M10.4 30.36c.05-.22.12-.22.2-.02l.12.27a.48.48 0 0 1-.05.47c-.25.33-.58.54-1 .64-.07.02-.09 0-.06-.07.13-.27.25-.54.48-.75a1 1 0 0 0 .31-.54Z" fill="#3F4092"/></svg>