<!-- by TradingView --><svg width="56" height="56" viewBox="0 0 56 56" xmlns="http://www.w3.org/2000/svg"><path fill="#F0F3FA" d="M0 0h56v56H0z"/><path d="M37.39 15.72a13.03 13.03 0 0 0-3.61-1.6c-3.93-1.1-7.6-.65-11 1.37-2.36 1.4-4.09 3.67-5.46 6.08a10.36 10.36 0 0 0-1.03 2.66.23.23 0 0 0 .11.16l.1.03c.78.1 1.57.29 2.36.57a.24.24 0 0 1 .15.17.25.25 0 0 1-.06.23l-6.17 6.35a.23.23 0 0 1-.34 0 .25.25 0 0 1-.06-.11l-2.37-8.58a.27.27 0 0 1 .07-.26.26.26 0 0 1 .26-.07l2.1.66a.37.37 0 0 0 .47-.24c1.71-5.31 5.76-9.3 11.1-10.68 1.97-.5 4.09-.6 6.36-.26 3.17.47 6.3 2.16 8.68 4.41.02.03.03.05.01.08-.03.08-.08.1-.14.05-.49-.31-1-.65-1.53-1.02Z" fill="#EB9A41"/><path d="M22.04 16.62c5.18-3.53 11.46-3.39 16.35.53a14.13 14.13 0 0 1 4.32 6.2c.12.32-.01.57-.22.79l-2.3 2.43a.28.28 0 0 1-.3.07.3.3 0 0 1-.19-.26c-.27-5.45-5.31-10.28-10.47-10.76-2.91-.27-5.49.33-7.73 1.8-.76.49-.82.42-.17-.22.22-.21.45-.4.7-.58ZM33.56 39.09c-.68.42-2.74 1.64-3.45 1.27-.08-.04-.12-.1-.1-.2L30 38.85c.02-4.85 0-14.73 0-14.73 0-.02.05-.03.06-.04a.1.1 0 0 1 .06-.06.1.1 0 0 1 .04-.01h3.55l.1.02.1.06.05.1c.01.03.04.07.04.1v14.06c0 .32-.15.57-.44.75Z" fill="#EB9A41"/><path d="m39.53 31.64-2.46-.61c-.1-.03-.15-.1-.15-.2s.04-.18.1-.25c2.28-2.34 4.35-4.47 6.2-6.4a.23.23 0 0 1 .4.1c.07.27.07.55.14.8a424.66 424.66 0 0 0 2.24 8.1l-.04.08a.15.15 0 0 1-.15.04l-2.42-.7a.29.29 0 0 0-.35.2 15.5 15.5 0 0 1-17.61 10.96 15.47 15.47 0 0 1-8.56-4.55c-.02-.02-.03-.04 0-.06l.03-.06a27.52 27.52 0 0 0 2.69 1.74c2.4 1.38 5.14 1.9 8.21 1.52a13.02 13.02 0 0 0 8.78-4.87 16.96 16.96 0 0 0 3.11-5.65.22.22 0 0 0-.08-.15.21.21 0 0 0-.08-.04Z" fill="#3674B8"/><path d="M25.5 39.95V28.6c0-.29.26-.6.56-.61h2.87c.31 0 .57.27.57.58V40.1c0 .08-.04.3-.07.36a.57.57 0 0 1-.56.34l-2.76-.19a.56.56 0 0 1-.38-.18.94.94 0 0 1-.23-.48Z" fill="#61B359"/><path d="M21 38.21v-6.85c0-.09.06-.18.16-.24a.8.8 0 0 1 .4-.12h2.87a.9.9 0 0 1 .22.02c.07.02.13.05.18.08.06.03.1.07.13.11.03.04.04.09.04.13v8.45c0 .05-.04.1-.07.14a.41.41 0 0 1-.13.11.7.7 0 0 1-.2.08.91.91 0 0 1-.23.02c-1.01-.59-2.18-1.08-3.14-1.7-.1-.06-.23-.14-.23-.23Z" fill="#3674B8"/><path d="M27.03 40.4c2.27.35 4.95-.42 6.87-1.57l1.06-.61c.27-.15.3-.11.09.1a10.64 10.64 0 0 1-4.52 2.86c-4.3 1.38-8.32.83-12.07-1.66-2.55-1.7-4.18-4.14-5.29-7.01a.38.38 0 0 1 .08-.43 50.8 50.8 0 0 1 2.4-2.52c.4-.4.6-.3.6.26 0 .27.03.53.08.78 1.48 7.62 8.19 9.43 10.7 9.8Z" fill="#3674B8"/></svg>