<!-- by TradingView --><svg width="56" height="56" viewBox="0 0 56 56" xmlns="http://www.w3.org/2000/svg"><path fill="#F0F3FA" d="M0 0h56v56H0z"/><path d="M27.6 15.5c-.29-.3-1-.75-1.58-1.95-.46-1.63-2.18-1.84-2.98-1.74.56 1.84.51 3.95.42 4.78-.36-.19-1.63-.87-2.57-1.82-.96-1.4-2.65-1.03-3.38-.68a14.36 14.36 0 0 1 2.03 4.54c-.54-.14-1.38-.4-2.27-.86-1.36-1.02-2.85-.14-3.43.42a15.6 15.6 0 0 1 3.5 3.8c-.51.06-1.5.12-2.64-.04-1.62-.5-2.74.81-3.1 1.54 1.81.52 3.52 1.68 4.19 2.23a11 11 0 0 1-2.35.73c-1.69.03-2.33 1.64-2.44 2.44 1.92-.08 4.48.56 5.26.86-.38.34-1.18.96-2.21 1.49-1.62.5-1.79 2.22-1.67 3.02 1.82-.6 4-.62 4.84-.54-.3.46-.8 1.11-1.44 1.75-1.38.98-1 2.67-.65 3.4a16.32 16.32 0 0 1 4.79-2.22c-.12.54-.38 1.4-.83 2.32-1 1.37-.1 2.85.48 3.42a13.32 13.32 0 0 1 3.46-3.27c.06.53.1 1.47-.04 2.52-.5 1.61.83 2.72 1.55 3.08a14.83 14.83 0 0 1 2.36-4.46c.23.5.53 1.33.73 2.31.04 1.7 1.65 2.33 2.45 2.43-.09-1.92.57-4.36.87-5.13.3.26 1.1.89 1.78 2.02.62 1.57 2.35 1.61 3.14 1.43a15.05 15.05 0 0 1-.97-4.98c.45.26.99.61 1.53 1.07 1.1 1.28 2.75.76 3.43.33a13.3 13.3 0 0 1-2.37-4.16c.55.08 1.4.26 2.33.62 1.45.88 2.85-.15 3.36-.77a14.43 14.43 0 0 1-3.72-3.3c.51-.12 1.49-.27 2.62-.23 1.66.34 2.64-1.08 2.92-1.84a15 15 0 0 1-4.7-1.92 11 11 0 0 1 2.27-.96c1.68-.2 2.15-1.86 2.18-2.67-1.9.27-3.98-.11-4.78-.33.3-.42.9-1.18 1.79-1.9 1.47-.83 1.27-2.55.99-3.3-1.62.95-3.63 1.4-4.5 1.52.15-.49.51-1.43 1.13-2.42 1.13-1.27.38-2.83-.13-3.45a14.92 14.92 0 0 1-4 3.1c0-.56.06-1.43.29-2.38.66-1.55-.55-2.8-1.23-3.22a13.3 13.3 0 0 1-2.67 3.98c-.18-.5-.42-1.4-.52-2.45.13-1.69-1.41-2.48-2.2-2.66-.1 1.92-.95 3.76-1.33 4.5Z" fill="url(#atqrlgeob)"/><defs><linearGradient id="atqrlgeob" x1="28" y1="11" x2="28" y2="45" gradientUnits="userSpaceOnUse"><stop stop-color="#FC9806"/><stop offset="1" stop-color="#FB6919"/></linearGradient></defs></svg>