<!-- by TradingView --><svg width="56" height="56" viewBox="0 0 56 56" xmlns="http://www.w3.org/2000/svg"><path fill="#F0F3FA" d="M0 0h56v56H0z"/><path d="M30.14 30.97V31l-.03.01h-2.16a.01.01 0 0 1-.01 0v-.01c.08-1.28.17-2.57.24-3.86.07-1.11.1-2.17.11-3.18a13.55 13.55 0 0 0 0-.95h2.22l.01.02c-.1.74-.19 1.74-.24 2.6-.09 1.72-.14 3.5-.14 5.35ZM6.92 28.84c.07-.23-.19-.5-.36-.63-.2-.15-.52-.4-.95-.77a6.88 6.88 0 0 1-1.02-1.04c-.19-.24-.32-.5-.39-.76a2.76 2.76 0 0 1-.05-.42 1.66 1.66 0 0 1 .7-1.6c.42-.31.84-.47 1.38-.55.62-.1 1.21-.1 1.8 0a7.46 7.46 0 0 1 1 .22l.02.04.13 1.7v.02a.02.02 0 0 1-.02 0 4.94 4.94 0 0 0-1.01-.29 2 2 0 0 0-1.03.05c-.2.07-.47.26-.45.5.02.17.08.25.23.37.56.45 1.05.87 1.49 1.25.4.36.79.82.91 1.35.05.18.06.4.06.66-.03.95-.73 1.65-1.62 1.9a4.2 4.2 0 0 1-1.36.14 20.11 20.11 0 0 1-2.22-.26.07.07 0 0 1-.01-.04L4 28.78a.03.03 0 0 1 .04-.02c.51.22 1.03.37 1.53.45.36.06 1.22.1 1.35-.37Zm34.9-2.95c-.03.02-.04.02-.03-.02l.29-2.86-.02-.01h-2.21a.02.02 0 0 0-.02 0v.02c.03.7.03 1.39 0 2.08l-.02.55-.06 1.29a380.42 380.42 0 0 1-.25 4.05h2.19v-1.05c-.01-.48-.02-.95 0-1.6 0-.11.03-.24.08-.38.18-.46.47-.98.97-1 .18 0 .33.05.45.16.37.37.34.98.32 1.48v.13c-.04.69-.05 1.14-.07 1.83V31h2.16v-.02l.01-1.63c0-.8 0-1.46.04-2.2.01-.36 0-.61-.04-.77a1.54 1.54 0 0 0-.56-.88 1.84 1.84 0 0 0-.6-.3 2.27 2.27 0 0 0-1.12-.1c-.57.12-1.1.35-1.51.79Zm-5.25 3.25c.01-.26-.24-.43-.45-.55l-.1-.07c-.74-.44-1.64-.97-1.58-1.9.05-.63.48-1.13 1.09-1.37a4.63 4.63 0 0 1 3.07.04l.01.04.08 1.44v.01l-.01.01h-.03a2.74 2.74 0 0 0-1.2-.21c-.18 0-.39.04-.52.15-.13.1-.13.28-.03.4.05.06.12.12.21.17.2.1.35.19.46.26.79.48 1.46 1.29 1.23 2.23-.19.8-1.06 1.1-1.84 1.18a8.64 8.64 0 0 1-2.5-.18l-.13-1.66v-.01l.01-.01a.03.03 0 0 1 .03 0c.35.13.71.22 1.09.27.32.04.69.04.98-.09.08-.03.13-.07.13-.15Zm-9.62-3.1c-.16-.5-.63-.73-1.16-.88-.27-.05-.5-.1-.67-.11a7.39 7.39 0 0 0-2.56.13l-.36.1a.08.08 0 0 0-.03.03l-.02.03-.23 1.54v.01h.02c.64-.2 1.38-.4 2.05-.45.17 0 .33 0 .46.03s.32.12.34.24c.07.4-.55.63-.9.7-.28.04-.76.14-1.44.29-.64.13-1.08.47-1.3 1-.2.42-.2.86-.02 1.3.4.97 1.67 1.1 2.67.94.05 0 .09-.02.11-.03l.02-.03.33-1.2v-.02h-.02c-.37.09-1.27.17-1.25-.37.01-.42 1.33-.72 1.71-.8h.02a.02.02 0 0 1 0 .02l-.13 2.28v.03a.04.04 0 0 0 .03.01h2.15l.03-.01.01-.03.18-4.01c.02-.36 0-.61-.04-.75Zm22.78 2.47-.01-.02h-.02c-.3.07-.6.15-.9.25-.23.07-.43.16-.61.27-.18.11-.26.27-.17.45.17.36.89.28 1.21.2a.03.03 0 0 1 .02 0l.01.02-.34 1.23-.02.01c-.57.11-1.12.1-1.65-.02a1.54 1.54 0 0 1-1.14-.97c-.28-.76-.01-1.6.78-2.03.16-.1.46-.18.89-.27l1.08-.22c.3-.06.87-.24.93-.55.11-.49-.78-.44-1.07-.4-.62.1-1.17.25-1.78.43-.02 0-.03 0-.02-.02l.23-1.54.04-.03.1-.03a7.38 7.38 0 0 1 3.46-.12c.16.03.34.1.56.21.36.17.58.42.67.73.02.1.03.37 0 .81-.02.84-.07 1.69-.12 2.5l-.09 1.57c0 .02 0 .03-.03.03h-2.17a.03.03 0 0 1-.02-.01v-.02l.18-2.46Zm-28.75-1.73c0-.13 0-.26.02-.4v-1.33l-.02-.03h-.02c-.75-.1-1.36.26-1.81.85-.02.03-.04.03-.04-.01v-.73c0-.03-.01-.05-.04-.05H17.3l-.01.02c0 .53 0 1.03-.03 1.48a99.58 99.58 0 0 1-.26 4.4c0 .01 0 .02.02.02h2.11l.01-.01v-.01a19.1 19.1 0 0 1 .03-2.4c.03-.37.13-.73.3-1.07.13-.27.26-.41.55-.52.28-.09.56-.13.84-.13.08 0 .13-.02.12-.08Zm-7.19 3.36c-.68.74-1.6.96-2.58.82-.31-.05-.6-.17-.83-.4-.38-.4-.4-1.04-.37-1.54a75.98 75.98 0 0 0 .14-4.02h2.05a325.93 325.93 0 0 0-.13 3.14c0 .31.1.77.35 1 .3.27.65.16.9-.13.3-.32.43-.75.52-1.2.05-.21.07-.48.07-.8a99.86 99.86 0 0 0 .01-2l.01-.01h2.04a.03.03 0 0 1 .02.01v.01l.01.01-.15 3.25-.05 1.49a154.25 154.25 0 0 1-.04 1.07h-1.9l-.02-.01-.02-.03v-.65a.02.02 0 0 0 0-.02h-.02Zm16.46-2.37L31.88 31l.02.01h2.29a.02.02 0 0 0 .02-.01v-.02l-1.67-3.29a.02.02 0 0 1 0-.02l1.77-2.63a.02.02 0 0 0 0-.02.02.02 0 0 0-.02-.01H32.11l-.01.01-1.85 2.74v.02Z" fill="#ED323A"/></svg>