<!-- by TradingView --><svg width="56" height="56" viewBox="0 0 56 56" xmlns="http://www.w3.org/2000/svg"><path fill="#F0F3FA" d="M0 0h56v56H0z"/><path d="M32.88 38.28a7.43 7.43 0 0 0 2.48-5.1 7.72 7.72 0 0 0-.68-3.7c-.84-1.75-2.42-3.05-4.07-4-.88-.5-1.79-.96-2.7-1.42-.75-.37-1.5-.75-2.25-1.16-.96-.53-2.22-1.43-2.32-2.53-.03-.27-.02-.6 0-1 .06-.83.34-1.52.96-2.1a5.24 5.24 0 0 1 2.7-1.2c.24-.04.56-.05.96-.06l.28-.01H39v-3.95a.05.05 0 0 0-.01-.03l-.02-.01-.02-.01H27.62c-.76 0-1.38.02-1.86.08-1.48.2-2.8.77-3.98 1.72a7.36 7.36 0 0 0-2.72 5 6.53 6.53 0 0 0 1.63 5.35 11.4 11.4 0 0 0 2.79 2.22A38.1 38.1 0 0 0 29.37 29c1.63.6 2.27 2.47 2.04 4.07-.32 2.32-2.74 3.32-4.81 2.69-1.5-.46-2.3-1.65-2.54-3.16-.14-.96-.12-1.5.06-2.46.02-.08-.01-.14-.1-.14H20.08l-.03.02c-.54 4.18.69 8.48 5.35 9.68 1.17.3 2.2.43 3.1.38a7.2 7.2 0 0 0 4.39-1.8Zm5.92-11.24A17.4 17.4 0 0 0 34.44 21H39v-4h-9.82c-1.02.02-1.98.24-2.87.47-.73.19-1.35.62-1.66 1.33-.37.85-.18 1.62.55 2.3a6.7 6.7 0 0 0 2.07 1.32c1.63.66 3.24 1.32 4.71 2.23a10 10 0 0 1 2.96 2.62 9.22 9.22 0 0 1 1.45 3.44c.25 1.09.19 2.3-.01 3.37-.64 3.44-2.82 6.38-6.4 7.15-1.87.4-4.07.28-5.87-.41-2.64-1.01-4.23-3.18-4.97-5.86-.45-1.65-.62-3-.49-4.79 0-.03-.08-.17-.1-.17h-3.47a.08.08 0 0 0-.06.03.08.08 0 0 0-.02.05c0 1.42 0 2.56.13 3.98.1 1.02.32 2.07.61 3.04a10.17 10.17 0 0 0 4.79 5.95c1.27.65 2.65 1.15 4.13 1.51 1.44.36 2.85.5 4.23.42a11.2 11.2 0 0 0 8.36-4.16 12.54 12.54 0 0 0 2.67-6.61c.26-2.44-.14-4.89-1.12-7.17Z" fill="#DC543A"/></svg>