<!-- by TradingView --><svg width="56" height="56" viewBox="0 0 56 56" xmlns="http://www.w3.org/2000/svg"><path fill="#F0F3FA" d="M0 0h56v56H0z"/><path fill-rule="evenodd" d="M11.13 14h33.74a.13.13 0 0 1 .13.13v27.74a.13.13 0 0 1-.13.13H11.13a.13.13 0 0 1-.13-.13V14.13a.13.13 0 0 1 .13-.13Zm9.68 12.1c.43-.83-.05-1.69-.85-2.05-2.07-.92-3.9-1.77-4.47-4.11-.59-2.42.77-4.68 3.27-5.1 2.66-.45 4.04 1.16 5.13 3.37.1.19.03.3-.18.31l-2.36.2c-.2.01-.34-.08-.42-.26-.4-1.03-1.88-1.35-2.43-.2-.58 1.22 1.66 2.16 2.7 2.6l.27.12c3.47 1.53 3.55 6.76.14 8.28a4.77 4.77 0 0 1-3.88-.01 4.54 4.54 0 0 1-2.58-3.02c-.08-.23 0-.37.25-.4l2.23-.34c.24-.04.4.06.49.29.47 1.24 2.04 1.58 2.7.33Zm6.46.2c-.02-.89.11-4.28 1.37-4.2.06 0 .12.03.17.08.04.04.07.1.08.16.13.94-.11 2.03-.33 2.97l-.06.28c-.4 1.72-.97 4.59-.16 6.2.92 1.81 2.87 1.05 3.72-.33 1.91-3.1 2.4-7.25 2.02-10.81a.22.22 0 0 0-.34-.17c-.46.27-.73.68-.82 1.25-.08.56-.15 1.16-.22 1.77-.32 2.63-.68 5.57-2.32 7.6a.55.55 0 0 1-.95-.18 3 3 0 0 1-.1-1.56l.28-1.38c.4-1.93.84-4 .58-5.9-.12-.91-.95-2.02-1.97-1.45-1.99 1.1-2.7 4.7-2.28 6.6.07.3.25.42.54.33a.72.72 0 0 0 .23-.11c.39-.29.58-.67.56-1.16Zm13.2 7.14c0-.48-.17-.46-.3 0l-1.78 6.3c-.05.17-.16.26-.35.26h-.9c-.16 0-.26-.08-.3-.23l-2.02-6.45c-.15-.45-.2-.44-.2.03V40h-1.47c-.1 0-.15-.05-.15-.14v-9.63c0-.15.08-.23.24-.23h1.86c.15 0 .25.08.29.21l2.1 6.5c.1.28.18.28.26 0l1.89-6.51c.03-.13.12-.2.26-.2h1.88c.15 0 .22.08.22.23v9.66c0 .07-.03.11-.1.11h-1.43v-6.56Zm-14.54 4.7-.96-2.5a.32.32 0 0 0-.3-.22H21.3c-.12-.01-.2.04-.22.16l-.85 2.8a.23.23 0 0 0 .24.29c.36-.02.6.03.74.15.13.12.1.18-.07.18h-2.8c-.63 0-.65-.1-.05-.33l.82-.3a.37.37 0 0 0 .22-.21l3.41-8.3c.15-.35.44-.62.73-.88.15-.14.3-.27.42-.42l.04-.02a.08.08 0 0 1 .1.04l4.13 9.61a.43.43 0 0 0 .27.25c.28.08.54.19.77.33.28.15.26.23-.06.23h-3.9c-.25 0-.27-.08-.07-.22.18-.14.39-.24.6-.32.17-.06.22-.16.16-.33Zm-4.56-3.53 1.38-3.63a.11.11 0 0 1 .1-.07.11.11 0 0 1 .11.07l1.4 3.62a.11.11 0 0 1-.1.16h-2.79a.11.11 0 0 1-.1-.15Z" fill="#262626"/></svg>