<!-- by TradingView --><svg width="56" height="56" viewBox="0 0 56 56" xmlns="http://www.w3.org/2000/svg"><path fill="#F0F3FA" d="M0 0h56v56H0z"/><path d="M13.14 25.1c0 .02 0 .02-.02.02h-.05c-.01 0-.07 0-.07-.02V13.17c0-.1.06-.17.16-.17h12.72l.03.03a.07.07 0 0 1 .04.04v.08l-.01.02c-6.1.48-12.1 6.07-12.8 11.93ZM31.02 13.28c-.09-.02-.19-.03-.29-.02-.15 0-.24 0-.29-.02-.46-.17-.44-.25.06-.24H43v11.96c0 .02-.02.03-.03.04a.06.06 0 0 1-.04.02H42.87c-.67-5.72-6.13-10.67-11.85-11.74Z" fill="#2B246E"/><path d="M16.22 25.27c.1-.52.28-1.02.53-1.49a.24.24 0 0 0-.07-.3.26.26 0 0 0-.1-.05c-.33-.07-.6-.25-.8-.56a.17.17 0 0 1-.02-.17l.75-1.6c.04-.1.11-.12.2-.09.28.1.51.26.7.5a.4.4 0 0 0 .34.14.41.41 0 0 0 .31-.18l.84-1.28a.12.12 0 0 0 .02-.1.13.13 0 0 0-.06-.08c-.31-.22-.83-.59-.6-1.01.1-.16 1.3-1.37 1.46-1.24.28.25.52.53.72.83.06.1.15.12.26.06l1-.62c.28-.17.36-.4.24-.69l-.3-.77a.2.2 0 0 1-.02-.1c.03-.3 1.41-.85 1.66-.9a.4.4 0 0 1 .38.13c.04.05.07.12.07.19.05.42.16.94.75.82.46-.1.9-.17 1.34-.24.12-.02.18-.09.18-.2.03-.47.01-.9-.06-1.3-.01-.09.03-.13.12-.13l1.82-.12a.18.18 0 0 1 .12.05.17.17 0 0 1 .06.11l.06 1.02c.01.24.15.36.4.36l1.2.02c.2 0 .31-.1.32-.3 0-.27.05-.55.14-.84a.32.32 0 0 1 .14-.18c.32-.2 1.71.4 2.06.48.08.01.1.06.06.12-.2.35-.34.73-.43 1.14 0 .04 0 .09.03.13.03.04.07.07.12.09l1.47.53c.19.07.32.02.39-.17l.32-.83c.03-.07.08-.1.17-.1.48.09 1.41.66 1.76 1.01a.31.31 0 0 1 .08.3.31.31 0 0 1-.09.14l-.6.6a.33.33 0 0 0-.1.28.32.32 0 0 0 .18.24c.33.17.61.4.84.7.17.22.37.3.62.24a.27.27 0 0 0 .17-.12l.33-.48c.03-.05.08-.1.13-.13a.4.4 0 0 1 .5.1l1.06 1.33a.23.23 0 0 1-.02.3.25.25 0 0 1-.1.07c-.49.16-.86.48-.72.99.12.45.34.86.66 1.23a.2.2 0 0 0 .25.03c.33-.22.7-.36 1.09-.4.06-.02.11.01.14.07.28.66.46 1.27.52 1.85 0 .03 0 .06-.03.09a.13.13 0 0 1-.08.05c-.41.06-1.17.33-1.13.84a.2.2 0 0 1-.06.16.22.22 0 0 1-.07.05c-.02 0-.05.1-.08.11h-4.2c-.1 0-.17-.08-.18-.18-.14-.92-.71-1.53-1.2-2.28-.2-.3-.44-.58-.73-.83a7.73 7.73 0 0 0-5.85-2 7.3 7.3 0 0 0-4.67 1.98c-.15.14-.13.26.07.34.51.22 1.03.43 1.58.54.94.18 1.85.36 2.77.65 1.18.38 2.45.5 3.63.93.56.2 1.23.39 2 .55.35.07.35.15 0 .23-.1.03-.22.07-.34.07H14.89c-.14 0-.18-.12-.14-.24l.18-.5c.03-.08.1-.11.18-.1l.97.2c.08.02.13 0 .14-.09Z" fill="#0077C5"/><path d="M27.48 29.1c.77-.36 1.84-1.01 2.2-1.71l.01-.05a.08.08 0 0 0-.02-.04.1.1 0 0 0-.05-.03.1.1 0 0 0-.05 0c-.11.02-.2 0-.26-.09-.08-.1-.05-.18.09-.18h4.79l.03.06.02.02.02.02v.03c-.02.38-.12.75-.27 1.1-.02.05-.06.07-.11.07-.48 0-.6-.64-.9-.85-.7-.48-1.42.04-2.01.4-.58.35-.73.87-.48 1.45.34.8 2.2.3 2.8.13.06-.01.1 0 .1.05l.03.05c0 .01 0 .03-.02.03-.3.13-.6.3-.93.37-.19.04-.35.1-.49.2-.74.46-3.41.26-2.89-1.17.14-.37.04-.43-.3-.17-.57.43-1.15.84-1.75 1.22-.2.13-.42.18-.66.16a.18.18 0 0 1-.1-.05.14.14 0 0 1-.05-.09c-.05-.56-.08-1.1-.08-1.65 0-.3-.16-.55-.31-.8a.3.3 0 0 0-.1-.1.34.34 0 0 0-.13-.04 4.58 4.58 0 0 0-1.31.02c-.18.03-.27.18-.29.32-.01.14.06.22.21.25l1.45.28a.2.2 0 0 1 .1.07c.73.8-.24 1.77-1.16 1.87-.6.06-1.19.06-1.76 0-.36-.03-.56-.3-1-.28-.12 0-.15-.04-.1-.12.13-.2.23-.4.32-.6.2-.42.4-.43.62-.02.08.16.2.29.33.38.46.34 1.45.19 1.91 0a.2.2 0 0 0 .13-.15c.05-.23-.15-.45-.41-.47-.4-.04-.81-.12-1.24-.23-.26-.06-.42-.25-.42-.5.01-.65.36-1.02 1.05-1.12.39-.06.78-.15 1.18-.14h2.97c.09 0 .13.03.15.1v.05c.02.04 0 .07-.05.07l-.56.06c-.1 0-.18.04-.25.1a.35.35 0 0 0-.12.22c-.05.47-.05.95 0 1.45.02.06.05.08.12.05Z" fill="#2A2559"/><path d="M13.15 43c-.08 0-.14-.06-.15-.13V31l.06-.02h.06a.07.07 0 0 1 .05.02l.01.02v.02c-.04 4.6 6.44 11.84 11.68 11.84.1 0 .1.06.03.12H13.15ZM42.92 31.1c0-.01.02-.03.04-.02.03 0 .04.01.04.04v11.65c0 .02-.04.05-.05.08a.22.22 0 0 1-.12.12c-.03.01-.06.03-.1.03H31.16v-.05c0-.04.02-.07.07-.06 5.7.1 10.95-7.25 11.7-11.78Z" fill="#2B246E"/><path d="M39.52 32.45c-.4.47-.9 1.32-.68 1.9.03.08.09.13.16.16l.53.22c.05.02.09.05.12.09a.32.32 0 0 1 .08.28.32.32 0 0 1-.07.13l-.93 1.13a.36.36 0 0 1-.31.13.37.37 0 0 1-.17-.05.35.35 0 0 1-.12-.12l-.31-.51c-.12-.2-.26-.22-.44-.08-.5.4-.93.82-1.3 1.27a.28.28 0 0 0 0 .34l.57.74a.16.16 0 0 1-.01.2c-.4.45-.85.79-1.37 1.02a.45.45 0 0 1-.5-.1.42.42 0 0 1-.1-.14l-.2-.55a.28.28 0 0 0-.16-.16.3.3 0 0 0-.22 0c-.54.2-1.04.5-1.49.9a.26.26 0 0 0-.08.13.25.25 0 0 0 0 .14l.28.77c.03.1 0 .15-.1.18-.55.2-1.23.57-1.83.57-.07 0-.1-.03-.1-.1l-.06-.66a.48.48 0 0 0-.18-.33.52.52 0 0 0-.36-.12l-1.3.09c-.63.04-.47.7-.5 1.12 0 .04-.01.07-.04.1a.15.15 0 0 1-.09.04c-.7.06-1.38.06-2.06-.01a.18.18 0 0 1-.12-.06.16.16 0 0 1-.04-.12l.09-.93a.37.37 0 0 0-.07-.26.4.4 0 0 0-.23-.15l-1.5-.36a.39.39 0 0 0-.29.04.36.36 0 0 0-.16.24l-.13.7a.19.19 0 0 1-.1.13.2.2 0 0 1-.15.02 10.67 10.67 0 0 1-1.64-.63.31.31 0 0 1-.09-.23l.03-.12.3-.6a.21.21 0 0 0-.01-.2c-.35-.62-.84-1-1.46-1.13a.42.42 0 0 0-.24.01.4.4 0 0 0-.18.14l-.42.59a.24.24 0 0 1-.1.08.26.26 0 0 1-.13.02c-.38-.04-1.26-1.14-1.37-1.43a.17.17 0 0 1 0-.1c0-.04.02-.07.05-.1l.73-.69a.18.18 0 0 0 .05-.15c-.05-.3-.8-.9-1-1.22-.28-.45-.9-.06-1.2.17-.2.17-.38.14-.5-.1a7.91 7.91 0 0 1-.61-1.4.25.25 0 0 1 .02-.2c.03-.06.09-.1.16-.13l.63-.2a.4.4 0 0 0 .16-.08c.04-.04.07-.1.1-.15a.36.36 0 0 0-.05-.33 2.76 2.76 0 0 1-.5-1.12c0-.07.03-.12.11-.12h4.75c.07 0 .12.08.15.15 1.04 2.53 4.29 4.4 7.37 4.23 1.9-.11 2.8-.7 4.2-1.5a.16.16 0 0 0 .06-.06.15.15 0 0 0-.02-.17.16.16 0 0 0-.08-.05c-1.12-.36-2.24-.77-3.39-1.01-1.02-.22-2-.54-3.02-.76l-1.5-.34c-.29-.07-.55-.22-.81-.28-.49-.12-.48-.21.02-.21h17.29l.03.05a.07.07 0 0 1 .04.05v.03l-.39 1.47c-.02.07-.06.1-.13.1-.36-.04-.7-.15-1.03-.31a.29.29 0 0 0-.18-.03.27.27 0 0 0-.16.1Z" fill="#888A89"/></svg>