<!-- by TradingView --><svg width="56" height="56" viewBox="0 0 56 56" xmlns="http://www.w3.org/2000/svg"><path fill="#F0F3FA" d="M0 0h56v56H0z"/><path d="m25.32 32.79-.81-1.95c-.94-2.23-1.87-4.4-2.48-6.88-.72-2.93 2.18-5.56 4.58-6.34a.5.5 0 0 0 .25-.18c.06-.09.14-.2.14-.3v-6.9c0-.04-.04-.07-.07-.1a.41.41 0 0 1-.04-.04.23.23 0 0 0-.12-.08c-.2-.06-.32.01-.4.2-.62 1.8-2.25 2.98-3.77 4.1-.43.3-.85.61-1.24.93-4.5 3.63-2.15 10.96.4 15.15.7 1.14.85 2.46.46 3.96-.37 1.42-1.66 1.65-2.9 1.52-3.17-.33-1.86-4.85.5-5.43a.48.48 0 0 0 .32-.27.52.52 0 0 0 0-.42 1.23 1.23 0 0 0-1-.8c-2.13-.35-3.8.44-5.02 2.38-2.86 4.6.04 11.86 5.62 11.66 5.3-.21 7.64-5.16 5.58-10.21Zm5.36 0 .81-1.95a45.26 45.26 0 0 0 2.48-6.88c.72-2.93-2.18-5.56-4.58-6.34a.5.5 0 0 1-.25-.18c-.06-.09-.14-.2-.14-.3v-6.9c0-.04.04-.07.07-.1a.41.41 0 0 0 .04-.04.23.23 0 0 1 .12-.08c.2-.06.32.01.4.2.62 1.8 2.25 2.98 3.77 4.1.43.3.85.61 1.24.93 4.5 3.63 2.15 10.96-.4 15.15a4.92 4.92 0 0 0-.46 3.96c.37 1.42 1.66 1.65 2.9 1.52 3.17-.33 1.86-4.85-.5-5.43a.48.48 0 0 1-.32-.27.52.52 0 0 1 0-.42c.18-.45.51-.72 1-.8 2.13-.35 3.8.44 5.02 2.38 2.86 4.6-.04 11.86-5.62 11.66-5.3-.21-7.64-5.16-5.58-10.21Zm-3.34.46c.27.8.58.82.92.04a21.33 21.33 0 0 1 1.67-2.9c.62-.96 1.25-1.93 1.72-3 .84-1.9 1.4-5.88-.57-7.44-2.53-2-7.14-1.28-7.42 2.67-.1 1.52.1 2.83.6 3.92.34.76.72 1.51 1.1 2.26.73 1.46 1.46 2.91 1.98 4.45Z"/></svg>