<!-- by TradingView --><svg width="56" height="56" viewBox="0 0 56 56" xmlns="http://www.w3.org/2000/svg"><path fill="#F0F3FA" d="M0 0h56v56H0z"/><path d="M43.89 12.06h-.02a.46.46 0 0 0-.4.52L45 24.31c.03.25.27.43.52.4h.02a.46.46 0 0 0 .4-.53l-1.53-11.72a.47.47 0 0 0-.52-.4ZM42.37 13.04l-.1.01a.4.4 0 0 0-.35.46l1.56 11.8a.4.4 0 0 0 .46.34l.1-.01a.4.4 0 0 0 .35-.46l-1.56-11.8a.4.4 0 0 0-.46-.34ZM41.05 14.02l-.09.01a.4.4 0 0 0-.35.45l1.56 11.78a.4.4 0 0 0 .46.34h.09a.4.4 0 0 0 .35-.46L41.5 14.37a.4.4 0 0 0-.46-.35ZM39.63 15.23h-.02a.43.43 0 0 0-.37.48l.55 4.06c.03.23.25.4.48.36h.02c.24-.03.4-.25.37-.48l-.54-4.05a.43.43 0 0 0-.49-.37ZM38.64 16.52l.61 4.14c.01.06 0 .14-.05.2l-.32.42a.27.27 0 0 1-.48-.11l-.61-4.4a.26.26 0 0 1 .13-.26l.33-.18a.27.27 0 0 1 .4.2ZM37.07 22.3l-.61-4.37a.25.25 0 0 1 .12-.26l.4-.22a.26.26 0 0 1 .39.2l.5 4.08c0 .05 0 .1-.04.15l-.28.5a.26.26 0 0 1-.27.13.26.26 0 0 1-.2-.21ZM35.37 18.54h-.04a.41.41 0 0 0-.36.47l.58 4.27c.03.22.24.38.47.35h.04a.41.41 0 0 0 .36-.47l-.58-4.27a.41.41 0 0 0-.47-.35ZM34.07 19.83h-.01a.44.44 0 0 0-.38.5l2.3 18.14c.03.24.25.4.5.38a.44.44 0 0 0 .39-.5l-2.3-18.14a.44.44 0 0 0-.5-.38ZM32.72 20.78l-.15.02a.39.39 0 0 0-.33.43l2.34 18.2c.03.2.22.36.44.33l.14-.02a.39.39 0 0 0 .34-.43l-2.35-18.2a.39.39 0 0 0-.43-.33ZM28.55 33.36c-.01-.23-.14-.36-.38-.36H10.8a.32.32 0 0 1-.21-.08.3.3 0 0 1-.1-.2l-1.47-9.93c-.08-.37.08-.79.47-.79H30.8c.1 0 .19.03.26.1.07.05.11.13.13.22l.49 3.4a.24.24 0 0 1-.06.2.25.25 0 0 1-.18.08H14.1a.29.29 0 0 0-.2.09.28.28 0 0 0-.08.2l.16 2.42c0 .08.03.15.09.2.05.05.13.09.2.09h17.58c.18 0 .28.06.3.23.07.48.08.95.15 1.43.5 3.11.95 6.59 1.38 9.75.02.2-.15.6-.35.59H11.55c-.27 0-.4-.13-.4-.4.06-1.26.05-2.05-.04-3.24a.31.31 0 0 1 .2-.32c.04-.01.08-.04.13-.04h17.33c.2 0 .37-.4.36-.6-.08-1.1-.5-1.94-.58-3.04ZM41.09 23.1l.65 4.33a.29.29 0 0 1-.19.31l-.35.13a.3.3 0 0 1-.35-.11.29.29 0 0 1-.04-.12l-.53-4.15a.29.29 0 0 1 .06-.2l.23-.31a.29.29 0 0 1 .52.13ZM39.4 28.87l-.57-4.27a.23.23 0 0 1 .05-.18l.36-.43a.24.24 0 0 1 .25-.08.24.24 0 0 1 .17.2l.65 4.41a.24.24 0 0 1-.1.23l-.43.28a.24.24 0 0 1-.37-.16ZM37.89 24.93h-.03a.42.42 0 0 0-.36.47l.55 4.34c.03.23.24.39.47.36h.03c.23-.03.39-.24.36-.47l-.55-4.34a.42.42 0 0 0-.47-.36ZM36.37 26h-.02a.46.46 0 0 0-.4.5l1.48 11.12c.03.25.26.42.51.39h.02a.46.46 0 0 0 .4-.51l-1.48-11.11a.46.46 0 0 0-.51-.4Z" fill="#1B62AA"/></svg>