<!-- by TradingView --><svg width="56" height="56" viewBox="0 0 56 56" xmlns="http://www.w3.org/2000/svg"><path fill="#F0F3FA" d="M0 0h56v56H0z"/><path d="M5 20v9h3.76c2.1 0 2.44-.28 1.16 2.56-1.28 2.85 4.21.88 6.45.63 2.23-.25 1.73.75 1.2 2.34-.44 1.27.17 1.5.53 1.47H51v-9H24.22c-1.49-.04-1.7.2-1.24-2.3.45-2.51-3.06-.8-5.95-.67-2.88.12-2.28-.95-1.34-2.65l.01-.03c.76-1.37 0-1.35-.66-1.35H5Z" fill="#2E3094"/><path d="M28 19c.36.02.73.1 1.12.18.2.04.41.04.62.03l.04.01.03.03c.07.15.07.32-.08.41-.34.2-.61.46-.8.78-.12.19-.38.42-.56.15a1.9 1.9 0 0 1-.13-.24.83.83 0 0 0-.62-.47c-.24-.04-.68.04-.81.32-.08.17-.13.42.05.54.21.14.48.25.72.32.45.12.89.24 1.32.4.34.14.64.36.88.65.31.38.42.82.32 1.33-.05.25-.18.5-.38.74a2.7 2.7 0 0 1-1.66.8c-.21.02-.54.03-.97.01a2.98 2.98 0 0 1-1.88-.68c-.29-.26-.54-.77-.38-1.17.23-.54.64-.8 1.21-.8.4 0 .77.12 1.1.38.21.17.34.36.27.64 0 .02-.01.03-.03.04a.07.07 0 0 1-.04.02c-.18 0-.33-.11-.47-.21-.17-.12-.36-.1-.54-.05a.24.24 0 0 0-.15.12c-.12.2-.14.46.04.64.5.48 1.22.56 1.84.26.23-.11.42-.29.56-.53.27-.45-.03-.92-.42-1.13-.17-.1-.35-.17-.52-.22l-1.08-.31c-.42-.11-.84-.3-1.1-.67-.36-.53-.3-1.13.04-1.64.18-.27.54-.58.87-.62.3-.04.65-.05 1.05-.05.18 0 .35-.02.54 0ZM46.14 19.73c.06-.13.18-.2.3-.14.14.06.15.31.14.44l-.03.72c0 .15.06.22.2.22.12 0 .23 0 .34.02.19.02.3.19.2.36-.12.23-.4.17-.6.17a.13.13 0 0 0-.1.04.13.13 0 0 0-.04.1l.01 1.94c0 .2.03.37.09.51.08.2.54.1.67.04.06-.02.1 0 .13.05.04.1.05.23-.03.3l-.14.13c-.15.2-.38.27-.6.33-.22.06-.45.05-.68 0-.45-.12-.6-.53-.6-.96v-2.33c0-.04-.02-.08-.06-.1a.5.5 0 0 0-.37-.06c-.08.01-.17-.02-.19-.1-.04-.17.02-.27.17-.33.23-.1.43-.19.6-.3.3-.18.41-.54.51-.87l.08-.18ZM48.8 20.63c.32-.02.57-.29.55-.58-.03-.29-.32-.5-.65-.47-.33.02-.58.28-.56.58.03.29.32.5.65.47ZM32.56 23.16h.05a.7.7 0 0 0 .17-.32c.14-.52.3-1.03.47-1.54.03-.1.1-.15.2-.17.23-.05.4 0 .5.12.16.22.28.55.38.82.16.42.38.83.54 1.26.02.04.05.05.09.03a.31.31 0 0 0 .1-.1c.24-.3.42-.7.39-1.09l-.02-.04a.07.07 0 0 0-.05-.02.28.28 0 0 0-.23.1c-.11.13-.23.14-.37.02-.12-.1-.24-.21-.25-.38-.01-.27.07-.58.32-.71.4-.22 1-.2 1.31.17.4.46.18 1.05-.14 1.48l-.68.94c-.14.22-.25.57-.07.8.07.09.18.21.17.34 0 .08-.05.12-.13.12h-1.33a.26.26 0 0 1-.16-.05.05.05 0 0 1-.02-.04c0-.09.03-.17.1-.25.11-.14.14-.3.06-.5a99.01 99.01 0 0 1-.5-1.16.06.06 0 0 0-.09.01c-.06.11-.1.23-.14.35l-.28.98c-.06.2.1.28.19.43.13.22-.18.25-.3.24a20.1 20.1 0 0 0-1-.02c-.13 0-.33 0-.3-.19.02-.13.17-.14.23-.24.08-.15 0-.35-.06-.5a40.07 40.07 0 0 0-.78-1.76.95.95 0 0 0-.55-.4.06.06 0 0 1-.04-.04c-.02-.1.01-.16.1-.2.26-.1.52-.2.73-.37.11-.09.24-.17.38-.25a.09.09 0 0 1 .12.03l.12.24a70.07 70.07 0 0 1 .77 1.86ZM37.37 22.66c.3-.15.59-.17.9-.23.05 0 .1 0 .14.02l.42.22c.1.06.16.15.17.27.02.17.08.4-.11.5-.23.11-.39-.33-.66-.22a.37.37 0 0 0-.2.22.7.7 0 0 0 .09.66c.13.2.35.21.56.17.27-.06.48-.35.52-.6.03-.15.03-.3.02-.47-.06-.5-.18-.94-.36-1.35-.08-.18-.32-.25-.51-.25a.1.1 0 0 0-.1.08l-.08.47c0 .02-.01.04-.03.04-.22.1-.51.07-.73 0a.74.74 0 0 1-.43-1.03c.06-.14.18-.19.36-.15.24.06.47.15.72.12.58-.08 1.43-.31 1.84.29.14.21.23.4.26.57.13.74.28 1.45.4 2.17.05.24.15.35.33.5.12.1.04.27-.11.27-.36 0-.7 0-1.03-.03-.15 0-.25-.09-.29-.24a.54.54 0 0 0-.04-.1.1.1 0 0 0-.13-.05.1.1 0 0 0-.04.04c-.05.07-.1.15-.19.2-.23.15-.45.23-.67.24a1.7 1.7 0 0 1-1.19-.33c-.38-.28-.49-.74-.42-1.2.05-.35.27-.65.6-.8ZM42.35 23.29c.1 0 .17.04.2.12.05.09.13.14.2.2a.1.1 0 0 1 .02.1c-.04.13-.26.14-.37.16-.1.03-.3.16-.2.3.11.15.27.24.48.26.26.04.51-.03.74-.2.18-.14.16-.48 0-.6-.17-.14-.4-.24-.61-.3-.3-.1-.58-.2-.85-.31-.16-.06-.26-.19-.35-.32-.22-.31-.19-.74-.02-1.07a.98.98 0 0 1 .32-.33c.25-.18.5-.28.75-.3.27-.01.5 0 .71.06.31.1.55.23.9.17a.1.1 0 0 1 .11.07c.06.15-.03.28-.13.38-.13.13-.22.3-.28.53-.02.08-.08.2-.18.2-.3-.02-.23-.3-.4-.43-.23-.17-.66-.31-.78.06-.06.16-.01.28.13.34.25.1.48.18.68.23.5.12 1.12.3 1.23.9.07.42-.04.75-.34 1.01-.6.52-1.52.58-2.25.35a1.47 1.47 0 0 1-.64-.4.84.84 0 0 1-.2-.45.6.6 0 0 1 .08-.4.7.7 0 0 1 .47-.33 1 1 0 0 1 .39-.03l.2.03ZM49.4 25c-.52-.01-1.02 0-1.53-.03a.11.11 0 0 1-.08-.04.12.12 0 0 1-.03-.09c.01-.2.26-.22.32-.42.03-.09.04-.18.04-.27v-1.74c0-.34-.1-.63-.36-.83a.06.06 0 0 1-.02-.05.06.06 0 0 1 .03-.04c.1-.06.2-.1.33-.1.16-.03.3-.06.42-.12.24-.11.38-.27.67-.27a.11.11 0 0 1 .08.03.12.12 0 0 1 .04.09c-.03.97-.04 1.98-.02 2.98 0 .25.05.38.22.53.1.1.14.2.09.32l-.02.03h-.03a.8.8 0 0 1-.15.02Z" fill="#2E3094"/><path d="M20.99 29.11a56.9 56.9 0 0 1 .64 2.52l.02.03.03.01h.03l.02-.03c.08-.13.15-.26.2-.38l.47-1.13c.07-.17.1-.45-.04-.6-.17-.16-.4-.23-.6-.33-.17-.08-.17-.26-.13-.41.15-.52.45-.78.9-.79.5 0 .8.37.83.88.03.42-.04.82-.22 1.18-.09.17-.16.34-.21.53-.09.25-.22.47-.3.73-.05.15-.1.3-.18.45-.09.2-.15.42-.25.62-.14.3-.24.64-.37.95-.09.18-.17.37-.25.57-.04.1-.1.11-.18.06l-.7-.48c-.27-.17-.35-.5-.45-.84a100.2 100.2 0 0 0-.66-2.33c-.08-.34-.18-.67-.5-.83-.17-.1-.15-.35-.12-.52.02-.1.08-.16.19-.16h1.56c.17 0 .22.14.27.3ZM24.18 29.7a.5.5 0 0 0 .42-.57.5.5 0 0 0-.58-.42.5.5 0 0 0-.42.58c.04.27.3.46.58.41ZM24.76 30.2l.02.03a70.22 70.22 0 0 0-.02 2.7c.01.23.13.35.35.35.3 0 .6-.26.61-.64.02-.41.02-.8 0-1.15a.53.53 0 0 0-.18-.41c-.25-.2-.45-.31-.35-.73.02-.1.1-.15.2-.15.38-.02.77-.03 1.15-.03.2 0 .4.02.6.04.08.01.16 0 .22-.04.5-.3 1.13-.22 1.44.35.17.31.2.57.14.93a6.7 6.7 0 0 0-.08 1.57c.02.13.08.22.16.28.1.08.43.37.34.53-.05.1-.13.17-.24.17a19.57 19.57 0 0 0-1.48-.01.14.14 0 0 1-.04-.04.16.16 0 0 1-.03-.05 113.51 113.51 0 0 0-.06-2.47c0-.18-.09-.27-.24-.27-.16 0-.25.1-.25.28v1.31c0 .12.01.25.06.35.1.24.17.5.15.75 0 .09-.05.16-.12.15h-3.72c-.2 0-.3-.25-.28-.49.01-.2.18-.4.31-.53a.4.4 0 0 0 .12-.27c.02-.5.03-.94 0-1.34a.44.44 0 0 0-.13-.3c-.1-.11-.27-.23-.27-.42 0-.11.04-.36.17-.38.37-.06.8-.1 1.28-.14.07 0 .12.03.17.07Z" fill="#FFF501"/><path fill-rule="evenodd" d="M29.4 32.14c-.1.13-.16.26-.18.38-.05.2-.05.41 0 .62.02.09.07.17.14.26l.05.07c.1.12.2.25.33.3.42.19 1.04.4 1.43.02.07-.07.18-.1.27-.04.21.16.44.22.71.2.27-.02.54-.01.81 0h.16c.21 0 .28-.18.26-.37-.01-.13-.07-.2-.18-.24l-.04-.02c-.2-.06-.4-.13-.49-.34a3.41 3.41 0 0 1-.2-.71 8.7 8.7 0 0 0-.2-.92 2.04 2.04 0 0 0-.48-.84 1.86 1.86 0 0 0-.9-.46c-.29-.07-.56-.07-.8.02-.27.1-.52.23-.65.52-.09.19-.1.4-.03.62.01.05.04.1.08.12.27.24.56-.04.78-.25l.07-.07a.47.47 0 0 1 .3-.13c.16 0 .31.3.3.45l-.01.04-.03.02c-.15.1-.34.12-.5.15h-.01c-.25.04-.5.19-.7.33-.1.06-.2.15-.29.27Zm1.6.12a.86.86 0 0 0-.36.66c0 .09.02.16.08.21.19.18.56.34.56-.13 0-.16-.03-.6-.15-.73a.1.1 0 0 0-.14-.02Z" fill="#FFF501"/><path fill-rule="evenodd" d="M36.12 31.2a.37.37 0 0 1-.01-.18c0-.06.02-.06.05-.01.02.05.03.1.02.17a.09.09 0 0 0 .02.07c.06.06.13.11.21.16.17.1.4-.1.61-.28.23-.19.45-.37.58-.2.08.14.28.47 0 .5l-.07.02c-.18.03-.34.05-.52.14-.29.14-.58.3-.79.56-.2.23-.3.61-.2.93.09.27.2.47.36.6.26.2.73.42 1.08.36h.05c.15-.03.32-.05.43-.19.1-.13.25-.13.37-.04.16.13.32.19.5.19h2.65l.14-.02.15-.02c.15 0 .3-.11.3-.28-.01-.26-.2-.33-.37-.4-.11-.04-.22-.08-.23-.18-.03-.17.1-.34.26-.35.2 0 .34.31.4.49.04.09.08.17.14.26.1.12.17.25.25.38.16.24.3.48.52.7.33.32.77.45 1.2.47a6.18 6.18 0 0 0 1.38-.09.08.08 0 0 0 .02-.04l.04-.43c.01-.07-.02-.12-.09-.12-.26-.04-.53-.1-.82-.2a2.13 2.13 0 0 1-.67-.42 7.77 7.77 0 0 1-1.56-1.97c-.05-.09 0-.2.1-.2h.26c.14 0 .24-.07.34-.17.2-.2.37-.4.52-.59a.15.15 0 0 0 0-.17c-.3-.4-.8-.64-1.26-.38a4.03 4.03 0 0 0-.76.55.1.1 0 0 1-.05 0c-.07-.03-.1-.08-.1-.16a33.1 33.1 0 0 0-.14-1.84.13.13 0 0 0-.03-.04.12.12 0 0 0-.09-.03c-.44.06-.87.2-1.3.34l-.08.03c-.15.05-.21.15-.19.3.03.2.15.3.27.4l.09.07c.08.08.13.19.13.33a56.26 56.26 0 0 1-.05 3.05.1.1 0 0 1-.06.04c-.25.06-.52-.03-.64-.3-.1-.23-.16-.46-.2-.71-.04-.3-.1-.6-.18-.88a1.76 1.76 0 0 0-1.75-1.44c-.21-.02-.42.05-.62.13s-.3.22-.4.38l-.08.11c-.07.09-.13.1-.2.01l-.04-.04c-.17-.2-.32-.37-.57-.45-.35-.1-.5.21-.64.48v.02c-.1.2.01.3.12.4l.05.05c.15.15.22.34.18.56-.03.17-.07.33-.12.47-.05.13-.14.18-.26.14a.13.13 0 0 1-.08-.1l-.26-.82-.2-.52-.12-.34c-.05-.14-.15-.22-.3-.22-.3-.02-.66-.01-1.1.01-.31.02-.23.42-.07.56.21.18.36.4.45.67l.01.04c.17.52.34 1.05.54 1.56.07.16.13.34.19.54.04.14.08.33-.06.41-.19.12-.4.17-.61.22l-.21.06a.16.16 0 0 0-.1.07c-.1.18-.19.42-.23.72v.01c-.02.07-.03.15.03.2.06.03.11.05.17.06.58.1 1.08-.17 1.47-.63.14-.17.25-.32.33-.45a23.45 23.45 0 0 0 1-1.89 9.74 9.74 0 0 0 .5-1.2Zm1.96 1.9a4.42 4.42 0 0 0-.11-.8.12.12 0 0 0-.05-.03.1.1 0 0 0-.1 0c-.25.15-.37.39-.36.72.02.32.63.5.62.1Z" fill="#FFF501"/><path fill-rule="evenodd" d="M43.95 32.69c0 .54.2.9.63 1.1.11.05.26.1.46.16a1 1 0 0 0 .89-.12.15.15 0 0 0 .07-.1.1.1 0 0 1 .02-.04.1.1 0 0 1 .03-.03.1.1 0 0 1 .1 0l.14.13c.08.09.16.17.29.17l1.48-.02a.1.1 0 0 0 .07-.03.12.12 0 0 0 .04-.07c.02-.14.01-.28-.03-.42a.12.12 0 0 0-.03-.06.1.1 0 0 0-.05-.03c-.3-.05-.55-.1-.67-.44a14.98 14.98 0 0 1-.25-1.12c-.04-.26-.1-.49-.18-.69-.39-.9-1.28-1.22-2.14-1.02a.78.78 0 0 0-.47.3c-.2.27-.3.52-.17.85.17.43.6.13.8-.1.14-.18.3-.28.53-.22.13.04.16.32.16.43 0 .02 0 .04-.02.06a35.01 35.01 0 0 1-.13.06c-.32.1-.67.19-.95.36-.33.2-.62.46-.62.89Zm1.65.55c.24.1.53.06.46-.32l-.08-.5-.05-.14a.05.05 0 0 0-.05-.03c-.06 0-.13 0-.19.05-.22.18-.31.42-.26.73.02.1.07.17.17.2Z" fill="#FFF501"/></svg>