<!-- by TradingView --><svg width="56" height="56" viewBox="0 0 56 56" xmlns="http://www.w3.org/2000/svg"><path fill="#F0F3FA" d="M0 0h56v56H0z"/><path d="M31.94 22h-7.88c-1.14 0-2.06.92-2.06 2.06v7.88c0 1.14.92 2.06 2.06 2.06h7.88c1.14 0 2.06-.92 2.06-2.06v-7.88c0-1.14-.92-2.06-2.06-2.06Z" fill="#4C7AEC"/><path d="M15.44 44h18.24a3.41 3.41 0 0 0 3.18-2.14A3.54 3.54 0 0 0 33.68 37H22.32C20.35 37 19 35.48 19 33.59V22.42c0-.46-.21-.91-.38-1.33a3.47 3.47 0 0 0-3.18-2.14c-.91 0-1.79.36-2.43 1.01-.65.65-1.01 1.54-1.01 2.46v18.1a3.5 3.5 0 0 0 2.12 3.21c.42.18.87.27 1.32.27Zm25.12-32H22.32a3.49 3.49 0 0 0-3.44 3.47A3.57 3.57 0 0 0 22.32 19h11.36A3.34 3.34 0 0 1 37 22.41v11.17a3.6 3.6 0 0 0 3.56 3.48A3.5 3.5 0 0 0 44 33.58v-18.1A3.42 3.42 0 0 0 40.56 12Z" fill="#41D7E4"/></svg>