<!-- by TradingView --><svg width="56" height="56" viewBox="0 0 56 56" xmlns="http://www.w3.org/2000/svg"><path fill="#F0F3FA" d="M0 0h56v56H0z"/><path fill-rule="evenodd" d="m37.4 28.45-.01.03c-.14.16-.17.56-.2.87l-.02.25c-.06.42.1.83.6.77.28-.03.54 0 .8.04.22.03.45.06.69.05.4-.02.84-.02 1.3 0a.32.32 0 0 0 .3-.18.3.3 0 0 0 .03-.13l.03-1.65a.3.3 0 0 1 .25-.3.5.5 0 0 0 .43-.42 1 1 0 0 1 .58-.77c.06-.03.1-.08.13-.14.12-.35.12-.7 0-1.04a.32.32 0 0 0-.34-.21l-.44.04a.24.24 0 0 1-.26-.17.24.24 0 0 1 0-.11c.12-.56.2-1.1-.05-1.64a6.82 6.82 0 0 1-.38-.96c-.24-.81-1.46-1.52-2.18-1.8a.24.24 0 0 1-.15-.28c.12-.55.13-1.13.06-1.74-.22-1.66-1.73-2.26-3.17-2.66a.14.14 0 0 1-.11-.13 9.74 9.74 0 0 0-.07-.57c-.15-1.07-1.28-1.97-2.24-2.34-.55-.22-1.12-.43-1.7-.62a9.77 9.77 0 0 1-2.92-1.57.3.3 0 0 0-.4.01c-.4.38-.9.65-1.46.82-.38.12-.76.21-1.15.3-.55.14-1.1.28-1.64.48-.88.32-1.5.87-2.07 1.56-.4.5-.6 1.09-.59 1.79 0 .06-.02.12-.06.17a.25.25 0 0 1-.17.08c-.97.07-1.71.49-2.22 1.26-.16.24-.31.49-.46.75-.37.66-.33 1.48-.18 2.2.02.12-.03.2-.16.23-.58.13-1.12.4-1.6.83-.37.32-.68.81-.9 1.47-.22.6-.27 1.25-.17 1.93a.4.4 0 0 1-.07.3.4.4 0 0 1-.26.15l-.77.13a.2.2 0 0 0-.16.15c-.08.32-.1.63-.06.95a.41.41 0 0 0 .3.36c.5.13.62.26.8.72.05.14.13.25.22.35.12.16.24.3.25.56 0 .38-.02.76-.08 1.15-.03.3.09.46.37.49 1.1.1 2.08.08 2.97-.07.19-.03.29-.14.3-.33.05-.5.04-.97-.03-1.41 0-.06 0-.12.04-.18.03-.05.08-.09.14-.1l.5-.17a.2.2 0 0 0 .13-.17l.07-.58a.3.3 0 0 1 .12-.2l.45-.35a.25.25 0 0 0 .1-.2c.01-.29-.03-.58-.12-.85a.2.2 0 0 0-.16-.13l-.95-.08a.21.21 0 0 1-.14-.07.2.2 0 0 1-.06-.14c-.01-.79.25-1.45.78-2 .38-.38.98-.42 1.5-.41a.12.12 0 0 0 .08-.04.12.12 0 0 0 .04-.08l-.03-1.07a2.27 2.27 0 0 1 1.96-2.45c.3-.05.6-.11.9-.2.09-.03.17-.1.22-.18a.38.38 0 0 0 .04-.28 2 2 0 0 1 .16-1.45 5.21 5.21 0 0 1 1.97-2.16c.47-.28.95-.59 1.43-.92a.36.36 0 0 1 .42 0c.58.41 1.16.86 1.73 1.34 1.03.86 1.33 1.8 1.34 3.09a.4.4 0 0 0 .27.38c.05.02.1.03.17.02.49-.03.96 0 1.42.1.3.06.6.25.89.57.95 1.03 1.06 2.09.34 3.17a.18.18 0 0 0 0 .17.18.18 0 0 0 .15.1h.37c.36-.02.74-.03 1.03.16.78.52.98 1.3 1.2 2.12l.03.14a.07.07 0 0 1-.01.06.07.07 0 0 1-.06.03c-.97-.03-1.49.03-1.6 1.13-.05.38.17.5.42.64l.19.11c.07.05.1.12.1.2 0 .16.02.3.07.45.03.07.08.12.15.15l.66.25a.07.07 0 0 1 .04.08ZM21.72 16.23l-.04.47a.18.18 0 0 1-.13.16l-.53.14c-.3.07-.6.14-.89.28-1 .5-1.48 1.34-1.47 2.51 0 .36.1.64.2.98v.04a.37.37 0 0 1-.14.4.38.38 0 0 1-.14.07c-1.7.35-2.59 1.32-2.69 2.93-.02.27 0 .53.04.78.04.27.2.41.48.42l1.05.02c.18 0 .26-.08.25-.26l-.03-.33c-.04-.52-.1-1.12.11-1.51.58-1.11 1.3-1.28 2.45-1.5a.16.16 0 0 0 .1-.07.15.15 0 0 0 .02-.13c-.36-.99-.37-1.9.33-2.76.54-.67 1.3-1 2.3-1a.26.26 0 0 0 .24-.17.25.25 0 0 0 .01-.1c-.13-1.66 1.36-3.07 2.79-3.62.68-.27 1.34-.6 1.97-1a.3.3 0 0 1 .32 0c.67.4 1.36.77 2.06 1.13a4.42 4.42 0 0 1 2.3 2.83c.06.23.09.48.07.74a.16.16 0 0 0 .17.17 4.3 4.3 0 0 1 1.7.3c1.24.48 1.82 1.37 1.75 2.64a2 2 0 0 1-.22.71 5.22 5.22 0 0 0-.12.36.18.18 0 0 0 .17.16c.71.04 1.46.2 1.92.79.68.84.86 1.56.55 2.51-.06.2.01.3.23.29.42-.04.85-.05 1.27-.02.22 0 .33-.1.3-.32l-.02-.45a4.73 4.73 0 0 0-.17-1.24c-.41-1.26-1.41-1.73-2.6-2.1a.26.26 0 0 1-.2-.25c0-.04.02-.07.03-.1.23-.49.34-1.01.32-1.58-.05-1.28-1.24-2.25-2.51-2.34l-.73-.05a.26.26 0 0 1-.2-.13.25.25 0 0 1-.01-.22v-.03c.1-.22.2-.46.11-.7-.28-.76-.75-1.52-1.5-1.87a59.35 59.35 0 0 0-3.25-1.4 8.04 8.04 0 0 1-1.48-.77.37.37 0 0 0-.4 0c-.7.47-1.55.69-2.38.9-.38.1-.76.2-1.13.32-.9.31-2.11 1.08-2.48 1.99-.12.3-.14.64-.16.98Zm-7.17 9.82a.08.08 0 0 1 .02-.06l.03-.02h.03l4.83.11c.03 0 .07 0 .1.02.04.01.07.03.09.05l.06.08a.2.2 0 0 1 .02.1v.01c0 .07-.04.13-.09.17a.3.3 0 0 1-.2.06l-4.82-.11a.09.09 0 0 1-.08-.06v-.35Zm22.2.12 4.64.12c.12 0 .22.1.22.23v.02c0 .12-.1.22-.23.21l-4.65-.12a.22.22 0 0 1-.22-.22v-.02c0-.12.11-.22.23-.22ZM19.06 27.4c-.16.28-.54.36-.85.29a7.03 7.03 0 0 0-2.33-.15.32.32 0 0 1-.32-.15c-.04-.07-.03-.13.02-.2a.16.16 0 0 1 .12-.05l3.17-.05a.22.22 0 0 1 .19.1.21.21 0 0 1 0 .21Zm21.82-.13-.02-.01h-3.7l-.01.03v.02c0 .1.02.2.06.27.04.07.1.11.15.11h3.32c.05 0 .1-.04.15-.11a.56.56 0 0 0 .06-.27v-.04Zm-24.62.9 1.33-.04a.25.25 0 0 1 .17.07.24.24 0 0 1 .08.17l-.01 1.13c0 .06-.03.12-.07.17a.25.25 0 0 1-.17.07l-1.41.02a.25.25 0 0 1-.24-.16.24.24 0 0 1 0-.1l.08-1.12a.24.24 0 0 1 .24-.22Zm22.3.02 1.44.03c.12 0 .22.1.22.23l-.03 1.15c0 .12-.1.22-.23.21l-1.44-.03a.22.22 0 0 1-.22-.23l.03-1.14c0-.13.1-.22.23-.22ZM34.2 36.23v-3.26c-.02-.07.01-.1.09-.07.17.05.31.14.42.27l4.6 4.82h.08a.2.2 0 0 0 .09-.02c.38-.22.36-.52.34-.83V32.95c-.04-.52.14-1.07.53-1.64a.2.2 0 0 0-.05-.29.21.21 0 0 0-.1-.04c-.72-.05-1.4-.06-2.06-.03a.26.26 0 0 0-.24.17.25.25 0 0 0 .08.28c.49.44 1.04 1.09 1.03 1.8L39 34.79c0 .14-.04.24-.17.31-.06.04-.12.03-.16-.03l-3.39-3.88a.74.74 0 0 0-.61-.34l-.16-.01c-.48-.02-1.32-.07-1.62.1a.17.17 0 0 0-.08.13.17.17 0 0 0 .04.13c.51.55.61 1.08.61 1.7v3.16c.02.37-.04.71-.2 1.01a.27.27 0 0 1-.14.13c-.33.13-.6.11-.83-.06-.4-.3-.76-.7-1-1.15-.06-.11-.13-.29-.2-.47a3.17 3.17 0 0 0-.4-.87.2.2 0 0 1 .02-.16.2.2 0 0 1 .05-.06l.11-.08c.9-.64 1.62-1.15 1.08-2.48a1.35 1.35 0 0 0-.75-.72c-.8-.35-1.59-.33-2.39-.3-.42 0-.85.02-1.3-.03a4.21 4.21 0 0 0-.86.03.16.16 0 0 0-.04.21c.22.35.23.72.22 1.09v4.07a4 4 0 0 1-.17 1.02c-.02.05-.27.1-.38.13h-.04l-2.78-6.55a.34.34 0 0 0-.32-.25c-.18 0-.31.06-.38.2l-3.5 6.82a.19.19 0 0 0 .06.32l.05.02c.1.04.2.08.3.08h1.88c.18 0 .3-.13.27-.3a.2.2 0 0 0-.12-.15c-.2-.1-.4-.22-.59-.35-.53-.35-.1-.88.2-1.23l.08-.1a.24.24 0 0 1 .17-.08l1.6-.1a.32.32 0 0 1 .3.2l.04.1c.16.32.39.82.28 1.14-.05.16-.12.32-.19.49a.23.23 0 0 0 .03.22l.08.08a.2.2 0 0 1 .05.03c.02.03.05.05.07.05h5.06c.33.02.5-.21.28-.45a1.37 1.37 0 0 0-.38-.3.32.32 0 0 1-.17-.26 18.5 18.5 0 0 1 .04-2.17c.05-.48.17-.5.36-.05.1.26.2.67.29 1.04.05.23.1.45.15.6.21.68.9 1.59 1.78 1.59h3.54c.17 0 .41 0 .51-.15a.24.24 0 0 0-.1-.35c-.56-.25-1.06-.54-.99-1.27Zm-6.6-4.79h.27c.08 0 .14.06.14.14l-.03 5.14c0 .07-.06.13-.14.13h-.26a.14.14 0 0 1-.14-.13l.03-5.15c0-.07.06-.13.14-.13Zm1.14.18a.1.1 0 0 1 .03-.06.1.1 0 0 1 .07-.03h.08c.17 0 .33.04.48.1.15.06.29.14.4.25.11.1.2.23.26.36.06.13.09.27.08.42v.03c0 .14-.04.28-.1.4a1.28 1.28 0 0 1-.7.56c-.16.06-.32.08-.49.08h-.08a.1.1 0 0 1-.07-.04.1.1 0 0 1-.02-.06l.06-2Zm5.24.02.23-.22a.05.05 0 0 1 .07 0l4.86 5c.02.02.02.05 0 .06l-.23.22a.05.05 0 0 1-.07 0l-4.86-5a.05.05 0 0 1 0-.06Zm-3.62.13c-.12-.18-.09-.21.1-.1.4.22.95.68.78 1.17-.13.37-.35.67-.65.9-.18.12-.24.08-.18-.13l.06-.2c.2-.58.32-1-.11-1.64Zm-7.53 1.02c.5 1.07.97 2.08 1.38 3.03a2.49 2.49 0 0 1 .23.91.15.15 0 0 0 .08.08h.06l.54-.03a.06.06 0 0 0 .05-.03v-.04s0-.02-.02-.02a3.42 3.42 0 0 0-.1-.1c-.13-.12-.26-.23-.32-.4a69.06 69.06 0 0 0-1.62-4.08.21.21 0 0 0-.08-.04c-.14-.05-.23-.03-.25.05a.97.97 0 0 0 .05.67Zm0 .96.3.66a.25.25 0 0 1-.2.35l-.73.09a.25.25 0 0 1-.23-.1.24.24 0 0 1-.04-.23l.13-.37a.25.25 0 0 1 .04-.07l.31-.39a.25.25 0 0 1 .23-.09.25.25 0 0 1 .2.15Zm8.61 3.15c.06-.01.06-.03 0-.05-.58-.2-1.06-.93-1.44-2.18a.63.63 0 0 0-.25-.33.33.33 0 0 0-.1-.05c-.12-.03-.18.01-.15.14.16.85.72 2.72 1.94 2.47Z" fill="#388DF6"/><path fill-rule="evenodd" d="m16.22 33.32-.8 1.9c-.03.08-.05.08-.07 0-.11-.52-.26-1.04-.4-1.56a24.1 24.1 0 0 1-.52-2.08c-.04-.21.03-.39.1-.57l.04-.09a.13.13 0 0 0-.06-.16 1.74 1.74 0 0 0-2.5.01.2.2 0 0 1-.25-.16c-.05-.27-.06-.54-.05-.82a459.76 459.76 0 0 1 .12-2.2.22.22 0 0 0-.22-.15c-.51 0-1.03-.01-1.54-.06a6.22 6.22 0 0 0-1.08 0c-1 .08-1.71.33-2.3 1.23-.34.5-.5.99-.51 1.46-.02 1.68 1.3 2.37 2.6 3.05l.25.13c1.17.62 1.9 1.5 1.13 2.88-.33.6-1.33.52-1.9.44-.74-.1-1.44-1.4-1.7-1.98a.3.3 0 0 0-.14-.14c-.21-.11-.42.05-.42.28 0 .17.03.33.07.49.03.18.07.36.06.55a105.33 105.33 0 0 1-.1 1.72.12.12 0 0 0 .08.07h.06c.22-.04.38-.13.54-.22.25-.14.48-.27.86-.15.6.2 1.2.32 1.8.37 1.17.08 1.83-.34 2.5-1.14.14-.15.23-.34.28-.55.34-1.32.15-2.77-.9-3.66l-.32-.27c-.37-.33-.74-.65-1.2-.88-.63-.3-2.4-1.18-1.86-2.17.3-.57.76-.85 1.35-.83.3.02.58.13.8.34.69.63 1 1.34 1.27 2.17.1.33.32.48.64.46.06 0 .1 0 .15.04.24.16.4.36.5.6l.76 2.05c.5 1.4 1.01 2.8 1.63 4.16H15c.02 0 .03-.02.03-.03l1.42-3.65.02-.03a.07.07 0 0 1 .1 0c.09.1.15.2.2.32.3.78 1.2 3.51 1.2 3.51s2.45-6.27 2.88-6.9a.2.2 0 0 0-.07-.3.21.21 0 0 0-.11-.02h-1.4c-.28 0-.38.13-.3.39.04.16.1.3.17.42.14.24.25.45.13.85-.12.38-.26.75-.4 1.12l-.39 1.11c-.04.12-.05.12-.05 0 0-.25-.03-.47-.1-.69-.2-.67-.5-1.41-.85-2.22a.41.41 0 0 1 .05-.43l.18-.24a.21.21 0 0 0-.08-.31.22.22 0 0 0-.12-.03c-.47.05-.97.03-1.52-.06-.2-.03-.38-.02-.57.02a.18.18 0 0 0-.13.12.18.18 0 0 0 .04.17c.4.4.62 1.08.81 1.64l.08.23c.05.15.05.3-.01.45Zm-5.63-5.22.13.34.02.03.48.45a.1.1 0 0 0 .15-.03.1.1 0 0 0 .01-.06l-.13-.7a.1.1 0 0 0-.08-.09l-.47-.08a.1.1 0 0 0-.1.04.1.1 0 0 0-.01.1Zm-3.4 1.06c-.55 1.08 1.55 2.3 2.29 2.65a4.2 4.2 0 0 1 1.86 1.73c.4.94.36 1.8-.15 2.6a.93.93 0 0 1-.46.4c-.23.08-.28.02-.14-.18 1.2-1.71-.46-3.16-1.96-3.9-.9-.44-1.96-1.43-1.97-2.52 0-.27.14-.5.28-.73l.1-.17c.03-.04.06-.05.1-.03.04 0 .06.04.06.1l-.01.05Zm8.87 2.1.01.07c.04.1.1.19.16.28.08.12.14.24.18.38a38.99 38.99 0 0 0 1.52 3.98.06.06 0 0 0 .09-.03c.08-.2.09-.42.02-.64-.23-.78-.5-1.56-.82-2.32a9.78 9.78 0 0 1-.43-1.28c-.08-.27-.28-.53-.59-.55a.13.13 0 0 0-.12.05.13.13 0 0 0-.02.06Zm-3.07-.02c.21 0 .4.09.57.25.16.14.2.4.26.66.02.13.05.26.09.38.24.69.5 1.43.75 2.2.14.45.2.9.27 1.37l.02.14c.02.16-.03.2-.16.09a.43.43 0 0 1-.14-.2c-.11-.35-.23-.67-.36-1-.17-.47-.35-.93-.48-1.42a39.4 39.4 0 0 0-.55-1.89 1.5 1.5 0 0 0-.28-.45l-.03-.04a.05.05 0 0 1 .01-.08l.03-.01Zm-5.83 5.28c.05-.04.06-.09.01-.14l-.34-.41a.1.1 0 0 0-.14 0 .1.1 0 0 0-.03.04 1.2 1.2 0 0 0 0 .6c.02.06.06.08.11.07a.87.87 0 0 0 .39-.16ZM43.3 34.4a.14.14 0 0 1 .1-.02c.56.05 1.13.06 1.71.04.89-.04 1.14 1.27 1.12 1.94-.01.44-.28.65-.58.88l-.13.1a.33.33 0 0 0 .14.59c.23.04.48.08.73.07h3.04c.25 0 .4-.08.52-.25a.28.28 0 0 0 0-.34.28.28 0 0 0-.1-.07c-.28-.16-.5-.38-.67-.66l-3.73-8.75a.36.36 0 0 0-.32-.2.36.36 0 0 0-.32.2l-4 8.7c-.16.24-.38.4-.6.56l-.16.11a.23.23 0 0 0-.06.28c.08.18.22.42.41.42h2.26c.24.02.43-.12.6-.3.12-.13.1-.25-.04-.36l-.6-.48a.45.45 0 0 1-.14-.52l.77-1.86a.15.15 0 0 1 .06-.07Zm4.75 2.2a73.85 73.85 0 0 0-2.91-7.32c-.1-.24-.22-.24-.33 0l-.22.48a.56.56 0 0 0 .02.54c.52.93.92 1.86 1.2 2.8.1.36.25.71.43 1.04.23.4.43.81.6 1.24.17.42.16.85.15 1.28v.24c0 .09.03.13.12.14l1.3.18c.11.01.12-.01.02-.07-.16-.1-.28-.35-.38-.54ZM45 33.07l-.95-.1a.16.16 0 0 1-.12-.08.17.17 0 0 1 0-.15l.44-1a.16.16 0 0 1 .15-.1.16.16 0 0 1 .15.1l.5 1.1a.16.16 0 0 1-.17.23Zm-3.57 4.1.44-.04a.08.08 0 0 0 .07-.12l-.17-.31a.08.08 0 0 0-.07-.04h-.04a.08.08 0 0 0-.03.03l-.28.35a.09.09 0 0 0 0 .1.08.08 0 0 0 .08.04Z" fill="#388DF6"/></svg>