<!-- by TradingView --><svg width="56" height="56" viewBox="0 0 56 56" xmlns="http://www.w3.org/2000/svg"><path fill="#F0F3FA" d="M0 0h56v56H0z"/><path d="M28.24 9 41 21.75V43h-5v-2h3V22.55L28.21 11.68 17 22.56V41h3v2h-5V21.74L28.24 9Z" fill="#DD0001"/><path fill="#DD0001" fill-opacity=".6" d="M22 41h12v2H22z"/><ellipse cx="30.49" cy="23.89" rx="2.28" ry="2.32" fill="#DD0001"/><path d="M18.61 37.6c0 .87.86 1.05 1.3 1.03h4.07c-.09-1.18.38-1.63.62-1.7 1.84 0 2.68-.86 2.35-2.11-.34-1.25-.56-5.92.84-6.49 1.11-.45.46-1.85 0-2.5-1.8-4.72 3.07-6.26 4.53-6.03 1.45.23 2.34-.68 1.11-1.25-.98-.46-2.98-.57-3.85-.57-7.83 1.3-6.32 8.2-5.93 12.17.39 3.99-.56 6.15-1.9 6.78-1.35.62-3.14-.4-3.14.68Z" fill="#DD0001"/><path d="M26.67 37.6c-1.43 1-.41 1.3.28 1.32 5.63.82 7.71.15 8.05-.29 2.15-2.14.9-2.37 0-2.22-2.9 2.34-5.42.23-4.75 0 .67-.22 1.06-3.13.39-4.1-.67-.96-.67-2.55 0-2.95.67-.4 2.8-2.05 0-1.7-2.8.33-2.85 2.95-2.85 5.62 0 2.68.67 3.08-1.12 4.33Z" fill="#DD0001"/></svg>