<!-- by TradingView --><svg width="56" height="56" viewBox="0 0 56 56" xmlns="http://www.w3.org/2000/svg"><path fill="#F0F3FA" d="M0 0h56v56H0z"/><path d="M28.04 23h-.7c-.19 0-.34.13-.34.3v8.4c0 .17.15.3.34.3h.7c.2 0 .35-.13.35-.3v-8.4c0-.17-.16-.3-.35-.3ZM11.7 28.34a92.62 92.62 0 0 1-4.11-1.17 2.46 2.46 0 0 1-1.2-.8A1.77 1.77 0 0 1 6 25.11c.04-.91.56-1.5 1.56-1.75 1.5-.38 3.11-.46 4.84-.25 1.52.2 2.27 1.02 2.26 2.48 0 .27-.14.4-.42.4h-.56c-.23 0-.33-.12-.31-.34.16-2.34-3.33-1.88-4.7-1.64-.51.09-.93.3-1.24.65a.63.63 0 0 0-.08.75c.23.4.58.67 1.06.83 1.26.42 2.61.81 4.05 1.18 1.47.38 2.8 1.67 1.92 3.25-.81 1.45-3.64 1.36-5.12 1.3h-.13c-1.7-.05-3.26-.76-2.89-2.75.02-.1.08-.18.19-.2a1 1 0 0 1 .83.07c.06.04.11.11.14.19l.06.34c.05.29.1.57.29.81.36.47.82.72 1.38.76.84.06 1.67.02 2.5-.12.85-.14 2.1-.85 1.45-1.85a2.23 2.23 0 0 0-1.38-.88Zm31.63 3.23v-2.72c-.01-.88.65-1.89 1.54-2.13a4.1 4.1 0 0 1 2.8.13c.52.23.98.77 1 1.31v3.3c0 .23.1.52.5.54h.4c.24-.02.42-.39.43-.55v-3.28a2 2 0 0 0-.66-1.52c-1.23-1.16-3.63-1.16-5.11-.7-.22.06-.7.24-.7.24a.26.26 0 0 1-.12-.1.23.23 0 0 1-.04-.12v-2.6c0-.25-.18-.37-.46-.37h-.36c-.27 0-.53.13-.55.38v8.28c.03.24.24.35.5.34l.36-.02c.24-.02.45-.18.47-.4Zm-10.9-4.9c.25-.02.44-.11.62-.2.14-.08.28-.14.44-.18 1.95-.47 5.12-.5 6.4 1.24.42.58.55 1.27.38 2.08-.23 1.11-1.24 1.81-2.34 2.1a8.28 8.28 0 0 1-5.52-.37c-.02 0-.05.01-.07.03a.14.14 0 0 0-.05.05.13.13 0 0 0-.02.06v3.16c0 .08-.03.18-.1.24a.4.4 0 0 1-.24.12h-.47c-.17 0-.46-.12-.46-.3V26.5c0-.1.03-.19.09-.27a.5.5 0 0 1 .22-.17c.2-.08.47-.06.83.03.08.02.12.07.13.15l.02.33c0 .08.05.12.14.11Zm6.68 2.31c-.01-.58-.38-1.13-1.03-1.53a4.56 4.56 0 0 0-2.43-.6c-.9.01-1.77.26-2.4.68-.64.43-.99 1-.97 1.58 0 .58.38 1.13 1.03 1.53.65.4 1.52.62 2.43.6.9-.02 1.77-.26 2.4-.69.63-.42.98-.98.97-1.57Zm-16.66 2.78.28-.16a.27.27 0 0 1 .4.32c-.31.9-.95 1.76-1.9 2a5.91 5.91 0 0 1-3.51-.2c-.46-.17-.79-.05-1 .35a.26.26 0 0 0 .04.3l.08.05c1.44.67 3.98.8 5.46.19 1.05-.43 1.98-1.48 1.99-2.68v-5.5c0-.31-.1-.45-.42-.43h-.35c-.25.02-.5.18-.52.43v2.52c.05 1.03-.25 1.67-1.26 2-1.44.48-3.73.1-3.74-1.8v-2.58c0-.36-.15-.55-.51-.55h-.14c-.4 0-.59.19-.58.58 0 .31 0 .65-.02 1-.04 1.06-.08 2.22.41 3 1 1.6 3.24 1.52 4.92 1.28.13-.01.25-.06.37-.12Z" fill="url(#arp1y5c1p)"/><defs><linearGradient id="arp1y5c1p" x1="26.96" y1="23" x2="25.64" y2="34.86" gradientUnits="userSpaceOnUse"><stop stop-color="#062967"/><stop offset=".4" stop-color="#1970F7"/><stop offset="1" stop-color="#062967"/></linearGradient></defs></svg>