<!-- by TradingView --><svg width="56" height="56" viewBox="0 0 56 56" xmlns="http://www.w3.org/2000/svg"><path fill="#F0F3FA" d="M0 0h56v56H0z"/><path d="M44.03 33.7a44.17 44.17 0 0 1-6.17 4.98c-.5.32-1.15.56-1.94.7a.47.47 0 0 1-.33-.07c-.14-.08-.2-.16-.16-.23.05-.09.1-.16.2-.2 3.66-2.12 6.56-4.82 8.13-9.02.03-.08.01-.14-.06-.18l-.14-.08c-.02-.01-.03 0-.05.01a23.6 23.6 0 0 1-4.8 5.95c-.62.56-1.29.97-1.99 1.22-.39.14-.45.04-.17-.28 2.83-3.35 5.51-5.91 7.19-10.2.03-.07 0-.13-.07-.17v-.01c-.08-.04-.14-.02-.18.05a40.56 40.56 0 0 1-5.8 7.7c-.15.16-.3.18-.49.09l-.15-.08c-.08-.04-.1-.1-.04-.19 2.38-3.22 4-6.7 4.9-10.46.1-.44.02-.48-.25-.13-.61.83-.85 1.85-1.32 2.79-.8 1.6-1.7 3.2-2.68 4.76-.04.07-.09.08-.14.01a.53.53 0 0 1-.04-.44c1.04-2.58 1.72-5.3 2.03-8.17.01-.1-.03-.17-.13-.2l-.17-.03c-.02 0-.04 0-.04.03-.5 2.26-1.2 4.3-2.11 6.09-.54 1.05-.7.99-.5-.18.33-1.95.88-4.27.3-6.16-.14-.48-.24-.47-.3.03l-.3 2.91c-.17 1.52-.39 1.53-.65.03a7.5 7.5 0 0 0-1.68-3.23c-.06-.07-.12-.08-.18-.01l-.13.11a.1.1 0 0 0 0 .14 5.95 5.95 0 0 1 1.34 3.2c.06.6-.07.66-.4.16-.73-1.11-1.6-2.1-2.6-2.96-.07-.06-.14-.06-.2.01l-.12.12c-.02.02-.02.05 0 .08 2.74 2.95 4.35 6.1 4.84 9.47.6 4.2-.54 9.24-4.13 11.69-.59-.06-1 .41-1.58.65l-6.94-.16c.35.04.63.01.83-.08.23-.1.25-.23.08-.41-.17-.18-.4-.3-.68-.36a9.9 9.9 0 0 1-2.79-2.87 5.1 5.1 0 0 1-.63-1.31 8.02 8.02 0 0 0-.67-1.57.75.75 0 0 0-.4-.34c-2.6-.92-4.92-3.9-6.52-6.22-.83-1.2-.96-1.13-.39.23 1.48 3.52 4.37 5.97 7.52 7.9.13.08.2.2.21.37 0 .04 0 .08-.02.12a.26.26 0 0 1-.07.1.24.24 0 0 1-.23.04 11.07 11.07 0 0 1-3.58-1.97 66.84 66.84 0 0 0-4.4-3.35c-1.45-4.18-1.55-9.27.28-13.24 2.03-4.42 5.26-7.37 9.68-8.84.29-.1.5 0 .65.27.7 1.33 1.31 2.76 1.83 4.31 1.36 4.05.61 8.9-.94 12.75-1.77 4.36-4.67 9.02.24 12.5 3.93 2.78 11.2.65 10.98-5.17-.06-1.57-.48-3.11-1.27-4.64a26.58 26.58 0 0 1-2.67-8.84c-.51-3.84.6-7.76 2.51-11.03.05-.08.11-.13.2-.16a.37.37 0 0 1 .24-.01c8.87 2.79 13.27 12.35 10.2 21.67Z" fill="#043D54"/><path d="M18.45 30.27c-.65-2.01-1.24-3.99-1.74-5.93-.19-.7-.23-1.4-.13-2.1.07-.43.16-.44.27-.01.59 2.22 1.34 4.3 2.26 6.25.05.09.11.13.2.14.25 0 .34-.12.27-.37-.52-2.01-.99-4.24-.7-6.3.18-1.4.38-1.4.58 0 .14.99.28 2.01.41 3.06.08.57.18.57.32.02.43-1.7 1.06-2.94 1.9-3.7.36-.32.42-.27.2.17l-1.4 2.77a.79.79 0 0 0 .04.77l.1.15.07.06a.17.17 0 0 0 .18 0A9.47 9.47 0 0 1 24.01 22c.06-.05.12-.05.18 0l.1.13c.02.02.02.03 0 .05-3.14 3.37-5.9 8.82-4.55 13.7.23.83.06.94-.51.32-2.77-2.98-5.03-5.48-6.85-9.48a.44.44 0 0 1-.03-.24.28.28 0 0 1 .08-.16.13.13 0 0 1 .04-.03h.06a.11.11 0 0 1 .08.06 36.27 36.27 0 0 0 5.84 7.64c.06.06.13.06.19 0l.15-.15a.32.32 0 0 0 .03-.4 26.56 26.56 0 0 1-4.77-10.48c0-.03 0-.04.02-.05l.17-.05c.08-.02.13 0 .15.08a29.8 29.8 0 0 0 3.85 7.44c.31.43.38.4.21-.11ZM44.03 33.7c-.13.51-.4.99-.79 1.41a34.62 34.62 0 0 1-5.72 4.9c-1.16.75-1.08.93.24.53 1.08-.33 2.26-1 3.53-2 .36-.2.65-.32.89-.35.25-.04.28.03.09.2a30.84 30.84 0 0 1-7.97 4.94l-3.57.66c3.58-2.44 6.36-8.14 5.75-12.33-.49-3.37-2.1-6.52-4.84-9.47-.02-.03-.02-.06 0-.08l.11-.12c.07-.07.14-.07.22-.01 1 .86 1.86 1.85 2.59 2.96.33.5.46.45.4-.16a5.95 5.95 0 0 0-1.34-3.2.1.1 0 0 1 0-.14l.13-.11c.06-.07.12-.06.18 0a7.5 7.5 0 0 1 1.68 3.24c.26 1.5.48 1.5.64-.03l.32-2.91c.05-.5.15-.51.3-.03.57 1.9.02 4.21-.3 6.16-.21 1.17-.05 1.23.49.18.91-1.8 1.61-3.83 2.1-6.1.01-.02.03-.03.05-.02l.17.04c.1.02.14.08.13.19-.31 2.87-.99 5.6-2.02 8.17a.53.53 0 0 0 .03.44c.05.07.1.06.14 0a57.36 57.36 0 0 0 2.68-4.77c.47-.94.7-1.96 1.32-2.8.27-.34.35-.3.25.14A28.69 28.69 0 0 1 37 33.69c-.06.09-.04.15.04.2l.15.07c.18.1.34.07.48-.08 2.36-2.5 4.3-5.06 5.8-7.7.05-.08.1-.1.19-.06.08.05.1.1.07.18-1.68 4.29-4.36 6.85-7.2 10.2-.27.32-.2.42.18.28.7-.25 1.37-.66 1.99-1.22 2-1.82 3.6-3.8 4.8-5.95.02-.02.03-.02.05 0l.14.07c.07.04.1.1.06.18-1.57 4.2-4.47 6.9-8.14 9.01a.48.48 0 0 0-.19.2c-.03.08.02.16.16.24.1.07.21.09.33.07a5.26 5.26 0 0 0 1.94-.7c1.99-1.3 4.05-2.97 6.17-4.99Z" fill="#FBD878"/><path d="m31.46 30.37-2.76-.42a.58.58 0 0 1-.19-.05c-1.47-.78-3.27.14-4.56.9a37.1 37.1 0 0 0 2.9-5.53c.4-.92.4-1.82.88-2.69a.16.16 0 0 1 .07-.06.14.14 0 0 1 .16.02l.05.08a28.84 28.84 0 0 0 3.45 7.75Z" fill="#E0BA5F"/><path d="M31.46 30.37a10.84 10.84 0 0 1 2.29 5.19c-.36-.09-.64-.1-.84-.06-.28.07-.32.21-.14.44l.4.5c.16.2.2.43.13.67-.2.7-.65 1.1-1.33 1.24-.48.09-.51.27-.1.54.22.15.32.38.3.7 0 .1-.03.2-.08.28a.53.53 0 0 1-.75.18 4.68 4.68 0 0 1-1.55-1.65.39.39 0 0 0-.24-.18.36.36 0 0 0-.29.06c-.7.5-1 1.13-.87 1.9.03.2-.05.28-.23.24a.36.36 0 0 1-.27-.22c-.4-.93-.86-2.6-2.02-2.6-.15 0-.23.07-.25.22-.09.74-.52 1.24-1.28 1.5a.46.46 0 0 0-.32.37c-.05.22.03.36.24.43l.12.08c.04.04.07.08.08.13a.36.36 0 0 1-.03.3c-.08.14-.25.27-.5.4 0-.12-.14-.26-.4-.4.3-1.54-.1-2.73-1.19-3.56-.15-.1-.17-.24-.06-.4.36-.54.25-1.02-.33-1.45.29-1.5.95-2.98 2-4.42 1.3-.76 3.1-1.68 4.56-.9.06.03.12.04.19.05l2.76.42ZM12.13 34.23c.23-.1.93.96 1.03 1.08a22.17 22.17 0 0 0 5.73 4.94c.08.05.14.12.18.2.03.05.04.1.04.16 0 .13-.05.17-.16.13a13.33 13.33 0 0 1-4.4-2.35l-2.42-4.16Z" fill="#043D54"/><path d="M24.06 43c.8.22.94.52.8.6-.13.36-.65.3-.8.28a21.14 21.14 0 0 1-4.67-1.67 23.28 23.28 0 0 1-5.8-3.9c-.24-.22-.2-.28.1-.19l.86.27a13.33 13.33 0 0 0 4.4 2.35c.11.04.17 0 .16-.13 0-.05-.01-.1-.04-.15a.43.43 0 0 0-.18-.21 22.17 22.17 0 0 1-5.73-4.94c-.38-.28-.67-.59-1.07-1.19a66.87 66.87 0 0 1 4.4 3.35c1.04.86 2.24 1.52 3.58 1.97a.23.23 0 0 0 .23-.04.27.27 0 0 0 .1-.22.45.45 0 0 0-.22-.37c-3.15-1.93-6.04-4.38-7.52-7.9-.57-1.36-.44-1.43.39-.23 1.6 2.32 3.91 5.3 6.51 6.22.18.06.31.18.41.34.29.51.5 1.03.67 1.57.14.43.35.87.63 1.3a9.9 9.9 0 0 0 2.8 2.88Z" fill="#FBD878"/><path d="M21.95 35.22c.58.43.69.9.33 1.45-.1.16-.09.3.06.4 1.1.83 1.5 2.02 1.2 3.56-1.3-1.36-1.83-3.16-1.59-5.41Z" fill="#4B634E"/><path d="M43.24 35.11a12.18 12.18 0 0 1-1.95 3.44 11.3 11.3 0 0 1-3.53 2c-1.32.4-1.4.21-.24-.55a34.62 34.62 0 0 0 5.72-4.89Z" fill="#043D54"/><path d="M33.75 35.56c.23 2.43-.55 4.34-2.35 5.72a1.46 1.46 0 0 1-.07-.54c0-.22-.1-.3-.3-.27-.14.04-.28.17-.41.4a.45.45 0 0 0 .17.61l.17.06a2 2 0 0 1-.72.52 6.22 6.22 0 0 1-6.31-1.03c.25-.13.42-.26.5-.4a.35.35 0 0 0-.05-.43.32.32 0 0 0-.12-.08c-.2-.07-.29-.21-.24-.43.03-.19.14-.32.32-.38.76-.25 1.19-.75 1.28-1.5.02-.14.1-.22.25-.22 1.16.01 1.61 1.68 2.02 2.6.05.13.14.2.27.23.18.04.26-.05.23-.25-.12-.76.17-1.4.87-1.9a.36.36 0 0 1 .3-.05c.04.01.09.03.13.06.04.03.08.07.1.12.4.7.92 1.25 1.55 1.65a.54.54 0 0 0 .75-.18.6.6 0 0 0 .09-.28c.02-.32-.09-.55-.31-.7-.41-.27-.38-.45.1-.54a1.62 1.62 0 0 0 1.33-1.24.7.7 0 0 0-.13-.67l-.4-.5c-.18-.23-.14-.37.14-.44.2-.05.48-.03.84.06Z" fill="#E0BA5F"/><path d="m24.84 37.26.21.08a.15.15 0 0 1 .08.09.17.17 0 0 1 0 .12c-.06.15-.15.2-.28.17-.33-.08-.61-.27-.84-.58-.16-.21-.12-.29.14-.24.16.03.32.1.46.22.07.05.14.1.23.14ZM31.4 41.28c-.14.17-.3.26-.44.26a1.62 1.62 0 0 1-.17-.06.44.44 0 0 1-.23-.45c0-.06.03-.12.06-.17.13-.22.27-.35.41-.39.2-.04.3.05.3.27 0 .19.02.37.07.54Z" fill="#4B634E"/></svg>