<!-- by TradingView --><svg width="56" height="56" viewBox="0 0 56 56" xmlns="http://www.w3.org/2000/svg"><path fill="url(#a1quvcfzq)" d="M0 0h56v56H0z"/><ellipse cx="28.44" cy="30.79" rx="13.56" ry="13.21" fill="#C85B04"/><path d="M38.62 6.8c-.95.63-1.13 1.54-.54 2.74.54 1.1 1.62 2.55.11 3.46-.87.52-2.75 1.5-1.33 2.63.82.66 2 1.08 1.8 2.36-.1.73-.6 1.2-1.47 1.43l-.37-.35c.62-.02 1.07-.26 1.35-.7.7-1.15-.43-1.77-1.24-2.28-1.06-.67-1.22-1.8-.08-2.58.6-.42 1.47-.87 1.81-1.54a.33.33 0 0 0 .03-.27c-.17-.48-.49-1.15-.97-2.03-.65-1.18-.4-2.4.78-3.67.17.15.21.42.12.8Z" fill="#94440A"/><path d="M38.5 6c-1.17 1.26-1.43 2.49-.78 3.67.48.88.8 1.55.97 2.03.03.1.02.19-.03.27-.34.67-1.21 1.12-1.81 1.54-1.14.78-.98 1.91.09 2.58.8.5 1.92 1.13 1.23 2.28-.28.44-.73.68-1.35.7l-.5-.23c-.66-.38-1.33-.69-2-.95a1.1 1.1 0 0 1-.48-.36c-.1-.11-.07-.13.05-.07.78.4 1.57.53 2.37.4a.64.64 0 0 0 .46-.34.6.6 0 0 0 0-.56c-.56-.99-2.11-.15-2.45-1.5-.63-2.48 2.8-1.74 2.5-3.47-.15-.81-.47-1.56-.79-2.33-.3-.75-.2-1.44.3-2.07A4.75 4.75 0 0 1 38.5 6Z" fill="#E2AA40"/><path d="M38.62 6.8c.15 1.16.51 1.71 1 2.68.62 1.26.8 2.6-.49 3.41l-.78.54c-1.05.76-.5 1.86.3 2.51.28.23.51.49.7.77.48.7.56 1.43.25 2.2-.4.53-.93.85-1.6.95-.4.05-.6-.15-.81-.45.88-.22 1.37-.7 1.48-1.42.18-1.28-1-1.7-1.81-2.36-1.42-1.12.46-2.1 1.33-2.63 1.5-.9.43-2.36-.1-3.46-.6-1.2-.42-2.11.53-2.73ZM32.5 16.58c.06-.5-.19-.84-.72-1.02a.4.4 0 0 1-.2-.13c-.26-.34-.67-.47-1.2-.4-1.1.16-1.9.78-2.39 1.86-.03.07-.01.12.06.15l.14.06.03-.01c.6-1.26 1.52-1.84 2.76-1.75.07 0 .14.04.19.09.11.13.13.23.04.3a.35.35 0 0 1-.15.07 3.47 3.47 0 0 0-2.46 1.85.11.11 0 0 0 .05.1l.05.02c.1.01.17-.02.22-.1.38-.64.76-.9 1.13-.81-.17.24-.25.42-.24.56-1.06 1.4.17 3.21 1.4 4.16a94.93 94.93 0 0 1 4.05 3.29 8.12 8.12 0 0 1 2.54 3.79c.03.1 0 .17-.1.22l-.08.04c-.03.02-.06.01-.07-.02-.14-.31-.36-.45-.68-.43a.35.35 0 0 0-.26.15l-.26.39c-.05.08-.13.11-.24.08-.5-.14-.74-.4-.74-.76 0-.09.03-.17.07-.24a.46.46 0 0 1 .2-.16.53.53 0 0 1 .51.06c.1.06.22.09.35.06.2-.04.25-.14.12-.31-.2-.28-.52-.35-.94-.23-.11.03-.2.1-.24.2-.17.39-.46.45-.87.17-.1-.07-.18-.05-.23.06l-.05.1c-.05.1-.01.17.1.18.36.03.66.18.92.47a.22.22 0 0 1 .04.22.23.23 0 0 1-.18.15c-.55.09-.9-.11-1.03-.62-.04-.14-.18-.2-.44-.19a.7.7 0 0 1-.13-.6c.01-.08-.02-.12-.11-.12h-.22c-.1.01-.16.06-.19.15l-.09.3c-.02.09-.08.12-.17.11l-.32-.05c-.1-.01-.15-.07-.15-.17 0-.11.03-.22.08-.3.04-.1.12-.15.23-.15h.2c.11 0 .18-.05.19-.16l.04-.39c.25-.16.48-.17.66-.02a.3.3 0 0 1 .12.25c0 .05-.02.1-.05.15-.06.13-.03.2.12.23l.35.06c.05.01.1 0 .14-.03a.25.25 0 0 0 .07-.06.15.15 0 0 0-.03-.21c-.28-.2-.5-.45-.64-.77-.02-.09 0-.15.04-.2.04-.04.1-.06.16-.05.28.03.5-.06.66-.29.07-.1.16-.13.28-.1.19.04.36.12.5.21.1.06.13.04.11-.06a.46.46 0 0 0-.25-.35 8.23 8.23 0 0 1-1.2-.75.63.63 0 0 0-.82.06l-.4.42c-.1.1-.18.1-.28 0l-.42-.4a.25.25 0 0 0-.21-.08c-.35.04-.57-.12-.67-.48a.33.33 0 0 1 .05-.3.35.35 0 0 1 .29-.13 3.29 3.29 0 0 0 1.2-.23l.02-.03a.08.08 0 0 0 0-.07l-.03-.07a.1.1 0 0 0-.05-.04.1.1 0 0 0-.06 0l-1.13.26a.41.41 0 0 1-.38-.12.39.39 0 0 1-.1-.38c.08-.2.21-.33.42-.4.08-.02.1-.07.09-.14l-.02-.07-.02-.02a.5.5 0 0 0-.47.24.33.33 0 0 1-.24.16.97.97 0 0 1-.45-.02c-.07-.02-.1 0-.09.07.08.42-.11.64-.58.68-.16.01-.25.1-.26.26 0 .15-.09.24-.24.25a.34.34 0 0 0-.32.25c-.1.3-.35.45-.74.45a.76.76 0 0 1-.02-.52c.03-.09.09-.13.18-.13h.4a.12.12 0 0 0 .1-.04.1.1 0 0 0 .01-.1c-.07-.26.03-.4.3-.43.1 0 .16-.05.18-.15.03-.16.03-.32 0-.48l.52-.17c.1-.04.15-.1.13-.21-.03-.33.12-.56.48-.68.11-.04.13-.1.03-.18a.6.6 0 0 0-.5-.12c-.1.02-.14.08-.12.18.06.39-.12.62-.55.69a.21.21 0 0 1-.24-.1.5.5 0 0 1-.02-.53.5.5 0 0 1 .2-.21.72.72 0 0 0 .38-.6c.01-.14-.05-.18-.17-.12-.76.37-1 .94-.74 1.7-.37-.01-.63.14-.79.46a.4.4 0 0 1-.2.19L26.6 24c-.31-.5-.37-.98-.17-1.45.11-.25.17-.43.16-.54a.9.9 0 0 0-.21-.57.94.94 0 0 0-.02-.42.7.7 0 0 0 .12-.34c.02-.23.2-.34.52-.33a.2.2 0 0 0 .21-.12c.15-.29.18-.56.07-.82-.05-.11 0-.2.12-.23.18-.06.38-.06.6 0 .3.07.35 0 .15-.24-.2-.24-.44-.26-.72-.06a.43.43 0 0 1-.18.08c-.07 0-.12-.02-.16-.07a.18.18 0 0 1-.03-.1c0-.03.01-.07.03-.1.03-.04.04-.1.05-.15 0-.11-.05-.16-.17-.15a.89.89 0 0 0-.7.51c-.1.2-.2.2-.31.01-.36-.58-.9-.92-1.63-1.02-.17-.17-.33-.28-.6-.26a18.02 18.02 0 0 0-2.7.4.14.14 0 0 1-.1-.18c.56-1.54 1.95-2.69 3.68-2.5a4 4 0 0 1 2.42 1.3.2.2 0 0 0 .28 0 .2.2 0 0 0 .06-.08c.44-1.19 1.33-2.12 2.69-2.22 1.86-.15 3.04.57 3.43 2.39.03.11-.02.15-.13.12l-.84-.28Z" fill="#E2AA40"/><path d="M32.5 16.58a3.45 3.45 0 0 0-2.45.28c-.37-.1-.75.17-1.13.8-.05.09-.13.12-.22.11a.12.12 0 0 1-.09-.06.11.11 0 0 1 0-.11c.58-1 1.39-1.6 2.45-1.8a.35.35 0 0 0 .15-.07c.09-.07.07-.17-.04-.3a.27.27 0 0 0-.19-.1c-1.24-.08-2.16.5-2.76 1.76h-.03l-.14-.05c-.07-.03-.1-.08-.06-.15a2.96 2.96 0 0 1 2.38-1.86c.54-.07.95.06 1.21.4.05.06.12.1.2.13.53.18.78.52.73 1.02ZM26.3 17.36a2.93 2.93 0 0 0-3.28-.81c-.12.04-.16 0-.12-.12l.06-.16a.16.16 0 0 1 .12-.1 3.5 3.5 0 0 1 3.47.98c.04.05.04.1 0 .15l-.07.06c-.06.06-.12.06-.18 0ZM21.98 17.64c0 .05 0 .09-.05.12-.05.04-.07.03-.06-.04.06-.4.3-.67.7-.8a.2.2 0 0 1 .16.01.1.1 0 0 1 .05.06c0 .03 0 .05-.03.07-.27.17-.53.36-.77.58ZM23.92 17.07c-.03 0-.04-.02-.04-.06l.02-.07c0-.02.02-.04.03-.05a4.71 4.71 0 0 1 2.18.8.1.1 0 0 1 .04.14l-.03.08c-.06.1-.13.12-.22.05a4.8 4.8 0 0 0-1.98-.89Z" fill="#94440A"/><path d="M29.81 17.42c0 .23.07.3.24.17-.12.34-.15.5-.09.47-.65 1.16.49 2.62 1.36 3.28.92.7 1.93 1.5 3.03 2.41a.43.43 0 0 0 .33.1.44.44 0 0 0 .29-.16c.24-.31.31-.71.21-1.2-.18-.83-1.23-1.05-1.92-1.34-.97-.41-1.5-1.23-1.6-2.47.06-.36.28-.37.65-.03-.32.08-.43.28-.33.58.56 1.7 2.11 1.9 3.6 2.42.75.27 1.28.9 1.6 1.9.2.64.06 1.25-.41 1.85a.46.46 0 0 0 .01.58 8.19 8.19 0 0 1 1.37 2.32c.07.18.13.17.19 0a5.36 5.36 0 0 0-.01-3.3.23.23 0 0 1 .11-.17.24.24 0 0 1 .1-.03l.68-.05c.27-.02.35-.16.23-.4-.83-1.6-2.2-2.86-3.66-3.94-.96-.7-2.09-1.16-3.2-1.68.95.1 1.85.43 2.7 1 1.79 1.2 3.41 2.65 4.36 4.36.2.35.51.39.47.9-.01.07-.1.1-.27.1.04-.13-.16-.12-.6.02-.26.08-.36.25-.3.51a5 5 0 0 1-.06 2.42c-.26.98-1.03 1.57-.01 2.55.07.06.1.13.12.22.3 1.82-1.23 3.28-2.18 4.65-.82 1.19-2.03 1.59-3.43 1.7a.58.58 0 0 0-.3.1c-1.41 1.02-2.8 1.22-4.14.61a1.98 1.98 0 0 0-.93-.15 27.2 27.2 0 0 1-3.02.04 4.88 4.88 0 0 1-2.62-.84c-.6-.41-1.22-.7-1.87-.87a2.7 2.7 0 0 1-1.76-1.53.27.27 0 0 1 0-.26 4.9 4.9 0 0 1 2.26-1.88c.36-.17.34-.3-.06-.36a2.85 2.85 0 0 1-1.75-1.13.79.79 0 0 1-.17-.4c-.05-.36-.27-.63-.33-1-.07-.55-.73-2.5-1.66-1.84a.52.52 0 0 0-.18.64c.23.49.53.89.9 1.2.72.62 2.05 2.34 1.32 3.3-.7.92-1.6 1.1-2.73.53-.85-.15-1.12-.49-.81-1a.22.22 0 0 0 0-.24c-.25-.37-.25-.59 0-.67 1.02.82 1.73.56 2.14-.78 0-.03.02-.05.05-.07.08-.07.15 0 .2.18.01.07.02.13.01.2-.03.62-.39 1.06-1.06 1.34-.25.1-.5.07-.74-.1a.36.36 0 0 0-.3-.06.2.2 0 0 0-.13.08c-.06.09-.06.17.02.25.68.65 1.34.9 1.98.75.92-.22 1.27-.78 1.07-1.7a1.54 1.54 0 0 0-.94-1.17.48.48 0 0 1-.26-.23c-.43-.87-1.7-1.9-.73-2.93a.4.4 0 0 1 .24-.13c1.24-.17 1.8 1.24 1.94 2.17.07.49.23.94.47 1.34.44.75 1.13 1.09 2.07 1.02.76-.05 1.31-.4 1.68-1.07.26-.48.25-1.1-.05-1.87-.04-.12-.08-.12-.12 0-.06.2-.09.42-.08.65.06.9-.97 1.89-1.82 1.08a2.13 2.13 0 0 1-.72-1.26c-.06-.53-.1-1.06-.1-1.58-.01-.11.04-.14.14-.09l.1.06c.05.02.09.06.11.1.03.05.04.1.04.14a3.8 3.8 0 0 0 .57 2.29.58.58 0 0 0 .4.26.61.61 0 0 0 .48-.13c.18-.15.33-.32.44-.51a.44.44 0 0 0 .07-.29c-.07-.6.13-1.18.36-1.72.32-.75 1.2-1.02 1.66-.16.33.63.19 1.42.09 2.11-.1.7.2 1.4.7 1.9a.6.6 0 0 0 .58.18 7.35 7.35 0 0 0 2.06-.79c.12-.07.17-.17.14-.3-.02-.12-.09-.17-.2-.15-1.17.15-2.06-1-2.27-1.93-.26-1.21-.38-2.24-1.69-2.84a.97.97 0 0 0-1.35 1.08c.02.1 0 .2-.05.3-.26.5-.8.67-1.29.33-.3-.2-.62-.33-.95-.37a.26.26 0 0 1-.23-.17c-.32-.86-.74-1.4-1.27-1.66-.89-.41-1.63-.25-2.2.5-.36.12-.43 0-.21-.37l.28-.44c.1-.14.18-.29.24-.44.21-.54.52-1.04.92-1.5a16.72 16.72 0 0 1 3.37-3.07 8.17 8.17 0 0 1 2.89-1.16c.1-.03.15-.1.12-.2-.03-.13-.15-.23-.38-.28a.63.63 0 0 0 .3-.3c.72.09 1.26.43 1.62 1.01.11.19.22.18.32 0 .15-.3.38-.48.7-.52.1-.01.16.04.16.15 0 .06-.02.1-.05.15a.2.2 0 0 0-.03.1c0 .04.02.07.03.1.04.05.1.08.16.07a.43.43 0 0 0 .18-.08c.28-.2.52-.18.72.06.2.23.14.31-.16.23a1.1 1.1 0 0 0-.59.01c-.13.04-.17.12-.12.23.1.26.08.53-.07.82a.2.2 0 0 1-.2.12c-.33-.01-.5.1-.53.33a.47.47 0 0 0 0-.17c-.02-.1-.08-.16-.2-.16a.27.27 0 0 0-.19.1.35.35 0 0 1-.06-.14c-.02-.1.02-.12.1-.05.03.04.08.07.13.08.1.03.17 0 .23-.07l.56-.74c.08-.1.06-.19-.05-.25a.6.6 0 0 0-.68.04.24.24 0 0 0-.1.18c0 .12-.03.24-.07.34-.07.18-.13.18-.18 0-.2-.77-.4-1.35-1.39-1.23a.24.24 0 0 0-.17.1.47.47 0 0 1-.22.17 14.2 14.2 0 0 0-6.9 5.68.15.15 0 0 0 .08.14c.02.02.05.02.08.02.3-.02.6-.04.91-.08 1-.1 1.88 1.1 2.37 1.8.2.28.48.48.84.59.14.04.27.04.4-.02.16-.07.19-.18.08-.31a115 115 0 0 1-.38-.49 1.35 1.35 0 0 1 .49-2.11c.5-.26 1.04-.3 1.58-.13 2.03.64 3.1 1.98 3.22 4.02.03.34.17.62.45.84a.38.38 0 0 0 .51-.05c.26-.3.43-.57.52-.84 0 .2.06.26.16.2-.06.36-.24.66-.53.91a.56.56 0 0 1-.65.07c-.53-.3-.77-.8-.83-1.37a3.72 3.72 0 0 0-2.6-3.4c-1.27-.46-3.2.45-1.75 1.93.12.12.19.1.2-.08.04-.95.97-1.29 1.77-.88a3.08 3.08 0 0 1 1.8 2.52c.12 1.12.69 2.27 2 2.34.4.02.72-.22.9-.56.05-.09.07-.18.06-.28-.04-.33-.03-.62.02-.87.05-.23.1-.23.13 0 .07.38.17.71.3 1 .04.08.02.15-.05.21a.62.62 0 0 0-.26.53c0 .1-.03.18-.09.27a2.4 2.4 0 0 1-.89.75.61.61 0 0 0-.25.22.54.54 0 0 1-.5.25.47.47 0 0 0-.37.15.44.44 0 0 0-.1.38 5.03 5.03 0 0 0 2.64 3.43c.27.15.56.17.87.06.13-.05.13-.1 0-.16a4.76 4.76 0 0 1-2.91-3.57c0-.03 0-.06.05-.07l.1-.03a.13.13 0 0 1 .1.01.12.12 0 0 1 .06.08c.27 1.75 1.94 2.98 3.57 3.65.18.07.3.02.4-.14l.03-.06a.12.12 0 0 0 0-.1.12.12 0 0 0-.06-.06c-1.34-.6-3.14-2.25-3-3.84.02-.1.07-.15.17-.13.14.02.27-.02.38-.12.09-.07.1-.16.04-.26a.23.23 0 0 1-.03-.14.44.44 0 0 1 .23-.37c.17-.1.23-.24.2-.42-.08-.31.02-.38.31-.22.37.22.6.16.7-.17.1-.33-.02-.56-.33-.7.1-.02.14-.07.1-.15.15.22.36.34.63.36.1 0 .13.04.1.13l-.14.6c-.02.07-.07.11-.16.1l-.31.03a.33.33 0 0 0-.16.08.31.31 0 0 0-.09.32c.02.05.05.1.1.14.12.12.2.26.24.42.02.08.05.15.11.21l1.36 1.44a.41.41 0 0 0 .54.05c.18-.12.33-.29.46-.48a.28.28 0 0 0 0-.28.28.28 0 0 0-.24-.15h-.41a.24.24 0 0 1-.22-.13c-.18-.28-.42-.5-.73-.64a.32.32 0 0 1-.18-.23l-.07-.3c-.02-.12.03-.17.15-.17.15.01.26.08.32.21.2.4.52.7.95.9.63.3.75.58 1.11 1.06.35.46.72.5 1.1.12h.13c.04.01.07.04.08.08l.02.08c-.05.17-.12.32-.23.46a.28.28 0 0 1-.21.1l-.87.02a.1.1 0 0 1-.1-.07v-.04l.03-.13a.35.35 0 0 0-.05-.25c-.16-.26-.37-.3-.64-.1a.39.39 0 0 0-.05.6c.05.05.11.1.19.11.1.03.22.02.34-.02.1-.03.17 0 .22.07.27.35.66.69 1.18 1 .1.06.19.05.27-.03l.42-.4a.16.16 0 0 1 .22 0l.04.07c.11.35.04.64-.2.89a.37.37 0 0 1-.3.1c-.4-.01-.62.16-.66.53 0 .04-.03.07-.06.1a.18.18 0 0 1-.1.05c-.26.02-.45-.07-.58-.26a.06.06 0 0 0-.06-.03c-.02 0-.03 0-.04.02l-.01.03-.1.4c-.02.12-.1.16-.22.11l-.46-.18a.17.17 0 0 0-.19.04.15.15 0 0 0-.03.18c.39.8 1.19.37 1.83.26a.33.33 0 0 0 .27-.2c.12-.25.32-.35.62-.3a.4.4 0 0 0 .33-.08c.33-.29.58-.65.75-1.1.29-.24.53-.54.71-.9.04-.06.08-.1.14-.15a.2.2 0 0 1 .15-.03.17.17 0 0 0 .13-.03.17.17 0 0 0 .07-.12c0-.43.16-.78.46-1.04.1-.1.17-.23.17-.38v-1c0-.06-.02-.11-.05-.16a.3.3 0 0 0-.43-.08l-.17.12a.13.13 0 0 1-.1.02.12.12 0 0 1-.08-.07.49.49 0 0 0-.04-.08.27.27 0 0 0-.22-.12l-2.15-.13c-.18-.36-.44-.6-.77-.71-.1-.04-.15-.11-.13-.22.08-.47-.17-.71-.75-.72-.11 0-.17-.05-.17-.16a.7.7 0 0 1 .04-.3c.08-.02.12-.06.13-.14.26-.02.4.05.44.2.13.5.48.7 1.04.6.04 0 .07-.02.1-.05a.22.22 0 0 0 .08-.2.22.22 0 0 0-.05-.11 1.36 1.36 0 0 0-.91-.47c-.12-.01-.16-.07-.1-.18l.04-.1c.05-.1.13-.13.23-.06.4.28.7.22.87-.17.05-.1.13-.17.24-.2.42-.12.74-.05.94.23.13.17.08.27-.12.31a.42.42 0 0 1-.35-.07.53.53 0 0 0-.51-.05.46.46 0 0 0-.2.16.42.42 0 0 0-.07.24c0 .37.25.62.74.76.1.03.19 0 .24-.08l.26-.39a.34.34 0 0 1 .26-.15c.32-.02.54.12.68.43.01.03.04.04.07.02l.08-.04c.1-.05.13-.12.1-.22a8.12 8.12 0 0 0-2.54-3.8 94.93 94.93 0 0 0-4.05-3.28c-1.23-.95-2.46-2.75-1.4-4.16Z" fill="#94440A"/><path d="M29.96 18.06c.3.32.63.45.97.37.15-.04.4.05.72.25.1 1.24.64 2.06 1.61 2.47.7.3 1.74.51 1.92 1.35.1.48.03.88-.21 1.19a.43.43 0 0 1-.3.16.44.44 0 0 1-.32-.1c-1.1-.9-2.11-1.7-3.03-2.4-.87-.67-2.01-2.13-1.36-3.3ZM26.08 20.45c-.04.19-.03.37.03.55.02.08.08.1.16.07.02 0 .05-.02.08-.05.04.13.04.27.02.42-.1-.06-.17-.08-.23-.05-.05.02-.08.06-.07.12.03.39.03.77 0 1.16-.03.57.17 1.06.32 1.62.47 1.35 1.43 2.28 2.02 3.37.03.06.04.15.02.28-.09.27-.26.55-.52.84a.38.38 0 0 1-.51.05c-.28-.22-.42-.5-.45-.84-.12-2.04-1.2-3.38-3.22-4.02a2.06 2.06 0 0 0-1.58.13 1.35 1.35 0 0 0-.49 2.11l.38.49c.1.13.08.24-.08.31a.55.55 0 0 1-.4.02c-.36-.11-.64-.3-.84-.58-.5-.7-1.37-1.9-2.37-1.8a24.86 24.86 0 0 1-1 .05.15.15 0 0 1-.06-.22 14.2 14.2 0 0 1 6.89-5.6c.1-.04.17-.1.22-.17.04-.06.1-.1.17-.1 1-.12 1.2.46 1.4 1.22.04.19.1.19.17.01.04-.1.07-.22.07-.34a.23.23 0 0 1 .1-.18.6.6 0 0 1 .68-.04c.11.06.13.15.05.25l-.56.74c-.06.08-.13.1-.23.07a.33.33 0 0 1-.14-.08c-.07-.07-.1-.06-.09.05 0 .03.02.08.06.14Z" fill="#E97C03"/><path d="M32.3 18.65c.1.05.19.07.3.08 1.1.52 2.23.97 3.2 1.68a11.92 11.92 0 0 1 3.65 3.94c.12.24.04.38-.23.4l-.68.05a.24.24 0 0 0-.18.1.23.23 0 0 0-.03.2 5.36 5.36 0 0 1 0 3.2c-.05.17-.11.18-.18 0a8.19 8.19 0 0 0-1.37-2.32.46.46 0 0 1-.01-.58c.47-.6.6-1.21.4-1.84-.3-1-.84-1.64-1.6-1.9-1.48-.53-3.03-.72-3.59-2.43-.1-.3.01-.5.33-.58Z" fill="#E2AA40"/><path d="M27.74 20.18v-.22c0-.12.05-.18.18-.16.2.02.36.14.46.35.07.12.03.18-.12.17l-.3-.03c-.12 0-.19.05-.2.17-.05.47-.29.85-.72 1.13a.16.16 0 0 1-.19-.01l-.07-.07a.2.2 0 0 1-.04-.21.2.2 0 0 1 .05-.06c.2-.19.35-.4.47-.65.05-.1.13-.17.25-.2l.1-.04c.09-.03.13-.08.13-.17ZM28.96 20.19a.19.19 0 0 1 .16.06.18.18 0 0 1 .03.16.63.63 0 0 1-.33.4.48.48 0 0 0-.21.23 9.63 9.63 0 0 1-1.02 1.78 1 1 0 0 1-.55.37c-.1.04-.13 0-.08-.1l1-1.75a.56.56 0 0 0 .07-.17c.02-.12.1-.2.22-.23.06-.02.1-.05.14-.09.03-.04.05-.1.05-.15 0-.3.17-.47.52-.51ZM26.47 20.68a.7.7 0 0 1-.12.34.24.24 0 0 1-.08.05c-.08.03-.14 0-.16-.07a1.09 1.09 0 0 1-.03-.55c.06-.06.13-.1.2-.1.1 0 .17.05.2.16l-.01.17ZM29.33 23.15c.01-.3-.1-.46-.36-.44a.44.44 0 0 0-.22.1c-.28-.77-.03-1.34.73-1.71.12-.06.18-.02.17.11a.72.72 0 0 1-.38.6.5.5 0 0 0-.2.22.5.5 0 0 0 .02.53c.06.08.13.12.24.1.43-.07.61-.3.55-.69-.02-.1.02-.16.12-.18a.6.6 0 0 1 .5.12c.1.08.09.14-.03.18-.36.12-.51.35-.48.68.02.1-.03.17-.13.2l-.53.18Z" fill="#56340F"/><path d="M26.37 21.44c.13.16.2.35.21.57 0 .1-.05.29-.16.54-.2.47-.14.95.17 1.45-.1 0-.16.09-.2.29-.15-.56-.35-1.05-.32-1.62a7.7 7.7 0 0 0 0-1.16c0-.06.02-.1.07-.12.06-.03.13 0 .23.05Z" fill="#94440A"/><path d="M36.49 25.17c-.06.14-.15.17-.28.07l-1-.73a.42.42 0 0 1-.15-.3.4.4 0 0 1 .1-.3c.6-.63.35-1.1.15-1.8a.13.13 0 0 1 .05-.14.14.14 0 0 1 .15-.01c1.27.74 1.6 1.8.98 3.21Z" fill="#E2AA40"/><path d="M33.8 26.47a1 1 0 0 0-.2-.32l.1.03a.24.24 0 0 0 .22-.03l.69-.5a.18.18 0 0 0 .07-.15.17.17 0 0 0-.08-.14c-.55-.36-1.04-.34-1.48.07a.37.37 0 0 0-.12.29c0 .19-.1.28-.3.28a.31.31 0 0 0-.28.18c-.09.2-.07.37.04.52v.06c-.45-.19-.76-.08-.93.32-.05.1-.03.19.06.26.18.14.4.17.68.09.1-.03.18-.1.2-.21a.78.78 0 0 0-.02-.46c.43-.09.63-.05.6.11l-.03.39c-.01.1-.08.16-.2.16h-.2c-.1 0-.18.05-.22.14-.05.1-.07.2-.08.3 0 .11.05.17.15.18l.32.05c.09.01.15-.02.17-.1l.1-.31c.02-.1.08-.14.18-.14l.22-.01c.09 0 .12.04.1.12a.7.7 0 0 0 .14.6c0 .08-.05.12-.13.13-.04-.18-.21-.26-.51-.25a.3.3 0 0 0-.22.11.29.29 0 0 0-.05.24c.05.23.17.37.35.42.1.03.14.1.14.2 0 .09.02.18.05.27.05.14 0 .2-.14.14-.46-.14-.83.02-1.12.5-.2-.17-.33-.33-.4-.48-.08-.14-.03-.2.13-.17l.54.1c.1.03.2 0 .26-.08.17-.2.18-.4.05-.6a.3.3 0 0 0-.18-.13c-.23-.05-.3-.18-.23-.4.04-.13 0-.23-.13-.29a.7.7 0 0 0-.31-.07.25.25 0 0 1-.23-.14c-.13-.23-.3-.43-.52-.62a.33.33 0 0 1-.13-.32c.02-.11.08-.15.2-.13.26.07.43-.02.5-.27a.24.24 0 0 0-.05-.22c-.16-.2-.37-.27-.64-.22-.05.01-.1.04-.13.07a.21.21 0 0 0-.05.14c-.01.27-.17.44-.46.5a.24.24 0 0 0-.2.23c0 .1.05.16.14.2.22.09.4.24.52.45.05.09.12.16.21.2.3.16.6.39.89.67.07.07.07.14 0 .21a.62.62 0 0 1-.26.17c-.1.04-.16 0-.16-.1a.32.32 0 0 0-.22-.3c-.46-.2-.83-.54-1.12-1.01a.43.43 0 0 0-.23-.18.6.6 0 0 0-.45 0c-.11.05-.16.02-.14-.1a.77.77 0 0 0-.02-.38.26.26 0 0 0-.09-.13.28.28 0 0 0-.15-.05l-.32-.02c-.13-.01-.16-.07-.1-.19.3-.55.77-.67 1.07-1.2a.5.5 0 0 1 .28-.24c.18-.07.3-.19.39-.37a.38.38 0 0 1 .3-.22.7.7 0 0 0 .52-.33c.06-.09.05-.16-.03-.23-.28-.23-.56-.24-.82-.03a.2.2 0 0 0-.07.22c.06.16-.06.26-.36.29-.3.02-.42.18-.38.47.02.12-.03.19-.15.2l-.2.03a.34.34 0 0 0-.16.06.33.33 0 0 0-.1.14c-.19.44-.5.7-.96.81a.19.19 0 0 0-.12.08.18.18 0 0 0-.02.14c.07.28.26.42.57.41.1 0 .13.05.1.14-.08.33.05.57.4.72.1.04.12.12.08.22-.07.18-.19.35-.34.49-.1.05-.15-.02-.16-.2.02-.14.01-.23-.02-.29-.59-1.1-1.55-2.02-2.02-3.37.04-.2.1-.3.2-.29l1.17-.55a.4.4 0 0 0 .19-.2c.16-.3.42-.46.8-.45.07.21 0 .36-.22.46-.19.08-.35.2-.38.4-.02.09-.07.13-.16.12-.4-.03-.77.14-1.13.5-.14.12-.15.26-.06.41l.09.14c.1.17.24.19.38.04.22-.21.46-.38.73-.5a.3.3 0 0 0 .18-.21.32.32 0 0 0 0-.17c-.05-.13 0-.18.14-.17.35.05.55-.07.6-.37a.22.22 0 0 1 .14-.19l.27-.1c.04.15.04.31 0 .47-.01.1-.07.15-.17.15-.27.02-.37.17-.3.43a.1.1 0 0 1-.02.1.12.12 0 0 1-.09.04h-.4c-.1 0-.15.04-.18.13a.76.76 0 0 0 .02.52c-.46-.13-.77-.07-.93.18a.29.29 0 0 0 0 .3l.14.23c.09.15.2.18.34.08.32-.2.47-.47.45-.79.39 0 .63-.15.74-.45a.34.34 0 0 1 .32-.25c.15-.01.23-.1.24-.25.01-.16.1-.25.26-.26.47-.04.66-.26.58-.68-.01-.07.02-.1.09-.07.15.04.3.05.45.02.1-.02.18-.07.24-.16a.5.5 0 0 1 .47-.24s.02 0 .02.02l.02.07c.02.07-.01.12-.09.15a.57.57 0 0 0-.41.39.38.38 0 0 0 .09.38.4.4 0 0 0 .38.12l1.13-.27a.1.1 0 0 1 .06 0l.05.05.03.07a.08.08 0 0 1 0 .07s0 .02-.02.03l-.03.02c-.37.14-.77.2-1.17.2a.36.36 0 0 0-.29.14.34.34 0 0 0-.05.3c.1.36.32.52.67.48.08 0 .15.02.2.07l.43.41c.1.1.18.1.27 0l.4-.42a.62.62 0 0 1 .84-.06c.38.29.78.54 1.2.75.13.08.21.2.24.35.02.1-.02.12-.1.06-.15-.1-.32-.17-.5-.21a.25.25 0 0 0-.3.1.65.65 0 0 1-.65.29.18.18 0 0 0-.16.06c-.04.04-.06.1-.04.19Z" fill="#56340F"/><path d="m29.33 23.15-.27.11a.22.22 0 0 0-.15.19c-.04.3-.24.42-.59.37-.14-.01-.19.04-.14.17v.17a.3.3 0 0 1-.18.22c-.27.11-.51.28-.73.49-.14.15-.27.13-.38-.04l-.09-.14c-.1-.15-.08-.3.06-.42.36-.35.74-.52 1.13-.49.1.01.14-.03.16-.12.03-.2.2-.32.38-.4.21-.1.29-.25.21-.46a.44.44 0 0 1 .23-.1c.25 0 .37.14.36.45Z" fill="#E2AA40"/><path d="M32.07 30c.05.01.15.08.28.2.2.08.37.2.5.33.07.07.1.15.08.24v.19c.04.13.12.18.26.14.19-.05.36.04.5.17.35.38.78.67 1.3.86.04.01.07.04.09.08.02.03.03.07.02.11a.5.5 0 0 1-.12.22c-.38.38-.75.34-1.1-.12-.36-.48-.48-.77-1.11-1.06-.43-.2-.75-.5-.95-.9a.36.36 0 0 0-.32-.2c-.12-.01-.17.04-.15.16l.07.3c.02.1.08.18.18.23.3.15.55.36.73.64.05.09.12.13.22.13h.41a.28.28 0 0 1 .25.15.27.27 0 0 1-.01.28c-.13.2-.28.36-.46.48a.41.41 0 0 1-.54-.05l-1.36-1.44a.41.41 0 0 1-.11-.2.76.76 0 0 0-.25-.43.31.31 0 0 1-.09-.31c.02-.06.05-.11.1-.15.03-.04.09-.07.15-.08.1-.02.2-.03.31-.02.09 0 .14-.04.16-.12l.15-.6c.02-.08-.02-.12-.1-.12a.75.75 0 0 1-.64-.36l-.02-.25c0-.15-.08-.2-.22-.12-.14.08-.26.17-.36.28-.1.12-.07.2.08.23.13.03.27.04.42.01.31.14.42.37.33.7-.1.33-.33.39-.7.17-.29-.16-.4-.1-.32.22.04.18-.02.32-.19.42a.44.44 0 0 0-.23.37c0 .05 0 .1.03.14.06.1.05.19-.04.26a.46.46 0 0 1-.38.12c-.1-.02-.15.03-.16.13-.15 1.6 1.64 3.25 2.99 3.84a.12.12 0 0 1 .06.07.12.12 0 0 1 0 .09l-.04.06c-.09.16-.21.2-.39.14-1.63-.67-3.3-1.9-3.57-3.65a.12.12 0 0 0-.06-.08.13.13 0 0 0-.1-.01l-.1.03c-.04.01-.06.04-.05.07a4.76 4.76 0 0 0 2.91 3.57c.13.05.13.1 0 .16-.31.11-.6.1-.87-.06a5.03 5.03 0 0 1-2.64-3.43.44.44 0 0 1 .1-.38.46.46 0 0 1 .37-.15c.21 0 .38-.08.5-.25.06-.1.15-.17.25-.22.35-.17.65-.42.9-.75a.45.45 0 0 0 .08-.27c0-.23.09-.4.26-.53.07-.06.1-.13.05-.21a4.01 4.01 0 0 1-.3-1c-.04-.23-.08-.23-.13 0-.05.25-.06.54-.02.87 0 .1-.01.2-.06.28-.18.34-.5.58-.9.56-1.31-.07-1.88-1.22-2-2.34a3.08 3.08 0 0 0-1.8-2.52c-.8-.41-1.73-.07-1.77.88-.01.18-.08.2-.2.08-1.46-1.48.48-2.39 1.75-1.93a3.72 3.72 0 0 1 2.6 3.4c.05.58.3 1.07.83 1.37a.56.56 0 0 0 .65-.07c.3-.25.47-.55.53-.9.15-.14.27-.3.34-.49.04-.1.01-.18-.09-.22-.34-.15-.47-.39-.39-.72.03-.1 0-.14-.1-.14-.3 0-.5-.13-.57-.4a.18.18 0 0 1 .14-.23c.46-.1.77-.37.95-.8.02-.06.06-.11.11-.15.05-.04.1-.06.17-.06l.19-.03c.12-.01.17-.08.15-.2-.04-.29.08-.45.38-.47.3-.03.42-.13.36-.29a.2.2 0 0 1 .07-.22c.26-.21.54-.2.82.03.08.07.1.14.03.23a.7.7 0 0 1-.52.33.4.4 0 0 0-.3.22.67.67 0 0 1-.4.37.5.5 0 0 0-.27.23c-.3.54-.78.66-1.07 1.21-.06.12-.03.18.1.19l.32.02c.05 0 .1.02.15.05.04.03.08.08.1.13.03.12.04.25.01.38-.02.12.03.15.14.1a.6.6 0 0 1 .45 0c.1.03.17.1.23.18.29.47.66.8 1.12 1 .14.06.2.16.22.3 0 .11.06.15.16.11.1-.03.19-.09.26-.17.07-.07.07-.14 0-.2a3.65 3.65 0 0 0-.89-.68.52.52 0 0 1-.21-.2c-.12-.21-.3-.36-.52-.45a.2.2 0 0 1-.14-.2c0-.04 0-.07.02-.1.04-.08.1-.12.18-.14.3-.05.45-.22.46-.5 0-.04.02-.09.05-.13a.22.22 0 0 1 .13-.07c.27-.05.48.03.64.22.05.07.07.14.05.22-.07.25-.24.34-.5.27-.12-.02-.18.02-.2.13-.02.13.02.24.13.32.22.19.4.4.52.62.05.09.13.13.23.14a.7.7 0 0 1 .31.07c.13.06.17.16.13.3-.08.2 0 .34.23.39.07.02.13.06.18.12.13.21.12.41-.05.6a.25.25 0 0 1-.26.1l-.54-.1c-.16-.04-.2.02-.14.16.08.15.22.31.41.48Z" fill="#E2AA40"/><path d="M32.86 24.08c.07 0 .13 0 .2.02a.3.3 0 0 1 .2.24.13.13 0 0 1-.03.12.14.14 0 0 1-.11.04c-.25-.02-.48 0-.7.1-.14.05-.19.01-.12-.14.1-.22.3-.35.56-.38Z" fill="#94440A"/><path d="M29.84 25.8c-.02-.37.16-.56.53-.57.12 0 .18-.06.2-.18l.02-.18a.31.31 0 0 1 .2-.24c.35-.12.55 0 .63.36a.36.36 0 0 1-.15.37c-.2.13-.34.28-.45.47a.25.25 0 0 1-.25.13l-.3-.01c-.2-.01-.26.07-.2.25.14.4 0 .57-.44.52a.46.46 0 0 1-.25-.11.44.44 0 0 1-.14-.23c-.04-.18 0-.31.13-.41.04-.04.1-.06.16-.06l.23-.02c.06 0 .08-.03.08-.09ZM28.2 25c.01.32-.14.59-.46.8-.14.09-.25.06-.34-.09l-.14-.24a.29.29 0 0 1 0-.3c.16-.24.47-.3.93-.17Z" fill="#E2AA40"/><path d="M39.85 25.09a12.43 12.43 0 0 1-.35 11.99c-.4.72-.87 1.39-1.44 1.99-1.87 2-4.1 3.3-6.7 3.91-1.91.32-3.7.31-5.38-.01-.34 0-.62-.04-.83-.1a13.6 13.6 0 0 1-7.41-5.24c-.57-.8-1.06-1.86-1.46-3.18 0-.2-.07-.43-.19-.7-.08-.2 0-.34.26-.43 1.12.57 2.03.4 2.73-.52.73-.97-.6-2.7-1.33-3.31-.36-.31-.66-.71-.89-1.2a.52.52 0 0 1 .18-.64c.93-.65 1.59 1.29 1.66 1.84.06.37.28.64.33 1 .02.15.07.28.17.4.52.64 1.1 1.02 1.75 1.13.4.06.42.19.06.36a4.9 4.9 0 0 0-2.25 1.88.27.27 0 0 0-.01.26c.35.74.93 1.3 1.76 1.53a5.8 5.8 0 0 1 1.87.87c.73.51 1.6.8 2.62.84.95.04 1.95.03 3.02-.04.34-.02.65.03.93.15 1.35.6 2.73.4 4.13-.6.1-.07.2-.11.3-.12 1.41-.1 2.62-.5 3.44-1.7.95-1.36 2.47-2.82 2.18-4.64a.38.38 0 0 0-.12-.22c-1.02-.98-.25-1.57.01-2.55a5 5 0 0 0 .06-2.42c-.06-.26.04-.43.3-.51.44-.14.64-.15.6-.02Z" fill="#E97C03"/><path d="m15.54 31.41.05-.53c.01-.1.06-.17.14-.22l.78-.48c.1-.06.15-.15.15-.27a1.64 1.64 0 0 0-.44-1 .45.45 0 0 1-.1-.25 4.72 4.72 0 0 1 .67-3c.58-.75 1.32-.91 2.21-.5.53.25.95.8 1.27 1.66.04.1.12.16.23.17.33.04.65.16.95.37.48.34 1.03.17 1.3-.33.04-.1.06-.2.04-.3a.97.97 0 0 1 1.35-1.08c1.3.6 1.43 1.63 1.7 2.84.2.94 1.09 2.08 2.25 1.93.12-.02.2.03.21.15.03.13-.02.23-.14.3-.65.37-1.33.63-2.06.8a.6.6 0 0 1-.58-.18 2.3 2.3 0 0 1-.7-1.9c.1-.7.24-1.5-.1-2.12-.45-.86-1.33-.59-1.65.16a3.45 3.45 0 0 0-.36 1.72c0 .1-.01.2-.07.29-.11.19-.26.36-.44.51a.6.6 0 0 1-.88-.13c-.42-.64-.6-1.4-.57-2.29 0-.05-.01-.1-.04-.14a.28.28 0 0 0-.1-.1l-.1-.06c-.11-.05-.16-.02-.16.1.01.51.05 1.04.1 1.57.05.42.3.84.73 1.26.85.8 1.88-.19 1.82-1.08 0-.23.02-.44.08-.65.04-.12.08-.12.12 0 .3.76.31 1.39.05 1.87a1.95 1.95 0 0 1-1.68 1.07c-.94.07-1.63-.27-2.07-1.02-.24-.4-.4-.85-.47-1.34-.14-.93-.7-2.34-1.94-2.17a.4.4 0 0 0-.24.13c-.98 1.03.3 2.06.73 2.93.05.1.14.19.26.23.5.2.8.59.94 1.17.2.92-.15 1.48-1.07 1.7-.64.16-1.3-.1-1.98-.75-.08-.08-.08-.16-.02-.25a.2.2 0 0 1 .12-.08c.12-.03.22-.01.31.06.24.17.49.2.74.1.67-.28 1.03-.72 1.06-1.34 0-.07 0-.13-.02-.2-.04-.19-.11-.25-.2-.18a.13.13 0 0 0-.04.07c-.4 1.34-1.12 1.6-2.14.78ZM33.6 26.15c-.1-.09-.2-.12-.27-.1-.12 0-.16.08-.12.19.07.17.04.3-.07.4a.42.42 0 0 1-.26.07l-.42-.01c-.11-.15-.13-.32-.04-.52a.3.3 0 0 1 .28-.18c.2 0 .3-.1.3-.28 0-.11.04-.21.12-.29.44-.4.93-.43 1.48-.07a.18.18 0 0 1 .08.14.17.17 0 0 1-.07.15l-.7.5a.24.24 0 0 1-.21.03l-.1-.03ZM32.02 26.1c.3-.03.51-.25.48-.49-.02-.24-.28-.4-.57-.37-.3.03-.51.25-.48.49.02.24.28.4.57.37Z" fill="#E2AA40"/><path d="M33.6 26.15a1 1 0 0 1 .2.32c.14.32.36.57.64.77a.15.15 0 0 1 .06.1.14.14 0 0 1-.03.11.25.25 0 0 1-.07.06.18.18 0 0 1-.14.03 7.4 7.4 0 0 0-.35-.06c-.15-.02-.18-.1-.12-.23.03-.05.04-.1.05-.15a.3.3 0 0 0-.12-.25c-.18-.15-.4-.14-.66.02.02-.16-.18-.2-.6-.1v-.07c.14.01.28.02.42.01.1 0 .2-.02.26-.07.11-.1.14-.23.07-.4-.04-.11 0-.18.12-.2.08-.01.17.02.26.1ZM35.5 26.94c-.18.14-.4.24-.63.28-.2.04-.23-.02-.13-.18.3-.46.75-.59 1.36-.4l.14.08.1.14c.01.05.02.1.01.15 0 .05-.02.1-.05.14-.04.05-.2-.03-.47-.22a.28.28 0 0 0-.33 0Z" fill="#94440A"/><path d="M32.45 26.76c.06.15.06.3.02.46-.02.1-.1.18-.2.2-.28.09-.5.06-.68-.08-.09-.07-.11-.16-.06-.26.17-.4.48-.5.92-.32Z" fill="#E2AA40"/><path d="M22.6 32a.06.06 0 0 1-.05-.01l-.01-.02v-.02a.6.6 0 0 1 .26-.45c1.18-.67 1.14-2.09.72-3.15a.63.63 0 0 1 .31-.83c.15-.08.3-.08.43 0 .59.31.35 1.66.29 2.19-.1.72.24 1.37.61 1.96a.13.13 0 0 1 0 .14.14.14 0 0 1-.13.05 5.59 5.59 0 0 0-2.43.14Z" fill="#E97C03"/><path d="M33.57 28.38a.7.7 0 0 0-.04.3c0 .12.06.17.17.17.58.01.83.25.75.72-.02.1.03.18.13.22.33.11.59.35.77.71.04.1.03.24 0 .42-.64-.07-1.04-.4-1.22-.98-.04-.13-.12-.19-.25-.18a.6.6 0 0 1-.3-.08c-.14-.08-.19-.04-.15.1a.7.7 0 0 0 .13.25c-.13.26-.37.3-.7.13-.32-.16-.5-.15-.5.04-.14-.12-.24-.19-.29-.2.29-.47.66-.63 1.12-.49.14.05.2 0 .14-.14a.85.85 0 0 1-.05-.27c0-.1-.05-.17-.14-.2-.18-.05-.3-.19-.35-.42a.28.28 0 0 1 .15-.31.3.3 0 0 1 .12-.04c.3-.01.47.07.51.25Z" fill="#E2AA40"/><path d="M30.52 28.75c.04.08 0 .13-.1.15a.96.96 0 0 1-.42-.01c-.15-.04-.17-.11-.08-.23.1-.11.22-.2.36-.28.14-.07.21-.03.22.12l.02.25Z" fill="#56340F"/><path d="M37.02 29.05c.52.13 1.08.4 1 1.04-.02.1-.08.15-.2.15-.84 0-1.64-.07-2.4-.24a.5.5 0 0 1-.3-.22.46.46 0 0 1-.05-.36c.04-.15.16-.22.35-.2.25 0 .46.11.62.3.18.23.3.2.36-.08.07-.35.28-.48.62-.39Z" fill="#E2AA40"/><path d="m12.78 29.66-.85.08c.2-.34.48-.37.85-.08Z" fill="#94440A"/><path d="m12.78 29.66 1.08.45c.1.04.16.12.16.23v.88c0 .1-.07.17-.18.18-.64.05-.97.39-.96 1-.34.41-.06 1.14-.02 1.64.01.1-.01.18-.07.26-.68.94-1.57.5-2.46.62l-.58-.26a5.79 5.79 0 0 0-2.82.17c-.55.29-1.04.5-1.49.66-.46.15-.56.03-.3-.38.46-.74.74-1.78 1.4-2.34.56-.49 1.2-.57 1.92-.23.44.52.91.94 1.43 1.26a1.4 1.4 0 0 0 1.54.05c.44-.25.65-.61.63-1.07-.01-.2-.1-.42-.28-.7a9.73 9.73 0 0 1-.4-.65c-.32-.68-.14-1.24.55-1.7l.85-.07Z" fill="#E2AA40"/><path d="M35.34 30.92c.23-.22.4-.13.52.28.05.2 0 .3-.17.27-.18-.2-.44-.31-.77-.33a.39.39 0 0 1-.26-.1l-.8-.71c-.2.03-.3-.07-.3-.3a.7.7 0 0 1-.13-.25c-.04-.14 0-.18.14-.1.11.05.21.08.31.08.13 0 .21.05.25.18.18.59.58.91 1.21.98Z" fill="#94440A"/><path d="M33.56 30.03c0 .23.1.33.3.3-.22.02-.36.09-.41.2a.2.2 0 0 0 .05.25c.4.38.86.65 1.39.81.1.03.27.16.52.38.08.06.16.07.24 0 .1-.07.12-.24.04-.5.17.02.22-.07.17-.27-.11-.4-.29-.5-.52-.28a.74.74 0 0 0 .01-.42l2.15.13c.1 0 .17.04.22.12l.03.07a.12.12 0 0 0 .08.08.13.13 0 0 0 .11-.02l.17-.12a.3.3 0 0 1 .43.08c.03.05.05.1.05.15v1c0 .16-.06.29-.17.39-.3.26-.45.6-.46 1.04a.16.16 0 0 1-.07.12.17.17 0 0 1-.13.03.2.2 0 0 0-.15.03.42.42 0 0 0-.14.15 2.8 2.8 0 0 1-.71.9 2.35 2.35 0 0 1-.17-1.58c.02-.09 0-.17-.07-.24a.72.72 0 0 1-.18-.68.13.13 0 0 0-.06-.14.14.14 0 0 0-.15 0l-.92.69a.27.27 0 0 1-.02-.08c-.01-.04-.04-.07-.08-.08h-.13a.5.5 0 0 0 .12-.22c0-.04 0-.08-.02-.11a.18.18 0 0 0-.1-.08 3.38 3.38 0 0 1-1.3-.86c-.13-.13-.3-.22-.5-.17-.13.04-.21 0-.24-.14a.58.58 0 0 1-.01-.2.28.28 0 0 0-.08-.23c-.13-.14-.3-.25-.5-.33.02-.19.19-.2.51-.04.33.17.57.13.7-.13Z" fill="#C1852C"/><path d="m33.86 30.33.8.7c.07.07.16.1.26.11.33.02.6.13.77.33.08.26.07.43-.04.5-.08.07-.16.06-.24 0a2.1 2.1 0 0 0-.52-.38c-.53-.16-1-.43-1.4-.8a.2.2 0 0 1-.04-.25c.05-.12.19-.2.4-.21ZM30.42 31.26l-.26.17a.26.26 0 0 1-.31-.03l-.18-.16a.25.25 0 0 1-.03-.34l.26-.3a.25.25 0 0 1 .21-.09.26.26 0 0 1 .2.12l.19.29a.24.24 0 0 1-.08.34Z" fill="#E2AA40"/><path d="M11.38 31.43c.12.22.25.44.4.66.18.27.27.5.28.7.02.45-.2.8-.63 1.06a1.4 1.4 0 0 1-1.54-.05c-.52-.32-1-.74-1.43-1.26.46.14.84.18 1.15.14.15.17.46.22.94.16a.78.78 0 0 1-.44.28.15.15 0 0 0-.1.2c0 .02.03.05.05.06.4.32.8.34 1.17.05.52-.4.47-.8-.17-1.22.24-.29.34-.55.31-.78Z" fill="#94440A"/><path d="M29.66 32.9c-.28-.42-.58-.7-.63-1.2a.25.25 0 0 1 .11-.23.26.26 0 0 1 .27-.01c.66.33.81.8.45 1.42-.06.11-.13.11-.2.01ZM30.49 32.3c.2.2.5.24.66.08.16-.16.14-.45-.07-.65-.2-.2-.5-.23-.66-.07-.16.15-.13.44.07.64ZM26.48 37.37l-.64-.12c-.1-.02-.16-.08-.16-.18 0-.15.08-.26.24-.32.2-.08.39-.15.6-.2a.44.44 0 0 0 .22-.13l.89-1a.17.17 0 0 0 0-.22c-.43-.56-1.14-.55-1.78-.68a.4.4 0 0 0-.32.07c-.38.26-.74.59-1.08.96a.33.33 0 0 0-.09.25c0 .1.05.17.13.23.13.1.12.12-.04.09-.38-.08-.7.27-.77.6-.04.17-.2.23-.47.17a9.63 9.63 0 0 0-3.2-1.5.22.22 0 0 1-.11-.1.21.21 0 0 1-.04-.13v-.1c0-.05.04-.08.1-.08h.67a.22.22 0 0 0 .21-.14.21.21 0 0 0 .01-.09v-.17c-.02-.18-.13-.27-.32-.25a.62.62 0 0 0-.48.28c-.18.26-.4.3-.67.14l-.12-.08a.37.37 0 0 1-.17-.26.35.35 0 0 1 .1-.3 5.93 5.93 0 0 1 3.32-1.76c.59-.06 1.15-.24 1.75-.2.7.05 1.33 0 1.9-.15.29-.08.46.03.5.33.18 1.43.98 2.34 2.07 3.22.17.14.14.2-.07.2-.27.01-.51.16-.72.45-.54.76-1.03 1.15-1.46 1.17ZM36.76 34.65a2.6 2.6 0 0 1-.75 1.1.4.4 0 0 1-.33.09c-.3-.06-.5.04-.62.3a.33.33 0 0 1-.27.2c-.64.1-1.44.52-1.83-.28a.15.15 0 0 1 .03-.17.17.17 0 0 1 .18-.04l.47.18c.12.05.2.01.23-.11l.09-.4.01-.03.04-.02h.03l.03.03c.13.19.32.28.57.26.04 0 .08-.02.11-.05a.17.17 0 0 0 .06-.1c.04-.37.26-.54.66-.52.11 0 .21-.03.3-.11a.81.81 0 0 0 .2-.89.15.15 0 0 0-.04-.06.16.16 0 0 0-.22 0l-.42.4c-.08.07-.17.08-.27.02a4.07 4.07 0 0 1-1.18-1c-.05-.08-.13-.1-.22-.07a.61.61 0 0 1-.34.02.41.41 0 0 1-.2-.11.4.4 0 0 1-.08-.42.4.4 0 0 1 .14-.17c.27-.2.48-.17.64.09.05.07.06.16.05.25l-.03.13a.1.1 0 0 0 .06.1.1.1 0 0 0 .04.01l.87-.02a.28.28 0 0 0 .21-.1c.1-.14.18-.3.23-.46l.92-.68a.14.14 0 0 1 .15 0 .13.13 0 0 1 .06.13c-.05.27 0 .5.18.68.07.07.1.15.07.24-.13.52-.07 1.05.17 1.58ZM11.06 32.21c.64.41.7.82.17 1.22-.37.29-.76.27-1.17-.05a.15.15 0 0 1-.06-.14.15.15 0 0 1 .11-.12.77.77 0 0 0 .44-.28c.2-.17.37-.38.51-.63Z" fill="#E2AA40"/><path d="m12.88 32.4.23 1.5c.01.1 0 .18-.05.26-.66 1.05-1.57 1.3-2.73.76.89-.11 1.78.32 2.46-.62a.36.36 0 0 0 .07-.26c-.04-.5-.32-1.23.02-1.65Z" fill="#94440A"/><path d="M33.1 34.51c.05-.4.25-.58.6-.55.07.01.14.04.2.08.05.05.1.1.12.18a.36.36 0 0 1-.1.38 1.7 1.7 0 0 1-1.38.38 3.96 3.96 0 0 1-2.64-1.59c-.1-.13-.08-.25.03-.36l.37-.34c.18-.17.34-.16.5.04a.5.5 0 0 1 .1.2.36.36 0 0 1-.14.37l-.15.16c-.1.13-.06.18.1.15l.27-.04a.4.4 0 0 1 .2.03c.4.19.52.48.39.9a.1.1 0 0 0 0 .05c0 .02.01.04.03.05a.1.1 0 0 0 .12 0l.51-.3a.25.25 0 0 1 .33.05c.09.12.2.21.35.27.12.06.19.02.2-.1Z" fill="#E2AA40"/><path d="M31.6 33.36c.22 0 .41-.19.41-.4 0-.23-.19-.41-.42-.41a.41.41 0 0 0-.41.4c0 .22.19.4.41.4Z" fill="#E2AA40"/><path d="M22.8 33.93c-.16-.08-.17-.17-.04-.28.27-.22.53-.43.8-.62.8-.57 1.32.28 1.9.61l.06.08a.17.17 0 0 1-.03.2.18.18 0 0 1-.1.05c-.28.05-.54.16-.77.33a.6.6 0 0 1-.47.1c-.4-.08-.84-.24-1.35-.47Z" fill="#230F02"/><path d="M32.48 34.02c.33-.03.58-.21.56-.4-.01-.2-.3-.35-.62-.32-.33.03-.58.21-.56.41.02.2.3.34.62.31Z" fill="#E2AA40"/><path d="M26.48 37.37c-.68.1-1.35.08-2-.06a4.47 4.47 0 0 1-1.27-.42c.27.06.43 0 .47-.17.07-.33.39-.68.77-.6.16.03.17 0 .04-.09a.3.3 0 0 1-.13-.23c0-.1.03-.18.09-.25.34-.37.7-.7 1.08-.96a.4.4 0 0 1 .32-.07c.64.13 1.35.12 1.78.68a.17.17 0 0 1 0 .22l-.89 1a.44.44 0 0 1-.23.13c-.2.05-.4.12-.6.2-.15.06-.22.17-.23.32 0 .1.05.16.16.18l.64.12Z" fill="#C1852C"/><path d="M34.63 34.71a.12.12 0 0 1 .08.06.12.12 0 0 1 0 .1.44.44 0 0 1-.35.26c-.14.02-.21-.04-.21-.18v-.17c0-.16.07-.21.23-.16l.25.09ZM32.3 36.76c.36.17.71.18.79.03.07-.15-.16-.41-.52-.58-.36-.17-.71-.18-.79-.03-.07.16.16.42.52.58ZM27.98 36.65c-.28.35-.41.7-.3.8.13.1.46-.1.74-.45.29-.34.42-.7.3-.8-.13-.09-.46.11-.74.45ZM31.2 37.16c.49.33.97.47 1.08.32.11-.16-.2-.55-.7-.88-.5-.33-.98-.47-1.09-.32-.1.15.2.55.7.88ZM29.61 36.5c-.07.33-.08.67-.02 1.03a.13.13 0 0 1-.05.12.13.13 0 0 1-.13.02l-.5-.18c-.1-.05-.16-.13-.14-.24.05-.5.28-.8.7-.89a.13.13 0 0 1 .1.03.12.12 0 0 1 .04.11ZM31.26 37.68v.02c-.12.13-.3.2-.5.18a.92.92 0 0 1-.55-.23l-.04-.05a.95.95 0 0 1-.2-.24.8.8 0 0 1-.1-.27c-.01-.1 0-.19.02-.27a.54.54 0 0 1 .12-.22l.01-.01h.01l1.23 1.1Z" fill="#E2AA40"/><defs><linearGradient id="a1quvcfzq" x1="10.42" y1="9.71" x2="68.15" y2="76.02" gradientUnits="userSpaceOnUse"><stop stop-color="#1A1E21"/><stop offset="1" stop-color="#06060A"/></linearGradient></defs></svg>