<!-- by TradingView --><svg width="56" height="56" viewBox="0 0 56 56" xmlns="http://www.w3.org/2000/svg"><path fill="#F0F3FA" d="M0 0h56v56H0z"/><path d="m23.33 21.53-.21-1.13a.41.41 0 0 1 .1-.35c.3-.38.39-.85.22-1.4a.5.5 0 0 1 .14-.54c.46-.46.7-1.03.73-1.7 0-.17.09-.3.24-.37.49-.25.88-.64 1.17-1.17a.46.46 0 0 1 .16-.18l2.4-1.6a.5.5 0 0 1 .38-.08.5.5 0 0 1 .32.2c.8 1.06 1.49 2.16 2.04 3.29.07.16.2.38.4.66.2.29.33.5.4.67.12.25.17.52.17.8 0 .14.05.26.16.36.17.15.28.31.33.5.03.11.05.28.05.5 0 .19.02.33.04.43.03.15.1.28.22.4.12.13.17.28.14.45-.08.6-.07 1.15.05 1.64.05.21.01.4-.11.57-.25.36-.31.7-.17 1.03.06.13.04.26-.04.37l-1.15 1.48c-.04.06-.1.1-.16.13-.9.47-1.87.95-2.91 1.44a.92.92 0 0 0-.58.86c0 .24-.1.27-.26.1-.45-.47-.95-.91-1.52-1.33a11.4 11.4 0 0 1-2.5-2.68.56.56 0 0 1-.1-.4 3.47 3.47 0 0 0-.43-2.05c-.08-.13-.06-.25.04-.36l.13-.15c.1-.11.14-.25.1-.4Z" fill="#729116"/><path d="m24.68 23.25-.91-2.26c-.08-.2-.02-.25.17-.15s.39.33.59.7c.19.33.37.57.54.69.21.15.4.34.56.57a16 16 0 0 0 1.76 2.1c.13.12.28.2.45.22.18.01.35-.03.5-.12l1.9-1.24a.23.23 0 0 1 .22-.03c.08.04.13.1.14.18l.05.22c.04.21-.03.37-.23.48-.98.52-1.89.92-2.72 1.2a.58.58 0 0 1-.4-.01.57.57 0 0 1-.31-.28 6.8 6.8 0 0 0-1.76-2.2.16.16 0 0 0-.13-.04.17.17 0 0 0-.12.07l-.08.13c-.1.13-.08.26.04.38l1.76 1.85c.1.1.16.22.2.36.09.39.32.63.7.74a.5.5 0 0 0 .45-.09c.8-.6 1.68-1.14 2.65-1.63.08-.05.12-.02.13.07l.04.61c.01.08-.02.13-.09.15-.88.4-1.7.84-2.44 1.34-.27.18-.57.23-.89.15a1.04 1.04 0 0 1-.7-.57c-.26-.53-.56-1.06-.9-1.6a1.64 1.64 0 0 0-1.07-.8.25.25 0 0 1-.2-.17c-.1-.28-.08-.53.07-.74a.29.29 0 0 0 .03-.28Z" fill="#5C770D"/><path d="M42.71 25.18c-.13.6-.36 1.01-.7 1.22-.19.11-.37.26-.53.42-.16.15-.28.32-.36.51-.13.27-.31.47-.55.58a.37.37 0 0 0-.22.27 2.67 2.67 0 0 1-1.1 1.58c-.14.1-.12.17.05.21.65.15 1.08-.04 1.3-.57.11-.27.37-.64.77-1.1.29-.33.5-.6.6-.78.04-.07.1-.13.16-.17.06-.05.13-.06.22-.02.12.06.23.03.3-.1.28-.4.57-.65.89-.7.97-.2 1.07.02.27.66a2 2 0 0 1-1.24.36c-.14 0-.23.07-.27.21a3.28 3.28 0 0 1-1.36 1.83v.04l.06.08c.05.1.12.1.2.05.51-.37 1.08-.39 1.7-.05.15.09.26.21.32.38a.9.9 0 0 0 .33.45c.6.43.54.56-.16.4-.34-.08-.66-.2-.97-.35a2.45 2.45 0 0 0-1.18-.13h-.18c-.15.02-.21.1-.2.25 0 .04 0 .09.03.13.17.26.12.32-.15.16-.3-.17-.6-.33-.92-.48-.06-.03-.1 0-.1.06l-.04.14c-.04.2.02.37.17.5l1.4 1.18c.16.12.15.23-.02.32a.27.27 0 0 1-.27 0 .37.37 0 0 1-.17-.19c-.15-.4-.43-.52-.84-.38-.82.3-1.3.08-1.48-.65 0-.06-.04-.07-.08-.03-.15.13-.31.11-.5-.05-.14-.13-.17-.27-.08-.44l1.03-2.01c.03-.06.02-.1-.03-.14l-.2-.15c-.08-.07-.15-.05-.2.05l-.79 1.6a.46.46 0 0 1-.24.23l-.47.2c-.04.02-.08 0-.12-.03-.03-.04-.03-.08 0-.13.52-.9 1-1.79 1.44-2.66.05-.1.31-.47.79-1.1.31-.43.45-.92.42-1.5.53.03 1.06-.07 1.59-.3a.41.41 0 0 1 .23-.04l1.45.18Z" fill="#729116"/><path d="m44.72 32.53-2.28-.86c-.2-.07-.26 0-.18.2.08.2.13.4.17.62.02.17-.05.28-.2.33-.24.08-.29.22-.16.43.06.09.07.18.02.28a.24.24 0 0 1-.25.13c-.83-.05-1.4-.37-1.71-.94-.1-.18-.16-.16-.18.04-.01.05-.03.09-.07.12-.1.07-.22.09-.34.05l-1.25-.43a.8.8 0 0 1-.4-.33 2.5 2.5 0 0 0-1.07-.89c-.12-.06-.23-.03-.31.1l-.08.1c-.03.05-.03.1.02.13l2.34 1.76c.17.13.17.25 0 .38a.22.22 0 0 1-.24.02c-.07-.03-.14-.02-.2.04a.18.18 0 0 0-.05.2.5.5 0 0 0 .1.18c.17.2.13.25-.11.14a.53.53 0 0 1-.28-.27.92.92 0 0 0-.2-.28L35.98 32c-.33-.32-.36-.66-.1-1.04.55-.79 1-1.61 1.38-2.48.05-.1.02-.17-.09-.2l-.19-.04c-.08-.01-.14.01-.18.09-.35.65-.68 1.3-1 1.94-.1.19-.24.38-.43.57-.15.15-.28.33-.38.53a.7.7 0 0 0 .19.88l2.43 1.87c.08.06.1.15.06.25-.05.1-.12.13-.23.1a.8.8 0 0 0-.33-.02.72.72 0 0 1-.63-.2l-1.74-1.64c-.21-.2-.32-.44-.33-.74-.01-.3.08-.54.28-.76.49-.53.92-1.15 1.28-1.87.05-.08.04-.15-.03-.22l-.13-.14c-.05-.05-.09-.05-.13 0l-.72.99c-.16.21-.24.18-.25-.09 0-.1.01-.2.05-.28.12-.26.28-.5.48-.73.23-.25.5-.43.8-.56.9-.38 1.75-.95 2.57-1.7.1-.1.15-.22.13-.37l-.05-.4c.18-.18.43-.32.75-.41a2.2 2.2 0 0 1-.42 1.5c-.48.63-.74 1-.79 1.1a45.4 45.4 0 0 1-1.45 2.66c-.02.05-.02.09.01.13.04.04.08.05.12.03l.47-.2c.1-.05.19-.13.24-.23l.8-1.6c.04-.1.1-.12.2-.05l.2.15c.04.04.05.08.02.14l-1.03 2c-.09.18-.06.33.08.45.19.16.35.18.5.05.04-.04.07-.03.08.03.17.73.66.95 1.48.65.4-.14.69-.02.84.38.03.08.09.15.17.2.09.04.18.04.27 0 .17-.1.18-.21.03-.33l-1.41-1.19a.46.46 0 0 1-.17-.49l.03-.14c.02-.07.05-.09.11-.06.32.15.62.3.92.48.27.16.32.1.15-.16a.27.27 0 0 1-.04-.13c0-.15.07-.23.2-.24l.2-.01c.52-.04.9 0 1.17.13.31.15.63.27.97.35.7.16.76.03.16-.4a.9.9 0 0 1-.33-.45.65.65 0 0 0-.32-.38c-.62-.34-1.19-.32-1.7.05-.08.06-.15.04-.2-.05l-.06-.08v-.04a3.29 3.29 0 0 0 1.36-1.83c.04-.14.13-.2.27-.2a2 2 0 0 0 1.24-.37c.8-.64.7-.86-.27-.67-.32.06-.61.3-.89.72-.07.12-.18.15-.3.09-.09-.04-.16-.03-.22.02a.6.6 0 0 0-.16.17 6.6 6.6 0 0 1-.6.78c-.4.46-.66.83-.77 1.1-.22.53-.65.72-1.3.57-.17-.04-.19-.1-.04-.2.57-.42.93-.94 1.09-1.59.03-.13.1-.22.22-.27.24-.11.42-.3.55-.58.08-.2.2-.36.36-.51.16-.16.34-.3.54-.42.33-.2.56-.61.7-1.22.47-.23.88-.18 1.23.15.1.1.23.17.36.21.1.03.23.07.4.1.44.11.76.24.96.4.66.54 1.38 1.04 2.14 1.51.1.06.16.15.18.27a.4.4 0 0 1-.07.32l-3.2 4.39Z" fill="#5C770D"/><path d="m38.7 25.76.04.4a.41.41 0 0 1-.13.36 9.04 9.04 0 0 1-2.58 1.7c-.3.13-.56.31-.79.56-.2.22-.36.46-.48.73a.6.6 0 0 0-.05.28c.01.27.1.3.25.09l.72-.98c.04-.06.08-.06.13 0l.13.13c.07.07.08.14.03.22-.36.72-.8 1.34-1.28 1.87-.2.22-.3.47-.28.76 0 .3.12.54.33.74l1.74 1.65c.18.16.39.23.63.2a.8.8 0 0 1 .33.01c.1.03.18 0 .23-.1.04-.1.02-.19-.06-.25l-2.43-1.87a.7.7 0 0 1-.19-.88c.1-.2.23-.38.38-.53.19-.2.33-.38.42-.57.33-.64.66-1.29 1.01-1.94.04-.08.1-.1.18-.09l.2.05c.1.02.13.08.08.18-.37.88-.83 1.7-1.38 2.49-.26.38-.23.72.1 1.04l1.83 1.77c.09.08.15.17.2.28.06.12.15.21.28.27.24.11.28.06.1-.14a.5.5 0 0 1-.09-.18.18.18 0 0 1 .05-.2c.06-.06.13-.07.2-.04.09.03.16.03.23-.02.18-.13.18-.25.01-.38l-2.34-1.76c-.05-.04-.05-.08-.02-.13l.08-.1c.08-.13.19-.16.31-.1.45.2.8.5 1.06.9.1.15.24.26.41.32l1.25.43c.12.04.23.02.34-.05a.15.15 0 0 0 .07-.12c.02-.2.08-.22.18-.04.31.57.88.89 1.71.94.11.01.2-.03.25-.13.05-.1.04-.2-.02-.28-.13-.21-.08-.35.16-.43.15-.05.22-.16.2-.33a3.08 3.08 0 0 0-.17-.62c-.08-.2-.02-.27.18-.2l2.28.86a2.5 2.5 0 0 0-1.27 1.08c-.1.18-.26.3-.46.37-.35.1-.61.3-.8.57-.13.19-.3.3-.5.35-.47.11-.87.3-1.22.56a.65.65 0 0 1-.54.13c-.47-.08-.87.02-1.21.3a.36.36 0 0 1-.43.06 5.25 5.25 0 0 0-1.41-.47.82.82 0 0 1-.43-.21l-2.44-2.28a.51.51 0 0 0-.48-.13l-.32.06c-.2.04-.26-.04-.17-.23.3-.66.53-1.32.7-1.97.25-1 .77-2.07 1.55-3.21a.62.62 0 0 1 .3-.24 3.96 3.96 0 0 0 1.62-1.09c.1-.1.22-.16.36-.15.42.02.8-.07 1.12-.27Z" fill="#729116"/><path d="M12.96 25.28a25.62 25.62 0 0 0 2.56 3.02.87.87 0 0 1 .24.55c.01.18.09.32.22.42l.53.4c.17.14.16.23-.05.3-.48.12-.8 0-.97-.4a3.1 3.1 0 0 0-1.22-1.45c-.3-.2-.4-.12-.3.24.12.37.31.69.6.96.15.16.12.24-.1.26l-.93.08a.57.57 0 0 0-.34.16l-.93.9c-.33.32-.28.44.17.35.33-.07.64-.22.92-.43a.63.63 0 0 1 .5-.13c.29.04.55.01.8-.1.17-.08.31-.05.42.1.05.07.07.13.06.2-.02.25.08.34.31.26l.23-.07c.6-.15.67-.01.22.43-.41.41-.86.83-1.35 1.25a.15.15 0 0 0-.05.14c.01.05.04.1.09.12l.75.3a.9.9 0 0 1-.57.33.7.7 0 0 1-.57-.15 1.54 1.54 0 0 1-.54-1.58c.01-.07-.01-.13-.07-.17-.06-.04-.12-.04-.18.01-.65.5-1.38.76-2.19.75L8.1 28.18a.46.46 0 0 1-.08-.38c.03-.13.1-.23.22-.3.66-.37 1.29-.8 1.87-1.29.2-.17.41-.3.63-.38a5.02 5.02 0 0 1 .87-.2c.14-.04.25-.1.34-.21.44-.49.78-.53 1.02-.14Z" fill="#5C770D"/><path d="M11.22 32.33c.81 0 1.54-.24 2.19-.75.06-.05.12-.05.18 0 .06.03.08.09.07.16-.13.63.05 1.16.54 1.58a.7.7 0 0 0 .57.15.9.9 0 0 0 .57-.32l-.75-.31a.14.14 0 0 1-.09-.12c0-.06.01-.1.05-.14.49-.42.94-.84 1.35-1.25.45-.44.37-.58-.22-.43l-.23.07c-.23.08-.33 0-.31-.26a.27.27 0 0 0-.06-.2c-.11-.15-.25-.18-.42-.1-.25.11-.51.14-.8.1a.63.63 0 0 0-.5.13c-.28.21-.59.36-.92.43-.45.09-.5-.03-.17-.35l.93-.9c.1-.09.2-.14.34-.16l.94-.08c.21-.02.24-.1.08-.26-.28-.27-.47-.59-.58-.96-.12-.36-.02-.44.3-.24a3.16 3.16 0 0 1 1.2 1.45c.18.4.5.52.98.4.2-.07.22-.16.05-.3l-.53-.4a.54.54 0 0 1-.22-.42.87.87 0 0 0-.24-.55 25.62 25.62 0 0 1-2.56-3.02l1.61-.27c.15-.02.28 0 .4.07.5.28 1.01.38 1.53.3a.5.5 0 0 1 .4.13c.45.39.94.58 1.48.57a.5.5 0 0 1 .39.18c.45.48.97.83 1.55 1.03a.7.7 0 0 1 .34.26c.93 1.3 1.54 2.71 1.84 4.24a2.53 2.53 0 0 0 .44.9c.11.2.07.26-.14.21-.42-.1-.79 0-1.11.32-.73.71-1.45 1.4-2.17 2.06a.85.85 0 0 1-.45.23c-.51.08-.98.23-1.4.45a.31.31 0 0 1-.38-.05c-.35-.29-.77-.4-1.25-.3a.68.68 0 0 1-.58-.16 2.84 2.84 0 0 0-.81-.42c-.41-.15-.7-.31-.9-.49a4.66 4.66 0 0 0-.6-.44 3.64 3.64 0 0 1-.8-.64c-.35-.4-.73-.78-1.13-1.13Z" fill="#729116"/><path d="m21.43 31.98.1.33c.01.05 0 .1-.04.13l-2.16 1.95a.12.12 0 0 1-.08.04l-.8-.04c-.06 0-.1-.03-.11-.09-.02-.06 0-.1.04-.14l2.87-2.24a.1.1 0 0 1 .1-.02c.04.01.07.04.08.08Z" fill="#5C770D"/><path d="M33 35a4.94 4.94 0 0 1-1.47 3.53 4.96 4.96 0 0 1-5.44 1.09A4.96 4.96 0 0 1 23 35a4.94 4.94 0 0 1 1.47-3.53 4.96 4.96 0 0 1 5.44-1.09A4.96 4.96 0 0 1 33 35Z" fill="#6BC4EF"/><path d="M25.8 36.94a.28.28 0 0 1-.14-.12c-.63-1-.7-2.03-.18-3.1l-.01-.05a.06.06 0 0 0-.04-.02c-.02 0-.04 0-.04.02a3.87 3.87 0 0 0 0 2.97l-.1.04c-.08.03-.13 0-.17-.06a3.94 3.94 0 0 1-.3-2.41c-.02-.02-.03-.02-.05-.02l-.02.03a37.13 37.13 0 0 1-.05 1.62l-.01-.01c-.12-.8-.05-1.6.2-2.4.07-.17.17-.3.31-.4.15-.1.35-.26.62-.5.49-.45.89-.71 1.2-.8a3.42 3.42 0 0 1 3.11.5c.27.2.24.23-.06.12a.75.75 0 0 1-.34-.26c-.01-.02-.03-.03-.06-.01-.06.03-.07.06-.04.09 1.62 1.2 1.95 2.72.98 4.59-.07.12-.14.12-.21 0-.03-.04-.04-.09-.01-.13.05-.12.04-.13-.03-.01-.17.26-.36.47-.57.65-1.37 1.1-2.63 1.04-3.78-.2a.5.5 0 0 0-.2-.13Z" fill="#168DCD"/><path d="M28.23 36.94c1.18-.13 2.05-1.12 1.93-2.21-.12-1.1-1.17-1.89-2.35-1.76-1.19.13-2.05 1.12-1.93 2.21.11 1.1 1.17 1.88 2.35 1.76Z" fill="#0064B0"/></svg>