<!-- by TradingView --><svg width="56" height="56" viewBox="0 0 56 56" xmlns="http://www.w3.org/2000/svg"><path fill="#F0F3FA" d="M0 0h56v56H0z"/><path fill-rule="evenodd" d="M10 32.82v-.57h36v.57H10Zm0 .54h36v.57H10v-.57Zm0 1.1h36v.58H10v-.57Zm0 1.12h36v.57H10v-.57Zm0 1.1h36V37H10v-.31Zm11 .86h13v.83H21v-.83Zm0 1.37h13v.57H21v-.57Zm0 1.1h13v.58H21v-.57Zm0 1.12h13v.57H21v-.57Zm0 1.1h13v.58H21v-.58Zm0 1.11h13v.58H21v-.58Zm0 1.11h13V45H21v-.55Zm25-20.5H10v-.58h36v.58Zm0-1.11H10v-.58h36v.58Zm0-1.11H10v-.58h36v.58Zm0-1.11H10v-.58h36v.58Zm0-1.11H10V19h36v.5ZM34 18.4H21v-.57h13v.57Zm0-1.11H21v-.57h13v.57Zm0-1.11H21v-.57h13v.57Zm0-1.11H21v-.57h13v.57Zm0-1.1H21v-.58h13v.57Zm0-1.12H21v-.57h13v.57ZM21 11v.74h13V11H21Zm-5.29 20h-1.45l2.28-6h1.4l2.29 6h-1.51l-.32-1h-2.35l-.34 1Zm1.71-4.04.66 2.04H16.4l.7-2.04h.32ZM11.6 31v-5H10v-1h4.58v1H13v5h-1.41Zm13.96 0H27l.35-1h2.34l.32 1h1.51l-2.3-6h-1.39l-2.28 6Zm3.81-2-.65-2h-.33l-.69 2h1.67Zm12.12 2h-1.45l2.28-6h1.4L46 31h-1.51l-.32-1h-2.35l-.34 1Zm1.71-4.04.66 2.04h-1.69l.7-2.04h.33ZM21 31v-6h3.2c1 0 1.81.93 1.81 2 0 1.07-.8 2-1.8 2h-1.7v2H21Zm2.6-5H22.5v2h1.1c.5 0 .9-.45.9-1s-.4-1-.9-1ZM32 31v-6h2.97c1.02 0 2.03.87 2.03 1.94 0 .82-.58 1.58-1.31 1.9l1.4 2.16h-1.43l-1.29-2h-.87v2H32Zm2.74-5H33.5v2h1.24c.42 0 .76-.45.76-1s-.34-1-.76-1ZM38 25h1.5v6H38v-6Z" fill="#21ACF2"/></svg>