<!-- by TradingView --><svg width="56" height="56" viewBox="0 0 56 56" xmlns="http://www.w3.org/2000/svg"><path fill="#F0F3FA" d="M0 0h56v56H0z"/><path fill-rule="evenodd" d="M43.46 35.98a11.1 11.1 0 0 0-1.2-3.83.23.23 0 0 1-.03-.18.23.23 0 0 1 .12-.15c1.65-.97 3.2-2.16 4.62-3.57.39-.38.76-.84 1.1-1.4.24-.37.54-.89.88-1.56.08-.14.06-.28-.05-.4l-2.01-2.07a.6.6 0 0 1-.16-.57l.33-1.52a.37.37 0 0 0-.08-.35 2.62 2.62 0 0 0-.8-.65c-1.36-.72-2.9-1.2-4.62-1.44-1.26-.19-2.9-.26-4.92-.23a.64.64 0 0 1-.37-.1.63.63 0 0 1-.25-.3 16.42 16.42 0 0 0-2.31-3.94c-1.17-1.48-2.34-2.38-3.5-2.7a.54.54 0 0 0-.35.02l-2.37.94c-.3.12-.62.13-.93.02l-1.92-.67a.88.88 0 0 0-.9.14 13.57 13.57 0 0 0-4.55 6.6.62.62 0 0 1-.6.43c-1.81 0-3.5.15-5.05.48-1.85.38-3.43.98-4.73 1.8a.77.77 0 0 0-.35.76l.27 1.95a.47.47 0 0 1-.1.37l-1.52 1.92a.46.46 0 0 0-.05.53c1.15 2.24 3.32 4.23 6.52 5.95.12.07.2.17.25.3.04.13.03.26-.03.38a10.3 10.3 0 0 0-.68 7.5c.13.44.5.75 1.15.94a8.55 8.55 0 0 0 1.97.25c.4.03.75.27 1.08.71.19.25.4.66.66 1.22l.05.1c.08.2.23.3.45.32 1.47.1 3.14-.18 4.99-.87a22.84 22.84 0 0 0 4.6-2.37c.2-.12.4-.13.6-.02 1.52.85 2.98 1.5 4.37 1.97 1.58.52 3.14.82 4.7.91.3.02.54-.1.72-.34.4-.53.76-1.1 1.12-1.7.17-.3.45-.5.83-.6.23-.07.6-.11 1.1-.14.5-.02.85-.07 1.05-.14a.92.92 0 0 0 .64-.63c.36-1.25.45-2.6.26-4.07Zm-.3-14.88c-2.84-.77-5.9-.74-9.21.1-.19.05-.3-.02-.31-.2-.17-1.48-.5-2.8-1.03-3.94a7.04 7.04 0 0 0-2.44-3.03.4.4 0 0 0-.37-.04l-.55.22c-.54.22-.95.37-1.22.44-.47.12-.87.14-1.19.04l-1.43-.44a.77.77 0 0 0-.73.14c-.91.72-1.6 1.72-2.08 3.02a10.72 10.72 0 0 0-.65 3.61.5.5 0 0 1-.19.4.5.5 0 0 1-.43.1 19.61 19.61 0 0 0-4.66-.42c-1.72.06-3.22.4-4.5.99-.4.18-.63.41-.7.7-.05.16-.04.44.03.83.06.3.08.54.08.7 0 .15-.04.28-.13.39l-.88 1.15a.5.5 0 0 0-.03.59c1.3 2.2 3.74 3.7 7.32 4.54.14.03.23.12.28.26.04.13.02.26-.08.37a9.56 9.56 0 0 0-2.4 6.41c0 .57.3.9.9.99.68.1 1.34.22 1.98.34.17.04.31.13.41.28l.18.3c.25.43.46.74.62.93.3.32.58.45.86.38 1.5-.32 2.85-.85 4.06-1.57 1.04-.62 2.15-1.5 3.32-2.64.13-.13.27-.14.42-.03 1.4 1.1 2.58 1.91 3.55 2.46a9.45 9.45 0 0 0 4.18 1.4c.18.01.34-.03.48-.13.14-.1.24-.23.3-.4.15-.48.39-.9.7-1.26a.78.78 0 0 1 .49-.26l1.84-.3a.78.78 0 0 0 .47-.26c.13-.14.2-.3.2-.48a8.3 8.3 0 0 0-.67-3.53 11 11 0 0 0-1.89-3.06.43.43 0 0 1-.1-.43.43.43 0 0 1 .31-.31 17.35 17.35 0 0 0 3.88-1.68c1.22-.75 2.24-1.7 3.09-2.84a.52.52 0 0 0 .1-.39.53.53 0 0 0-.2-.35c-.46-.38-.87-.8-1.24-1.27-.18-.23-.26-.5-.26-.84.01-.2.06-.5.16-.9.13-.57-.08-.93-.64-1.08Z" fill="#5775B7"/></svg>