<!-- by TradingView --><svg width="56" height="56" viewBox="0 0 56 56" xmlns="http://www.w3.org/2000/svg"><path fill="#F0F3FA" d="M0 0h56v56H0z"/><path fill-rule="evenodd" d="m28 10 8 4.17v9.66L28 28l-8-4.17v-9.66L28 10Zm-1 19.17L19.5 25 12 29.17v9.66L19.5 43l7.5-4.17v-9.66Zm17 0L36.5 25 29 29.17v9.66L36.5 43l7.5-4.17v-9.66ZM25 17h2v6h2v-6h2v-2h-6v2Zm-5.04 21c1.2 0 2.26-.53 2.99-1.38l-1.01-1.34c-.41.44-1.03.72-1.71.72C19 36 18 35.1 18 34s1-2 2.23-2c.72 0 1.36.3 1.77.78l1-1.34A3.93 3.93 0 0 0 19.96 30 3.98 3.98 0 0 0 16 34c0 2.2 1.77 4 3.96 4ZM34 38h-2v-8h2l2.52 4.35L39 30h2v8h-2v-3.65L36.52 38 34 34.35V38Z" fill="#2CADE3"/></svg>