<!-- by TradingView --><svg width="56" height="56" viewBox="0 0 56 56" xmlns="http://www.w3.org/2000/svg"><path fill="#0F1D44" d="M0 0h56v56H0z"/><path d="M37.03 39.8c.34-.05.62-.14.76-.27s.21-.43.21-.88v-3.77c0-.7-.31-1.02-1-.92v-.26c.7-.21 1.23-.46 1.93-.7.03 0 .05.02.06.04a.3.3 0 0 1 .01.1v1.1c.45-.43.96-.72 1.22-.88.37-.24.77-.36 1.18-.36 1.22 0 1.6 1.25 1.6 2.3v3.47c0 .36.07.62.21.78.14.16.46.24.79.24V40h-2.95v-.2c.35-.06.6-.16.74-.3.14-.16.21-.49.21-1v-3.17c0-.73-.44-1.33-1.29-1.33-.48 0-1.37.37-1.71.72v4.16c0 .35.08.6.23.72.16.12.64.18.98.2v.2h-3.18v-.2ZM31 36.42C31 34.7 32.13 33 33.98 33c1.9 0 3.02 1.66 3.02 3.44 0 1.72-1.1 3.56-2.98 3.56-1.9 0-3.02-1.84-3.02-3.58Zm2.8-2.99c-1.31 0-1.8 1.65-1.8 2.65 0 1.2.65 3.5 2.24 3.5 1.3 0 1.76-1.71 1.76-2.69 0-1.2-.63-3.46-2.2-3.46ZM23 37.57h.23c.1.56.24.98.4 1.28.31.54.76.8 1.35.8.63 0 1.02-.45 1.02-1.07 0-.41-.14-.78-.7-1.14l-.73-.47c-.8-.47-1.57-1.1-1.57-2.11 0-1.05.8-1.86 1.85-1.86.23 0 .48.05.76.15.28.1.44.14.47.14.08 0 .14-.01.17-.04a.3.3 0 0 0 .1-.11h.15l.05 2.02h-.2a3.6 3.6 0 0 0-.36-1.1c-.27-.48-.66-.72-1.18-.72-.58 0-.81.48-.81 1.05 0 .88.95 1.32 1.6 1.7.93.56 1.4 1.22 1.4 1.96 0 1.19-.97 1.95-2.1 1.95-.26 0-.56-.05-.9-.15-.33-.1-.52-.14-.59-.14-.05 0-.1.02-.13.06a.4.4 0 0 0-.1.15H23v-2.35ZM20 31.5c0-.13.05-.25.14-.35.1-.1.22-.15.36-.15.14 0 .25.05.35.15.1.1.15.21.15.35 0 .14-.05.26-.15.36-.1.1-.21.14-.35.14a.49.49 0 0 1-.5-.5ZM19.83 39.52c-.12.13-.39.22-.83.27V40h3v-.2c-.4-.05-.72-.14-.83-.28-.11-.15-.17-.5-.17-1.07V33c-1 .5-1.23.55-1.68.73l-.26.1v.23a7.16 7.16 0 0 1 .5-.13c.2 0 .32.1.38.3.04.13.06.35.06.67v3.55c0 .58-.06.94-.17 1.07ZM29 31.5c0-.13.05-.25.14-.35.1-.1.22-.15.36-.15.14 0 .25.05.35.15.1.1.15.21.15.35 0 .14-.05.26-.15.36-.1.1-.21.14-.35.14a.49.49 0 0 1-.5-.5ZM28.83 39.52c-.12.13-.39.22-.83.27V40h3v-.2c-.4-.05-.72-.14-.83-.28-.11-.15-.17-.5-.17-1.07V33c-1 .5-1.23.55-1.68.73l-.26.1v.23a7.16 7.16 0 0 1 .5-.13c.2 0 .32.1.38.3.04.13.06.35.06.67v3.55c0 .58-.06.94-.17 1.07ZM12.91 29v.3c-.37 0-.62.04-.75.08-.24.09-.35.26-.35.52 0 .13.04.32.12.56l.47 1.2 2.3 5.7 2.09-6.17c.09-.27.16-.5.2-.68.06-.19.08-.34.08-.46 0-.31-.12-.52-.37-.64-.14-.06-.38-.1-.7-.1V29h3v.28c-.31.05-.54.14-.69.28-.22.2-.45.62-.67 1.25L14.4 40h-.22l-3.63-8.98a5.03 5.03 0 0 0-.74-1.42 1.2 1.2 0 0 0-.8-.32V29h3.91Z" fill="#EEE"/><path d="M38 26.73c1.23-.13 1.4-.75 1.4-1.91v-6.73l-.2-.23c-.21-.26-.4-.42-.54-.48a1.9 1.9 0 0 0-.66-.1V17h2.46L46 24v-4.82c0-1.13-.2-1.8-1.38-1.9V17H48v.28c-1.2.12-1.37.79-1.37 1.9V27h-.24L40 19v5.82c0 1.12.2 1.78 1.38 1.91V27H38v-.27Z" fill="#F34520"/><path d="M30 26.8c.81-.11 1-.5 1-1.29v-6.88c0-.51-.25-.87-.81-.76-.05 0-.1 0-.17.02v-.26c.7-.2 1.28-.41 1.98-.63v4.19A3.25 3.25 0 0 1 34.3 20c1.35 0 1.7 1.16 1.7 2.33v3.18c0 .73.22 1.19 1 1.29v.2h-3.1v-.2c.84-.12 1.1-.48 1.1-1.29v-3.16c0-.76-.34-1.55-1.22-1.55-.37 0-1.74.44-1.74.92v3.79c0 .81.15 1.17.98 1.29v.2H30v-.2ZM9.1 17h9.8l.1 3h-.42c-.2-.89-.46-1.64-.77-1.9-.32-.27-.84-.41-1.84-.41H15v7.5c0 .65.1 1.05.31 1.2.21.16.53.26 1.24.31v.3H11.5v-.3c.74-.05 1.06-.17 1.24-.35.18-.18.27-.63.27-1.35V17.7h-.83c-.96 0-1.62.13-1.97.4-.34.26-.6 1.02-.78 1.91H9l.1-3ZM27.48 20c.63 0 1.17.16 1.62.47.46.31.69.66.69 1.03 0 .4-.33.65-.71.65-.35 0-.63-.23-.75-.68-.17-.64-.38-1.05-1.09-1.05-1.4 0-2.24 1.44-2.24 2.65 0 1.4 1.1 2.95 2.61 2.95.94 0 1.68-.8 2.18-1.5l.21.12c-.6 1.21-1.55 2.36-3.02 2.36-1.81 0-2.98-1.62-2.98-3.33 0-1.95 1.47-3.67 3.48-3.67Z" fill="#EEE"/><path d="M20.13 20c1.54 0 2.58 1.24 2.58 2.72H18c.06 1.45.75 3.28 2.48 3.28 1.05 0 1.75-.74 2.26-1.58l.26.08c-.44 1.36-1.66 2.5-3.13 2.5-.92 0-1.62-.34-2.13-1.03a3.97 3.97 0 0 1-.74-2.38c0-1.8 1.2-3.59 3.13-3.59Zm-.42.53c-.85 0-1.49.58-1.68 1.73h3.15c-.1-.9-.43-1.73-1.47-1.73Z" fill="#EEE"/><path fill="#F34520" d="M39 28h2v2h-2zM42 28h2v2h-2zM45 28h2v2h-2zM42 31h2v2h-2zM45 31h2v2h-2zM45 34h2v2h-2z"/></svg>