<!-- by TradingView --><svg width="56" height="56" viewBox="0 0 56 56" xmlns="http://www.w3.org/2000/svg"><path fill="#F0F3FA" d="M0 0h56v56H0z"/><path fill="#21844B" d="M16 12h24v32H16z"/><path d="M40 12H16v2h24v-2Zm0 4H16v2h24v-2Zm-24 4h24v2H16v-2Zm24 4H16v2h24v-2Zm-24 4h24v2H16v-2Zm24 4H16v2h24v-2Zm-24 4h24v2H16v-2Zm24 4H16v2h24v-2Z" fill="#F8E53E"/><path d="M17 18v4h3.06v17.45c.9 2.5 3.69 4.55 9.28 4.55 4.48 0 8.24-1.73 9.56-2.5l-2.7-3.55c-.52.74-1.84 2.2-2.98 2.2s-1.9-.8-2.22-1.19V22h5v-4h-5v-6h-5.79c0 3.45-2.71 6-6.06 6H17Z" fill="#F0F3FA"/><path fill-rule="evenodd" d="M31 38.96V22h5v-4h-5v-6h-5.79c0 3.45-2.71 6-6.06 6H17v4h3.06v17.45c.9 2.5 3.69 4.55 9.28 4.55a20.5 20.5 0 0 0 9.56-2.5l-2.7-3.55c-.05.08-.1.16-.18.25-.6.77-1.78 1.95-2.8 1.95-1.14 0-1.9-.8-2.22-1.19Zm5.2-.51c-.27.34-.64.75-1.06 1.1-.55.47-1.24.9-1.92.9-1.28 0-2.12-.89-2.45-1.3l-.07-.08V21.7h5v-3.4h-5v-6h-5.2a6.24 6.24 0 0 1-6.35 6H17.3v3.4h3.06v17.7c.86 2.31 3.5 4.3 8.98 4.3 4.1 0 7.61-1.48 9.11-2.3l-2.24-2.95Z" fill="#21844B"/><path d="M26.72 20.8a2.93 2.93 0 0 1-1.06 3 .08.08 0 0 1-.08 0 .1.1 0 0 1-.06-.05c-.25-.67-.5-1.39-.73-2.14a3.74 3.74 0 0 1-.14-1.95c.13-.58.46-1.11.99-1.6.09-.1.15-.07.2.04.36.9.66 1.8.88 2.7Z" fill="#21844C"/><path d="M25.9 23.26a.7.7 0 0 0-.05.06.3.3 0 0 1-.07.09.1.1 0 0 1-.1.01.12.12 0 0 1-.08-.07c-.2-.58-.41-1.2-.61-1.84-.2-.63-.25-1.19-.16-1.68.1-.51.35-1 .76-1.44a.09.09 0 0 1 .1-.03.1.1 0 0 1 .06.07c.25.66.48 1.37.7 2.12.3 1.04.12 1.94-.55 2.71Z" fill="#F8E640"/><path d="M25.6 25.17c.11-.65.42-1.17.92-1.57.76-.6 1.49-1.16 2.2-1.65a.1.1 0 0 1 .1-.02c.04.02.06.05.07.1.18.76.12 1.47-.18 2.14-.2.43-.63.9-1.29 1.39a150.41 150.41 0 0 1-1.74 1.24.06.06 0 0 1-.04-.03c-.06-.1-.1-.23-.12-.36l-.03-.35-.01-.33c-.01-.07-.03-.08-.06 0a.38.38 0 0 0-.03.12c0 .04-.02.08-.06.1a.1.1 0 0 1-.1-.01c-.98-.7-1.73-1.28-2.26-1.72-.43-.36-.71-.81-.86-1.36a3.55 3.55 0 0 1-.02-1.67c0-.04.03-.06.06-.08a.1.1 0 0 1 .1 0c.79.5 1.57 1.1 2.36 1.78.32.29.55.63.7 1.03.09.26.17.68.23 1.25.02.11.03.11.05 0Z" fill="#21844C"/><path d="M22.9 23.86a2.17 2.17 0 0 1-.6-1.07c-.1-.4-.12-.82-.08-1.29 0-.03.01-.06.04-.07a.08.08 0 0 1 .09 0l.19.14c.45.32.79.56 1 .73.38.28.7.54.96.8.32.29.54.65.67 1.1.13.4.16.85.1 1.34 0 .03-.01.05-.04.06a.07.07 0 0 1-.07 0 15.62 15.62 0 0 1-2.26-1.74ZM25.72 26.42a3.3 3.3 0 0 1 .08-1.33c.12-.47.33-.83.61-1.09.5-.45 1.14-.96 1.9-1.53.42-.3.58-.19.5.35l-.13.72a2.24 2.24 0 0 1-.73 1.31c-.69.59-1.4 1.12-2.14 1.61a.05.05 0 0 1-.06 0 .06.06 0 0 1-.03-.04Z" fill="#F8E640"/><path d="m25.5 28.2.02.02c.03 0 .04 0 .05-.03.07-.69.37-1.25.9-1.69.75-.63 1.5-1.2 2.23-1.7a.12.12 0 0 1 .13 0c.04.01.07.05.08.1.25 1.34-.11 2.4-1.1 3.19-.6.47-1.24.95-1.9 1.42-.26.19-.39.11-.4-.22l-.02-.65c0-.12-.03-.13-.08-.02a.72.72 0 0 0-.04.12c-.02.08-.06.1-.12.05a42.75 42.75 0 0 1-2.13-1.6c-.93-.74-1.28-1.79-1.04-3.14 0-.05.03-.09.08-.1a.12.12 0 0 1 .12 0c.58.42 1.18.87 1.81 1.35.54.41.9.8 1.08 1.16.27.52.38 1.1.34 1.73Z" fill="#21844C"/><path d="M22.88 26.68a2.1 2.1 0 0 1-.58-1.08c-.1-.43-.13-.84-.08-1.24.02-.1.07-.13.14-.08.5.34.88.62 1.16.83.42.33.78.64 1.1.94.28.28.48.65.6 1.1.09.4.11.82.06 1.28 0 .02-.02.03-.03.04h-.05c-.8-.52-1.58-1.12-2.32-1.79ZM28.77 25.18c.02.54-.01.98-.11 1.35-.12.45-.35.82-.68 1.12-.62.55-1.34 1.1-2.16 1.65-.05.04-.09.02-.1-.05a3.06 3.06 0 0 1 .17-1.61c.18-.44.52-.86 1-1.25.65-.5 1.23-.93 1.76-1.27.08-.05.11-.03.12.06Z" fill="#F8E640"/><path d="M25.6 30.86c.1-.6.37-1.1.83-1.48.7-.6 1.44-1.17 2.22-1.71.15-.11.24-.07.27.13.13.76.06 1.44-.2 2.03-.16.4-.57.84-1.21 1.34-.65.5-1.25.93-1.8 1.3a.06.06 0 0 1-.05.02.08.08 0 0 1-.05-.05 2.26 2.26 0 0 1-.1-.84l-.02-.18c-.02-.08-.04-.08-.07 0l-.05.16c-.02.07-.06.08-.11.04-.65-.44-1.3-.91-1.94-1.42a3.4 3.4 0 0 1-1.14-1.42 3.5 3.5 0 0 1-.1-1.88.14.14 0 0 1 .08-.1.12.12 0 0 1 .13 0c.66.47 1.31.96 1.97 1.49a2.74 2.74 0 0 1 1.22 2.07l.06.5c.02.12.03.12.05 0Z" fill="#21844C"/><path d="M24.4 28.67c.36.3.61.68.76 1.14.14.44.18.9.11 1.4a.1.1 0 0 1-.05.08.08.08 0 0 1-.09 0c-.48-.34-.85-.6-1.11-.8-.42-.32-.78-.62-1.07-.9-.3-.29-.5-.65-.63-1.1-.12-.4-.15-.84-.1-1.3 0-.1.05-.13.12-.08.7.48 1.4 1 2.07 1.56ZM25.71 32.05c-.05-.5-.01-.97.11-1.38.14-.45.37-.82.7-1.11.7-.6 1.4-1.13 2.15-1.63a.04.04 0 0 1 .05 0l.03.04c.1.81-.03 1.48-.36 2-.18.3-.53.65-1.05 1.06-.56.43-1.06.8-1.5 1.1-.08.04-.12.02-.13-.08Z" fill="#F8E640"/><path d="M25.42 34.25a1.9 1.9 0 0 1-.05.17c-.02.07-.06.09-.12.05a13.7 13.7 0 0 1-2.45-1.88 2.5 2.5 0 0 1-.72-1.32c-.1-.5-.1-1.01.01-1.56.01-.04.04-.07.07-.09a.1.1 0 0 1 .11.01c.64.46 1.28.93 1.9 1.42.5.38.82.74 1 1.08a3.08 3.08 0 0 1 .34 1.62h.04c.02 0 .04 0 .04-.03.1-.62.37-1.12.83-1.51.75-.63 1.51-1.2 2.29-1.73a.11.11 0 0 1 .11-.01c.04.02.07.05.08.1.27 1.25-.03 2.26-.89 3.02-.38.34-1.13.91-2.26 1.7-.05.05-.1.03-.13-.03-.05-.1-.08-.2-.1-.32a2.5 2.5 0 0 1-.01-.3c0-.17-.01-.3-.03-.38-.01-.1-.03-.1-.06 0Z" fill="#21844C"/><path d="M23.18 32.65c-.38-.32-.66-.7-.82-1.17a2.9 2.9 0 0 1-.12-1.48c0-.07.04-.09.1-.05.88.6 1.6 1.15 2.16 1.66.63.56.88 1.37.77 2.43a.1.1 0 0 1-.05.08.08.08 0 0 1-.09 0c-.6-.41-1.26-.9-1.95-1.47ZM25.71 34.93a3.15 3.15 0 0 1 .18-1.61c.18-.43.51-.84.99-1.23a21.8 21.8 0 0 1 1.87-1.33l.03.04c.02.51-.01.95-.1 1.3-.1.45-.3.81-.58 1.1-.48.47-1.24 1.06-2.28 1.79-.06.04-.1.02-.1-.06Z" fill="#F8E640"/><path d="M25.6 36.57c.08-.58.32-1.05.7-1.4.71-.64 1.53-1.27 2.44-1.88a.1.1 0 0 1 .1 0c.03 0 .05.04.06.07.18.93.08 1.71-.28 2.36-.2.34-.62.75-1.27 1.25-.5.38-1 .74-1.47 1.08-.22.15-.34.08-.36-.2 0-.27-.03-.52-.05-.73 0-.1-.03-.1-.06-.01a.7.7 0 0 0-.03.15c-.01.08-.05.1-.11.06a37.2 37.2 0 0 1-2.22-1.66c-.86-.7-1.2-1.71-.98-3.02.03-.2.11-.23.26-.13a36.9 36.9 0 0 1 2.15 1.64 2.55 2.55 0 0 1 .97 1.7l.1.72c.01.1.03.1.04 0Z" fill="#21844C"/><path d="M22.25 32.9a.1.1 0 0 1 0-.1c.01-.04.04-.05.06-.03.76.5 1.46 1.04 2.12 1.61.7.6.97 1.45.84 2.56-.01.06-.04.07-.09.04-.74-.49-1.43-1.01-2.07-1.57a2.57 2.57 0 0 1-.86-2.5ZM25.72 37.78a3.4 3.4 0 0 1 .06-1.24c.1-.44.26-.8.5-1.05.3-.31.67-.64 1.12-.98.3-.23.71-.51 1.22-.85a.09.09 0 0 1 .1 0 .1.1 0 0 1 .05.08c.03.57-.02 1.05-.16 1.44a2.6 2.6 0 0 1-.82 1.15c-.69.57-1.35 1.07-1.98 1.49a.05.05 0 0 1-.05 0 .06.06 0 0 1-.04-.04Z" fill="#F8E640"/><path d="M25.43 39.97c-.01.09-.04.14-.09.17a.1.1 0 0 1-.12 0c-.93-.64-1.69-1.22-2.28-1.74-.81-.72-1.1-1.72-.86-3.02.01-.04.04-.07.07-.09a.1.1 0 0 1 .1.01c.78.54 1.51 1.1 2.21 1.67.37.3.63.63.79 1 .12.27.21.7.28 1.27.03.2.06.2.1 0 .1-.52.33-.94.72-1.28a25.6 25.6 0 0 1 2.37-1.82.1.1 0 0 1 .1 0c.04 0 .06.03.07.07a3.2 3.2 0 0 1-.08 1.93c-.2.53-.58 1.01-1.14 1.44-.59.46-1.23.93-1.92 1.4-.04.03-.09.03-.12-.02a.72.72 0 0 1-.13-.31 2.35 2.35 0 0 1-.02-.34l-.01-.34c-.02-.09-.03-.09-.04 0Z" fill="#21844C"/><path d="M25.26 39.66c-.02.13-.08.16-.18.09l-.4-.28c-.44-.32-.77-.56-.98-.73a7.6 7.6 0 0 1-.9-.8c-.47-.52-.66-1.28-.58-2.27 0-.02.02-.04.04-.05h.05c.6.4 1.26.88 1.95 1.45a2.71 2.71 0 0 1 1 2.6ZM27.94 39.01c-.71.6-1.41 1.14-2.1 1.6a.07.07 0 0 1-.07 0 .09.09 0 0 1-.05-.06 3 3 0 0 1 .23-1.68c.2-.43.58-.84 1.12-1.25l1.26-.96c.4-.32.56-.2.46.33l-.12.72c-.1.53-.34.97-.73 1.3Z" fill="#F8E640"/></svg>