<!-- by TradingView --><svg width="56" height="56" viewBox="0 0 56 56" xmlns="http://www.w3.org/2000/svg"><path fill="#F0F3FA" d="M0 0h56v56H0z"/><path d="M32.4 18c.8 1.5 1.26 3.13 1.35 4.93a16.46 16.46 0 0 1-2.04 8.64c-.65 1.32-1.28 2.64-1.89 3.95a34.2 34.2 0 0 0-.97 2.31c-.32.85-.55 1.65-.7 2.4a22.2 22.2 0 0 0-.3 5.23c0 .06-.02.1-.08.1a.4.4 0 0 1-.44-.15c-1.14-1.54-1.57-3.68-1.3-6.41.2-1.97.6-3.84 1.2-5.64.5-1.5 1.07-3.2 1.73-5.09a21 21 0 0 0 1.16-6.84c0-.57-.04-1.2-.14-1.9a9.37 9.37 0 0 0-2.46-5.27 10.58 10.58 0 0 0-5.1-2.83.2.2 0 0 1-.12-.1.2.2 0 0 1 .01-.2.21.21 0 0 1 .15-.1c.36-.07.84-.01 1.41.16a16.35 16.35 0 0 1 5.53 3.11 13.18 13.18 0 0 1 3 3.7Z" fill="#7BC39F"/><path d="m22.27 38.15.34-4.98c0-.43.06-.9.19-1.39.4-1.6.8-3.12 1.2-4.58.66-2.5.86-5.03.6-7.6a8.12 8.12 0 0 0-3.94-6.48c-.6-.36-1.22-.7-1.88-1.03a.52.52 0 0 1-.18-.15c-.19-.23-.13-.33.16-.3h.1c.33.03.57.06.72.1 2.68.76 4.67 2.15 5.99 4.16 1.22 1.88 1.82 4.25 1.77 7.1a24.68 24.68 0 0 1-.75 5.62l-.33 1.3c-.4 1.57-.69 2.76-.86 3.55a29.89 29.89 0 0 0-.56 3.63 19.9 19.9 0 0 0-.02 3.44c.11 1.27.4 2.4.84 3.37.08.18.22.41.44.71.17.24.3.43.37.57.11.22.06.28-.17.2a5.1 5.1 0 0 1-2.2-1.77 8.38 8.38 0 0 1-1.32-2.58c-.32-1.03-.5-2-.5-2.89Z" fill="#B870A4"/><path d="M19.19 32.45c.11-.93.31-1.92.6-2.98.18-.64.48-1.59.9-2.84l.19-.56c.31-.95.55-2.06.72-3.32.18-1.42.06-2.7-.36-3.84a5.74 5.74 0 0 0-2.37-2.94c-.34-.21-.67-.43-1-.66-.2-.15-.19-.25.07-.3.1-.02.2-.01.3.02 1.9.65 3.28 1.7 4.16 3.13a8.5 8.5 0 0 1 1.04 5.15c-.1 1.46-.36 2.75-.74 3.87A42.4 42.4 0 0 0 21.28 32c-.17.8-.3 1.62-.38 2.49a8.7 8.7 0 0 0 .05 2.23c.13.8.37 1.48.73 2.06a.6.6 0 0 1 .09.26c0 .03-.01.06-.04.08a.08.08 0 0 1-.1 0 4.67 4.67 0 0 1-1.9-2.2 8.32 8.32 0 0 1-.54-4.48Z" fill="#78C3ED"/><path d="M19.25 23.94c.21-.87.2-1.66-.02-2.35a3.53 3.53 0 0 0-1.44-1.84.62.62 0 0 1-.25-.46c-.01-.07.02-.1.1-.09.34.06.6.15.81.28a4.21 4.21 0 0 1 2.1 3.87c-.02.9-.16 1.71-.45 2.46-.34.9-.72 1.86-1.14 2.85-.23.55-.45 1.47-.67 2.73-.07.43 0 .88.22 1.35.09.18.1.35.06.49-.08.23-.2.26-.37.08a3.67 3.67 0 0 1-.98-3.02c.05-.55.16-1.1.32-1.67.13-.45.4-1.14.8-2.07.28-.64.47-1.1.59-1.41.08-.23.19-.62.32-1.2Z" fill="#D98F8C"/><path d="M18.56 20.1a.07.07 0 0 1-.02-.08.07.07 0 0 1 .06-.05h.08c.09-.01.16.01.22.07a3.9 3.9 0 0 1 1.39 2.91 7.26 7.26 0 0 1-.4 2.74c-.33.87-.67 1.72-1.02 2.53-.32.76-.58 1.65-.8 2.68-.04.23-.05.47-.03.73a7.97 7.97 0 0 0 .1.81c.08.5 0 .54-.26.1a3.01 3.01 0 0 1-.37-1.3c-.09-1.32.16-2.6.73-3.84.58-1.25 1-2.36 1.25-3.35.4-1.58.1-2.9-.93-3.95Z" fill="#CD1B14"/><path d="M16.32 20.99c-.08-.14-.05-.18.1-.13.53.16.95.49 1.27.98.29.45.45.84.48 1.15.1.92-.04 1.8-.4 2.65l-.11.27c-.4.9-.65 1.58-.77 2.04-.2.75-.24 1.47-.13 2.17.05.34-.03.38-.26.13a5.77 5.77 0 0 0-.1-.1 1.09 1.09 0 0 1-.3-.45 4.46 4.46 0 0 1 0-2.2c.13-.55.4-1.24.8-2.1a7.2 7.2 0 0 0 .41-1.34c.2-.77.13-1.46-.2-2.07-.08-.14-.22-.31-.41-.52-.18-.2-.3-.36-.38-.48Z" fill="#8E86AF"/><path d="M15.77 22.2c.47.28.78.65.92 1.13.13.45.1.94-.1 1.48-.08.22-.22.53-.4.94-.23.5-.39.88-.47 1.14-.14.43-.2.85-.2 1.27 0 .07-.03.12-.1.15-.09.05-.16.02-.2-.07a2.19 2.19 0 0 1-.13-1.58 8.61 8.61 0 0 1 .77-1.8c.24-.49.3-1.06.22-1.73a.43.43 0 0 0-.08-.19l-.45-.67a.1.1 0 0 1-.01-.1.1.1 0 0 1 .07-.06c.09-.02.14.01.16.1Z" fill="#D98F8C"/><path d="M37.57 25.7c.4.05.64.18.72.38.03.08.02.15-.03.22l-.2.29a.21.21 0 0 1-.2.1.21.21 0 0 1-.2-.15 1.2 1.2 0 0 0-.36-.54l-.04.04c.16-.21.26-.32.3-.34Z" fill="#ECC622"/><path d="m37.26 26.04.04-.04c-.1.04-.12.11-.09.22.02.07 0 .13-.05.17l-.28.25a.2.2 0 0 1-.2.04.21.21 0 0 1-.14-.12c-.13-.3-.33-.38-.6-.24.03-.02.04-.05.04-.08.01-.35-.16-.49-.5-.41-.14.03-.23.23-.26.6-.18-.54 0-.8.56-.76.07 0 .12.04.16.1l.08.12c.03.04.07.07.12.08.05 0 .1 0 .14-.02l.15-.12c.1-.1.2-.15.27-.17.24-.04.43.08.56.38Z" fill="#8E86AF"/><path d="M35.94 26.32c-.07.06-.08.17-.03.33-.38.13-.61.06-.69-.21.03-.38.12-.58.26-.61.34-.08.51.06.5.4 0 .04-.01.07-.04.09Z" fill="#D98F8C"/><path d="M39.17 26.64c-.02.08-.12.08-.3 0a.4.4 0 0 0-.16-.32c-.08-.07-.1-.15-.03-.23.07-.1.15-.19.25-.26a.24.24 0 0 1 .28 0c.21.17.2.44-.04.81Z" fill="#78C3ED"/><path d="M38.61 26.91c-.26.11-.4.32-.4.62-.08-.03-.12.02-.11.14a.32.32 0 0 0-.12-.17c-.05-.03-.1-.03-.17 0a.36.36 0 0 0-.17.13c-.28.02-.48-.03-.6-.15a.32.32 0 0 1-.1-.22c0-.08.02-.15.07-.22.23-.3.45-.3.67 0 .13.18.27.18.4 0l.23-.21c.13-.1.23-.07.3.08Z" fill="#7BC39F"/><path d="M36.1 27c.03-.16.13-.2.3-.12.1.04.14.11.15.21.04.42-.13.58-.52.47a.23.23 0 0 1-.18-.2c-.01-.13.04-.22.15-.26a.14.14 0 0 0 .1-.1Z" fill="#D98F8C"/><path d="m38.61 26.91.18.24c.05.07.06.15.04.24a.26.26 0 0 1-.16.18.47.47 0 0 1-.46-.04c0-.3.13-.5.4-.62Z" fill="#3BB3C3"/><path d="M37.34 28.79c.21 0 .39-.17.39-.39s-.18-.4-.39-.4a.39.39 0 0 0-.39.4c0 .22.18.39.4.39Z" fill="#CD1B14"/><path d="M30.62 38.16c.2-1.76.67-3.3 1.44-4.6a7.28 7.28 0 0 1 3.48-3.15c.84-.35 1.8-.53 2.89-.52 1 .01 1.95.17 2.88.48.18.06.33.14.47.26.34.3.29.45-.16.47-.27.02-.53.01-.8 0a4.55 4.55 0 0 0-2.84.72 5.92 5.92 0 0 0-2 2.21 16.63 16.63 0 0 0-1.54 4.34c-.56 2.53-1.44 4.5-2.63 5.93A4.84 4.84 0 0 1 28.84 46c-.2.03-.37 0-.51-.08a.42.42 0 0 1-.21-.34.42.42 0 0 1 .14-.37 5.14 5.14 0 0 0 1.5-2.57c.43-1.6.72-3.09.86-4.47Z" fill="#9ADADE"/><path d="M41.2 30.58c.04 0 .05.03.06.05.05.12 0 .2-.12.21-.17.03-.42.05-.76.06a5.1 5.1 0 0 0-1.26.18 5.38 5.38 0 0 0-2.87 2.23 12.13 12.13 0 0 0-1.7 3.87c-.27 1.09-.5 2-.72 2.75a11.78 11.78 0 0 1-1.81 3.83c-1 1.34-2.17 2-3.5 2a.28.28 0 0 1-.14-.04.2.2 0 0 1-.1-.14.2.2 0 0 1 .04-.16l.42-.5c.25-.27.43-.49.54-.64.18-.25.31-.51.4-.78.31-.89.57-1.9.79-3.03a71.82 71.82 0 0 0 .52-3.33 11.2 11.2 0 0 1 1.65-4.17c.46-.65 1-1.2 1.6-1.63a6.55 6.55 0 0 1 4.44-1.24c.82.05 1.66.21 2.53.48Z" fill="#3BB3C3"/><path d="m22.6 33.17-.33 4.98c-.18-1.67-.07-3.33.34-4.98Z" fill="#8E86AF"/></svg>