<!-- by TradingView --><svg width="56" height="56" viewBox="0 0 56 56" xmlns="http://www.w3.org/2000/svg"><path fill="#F0F3FA" d="M0 0h56v56H0z"/><path d="M12 19.26v17.63c0 2.42 1.26 4.66 3.51 5.38 2.8.9 6.97 1.73 12.25 1.73 5.3 0 9.6-.85 12.54-1.74 2.35-.71 3.7-3.03 3.7-5.54v-17.3c0-2.48-1.32-4.78-3.63-5.53A41.37 41.37 0 0 0 27.77 12c-5.28 0-9.5.92-12.33 1.88-2.21.75-3.44 2.98-3.44 5.38Zm3.28 1.79v14.02c0 1.92 1 3.7 2.8 4.28 2.22.7 5.53 1.37 9.73 1.37 4.21 0 7.64-.67 9.97-1.38 1.87-.57 2.94-2.41 2.94-4.4V21.17c0-1.97-1.05-3.8-2.88-4.4a32.89 32.89 0 0 0-10.03-1.5c-4.19 0-7.54.73-9.8 1.5-1.76.6-2.73 2.37-2.73 4.27Z" fill="url(#al3ljt1g1)"/><path d="M15 35.22V20.9c0-1.95 1-3.76 2.8-4.37 2.3-.78 5.73-1.53 10-1.53 4.3 0 7.84.75 10.25 1.54 1.88.6 2.95 2.47 2.95 4.5v14.04c0 2.04-1.1 3.93-3 4.5A35.44 35.44 0 0 1 27.8 41c-4.28 0-7.67-.68-9.95-1.4C16.02 39 15 37.19 15 35.21Z" fill="url(#bl3ljt1g1)"/><path d="M22 37V26.13l-3 2.09v-1.07l3.62-2.24v11.68L22 37Zm1-.67.76-.51v-12.2l4.13-2.33 4.42 2.32v12.26l.69.46V23.97l4 2.51v-.8l-9.08-5.16L19 25.8v.72l4-2.55v12.36Zm-4-11.14 8.91-5.27L37 25.08v-.89L27.88 19 19 24.2v1Zm18 1.92-3.54-2.2v11.72L34 37V26.13l3 2.09V27.1Zm-5.23 8.4V23.91l-3.87-2.04-3.6 2.04v11.53L25 35V24.35l2.88-1.57L31 24.35V35l.77.51Z" fill="url(#cl3ljt1g1)"/><defs><linearGradient id="al3ljt1g1" x1="13" y1="25.03" x2="43" y2="25.03" gradientUnits="userSpaceOnUse"><stop stop-color="#F7BD5C"/><stop offset=".22" stop-color="#FCD279"/><stop offset=".36" stop-color="#F9EBD0"/><stop offset=".58" stop-color="#FACC71"/><stop offset=".83" stop-color="#C17A1A"/><stop offset="1" stop-color="#EDB654"/></linearGradient><linearGradient id="bl3ljt1g1" x1="15" y1="15.64" x2="41.58" y2="39.72" gradientUnits="userSpaceOnUse"><stop stop-color="#0D4D8D"/><stop offset=".4" stop-color="#006AB0"/><stop offset="1" stop-color="#243A78"/></linearGradient><linearGradient id="cl3ljt1g1" x1="19" y1="25.52" x2="31.99" y2="34.5" gradientUnits="userSpaceOnUse"><stop stop-color="#FFFED1"/><stop offset=".58" stop-color="#FEE394"/><stop offset="1" stop-color="#C68D3B"/></linearGradient></defs></svg>