<!-- by TradingView --><svg width="56" height="56" viewBox="0 0 56 56" xmlns="http://www.w3.org/2000/svg"><path fill="#F0F3FA" d="M0 0h56v56H0z"/><path d="M8 24.22c-.03 0-.05 0-.06-.02v-.06c1.38-1.85 3.42-3.38 6.13-4.58 5.21-2.34 10.67-2.58 16.26-2.55a20.96 20.96 0 0 1 3.38.37 29.8 29.8 0 0 1 9.77 3.14c.1.05.09.08-.02.09-7.92.56-15.7 1.2-23.35 1.93-3.86.37-7.9.93-12.12 1.68Z" fill="#008ED3"/><path d="M46.06 22.7c.23-.04.43.03.6.2.88.91 1.5 1.84 1.88 2.78.42 1.03.55 2.11.4 3.24a7.23 7.23 0 0 1-1.9 3.74 13.2 13.2 0 0 1-3.4 2.7c-6.38 3.62-12.88 3.8-19.94 3.59-.16 0-.84-.18-.91-.28a.12.12 0 0 1-.01-.13c2.8-5.92 5.66-10.8 8.58-14.64a.6.6 0 0 1 .52-.25c5.28-.37 8.85-.53 14.18-.95Z" fill="#00BFF2"/><path d="M12.04 30.7c-.14-.3-.36-.54-.66-.7-.28-.17-.71-.39-1.3-.67-1-.48-1.71-.88-2.17-1.2-.26-.19-.38-.4-.37-.66 0-.25.15-.46.43-.62.65-.4 1.45-.72 2.4-.94a51.4 51.4 0 0 1 5.1-.95c4.02-.54 8.05-.92 12.08-1.14a.1.1 0 0 1 .1.05.1.1 0 0 1 0 .11l-6.68 10.86c-.22.36-.37.34-.43-.08a2.38 2.38 0 0 0-.5-1.16.33.33 0 0 0-.33-.13.34.34 0 0 0-.28.2 14.19 14.19 0 0 0-1.17 3.98.23.23 0 0 1-.12.16.24.24 0 0 1-.2.03c-1.3-.44-2.37-.83-3.23-1.18-1.2-.49-2.24-1-3.14-1.54-2.23-1.34-3.75-2.98-4.56-4.9a.11.11 0 0 1 .03-.13.12.12 0 0 1 .13-.03c1.03.36 2.02.68 2.98.94.6.17 1.2.15 1.78-.05.13-.04.17-.13.11-.25Z" fill="#0066B2"/></svg>