<!-- by TradingView --><svg width="56" height="56" viewBox="0 0 56 56" xmlns="http://www.w3.org/2000/svg"><path fill="#F0F3FA" d="M0 0h56v56H0z"/><path d="M46 42H10v-5h4V26h-2.89v-4H14v-3h4v-3h3v-3h3v-3h8v3h3v3h3v3h4v3h3v4h-3v11h4v5Z" fill="#FFCB00"/><path d="M25 11h6v2h-6v-2Zm-3 3h5.5v2H22v-2Zm-3 3v2h6v-2h-6Zm-4 3h6v2h-6v-2Zm-3 3v2h6v-2h-6Zm29 5v-2h-6v2h6Zm0 3v-2h-6v2h6Zm0 3v-2h-6v2h6Zm0 3v-2h-6v2h6Zm-24 1h-6v3h6v-3Zm1 0v3h6v-3h-6Zm7 0h6v3h-6v-3Zm13 3v-3h-6v3h6Zm1-3h6v3h-6v-3Zm-24-1v-2h6v2h-6Zm0-3v-2h6v2h-6Zm0-3v-2h6v2h-6Zm0-3v-2h6v2h-6Zm23-5h6v2h-6v-2Zm3-3h-6v2h6v-2Zm-4-3v2h-6v-2h6Zm-3-3h-5.5v2H34v-2ZM34 26a5.94 5.94 0 0 1-1.76 4.24 5.94 5.94 0 0 1-6.54 1.3A5.94 5.94 0 0 1 22 26a5.94 5.94 0 0 1 1.76-4.24 5.94 5.94 0 0 1 6.54-1.3A5.94 5.94 0 0 1 34 26Z" fill="#0129FF"/><path d="M24.18 29c.4.17.77.1 1.12-.2a.05.05 0 0 1 .04-.01 12.32 12.32 0 0 0 .73 1.85c.06.13.03.17-.11.1a5.2 5.2 0 1 1 4.34-.11c-.14.07-.17.04-.1-.1.34-.57.6-1.19.76-1.84.02-.08.07-.1.14-.07.32.14.61.15.9.03a.89.89 0 0 0 .53-.69.93.93 0 0 0-.06-.58.86.86 0 0 0-.34-.4.96.96 0 0 0-.52-.13c-.2 0-.4.05-.57.17-.06.04-.11.03-.16-.03a5.8 5.8 0 0 0-.32-.34c-.25-.26-.31-.53-.17-.8a.12.12 0 0 0-.03-.16l-.31-.34c-.04-.04-.05-.09-.01-.14.1-.15.14-.3.12-.45a1.35 1.35 0 0 0-.15-.38c-.08-.17-.14-.3-.16-.4l-.3-1.53a2.23 2.23 0 0 0-.31-.9 1.4 1.4 0 0 0-.66-.52 1.34 1.34 0 0 0-1.4.33c-.2.2-.34.46-.4.75a56.1 56.1 0 0 0-.44 2.06c-.04.21-.11.4-.21.59a.74.74 0 0 0-.02.7c.03.06.02.11-.01.16l-.2.32a.16.16 0 0 0-.03.14c.11.33 0 .62-.32.88a.7.7 0 0 0-.26.42c-.01.06-.04.07-.09.03a1.02 1.02 0 0 0-.94-.18.91.91 0 0 0-.62.7c-.05.2-.01.42.1.63.1.21.25.36.44.44Z" fill="#FFCC2B"/><path d="M27.03 24.69a2.99 2.99 0 0 0-.52.16c-.1.03-.12 0-.09-.09.3-.71.49-1.46.58-2.25.04-.4.17-.72.38-.94.24-.25.55-.34.95-.28.55.08.86.47.94 1.16l.02.17c.06.47.1.82.15 1.04.08.39.19.72.33 1v.04a5.73 5.73 0 0 0-2.73-.01Z" fill="#FFCC2B"/><path d="M27.93 22.74a.2.2 0 0 1 .15-.04c.07.01.11.05.12.12.02.1.06.18.13.25s.1.05.09-.04a.68.68 0 0 0-.38-.54c-.05-.03-.05-.06-.02-.1a.09.09 0 0 1 .04-.03c.03-.01.06 0 .07.03.04.07.1.12.16.16.1.04.17.14.22.3a2.18 2.18 0 0 1 .06.42.28.28 0 0 1-.13.28c-.25.16-.49.14-.71-.05a.19.19 0 0 1-.07-.13c-.03-.23.01-.46.12-.7.03-.06.06-.06.1 0l.04.07Z" fill="#0129FF"/><path d="M27.86 23.12c0 .09.03.16.1.2.16.1.27.07.34-.06.01-.04.04-.05.07-.03h.04c.03.02.04.05.02.08a.4.4 0 0 1-.3.19c-.14.02-.25-.03-.3-.16-.09-.2-.06-.38.1-.55 0-.02.03-.02.05 0l.03.03v.04a.36.36 0 0 0-.15.26Z" fill="#FFCC2B"/><path d="M28.3 24.32c-.03.03-.06.05-.1.04a.04.04 0 0 1-.03-.03c-.03-.08 0-.12.08-.12s.1.04.05.1ZM29.12 24.39a1.8 1.8 0 0 0-.54-.07c-.05 0-.07-.02-.06-.06v-.04l.02-.02c.24.05.49.1.73.17.03 0 .06.02.07.04v.06c-.02.04-.04.05-.07.02a.3.3 0 0 0-.15-.1ZM27.91 24.33a.13.13 0 0 1-.14.02c-.04-.02-.04-.04 0-.07a.27.27 0 0 1 .2-.03c.05 0 .05.03.01.06a.09.09 0 0 1-.07.02ZM27.43 24.32a.18.18 0 0 1 .1-.03c.05 0 .06.03.05.07l-.01.03c-.03.04-.06.06-.1.05l-.03-.02a.06.06 0 0 0-.07 0c-.19.07-.4.1-.62.12-.02 0-.03-.01-.04-.03l.01-.04.04-.03c.17-.04.34-.07.53-.08a.3.3 0 0 0 .14-.04Z" fill="#0129FF"/><path d="M26.42 25.1c1.09-.36 2.19-.41 3.29-.16.1.02.12.07.08.16l-.04.06a.16.16 0 0 1-.08.08.16.16 0 0 1-.11 0 4.05 4.05 0 0 0-2.94.13c-.15.01-.23-.03-.27-.12-.03-.07 0-.12.07-.14Z" fill="#FFCC2B"/><path d="m28.25 26.1.02-.67c0-.08.04-.13.13-.13h.28c.1-.01.15.04.13.14l-.22 1.3c0 .03-.02.05-.05.06a.08.08 0 0 1-.09 0c-.23-.17-.46-.15-.7.05a.06.06 0 0 1-.06.01.06.06 0 0 1-.05-.05l-.18-1.33c0-.1.03-.15.13-.16l.2-.02c.12-.02.18.04.17.16v.65c0 .03.01.05.03.07a.1.1 0 0 0 .07.03h.08c.08 0 .11-.04.11-.11ZM29.94 25.63l.18.23c.01.01.02.02 0 .04l-.08.27c0 .02-.02.03-.03.03h-.05l-.19-.16c-.02-.01-.02-.03-.02-.05l.1-.34c0-.02.02-.03.04-.04.02 0 .03 0 .05.02ZM26.15 26.05c-.03.15.03.28.12.3.08 0 .17-.1.2-.26.02-.15-.03-.28-.12-.3-.09 0-.18.1-.2.26ZM30.11 26.3l.14.12c.05.06.04.1-.04.09a.16.16 0 0 1-.1-.04.18.18 0 0 1-.06-.13c0-.06.02-.07.06-.04ZM26.06 26.58c-.04.05-.06.11-.02.14.03.03.1.01.14-.04.05-.05.06-.11.03-.14-.04-.03-.1-.02-.15.04ZM30.7 27.44c0 .19-.06.35-.2.48-.13.14-.29.2-.48.2a.66.66 0 0 1-.48-.2.66.66 0 0 1-.2-.48c0-.19.06-.35.2-.48.13-.14.3-.2.48-.2.19 0 .35.06.48.2.14.13.2.3.2.48Z" fill="#FFCC2B"/><path d="M30.54 27.44a.5.5 0 0 1-.15.37.5.5 0 0 1-.36.15.5.5 0 0 1-.37-.15.5.5 0 0 1-.15-.37.5.5 0 0 1 .15-.37.5.5 0 0 1 .37-.15.5.5 0 0 1 .36.15c.1.1.15.23.15.37Z" fill="#0129FF"/><path d="M26.83 27.67c0 .19-.07.35-.2.48-.14.13-.3.2-.49.2a.66.66 0 0 1-.48-.2.66.66 0 0 1-.2-.48c0-.2.06-.35.2-.49.13-.13.3-.2.48-.2.2 0 .35.07.49.2.13.14.2.3.2.49ZM31.86 28.26a.62.62 0 0 0 .26-.42.52.52 0 0 0-.12-.4.48.48 0 0 0-.36-.2c-.16 0-.32.06-.47.2-.13.13-.16.1-.1-.06.06-.18.2-.28.44-.3.16 0 .3.02.43.1.13.07.23.16.3.29.07.12.1.25.08.39a.7.7 0 0 1-.19.4c-.23.26-.53.3-.88.15-.14-.06-.2-.17-.18-.33.01-.06.03-.06.06-.01.08.12.2.2.33.24.15.06.28.04.4-.05ZM30.02 27.76a.32.32 0 1 0 0-.65.32.32 0 0 0 0 .65Z" fill="#FFCC2B"/><path d="M26.66 27.67a.5.5 0 0 1-.15.36.5.5 0 0 1-.37.15.5.5 0 0 1-.37-.15.5.5 0 0 1-.15-.36.5.5 0 0 1 .15-.37.5.5 0 0 1 .37-.15.5.5 0 0 1 .37.15c.1.1.15.22.15.37Z" fill="#0129FF"/><path d="M26.14 27.98a.32.32 0 1 0 0-.63.32.32 0 0 0 0 .63ZM25.24 28.17a.6.6 0 0 1-.15.45.6.6 0 0 1-.44.21h-.12a.6.6 0 0 1-.45-.15.6.6 0 0 1-.2-.44l-.02-.15a.6.6 0 0 1 .16-.45.6.6 0 0 1 .44-.21h.12a.6.6 0 0 1 .45.15c.13.12.2.26.2.43l.01.16ZM31.6 28.13a.34.34 0 1 0 0-.69.34.34 0 0 0 0 .69Z" fill="#FFCC2B"/><path d="M25.1 28.13c0 .15-.05.28-.15.38-.1.1-.23.16-.38.16a.52.52 0 0 1-.38-.16.52.52 0 0 1-.16-.38c0-.15.05-.27.16-.38.1-.1.23-.15.38-.15s.27.05.38.15c.1.1.16.23.16.38Z" fill="#0129FF"/><path d="M28.07 28.16a.25.25 0 1 0 0-.51.25.25 0 0 0 0 .5ZM24.57 28.48a.34.34 0 1 0 0-.68.34.34 0 0 0 0 .68ZM29.21 28.39c-.03 0-.05 0-.07-.04-.02-.04 0-.06.05-.05l.4.1.01.02.02.04c.02.03 0 .05-.03.05a.4.4 0 0 1-.3-.1.08.08 0 0 0-.08-.02ZM27 28.5c-.08.13-.18.17-.3.14a.08.08 0 0 1-.06-.04v-.05c0-.03.03-.04.06-.02l.03.03c.01.02.03.03.05.03.03 0 .04-.02.04-.04.03-.15.1-.2.23-.13.05.02.07 0 .08-.05 0-.03.02-.04.06-.04.06 0 .07.02.04.07-.04.06-.03.1.03.14.06.03.06.06 0 .09h-.05c-.02 0-.03-.02-.02-.04a.09.09 0 0 0-.03-.1c-.06-.06-.12-.05-.17.02ZM28.35 28.69c-.02-.03-.01-.06.01-.08.03-.02.05-.01.06.02.04.11.04.22-.02.33-.03.06-.05.06-.07 0a.22.22 0 0 1 .03-.17.09.09 0 0 0 0-.1ZM28.14 28.94a.2.2 0 0 0-.03.07c-.02.08-.04.08-.07 0-.04-.11-.04-.22 0-.3.04-.07.08-.07.11 0 .05.07.05.15 0 .23Z" fill="#FFCC2B"/><path d="M26.62 29.32c-.04-.13 0-.17.12-.13.96.34 1.92.27 2.9-.22h.05c.02.02.02.03.02.05-.17.74-.48 1.41-.95 2.03a.2.2 0 0 1-.16.08h-.86a.2.2 0 0 1-.16-.09c-.4-.52-.73-1.1-.96-1.72Z" fill="#FFCC2B"/><path fill-rule="evenodd" d="M23 33v-1h.5v1h1v.5h-1v3.49H23V33.5h-1V33h1Zm1 4v-3h.5v3H24Zm0-5h.5v.5H24V32Zm7.5 1h1v-1h.5v1h1v.5h-1v3.49h-.5V33.5h-1V33Zm2 4v-3h.5v3h-.5Zm0-5h.5v.5h-.5V32ZM25 34v3h.5v-2.43c.12.07.28.2.36.33l.48-.46c-.03-.14-.18-.43-.48-.43a.67.67 0 0 0-.36.11V34H25Zm1.5 2.63V34h.48v2.36c0 .19.11.2.3.2.08 0 .16-.04.22-.08V34h.5v3h-.5v-.23c-.2.11-.47.23-.68.23-.26 0-.3-.2-.31-.32l-.01-.05Zm2-2.63v3.42h.5v-.7c.12.14.3.28.54.28.42 0 .46-.33.46-.5v-2.07c-.02-.14-.1-.43-.46-.43-.33 0-.5.24-.54.4V34h-.5Zm.5.63v1.46c.01.17.14.52.35.52.1 0 .2-.05.2-.29v-1.66l-.01-.03c-.01-.08-.02-.2-.21-.2-.2 0-.3.12-.33.2Zm2 .26h-.5c0-.3.02-.89.68-.89.65 0 .82.35.82.53V37h-.49v-.27a.97.97 0 0 1-.63.27c-.3 0-.36-.25-.38-.38v-.9c0-.17.03-.43.38-.57.28-.1.53-.25.62-.3 0-.28-.13-.32-.35-.32-.18 0-.17.24-.14.36Zm.5 1.32v-.97l-.37.35a.42.42 0 0 0-.13.3v.32c0 .14.11.25.25.25s.25-.11.25-.25Z" fill="#0129FF"/></svg>