<!-- by TradingView --><svg width="56" height="56" viewBox="0 0 56 56" xmlns="http://www.w3.org/2000/svg"><path fill="#F0F3FA" d="M0 0h56v56H0z"/><path d="M37 31.72c-.32.4-2.38 1.14-8 1.26v1.43c-.13.04-.68.1-1.85 0a4.3 4.3 0 0 1-2.15-.7v-.87c-7.7-1.01-15-6.56-15-11.07C10 16.8 15.73 15 23.57 15c6.28 0 11.31 2.81 13.05 4.22-1.55-.86-6.31-2.56-13.05-2.56-8.42 0-9.29 4.21-9.29 5.59 0 1.37 2.22 10.7 22.72 9.47Zm-8 6.71c2.18.36 4.7.57 7.58.57 15.95 0 7.67-10.71 3.75-12 1.1.95 3.18 3.39 3.32 5.5.21 3.25-9.13 6.46-26.65.25.75 1.3 3.2 3.39 8 4.8v.27c.3 1.06 1.27 3.18 2.8 3.18H29v-2.57ZM20.44 26 16 22h22v4h-9v5c-2.7-.1-3.79-.77-4-1.1V26h-4.56Z" fill="#25C9EE"/></svg>