<!-- by TradingView --><svg width="56" height="56" viewBox="0 0 56 56" xmlns="http://www.w3.org/2000/svg"><path fill="#F0F3FA" d="M0 0h56v56H0z"/><path d="M50.65 31C49.6 31 49 30.1 49 29.13V29c0-.94.47-1.99 1.55-1.99 1.04 0 1.45.98 1.45 1.89v.43h-2.62v-.69H51c0-.39 0-.83-.46-.83-.54 0-.54.75-.54 1.19v.14c0 .5.13 1.07.7 1.07.32 0 .6-.15.8-.44l.43.54c-.27.45-.77.7-1.28.7ZM46.56 30.2c.34 0 .43-.26.44-.6h1c0 .8-.63 1.4-1.42 1.4-1.08 0-1.58-.97-1.58-1.95v-.1c0-.97.5-1.95 1.57-1.95.86 0 1.42.66 1.43 1.5h-1c0-.34-.06-.7-.44-.7-.56 0-.56.7-.56 1.15v.1c0 .45 0 1.15.56 1.15ZM39 28.35c0-.32-.19-.61-.54-.61-.28 0-.48.2-.48.48h-.9c0-.77.73-1.22 1.43-1.22.8 0 1.49.7 1.49 1.5V31h-1v-2.65Zm.08.23v.58h-.5c-.38 0-.68.21-.68.61 0 .26.17.46.44.46.31 0 .66-.24.67-.57l.24.43c-.17.5-.56.91-1.1.91-.66 0-1.15-.5-1.15-1.16 0-.9.75-1.26 1.56-1.26h.52ZM34 31h-1v-4h1v4Zm-.21-2.1h-.25c0-.84.38-1.9 1.36-1.9.85 0 1.1.77 1.1 1.5V31h-1v-2.5c0-.39-.07-.68-.49-.68-.56 0-.72.62-.72 1.08ZM42 31h-1v-4h1v4Zm-.21-2.1h-.25c0-.84.38-1.9 1.36-1.9.85 0 1.1.77 1.1 1.5V31h-1v-2.5c0-.39-.07-.68-.49-.68-.56 0-.72.62-.72 1.08ZM32 27v4h-1v-4h1ZM28 25v6h-1v-6h1Zm2 2.5v1h-2.31v-1H30Zm0-2.5v1h-2.31v-1H30ZM18.59 30.54 19.65 27h1.15l-1.61 4.59-.14.32a1.31 1.31 0 0 1-.6.6c-.15.06-.33.09-.54.09-.1 0-.19 0-.25-.02a4.4 4.4 0 0 1-.23-.05v-.78H17.6c.14 0 .26-.01.35-.04a.48.48 0 0 0 .21-.15.7.7 0 0 0 .13-.25l.3-.77ZM18.15 27l.87 2.89.15 1.12-.73.08L17 27h1.15ZM14 25v6h-1v-6h1Zm2.38 1.78-1.64 2.09-.87 1-.37-.82.7-.99.98-1.28h1.2ZM15.34 31l-1.12-1.95.7-.68L16.5 31h-1.16ZM8 29.04v-.08A1.9 1.9 0 0 1 10 27c1.15 0 2 .8 2 1.96v.08c0 1.16-.85 1.96-2 1.96s-2-.8-2-1.96Zm1-.08v.08c0 .57.35 1.16 1 1.16s1-.6 1-1.16v-.08c0-.55-.37-1.16-1-1.16-.65 0-1 .6-1 1.16ZM21 29.04v-.08A1.9 1.9 0 0 1 23 27c1.15 0 2 .8 2 1.96v.08c0 1.16-.85 1.96-2 1.96s-2-.8-2-1.96Zm1-.08v.08c0 .57.35 1.16 1 1.16s1-.6 1-1.16v-.08c0-.55-.37-1.16-1-1.16-.65 0-1 .6-1 1.16Z" fill="#CA2722"/><circle cx="31.5" cy="25.5" r=".5" fill="#CA2722"/><path d="M6.5 25v6h-1v-6h1ZM8 25v1H4v-1h4Z" fill="#CA2722"/></svg>