<!-- by TradingView --><svg width="56" height="56" viewBox="0 0 56 56" xmlns="http://www.w3.org/2000/svg"><path fill="#570E00" d="M0 0h56v56H0z"/><ellipse cx="28" cy="28" rx="21" ry="10" fill="#5D56AE"/><ellipse cx="28" cy="28" rx="17" ry="8" fill="#FBF6B2"/><path d="M17.35 25 17 26.5h.7c0-.38.35-.75.7-.75h1.05c-.23 1-.77 3.15-1.05 3.75-.28.6-.35.75-1.05.75L17 31h3.85l.35-.75c-.7 0-1.05 0-.7-.75l1.05-3.75h1.05c.28 0 .35.5.35.75h.7L24 25h-6.65ZM38 25h-4l-.4.75c.32 0 .9.14.8.75-.13.75-.48 2.4-.8 3-.32.6-1.07.75-1.2.75L32 31h4l.4-.75c-.96 0-.93-.5-.8-.75l.8-2.63c.32-.9.93-1.12 1.2-1.12L38 25ZM25.8 25h4.33c1.44 0 2.1.68 1.8 1.88-.36 1.5-1.08 1.87-2.16 1.87h-2.32l-.2.75c-.12.25-.15.75.72.75l-.36.75H24l.36-.75c.12 0 .8-.15 1.08-.75a16 16 0 0 0 .72-3c.1-.6-.43-.75-.72-.75l.36-.75Zm1.86 3h1.03c.48 0 1.08-.38 1.44-1.13.32-.67 0-1.12-.72-1.12h-.36c-.24 0-.8.23-1.08 1.13L27.66 28Z" fill="#5F55AF"/></svg>