<!-- by TradingView --><svg width="56" height="56" viewBox="0 0 56 56" xmlns="http://www.w3.org/2000/svg"><path fill="#F0F3FA" d="M0 0h56v56H0z"/><path fill="#FFDF00" d="M17 19h22v22H17z"/><path d="M27.4 20.59 25 20a63 63 0 0 0 .34 6.07c.35 3.13 2.41 8.8 2.76 12.52.27 2.97-1.04 6.84-1.72 8.41h1.03c.8-1.5 2.44-5.4 2.58-9 .17-4.5-1.55-6.46-2.24-9.98a30.43 30.43 0 0 1-.34-7.43Z" fill="#B8B8B9"/><path d="M15.7 41h-1.62c0-.77-.18-2.1 0-4.6a13.72 13.72 0 0 1 5.58-10.15c3.97-2.88 6.31-3.84 12.97-7.29 5.34-2.76 6.19-7.4 5.95-9.39L39.84 9c.12.64.29 2.22 0 3.45-.36 1.53-.9 5.17-5.94 8.62-5.05 3.45-12.8 6.7-16.04 10.54-2.6 3.07-2.52 7.54-2.16 9.39Z" fill="#DE0000"/><path d="m24.02 29.72-3.37-1.68.34-.67 3.36 1.68-.33.67Zm-.75 3.36-5.05-2.43.33-.67 5.05 2.42-.33.68Zm-.74 3.17-6.36-2.99.32-.67 6.36 2.98-.32.68Zm-1.12 2.98-6.36-2.98.31-.68 6.37 2.98-.32.68Z"/><path d="m26.64 31.02-2.62-1.3.33-.67 2.62 1.3-.33.67Zm1.13 4.11-4.49-2.05.31-.68 4.5 2.05-.32.68Zm.37 3.73-5.61-2.61.32-.68 5.6 2.61-.3.68Zm0 3.35-6.73-2.98.3-.68 6.74 2.98-.3.68Z" fill="#fff"/></svg>