<!-- by TradingView --><svg width="56" height="56" viewBox="0 0 56 56" xmlns="http://www.w3.org/2000/svg"><path fill="#F0F3FA" d="M0 0h56v56H0z"/><path d="M27.43 12.13c3.9-.87 7.03-.09 9.38 2.35-5-.19-9.63 1.04-13.9 3.68-.38.23-.61.13-.7-.3-.2-.92.12-1.8.96-2.65 1.6-1.62 3.02-2.64 4.26-3.08ZM39.18 16.06c.8.3 1.22.72 1.26 1.23.15.15.23.31.24.48.01.4-.17.62-.57.66-6.42.68-11.58 3.3-15.48 7.89a12.6 12.6 0 0 0-2.77 5c-1.4.9-2.31 1.32-2.76 1.3-1.89-.11-2.32-.96-1.3-2.54a29.6 29.6 0 0 1 6.48-7.31 5.33 5.33 0 0 0 2.53-2.06 32.13 32.13 0 0 1 12.37-4.65Z" fill="#CE1B07"/><path d="M40.06 37.75c-3.34 1.57-6.5 2.28-9.5 2.11-2.46-1.75-3.1-3.95-1.94-6.6 1.51-3.48 3.25-6.06 5.22-7.74 1.4-1.2 2.88-2.48 4.42-3.84.83-.73 1.57-1.12 2.24-1.16 2.52-.17 2.7.42.58 1.75-3.47 2.17-8.15 7.4-9.09 11.1-1.15 4.54-.55 4.78 1.8.74.43-.74.9-1.5 1.38-2.26 1.67-2.62 4.4-4.73 6.54-6.92 1.73-1.76 2.5-1.4 2.34 1.05l-.33 5.07c-.17 2.98-1.39 5.22-3.66 6.7Z" fill="#96C120"/><path d="M26.8 20.7a5.33 5.33 0 0 1-2.52 2.07c-.15-.98.7-1.66 2.53-2.06ZM24.63 26.32c-.36 3.74-1.28 5.4-2.77 5 .46-1.73 1.38-3.4 2.77-5ZM40.06 37.75c-2.9 3.12-6.06 3.82-9.5 2.11 3 .17 6.16-.54 9.5-2.11Z" fill="#CAD795"/><path fill-rule="evenodd" d="M28 43.7a15.7 15.7 0 1 0 0-31.4 15.7 15.7 0 0 0 0 31.4Zm0 1.3a17 17 0 1 0 0-34 17 17 0 0 0 0 34Z" fill="#CBD795"/></svg>