<!-- by TradingView --><svg width="56" height="56" viewBox="0 0 56 56" xmlns="http://www.w3.org/2000/svg"><path fill="#F0F3FA" d="M0 0h56v56H0z"/><path d="M31.01 27.14c-.98-1.07-2.77.08-1.43 1.04.47.33 1.4.59 1.87.98.47.39.64.87.5 1.46-.37 1.74-3.26 1.83-3.94.3a.14.14 0 0 1 0-.1.16.16 0 0 1 .07-.08l.4-.24c.1-.06.16-.04.22.04.44.61 1 .82 1.68.62.6-.18.87-.8.5-1.27-.32-.42-1.4-.81-1.92-1.1-1.32-.71-1-2.4.48-2.73.74-.16 1.88-.03 2.27.68.04.07.02.13-.05.17l-.43.26a.18.18 0 0 1-.12.02.17.17 0 0 1-.1-.05ZM6 26.86V26h3.88c.08 0 .12.04.12.11v.67c0 .08-.04.12-.13.12H8.62a.17.17 0 0 0-.1.04c-.04.02-.04.05-.04.09v4.8c0 .05-.03.09-.07.12a.21.21 0 0 1-.14.05h-.66c-.11 0-.17-.05-.17-.15V27a.12.12 0 0 0-.04-.08.16.16 0 0 0-.1-.04L6 26.86ZM24.14 29.26c-.49-.47-.81-.77-.98-.91-.1-.08-.14-.06-.14.04v3.5c0 .08-.04.11-.12.11h-.78c-.08 0-.12-.03-.12-.1v-5.72c0-.12.05-.14.15-.05a2083.7 2083.7 0 0 1 3.7 3.52c.08.08.13.06.13-.04v-3.5c0-.08.04-.11.12-.11h.78c.08 0 .12.03.12.1v5.72c0 .12-.05.14-.15.05l-2.7-2.6ZM45.86 26h-.72c-.08 0-.14.06-.14.13v5.74c0 .07.06.13.14.13h.72c.08 0 .14-.06.14-.13v-5.74c0-.07-.06-.13-.14-.13ZM50 31.13V32h-2.89c-.07 0-.11-.03-.11-.1v-5.73c0-.04.02-.09.06-.12a.2.2 0 0 1 .13-.05h.58c.14 0 .23.06.23.18V31c0 .07.02.11.1.11l1.9.02Z" fill="#14339F"/><path fill-rule="evenodd" d="m14.65 31.83-1.09-1.63c-.09-.14-.07-.26.06-.36 1.53-1.16 1.2-3.4-.73-3.8-.23-.04-.82-.05-1.76-.02-.09 0-.13.04-.13.12v5.7c0 .1.05.16.15.16h.6c.03 0 .07-.02.1-.05a.15.15 0 0 0 .05-.1V30.3c0-.08.04-.13.11-.16.27-.1.46-.07.57.12l.95 1.55c.08.13.2.19.35.19h.68c.13 0 .16-.06.09-.17Zm-2.72-4.87a.15.15 0 0 0-.04.1v2.02a.15.15 0 0 0 .15.15h.49a1.19 1.19 0 0 0 .82-.33 1.13 1.13 0 0 0 .34-.8v-.05a1.1 1.1 0 0 0-.34-.8 1.16 1.16 0 0 0-.82-.33h-.5a.15.15 0 0 0-.1.04ZM36.96 31.83l-1.18-1.64c-.1-.14-.08-.26.07-.36 1.65-1.15 1.29-3.4-.8-3.79-.26-.04-.9-.05-1.91-.02-.1 0-.14.04-.14.13l.01 5.7c0 .1.06.15.17.15h.64c.04 0 .08-.02.12-.05a.14.14 0 0 0 .04-.1V30.3c0-.08.04-.13.12-.16.29-.1.5-.07.62.12l1.03 1.54c.09.13.21.2.38.2h.73c.14 0 .18-.06.1-.17ZM33.99 27l-.01.05.01 2.03.01.06.04.04a.16.16 0 0 0 .11.04h.48c.35 0 .67-.12.91-.34.24-.21.37-.5.37-.8v-.05c0-.15-.03-.3-.1-.44a1.14 1.14 0 0 0-.28-.36c-.12-.1-.27-.19-.42-.25a1.44 1.44 0 0 0-.5-.08h-.48a.17.17 0 0 0-.1.05.14.14 0 0 0-.04.05Z" fill="#14339F"/><path d="m18.5 18-2.49 14h1.02l1.48-10.72L20.03 32h.95L18.5 18Z" fill="#14339F"/><path d="M19.3 22.47a39.56 39.56 0 0 0 12.34 2.22c4.6 0 7.79-.48 8.81-.72l-.25.45c-1.31.23-4.85.68-8.56.68-3.75 0-7.4-.27-12.19-1.78l-.14-.85Zm-.65-.23c-1.27-.45-2.3-.9-2.99-1.24l.16 1.02c1.03.41 2.01.77 2.95 1.08l-.12-.86Z" fill="#EA8C21"/><path d="m40.85 21-2.5 11h1.02l1.48-8.42L42.37 32h.95l-2.47-11Z" fill="#14339F"/></svg>