<!-- by TradingView --><svg width="56" height="56" viewBox="0 0 56 56" xmlns="http://www.w3.org/2000/svg"><path fill="#F7F7D8" d="M0 0h56v56H0z"/><path d="M45.75 25c1.99 0 3.25 1.45 3.25 3.4V33h-1v-4.49c0-1.48-.95-2.51-2.5-2.51-1.67 0-2.5 1.18-2.5 2.74V33h-1v-4.49c0-1.49-.94-2.51-2.5-2.51-1.67 0-2.5 1.18-2.5 2.74V33h-1v-8h1v1.5c.53-1 1.67-1.5 2.76-1.5 1.32 0 2.55.66 3.03 1.93.44-1.25 1.67-1.93 2.96-1.93ZM18 25v8h-1v-8h1Z" fill="#1A489F"/><path d="M16.97 24.27c.15.15.33.22.53.22s.38-.07.53-.22a.72.72 0 0 0 .22-.53.68.68 0 0 0-.22-.52.72.72 0 0 0-.53-.22c-.2 0-.38.07-.53.22a.68.68 0 0 0-.22.52c0 .21.08.39.22.53Z" fill="#ED1C24"/><path d="M14 26.54c.36-.99.93-1.54 2-1.54v1.05h-.22c-1.47 0-1.78 1.28-1.78 2.56V33h-1v-8h1v1.54ZM12 23v1H9.5v9h-1v-9H6v-1h6Z" fill="#1A489F"/><circle cx="31" cy="29" r="4" fill="#ED1C24"/><path fill-rule="evenodd" d="M31 32.5a3.5 3.5 0 1 0 0-7 3.5 3.5 0 0 0 0 7Zm0 .5a4 4 0 1 0 0-8 4 4 0 0 0 0 8Z" fill="#170A15"/><path d="M30 25c.17.83 1.4 2.5 5 2.5-.67-1.17-2.6-3.3-5-2.5Z" fill="#8FED4F"/><path d="M31.27 24.33c.05-.32.27-.82.84-1.1l-.22-.45c-.8.4-1.07 1.12-1.13 1.56-.3.02-.6.08-.92.19l-.42.14.09.43c.23 1.14 1.74 2.9 5.49 2.9h.86l-.43-.75a6.76 6.76 0 0 0-2-2.15 4.35 4.35 0 0 0-2.16-.77Zm3.4 2.67c.13.17.24.35.33.5-.2 0-.4 0-.6-.02-2.59-.14-3.8-1.2-4.22-2.01A2.2 2.2 0 0 1 30 25c2.08-.7 3.81.82 4.67 2Z"/><path d="M25.24 31A3 3 0 0 1 20 29a3 3 0 0 1 5.24-2h1.22a4 4 0 1 0 0 4h-1.22Z" fill="#1A489F"/></svg>