<!-- by TradingView --><svg width="56" height="56" viewBox="0 0 56 56" xmlns="http://www.w3.org/2000/svg"><path fill="#F0F3FA" d="M0 0h56v56H0z"/><path d="M52 24v7h-1.5v-7H52ZM49.75 24v1H48v6h-1.5v-6h-1.75v-1h5ZM42.8 31l-2.3-3.12V31H39v-7h1.5v3.14L42.8 24h1.62l-2.77 3.47L44.5 31h-1.7ZM35.96 29.67h-2.93L32.55 31H31l2.64-7h1.72L38 31h-1.56l-.48-1.33Zm-.4-1.12-1.07-2.93-1.06 2.93h2.13ZM30 24v7h-1.5v-3h-2v3H25v-7h1.5v3h2v-3H30ZM21.56 31c-.48 0-.92-.08-1.3-.24-.39-.17-.69-.4-.91-.71-.23-.3-.34-.63-.35-1.05h1.48c.02.28.12.47.3.63.18.16.43.24.75.24s.58-.07.76-.22a.76.76 0 0 0 .28-.6.7.7 0 0 0-.2-.5 1.26 1.26 0 0 0-.46-.31 6.52 6.52 0 0 0-.78-.26 9.28 9.28 0 0 1-1.1-.38 2.03 2.03 0 0 1-.71-.57c-.2-.27-.3-.61-.3-1.04 0-.4.1-.76.3-1.06.21-.3.5-.53.87-.69a3.1 3.1 0 0 1 1.26-.24c.71 0 1.29.17 1.73.52.45.34.7.81.74 1.43H22.4a.76.76 0 0 0-.3-.58 1.1 1.1 0 0 0-.75-.23.99.99 0 0 0-.65.2c-.16.14-.24.34-.24.6 0 .18.06.33.18.46.13.12.28.21.45.3l.78.25c.44.13.8.26 1.1.39.28.13.52.32.72.59a1.92 1.92 0 0 1 .02 2.05c-.19.3-.47.56-.84.75-.37.18-.8.27-1.31.27ZM17.5 24v7H16v-7h1.5ZM13.45 31l-1.48-2.73h-.47V31H10v-7h2.51c1.28 0 2.49.81 2.49 2.18 0 .96-.67 1.72-1.6 1.98L15 31h-1.55Zm-1.95-3.78h.96c.74 0 .94-.4.94-1.04 0-.65-.22-1.18-.94-1.18h-.96v2.22ZM9 24v1H7.25v6h-1.5v-6H4v-1h5Z"/></svg>