<!-- by TradingView --><svg width="56" height="56" viewBox="0 0 56 56" xmlns="http://www.w3.org/2000/svg"><path fill="#F0F3FA" d="M0 0h56v56H0z"/><path fill-rule="evenodd" d="M13.61 32.65a6.2 6.2 0 0 1-2.15-1.18c-.26-.22-.29-.46-.09-.73l.86-1.15c.07-.1.06-.2-.03-.28l-1.12-1.1a.28.28 0 0 1 0-.4l1.12-1.09c.1-.1.1-.2.03-.3l-.95-1.27a.37.37 0 0 1 .06-.5c.7-.58 1.47-1.01 2.3-1.31.1-.04.16-.12.16-.24a3.82 3.82 0 0 1 2-3.6c.15-.06.3-.15.43-.24.08-.04.11-.11.1-.2l-.06-2.4a.36.36 0 0 1 .37-.37l2.4.06a.27.27 0 0 0 .25-.14c.76-1.6 2-2.4 3.7-2.4.15 0 .25-.07.3-.2l.1-.2a6.2 6.2 0 0 1 1.25-2.02.53.53 0 0 1 .67-.02l1.12.88c.1.08.19.07.27-.02l1.07-1.13a.34.34 0 0 1 .38-.07c.05.02.08.05.12.08l1.01 1.11c.08.09.17.1.26.02l1.24-.91a.47.47 0 0 1 .65.08c.52.67.93 1.4 1.23 2.2a.33.33 0 0 0 .25.2c.14.03.29.02.43.02.15 0 .3-.02.47.02a3.92 3.92 0 0 1 2.9 2.35c.04.1.12.15.23.14l2.37-.05a.39.39 0 0 1 .4.4l-.06 2.34c0 .13.05.21.16.26 1.58.75 2.37 2 2.38 3.76 0 .14.07.23.2.28.83.3 1.6.75 2.3 1.36.06.05.1.12.1.2a.3.3 0 0 1-.05.21l-.99 1.37c-.06.1-.05.18.03.25l1.11 1.03a.34.34 0 0 1 0 .5l-1.17 1.08c-.06.06-.06.12-.01.19l1.01 1.35a.35.35 0 0 1-.06.49 8.34 8.34 0 0 1-2.35 1.36c-.1.03-.14.1-.13.2.08 1.75-.8 3.03-2.37 3.8a.27.27 0 0 0-.17.27l.08 2.41a.28.28 0 0 1-.28.3c-.85.02-1.67 0-2.46-.06-.11-.02-.2.03-.24.13a3.92 3.92 0 0 1-3.78 2.45.3.3 0 0 0-.3.21 8.74 8.74 0 0 1-1.16 2.08c-.22.3-.49.34-.8.12l-1.15-.87c-.09-.07-.17-.07-.25.02l-1 1.06c-.2.21-.4.21-.6 0l-1-1.03c-.08-.1-.17-.1-.27-.03l-1.26.93a.42.42 0 0 1-.58-.08 9.66 9.66 0 0 1-1.28-2.24.26.26 0 0 0-.26-.18 3.85 3.85 0 0 1-3.74-2.38.27.27 0 0 0-.27-.16l-2.26.05c-.36.01-.53-.17-.52-.53l.09-2.21a.28.28 0 0 0-.18-.28 3.84 3.84 0 0 1-2.37-3.8c0-.13-.07-.21-.19-.25Zm14.26-18.32-.63-1.11c-.08-.14-.06-.27.04-.39l.57-.64c.1-.1.18-.1.27 0l.65.68a.2.2 0 0 1 .02.24l-.67 1.22c-.08.14-.17.14-.25 0Zm-4.44 2.98a.3.3 0 0 0 .26.04c.12-.04.2-.1.24-.19.13-.27.06-.48-.2-.63-2.13-1.25-3.37 2.06-1.24 3.04 3.6 1.65 5.38-4.05 1.66-5.52a.14.14 0 0 1-.08-.1.15.15 0 0 1 0-.12l.82-1.51c.06-.1.14-.13.24-.05a5.7 5.7 0 0 1 2.42 5.37c-.12 1.82-1.3 3.48-3.1 3.88-2.32.5-4.96-1.8-4.59-4.21a2.98 2.98 0 0 1 1.93-2.48c1.43-.58 3.17.1 3.57 1.65.42 1.6-1.09 3.24-2.66 2.23-.99-.63-.38-2.22.73-1.4Zm9.3-.1a.77.77 0 0 1-.35.14c-.16.02-.26-.04-.31-.19-.1-.27-.03-.48.21-.64 2.02-1.27 3.4 2 1.21 3.03-3.57 1.67-5.36-3.99-1.7-5.49a.2.2 0 0 0 .13-.2.2.2 0 0 0-.02-.08l-.77-1.4c-.08-.16-.19-.19-.33-.08a5.8 5.8 0 0 0-2.34 5.45c.27 2.94 3.28 5.03 6 3.07 1.89-1.36 2.47-4.12.43-5.61-1.9-1.4-4.8-.11-4.22 2.43.42 1.9 3.37 1.73 3.12.06a.72.72 0 0 0-.4-.55.63.63 0 0 0-.65.06Zm-13.62 2.06a4.51 4.51 0 0 0-1.76-.24c-.12 0-.19-.06-.19-.19l-.05-1.63c0-.08.04-.12.11-.11l1.7.07c.06 0 .09.03.09.09-.04.64.04 1.26.24 1.86.05.15 0 .2-.14.15Zm17.88-1.88c.01.6-.03 1.19-.27 1.71-.07.16-.03.21.13.16a4.82 4.82 0 0 1 1.78-.22c.14 0 .21-.06.22-.2l.05-1.52c0-.15-.07-.22-.22-.22l-1.5.07c-.13 0-.2.08-.2.22Zm-8.88 2.26.57.98c.1.16.05.22-.13.19a2.98 2.98 0 0 0-1.17.03c-.17.03-.21-.02-.12-.17l.64-1.03c.08-.11.14-.11.21 0ZM17.22 23.3c.08.08.12.18.13.3a.4.4 0 0 1-.67.3c-.7-.66-.5-1.78.29-2.25 1.34-.8 2.6.26 2.83 1.6.28 1.59-1 2.88-2.5 3-1.5.11-2.6-.6-3.3-2.15-.03-.04-.05-.04-.09-.03l-1.67.87c-.05.03-.06.07-.03.11 1.67 2.46 5.11 3.4 7.67 1.75 2.76-1.77 1.9-5.53-.83-6.67a3.1 3.1 0 0 0-2.97.19c-2.01 1.23-2.03 4.54.55 5.06 1.3.27 2.8-.78 2.3-2.23-.24-.77-1.35-1.46-1.8-.46a.57.57 0 0 0 .09.6Zm21.41.38a.39.39 0 0 0 .64.25c1.7-1.4-1.14-3.77-2.57-1.83s.14 4.29 2.42 4.16c1.33-.08 2.27-.77 2.84-2.08a.17.17 0 0 1 .1-.1.16.16 0 0 1 .13.02l1.48.83a.18.18 0 0 1 .06.26 5.81 5.81 0 0 1-4.93 2.42c-1.94-.02-3.99-1.2-4.32-3.25a3.98 3.98 0 0 1 3.89-4.48c1.9.01 3.4 1.75 2.92 3.68-.77 3.07-5.5 2.03-4-.9a.8.8 0 0 1 .61-.44c.54-.07.89.13 1.06.6a.4.4 0 0 1-.13.45c-.15.11-.22.25-.2.4Zm-4.72 6.79a6.4 6.4 0 1 0-11.83-4.9 6.4 6.4 0 0 0 11.83 4.9Zm-11.6-7.47-.2-.77c-.02-.14.02-.17.15-.11.27.13.56.2.87.23.2.01.23.1.08.23l-.72.7c-.09.08-.16.07-.2-.05a.17.17 0 0 1 0-.16.1.1 0 0 0 .02-.07Zm11.36-.84-.9.23a.09.09 0 0 0-.06.1c0 .02 0 .04.02.05l.7.7c.1.1.16.09.2-.05l.23-.83c.05-.18-.01-.24-.19-.2Zm7.91 5.75c.45-.18.85-.4 1.2-.65.16-.12.3-.1.42.06.1.15.3.33.6.56a.17.17 0 0 1 .02.25l-.67.64c-.08.08-.17.1-.27.03l-1.31-.7c-.13-.07-.12-.13.01-.19Zm-28.34.87c.36-.28.75-.48 1.17-.62.18-.06.19-.14.02-.23l-1.24-.67c-.18-.1-.33-.07-.45.1a2 2 0 0 1-.48.44c-.18.12-.19.25-.03.4l.63.56c.12.1.25.11.38.02Zm23.13-.62c-.36.1-.67.35-.96.57l-.02.02c-.17.13-.24.1-.2-.12.09-.42.09-.84 0-1.23-.03-.15.01-.19.14-.1l1.07.63c.16.1.15.18-.03.23ZM19.6 28.1l1.02.55c.11.06.17.02.17-.1v-1.13c-.01-.2-.09-.23-.23-.1-.29.24-.6.42-.94.54-.2.07-.2.15-.02.24Zm-2.86 3.97a.56.56 0 0 0-.4.41c-.26 1.21.15 1.91 1.23 2.1.9.15 1.57-.22 2.01-1.12.59-1.17.2-2.54-.9-3.22-1.8-1.12-3.89-.27-4.67 1.67-.02.06-.06.07-.12.04l-1.68-.9c-.04-.03-.05-.05-.02-.09a5.85 5.85 0 0 1 5.5-2.52c3.1.28 5.13 3.42 3.08 6.1-1.43 1.88-4.17 2.38-5.63.24-1.19-1.74-.18-4.38 2.16-4.18 1.23.1 2.05 1.2 1.59 2.4-.56 1.5-2.47.61-1.57-.4a.3.3 0 0 0 .05-.35c-.1-.22-.3-.28-.63-.18Zm22.17.9-.24-.45c-.07-.15-.04-.27.1-.37l.12-.1c.17-.12.32-.1.45.06 1.02 1.22.02 2.67-1.42 2.5-1.2-.14-1.89-1.5-1.74-2.58.21-1.49 1.62-2.4 3.07-2.26 1.28.12 2.2.83 2.75 2.14.02.04.04.05.08.03a6.83 6.83 0 0 0 1.74-1.03c-1.74-2.17-3.87-2.93-6.38-2.28-.8.2-1.47.6-2.03 1.19-2.08 2.17-.52 5.83 2.25 6.27 4.7.77 4.84-6.29.78-5.44-1 .2-1.73 1.23-1.37 2.26.29.8 1.2 1.35 1.82.44a.35.35 0 0 0 .02-.37Zm-16.8.75c.13-.25.15-.44.17-.66l.03-.27c.02-.15.1-.18.2-.07l.7.7c.14.13.12.22-.07.26l-.91.19c-.14.03-.18-.02-.12-.15Zm11.7-.23c-.07-.2-.13-.38-.15-.64-.02-.23-.1-.25-.25-.08l-.62.71c-.12.14-.08.21.1.21.29 0 .56.06.82.17.19.09.25.03.18-.16l-.07-.21Zm-10.49 5.26a.85.85 0 0 1-.54.2.53.53 0 0 1-.53-.41c-.14-.63.05-1.07.58-1.34 2.47-1.23 3.69 2.72 1.31 3.86-2.2 1.06-4.52-.75-4.27-3.1.14-1.29.82-2.3 2.05-3.02 2.6-1.52 5.26.45 5.6 3.13a5.74 5.74 0 0 1-2.24 5.58c-.19.15-.34.12-.45-.09l-.66-1.23c-.12-.22-.06-.38.18-.46 1.75-.63 2.27-2.72 1.57-4.26a2.5 2.5 0 0 0-3.78-.96c-1.5 1.1-.56 3.78 1.46 2.93.2-.08.33-.22.39-.42a.41.41 0 0 0-.18-.45.4.4 0 0 0-.49.04Zm9.1.82c-.32-.14-.44-.37-.37-.7a.29.29 0 0 1 .12-.16.28.28 0 0 1 .2-.05c.2.02.39.1.56.23.13.1.27.1.4.02.56-.34.7-1.06.15-1.5-1.28-1-2.7-.15-2.88 1.3a2.38 2.38 0 0 0 2.08 2.62 2.98 2.98 0 0 0 3.38-2.22c.9-3.76-4.3-6.49-6.69-3.2-1.77 2.46-1.02 5.96 1.46 7.79.14.1.25.08.33-.08l.72-1.37c.07-.13.04-.23-.08-.31l-.31-.17c-.2-.1-.4-.2-.56-.35a3.06 3.06 0 0 1-1.13-2.88c.24-1.74 1.91-2.91 3.62-2.14 2.18.98 1.14 4.1-1 3.17Zm-3.6-4.33-.69 1.1c-.08.12-.16.12-.24 0l-.6-1.02c-.09-.13-.05-.18.1-.15a3.3 3.3 0 0 0 1.4-.01.06.06 0 0 1 .03.05v.03Zm-9.75 3.43a3.3 3.3 0 0 1 .24-1.9.07.07 0 0 0-.1-.05 3.8 3.8 0 0 1-1.77.22c-.15-.02-.24.05-.25.2l-.1 1.56a.18.18 0 0 0 .05.13.17.17 0 0 0 .14.05l1.65-.03a.15.15 0 0 0 .1-.06.15.15 0 0 0 .04-.12Zm17.82-1.93c.62.22 1.24.3 1.86.24.05 0 .07.01.08.06l.1 1.73c0 .08-.04.12-.12.12l-1.66-.06c-.13 0-.2-.07-.18-.2a4.3 4.3 0 0 0-.23-1.81.11.11 0 0 1 .15-.08Zm-8.05 6.2-.73-1.33a.12.12 0 0 0-.21 0l-.72 1.33a.12.12 0 0 0 .02.14l.71.79a.12.12 0 0 0 .14.03l.04-.03.74-.8a.12.12 0 0 0 .01-.14ZM27.5 27a1 1 0 0 0-1-1h-2a.5.5 0 0 1 0-1h7a.5.5 0 0 1 0 1h-2a1 1 0 0 0-1 1v4.5a.5.5 0 0 1-1 0V27Zm-1 0h-2a1.5 1.5 0 0 1 0-3h7a1.5 1.5 0 0 1 0 3h-2v4.5a1.5 1.5 0 0 1-3 0V27Z" fill="#B8995E"/></svg>