<!-- by TradingView --><svg width="56" height="56" viewBox="0 0 56 56" xmlns="http://www.w3.org/2000/svg"><path fill="#F0F3FA" d="M0 0h56v56H0z"/><path d="M50 32.27h-5.68v.24c0 1 .26 1.77.78 2.3.52.52 1.16.78 1.94.78 1.15 0 1.98-.38 2.5-1.14l.25.12c-.6.95-1.6 1.43-3.01 1.43-1.04 0-1.93-.3-2.67-.92A3.07 3.07 0 0 1 43 32.59c0-1.05.32-1.91.97-2.58A3.5 3.5 0 0 1 46.59 29c1.1 0 1.94.3 2.53.92.59.6.88 1.39.88 2.35Zm-3.36-2.99c-.67 0-1.2.24-1.6.71a3.42 3.42 0 0 0-.69 1.86h4.32c-.09-1.7-.76-2.57-2.03-2.57ZM36.15 29.84c0 .45.27 1.25.81 2.41l1.32 2.85 1.34-3.53c.26-.7.4-1.24.4-1.6 0-.53-.4-.8-1.2-.8l-.04-.17H42l-.03.18c-.47 0-.8.13-1 .4-.18.25-.53 1.05-1.04 2.4L38.38 36h-1l-2.24-4.88a4.4 4.4 0 0 0-1.03-1.6c-.3-.23-.65-.34-1.08-.34L33 29h4.25l-.03.18c-.4 0-.68.05-.84.16-.15.1-.23.27-.23.5ZM30.66 29v4.6c0 1.02.06 1.65.19 1.88.13.23.5.35 1.12.35L32 36h-3.8l.03-.17c.63 0 1-.12 1.14-.35.13-.24.2-.88.2-1.9v-1.01c0-1.13-.03-1.86-.1-2.22-.07-.37-.16-.6-.29-.71-.25-.21-.63-.32-1.15-.32l-.03-.16c.9-.1 1.79-.16 2.66-.16ZM25.58 25v8.4c0 1.1.07 1.79.21 2.05.14.25.54.37 1.18.37L27 36h-4l.03-.18c.66 0 1.05-.12 1.2-.37.14-.25.2-.93.2-2.05v-5.71c0-1.1-.06-1.77-.19-2a.7.7 0 0 0-.24-.21.9.9 0 0 0-.4-.12 8.09 8.09 0 0 0-.57-.02l-.03-.16a17.8 17.8 0 0 1 2.58-.18ZM18.66 34.31a5.1 5.1 0 0 0 .54-2.34c0-.44-.02-.8-.04-1.1-.02-.29-.06-.55-.12-.78a.87.87 0 0 0-.3-.5c-.25-.19-.68-.28-1.27-.28l-.03-.15c1-.1 2-.16 2.97-.16v3.7c0 1.06.05 1.75.13 2.08.08.32.28.48.59.48.2 0 .46-.06.78-.2l.09.14-.37.22a6.39 6.39 0 0 1-2.26.5 9.27 9.27 0 0 1-.17-1.9c-.54 1.32-1.46 1.98-2.77 1.98-1.78 0-2.67-.76-2.67-2.27v-1.38c0-1.42-.09-2.28-.26-2.57a.79.79 0 0 0-.32-.28c-.13-.09-.3-.14-.47-.16a6.25 6.25 0 0 0-.68-.03l-.03-.15c1.01-.1 2-.16 2.98-.16v4.59c0 .65.12 1.14.36 1.47.26.33.65.5 1.17.5a2.3 2.3 0 0 0 2.15-1.25ZM8.57 28.03H11v.36H8.57v6.29c0 .23.07.42.2.56.13.13.3.2.51.2a5.1 5.1 0 0 0 1.68-.35l.04.18c-.92.49-1.74.73-2.45.73-.46 0-.8-.1-1.03-.28-.22-.19-.33-.51-.33-.97v-6.36H6v-.36c.71 0 1.2-.17 1.48-.5.3-.34.5-.84.65-1.5l.44-.03v2.03Z"/><path d="M16 20.08c6.51-2.16 8.64.49 9 2.09-.21.27-1.16.83-3.21.83-2.06 0-4.65-1.94-5.79-2.92Z" fill="#AEBC72"/><path d="M34 20.08c-6.51-2.16-8.64.49-9 2.09.21.27 1.16.83 3.21.83 2.06 0 4.65-1.94 5.79-2.92ZM21.32 21.12A7.25 7.25 0 0 0 25 22.17c0-1.67-.05-2.96-1.07-3.96s-4.23-1.95-5.79-2.3c.57 1.4 2 4.38 3.18 5.21Z" fill="#DFDE34"/><path d="M28.68 21.12A7.25 7.25 0 0 1 25 22.17c0-1.67.05-2.96 1.07-3.96s4.23-1.95 5.79-2.3c-.57 1.4-2 4.38-3.18 5.21Z" fill="#DFDE34"/><path d="M22.86 19.67a2.71 2.71 0 0 0 2.14 2.5 2.4 2.4 0 0 0 2.14-2.5c0-1.84-1.43-5.21-2.14-6.67-.64 1.46-2.31 4.83-2.14 6.67Z" fill="#A6CE39"/><path d="M26.81 17.68c-.3.17-.56.35-.74.53-1.02 1-1.07 2.29-1.07 3.96a2.4 2.4 0 0 0 2.14-2.5c0-.56-.13-1.25-.33-2Z" fill="#54C5D0"/><path d="M25 22.17a2.71 2.71 0 0 1-2.14-2.5 5.9 5.9 0 0 1 .28-2.02c.32.18.6.37.79.56 1.02 1 1.07 2.29 1.07 3.96Z" fill="#8DD8F8"/><path d="M25 22.17c-.7 0-2.49-.21-3.68-1.05a6.5 6.5 0 0 1-1.5-1.84c3.58-.2 4.9 1.66 5.18 2.89Z" fill="#7570B3"/><path d="M25 22.17c.7 0 2.49-.21 3.68-1.05a6.5 6.5 0 0 0 1.5-1.84c-3.58-.2-4.9 1.66-5.18 2.89Z" fill="#0095DA"/></svg>