<!-- by TradingView --><svg width="56" height="56" viewBox="0 0 56 56" xmlns="http://www.w3.org/2000/svg"><path fill="#F0F3FA" d="M0 0h56v56H0z"/><path d="M28 44a16 16 0 1 0 0-32 16 16 0 0 0 0 32ZM18 27l14-12v5.5l2.5 1L32 25v17h-6c-.67 0-2-.4-2-2V29c0-.67-.4-2-2-2h-4Z" fill="url(#ayqsvmymp)"/><path d="M16 29.5c-2.31-1.62-3.12-5.05-2.52-8.23a16 16 0 1 1 22.8 20.43C39.3 36.22 40.97 28.64 38 26c-1.97-1.75-3.65-2.26-5.21-2.1l1.71-2.4-2.5-1V15L18 27h4c1.43 0 1.9 1.06 1.99 1.76-2.18 1.7-4.61 3.1-7.99.74Z" fill="url(#byqsvmymp)"/><path fill-rule="evenodd" d="M28 43.5a15.5 15.5 0 1 0 0-31 15.5 15.5 0 0 0 0 31Zm0 .5a16 16 0 1 0 0-32 16 16 0 0 0 0 32Z" fill="#800F0F"/><defs><linearGradient id="ayqsvmymp" x1="28" y1="12" x2="28" y2="44" gradientUnits="userSpaceOnUse"><stop stop-color="#BE151B"/><stop offset="1" stop-color="#850203"/></linearGradient><linearGradient id="byqsvmymp" x1="28.64" y1="12" x2="28.64" y2="41.7" gradientUnits="userSpaceOnUse"><stop stop-color="#F1E2E2"/><stop offset="1" stop-color="#9D2F2F"/></linearGradient></defs></svg>