<!-- by TradingView --><svg width="56" height="56" viewBox="0 0 56 56" xmlns="http://www.w3.org/2000/svg"><path fill="#F0F3FA" d="M0 0h56v56H0z"/><path fill-rule="evenodd" d="M46 20H10a1 1 0 0 0-1 1v14a1 1 0 0 0 1 1h36a1 1 0 0 0 1-1V21a1 1 0 0 0-1-1Zm-36-1a2 2 0 0 0-2 2v14c0 1.1.9 2 2 2h36a2 2 0 0 0 2-2V21a2 2 0 0 0-2-2H10Z" fill="#F90003"/><path d="M10 25v-3h13v8.45c0 .19.1.55.5.55s.5-.36.5-.55V22h10l3 4.36V23.1c0-.87.67-1.09 1-1.09h7v3h-5v9h-4.5L33 29.1V34h-3v-9h-2v6c0 1.1-.9 3-4.5 3S19 32.1 19 31v-6h-2v9h-4v-9h-3Z" fill="#F90003"/><path d="M45 26h-4v8h4v-8Z" fill="#F90003"/></svg>