<!-- by TradingView --><svg width="56" height="56" viewBox="0 0 56 56" xmlns="http://www.w3.org/2000/svg"><path fill="#F0F3FA" d="M0 0h56v56H0z"/><path d="m46.2 19.74.02-.01c.16-.06.33-.09.5-.1.07 0 .24-.02.5-.07l.6-.1a2.94 2.94 0 0 0 1.93-1.44.08.08 0 0 1 .1 0c.14.1.15.54.15.65-.02.54-.01 1.04-.12 1.58-.1.43-.17.8-.23 1.12a1.5 1.5 0 0 1-.25.46c-.33.43-.52.66-.96.86-.52.24-.98.44-1.36.59-.45.18-.73.26-1.06.46-.16.1-.33.1-.46.23-.18.18-.45.34-.64.53-.27.27-.47.5-.6.67-.1.14-.2.4-.37.58a.05.05 0 0 1-.05.02c-.1-.03-.16-.09-.16-.18-.01-.48-.06-.9-.15-1.28a2.45 2.45 0 0 1-.07-.6c.01-.57.06-1.04.14-1.4.2-.9.68-1.6 1.42-2.06l.38-.24c.24-.13.5-.18.74-.26 0 0 .01 0 0 0Zm-2.03 4.6c.1-.43.15-.74.37-1.08a4.33 4.33 0 0 1 1.75-1.55c.29-.14.66-.3 1.14-.48.37-.14.72-.34 1.05-.6.17-.12.32-.28.48-.48a38.54 38.54 0 0 0 .42-.57l.02-.09v-.04c.02-.1 0-.1-.06-.02a4.53 4.53 0 0 1-2.45 1.62c-.61.19-1.18.47-1.72.84-.39.27-.6.64-.84 1.08-.22.39-.37.88-.28 1.32 0 .04.01.06.02.06l.06.02c.02 0 .03 0 .04-.03Z" fill="#99C329"/><path d="M32.9 37.97c.26-.04.42-.08.49-.12 4.96-2.85 11.83-.8 13.17-8.5l.16-1.2c.1-.85.2-1.81.09-2.72a2.4 2.4 0 0 0-.09-.35c-.02-.1-.04-.22-.03-.35v-.52c.43-.16.88-.29 1.3-.45.5-.2.95-.37 1.31-.82.18-.22.28-.34.54-.4a.06.06 0 0 1 .07.04v.03a4.3 4.3 0 0 0-.07.56c-.03.53-.05 1.59-.06 3.17 0 .45-.02.83-.05 1.15-.05.54-.09 1.06-.16 1.52-.1.64-.23 1.18-.38 1.61l-.43 1c-.17.39-.34.7-.51.97-.34.53-.63.93-.88 1.22a11.5 11.5 0 0 1-4.77 3.14c-.36.14-.94.3-1.72.5l-.33.06-.34.06c-.86.18-1.71.3-2.55.38-.38.03-.84.04-1.37.04l-3.38-.02Z" fill="#17AAC1"/><path d="m13.21 30.85-3.39.76c-.22-.55-.7-1.07-.81-1.54a22.16 22.16 0 0 1-.43-2.35c-.06-.32-.12-.65-.14-.92l-.1-2c-.02-.5.23-.76.24-1.32v-.37c0-.31.08-.59.27-.98a.4.4 0 0 1 .14-.1L12 22v2.52c-.01 2.16-.1 4.49 1.21 6.33Z" fill="url(#a)"/><path d="M35.36 27.31c.46.82.8 1.68 1.05 2.59.17.6.3 1.2.42 1.81.04.24.07.56.08.73 0 .15.1.2.22.2a10.85 10.85 0 0 0 4.26-.83 4.97 4.97 0 0 0 1.53-1.13c.24-.31.44-.65.61-1 .35-.75.4-1.52.45-2.38l.01-.18c0-.1.03-.19.07-.27l.27-.55c.35-.7.83-1.22 1.44-1.6.25-.15.56-.31.93-.5l-.01.53c0 .13 0 .25.04.35l.08.35c.11.9.02 1.87-.09 2.73-.08.64-.13 1.04-.16 1.18-.79 6.62-8.24 7.84-13.65 8.63l-1.67.03c-.12 0-.23-.05-.24-.17V33.2c-.15-2.18-.8-4.42-2.89-5.37-.49-.22-4.1-.89-4.11-.22V38h-3.92l-.82-.04c-.02 0-.04 0-.06-.03-3.95-.86-6.99-1.54-9.14-5.42l-.24-.9 3.4-.76a4.63 4.63 0 0 0 3.12 1.65c.55.08 1.25.13 2.09.15l.39.05a.11.11 0 0 0 .11-.05.6.6 0 0 0 .07-.33v-10.2c0-.06.12-.12.18-.12h5.02c3.75 0 8.07 1.2 10.41 4.18.27.34.51.71.75 1.13Z" fill="url(#b)"/><path d="m8.99 22.07.99-.07H6.24c-.15 0-.23.07-.23.22-.02.94-.01 2.08.01 3.44.02.83.05 1.43.1 1.79.13 1.18.4 2.38.79 3.6.23.73.65 1.44 1 2.01l.05.1c.17.29.38.57.61.85.52.62 1.1 1.17 1.73 1.67a6.57 6.57 0 0 0 1.94 1.12c.4.17.74.29 1 .35a32.6 32.6 0 0 0 4.8.78c.51.06 1.2.07 2.04.05l-.82-.02c-.02 0-.04 0-.06-.03-.17-.2-.37-.38-.6-.56a.86.86 0 0 0-.34-.15c-.74-.16-1.5-.36-2.29-.59-.38-.1-.79-.3-1.2-.49-.32-.14-.63-.28-.94-.4a6.34 6.34 0 0 1-1.88-1.1l-.77-.7a2.5 2.5 0 0 1-.45-.48l-.65-1.17-.26-.72c-.23-.55-.4-1.05-.5-1.52a22.18 22.18 0 0 1-.43-2.35c-.06-.32-.12-.65-.14-.92l-.1-2a20.93 20.93 0 0 1 0-1.62c0-.32.1-.67.29-1.06a.05.05 0 0 1 .05-.03Z" fill="url(#c)"/><defs><linearGradient id="a" x1="27.75" y1="22" x2="27.75" y2="35.44" gradientUnits="userSpaceOnUse"><stop stop-color="#009EDB"/><stop offset="1" stop-color="#008898"/></linearGradient><linearGradient id="b" x1="27.75" y1="22" x2="27.75" y2="35.44" gradientUnits="userSpaceOnUse"><stop stop-color="#009EDB"/><stop offset="1" stop-color="#008898"/></linearGradient><linearGradient id="c" x1="6.85" y1="23.13" x2="13.03" y2="37.99" gradientUnits="userSpaceOnUse"><stop stop-color="#33B1DB"/><stop offset="1" stop-color="#0D91A5"/></linearGradient></defs></svg>