<!-- by TradingView --><svg width="56" height="56" viewBox="0 0 56 56" xmlns="http://www.w3.org/2000/svg"><path fill="#F0F3FA" d="M0 0h56v56H0z"/><path d="M39.41 26.97c-.14 0-.28 0-.41.03-.1.02-.18-.06-.17-.16.3-1.89.55-3.91.73-6.07 0-.03.03-.05.06-.05l.99.15c.07.01.14.05.19.1.34.4.67.82 1 1.26.75 1.02.94 2.31 1.14 3.52.05.3.03.93-.4.95l-.2.02c-1.03.17-2 .25-2.93.25ZM38.58 28.4c.01-.09.07-.13.15-.12 1.15.14 2.3-.02 3.43-.05.32-.02.48.14.48.46-.01.8-.22 1.48-.63 2.06-.19.26-.36.54-.52.82-.37.67-.76 1.3-1.16 1.9-.4.63-.92.87-1.63.92-.33.03-.36-.06-.09-.25a2 2 0 0 0 .95-1.6c.03-.63-.47-.6-.93-.52-.28.04-.55-.12-.52-.44.12-1.1.27-2.16.47-3.19Z" fill="#01AEF0"/><path fill-rule="evenodd" d="M8 28.5C8 20.57 14.63 17 22 17c5 0 9.92.07 14.94 0C42.68 16.95 48 20.87 48 26.97c-.03.19 0 1.01 0 1.01C48 33 44.4 39 38.95 39h-16C14.91 38.99 8 37.42 8 28.5Zm29.22 6.67a.6.6 0 0 1 .2-.05c.1-.01.13.03.06.1a.54.54 0 0 0-.13.54.3.3 0 0 0 .12.17c.46.3.02.92-.19 1.23-.13.19-.24 1.05.12 1.05.95-.01 1.33-.57 1.76-1.19.1-.15.2-.3.32-.45.23-.3.5-.58.9-.63l1.38-.14c.08 0 .14-.04.18-.12.13-.26.16-.52.1-.79a.3.3 0 0 0-.14-.2c-.96-.57 1.15-3.78 1.6-4.51.2-.34.34-.73.41-1.17.09-.56.92-.66 1.35-.65.32 0 .63-.16.51-.54-.12-.4-.42-.53-.72-.65-.25-.1-.5-.21-.64-.48a2.63 2.63 0 0 1-.31-.98c-.1-1.06-.43-2.68-1.2-3.53-.3-.34-.45-.76-.43-1.26 0-.06.02-.12.06-.17.1-.13.24-.24.4-.32.22-.1.27-.44.06-.6a2.41 2.41 0 0 0-1.12-.4c-.5-.09-1.01-.18-1.36-.64-.31-.41-.8-.71-1.43-.9a.28.28 0 0 0-.36.25c0 .24.06.45.2.64.1.12.48 1.26.1 1.23a9.53 9.53 0 0 0-4.44.72c-.77.32-1.63.96-1.32 1.86.06.19.26.32.46.3l.62-.06c.18-.02.34.14.31.32-.55 3.57-1.1 7.03-1.61 10.39-.42 2.69 2.65 2.3 4.18 1.63ZM33.13 18.7l1.47.5a.12.12 0 0 0 .14-.05.12.12 0 0 0 0-.15l-.88-.96a.13.13 0 0 0-.1-.04l-.63.01a.13.13 0 0 0-.09.04.12.12 0 0 0-.03.1l.04.44a.12.12 0 0 0 .08.11Zm-6.48.11c0 .41.2.74.45.74s.45-.33.45-.74c0-.4-.2-.74-.45-.74s-.45.33-.45.74Zm-5.16-.48c.16.18.02.56-.31.83-.34.28-.73.35-.9.17-.15-.19-.01-.56.32-.84.33-.28.73-.35.89-.16Zm-.32 9.32c.11-.55.24-1.13.4-1.75.13-.58.26-1.24.07-1.82-.3-.93.33-3.52 1.17-3.75a6.35 6.35 0 0 1 3.32-.05c1.1.3.76 2 .47 2.7-.09.24-.24.4-.4.56-.25.27-.39.56-.54.9a9.78 9.78 0 0 0-.67 2.68c-.3 2-.43 5.06-1.74 6.6-.4.47-.3.66.32.58.37-.05.78.04 1.22.28.09.04.13.11.14.2v.45a.15.15 0 0 1-.05.12.15.15 0 0 1-.12.03 4.9 4.9 0 0 0-2.1.07.15.15 0 0 0-.12.14c-.01.32.08.57.17.83.1.3.2.6.14.99 0 .08-.06.12-.14.12-.97.03-1.51-1.04-1.5-1.83.02-.34-.15-.52-.48-.54h-.56c-.53 0-1.07 0-1.58-.2-3.02-1.15-3.8-3.57-3.07-6.67.24-1.04.57-2.74.38-3.8a7.69 7.69 0 0 1-.17-2.37c.06-.28.18-.58.37-.9.14-.25.1-.44-.16-.57a.14.14 0 0 1-.06-.2 3 3 0 0 1 1.68-1.6.23.23 0 0 1 .22.03c.15.1.24.23.29.4.02.08 0 .14-.07.18-.23.14-.4.32-.48.54-.07.16.05.34.22.35.67.03 1.32.03 1.94.02.4 0 1.35.22 1.35.77l.01.68c.04.66-.22 1.67-.53 2.24-.35.64-.5 1.3-.64 1.94-.08.36-.16.72-.27 1.06-.18.57-.3 1.03-.33 1.37-.04.46-.07.93-.09 1.4 0 .18.07.3.23.35 1.01.4 1.2-.37 1.36-1.07.06-.21.09-.52-.23-.52-.33-.01-.72-.04-.74-.46-.02-.5.72-.47 1.07-.32.16.07.27.02.3-.16Zm-8.63 8.18c.28.26.77.24 1.23.23.45-.02.87-.03 1.07.2.12.15.25.28.38.4.26.25.5.5.68.86.04.1.1.17.2.2l1.03.27c.06.01.13-.03.14-.1.03-.33-.07-.63-.31-.9a1.88 1.88 0 0 1-.52-1.33c.01-.32-.2-.52-.49-.63l-.07-.02c-.54-.2-1.2-.45-1.47-.96-.16-.3-.35-.58-.55-.87-.3-.44-.6-.9-.77-1.36-.26-.7-.62-2.12-.3-2.78a.2.2 0 0 1 .16-.12c.5-.1 1.27-.31 1.2-.96a.2.2 0 0 0-.13-.16l-1-.4c-.23-.07-.34-.23-.33-.45v-.06c.02-.41.03-.8.22-1.2.6-1.22 1-2.6 1.69-3.77a.3.3 0 0 0 .03-.21 2.6 2.6 0 0 1 .04-1.12c.04-.18-.03-.3-.22-.33-.53-.1-1.22.2-1.66.43a.28.28 0 0 0-.14.18.27.27 0 0 0 .04.21c.07.1.15.2.25.3.28.3.6.64.3 1.06a12.6 12.6 0 0 0-1.57 3.89c-.16.79-.8 1.05-1.42 1.3l-.41.18a.26.26 0 0 0-.13.13c-.1.2-.14.4-.14.62 0 .07.02.13.07.17.31.25.63.26.98.27.9.02 1.1 1.08 1.27 2.04.2 1.15.82 2.06 1.31 3.11a.3.3 0 0 1-.18.4c-.34.09-.63.24-.88.45-.08.06-.1.14-.05.22a2 2 0 0 0 .45.61Zm20.05.45.17-.26c.2-.33.36-.59.95-.42.09.02.13.08.13.17l-.02 1.03a.19.19 0 0 1-.07.14c-.27.22-.5.5-.67.8a.37.37 0 0 1-.19.17c-.28.1-.61.18-.99.21a.2.2 0 0 1-.15-.04c-.2-.15-.21-.34-.06-.56l.9-1.24Zm-5.7-.02a.25.25 0 0 0-.28.09c-.42.51-.37.99.15 1.43.1.08.22.1.34.06.48-.17.36-.8.29-1.2l-.01-.07-.01-.03a.25.25 0 0 0-.19-.2l-.3-.08Zm1.01-12.64.15.06c.06.03.06.12 0 .15-.77.29-1.6.79-1.87 1.57-.27.8.27.94.82 1.08l.27.08c.06.01.1.06.1.12.01.28 0 .56-.05.83l-.87 4.54a10.4 10.4 0 0 0-.18 1.7c-.04 1.93 2.27 1.8 3.5 1.36 1.36-.5 3.11-1.57 2.82-3.17a.23.23 0 0 0-.13-.18.75.75 0 0 0-.64-.06c-.2.08-.42-.08-.39-.3.3-2.02.63-3.94.96-5.75.1-.5.15-.97.16-1.44.02-.48-.18-.83-.61-1.05a.14.14 0 0 1-.06-.2.14.14 0 0 1 .05-.05c.54-.3.9-.72 1.09-1.3.26-.78-.49-1.32-1.16-1.42a5.42 5.42 0 0 0-4.23 1.15c-.47.35-.84 1.23-.45 1.78.2.27.43.37.72.5Z" fill="#01AEF0"/></svg>