<!-- by TradingView --><svg width="56" height="56" viewBox="0 0 56 56" xmlns="http://www.w3.org/2000/svg"><path fill="#F0F3FA" d="M0 0h56v56H0z"/><path d="M11 24H9.44v5.03a1.62 1.62 0 0 1-.91 1.48c-.3.14-.63.22-1.03.22s-.74-.08-1.03-.22a1.65 1.65 0 0 1-.67-.6 1.64 1.64 0 0 1-.24-.88V24H4v5.15c0 .56.14 1.06.43 1.49.3.43.7.76 1.23 1 .52.24 1.14.36 1.84.36.7 0 1.32-.12 1.84-.36.53-.24.93-.57 1.22-1 .3-.43.44-.93.44-1.5V24Zm9 0v8h-1.37l-4.02-5.45h-.07V32H13v-8h1.38l4.01 5.45h.08V24H20Zm3.5 8v-8H22v8h1.5Zm1.5-7v-1h6.63v1H29v7h-1.57v-7H25Zm9.5 7v-8H33v8h1.5Zm8.5-8v8h-1.37l-4.02-5.45h-.07V32H36v-8h1.38l4.01 5.45h.08V24H43Zm1.5 1v-1H52v1h-3v7h-1.53v-7H44.5Z"/></svg>