<!-- by TradingView --><svg width="56" height="56" viewBox="0 0 56 56" xmlns="http://www.w3.org/2000/svg"><path fill="#F0F3FA" d="M0 0h56v56H0z"/><path d="m31.35 14.22-.98-.11a10.35 10.35 0 0 1 2.09 3.39h3.39a8.68 8.68 0 0 0-1.9-1.89 10.8 10.8 0 0 0-2.6-1.39ZM36.47 18.5h-3.65c.38 1.21.63 2.56.67 4h4a9.3 9.3 0 0 0-1.02-4ZM31.37 17.5l-.37-.77a8.22 8.22 0 0 0-2.23-2.72L28.5 14v3.5h2.87ZM28.5 18.5h3.26c.41 1.2.68 2.54.73 4H28.5v-4ZM27.5 17.5V14h-.27c-.8.6-1.58 1.53-2.23 2.73l-.37.77h2.87ZM24.24 18.5h3.26v4h-4c.06-1.46.33-2.8.74-4ZM23.54 17.5c.18-.44.37-.85.58-1.24.44-.82.96-1.55 1.51-2.15a24 24 0 0 0-.98.11c-.88.33-1.78.78-2.6 1.4a8.68 8.68 0 0 0-1.9 1.88h3.4ZM19.53 18.5h3.65a14.86 14.86 0 0 0-.67 4h-4a9.3 9.3 0 0 1 1.02-4ZM18.95 17.5a9.5 9.5 0 0 1 2.3-2.55 15.9 15.9 0 0 0-5.12 2.55h2.82ZM15 18.5h3.42a10.5 10.5 0 0 0-.91 4h-4.49a6.67 6.67 0 0 1 1.99-4ZM37.58 18.5H41a6.67 6.67 0 0 1 1.99 4h-4.49a10.5 10.5 0 0 0-.9-4ZM39.87 17.5h-2.82a9.5 9.5 0 0 0-2.3-2.55 15.9 15.9 0 0 1 5.12 2.55ZM14.18 26.5a6.17 6.17 0 0 1-1.16-3h4.49c.04 1.11.23 2.1.52 3h-3.85ZM15 27.5c1.55 1.6 3.9 2.89 6.7 3.67l-.23-.16a8.79 8.79 0 0 1-3.03-3.51H15ZM19.56 27.5a7.83 7.83 0 0 0 2.47 2.68 10.93 10.93 0 0 0 4.67 1.73 19.73 19.73 0 0 1-3.05-4.41h-4.1ZM24.77 27.5l.53.92c.7 1.14 1.5 2.13 2.2 2.88v-3.8h-2.73ZM27.5 26.5h-3.2a9.44 9.44 0 0 1-.78-3h3.98v3ZM28.5 27.5v3.8a18.73 18.73 0 0 0 2.73-3.8H28.5ZM31.7 26.5h-3.2v-3h3.98a9.44 9.44 0 0 1-.77 3ZM32.35 27.5a19.73 19.73 0 0 1-3.05 4.41c1.44-.2 3.17-.7 4.67-1.73a7.83 7.83 0 0 0 2.47-2.68h-4.09ZM36.9 26.5H32.8c.37-.97.63-1.98.7-3h4a9.48 9.48 0 0 1-.59 3ZM37.56 27.5a8.79 8.79 0 0 1-3.27 3.67c2.82-.78 5.16-2.07 6.7-3.67h-3.43ZM41.82 26.5h-3.85c.3-.9.48-1.89.52-3h4.49a6.17 6.17 0 0 1-1.16 3ZM23.21 26.5H19.1a9.48 9.48 0 0 1-.59-3h4c.07 1.02.33 2.03.7 3Z" fill="#1D5DD8"/><path d="M12 24H5l23 22 23-22h-7c-.33 3-4 9-16 9s-15.67-6-16-9Z" fill="#424345"/></svg>