<!-- by TradingView --><svg width="56" height="56" viewBox="0 0 56 56" xmlns="http://www.w3.org/2000/svg"><path fill="#F0F3FA" d="M0 0h56v56H0z"/><path fill-rule="evenodd" d="M26.57 12.04c-.23-.2-.38-.41-.46-.67-.22-.71.04-1.13.79-1.27 1.76-.3 2.78.08 3.06 1.14.07.29 0 .54-.2.76-.77.84-1.53 1.06-2.26.67a5.33 5.33 0 0 1-.93-.63Zm-.04 2.38c.3.66.82.99 1.55 1a.8.8 0 0 0 .69-.34.75.75 0 0 0 .13-.73c-.23-.7.03-1.18.78-1.42l.21-.09c.7-.36 1.02-.84.96-1.44-.03-.3.07-.35.3-.15.16.15.22.33.18.55a8.6 8.6 0 0 0-.17 2.04c.04 1.03-.45 1.67-1.47 1.93-1.87.48-3.41.16-4.61-.97a.88.88 0 0 1-.3-.8c.1-.78 0-1.52-.27-2.22-.07-.17-.02-.28.15-.36a.37.37 0 0 1 .24-.03c.09.01.16.07.2.15a4.5 4.5 0 0 0 1.85 1.83c.13.07.2.18.21.33a.39.39 0 0 1-.16.36.38.38 0 0 1-.28.08c-.22 0-.29.08-.2.28ZM16.77 41c-.83-.15-1.3-.46-1.39-.93-.07-.31.06-.5.38-.58.28-.07.55-.18.8-.33.25-.16.41-.37.5-.65.22-.81.7-1.44 1.42-1.88.14-.09.16-.19.04-.3-.07-.08-.15-.1-.24-.05-1 .4-1.93.83-2.79 1.31-.11.07-.2.05-.29-.05l-.15-.19c-.07-.09-.07-.17.03-.25l1.84-1.47c.19-.15.22-.32.1-.52-.1-.18-.1-.35 0-.51.25-.33.5-.34.77-.03.42.48.88.6 1.38.38.51-.23.49-.36-.07-.38a2.05 2.05 0 0 1-1.71-.88c-.16-.24-.33-.24-.48 0a7.8 7.8 0 0 0-1.09 2.4c-.01.06-.05.08-.1.07l-.24-.04c-.14-.03-.2-.11-.17-.25a1992.5 1992.5 0 0 1 3.1-11.77c.93-3.3 1.75-6.63 2.47-10 .02-.07.07-.1.15-.1l.23.02c.04 0 .06.03.05.06-.1.51-.1 1.01 0 1.5a1 1 0 0 0 .41.59 2.32 2.32 0 0 1 1.1 1.7c.04.46.25.55.62.27a.7.7 0 0 1 .18-.09 1 1 0 0 1 .66.02c2.32.79 4.76.83 7.3.13a6.8 6.8 0 0 0 2.36-1.47l.41-.35c.23-.2.37-.5.41-.93.04-.42-.02-.88-.18-1.38a.8.8 0 0 1-.03-.44c.02-.14.05-.2.08-.17.03.02.05.07.08.16l2.54 9.72a.6.6 0 0 1-.23.68c-.42.32-.7.74-.83 1.24-.12.47-.02.52.3.14l.7-.83c.15-.18.27-.16.35.06L38 25.9c.11.33 0 .52-.36.58l-.3.05c-.4.07-.45.24-.16.52.19.18.4.25.64.18a.52.52 0 0 1 .65.37l.74 2.88c.12.44-.05.6-.5.46l-.85-.27c-.23-.07-.32.01-.27.23l.09.43c.02.12.09.18.2.19 1.08.1 1.7.5 1.87 1.17.36 1.44.75 2.82 1.16 4.14.16.52.1 1.04-.17 1.56-.21.42-.54.57-.98.45a.5.5 0 0 0-.44.1.56.56 0 0 0-.22.56c.01.05.03.09.05.12.03.04.08.07.13.09.1.03.2.02.27-.06l.26-.24c.14-.13.24-.1.32.07a.6.6 0 0 1-.08.66c-1.97 2.5-4.67 3.87-8.1 4.1a.98.98 0 0 0-.75.38l-1.3 1.62c-.2.24-.44.4-.74.48-2.97.84-4.71-.22-5.22-3.17-.04-.18-.15-.25-.33-.23-.35.06-.45.24-.3.55.03.06 0 .1-.08.12-.9.16-1.62-.06-2.14-.65a.68.68 0 0 0-.58-.23A3.54 3.54 0 0 1 16.77 41Zm0 0c.07-1.53.67-2.51 1.8-2.94.45-.18.54-.08.25.3a2.66 2.66 0 0 1-1.25.95c-.22.1-.25.25-.08.45l.17.21c.09.1.19.11.3.03.62-.52 1.26-1 1.9-1.43.25-.17.5-.15.73.05a.42.42 0 0 1 .12.5.41.41 0 0 1-.31.25c-.96.24-1.65.77-2.08 1.58-.14.28-.37.38-.68.29l-.87-.24Zm5.69-22.32a.31.31 0 0 0-.09-.1.16.16 0 0 0-.05-.02h-.05c-.36.02-.5-.14-.43-.5a.69.69 0 0 0-.11-.53c-.14-.2-.28-.2-.44-.01a.6.6 0 0 0-.12.27.5.5 0 0 0 0 .2c.1.35 0 .64-.27.87l-.03.02-.02.02a1.64 1.64 0 0 0-.43.57c-.2.5-.07.62.4.34l1.57-.91c.05-.03.08-.07.09-.1 0-.04 0-.08-.02-.12Zm8.87.72c-.22.07-.44.19-.63.35a.98.98 0 0 1-.83.23l-1.55-.27c-.27-.04-.46.06-.55.3a.65.65 0 0 0-.02.44c.1.3.3.4.62.33a2.19 2.19 0 0 1 1.75.29c.14.1.24.06.32-.08.27-.5.62-.93 1.05-1.32.36-.31.3-.4-.16-.27Zm-7.3 1.3c-.2.93-.76 1.5-1.67 1.69-.29.06-.57.02-.83-.11a2.2 2.2 0 0 0-1.4-.2c-.48.08-.53-.02-.15-.3a17.6 17.6 0 0 1 2.77-1.62l1.3-.65c.3-.16.63-.17.98-.01.27.11.27.23 0 .36l-.5.23a.83.83 0 0 0-.5.6Zm2.49 1.27c-.28.14-.46.46-.53.98l-5.2.06c-.44 0-.58.2-.4.6l.13.3a.5.5 0 0 1 .01.42.37.37 0 0 1-.22.21c-.25.1-.41.01-.48-.25-.06-.2-.18-.25-.38-.17-.14.05-.27.12-.4.2-.38.28-.35.5.1.65.64.22 1.13.66 1.46 1.34l.04.11c0 .06 0 .11-.03.17-.04.1-.1.16-.2.2-.17.05-.26.16-.3.31-.07.45.11.61.56.5.55-.15 1.1-.16 1.64-.03.26.06.4.22.4.48l.06 5.92c0 .73.38 1.13 1.13 1.21l.4.04c.65.07 1-.21 1.06-.85.26-2.65.26-5.2-.02-7.64a.53.53 0 0 0-.22-.38.6.6 0 0 0-.44-.12l-3.01.37c-.26.03-.31-.05-.15-.26.37-.46.83-.55 1.37-.25.4.21.8.25 1.24.12a3.29 3.29 0 0 1 2.28.1v.04h-.01l-.02.01-.02.01a.57.57 0 0 0-.3.22c-.13.2-.2.42-.19.67.12 3.04.14 6.1.05 9.15a.24.24 0 0 0 .4.18 3.67 3.67 0 0 0 1.33-2.3c.1-.6.14-1.52.09-2.78a30.3 30.3 0 0 1-.02-1.42c0-.07.04-.11.11-.11.04 0 .06 0 .08.02l.04.07c.14 2.43.11 4.7-.09 6.84-.01.2.09.34.3.38a4 4 0 0 1 1.4.53h.1c.04-.03.06-.1.07-.2l.09-3.5a.59.59 0 0 1 .37-.56c.08-.04.16-.08.23-.14.27-.22.28-.44.02-.67l-.34-.3a.84.84 0 0 1-.3-.68l.1-4.48a.8.8 0 0 0 0-.12l-.01-.02v-.02a.73.73 0 0 0-.2-.38c-.36-.34-.75-.4-1.18-.19a.73.73 0 0 0-.4.51l-.08.38c-.1.47-.2.47-.29-.01a4.52 4.52 0 0 0-.27-.94.7.7 0 0 1-.02-.1v-.04a.65.65 0 0 1 .05-.3 3.6 3.6 0 0 0 .22-2.4c-.07-.26-.24-.38-.5-.37-.55.03-.96-.09-1.24-.34l.97-.68c.27-.19.24-.3-.09-.35a.64.64 0 0 0-.35.05Zm1.59.25a.4.4 0 0 1 .1-.08c.33-.22.66-.28.97-.18.46.16.45.3-.02.41-.36.08-.7.22-1.02.42-.44.27-.5.2-.2-.2a.48.48 0 0 0 .08-.15v-.04a.36.36 0 0 1 .09-.18Zm3.4-.32c-.54.05-.92.33-1.15.83-.17.36-.06.48.33.34.43-.15.79-.42 1.05-.8.2-.28.13-.4-.22-.37Zm-13.19 7.44c.1-.16.18-.32.26-.49.23-.48.37-.45.4.08 0 .42-.02.82-.1 1.2-.03.17.04.27.22.3l.22.03.14-.01a.3.3 0 0 0 .11-.07.28.28 0 0 0 .1-.23 377.64 377.64 0 0 1-.07-2.2c0-.23-.1-.26-.27-.1-.03.02-.05.02-.07.01l-.01-.01a.14.14 0 0 1-.03-.05 1.37 1.37 0 0 1-.04-.21c0-.08.01-.15.05-.22l.52-1.06c.12-.23.05-.4-.19-.5l-.28-.13c-.35-.17-.58-.07-.7.3a18.6 18.6 0 0 0-.64 3.25c-.07.66.06.7.38.1Zm13.82.13c-.3-.05-.6 0-.9.16-.22.1-.36.04-.42-.19a.4.4 0 0 1-.01-.12c0-.06.02-.12.05-.17a.42.42 0 0 1 .43-.27c.37.02.65.2.85.59Zm0 0c.93.18 1.45.44 1.57.8.06.2-.01.27-.23.21a2.06 2.06 0 0 1-1.34-1.01Zm-14.39.99c.56.66.57 1.33.04 2-.35.46-.58.4-.69-.16-.1-.6-.03-1.2.22-1.78.1-.25.25-.27.43-.06Zm13.39.64a.38.38 0 0 0-.35.1.6.6 0 0 0-.18.24.56.56 0 0 0-.03.25.36.36 0 0 0 .16.27c.1.07.2.08.32.05.37-.12.5-.34.36-.68a.37.37 0 0 0-.28-.23Zm2.18.83a.79.79 0 0 1-.32.2c-.26.1-.37 0-.31-.27a.3.3 0 0 0-.03-.2c-.03-.08-.02-.14.01-.18a.23.23 0 0 1 .1-.06c.4-.13.83-.13 1.27 0 .26.08.48.21.67.39.6.58 1.32.74 2.16.47.32-.1.57 0 .73.28.36.66.94 1 1.74 1.03.17 0 .3.08.4.22.1.14.12.29.06.45-.15.41-.43.56-.84.45-.2-.05-.3-.18-.3-.38a.57.57 0 0 0-.04-.23c-.07-.13-.16-.16-.29-.1a1.1 1.1 0 0 1-.25.1l-.03.01a.92.92 0 0 1-.58-.07c-1.15-.5-1.39-.24-.71.8.18.27.44.5.78.68.4.22.38.3-.08.24-.84-.11-1.35-.58-1.54-1.42a1.28 1.28 0 0 0-.3-.59c-.15-.16-.33-.3-.54-.4a1.05 1.05 0 0 1-.6-.8.94.94 0 0 0-.57-.72c-.22-.1-.42-.07-.59.1Zm-2.43 3.02c.46-.05.85-.02 1.2.11.46.18.84 0 1.16-.54.38-.67.18-.99-.61-.95-.9.04-1.58.33-2.04.86-.09.11-.1.23-.03.35.07.13.17.19.32.17Zm7.94 1.28a.2.2 0 0 1-.04-.21.22.22 0 0 1 .15-.15.8.8 0 0 1 .84.17c.23.2.2.36-.1.45-.32.11-.6.02-.85-.26Zm-18.1 5.62.45-1.32c0-.03.02-.05.03-.08a.47.47 0 0 1 .26-.22A3.1 3.1 0 0 0 23 38.9a.58.58 0 0 0-.02-.66 4.33 4.33 0 0 0-3.48-1.84c-.18-.02-.27.07-.26.25 0 .09.02.16.06.23.09.17.23.25.43.23a1 1 0 0 0 .21-.04.65.65 0 0 1 .71.19c.4.43.87.67 1.42.73.4.04.53.24.4.62-.27.8-.8 1.32-1.55 1.56a.78.78 0 0 0-.27.15.66.66 0 0 0-.18.27c-.14.41-.18.83-.11 1.24.08.5.2.51.38.02Zm16.5-4.35c-.09-.14-.05-.18.1-.1.49.25 1 .42 1.53.5.35.06.36.16.03.3-.57.25-1.03.09-1.39-.48a.37.37 0 0 1-.28-.22Zm-11.21 5.31a3.3 3.3 0 0 1-.22.12c-.52.25-.64.12-.36-.37a1.3 1.3 0 0 0 .16-.8c-.03-.3.1-.42.4-.37 1.05.18 2.14.14 3.28-.12a.4.4 0 0 0 .32-.33l.04-.21c.07-.4-.04-.45-.33-.18-.46.42-1.04.53-1.74.3a.51.51 0 0 1-.17-.09.48.48 0 0 1-.08-.1c-.23-.35-.14-.54.3-.55a1.48 1.48 0 0 0 1.43-1.1.28.28 0 0 0-.04-.18.3.3 0 0 0-.23-.14c-.62-.04-1.2.01-1.74.17a1 1 0 0 1-.82-.1 26.6 26.6 0 0 1-1.54-.94c-.05-.04-.1-.05-.15-.03a.2.2 0 0 0-.1.07h-.01c-.07.09-.06.16.02.23A9.8 9.8 0 0 1 26.21 40c.63.92.4 1.24-.7.97-1.09-.28-1.94.04-2.55.97-.18.26-.41.43-.71.52l-.5.15c-.26.08-.32.22-.18.44.04.08.1.14.18.2.24.15.45.1.63-.13a5.47 5.47 0 0 1 2.29-1.72c.27-.12.42-.03.42.27 0 .38-.13.7-.38 1-.18.2-.19.4-.04.63a1.66 1.66 0 0 0 1.27.75c.04 0 .07-.02.1-.04a.18.18 0 0 0 .05-.07.54.54 0 0 0 .04-.14v-.02a.5.5 0 0 0 0-.1c-.04-.23.05-.4.26-.5a1 1 0 0 1 .54-.08c.23.03.4.16.47.38.22.64.52.63.9-.03.12-.21.3-.34.55-.38.34-.06.43-.22.29-.47-.13-.21-.27-.22-.44-.04-.5.59-1.08.67-1.75.26a.85.85 0 0 0-.93-.02Zm9.2-2.93c-.79-.26-1.27-.06-1.45.62-.08.29-.26.38-.56.28l-1.4-.48c-.37-.12-.41-.05-.14.21l1.1 1.07c.24.21.51.3.84.24.28-.05.45.06.5.33.04.18.14.31.28.41.28.2.58.27.9.24.49-.06.56-.26.21-.6-.44-.44-.58-.91-.43-1.42.08-.27.26-.38.55-.32.08.02.16.05.23.09.45.25.5.18.15-.19-.2-.21-.46-.37-.78-.48Zm-1.65 2.78c.28.17.26.3-.05.38a2.52 2.52 0 0 1-1.82-.27c-.06-.04-.08-.08-.08-.11 0-.06.09-.11.25-.16.66-.2 1.23-.15 1.7.16Zm-6.2 3.46c.04-.05.1-.1.18-.1.4-.08.68.05.86.4.09.18.23.23.42.16.2-.08.33-.2.38-.4a.55.55 0 0 0-.2-.62c-.57-.46-1.26-.52-2.06-.2a.44.44 0 0 0-.24.6.78.78 0 0 0 .17.22c.08.06.16.1.25.08a.31.31 0 0 0 .23-.14Z" fill="#2C4866"/></svg>