<!-- by TradingView --><svg width="56" height="56" viewBox="0 0 56 56" xmlns="http://www.w3.org/2000/svg"><path fill="#103065" d="M0 0h56v56H0z"/><path fill-rule="evenodd" d="M28 45a17 17 0 1 0 0-34 17 17 0 0 0 0 34Zm1-2.03c3.4-.23 6.5-1.59 8.91-3.71a8.52 8.52 0 0 0-2.15-1.27A19.1 19.1 0 0 0 29 36.67v6.3Zm-2 0a14.94 14.94 0 0 1-8.93-3.73c.43-.38 1.1-.83 2.05-1.25A18.6 18.6 0 0 1 27 36.66v6.3Zm2-7.95c3.21.11 5.64.7 7.4 1.45a9.95 9.95 0 0 1 2.69 1.63A14.96 14.96 0 0 0 42.7 31H29v4.02ZM29 25h13.7a14.96 14.96 0 0 0-3.6-7.08 9.29 9.29 0 0 1-2.57 1.6A20.24 20.24 0 0 1 29 21V25Zm-2-4.02V25H13.3c.55-2.7 1.82-5.14 3.61-7.1a9.95 9.95 0 0 0 2.7 1.63c1.75.74 4.18 1.34 7.39 1.45Zm-10.1 17.1A14.96 14.96 0 0 1 13.3 31H27v4.01c-3.32.1-5.77.7-7.53 1.47a9.29 9.29 0 0 0-2.57 1.6ZM29 19.34A18.6 18.6 0 0 0 35.88 18a7.78 7.78 0 0 0 2.05-1.25A14.94 14.94 0 0 0 29 13.03v6.3Zm-2-6.3v6.29a19.1 19.1 0 0 1-6.76-1.32c-.99-.42-1.69-.88-2.15-1.27 2.4-2.12 5.5-3.48 8.91-3.7ZM13.3 28.58V26h.7v2.55c0 .42.4.75.82.75.42 0 .78-.33.78-.75V26h.7v2.59c0 .78-.63 1.41-1.4 1.41h-.2c-.77 0-1.4-.63-1.4-1.41ZM20 26v4h-.52l-1.78-2.51V30H17v-4h.52l1.78 2.63V26h.7Zm19.7 0H39v4h.7v-1.74h1.6V30h.7v-4h-.7v1.74h-1.6V26Zm-4.63.52V26h3.24v.52H37V30h-.7v-3.48h-1.23ZM32 26v4h.7v-1.55h.86l.9 1.55h.75l-.98-1.66c.45-.15.77-.5.77-1.09 0-.85-.68-1.25-1.46-1.25H32Zm.7 2h.78c.47 0 .82-.22.82-.75s-.35-.73-.83-.73h-.77V28Zm-1.4 0c0 1.16-.86 2-2.01 2a1.93 1.93 0 0 1-1.99-2c0-1.16.83-2 1.99-2 1.14 0 2.01.84 2.01 2Zm-.69 0c0-.8-.5-1.46-1.32-1.46-.84 0-1.33.66-1.33 1.46 0 .8.49 1.46 1.33 1.46.83 0 1.32-.66 1.32-1.46Zm-8.34-2 1.07 4h.6l.81-2.85h.03L25.6 30h.59l1.08-4h-.7l-.68 2.76h-.03L25.07 26h-.6l-.8 2.76h-.03L22.97 26h-.7Zm-.57 0v4H21v-4h.7Z" fill="#fff"/></svg>