<!-- by TradingView --><svg width="56" height="56" viewBox="0 0 56 56" xmlns="http://www.w3.org/2000/svg"><path fill="#DD3008" d="M0 0h56v56H0z"/><path fill-rule="evenodd" d="M6 28c0 3.7 6.12 6.85 14.67 8.02 1.76-.24 2.35-1.31 2.33-1.88V25h-2v-1h2.01c.33-5.77 7-5.93 7.93-5.93.46 0 .82.02 1.07.04C43.36 18.9 52 23.02 52 27.98 52 33.52 41.25 38 28 38c-1.5 0-2.96-.06-4.38-.17l3.45-1.34.93.01c12.15 0 22-3.8 22-8.5 0-4.37-8.55-7.97-19.54-8.45-3.58.13-4.32 2.64-4.24 4l.04.45H28v1h-1.66l.53 6.4c0 5.73-3.31 5.82-5.79 5.82-1.85 0-3.96-.36-4.96-.58l-.16.01C8.8 34.92 4 31.68 4 27.98c0-5.25 9.7-9.57 22.05-9.98l-2.48 1.67C13.54 20.47 6 23.9 6 28Zm3-4v4.79C9 30 9.9 31 11.03 31H18v-7h-3.5v4.5h-2V24H9Zm20 1.8c0-1 .77-1.8 1.72-1.8h5.56c.95 0 1.72.8 1.72 1.8v3.4c0 1-.77 1.8-1.72 1.8h-5.56c-.95 0-1.72-.8-1.72-1.8v-3.4Zm3.5.07c0-.2.17-.37.39-.37h1.22c.22 0 .39.17.39.37v3.26c0 .2-.17.37-.39.37H32.9a.38.38 0 0 1-.39-.37v-3.26ZM42.56 24H40v7h3.5v-4.17c.2.04.37.1.55.18.39.14.8.3 1.53.3 1.32 0 2.36-.6 2.36-1.58 0-.96-1.01-1.73-2.43-1.73-.93 0-1.32.28-1.59.48-.14.1-.25.19-.39.19h-.1c-.14-.4-.48-.67-.87-.67ZM21.5 27.5h-3V29h3v-1.5Z" fill="#2B2A28"/></svg>