<!-- by TradingView --><svg width="56" height="56" viewBox="0 0 56 56" xmlns="http://www.w3.org/2000/svg"><path fill="#F0F3FA" d="M0 0h56v56H0z"/><path fill-rule="evenodd" d="M12 29.87V14h4v15.68A5.35 5.35 0 0 0 21.33 35c2.9 0 5.67-2.37 5.67-5.32V14h9.4c3.64 0 6.6 3.01 6.6 6.73v1.6c0 2.46-2.23 3.38-3.83 3.62a11.47 11.47 0 0 1-.62 15.77L42.14 46l-5.68-2.66a11.5 11.5 0 0 1-16.07-4.36A9.06 9.06 0 0 1 12 29.87Zm25.14 10.42-5.4-4.11 2.89 5.88a9.49 9.49 0 0 1-11.92-3.11c4.53-.5 8.29-4.38 8.29-9.08V24a9.5 9.5 0 0 1 6.14 16.28ZM41 22.15c.03.87-.33 2.68-2.52 3.07a11.46 11.46 0 0 0-7.48-3.2V16h4.94A5.05 5.05 0 0 1 41 21.2v.95Z" fill="#0F5FA9"/></svg>