<!-- by TradingView --><svg width="56" height="56" viewBox="0 0 56 56" xmlns="http://www.w3.org/2000/svg"><path fill="#F0F3FA" d="M0 0h56v56H0z"/><path d="M31.24 30.24c-.6.08-1.5.22-2.72.41l-1.9.3A17.41 17.41 0 0 1 17.9 30l-.78-.27a.46.46 0 0 1-.2-.13.25.25 0 0 1-.06-.12 1.4 1.4 0 0 1 0-.62c0-.02.02-.03.03-.03h.05c.35.35.83.53 1.44.56 1.63.07 3.1-.08 4.44-.43.68-.18 1.51-.28 2.49-.3a45.4 45.4 0 0 1 5.69.22c.56.06 1.22.17 1.97.34 1.12.24 2.3.38 3.56.4.64.02 1.26-.02 1.87-.11.28-.05.56-.17.85-.38a.07.07 0 0 1 .07 0c.02 0 .04.02.04.05.05.17.04.35 0 .53-.06.22-.16.34-.33.37-.35.06-.7.1-1.05.1a57 57 0 0 1-4.41-.07c-.69-.03-1.46 0-2.32.13Zm-3.14 1.2c.83-.07 1.73-.1 2.7-.08.59 0 1.5.06 2.71.14h.01c.57.03 1.1.1 1.6.17.63.1 1.23.13 1.81.09.68-.06 1.3-.28 1.84-.65.1-.08.19-.06.26.05.03.05.04.1.03.15a.46.46 0 0 1-.3.38c-.27.1-.53.23-.77.37-.49.27-1.16.5-2.02.7a21.1 21.1 0 0 1-6.75.48L26.65 33c-.64-.06-1.27-.08-1.9-.06-.7.03-1.33.01-1.9-.04a29.8 29.8 0 0 1-4.86-.83c-.55-.14-.87-.55-.94-1.22-.01-.13.03-.17.14-.1l.89.5c.93.57 2.16.88 3.7.94 1.75.07 3.47-.12 5.18-.55.35-.09.73-.15 1.14-.2Zm4.93 4.3c1.36.05 2.63-.04 3.82-.3a.75.75 0 0 0 .5-.34l.94-1.57a.11.11 0 0 0 0-.1.1.1 0 0 0-.08-.07.34.34 0 0 0-.21.05c-.2.1-.4.2-.63.28l-.62.19-.24.06c-1.57.45-2.98.7-4.22.74-1.21.04-2.12 0-2.71-.11-1.2-.23-2.34-.43-3.42-.58a13.3 13.3 0 0 0-2.28-.19c-1.9.12-3.73.14-5.46.06a.29.29 0 0 0-.19.05.2.2 0 0 0-.08.16c0 .07.02.13.07.17.14.13.3.22.48.26a12.14 12.14 0 0 0 4.65.18c.52-.05.9-.09 1.17-.1a8.68 8.68 0 0 1 2.54.18 42.97 42.97 0 0 1 2.13.46c1.38.29 2.66.46 3.84.51Zm-9.4 1.74c-1.1-.26-2.21-.57-3.35-.9a1.2 1.2 0 0 1-.82-.7c-.08-.2-.03-.27.17-.18.43.18.83.29 1.21.3.52.03 1.1.02 1.73-.02a46.23 46.23 0 0 0 2.3-.24 12.55 12.55 0 0 1 4.85.5l.65.17c.8.2 1.74.34 2.82.42.7.04 1.32.01 1.89-.1l.9-.2c.35-.06.39.02.13.27a1.56 1.56 0 0 1-.8.4c-2.42.39-4.75.6-6.98.66-.93.02-1.72 0-2.38-.04a13.9 13.9 0 0 1-2.33-.34Zm0 1.74c.53.24 1.01.43 1.45.55 1.4.38 2.8.5 4.23.36a9.88 9.88 0 0 0 4.05-1.3.08.08 0 0 0 .04-.08c0-.04-.03-.06-.06-.07a.33.33 0 0 0-.18 0c-.52.17-1.1.26-1.75.26a17.84 17.84 0 0 1-2.3-.2 14 14 0 0 0-3.08.07c-.5.06-1.04.07-1.6.03-.2-.01-.41-.05-.64-.13a7.85 7.85 0 0 1-1-.42c-.14-.06-.28-.09-.43-.09a.2.2 0 0 0-.1.03.15.15 0 0 0-.09.14c0 .06.03.1.08.13.53.3.99.53 1.39.72Z" fill="#0B78CC"/><path fill-rule="evenodd" d="M42 13H14v30h28V13Zm-1 1H15v28h26V14Z" fill="#0B78CC"/><path fill-rule="evenodd" d="M40 15H16v13H40V15Zm-1 12-.01.5H17L17 27h22Zm-.18-2 .08.5H17.1l.08-.5h21.64Zm-21.8 1.5.02-.5h21.92l.03.5H17Zm21.02-4-.24-.5H18.2l-.24.5h20.08Zm-20.29.5c-.06.16-.13.33-.18.5h20.86c-.05-.17-.12-.34-.18-.5h-20.5Zm18.74-3 .38.5H19.14l.38-.5H36.5Zm-18.02 1.5.3-.5h18.45c.1.16.21.33.3.5H18.48ZM17.41 24c-.04.17-.09.33-.12.5H38.7c-.03-.17-.08-.33-.12-.5H17.4Zm18.14-5 .5.5h-16.1l.5-.5h15.1Zm-2-1.5c-.31-.18-.63-.35-.96-.5H23.4c-.33.15-.65.32-.96.5h11.1Zm.78.5H21.67l-.65.5h13.96l-.65-.5Zm-3.04-1.5a11 11 0 0 0-6.58 0h6.58Z" fill="#0B78CC"/><path d="M21.63 22H19v.5h.72v2.82c0 .93.8 1.68 1.8 1.68h.43c.99 0 1.8-.75 1.8-1.68V22.5h.6V22h-1.98v.5H23v2.6c0 .52-.45.93-1 .93-.54 0-1-.41-1-.92V22.5h.63V22Zm5.32 0 .85 2.68.95-2.68H31v.46h-.56v4.04h.8v.5h-2.56v-.5H29v-3.45L27.84 27h-.62L26 22.75v3.75h.39v.5h-2.23v-.5H25v-4h-.48V22h2.43Zm4.37 0v.5H32v4h-.68v.5h4.7v-2h-.41c0 .85-.62 1.35-.94 1.43H33v-1.78h1v.52h.54v-1.5H34v.54h-1V22.5h1.67c.74 0 .94.83.94 1.27h.4V22h-4.7Z" fill="#C4295B"/></svg>