<!-- by TradingView --><svg width="56" height="56" viewBox="0 0 56 56" xmlns="http://www.w3.org/2000/svg"><path fill="#F0F3FA" d="M0 0h56v56H0z"/><path d="m38.16 38-2.25-1.37a.39.39 0 0 0-.47.02c-.24.18-.21.4.1.64.08.05.16.1.24.11.1.02.16.09.14.2l-.04.38-2.76-.02a.14.14 0 0 1-.14-.1c-.02-.05 0-.1.04-.15a8.46 8.46 0 0 0 2.82-4.99c.13-.64.13-1.33 0-2.05a8.96 8.96 0 0 0-1.8-3.9 7.64 7.64 0 0 0-1.48-1.42c-2.29-1.64-4.85-1.96-7.68-.96a7.5 7.5 0 0 0-3.46 2.52 7.62 7.62 0 0 0-1.64 3.91c-.3 2.54.62 4.83 2.74 6.86.06.05.07.1.04.18a.16.16 0 0 1-.16.1l-2.43.03a.7.7 0 0 1 .15-.53c.06-.08.1-.17.1-.27l.03-.4c0-.06-.02-.1-.07-.13a.14.14 0 0 0-.14 0L17.73 38h-2.36c-.54 0-.6-.15-.15-.46l3.35-2.38c.37-.26.32-.36-.13-.31a40.8 40.8 0 0 0-3.4.55c-2.02.42-3.96.75-5.8.98-.1.02-.17-.03-.2-.12-.04-.18.02-.3.2-.38a47.12 47.12 0 0 1 4.1-1.57c.44-.15 1.1-.39 1.97-.72a49.1 49.1 0 0 1 2.12-.77c.1.04.2.06.31.06.11 0 .21-.03.3-.1.14-.11.3-.2.47-.24.3-.07.3-.16.03-.29a4.18 4.18 0 0 0-2.91-.16l-6.4-.54c-.15-.01-.23-.1-.23-.25v-.18c0-.18.1-.28.29-.3l8.16-.77c.3.19.7.2 1.17.04.28-.1.28-.2.01-.31a84.18 84.18 0 0 0-4.4-1.7c-.3-.11-.49-.35-.57-.71-.02-.1.02-.17.13-.18.43-.05.87-.03 1.33.04 1.24.2 2.47.38 3.69.56.16.02.33-.02.52-.12.13-.07.13-.15.02-.23l-5.71-4.08a.35.35 0 0 0-.19-.07c-.2-.01-.32-.1-.32-.28 0-.3.13-.4.41-.27 2.39 1.04 4.59 2.02 6.6 2.92a.5.5 0 0 0 .31.05c.1-.03.17-.08.2-.18a.24.24 0 0 0-.04-.26l-.9-1.1a61.4 61.4 0 0 0-1.67-2.02c-.8-.9-1.53-1.84-2.23-2.82-.1-.14-.06-.19.1-.16s.3.13.43.3c.07.08.15.14.25.19.29.12.53.29.72.5.2.23.56.52 1.05.87a7 7 0 0 1 1 .84c.15.15.39.35.72.57.3.21.53.38.66.51.42.42.91.77 1.46 1.05.05.02.1.02.14 0a.16.16 0 0 0 .1-.09c.03-.07.02-.17-.03-.29a72.53 72.53 0 0 0-2.43-5.33c-.17-.34-.31-.7-.43-1.1-.17-.54-.07-.6.3-.17.5.54.95 1.14 1.37 1.77.08.14.18.28.28.41.8 1.06 1.58 2.11 2.31 3.15.14.19.3.34.51.47.07.04.13.04.2 0s.1-.1.08-.17l-.95-6.67c-.01-.05 0-.09.04-.12.11-.1.2-.1.28 0 .07.07.11.15.15.24.23.63.47 1.22.71 1.78.15.36.36.9.62 1.62.37 1 .67 1.74.91 2.23.04.1.11.15.2.18.33.09.38.03.18-.18l.94-9.53a.19.19 0 0 1 .14-.17.45.45 0 0 1 .36.02c.1.05.16.13.17.24.24 2.33.43 4.59.58 6.79.06.84.16 1.67.28 2.48.04.23.1.23.18.02 1.06-2.72 2.11-5.5 3.16-8.38.04-.1.11-.23.23-.39.14-.19.22-.35.26-.5.04-.16.1-.18.2-.03.17.22.16.58-.01 1.06a3.9 3.9 0 0 0-.17.98c-.04.43-.1.76-.17.97a5.1 5.1 0 0 0-.2 1.1c-.05.35-.08.61-.12.79a62.2 62.2 0 0 0-.8 4.33c-.04.27-.13.53-.28.77-.03.05-.02.1.05.11l.09.03c.08.03.16 0 .21-.07l5.7-7.85c.18-.24.31-.22.4.06.03.13.01.25-.06.38-.15.23-.25.5-.29.78a.27.27 0 0 1-.13.19.55.55 0 0 0-.07.05 163.06 163.06 0 0 1-3.47 7.27c-.29.56-.18.64.3.24l7.52-6.06c.04-.04.09-.05.15-.05.05 0 .1.02.14.06a.2.2 0 0 1 .06.14c0 .06-.01.1-.05.15l-6.13 7.27c-.36.43-.28.53.23.3l8.87-3.98c.18-.08.26-.02.26.17 0 .13-.07.23-.18.31a241.38 241.38 0 0 0-7.03 4.93c-.08.06-.21.14-.4.23-.34.17-.55.34-.64.5-.05.1-.02.15.09.13l9.69-1.6c.06 0 .1.01.14.05.04.05.05.1.03.15l-.03.08a.53.53 0 0 1-.33.31c-2.3.83-4.76 1.73-7.36 2.7-.44.17-.92.31-1.43.43-.14.03-.19.11-.16.24l.02.08c0 .04.04.06.08.06.51-.06 1-.05 1.46.03.5.1 1.26.17 2.29.24.9.06 1.58.12 2.03.2.52.07 1.3.13 2.31.17l.81.04c.1 0 .18.04.25.11.06.07.1.15.09.25v.15c0 .09-.04.16-.1.23a.33.33 0 0 1-.23.1c-3.08.21-5.96.46-8.64.76-.46.05-.47.14-.03.28.64.2 1.59.52 2.85 1 1.12.4 1.97.71 2.55.9 1.17.38 2.3.83 3.39 1.34.17.09.23.22.18.4-.02.1-.1.14-.2.13-1.63-.2-3.12-.45-4.48-.74-.87-.19-1.7-.34-2.5-.46-.94-.14-1.8-.3-2.57-.47-.41-.1-.44-.02-.1.22l3.76 2.62c.35.24.3.37-.12.38l-2.6.05Z" fill="#BA0403"/><path d="M26.74 21.73c.2.21.15.27-.17.18a.32.32 0 0 1-.21-.18c-.24-.49-.54-1.24-.9-2.23l-.63-1.62c-.24-.56-.48-1.15-.71-1.78a.76.76 0 0 0-.15-.24c-.08-.1-.17-.1-.28 0a.12.12 0 0 0-.04.12l.95 6.67a.16.16 0 0 1-.08.17.17.17 0 0 1-.2 0c-.2-.13-.37-.28-.5-.47a116.46 116.46 0 0 0-2.6-3.56 14.8 14.8 0 0 0-1.36-1.77c-.38-.43-.48-.37-.31.17.12.4.26.76.43 1.1a72.49 72.49 0 0 1 2.43 5.33c.05.12.06.22.03.3a.16.16 0 0 1-.1.09.16.16 0 0 1-.14-.01 5.74 5.74 0 0 1-1.46-1.05c-.13-.13-.35-.3-.66-.5a4.3 4.3 0 0 1-.72-.58 7 7 0 0 0-1-.84 6.82 6.82 0 0 1-1.05-.87c-.2-.21-.43-.38-.72-.5a.63.63 0 0 1-.25-.2.74.74 0 0 0-.42-.29c-.17-.03-.2.02-.1.16.69.98 1.43 1.92 2.22 2.82.4.44.95 1.12 1.68 2.02.39.5.68.86.89 1.1.06.08.08.17.04.26-.03.1-.1.15-.2.18a.5.5 0 0 1-.32-.05c-2-.9-4.2-1.88-6.59-2.92-.28-.12-.42-.03-.41.27 0 .17.11.27.32.28.07 0 .13.03.19.07l5.7 4.08c.12.08.12.16 0 .23a.85.85 0 0 1-.53.12 267.4 267.4 0 0 1-3.7-.56c-.45-.07-.89-.09-1.32-.04-.1.01-.15.07-.13.18.08.36.27.6.56.7 1.58.57 3.06 1.14 4.41 1.71.27.11.27.22 0 .3-.49.17-.88.16-1.18-.03l.55-.1c.26-.04.26-.11.02-.2-2.63-.94-5.49-2-8.59-3.15a.7.7 0 0 1-.4-.37.32.32 0 0 1 .01-.3c.04-.06.1-.1.18-.07.34.09.68.16 1.02.22 1.4.27 2.85.52 4.35.77 1.44.24 2.78.42 4 .56.23.03.25-.03.06-.16-2.2-1.59-4.52-3.21-6.94-4.88a6.57 6.57 0 0 1-1.08-.91c-.34-.36-.28-.43.17-.24l9.25 4.1c.21.09.25.04.1-.13-1.78-2.2-3.5-4.25-5.12-6.12-.46-.53-.87-1.08-1.21-1.65-.07-.1-.04-.14.08-.1.34.1.64.27.9.5l7.06 5.65c.24.19.29.15.16-.12a363.69 363.69 0 0 1-3.02-6.5c-.1-.2-.24-.49-.45-.87a8.16 8.16 0 0 1-.75-1.74c-.03-.11.01-.15.12-.1.24.08.44.23.6.44 1.87 2.52 3.73 5.07 5.58 7.63.1.14.15.13.14-.05-.04-.39-.13-.96-.27-1.72-.12-.67-.2-1.16-.24-1.5-.1-.89-.25-1.77-.46-2.66-.13-.58-.24-1.13-.3-1.63-.08-.57-.19-1.12-.33-1.65a.95.95 0 0 1 .1-.74c.08-.14.14-.13.19.02.08.22.2.44.34.65.16.22.28.45.37.7.95 2.7 1.98 5.4 3.1 8.1ZM32.56 15.05c-.14.3-.2.57-.18.83.02.22-.04.24-.17.06l-.17-.23c-.05-.07-.05-.15 0-.22.2-.26.31-.54.35-.82.03-.16.08-.17.16-.03.07.15.08.28.01.41ZM36.83 16.4c.01.16-.06.25-.2.27-.15.02-.2-.04-.12-.17.14-.26.3-.48.5-.64.09-.07.12-.05.1.05-.03.1-.08.2-.17.26a.25.25 0 0 0-.1.23Z" fill="#9E2D2C"/><path d="m28.18 28.16.32-2.38c.02-.2.11-.35.27-.48a.74.74 0 0 1 .53-.17l1.15.07a.76.76 0 0 1 .71.8L31 28.19a.72.72 0 0 1-.21.47.75.75 0 0 1-.47.22l-1.3.13a.75.75 0 0 1-.63-.22.7.7 0 0 1-.2-.62ZM23.15 34.19c-.12-1.1-.17-2.42-.14-3.96 0-.47.26-.9.74-1.26.4-.3.88-.5 1.44-.63.22-.06.42-.01.6.13.16.14.23.32.2.53a32.63 32.63 0 0 0-.3 4.66c0 .85-.42 1.32-1.23 1.4-.8.08-1.24-.21-1.31-.87ZM30.76 31.57c-.14 1-.17 1.97-.11 2.94.04.6-.19.72-.68.36l-1.08-.78a1.42 1.42 0 0 1-.61-1.08c-.1-1.05-.1-2.04-.03-2.96 0-.11.05-.2.13-.29a.45.45 0 0 1 .29-.13c.9-.08 1.78-.22 2.67-.43a3.7 3.7 0 0 1 1.61-.04c.57.11 1.02.38 1.35.8.1.14.13.3.07.45a.44.44 0 0 1-.35.3l-3 .6a.3.3 0 0 0-.26.26Z" fill="#085AC3"/><path d="M25.9 35.86c.37-.35.6-.72.67-1.13.06-.3.04-.77-.05-1.4a1.42 1.42 0 0 1 .35-1.16c.22-.25.38-.23.48.09.18.55.22 1.15.13 1.78-.07.44.2.87.8 1.28.41.28.93.53 1.55.75.19.06.3.19.32.37.03.18-.04.33-.2.43l-1.12.75c-.28.18-.61.3-1 .35a7.72 7.72 0 0 1-1.49.02c-.4 0-.83-.15-1.28-.44a5 5 0 0 1-1-.87c-.32-.35-.23-.5.26-.47.35.02.63.02.84-.01.3-.05.55-.16.73-.34Z" fill="#085AC3"/><path d="M17.43 32.82c.2-.1.41-.19.63-.25.06-.02.1-.05.1-.09a.13.13 0 0 0 0-.08.1.1 0 0 0-.08-.07l-2.45-.24c1.03-.3 2-.24 2.91.16.28.13.27.22-.03.3-.17.04-.33.12-.47.23a.44.44 0 0 1-.3.1.82.82 0 0 1-.3-.06ZM38.16 38a4.39 4.39 0 0 0-2.28-.02l.04-.39c.02-.1-.03-.17-.14-.19a.6.6 0 0 1-.24-.11c-.31-.25-.34-.46-.1-.64.15-.1.3-.12.47-.02L38.16 38ZM19.97 37.99c-.61-.2-1.36-.2-2.24 0l2.31-1.33c.05-.02.1-.02.14 0 .05.03.07.07.07.12l-.03.41c0 .1-.04.2-.1.27a.7.7 0 0 0-.15.53Z" fill="#9E2D2C"/></svg>