<!-- by TradingView --><svg width="56" height="56" viewBox="0 0 56 56" xmlns="http://www.w3.org/2000/svg"><path fill="#F0F3FA" d="M0 0h56v56H0z"/><path d="M18.48 22.85h-1.4c-.01 0-.03 0-.05-.02-.01-.01-.03-.03-.03-.05v-1.36c0-.02.03-.04.05-.04h5.57c.05 0 .08.03.08.08l-.04 1.34c0 .04-.02.06-.05.07a3.5 3.5 0 0 0-2.1 1.48c-.42.68-.6 1.54-.53 2.56.04.68.13 1.3.26 1.87a.1.1 0 0 1-.04.11L17.55 31c-.02.02-.03.02-.04 0a6.9 6.9 0 0 1-.96-4.25 6.15 6.15 0 0 1 1.95-3.84c.04-.03.04-.05-.02-.05ZM27.93 22.85c-.37 0-.56.17-.56.47v2.35a.2.2 0 0 1-.08.17l-2.96 2.43h-.03l-.02-.02v-4.81c0-.23-.09-.38-.26-.48-.12-.06-.3-.1-.52-.11-.04 0-.06-.02-.06-.06v-1.36c0-.03.01-.04.04-.04h4.5l.02.05v1.35c0 .04-.03.06-.07.06ZM34.56 24.12a3.54 3.54 0 0 0-1.6-.6.1.1 0 0 0-.1.03l-2.8 2.75h-.04l-.02-.02v-2.23c0-.38-.1-.67-.2-.85-.14-.24-.38-.36-.71-.35-.05 0-.07-.02-.07-.06v-1.37c0-.02.01-.03.03-.03h4c.68 0 1.34.08 1.98.24a6.79 6.79 0 0 1 1.88.78c0 .02 0 .03-.02.04l-2.24 1.67c-.03.02-.06.02-.1 0Z" fill="#A63B19"/><path d="M22.43 29.37c0-.01 0-.02-.02-.02h-.02l-4.62 2.29c-.12.06-.13.05-.02-.04l5.51-4.46a.05.05 0 0 1 .05-.01c.02 0 .03.02.03.04l.5 2.37.01.03.03-.01 4.23-3.57c.05-.03.07-.02.08.03l.34 1.83.02.02h.03l4-3.57c.04-.03.06-.02.07.02l.4 1.44c0 .02.02.02.03.03h.03l4.25-3.1c.11-.09.12-.08.03.03l-4.98 5.62h-.04a.03.03 0 0 1-.02-.02l-.54-2.5c0-.03-.02-.04-.04-.01a2559.08 2559.08 0 0 1-4.12 4.32c-.02 0-.02 0-.03-.02l-.5-2.64-.03-.03-.03.01-4.2 4.37a.04.04 0 0 1-.05.01.05.05 0 0 1-.04-.04l-.34-2.42Z" fill="#EB3338"/><path d="M32.81 31.96c.16 0 .3-.03.43-.07a4.59 4.59 0 0 0 2.52-2.02c.1-.17.18-.38.23-.63a6.4 6.4 0 0 0-.32-3.7.07.07 0 0 1 .01-.08l2.04-2.17c.05-.05.1-.06.16 0 .43.4.79.87 1.07 1.4.7 1.35.94 2.76.73 4.26-.06.46-.2.9-.4 1.32-.96 1.88-2.28 3.06-3.98 3.55-.27.08-.56.18-.86.18h-5.42c-.03 0-.02-.08-.02-.12V33c0-.05.02-.08.06-.1.3-.08.46-.32.68-.73.04-.1.26-.2.26-.3V28.7c0-.05 0-.1.04-.14l1.46-1.74a.04.04 0 0 1 .05-.01l.03.03.43 2.41c0 .04.03.05.06.02l.75-.6c.01-.01.02-.02.04-.01l.01.03-.11 3.2c0 .04.01.06.05.06ZM22.49 32.9c0 .01 0 .02.02.03l.04-.01 4.24-4.49a.03.03 0 0 1 .04 0 153.45 153.45 0 0 0 .47 1.98c.03.18.06.4.07.65a10.98 10.98 0 0 1-.02.77c0 .26.09.47.27.63.08.06.17.13.3.19l.33.14c.04.01.05.04.05.08v1.07c0 .04-.01.06-.05.06h-5.34c-.6 0-1.12-.04-1.53-.14a6.28 6.28 0 0 1-3.08-1.84c-.02-.02-.01-.04.01-.05l2.72-1.4c.03-.02.05-.02.07 0 .3.35.67.62 1.1.8a.2.2 0 0 1 .13.16l.16 1.36Z" fill="#A63B19"/><path fill-rule="evenodd" d="M11.33 36.17a19.93 19.93 0 0 0 4.57 3 28.07 28.07 0 0 0 8.34 2.52c2.87.4 5.77.41 8.7.02 2.02-.28 3.98-.77 5.88-1.48a.7.7 0 0 1 .2-.04.6.6 0 0 0 .26-.11l.15-.09c1.66-.68 3.12-1.5 4.4-2.43a14.17 14.17 0 0 0 3.5-3.64 10.08 10.08 0 0 0 1.57-4.09 9.6 9.6 0 0 0-.38-4.38 12.57 12.57 0 0 0-3.64-5.43 18.87 18.87 0 0 0-2.64-2c-.9-.57-1.84-1.08-2.85-1.53a27.2 27.2 0 0 0-4.49-1.56 30.47 30.47 0 0 0-4.7-.8c-3.75-.34-7.39-.03-10.9.94a22.82 22.82 0 0 0-5.37 2.22 15.88 15.88 0 0 0-4.49 3.75c-.6.74-1.07 1.48-1.42 2.2a9.63 9.63 0 0 0-.04 8.55 13.33 13.33 0 0 0 3.35 4.38Zm9.4-18.08a11.18 11.18 0 0 1 2.82-2.58c.03-.04.02-.05-.03-.04a16.04 16.04 0 0 0-4.18 1.8c0 .02 0 .03.02.03l1.28.8.04.01.05-.02Zm-2.2-1.4a15.35 15.35 0 0 1 1.41-.84h-.01a28.5 28.5 0 0 0-1.78.55 5.07 5.07 0 0 0 .39.28Zm6.5-.7.29.11c.02.02.03.04.01.06a13.4 13.4 0 0 0-1.61 3.3h-.05a19.2 19.2 0 0 1-2.1-.87c-.04-.02-.05-.05-.02-.08a10.68 10.68 0 0 1 3.04-2.57.32.32 0 0 1 .19-.05c.04 0 .1.02.16.05l.1.04Zm6.74.28c.56.92 1 1.96 1.33 3.1 0 .04.03.05.06.04a21.37 21.37 0 0 0 2.1-.85l-.01-.03A10.3 10.3 0 0 0 32.37 16c-.05-.03-.1-.02-.16.02l-.28.12-.13.05c-.04.02-.05.04-.03.08Zm2.67.03a16.13 16.13 0 0 1 2.47 1.37l-.02.02-.75.43c-.02.02-.04.01-.06 0a12.15 12.15 0 0 0-1.67-1.78c-.08-.07-.07-.09.03-.04Zm3.57.66c.04-.03.04-.06 0-.07a26.7 26.7 0 0 0-1.26-.47c-.08-.03-.09-.02-.01.03l.97.64c.03.02.07.02.1 0l.2-.13Zm-13.4 2.72c.21-.61.45-1.18.7-1.68.27-.55.58-1.07.92-1.54.01-.03.04-.04.06-.03l.64.16c.03 0 .04.02.03.06a28.21 28.21 0 0 0-.66 3.4 16.46 16.46 0 0 1-1.67-.32c-.03 0-.04-.02-.03-.05Zm7.63-.04a12.02 12.02 0 0 0-1.34-3.07.08.08 0 0 0-.09-.04l-.69.13c-.02 0-.03.02-.02.04a27.42 27.42 0 0 1 .42 3.34h.03l1.65-.33c.04 0 .05-.03.04-.07Zm-5.05.38.6-3.17c0-.03.02-.06.05-.08a.12.12 0 0 1 .08-.03l1.23.05c.03 0 .06 0 .08.03l.04.08.36 3.12c0 .04-.01.08-.03.1a.12.12 0 0 1-.1.05l-2.18.01a.12.12 0 0 1-.1-.05.13.13 0 0 1-.03-.1Zm-10.08-3.26-1.84.83a.03.03 0 0 0-.01.03v.02l1.05.75h.04l1.35-1.14v-.05l-.56-.44h-.03Zm21.96.58a23.18 23.18 0 0 1 2.15 1.13c0 .01 0 .02-.02.03l-1.05.7h-.05a13.98 13.98 0 0 0-1.57-1.5l.02-.02.45-.33a.07.07 0 0 1 .07-.01Zm-18.98 1.5-1.58-1.01c-.03-.02-.05-.02-.07 0l-1.27 1.04a.06.06 0 0 0-.02.05c0 .02.01.04.03.05l2.1 1.2h.05c.02 0 .03-.02.04-.03l.73-1.22a.06.06 0 0 0-.01-.08Zm-6.87 3a53.12 53.12 0 0 1-2.17-1.22l.01-.04c1-.96 2.1-1.78 3.26-2.45a.06.06 0 0 1 .08 0l1.25.91c.03.02.03.05 0 .07A14.1 14.1 0 0 0 13.64 22c-.02.03-.04.03-.06.02-.12-.05-.23-.1-.35-.17Zm23.44-2.93.91 1.64c.01.01.02.02.04 0l1.7-.85a.03.03 0 0 0 .01-.05l-1.55-1.4c-.01-.02-.02-.02-.03 0l-1.07.62c-.02 0-.02.02-.01.04Zm5.83 3.78a14.07 14.07 0 0 0-1.74-2.77l.01-.03 1.27-.87a.07.07 0 0 1 .09 0 17.33 17.33 0 0 1 2.78 2.3l-.02.04c-.77.5-1.55.95-2.34 1.35-.02.01-.04 0-.05-.02Zm-21.56-3.37c-.03-.01-.03-.02 0-.01Zm-.04.07.04-.07a170.6 170.6 0 0 0 2.07.9h-2.58c-.03 0-.04-.02-.02-.05.13-.24.3-.5.5-.78Zm12.82.8c.48-.18 1.17-.46 2.07-.86.03-.01.06 0 .08.03.3.48.58.97.82 1.46.03.05.02.06-.03.04a7.44 7.44 0 0 0-2.94-.64c-.05 0-.05-.01 0-.03Zm-16.26 0-.95-.59c-.03-.01-.05-.01-.07.01l-.52.58c-.02.02-.01.03.02.03h1.52c.04 0 .04 0 0-.03Zm20.5 1.2c.65-.3 1.3-.63 1.94-.99.03-.02.06-.01.08.01a13.27 13.27 0 0 1 1.71 2.71l-.02.03-1.58.67c-.02.01-.04 0-.05-.02a7.8 7.8 0 0 0-1.92-2.1.43.43 0 0 1-.18-.28c0-.01 0-.02.02-.02Zm-22.6-.49-.94 1.5c-.01.02-.01.03.01.04l.96.45h.03v-.03l-.01-1.94c0-.02 0-.03-.02-.03l-.03.01Zm1.87 2.53-1.15-.01c-.04 0-.07-.02-.07-.06v-2.3c0-.04 0-.06.04-.06H33.7a6.73 6.73 0 0 1 .96 13.4c-.4.07-.91.1-1.55.1h-10.7a6.54 6.54 0 0 1-4.6-1.87 6.78 6.78 0 0 1-2.1-4.56c-.04-.78.09-1.58.4-2.41a10.56 10.56 0 0 1 1.14-2.22.03.03 0 0 0-.03-.01Zm-4.04-.59c-.73-.36-1.64-.86-2.74-1.5-.03-.02-.06-.02-.08.01-.73.85-1.3 1.74-1.7 2.67a8.64 8.64 0 0 0-.73 3.06l.03.02 4.17.05c.04 0 .07-.02.07-.06.09-1.43.42-2.83 1-4.2 0-.02 0-.04-.02-.05ZM43 23.95a3.68 3.68 0 0 0-.13-.34c0-.03 0-.06.04-.07.93-.48 1.8-.98 2.57-1.5.03-.02.05-.02.08 0 .69.82 1.24 1.67 1.66 2.57a9.57 9.57 0 0 1 .82 2.97l-.02.02-4.28-.06c-.02 0-.04-.01-.04-.04-.07-1.22-.3-2.4-.7-3.55Zm-27.12.28h-.4c-.04 0-.06-.02-.06-.07v-.22a.07.07 0 0 0-.04-.06l-1.34-.6c-.02-.01-.04 0-.04.01a12.02 12.02 0 0 0-.9 3.86l.02.01 1.82.02c.03 0 .04-.01.05-.04.15-1.01.46-1.96.93-2.84.02-.05 0-.07-.04-.07Zm25.84-.13.27-.12c.04 0 .06 0 .08.04.4 1.1.65 2.25.73 3.45 0 .04-.02.06-.06.06l-1.5-.02c-.04 0-.05-.02-.05-.05a7.7 7.7 0 0 0-.7-2.82 13.31 13.31 0 0 0 1.23-.54Zm-31.58 9.44 2.77-1.37v-.03a12.82 12.82 0 0 1-.76-4.06.05.05 0 0 0-.03-.02l-4.17-.05-.03.02a9.12 9.12 0 0 0 .67 2.93c.37.9.87 1.76 1.5 2.57.02.02.03.02.05.01Zm5.43-2.46-1.78.7c-.02.02-.04 0-.05-.02a11.92 11.92 0 0 1-.67-3.62c0-.05.01-.07.05-.06l1.8.02c.01 0 .03.01.03.04.03 1 .25 1.97.64 2.88.02.03 0 .05-.02.06Zm26.36 1.39c.03.01.04 0 .06-.02a11.87 11.87 0 0 0 .81-3.99.05.05 0 0 0-.04-.02h-1.55c-.02 0-.03 0-.03.02a7.57 7.57 0 0 1-.9 3.12c-.02.02-.01.04.01.06l1.64.83Zm.97.1c.49-1.28.76-2.63.81-4.06 0-.04.02-.05.05-.05l4.32.05a8.99 8.99 0 0 1-.71 3.4 10.6 10.6 0 0 1-1.87 2.9c-.02.02-.05.03-.07 0a22.77 22.77 0 0 0-2.63-1.83c-.03-.01-.04-.04-.03-.06l.13-.35Zm-26.9-.66-.26.08-1.58.64c-.04.02-.06.05-.03.1.44.96 1.02 1.89 1.72 2.77.03.03.05.03.08.01.66-.47 1.35-.93 2.07-1.36.03-.02.03-.05 0-.07a7.7 7.7 0 0 1-1.93-2.14c-.01-.03-.04-.04-.07-.03Zm23.79.49 1.78.88.02.03v.03c-.47.93-1.05 1.8-1.73 2.6-.02.02-.04.02-.07 0a27.47 27.47 0 0 0-2.16-1.48l.02-.04a7.76 7.76 0 0 0 2.14-2.02Zm-26.55.64a51.07 51.07 0 0 0-2.5 1.25 17.06 17.06 0 0 0 3.2 2.74c.04.02.08.02.1-.01l1.1-.9c.02-.02.02-.04 0-.06a14.15 14.15 0 0 1-1.85-3c-.01-.03-.03-.03-.05-.02Zm29.14.73h.02a21.21 21.21 0 0 1 2.45 1.7c0 .02 0 .03-.02.05a16.6 16.6 0 0 1-2.94 2.2l-1.32-1.18c-.02-.01-.02-.02 0-.04.68-.8 1.29-1.71 1.81-2.73Zm-23.6.96L16.5 36.2l-.02.03.01.02 1.18 1.13h.04l1.92-1.04c.02-.01.02-.02.01-.04l-.82-1.56c-.01-.02-.02-.02-.04-.01Zm14.68.87h-.01.02c.66.3 1.3.58 1.9.87.04.02.07.01.09-.02l.8-1.27c.03-.05.02-.06-.03-.04-.91.32-1.83.48-2.76.47h-.01Zm-11.99-.07a8.26 8.26 0 0 1-1.39-.32v.02l.39.67c.02.04.04.05.08.03l.93-.36c.05-.02.05-.03 0-.04Zm16.28 2.39-1.5-.97v-.04l.97-1.6h.05l1.94 1.3v.06l-1.42 1.24c-.01.01-.02.02-.04 0Zm-13.68-2.1.41 1.26c.01.02.03.03.05.02l1.29-.2c.03 0 .05-.02.05-.06l-.11-1.18c0-.03-.02-.05-.05-.05a5.97 5.97 0 0 0-1.64.18v.04Zm2.61-.2 2.32-.01.02.01.01.02-.2 1.22c0 .02-.01.03-.03.03l-2.01-.07c-.02 0-.03-.01-.03-.03l-.1-1.15c0-.02 0-.03.02-.03Zm3.08 1.42 1.35.3c.03.01.05 0 .07-.03l.51-1.25V36a.06.06 0 0 0-.04-.03l-1.65-.37-.04.01a.05.05 0 0 0-.02.04l-.22 1.32v.04l.04.02Zm-6.17.3-1.6.54-.02-.01-.94-1.12v-.02l.01-.02 2.1-.73c.02 0 .03 0 .04.02l.43 1.3c0 .01 0 .03-.02.03Zm11.22-.11a21.22 21.22 0 0 0-2.2-.94c-.02-.01-.04 0-.05.02l-.52 1.29v.04l.02.02c.54.2 1.1.42 1.64.68l.06-.01a12.22 12.22 0 0 0 1.05-1.1Zm-18.58 1.1-1.39-.74a.03.03 0 0 1-.01-.02v-.03l.9-.74h.04l1.1 1.08.01.02-.01.03-.61.4h-.03Zm3.91-1.22-1.64.86-.02.03s0 .02.02.02l1.38.9h.03l1.18-.62v-.04l-.92-1.15h-.03Zm20.91 1.13-1.8.85h-.03l-.68-.57-.01-.02v-.02l1.4-1.25h.04l1.09.96v.05Zm-5.53 1.1 1.42-.83.01-.03-.01-.02-1.25-.78h-.04l-1.02 1.1v.05l.86.5h.03Zm-8.56-1.6 1.6.05c.03 0 .05.01.06.03.01.02.02.04.01.06l-.25 1.1c0 .04-.03.06-.07.06L27.13 39c-.04 0-.06-.02-.06-.06l-.17-1.12.01-.06a.07.07 0 0 1 .06-.03Zm-.77 1.3-.2-1.17a.07.07 0 0 0-.02-.04.06.06 0 0 0-.05-.01l-.97.14a.06.06 0 0 0-.05.04v.06l.65 1.1c.01.03.03.04.06.03l.53-.08c.02 0 .03-.01.04-.03.01-.01.02-.03.01-.05Zm4.52-.8-.8 1.15h-.03l-.63-.18c-.02 0-.03-.02-.03-.04l.31-1.21c0-.02.02-.03.04-.02l1.12.24.02.02v.03Zm-6.08 1.16L24 38.23c-.02-.03-.04-.04-.07-.03l-1.1.35c-.02 0-.03.02-.04.05 0 .03 0 .05.03.06l1.35.94h.05l.38-.1c.02-.01.04-.03.04-.05v-.05Zm8.22-.46c.07.03.07.06 0 .1a9.9 9.9 0 0 1-1.6.92.12.12 0 0 1-.11 0l-.36-.17c-.03-.01-.03-.03-.01-.06.3-.4.56-.8.8-1.23.02-.03.04-.04.08-.03l1.2.47Zm-15.58-.2c-.04.03-.04.06 0 .08l1.58.62c.22.08.23.06.04-.07-.42-.27-.82-.55-1.2-.83-.03-.02-.06-.02-.1 0l-.32.2Zm4.53.25 1.38 1.07v.05l-.22.17h-.02l-2.04-.8a.03.03 0 0 1-.02-.03c0-.01 0-.02.02-.03l.87-.44h.03Zm15.93.08-1.36.84-.02.04c0 .02.02.03.03.04l.13.04h.03l1.65-.53c.02 0 .03-.02.03-.03l-.01-.05-.43-.34c-.02-.02-.04-.02-.05 0Zm-3.85.37.57.32.02.03a19.77 19.77 0 0 1-2.25.77c-.16.05-.17.03-.02-.05a11.76 11.76 0 0 0 1.68-1.07Z" fill="#383337"/></svg>