<!-- by TradingView --><svg width="56" height="56" viewBox="0 0 56 56" xmlns="http://www.w3.org/2000/svg"><path fill="#F0F3FA" d="M0 0h56v56H0z"/><path d="M24 24v8h-1.5v-8H24ZM6 24v5.03C6 30.67 7.43 32 9.2 32h.6c1.77 0 3.2-1.33 3.2-2.97V24h-1.5v5.02c0 1.03-.7 1.98-1.8 1.98h-.25c-1.1 0-1.95-.95-1.95-1.98V24H6Zm29 0v5.03c0 1.64 1.43 2.97 3.2 2.97h.6c1.77 0 3.2-1.33 3.2-2.97V24h-1.5v5.02c0 1.03-.7 1.98-1.8 1.98h-.25c-1.1 0-1.95-.95-1.95-1.98V24H35Zm-21 0v1h3v7h1.5v-7h3.07v-1H14Zm16.34 7.99a4 4 0 1 0-1.3-.1c.16 1.29 1.16 3 4.31 1.58l-.26-1.1c-.22.17-.87.51-1.66.51-.75 0-.99-.35-1.09-.9ZM32.5 28c0 1.66-1.12 3-2.5 3s-2.5-1.34-2.5-3 1.12-3 2.5-3 2.5 1.34 2.5 3ZM50 24h-6v8h6v-1h-4.5v-2.5H49v-1h-3.5V25H50v-1Z" fill="#B9844D"/></svg>