<!-- by TradingView --><svg width="56" height="56" viewBox="0 0 56 56" xmlns="http://www.w3.org/2000/svg"><path fill="#F0F3FA" d="M0 0h56v56H0z"/><path d="M20 37.05V14h-.71A4.34 4.34 0 0 0 15 18.39v21c0 2.55 2.02 4.61 4.5 4.61h17c2.48 0 4.5-2.06 4.5-4.6V18.38c0-2.43-2.63-4.39-5-4.39v23.35c0 1.58-.57 2.65-2.11 2.65H22c-1.54 0-2-1.38-2-2.95Z" fill="#0B496C"/><path d="M21 14.58c0-1.43 1.1-2.58 2.45-2.58h9.1A2.52 2.52 0 0 1 35 14.58v21.84c0 1.43-1.1 2.58-2.45 2.58h-9.1A2.52 2.52 0 0 1 21 36.42V14.58Z" fill="#ED1B24"/></svg>