<!-- by TradingView --><svg width="56" height="56" viewBox="0 0 56 56" xmlns="http://www.w3.org/2000/svg"><path fill="#F0F3FA" d="M0 0h56v56H0z"/><circle cx="28" cy="28" r="17" fill="#174869"/><circle cx="28" cy="28" r="16.5" fill="#FEFDF9"/><circle cx="28" cy="28" r="16" fill="#C4AF80"/><circle cx="28" cy="28" r="15.66" fill="#FEFDF9"/><circle cx="28" cy="28" r="15.32" fill="#6D605A"/><circle cx="28" cy="28" r="15" fill="#FEFEFC"/><circle cx="28" cy="28" r="14.68" fill="url(#a3mgtjx54)"/><circle cx="28" cy="28" r="13" fill="#E6A153"/><path d="M20.33 17.5h2.23l.98 19.48 3.96 3.52 5.46-2.5 1.27-9.95-.24-9.52 1.68-1.03a12.94 12.94 0 0 0-15.34 0Z" fill="url(#b3mgtjx54)"/><path fill-rule="evenodd" d="M26.73 17H19v.4h.47c.85 0 1.53.66 1.53 1.49v15.28c0 3.77 3.47 6.83 7.33 6.83A6.64 6.64 0 0 0 35 34.17V18.89c0-.83 1-1.5 1.85-1.5H37V17h-5.95v.4h.17a.78.78 0 0 1 .71 1.1L28.5 26l-2.46-7.54a.82.82 0 0 1-.04-.25v-.08c0-.4.33-.73.73-.73V17Zm.77 10.29-3.5-8.4v13.36c0 4.22 2.06 6.46 3.14 7.06l.36-1.34V27.29Zm5.5-8.4-3.5 8.4v10.68l.36 1.34c1.08-.6 3.14-2.84 3.14-7.06V18.9Z" fill="url(#c3mgtjx54)"/><defs><linearGradient id="a3mgtjx54" x1="42.68" y1="28" x2="13.32" y2="28" gradientUnits="userSpaceOnUse"><stop stop-color="#F9F8FE"/><stop offset=".23" stop-color="#8A888E"/><stop offset=".5" stop-color="#FCFCFC"/><stop offset=".79" stop-color="#8B8B8B"/><stop offset="1" stop-color="#F9F7FD"/></linearGradient><linearGradient id="b3mgtjx54" x1="35.67" y1="27.75" x2="20.33" y2="27.75" gradientUnits="userSpaceOnUse"><stop stop-color="#0B4C9C"/><stop offset=".48" stop-color="#00A1E4"/><stop offset="1" stop-color="#1C3F73"/></linearGradient><linearGradient id="c3mgtjx54" x1="28" y1="17" x2="28" y2="41" gradientUnits="userSpaceOnUse"><stop stop-color="#8E8C8D"/><stop offset=".58" stop-color="#E5DCE1"/><stop offset=".85" stop-color="#7E7A7B"/><stop offset="1" stop-color="#F8F8FA"/></linearGradient></defs></svg>