<!-- by TradingView --><svg width="56" height="56" viewBox="0 0 56 56" xmlns="http://www.w3.org/2000/svg"><path fill="#F0F3FA" d="M0 0h56v56H0z"/><path d="M14.32 16.22c.06.06.15.07.2.02.04-.04.03-.13-.03-.19s-.15-.07-.2-.02c-.04.05-.03.13.03.2ZM17.68 16.42c.08.08.2.1.26.05.06-.06.04-.18-.04-.26-.09-.09-.2-.11-.26-.05s-.04.17.04.26ZM18.87 16.2a.12.12 0 0 0-.08.07c-.03.06-.01.13.07.21.04.03.08.04.12.03a.11.11 0 0 0 .08-.1c.02-.07 0-.13-.08-.19a.12.12 0 0 0-.1-.02ZM16.7 16.7c.1.08.24.07.29 0 .05-.09.01-.21-.1-.28-.1-.07-.23-.07-.29.02-.05.08 0 .2.1.27ZM13.6 16.65c-.11-.05-.17-.02-.17.1 0 .19.1.27.27.25.08-.01.11-.06.08-.14a.36.36 0 0 0-.18-.21ZM15.82 17.06c.1.09.23.1.3.03.05-.08.02-.2-.07-.28-.1-.09-.23-.1-.3-.03-.05.07-.02.2.07.28ZM15.33 17.64c-.07.08-.21.07-.33-.02-.11-.1-.15-.24-.08-.32.07-.08.22-.07.33.02.11.1.15.24.08.32ZM18.23 17.6c.1.1.23.12.3.05.06-.06.04-.2-.05-.29-.1-.09-.23-.11-.3-.04-.06.07-.04.2.05.29ZM19.5 17.66c-.07.06-.18.03-.26-.06-.08-.09-.09-.2-.02-.26.07-.06.18-.04.26.05.08.1.09.22.02.27ZM20.25 17.65c.08.1.2.13.27.08.07-.06.06-.18-.01-.27-.08-.1-.2-.13-.27-.08-.07.06-.06.18.01.27ZM17.7 17.8c-.05.08-.2.1-.33.02s-.2-.21-.14-.3c.05-.08.2-.1.33-.02s.2.2.14.3ZM12.85 17.82c.09.09.21.1.28.03.06-.07.04-.2-.05-.28-.1-.08-.22-.1-.29-.02-.06.07-.04.19.06.27ZM21.37 17.64a.13.13 0 0 0-.08.1c0 .1.04.2.14.26.03.02.07.03.1.02a.11.11 0 0 0 .08-.07c.05-.12.01-.22-.1-.3a.13.13 0 0 0-.14-.01ZM16.59 18.16c.15.08.32.07.38-.04.06-.1-.02-.25-.17-.34-.15-.08-.32-.07-.38.04-.06.1.02.25.17.34ZM14.72 18.32c-.1.07-.27.02-.37-.11-.1-.14-.1-.31 0-.38.11-.08.27-.03.37.1.1.14.1.31 0 .39ZM15.84 18.56c.12.15.3.2.41.11.12-.09.1-.28-.01-.42-.12-.15-.3-.2-.41-.11-.11.08-.1.27.01.42ZM19.3 18.23c-.1 0-.14.04-.13.13.03.23.15.32.33.28a.16.16 0 0 0 .13-.14.16.16 0 0 0-.07-.18.58.58 0 0 0-.26-.09ZM22.5 18.44c.07.06.16.07.2.03.04-.05.02-.13-.05-.2-.07-.05-.16-.07-.2-.02-.04.04-.01.13.06.2ZM11.13 18.59c-.06.05-.17.03-.25-.05-.08-.09-.09-.2-.03-.26.07-.06.18-.03.26.05.07.09.08.2.02.26ZM18.6 18.61c.1.09.25.09.32 0 .06-.08.02-.22-.09-.3-.11-.09-.25-.09-.32 0-.06.08-.03.22.09.3ZM20.34 18.59c-.05.07-.18.07-.29 0-.1-.08-.14-.2-.08-.28.06-.08.19-.08.3 0 .1.08.13.2.07.28ZM17.86 18.75c.11.12.28.15.36.07.08-.07.05-.23-.06-.36-.12-.12-.28-.15-.36-.07-.08.08-.06.24.06.36ZM21.32 18.73c-.06.06-.18.05-.27-.02-.1-.08-.13-.2-.07-.27.05-.06.18-.05.27.02.1.08.12.2.07.27ZM12.41 18.88c.1.13.27.18.37.1.1-.08.1-.25 0-.38s-.27-.17-.37-.1c-.1.08-.1.25 0 .38ZM14.32 19.12c-.1.1-.28.09-.42-.04-.15-.12-.2-.3-.1-.41.1-.1.28-.09.42.04.15.13.2.31.1.41ZM17.18 19.08c.14.12.32.14.4.04.09-.1.05-.27-.08-.39s-.31-.14-.4-.04c-.09.09-.05.27.08.39ZM15.8 19.28c-.1.1-.31.07-.46-.08-.14-.15-.17-.36-.05-.47.1-.1.31-.06.46.09.14.15.17.36.05.46ZM22 18.84c.2-.01.3.07.29.24 0 .05-.03.08-.08.08-.13 0-.23-.05-.3-.17a.1.1 0 0 1 0-.1.1.1 0 0 1 .09-.05ZM17.03 19.57c-.09.11-.3.1-.45-.04-.16-.13-.22-.32-.12-.44.09-.1.3-.1.45.04.16.13.22.33.12.44ZM20 19.37c.1.1.25.13.32.06s.05-.2-.05-.31c-.1-.1-.24-.14-.31-.07s-.05.21.05.32ZM19 19.56c-.1.09-.27.06-.4-.07-.12-.13-.15-.3-.06-.4.09-.08.26-.05.39.08.12.13.15.3.06.39ZM19.3 19.44c.11.11.27.14.36.05.08-.08.06-.24-.06-.35-.1-.11-.27-.14-.35-.05-.08.08-.06.24.05.35ZM21.14 19.57c-.07.07-.2.07-.3-.01-.1-.08-.14-.21-.08-.3.07-.07.2-.07.3.02.1.08.14.2.08.29ZM23.06 19.5a.35.35 0 0 1-.18-.15.07.07 0 0 1 0-.08.08.08 0 0 1 .05-.04c.08-.02.15 0 .2.06.04.04.05.08.05.13-.01.08-.05.1-.12.07ZM18.32 19.8c-.1.09-.28.05-.4-.08-.13-.13-.15-.31-.05-.4.1-.1.27-.06.4.07.12.13.15.31.05.4ZM21.58 19.75c.1.1.22.12.3.06.07-.07.05-.2-.05-.3-.09-.1-.22-.13-.3-.06-.06.06-.05.2.05.3ZM15.34 20.03c-.11.1-.32.07-.46-.08-.15-.15-.18-.35-.07-.46.11-.1.32-.07.46.08.15.15.17.36.07.46ZM13.5 20c.15.14.35.17.46.07.1-.11.08-.31-.07-.46-.14-.14-.34-.17-.45-.06-.1.1-.08.3.06.45ZM12.58 20.09c-.1.1-.29.08-.43-.05s-.17-.32-.08-.42c.1-.1.29-.09.43.04s.17.32.08.43ZM16.06 20.19c.16.15.4.17.5.04.11-.12.07-.35-.1-.5-.17-.15-.4-.17-.5-.04-.12.12-.07.35.1.5ZM11 20c-.06.07-.2.04-.29-.05-.09-.1-.1-.23-.03-.3.07-.06.2-.04.29.06.09.1.1.23.03.3ZM17.39 20.13c.11.14.29.17.38.09.1-.1.08-.27-.04-.4s-.3-.16-.39-.08c-.1.09-.07.26.05.4ZM22.68 20.08c-.07.06-.18.04-.25-.05-.08-.08-.1-.2-.03-.25.06-.06.18-.04.25.05.08.08.09.2.03.25ZM19.65 20.12c.1.1.22.12.28.06.07-.06.05-.2-.04-.29-.09-.09-.22-.11-.28-.05-.07.06-.05.19.04.28ZM20.56 20.21c-.07.06-.2.03-.3-.07-.08-.1-.1-.24-.03-.3s.2-.03.3.07c.08.1.1.24.03.3ZM20.94 20.22c.08.1.2.14.28.08.07-.06.07-.19-.01-.29-.08-.1-.2-.13-.28-.07-.07.06-.07.18.01.28ZM19.33 20.3c-.07.06-.19.04-.27-.05-.08-.1-.1-.22-.03-.28.07-.06.2-.04.28.06.08.09.1.21.02.27ZM18.49 20.45c.08.08.2.1.27.02.06-.06.04-.18-.05-.26-.09-.08-.2-.1-.27-.03-.06.07-.04.2.05.27ZM23.47 20.45c-.06.06-.17.05-.24-.03-.08-.08-.09-.19-.03-.25.07-.06.18-.05.25.03.08.08.09.19.02.25ZM17.05 20.64c.12.1.29.11.36.02.08-.1.03-.25-.1-.35-.13-.1-.3-.11-.37-.02-.07.1-.02.25.1.35ZM22.03 20.47c-.05.07-.16.07-.26 0s-.13-.18-.08-.25c.05-.06.16-.06.26.01.1.07.13.18.08.24ZM14.6 20.77c.16.15.37.17.47.06.1-.1.07-.31-.08-.46-.15-.14-.36-.17-.47-.06-.1.11-.06.32.09.46ZM16.14 20.98c-.1.1-.3.07-.45-.08-.14-.15-.16-.35-.06-.45.1-.1.3-.06.45.08.14.15.17.35.06.45ZM22.44 20.72c.07.09.19.12.25.06.07-.05.07-.17 0-.26s-.18-.11-.25-.06c-.07.06-.07.17 0 .26ZM13.81 21.15c-.12.08-.32.01-.43-.16-.12-.17-.1-.38.02-.46.13-.08.32-.01.44.16.11.17.1.38-.03.46ZM9.08 20.86c.09.1.22.13.3.07.06-.06.05-.2-.04-.3-.09-.1-.22-.13-.3-.07-.07.07-.05.2.04.3ZM24.15 20.71c.16.04.22.12.19.27 0 .02-.02.04-.04.05a.08.08 0 0 1-.07 0 .32.32 0 0 1-.19-.18.1.1 0 0 1 .02-.1.1.1 0 0 1 .1-.04ZM12.6 21.35c-.1.1-.3.06-.43-.09-.13-.14-.14-.33-.04-.43.1-.1.3-.05.43.09s.14.34.04.43ZM23.29 20.77c.09.03.15.1.18.19a.1.1 0 0 1 0 .08.1.1 0 0 1-.08.04l-.14-.01c-.07-.02-.1-.07-.1-.13v-.09c.02-.08.06-.1.14-.08ZM17.1 21.23c-.06.07-.2.06-.31-.04-.1-.1-.13-.23-.06-.3.07-.08.21-.07.31.03s.14.23.07.3ZM17.7 21.2c.1.09.21.12.27.06.05-.05.02-.17-.07-.26-.1-.09-.2-.12-.26-.07-.05.05-.02.17.07.26ZM11.18 21.51c-.1.08-.26.04-.38-.1-.1-.12-.12-.3-.02-.37.1-.08.26-.04.37.09.11.13.12.3.03.38ZM14.54 21.77c.16.15.38.18.5.06.1-.12.07-.34-.1-.5-.16-.15-.38-.17-.5-.05-.1.12-.07.34.1.5ZM15.98 21.78c-.08.1-.26.1-.4 0-.14-.12-.19-.3-.1-.4.08-.1.26-.1.4.01s.19.29.1.4ZM23.96 21.3c.1.01.16.06.2.15a.1.1 0 0 1-.02.12c-.04.03-.08.04-.12.02-.08-.03-.14-.1-.16-.2-.02-.08.01-.12.1-.1ZM25.08 21.55a.25.25 0 0 0-.12-.18c-.09-.06-.12-.04-.12.06 0 .08.04.15.1.2.03.02.06.02.1 0a.07.07 0 0 0 .04-.08ZM17.48 21.39a.2.2 0 0 1 .16.08c.04.05.06.12.03.19-.03.09-.08.1-.16.04l-.15-.12c-.06-.05-.06-.1 0-.15a.17.17 0 0 1 .12-.04ZM16.89 21.67a.43.43 0 0 0-.29-.2c-.07-.02-.1 0-.12.07-.03.23.07.33.31.31.05 0 .08-.02.1-.06a.11.11 0 0 0 0-.12ZM13.42 22.18c.17.18.41.23.55.11.14-.12.12-.37-.05-.56-.16-.18-.4-.23-.55-.1-.13.12-.11.37.05.55ZM24.7 22.12c.06-.01.08-.05.07-.11-.02-.12-.08-.16-.19-.15a.1.1 0 0 0-.09.07.1.1 0 0 0 .02.1c.05.08.11.1.2.09ZM17.55 22.14c0 .03 0 .04-.03.06a.16.16 0 0 1-.11.02c-.13-.03-.19-.12-.17-.25 0-.06.04-.08.1-.06.1.03.17.11.2.23ZM25.78 22.2c-.01-.1-.06-.15-.15-.15-.04 0-.06.02-.06.06 0 .08.03.14.1.17.02.01.04.01.07 0a.07.07 0 0 0 .04-.08ZM16.48 22.41c.1.08.21.1.27.03.05-.06.02-.17-.07-.25-.09-.08-.2-.1-.26-.04-.06.06-.03.18.06.26ZM15.98 22.6c-.07.09-.24.08-.36-.02-.13-.1-.17-.26-.1-.35.07-.09.23-.08.36.03.12.1.17.25.1.34ZM9.49 22.66c.12.12.3.14.39.04.08-.09.05-.26-.07-.38-.13-.12-.3-.14-.4-.05-.08.1-.05.26.08.39ZM12.8 22.84c-.11.13-.34.1-.5-.05-.18-.16-.22-.39-.1-.51.11-.12.34-.1.5.06.18.15.22.38.1.5ZM14.58 22.8c.18.13.41.14.51 0 .1-.13.04-.35-.14-.49-.18-.14-.41-.14-.51 0-.1.13-.04.35.14.48ZM25.31 22.69c-.04.04-.13.03-.2-.03-.05-.07-.07-.15-.03-.2.05-.04.14-.03.2.03s.08.15.03.2ZM17.27 22.77c.06.07.16.1.22.05.05-.05.04-.15-.02-.22s-.16-.1-.21-.05c-.06.05-.05.15.01.22ZM11.52 23.15c-.1.1-.3.06-.42-.08-.13-.14-.15-.33-.04-.43.1-.1.3-.06.42.08.13.14.15.33.04.43ZM13.6 23.48c.17.2.42.26.57.14.15-.13.14-.4-.03-.6-.17-.2-.43-.26-.58-.13-.15.12-.13.39.04.59ZM16.82 23.06a.73.73 0 0 0-.2-.2.1.1 0 0 0-.1-.02.1.1 0 0 0-.06.08c-.03.11 0 .2.1.27a.2.2 0 0 0 .22.01c.06-.03.07-.08.04-.14ZM15.76 23.4c.1.1.26.12.33.04.07-.08.04-.23-.07-.33-.12-.1-.27-.11-.34-.03s-.04.22.08.32ZM25.91 23.24c.02-.07 0-.13-.06-.19a.1.1 0 0 0-.12-.02.1.1 0 0 0-.07.1c0 .08.04.14.14.17h.07a.1.1 0 0 0 .03-.03l.01-.03ZM17.28 23.48a.37.37 0 0 1-.02-.18c0-.03.02-.05.05-.07.03 0 .06 0 .08.02.05.05.08.1.1.17 0 .06-.01.1-.08.11h-.07a.08.08 0 0 1-.06-.05ZM15.31 23.86c-.1.12-.3.12-.48 0-.17-.13-.23-.34-.14-.46.1-.13.3-.13.48 0 .17.13.24.33.14.46ZM12.7 24.13c.17.18.42.23.56.1.14-.12.12-.38-.05-.56-.17-.2-.42-.24-.56-.11-.15.13-.12.38.05.57ZM16.8 23.68a.24.24 0 0 0-.16 0c-.06.03-.07.07-.04.12.04.08.1.13.2.16.08.02.12-.01.1-.1v-.07c0-.06-.04-.1-.1-.11ZM17.47 24.1c.07.05.14.06.17.02.03-.05 0-.12-.06-.16-.07-.05-.15-.06-.18-.02-.03.05 0 .12.07.17ZM16.28 24.38c-.06.07-.19.06-.28-.02-.1-.08-.13-.2-.07-.28.06-.07.19-.06.28.02.1.09.13.21.07.28ZM11.69 24.71c.16.17.39.2.51.09.13-.12.1-.35-.06-.52-.15-.16-.38-.2-.5-.08-.13.11-.1.34.05.51ZM14.64 24.93c-.16.14-.44.09-.62-.12-.2-.2-.22-.49-.06-.63.15-.14.43-.09.62.12.19.2.22.5.06.63ZM10.14 24.65c.13.14.33.17.43.07.1-.1.08-.3-.06-.44s-.33-.17-.44-.07c-.1.1-.07.3.07.44ZM15.69 24.93c-.1.12-.3.11-.47-.02-.16-.12-.21-.33-.11-.45.1-.12.3-.1.46.02.16.13.22.33.12.45ZM17.05 24.59c.05.07.07.13.05.18a.11.11 0 0 1-.1.08.1.1 0 0 1-.1-.05c-.06-.08-.06-.16 0-.22a.09.09 0 0 1 .07-.03c.03 0 .06.01.08.04ZM17.69 24.59h-.02a.07.07 0 0 0-.02.04.18.18 0 0 0 .01.17c.02.04.05.05.1.04.03 0 .06-.02.07-.06a.16.16 0 0 0-.07-.2h-.04a.09.09 0 0 0-.03 0ZM13.26 25.6c.2.2.48.25.63.1.15-.13.12-.42-.08-.63-.2-.2-.48-.25-.63-.11-.16.14-.12.43.08.63ZM16.69 25.29c-.05.08-.17.1-.27.03-.11-.06-.16-.17-.12-.24.05-.08.17-.1.27-.04.1.06.16.17.12.25ZM14.62 26.06c.2.21.49.26.65.12.16-.15.12-.44-.08-.66-.2-.21-.49-.26-.65-.12-.16.15-.12.44.08.66ZM15.8 25.99c.16.12.36.13.45.02.1-.12.04-.31-.12-.44-.15-.12-.35-.13-.45-.01-.09.11-.03.3.12.43ZM13.02 26.53c-.14.14-.4.1-.57-.08-.18-.18-.2-.43-.07-.57.14-.13.4-.1.57.08.18.19.2.44.07.57ZM16.95 26.2c.1.06.22.05.26-.02.05-.07 0-.18-.1-.24-.11-.06-.23-.05-.27.02-.04.08 0 .18.11.24ZM11.56 26.62c-.1.12-.32.1-.49-.06-.16-.14-.2-.36-.1-.47.12-.12.33-.1.5.05.15.15.2.36.09.48ZM17.8 26.11c.05.04.08.08.1.13 0 .03 0 .06-.03.08a.08.08 0 0 1-.07.03h-.06c-.04 0-.06-.03-.06-.06v-.12c0-.03.02-.05.05-.06a.07.07 0 0 1 .04 0h.03ZM14.69 27.13c-.16.15-.44.1-.63-.12-.2-.2-.23-.49-.07-.63.15-.15.44-.1.63.12.2.2.22.49.07.63ZM16.41 26.99c.15.1.33.1.4 0 .08-.1.03-.27-.11-.38-.15-.1-.33-.1-.4 0-.08.1-.03.27.11.38ZM16.06 27.44c-.16.15-.46.1-.66-.12-.2-.2-.24-.5-.08-.65.16-.16.45-.1.65.1.2.22.24.52.09.67ZM17.74 27.17c-.25.02-.35-.07-.3-.27 0-.03.02-.05.05-.06a.08.08 0 0 1 .06 0c.1.05.19.11.25.2l.01.04v.04a.08.08 0 0 1-.07.05ZM13.97 28.16c-.14.13-.4.08-.58-.11-.17-.2-.2-.45-.06-.58.14-.13.4-.08.57.1.18.2.21.46.07.59ZM14.96 28.44c.23.24.55.3.74.14.18-.17.15-.5-.08-.74-.22-.24-.55-.3-.73-.14-.18.17-.15.5.07.74ZM17.54 28c-.06.1-.22.1-.36.01-.13-.09-.18-.24-.11-.34.07-.1.23-.1.36 0 .13.08.18.23.11.33ZM16.28 28.43c.2.2.48.25.63.1.16-.14.12-.42-.08-.63-.2-.2-.48-.25-.63-.1-.15.14-.12.42.08.63ZM18.24 27.7c-.05 0-.06.04-.05.1.02.08.07.14.14.18.07.04.11.02.14-.05.05-.1.02-.17-.07-.22a.2.2 0 0 0-.16-.02ZM12.14 28.37c.16.17.4.2.53.08.13-.12.1-.36-.07-.53-.17-.17-.4-.2-.53-.08-.13.12-.1.36.07.53ZM18.93 28.47a.1.1 0 0 0-.02.08c.02.09.05.15.11.2a.1.1 0 0 0 .12.02.1.1 0 0 0 .05-.1.28.28 0 0 0-.12-.2.1.1 0 0 0-.1-.02.08.08 0 0 0-.04.02ZM18.1 28.92c.1.1.24.12.31.04.07-.07.04-.21-.06-.31s-.25-.12-.32-.05c-.07.07-.04.21.06.32ZM15.17 29.63c-.15.14-.44.1-.64-.1s-.25-.49-.1-.64c.15-.15.43-.1.64.1.2.2.25.49.1.64ZM17.28 29.53c.17.2.43.24.57.11.14-.13.12-.4-.06-.58-.18-.19-.43-.24-.58-.1-.14.12-.1.38.07.57ZM16.77 29.91c-.17.17-.5.11-.72-.12-.22-.24-.26-.56-.08-.73.17-.17.5-.11.72.12.22.24.26.56.08.73ZM19.93 29.31c.06.02.1.05.12.1.02.08 0 .12-.09.12h-.07c-.07 0-.11-.04-.12-.11v-.01a.08.08 0 0 1 0-.03l.03-.03c.03-.04.08-.05.13-.04ZM19.3 29.87c-.06.06-.18.03-.26-.06-.08-.08-.1-.2-.03-.26s.18-.04.26.05c.08.09.1.2.03.27ZM13.36 30.27c.2.18.46.21.6.07.13-.14.08-.4-.12-.6-.2-.17-.46-.2-.6-.06-.13.14-.08.4.12.59ZM18.9 30.65c-.13.12-.36.08-.53-.09-.16-.17-.19-.4-.06-.52.12-.12.36-.08.52.09.16.16.2.4.06.52ZM17.2 30.93c.21.23.53.28.7.12.16-.15.13-.47-.09-.7-.21-.22-.52-.28-.7-.12-.16.16-.12.47.09.7ZM16.5 31.15c-.18.16-.5.1-.72-.12-.22-.23-.26-.54-.1-.7.18-.17.5-.12.72.1.22.23.26.55.1.72ZM20 30.6c.07.08.18.1.24.05.07-.05.07-.16 0-.25s-.18-.11-.25-.06-.06.17 0 .25ZM20.02 31.6c-.11.11-.33.08-.49-.08-.15-.15-.18-.37-.07-.49.12-.11.34-.08.5.08.15.15.18.37.06.49ZM20.9 31.3c.04.1.13.13.2.1.06-.04.08-.14.03-.22-.05-.09-.14-.13-.2-.1-.07.04-.08.14-.03.22ZM15.56 31.97c-.15.16-.44.13-.66-.06-.21-.2-.27-.49-.12-.65.15-.16.44-.14.66.06.21.2.27.48.12.65ZM18.52 32c.2.2.5.25.65.1.16-.16.12-.45-.09-.66-.2-.2-.5-.25-.66-.1-.15.16-.11.45.1.66ZM18 32.57c-.17.16-.5.11-.72-.12-.23-.24-.27-.56-.1-.73.18-.17.5-.11.73.12.23.23.27.56.1.73ZM20.72 32.19c.15.16.36.2.47.09.12-.1.1-.32-.05-.47-.14-.16-.35-.2-.47-.1-.11.11-.1.32.05.48ZM20.44 33.09c-.15.12-.4.06-.57-.13-.16-.2-.18-.46-.03-.58.15-.13.4-.07.57.13.16.2.18.45.03.58ZM35.28 32.77c.12.1.28.11.35.02.07-.09.03-.24-.1-.34-.12-.1-.28-.1-.35-.02-.07.1-.02.25.1.34ZM22.42 33c-.1.08-.28.05-.4-.09-.12-.13-.13-.31-.03-.4.1-.09.27-.05.4.09.11.13.13.3.03.4ZM33.27 32.9c.1.12.25.16.34.1.1-.08.09-.24-.01-.36-.1-.12-.25-.16-.34-.09-.1.07-.09.23 0 .35ZM17.2 33.62c-.15.16-.46.13-.68-.08-.22-.21-.27-.52-.12-.69.16-.16.47-.13.7.08.22.21.27.52.1.69ZM18.72 33.6c.23.22.56.27.73.1.17-.18.13-.5-.1-.74-.24-.22-.56-.27-.74-.1-.17.18-.12.5.1.73ZM23.65 33.4c-.08.09-.24.06-.35-.05-.1-.11-.13-.27-.05-.35.08-.08.24-.05.35.06.11.11.13.27.05.35ZM21.31 33.8c.17.17.42.2.54.08.13-.13.1-.37-.07-.54-.17-.17-.41-.2-.54-.08-.13.13-.1.37.07.54ZM24.76 33.7c-.07.07-.2.04-.3-.06-.1-.1-.1-.23-.03-.3.07-.07.2-.04.3.05.1.1.1.24.03.3ZM25.66 33.83c.1.08.22.1.28.02.06-.06.03-.19-.06-.27-.1-.08-.22-.1-.29-.03-.06.07-.03.2.07.28ZM30.45 34.08c-.08.07-.24.05-.35-.06-.1-.12-.13-.27-.05-.35.08-.08.24-.05.35.06.1.11.13.27.05.35ZM32.56 34.12c.11.1.27.13.35.05.08-.09.05-.24-.07-.35-.11-.11-.27-.13-.35-.05-.08.08-.05.24.07.35ZM21.15 34.89c-.2.18-.57.1-.81-.18-.25-.28-.28-.65-.07-.83.2-.18.57-.1.81.18.25.28.28.65.07.83ZM34.79 34.25c.14.14.33.17.44.06.1-.1.07-.3-.07-.43-.14-.14-.34-.17-.44-.06-.1.1-.07.3.07.43ZM23.27 34.51c-.11.11-.33.08-.48-.08-.15-.16-.18-.37-.07-.48.12-.12.34-.08.49.08.15.15.18.37.06.48ZM18.3 34.87c.24.23.58.27.75.08.17-.18.1-.51-.14-.74-.25-.23-.59-.27-.76-.08-.17.18-.1.52.14.74ZM29.52 34.6c-.09.08-.24.05-.35-.06-.1-.11-.11-.27-.03-.35.09-.08.24-.05.35.07.1.11.11.27.03.35ZM24.18 34.83c.16.15.38.17.5.05.1-.12.07-.33-.08-.48-.16-.15-.38-.18-.5-.06-.1.12-.07.34.08.49ZM28.48 35.05c-.1.08-.27.04-.38-.09-.11-.13-.12-.3-.02-.38.1-.09.27-.05.38.08.1.13.12.3.02.39ZM31.76 35.1c.13.12.32.14.42.04.1-.1.08-.29-.06-.42-.13-.13-.32-.15-.42-.05-.1.1-.07.3.06.42ZM22.75 35.67c-.2.18-.56.13-.8-.12-.25-.26-.3-.62-.1-.8.18-.2.54-.14.8.12.24.25.29.6.1.8ZM25.56 35.13c.14.13.34.15.43.05.1-.1.05-.3-.1-.43-.14-.13-.33-.14-.42-.04-.1.1-.06.3.09.42ZM27.3 35.21c-.08.1-.26.06-.38-.06-.13-.13-.15-.3-.06-.4.09-.08.26-.05.39.07.12.13.15.3.06.4ZM34.05 35.59c.2.18.48.21.62.07.14-.15.09-.43-.11-.62-.2-.18-.48-.21-.62-.07-.14.15-.1.43.11.62ZM20.85 36.14c-.18.18-.51.14-.76-.1-.24-.23-.3-.56-.12-.74.17-.18.51-.14.75.1.25.23.3.56.13.74ZM23.48 36.2c.27.28.65.35.86.16.21-.2.17-.59-.1-.87-.26-.28-.65-.35-.86-.15-.2.2-.16.58.1.86ZM31.13 35.86c-.12.11-.34.07-.5-.09-.14-.16-.17-.37-.05-.49.11-.1.33-.07.49.09.15.16.17.38.06.49ZM29.52 36.3c.18.2.45.25.6.11.14-.13.12-.4-.07-.6-.18-.2-.45-.25-.6-.11-.14.13-.11.4.07.6ZM25.89 36.79c-.2.18-.56.12-.8-.14-.25-.26-.3-.62-.1-.8.2-.2.56-.13.8.13.25.26.3.62.1.8ZM26.67 36.7c.22.24.55.3.73.14.18-.17.14-.5-.08-.73-.22-.24-.54-.3-.72-.14-.18.16-.15.5.07.73ZM28.77 36.66c-.15.14-.42.1-.6-.1s-.22-.46-.07-.6c.14-.14.41-.09.6.1.18.2.21.47.07.6ZM33 36.78c.25.24.6.28.77.1.17-.19.12-.52-.13-.76-.24-.23-.58-.28-.76-.1-.17.19-.12.53.13.76ZM22.6 37.14c-.18.2-.55.17-.83-.08-.27-.25-.34-.61-.16-.82.18-.2.56-.17.83.08.27.25.35.61.16.82ZM31.82 37.55c.27.26.64.31.83.12.2-.2.14-.57-.12-.83-.26-.25-.63-.3-.83-.11-.2.2-.14.56.12.82ZM31.4 38.2c-.2.22-.6.18-.89-.08-.3-.27-.37-.66-.17-.88.2-.22.6-.18.89.08.3.27.37.66.17.88ZM23.8 38.21c.29.27.69.32.89.1.2-.2.12-.6-.17-.87-.3-.27-.7-.32-.9-.1-.2.2-.12.6.18.87ZM29.81 38.6c-.21.22-.64.17-.95-.12-.3-.29-.38-.71-.17-.94.22-.23.64-.18.95.11.31.3.39.72.17.94ZM25.5 38.54c.31.28.74.34.95.1.22-.22.14-.64-.16-.92-.3-.3-.73-.34-.94-.12-.22.23-.15.65.16.94ZM28.3 38.84c-.22.25-.67.2-1-.1-.34-.3-.42-.75-.2-1 .23-.24.68-.2 1.01.1.34.31.42.76.2 1Z" fill="#00B1F2"/><path fill-rule="evenodd" d="M22.73 24H22l.5 2.99h.8L24.96 24h-.75l-1.18 2.25-.3-2.25Zm1.52 3h.54l.24-.43h.8l.04.43h.49l-.3-2h-.58l-1.23 2Zm1.53-.76-.09-.81-.46.8h.55Zm3.29.76h-.55l1.24-2h.57l.3 2h-.48l-.05-.43h-.79l-.24.43Zm.9-1.57.09.8h-.56l.47-.8ZM26.59 27l.5-2h.39l-.4 1.66h.79l-.15.34h-1.13Zm1.87-2h.44l-.44 2H28l.46-2Zm2.88 2h-.48l.53-2h.49l.45 1.19.36-1.19h.4l-.49 2h-.37l-.57-1.33-.32 1.33Zm2.04-2H35l-.13.4h-.55l-.4 1.6h-.44l.38-1.6h-.62l.14-.4ZM24.46 28.81l.24-.53c-.1-.1-.4-.28-.84-.28-.54 0-1.53.58-1.53 1.95.04.35.29 1.05 1.01 1.05.73 0 .96-.45.98-.67l-.38-.05c-.04.06-.2.18-.53.18-.93 0-.25-1.92.53-1.92.3 0 .47.18.52.27ZM34.75 31h-.46l.5-2h.47l.43 1.19.35-1.19h.38l-.46 2h-.37l-.53-1.33-.31 1.33Zm4.6 0h-.52L40 29h.56l.28 2h-.46l-.05-.43h-.75l-.24.43Zm.86-1.57.08.8h-.53l.45-.8Zm2.63-.43h.43l-.43 2h-.43l.43-2Zm2.57 2h.47l.3-1.33.54 1.33h.36l.46-2h-.37l-.35 1.19L46.4 29h-.47l-.5 2Zm-2.82-2h-1.56l-.13.4h.6l-.37 1.6h.42l.4-1.6h.51l.13-.4Zm-17.27 1.97c.48.13 1-.2 1.15-.75.15-.53-.12-1.07-.6-1.2-.48-.12-1 .22-1.15.76-.15.53.12 1.07.6 1.2Zm.11-.38c.25.07.53-.15.62-.47.1-.33-.04-.65-.29-.71-.25-.07-.53.15-.62.47-.09.33.04.65.29.71Zm19.65-.37c-.15.54-.66.88-1.14.75-.48-.12-.75-.66-.6-1.2.15-.53.66-.87 1.14-.74.48.12.75.66.6 1.2Zm-.4-.1c-.09.35-.38.57-.65.5-.26-.06-.4-.4-.3-.74.1-.35.39-.57.65-.5.27.06.4.4.3.74ZM27.14 31h-.5l.5-2h.62l.23 1.27.8-1.27h.68l-.4 2h-.4l.22-1.45-.8 1.45h-.4l-.27-1.45-.28 1.45Zm2.33 0h.5l.29-1.45.26 1.45h.4l.8-1.45L31.5 31h.41l.4-2h-.68l-.8 1.27-.23-1.27h-.63l-.5 2Zm2.93-.56.38-1.44h.45l-.33 1.14c-.06.3-.03.52.28.52.25 0 .39-.24.43-.36l.34-1.3h.46l-.36 1.37c-.12.27-.32.63-1 .63-.54 0-.68-.37-.65-.56Zm4.05.56h.4l.42-2h-.42l-.4 2Zm2.48-.22a.89.89 0 0 1-.79.2c-.48-.13-.75-.67-.6-1.2.15-.54.67-.88 1.15-.75.17.04.32.14.43.28l-.3.24a.4.4 0 0 0-.23-.18c-.27-.06-.56.16-.66.5-.1.35.04.69.3.76.16.04.33-.03.46-.15v.01l.24.29Zm8.52-.08c.03.1.18.3.59.3.5 0 .82-.27.82-.66 0-.32-.32-.5-.5-.6l-.09-.07c-.1-.07-.15-.41.23-.41.12 0 .2.12.23.19l.28-.04c0-.14-.07-.41-.47-.41-.5 0-.72.32-.72.6 0 .13.15.24.31.36s.32.24.32.38c0 .28-.44.46-.76.22l-.24.14Z" fill="#00B1F2"/></svg>