<!-- by TradingView --><svg width="56" height="56" viewBox="0 0 56 56" xmlns="http://www.w3.org/2000/svg"><path fill="#F0F3FA" d="M0 0h56v56H0z"/><path d="M32 16.98v8.04c0 .22.34.26.5.1a429.8 429.8 0 0 1 4.69-4.97c.46-.48.93-.9 1.41-1.28.24-.19.5-.28.77-.28.26 0 .5.08.75.23a1.88 1.88 0 0 1 .87 1.38c.06.6-.19 1.18-.75 1.75-2.73 2.7-5.5 5.53-8.31 8.46-.6.62-1.21.79-1.84.49-.78-.37-1.14-1.06-1.08-2.07V16.95c-.02-.8.3-1.68 1.12-1.9.22-.05.44-.07.67-.03.94.14 1.23 1.07 1.2 1.96ZM46.02 32h-8.04c-.22 0-.26-.34-.1-.5a429.8 429.8 0 0 0 4.97-4.68c.48-.47.9-.94 1.28-1.42.19-.24.28-.5.28-.77 0-.26-.08-.5-.23-.75a1.88 1.88 0 0 0-1.38-.87c-.6-.06-1.18.19-1.75.75-2.7 2.73-5.53 5.5-8.46 8.31-.62.6-.79 1.21-.49 1.84.37.78 1.06 1.14 2.07 1.08h11.88c.8.02 1.68-.3 1.9-1.12.05-.22.07-.44.03-.67-.14-.94-1.07-1.23-1.96-1.2Zm-28 0H9.98c-.89-.03-1.82.26-1.96 1.2-.04.23-.02.45.04.67.21.81 1.1 1.14 1.9 1.12h11.87c1.01.06 1.7-.3 2.07-1.08.3-.63.13-1.24-.49-1.84a487.19 487.19 0 0 1-8.46-8.3c-.57-.57-1.15-.82-1.75-.76a1.88 1.88 0 0 0-1.37.87c-.16.24-.23.5-.24.75 0 .28.1.53.28.77.37.48.8.95 1.28 1.42 1.59 1.53 3.25 3.09 4.96 4.69.17.15.13.5-.1.49ZM24 25.02v-8.04c-.02-.89.26-1.82 1.2-1.96.23-.04.46-.02.68.04.8.21 1.13 1.1 1.12 1.9v11.87c.06 1.01-.3 1.7-1.08 2.07-.63.3-1.25.13-1.84-.49-2.82-2.93-5.6-5.76-8.32-8.46-.56-.57-.81-1.15-.75-1.75a1.88 1.88 0 0 1 .87-1.37c.24-.16.5-.23.75-.24.28 0 .53.1.77.28.48.37.96.8 1.42 1.28 1.53 1.59 3.1 3.25 4.7 4.96.15.17.49.13.48-.1ZM28 35a2 2 0 1 0 0-4 2 2 0 0 0 0 4Z" fill="#231F20"/></svg>