<!-- by TradingView --><svg width="56" height="56" viewBox="0 0 56 56" xmlns="http://www.w3.org/2000/svg"><path fill="#F0F3FA" d="M0 0h56v56H0z"/><path fill-rule="evenodd" d="M48.93 23.94 28 18 7.07 23.94A4.38 4.38 0 0 0 4 28.2c0 2.02 1.29 3.8 3.14 4.28L27.99 38l20.87-5.5A4.37 4.37 0 0 0 52 28.2c0-1.99-1.25-3.75-3.07-4.26Zm-41.76.37 20.82-5.91 20.84 5.91a4 4 0 0 1 2.8 3.9 3.98 3.98 0 0 1-2.86 3.91L27.99 37.6 7.23 32.12a3.98 3.98 0 0 1-2.85-3.91 4 4 0 0 1 2.79-3.9Zm.61.2L28 19.17l20.23 5.34a3.8 3.8 0 0 1-.07 7.37L28 36.84 7.85 31.88a3.8 3.8 0 0 1-.07-7.37Zm8.26 5.06h-.03a.57.57 0 0 1-.18-.26c-.15-.4-.32-.82-.51-1.26a4.08 4.08 0 0 1-.35-1.9v-1.18c0-.3-.04-.52-.11-.67-.04-.09-.14-.15-.3-.18a1.23 1.23 0 0 0-.38-.03c-.58.05-1.19.08-1.82.08-.1 0-.24.03-.41.07a.3.3 0 0 0-.18.16c-.03.04-.05.12-.09.23l-.03.11a.2.2 0 0 0 0 .14l.05.12c.19.33.38.64.57.91a8.3 8.3 0 0 1 1.56 5.06c0 .11.02.2.04.28.02.1.07.2.13.3.07.1.15.19.25.26.1.08.2.13.32.16a.8.8 0 0 0 .39.01l.16-.04c.19-.05.33-.07.44-.08.37-.01.76 0 1.14.06.17.02.32.02.48.01.17-.01.32-.04.45-.1.3-.11.46-.33.46-.63a15.39 15.39 0 0 1 .13-2.15c.02-.12.05-.25.1-.39l.14-.37.17-.47c.11-.36.24-.71.37-1.07.1-.29.24-.52.4-.7.2-.24.36-.48.48-.72.15-.29.22-.55.21-.8 0-.18-.08-.31-.23-.4a.98.98 0 0 0-.54-.07 5.3 5.3 0 0 1-1.13-.03c-.32-.04-.6-.04-.84 0-.23.04-.35.16-.37.36a16.46 16.46 0 0 0-.06 1.91v.42a4.93 4.93 0 0 1-.14 1.07l-.27.97a2.2 2.2 0 0 1-.44.8l-.03.01ZM27.23 32c.2 0 .32-.07.38-.21a.9.9 0 0 0 .07-.37c-.01-.35-.06-.72-.14-1.1a9.64 9.64 0 0 0-.32-1.09 3.2 3.2 0 0 1-.16-1.18c.01-.36.03-.66.05-.88.04-.32.1-.6.16-.87.15-.51.26-.96.32-1.33.03-.16.04-.31.02-.47-.03-.29-.19-.45-.48-.48a1.5 1.5 0 0 0-.39.01l-.38.07a.84.84 0 0 1-.35 0c-.4-.08-.7-.1-.91-.05-.32.07-.46.28-.42.63.05.4.1.69.17.88a9.28 9.28 0 0 1 .47 2.52c.03.41.04.7.04.9 0 .31-.04.6-.1.85a26.35 26.35 0 0 1-.29 1c-.05.2-.09.37-.11.52-.04.25 0 .43.13.53.11.08.31.13.59.13h1.65Zm2.8-1.26c.25-.1.32-.27.24-.49-.07-.18-.24-.4-.52-.65a7.29 7.29 0 0 0-1.38-.96.93.93 0 0 1-.3-.26c-.08-.1-.13-.2-.18-.35a2.4 2.4 0 0 1-.13-.78c0-.2.1-.4.32-.6a1.82 1.82 0 0 1 .63-.39c.24-.08.52-.11.84-.1a7.82 7.82 0 0 1 .94.13c.1.02.21 0 .3-.05.21-.12.42-.2.62-.23.21-.02.39.05.53.22.1.13.18.3.23.51l.18.94c.02.08.02.17 0 .25a.57.57 0 0 1-.08.24c-.1.16-.27.21-.5.16-.15-.03-.3-.11-.46-.24-.1-.08-.22-.2-.38-.38l-.04-.04a1.38 1.38 0 0 0-.5-.34c-.24-.1-.43-.07-.57.08a.08.08 0 0 0-.03.07.7.7 0 0 0 .19.35 7.52 7.52 0 0 0 1.37 1c.32.17.57.34.75.52.22.2.37.45.47.74.08.24.08.5 0 .78-.07.26-.2.5-.38.7-.18.2-.44.33-.77.38-.25.04-.56.04-.95 0a77 77 0 0 1-1.07-.12.9.9 0 0 0-.3.02 2.42 2.42 0 0 0-.43.14c-.12.04-.24.01-.35-.1a1.01 1.01 0 0 1-.2-.3c-.23-.5-.4-1.09-.53-1.76a.41.41 0 0 1 .1-.36.54.54 0 0 1 .28-.17c.1-.03.21-.03.33-.01a.9.9 0 0 1 .31.12c.1.06.18.13.23.22l.11.23c.05.13.1.23.15.29.16.22.36.4.62.56.1.06.21.07.32.03ZM41.1 26.5c-.01 0-.02 0-.02-.02v-.07c.01-.03.02-.05.01-.07-.03-.15-.16-.24-.38-.3a1.85 1.85 0 0 0-.55-.03c-.41.02-.84.06-1.3.1a.32.32 0 0 0-.17.08c-.05.04-.08.13-.08.28a42 42 0 0 1 .45 2.8c.04.22.02.43-.03.65-.08.33-.18.67-.3 1-.07.23-.11.41-.1.56 0 .22.1.37.3.45.22.1.4.1.53 0a.7.7 0 0 1 .2-.1.58.58 0 0 1 .24-.02l.68.08c.12 0 .23 0 .34-.02.15-.02.24-.07.28-.15a.46.46 0 0 0 .02-.33c-.07-.23-.16-.48-.27-.77a4.2 4.2 0 0 1-.28-1.93c.02-.3.12-.55.28-.76.19-.23.44-.37.76-.4.29-.03.48.1.59.4.08.25.11.6.08 1.07a12.03 12.03 0 0 1-.4 2.07c-.06.25-.07.44-.03.58.06.22.23.3.52.24.05 0 .12-.02.22-.05l.27-.06h.3c.2.04.4.05.6.06a.4.4 0 0 0 .33-.13.61.61 0 0 0 .13-.31 1.4 1.4 0 0 0-.07-.68 6.1 6.1 0 0 1-.26-.79 1.62 1.62 0 0 1-.01-.78l.14-.88c.04-.34.05-.64.04-.9-.03-.68-.4-1.1-1.08-1.29a1.86 1.86 0 0 0-1.3.12 18.44 18.44 0 0 1-.68.3Zm-2.98 4.43c.18-.37.29-.82.3-1.34.03-.52.02-1.05 0-1.6a2.24 2.24 0 0 0-.2-.88l-.17-.28a3.28 3.28 0 0 0-.27-.34c-.25-.28-.47-.43-.67-.44a15 15 0 0 0-2.26-.01c-.48.03-.86.18-1.16.45-.27.24-.47.57-.61 1-.12.37-.2.78-.22 1.23-.02.35 0 .78.03 1.3.03.36.1.7.2 1.01.08.26.25.47.52.63.24.15.52.23.84.26.78.06 1.6.09 2.47.08.07 0 .14-.02.21-.06.44-.25.77-.6.99-1.01Zm-2.4-3.85c-.42.03-.7.23-.86.59-.15.35-.22.75-.23 1.2-.01.38.04.79.14 1.21.02.09.05.19.1.3.06.11.13.22.2.3.2.25.4.36.62.33.4-.04.64-.25.73-.62.07-.28.13-.63.2-1.04.02-.22.03-.43.02-.65-.01-.19-.04-.4-.1-.64a1.38 1.38 0 0 0-.5-.87.45.45 0 0 0-.32-.1Zm-13.44.94a.64.64 0 0 0 .03-.28c-.01-.13-.06-.21-.13-.26a1.05 1.05 0 0 0-.57-.1c-.2 0-.4.02-.6.07l-.9.21a.94.94 0 0 1-.55-.01c-.16-.07-.25-.2-.3-.4-.06-.33 0-.65.16-.94.1-.2.29-.28.55-.25l1.05.09c.44.03.97 0 1.59-.08.2-.02.41-.05.63-.06.18-.02.37 0 .55.04.22.06.37.15.45.27.1.13.15.27.17.43v.5a9.64 9.64 0 0 1-.13.8c-.03.25-.05.54-.06.85 0 .2 0 .49.03.87 0 .25.04.45.1.61.1.24.17.48.21.72.03.16.02.3-.01.42-.05.17-.14.27-.28.31l-.35.08c-.45.06-.89.09-1.31.09a.18.18 0 0 1-.14-.06l-.36-.37a.17.17 0 0 0-.12-.05.17.17 0 0 0-.12.04c-.23.2-.52.32-.86.38a2.8 2.8 0 0 1-1 0 1.35 1.35 0 0 1-1.06-.86 2.47 2.47 0 0 1-.13-1.34 1.76 1.76 0 0 1 1.12-1.33c.18-.06.42-.11.71-.14a96.08 96.08 0 0 1 1.58-.18.14.14 0 0 0 .05-.07Zm.17 1.25c.05.32.06.6.01.81-.07.34-.25.53-.54.57l-.53.04c-.05 0-.1 0-.16-.02a.95.95 0 0 1-.18-.07c-.14-.07-.21-.14-.23-.22a1.7 1.7 0 0 1-.04-.18c-.08-.55.2-.87.84-.98.26-.04.51-.04.78 0 .03 0 .05.02.05.05Z" fill="#DC271E"/></svg>