<!-- by TradingView --><svg width="56" height="56" viewBox="0 0 56 56" xmlns="http://www.w3.org/2000/svg"><path fill="#E73A56" d="M0 0h56v56H0z"/><path d="M18.88 19.63a.1.1 0 0 1 .07-.1c2.4-.77 4.62-1.29 6.67-1.55a20.1 20.1 0 0 1 6.06.12c.48.09.85.15 1.1.18.4.05.77.08 1.1.1.95.02 1.87-.23 2.76-.74a15.17 15.17 0 0 0 2.7-2.1c0-.01 0-.03-.02-.05a5.85 5.85 0 0 0-2.05-1.15 20 20 0 0 0-3.5-.84c-2.2-.32-4.4-.5-6.65-.5-.61 0-1.19.03-1.72.1-2.99.35-5.89 1.04-8.7 2.06-.8.29-1.55.66-2.27 1.13a.62.62 0 0 0-.16.14.4.4 0 0 0-.08.2 24.77 24.77 0 0 0-.19 3.09c0 2.92.28 5.7.82 8.33.25 1.19.56 2.12.95 2.8.02.05.05.06.1.03l3.9-2.14c.05-.03.06-.06.05-.1a26.33 26.33 0 0 1-1.02-5.57c-.09-1.17-.06-2.32.08-3.44Zm22.16 9.51a30 30 0 0 0 .96-7.71c0-.05-.02-.07-.07-.05-1.22.6-2.38 1.29-3.48 2.06-.33.23-.64.48-.95.76-.16.14-.3.34-.41.59-.08.18-.16.41-.23.7l-.97 4.1c-.17.72-.37 1.38-.62 1.97a20.35 20.35 0 0 1-1.87 3.54 16.2 16.2 0 0 1-2.57 3.03 7.28 7.28 0 0 1-2.52 1.53.6.6 0 0 1-.45 0 11.7 11.7 0 0 1-3.43-2.24 10.05 10.05 0 0 1-2.41-3.38h-.03l-3.66 2.43a.06.06 0 0 0-.03.03v.05a18.37 18.37 0 0 0 6.44 6.92c.8.49 1.55.92 2.27 1.28.41.21.85.29 1.32.23.38-.04.81-.18 1.29-.42a24.27 24.27 0 0 0 3.36-2.02c.84-.6 1.63-1.33 2.37-2.17 1.1-1.25 2.05-2.61 2.86-4.08a30.5 30.5 0 0 0 2.83-7.15Z" fill="#FEFEFE"/></svg>