<!-- by TradingView --><svg width="56" height="56" viewBox="0 0 56 56" xmlns="http://www.w3.org/2000/svg"><path fill="#F0F3FA" d="M0 0h56v56H0z"/><path fill-rule="evenodd" d="M10 15h36v26H10V15Zm1 3h34v20H11V18Zm10.71 5.03-.02-.03h6.18c1.6 0 2.9 1.3 2.9 2.91S29.47 29 27.87 29H25v1.28L26.88 32H21.5L23 30.28v-5.4l-1.2-1.72-1.2 1.65-2.04 5.64L20.13 32h-5.36l1.57-1.55-2.54-5.64-1.74-1.78h5.08l-1.16 1.78 1.84 3.68 1.5-3.68-1.62-1.78h4.01ZM25 25h2.3c.82 0 1.13.45 1.13 1s-.31 1-1.12 1H25v-2Zm8 5.36-1.06 1.02-.64.62h4.06L34 30.36V26l1.94 6h1.13l1.65-5.59.28-.9v4.85L37.65 32h5.05L41 30.36v-5.69L43 23h-5.2l-1.06 3.83-.67-3.83H31l2 1.94v5.42Z" fill="#313691"/></svg>