<!-- by TradingView --><svg width="56" height="56" viewBox="0 0 56 56" xmlns="http://www.w3.org/2000/svg"><path fill="#F0F3FA" d="M0 0h56v56H0z"/><path d="M27.83 14h1.24l1.24.18.4.12-.23.08c-.07.02-.07.05 0 .07.07.02.13.04.18.08.08.04.07.06-.02.05-.34-.02-.68.01-1.04.09a.09.09 0 0 0-.06.05.09.09 0 0 0 0 .07l.05.1c.01.02 0 .04-.03.05a.23.23 0 0 0-.1.06.08.08 0 0 0-.02.08c0 .03.03.05.06.05.15.05.3.07.46.07.04 0 .05.02.04.06 0 .02-.01.02-.03.03a.63.63 0 0 0-.23.14c-.03.03-.03.06 0 .09.06.03.12.06.19.06.04 0 .06.03.05.08a.76.76 0 0 0 .01.44 4.53 4.53 0 0 0-.2-.13c-.06-.04-.14-.1-.24-.21a1.02 1.02 0 0 0-.18-.16l-1.07-.7a3.5 3.5 0 0 1-.38-.34 3.86 3.86 0 0 0-.32-.28.1.1 0 0 1-.05-.08c-.01-.1.08-.17.28-.2Z"/><path d="M30.7 14.3c.59.1 1.2.25 1.84.44.52.16 1.13.37 1.83.63.33.12.59.27.79.45l1.9 1.76c.4.37.85.66 1.36.87.19.08.41.07.66-.05a3.6 3.6 0 0 0 .6-.38c.23-.17.5-.18.84-.05a.38.38 0 0 1-.12.15c-.17.1-.15.14.04.12.06 0 .14.02.23.09l-.45.89a.06.06 0 0 0 0 .06c.02.02.03.03.05.03l1.76.05c.2 0 .39.03.55.07a6.84 6.84 0 0 1 2.1 1.37c.04.31.19.64.43 1a.2.2 0 0 1 .01.22.15.15 0 0 1-.11.08l-.18.02a.08.08 0 0 0-.07.05.25.25 0 0 1-.18.16c-.1.03-.24.05-.44.06a3.53 3.53 0 0 0-.76.14 60.5 60.5 0 0 1-1.3-.5c-.1-.03-.2-.1-.32-.17-.09-.05-.2-.1-.35-.14a9.93 9.93 0 0 0-2.85-.35c.3-.27.6-.55.88-.83.12-.11.21-.23.29-.36.06-.12.04-.13-.05-.04-.19.18-.38.34-.57.5-.73.6-1.48 1.2-2.27 1.81a.88.88 0 0 1-.27.16c-.12.04-.21.02-.27-.06a.22.22 0 0 1-.04-.13v-.14l.02-.1c0-.05-.01-.06-.05-.02-.19.24-.4.47-.64.7-.05.03-.04.07.01.1l.52.24c.06.03.11.02.16-.03a1.7 1.7 0 0 1 .65-.59l.19-.12.5-.32-.4 1.13a.81.81 0 0 1-.26.38c-.18.14-.35.22-.5.26a.47.47 0 0 1-.5-.18c-.03-.03-.06-.04-.1-.02l-.15.08a.07.07 0 0 1-.06 0l-.22-.11a5.32 5.32 0 0 1-.59-.35 1.6 1.6 0 0 1-.46-.48.1.1 0 0 1-.01-.09l.03-.1c.01-.03 0-.06-.02-.08a.1.1 0 0 1-.04-.06c-.01-.03 0-.06.02-.08a12.26 12.26 0 0 1 .96-.58l.56-.3c.2-.12.37-.25.51-.37a.21.21 0 0 0 .07-.15.22.22 0 0 0-.05-.16 2.34 2.34 0 0 0-.88-.97 29.87 29.87 0 0 1-2.43-1.96 4.26 4.26 0 0 0-1.21-.77c-.67-.31-1.3-.67-1.9-1.08a.76.76 0 0 1-.01-.44c0-.05-.01-.07-.05-.08a.38.38 0 0 1-.18-.06c-.04-.03-.04-.06-.01-.1.06-.05.14-.1.23-.13.02 0 .02-.01.03-.03.01-.04 0-.06-.04-.06-.16 0-.31-.02-.46-.06a.07.07 0 0 1-.06-.06c0-.04 0-.06.03-.08a.23.23 0 0 1 .1-.06c.03 0 .03-.03.02-.06l-.04-.09a.09.09 0 0 1 0-.07.09.09 0 0 1 .05-.05c.36-.08.7-.1 1.04-.09.09.01.1 0 .02-.05a.8.8 0 0 0-.18-.08c-.07-.02-.07-.05 0-.07l.23-.08Z" fill="#D1D1D1"/><path d="M14.3 17h2.23c.05 0 .05.02.02.05l-.4.42a15.85 15.85 0 0 0-4.04 6.97 11.93 11.93 0 0 0-.3 4.43c.17 1.42.58 2.8 1.24 4.15a15 15 0 0 0 2.5 3.63 16.44 16.44 0 0 0 3.47 2.85c1.26.79 2.56 1.36 3.88 1.71a12.03 12.03 0 0 0 4.24.4c0 .01 0 .02-.02.02-1.18.31-2.32.43-3.42.34a12.9 12.9 0 0 1-4.35-1.13 15.65 15.65 0 0 1-3.82-2.46c-1.16-1-2.16-2.14-3-3.4a14.95 14.95 0 0 1-1.9-3.96 13.37 13.37 0 0 1 .93-10.32c.58-1.13 1.4-2.31 2.45-3.53.08-.1.18-.17.29-.17Zm5.98.05c-.64.65-1.22 1.32-1.74 2a15.21 15.21 0 0 0-2.4 4.43 11.69 11.69 0 0 0 .23 8.23c.43 1.04 1 2.03 1.7 2.95a14.83 14.83 0 0 0 5.4 4.3c.98.45 1.97.77 3 .96a10.63 10.63 0 0 0 3.15.15v.02l-.01.03c-1.18.3-2.35.39-3.5.26-1.84-.19-3.6-.79-5.3-1.8a15.7 15.7 0 0 1-5.17-4.98 13.75 13.75 0 0 1-1.53-3.22 12.05 12.05 0 0 1 .54-8.76 15.73 15.73 0 0 1 3.3-4.59.14.14 0 0 1 .08-.03h2.23c.04 0 .05.02.02.05Zm1.15 2.85a17.67 17.67 0 0 1 2.4-2.85c.04-.03.03-.05-.01-.05H21.7a.14.14 0 0 0-.1.04c-.72.73-1.35 1.5-1.9 2.3-.57.84-1.03 1.7-1.39 2.59a11.6 11.6 0 0 0-.83 5.74c.2 1.81.79 3.52 1.75 5.13a13.31 13.31 0 0 0 3.07 3.52 11.36 11.36 0 0 0 4.18 2.16c1.48.4 2.96.41 4.41.04.15-.04.15-.06 0-.05-1.48.11-2.89-.1-4.22-.63a11.91 11.91 0 0 1-4.3-2.91 12.16 12.16 0 0 1-2.65-4.35 11.05 11.05 0 0 1 .04-7.38c.39-1.12.94-2.22 1.67-3.3Z" fill="url(#ayb0of4ac)"/><path d="M40.66 18.33c-.08-.07-.16-.1-.22-.09-.2.02-.2-.02-.04-.12a.38.38 0 0 0 .12-.15c.17-.06.3-.1.42-.1.11 0 .13.04.05.12l-.33.34ZM40 18.29c.06-.03.1-.1.07-.15-.03-.05-.1-.06-.16-.03-.07.03-.1.1-.08.14.03.05.1.07.16.04ZM38.56 21.37l-.94.77a29.64 29.64 0 0 0-1.06.7c-.1.1-.2.21-.28.33-.05.05-.1.06-.16.03l-.52-.24c-.05-.03-.06-.07-.01-.1.24-.23.45-.46.64-.7.04-.04.05-.03.05.02l-.01.1-.01.14c0 .05.01.1.04.13.06.08.15.1.27.06a.87.87 0 0 0 .27-.16 136.56 136.56 0 0 0 2.84-2.31c.1-.09.11-.08.05.04-.08.13-.17.25-.29.36-.28.28-.58.56-.88.83ZM44.67 20.8c.57.47 1 1.01 1.28 1.63.04.08.05.16.05.23 0 .06-.02.1-.07.14a.17.17 0 0 1-.14.03c-.16-.03-.3-.04-.42-.03l-.26-.01a1.74 1.74 0 0 0-.15-.02 7.62 7.62 0 0 0-1.58-.24l.34-.08.42-.06c.2-.01.34-.03.44-.06a.25.25 0 0 0 .18-.15.08.08 0 0 1 .07-.06l.18-.02c.05-.01.09-.04.11-.08a.2.2 0 0 0 0-.22c-.25-.36-.4-.69-.45-1Z"/><path d="M32.7 43.55c1.78-.89 3.3-2.03 4.56-3.41 1.28-1.41 2.23-3 2.84-4.77.44-1.29.71-2.66.8-4.11.08-1.38 0-2.78-.23-4.2 0-.04 0-.06.05-.06h1.9c.04 0 .06.07.07.1.7 3.4.2 6.6-1.5 9.6a16.4 16.4 0 0 1-3.45 4.23 18.56 18.56 0 0 1-4.67 3.01.55.55 0 0 1-.2.05c-.3.02-.6.01-.93 0-.07-.01-.07-.03-.01-.05.26-.13.52-.25.77-.39Zm1.03-5.99a16.06 16.06 0 0 0 1.42-5.13c.19-1.65.17-3.44-.06-5.38 0-.03.02-.05.05-.05h1.68c.04 0 .05.02.06.05.42 2.69.23 5.25-.56 7.68a14.38 14.38 0 0 1-2.1 4.08A12.53 12.53 0 0 1 30.8 42h-.76c-.05 0-.05-.02-.01-.06a11.3 11.3 0 0 0 3.7-4.38Zm1.15 2.3c-1 1.2-2.21 2.22-3.63 3.05-.04.02-.04.03 0 .04.22.03.45.05.71.05.14 0 .26-.03.39-.1a14.93 14.93 0 0 0 7.28-15.88.09.09 0 0 0-.06-.02h-1.64c-.04 0-.06.03-.06.07.23 1.58.28 3.12.16 4.6a16.1 16.1 0 0 1-.94 4.36 13.22 13.22 0 0 1-2.21 3.84Z" fill="url(#byb0of4ac)"/><defs><linearGradient id="ayb0of4ac" x1="20.5" y1="17.1" x2="20.5" y2="42.1" gradientUnits="userSpaceOnUse"><stop stop-color="#0F56FF"/><stop offset="1" stop-color="#CEDCFF"/></linearGradient><linearGradient id="byb0of4ac" x1="36.5" y1="27" x2="36.5" y2="44" gradientUnits="userSpaceOnUse"><stop stop-color="#D92626"/><stop offset="1" stop-color="#FFD3D3"/></linearGradient></defs></svg>