<!-- by TradingView --><svg width="56" height="56" viewBox="0 0 56 56" xmlns="http://www.w3.org/2000/svg"><path fill="#F0F3FA" d="M0 0h56v56H0z"/><path d="M33.85 14h3.68c2.49.25 4.94.67 7.36 1.24.07.02.11.06.11.13l-.01.06c-.02.05-.07.08-.13.08-5.54-.2-10.19.53-13.94 2.2-4.57 2.05-7.52 5.4-8.85 10.04a.12.12 0 0 1-.1.08c-.04.01-.08 0-.12-.03l-3.35-3.52a.24.24 0 0 1-.05-.29 16.22 16.22 0 0 1 6.23-7.15c2.42-1.48 5.48-2.43 9.17-2.84Z" fill="#277AB5"/><path d="M8.14 20.86c-.25-.69-.16-.73.27-.13 1.8 2.48 3.76 4.6 5.9 6.35a20.44 20.44 0 0 0 7.44 4.08c3.47.96 7.02.76 10.68-.6.03-.01.05 0 .04.04-.38 1.72-.76 3.31-1.16 4.78-.03.1-.09.15-.18.17-2.76.52-5.38.5-7.87-.03a17.7 17.7 0 0 1-6.53-2.86 21.27 21.27 0 0 1-5.08-5.1 27.9 27.9 0 0 1-3.5-6.7Z" fill="#C0353E"/><path d="M29.48 46.65c2.94-4.43 4.55-8.6 4.82-12.5.34-4.76-1.36-8.78-5.1-12.06-.02-.02-.03-.05-.02-.08.01-.02.03-.04.05-.04l5.02-1c.12-.03.22 0 .3.1a15.54 15.54 0 0 1 3.42 6.83c.46 2.22.37 4.5-.26 6.85a21.1 21.1 0 0 1-3.07 6.43 30.87 30.87 0 0 1-5 5.6c-.39.33-.44.29-.16-.13Z" fill="#48878F"/></svg>