<!-- by TradingView --><svg width="56" height="56" viewBox="0 0 56 56" xmlns="http://www.w3.org/2000/svg"><path fill="#F0F3FA" d="M0 0h56v56H0z"/><path fill-rule="evenodd" d="M48 37H8V27h7.73l.4-2.64A11.86 11.86 0 0 1 27.85 14c6.07 0 11.16 4.65 11.76 10.75l.26 2.25H48v10Zm-31.7-9H9.04v8.03H47V28h-7.78c-.16-4.54-2.68-13.23-11.52-13.23-8.83 0-11.33 8.7-11.4 13.23Zm30.1.7h-7.82l-.02-.65a16.23 16.23 0 0 0-2.33-7.84 9.58 9.58 0 0 0-8.53-4.77 9.41 9.41 0 0 0-8.45 4.77A16.12 16.12 0 0 0 17 28.04v.65l-7.3.01v6.6h36.7v-6.6ZM23.77 20H20c.23 2.59 2.06 8 7.49 8 5.42 0 7.27-5.41 7.51-8h-3.67c-.24 0-.53.22-.7.35a2.1 2.1 0 0 1-.09.07l-2.43-4.11a.63.63 0 0 0-.54-.31.63.63 0 0 0-.54.3l-2.49 4.1a3.47 3.47 0 0 0-.77-.4Zm3.69 7.32c-4.88 0-6.19-4.5-6.65-6.75h2.55c.66 0 .82.22.83.3l-1.42 2.28a.91.91 0 0 0 .77 1.39h8.03c.71 0 1.14-.79.77-1.4l-1.47-2.36c.2-.14.57-.2.73-.21h2.7c-.53 2.25-1.96 6.75-6.84 6.75Zm.16-4.11a5.27 5.27 0 0 0-2.48-2.57l2.05-3.38a.43.43 0 0 1 .73 0l2.13 3.38a4.14 4.14 0 0 0-2.43 2.57Zm-2.88-2.03-1.45 2.15c-.2.29.02.68.38.68h3.62a3.88 3.88 0 0 0-2.55-2.83Zm5.65 0 1.45 2.15c.2.29-.02.68-.37.68h-3.62c.09-.66.72-2.14 2.54-2.83ZM12.72 30h-2.26l.48.15L12.87 34l2.08-3.85.5-.15h-1.52l.59.15-1.24 2.53-1.1-2.53.54-.15Zm5.69 0h3.58v1.36h-.18c0-.38-.16-1.12-.78-1.12H20v1.58h.11c.37 0 .66-.26.66-.6V31h.22v2h-.22v-.23c0-.33-.3-.6-.66-.6H20v1.61h1.37c.23-.15.73-.6.85-1.24h.16L22.1 34h-3.68l.6-.22v-3.54l-.6-.24Zm8.17 0h2.2l-.78.26v3.44h1.63l.7-1.21h.3L29.98 34h-3.4l.42-.21v-3.53l-.42-.26ZM33 34h1.81l-.81-.33.45-.88h1.45l.37.88-.5.33h2.11l-.62-.38L35.5 30l-1.9 3.67-.6.33Zm2.8-1.42-.57-1.32-.67 1.32h1.24ZM40.96 34h1.7l-.66-.27v-2.98L45 34v-3.75l.76-.25h-1.74l.7.25v2.2L42.57 30h-1.61l.8.43v3.3l-.8.27Z" fill="#028650"/></svg>