<!-- by TradingView --><svg width="56" height="56" viewBox="0 0 56 56" xmlns="http://www.w3.org/2000/svg"><path fill="#F0F3FA" d="M0 0h56v56H0z"/><path d="m11.59 28.41-.09.09.09.09v-.18ZM17 23h22L28 12 17 23Zm22 11H17l11 11 11-11Z" fill="#F90505"/><path d="M9 32v-7h3.8c1.22 0 2.2 1.05 2.2 2.36 0 1.3-.98 2.64-2.2 2.64h-1.3v2H9Zm2.97-5h-.47v1h.47c.3 0 .53-.22.53-.5s-.24-.5-.53-.5Z" fill="#F90505"/><path fill-rule="evenodd" d="M19.25 32c2.07 0 3.75-1.57 3.75-3.5S21.32 25 19.25 25c-2.07 0-3.75 1.57-3.75 3.5s1.68 3.5 3.75 3.5Zm0-2c.69 0 1.25-.67 1.25-1.5s-.56-1.5-1.25-1.5-1.25.67-1.25 1.5.56 1.5 1.25 1.5Z" fill="#F90505"/><path d="M24 32v-7h2.5v5H29v2h-5ZM44 32v-7h2.5v5H49v2h-5ZM31 28.5 28.6 25h2.54l1.17 1.95.98-1.95h2.61l-2.4 3.5V32H31v-3.5Z" fill="#F90505"/><path fill-rule="evenodd" d="M35.3 32h2.55l.3-1h2.13l.28 1h2.57l-2.73-7h-2.65l-2.45 7Zm4.4-3-.47-1.67-.5 1.67h.98Z" fill="#F90505"/></svg>