<!-- by TradingView --><svg width="56" height="56" viewBox="0 0 56 56" xmlns="http://www.w3.org/2000/svg"><path fill="#F0F3FA" d="M0 0h56v56H0z"/><path d="M41.46 30.91c-.09 0-.13-.08-.12-.23 0-.1-.03-.1-.08-.03v.03c.02.07-.01.12-.08.13h-.04a.37.37 0 0 1-.1-.35c.36-2.24.2-4.36-.47-6.34a5.6 5.6 0 0 0-.45-1.01 6.82 6.82 0 0 1-.52-1.16 1.1 1.1 0 0 0-.2-.34 4.38 4.38 0 0 0-.37-.39c-.13-.12-.3-.32-.5-.59a3.86 3.86 0 0 0-.58-.66c-.23-.2-.44-.42-.65-.68A5.2 5.2 0 0 0 35.85 18c-.13-.08-.15-.05-.06.07.12.14.26.25.43.33.08.04.14.1.18.18.15.3.37.54.69.72l.03.04c0 .02 0 .05.02.07.08.11.06.13-.04.04l-.67-.57a2.24 2.24 0 0 0-.81-.46 3.84 3.84 0 0 1-1.23-.62 4.27 4.27 0 0 0-1.14-.6 2.9 2.9 0 0 1-.62-.34 7.93 7.93 0 0 0-.29-.18.48.48 0 0 0-.28-.06c-.28.03-.56 0-.84-.09a5.53 5.53 0 0 0-.82-.19 3.9 3.9 0 0 1-.9-.24.53.53 0 0 0-.29-.03c-.42.07-.84.08-1.27.04a16.5 16.5 0 0 0-1.97-.04.06.06 0 0 0-.04.06c0 .08-.04.13-.11.15a9.1 9.1 0 0 1-1.35.3c-.43.05-.83.2-1.21.43-.35.21-.7.39-1.07.53-.16.07-.3.16-.43.3a.94.94 0 0 1-.43.26c-.03 0-.04.02-.05.05 0 .02 0 .04.02.06.03.04.07.06.13.05.13-.02.14 0 .02.06-.22.11-.43.18-.65.22-.33.05-.52.23-.57.54-.45.17-.93.3-1.45.42a.8.8 0 0 0-.48.31c-.07.09-.05.12.06.1l3.95-.95 3.02-.58c.23-.05.41-.03.54.06-2.5.43-4.9 1.02-7.25 1.76.03-.22-.32-.27-1.03-.13 3.4-4.02 7.64-5.65 12.74-4.89 1.26.2 2.52.6 3.77 1.24 1.23.62 2.33 1.4 3.3 2.32 3.33 3.15 4.68 7.21 4.06 12.17Z" fill="#283488"/><path d="M41.46 30.91a14 14 0 0 1-2.77 6.07c-.28.36-.9.57-1.86.62-.3.02-.6.06-.9.14-.38.1-.78.15-1.2.14-.06 0-.07.02-.03.07v.03c0 .02 0 .04-.03.05-.43.14-.72.13-.89-.03l.78-.68c.15-.12.12-.19-.06-.2a.39.39 0 0 0-.38.2.49.49 0 0 1-.21.19l-.93.42c.11.05.05.06-.18.01.32-.28.66-.53 1.02-.74a.8.8 0 0 1 .24-.1c.13-.01.2-.1.23-.23.02-.1.08-.16.17-.17a.67.67 0 0 0 .55-.38c.1-.18.22-.36.37-.51.35-.37.71-.72 1.08-1.06a.7.7 0 0 0 .2-.28l.48-1.29c.02-.03.04-.05.08-.03h.08a.17.17 0 0 0 .07-.08c.14-.32.3-.64.46-.96.18-.34.28-.67.33-1 .04-.31.1-.62.17-.94a4.65 4.65 0 0 0 .1-1.31 16 16 0 0 0 0-1.34c-.04-.49-.13-.92-.26-1.28a4.8 4.8 0 0 1-.28-1.14 1.68 1.68 0 0 0-.56-1.07.61.61 0 0 1-.16-.24 6.54 6.54 0 0 0-2.4-3.09.17.17 0 0 1-.06-.1.32.32 0 0 0-.15-.2c-.5-.32-1.02-.59-1.58-.8a1.38 1.38 0 0 1-.4-.3 1.36 1.36 0 0 0-.73-.4c-.8-.19-1.58-.43-2.33-.74a1.44 1.44 0 0 0-.54-.12c-.11 0-.28.02-.5.05l-.28.04c-.15.02-.15 0-.01-.07a.31.31 0 0 0 .08-.05c.07-.06.16-.1.25-.1a139 139 0 0 1 1.15-.11c.4-.03.79 0 1.15.11a76.95 76.95 0 0 0 1.43.44c.02.02.03.04.03.07 0 .08.02.12.1.13.27.04.51.16.72.38.05.05.1.06.17.04.04-.01.09 0 .13.03a17.78 17.78 0 0 0 1.64 1.11c.48.27.87.64 1.2 1.11.02.03.05.04.08.03l.09-.03c.02-.01.03-.03.01-.05l-.32-.43a.24.24 0 0 0-.16-.1.49.49 0 0 1-.35-.28.48.48 0 0 0-.21-.2c-.5-.29-.97-.61-1.4-.98a.25.25 0 0 1-.07-.13.24.24 0 0 0-.2-.19c-.24-.06-.45-.19-.63-.4a.21.21 0 0 0-.18-.07.44.44 0 0 1-.43-.27c-.04-.07-.1-.1-.18-.09a.9.9 0 0 1-.67-.13c-.13-.09-.34-.14-.62-.16-.2-.02-.34-.04-.44-.07a3.09 3.09 0 0 0-.77-.13 2.77 2.77 0 0 1-.87-.2c-.4-.15-.81-.15-1.26 0-.24.09-.6.12-1.06.1a3.66 3.66 0 0 0-.7 0c-.26.04-.49.14-.69.3-.2.17-.42.27-.65.32-.24.05-.48.06-.72.04-.06 0-.09.02-.08.08a.1.1 0 0 1-.03.08.21.21 0 0 1-.18.07 5.42 5.42 0 0 0-.64.02l-1.13.47-1.55.26c.05-.3.24-.49.57-.54.21-.04.43-.1.65-.22.12-.06.11-.08-.02-.06-.06 0-.1 0-.13-.05a.06.06 0 0 1-.02-.06c0-.03.02-.05.05-.05a.94.94 0 0 0 .43-.27c.12-.13.27-.22.43-.29.36-.14.72-.32 1.07-.53a3.1 3.1 0 0 1 1.21-.43 9.1 9.1 0 0 0 1.35-.3c.07-.02.1-.07.1-.15 0-.03.02-.05.05-.06l.07-.02c.77 0 1.4.01 1.9.06.43.04.85.03 1.27-.04.1-.02.2 0 .29.03.3.12.6.2.9.24.28.05.55.1.82.2.28.08.56.1.84.08.1-.01.2 0 .28.06l.3.18c.25.17.45.28.6.33.42.15.8.35 1.15.61.35.27.76.48 1.23.62.27.08.54.23.8.46l.68.57c.1.09.12.07.04-.04a.16.16 0 0 1-.02-.07.05.05 0 0 0-.03-.04 1.58 1.58 0 0 1-.69-.72.35.35 0 0 0-.18-.18 1.06 1.06 0 0 1-.43-.33c-.09-.12-.07-.15.06-.07a5.2 5.2 0 0 1 1.45 1.3c.2.25.42.48.65.67.16.13.35.35.58.66.2.27.37.47.5.6.13.11.25.24.37.38.09.1.15.22.2.34.13.4.3.79.52 1.16.18.32.33.65.45 1 .67 2 .83 4.1.46 6.35-.02.14.02.25.11.34.01.01.02.02.04.01.07-.01.1-.06.08-.13v-.03c.05-.08.08-.07.08.03-.01.15.03.23.12.23Z" fill="#9098BF"/><path d="M32.8 37.94a.67.67 0 0 0-.2.06c-.11.05-.1.08.03.08h.08c.12.04.12.1.02.16-.1.06-.1.11-.04.15-1.95.33-3.94.46-5.97.4a2.89 2.89 0 0 1-1.47-.59.55.55 0 0 0-.26-.1 2.17 2.17 0 0 1-.88-.31c-.26-.16-.52-.3-.8-.42a6.96 6.96 0 0 1-1.61-.96c-.3-.24-.56-.51-.79-.82-.03-.05-.2-.18-.5-.4-.18-.14-.31-.3-.4-.47a91.8 91.8 0 0 0-1.35-2.76.18.18 0 0 0-.07-.07.4.4 0 0 1-.05-.04.27.27 0 0 1-.1-.15c-.27-1.4-.36-2.84-.28-4.34.02-.29.07-.57.15-.83.1-.3.16-.58.2-.86.06-.34.16-.66.32-.97.14-.25.26-.52.36-.8.2-.52.13-.55-.17-.1l-.36.58c-.1.18-.19.38-.24.6-.08.4-.19.77-.3 1.14-.06.19-.1.18-.13-.01-.03-.15-.03-.3 0-.44a5.61 5.61 0 0 1 .77-2.04c.1-.12.2-.3.35-.55.2-.37.4-.64.57-.8.21-.22.37-.47.48-.76a.6.6 0 0 1 .17-.26l.2-.19c.07-.05.1-.12.1-.2.02-.17.1-.25.25-.26.1 0 .17-.03.24-.08.14-.1.26-.22.34-.36a.3.3 0 0 1 .24-.15c.12-.01.2-.08.25-.2.03-.08 0-.15-.08-.18a.74.74 0 0 0-.36-.05.22.22 0 0 0-.18.13c-.18.37-.47.5-.84.37a.44.44 0 0 0-.27-.01l-2.4.65-.78.2a.42.42 0 0 0-.05-.17l1.63-.56a55.68 55.68 0 0 1 7.25-1.76l1.57-.25c.02 0 .02 0 .02-.02v-.08c0-.05-.04-.07-.09-.06l-2.04.35-3.02.58c-.05-.14-.22-.18-.53-.14l1.13-.47a5.45 5.45 0 0 1 .65-.02c.06 0 .12-.02.17-.07a.1.1 0 0 0 .03-.08c0-.06.02-.09.08-.08.24.02.48.01.72-.04.23-.05.45-.15.65-.32.2-.16.43-.26.68-.3.16-.02.4-.03.7 0 .48.02.83-.01 1.07-.1.45-.15.87-.15 1.26 0 .3.12.59.19.87.2.26.01.52.05.77.13.1.03.25.05.44.07.28.02.49.07.62.16.17.13.4.17.67.13.08-.01.14.02.18.1.09.18.24.27.43.26.07 0 .13.02.18.08.18.2.39.33.64.4.1.02.16.08.19.18.01.05.04.1.08.13.42.37.89.7 1.39.97.09.05.16.12.2.21.09.16.2.25.36.28.07 0 .12.04.16.1l.32.43c.02.02.01.04-.01.05l-.09.03c-.03.01-.06 0-.08-.03a3.65 3.65 0 0 0-1.2-1.1A12.27 12.27 0 0 1 33.4 19a.14.14 0 0 0-.13-.03.15.15 0 0 1-.17-.04 1.25 1.25 0 0 0-.73-.38c-.07-.01-.1-.05-.1-.13.01-.03 0-.05-.02-.07a3.05 3.05 0 0 0-2.58-.55l-1.15.1a.46.46 0 0 0-.25.11.31.31 0 0 1-.08.05c-.14.06-.14.09.01.07.07 0 .16-.02.27-.04.23-.03.4-.05.51-.05.19 0 .37.04.54.12.75.3 1.52.55 2.33.74a1.36 1.36 0 0 1 .73.4c.15.15.29.25.4.3.56.21 1.08.48 1.58.8.08.05.13.11.15.2 0 .04.03.08.07.1a6.54 6.54 0 0 1 2.4 3.09c.03.09.08.17.15.24.32.3.5.65.56 1.07.04.38.13.76.28 1.14.13.36.22.79.25 1.28a16 16 0 0 1-.1 2.65c-.06.32-.12.63-.16.94a3.1 3.1 0 0 1-.33 1c-.16.32-.32.64-.46.96a.17.17 0 0 1-.07.08h-.08c-.04-.02-.07 0-.08.03l-.48 1.29a.7.7 0 0 1-.2.28c-.37.34-.73.69-1.08 1.06-.15.15-.27.33-.37.5a.67.67 0 0 1-.55.4c-.1 0-.15.06-.17.16-.03.14-.1.22-.23.24a.8.8 0 0 0-.24.09c-.36.2-.7.46-1.02.74Z" fill="#D6D6E4"/><path d="M25.87 18.44c-.13-.1-.31-.11-.54-.06l2.05-.35c.05-.01.07 0 .08.06v.08c0 .01 0 .02-.02.02l-1.57.25Z" fill="#9098BF"/><path d="M21.78 18.82c.3-.04.48 0 .53.14l-3.95.95c-.1.02-.13-.01-.06-.1a.8.8 0 0 1 .48-.3c.52-.12 1-.26 1.45-.43l1.55-.25Z" fill="#F79EAF"/><path d="m26.72 38.78-1.9.15c-.16.09-.15.2.03.34.06.05.14.07.22.08 2.86.1 5.04.05 6.56-.15.71-.1 1.43-.18 2.18-.24.14-.01.28-.03.41-.06.08-.02.09-.05.02-.1-.08-.06-.2-.06-.36-.02l2.97-.5c.24-.05.25 0 .04.11l-.38.22-1.01.26a.19.19 0 0 0-.15.14c-.08.24-.2.5-.38.76a.13.13 0 0 1-.15.06c-.03 0-.07 0-.1.02-.84.38-1.6.74-2.3 1.1-.16.08-.32.12-.5.14-.2.02-.4.06-.58.14-.3.11-.6.2-.9.23-1 .13-2 .14-3.03.04-.05 0-.1 0-.14.03a.43.43 0 0 1-.21.04 9.47 9.47 0 0 1-3.16-.67 11.69 11.69 0 0 0-.97-.37 14.46 14.46 0 0 1-4.42-3.1.45.45 0 0 1-.13-.3c0-.11-.07-.19-.19-.22a.47.47 0 0 1-.26-.17 3.51 3.51 0 0 1-.3-.48c-.1-.18-.21-.34-.33-.5a10.4 10.4 0 0 1-1.43-2.5.57.57 0 0 0-.13-.19.43.43 0 0 1-.13-.23l-.38-2.07c-.09-.43-.1-.85-.06-1.23.07-.47.06-.92-.02-1.36a4.44 4.44 0 0 1 0-1.5 17.55 17.55 0 0 1 .7-2.84v.08a.1.1 0 0 1-.03.08c-.04.04-.06.09-.05.15.02.08.04.08.07 0 .39-.9.89-1.68 1.49-2.34.14-.16.3-.28.51-.38.62-.28.62-.52-.01-.7l2.4-.65a.44.44 0 0 1 .26 0c.37.14.66.01.84-.36.04-.07.1-.12.18-.13.13-.01.24 0 .36.05.09.03.11.1.08.18a.28.28 0 0 1-.25.2.3.3 0 0 0-.24.15c-.08.14-.2.26-.34.36a.46.46 0 0 1-.24.08c-.15 0-.23.1-.24.25 0 .09-.04.16-.1.21l-.21.2a.61.61 0 0 0-.17.25c-.1.3-.27.54-.48.75-.18.17-.37.44-.57.8-.14.25-.26.44-.35.56a5.6 5.6 0 0 0-.78 2.04c-.02.14-.02.29 0 .44.03.2.08.2.14.01.11-.37.22-.75.3-1.14.05-.22.13-.42.24-.6l.36-.58c.3-.45.36-.42.17.1-.1.28-.22.55-.36.8-.16.3-.26.63-.31.97-.05.28-.11.57-.2.86-.1.26-.14.54-.16.83-.08 1.5.01 2.95.29 4.34.01.06.04.11.09.15a.4.4 0 0 0 .05.04c.03.02.06.04.07.07.47.92.92 1.84 1.35 2.76.09.17.22.33.4.47.3.22.47.36.5.4.23.3.5.58.79.82.47.38 1.01.7 1.6.96.29.12.55.26.81.42.25.16.55.26.88.3.1.02.18.05.26.11.44.33.93.53 1.47.58Z" fill="#9098BF"/><path d="m18.62 20.2-1.63.56a26.5 26.5 0 0 0-7.37 4 5.7 5.7 0 0 0-1.26 1.5c-.33.54-.2 1.03.4 1.48a3.4 3.4 0 0 0 1.6.63 280.77 280.77 0 0 0 2.94.31c-1.76.27-3.57.2-5.43-.17a3.49 3.49 0 0 1-1.49-.7c-.6-.47-.5-1.17.33-2.1a10.41 10.41 0 0 1 2-1.67 32.43 32.43 0 0 1 8.88-3.97c.7-.14 1.06-.1 1.03.13Z" fill="#ED2441"/><path d="M26.97 36.64c-.1.08-.22.1-.34.06-.4-.16-.82-.28-1.28-.34a.72.72 0 0 1-.27-.1c-.26-.14-.53-.3-.8-.43a8.34 8.34 0 0 1-3.43-3.22 4.25 4.25 0 0 1-.52-1.55.43.43 0 0 0-.13-.25 1 1 0 0 1-.32-.71c-.04-.98-.04-2.05 0-3.22.03-.57.17-1.06.42-1.49.18-.3.35-.63.5-.97.14-.34.37-.64.68-.9.48-.38.94-.8 1.38-1.23.2-.2.42-.36.66-.5.16-.1.3-.21.45-.34.14-.13.3-.23.48-.31l.35-.18c.4-.2.72-.31.95-.32.22 0 .43-.05.64-.12a3.74 3.74 0 0 1 1.44-.21c.17 0 .36.03.55.08.37.1.73.12 1.08.04.3-.08.6-.04.87.11.87.5 1.8.96 2.76 1.4.3.14.57.34.8.6.27.33.6.6 1 .79.17.09.26.23.27.43.01.19.08.33.22.42.1.07.15.16.18.27.1.4.25.8.44 1.19.19.37.3.8.34 1.26a13.24 13.24 0 0 1-.02 2.95c-.03.37-.12.68-.28.93a3.75 3.75 0 0 0-.53 1.25c-.07.3-.22.6-.44.88-.21.26-.41.53-.6.81-.12.16-.32.35-.62.57-.23.17-.4.3-.5.42-.46.51-1 .9-1.6 1.16-.51.22-1.08.42-1.7.59-.5.14-.97.2-1.4.18-.52-.02-1 0-1.47.07-.04.01-.08 0-.12-.03a.5.5 0 0 0-.06-.05h-.03Z" fill="#fff"/><path d="M17.83 20.73c.63.18.63.42.01.7-.2.1-.37.22-.51.38-.6.66-1.1 1.45-1.49 2.35-.03.07-.05.07-.07-.01 0-.06.01-.11.05-.15a.1.1 0 0 0 .04-.08 1.09 1.09 0 0 1-.01-.08c-.31.91-.54 1.86-.7 2.83a4.44 4.44 0 0 0 0 1.5c.08.45.09.9.02 1.37-.05.38-.03.8.06 1.23l.38 2.07c.02.09.06.16.13.23.06.06.1.12.13.2.34.86.82 1.7 1.43 2.49.12.16.23.32.32.5l.31.48c.07.09.16.14.26.17.12.03.18.1.19.23 0 .11.05.21.13.3a14.46 14.46 0 0 0 5.39 3.46c.91.39 1.97.61 3.16.67.07 0 .14 0 .21-.04a.26.26 0 0 1 .14-.03c1.03.1 2.03.09 3.02-.04.3-.04.61-.12.91-.23.19-.08.38-.12.58-.14.18-.02.34-.06.5-.14.7-.36 1.46-.72 2.3-1.1a.18.18 0 0 1 .1-.02c.06.01.11 0 .15-.06.18-.26.3-.52.38-.77a.19.19 0 0 1 .15-.13l1-.26a.47.47 0 0 1 .24-.05c.1 0 .16.06.15.17l-.01.12a13.72 13.72 0 0 1-15.85 1.16 13.24 13.24 0 0 1-4.5-4.6 13.45 13.45 0 0 1-1.89-6.2c-.12-2.34.33-4.6 1.37-6.78.28-.57.62-1.07 1.03-1.5l.79-.2Z" fill="#283488"/><path d="m24.6 25.14-1.6 3.8a.1.1 0 0 1-.1.06c-.05 0-.08-.02-.1-.07l-1.5-3.78a.1.1 0 0 1 .02-.1.1.1 0 0 1 .09-.04l3.1-.01a.1.1 0 0 1 .08.05.1.1 0 0 1 .01.1Z" fill="#283488"/><path d="m23.14 30.2 1.92-5a.11.11 0 0 1 .09-.08l.45-.12c.05 0 .09 0 .12.04s.04.08.02.13l-2.21 5.75c-.02.06-.06.08-.12.08s-.1-.03-.11-.09l-.16-.64v-.08Z" fill="#ED2441"/><path d="m23.7 31.61 2.55-6.5c.02-.04.05-.1.1-.11h1.63a.1.1 0 0 1 .1.05.1.1 0 0 1 .01.1l-3.42 8.62c-.02.05-.06.07-.1.07-.06 0-.1-.02-.11-.07l-.76-2.07a.11.11 0 0 1 0-.09ZM31.96 26l-.46-.1c-.07-.01-.11.02-.14.08l-.7 2.07c-.02.07 0 .12.07.14l2.7 1.16c.07.03.1.08.07.14l-.09.31c0 .03-.03.06-.06.07a.11.11 0 0 1-.1 0l-5.12-2.14c-.07-.02-.1-.07-.07-.15l.93-2.5c.02-.05.05-.08.1-.08l5.93.02c.04 0 .07.02.1.05.01.04.02.07 0 .11l-1.05 2.75c-.02.05-.06.07-.1.07l-2.35.01a.11.11 0 0 1-.1-.05.12.12 0 0 1-.01-.1l.54-1.71a.11.11 0 0 0-.01-.1.12.12 0 0 0-.08-.06Z" fill="#283488"/><path d="m33.05 30.22-5.02-2.16a.15.15 0 0 0-.2.08l-.06.16c-.03.08 0 .17.08.2l5.02 2.16c.08.03.17 0 .2-.09l.06-.15a.15.15 0 0 0-.08-.2Z" fill="#ED2441"/><path d="M29.28 33.1c.1.02.2 0 .28-.06a.38.38 0 0 0 .15-.21l.6-1.75a.23.23 0 0 0-.13-.3l-2.76-1.1c-.07-.03-.1-.09-.06-.16l.17-.43c.03-.08.08-.1.16-.08l5.06 2.11c.07.03.1.09.07.17l-.9 2.43a.37.37 0 0 1-.37.26l-5.67.02a.17.17 0 0 1-.15-.08.17.17 0 0 1-.02-.16l.98-2.44a.46.46 0 0 1 .48-.32h2.26c.24 0 .32.13.22.36-.22.55-.4.93-.5 1.55-.03.12.02.18.13.2Z" fill="#283488"/><path d="m36.88 38.85.01-.12c0-.1-.04-.17-.15-.17a.47.47 0 0 0-.23.05l.38-.22c.21-.12.2-.16-.04-.12l-2.97.51c-.45-.02-1.28.04-2.51.17-1.1.12-3.28.11-6.56-.02l1.9-.15c2.04.07 4.03-.06 5.98-.39 4.2-.25 8.1-1.42 11.73-3.5.33-.2.7-.54 1.08-1.04.6-.77.38-1.44-.66-2.02a11.53 11.53 0 0 0-3.02-1.01c-.04 0-.06-.03-.06-.07v-.08h.04c1.57.13 3.07.44 4.5.9.27.1.53.21.77.37.28.17.5.36.66.57.4.53.35 1.06-.15 1.58a8.62 8.62 0 0 1-2.62 1.83 28.72 28.72 0 0 1-7.09 2.18c-.2.03-.4.12-.57.27-.13.1-.27.27-.42.48Z" fill="#ED2441"/><path d="m33.78 38-.8-.07.93-.42c.08-.04.16-.1.2-.19.1-.15.23-.21.4-.2.17.01.2.08.05.2l-.78.68ZM33.88 38.78c.16-.04.28-.04.36.02.07.05.06.08-.02.1-.13.03-.27.05-.41.06-.75.06-1.47.14-2.18.24-1.52.2-3.7.25-6.56.15a.37.37 0 0 1-.22-.08c-.18-.14-.2-.25-.04-.34 3.28.13 5.47.14 6.56.02 1.23-.13 2.06-.19 2.5-.17Z" fill="#D6D6E4"/></svg>