<!-- by TradingView --><svg width="56" height="56" viewBox="0 0 56 56" xmlns="http://www.w3.org/2000/svg"><path fill="#F0F3FA" d="M0 0h56v56H0z"/><path fill-rule="evenodd" d="M24.52 38.12c.6.21 1.25.33 1.95.36.04 0 .04.02 0 .03-.81.47-1.7.79-2.67.95a9.57 9.57 0 0 1-3.88-.19 9.04 9.04 0 0 0-4.5.2v.02c.44.5.92.96 1.43 1.4l.1.05c.61.16 1.32.28 2.13.34a10 10 0 0 0 3.35-.28c.27-.07.63-.2 1.1-.39.88-.36 1.89-.63 3.02-.8a18.4 18.4 0 0 1 4.26-.13c1.46.13 2.83.43 4.12.92.2.07.39.12.58.14l1.33.14c1.02.1 1.95.03 2.78-.18a.46.46 0 0 0 .2-.12 16.24 16.24 0 0 0 1.94-2.14l-.02-.02a4.28 4.28 0 0 0-1.28-.13c-.4.01-.83.09-1.27.22a10.7 10.7 0 0 1-5.33.18c-.42-.1-.92-.25-1.5-.45-.08-.03-.08-.05 0-.05l1.27-.07c.43-.03.86-.14 1.3-.35.05-.02.1-.04.15-.04h.14l.04.01a8.9 8.9 0 0 0 3.45-.31c.45-.13.82-.22 1.12-.26a5.33 5.33 0 0 1 2.66.24c.38-.6.7-1.19.99-1.8.01-.02 0-.04-.03-.05a4.38 4.38 0 0 0-2.58.34c-.41.16-.73.27-.94.33-.36.1-.68.13-.97.12a3.26 3.26 0 0 1-.88-.22c-.49-.18-1-.34-1.55-.49-.03 0-.04-.02-.03-.05.06-.37.1-.73.12-1.1 0-.03 0-.03.03-.03.68.18 1.33.39 1.94.6.37.14.73.15 1.08.02l1.14-.4a5.4 5.4 0 0 1 3.14-.22c.02 0 .02-.02.03-.03a16.56 16.56 0 0 0 1.01-6.34 21.14 21.14 0 0 0-1.4-6.9c-.45-1.1-.99-2.12-1.61-3.08a15.66 15.66 0 0 0-10.65-6.86 18.41 18.41 0 0 0-10.35 1.26 16.84 16.84 0 0 0-5.36 3.78 17.2 17.2 0 0 0-2.88 19.24c1.57-.47 3.25-.58 5.05-.32.03 0 .04.02.05.04.03.29.15.56.37.83a2.19 2.19 0 0 0 .72.57 10.75 10.75 0 0 0-5.63-.05v.02c.4.69.82 1.3 1.25 1.84.02.02.04.03.06.02.93-.31 1.87-.5 2.82-.57 1-.07 1.95.01 2.82.24a8.16 8.16 0 0 0 4.27-.03Zm14.81-5.44.02.01h4.49c.02 0 .04-.01.05-.03a22.05 22.05 0 0 0 .08-6.62 18.07 18.07 0 0 0-2.04-6.2 15.92 15.92 0 0 0-4.04-4.75 14.77 14.77 0 0 0-5.58-2.7 15.7 15.7 0 0 0-4.76-.48c-1.26.08-2.47.27-3.63.56-1.23.3-2.37.72-3.43 1.25a14.5 14.5 0 0 0-5.8 5.14 16.71 16.71 0 0 0-2.13 4.78 19.43 19.43 0 0 0-.67 5.23c0 1.26.15 2.5.43 3.73 0 .03.02.05.04.07.03.02.05.03.08.03l4.7-.07.02-.01v-.03c-.32-1.16-.52-2.3-.6-3.41-.1-1.21-.04-2.36.15-3.45a11.2 11.2 0 0 1 4.54-7.32c1-.72 2.05-1.28 3.19-1.67 1.2-.41 2.37-.6 3.51-.56.95.03 1.85.14 2.7.32.94.2 1.8.48 2.58.84 1.92.9 3.41 2.27 4.48 4.13.5.88.9 1.86 1.2 2.95.28 1 .47 2.07.56 3.2a22.28 22.28 0 0 1-.14 5.06Z"/><path d="M28.54 13.11h-.51a.03.03 0 0 0-.03.04l.03 2.56c0 .01.01.02.03.02h.5c.02 0 .03-.01.03-.03l-.03-2.56a.03.03 0 0 0-.02-.03Z"/><path fill-rule="evenodd" d="M26.78 14.7c-.05-.03-.05-.05 0-.06.2-.06.34-.16.44-.3.1-.16.13-.33.1-.53-.1-.43-.41-.62-.95-.56-.39.03-.84.1-1.37.17-.02 0-.04.02-.03.05l.38 2.53.02.01.51-.07c.02 0 .02-.01.02-.03l-.15-1.02.01-.03a.6.6 0 0 1 .68.17 414.16 414.16 0 0 1 .73.74 36.62 36.62 0 0 0 .64-.1c-.23-.26-.45-.51-.68-.74a1.6 1.6 0 0 0-.35-.24Zm-1.17-.91c-.01 0-.02 0-.02.03l.08.6c0 .02.01.02.03.02l.74-.1c.1-.01.18-.06.24-.13a.28.28 0 0 0 .07-.23v-.03a.28.28 0 0 0-.13-.2.38.38 0 0 0-.27-.07l-.74.1ZM29.68 15.18l1.06.14c.01 0 .02 0 .02.02l.14.59.03.02.54.07a.03.03 0 0 0 .03-.03l-.7-2.69-.02-.01-.55-.08-.03.01-1.43 2.4v.03l.02.01.54.07.02-.01.3-.53.03-.01Zm.7-1.28-.47.83v.02l.01.01.7.1h.01v-.02l-.21-.94-.02-.01h-.02Z"/><path d="m33.89 14.85-.93 1.67c-.01.02-.03.03-.05.01l-.4-.19-.02-.02v-.03l1.26-2.26c0-.02.02-.02.03-.01l.7.34c.02.01.02.02.02.04l-.4 1.7c-.01.05 0 .06.03.02l1.23-1.27c.02-.02.05-.02.07-.01l.67.33c.03.02.03.04.02.07l-1.25 2.24c0 .02-.02.02-.04.02l-.4-.2c-.02-.02-.03-.03-.02-.05l.9-1.64c.06-.1.05-.1-.03-.02L33.93 17c-.01.02-.03.02-.06 0l-.41-.2c-.02-.01-.03-.02-.02-.04l.48-1.91c.02-.09 0-.09-.03-.01Z"/><path fill-rule="evenodd" d="M24.37 14.46c-.4-.55-.96-.69-1.67-.41-.3.12-.52.3-.66.56a1.2 1.2 0 0 0-.08.87c.09.33.22.59.42.79.21.22.47.34.77.36a1.68 1.68 0 0 0 .96-.23c.15-.1.27-.2.37-.33.1-.14.16-.3.19-.47a1.64 1.64 0 0 0-.3-1.14Zm-.26.92c-.01-.14-.06-.3-.13-.46-.18-.4-.45-.57-.81-.53a.82.82 0 0 0-.45.18.59.59 0 0 0-.23.43c-.02.3.07.6.28.86a.77.77 0 0 0 .62.3.74.74 0 0 0 .61-.32.7.7 0 0 0 .11-.46Z"/><path d="m20.58 15.6 1.19 1.78v.02l-.01.02-.42.26-.04-.01-1.2-1.78c0-.02-.02-.02-.04-.01l-.65.39-.04-.01-.21-.32v-.05l1.82-1.1c.02 0 .03 0 .04.02l.22.31v.03l-.01.02-.64.39-.01.02v.02ZM37.3 16.13l-1.69 2h-.04l-.4-.3v-.05l1.68-1.99c.01-.01.03-.02.04 0l.4.3v.04ZM36.7 18.52l.91.94v.03l-.3.27h-.03l-1.3-1.33c-.02-.01-.02-.02 0-.04l1.95-1.73h.04l.35.36v.03l-1.62 1.43c-.02.02-.02.03 0 .04ZM18.92 18.87c.25 0 .44-.12.57-.35.09-.16.07-.35-.06-.58-.03-.04-.02-.07.03-.1l.38-.18c.05-.02.08 0 .1.04.2.39.19.73-.02 1.04a1.28 1.28 0 0 1-1.27.6 1.31 1.31 0 0 1-.48-.17c-.15-.09-.29-.2-.41-.32a1.64 1.64 0 0 1-.3-.41 1.05 1.05 0 0 1-.02-.99c.07-.15.17-.28.29-.4.12-.11.25-.2.4-.25a1.1 1.1 0 0 1 .94.05v.03l-.27.41c0 .02-.02.02-.03.01-.37-.14-.65-.06-.85.26-.12.2-.11.42.04.64.1.17.25.32.41.45.2.15.38.22.55.22ZM18.26 20.52l-2.17-1.5-.01-.03v-.02l.3-.39h.04l2.17 1.5a.03.03 0 0 1 0 .05l-.3.39h-.03ZM38.16 20.25l.72 1.07v.05l-.35.2h-.04l-1.02-1.53V20l.01-.02 2.25-1.35h.04l.27.41v.04l-1.87 1.12-.01.02v.02ZM16.85 21.35l-1.42-1.43v-.02l.26-.46.02-.01h.02l1.91 2.04v.03l-.26.47c0 .01-.02.02-.03.01l-2.84-.4h-.02v-.02l.27-.48h.02l2.05.31.02-.01v-.03ZM40.98 21.6a.26.26 0 0 0-.13-.08.21.21 0 0 0-.23.11.28.28 0 0 0-.03.16l.09.7c.02.15.01.29-.02.41a.77.77 0 0 1-.48.52.89.89 0 0 1-.4.04.85.85 0 0 1-.55-.3 1.65 1.65 0 0 1-.31-.56c-.18-.52-.03-.93.46-1.2h.03l.24.43v.03c-.2.13-.3.28-.3.44 0 .14.04.28.12.4.1.15.21.23.35.24.1 0 .18-.02.24-.09a.32.32 0 0 0 .07-.25 8.61 8.61 0 0 0-.08-.57 1.74 1.74 0 0 1-.01-.31c.02-.23.1-.41.26-.54a.68.68 0 0 1 .54-.15c.1 0 .2.04.28.08.08.05.16.11.23.19.1.12.18.25.24.4.07.14.11.28.12.43 0 .15-.02.3-.08.42a.83.83 0 0 1-.32.34c-.06.03-.1.02-.12-.04L41 22.5c-.02-.03 0-.06.03-.09.14-.1.2-.23.17-.4a.76.76 0 0 0-.23-.4ZM13.97 24.75l.54.12c.01 0 .03 0 .03-.02l.32-1.23c0-.02.02-.03.04-.03l.39.1c.02 0 .03.02.02.04l-.32 1.22c0 .02 0 .04.02.04l.67.16c.02 0 .03 0 .03-.02l.36-1.38c0-.02.02-.03.04-.02l.4.09c.01 0 .02.02.01.04l-.5 1.9c0 .01 0 .02-.03.01l-2.6-.6c-.02-.01-.03-.03-.03-.05l.49-1.85c0-.01.01-.02.03-.02l.4.1c.01 0 .02.01.02.03l-.35 1.33c0 .02 0 .03.02.04Z"/><path d="M26.44 26.03c.08-.3.04-.54-.1-.73-.15-.17-.37-.27-.66-.29-.36-.02-.72.06-1.07.23-.41.21-.8.45-1.19.7-.07.06-.08.05-.04-.03a78.32 78.32 0 0 1 .67-1.04l.02-.13.02-.1c.08-.38.29-.65.6-.8a2 2 0 0 1 1.02-.17c.4.02.71.1.95.24.28.17.46.43.54.78.09.43.05.86-.12 1.27-.16.4-.35.8-.57 1.16-.02.03-.04.04-.07.03a3 3 0 0 0-.65-.08c-.04 0-.04-.01-.01-.03.33-.3.55-.64.66-1.01Z" fill="#F0F3FA"/><path d="M25.2 24.52c0 .08-.03.14-.1.2a.4.4 0 0 1-.25.07.4.4 0 0 1-.24-.08c-.07-.05-.1-.11-.1-.18 0-.08.03-.14.1-.2a.4.4 0 0 1 .24-.07c.1 0 .18.03.25.08s.1.11.1.18Z"/><path d="M24.85 24.6c.08 0 .14-.03.14-.07 0-.04-.06-.07-.13-.07-.08 0-.14.03-.14.06 0 .04.06.07.13.08Z" fill="#F0F3FA"/><path d="m40.36 25.5.23 1.25c0 .02 0 .03-.03.04l-.4.06c-.01 0-.03 0-.03-.02l-.32-1.78c0-.02 0-.03.02-.03l2.63-.43c.02 0 .03 0 .03.02l.09.47c0 .02 0 .03-.03.03l-2.17.36c-.02 0-.02.01-.02.03Z"/><path d="M30.5 31.17c.1-.3.26-.59.5-.83a3.18 3.18 0 0 1 1.91-.97 4.89 4.89 0 0 1 2.16.27l.47.17c.56.22.99.37 1.28.46.48.16.91.26 1.3.32.05 0 .07.03.07.08-.05 1.3-.54 2.11-1.47 2.43-.22.08-.6.13-1.12.16-.6.03-1.28.09-2 .16a.75.75 0 0 1-.36-.06c-.38-.16-.78-.3-1.18-.43a6.49 6.49 0 0 0-3.3-.23c-.02 0-.05 0-.07-.02a.9.9 0 0 1-.21-.46 4.29 4.29 0 0 1 .02-1.57c.11-.54.37-1.1.77-1.65.31-.43.73-.88 1.23-1.34.1-.08.18-.18.26-.31.1-.14.16-.28.2-.41.05-.16.06-.3.03-.42a.5.5 0 0 0-.27-.32 1 1 0 0 0-.64-.08 1.7 1.7 0 0 0-.63.23 15.37 15.37 0 0 1-.67.37l.35-.54a.56.56 0 0 0 .1-.25c.02-.2.1-.38.22-.51.1-.12.25-.2.43-.25.16-.05.34-.06.53-.05.18.01.35.05.52.1a.8.8 0 0 1 .36.25c.08.1.15.23.19.38.04.13.05.28.04.43 0 .15-.03.3-.08.43-.12.37-.28.72-.48 1.06l-.85 1.4c-.23.37-.37.8-.44 1.29-.04.28 0 .5.1.64.13.17.34.22.63.16a.12.12 0 0 0 .1-.09Z" fill="#F0F3FA"/><path d="M30.06 25.75a.2.2 0 0 1-.08.16.31.31 0 0 1-.2.07.31.31 0 0 1-.2-.07.2.2 0 0 1-.09-.15.2.2 0 0 1 .09-.16.31.31 0 0 1 .2-.07c.07 0 .14.02.2.07.05.04.08.1.08.15Z"/><path d="M20.78 33.95c.09-.36.28-.7.56-1.01.43-.48.93-.84 1.53-1.08a4.9 4.9 0 0 1 1.85-.37c.04 0 .04.01.02.04a7.7 7.7 0 0 0-1.38 2.04c-.38.86-.5 1.84-.36 2.94.03.18.08.33.14.47.02.02 0 .03-.02.04-.98.05-1.88 0-2.7-.11-1.09-.17-1.83-.56-2.22-1.19-.1-.17-.17-.38-.2-.63a6.72 6.72 0 0 1-.02-1.22c.03-.4.12-.8.25-1.18.22-.6.56-1.19 1.02-1.78.4-.52.89-1.02 1.45-1.5.37-.32.61-.68.72-1.07.04-.15.05-.3.03-.43a.63.63 0 0 0-.16-.32.77.77 0 0 0-.3-.2 1.2 1.2 0 0 0-.41-.06c-.32 0-.61.05-.86.17-.47.23-.91.48-1.33.77-.06.05-.07.04-.03-.03l.62-.94a.46.46 0 0 0 .06-.14l.03-.15a1.16 1.16 0 0 1 .96-.99c.49-.08.96-.05 1.41.11.22.08.39.2.52.37.12.16.2.34.24.57a2.44 2.44 0 0 1-.15 1.27c-.18.42-.4.85-.66 1.28-.34.57-.7 1.13-1.05 1.68a4.04 4.04 0 0 0-.62 1.77c-.04.36.02.63.2.8.17.17.44.22.8.13.03 0 .05-.02.06-.05Z" fill="#F0F3FA"/><path d="m14.2 26.63-1.01-.08c-.02 0-.03 0-.03-.03l.04-.48c0-.01.01-.02.03-.02l2.68.21c.02 0 .03.01.03.03l-.04.48c0 .02-.01.03-.03.02l-1.15-.08c-.01 0-.02 0-.02.02l-.1.99c0 .02.02.03.03.03l1.14.09c.02 0 .03 0 .03.03l-.04.48c0 .01-.01.02-.03.02l-2.68-.21c-.02 0-.03-.01-.03-.03l.05-.48c0-.02 0-.03.02-.03l1.03.09c.02 0 .03-.01.03-.03l.08-.99c0-.01 0-.02-.02-.03ZM42.44 27.31l-.05-.7c0-.02.01-.03.03-.03l.4-.02c.03 0 .04 0 .04.03a2395 2395 0 0 0 .1 2.07l-.43.02s-.02 0-.02-.02l-.04-.72c0-.03-.01-.04-.04-.04l-2.21.12c-.02 0-.03-.01-.03-.03l-.03-.49.02-.02 2.2-.11c.04 0 .06-.02.06-.06ZM20.19 26.84c0 .07-.04.14-.1.19a.4.4 0 0 1-.25.08.4.4 0 0 1-.25-.08c-.07-.05-.1-.11-.1-.19 0-.07.03-.13.1-.19a.4.4 0 0 1 .25-.07c.1 0 .18.02.24.07.07.05.1.12.1.19Z"/><path d="M19.84 26.91c.07 0 .13-.03.13-.07 0-.04-.06-.07-.13-.07-.08 0-.14.03-.14.07 0 .04.06.07.14.07ZM25.95 35.22c.11-.41.36-.81.75-1.2a4.64 4.64 0 0 1 3.23-1.25 6.8 6.8 0 0 1 2.73.58l1.34.48c.5.17.96.3 1.37.42.31.08.65.14 1 .17.04 0 .06.03.05.06-.01.32-.04.61-.08.88a3.5 3.5 0 0 1-.32 1.02 2.75 2.75 0 0 1-2.45 1.55c-1.36.08-2.66.18-3.9.3-.8.06-1.68.1-2.63.08a7.07 7.07 0 0 1-2.66-.46 2.17 2.17 0 0 1-.98-.82c-.11-.16-.18-.36-.21-.6a5.15 5.15 0 0 1 .25-2.55c.24-.6.6-1.2 1.06-1.78.4-.49.88-.99 1.47-1.5.1-.08.18-.18.27-.29.09-.12.17-.24.23-.36.15-.3.2-.57.14-.8a.63.63 0 0 0-.27-.38 1 1 0 0 0-.46-.15 1.86 1.86 0 0 0-.97.16c-.4.18-.84.43-1.33.76-.07.05-.08.04-.03-.04l.58-.88a.55.55 0 0 0 .1-.23c.06-.45.26-.76.6-.94a2 2 0 0 1 1.1-.18c.37.03.66.11.88.24.27.16.45.4.53.71.11.45.07.9-.11 1.37-.2.46-.42.9-.68 1.33-.34.57-.69 1.12-1.03 1.66-.28.43-.47.9-.58 1.43-.08.4-.07.72.02.95.12.3.39.42.8.35.06 0 .1-.02.15-.04.02 0 .04-.02.04-.05Z" fill="#F0F3FA"/><path d="M25.36 28.13c0 .07-.03.13-.1.18a.4.4 0 0 1-.25.08.4.4 0 0 1-.25-.08c-.07-.05-.1-.11-.1-.18 0-.08.04-.14.1-.2a.4.4 0 0 1 .25-.07c.1 0 .18.03.25.08s.1.11.1.19ZM13.57 30.09l.05.72c0 .02-.01.03-.03.03l-.4.03c-.03 0-.04-.01-.04-.03l-.14-2.04c0-.02.01-.03.03-.03l.4-.03c.03 0 .04.01.04.03l.05.72c0 .02 0 .03.03.03l2.21-.14c.02 0 .03.01.03.03l.04.48c0 .02-.01.03-.03.03l-2.22.13c-.02 0-.03.02-.02.04Z"/><path d="M23 31.57a4.57 4.57 0 0 1 .42-1.6.44.44 0 0 1 .16-.2c.44-.3.86-.54 1.25-.74.2-.1.39-.17.58-.2.04-.01.05 0 .02.04a4.1 4.1 0 0 0-.7 1.9c-.01.15 0 .32.03.49.01.03 0 .04-.03.04a5.17 5.17 0 0 0-1.74.27ZM30.37 30.96c-.05.11-.13.16-.25.13-.24-.05-.32-.3-.24-.76.07-.4.21-.75.42-1.09a.08.08 0 0 1 .08-.04c.46.06.92.15 1.37.28.03.01.04.03 0 .04-.3.16-.58.36-.82.6a2.3 2.3 0 0 0-.56.84ZM28.85 29.3a4.16 4.16 0 0 0-.6 2.82 5.12 5.12 0 0 0-1.8-.6c-.03 0-.03-.02-.02-.04.34-.5.63-1.04.89-1.6a.23.23 0 0 1 .1-.1c.41-.25.88-.42 1.4-.52.04 0 .05 0 .03.04Z" fill="#F0F3FA"/><path fill-rule="evenodd" d="m42.96 29.33-.03-.02-2.66-.25-.03.01-.02.03-.1 1.04a1.11 1.11 0 0 0 .27.82 1.13 1.13 0 0 0 .77.41l.47.04a1.14 1.14 0 0 0 1.24-1.01l.1-1.04-.01-.03Zm-.52.5c0-.02 0-.03-.02-.03l-1.75-.16c-.02 0-.03 0-.04.02l-.04.5c-.02.16.03.3.15.44.11.13.26.2.43.22l.54.05c.18.01.33-.03.47-.14.13-.1.2-.24.22-.4l.04-.5Z"/><path d="m39.93 31.63.45.1.02.01v.03l-.1.43c0 .02-.02.03-.04.02l-.45-.1h-.02v-.03l.1-.43c0-.02.02-.03.04-.03Z"/><path d="m28.3 32.39.19.35c0 .02 0 .04-.02.05a4.7 4.7 0 0 0-1.6.83c-.52.41-.88.9-1.08 1.44-.02.05-.05.07-.1.07h-.07c-.23.02-.39-.05-.47-.22a1.13 1.13 0 0 1-.06-.62 3.85 3.85 0 0 1 .36-1.2c.14-.26.42-.71.83-1.36a.06.06 0 0 1 .07-.03c.18.03.34.08.5.13a41.9 41.9 0 0 1 1.45.56ZM35.38 33.5l-.5.4h-.02l-.89-.28-.01-.02c0-.01 0-.02.02-.02l1.38-.12c.01 0 .02 0 .02.02v.02Z" fill="#F0F3FA"/><path d="M22.47 44.13c-1.19-.41-2.34-.96-3.43-1.63-.06-.04-.05-.05.01-.05a10.77 10.77 0 0 0 4.61-.63c.61-.26 1.17-.45 1.69-.57a16.5 16.5 0 0 1 4.72-.44c1.66.08 3.2.4 4.62.95.16.06.32.1.49.12l.08.01c.57.07 1 .12 1.29.14.47.05.9.07 1.29.07.04 0 .05 0 0 .04-.55.37-1.13.7-1.72 1.01a.13.13 0 0 1-.1.01 23.39 23.39 0 0 0-4.31-.65c-1.6-.09-3.15 0-4.67.26-1.6.27-3.08.72-4.46 1.35a.14.14 0 0 1-.1 0ZM30.66 44.62a3.9 3.9 0 0 0-3.94.36.11.11 0 0 1-.07.02c-.77-.06-1.51-.17-2.22-.33-.04 0-.05-.02 0-.04 1.53-.51 3.14-.83 4.8-.94a20.4 20.4 0 0 1 4.93.29l-.01.02c-.94.34-1.94.61-3.02.8-.05 0-.11 0-.18-.02l-.17-.09a1.5 1.5 0 0 0-.12-.07Z"/></svg>