<!-- by TradingView --><svg width="56" height="56" viewBox="0 0 56 56" xmlns="http://www.w3.org/2000/svg"><path fill="#F0F3FA" d="M0 0h56v56H0z"/><path fill-rule="evenodd" d="M15.28 14A3.3 3.3 0 0 0 12 17.3v21.4a3.3 3.3 0 0 0 3.28 3.3h21.44A3.3 3.3 0 0 0 40 38.7v-7.1l-1 .48V38c0 1.84-.78 3-2.58 3h-8.73l2.77-5.28-.27-1.25-1.38-1.05-.42.76L19.77 18H20v-.98h-6.84c.3-1.19 1.1-2.02 2.44-2.02h20.13c1.8 0 3.27.82 3.27 2.66v5.2l1-1.32v-4.23A3.3 3.3 0 0 0 36.72 14H15.28Zm-2.27 4-.01.32v19.76c0 1.83.8 2.92 2.6 2.92h12.07L14.21 18h-1.2Zm19.34 14.13-1.88-1.66 2.5-4.47-.72-.48V25H36v1h-.43l-3.22 6.13Z" fill="#2C2B29"/><path d="m29.5 33.12.27 1.22.36.2.3 1.19c.85.18 3 .25 4.75-.94.31-.21.64-.46 1-.74 2.15-1.63 5.2-3.96 10.44-2.22l1.43-5.63-.96-.33L49 19.59a5.8 5.8 0 0 0-1.52.09l.7-2.8c-.87-.38-3.22-.57-5.63 1.67-2.4 2.23-6.11 7.34-7.66 9.61-1.1 1.51-3.72 4.62-5.4 4.96Zm.5.24Zm.27-.09c.85-.33 2.7-1.66 5.06-5.05l.85-1.23c3.22-4.69 7.38-10.74 11.61-9.82l-.69 2.59c-1.17.18-3.94 1.04-5.64 3.08l-.98 1.2c-2.36 2.96-6.4 8-10.21 9.23Zm.41 2.04v-1.52c2.85.66 6.14-2.47 8.05-4.29l.47-.44c1.8-1.68 3.98-3 5.92-3 1.56 0 2.35.25 2.55.37l-1.33 4.98a7.96 7.96 0 0 0-3.44-.66c-2.76 0-4.94 1.6-6.07 2.42l-.2.15c-.2.13-.4.3-.6.46-.99.75-2.2 1.7-3.4 1.7a7.62 7.62 0 0 1-1.95-.17Z" fill="#E40981"/></svg>