<!-- by TradingView --><svg width="56" height="56" viewBox="0 0 56 56" xmlns="http://www.w3.org/2000/svg"><path fill="#F0F3FA" d="M0 0h56v56H0z"/><path d="M22.35 16.44C24.27 13.72 27.27 9.2 28 7c.73 2.2 3.73 6.72 5.65 9.44.45.62.47 1.42.04 2.05L28 27l-5.7-8.5c-.42-.64-.4-1.44.05-2.06Z" fill="#EBE201"/><path d="M36.75 20 28 32.5c-1.9-2.9-6.36-9.22-8.59-12.5-3.2 1.9-5.41 6.56-5.41 11.43 0 3.9 1.98 7.45 2.97 8.57h3.93a.5.5 0 0 0 .43-.75L19 35.03v-8.7c0-.74.43-1.33 1.16-1.33.43 0 .83.21 1.08.57L25 31.43v4.5c0 .21-.28.29-.38.1l-1.39-3.1-.3-.73a.33.33 0 0 0-.3-.2h-.3a.33.33 0 0 0-.33.33v1.2l3 5.72c0 .33.02 1.1 0 2.75-1.66 0-2.49 1.27-2.8 1.76.7.41 3.04 1.24 6.85 1.24a9.95 9.95 0 0 0 6.41-2.15c.24-.2.08-.85-.23-.85H31V31.43l3.52-5.68a.68.68 0 0 1 .8-.26c.38.14.55.57.38.93L34 29.84V40h4.88S42 37.24 42 31.16c0-6.1-3.5-9.98-5.25-11.16Z" fill="#EBE201"/></svg>