<!-- by TradingView --><svg width="56" height="56" viewBox="0 0 56 56" xmlns="http://www.w3.org/2000/svg"><path fill="#F0F3FA" d="M0 0h56v56H0z"/><path fill="#1BB652" d="M17.11 26h31.08v.43H17.11zM17.18 28h32.49v.39H17.18zM17.23 27h31.38v.41H17.23V27ZM16.98 29h32.93v.38H16.98z"/><path d="m17.07 29.38.1-.38h-13l.11.38h12.79Zm-.23.62H4.51c1 2.35 3.39 4 6.17 4a6.68 6.68 0 0 0 6.16-4ZM4.06 28.4H17.3l.04-.4H4.02c0 .13.02.26.04.4ZM4 27.4h13.35c0-.14 0-.27-.02-.41H4.02a6.4 6.4 0 0 0-.02.41Zm.09-.98c.02-.15.05-.29.09-.43h13l.08.43H4.1Zm.25-.99.17-.44h12.33l.17.44H4.34Zm.7-1.44-.27.46h11.8a6.42 6.42 0 0 0-.27-.46H5.05Zm.4-.53h10.48a6.61 6.61 0 0 0-.43-.47H5.86c-.15.15-.3.3-.43.47Zm9.49-.98a6.68 6.68 0 0 0-.7-.49H7.12c-.25.15-.48.31-.7.49h8.5Zm-1.67-.98a6.81 6.81 0 0 0-5.17 0h5.17ZM20.42 32l-2.36-9h1.97l1.6 6.6L24.8 23h2.03l-4.6 9h-1.82ZM27.56 23h1.84l-1.15 9H26.4l1.15-9ZM31.3 23h1.83l-1.15 9h-1.84l1.15-9Z" fill="#1BB652"/><path fill-rule="evenodd" d="M38.19 23h-2.26l-3.37 4.2 2.47 4.8h3.79l.93-2H43l.38 2h1.97l-1.97-9h-2.12l-4.42 8.62-2.3-4.42 3.65-4.2Zm4.54 5.56-.67-3.53-1.64 3.53h2.3Z" fill="#1BB652"/><path d="M49.64 23A3.1 3.1 0 0 1 52 24.12l-1 1.22c-.1-.29-.52-.87-1.36-.9-1.05-.05-1.65 1.12-.56 1.86 1.1.74 2.4 1.43 2.48 2.88.07 1.46-1.29 2.84-3.01 2.82a3.86 3.86 0 0 1-2.78-1.34l1.12-1.17c.95 1.36 2.65.85 2.75.2.08-.5 0-1.13-.95-1.56-.95-.43-1.94-1.5-1.94-2.79s1.29-2.39 2.9-2.34Z" fill="#1BB652"/></svg>