<!-- by TradingView --><svg width="56" height="56" viewBox="0 0 56 56" xmlns="http://www.w3.org/2000/svg"><path fill="#F0F3FA" d="M0 0h56v56H0z"/><path d="m28 9 8.81 5v10.55l-8.81 5-8.81-5V14L28 9Zm-7.78 5.61v9.33L28 28.35l7.78-4.41v-9.33L28 10.2l-7.78 4.41ZM18 25.18V15l-4 2.09v15.4l9 6.26V45L27 47V30.92l-9-5.74Zm20 0V15l4 2.09v15.4l-9 6.26V45L29 47V30.92l9-5.74ZM28 21a2 2 0 1 0 0-4 2 2 0 0 0 0 4Zm7.26-6.06-7.37-4.1-7.15 4.1v8.67l7.15 4.11 7.37-4.1v-8.68Zm-13.48.61 6.12-3.52 6.32 3.53V23l-6.32 3.52L21.78 23v-7.45Zm6.14-3.16 5.78 3.36v7.05l-5.78 3.36-5.62-3.36v-7.04l5.62-3.37Zm0 1.22-4.59 2.74v5.85l4.6 2.75 4.74-2.75v-5.84l-4.75-2.75Zm4.23 3.2-4.21-2.32-4.09 2.33v4.91l4.09 2.33 4.2-2.32v-4.92Zm-7.26.62 3.06-1.74 3.16 1.75v3.68l-3.16 1.74-3.06-1.74v-3.69Z" fill="#EC1F25"/></svg>