<!-- by TradingView --><svg width="56" height="56" viewBox="0 0 56 56" xmlns="http://www.w3.org/2000/svg"><path fill="#F0F3FA" d="M0 0h56v56H0z"/><path d="M4 22h2.23c.66 2.48 1.32 5.05 1.87 7.43.14.61.29.62.45 0l1.9-7.36c0-.02.02-.03.03-.04.02-.02.03-.03.05-.03h2.18c.02 0 .06.07.05.1L9.53 32.8a.28.28 0 0 1-.11.14.3.3 0 0 1-.18.06H7.17a.15.15 0 0 1-.1-.03.14.14 0 0 1-.04-.07L4 22ZM14 23.01a1 1 0 1 0 2-.01 1 1 0 0 0-2 .01ZM28 26.93v2.77c.01.9.61 1.68 1.82 1.36a.15.15 0 0 1 .13.02l.04.05.01.06v1.34c0 .06-.02.12-.05.17a.31.31 0 0 1-.15.1c-1.1.39-2.24.2-3.15-.55-.5-.42-.66-1.58-.65-2.21v-2.99c0-.2-.13-.31-.33-.3h-.44c-.15.01-.23-.05-.23-.2v-1.37c0-.12.07-.18.2-.18h.66c.13 0 .14-.06.14-.2v-2.7c0-.06.08-.1.15-.1h1.7c.08 0 .15.07.15.15v2.72c0 .1.06.13.17.13h1.59c.16 0 .24.1.24.25v1.22c0 .19-.1.28-.3.28l-1.47-.02c-.11 0-.23.09-.23.2Z" fill="#343771"/><path d="M41 33a4.24 4.24 0 0 1-3.09-1.32 4.51 4.51 0 0 1-1.27-3.19 4.63 4.63 0 0 1 1.29-3.18A4.35 4.35 0 0 1 41 24a4.24 4.24 0 0 1 3.08 1.32 4.51 4.51 0 0 1 1.27 3.19 4.63 4.63 0 0 1-1.28 3.18A4.35 4.35 0 0 1 40.99 33Zm1.27-1.62a2.7 2.7 0 0 0 1.97-.83 2.9 2.9 0 0 0 .84-2.04 2.99 2.99 0 0 0-.8-2.05 2.78 2.78 0 0 0-1.96-.87 2.7 2.7 0 0 0-1.98.83 2.9 2.9 0 0 0-.84 2.04 2.99 2.99 0 0 0 .8 2.06 2.78 2.78 0 0 0 1.97.86Z" fill="#E31E23"/><path d="m19.7 25.97.02.04a.1.1 0 0 0 .1.02.1.1 0 0 0 .04-.03c.67-.82 1.45-1.14 2.35-.95.95.2 1.58 1.23 1.7 2.22.03.31.08.62.09.91v4.67c0 .04-.03.08-.06.1a.14.14 0 0 1-.1.05H22.2c-.08 0-.19-.05-.19-.14v-4.79c0-.68-.34-1.54-1.14-1.3-.56.18-.86.73-.86 1.33v4.76c0 .1-.09.14-.17.14h-1.64a.18.18 0 0 1-.13-.06.2.2 0 0 1-.06-.13v-7.66c0-.1.05-.15.14-.15h1.34c.04 0 .07.01.1.03.04.02.07.05.09.08a.25.25 0 0 1 .02.22 1 1 0 0 0 0 .64ZM47.7 25.97l.02.04a.1.1 0 0 0 .1.02.1.1 0 0 0 .04-.03c.67-.82 1.45-1.14 2.35-.95.95.2 1.58 1.23 1.7 2.22.03.31.08.62.09.91v4.67c0 .04-.03.08-.06.1a.14.14 0 0 1-.1.05H50.2c-.08 0-.19-.05-.19-.14v-4.79c0-.68-.34-1.54-1.14-1.3-.56.18-.86.73-.86 1.33v4.76c0 .1-.09.14-.17.14h-1.64a.18.18 0 0 1-.13-.06.2.2 0 0 1-.06-.13v-7.66c0-.1.05-.15.14-.15h1.34c.04 0 .07.01.1.03.04.02.07.05.09.08a.25.25 0 0 1 .02.22 1 1 0 0 0 0 .64ZM33.73 26.03c-.02.24 0 .3.15.12.56-.69.87-1.14 1.84-1.15.18 0 .3.09.28.27v1.49c.02.2-.06.28-.26.26-1-.12-1.75.6-1.74 1.6v4.23c0 .04 0 .08-.03.1a.15.15 0 0 1-.1.05h-1.7a.17.17 0 0 1-.12-.05.18.18 0 0 1-.05-.13v-7.39c0-.2.1-.43.3-.43h1.11c.23 0 .34.24.32.48v.55ZM15.86 25h-1.72a.14.14 0 0 0-.14.14v7.72c0 .08.06.14.14.14h1.72c.08 0 .14-.06.14-.14v-7.72a.14.14 0 0 0-.14-.14Z" fill="#343771"/></svg>