<!-- by TradingView --><svg width="56" height="56" viewBox="0 0 56 56" xmlns="http://www.w3.org/2000/svg"><path fill="#F0F3FA" d="M0 0h56v56H0z"/><path d="m31.36 26.05 9.23-1.35c.1.03.1.06 0 .1l-1.33.37a141.45 141.45 0 0 1-6.52 1.76l-1.82.46a.98.98 0 0 0-.4.21.16.16 0 0 0-.04.07l-.09.24c-.26.66-.9 2.3-.23 2.52.33.1.66.06.98-.13a.5.5 0 0 0 .2-.22l.6-1.33a.51.51 0 0 1 .11-.17c.45-.42.83-.77 1.36-1.1 1.17-.7 2.24-.4 3.08.58.1.11.15.26.1.4-.14.39-.24.75-.3 1.08 0 .07-.03.13-.05.2a.84.84 0 0 0-.06.22c-.01.24.17.45.42.39.06-.02.13-.02.2-.03.1 0 .2-.02.28-.06.12-.06.25-.15.3-.29.14-.32.25-.63.34-.93a.61.61 0 0 1 .12-.2c.04-.05.08-.1.1-.16a4.33 4.33 0 0 1 2.07-1.87c.15-.06.29-.09.42-.08h.3c.1-.01.2 0 .3.04l.59.25c.2.08.39.08.6.07.51-.01.57.64.58 1 0 .13-.01.26-.06.37-.2.52-.36 1.02-.53 1.51-.56 1.66-1.08 3.2-2.58 4.59l-.08.05c-.06.05-.1.08-.11.2l-.05.1c-.03.04-.06.1-.03.09h9.98c.36 0 .61-.4.66-.73V21H6.67c-.42-.01-.67.28-.67.74v12.89c.1.23.25.37.75.37H34.9c.05 0 .18-.09.29-.17l.19-.11c.17-.06.17-.12 0-.19a5.15 5.15 0 0 1-.96-.55 1.08 1.08 0 0 1-.33-.41.06.06 0 0 1 .04-.06.6.6 0 0 1 .3-.01c.55.11 1.07.19 1.56.22a4.6 4.6 0 0 0 3.37-1.09c.17-.16.3-.34.44-.53l.18-.23c.07-.1.11-.22.03-.33a.14.14 0 0 0-.18-.04c-.18.11-.37.19-.58.23-.5.12-.83-.08-1.22-.32l-.07-.04a.6.6 0 0 0-.1-.04c-.06-.03-.11-.05-.16-.1a.32.32 0 0 0-.17-.12.29.29 0 0 0-.2.02l-.16.09c-.16.09-.31.17-.5.19l-.19.03c-.14.03-.28.06-.42.02a1.7 1.7 0 0 1-.64-.37 28 28 0 0 1-.42-.4.2.2 0 0 0-.22-.05c-.15.07-.3.15-.42.26-.4.33-.88.55-1.44.66-.15.03-.29 0-.43-.03l-.15-.03a1.17 1.17 0 0 1-.53-.3c-.12-.1-.23-.12-.35-.07l-.35.14-.33.13a4.8 4.8 0 0 1-.85.3c-.81.2-1.97-.47-1.95-1.41.02-.54.09-1 .21-1.42.1-.35.15-.7.15-1.05a.41.41 0 0 0-.17-.35l-.5-.36c-.51-.37.28-.8.56-.86l.42-.11a.18.18 0 0 0 .1-.08l.07-.1c.08-.1.16-.21.17-.38.07-.69.32-1.35.56-2l.23-.61c.03-.12.1-.23.23-.26.27-.09.52-.15.8 0l.27.15c.28.14.56.29.8.52.02.02.04.06.04.1.06.4-.06.71-.28 1.06-.09.12-.13.26-.18.4-.04.11-.07.23-.14.34-.09.17-.15.37-.17.56a.19.19 0 0 0 .13.2h.08Zm-16.7 4.31a66.07 66.07 0 0 0-.67.78c-.8 1-1.64 2.03-2.66 2.77-.32.23-.9.21-1.3.2h-.05c-.58-.02-.82-.32-1.12-.74-1.02-1.41-1.16-4.07-1.26-6.1-.03-.55-.06-1.05-.1-1.47-.04-.4-.05-.8-.03-1.2.01-.22.12-.37.32-.46.42-.2.8-.3 1.16-.32.48-.02.97.44 1.26.81.02.03.03.07.03.1 0 .08.01.16.04.23v.08l-.15.55c-.29 1.04-.6 2.15-.79 3.16v.02c-.06.31-.52 2.7.36 2.44.22-.06.4-.15.53-.27.47-.39.94-.75 1.42-1.11.85-.66 1.7-1.3 2.48-2.12a37.47 37.47 0 0 0 4.25-5.27c.05-.08.12-.15.19-.22.08-.08.15-.17.21-.26l.04-.04h.06a.1.1 0 0 1 .07.06c.12.44-.22 1.2-.49 1.8-.1.23-.19.43-.24.59-.11.33-.26.65-.41.97l-.32.7c-.19.48-.49.92-.78 1.35-.17.25-.34.5-.49.76-.42.74-.88 1.4-1.4 2.07l-.15.14Zm4.81-7a.79.79 0 0 1 .66-.34c.78-.03 1.14.51 1.35 1.2.05.14.05.27.01.4-.25.86-1.1 1.76-2.1 1.21-.8-.44-.26-1.97.08-2.47Zm25.18 6.58a.53.53 0 0 0-.35.22c-.02.03-.02.05 0 .08.19.29.47.42.83.41.45-.01.84-.15 1.25-.3l.29-.1c.1-.02.18-.08.27-.13.08-.05.17-.1.27-.14.32-.1.61-.25.86-.44a4.75 4.75 0 0 1 .4-.25l.06.01.19.1c.03.02.04.04.04.08a.8.8 0 0 1-.17.37c-.23.25-.49.5-.77.75a4.62 4.62 0 0 1-2.63 1.06c-.97.02-1.7-.4-2.17-1.26-.09-.17-.12-.43-.1-.62.05-.62.17-1.2.37-1.75.22-.6 1.1-1.65 1.8-1.67.1 0 .19-.02.28-.04l.25-.05c.29-.01.56.1.77.28.46.41.65.95.57 1.61a.4.4 0 0 1-.09.22.75.75 0 0 0-.1.16l-.08.14c-.15.19-.29.37-.4.55-.16.23-.41.42-.67.53-.22.1-.47.13-.72.15l-.25.03Zm-19.03 2.63a4.5 4.5 0 0 1-1-2.5.12.12 0 0 0-.14-.05c-.3.12-.55.33-.74.58-.2.26-.43.52-.7.76a.64.64 0 0 1-.25.14c-.32.1-.6.16-.9-.05-.38-.26-.25-1-.15-1.57a4.01 4.01 0 0 0 .06-.57.1.1 0 0 0-.07-.06.1.1 0 0 0-.05 0c-.43.13-1.06.74-1.62 1.28-.32.31-.62.6-.84.76-.2.14-.43.27-.66.32l-.28.08a.51.51 0 0 1-.25.01 2.16 2.16 0 0 1-.85-.27c-.67-.51-.7-1.32-.49-2.1.28-1.02.78-1.99 1.56-2.61.11-.1.24-.16.4-.21a.9.9 0 0 1 .68.04c.17.08.36.32.4.52.06.33.01.65-.14.94l-.3.58c-.26.53-.53 1.06-.82 1.57a.09.09 0 0 0-.01.06.09.09 0 0 0 .04.06c.33.17.58 0 .85-.2.1-.07.18-.13.28-.18.1-.06.23-.17.38-.34.13-.14.24-.3.36-.44.14-.2.29-.38.46-.56.34-.33.64-.7.93-1.08.24-.31.47-.62.74-.9.22-.24.76-.28 1.02 0l.32.3.05.07.13.48c.03.13.02.24 0 .35 0 .08-.02.17 0 .26l-.02.12c-.01.06-.03.11 0 .17a.12.12 0 0 0 .16.05c.19-.1.35-.22.49-.35.34-.33.68-.67 1.01-1.02.24-.25.58-.24.84-.04.29.21.51.4.64.74.1.25-.02.49-.13.71l-.05.11a5.29 5.29 0 0 0-.4 1.24c-.03.09-.07.18-.07.29-.1 1.45.8 2.42 2.09 2.9a5.2 5.2 0 0 0 1.13.15l.31-.02c.08 0 .1.03.1.1l-.01.05a.16.16 0 0 1-.14.14l-.31.06c-.98.21-1.96.42-2.96-.07-.48-.24-.85-.5-1.08-.8Zm19.06-3.37c-.14-.12 0-.53.33-.9.33-.38.72-.59.87-.46.14.13 0 .54-.34.91-.32.38-.71.58-.86.45Zm-5.16 1.1c-.14.01-.38.02-.47-.11-.06-.1-.06-.22.01-.34a3.65 3.65 0 0 1 1.56-1.51c.1-.06.2-.08.28-.06.12.02.2.08.27.17a.1.1 0 0 1 .02.08.77.77 0 0 1-.08.24l-.08.16c-.19.37-.38.75-.76.96-.17.1-.34.2-.51.32a.48.48 0 0 1-.24.09Zm-6.63.16c.13.03.3 0 .41-.05l.43-.2c.05-.02.08-.06.1-.1l.09-.07c.44-.26.78-.6 1.02-1.01.07-.12.1-.24.09-.37a.17.17 0 0 0-.17-.16 1.54 1.54 0 0 0-1.09.5l-.17.16a4.8 4.8 0 0 0-.87 1.06.22.22 0 0 0 .16.24Z" fill="#74868A"/></svg>