<!-- by TradingView --><svg width="56" height="56" viewBox="0 0 56 56" xmlns="http://www.w3.org/2000/svg"><path fill="#F0F3FA" d="M0 0h56v56H0z"/><path fill-rule="evenodd" d="M27.9 9.02 11 38.94a.04.04 0 0 0 .04.06h33.92l.01-.01.01-.01a.04.04 0 0 0 .01-.06L27.97 9.02a.04.04 0 0 0-.04-.02.04.04 0 0 0-.03.02Zm.01 2-15.2 26.93a.03.03 0 0 0 0 .03.03.03 0 0 0 .04.02h30.5l.01-.01a.03.03 0 0 0 .02-.04v-.02L27.97 11.02a.03.03 0 0 0-.06 0Z" fill="#2B2A28"/><path fill-rule="evenodd" d="M31.09 26.59c-.19-.2-.4-.38-.64-.54-.04-.02-.03-.03 0-.02.26.05.51.11.76.2.95.3 1.92.61 2.94.96a11.8 11.8 0 0 0 .94.25.04.04 0 0 0 0-.04c-.15-.3-.27-.6-.38-.9-.06-.18-.2-.26-.36-.34l-.03-.02a7.78 7.78 0 0 0-4.98-.83 2 2 0 0 1-.66.03 3.37 3.37 0 0 0-.8-.05c-.07 0-.07 0 0-.03.35-.17.68-.3.99-.41l2.97-1c.17-.06.34-.13.51-.22.04-.02.04-.04 0-.06l-.9-.56a.14.14 0 0 0-.09-.02 7.93 7.93 0 0 0-4.75 2.29c-.17.19-.34.37-.58.49-.24.11-.46.25-.66.41-.06.06-.07.05-.03-.03.16-.29.32-.56.49-.8l1.8-2.59a10.25 10.25 0 0 0 .4-.63l-.02-.01H28c-.37.04-.72.08-1.04.1a.3.3 0 0 0-.2.08 8.37 8.37 0 0 0-2.5 4.9c-.02.19-.08.36-.16.5-.14.26-.24.51-.3.76-.02.07-.03.07-.04 0-.07-.97-.07-1.94-.07-2.92a53.34 53.34 0 0 0-.04-1.97h-.02l-.02.01c-.23.24-.48.46-.73.66a.45.45 0 0 0-.15.26 8.48 8.48 0 0 0 .77 5.46c.06.11.1.23.12.36l.08.4.1.47c0 .04 0 .04-.03.01-.2-.22-.39-.45-.55-.67l-1.77-2.5c-.15-.21-.3-.41-.47-.6-.03-.04-.06-.04-.07.01l-.23 1.05c-.02.05-.01.1.01.16.8 1.75 2 3.05 3.6 3.9a2 2 0 0 1 .53.38c.2.22.4.4.6.55.04.03.04.04 0 .03l-.34-.09c-.27-.07-.53-.13-.79-.22a108.9 108.9 0 0 0-3.36-1.1l-.02.02a.04.04 0 0 0 0 .04c.14.29.27.59.38.9.04.14.13.22.26.28 1.65.9 3.35 1.2 5.08.91.2-.03.41-.03.6 0 .26.06.5.09.73.1.08 0 .08.02 0 .04l-.36.15c-.17.07-.34.15-.51.2a149.62 149.62 0 0 0-3.48 1.2.04.04 0 0 0 .02.04l.9.56a.2.2 0 0 0 .1.03l.26-.01a8.08 8.08 0 0 0 4.48-2.24c.14-.16.27-.3.49-.4.25-.13.52-.28.74-.46.05-.05.06-.04.02.02-.2.37-.37.66-.52.87a136.43 136.43 0 0 0-2.13 3.05.05.05 0 0 0 .06.05l.98-.1c.12 0 .2-.07.29-.15a8.25 8.25 0 0 0 2.43-4.8c.02-.16.08-.32.16-.46a3.34 3.34 0 0 0 .33-.81.02.02 0 0 1 .03.01c0 .18.01.36.03.53l.02.66a244.88 244.88 0 0 0 .04 3.63.03.03 0 0 0 .02.02.03.03 0 0 0 .02 0l.8-.72a.19.19 0 0 0 .06-.08l.06-.24c.3-1.9.05-3.63-.75-5.22-.11-.22-.17-.4-.2-.57a4.03 4.03 0 0 0-.2-.87.01.01 0 0 1 0-.01h.02l.17.2c.25.31.5.62.72.94a100.81 100.81 0 0 0 2 2.77l.01-.01.01-.02.25-1.08c0-.04 0-.1-.02-.13a8.06 8.06 0 0 0-3.74-4c-.18-.08-.34-.2-.48-.35Zm-5.8 6a3.77 3.77 0 0 0 5.42.02 4.01 4.01 0 0 0 0-5.59 3.77 3.77 0 0 0-5.41 0 4.01 4.01 0 0 0-.01 5.58Z" fill="#2B2A28"/><path fill-rule="evenodd" d="M25.48 32.38a3.52 3.52 0 0 0 5.03 0 3.7 3.7 0 0 0 .01-5.16 3.52 3.52 0 0 0-5.03-.01 3.7 3.7 0 0 0-.01 5.17Zm.41-.4a2.94 2.94 0 0 0 4.87-1 3.16 3.16 0 0 0-.65-3.36 2.98 2.98 0 0 0-2.1-.9 2.9 2.9 0 0 0-2.12.9 3.09 3.09 0 0 0-.87 2.18c0 .81.31 1.6.87 2.17Z" fill="#2B2A28"/><path fill-rule="evenodd" d="M26.03 31.83a2.75 2.75 0 0 0 3.95-.01 2.9 2.9 0 0 0-.01-4.05 2.75 2.75 0 0 0-3.95 0 2.9 2.9 0 0 0 .01 4.06Zm1.27-3.26.57-1.2a.03.03 0 0 0-.04-.05 2.44 2.44 0 0 0-1.86 1.16l1.29.11c.02 0 .03 0 .04-.02Zm.82-1.2v-.02a.04.04 0 0 1 .02-.03h.02c.8.08 1.41.45 1.85 1.1.03.04.02.07-.03.07l-1.25.1c-.04 0-.07-.01-.08-.04l-.53-1.19Zm-2.21 1.37c-.04-.06-.08-.06-.1.01a2.6 2.6 0 0 0 .06 2.17l.75-1.11v-.06l-.71-1.01Zm4.27-.01c.3.74.3 1.46 0 2.14-.02.05-.05.05-.08.01l-.73-1.04a.09.09 0 0 1 0-.1l.73-1.02c.04-.05.06-.04.08.01Zm-1.62 2.19h-1.13a.12.12 0 0 1-.11-.07l-.54-1a.12.12 0 0 1 0-.12l.54-.97a.12.12 0 0 1 .1-.06h1.14a.12.12 0 0 1 .1.06l.56.98a.12.12 0 0 1 0 .12l-.55 1a.12.12 0 0 1-.11.06ZM28 30.4a.6.6 0 1 0 0-1.2.6.6 0 0 0 0 1.2Zm-.68.65.54 1.17c.02.05 0 .07-.05.06-.8-.1-1.4-.48-1.83-1.13-.01-.02 0-.03.02-.03l1.22-.13a.1.1 0 0 1 .1.06Zm1.33-.01-.52 1.19c-.02.04 0 .05.04.05A2.43 2.43 0 0 0 30 31.19c.03-.05.02-.07-.04-.08L28.71 31h-.04a.06.06 0 0 0-.02.04Z" fill="#2B2A28"/></svg>