<!-- by TradingView --><svg width="56" height="56" viewBox="0 0 56 56" xmlns="http://www.w3.org/2000/svg"><path fill="#F0F3FA" d="M0 0h56v56H0z"/><path d="m38.29 27.8-.29.24a17.73 17.73 0 0 0-4.3-4.13c.33-.28.66-.59.98-.9 3.08-3.1 7.2 1.69 3.6 4.79Z" fill="#2C9BA4"/><path d="M21.1 23.54c-2.04.06-3.7.63-5.01 1.7a.58.58 0 0 1-.27.14l-.16.03c-.28-.15-.68-.43-1.22-.82-1.3-.96-3.02-1.13-5.16-.5 3.94-2.43 7.88-2.61 11.81-.55Z" fill="#A2A20E"/><path d="M46.5 32.1c-.28-.18-.62-.2-1.03-.05-.45.15-.77.23-.96.24-1.6.03-3-.6-4.2-1.92l-.02.07 6.2-6.6c1.37-1.45 2.75-2.21 4.4-.85 1.42 1.16 1.45 3.24.23 4.61a71.8 71.8 0 0 1-3.5 3.68c-.31.3-.69.58-1.12.82Z" fill="#FF7321"/><path d="M33.7 23.91a17.73 17.73 0 0 1 4.3 4.13c-.86 1.1-2.69 3.27-3.94 3.69a1.82 1.82 0 0 1-.81-.33l-3.2-3.31 3.24-3.62a.22.22 0 0 0 .04-.2.21.21 0 0 0-.05-.1.2.2 0 0 0-.1-.04c-1.96-.35-3.69.6-5.21 1.86-.22 0-.25-.28-.41-.43a4.88 4.88 0 0 0-5.14-1.23c-.13.03-.42 0-.42-.25a12.13 12.13 0 0 1 11.7-.17Z" fill="#232867"/><path d="M21.06 23.53c.27.1.6.26.96.55a18.3 18.3 0 0 0-3.96 3.85l-.17.12-2.22-2.4c-.02-.03-.02-.1-.01-.24.05-.02.1-.03.16-.03.1-.02.19-.07.27-.13a7.88 7.88 0 0 1 4.97-1.72Z" fill="#A2CF44"/><path d="M15.66 25.41c-.01.13 0 .21.01.25a444.1 444.1 0 0 0-6.43 6.85c-.44.48-.95.84-1.51 1.06-1.55.61-3.24-.65-3.63-2.21-.26-1.02-.01-1.96.74-2.84a36.43 36.43 0 0 1 4.44-4.43c2.14-.63 3.87-.46 5.16.5.54.4.94.67 1.22.82Z" fill="#FFC734"/><path d="M22.02 24.08c1.06.5 3.15 3.03 4.02 3.91l-3.45 3.66a.13.13 0 0 0 0 .18l.06.03c2.02.4 3.79-.2 5.32-1.77.16-.02.23-.07.19-.16.03.2.09.35.16.42a5.17 5.17 0 0 0 4.52 1.58c.32-.04.45-.22.4-.53.27.18.54.29.82.33-.1 0-.17.04-.21.13-.04.08-.02.12.04.14-3.95 2.02-7.85 2.04-11.7.09-.75-.57-1.22-.93-1.41-1.1-.6-.52-1.47-1.44-2.63-2.75-.07-.07-.1-.18-.09-.31a18.31 18.31 0 0 1 3.96-3.85Z" fill="#1C7E2C"/><path d="m27.98 25.99-1.84 1.92-.1.08-3.62-3.66c1.94-.6 3.65-.2 5.14 1.23.34.32.32.3.42.43Z" fill="#2C9BA4"/><path d="M30.05 28.09c-.02-.04-.1-.02-.25.06V28a.33.33 0 0 0-.1-.2L27.99 26l.15-.2c1.52-1.26 3.09-2.01 5.05-1.66a.2.2 0 0 1 .1.04l.05.1a.22.22 0 0 1-.04.2l-3.24 3.62Z" fill="#CC41A0"/><path d="m27.98 25.99 1.73 1.82c.04.05.07.12.08.2l.01.14-1.64 1.78c.04.09-.03.14-.2.16l-1.82-2.18L27.98 26Z" fill="#fff"/><path d="M38.53 28.5c.6.56 1.18 1.2 1.76 1.94 0-.03.02-.05.03-.07a6.24 6.24 0 0 1-6.02 1.8l-.4-.17c-.07-.02-.09-.06-.05-.14.04-.1.11-.14.21-.13 1.25-.42 3.08-2.58 3.94-3.7l.53.47Z" fill="#CC41A0"/><path d="M18.06 27.93c-.01.13.02.24.09.31A35.23 35.23 0 0 0 20.78 31c.2.17.66.53 1.4 1.1a5.93 5.93 0 0 1-1.61 1.61c-1.8.8-3.64-.02-4.13-2.04-.33-1.33.15-2.54 1.45-3.6l.17-.13Z" fill="#2C9BA4"/><path d="m26.14 27.91 1.83 2.18a5.57 5.57 0 0 1-5.38 1.74.13.13 0 0 1 0-.18l3.45-3.66.1-.08Z" fill="#A2CF44"/><path d="M29.8 28.15c.15-.08.23-.1.25-.06l3.2 3.3c.04.32-.1.5-.4.54a5.17 5.17 0 0 1-4.53-1.58L28 30.1l1.8-1.95Z" fill="#2C9BA4"/><path d="M40.32 30.37a5.34 5.34 0 0 0 4.2 1.92c.18 0 .5-.09.95-.24.4-.15.75-.13 1.03.05-4.12 2.36-8.18 2.38-12.2.07a6.24 6.24 0 0 0 6.02-1.8Z" fill="#CC1D15"/></svg>