<!-- by TradingView --><svg width="56" height="56" viewBox="0 0 56 56" xmlns="http://www.w3.org/2000/svg"><path fill="#F0F3FA" d="M0 0h56v56H0z"/><path d="M33.49 17.42c-.47.37-.86.83-1.17 1.38-.19.33-.37.6-.55.79-.55.6-1.12 1.18-1.6 1.85-.3.4-.48.7-.54.88-.3 1.01-.64 1.98-1 2.9-.14.35-.35.68-.62 1a3.43 3.43 0 0 0-.76 1.65c-.05.25-.2.45-.37.62a.25.25 0 0 0-.08.16c-.04.56-.26 1-.85 1.15-.67.18-1.43.4-2.12.25-.1-.01-.14-.07-.14-.17 0-.47-.07-.83-.33-1.24-.4-.65-.77-1.34-1.1-2.08-.17-.4-.85-.6-1.1-1.2-.3-.7-.61-1.35-1.04-2.05a14.05 14.05 0 0 1-1.46-3.35l-.53-.8a.17.17 0 0 0-.14-.09h-.4a.38.38 0 0 1-.23-.06.87.87 0 0 0-.57-.17c-.4.03-.9-.22-1-.6-.11-.45.23-.75.02-1.21-.13-.3-.14-.58-.02-.86a.15.15 0 0 1 .08-.08c.27-.11.52-.27.75-.46a.26.26 0 0 1 .26-.04c.47.18.82.46 1.08.85.32.49.62 1 .9 1.5.15.27.37.5.65.62.52.24 1.05.43 1.62.56.42.33.86.66 1.3.98.5.35.66.81.8 1.37.04.2.13.37.27.52a4.42 4.42 0 0 1 .82 1.04h.02a.04.04 0 0 0 .04-.02c.15-.38.28-.77.4-1.16.15-.57.46-.88.8-1.3.2-.28.42-.62.63-1 .13-.25.39-.6.57-.75.45-.35.86-.74 1.23-1.14.24-.27.39-.6.43-.98 1.5-1.7 3.04-3.15 4.59-4.36.51-.4.94-.8 1.28-1.24.29-.37.64-.65.87-1.01.3-.48.62-.97.96-1.46a.23.23 0 0 1 .25-.1c.21.06.4.04.56-.11.54-.5 1.16-.53 1.85-.1a.25.25 0 0 0 .28 0c.28-.2.59-.25.91-.16a.34.34 0 0 1 .2.16.33.33 0 0 1 .02.26c-.1.27-.2.54-.32.8-.09.2-.28.4-.56.64-.79.63-1.56 1.21-2.43 1.72-.81.47-.96 1.22-1.07 2.14-.03.28-.17.58-.38.78a7.06 7.06 0 0 0-1.63 2.32c-.08.17-.2.31-.33.46Z" fill="#111"/><path d="M28.44 16.68a1.7 1.7 0 0 1-.43.98c-.37.4-.78.79-1.23 1.14-.18.15-.44.5-.57.75-.2.38-.42.72-.64 1-.33.42-.64.73-.8 1.3a12.07 12.07 0 0 1-.4 1.17l-.03.01h-.02L24.3 23c-.21-.4-.49-.7-.8-1.02a1.1 1.1 0 0 1-.28-.52c-.13-.56-.3-1.02-.78-1.37-.45-.32-.89-.65-1.31-.98.69-.08 1.4-.14 2.11-.2.1-.01.16-.05.2-.11a.15.15 0 0 0-.03-.2l-.9-.88a.16.16 0 0 1 0-.23c.27-.25.76-.22 1.1-.22.19 0 .38-.01.58-.05.94-.17 1.61-.28 2.03-.34a63.7 63.7 0 0 1 2.22-.21Z" fill="#EF8D3D"/><path d="M33.49 17.42c.48 0 .94.05 1.36.14.17.03.32.1.45.22a.2.2 0 0 1 .07.14c.02.34-.05.84-.5.88-.55.06-1.1.05-1.62.28-.3.13-.61.21-.94.24a.13.13 0 0 0-.1.1.12.12 0 0 0 .04.13c.15.1.34.16.56.18 1.09.06 2.2.05 3.3.23.69.11 1.5.03 2.16.31a.17.17 0 0 1 .1.15c.03.38.09.74.19 1.09.03.12 0 .2-.13.23-.69.19-1.34.2-1.97.05a3.7 3.7 0 0 0-1.28-.07c-.54.06-1.12.05-1.67.02-.54-.02-1.02.2-1.5.36-.36.12-.35.2.02.24.71.07 1.52.15 2.26.12.37-.02.87.02 1.51.11.65.1 1.9.13 3.75.1.07 0 .13.03.16.09.25.43.41.86.48 1.3a.33.33 0 0 1-.22.36c-.63.23-1.25.3-1.87.19-.59-.1-1.36.39-1.8.7-.2.15-.17.24.08.25.59.05 1.33.1 1.9-.12.62-.25 1.83-.31 2.41.22.33.3.65.58.98.85.67.56.45 1.45 0 2.06a.63.63 0 0 1-.41.25c-.29.05-.58.1-.88.18-.12.03-.2.1-.24.2a.2.2 0 0 0 .16.27c.52.07 1.05.13 1.6.17a.4.4 0 0 1 .34.21c.43.77-.02 1.38-.6 1.89a.19.19 0 0 0-.05.19.19.19 0 0 0 .14.13l.23.04a.13.13 0 0 1 .1.1.13.13 0 0 1-.04.13 1.6 1.6 0 0 1-.76.38c-1.3.17-2.43.19-3.41.05a3.8 3.8 0 0 0-1.96.27.1.1 0 0 0-.05.05.1.1 0 0 0 0 .08c.01.05.05.08.1.1.91.17 1.78.44 2.71.4l2.43-.12c.15-.01.43.05.56.13.38.2.79.35 1.22.44l.1.05.04.1a.42.42 0 0 1-.12.35.2.2 0 0 1-.16.07c-.3-.01-.6 0-.88.11a9.4 9.4 0 0 1-1.4.4.52.52 0 0 0-.4.31.1.1 0 0 0 .1.14c.7 0 1.41.05 2.13.14.12.01.18.08.2.2v.06a.28.28 0 0 1-.21.26 55.46 55.46 0 0 0-1.27-.14c-.35-.04-1.59-.03-1.67.46-.15.92 1.04.81 1.07 1.38a.21.21 0 0 1-.07.17.22.22 0 0 1-.18.06 7.05 7.05 0 0 0-2.07.04c-.6.1-1.17.25-1.79.24a12.87 12.87 0 0 0-2.16.19l-.02.02v.04l.02.02.05.04c.06.05.13.07.2.07.43-.03.84 0 1.24.07.04 0 .07.02.09.05.02.03.03.06.03.1 0 .14-.08.22-.23.25-.24.04-.5.04-.77.01l-1.76-.2c-.47-.05-.9-.04-1.3.05-.31.07-.62.1-.92.12-.96.01-1.82.02-2.8-.15-.2-.04-.4-.04-.63 0-.76.11-1.52.15-2.28.1-.86-.05-1.74-.04-2.64.03-.77.06-1.58.02-2.45-.12-.49-.08-.97-.02-1.47 0-.56 0-.95-.2-1.18-.6-.3-.53-.81-.65-1.37-.63a4.74 4.74 0 0 1-1.9-.3.18.18 0 0 1-.1-.22c.08-.3.11-.6.09-.9-.04-.32.07-.58.16-.88a.3.3 0 0 0-.11-.32c-.18-.13-.32-.29-.33-.52-.03-.6-.07-1.19-.12-1.76-.01-.07.02-.1.1-.11.39-.03.79-.13 1.18-.3.07-.03.1-.07.11-.14a.16.16 0 0 0-.12-.18c-.74-.17-1.52-.29-2.28-.3-.47 0-.96-.12-1.45-.36a.25.25 0 0 1-.13-.16c-.08-.32-.03-1.1.48-1.13.56-.03 1.38-.03 1.84-.34.45-.29.89-.56 1.33-.82.3-.17.62-.2.94-.29.42-.1.28-.75-.04-.88-1.24-.49-2.26-.86-1.34-2.43.08-.15.22-.29.41-.42l1.19-.83a.24.24 0 0 0 .1-.27 4.08 4.08 0 0 0-.48-.97c-.35-.52-.17-1.23-.01-1.81.07-.28.35-.36.6-.37l1.39-.06c.05 0 .1-.02.14-.06l1.08-.88c.35 1.19.84 2.3 1.46 3.35.43.7.73 1.34 1.04 2.06.25.59.93.8 1.1 1.19.33.74.7 1.43 1.1 2.08.26.41.32.77.33 1.24 0 .1.04.16.14.17.7.15 1.45-.07 2.12-.25.6-.15.8-.6.85-1.15 0-.06.03-.11.08-.16.16-.17.32-.37.37-.62.12-.62.33-1.16.75-1.65.28-.32.49-.65.62-1 .37-.92.7-1.89 1.01-2.9.06-.18.23-.47.53-.88.5-.67 1.06-1.25 1.61-1.85.18-.2.36-.46.55-.79.31-.55.7-1 1.17-1.38ZM36.13 40.8a.12.12 0 0 0-.05.13l.13.57a.38.38 0 0 1-.22.44c-.38.16-.8.2-1.26.15a.16.16 0 0 0-.15.07c-.18.21-.36.41-.57.6-.18.15-.4.24-.58.38a.23.23 0 0 0-.08.15c-.05.25-.08.5-.11.76-.07.6-.93.4-1.28.26-.55-.2-1.36.18-1.9.37-.97.35-1.97.34-3 .3-1.06-.02-2.48-.22-3.38-.84a4.91 4.91 0 0 0-1.81-.74c-.35-.07-.52-.34-.8-.52-.27-.2-.7-.38-1.28-.58-.64-.22-.71-1.01-1.31-1.24l-.38-.14a.2.2 0 0 1-.11-.1c-.5-1.1 1.7-.96 2.18-.93a42.48 42.48 0 0 0 4.98.07c.85-.01 1.67-.08 2.51-.15.8-.07 1.61.02 2.39-.11 1.25-.22 2.36.27 3.6.17.79-.07 1.55-.08 2.28-.05 1.21.05 2.33.03 3.35-.08.07 0 .12.02.15.1.18.46-.4.63-.72.66l-2.28.2c-.11.02-.2.05-.3.1Z" fill="#EF8D3D"/></svg>