<!-- by TradingView --><svg width="56" height="56" viewBox="0 0 56 56" xmlns="http://www.w3.org/2000/svg"><path fill="#F0F3FA" d="M0 0h56v56H0z"/><path d="M27.5 30.84c.07.1.02.16-.17.16-.08 0-.16-.05-.23-.14l.2-.39c.1-.08.19-.18.2-.3a10.1 10.1 0 0 0 .02-3.15.22.22 0 0 0-.22-.19c-.62 0-1.17.18-1.65.57-.38-.2-.75-.33-1.1-.38-.33-.05-.37-.18-.1-.38l.51-.4a6.35 6.35 0 0 1 2.6.1.2.2 0 0 0 .14-.1.21.21 0 0 0 .02-.1c.02-.42-.08-1.12-.5-1.35-1.41-.76-2.42-2.05-2.24-3.7.1-.93.36-1.61.79-2.06.57-.6.93-1 1.07-1.19.28-.34.44-.75.48-1.25a.34.34 0 0 0-.17-.34c-.2-.12-.39-.07-.51.13l-.8 1.24-2.1 3.47-.87 1.3h-.02l-.05-.03a.06.06 0 0 1-.03-.04v-.05l.48-.92 1.48-3.6 1.05-2.1c.1-.23.05-.62.2-.92.34-.69.9-.89 1.67-.6.7.25.8 1.2 1.01 1.84.02.06.02.13 0 .2l-.1.34c-.05.14-.07.13-.08 0-.03-.82-.19-2.17-1.22-2.32-1.15-.16-1.54 1.34-.5 1.59.17.04.34.06.52.07a.44.44 0 0 1 .4.45c0 1.13-.72 2.04-1.49 2.83a3.2 3.2 0 0 0 .5 4.83c.5.35 1.12.1 1.3.84a3.8 3.8 0 0 1 .01 1.85c-.1.38-.13.75-.1 1.1.04.73.05 1.38 0 1.96-.02.3-.16.68-.4 1.13Z" fill="#303135"/><path d="M27.08 15.21c.19-.03.32-.18.3-.33-.03-.14-.2-.24-.39-.2-.19.02-.32.17-.3.32.03.15.2.24.39.21Z" fill="#303135"/><path d="M26.38 15.94a.05.05 0 0 1 .03.05l-.01.02-.02.03a31.04 31.04 0 0 1-.85 1.45c-.12.18-.22.33-.3.42-.07.1-.11.14-.13.13l-.02-.01c-.02-.01-.01-.08.03-.19s.1-.27.2-.47a18.87 18.87 0 0 1 .76-1.5l.02-.04a.05.05 0 0 1 .03-.02h.03l.23.13Z" fill="#BDC0D0"/><path d="m32.31 24.33-1.92.39c-.4.08-.52.3-.38.68.13.34.28.64.47.93a.43.43 0 0 1-.05.52.42.42 0 0 1-.15.1c-.42.17-.77.12-1.05-.15a.24.24 0 0 0-.4.13c-.16.8-.28 1.63-.37 2.5-.05.57.02.99.22 1.25.04.05.08.19.1.41-.48 0-.66-.06-.54-.18a5.89 5.89 0 0 1-.05-2.04l.18-1.19.18-2.28c.04-.53.47-1.03 1.03-1.07.79-.05 1.53-.17 2.23-.36.1-.03.12-.09.06-.17a.96.96 0 0 0-.9-.46c-1 .04-1.87 0-2.6-.13-.45-.08-.8-.31-1.06-.7-.25-.38-.2-.43.15-.15a3 3 0 0 0 1.78.6c1.32.07 2.42.07 3.3 0 .18-.01.2-.07.05-.18-.98-.71-1.71-1.88-2.82-2.52-1.03-.61-2.24-.24-2.82.81a.14.14 0 0 1-.12.07.14.14 0 0 1-.12-.07c-.25-.44.18-1.55.45-1.97.5-.76.9-1.52 1.22-2.27.04-.1.08-.1.1.01.07.39.01.73-.18 1.02a10.1 10.1 0 0 0-.98 1.92c-.1.29-.03.35.23.19.2-.12.4-.32.63-.35.97-.1 1.76.14 2.36.72.87.82 1.61 1.82 2.76 2.26.38.14.38.3.02.47-.46.22-.66.57-.6 1.06.02.08-.02.14-.1.17-.1.04-.2.05-.3.03Z" fill="#303135"/><path d="M24.5 17.74c-.1.15-.2.23-.34.25-1.12.13-2.2.29-3.23.46a7.35 7.35 0 0 0-4.17 2.14.43.43 0 0 0-.1.18c-.03.08 0 .12.08.12h3c.15 0 .3-.05.4-.16a10.84 10.84 0 0 1 3.9-2.47c.12-.05.16-.01.13.12l-.02.05a.47.47 0 0 1-.22.28c-1.02.57-2.22 1.2-2.96 2.1-.07.08-.05.13.06.14.57.05 1.15.07 1.74.06.06 0 .12.01.17.05.05.05.09.11.1.19-.14.2-.34.3-.59.29-2.25-.05-4.39-.07-6.4-.06-.27 0-.7.05-.78.36-.06.23.11.41.52.54h.03c.54.12 1.44.2 1.73.77a48.8 48.8 0 0 0 1.79 3.19l1 1.7c.31.56.64 1.13.99 1.71-.29-.05-.6-.19-.96-.42-.16-.62-.58-.82-1.27-.6-.16-.2-.2-.4-.12-.59.18-.1.37-.11.58-.06a.07.07 0 0 0 .09-.06l-.01-.04-.61-1.1-.27-.68c-.17-.41-.48-.6-.93-.58-.24.01-.33-.1-.28-.36.16-.45.07-.88-.26-1.3.04-.6-.17-.93-.62-1a4.29 4.29 0 0 0-1.86.17.77.77 0 0 0-.7.44 10.14 10.14 0 0 0-1.29 4.24c0 .07.03.11.1.12l.95.05c-.09.08-.11.28-.07.6-.25.07-.51.06-.77-.03a.17.17 0 0 0-.21.1 9.53 9.53 0 0 0 1.37 4.7.55.55 0 0 0 .46.26h1.46l.03.6-1.3-.01c-.11 0-.13.04-.06.13 2.35 2.72 5.84 4.17 9.34 4.43.32.02.33-.02.03-.14a11.29 11.29 0 0 1-3.8-2.52c.42-.14.85-.08 1.31.19a8.66 8.66 0 0 0 3.64 2.11c.14.04.18 0 .1-.13l-.73-1.38.95.13 2.28 4.07c.06.1.12.1.18 0l2.07-3.91c.36-.13.68-.15.96-.06-.18.5-.4.91-.68 1.25-.04.06-.03.08.04.06a8.68 8.68 0 0 0 3.66-1.77c.66-.37 1.18-.48 1.57-.33l-2.8 1.86a7.12 7.12 0 0 1-2.05.75l.01.06c.01.04.04.07.09.06 2.91-.23 5.71-.7 8.07-2.37.7-.5 1.44-1.1 2.2-1.77.08-.08.07-.11-.04-.11l-1.54-.01c-.17-.22-.2-.42-.07-.62l1.84.06a.6.6 0 0 0 .54-.3 9.6 9.6 0 0 0 1.42-4.66c0-.09-.04-.13-.13-.13H42.1a.71.71 0 0 1 0-.6h1.12c.08 0 .12-.03.12-.11.05-1.71-.65-3.13-1.4-4.6a.24.24 0 0 0-.17-.13c-.35-.1-.72-.11-1.1-.05l-1.28-.34a.42.42 0 0 0-.5.24c-.12.28-.18.5-.19.66-.53.55-.35 1.07-.12 1.77.07.34-.23.57-.51.42a1.18 1.18 0 0 0-.17-.45c-.05-.07-.1-.07-.14 0l-.62.9c-.1.1-.16.2-.16.3l-.58 1.07c-.04.07-.02.13.06.16.13.06.26.06.4.02.02.18-.04.39-.18.61-.58-.14-.95.1-1.13.76l-1.1.44c1.36-2.17 2.66-4.38 3.9-6.63.49-.9 1.28-.83 2.14-.91a.37.37 0 0 0 .33-.28c.1-.4-.3-.55-.61-.56-2.23-.08-4.6-.11-7.12-.11-.51 0-.94-.2-1.27-.6-.86-1.01-1.9-2.2-3.04-2.78a.11.11 0 0 0-.1 0 .11.11 0 0 0-.06.1c-.02.53-.14.83-.35.9a.2.2 0 0 1-.26-.15l.01-.12c.23-.5.46-1 .7-1.48.02-.06.07-.1.14-.1 1.64.03 2.97.13 3.98.3 2.47.4 4.45.84 5.93 1.32 1.3.42 2.7.96 4.23 1.6 2.37 1.02 4.4 2.35 5.84 4.5.66 1 1.04 2 1.13 3.03a7.61 7.61 0 0 1-.78 4.14c-.4.8-.99 1.52-1.75 2.13-.82.66-1.6 1.17-2.36 1.52A37.45 37.45 0 0 1 36 38.92a42.8 42.8 0 0 1-6.07.7.38.38 0 0 0-.34.22l-.97 1.77A.74.74 0 0 1 28 42a.73.73 0 0 1-.64-.36l-1.13-1.87a.3.3 0 0 0-.22-.15l-3.1-.45a35.43 35.43 0 0 1-7.66-2.03c-2-.8-3.71-1.56-5.1-2.3a6.3 6.3 0 0 1-2.05-1.62c-.52-.66-1.07-1.4-1.4-2.19-.4-.9-.63-1.88-.7-2.93a4 4 0 0 1 .17-1.4 8.77 8.77 0 0 1 3.8-5.1c1.13-.7 2.55-1.35 4.27-1.93 2.8-.95 5.13-1.54 7-1.77a452.6 452.6 0 0 1 3.28-.35.1.1 0 0 1 .03.06c.01.04 0 .08-.05.13Z" fill="#303135"/><path d="M26.69 17.56c-.12.34-.33.54-.62.6a.2.2 0 0 1-.25-.2c0-.1.05-.17.15-.24.26-.18.5-.23.72-.16Z" fill="#303135"/><path d="M26.69 17.56c-.02.12.03.22.15.28-.14.2-.5.6-1.07 1.2-.43.44-.7 1.12-.8 2.05-.17 1.65.84 2.94 2.24 3.7.43.23.53.93.5 1.36a.21.21 0 0 1-.16.2 6.35 6.35 0 0 0-2.59-.11l-.12-.2-1.15-2.5c-.04-.07-.02-.13.06-.17l.62-.36a.53.53 0 0 0 .28-.45c0-.43-.07-.88-.23-1.34a.21.21 0 0 0-.14-.14c-.12-.04-.25.03-.4.22-.01-.1-.06-.17-.14-.2l2.1-3.48c0 .05.04.09.13.1-.1.07-.15.15-.15.24a.2.2 0 0 0 .15.2.2.2 0 0 0 .1 0c.29-.06.5-.26.62-.6ZM24.5 17.74c.08.02.16.03.23.01l-1.48 3.6a.58.58 0 0 0-.22-.1.26.26 0 0 0-.1-.19.24.24 0 0 0-.16-.05c-.6 0-1.17-.01-1.74-.06-.11 0-.13-.06-.06-.15.74-.89 1.94-1.52 2.96-2.09a.47.47 0 0 0 .22-.28l.02-.05c.03-.13 0-.17-.13-.12-1.5.56-2.8 1.39-3.9 2.47a.59.59 0 0 1-.4.17h-3c-.08 0-.11-.05-.09-.13a.43.43 0 0 1 .11-.18 7.35 7.35 0 0 1 4.17-2.14c1.03-.17 2.1-.33 3.23-.46.13-.02.25-.1.34-.25ZM29.25 18.14c-.02 0-.02-.01 0-.01.12-.02.23 0 .35.02 1.96.51 3.72 1.46 5.28 2.86.1.1.09.14-.05.14l-2-.05a.57.57 0 0 1-.41-.2 11.14 11.14 0 0 0-3.17-2.76ZM31.6 18.15c.84.1 1.65.2 2.42.33 2.27.36 4.17 1.23 5.68 2.6.1.1.09.14-.05.15-1.05.02-2.04.01-2.98 0-.36-.02-.7-.01-.98-.3a12.15 12.15 0 0 0-4.35-2.7.07.07 0 0 1 .02-.1.15.15 0 0 1 .12-.01l.11.03ZM9.85 22.4c2.09-1.54 4.76-2.36 7.24-3.08a.04.04 0 0 1 .04.02v.05c-.7.65-1.45 1.24-2.27 1.75a.55.55 0 0 0-.21.24c-.2.43-.44.8-.74 1.1a.38.38 0 0 1-.3.12l-3.7-.04c-.18 0-.2-.06-.06-.16ZM41.26 20.63c1.68.6 3.22 1.4 4.64 2.35.2.14.17.2-.07.2h-2.95c-.33 0-.64-.03-.84-.33-.8-1.2-1.64-1.88-2.66-2.74-.35-.3-.32-.35.1-.17.58.24 1.17.47 1.78.69Z" fill="#75D0F7"/><path d="M24.84 26.03c-.3.14-.52.09-.68-.16a13.42 13.42 0 0 1-1.34-2.69.28.28 0 0 1 .18-.25l.98-.39a.4.4 0 0 0 .2-.16c.19-.3.12-.54-.21-.74a.24.24 0 0 1-.12-.19c0-.06 0-.11.03-.15.15-.19.28-.26.4-.22.07.02.12.07.14.14.16.46.24.9.23 1.34a.54.54 0 0 1-.27.45l-.63.36c-.08.04-.1.1-.06.18l1.15 2.48Z" fill="#303135"/><path d="M17.29 23.95a3.99 3.99 0 0 0-.06 1.58.12.12 0 0 0 .16.04c.1-.06.15-.16.16-.31-.05.25.04.37.28.36.45-.03.76.17.93.58l.27.68c-.25.27-.26.7-.05 1.26-.08.2-.04.39.12.6.37.28.79.48 1.27.6.35.22.67.36.96.41 1.42.57 2.99.97 4.7 1.22.43.06.79.02 1.07-.11.07.09.15.13.23.14.19 0 .24-.05.17-.16.25.15.5.17.74.07-.12.12.06.18.54.18 1.88.05 3.77-.24 5.67-.87l1.1-.44c.35-.05.7-.16 1.07-.32.1-.05.16-.1.18-.16.02-.1-.02-.18-.12-.28.14-.22.2-.43.18-.61.18-.46.22-.87.12-1.25 0-.1.06-.2.16-.3.39-.05.7-.2.93-.45.28.15.58-.08.51-.42.01.08.03.13.04.14a.12.12 0 0 0 .12-.01.12.12 0 0 0 .06-.1c0-.6-.03-1.2-.1-1.8 0-.16.07-.38.19-.66a.43.43 0 0 1 .5-.24l1.28.34c.5.42 1.12.47 1.25 1.3.11.68.14 1.77.08 3.26 0 .17.03.28.1.33a.71.71 0 0 0 0 .6c-.4.24.25 2.73-.62 3.3-.49.31-1.03.6-1.6.88-.35.16-.44.5-.3.85-.14.2-.11.4.06.62-.45.26-.77.42-.96.46-1.07.25-2.07.6-2.98 1.07-.4-.15-.91-.04-1.57.33l-3.02.46c-.28-.09-.6-.07-.96.06l-4.53-.16-.95-.13-3.01-.6c-.46-.27-.9-.33-1.3-.2a2.2 2.2 0 0 0-.77-.51c-1.42-.4-2.45-.66-3.45-1.37l-.03-.6c.05-.38.04-.77-.03-1.16a.22.22 0 0 0-.14-.17c-.73-.31-1.99-.78-2.04-1.69-.03-.57-.03-1.2 0-1.9a.15.15 0 0 0-.04-.1c-.04-.05-.06-.05-.06-.01-.04-.32-.02-.52.07-.6.03-1.2.12-2.4.27-3.61.03-.25.1-.47.24-.66l.43-.58c.64-.2 1.26-.25 1.86-.17.45.07.66.4.62 1Z" fill="#CE3B28"/><path d="M6.67 27.65a7.57 7.57 0 0 1 2.28-4.45c.1-.09.2-.13.33-.13l4.22.05a.04.04 0 0 1 .03.02.04.04 0 0 1 0 .03 14.45 14.45 0 0 0-1.4 4.64c0 .08-.06.12-.14.12l-5.13-.06a.19.19 0 0 1-.19-.22ZM14.81 23.13l-.43.58c-.13.2-.21.41-.24.66a38.04 38.04 0 0 0-.27 3.61l-.94-.05c-.08-.01-.11-.05-.1-.12.07-1.39.5-2.8 1.27-4.24.16-.3.4-.44.71-.44Z" fill="#75D0F7"/><path d="m14.9 24.03 1.21-.52a.3.3 0 0 1 .39.15l.03.15-.07 1.32a.3.3 0 0 1-.16.26.3.3 0 0 1-.3-.03l-1.15-.8a.3.3 0 0 1-.07-.43.3.3 0 0 1 .13-.1Z" fill="#FEEF1F"/><path d="M40.67 23.66c.38-.06.75-.04 1.1.05.07.02.13.06.16.13.76 1.47 1.46 2.89 1.41 4.6 0 .08-.04.12-.12.12l-1.12-.01c-.07-.05-.1-.16-.1-.33.06-1.5.03-2.58-.07-3.26-.14-.83-.76-.88-1.26-1.3ZM43.15 24.87a29.7 29.7 0 0 0-.5-1.12l.01-.03.02-.02.03-.01c1.3.03 2.57.04 3.8.03.14 0 .27.06.39.17.85.82 1.54 1.8 2.05 2.93a5.4 5.4 0 0 1 .37 1.76.16.16 0 0 1-.09.1.15.15 0 0 1-.06 0l-4.92-.1c-.1 0-.15-.04-.16-.13-.12-1.2-.43-2.4-.94-3.58Z" fill="#75D0F7"/><path d="M17.29 23.95c.33.43.42.86.26 1.3-.01.16-.07.26-.16.32a.12.12 0 0 1-.19-.1 3.99 3.99 0 0 1 .09-1.52Z" fill="#BDC0D0"/><path d="m39.87 24.06 1.3.61a.36.36 0 0 1 .21.33.37.37 0 0 1-.2.33l-1.37.69a.36.36 0 0 1-.48-.16.36.36 0 0 1-.04-.19l.07-1.3a.36.36 0 0 1 .17-.3.36.36 0 0 1 .34-.01Z" fill="#FEEF1F"/><path d="M38.7 24.22a15.25 15.25 0 0 1 .08 1.85.12.12 0 0 1-.16.06c-.01-.01-.03-.06-.04-.14-.23-.7-.41-1.22.12-1.77Z" fill="#BDC0D0"/><path d="m32.31 24.33-.05.4c-.18-.07-.39-.06-.49.11-.4.62-.7 1.23-.93 1.81-.09.22-.2.4-.37.55-.23.22-.41.48-.53.78a.44.44 0 0 1-.24.24c-.26.12-.53-.02-.77.14a.24.24 0 0 0-.12.25.26.26 0 0 0 .16.22c.08.03.16.04.24.05.1 0 .12.05.07.14-.3.5-.7 1.04-.6 1.66-.2-.26-.27-.68-.22-1.25.1-.87.21-1.7.36-2.5a.25.25 0 0 1 .17-.19.24.24 0 0 1 .24.06c.28.27.63.32 1.05.16a.42.42 0 0 0 .25-.27.43.43 0 0 0-.05-.36 4.75 4.75 0 0 1-.47-.93c-.14-.37-.01-.6.38-.68l1.92-.4Z" fill="#75D0F7"/><path d="M32.26 24.72c.1.1.13.22.05.35-1.1 1.8-2.19 3.64-3.24 5.48-.07.12-.2.16-.4.13-.09-.62.3-1.16.6-1.66.06-.09.04-.14-.07-.14a.75.75 0 0 1-.23-.05.26.26 0 0 1-.16-.22c-.01-.1.03-.19.12-.25.24-.16.5-.02.77-.14a.44.44 0 0 0 .24-.24c.12-.3.3-.56.53-.78.16-.15.28-.33.36-.55.23-.58.54-1.19.94-1.8.1-.18.31-.2.49-.13Z" fill="#303135"/><path d="M17.79 26.64c-.4.05-.87.11-1.22.34a.33.33 0 0 0-.14.2c-.08.35-.12.7-.13 1.07-.04 1.05-.06 2.1-.07 3.14 0 .25-.12.32-.34.2L15 31.1a.76.76 0 0 1-.4-.65c-.05-1.65-.03-3.32.07-5.01 0-.12.06-.14.15-.08.84.54 1.8.88 2.91 1.02.06 0 .1.03.14.07a.1.1 0 0 1 .02.09c0 .06-.04.1-.1.1Z" fill="#FEEF1F"/><path d="M38.07 26.41c-.23.25-.54.4-.93.45l.62-.9c.05-.07.1-.07.14 0 .08.12.14.27.17.45Z" fill="#BDC0D0"/><path d="M38.53 26.93a10.4 10.4 0 0 0 2.67-.78l.02.01v.03a41.63 41.63 0 0 1-.07 5.62 9.8 9.8 0 0 1-1.56.92c-.01-1.34 0-2.73.04-4.17.03-.9-.92-1.02-1.6-1.15a.14.14 0 0 1-.1-.1.14.14 0 0 1 .05-.15c.16-.11.34-.2.55-.23Z" fill="#FEEF1F"/><path d="M27.3 30.47c0-.05-.03-.09-.07-.1.13-.46-.28-1.03-.57-1.38a.13.13 0 0 1 .11-.2l.35.04c.07 0 .13-.01.18-.06.1-.1.12-.23.06-.4a.28.28 0 0 0-.3-.18c-.24.04-.46.04-.68-.02a.4.4 0 0 1-.2-.12c-.19-.2-.4-.3-.65-.34l.12-.31a2.53 2.53 0 0 1 1.65-.57.22.22 0 0 1 .22.19 10.1 10.1 0 0 1-.01 3.15c-.02.12-.12.22-.2.3Z" fill="#75D0F7"/><path d="m19.03 26.88.6 1.1a.07.07 0 0 1 0 .08.07.07 0 0 1-.07.02.79.79 0 0 0-.58.06c-.21-.57-.2-.99.05-1.26Z" fill="#BDC0D0"/><path d="m17.3 27.3.73-.17a.19.19 0 0 1 .23.18l.01.76a.2.2 0 0 1-.1.18.19.19 0 0 1-.2-.03l-.75-.6a.19.19 0 0 1-.07-.18.19.19 0 0 1 .15-.15Z" fill="#FEEF1F"/><path d="M36.98 27.16c.1.38.06.8-.12 1.25a.56.56 0 0 1-.4-.02c-.08-.03-.1-.09-.06-.16l.58-1.07Z" fill="#BDC0D0"/><path d="M25.53 27.7c.25.04.46.15.64.35.06.06.13.1.2.12.23.06.45.06.68.02a.28.28 0 0 1 .31.18c.06.17.04.3-.05.4a.21.21 0 0 1-.2.06l-.34-.05a.13.13 0 0 0-.13.07.13.13 0 0 0 .02.14c.29.35.7.92.57 1.38-.21.1-.38.07-.5-.11a57.3 57.3 0 0 1-1.34-2.38c-.03-.06-.04-.1-.01-.13s.08-.04.15-.04Z" fill="#303135"/><path d="m37.44 28.86.06-.74a.16.16 0 0 1 .06-.11.16.16 0 0 1 .13-.03l.9.22a.16.16 0 0 1 .12.13.16.16 0 0 1-.08.16l-.96.52a.16.16 0 0 1-.23-.15ZM19.04 29.59a21.4 21.4 0 0 0 8.41 2.2c.23.02.39.14.62.14 2.66 0 5.39-.5 8.18-1.53a14.48 14.48 0 0 0 2.65-1.28.08.08 0 0 1 .07.04l.01.04-.15 5.09a.25.25 0 0 1-.14.22c-.36.17-.74.3-1.13.43-3.68 1.1-7.57 1.73-11.31 1.3C23 35.9 20 35.3 17.2 33.97c-.23-.11-.35-.3-.36-.57-.09-1.43-.04-3.07.13-4.92.01-.1.06-.13.15-.06.6.45 1.24.84 1.92 1.18Z" fill="#FEEF1F"/><path d="M9.21 33.38a6.96 6.96 0 0 1-2.49-4.79c0-.12.05-.18.17-.17l5.12.13c.04 0 .08.01.1.04.04.03.05.07.06.1a10.8 10.8 0 0 0 1.33 4.78c.06.1.03.15-.08.15l-3.83-.1a.6.6 0 0 1-.38-.14ZM13.8 28.58c0-.04.02-.04.06 0 .03.04.05.08.05.12-.04.7-.04 1.32 0 1.9.04.9 1.3 1.37 2.03 1.68.08.03.12.09.14.17.07.4.08.78.03 1.16h-1.46a.54.54 0 0 1-.46-.27 9.54 9.54 0 0 1-1.37-4.7.18.18 0 0 1 .13-.1l.08.01c.26.09.52.1.77.03Z" fill="#75D0F7"/><path d="M19.1 28.74c.69-.23 1.1-.03 1.27.6-.48-.12-.9-.32-1.27-.6ZM36.68 29.02c.1.1.14.19.12.28-.02.06-.08.11-.18.16-.36.16-.72.27-1.07.32.18-.65.55-.9 1.13-.76Z" fill="#BDC0D0"/><path d="M42.1 29.15h1.14c.09 0 .13.05.13.13a9.6 9.6 0 0 1-1.42 4.65.6.6 0 0 1-.54.3c-.6 0-1.22-.02-1.84-.05-.13-.34-.04-.69.3-.85.59-.27 1.12-.57 1.6-.88.88-.57.24-3.06.63-3.3ZM42.59 34.15a11.37 11.37 0 0 0 1.46-4.81.15.15 0 0 1 .16-.15l5.08.11a.1.1 0 0 1 .07.03.1.1 0 0 1 .03.08 7.04 7.04 0 0 1-2.55 4.83.48.48 0 0 1-.3.1 54.38 54.38 0 0 1-3.93-.1.07.07 0 0 1-.02-.1Z" fill="#75D0F7"/><path d="M21.93 31.55c-.01.3-.1.54-.28.72a.28.28 0 0 1-.27.07.28.28 0 0 1-.2-.2c-.06-.2-.03-.34-.2-.5-.85-.78-1.91.2-2.01 1.15a.95.95 0 0 0 1.5.9.27.27 0 0 1 .4.1c.03.05.04.1.03.16a.92.92 0 0 1-.3.55.36.36 0 0 1-.27.1c-1.1-.05-2.53-.86-2.4-2.18.13-1.25 1.27-1.84 2.44-1.67.51.07 1 .27 1.45.59.08.05.11.12.11.21ZM35.81 33.48c-.2.03-.25.14-.17.33l.15.36c.07.16.2.24.37.21.38-.05.6-.25.68-.6a.22.22 0 0 1 .25-.18c.04 0 .07.02.1.04.19.16.3.37.37.63.01.06 0 .12-.03.18a.25.25 0 0 1-.14.11c-.78.27-1.6.46-2.5.58-.22.03-.3-.07-.25-.3.04-.16.1-.25.07-.44-.11-.71-.4-1.77-1.02-2.16a.2.2 0 0 1-.09-.2.2.2 0 0 1 .14-.17l2.51-.76a.25.25 0 0 1 .31.17l.18.6c.04.14 0 .22-.16.25a.52.52 0 0 1-.52-.18.31.31 0 0 0-.27-.12 1 1 0 0 0-.4.11.35.35 0 0 0-.17.17.36.36 0 0 0-.02.24l.12.45c.05.2.16.26.35.16.15-.09.28-.2.39-.34a.3.3 0 0 1 .54.13l.1.58a.15.15 0 0 1-.03.13.14.14 0 0 1-.13.03 1.96 1.96 0 0 0-.73-.01ZM23.08 34.1c-.12.25-.1.5.07.79a.2.2 0 0 1 0 .21.2.2 0 0 1-.2.1l-1.38-.2a.24.24 0 0 1-.2-.18.24.24 0 0 1 .1-.25c.21-.15.38-.27.47-.54.19-.55.63-1.78.27-2.29a.15.15 0 0 1 .06-.23 9.5 9.5 0 0 1 2.23.5c.82.32 1.03 1.58.05 1.89-.1.03-.13.1-.1.2.12.42.3.79.55 1.08.15.19.1.3-.13.31-1.28.1-1.06-.54-1.47-1.38a.18.18 0 0 0-.16-.1.18.18 0 0 0-.16.1ZM32.55 34c.03-.6-.14-1.1-.5-1.49a.27.27 0 0 1 .17-.45l.95-.1a.24.24 0 0 1 .22.11.24.24 0 0 1 .01.25c-.1.19-.22.36-.23.58-.01.8.08 1.55.27 2.28.03.1-.01.17-.12.2-.29.07-.56.08-.82.01-.55-.14-1.39-1.16-1.74-1.59-.17-.2-.25-.18-.24.1.04.56.05 1 .53 1.36a.17.17 0 0 1 .02.25.17.17 0 0 1-.08.05c-.35.1-.73.14-1.12.14a.19.19 0 0 1-.16-.1.2.2 0 0 1 0-.18l.22-.42a.35.35 0 0 0 .04-.24c-.15-.67-.09-1.48-.6-1.98a.24.24 0 0 1 0-.36.24.24 0 0 1 .13-.05l1.06-.12a.5.5 0 0 1 .47.22 8.7 8.7 0 0 0 1.38 1.58c.08.08.13.06.14-.06ZM26.72 35.04c.16.14.2.32.14.54-.03.09-.1.13-.18.12l-1.16-.15a.17.17 0 0 1-.14-.12.17.17 0 0 1 .07-.18c.24-.18.45-.32.59-.6.36-.76.66-1.49.9-2.2a.24.24 0 0 1 .25-.17h.76a.27.27 0 0 1 .25.2l.67 2.19c.09.25.22.47.42.66a.27.27 0 0 1-.2.47l-1.16-.04a.23.23 0 0 1-.22-.2v-.1l.1-.37a.14.14 0 0 0-.14-.18h-.9c-.13 0-.15.05-.05.13Z" fill="#CE3B28"/><path d="M23.58 32.48a.12.12 0 0 1 .15-.07l.07.02c.12.04.23.14.28.25.06.12.07.25.03.37l-.02.05a.46.46 0 0 1-.25.27.5.5 0 0 1-.38 0l-.07-.02a.12.12 0 0 1-.07-.15l.26-.72ZM27.39 33.57c.04-.05.08-.05.1.01a1 1 0 0 1 .09.53.14.14 0 0 1-.14.12h-.21c-.1 0-.13-.04-.1-.13.05-.18.14-.36.26-.53Z" fill="#FEEF1F"/><path d="M16.86 37.14c-1.9-.65-3.76-1.48-5.68-2.27a3.6 3.6 0 0 1-1.04-.64c-.09-.08-.07-.12.05-.12l3.58.04c.09 0 .16.03.21.1.9 1.07 1.9 1.99 2.96 2.74.31.22.29.27-.08.15ZM16.14 34.2c1 .72 2.03.98 3.45 1.38.19.05.44.22.77.52 1.18 1.15 2.44 2 3.79 2.52.3.12.29.16-.03.14-3.5-.26-7-1.71-9.34-4.43-.07-.09-.05-.13.07-.13h1.3ZM39.64 34.8h1.54c.1 0 .12.04.04.12-.76.68-1.5 1.27-2.2 1.77-2.36 1.68-5.16 2.14-8.07 2.37-.05 0-.08-.02-.09-.06v-.08a7.12 7.12 0 0 0 2.04-.73l2.8-1.86c.91-.47 1.9-.82 2.98-1.07.2-.04.51-.2.96-.46ZM38.99 37.52c.91-.71 1.88-1.53 2.9-2.45.15-.13.35-.2.54-.2l3.42.06c.11 0 .12.03.02.08a39.12 39.12 0 0 1-7.15 2.76c-.24.06-.25.03-.04-.1.1-.06.21-.07.3-.15ZM24.67 36.9l.74 1.37c.07.13.03.17-.11.13a8.67 8.67 0 0 1-3.64-2.11l3.01.6ZM34.13 36.66a8.68 8.68 0 0 1-3.66 1.77c-.07.02-.08 0-.04-.06.28-.34.5-.75.68-1.25l3.02-.46Z" fill="#75D0F7"/></svg>