<!-- by TradingView --><svg width="56" height="56" viewBox="0 0 56 56" xmlns="http://www.w3.org/2000/svg"><path fill="#F0F3FA" d="M0 0h56v56H0z"/><path d="m35.79 11.59-2.3 4.73a.09.09 0 0 1-.11.04c-1.92-.75-4.4-1.43-6.4-.89a1074.97 1074.97 0 0 1-5 1.34l-.03-.02a.06.06 0 0 1 0-.06c1.9-4.7 5.96-7.98 11.2-6.27.83.27 1.69.59 2.58.96.08.04.1.1.06.17Z" fill="#D4252D"/><path d="M20.06 18.67a12.1 12.1 0 0 0-4.2 7.5 20.9 20.9 0 0 1-.52 2.28l-.03.01a.05.05 0 0 1-.04-.02 484.5 484.5 0 0 1-2.2-3.62 2.35 2.35 0 0 1-.3-1.08c-.25-4.1 1.37-7.04 4.86-8.84.07-.03.13-.02.18.05l2.28 3.54c.04.07.03.13-.03.18ZM35.64 17.71c4.46-.91 8.17 1.15 9.1 5.86.1.52.2 1.04.26 1.58 0 .06-.02.1-.07.11l-3.95 1.26c-.08.03-.14 0-.18-.07-1-1.96-2.15-4.03-3.45-6.21a14.22 14.22 0 0 0-1.75-2.4c-.07-.06-.06-.1.04-.13ZM38.47 28.54a10.5 10.5 0 0 1-3 7.34 10.24 10.24 0 0 1-7.25 3.04c-2.71 0-5.32-1.1-7.24-3.04a10.45 10.45 0 0 1 0-14.68 10.18 10.18 0 0 1 16.7 3.37c.52 1.26.79 2.61.79 3.97Z" fill="#ECBA20"/><path d="M30.7 22h2.68l.03.01.03.02a.06.06 0 0 1 0 .05l-3.68 13.87-.02.04a.07.07 0 0 1-.04.01h-2.95l-.04-.01a.06.06 0 0 1-.03-.04l-4.32-13.87v-.03s0-.02.02-.02l.02-.02.03-.01h2.91c.02 0 .03 0 .04.02.02 0 .02.02.03.03l2.53 9.15c0 .02.02.03.03.04l.04.01h.04l.03-.04 2.55-9.16.03-.03.04-.02ZM37 38.19c1.8-2.28 4.63-6.46 3.99-9.43-.03-.13 0-.14.09-.05 1.16 1.32 2.61 3.06 2.79 4.87a7.52 7.52 0 0 1-4.16 7.7c-.08.05-.15.03-.2-.04l-2.52-2.92a.1.1 0 0 1-.02-.07c0-.02 0-.04.02-.06Z" fill="#D4252D"/><path d="M20.66 39.07c.2.1.43.15.65.14h.02l.02.06c.02.05 0 .08-.05.08l-4.62.02a2.5 2.5 0 0 1-1.06-.23c-3.18-1.46-4.67-4.36-4.62-7.83 0-.08.04-.12.12-.12l4.35-.21c.07 0 .12.03.13.1.56 3.16 2.18 6.51 5.06 7.99Z" fill="#C8162B"/><path d="M34.5 39.54c-1.18 2.87-3.52 6.2-6.92 6.42-1.89.13-4.07.02-5.38-1.37a.2.2 0 0 1-.04-.21l1.45-4.02c.02-.07.08-.1.15-.08 3 .92 7.66 1.75 10.03-.57.17-.17.38-.26.62-.3.1 0 .13.03.09.13Z" fill="#ECBA20"/></svg>