<!-- by TradingView --><svg width="56" height="56" viewBox="0 0 56 56" xmlns="http://www.w3.org/2000/svg"><path fill="#F0F3FA" d="M0 0h56v56H0z"/><circle cx="28" cy="28" r="16" fill="url(#asgun3bqq)"/><path d="M16.34 15.38c.19.04.4.07.65.07 1.09 0 1.19.58 1.98 1.02.67.36 1.34.76 2.01 1.2.27.16.51.37.72.6.47.52 1.15.78 1.33 1.54.13.53.35.98.68 1.36.34.4.55.88.6 1.45.02.11.08.21.17.29 1.86 1.5 3.77 2.85 6.18 2.8a16 16 0 0 1 5.19.59c.39.12.76.14 1.13.08.66-.1 1.35-.11 2 .05.98.25 1.95.4 2.9.46.92.06 1.57.5 1.95 1.3l-.01.05-.07.06c-.07.07-.14.07-.2-.02a1.63 1.63 0 0 0-1.79-.75c-.2.03-.2.1-.01.16.67.26 1.4.28 1.77.98.1.2.13.53.07 1-.1.81.1 1.42.62 1.83l.53.7a.12.12 0 0 1 0 .13.12.12 0 0 1-.05.05.13.13 0 0 1-.08 0l-.5-.12c-.12-.03-.18 0-.2.12-.13.65.62 1.09 1.06 1.46.07.06.13.14.15.23a3.6 3.6 0 0 1-.12 2.1.1.1 0 0 1-.1 0 .09.09 0 0 1-.03-.04 2.8 2.8 0 0 0-1.38-1.58 4.1 4.1 0 0 1-1.38-1.18 25.1 25.1 0 0 0-.8-1.24c-.1-.16-.17-.14-.2.05-.03.38.08.81.34 1.29a.07.07 0 0 1-.01.08.07.07 0 0 1-.08.01l-.3-.15a.44.44 0 0 1-.21-.23c-.25-.6-.31-1.24-.2-1.92a.47.47 0 0 0-.05-.33c-.08-.13-.13-.12-.16.02l-.3 1.38c-.06.32.06.53.16.8.14.42.02.52-.38.31l-.62-.32a.34.34 0 0 1-.13-.12.32.32 0 0 1-.05-.17c0-.53.06-1.08.2-1.65a.64.64 0 0 0-.06-.45c-.1-.18-.21-.34-.35-.48-.06-.07-.09-.06-.08.03.03.65.02 1.3-.04 1.96-.07.7.27 1.4 1.06 1.48l1.4.13c.3.03.55.14.76.32.4.35.7.9.87 1.65.17.38.36.77.56 1.16.45.91 1.05 1.57 1.65 2.37.06.08.14.1.24.08l.41-.08a.8.8 0 0 1 .46.04c.15.06.27.16.36.29a3.11 3.11 0 0 1 .43 1.18.12.12 0 0 1-.08.08h-.06c-.55-.15-1.13-.28-1.75-.39a2.3 2.3 0 0 1-1.87-1.49.22.22 0 0 0-.17-.14 4.41 4.41 0 0 0-1.95 0c-.62-.14-.9-.46-.85-.97l-.52-1.58a.3.3 0 0 0-.1-.15.33.33 0 0 0-.19-.06 5.29 5.29 0 0 1-1.49-.2c-.64-.22-1.29-.4-1.95-.53a2.75 2.75 0 0 1-1-.42c-.4-.27-.9-.4-1.5-.42-.43-.02-.84-.24-1-.63-.37-.9-1.03-1.8-2.18-1.6-3.06.54-6.2 1.43-9.19.16a131.6 131.6 0 0 0-4.9-1.97c-.66-.25-1.25-.11-1.76.42l-1.45 2.51a.27.27 0 0 0-.01.25c.2.47.56.82.53 1.36-.02.32-.14.61-.35.88-.18.16-.3.27-.34.34-.15.27-.26.26-.34-.04l-.38-1.49.33.05c.14.02.2-.04.16-.17l-.09-.31a.16.16 0 0 0-.04-.08.17.17 0 0 0-.18-.03.17.17 0 0 0-.07.06.7.7 0 0 0-.11.48.95.95 0 0 1-.36-.47c-.23-.72-.5-1.43-.82-2.13a.4.4 0 0 1-.02-.24c.11-.55.36-1.1.75-1.65.39-.52.72-1.08 1-1.66.28-.6.74-.87 1.36-.8.78.07 1.54.2 2.28.4a.27.27 0 0 0 .24-.05.25.25 0 0 0 .08-.1c.01-.04.02-.08.01-.13a9.68 9.68 0 0 1-.06-2 4.19 4.19 0 0 0-1.9-3.89c-.62-.42-1.75.15-2.44.61-.34.12-.56.26-.65.42-.2.31-.41.6-.66.88a.22.22 0 0 1-.23.08l-.86-.2a.35.35 0 0 1-.22-.18l-.62-1.16a.16.16 0 0 1 .02-.19A36.6 36.6 0 0 0 10.88 20c.32-.44.6-.94.81-1.5.21-.53.57-1.06 1.06-1.58a.43.43 0 0 0 .1-.18l.3-1.11a.18.18 0 0 1 .07-.1.2.2 0 0 1 .22 0c.03.02.06.05.07.08l.17.45c.04.12.12.15.24.1.28-.12.49-.33.64-.64.08-.15.16-.16.25 0l.14.23c.06.1.13.1.22.05.37-.25.59-.64 1.17-.42Z" fill="#3F4094"/><defs><linearGradient id="asgun3bqq" x1="33.73" y1="14.92" x2="14.4" y2="38.74" gradientUnits="userSpaceOnUse"><stop stop-color="#F1D15A"/><stop offset="1" stop-color="#BA7707"/></linearGradient></defs></svg>