<!-- by TradingView --><svg width="56" height="56" viewBox="0 0 56 56" xmlns="http://www.w3.org/2000/svg"><path fill="#F0F3FA" d="M0 0h56v56H0z"/><path d="m25.18 24-3.12 8h1.23c.34 0 .65-.23.78-.58l.29-.75h3.02l.28.75c.13.35.44.58.78.58h1.32l-3.13-8h-1.45Z" fill="url(#a40nk14dk)"/><path fill-rule="evenodd" d="m26.7 26.65.02-.01.02-.03.02-.23c0-.06.04-.08.1-.07.06.02.09.05.09.11a2.2 2.2 0 0 1-.76 1.52l-.01.01a.08.08 0 0 0 .02.1c.41.38.76.93.75 1.54 0 .06-.03.09-.09.09h-.02c-.05 0-.08-.03-.08-.08l-.02-.23c0-.01 0-.03-.02-.04a.06.06 0 0 0-.04-.02h-1.39c-.01 0-.03 0-.04.02a.07.07 0 0 0-.02.05l-.01.22c0 .05-.04.08-.09.08h-.02c-.06 0-.09-.04-.09-.1A2.23 2.23 0 0 1 25.8 28a.06.06 0 0 0 0-.04l-.01-.02c-.4-.4-.74-.89-.77-1.48l.01-.06c.03-.06.06-.1.09-.1.06.01.1.04.1.11l.01.2s0 .02.02.03l.03.01h1.41Zm-.18.5h-1.06a.04.04 0 0 1-.02 0l-.01-.01-.11-.2a.04.04 0 0 1 0-.05l.01-.01h1.3l.02.02v.04l-.1.2h-.01l-.02.01Zm-.51.68.35-.39.01-.02v-.02l-.01-.01h-.72a.03.03 0 0 0-.02 0l-.02.01a.04.04 0 0 0 .01.04l.35.39.03.01H26v-.01Zm-.4.7.35-.4h.01a.03.03 0 0 1 .02-.01h.02l.35.4a.03.03 0 0 1 .01.02.04.04 0 0 1 0 .03h-.03l-.7.01h-.03a.03.03 0 0 1 0-.03v-.02Zm.9.27h-1.07l-.01.02-.1.21a.05.05 0 0 0-.01.02v.02l.02.02h1.3l.01-.02a.05.05 0 0 0 0-.04l-.1-.2-.02-.02h-.02Z" fill="#fff"/><path d="M7.13 32 4 24h1.23c.35 0 .65.23.79.58l1.8 4.8 1.78-4.8a.85.85 0 0 1 .78-.58h1.32l-3.12 8H7.13ZM18.83 32l-3.12-8h1.23c.34 0 .65.23.78.58l1.81 4.8 1.78-4.8a.85.85 0 0 1 .78-.58h1.32l-3.13 8h-1.45ZM47.43 24l-3.13 8h1.23c.34 0 .65-.23.79-.58l1.8-4.79 1.78 4.79c.13.35.44.58.78.58H52l-3.13-8h-1.44ZM13 24h1.64v8H13zM30.39 24v7.99h1.6v-5.53l3.14 5.12c.16.26.42.4.7.4H37V24h-1.62v4.83l-2.7-4.42A.82.82 0 0 0 32 24h-1.61ZM38 32h6v-1.64h-3.63l3.13-4.3c.13-.17.29-.33.38-.52.08-.17.12-.37.12-.57V24h-6v1.53h3.73l-3.23 4.4c-.13.17-.28.33-.38.52-.08.17-.12.37-.12.58V32Z" fill="#3A5684"/><defs><linearGradient id="a40nk14dk" x1="22.54" y1="31.48" x2="29.76" y2="31.52" gradientUnits="userSpaceOnUse"><stop stop-color="#50AFDE"/><stop offset="1" stop-color="#A5CB63"/></linearGradient></defs></svg>