<!-- by TradingView --><svg width="56" height="56" viewBox="0 0 56 56" xmlns="http://www.w3.org/2000/svg"><path fill="#F0F3FA" d="M0 0h56v56H0z"/><path d="M36.7 35.53V39H35v-8h1.65v3.06h.07c.14-.36.36-.63.67-.83.31-.2.7-.3 1.16-.3.43 0 .8.08 1.12.27.31.17.56.43.74.77.17.34.26.74.26 1.21V39H39v-3.52c0-.37-.12-.66-.32-.87-.19-.2-.46-.3-.8-.3-.23 0-.44.04-.62.14-.17.1-.3.24-.41.42-.1.18-.15.4-.15.66ZM31.39 39c-.63 0-1.17-.13-1.62-.38-.45-.25-.8-.6-1.04-1.06a3.28 3.28 0 0 1-.36-1.56c0-.6.12-1.11.37-1.56.24-.45.59-.8 1.04-1.06a3.2 3.2 0 0 1 1.6-.38c.53 0 1 .1 1.4.28.4.18.72.44.96.77.23.33.36.73.38 1.17h-1.6a1.15 1.15 0 0 0-.36-.7c-.19-.17-.44-.26-.75-.26a1.18 1.18 0 0 0-1.15.79c-.1.25-.16.57-.16.93 0 .37.05.69.16.95a1.18 1.18 0 0 0 1.15.8c.2 0 .37-.04.52-.12a1 1 0 0 0 .39-.33c.1-.14.17-.32.2-.52h1.6a2.3 2.3 0 0 1-.38 1.17c-.23.33-.54.6-.94.79-.4.19-.87.28-1.41.28ZM24.7 39c-.63 0-1.17-.12-1.63-.36-.45-.25-.8-.6-1.04-1.04a3.28 3.28 0 0 1-.37-1.6c0-.59.12-1.11.37-1.57.24-.45.59-.8 1.03-1.05.45-.25.97-.38 1.57-.38.4 0 .78.06 1.13.19a2.53 2.53 0 0 1 1.53 1.47c.15.37.22.8.22 1.3v.43h-5.17v-1h3.57a1.12 1.12 0 0 0-.6-1.04c-.19-.1-.4-.15-.65-.15-.26 0-.49.06-.68.17a1.22 1.22 0 0 0-.64 1.08v.95c0 .28.06.53.17.74.11.21.27.37.48.49.2.11.45.17.74.17.19 0 .36-.03.52-.08.15-.05.29-.12.4-.23.11-.1.2-.22.26-.37l1.57.1a2 2 0 0 1-.5.94c-.24.27-.56.47-.94.62-.39.15-.83.22-1.34.22ZM15 32.4V31h7v1.4h-2.6V39h-1.8v-6.6H15ZM45.99 28c-.62 0-1.16-.12-1.61-.37-.45-.26-.8-.6-1.04-1.06a3.25 3.25 0 0 1-.37-1.57c0-.6.12-1.12.37-1.57.24-.45.59-.8 1.04-1.05.45-.25.99-.38 1.6-.38.63 0 1.16.13 1.6.38.46.25.8.6 1.05 1.05.25.45.37.97.37 1.57 0 .6-.12 1.12-.37 1.57-.24.45-.59.8-1.04 1.06-.45.25-.99.37-1.6.37Zm0-1.25c.29 0 .52-.07.7-.23.2-.15.34-.36.44-.62.1-.27.14-.57.14-.9 0-.35-.05-.65-.14-.91a1.4 1.4 0 0 0-.43-.63 1.08 1.08 0 0 0-.7-.23c-.3 0-.53.08-.72.23-.2.15-.34.36-.44.63-.1.26-.14.56-.14.9 0 .34.05.64.14.9.1.27.24.48.44.63.19.16.43.23.71.23ZM33 28v-8h3.27c.6 0 1.1.09 1.5.26.4.18.7.42.9.73.21.3.31.66.31 1.06a1.63 1.63 0 0 1-.72 1.4c-.22.15-.47.26-.75.32v.08a1.86 1.86 0 0 1 1.53.92c.17.29.26.63.26 1.02 0 .42-.1.8-.32 1.14-.22.33-.53.59-.95.78-.42.2-.93.29-1.54.29H33Zm1.73-1.38h1.4c.49 0 .84-.1 1.06-.27a.9.9 0 0 0 .33-.73 1.06 1.06 0 0 0-.63-.98c-.2-.1-.44-.15-.72-.15h-1.44v2.13Zm0-3.27H36c.23 0 .44-.04.63-.12.18-.09.33-.2.44-.36a.9.9 0 0 0 .16-.54c0-.29-.1-.52-.32-.7-.2-.17-.5-.26-.88-.26h-1.31v1.98ZM27.02 28c-.62 0-1.16-.12-1.6-.37-.46-.26-.8-.6-1.05-1.06A3.24 3.24 0 0 1 24 25c0-.6.13-1.12.37-1.57.25-.45.6-.8 1.04-1.05.45-.25.99-.38 1.6-.38.63 0 1.16.13 1.61.38.45.25.8.6 1.05 1.05.24.45.36.97.36 1.57 0 .6-.12 1.12-.36 1.57-.25.45-.6.8-1.05 1.06-.45.25-.98.37-1.6.37Zm0-1.25c.29 0 .52-.07.71-.23.2-.15.33-.36.43-.62.1-.27.15-.57.15-.9 0-.35-.05-.65-.15-.91a1.4 1.4 0 0 0-.43-.63 1.08 1.08 0 0 0-.7-.23c-.29 0-.53.08-.72.23-.2.15-.34.36-.44.63-.1.26-.14.56-.14.9 0 .34.05.64.14.9.1.27.25.48.44.63.2.16.43.23.72.23ZM23.58 22l-2.14 6h-1.92l-2.14-6h1.8l1.27 4.3h.06l1.27-4.3h1.8ZM15 28v-6h1.7v6H15Zm.86-6.4a.96.96 0 0 1-.65-.24.73.73 0 0 1-.27-.57c0-.21.09-.4.27-.55.18-.16.4-.24.65-.24s.46.08.64.24c.18.15.27.34.27.55 0 .22-.09.41-.27.57a.95.95 0 0 1-.64.23ZM40 28v-6h1.69v6H40Zm.84-6.4a.96.96 0 0 1-.65-.24.73.73 0 0 1-.26-.57c0-.21.09-.4.26-.55.18-.16.4-.24.65-.24.26 0 .47.08.65.24.18.15.27.34.27.55 0 .22-.09.41-.27.57a.95.95 0 0 1-.65.23ZM7.92 20l1.97 6.08h.08L11.95 20h1.9l-2.8 8H8.81L6 20h1.92Z" fill="#0079A8"/></svg>