<!-- by TradingView --><svg width="56" height="56" viewBox="0 0 56 56" xmlns="http://www.w3.org/2000/svg"><path fill="#F0F3FA" d="M0 0h56v56H0z"/><path d="m12.34 23-2.02 5.61L8.33 23H5l4.2 10h2.27l4.2-10h-3.33ZM29.5 23H28v10h3V23h-1.5ZM33 23v3h2v7h3v-7h2v-3h-7ZM47 23v3h-2v-3h-3v10h3v-4h2v4h3V23h-3ZM23.06 28a2.32 2.32 0 0 1-4.65 0 2.3 2.3 0 0 1 2.34-2.27c1.27 0 2.3 1.02 2.3 2.27Zm2.73 0c0-2.77-2.26-5-5.08-5a5.02 5.02 0 0 0-5.08 5c0 2.77 2.3 5 5.08 5a5.02 5.02 0 0 0 5.08-5Z" fill="#003A76"/></svg>