<!-- by TradingView --><svg width="56" height="56" viewBox="0 0 56 56" xmlns="http://www.w3.org/2000/svg"><path fill="#F0F3FA" d="M0 0h56v56H0z"/><path fill-rule="evenodd" d="M47 31H36v8h11v-8Zm-.25.4H36.43v7.32h10.32v-7.31ZM28.27 21.81h-9.64v8.17h9.64v-8.17Zm-.23.24H18.9v7.74h9.15v-7.74Z" fill="#066"/><path fill-rule="evenodd" d="M46.3 31.66h-9.63v6.68h9.62v-6.68Zm-.48.23h-8.9v6h8.9v-6ZM27.28 22.78h-8.16v6.53h8.16v-6.53Zm-.4.22h-7.55v5.88h7.55V23ZM19 12h9v9.9h-9V12Zm.22.52h8.07v8.6h-8.07v-8.6Zm7.74.3h-7.5v7.98h7.5v-7.98ZM9 31h11v8H9v-8Zm.73.27h9.86v7.1H9.73v-7.1Zm9.58.25h-9.27v6.5h9.27v-6.5ZM25 31h10.62v8H25v-8Zm.7.27h9.53v7.1H25.7v-7.1Zm9.3.25h-9v6.5h9v-6.5Z" fill="#066"/></svg>