<!-- by TradingView --><svg width="56" height="56" viewBox="0 0 56 56" xmlns="http://www.w3.org/2000/svg"><path fill="#F0F3FA" d="M0 0h56v56H0z"/><path d="M14.33 24H10l17.89 23 18.1-23h-4.5L27.9 41.44 14.33 24Z" fill="url(#angmj4gda)"/><path d="M12.42 22 10 24h4.11l-1.69-2ZM43.53 22l-1.58 2H46l-2.47-2Z" fill="#13803D"/><path d="M18.28 22h-5.87l15.64 20 15.48-20h-5.55l-9.93 12.88L18.28 22Z" fill="url(#bngmj4gda)"/><path d="M18 21.96 28.04 9 38 21.96 28.04 35 18 21.96Z" fill="url(#cngmj4gda)"/><defs><linearGradient id="angmj4gda" x1="28.02" y1="24" x2="28.02" y2="47" gradientUnits="userSpaceOnUse"><stop stop-color="#AA223B"/><stop offset="1" stop-color="#E51A4C"/></linearGradient><linearGradient id="bngmj4gda" x1="27.97" y1="22" x2="27.97" y2="42" gradientUnits="userSpaceOnUse"><stop stop-color="#21A955"/><stop offset="1" stop-color="#14843F"/></linearGradient><linearGradient id="cngmj4gda" x1="28" y1="9" x2="28" y2="35" gradientUnits="userSpaceOnUse"><stop stop-color="#018BC9"/><stop offset="1" stop-color="#05436C"/></linearGradient></defs></svg>