<!-- by TradingView --><svg width="56" height="56" viewBox="0 0 56 56" xmlns="http://www.w3.org/2000/svg"><path fill="#F0F3FA" d="M0 0h56v56H0z"/><path d="M9.4 27.13a7.96 7.96 0 0 0-.5 3.06l.04 1.21c0 .05 0 .05-.04.02-.08-.1-.15-.23-.21-.38a9.23 9.23 0 0 1-.67-2.93 8.11 8.11 0 0 1 .15-2.4 9.06 9.06 0 0 1 2.42-4.18c.88-.88 1.85-1.61 2.92-2.22a22.9 22.9 0 0 1 2.35-1.16 32.65 32.65 0 0 1 5.44-1.76l1.64-.38a.55.55 0 0 1 .2 0c.09 0 .09.03 0 .06-1.15.44-2.28.9-3.4 1.4-.45.2-.9.42-1.32.66-.96.54-1.98 1.06-2.9 1.7a19.34 19.34 0 0 0-4.02 3.57 12.09 12.09 0 0 0-2.1 3.73Z" fill="#CF3830"/><path d="M20.5 39.12c1.06 0 2.03-.04 2.9-.12 1.39-.13 2.84-.32 4.35-.57 1.85-.3 3.7-.82 5.58-1.54.64-.24 1.22-.49 1.81-.81l2.63-1.43c.28-.15.67-.42 1.16-.8 1.27-1 2.45-1.96 3.4-3.2a21.11 21.11 0 0 0 2.12-3.28c.12-.23.3-.7.56-1.44.26-.72.43-1.38.52-1.97.08-.56.05-1.17.01-1.73 0-.1.03-.12.1-.05.2.17.38.38.59.65.33.45.64.95.92 1.5a7.38 7.38 0 0 1 .44 5.86c-.23.61-.52 1.22-.9 1.83a13.41 13.41 0 0 1-4.48 4.5l-3.12 1.63c-.19.1-.4.19-.63.27-1 .35-1.85.6-2.55.76-.73.16-1.5.34-2.23.43-1.13.15-2.25.3-3.36.35-2.43.11-4.95-.02-7.56-.4l-1.98-.29c-.22-.03-.4-.08-.54-.14-.05-.02-.05-.03 0-.03l.26.02Z" fill="#1F1B20"/><path d="M22.68 32c.05-.12.1-.24.17-.3 1.38-1.4 2.76-2.78 4.13-4.12a.4.4 0 0 0 .12-.4 135.2 135.2 0 0 0-1.01-4.07l.04-.11h2.8l.05.01.02.04.82 4.03c.05.2 0 .39-.15.55-.2.24-.42.47-.64.7a65.32 65.32 0 0 0-3.22 3.47.58.58 0 0 1-.47.2h-2.66Z" fill="#CF3830"/><path d="m26.13 23-.04.1a135.2 135.2 0 0 1 1.01 4.07.4.4 0 0 1-.12.4 427.55 427.55 0 0 0-4.13 4.12.89.89 0 0 0-.17.31h-.94c-.03 0-.03-.05 0-.07l4.44-4.51a.1.1 0 0 0 .02-.04 347.5 347.5 0 0 0-1.03-4.11c0-.1-.04-.1-.1-.03l-6.2 8.7c-.02.03-.04.06-.07.06h-2.77l-.02-.03-.01-.02v-8.93l.02-.02h2.69l.02.02a.04.04 0 0 1 .02.02v.02c-.03.95-.11 1.88-.17 2.82a154.08 154.08 0 0 1-.24 3.4c-.02.14 0 .15.09.04l.35-.51a1175.02 1175.02 0 0 1 3.74-5.78l.06-.03h3.55ZM32.15 31.66l3.09-8.6a.08.08 0 0 1 .07-.06h2.54a.02.02 0 0 1 .02.01v.02l-2.4 6.92a.04.04 0 0 0 .02.05h4v.02h.01v.02l-.7 1.9a.08.08 0 0 1-.07.06H29.2l-.04-.01a.07.07 0 0 1-.03-.04l-.51-2.4c0-.03 0-.05.02-.07l.17-.16 1.65-1.85c.08-.09.1-.18.09-.3-.08-.45-.18-.93-.3-1.42-.05-.2-.1-.45.04-.61.1-.13.23-.23.33-.36a139.4 139.4 0 0 1 1.58-1.77h.05l2.7-.01h.02a.02.02 0 0 1 0 .02v.01c-.07.11-.15.21-.25.31a329.23 329.23 0 0 0-3.82 4.05 42.28 42.28 0 0 1 .47 1.83c.2.8.44 1.63.67 2.44.03.1.06.1.1 0Z" fill="#1F1B20"/></svg>