<!-- by TradingView --><svg width="56" height="56" viewBox="0 0 56 56" xmlns="http://www.w3.org/2000/svg"><path fill="#F0F3FA" d="M0 0h56v56H0z"/><path d="M10.64 27.77v.01h.01l2.29-4.73a.09.09 0 0 1 .08-.05h1.73a.02.02 0 0 1 .02.01v.03l-4.28 8.93v.01a.02.02 0 0 0 0 .02H11.45l.03-.03 4.34-8.92.02-.03.04-.02h2.09l.03.02v.02L18 32h.65a.08.08 0 0 0 .07-.04l4.33-8.9a.1.1 0 0 1 .04-.04l.05-.02h2.26l.02.02.01.02V32h.63c.02 0 .03 0 .03-.02l1.99-8.94a.04.04 0 0 1 .04-.04h4.25c.38 0 .66.02.84.07.74.2 1.27.8 1.46 1.55.19.73.07 1.52-.26 2.19-.47.94-1.38 1.75-2.43 1.82a.02.02 0 0 0-.02 0 .02.02 0 0 0 0 .03l1.75 3.57a.06.06 0 0 0 .05.04h.29a.04.04 0 0 0 .04-.03l2.08-9.18c.01-.04.03-.06.07-.06h7.46a.03.03 0 0 1 .02.01v.02l-.4 1.91c0 .04-.03.06-.07.06h-5.57c-.02 0-.03 0-.03.02l-.45 1.96a.02.02 0 0 0 0 .01H42.83a.03.03 0 0 1 .02.03v.01l-.44 1.95a.03.03 0 0 1-.03.02H36.76l-.01.02-.26.96V30l.01.01h5.6c.02 0 .03.01.03.03l-.5 2.22v.01h.72c.02 0 .03 0 .04-.02l2.09-9.2c0-.03.02-.04.04-.04h7.45a.03.03 0 0 1 .02.01v.03l-.4 1.93c0 .02-.02.03-.03.03h-5.6l-.01.02-.45 1.95V27a.02.02 0 0 0 .02 0h5.57l.02.01h.01v.04l-.43 1.95H45.08l-.02.02-.01.02-.25.95V30H50.42l.01.01v.02l-.44 1.98c-.03.16-.05.3-.05.45a15.37 15.37 0 0 0-.03.54H4.01v-.03c-.01-.46 0-.92.02-1.38A1778.83 1778.83 0 0 0 4.55 23h1.97c.02 0 .03.01.03.03l-.28 4.7c0 .06 0 .06.03.02l2.5-4.71a.07.07 0 0 1 .05-.04h2.03l.02.01v.03a2467.12 2467.12 0 0 1-.26 4.73ZM29.6 24.9l-.42 1.83c.01.02.02.03.05.03a763.44 763.44 0 0 1 2.63-.01c.56-.1 1.01-.74.9-1.3-.04-.27-.17-.44-.37-.52a1.9 1.9 0 0 0-.57-.06 317.35 317.35 0 0 0-2.2.01l-.02.02Zm-13.29 1.5v-.01h-.02l-1.08 2.22v.01a.01.01 0 0 0 .02.01h1.07l.01-.01V26.4Zm7.25 0h-.02l-1.07 2.21v.01a.01.01 0 0 0 0 .01h1.08l.01-.01v-2.21Zm5.5 1.01h-.01a.01.01 0 0 0-.02 0l-1 4.58a.02.02 0 0 0 .01.01h3.47a.01.01 0 0 0 .01 0v-.01l-2.47-4.58Zm-20.5.1h-.01a.01.01 0 0 0-.02 0l-2.4 4.47a.01.01 0 0 0 0 .02H8.37l.18-4.49Zm7.74 3.02v-.01l-.02-.01h-1.97l-.02.01-.72 1.45a.02.02 0 0 0 0 .02l.01.01H16.4v-.02l-.1-1.45Zm7.26 0-.01-.01-.02-.01h-1.98v.01l-.73 1.45v.01a.02.02 0 0 0 .02.02H23.65l.01-.02-.1-1.45Z" fill="#36AA2D"/></svg>