<!-- by TradingView --><svg width="56" height="56" viewBox="0 0 56 56" xmlns="http://www.w3.org/2000/svg"><path fill="#F0F3FA" d="M0 0h56v56H0z"/><path d="M36.52 37h-1.63l2.48-7h1.97l2.48 7h-1.63l-1.8-5.4h-.06L36.52 37Zm-.1-2.75h3.85v1.15h-3.85v-1.15ZM29 37v-7h2.84c.55 0 1 .1 1.4.28a2 2 0 0 1 .88.8c.2.34.3.74.3 1.2 0 .47-.1.87-.3 1.2-.21.34-.51.6-.9.77-.4.18-.86.27-1.42.27h-1.9v-1.2h1.66c.29 0 .53-.03.72-.1.2-.08.34-.2.43-.36.1-.15.14-.34.14-.57 0-.24-.04-.43-.14-.6a.88.88 0 0 0-.43-.35c-.2-.09-.44-.13-.73-.13h-1.03V37H29Zm3.89-3.19L34.68 37H33l-1.75-3.19h1.64ZM23 37v-7h5v1.22h-3.48V33h2.93v1.23h-2.93V37H23ZM21.5 30v7H20.2l-3.13-4.4H17V37h-1.52v-7h1.34l3.1 4.4H20V30h1.5ZM14.52 30v7H13v-7h1.52ZM46.52 28H44v-7h2.54c.72 0 1.33.14 1.85.42.52.28.91.68 1.19 1.2.28.52.42 1.15.42 1.87 0 .73-.14 1.36-.42 1.88-.28.53-.68.93-1.2 1.21-.52.28-1.14.42-1.86.42Zm-1.02-1.27h.96c.44 0 .82-.08 1.12-.23.3-.16.53-.4.69-.73.15-.33.23-.75.23-1.28 0-.51-.08-.94-.23-1.26a1.5 1.5 0 0 0-.69-.73c-.3-.15-.67-.23-1.12-.23h-.96v4.46ZM42.5 21v7H41.2l-3.13-4.4H38V28h-1.52v-7h1.34l3.1 4.4H41V21h1.5ZM30.48 28v-7h5v1.22H32V24h3v1.23h-3v1.55h3.5V28h-5.02ZM27.9 23.3c-.05-.17-.12-.3-.2-.43a1.44 1.44 0 0 0-.76-.52 1.94 1.94 0 0 0-.55-.08c-.36 0-.69.1-.97.26-.27.18-.49.43-.64.76-.16.33-.24.73-.24 1.2 0 .48.08.88.23 1.21.15.34.37.6.65.77.28.17.6.26.99.26.34 0 .64-.06.88-.18.25-.11.43-.28.56-.5.13-.2.2-.46.2-.75l.3.04H26.5v-1.08h3.02v.86c0 .6-.14 1.11-.4 1.54-.27.43-.64.76-1.1 1-.48.22-1.01.34-1.62.34-.67 0-1.27-.14-1.78-.42a3 3 0 0 1-1.2-1.21 3.86 3.86 0 0 1-.42-1.86c0-.56.08-1.05.25-1.48a3.13 3.13 0 0 1 1.8-1.8c.4-.15.84-.23 1.32-.23.4 0 .79.06 1.14.17.35.11.66.27.93.47.28.2.5.45.68.73.17.28.28.59.33.93H27.9ZM17.22 28h-1.64l2.5-7h1.95l2.49 7h-1.64l-1.8-5.4h-.06l-1.8 5.4Zm-.1-3h3.85v1.3H17.1V25ZM8.06 28 6 21h1.66l1.2 4.86h.06L10.23 21h1.42l1.32 4.87h.06l1.2-4.87h1.66l-2.07 7h-1.48l-1.37-4.58h-.06L9.54 28H8.06Z" fill="#1C4371"/></svg>