<!-- by TradingView --><svg width="56" height="56" viewBox="0 0 56 56" xmlns="http://www.w3.org/2000/svg"><path fill="#F0F3FA" d="M0 0h56v56H0z"/><path d="M26.14 18.5c.19.47.32.86.4 1.15a66.57 66.57 0 0 1 1.9 11.6c.06.96.07 2.13.02 3.5 0 .17-.04.33-.06.5a3.6 3.6 0 0 0-.09.53h-.03a.25.25 0 0 1-.1-.15c-.05-.14-.1-.27-.17-.4l-.12-.3a30.75 30.75 0 0 0-2.3-4.97c-.42-.76-.84-1.52-1.2-2.3-1.22-2.65-2.23-5.08-2.7-7.96a14.34 14.34 0 0 1 .02-3.62A21.85 21.85 0 0 1 24.57 8a.03.03 0 0 1 .02.01v.02l.12.8c.24 1.11.63 2.16 1.16 3.14a88.5 88.5 0 0 0 2 3.46l.23.33c2.29 3.8 3.76 8.16 3.12 12.6-.07.5-.16 1.02-.26 1.53-.17.87-.42 1.7-.72 2.48-.05.1-.08.22-.11.34a.13.13 0 0 1-.09.1.07.07 0 0 1-.06-.01l-.02-.03-.01-.03c0-.52-.01-1.03-.06-1.5-.1-.81-.2-1.63-.32-2.46-.03-.26-.08-.5-.14-.76a8.18 8.18 0 0 1-.1-.54 42.73 42.73 0 0 0-1.94-6.66c-.19-.5-.44-1.06-.77-1.72a1.22 1.22 0 0 0-.23-.33 1.5 1.5 0 0 1-.23-.29c-.04-.08-.05-.07-.02.01Zm-7.99 11.48.19.2.53.6c1.89 2.43 3.7 4.84 5.33 7.48.34.55.61 1.04.82 1.49.44.93.76 1.65.96 2.15a8.87 8.87 0 0 1 .41 1.55c0 .01 0 .02-.02.03-.02 0-.04 0-.07-.03-.67-.65-1.2-1.15-1.6-1.5l-.38-.28a4.48 4.48 0 0 1-.37-.27c-.75-.63-1.53-1.24-2.32-1.85-2.1-1.64-4.24-3.3-5.79-5.44A15.09 15.09 0 0 1 13 24.83c.01-.7.08-1.36.14-2.05l.06-.57c0-.03.02-.06.04-.08a.06.06 0 0 1 .06-.01.06.06 0 0 1 .04.03c.32.75.78 1.4 1.4 1.96 1.06.98 2.29 1.76 3.52 2.53 1.77 1.1 3.53 2.21 4.8 3.93 1.51 2.06 2.74 4.14 3.33 6.69.23 1.01.32 1.98.27 2.89 0 .18-.05.18-.12.02l-.58-1.27c-.1-.2-.22-.39-.33-.57-.08-.11-.16-.23-.22-.35-1.74-3-4.18-6.18-7.24-8.02-.06-.04-.07-.03-.02.02Zm18.2 3.77c.15-.12.16-.1.05.04l-.4.49c-.71.87-1.41 1.73-2.06 2.67-.9 1.29-1.7 2.63-2.5 3.97l-.54.9a15 15 0 0 0-.87 1.71l-.03.07c-.5 1.16-.9 2.05-1.11 3.2-.05.24 0 .26.15.08a9.36 9.36 0 0 1 2.06-1.83c.22-.13.42-.26.6-.39l2.32-1.64c.3-.2.61-.43.92-.66l.65-.46.3-.19c.12-.06.23-.13.35-.21 3.23-2.5 5.7-5.54 6.54-9.7.11-.54.18-1.08.2-1.64a18.13 18.13 0 0 0-.38-4.72c-.03-.18-.08-.18-.15-.01l-.05.14c-.04.12-.08.23-.15.34a8.45 8.45 0 0 1-2.85 2.65c-.11.04-.22.1-.32.16-.6.39-1.26.77-1.93 1.15-1.91 1.1-3.93 2.26-5.21 4l-.97 1.28A10.94 10.94 0 0 0 29.84 37a13.09 13.09 0 0 0-1.6 6.79.06.06 0 0 0 .05.01c.03 0 .05-.02.06-.05C29.4 41.4 31 39.38 32.6 37.4a26.21 26.21 0 0 1 3.76-3.66Z" fill="#4E8046"/></svg>