<!-- by TradingView --><svg width="56" height="56" viewBox="0 0 56 56" xmlns="http://www.w3.org/2000/svg"><path fill="#F0F3FA" d="M0 0h56v56H0z"/><path d="M34.45 18c-.33-.5-.52-1.1-.52-1.73 0-1.8 1.56-3.27 3.48-3.27a3.43 3.43 0 0 1 3.43 2.73l2.4 7.12c.14.64.19 2.15-.68 3.09.23.41.44 1.43.44 2.22V33h2.12L47 38.3V40h-8.63L34 36.32v2.7c-.03.33-.26.98-1.02.98H16.23l-5.91-3.38A2.08 2.08 0 0 1 9 34.74V21.88A1.85 1.85 0 0 1 10.96 20h4.47c.28.06.92.62 1.24 1.31l.84 1.17V21.3c.06-.35.37-1.31 1.2-1.31h4.56c.3.04.99.52 1.27 1.12l.88 1.73v-1.73c.04-.28.32-1.12 1.12-1.12h5.34c.38.03.97.6 1.3 1.84l.82 3.72v-4.25c-.01-.35.16-1.31.9-1.31h.75l-1.2-2Z" fill="#2C2B29"/><path d="M10 21.97v13.06c0 .54.45.97 1.01.97H31a.99.99 0 0 0 1.01-.97V21.97a.99.99 0 0 0-1.01-.97H27a.99.99 0 0 0-1.01.97v11.4c0 .4-.55.63-.98.63-.43 0-1.02-.22-1.02-.63v-11.4a.98.98 0 0 0-1-.97h-3.98a1 1 0 0 0-1.02.97v11.32c0 .46-.55.71-1.02.71s-.98-.25-.98-.7V21.96a.99.99 0 0 0-1-.97H11a.99.99 0 0 0-1.01.97ZM40.37 21h-4.69c-.37 0-.68.3-.68.65v13.86c0 .27.23.49.51.49h9.32c.1 0 .17-.07.17-.16v-1.55c0-.09-.08-.29-.17-.29h-2.75c-.57 0-1.08-.3-1.08-.85v-11.5a.63.63 0 0 0-.63-.65Z" fill="#A9A9A9"/><ellipse cx="37.41" cy="16.27" rx="3.11" ry="2.92" fill="#A9A9A9"/></svg>