<!-- by TradingView --><svg width="56" height="56" viewBox="0 0 56 56" xmlns="http://www.w3.org/2000/svg"><path fill="#EE1C25" d="M0 0h56v56H0z"/><path fill-rule="evenodd" d="M30 20h4v14h-4V20ZM15.95 30c-.57 2.33-2.52 4.06-5.89 4C6 33.93 4 31.54 4 28.5s2.07-5.52 6.06-5.5c3.31.02 5.3 1.7 5.88 4H11.7c-.33-.6-.9-1-1.68-1C8.7 25.99 8 27.12 8 28.5s.66 2.47 2.01 2.5c.8.02 1.37-.38 1.7-1h4.24ZM46 34c3.95 0 6-2.46 6-5.5s-2.05-5.48-6-5.5c-3.95-.02-6 2.46-6 5.5s2.05 5.5 6 5.5Zm0-3c1.34.03 2-1.12 2-2.5s-.68-2.49-2-2.5c-1.32-.01-2 1.12-2 2.5s.66 2.47 2 2.5Zm-17.31-.52c-.7 2.08-2.59 3.57-5.69 3.52-4.02-.07-6-2.46-6-5.5s2.05-5.52 6-5.5c3.95.02 6 2.46 6 5.5 0 .28-.02.57-.05.84h-7.88c.2 1.16.84 1.98 1.93 2.01.69.02 1.2-.32 1.53-.87h4.16ZM23 25.62c.97 0 1.6.7 1.86 1.7h-3.72c.26-1.01.89-1.71 1.86-1.7ZM39 20h-4v14h4V20Z" fill="#fff"/></svg>