<!-- by TradingView --><svg width="56" height="56" viewBox="0 0 56 56" xmlns="http://www.w3.org/2000/svg"><path fill="#F0F3FA" d="M0 0h56v56H0z"/><path d="M6.44 33 4 24h1.4l1.7 6.9h.1L8.96 24h1.39l1.78 6.9h.08l1.7-6.9h1.4l-2.44 9h-1.33L9.7 26.32h-.07L7.78 33H6.44ZM18 24v9h-1.4v-9H18ZM27 24v9h-1.23L21 26.46V33h-1.4v-9h1.29l4.71 6.55V24H27ZM29 33v-9h3.17c1.68 0 3.17.94 3.19 2.84a3.1 3.1 0 0 1-3.2 3.16h-2.15v-1.27h2.03a1.9 1.9 0 0 0 1.96-1.9c0-.98-.65-1.58-1.98-1.58H30.4V33H29ZM36.6 33v-9h3.1c1.66 0 3.05.95 3.05 2.75 0 1.74-1.37 2.82-3.05 2.82h-2.27V28.3h2.15c1.3 0 1.83-.58 1.83-1.56 0-1-.53-1.5-1.85-1.5H38V33h-1.4Zm4.3-4.2 2.18 4.2h-1.51l-2.13-4.2h1.47ZM52 28.5c0 2.32-1.43 4.5-3.96 4.5-2.53 0-4.04-2.18-4.04-4.5 0-2.36 1.57-4.5 4.04-4.5 2.47 0 3.96 2.15 3.96 4.5Zm-1.4 0c0-1.6-.73-3.25-2.56-3.25S45.4 26.9 45.4 28.5c0 1.63.85 3.26 2.64 3.26s2.56-1.64 2.56-3.26Z"/></svg>