<!-- by TradingView --><svg width="56" height="56" viewBox="0 0 56 56" xmlns="http://www.w3.org/2000/svg"><path fill="#F0F3FA" d="M0 0h56v56H0z"/><path fill-rule="evenodd" d="M43 13H13v3h30v-3Zm0 4H13v1h30v-1Zm0 2H28.5v15.36c.53.88 1.9 2.64 4.75 2.64 1.89 0 3.06-.7 3.76-1.52.73-.84.99-1.85.99-2.5V27h1v5.99c0 .86-.34 2.1-1.23 3.15-.9 1.05-2.36 1.86-4.52 1.86a6.3 6.3 0 0 1-5.2-2.52 5.21 5.21 0 0 1-2.38 1.95 7.2 7.2 0 0 1-2.94.57C19.12 38 17 35.35 17 32.99V27h1v5.99c0 1.78 1.65 4.01 4.74 4.01h.01a6.2 6.2 0 0 0 2.53-.49 4.07 4.07 0 0 0 2.22-2.11V19H13v1h13v12.5a3.5 3.5 0 1 1-7 0V27h1v5.5a2.5 2.5 0 0 0 5 0V21H13v22h30V21H31v11.5a2.5 2.5 0 0 0 5 0v-5.6h1v5.6a3.5 3.5 0 1 1-7 0V20h13v-1Zm-28 8v5.96a7.2 7.2 0 0 0 1.67 4.49c1.27 1.5 3.35 2.63 6.58 2.55a9.85 9.85 0 0 0 4.9-1.5 9.7 9.7 0 0 0 5.23 1.5c3.55 0 7.62-2.6 7.62-7.04V27h-1v5.96c0 3.72-3.43 6.04-6.62 6.04a8.7 8.7 0 0 1-4.96-1.52l-.28-.19-.28.2a8.79 8.79 0 0 1-4.63 1.5c-2.96.08-4.75-.94-5.8-2.19A6.2 6.2 0 0 1 16 32.96V27h-1Z" fill="#631721"/></svg>