<!-- by TradingView --><svg width="56" height="56" viewBox="0 0 56 56" xmlns="http://www.w3.org/2000/svg"><path fill="url(#ai1jherkv)" d="M0 0h56v56H0z"/><path d="M9.17 36.5c-1.04.52-1.88.22-2.17 0l.95-2.86c.76 0 1.13.3 1.22.46.95.24 2.05-.1 2.48-.3-1.1-.82-1.3-1.53-1.3-4.46 0-2.34 3.77-2.49 5.65-2.27 1.69-.06 2.12 1.49 2.13 2.27 1 .75.69 4.09.24 4.3-.45.2-1.24 3.73-.24 3.54.8-.15 2.99-2.42 3.98-3.54h3.34c-.94 1.84-3.57 4.34-4.76 5.36L16 36.86v-4c.67-1 1.03-2.31 1.13-2.84a4.64 4.64 0 0 0-5.48 1.03c.56-.01 1.6.57 1.21 3.05-.39 2.48-2.62 2.64-3.69 2.4ZM46.83 36.5c1.04.52 1.88.22 2.17 0l-.95-2.86c-.76 0-1.13.3-1.22.46-.95.24-2.05-.1-2.48-.3 1.1-.82 1.3-1.53 1.3-4.46 0-2.34-3.77-2.49-5.65-2.27-1.69-.06-2.12 1.49-2.13 2.27-1 .75-.69 4.09-.24 4.3.45.2 1.24 3.73.24 3.54-.8-.15-2.99-2.42-3.98-3.54h-3.34c.94 1.84 3.57 4.34 4.76 5.36l3.57-1.51s1.22.2 2.43-.64c1.21-.84.78-2.21.78-2.21-.68-1.92-1.65-3.9-1.75-4.43 2.14-.87 3.24-.03 4.01.84-.56-.01-1.6.57-1.21 3.05.39 2.48 2.62 2.64 3.69 2.4Z" fill="#8F724C"/><path d="M14.01 33.91c0-.71 1.33-.77 1.99-.71v3.35c-.22.1-.81.23-1.4 0-.74-.28-.59-1.75-.59-2.64Z" fill="#61503B"/><path d="M20.36 34h15.56c.2-1.69.78-6.08 1.51-8H38v-2h-.57c-.61-1.58-2.97-4.73-7.47-5.8-2.44-.32-8.08.17-11.11 5.8H18v2h.85a63.74 63.74 0 0 1 1.51 8Zm-.18-8.18h-.76c.24-1.7 2.01-5.45 7.12-6.77 6.39-1.65 10.14 5.37 10.46 6.77h-.92c-.08-.58-.53-1.75-1.63-1.86-1.38-.12-2.37 1.34-2.46 1.86-.31-1.04-1.51-3.1-3.79-3.04a4.61 4.61 0 0 0-4.13 3.04c-.26-.62-1.05-1.86-2.11-1.86-1.34 0-1.78 1.55-1.78 1.86Z" fill="#836C4E"/><path d="M28.25 20.06c-4.04.07-6.07 2.37-6.58 3.5.32.12.98.35 1.05.35.08 0 1.6-2.61 5.53-2.61 3.13 0 4.73 1.7 5.13 2.61l1.27-.34c-.45-1.2-2.36-3.58-6.4-3.51Z" fill="#FC3D37"/><path d="M28.22 21.74c-2.96-.1-4.44 1.74-4.82 2.57.24.09.89.25.94.25.06 0 1-1.91 3.88-1.91 2.28 0 3.22 1.24 3.52 1.91l1.18-.25c-.33-.88-1.62-2.46-4.7-2.57Z" fill="#FC3D37"/><path d="M18 24h1.1c3-4.57 7.25-5.95 9-5.98 4.72.04 7.76 4.06 8.82 5.98H38c-2.03-5.66-7.47-6.82-9.9-6.79-6.9.35-9.6 4.81-10.1 6.79Z" fill="#66584D"/><path d="M28.73 12h-1.44l-1.29.84V14h1v.75l-1 .87V17h-1v2h1v4.42h4V19h1v-2h-1v-1.38l-1-.87V14h1v-1.16L28.73 12Z" fill="#836C4E"/><path d="M35.86 32.53c-7.14-1.04-13.3-.31-15.5.18l.22.8c6.03-.81 12.48-.53 15.28 0v-.98Z" fill="#9C7D54"/><rect width="2.67" height="7.02" rx="1.34" transform="rotate(-2.29 629.42 -504.4) skewX(.08)" fill="#CD2A32"/><path d="M26.18 25.86v-.08H25v-.53h1.28a1.86 1.86 0 0 1 3.52 0H31v.53h-1.1V26.68H31v.54h-1.1v1.23H31v.53h-1.1v.64c0 .15-.02.3-.05.44H31v.53h-1.38a1.86 1.86 0 0 1-3.17 0H25v-.53h1.23c-.03-.14-.05-.29-.05-.44v-.64H25v-.53h1.18v-1.23H25v-.54h1.18v-.82Z"/><path d="M27.39 24.56a.72.72 0 0 0 0 1.44h1.18a.72.72 0 1 0 0-1.44H27.4Zm0 1.66a.72.72 0 1 0 0 1.45h1.17a.72.72 0 1 0 0-1.45H27.4Zm-.7 2.39c0-.4.32-.73.72-.73h1.17a.72.72 0 1 1 0 1.45h-1.16a.72.72 0 0 1-.73-.72Zm.76.9a.74.74 0 0 0 0 1.49h1.14a.74.74 0 1 0 0-1.49h-1.14Z" fill="#FC3D37"/><rect width="2.67" height="7.02" rx="1.34" transform="matrix(-.9992 -.03991 -.04129 .99915 35.61 24.67)" fill="#CD2A32"/><rect width=".94" height="4.38" rx=".47" transform="rotate(-2.29 661.94 -526.76) skewX(.08)"/><rect width=".94" height="4.38" rx=".47" transform="matrix(-.9992 -.03991 -.04129 .99915 34.7 25.95)"/><defs><linearGradient id="ai1jherkv" x1="10.42" y1="9.71" x2="68.15" y2="76.02" gradientUnits="userSpaceOnUse"><stop stop-color="#1A1E21"/><stop offset="1" stop-color="#06060A"/></linearGradient></defs></svg>