<!-- by TradingView --><svg width="56" height="56" viewBox="0 0 56 56" xmlns="http://www.w3.org/2000/svg"><path fill="#FAA634" d="M0 0h56v56H0z"/><path d="M14.32 21.6a6.9 6.9 0 0 0-6.9 6.9v.19l-3.29 1.6-.13-.61 2.83-1.37a7.5 7.5 0 1 1 7.5 7.69v-.6a6.9 6.9 0 1 0 0-13.8Z" fill="url(#avf3fo5rp)"/><path fill-rule="evenodd" d="M28.5 35a6.5 6.5 0 1 0 0-13 6.5 6.5 0 0 0 0 13Zm0 1a7.5 7.5 0 1 0 0-15 7.5 7.5 0 0 0 0 15Z" fill="#7F291A"/><path d="M42.5 22a6.5 6.5 0 1 0 6 4.01l.93-.38a7.5 7.5 0 1 1-5.93-4.56l-.14.99a6.57 6.57 0 0 0-.86-.06Z" fill="#1B4542"/><path d="M48.98 19.05 51 17v.84c0 .59-1.35 1.05-2.02 1.21ZM48.98 21.27 51 19.95v.67c-.21.53-1.44.65-2.02.65Z" fill="#AAA32E"/><path d="M49.45 22.29c-.24.97-.1 2.64 0 3.36l-.93.43c.02-.31.05-1.15 0-1.98-.05-.83-.29-2.17-.13-2.83l.22 1.83.84-1.47v.66Z" fill="url(#bvf3fo5rp)"/><path d="M13.57 28.83v1.94c0 .38.02.62.07.72.04.1.13.17.24.23.12.06.28.09.59.09V32H11v-.2c.32 0 .58-.02.7-.08.1-.06.18-.14.23-.24.04-.1.07-.33.07-.7v-4.55c0-.38-.03-.62-.07-.71a.49.49 0 0 0-.24-.24 1.89 1.89 0 0 0-.69-.09V25h2.97c.98 0 1.68.18 2.11.54.43.35.64.8.64 1.34 0 .45-.14.84-.41 1.17-.28.32-.66.54-1.14.66-.32.08-.82.12-1.6.12Zm0-3.43v3.03h.25c.41 0 .68-.12.9-.36.22-.25.33-.64.33-1.17 0-.51-.11-.9-.33-1.14-.22-.24-.5-.36-.94-.36h-.2ZM28 25.4v2.85h.13c.43 0 .75-.14.94-.42.2-.28.32-.69.37-1.23h.2v3.66h-.2c-.04-.4-.12-.72-.25-.98a1.08 1.08 0 0 0-.45-.5 1.64 1.64 0 0 0-.74-.14v1.97c0 .39.01.62.04.7.03.1.1.16.18.22.09.05.23.08.42.08h.41c.64 0 1.15-.15 1.53-.45.38-.3.66-.77.83-1.39h.18L31.3 32h-5.9v-.2h.23c.2 0 .36-.03.48-.1a.47.47 0 0 0 .2-.25c.04-.08.06-.3.06-.65v-4.6c0-.32-.01-.51-.03-.59a.5.5 0 0 0-.18-.27.85.85 0 0 0-.53-.15h-.22V25H31v2h-.18c-.1-.5-.23-.8-.41-1.02a1.5 1.5 0 0 0-.75-.48c-.18-.07-.54-.1-1.05-.1H28ZM45.87 29.54 45.61 32h-6.29v-.2h.24c.2 0 .37-.03.5-.1a.47.47 0 0 0 .2-.25c.04-.08.06-.3.06-.65v-4.6c0-.36-.02-.58-.06-.67a.5.5 0 0 0-.23-.24.91.91 0 0 0-.47-.1h-.24V25H43v.2h-.21c-.2 0-.37.03-.5.1-.3.16-.29.6-.29.9v4.46c0 .32-.02.76.33.9.09.03.3.05.63.05h.59c.38 0 .69-.07.94-.2s.47-.34.65-.62c.18-.28.35-.7.52-1.25h.21Z" fill="#fff"/><defs><linearGradient id="avf3fo5rp" x1="4.77" y1="30.52" x2="21.52" y2="24.51" gradientUnits="userSpaceOnUse"><stop stop-color="#5E5C37"/><stop offset=".12" stop-color="#84923A"/><stop offset=".36" stop-color="#061939"/><stop offset=".54" stop-color="#768923"/><stop offset=".83" stop-color="#2E2F27"/><stop offset="1" stop-color="#3A4F1C"/></linearGradient><linearGradient id="bvf3fo5rp" x1="49.24" y1="16.52" x2="49.24" y2="26.28" gradientUnits="userSpaceOnUse"><stop offset=".63" stop-color="#AAA32E"/><stop offset="1" stop-color="#506D3D"/></linearGradient></defs></svg>