<!-- by TradingView --><svg width="56" height="56" viewBox="0 0 56 56" xmlns="http://www.w3.org/2000/svg"><path fill="#F0F3FA" d="M0 0h56v56H0z"/><path fill-rule="evenodd" d="M37.21 42.38c3.8-2.3 6.25-5.66 7.36-10.09.63-2.52.5-5.4.03-7.6a17.95 17.95 0 0 0-3.73-7.53A16.99 16.99 0 0 0 19 13.46c.9-.37 1.71-.64 2.4-.85 3.6-1.09 7.4-1.24 10.98-.15 2.73.83 5.15 2.54 6.93 4.74 2.6 3.23 4 6.95 4.2 11.18 0 .74-.04 1.47-.12 2.2H26V31h17.34c-.05.34-.1.67-.17 1H25.64v.42h17.44c-.08.4-.18.78-.3 1.16H25.22V34h17.42c-.11.34-.24.67-.38 1H25.22v.42h16.85c-.19.4-.39.78-.61 1.16H25.22V37H41.2a14.3 14.3 0 0 1-1.17 1.58H25.64V39h14.02c-.32.34-.65.67-1.01 1H26v.42h12.17c-.47.4-.97.78-1.52 1.16H27V42h9.01a24 24 0 0 1-1.74 1h-6.71v.42h5.87a34 34 0 0 1-3.85 1.55c.21.03.46.05.72 0 2.42-.47 4.81-1.31 6.91-2.59ZM14.37 29.61c0-3.32 1.44-5.91 2-6.86-1.94.36-3.73-1.01-4.07-1.75-.46.86-1.3 3.37-1.3 6.65 0 7.91 4.64 12.98 7 14.35-.93-1.5-3.63-8.24-3.63-12.4ZM21 25.64c-.58.9-1.68 3.4-1.68 6.56 0 3.95 2.54 10.56 3.68 11.8-2.4-1.3-7-6.53-7-13.68 0-3.13.75-5.5 1.21-6.32.35.7 1.82 1.98 3.79 1.64Zm4.32 3.79C24.8 30.2 24 32.4 24 35.1c0 3.37 1.9 8.9 3 9.89-2-1.32-6-5.48-6-11.58 0-2.66.82-4.72 1.22-5.42.3.6 1.36 1.72 3.1 1.43ZM19 20.87c0-4.1 6-5.63 9-5.87-3.04 1.21-5.1 4.37-5.46 5.87-.36 1.5-1.04 2.13-1.83 2.13-.78 0-1.71-.66-1.71-2.13Zm.68-.37c0-.82.83-1.54 1.25-1.8-.32.52-.47.92-.47 1.33 0 .2.05.29.1.37.04.07.08.15.08.32 0 .37-.21.56-.46.56s-.5-.26-.5-.78Zm23.2 9.5H39l.74-5h1.12l-.62 4H43l-.12 1ZM37 30h1.2l.8-5h-1.2l-.8 5Zm-3 0h-1l.61-5h1.96c1.02 0 1.53.53 1.41 1.56-.13 1.04-.8 1.44-1.8 1.44h-.93L34 30Zm.5-4.15-.14 1.3h.88c.46 0 .75-.1.82-.59.05-.49-.19-.71-.64-.71h-.91ZM26.72 30h1.1l1.49-3.54.47 3.54h1.1L33 25h-1.08l-1.46 3.6-.44-3.6H29l-1.45 3.6h-.05l-.41-3.6H26l.71 5Z" fill="#008ACB"/></svg>