<!-- by TradingView --><svg width="56" height="56" viewBox="0 0 56 56" xmlns="http://www.w3.org/2000/svg"><path fill="#F0F3FA" d="M0 0h56v56H0z"/><path fill-rule="evenodd" d="M37 22v-4h1v4h-1Zm.52-4.4a.6.6 0 0 1-.43-.15.52.52 0 0 1 0-.79.6.6 0 0 1 .43-.16c.16 0 .3.05.42.16.11.11.17.24.17.4 0 .15-.06.28-.17.39a.6.6 0 0 1-.42.16ZM9 17l1.52 5h1.1l1-3.16h.04L13.67 22h1.1l1.51-5h-1.22l-.88 3.32h-.05L13.17 17h-1.05l-.97 3.31h-.05L10.23 17H9Zm7.28 3c0 1.22.68 2 1.89 2S20 21.22 20 20s-.63-2-1.84-2c-1.2 0-1.88.78-1.88 2ZM19 20c0 .69-.27 1.15-.83 1.15-.55 0-.83-.46-.83-1.15 0-.7.28-1.16.83-1.16.55 0 .83.47.83 1.16Zm2 2v-4h1v.72h.02c.08-.25.2-.4.37-.53.17-.13.37-.19.59-.19a1.67 1.67 0 0 1 .35.04v.95a1.95 1.95 0 0 0-.47-.06c-.16 0-.3.03-.43.1a.84.84 0 0 0-.43.72V22h-1Zm4 0v-5h-1v5h1Zm2.27-.01c-.9 0-1.57-.72-1.57-2.04 0-1.37.7-1.95 1.57-1.95.67 0 .98.4 1.13.73h.1V17h1v5h-1v-.7h-.1c-.15.32-.48.69-1.13.69Zm.35-.87c.54 0 .84-.47.84-1.17 0-.51-.28-1.07-.84-1.07-.57 0-.84.57-.84 1.07 0 .68.3 1.17.84 1.17Zm2.6-3.12 1.09 4h1.17l.68-2.56h.05l.68 2.56h1.17l1.08-4h-1.11l-.6 2.61h-.04L33.74 18h-1.1L32 20.63h-.04L31.34 18h-1.11Zm13.04 2.07c0 1.15.8 1.93 1.91 1.93.33 0 .62-.05.87-.15.25-.1.46-.24.62-.42.16-.18.26-.4.32-.64l-1.02-.07a.67.67 0 0 1-.43.41c-.1.04-.22.05-.34.05a.95.95 0 0 1-.48-.11.8.8 0 0 1-.31-.33.75.75 0 0 1-.11-.42H47v-.3c0-.34-.05-.63-.14-.88a1.63 1.63 0 0 0-1-1 2.1 2.1 0 0 0-.73-.14c-1.16 0-1.87.93-1.87 2.07Zm1.03-.43h1.67c0-.16-.03-.3-.1-.42a.74.74 0 0 0-.29-.29.82.82 0 0 0-.42-.1.85.85 0 0 0-.45.11.85.85 0 0 0-.41.7ZM34.5 27h1v4h-1v-4Zm.5-.5a.6.6 0 0 1-.43-.16.52.52 0 0 1 0-.78.6.6 0 0 1 .42-.16c.16 0 .3.05.42.16.12.1.17.24.17.39 0 .15-.05.28-.17.39a.59.59 0 0 1-.42.16Zm-6.52.01a.6.6 0 0 1-.42-.16.52.52 0 0 1 0-.78.6.6 0 0 1 .42-.16c.17 0 .3.05.42.16s.18.24.18.39a.59.59 0 0 1-.6.55ZM10.31 31H9.1l1.82-5h1.44l1.82 5h-1.2l-.34-1h-2l-.34 1Zm1.36-3.8.63 1.8H11l.63-1.8h.04ZM16 26v5h-1v-5h1Zm3.27 1v2.2c0 .52-.3.8-.7.8-.42 0-.8-.21-.8-.68v-2.31h-1v2.5c.01.93.56 1.49 1.35 1.49.6 0 1.02-.3 1.2-.77h.04V31h.91v-4h-1ZM31 31v-2.2c0-.51.3-.8.73-.8.44 0 .77.29.77.77V31h1v-2.56c0-.92-.5-1.44-1.33-1.44-.59 0-1 .24-1.17.7V27h-1v4h1Zm-3-4h1v4h-1v-4Zm13 0h1v.7h.11a.99.99 0 0 1 .44-.5c.2-.12.45-.2.73-.2.29 0 .53.08.73.21.2.13.34.32.4.54h.05c.09-.22.24-.4.47-.54.22-.13.49-.2.8-.2.39 0 .7.12.95.35.24.23.32.56.32.99V31h-1v-2.33c0-.36-.39-.67-.76-.67-.42 0-.74.28-.74.7V31h-1v-2.36c0-.38-.32-.64-.7-.64-.4 0-.8.32-.8.69V31h-1v-4Zm-20 0v4h1v-2.31c0-.37.4-.69.8-.69.38 0 .7.26.7.64V31h1v-2.3c0-.42.32-.7.74-.7.37 0 .76.3.76.67V31h1v-2.65c0-.43-.08-.76-.32-.99a1.32 1.32 0 0 0-.95-.35c-.31 0-.58.07-.8.2-.23.14-.38.32-.47.54h-.04a.96.96 0 0 0-.4-.54c-.2-.13-.45-.2-.74-.2-.28 0-.53.07-.73.2a.99.99 0 0 0-.44.5H22V27h-1Zm18 2.19V27h1v4h-1v-.77c-.18.46-.56.77-1.16.77-.8 0-1.33-.56-1.34-1.49V27h1v2.32c0 .46.37.68.79.68.4 0 .71-.28.7-.8ZM28 40v-4h1v4h-1Zm.5-4.46a.6.6 0 0 1-.42-.16.51.51 0 0 1 0-.77.6.6 0 0 1 .42-.16c.17 0 .3.05.42.16.12.1.18.23.18.38a.5.5 0 0 1-.18.39.6.6 0 0 1-.42.16ZM19 36v4h1v-4h-1Zm.06-.62c.11.1.25.16.42.16a.6.6 0 0 0 .41-.16.5.5 0 0 0 0-.77.59.59 0 0 0-.41-.16.6.6 0 0 0-.42.16.51.51 0 0 0 0 .77ZM15 35v5h3v-1h-2v-4h-1Zm17.5 2v-1h-.85v-1h-1v1h-.9v1h.9v1.87c0 .79.44 1.16 1.2 1.13.24 0 .42-.07.54-.1l.05-.02-.17-.8h-.02c-.06.01-.16.03-.25.03-.27 0-.35-.14-.35-.38V37h.85ZM21 36v4h1v-2.32c0-.36.4-.68.8-.68.38 0 .7.26.7.64V40h1v-2.3c0-.42.32-.7.74-.7.37 0 .76.3.76.67V40h1v-2.65c0-.43-.08-.76-.32-1a1.32 1.32 0 0 0-.95-.34c-.31 0-.58.07-.8.2-.23.14-.38.32-.47.54h-.04a.96.96 0 0 0-.4-.54c-.2-.14-.45-.2-.74-.2-.28 0-.53.06-.73.2a.99.99 0 0 0-.44.5H22V36h-1Zm13.92 4A1.84 1.84 0 0 1 33 38.06c0-1.13.72-2.06 1.87-2.06.26 0 .5.05.73.13a1.63 1.63 0 0 1 1 1c.1.25.14.55.14.88v.3h-2.7c0 .2.03.28.1.42a.8.8 0 0 0 .31.33 1.05 1.05 0 0 0 .82.06.67.67 0 0 0 .43-.4l1.02.07c-.05.24-.16.45-.32.64a1.6 1.6 0 0 1-.62.42c-.25.1-.54.15-.86.15Zm.78-2.36h-1.67a.85.85 0 0 1 .41-.7.85.85 0 0 1 .45-.12c.16 0 .3.04.42.11s.22.16.29.29c.07.12.1.26.1.42Zm1.5.3c0 1.33.66 2.05 1.57 2.05.65 0 .97-.37 1.13-.7h.1V40h1v-5h-1v1.73h-.1a1.18 1.18 0 0 0-1.13-.73c-.87 0-1.57.58-1.57 1.95Zm2.75 0c0 .7-.3 1.18-.83 1.18-.55 0-.84-.48-.84-1.17 0-.5.27-1.07.84-1.07.56 0 .83.56.83 1.07Zm-1.32-18c0 1.33.67 2.05 1.57 2.05.65 0 .98-.37 1.13-.7h.1V22h1v-5h-1v1.73h-.1A1.18 1.18 0 0 0 40.2 18c-.87 0-1.57.58-1.57 1.95Zm2.76 0c0 .7-.3 1.18-.84 1.18s-.83-.48-.83-1.17c0-.5.27-1.07.83-1.07.57 0 .84.56.84 1.07Z" fill="#1068B4"/></svg>