<!-- by TradingView --><svg width="56" height="56" viewBox="0 0 56 56" xmlns="http://www.w3.org/2000/svg"><path fill="#F0F3FA" d="M0 0h56v56H0z"/><path d="M8.53 25h1.92L8.3 27.4l2.36 2.6H8.72l-1.4-1.54L5.93 30H4l2.36-2.6L4.2 25h1.92l1.2 1.33L8.53 25Z"/><path d="M15.45 25h-4.74l-.9 1h2.2v4h1.53v-4h1.91v-1ZM16 27.49A2.48 2.48 0 0 1 18.5 25h1.84v.47H18.5a2.01 2.01 0 1 0 0 4.03h1.31V28H18v-.5h2.31V30h-1.8A2.5 2.5 0 0 1 16 27.49ZM21 28.76V25h.5v3.76c0 .4.33.74.75.74H24v.5h-1.75c-.69 0-1.25-.56-1.25-1.24ZM40 28.76V25h.5v3.76c0 .41.34.74.76.74H43v.5h-1.74c-.7 0-1.26-.56-1.26-1.24Z"/><path fill-rule="evenodd" d="M26.5 29.5a2 2 0 1 0 0-4 2 2 0 0 0 0 4Zm0 .5a2.5 2.5 0 1 0 0-5 2.5 2.5 0 0 0 0 5ZM30 25.5h2.15c.46 0 .85.37.85.83 0 .46-.39.84-.85.84H30V25.5Zm-.5 1.67V25h2.65a1.33 1.33 0 0 1 .87 2.34 1.42 1.42 0 0 1-.68 2.66H29.5v-2.83Zm.5.5h2.34a.92.92 0 1 1 0 1.83H30v-1.83Z"/><path d="M36.66 24.89h.44l1.73 3.25.99 1.86h-.59l-.78-1.5h-3.1L34.5 30h-.56l1.03-1.86 1.68-3.25ZM35.6 28h2.58l-1.3-2.46L35.6 28Z"/><path d="M47.45 28.01c-.83 2.16-3.3 6.24-4.44 7.97l7.6-8.27-7.6-7.7a54.76 54.76 0 0 1 4.44 8Z" fill="url(#a4skpunsr)"/><path d="m49.32 28.21-4 5.21 2.98-5.41-2.67-4.87 3.69 5.07Z" fill="#222A4E"/><path d="M52 28.05c-2.37-2.95-6.99-6.6-9-8.05 1.94 1.92 4.58 6.16 5.65 8.05-1.37 2.66-4.34 6.4-5.65 7.95 3.24-2.06 7.35-6.16 9-7.95Z" fill="url(#b4skpunsr)"/><defs><linearGradient id="a4skpunsr" x1="46.05" y1="20.04" x2="46.05" y2="35.93" gradientUnits="userSpaceOnUse"><stop stop-color="#282D43"/><stop offset=".5" stop-color="#186F9B"/><stop offset="1" stop-color="#282D43"/></linearGradient><linearGradient id="b4skpunsr" x1="47.5" y1="20" x2="47.5" y2="36" gradientUnits="userSpaceOnUse"><stop stop-color="#115A79"/><stop offset=".5" stop-color="#5CC8EE"/><stop offset="1" stop-color="#115A79"/></linearGradient></defs></svg>