<!-- by TradingView --><svg width="56" height="56" viewBox="0 0 56 56" xmlns="http://www.w3.org/2000/svg"><path fill="#F0F3FA" d="M0 0h56v56H0z"/><path fill-rule="evenodd" d="m26.59 12.04.7-1.63a.67.67 0 0 1 1.24 0l.7 1.63h5.47L43 42H33v2H23v-2H13l8.89-29.96h4.7ZM25 26h-6.62l4.08-13h3.9l-2.8 7.77c-.2.54.18 1.23.73 1.23h7.13c.55 0 .94-.68.74-1.23L29.42 13h4.65l3.86 13H31v3h-6v-3Zm14.33 5-.42-1H17.1l-1.74 6H30a2 2 0 0 1 0 4H14.6l-.33 1h27.56l-1.66-6H25a2 2 0 1 1 0-4h14.33ZM24 37h6a1 1 0 1 1 0 2h-6v-2Zm1-5h6v2h-6a1 1 0 1 1 0-2Z" fill="#D71923"/></svg>