<!-- by TradingView --><svg width="56" height="56" viewBox="0 0 56 56" xmlns="http://www.w3.org/2000/svg"><path fill="#F0F3FA" d="M0 0h56v56H0z"/><path d="M17.13 15.32c-5.7-.05-4.12 8.48-2.62 12.74 0-1.65-1.82-9.42 3.15-9.42 5.38 0 12.76 9.85 15.79 14.67-1.82-5.18-9.2-17.92-16.32-17.99Z" fill="#0A3456"/><path d="M36.8 19.04c.17-5.15-6.24-5.37-9.46-4.84 5.1 0 6.48 3.08 6.3 4.38C32.2 29.56 16.62 38.78 9 42c16.59-3.85 27.6-16.52 27.8-22.96Z" fill="#0A3456"/><path d="M29 38.33 27 36h1.37l1.13 1.6 1.12-1.6h1.34L30 38.33V40h-1v-1.67ZM33.48 36h1.45L37 40h-1.25l-.46-1H33.1l-.43 1h-1.24l2.05-4Zm1.45 2.33-.75-1.47-.73 1.47h1.48ZM39.12 40a5.56 5.56 0 0 1-1.68-.28l.1-.77a4.5 4.5 0 0 0 1.55.34c.27 0 .49-.04.66-.12.16-.07.25-.17.25-.3 0-.1-.06-.18-.17-.24a2.89 2.89 0 0 0-.53-.18l-.2-.06a2.2 2.2 0 0 0-.09-.02 1.61 1.61 0 0 0-.12-.04c-.31-.09-.47-.17-.66-.25-.19-.08-.35-.19-.5-.33a.78.78 0 0 1-.2-.56c0-.37.19-.66.55-.87.36-.21.78-.32 1.42-.32.5 0 1 .07 1.51.21l-.18.76a3.8 3.8 0 0 0-1.34-.26c-.26 0-.47.04-.61.11-.15.07-.22.17-.22.29 0 .1.05.18.15.24.1.06.26.12.48.18l.35.1c.32.08.39.16.6.24.21.09.4.2.55.36a.8.8 0 0 1 .22.59c0 .37-.18.66-.55.87-.37.2-.68.31-1.34.31ZM42 36h1v1.57h3V36h1v4h-1v-1.72h-3V40h-1v-4Z" fill="#58585A"/></svg>