<!-- by TradingView --><svg width="56" height="56" viewBox="0 0 56 56" xmlns="http://www.w3.org/2000/svg"><path fill="#0B3251" d="M0 0h56v56H0z"/><path d="M18 26.7c-.18-6.48-5.53-7.76-8-7.59V16c6.1 0 8.96 3.62 9.5 5.43C20.56 18.5 23.9 16 28.8 16c3.91 0 6.74 2.08 7.67 3.11l-2.28 2.32c-1.16-1.72-4.08-2.37-5.4-2.43-6.09-.23-7.79 4.72-7.79 7.02V40h-3V26.7Z" fill="#236799"/><path d="M39.26 25H43a1 1 0 0 1 0 2h-2.5a.5.5 0 1 0 0 1H43v3a1 1 0 0 1 0 2h-2.5a.5.5 0 1 0 0 1H43v4a1 1 0 0 1 0 2H33a1 1 0 1 1 0-2v-5a1 1 0 1 1 0-2v-4a1 1 0 1 1 0-2h2.94a11.68 11.68 0 0 0-1.76-3.6l2.28-2.3a11.56 11.56 0 0 1 2.8 5.9Z" fill="#FFFEFF"/></svg>