<!-- by TradingView --><svg width="56" height="56" viewBox="0 0 56 56" xmlns="http://www.w3.org/2000/svg"><path fill="#F0F3FA" d="M0 0h56v56H0z"/><path fill="#C5C7C6" d="M17 10h22v33H17z"/><path fill="#39308F" d="M17 46h22v-3H17z"/><path d="M38.1 11H17.73l9.52 13.66L38.11 11ZM38 38V12.62L18 38h20Z" fill="#008DD2"/><path d="M20 42h-1v-.98L17.49 39h.95l1.06 1.56 1-1.56h.96L20 41v1ZM22.93 41.12h1.41l-.7-1.65-.71 1.65Zm1.79.88-.26-.6H22.8l-.26.6h-.93l1.42-3h1.21l1.43 3h-.95ZM28.42 41.57v-.79c0-.06-.01-.1-.03-.12-.02-.02-.07-.03-.15-.03h-1.76c-.32 0-.48-.13-.48-.38v-.87c0-.25.16-.38.48-.38h2.41c.32 0 .47.13.47.38V40h-.96v-.57c0-.06 0-.1-.03-.12-.03-.02-.07-.03-.15-.03h-1.04c-.07 0-.13.01-.15.03-.02.02-.03.06-.03.12v.77c0 .06.01.1.03.12.02.02.08.03.15.03h1.73c.31 0 .47.12.47.38v.89c0 .25-.16.38-.47.38H26.5c-.31 0-.49-.13-.49-.38V41h1v.57c0 .06.01.1.03.12.02.02.08.03.15.03h1.06c.08 0 .13-.01.15-.03.02-.02.03-.06.03-.12ZM33 39h1v3h-1v-1.36h-2V42h-1v-3h1v1.36h2V39ZM38 39.38v2.24c0 .25-.16.38-.47.38h-2.49c-.31 0-.47-.13-.47-.38v-2.24c0-.25.16-.38.47-.38h2.49c.31 0 .47.13.47.38Zm-1 2.19v-2.14c0-.06-.02-.1-.04-.12-.02-.02-.07-.03-.15-.03h-1.09c-.07 0-.12.01-.15.03-.02.02-.03.06-.03.12v2.14c0 .06 0 .1.03.12.03.02.08.03.15.03h1.1c.07 0 .12-.01.14-.03.02-.02.04-.06.04-.12Z" fill="#F0F3FA"/><path fill="#E4E4E4" d="M18 44h20v1H18z"/></svg>