<!-- by TradingView --><svg width="56" height="56" viewBox="0 0 56 56" xmlns="http://www.w3.org/2000/svg"><path fill="#F0F3FA" d="M0 0h56v56H0z"/><path fill-rule="evenodd" d="M28 44a16 16 0 1 0 0-32 16 16 0 0 0 0 32Zm0 1a17 17 0 1 0 0-34 17 17 0 0 0 0 34Z" fill="#04498A"/><path d="M15.96 40c3.08 3.09 7.34 5 12.04 5 4.7 0 8.96-1.91 12.04-5H15.96Z" fill="#04498A"/><path fill-rule="evenodd" d="M32.47 42.94V41.7H30.87v.6h.67a.78.78 0 0 1-.72.41c-.52 0-.82-.38-.82-.84 0-.47.28-.85.82-.85.3.01.52.12.65.3l1.1-.12c-.27-.48-.84-.81-1.7-.82-1.24-.02-1.87.67-1.87 1.51s.7 1.52 1.87 1.52c.65-.01 1.28-.14 1.6-.47Zm-3.96-1.05c0 .84-.7 1.5-1.9 1.52-1.2 0-1.9-.68-1.9-1.52s.64-1.53 1.9-1.51c1.26.01 1.9.67 1.9 1.51Zm-1.02-.05c0 .45-.32.82-.88.82s-.88-.37-.88-.82c0-.45.3-.82.88-.82.58.01.88.37.88.82Zm-6.94-1.4 1.45 1.7v1.1h1v-1.1l1.5-1.7h-1.27l-.7 1-.8-1h-1.18Zm13.45.02h-1v2.86h1v-2.86Z" fill="#F0F3FA"/><path d="M17.34 37.63v.44l10.93.52c1.59.12 3.8-.7 4.71-1.11l-.67-2.04c-.72.26-2.3.8-2.86.96-.55.16-.7.58-.7.77v1.07h-.58v-.76c0-.66-.51-1-.77-1.08l-7.85-.3c-1.57.03-1.9 1.03-1.88 1.53h-.33Z" fill="#04498A"/><path d="m28.98 36.3 2.7-.86L25 34.9v-6.2l-3.36-1.33c.4-2.8 2.97-3.82 4.21-3.99l3.43-1.71c1.43-.35 3.64-1.43 3.32-2.24-.26-.65-1.2-.83-1.63-.84l-1.2.84c.98-.95.92-2.4.76-3l-3.34 3.4c-1.81.15-2.17 1.52-2.12 2.19-4.05.79-6.32 5-6.96 7 .28-2.7 2.93-5.27 4.22-6.22a8.7 8.7 0 0 0-4.66 7.53 8.64 8.64 0 0 0 1.1 4.97l-.66.54 10.87.46Z" fill="#04498A"/><path d="M21.42 31.2h-1.37c1.77 1.6.74 2.9 0 3.34h1.37c1.48-1.34.61-2.8 0-3.35Z" fill="#010101"/><ellipse cx="19.5" cy="32.91" rx="1.04" ry="1.36" fill="#fff"/><ellipse cx="19.72" cy="32.95" rx=".82" ry="1.15" fill="#B3B3B3"/><path fill="#010101" d="M23.24 29.05h.35v6.42h-.35z"/><path d="M25.87 35.87c-.77-.46-.32-.91 0-1.07 1.28-.2 2.83-.09 3.45 0 .87.4.36.88 0 1.07h-3.45Z" fill="#B3B3B3"/><ellipse cx="27.62" cy="35.03" rx="1.43" ry=".25" fill="#010101"/><path fill-rule="evenodd" d="m21.49 27.35 3.32-.64H34V28h-2.08l1.61-.65-3.53.82V29h-1.16l.6.02v.67c-.86.18-2.62.44-3.44 0v-.53l.09-.16H21v-.6h8.3V28h-8.7v-.48h8.7l3.59-.68h-.63l-2.83.51H21.5Zm5.3 1.43-.11.45h-.42l.53-.45Z" fill="#010101"/><path d="M29.87 30.34v-.77a13.7 13.7 0 0 1-4.46 0v.7c1.23.55 3.49.28 4.46.07Z" fill="#B3B3B3"/><path d="M29.34 30.69c-1.72.24-3.13.1-3.62 0v.28c1.1.4 2.88.17 3.62 0v-.28ZM29.34 31.3a8.43 8.43 0 0 1-3.62 0v.4c1.1.56 2.88.23 3.62 0v-.4Z" fill="#010101"/><ellipse cx="26.39" cy="20.72" rx=".35" ry=".63" transform="rotate(53.38 26.39 20.72)" fill="#D9D9D9"/><path d="M30.18 22.36c-.4 1.03-1.02 1.69-2.86 1.9-.65.08-1.04 0-1.26-.17a.62.62 0 0 1-.23-.72l2.9-1.46c.4-.13 1.02-.25 1.32-.1.17.09.24.26.13.55Z" fill="#B3B3B3"/><path d="M29.42 21.7c.24-.03.49-.02.66.06.1.05.17.12.2.23.03.1.01.24-.05.39-.2.52-.46.95-.9 1.28a4.1 4.1 0 0 1-2 .66c-.66.08-1.06 0-1.3-.18a.68.68 0 0 1-.25-.78v-.03l2.92-1.48c.21-.06.47-.12.72-.15Zm-.67.26-2.87 1.46a.56.56 0 0 0 .17.6c.4-.53 1.62-1.59 3.8-2.2a1.69 1.69 0 0 0-.42 0c-.24.02-.49.08-.68.14Zm1.3-.08c-2.26.6-3.52 1.7-3.9 2.2.2.13.57.2 1.16.13.92-.11 1.52-.33 1.94-.64.43-.31.67-.72.88-1.23.05-.14.06-.24.04-.32a.24.24 0 0 0-.12-.14Z"/><path d="M26.8 24.53c0-.36.32-.67.47-.78.18 1.45.48 2.18.61 2.36.13.47-.39.64-.83.5-.43-.14-.25-1.63-.25-2.08ZM27.79 25.5c.41.78.75.32.87 0-.1-.69-.25-1.45-.3-1.75-.2-.33-.64-.14-.84 0l.27 1.75ZM30 22.73c-.6.04-.73.56-.71.82l1.51 1.23c.82.2.99-.42.97-.75L30 22.73Z" fill="#010101"/><ellipse cx="31.3" cy="24.38" rx=".17" ry=".28" transform="rotate(46.17 31.3 24.38)" fill="#B3B3B3"/><ellipse cx="28.26" cy="25.59" rx=".17" ry=".28" transform="rotate(82.41 28.26 25.59)" fill="#B3B3B3"/><ellipse cx="27.4" cy="26.39" rx=".17" ry=".28" transform="rotate(82.41 27.4 26.39)" fill="#B3B3B3"/><path d="M36 14.6c.3.12 1.13.53.9.86-.18.23-1.12-.64-.9-.85ZM34.45 14.51c.29.17.88.63.9 1.09-.25-.1-.8-.43-.9-1.09ZM31.37 15.81c.2.05.63.25.75.7a.93.93 0 0 1-.75-.7Z" fill="#B3B3B3"/><path fill-rule="evenodd" d="m35.45 17.2.1.38c-.41.07-.9-.32-1.1-.53.2-.23.68-.74 1-.99.32-.25.02-.78-.17-1.02l.64-.58c-.19.19-.34.6.26 1 .66.44.87.11.9-.11l.15.39-1.4 1.45h-.38Zm.53-2.8a.6.6 0 0 0-.06.06l.06-.05Zm-.53 3.46-.4.29c-.32-.12-1-.42-1.16-.67l.35-.29c.2.18.7.57 1.21.67Zm-.52.4v.91l-1.56-1.31.32-.28c.52.47 1.04.65 1.24.68Zm-.15 1.16c-1.08 1.88-3.84 2.24-5.09 2.18 2.14-.48 2.69-1.18 3.11-1.71l.23-.29c.4-.43.4-1.07.34-1.34l1.4 1.16Zm-3.6-3.68c-.26.1-.67.65-.18 2 .11.2.6.78 1.62 1.34.22.09.66.1.62-.54-.05-.8-.02-.92.45-1.35H34l1.27-1.36c-.3-.2-.95-.75-1.04-1.27l-1.62 1.5v.28l-.51.43c-.31-.08-.93-.4-.93-1.03Zm1.9.23.95-.88.14.18-.95.91-.14-.21Zm-.41.66-.9.84.17.18.88-.88-.15-.14Z" fill="#010101"/></svg>