<!-- by TradingView --><svg width="56" height="56" viewBox="0 0 56 56" xmlns="http://www.w3.org/2000/svg"><path fill="#F0F3FA" d="M0 0h56v56H0z"/><path fill-rule="evenodd" d="M43.3 36.76c3.9-2.3 6.2-5.42 6.2-8.76s-2.3-6.46-6.2-8.76C39.41 16.94 34 15.5 28 15.5s-11.41 1.44-15.3 3.74c-3.9 2.3-6.2 5.42-6.2 8.76s2.3 6.46 6.2 8.76c3.89 2.3 9.3 3.74 15.3 3.74s11.41-1.44 15.3-3.74ZM28 41c12.15 0 22-5.82 22-13s-9.85-13-22-13S6 20.82 6 28s9.85 13 22 13Z"/><path fill-rule="evenodd" d="M28 40.5c7.27 0 13.12-5.62 13.12-12.5S35.27 15.5 28 15.5 14.88 21.12 14.88 28 20.73 40.5 28 40.5Zm0 .5c7.52 0 13.62-5.82 13.62-13S35.52 15 28 15s-13.62 5.82-13.62 13S20.48 41 28 41Z"/><path d="M23.81 19.1a20.79 20.79 0 0 0-1.8 8.9c0 3.5.7 6.64 1.8 8.9 1.12 2.29 2.62 3.6 4.2 3.6 1.57 0 3.07-1.31 4.2-3.6A20.79 20.79 0 0 0 34 28h.5c0 3.55-.7 6.78-1.86 9.13-1.14 2.33-2.77 3.87-4.64 3.87-1.88 0-3.5-1.54-4.65-3.87A21.28 21.28 0 0 1 21.51 28c0-3.55.7-6.78 1.85-9.13 1.15-2.33 2.77-3.87 4.65-3.87 1.27 0 2.44.72 3.4 1.9a13.23 13.23 0 0 1 2.3 4.85l-.48.13a12.75 12.75 0 0 0-2.2-4.66c-.91-1.12-1.95-1.72-3.02-1.72-1.58 0-3.08 1.31-4.2 3.6Z"/><path d="M26.5 19.6a11.23 11.23 0 0 1-6.1-3.33l.37-.34a10.73 10.73 0 0 0 5.82 3.19c2.56.43 5.65-.18 8.89-3.2l.34.36c-3.34 3.12-6.58 3.79-9.31 3.33ZM26.43 36.48c-2.8.46-5.05 2.03-6.27 3.34l.36.35a10.97 10.97 0 0 1 5.99-3.2c2.65-.43 5.82.19 9.05 3.2l.34-.36c-3.34-3.12-6.66-3.79-9.47-3.33Z"/><path d="M25.27 22.51a19.81 19.81 0 0 1-10.28-4.74l.34-.37a19.31 19.31 0 0 0 10 4.62c4.45.63 9.77-.27 15.23-4.63l.31.39c-5.57 4.45-11.03 5.39-15.6 4.73ZM25.36 33.33A19.98 19.98 0 0 0 15 38.08l.34.36c1.96-1.8 5.6-3.98 10.1-4.62 4.5-.63 9.87.27 15.32 4.64l.31-.4c-5.56-4.45-11.07-5.38-15.7-4.73ZM21.68 25.2c-5.02-.99-9.05-2.84-11.63-4.43l.26-.43c2.54 1.57 6.5 3.4 11.47 4.38l-.1.49Zm24.24-4.44a29.16 29.16 0 0 1-10.28 4.45l-.11-.5a28.66 28.66 0 0 0 10.1-4.36l.29.41ZM21.77 30.62a37.1 37.1 0 0 0-11.91 4.46l.26.42a36.6 36.6 0 0 1 11.74-4.39l-.1-.49Zm24.26 4.46a29.7 29.7 0 0 0-11.84-4.72l-.08.5a29.2 29.2 0 0 1 11.64 4.64l.28-.42ZM23 28.3H6v-.5h17v.5Zm26.96 0H34v-.5h15.96v.5Z"/><path d="m24.57 29-1.02-5h2.6l.68 3.19 1.2-3.19h2.94l-2.94 8h-2.99l1.11-3h-1.58ZM34 26l.68-2h-2.6l-.8 2h2.71ZM32.87 29l.69-2h-2.6l-.8 2h2.71ZM31.78 32l.68-2h-2.6l-.8 2h2.72Z" fill="#0281B3"/><path d="M27.82 23v-8h.5v8h-.5Zm0 17.98V33h.5v7.98h-.5Z"/></svg>