<!-- by TradingView --><svg width="56" height="56" viewBox="0 0 56 56" xmlns="http://www.w3.org/2000/svg"><path fill="#F0F3FA" d="M0 0h56v56H0z"/><path fill-rule="evenodd" d="M16 13h24a2 2 0 0 1 2 2v26a2 2 0 0 1-2 2H16a2 2 0 0 1-2-2V15c0-1.1.9-2 2-2Zm-3 2a3 3 0 0 1 3-3h24a3 3 0 0 1 3 3v26a3 3 0 0 1-3 3H16a3 3 0 0 1-3-3V15Zm15.03 3.34c.65 0 2.19-.56 2.19-1.85l-.82-.4-.9-1.98-2.13 3.47h1.66l1.37-.65c-.15.34-.82 1.26-1.37 1.41ZM26 19.72V18h2.03c-.45 1-1.74 1.72-2.03 1.72ZM41.63 32.9c.68 1.38-.65 2.46-1.4 2.83-1.85-2.75-5.82-5.85-7.58-7.06 0 1.18-.65 3.53-3.25 3.53s-3.5-3.37-3.61-5.06c-.47.62-1.25.94-1.58 1.02-1.66-.28-1.2-2.08-.76-2.95-.8-.43-2.44-1.58-2.56-2.72-.12-1.14.82-1.4 1.3-1.39l1.04-1.75h.5c-.53.81-.73 1.9-.87 2.63l-.1.51c-.16.6.7 1.75 1.66 2.07.76.26 2.08-.1 2.58-.32v-.78l-2.38.78c.1-.88 1.34-1.53 1.96-1.75v-.6H26v-1.62l1.14-.56c.3.65.98 1.89 1.36 1.63.38-.26-.45-1.43-.92-1.99l2.16-1.24c.55.17.7 1.36.71 1.88H31v.6h-.55v.36c-.04.74-1.08 1.33-1.6 1.54v.5h.9l.48-.32h1.22l2.11 1.57L34.6 23H38v.67h-2.66l-.13.3c-.27.59-.8 1.73-1.08 2.4.52-.47 1.3-.7 1.63-.75 1.3.3 1.69 2.46 1.71 3.5h-1.3v-.44h-.4v.61l5.86 3.62Zm-18.18-4.4c-.98.79-3.06 2.08-3.54 1-.6-1.34 1.39-4.57 1.97-4.78l.88.89c-.19.87-.3 2.68.7 2.9Zm-8.2 4.01c2.8-.87 8.71-2.95 9.86-4.35l.68 1.12c-2.19 1.4-7.12 4.49-9.38 5.75l-1.17-2.52Zm.67 3.07-.4.6-1.47-2.88.76-.55 1.1 2.83Zm4 3.41-1.29 3h20.74l-1.74-3H19.91Zm1.24-.38h4.63a8.86 8.86 0 0 1-3.32-3.03c2.58 0 5.47-1.24 6.6-1.86L28.02 32h-2.7v-.6h1.53L25.8 30c-1.4.85-4.5 2.68-5.61 3.31-1.12.64-.64 1.29-.27 1.69h-1.53l.25 1h3.25l.32 1h-2.02l.98 1.63Zm12.97 0L35.34 37h2.3l-1.01 1.63h-2.5Zm1.63-2.19h2.39v-.48l-2.39-.21v.7Zm-12.3-.48c.63.89 2.74 2.67 6.11 2.67 3.38 0 5.26-2.02 5.77-3.03h-2.69v.6h-.69l-2-1.83a15.3 15.3 0 0 1-6.5 1.59ZM32.5 35c-1.3.38-2.61-1.33-3.1-2.24 1.09 0 1.9-.48 2.2-.76h2.52l-1.62-.82.63-1.66c.87.62 2.9 2.18 3.97 3.39 1.08 1.2.45 1.88 0 2.09h-4.6Zm4.44-15 1.1 1.35-.58 1.23h-1.7l-.43-1.23.99-1.35h.62Zm-7.38-.43a.32.32 0 1 0 0-.65.32.32 0 0 0 0 .65Zm-.14 5.18a1.83 1.83 0 0 0 1.48 1.68l.22.03.02.22c.02.2-.03.5-.23.74-.22.25-.56.42-1.07.42-.5 0-.84-.17-1.03-.44a.96.96 0 0 1-.14-.76l.54.13a.41.41 0 0 0 .05.31c.06.09.2.2.58.2.38 0 .55-.11.64-.22.04-.04.06-.1.08-.14a2.4 2.4 0 0 1-1.69-2.1l.55-.07Zm-2.2 1.2c-.4-.03-.82-.13-1.09-.2l.15-.54c.25.08.63.16.98.19.18 0 .33 0 .44-.02.12-.02.16-.06.16-.06l.45.32a.78.78 0 0 1-.5.28 2.3 2.3 0 0 1-.59.03Zm6.97 1.93s-.04-.02-.1-.02v.55a.32.32 0 0 1-.14-.03 111.26 111.26 0 0 1-2.76-2.7l.4-.39a111.43 111.43 0 0 0 2.33 2.35 5.13 5.13 0 0 0 .28.24h-.01Zm-9.1-1.93-.93.66-.32-.46.94-.65.32.45Zm2.23 1.34c-.32 0-.68.23-.92.47l-.39-.4c.28-.27.77-.61 1.3-.62.28 0 .56.09.81.3.25.23.45.55.6 1 .16.52.39 1 .63 1.36.26.37.5.6.7.66.1.03.18.03.25 0 .07-.02.17-.08.27-.22.2-.29.4-.83.55-1.75l.55.09c-.15.94-.37 1.59-.66 1.98-.14.2-.32.35-.52.43a.9.9 0 0 1-.61 0c-.38-.13-.71-.48-.98-.88a6.08 6.08 0 0 1-.71-1.49c-.13-.4-.28-.63-.43-.76a.63.63 0 0 0-.44-.17Z" fill="#089C89"/></svg>