<!-- by TradingView --><svg width="56" height="56" viewBox="0 0 56 56" xmlns="http://www.w3.org/2000/svg"><path fill="#F0F3FA" d="M0 0h56v56H0z"/><path d="M43 13H13v30h23.7c-2.7 0-4.8-1.5-6.95-3.29-2.2-1.84-4.45-3.71-7.43-3.71-.46 0-1.06.11-1.7.23-1.7.3-3.62.66-3.62-.87 0-1.04 1.4-1.36 2.72-1.36.97 0 1.91.17 2.58.28.28.05.51.1.68.11 5.7-3.14 9.86-7.42 13.86-12.89l-2.93-1.53c-.33-.16-.65-.35-.99-.54C31.73 18.73 30.46 18 29 18c-2.22 0-3 2.22-3 4.75 0 .85.25 1.64.5 2.43.25.78.5 1.55.5 2.38 0 .64 0 1.44-.85 1.44-.96 0-1.15-1.88-1.15-2.9 0-.37 0-.73.02-1.05l.01-.67c-.62-1.41-1.73-2.02-3.03-2.64v-.97a8.19 8.19 0 0 1 3 2.2c0-4.13 1.44-6.97 5.06-6.97 2.38 0 7.66 4.31 7.66 4.31 1-1.75 3.17-3.58 5.28-4.27V13Zm0 4.18a8.37 8.37 0 0 0-3.98 3.5s.66.32 1.64.32c.82.01 1.64-.22 2.34-.65v-3.17Zm0 4.38c-.94.38-1.87.44-2.66.44-1.3 0-2.23-.26-2.23-.26-3.99 5.68-7.61 9.57-13.7 13.1 0 0 3.66 1.57 7.77 3.85C36 40.81 42.96 40.99 43 41V21.56Z" fill="#272526"/></svg>