<!-- by TradingView --><svg width="56" height="56" viewBox="0 0 56 56" xmlns="http://www.w3.org/2000/svg"><path fill="url(#a)" d="M0 0h56v56H0z"/><path d="M35 27.93V9a18.43 18.43 0 0 1-4 5.25v15.09c1.65-.42 3.07-.96 4-1.4Zm-5 1.64a20 20 0 0 1-4 .43V18.07c1.32-.82 2.7-1.8 4-2.92v14.42Zm-5-10.9v11.3a11.54 11.54 0 0 1-4-.94v-8.36a31.45 31.45 0 0 0 4-2Z" fill="url(#b)"/><path d="M36.5 35v7H40v1h-5v-8h1.5ZM33 35v8h-1.5v-8H33ZM24 35h1.78c1.54 0 3.71.22 3.71 2.23 0 .99-.72 1.86-1.69 2.05.71.27 1.13.87 1.42 1.55l.78 1.94V43h-1.54l-.68-1.93c-.28-.73-.66-1.27-1.46-1.44a5.38 5.38 0 0 0-.82-.06V43H24v-8Zm1.5 3.75c.26.04.45.05.69.05.98 0 1.79-.47 1.79-1.5 0-1.4-1.42-1.5-2.48-1.5v2.95ZM22 42.34c-.52.6-1.77.66-2.51.66-2.34 0-3.49-1.8-3.49-3.99 0-2.24 1.2-4.01 3.59-4.01.73 0 1.51.14 2.18.43v1.02h-.13a3.1 3.1 0 0 0-1.97-.65c-1.5 0-2.17 1.07-2.17 3.22 0 1.44.42 3.2 2.14 3.2.32 0 .5-.04.86-.23V40H19v-1h3v3.34Z" fill="#fff"/><defs><linearGradient id="a" x1="28" y1="0" x2="28" y2="56" gradientUnits="userSpaceOnUse"><stop stop-color="#0047C8"/><stop offset="1" stop-color="#002662"/></linearGradient><linearGradient id="b" x1="28" y1="9" x2="28" y2="30" gradientUnits="userSpaceOnUse"><stop stop-color="#FFBE2E"/><stop offset=".43" stop-color="#FFFC37"/><stop offset="1" stop-color="#FFA22A"/></linearGradient></defs></svg>