<!-- by TradingView --><svg width="56" height="56" viewBox="0 0 56 56" xmlns="http://www.w3.org/2000/svg"><path fill="#F0F3FA" d="M0 0h56v56H0z"/><path d="M25.83 18.87c-1.16.25-1.78-.76-1.86-3.04 0-.15.07-.21.22-.19.06.01.1.05.12.12.18.64.34 1.32.5 2.04.1.5.4.7.92.6.51-.11.71-.42.6-.93-.16-.71-.29-1.4-.4-2.06 0-.07.02-.12.08-.16.12-.08.21-.06.27.08.87 2.1.72 3.29-.45 3.54ZM28.24 16.2l1.45.84c.17.1.28.24.32.43.04.19 0 .36-.1.52-.57.8-1.3.9-2.17.3a.66.66 0 0 1-.3-.66c.04-.36.16-.39.37-.1.13.2.32.37.56.54.27.19.53.18.8 0l.14-.12c.1-.07.15-.17.14-.3a.33.33 0 0 0-.17-.28l-1.31-.76a.71.71 0 0 1-.37-.53.7.7 0 0 1 .22-.64c.24-.27.48-.4.71-.42.7-.05 1.18.24 1.45.84.04.1.02.17-.06.23l-.11.08c-.06.05-.11.04-.16-.03-.34-.54-.8-.7-1.37-.5a.29.29 0 0 0-.2.26c0 .13.04.23.16.3ZM32.54 15.94c.33.13.66.24.99.33.16.05.2.15.11.3l-.08.14c-.05.09-.12.11-.22.07a1.1 1.1 0 0 0-.67-.1c-.11.03-.22.2-.31.51-.45 1.44-.81 2.1-1.09 2-.28-.12-.1-.85.55-2.2.15-.3.19-.5.12-.6-.11-.16-.3-.28-.56-.37-.1-.04-.13-.1-.11-.21l.03-.16c.04-.17.14-.21.3-.14.3.16.61.3.94.43Z" fill="#100F0F"/><path fill-rule="evenodd" d="M19.95 17.98c-.13.1-.15.2-.06.34l1.66 2.47c.09.14.2.16.33.07l.88-.6c.33-.2.52-.5.6-.9.07-.37 0-.73-.23-1.06l-.33-.5a1.4 1.4 0 0 0-.9-.61 1.33 1.33 0 0 0-1.06.2l-.89.6Zm.82 0c-.22.13-.26.31-.13.53l.97 1.52c.14.22.32.26.54.12l.26-.16a.98.98 0 0 0 .45-.64.99.99 0 0 0-.14-.77l-.3-.46a.98.98 0 0 0-.63-.44.97.97 0 0 0-.76.13l-.26.17Z" fill="#100F0F"/><path d="m35.02 19.4.45.36c.13.09.24.07.33-.05l.52-.63c.11-.14.24-.16.38-.06.16.1.16.25-.02.45-.63.72-1.24 1.42-1.8 2.12-.12.14-.25.15-.39.04l-.07-.06c-.09-.07-.1-.15-.02-.24l.8-.91c.1-.12.07-.23-.07-.35a18.65 18.65 0 0 0-.79-.67c-.14-.12-.26-.12-.35 0l-.77.94c-.07.09-.15.1-.24.02l-.07-.07c-.13-.11-.14-.24-.02-.38.59-.68 1.18-1.4 1.78-2.14.17-.2.31-.23.44-.1.12.13.12.26 0 .4l-.53.6c-.1.12-.1.23 0 .34l.44.38ZM19 21.05c.4.05.62.07.67.06.26-.07.3-.17.15-.28l-1.41-1.04c-.1-.07-.14-.15-.12-.26v-.09c.01-.07.05-.12.11-.16.07-.03.12-.02.17.02l2.33 1.9c.16.12.17.26.05.42-.04.06-.12.09-.24.09-.26 0-.83-.05-1.73-.16-.4-.05-.62-.07-.67-.05-.25.07-.3.16-.15.28l1.41 1.04c.1.06.14.15.13.26l-.01.09c-.01.07-.05.12-.11.15s-.12.03-.17-.01l-2.33-1.9c-.15-.13-.17-.27-.05-.43.04-.05.12-.08.24-.08.26-.01.83.04 1.73.15Z" fill="#100F0F"/><path fill-rule="evenodd" d="M38.66 21.66c.1-.15.1-.29.01-.42-.09-.13-.22-.17-.39-.14-1.09.21-2.14.47-3.14.8-.14.03-.18.12-.14.26l.04.13c.02.09.08.12.17.1l.84-.18c.1-.02.2.02.31.13a4.55 4.55 0 0 1 .43.64c.06.14.06.25 0 .33l-.48.72c-.05.07-.04.13.03.19l.11.09c.1.09.2.08.3-.03.67-.82 1.3-1.7 1.91-2.62Zm-1.19.88c.35-.43.45-.71.3-.85-.14-.13-.42 0-.82.37-.18.16-.17.32.02.5.19.17.36.17.5-.02Z" fill="#100F0F"/><path d="m19.12 24-2.81-1.31a.23.23 0 0 0-.31.11v.02c-.06.12-.01.26.1.31l2.82 1.3c.11.06.25.01.3-.1l.02-.03a.23.23 0 0 0-.12-.3ZM17.68 27.2h1.02c.15 0 .22.07.22.2v.14c0 .15-.08.23-.23.23h-2.86c-.13 0-.2-.06-.2-.19v-.1c0-.19.1-.28.29-.28h.83c.1 0 .16-.06.16-.16V25.8c0-.15-.07-.24-.22-.28a1.44 1.44 0 0 0-.75.04c-.12.04-.21 0-.26-.12a.3.3 0 0 1-.02-.2c.03-.1.1-.16.21-.16h2.74c.17 0 .26.09.26.27v.1c0 .08-.03.11-.1.11H17.6c-.17 0-.25.09-.25.25v1.06c0 .22.11.33.33.33ZM37.88 27.03c-.2.16-.18.24.08.26.2.02.74 0 1.63-.08.22-.02.32.08.32.3v.09c0 .15-.07.22-.22.22h-2.4c-.88 0-.96-.26-.26-.78l1.56-1.14c.09-.07.11-.15.07-.25a.3.3 0 0 0-.05-.1.21.21 0 0 0-.2-.06c-.56.1-1.1.13-1.61.1-.18-.01-.22-.1-.14-.25l.09-.14a.32.32 0 0 1 .3-.17c.94-.04 1.6-.04 2-.02 1.15.07 1.23.4.25.98-.25.15-.72.5-1.42 1.04Z" fill="#100F0F"/><path fill-rule="evenodd" d="M26.95 26.17c-.25.22-.4.43-.45.65-.03.14-.1.15-.22.04a2.77 2.77 0 0 1-.2-.24c-.2-.25-.37-.4-.54-.44-.54-.13-1-.02-1.38.32a1.2 1.2 0 0 0-.4.99c0 .39.14.73.4 1.01.13.15.12.29-.03.41l-1.02.83c-.13.1-.14.22-.05.36l.15.22c.16.24.35.27.57.1l1.1-.9c.26-.2.52-.2.76.03l.8.4c.16.14.16.28 0 .4l-1.38 1.12c-.2.17-.22.36-.03.56l.12.14c.2.21.4.23.62.05l1.98-1.6c.05-.03.1-.04.16 0 .06.02.09.07.09.14v1.86c0 .25.11.38.34.38h.35c.22 0 .31-.12.31-.36V27.2c0-.12.06-.2.16-.2h.63c.13 0 .21.1.21.25v5.36c0 .26.11.39.35.39h.3c.24 0 .35-.14.35-.4v-5.14c0-.13.06-.2.16-.25l.6-.11c.15-.06.22-.18.24-.34.01-.17-.05-.3-.18-.38l-.34-.21a.37.37 0 0 1-.14-.18l-.02-.04c-.54-1.21-1-2-1.39-2.39-.64-.63-1.45-.73-2.41-.3-.33.15-.57.4-.74.77-.17.35-.23.72-.17 1.12.01.12.06.23.14.32.13.14.22.27.27.4.05.12.02.22-.07.3Zm3.71-.17c.1 0 .14-.04.1-.13-.23-.6-.56-1.1-.98-1.48-.56-.52-1.12-.52-1.68 0-.26.22-.26.54-.02.96l.11.18a1 1 0 0 0 .28.35c.1.08.23.12.37.12h1.82Zm-4.94 1.69c0 .3-.24.56-.54.56a.55.55 0 0 1-.54-.56c0-.31.24-.57.54-.57.3 0 .54.26.54.57Zm.55.69.1-.11c.32-.33.48-.66.48-.98 0-.2.07-.29.23-.29h.7c.14 0 .22.08.22.23v1.7c0 .27-.12.46-.35.58a.55.55 0 0 1-.65-.09l-.7-.59c-.17-.14-.18-.29-.03-.45Z" fill="#A50A04"/><path d="M28.03 39.8c.28 0 .86-.08 1.74-.24 2.25-.4 4.15-1.3 5.69-2.7 2.35-2.14 3.6-4.8 3.75-7.98 0-.25.14-.38.39-.38h.4c.26 0 .38.13.36.4-.5 5.72-3.4 9.53-8.72 11.42-1.05.37-2.25.55-3.61.56a10.9 10.9 0 0 1-3.62-.55c-5.32-1.86-8.24-5.66-8.76-11.39-.02-.26.1-.4.37-.4h.39c.25 0 .38.13.4.38a11.08 11.08 0 0 0 3.77 7.97c1.55 1.4 3.45 2.3 5.7 2.68.88.15 1.46.22 1.75.22Z" fill="#100F0F"/><path d="M28 37.57c2.38 0 4.48-.85 6.29-2.55a8.12 8.12 0 0 0 2.74-6.12c0-.24.12-.36.36-.36h.37c.24 0 .36.12.35.37a9.6 9.6 0 0 1-2.17 5.99 10.25 10.25 0 0 1-5.37 3.51c-.59.17-1.45.25-2.58.25-1.13 0-2-.09-2.58-.26-2.2-.62-3.98-1.8-5.36-3.52a9.6 9.6 0 0 1-2.16-6c0-.24.12-.36.36-.36h.37c.24 0 .36.12.36.36-.01 2.35.9 4.4 2.72 6.12a8.9 8.9 0 0 0 6.3 2.57Z" fill="#100F0F"/><path fill-rule="evenodd" d="M43 13H13v30h30V13Zm-1 1H14v28h28V14Z" fill="#100F0F"/></svg>