<!-- by TradingView --><svg width="56" height="56" viewBox="0 0 56 56" xmlns="http://www.w3.org/2000/svg"><path fill="#F0F3FA" d="M0 0h56v56H0z"/><path d="M25 20c-.96 0-1.77-.64-2-1.5h4a2.06 2.06 0 0 1-2 1.5Zm0-4c.96 0 1.77.64 2 1.5h-4a2.06 2.06 0 0 1 2-1.5ZM8 21h13v2.5l-6.77 7.4a.67.67 0 0 0-.23.5c0 .3.29.6.67.6H21v3H8v-2.75L15.77 24H8v-3Zm15 3.4V21h4v7l-4-3.6ZM23 35v-3h4v3h-4Zm6-14h4v1.38S34.56 21 36.8 21c2 0 3.08.64 3.96 1.75C41.8 21.47 43.9 21 45 21s4 .5 4 3.81V35h-4v-9.25c0-.96-.9-1.75-2.05-1.75-.96 0-1.95.77-1.95 1.75V35h-4v-9.25c0-1.22-.96-1.75-1.91-1.75-.98 0-2.09.66-2.09 1.75V35h-4v-3h1.4c.38 0 .6-.24.6-.5 0-.14-.02-.28-.16-.4L29 29.75V21Z" fill="#00B052"/></svg>