<!-- by TradingView --><svg width="56" height="56" viewBox="0 0 56 56" xmlns="http://www.w3.org/2000/svg"><path fill="#F0F3FA" d="M0 0h56v56H0z"/><path fill-rule="evenodd" d="M28 43a15 15 0 1 0 0-30 15 15 0 0 0 0 30ZM17 21h3v14h-3V21Zm24 7c0-3.9-3.1-7-7-7v7h7Zm-14 .08c0 3.6 2.76 6.27 6 6.92V21a6.9 6.9 0 0 0-6 7.08Zm7 5.77A5.8 5.8 0 0 0 39.79 29h1.19A6.97 6.97 0 0 1 34 35v-1.15ZM21 35V21h7l-3.11 6.9L28 35h-7Z" fill="#009C41"/><path fill-rule="evenodd" d="M28 44a16 16 0 1 0 0-32 16 16 0 0 0 0 32Zm0 1a17 17 0 1 0 0-34 17 17 0 0 0 0 34Z" fill="#009C41"/></svg>