<!-- by TradingView --><svg width="56" height="56" viewBox="0 0 56 56" xmlns="http://www.w3.org/2000/svg"><path fill="#F0F3FA" d="M0 0h56v56H0z"/><path d="M8.28 30 6 22h1.84l1.32 5.48h.07L10.7 22h1.58l1.45 5.49h.07L15.11 22h1.85l-2.29 8h-1.64l-1.52-5.27h-.07L9.93 30H8.28ZM19.91 30c-1.84 0-2.97-1.18-2.97-3.05 0-1.68 1.14-2.95 2.9-2.95 1.6 0 2.82.88 2.82 2.9v.45h-5.05v-1.02h3.49c0-.7-.53-1.1-1.25-1.1-.75 0-1.26.45-1.27 1.16v.96c0 .3.06.55.17.76.22.43.63.67 1.2.67.54 0 .97-.24 1.14-.69l1.54.1C22.39 29.27 21.4 30 19.9 30ZM25.67 22v8H24v-8h1.67ZM29.7 30c-1.75 0-2.95-1.3-2.95-3.05 0-1.7 1.16-2.95 2.94-2.95 1.37 0 2.6.73 2.68 2.16H30.8c-.09-.6-.48-.93-1.09-.93-.5 0-.9.22-1.12.75-.1.26-.16.58-.16.95 0 .38.06.7.16.96.21.53.6.81 1.12.81.58 0 1-.37 1.09-.98h1.57a2.4 2.4 0 0 1-.38 1.2c-.44.67-1.23 1.08-2.3 1.08ZM35.19 30c-.38 0-.72-.07-1.02-.2-.3-.13-.54-.33-.71-.59a1.75 1.75 0 0 1-.26-.98c0-.33.06-.6.19-.82.12-.23.28-.4.5-.54.2-.14.44-.24.71-.31.27-.07.55-.12.85-.15.33-.03 1.55-.03 1.55-.53v-.02c0-.49-.41-.69-.98-.69-.6 0-.96.21-1.07.6l-1.54-.12c.24-1.09 1.19-1.65 2.61-1.65 1.34 0 2.54.49 2.54 1.9V30H37v-.94h-.06a1.67 1.67 0 0 1-.97.82c-.22.08-.48.12-.78.12Zm.48-1.14c.24 0 .46-.04.64-.14.19-.1.34-.23.44-.4.1-.16.25-.34.25-.55v-.63c-.35.23-.84.21-1.24.27-.58.08-.97.3-.97.77 0 .22.08.4.24.51.17.12.38.17.64.17ZM44.52 25.73l-1.52.1a.77.77 0 0 0-.16-.35c-.17-.2-.45-.35-.84-.35-.35 0-.91.14-.91.59 0 .28.2.47.76.6l1.08.2c.8.17 1.73.59 1.73 1.53 0 1.37-1.5 1.95-2.66 1.95-1.2 0-2.53-.49-2.72-1.83l1.63-.08c.1.47.5.73 1.09.73.59 0 .97-.25.97-.6 0-.3-.25-.49-.76-.6l-1.04-.2c-.91-.18-1.73-.56-1.73-1.6 0-1.15 1-1.85 2.54-1.85.75 0 1.35.16 1.78.47.44.32.7.75.76 1.3ZM49 24v1.2h-4V24h4Zm-3-2h1.68v6.07c0 .15.02.27.07.35.05.08.11.14.2.17.08.04.18.05.29.05a1.44 1.44 0 0 0 .41-.05l.26 1.22a4.78 4.78 0 0 1-.9.16c-.4.01-.75-.04-1.05-.16-.3-.12-.53-.31-.7-.56a1.7 1.7 0 0 1-.26-.97V22ZM8.69 32.44c-.04-.37-.32-.58-.8-.58-.16 0-.3.02-.4.07-.23.09-.35.25-.35.45-.02.54.8.6 1.16.68.78.17 1.4.67 1.4 1.54 0 .85-.66 1.4-1.81 1.4-.76 0-1.33-.23-1.65-.69a1.53 1.53 0 0 1-.24-.84h.96c.03.47.4.7.91.7s.83-.24.83-.57c0-.54-.91-.73-1.3-.83-.8-.2-1.28-.63-1.28-1.32 0-.57.33-1 .86-1.24.27-.12.58-.21.92-.21.34 0 .65.1.9.21.27.12.47.29.61.5.15.2.18.46.19.74h-.91ZM12.22 32.27V33H10v-.73h2.22Zm-1.64-.8h.98v3.39c0 .09.01.16.04.2.03.05.06.09.11.1.05.03.11.04.18.04a.84.84 0 0 0 .24-.03l.15.72a2.78 2.78 0 0 1-.53.09c-.23 0-.44-.02-.61-.1a.86.86 0 0 1-.41-.33c-.1-.15-.15-.34-.15-.57v-3.52ZM14.41 36c-.36 0-.67-.07-.93-.22a1.5 1.5 0 0 1-.6-.62 2.06 2.06 0 0 1-.2-.96c0-.36.06-.68.2-.95.14-.27.34-.48.6-.63.25-.16.55-.23.9-.23.23 0 .44.03.64.1a1.44 1.44 0 0 1 .88.9c.08.22.13.48.13.77v.27h-2.97v-.6h2.05a.74.74 0 0 0-.1-.37.65.65 0 0 0-.25-.26.72.72 0 0 0-.37-.09.75.75 0 0 0-.4.1.72.72 0 0 0-.26.28.76.76 0 0 0-.1.37v.57c0 .18.04.33.1.45a.7.7 0 0 0 .28.3c.12.06.26.1.42.1.1 0 .2-.02.3-.05a.6.6 0 0 0 .38-.36l.9.06c-.05.22-.14.4-.29.56-.14.16-.32.29-.54.38-.22.09-.48.13-.77.13ZM18.26 36c-.36 0-.67-.07-.93-.22a1.5 1.5 0 0 1-.6-.62 2.06 2.06 0 0 1-.21-.96c0-.36.07-.68.21-.95.14-.27.34-.48.6-.63.25-.16.55-.23.9-.23.22 0 .44.03.64.1a1.44 1.44 0 0 1 .88.9c.08.22.12.48.12.77v.27h-2.96v-.6h2.05a.74.74 0 0 0-.1-.37.65.65 0 0 0-.25-.26.72.72 0 0 0-.37-.09.75.75 0 0 0-.4.1.76.76 0 0 0-.36.65v.57c0 .18.03.33.1.45a.7.7 0 0 0 .27.3c.12.06.26.1.43.1.1 0 .2-.02.3-.05a.6.6 0 0 0 .38-.36l.9.06c-.05.22-.15.4-.29.56-.14.16-.32.29-.54.38-.22.09-.48.13-.77.13ZM21.48 31v5h-.97v-5h.97ZM25.18 33.43l-.89.06a.46.46 0 0 0-.1-.21.52.52 0 0 0-.2-.15.68.68 0 0 0-.29-.05.72.72 0 0 0-.38.1c-.1.05-.15.14-.15.24 0 .08.03.16.1.21.07.06.18.1.34.14l.64.13c.34.07.6.18.76.34a.8.8 0 0 1 .25.6c0 .24-.06.44-.2.61-.13.17-.32.3-.55.4-.24.1-.5.15-.81.15-.46 0-.84-.1-1.11-.29-.28-.2-.44-.46-.48-.8l.95-.04c.03.14.1.25.21.32.12.07.26.11.43.11.17 0 .31-.03.41-.1.1-.06.16-.15.16-.25a.27.27 0 0 0-.1-.22.8.8 0 0 0-.35-.13l-.6-.12c-.35-.07-.6-.2-.77-.36a.88.88 0 0 1-.25-.64c0-.23.06-.42.18-.58.13-.17.3-.3.52-.38.23-.09.49-.13.79-.13.44 0 .8.1 1.05.28.25.18.4.44.44.76ZM27 36v-5h1v4h2.38v1H27ZM31 36v-3.57h1V36h-1Zm.5-4.02a.53.53 0 0 1-.36-.14.46.46 0 0 1 0-.7c.1-.1.22-.14.37-.14.14 0 .27.05.37.15.1.1.15.2.15.34 0 .13-.05.25-.15.35-.1.1-.23.14-.37.14ZM33 36v-3.57h1v.62c0-.3.4-.66.87-.66.48 0 .84.25.95.66h.04c.14-.4.55-.66 1.06-.66.69 0 1.08.53 1.08 1.19V36h-1v-2.23c0-.39-.18-.58-.49-.58-.35 0-.51.24-.51.6V36h-1v-2.25c0-.34-.19-.56-.5-.56-.33 0-.5.25-.5.64V36h-1ZM38.64 36v-3.57h.98V36h-.98Zm.5-4.02a.53.53 0 0 1-.38-.14.46.46 0 0 1 0-.7c.1-.1.23-.14.37-.14.15 0 .27.05.37.15.1.1.16.2.16.34 0 .13-.05.25-.16.35-.1.1-.22.14-.37.14ZM42.26 32.27V33H40v-.73h2.26Zm-1.63-.8h.97v3.39c0 .09.02.16.05.2.02.05.06.09.11.1.05.03.1.04.17.04a.83.83 0 0 0 .25-.03l.15.72a2.76 2.76 0 0 1-.53.09c-.23 0-.44-.02-.62-.1a.86.86 0 0 1-.4-.33c-.1-.15-.15-.34-.15-.57v-3.52ZM44.46 36c-.36 0-.67-.07-.93-.22a1.5 1.5 0 0 1-.6-.62 2.06 2.06 0 0 1-.21-.96c0-.36.07-.68.21-.95.14-.27.34-.48.6-.63.25-.16.55-.23.9-.23.22 0 .44.03.64.1a1.44 1.44 0 0 1 .88.9c.08.22.12.48.12.77v.27h-2.96v-.6h2.05a.74.74 0 0 0-.1-.37.65.65 0 0 0-.25-.26.72.72 0 0 0-.37-.09.75.75 0 0 0-.4.1.72.72 0 0 0-.26.28.76.76 0 0 0-.1.37v.57c0 .18.03.33.1.45a.7.7 0 0 0 .27.3c.12.06.26.1.43.1.1 0 .2-.02.3-.05a.6.6 0 0 0 .38-.36l.9.06c-.05.22-.15.4-.29.56-.14.16-.32.29-.54.38-.22.09-.48.13-.77.13ZM48 35.99c-.26 0-.5-.07-.72-.2a1.42 1.42 0 0 1-.51-.61c-.13-.27-.2-.6-.2-1s.07-.73.2-1a1.33 1.33 0 0 1 1.72-.7c.13.07.24.15.32.25.08.1.15.2.19.3l-.04-1.76H50V36h-1v-.63c-.05.1-.11.2-.2.3a.97.97 0 0 1-.32.23c-.13.06-.29.09-.48.09Zm.31-.77c.48 0 .69-.42.69-1.04 0-.62-.22-1.02-.69-1.02-.48 0-.74.42-.74 1.02 0 .61.26 1.04.74 1.04Z" fill="#EF0206"/></svg>